<?xml version="1.0" encoding="UTF-8" standalone="no"?>
<!DOCTYPE svg PUBLIC "-//W3C//DTD SVG 1.1//EN" "http://www.w3.org/Graphics/SVG/1.1/DTD/svg11.dtd">
<svg width="56px" height="56px" version="1.1" xmlns="http://www.w3.org/2000/svg" xmlns:xlink="http://www.w3.org/1999/xlink" xml:space="preserve" xmlns:serif="http://www.serif.com/" style="fill-rule:evenodd;clip-rule:evenodd;stroke-linejoin:round;stroke-miterlimit:1.41421;">
    <circle id="BG" cx="28" cy="28" r="28" style="fill:#232323;"/>
    <g id="BigKnob">
        <g id="Version2">
            <g transform="matrix(1.21197,1.20274e-16,0,1.21197,-8.91685,-9.10163)">
                <circle cx="30.46" cy="30.613" r="21.453" style="fill:#5c5858;"/>
            </g>
            <g transform="matrix(1.08995,-0.629283,0.629283,1.08995,-20.3899,15.6953)">
                <path d="M31.889,6.502c2.47,0.41 4.909,1.262 7.204,2.587c2.197,1.269 4.085,2.869 5.638,4.701c-0.369,1.342 -0.222,2.825 0.528,4.125c0.749,1.296 1.956,2.164 3.299,2.518c1.604,4.485 1.716,9.478 0.117,14.159c-1.3,0.37 -2.463,1.226 -3.192,2.488c-0.76,1.317 -0.901,2.822 -0.514,4.177c-3.462,4.239 -8.338,6.883 -13.53,7.639c-0.986,-1.078 -2.404,-1.755 -3.979,-1.755c-1.437,0 -2.743,0.564 -3.71,1.481c-2.095,-0.461 -4.155,-1.247 -6.11,-2.376c-2.125,-1.227 -3.961,-2.763 -5.483,-4.52c0.404,-1.368 0.268,-2.892 -0.5,-4.224c-0.78,-1.35 -2.058,-2.236 -3.468,-2.559c-1.635,-4.542 -1.738,-9.609 -0.08,-14.346c1.442,-0.307 2.753,-1.201 3.548,-2.577c0.794,-1.376 0.912,-2.958 0.458,-4.361c3.193,-3.71 7.495,-6.127 12.114,-7.037c0.972,0.952 2.304,1.539 3.771,1.539c1.528,0 2.908,-0.636 3.889,-1.659Z" style="fill:#fff;"/>
                <path d="M39.196,9.149l0.102,0.06l0.102,0.061l0.101,0.061l0.101,0.062l0.101,0.062l0.1,0.062l0.099,0.063l0.099,0.064l0.099,0.064l0.098,0.064l0.098,0.065l0.097,0.065l0.097,0.066l0.097,0.067l0.095,0.066l0.096,0.067l0.095,0.068l0.094,0.068l0.095,0.069l0.093,0.069l0.093,0.069l0.093,0.07l0.092,0.07l0.092,0.071l0.091,0.071l0.091,0.071l0.09,0.072l0.09,0.073l0.089,0.072l0.089,0.074l0.089,0.073l0.088,0.074l0.087,0.075l0.087,0.075l0.087,0.075l0.086,0.076l0.085,0.076l0.085,0.076l0.085,0.077l0.084,0.077l0.084,0.078l0.083,0.078l0.083,0.078l0.082,0.079l0.082,0.079l0.081,0.08l0.081,0.08l0.08,0.08l0.08,0.081l0.079,0.081l0.079,0.081l0.079,0.082l0.078,0.082l0.077,0.083l0.077,0.083l0.076,0.083l0.076,0.084l0.076,0.084l0.075,0.084l0.074,0.085l0.074,0.085l0.074,0.085l0.073,0.086l-0.017,0.063l-0.016,0.063l-0.016,0.063l-0.014,0.064l-0.014,0.064l-0.013,0.064l-0.013,0.064l-0.011,0.064l-0.011,0.064l-0.01,0.065l-0.009,0.065l-0.009,0.064l-0.008,0.065l-0.006,0.065l-0.007,0.066l-0.005,0.065l-0.004,0.065l-0.004,0.065l-0.003,0.066l-0.002,0.065l-0.002,0.066l0,0.066l0,0.065l0.001,0.066l0.002,0.066l0.003,0.066l0.003,0.065l0.004,0.066l0.005,0.066l0.006,0.066l0.007,0.065l0.007,0.066l0.009,0.066l0.009,0.066l0.01,0.065l0.011,0.066l0.011,0.065l0.013,0.066l0.013,0.065l0.014,0.065l0.015,0.066l0.016,0.065l0.017,0.065l0.017,0.064l0.018,0.065l0.019,0.065l0.02,0.064l0.021,0.065l0.022,0.064l0.023,0.064l0.023,0.064l0.024,0.063l0.025,0.064l0.026,0.063l0.027,0.063l0.028,0.063l0.029,0.063l0.029,0.063l0.03,0.062l0.032,0.062l0.032,0.062l0.033,0.061l0.034,0.062l0.034,0.061l0.036,0.06l0.036,0.06l0.037,0.059l0.037,0.059l0.038,0.058l0.039,0.057l0.039,0.057l0.04,0.056l0.04,0.055l0.042,0.055l0.041,0.054l0.043,0.053l0.043,0.053l0.043,0.052l0.044,0.052l0.045,0.05l0.045,0.051l0.046,0.049l0.046,0.049l0.047,0.048l0.047,0.048l0.048,0.046l0.048,0.047l0.049,0.045l0.049,0.045l0.05,0.044l0.05,0.043l0.051,0.043l0.051,0.042l0.052,0.042l0.052,0.04l0.053,0.04l0.053,0.04l0.053,0.038l0.054,0.038l0.055,0.038l0.054,0.036l0.055,0.036l0.056,0.035l0.056,0.035l0.056,0.033l0.056,0.033l0.057,0.033l0.058,0.031l0.057,0.031l0.058,0.03l0.059,0.03l0.058,0.029l0.059,0.028l0.06,0.027l0.059,0.026l0.06,0.026l0.06,0.025l0.061,0.025l0.061,0.023l0.061,0.023l0.061,0.022l0.061,0.022l0.062,0.02l0.062,0.02l0.062,0.02l0.063,0.018l0.062,0.018l0.063,0.017l0.074,0.21l0.072,0.212l0.07,0.212l0.068,0.212l0.065,0.214l0.063,0.214l0.061,0.214l0.058,0.216l0.057,0.216l0.054,0.216l0.052,0.217l0.05,0.218l0.047,0.218l0.045,0.218l0.043,0.219l0.041,0.22l0.039,0.22l0.036,0.22l0.034,0.221l0.031,0.221l0.03,0.222l0.027,0.222l0.024,0.222l0.023,0.222l0.02,0.223l0.018,0.223l0.015,0.224l0.013,0.223l0.011,0.224l0.009,0.224l0.006,0.224l0.004,0.225l0.001,0.224l0,0.225l-0.004,0.225l-0.005,0.225l-0.008,0.224l-0.01,0.225l-0.013,0.225l-0.015,0.225l-0.009,0.113l-0.009,0.112l-0.009,0.113l-0.011,0.112l-0.01,0.113l-0.012,0.112l-0.012,0.113l-0.012,0.112l-0.014,0.112l-0.013,0.113l-0.015,0.112l-0.015,0.113l-0.016,0.112l-0.016,0.112l-0.017,0.112l-0.017,0.112l-0.018,0.113l-0.019,0.112l-0.019,0.112l-0.02,0.112l-0.02,0.112l-0.022,0.112l-0.021,0.112l-0.023,0.111l-0.023,0.112l-0.023,0.112l-0.024,0.111l-0.025,0.112l-0.025,0.111l-0.026,0.112l-0.027,0.111l-0.027,0.111l-0.028,0.112l-0.029,0.111l-0.029,0.111l-0.029,0.111l-0.031,0.111l-0.031,0.11l-0.031,0.111l-0.032,0.111l-0.033,0.11l-0.034,0.111l-0.034,0.11l-0.034,0.11l-0.036,0.11l-0.036,0.11l-0.036,0.11l-0.037,0.11l-0.061,0.017l-0.061,0.019l-0.06,0.019l-0.061,0.02l-0.059,0.02l-0.06,0.022l-0.06,0.022l-0.059,0.022l-0.059,0.024l-0.059,0.024l-0.058,0.024l-0.058,0.026l-0.058,0.026l-0.058,0.027l-0.057,0.027l-0.057,0.028l-0.057,0.029l-0.056,0.03l-0.056,0.03l-0.056,0.031l-0.055,0.032l-0.055,0.032l-0.055,0.033l-0.054,0.033l-0.054,0.035l-0.054,0.034l-0.053,0.036l-0.053,0.036l-0.052,0.037l-0.052,0.038l-0.052,0.038l-0.051,0.039l-0.051,0.039l-0.051,0.04l-0.049,0.041l-0.05,0.042l-0.049,0.042l-0.049,0.043l-0.048,0.043l-0.048,0.044l-0.047,0.045l-0.046,0.045l-0.047,0.046l-0.046,0.047l-0.045,0.047l-0.045,0.048l-0.044,0.048l-0.043,0.049l-0.044,0.05l-0.042,0.05l-0.042,0.051l-0.042,0.052l-0.041,0.052l-0.041,0.053l-0.039,0.053l-0.04,0.054l-0.038,0.055l-0.039,0.055l-0.037,0.056l-0.037,0.056l-0.036,0.057l-0.036,0.058l-0.035,0.058l-0.035,0.059l-0.035,0.062l-0.034,0.062l-0.033,0.063l-0.033,0.062l-0.032,0.063l-0.03,0.063l-0.03,0.063l-0.029,0.064l-0.028,0.064l-0.027,0.064l-0.026,0.064l-0.026,0.064l-0.024,0.065l-0.024,0.065l-0.022,0.065l-0.022,0.065l-0.021,0.065l-0.02,0.065l-0.019,0.066l-0.019,0.065l-0.017,0.066l-0.017,0.066l-0.015,0.066l-0.015,0.066l-0.014,0.066l-0.014,0.066l-0.012,0.067l-0.011,0.066l-0.011,0.066l-0.01,0.067l-0.009,0.066l-0.008,0.067l-0.007,0.067l-0.007,0.066l-0.005,0.067l-0.005,0.067l-0.004,0.066l-0.003,0.067l-0.002,0.066l-0.002,0.067l0,0.067l0,0.066l0.001,0.067l0.002,0.066l0.003,0.066l0.003,0.067l0.004,0.066l0.005,0.066l0.006,0.066l0.007,0.066l0.008,0.066l0.008,0.065l0.009,0.066l0.01,0.065l0.011,0.066l0.011,0.065l0.012,0.065l0.013,0.064l0.014,0.065l0.015,0.065l0.015,0.064l0.017,0.064l0.017,0.064l0.017,0.063l-0.081,0.1l-0.082,0.098l-0.083,0.098l-0.082,0.097l-0.084,0.097l-0.084,0.096l-0.084,0.096l-0.085,0.094l-0.086,0.095l-0.086,0.094l-0.086,0.093l-0.087,0.092l-0.087,0.092l-0.088,0.092l-0.089,0.09l-0.088,0.091l-0.09,0.089l-0.089,0.089l-0.09,0.089l-0.091,0.087l-0.091,0.088l-0.092,0.086l-0.092,0.086l-0.092,0.086l-0.093,0.084l-0.093,0.085l-0.094,0.083l-0.094,0.083l-0.095,0.082l-0.095,0.082l-0.096,0.081l-0.095,0.081l-0.097,0.08l-0.097,0.079l-0.097,0.079l-0.097,0.078l-0.098,0.077l-0.098,0.077l-0.099,0.076l-0.099,0.076l-0.1,0.075l-0.1,0.074l-0.1,0.074l-0.101,0.073l-0.101,0.073l-0.101,0.072l-0.102,0.071l-0.102,0.071l-0.103,0.07l-0.103,0.069l-0.103,0.069l-0.104,0.068l-0.104,0.068l-0.104,0.067l-0.105,0.066l-0.105,0.065l-0.105,0.065l-0.106,0.065l-0.106,0.064l-0.106,0.063l-0.107,0.062l-0.107,0.062l-0.108,0.061l-0.107,0.061l-0.108,0.06l-0.109,0.059l-0.108,0.059l-0.109,0.058l-0.109,0.057l-0.11,0.057l-0.11,0.056l-0.11,0.055l-0.11,0.055l-0.111,0.054l-0.111,0.054l-0.111,0.053l-0.112,0.052l-0.112,0.051l-0.112,0.051l-0.112,0.051l-0.113,0.049l-0.113,0.049l-0.113,0.048l-0.113,0.048l-0.114,0.047l-0.114,0.046l-0.114,0.046l-0.114,0.045l-0.115,0.045l-0.115,0.043l-0.115,0.043l-0.116,0.043l-0.115,0.041l-0.116,0.042l-0.116,0.04l-0.116,0.04l-0.117,0.039l-0.116,0.038l-0.117,0.038l-0.117,0.037l-0.118,0.036l-0.117,0.036l-0.118,0.035l-0.118,0.035l-0.118,0.033l-0.118,0.033l-0.119,0.033l-0.118,0.032l-0.119,0.031l-0.119,0.03l-0.119,0.03l-0.12,0.029l-0.119,0.028l-0.12,0.028l-0.12,0.027l-0.12,0.026l-0.12,0.026l-0.12,0.024l-0.121,0.025l-0.12,0.023l-0.121,0.023l-0.121,0.022l-0.121,0.022l-0.121,0.021l-0.121,0.02l-0.122,0.019l-0.121,0.019l-0.122,0.018l-0.046,-0.05l-0.048,-0.05l-0.047,-0.049l-0.049,-0.048l-0.049,-0.048l-0.049,-0.047l-0.051,-0.047l-0.05,-0.046l-0.052,-0.045l-0.052,-0.045l-0.052,-0.044l-0.053,-0.043l-0.054,-0.043l-0.054,-0.042l-0.055,-0.041l-0.055,-0.041l-0.056,-0.04l-0.056,-0.039l-0.057,-0.039l-0.058,-0.038l-0.057,-0.037l-0.059,-0.036l-0.059,-0.036l-0.059,-0.035l-0.06,-0.034l-0.06,-0.034l-0.061,-0.032l-0.061,-0.032l-0.062,-0.032l-0.062,-0.03l-0.063,-0.03l-0.063,-0.029l-0.063,-0.028l-0.064,-0.027l-0.064,-0.026l-0.065,-0.026l-0.065,-0.025l-0.066,-0.024l-0.066,-0.023l-0.066,-0.023l-0.067,-0.021l-0.067,-0.021l-0.067,-0.02l-0.068,-0.019l-0.068,-0.018l-0.069,-0.017l-0.068,-0.016l-0.07,-0.016l-0.069,-0.015l-0.07,-0.013l-0.07,-0.013l-0.071,-0.012l-0.07,-0.011l-0.071,-0.01l-0.072,-0.009l-0.071,-0.008l-0.072,-0.008l-0.072,-0.006l-0.073,-0.005l-0.073,-0.005l-0.073,-0.003l-0.073,-0.003l-0.073,-0.001l-0.074,-0.001l-0.067,0.001l-0.067,0.001l-0.067,0.002l-0.067,0.003l-0.066,0.004l-0.067,0.004l-0.066,0.005l-0.065,0.006l-0.066,0.007l-0.065,0.008l-0.065,0.008l-0.065,0.009l-0.065,0.01l-0.064,0.011l-0.064,0.012l-0.064,0.012l-0.064,0.013l-0.063,0.013l-0.063,0.015l-0.062,0.015l-0.063,0.016l-0.062,0.017l-0.062,0.017l-0.061,0.018l-0.062,0.019l-0.061,0.019l-0.06,0.02l-0.06,0.021l-0.06,0.022l-0.06,0.022l-0.059,0.023l-0.059,0.024l-0.059,0.024l-0.058,0.025l-0.058,0.026l-0.058,0.026l-0.057,0.027l-0.057,0.027l-0.056,0.029l-0.056,0.028l-0.056,0.03l-0.055,0.03l-0.055,0.031l-0.055,0.031l-0.054,0.032l-0.053,0.033l-0.054,0.033l-0.053,0.034l-0.052,0.034l-0.052,0.035l-0.052,0.036l-0.051,0.036l-0.051,0.036l-0.05,0.038l-0.05,0.038l-0.049,0.038l-0.049,0.039l-0.048,0.04l-0.048,0.04l-0.048,0.04l-0.047,0.041l-0.047,0.042l-0.046,0.042l-0.045,0.043l-0.196,-0.044l-0.197,-0.046l-0.195,-0.048l-0.196,-0.05l-0.195,-0.052l-0.195,-0.054l-0.195,-0.055l-0.195,-0.058l-0.194,-0.059l-0.194,-0.062l-0.193,-0.063l-0.193,-0.066l-0.193,-0.067l-0.193,-0.069l-0.192,-0.071l-0.191,-0.073l-0.192,-0.075l-0.19,-0.078l-0.191,-0.079l-0.19,-0.08l-0.189,-0.083l-0.189,-0.085l-0.189,-0.087l-0.188,-0.089l-0.187,-0.091l-0.187,-0.093l-0.187,-0.095l-0.186,-0.096l-0.185,-0.099l-0.185,-0.101l-0.184,-0.103l-0.184,-0.105l-0.099,-0.057l-0.099,-0.059l-0.099,-0.058l-0.098,-0.059l-0.098,-0.06l-0.097,-0.06l-0.097,-0.06l-0.096,-0.061l-0.096,-0.061l-0.096,-0.062l-0.095,-0.062l-0.095,-0.063l-0.188,-0.126l-0.186,-0.128l-0.185,-0.13l-0.183,-0.132l-0.181,-0.133l-0.179,-0.135l-0.178,-0.136l-0.176,-0.138l-0.174,-0.14l-0.172,-0.141l-0.171,-0.143l-0.169,-0.144l-0.167,-0.146l-0.165,-0.147l-0.164,-0.149l-0.162,-0.15l-0.16,-0.152l-0.158,-0.153l-0.156,-0.154l-0.155,-0.156l-0.153,-0.158l-0.15,-0.158l-0.15,-0.16l-0.147,-0.162l-0.145,-0.163l-0.144,-0.164l0.019,-0.064l0.017,-0.064l0.017,-0.065l0.016,-0.065l0.016,-0.065l0.014,-0.065l0.014,-0.066l0.013,-0.065l0.012,-0.066l0.011,-0.066l0.011,-0.066l0.01,-0.066l0.009,-0.067l0.008,-0.066l0.007,-0.067l0.006,-0.066l0.006,-0.067l0.005,-0.067l0.004,-0.067l0.003,-0.067l0.002,-0.067l0.002,-0.068l0,-0.067l0,-0.067l-0.001,-0.068l-0.002,-0.067l-0.003,-0.067l-0.003,-0.068l-0.005,-0.067l-0.005,-0.068l-0.006,-0.067l-0.007,-0.067l-0.008,-0.068l-0.009,-0.067l-0.01,-0.067l-0.01,-0.068l-0.011,-0.067l-0.013,-0.067l-0.013,-0.067l-0.014,-0.067l-0.015,-0.067l-0.015,-0.066l-0.017,-0.067l-0.017,-0.067l-0.019,-0.066l-0.019,-0.066l-0.02,-0.066l-0.021,-0.066l-0.022,-0.066l-0.023,-0.066l-0.024,-0.065l-0.024,-0.066l-0.026,-0.065l-0.026,-0.065l-0.027,-0.065l-0.029,-0.064l-0.029,-0.064l-0.03,-0.064l-0.031,-0.064l-0.032,-0.064l-0.032,-0.063l-0.034,-0.063l-0.035,-0.063l-0.035,-0.063l-0.037,-0.063l-0.038,-0.062l-0.038,-0.062l-0.039,-0.061l-0.04,-0.06l-0.041,-0.059l-0.041,-0.059l-0.041,-0.058l-0.043,-0.058l-0.043,-0.056l-0.044,-0.057l-0.044,-0.055l-0.045,-0.054l-0.046,-0.054l-0.046,-0.054l-0.047,-0.052l-0.047,-0.052l-0.048,-0.051l-0.049,-0.05l-0.049,-0.05l-0.05,-0.049l-0.05,-0.048l-0.051,-0.047l-0.051,-0.047l-0.052,-0.046l-0.053,-0.045l-0.053,-0.045l-0.053,-0.043l-0.054,-0.043l-0.055,-0.043l-0.054,-0.041l-0.056,-0.041l-0.056,-0.04l-0.056,-0.039l-0.057,-0.039l-0.057,-0.037l-0.057,-0.037l-0.058,-0.036l-0.059,-0.036l-0.059,-0.035l-0.059,-0.033l-0.06,-0.034l-0.06,-0.032l-0.06,-0.032l-0.061,-0.03l-0.061,-0.03l-0.061,-0.03l-0.062,-0.028l-0.062,-0.028l-0.062,-0.027l-0.063,-0.026l-0.063,-0.025l-0.064,-0.024l-0.063,-0.024l-0.064,-0.023l-0.064,-0.022l-0.065,-0.021l-0.064,-0.021l-0.065,-0.019l-0.065,-0.019l-0.066,-0.018l-0.065,-0.017l-0.066,-0.017l-0.066,-0.015l-0.076,-0.214l-0.073,-0.214l-0.071,-0.214l-0.069,-0.216l-0.066,-0.216l-0.064,-0.217l-0.062,-0.217l-0.06,-0.218l-0.057,-0.219l-0.055,-0.219l-0.053,-0.22l-0.051,-0.221l-0.048,-0.221l-0.046,-0.221l-0.043,-0.222l-0.041,-0.223l-0.039,-0.223l-0.037,-0.223l-0.034,-0.224l-0.032,-0.224l-0.029,-0.225l-0.027,-0.224l-0.025,-0.226l-0.012,-0.112l-0.011,-0.113l-0.01,-0.113l-0.01,-0.113l-0.009,-0.113l-0.009,-0.113l-0.007,-0.113l-0.008,-0.114l-0.007,-0.113l-0.006,-0.113l-0.005,-0.114l-0.005,-0.113l-0.005,-0.114l-0.004,-0.113l-0.003,-0.114l-0.002,-0.113l-0.002,-0.114l-0.002,-0.114l0,-0.114l-0.001,-0.113l0.001,-0.114l0.001,-0.114l0.002,-0.114l0.002,-0.114l0.003,-0.114l0.003,-0.114l0.004,-0.114l0.005,-0.114l0.005,-0.114l0.006,-0.114l0.007,-0.114l0.007,-0.114l0.008,-0.114l0.008,-0.114l0.009,-0.114l0.009,-0.114l0.011,-0.114l0.01,-0.114l0.012,-0.114l0.012,-0.114l0.013,-0.113l0.013,-0.114l0.014,-0.114l0.014,-0.114l0.015,-0.114l0.016,-0.114l0.016,-0.113l0.017,-0.114l0.018,-0.114l0.018,-0.114l0.019,-0.113l0.02,-0.114l0.02,-0.113l0.021,-0.114l0.021,-0.113l0.022,-0.113l0.022,-0.114l0.024,-0.113l0.024,-0.113l0.024,-0.113l0.025,-0.113l0.026,-0.113l0.026,-0.113l0.027,-0.113l0.028,-0.113l0.028,-0.112l0.029,-0.113l0.03,-0.113l0.03,-0.112l0.031,-0.112l0.031,-0.113l0.033,-0.112l0.032,-0.112l0.034,-0.112l0.034,-0.112l0.034,-0.111l0.036,-0.112l0.036,-0.112l0.036,-0.111l0.038,-0.111l0.037,-0.111l0.039,-0.112l0.067,-0.014l0.068,-0.016l0.067,-0.017l0.067,-0.017l0.066,-0.018l0.067,-0.019l0.066,-0.02l0.066,-0.021l0.065,-0.022l0.066,-0.022l0.065,-0.023l0.065,-0.025l0.064,-0.025l0.064,-0.025l0.064,-0.027l0.064,-0.027l0.063,-0.029l0.063,-0.029l0.062,-0.03l0.063,-0.03l0.061,-0.032l0.062,-0.032l0.061,-0.033l0.061,-0.034l0.06,-0.035l0.06,-0.036l0.059,-0.036l0.059,-0.037l0.059,-0.038l0.058,-0.039l0.057,-0.039l0.058,-0.04l0.056,-0.041l0.056,-0.042l0.056,-0.043l0.055,-0.043l0.055,-0.044l0.054,-0.045l0.054,-0.046l0.053,-0.047l0.053,-0.047l0.052,-0.048l0.051,-0.049l0.051,-0.049l0.05,-0.05l0.05,-0.051l0.049,-0.052l0.049,-0.053l0.048,-0.053l0.047,-0.054l0.047,-0.055l0.046,-0.055l0.045,-0.056l0.045,-0.057l0.044,-0.058l0.043,-0.058l0.043,-0.06l0.042,-0.059l0.041,-0.061l0.041,-0.061l0.039,-0.062l0.04,-0.063l0.038,-0.064l0.038,-0.064l0.036,-0.064l0.036,-0.065l0.035,-0.066l0.034,-0.065l0.032,-0.066l0.032,-0.066l0.031,-0.066l0.03,-0.067l0.029,-0.066l0.028,-0.067l0.027,-0.068l0.026,-0.067l0.025,-0.068l0.024,-0.067l0.023,-0.068l0.022,-0.068l0.021,-0.069l0.021,-0.068l0.019,-0.069l0.018,-0.068l0.018,-0.069l0.016,-0.069l0.016,-0.069l0.015,-0.069l0.013,-0.07l0.013,-0.069l0.012,-0.069l0.011,-0.07l0.01,-0.069l0.009,-0.07l0.008,-0.07l0.007,-0.069l0.006,-0.07l0.006,-0.07l0.004,-0.069l0.004,-0.07l0.002,-0.07l0.002,-0.069l0.001,-0.07l0,-0.069l-0.001,-0.07l-0.002,-0.069l-0.002,-0.07l-0.004,-0.069l-0.005,-0.069l-0.005,-0.069l-0.006,-0.069l-0.007,-0.069l-0.008,-0.069l-0.009,-0.068l-0.01,-0.069l-0.011,-0.068l-0.011,-0.068l-0.013,-0.068l-0.013,-0.068l-0.014,-0.068l-0.015,-0.067l-0.016,-0.068l-0.016,-0.067l-0.018,-0.067l-0.018,-0.066l-0.019,-0.067l-0.02,-0.066l-0.021,-0.066l0.075,-0.086l0.075,-0.087l0.076,-0.085l0.076,-0.086l0.077,-0.085l0.077,-0.084l0.077,-0.084l0.078,-0.083l0.078,-0.083l0.079,-0.082l0.079,-0.082l0.079,-0.082l0.08,-0.081l0.08,-0.08l0.081,-0.08l0.08,-0.08l0.082,-0.079l0.081,-0.079l0.082,-0.078l0.083,-0.077l0.082,-0.077l0.083,-0.077l0.084,-0.076l0.083,-0.076l0.085,-0.075l0.084,-0.075l0.085,-0.074l0.085,-0.074l0.171,-0.146l0.173,-0.144l0.174,-0.142l0.175,-0.14l0.177,-0.138l0.178,-0.136l0.179,-0.134l0.18,-0.132l0.182,-0.13l0.183,-0.128l0.184,-0.126l0.185,-0.124l0.187,-0.122l0.187,-0.12l0.189,-0.118l0.189,-0.116l0.191,-0.114l0.192,-0.111l0.193,-0.11l0.194,-0.108l0.195,-0.106l0.196,-0.103l0.197,-0.102l0.197,-0.099l0.199,-0.097l0.2,-0.096l0.201,-0.093l0.201,-0.091l0.202,-0.089l0.204,-0.087l0.204,-0.085l0.204,-0.082l0.206,-0.081l0.206,-0.078l0.208,-0.077l0.207,-0.074l0.209,-0.072l0.209,-0.07l0.21,-0.067l0.211,-0.066l0.211,-0.063l0.212,-0.062l0.213,-0.059l0.213,-0.057l0.213,-0.054l0.215,-0.053l0.214,-0.05l0.216,-0.048l0.215,-0.046l0.217,-0.044l0.046,0.044l0.046,0.044l0.047,0.043l0.047,0.043l0.048,0.042l0.049,0.042l0.048,0.041l0.05,0.04l0.05,0.04l0.05,0.04l0.051,0.038l0.051,0.038l0.052,0.038l0.052,0.037l0.053,0.036l0.053,0.036l0.054,0.035l0.054,0.035l0.054,0.034l0.055,0.033l0.055,0.032l0.056,0.032l0.056,0.032l0.057,0.03l0.056,0.03l0.058,0.03l0.058,0.028l0.058,0.028l0.058,0.028l0.059,0.026l0.059,0.026l0.06,0.026l0.06,0.024l0.06,0.024l0.061,0.023l0.061,0.023l0.061,0.021l0.062,0.021l0.062,0.021l0.062,0.019l0.063,0.019l0.063,0.018l0.063,0.017l0.064,0.017l0.064,0.016l0.064,0.015l0.065,0.014l0.064,0.014l0.066,0.012l0.065,0.012l0.066,0.011l0.065,0.011l0.067,0.009l0.066,0.009l0.067,0.008l0.067,0.007l0.067,0.006l0.067,0.006l0.068,0.005l0.068,0.003l0.068,0.003l0.068,0.003l0.068,0.001l0.069,0l0.072,0l0.071,-0.002l0.071,-0.002l0.071,-0.003l0.07,-0.004l0.071,-0.005l0.07,-0.006l0.069,-0.007l0.07,-0.008l0.069,-0.008l0.069,-0.01l0.069,-0.01l0.069,-0.011l0.068,-0.012l0.068,-0.013l0.067,-0.014l0.067,-0.015l0.067,-0.015l0.067,-0.016l0.066,-0.018l0.066,-0.017l0.066,-0.019l0.065,-0.02l0.065,-0.02l0.065,-0.021l0.064,-0.022l0.064,-0.023l0.063,-0.023l0.063,-0.024l0.063,-0.025l0.063,-0.026l0.061,-0.027l0.062,-0.027l0.061,-0.028l0.061,-0.029l0.06,-0.029l0.06,-0.031l0.06,-0.03l0.059,-0.032l0.058,-0.032l0.058,-0.034l0.058,-0.033l0.057,-0.035l0.057,-0.035l0.056,-0.036l0.056,-0.036l0.056,-0.037l0.054,-0.038l0.055,-0.039l0.054,-0.039l0.053,-0.039l0.053,-0.041l0.052,-0.041l0.052,-0.042l0.051,-0.042l0.051,-0.043l0.05,-0.043l0.05,-0.044l0.049,-0.045l0.049,-0.045l0.048,-0.046l0.047,-0.047l0.047,-0.047l0.046,-0.048l0.116,0.02l0.116,0.02l0.116,0.021l0.115,0.022l0.116,0.022l0.115,0.022l0.116,0.024l0.115,0.024l0.115,0.025l0.115,0.025l0.116,0.026l0.115,0.027l0.115,0.027l0.115,0.028l0.114,0.029l0.115,0.029l0.115,0.03l0.114,0.031l0.115,0.031l0.114,0.032l0.115,0.033l0.114,0.033l0.114,0.034l0.114,0.035l0.114,0.035l0.114,0.036l0.113,0.037l0.114,0.037l0.113,0.038l0.114,0.038l0.113,0.04l0.113,0.04l0.113,0.04l0.113,0.042l0.112,0.042l0.113,0.042l0.112,0.044l0.112,0.044l0.112,0.044l0.112,0.046l0.112,0.046l0.112,0.046l0.111,0.048l0.112,0.048l0.111,0.048l0.111,0.05l0.111,0.05l0.11,0.051l0.111,0.051l0.11,0.052l0.111,0.053l0.11,0.054l0.109,0.054l0.11,0.055l0.109,0.055l0.11,0.056l0.109,0.057l0.109,0.058l0.108,0.058l0.109,0.059l0.108,0.06l0.108,0.06l0.108,0.061l0.108,0.062l0.103,0.06Zm-0.648,0.645l-0.103,-0.058l-0.104,-0.058l-0.104,-0.057l-0.104,-0.057l-0.104,-0.056l-0.105,-0.055l-0.105,-0.055l-0.104,-0.054l-0.105,-0.053l-0.105,-0.053l-0.106,-0.052l-0.105,-0.051l-0.106,-0.051l-0.106,-0.05l-0.106,-0.049l-0.106,-0.049l-0.106,-0.048l-0.107,-0.047l-0.106,-0.047l-0.107,-0.046l-0.107,-0.045l-0.107,-0.045l-0.107,-0.044l-0.108,-0.044l-0.107,-0.042l-0.108,-0.043l-0.108,-0.041l-0.107,-0.041l-0.108,-0.04l-0.109,-0.04l-0.108,-0.039l-0.108,-0.038l-0.109,-0.038l-0.108,-0.037l-0.109,-0.036l-0.109,-0.036l-0.109,-0.035l-0.109,-0.035l-0.109,-0.033l-0.109,-0.034l-0.11,-0.032l-0.109,-0.032l-0.11,-0.031l-0.109,-0.031l-0.11,-0.03l-0.11,-0.029l-0.11,-0.029l-0.11,-0.028l-0.11,-0.028l-0.11,-0.027l-0.11,-0.026l-0.111,-0.025l-0.11,-0.025l-0.11,-0.025l-0.111,-0.023l-0.11,-0.023l-0.111,-0.023l-0.111,-0.022l-0.111,-0.021l-0.01,-0.002l-0.042,0.037l-0.059,0.051l-0.059,0.05l-0.06,0.049l-0.06,0.049l-0.061,0.047l-0.061,0.047l-0.062,0.047l-0.063,0.045l-0.063,0.045l-0.064,0.044l-0.064,0.043l-0.065,0.042l-0.066,0.042l-0.066,0.041l-0.066,0.04l-0.068,0.039l-0.067,0.039l-0.068,0.037l-0.069,0.037l-0.069,0.036l-0.07,0.035l-0.07,0.035l-0.071,0.033l-0.071,0.033l-0.072,0.032l-0.072,0.031l-0.073,0.03l-0.073,0.029l-0.073,0.028l-0.074,0.027l-0.075,0.027l-0.075,0.025l-0.075,0.025l-0.075,0.023l-0.077,0.023l-0.076,0.022l-0.077,0.021l-0.077,0.02l-0.078,0.019l-0.078,0.018l-0.078,0.017l-0.079,0.016l-0.079,0.015l-0.079,0.014l-0.08,0.013l-0.08,0.012l-0.08,0.011l-0.081,0.01l-0.081,0.009l-0.081,0.008l-0.082,0.007l-0.081,0.006l-0.082,0.005l-0.083,0.003l-0.082,0.003l-0.083,0.002l-0.083,0l-0.08,0l-0.079,-0.002l-0.08,-0.002l-0.079,-0.004l-0.078,-0.004l-0.079,-0.006l-0.078,-0.006l-0.079,-0.007l-0.077,-0.009l-0.078,-0.009l-0.077,-0.01l-0.077,-0.011l-0.077,-0.012l-0.076,-0.013l-0.076,-0.014l-0.076,-0.015l-0.076,-0.016l-0.075,-0.016l-0.075,-0.018l-0.074,-0.018l-0.074,-0.02l-0.074,-0.02l-0.073,-0.021l-0.074,-0.022l-0.072,-0.022l-0.072,-0.024l-0.072,-0.025l-0.072,-0.025l-0.071,-0.026l-0.071,-0.027l-0.07,-0.028l-0.07,-0.028l-0.069,-0.03l-0.069,-0.03l-0.069,-0.031l-0.068,-0.032l-0.068,-0.033l-0.067,-0.033l-0.067,-0.034l-0.066,-0.035l-0.066,-0.036l-0.065,-0.036l-0.065,-0.037l-0.064,-0.038l-0.064,-0.039l-0.063,-0.04l-0.063,-0.04l-0.062,-0.041l-0.062,-0.041l-0.062,-0.042l-0.06,-0.043l-0.06,-0.044l-0.06,-0.044l-0.059,-0.045l-0.059,-0.046l-0.058,-0.047l-0.057,-0.047l-0.027,-0.022l-0.191,0.042l-0.206,0.049l-0.206,0.05l-0.205,0.053l-0.204,0.054l-0.204,0.057l-0.203,0.059l-0.203,0.06l-0.202,0.063l-0.201,0.065l-0.201,0.067l-0.2,0.069l-0.2,0.071l-0.198,0.074l-0.198,0.075l-0.197,0.077l-0.197,0.079l-0.195,0.082l-0.195,0.083l-0.194,0.085l-0.194,0.088l-0.192,0.089l-0.192,0.091l-0.19,0.094l-0.19,0.095l-0.189,0.097l-0.188,0.1l-0.186,0.101l-0.186,0.103l-0.185,0.106l-0.184,0.107l-0.183,0.109l-0.182,0.111l-0.181,0.113l-0.18,0.115l-0.178,0.117l-0.178,0.119l-0.176,0.121l-0.176,0.123l-0.174,0.124l-0.173,0.127l-0.172,0.128l-0.17,0.131l-0.169,0.132l-0.168,0.134l-0.167,0.137l-0.166,0.138l-0.165,0.14l-0.081,0.07l-0.081,0.071l-0.081,0.072l-0.08,0.072l-0.081,0.072l-0.08,0.073l-0.079,0.074l-0.08,0.074l-0.078,0.074l-0.079,0.075l-0.078,0.075l-0.078,0.076l-0.078,0.076l-0.077,0.077l-0.077,0.077l-0.076,0.078l-0.076,0.078l-0.076,0.078l-0.075,0.079l-0.075,0.08l-0.075,0.08l-0.074,0.08l-0.074,0.081l-0.054,0.06l0.011,0.045l0.017,0.078l0.017,0.079l0.015,0.079l0.014,0.079l0.014,0.079l0.012,0.08l0.011,0.079l0.011,0.08l0.009,0.08l0.008,0.08l0.008,0.081l0.006,0.08l0.005,0.081l0.004,0.08l0.004,0.081l0.002,0.081l0.001,0.08l0,0.081l-0.001,0.081l-0.002,0.081l-0.003,0.082l-0.004,0.081l-0.006,0.081l-0.006,0.081l-0.007,0.081l-0.009,0.081l-0.009,0.081l-0.011,0.081l-0.011,0.081l-0.013,0.081l-0.014,0.081l-0.015,0.081l-0.015,0.08l-0.018,0.081l-0.018,0.08l-0.019,0.081l-0.02,0.08l-0.022,0.08l-0.022,0.08l-0.024,0.08l-0.024,0.079l-0.026,0.08l-0.027,0.079l-0.028,0.079l-0.029,0.078l-0.031,0.079l-0.031,0.078l-0.033,0.078l-0.033,0.078l-0.035,0.077l-0.036,0.077l-0.037,0.077l-0.038,0.076l-0.039,0.076l-0.041,0.076l-0.041,0.076l-0.043,0.075l-0.044,0.074l-0.044,0.074l-0.045,0.073l-0.047,0.072l-0.047,0.071l-0.048,0.071l-0.049,0.069l-0.049,0.069l-0.051,0.068l-0.051,0.067l-0.052,0.066l-0.053,0.066l-0.054,0.064l-0.054,0.064l-0.055,0.063l-0.056,0.062l-0.056,0.061l-0.058,0.061l-0.057,0.059l-0.059,0.059l-0.059,0.057l-0.06,0.057l-0.061,0.056l-0.061,0.055l-0.062,0.054l-0.063,0.053l-0.063,0.053l-0.064,0.051l-0.064,0.051l-0.065,0.049l-0.065,0.049l-0.066,0.048l-0.067,0.047l-0.067,0.046l-0.068,0.045l-0.068,0.044l-0.068,0.043l-0.07,0.043l-0.069,0.041l-0.07,0.04l-0.071,0.04l-0.071,0.038l-0.071,0.038l-0.072,0.037l-0.073,0.035l-0.072,0.035l-0.074,0.034l-0.073,0.033l-0.074,0.032l-0.074,0.031l-0.075,0.03l-0.075,0.029l-0.075,0.028l-0.076,0.027l-0.076,0.026l-0.076,0.025l-0.077,0.024l-0.044,0.014l-0.029,0.09l-0.034,0.107l-0.033,0.107l-0.033,0.107l-0.032,0.107l-0.031,0.108l-0.031,0.107l-0.03,0.108l-0.03,0.107l-0.029,0.108l-0.028,0.108l-0.028,0.108l-0.027,0.108l-0.027,0.108l-0.025,0.108l-0.026,0.108l-0.024,0.109l-0.025,0.108l-0.023,0.108l-0.023,0.109l-0.022,0.108l-0.022,0.109l-0.021,0.109l-0.02,0.108l-0.02,0.109l-0.02,0.109l-0.018,0.109l-0.018,0.109l-0.018,0.109l-0.017,0.109l-0.016,0.109l-0.016,0.109l-0.015,0.109l-0.014,0.109l-0.014,0.109l-0.014,0.109l-0.012,0.109l-0.012,0.11l-0.012,0.109l-0.011,0.109l-0.01,0.109l-0.01,0.11l-0.009,0.109l-0.009,0.109l-0.008,0.109l-0.007,0.11l-0.007,0.109l-0.006,0.109l-0.006,0.11l-0.005,0.109l-0.005,0.109l-0.003,0.109l-0.004,0.11l-0.003,0.109l-0.002,0.109l-0.001,0.109l-0.001,0.109l-0.001,0.11l0,0.109l0.001,0.109l0.002,0.109l0.001,0.109l0.003,0.109l0.003,0.109l0.004,0.109l0.004,0.108l0.005,0.109l0.005,0.109l0.006,0.109l0.006,0.108l0.007,0.109l0.008,0.108l0.008,0.109l0.009,0.108l0.009,0.109l0.01,0.108l0.011,0.108l0.011,0.107l0.024,0.217l0.026,0.216l0.028,0.215l0.03,0.215l0.033,0.215l0.035,0.214l0.038,0.214l0.039,0.213l0.042,0.213l0.044,0.213l0.046,0.212l0.049,0.211l0.05,0.211l0.053,0.21l0.055,0.21l0.057,0.209l0.06,0.209l0.061,0.208l0.064,0.207l0.066,0.207l0.061,0.186l0.048,0.015l0.075,0.024l0.074,0.026l0.075,0.027l0.074,0.027l0.073,0.029l0.073,0.029l0.073,0.03l0.073,0.032l0.072,0.032l0.072,0.033l0.072,0.034l0.071,0.035l0.07,0.036l0.07,0.036l0.07,0.038l0.07,0.039l0.069,0.039l0.068,0.04l0.068,0.042l0.068,0.042l0.067,0.043l0.066,0.044l0.066,0.044l0.066,0.046l0.065,0.047l0.064,0.047l0.064,0.049l0.064,0.049l0.063,0.05l0.062,0.051l0.061,0.052l0.062,0.052l0.06,0.054l0.06,0.054l0.059,0.055l0.059,0.057l0.058,0.057l0.057,0.057l0.057,0.059l0.056,0.059l0.055,0.061l0.054,0.061l0.054,0.062l0.053,0.063l0.053,0.063l0.052,0.065l0.05,0.065l0.051,0.066l0.049,0.067l0.049,0.067l0.047,0.069l0.047,0.069l0.047,0.07l0.045,0.071l0.045,0.071l0.043,0.073l0.043,0.073l0.041,0.072l0.041,0.073l0.039,0.074l0.038,0.073l0.037,0.074l0.036,0.074l0.035,0.075l0.034,0.075l0.033,0.075l0.032,0.075l0.03,0.076l0.03,0.076l0.029,0.076l0.027,0.076l0.027,0.077l0.025,0.076l0.025,0.077l0.023,0.077l0.023,0.077l0.021,0.078l0.02,0.077l0.02,0.078l0.018,0.078l0.017,0.078l0.017,0.078l0.015,0.078l0.014,0.078l0.013,0.078l0.013,0.078l0.011,0.079l0.01,0.078l0.009,0.079l0.008,0.078l0.007,0.079l0.007,0.078l0.005,0.079l0.004,0.078l0.003,0.078l0.002,0.079l0.002,0.078l0,0.079l-0.001,0.078l-0.001,0.078l-0.003,0.078l-0.004,0.078l-0.004,0.078l-0.006,0.078l-0.006,0.078l-0.008,0.077l-0.008,0.078l-0.01,0.077l-0.01,0.077l-0.011,0.077l-0.013,0.077l-0.013,0.077l-0.014,0.076l-0.015,0.077l-0.008,0.04l0.115,0.127l0.143,0.153l0.145,0.153l0.146,0.15l0.149,0.15l0.149,0.148l0.152,0.147l0.153,0.145l0.155,0.144l0.157,0.143l0.159,0.141l0.16,0.14l0.162,0.138l0.163,0.137l0.166,0.135l0.167,0.134l0.168,0.132l0.171,0.131l0.172,0.129l0.174,0.128l0.175,0.126l0.177,0.125l0.179,0.123l0.181,0.122l0.09,0.059l0.091,0.06l0.092,0.059l0.092,0.059l0.092,0.058l0.093,0.058l0.094,0.057l0.093,0.058l0.095,0.056l0.094,0.057l0.095,0.055l0.095,0.055l0.177,0.101l0.176,0.099l0.178,0.097l0.178,0.095l0.178,0.092l0.179,0.091l0.179,0.089l0.18,0.088l0.18,0.085l0.181,0.083l0.182,0.081l0.181,0.08l0.182,0.078l0.183,0.075l0.183,0.074l0.183,0.072l0.184,0.07l0.184,0.069l0.185,0.066l0.185,0.064l0.185,0.063l0.185,0.061l0.186,0.059l0.186,0.057l0.187,0.055l0.186,0.053l0.187,0.052l0.187,0.049l0.188,0.048l0.133,0.033l0.016,-0.013l0.057,-0.046l0.057,-0.044l0.058,-0.044l0.059,-0.044l0.059,-0.042l0.059,-0.042l0.06,-0.042l0.061,-0.04l0.061,-0.04l0.061,-0.04l0.062,-0.038l0.063,-0.038l0.063,-0.038l0.063,-0.036l0.064,-0.036l0.064,-0.035l0.065,-0.034l0.065,-0.034l0.066,-0.033l0.066,-0.032l0.067,-0.031l0.067,-0.031l0.067,-0.03l0.068,-0.029l0.069,-0.028l0.068,-0.027l0.069,-0.027l0.07,-0.026l0.07,-0.025l0.07,-0.024l0.07,-0.024l0.071,-0.023l0.072,-0.022l0.072,-0.021l0.072,-0.02l0.072,-0.019l0.073,-0.019l0.073,-0.017l0.073,-0.017l0.074,-0.016l0.074,-0.015l0.074,-0.015l0.075,-0.013l0.075,-0.012l0.075,-0.012l0.075,-0.011l0.076,-0.009l0.076,-0.009l0.076,-0.008l0.077,-0.007l0.077,-0.006l0.077,-0.006l0.077,-0.004l0.077,-0.003l0.078,-0.002l0.078,-0.002l0.078,0l0.086,0l0.085,0.002l0.085,0.003l0.085,0.004l0.084,0.005l0.084,0.006l0.084,0.007l0.084,0.009l0.083,0.009l0.084,0.011l0.082,0.012l0.083,0.013l0.082,0.013l0.081,0.015l0.082,0.016l0.081,0.017l0.08,0.018l0.08,0.019l0.08,0.02l0.08,0.022l0.079,0.022l0.078,0.023l0.078,0.024l0.078,0.025l0.077,0.026l0.077,0.027l0.076,0.028l0.076,0.029l0.076,0.03l0.075,0.031l0.074,0.032l0.074,0.033l0.073,0.033l0.073,0.035l0.072,0.035l0.072,0.036l0.072,0.038l0.07,0.038l0.071,0.039l0.069,0.04l0.069,0.04l0.069,0.042l0.068,0.042l0.067,0.044l0.067,0.044l0.066,0.044l0.065,0.046l0.065,0.047l0.065,0.047l0.063,0.048l0.063,0.049l0.063,0.049l0.061,0.051l0.062,0.051l0.06,0.052l0.06,0.053l0.059,0.053l0.051,0.048l0.03,-0.005l0.116,-0.02l0.116,-0.02l0.116,-0.022l0.116,-0.022l0.116,-0.022l0.115,-0.024l0.115,-0.023l0.116,-0.025l0.115,-0.025l0.115,-0.026l0.115,-0.027l0.114,-0.027l0.115,-0.028l0.114,-0.028l0.114,-0.029l0.114,-0.03l0.114,-0.03l0.114,-0.031l0.113,-0.032l0.113,-0.033l0.113,-0.033l0.113,-0.033l0.113,-0.034l0.112,-0.035l0.113,-0.036l0.112,-0.036l0.112,-0.037l0.112,-0.037l0.111,-0.039l0.111,-0.038l0.111,-0.04l0.111,-0.04l0.111,-0.04l0.11,-0.042l0.111,-0.042l0.11,-0.042l0.109,-0.043l0.11,-0.044l0.109,-0.045l0.109,-0.045l0.109,-0.045l0.108,-0.047l0.109,-0.047l0.108,-0.047l0.107,-0.049l0.108,-0.048l0.107,-0.05l0.107,-0.05l0.107,-0.051l0.106,-0.051l0.107,-0.052l0.105,-0.052l0.106,-0.054l0.105,-0.053l0.105,-0.055l0.105,-0.055l0.105,-0.055l0.104,-0.057l0.104,-0.056l0.103,-0.058l0.103,-0.058l0.103,-0.059l0.103,-0.059l0.102,-0.06l0.102,-0.06l0.102,-0.062l0.101,-0.061l0.101,-0.063l0.101,-0.063l0.101,-0.063l0.1,-0.064l0.099,-0.065l0.1,-0.065l0.099,-0.066l0.098,-0.067l0.099,-0.067l0.098,-0.068l0.097,-0.068l0.097,-0.069l0.097,-0.069l0.097,-0.071l0.096,-0.07l0.096,-0.072l0.095,-0.071l0.095,-0.073l0.095,-0.073l0.094,-0.074l0.094,-0.074l0.094,-0.075l0.093,-0.075l0.092,-0.076l0.093,-0.077l0.092,-0.077l0.091,-0.078l0.091,-0.078l0.091,-0.079l0.09,-0.08l0.09,-0.08l0.09,-0.08l0.089,-0.082l0.088,-0.082l0.088,-0.082l0.088,-0.083l0.088,-0.084l0.086,-0.084l0.087,-0.084l0.086,-0.086l0.085,-0.086l0.086,-0.086l0.084,-0.087l0.084,-0.088l0.084,-0.088l0.083,-0.089l0.083,-0.089l0.083,-0.09l0.082,-0.09l0.081,-0.091l0.081,-0.092l0.08,-0.092l0.08,-0.093l0.036,-0.042l-0.011,-0.056l-0.014,-0.076l-0.014,-0.075l-0.012,-0.076l-0.012,-0.076l-0.01,-0.077l-0.01,-0.076l-0.009,-0.076l-0.008,-0.077l-0.006,-0.077l-0.006,-0.077l-0.005,-0.077l-0.004,-0.077l-0.003,-0.077l-0.003,-0.077l-0.001,-0.078l0,-0.077l0.001,-0.078l0.001,-0.077l0.003,-0.078l0.004,-0.077l0.004,-0.078l0.006,-0.077l0.006,-0.078l0.008,-0.078l0.008,-0.077l0.01,-0.078l0.01,-0.077l0.011,-0.078l0.013,-0.077l0.013,-0.077l0.014,-0.078l0.016,-0.077l0.016,-0.077l0.018,-0.077l0.018,-0.077l0.019,-0.076l0.021,-0.077l0.021,-0.076l0.022,-0.077l0.024,-0.076l0.024,-0.076l0.026,-0.076l0.026,-0.075l0.027,-0.076l0.029,-0.075l0.029,-0.075l0.031,-0.074l0.031,-0.075l0.033,-0.074l0.034,-0.074l0.034,-0.074l0.036,-0.073l0.037,-0.073l0.037,-0.073l0.039,-0.072l0.04,-0.072l0.041,-0.072l0.04,-0.069l0.041,-0.067l0.041,-0.067l0.042,-0.066l0.043,-0.066l0.044,-0.065l0.044,-0.064l0.045,-0.064l0.046,-0.063l0.046,-0.062l0.047,-0.061l0.048,-0.061l0.049,-0.06l0.049,-0.059l0.049,-0.059l0.051,-0.058l0.051,-0.057l0.051,-0.057l0.052,-0.055l0.053,-0.055l0.053,-0.055l0.054,-0.053l0.055,-0.053l0.055,-0.052l0.055,-0.051l0.056,-0.051l0.057,-0.05l0.057,-0.049l0.058,-0.048l0.058,-0.048l0.059,-0.046l0.059,-0.046l0.06,-0.046l0.06,-0.044l0.06,-0.044l0.061,-0.043l0.062,-0.042l0.062,-0.041l0.062,-0.041l0.063,-0.04l0.063,-0.039l0.064,-0.038l0.064,-0.038l0.065,-0.037l0.064,-0.036l0.066,-0.035l0.065,-0.034l0.066,-0.034l0.066,-0.032l0.067,-0.032l0.067,-0.032l0.067,-0.03l0.068,-0.03l0.068,-0.028l0.068,-0.028l0.069,-0.027l0.069,-0.027l0.033,-0.012l0.002,-0.007l0.033,-0.106l0.033,-0.106l0.032,-0.105l0.032,-0.106l0.03,-0.106l0.031,-0.106l0.029,-0.107l0.029,-0.106l0.029,-0.106l0.028,-0.107l0.027,-0.106l0.027,-0.107l0.026,-0.106l0.025,-0.107l0.025,-0.107l0.025,-0.107l0.023,-0.107l0.024,-0.107l0.022,-0.107l0.022,-0.107l0.021,-0.107l0.021,-0.107l0.021,-0.108l0.019,-0.107l0.019,-0.107l0.019,-0.108l0.018,-0.107l0.017,-0.108l0.017,-0.107l0.016,-0.108l0.015,-0.107l0.015,-0.108l0.015,-0.108l0.014,-0.107l0.013,-0.108l0.013,-0.108l0.012,-0.108l0.011,-0.107l0.011,-0.108l0.01,-0.108l0.01,-0.108l0.01,-0.108l0.008,-0.107l0.008,-0.107l0.015,-0.217l0.012,-0.216l0.01,-0.215l0.007,-0.216l0.006,-0.216l0.003,-0.215l0.001,-0.215l-0.002,-0.216l-0.004,-0.215l-0.006,-0.215l-0.008,-0.215l-0.01,-0.214l-0.013,-0.215l-0.015,-0.214l-0.017,-0.214l-0.019,-0.214l-0.022,-0.213l-0.023,-0.213l-0.026,-0.213l-0.028,-0.212l-0.031,-0.213l-0.032,-0.211l-0.035,-0.212l-0.037,-0.211l-0.039,-0.21l-0.041,-0.21l-0.043,-0.21l-0.046,-0.209l-0.048,-0.209l-0.049,-0.208l-0.052,-0.208l-0.055,-0.207l-0.056,-0.206l-0.058,-0.206l-0.061,-0.205l-0.062,-0.205l-0.065,-0.204l-0.063,-0.193l-0.043,-0.015l-0.072,-0.025l-0.071,-0.027l-0.07,-0.028l-0.07,-0.028l-0.07,-0.029l-0.07,-0.03l-0.069,-0.031l-0.069,-0.032l-0.069,-0.032l-0.068,-0.034l-0.068,-0.034l-0.068,-0.035l-0.067,-0.036l-0.066,-0.037l-0.067,-0.037l-0.066,-0.039l-0.065,-0.039l-0.065,-0.04l-0.065,-0.041l-0.064,-0.042l-0.064,-0.042l-0.063,-0.044l-0.062,-0.044l-0.063,-0.045l-0.061,-0.046l-0.062,-0.046l-0.06,-0.048l-0.061,-0.048l-0.059,-0.049l-0.06,-0.05l-0.058,-0.051l-0.058,-0.051l-0.058,-0.052l-0.057,-0.053l-0.056,-0.054l-0.056,-0.054l-0.055,-0.056l-0.054,-0.056l-0.054,-0.057l-0.053,-0.057l-0.053,-0.059l-0.052,-0.059l-0.051,-0.06l-0.051,-0.061l-0.05,-0.061l-0.049,-0.062l-0.049,-0.063l-0.048,-0.064l-0.047,-0.064l-0.046,-0.066l-0.046,-0.065l-0.045,-0.067l-0.044,-0.067l-0.044,-0.068l-0.042,-0.069l-0.042,-0.07l-0.041,-0.07l-0.041,-0.071l-0.039,-0.071l-0.038,-0.071l-0.037,-0.072l-0.037,-0.072l-0.035,-0.073l-0.034,-0.073l-0.034,-0.072l-0.032,-0.074l-0.031,-0.073l-0.03,-0.074l-0.03,-0.074l-0.028,-0.074l-0.027,-0.074l-0.026,-0.075l-0.026,-0.075l-0.024,-0.075l-0.023,-0.075l-0.023,-0.075l-0.021,-0.075l-0.02,-0.076l-0.02,-0.076l-0.018,-0.076l-0.018,-0.076l-0.016,-0.076l-0.016,-0.076l-0.014,-0.076l-0.014,-0.076l-0.012,-0.077l-0.012,-0.076l-0.01,-0.077l-0.01,-0.076l-0.009,-0.077l-0.008,-0.076l-0.007,-0.077l-0.005,-0.076l-0.005,-0.077l-0.004,-0.077l-0.003,-0.076l-0.003,-0.077l-0.001,-0.076l0,-0.077l0.001,-0.076l0.001,-0.076l0.003,-0.077l0.003,-0.076l0.005,-0.076l0.005,-0.076l0.006,-0.076l0.007,-0.075l0.008,-0.076l0.009,-0.076l0.01,-0.075l0.011,-0.075l0.011,-0.075l0.013,-0.075l0.013,-0.075l0.009,-0.045l-0.067,-0.075l-0.072,-0.08l-0.073,-0.081l-0.073,-0.079l-0.074,-0.08l-0.074,-0.079l-0.075,-0.079l-0.075,-0.078l-0.075,-0.078l-0.076,-0.078l-0.077,-0.077l-0.077,-0.077l-0.077,-0.077l-0.078,-0.076l-0.078,-0.076l-0.079,-0.076l-0.08,-0.075l-0.079,-0.075l-0.081,-0.074l-0.08,-0.074l-0.081,-0.074l-0.082,-0.073l-0.082,-0.073l-0.082,-0.073l-0.083,-0.072l-0.084,-0.071l-0.084,-0.072l-0.084,-0.071l-0.085,-0.07l-0.085,-0.071l-0.086,-0.069l-0.086,-0.07l-0.086,-0.069l-0.087,-0.068l-0.088,-0.068l-0.088,-0.068l-0.088,-0.068l-0.089,-0.067l-0.089,-0.066l-0.09,-0.066l-0.09,-0.066l-0.091,-0.065l-0.091,-0.065l-0.092,-0.064l-0.092,-0.064l-0.092,-0.064l-0.093,-0.063l-0.093,-0.063l-0.094,-0.062l-0.094,-0.062l-0.095,-0.061l-0.095,-0.061l-0.095,-0.061l-0.096,-0.06l-0.097,-0.059l-0.097,-0.059l-0.097,-0.059l-0.098,-0.058l-0.098,-0.058l-0.099,-0.057l-0.103,-0.06Z" style="fill:#2c333b;"/>
            </g>
            <g transform="matrix(0.78313,0,0,0.78313,4.10448,4.06194)">
                <circle cx="30.46" cy="30.613" r="21.453" style="fill:#f2f2f2;"/>
                <path d="M30.737,9.162l0.277,0.005l0.275,0.009l0.274,0.012l0.274,0.016l0.273,0.019l0.272,0.022l0.27,0.026l0.27,0.029l0.269,0.032l0.268,0.036l0.266,0.039l0.266,0.043l0.265,0.045l0.263,0.049l0.262,0.052l0.262,0.055l0.26,0.059l0.258,0.061l0.258,0.065l0.256,0.068l0.255,0.07l0.254,0.074l0.253,0.077l0.251,0.08l0.25,0.083l0.248,0.086l0.247,0.089l0.246,0.091l0.244,0.095l0.243,0.098l0.241,0.1l0.24,0.103l0.238,0.106l0.237,0.109l0.235,0.112l0.234,0.114l0.232,0.117l0.231,0.12l0.228,0.123l0.227,0.125l0.226,0.128l0.224,0.13l0.222,0.134l0.22,0.135l0.218,0.139l0.217,0.14l0.215,0.144l0.213,0.146l0.211,0.148l0.21,0.151l0.207,0.153l0.206,0.156l0.203,0.158l0.202,0.16l0.2,0.163l0.198,0.165l0.195,0.168l0.194,0.17l0.191,0.172l0.19,0.174l0.187,0.177l0.185,0.178l0.184,0.181l0.181,0.183l0.178,0.186l0.177,0.187l0.174,0.19l0.172,0.191l0.17,0.194l0.167,0.195l0.166,0.198l0.162,0.2l0.161,0.201l0.158,0.204l0.156,0.206l0.153,0.207l0.151,0.209l0.148,0.212l0.146,0.213l0.143,0.215l0.141,0.216l0.139,0.219l0.135,0.22l0.133,0.222l0.131,0.224l0.128,0.225l0.125,0.228l0.123,0.228l0.12,0.231l0.117,0.232l0.114,0.234l0.112,0.235l0.109,0.237l0.106,0.238l0.103,0.24l0.1,0.241l0.098,0.243l0.095,0.244l0.091,0.246l0.089,0.247l0.086,0.248l0.083,0.25l0.08,0.251l0.077,0.253l0.074,0.254l0.07,0.255l0.068,0.256l0.065,0.258l0.061,0.258l0.059,0.26l0.055,0.261l0.052,0.263l0.049,0.263l0.045,0.265l0.043,0.265l0.039,0.267l0.035,0.268l0.033,0.269l0.029,0.27l0.026,0.27l0.022,0.272l0.019,0.273l0.016,0.273l0.012,0.275l0.009,0.275l0.005,0.277l0.002,0.277l-0.002,0.277l-0.005,0.276l-0.009,0.275l-0.012,0.275l-0.016,0.274l-0.019,0.272l-0.022,0.272l-0.026,0.271l-0.029,0.27l-0.033,0.268l-0.035,0.268l-0.039,0.267l-0.043,0.266l-0.045,0.264l-0.049,0.264l-0.052,0.262l-0.055,0.261l-0.059,0.26l-0.061,0.259l-0.065,0.257l-0.068,0.257l-0.07,0.255l-0.074,0.254l-0.077,0.252l-0.08,0.251l-0.083,0.25l-0.086,0.249l-0.089,0.247l-0.091,0.245l-0.095,0.245l-0.098,0.242l-0.1,0.242l-0.103,0.24l-0.106,0.238l-0.109,0.237l-0.112,0.235l-0.114,0.234l-0.117,0.232l-0.12,0.23l-0.123,0.229l-0.125,0.227l-0.128,0.225l-0.131,0.224l-0.133,0.222l-0.135,0.22l-0.139,0.219l-0.141,0.217l-0.143,0.215l-0.146,0.213l-0.148,0.211l-0.151,0.209l-0.153,0.208l-0.156,0.205l-0.158,0.204l-0.161,0.202l-0.162,0.199l-0.166,0.198l-0.167,0.196l-0.17,0.193l-0.172,0.192l-0.174,0.189l-0.177,0.188l-0.178,0.185l-0.181,0.183l-0.184,0.181l-0.185,0.179l-0.187,0.176l-0.19,0.175l-0.191,0.172l-0.194,0.169l-0.195,0.168l-0.198,0.165l-0.2,0.163l-0.202,0.16l-0.203,0.158l-0.206,0.156l-0.207,0.153l-0.21,0.151l-0.211,0.149l-0.213,0.145l-0.215,0.144l-0.217,0.141l-0.218,0.138l-0.22,0.136l-0.222,0.133l-0.224,0.13l-0.226,0.128l-0.227,0.126l-0.228,0.122l-0.231,0.12l-0.232,0.117l-0.234,0.115l-0.235,0.111l-0.237,0.109l-0.238,0.106l-0.24,0.103l-0.241,0.101l-0.243,0.097l-0.244,0.095l-0.246,0.092l-0.247,0.089l-0.248,0.085l-0.25,0.083l-0.251,0.08l-0.253,0.077l-0.254,0.074l-0.255,0.071l-0.256,0.067l-0.258,0.065l-0.258,0.062l-0.26,0.058l-0.262,0.055l-0.262,0.052l-0.263,0.049l-0.265,0.046l-0.266,0.042l-0.266,0.039l-0.268,0.036l-0.269,0.032l-0.27,0.03l-0.27,0.025l-0.272,0.023l-0.273,0.019l-0.274,0.015l-0.274,0.013l-0.275,0.008l-0.277,0.006l-0.277,0.001l-0.277,-0.001l-0.276,-0.006l-0.276,-0.008l-0.274,-0.013l-0.274,-0.015l-0.272,-0.019l-0.272,-0.023l-0.271,-0.025l-0.27,-0.03l-0.268,-0.032l-0.268,-0.036l-0.267,-0.039l-0.266,-0.042l-0.264,-0.046l-0.264,-0.049l-0.262,-0.052l-0.261,-0.055l-0.26,-0.058l-0.259,-0.062l-0.257,-0.065l-0.257,-0.067l-0.255,-0.071l-0.254,-0.074l-0.252,-0.077l-0.251,-0.08l-0.25,-0.083l-0.249,-0.085l-0.247,-0.089l-0.245,-0.092l-0.245,-0.095l-0.242,-0.097l-0.242,-0.101l-0.24,-0.103l-0.238,-0.106l-0.237,-0.109l-0.235,-0.111l-0.234,-0.115l-0.232,-0.117l-0.23,-0.12l-0.229,-0.122l-0.227,-0.126l-0.225,-0.128l-0.224,-0.13l-0.222,-0.133l-0.221,-0.136l-0.218,-0.138l-0.217,-0.141l-0.215,-0.144l-0.213,-0.145l-0.211,-0.149l-0.209,-0.151l-0.208,-0.153l-0.205,-0.156l-0.204,-0.158l-0.202,-0.16l-0.199,-0.163l-0.198,-0.165l-0.196,-0.168l-0.193,-0.169l-0.192,-0.172l-0.189,-0.175l-0.188,-0.176l-0.185,-0.179l-0.183,-0.181l-0.181,-0.183l-0.179,-0.185l-0.176,-0.188l-0.175,-0.189l-0.172,-0.192l-0.17,-0.193l-0.167,-0.196l-0.165,-0.198l-0.163,-0.199l-0.16,-0.202l-0.159,-0.204l-0.155,-0.205l-0.154,-0.208l-0.15,-0.209l-0.149,-0.211l-0.146,-0.213l-0.143,-0.215l-0.141,-0.217l-0.138,-0.219l-0.136,-0.22l-0.133,-0.222l-0.131,-0.224l-0.127,-0.225l-0.126,-0.227l-0.122,-0.229l-0.12,-0.23l-0.117,-0.232l-0.115,-0.234l-0.111,-0.235l-0.109,-0.237l-0.106,-0.238l-0.103,-0.24l-0.101,-0.242l-0.097,-0.242l-0.095,-0.245l-0.092,-0.245l-0.089,-0.247l-0.086,-0.249l-0.082,-0.25l-0.08,-0.251l-0.077,-0.252l-0.074,-0.254l-0.071,-0.255l-0.068,-0.257l-0.064,-0.257l-0.062,-0.259l-0.058,-0.26l-0.055,-0.261l-0.052,-0.262l-0.049,-0.264l-0.046,-0.264l-0.042,-0.266l-0.039,-0.267l-0.036,-0.268l-0.032,-0.268l-0.03,-0.27l-0.025,-0.271l-0.023,-0.272l-0.019,-0.272l-0.016,-0.274l-0.012,-0.275l-0.008,-0.275l-0.006,-0.276l-0.001,-0.277l0.001,-0.277l0.006,-0.277l0.008,-0.275l0.012,-0.275l0.016,-0.273l0.019,-0.273l0.023,-0.272l0.025,-0.27l0.03,-0.27l0.032,-0.269l0.036,-0.268l0.039,-0.267l0.042,-0.265l0.046,-0.265l0.049,-0.263l0.052,-0.263l0.055,-0.261l0.058,-0.26l0.062,-0.258l0.064,-0.258l0.068,-0.256l0.071,-0.255l0.074,-0.254l0.077,-0.253l0.08,-0.251l0.082,-0.25l0.086,-0.248l0.089,-0.247l0.092,-0.246l0.095,-0.244l0.097,-0.243l0.101,-0.241l0.103,-0.24l0.106,-0.238l0.109,-0.237l0.111,-0.235l0.115,-0.234l0.117,-0.232l0.12,-0.231l0.122,-0.228l0.126,-0.228l0.127,-0.225l0.131,-0.224l0.133,-0.222l0.136,-0.22l0.138,-0.219l0.141,-0.216l0.143,-0.215l0.146,-0.213l0.149,-0.212l0.15,-0.209l0.154,-0.207l0.155,-0.206l0.159,-0.204l0.16,-0.201l0.163,-0.2l0.165,-0.198l0.167,-0.195l0.17,-0.194l0.172,-0.191l0.175,-0.19l0.176,-0.187l0.179,-0.186l0.181,-0.183l0.183,-0.181l0.185,-0.178l0.188,-0.177l0.189,-0.174l0.192,-0.172l0.193,-0.17l0.196,-0.168l0.198,-0.165l0.199,-0.163l0.202,-0.16l0.204,-0.158l0.205,-0.156l0.208,-0.153l0.209,-0.151l0.211,-0.148l0.213,-0.146l0.215,-0.144l0.217,-0.14l0.218,-0.139l0.221,-0.135l0.222,-0.134l0.224,-0.13l0.225,-0.128l0.227,-0.125l0.229,-0.123l0.23,-0.12l0.232,-0.117l0.234,-0.114l0.235,-0.112l0.237,-0.109l0.238,-0.106l0.24,-0.103l0.242,-0.1l0.242,-0.098l0.245,-0.095l0.245,-0.091l0.247,-0.089l0.249,-0.086l0.25,-0.083l0.251,-0.08l0.252,-0.077l0.254,-0.074l0.255,-0.07l0.257,-0.068l0.257,-0.065l0.259,-0.061l0.26,-0.059l0.261,-0.055l0.262,-0.052l0.264,-0.049l0.264,-0.045l0.266,-0.043l0.267,-0.039l0.268,-0.036l0.268,-0.032l0.27,-0.029l0.271,-0.026l0.272,-0.022l0.272,-0.019l0.274,-0.016l0.274,-0.012l0.276,-0.009l0.276,-0.005l0.277,-0.002l0.277,0.002Zm-0.549,0.354l-0.272,0.006l-0.271,0.008l-0.27,0.012l-0.269,0.016l-0.268,0.018l-0.268,0.022l-0.266,0.026l-0.265,0.028l-0.265,0.032l-0.263,0.036l-0.262,0.038l-0.262,0.042l-0.26,0.044l-0.259,0.048l-0.258,0.052l-0.257,0.054l-0.255,0.057l-0.255,0.061l-0.253,0.063l-0.252,0.067l-0.251,0.07l-0.249,0.072l-0.249,0.076l-0.247,0.078l-0.245,0.082l-0.245,0.084l-0.243,0.088l-0.241,0.09l-0.24,0.093l-0.239,0.096l-0.238,0.099l-0.235,0.101l-0.235,0.104l-0.233,0.108l-0.231,0.109l-0.23,0.113l-0.228,0.115l-0.226,0.118l-0.226,0.12l-0.223,0.124l-0.222,0.125l-0.22,0.129l-0.218,0.131l-0.217,0.133l-0.215,0.136l-0.213,0.139l-0.211,0.141l-0.21,0.143l-0.207,0.146l-0.206,0.148l-0.204,0.151l-0.203,0.153l-0.2,0.156l-0.198,0.158l-0.197,0.16l-0.194,0.162l-0.192,0.165l-0.191,0.167l-0.188,0.169l-0.187,0.172l-0.184,0.173l-0.182,0.176l-0.18,0.178l-0.178,0.18l-0.176,0.182l-0.174,0.185l-0.171,0.186l-0.169,0.189l-0.167,0.19l-0.165,0.192l-0.163,0.195l-0.16,0.196l-0.158,0.199l-0.155,0.2l-0.153,0.202l-0.151,0.204l-0.148,0.206l-0.146,0.208l-0.144,0.209l-0.141,0.212l-0.138,0.213l-0.136,0.215l-0.134,0.216l-0.131,0.219l-0.128,0.22l-0.126,0.222l-0.123,0.223l-0.121,0.225l-0.117,0.227l-0.116,0.228l-0.112,0.23l-0.11,0.231l-0.107,0.233l-0.104,0.234l-0.102,0.236l-0.099,0.237l-0.095,0.239l-0.094,0.24l-0.09,0.242l-0.087,0.243l-0.085,0.244l-0.081,0.246l-0.079,0.247l-0.075,0.248l-0.073,0.25l-0.069,0.25l-0.067,0.252l-0.064,0.254l-0.06,0.254l-0.058,0.256l-0.054,0.257l-0.051,0.258l-0.048,0.259l-0.045,0.26l-0.041,0.261l-0.039,0.262l-0.035,0.264l-0.032,0.264l-0.029,0.265l-0.025,0.267l-0.022,0.267l-0.019,0.268l-0.015,0.269l-0.012,0.27l-0.009,0.271l-0.005,0.272l-0.002,0.273l0.002,0.272l0.005,0.272l0.009,0.271l0.012,0.27l0.015,0.269l0.019,0.268l0.022,0.268l0.025,0.266l0.029,0.265l0.032,0.265l0.035,0.263l0.039,0.262l0.041,0.261l0.045,0.261l0.048,0.259l0.051,0.258l0.054,0.257l0.058,0.255l0.06,0.255l0.064,0.253l0.067,0.252l0.069,0.251l0.073,0.249l0.075,0.249l0.079,0.247l0.081,0.245l0.085,0.245l0.087,0.243l0.09,0.241l0.094,0.24l0.095,0.239l0.099,0.237l0.102,0.236l0.104,0.235l0.107,0.232l0.11,0.232l0.112,0.23l0.116,0.228l0.117,0.226l0.121,0.225l0.123,0.224l0.126,0.221l0.128,0.221l0.131,0.218l0.134,0.217l0.136,0.214l0.138,0.214l0.141,0.211l0.144,0.21l0.146,0.207l0.148,0.206l0.151,0.204l0.153,0.202l0.155,0.201l0.158,0.198l0.16,0.196l0.163,0.195l0.165,0.192l0.167,0.191l0.169,0.188l0.171,0.187l0.174,0.184l0.176,0.182l0.178,0.18l0.18,0.178l0.182,0.176l0.184,0.174l0.187,0.171l0.188,0.169l0.191,0.167l0.192,0.165l0.194,0.162l0.197,0.161l0.198,0.157l0.2,0.156l0.203,0.153l0.204,0.151l0.206,0.148l0.207,0.146l0.21,0.144l0.211,0.141l0.213,0.138l0.215,0.136l0.217,0.134l0.218,0.131l0.22,0.128l0.222,0.126l0.223,0.123l0.226,0.12l0.226,0.118l0.228,0.116l0.23,0.112l0.231,0.11l0.233,0.107l0.235,0.104l0.235,0.102l0.238,0.098l0.239,0.096l0.24,0.093l0.241,0.091l0.243,0.087l0.245,0.084l0.245,0.082l0.247,0.079l0.249,0.075l0.249,0.073l0.251,0.069l0.252,0.067l0.253,0.064l0.255,0.06l0.255,0.057l0.257,0.055l0.258,0.051l0.259,0.048l0.26,0.045l0.262,0.041l0.262,0.039l0.263,0.035l0.265,0.032l0.265,0.029l0.266,0.025l0.268,0.022l0.268,0.019l0.269,0.015l0.27,0.012l0.271,0.009l0.272,0.005l0.272,0.002l0.273,-0.002l0.272,-0.005l0.27,-0.009l0.27,-0.012l0.27,-0.015l0.268,-0.019l0.267,-0.022l0.266,-0.025l0.266,-0.029l0.264,-0.032l0.263,-0.035l0.263,-0.039l0.261,-0.041l0.26,-0.045l0.259,-0.048l0.258,-0.051l0.257,-0.055l0.256,-0.057l0.254,-0.06l0.253,-0.064l0.253,-0.067l0.25,-0.069l0.25,-0.073l0.248,-0.075l0.247,-0.079l0.246,-0.082l0.244,-0.084l0.243,-0.087l0.242,-0.091l0.24,-0.093l0.239,-0.096l0.237,-0.098l0.236,-0.102l0.234,-0.104l0.233,-0.107l0.231,-0.11l0.23,-0.112l0.228,-0.116l0.227,-0.118l0.225,-0.12l0.223,-0.123l0.222,-0.126l0.22,-0.128l0.218,-0.131l0.217,-0.134l0.215,-0.136l0.213,-0.138l0.212,-0.141l0.209,-0.144l0.208,-0.146l0.206,-0.148l0.204,-0.151l0.202,-0.153l0.2,-0.156l0.199,-0.157l0.196,-0.161l0.194,-0.162l0.193,-0.165l0.19,-0.167l0.189,-0.169l0.186,-0.171l0.184,-0.174l0.183,-0.176l0.18,-0.178l0.178,-0.18l0.176,-0.182l0.173,-0.184l0.172,-0.187l0.169,-0.188l0.167,-0.191l0.165,-0.192l0.162,-0.195l0.16,-0.196l0.158,-0.198l0.156,-0.201l0.153,-0.202l0.15,-0.204l0.149,-0.206l0.146,-0.207l0.143,-0.21l0.141,-0.211l0.139,-0.214l0.136,-0.214l0.133,-0.217l0.131,-0.218l0.128,-0.221l0.126,-0.221l0.123,-0.224l0.121,-0.225l0.118,-0.226l0.115,-0.228l0.113,-0.23l0.109,-0.232l0.107,-0.232l0.105,-0.235l0.101,-0.236l0.099,-0.237l0.096,-0.239l0.093,-0.24l0.09,-0.241l0.088,-0.243l0.084,-0.245l0.082,-0.245l0.078,-0.247l0.076,-0.249l0.072,-0.249l0.07,-0.251l0.067,-0.252l0.063,-0.253l0.061,-0.255l0.057,-0.255l0.054,-0.257l0.051,-0.258l0.048,-0.259l0.045,-0.261l0.042,-0.261l0.038,-0.262l0.036,-0.263l0.031,-0.265l0.029,-0.265l0.026,-0.266l0.022,-0.268l0.018,-0.268l0.016,-0.269l0.012,-0.27l0.008,-0.271l0.005,-0.272l0.002,-0.272l-0.002,-0.273l-0.005,-0.272l-0.008,-0.271l-0.012,-0.27l-0.016,-0.269l-0.018,-0.268l-0.022,-0.267l-0.026,-0.267l-0.029,-0.265l-0.031,-0.264l-0.036,-0.264l-0.038,-0.262l-0.042,-0.261l-0.045,-0.26l-0.048,-0.259l-0.051,-0.258l-0.054,-0.257l-0.057,-0.256l-0.061,-0.254l-0.063,-0.254l-0.067,-0.252l-0.07,-0.25l-0.072,-0.25l-0.076,-0.248l-0.078,-0.247l-0.082,-0.246l-0.084,-0.244l-0.088,-0.243l-0.09,-0.242l-0.093,-0.24l-0.096,-0.239l-0.099,-0.237l-0.101,-0.236l-0.105,-0.234l-0.107,-0.233l-0.109,-0.231l-0.113,-0.23l-0.115,-0.228l-0.118,-0.227l-0.121,-0.225l-0.123,-0.223l-0.126,-0.222l-0.128,-0.22l-0.131,-0.219l-0.133,-0.216l-0.136,-0.215l-0.139,-0.213l-0.141,-0.212l-0.143,-0.209l-0.146,-0.208l-0.149,-0.206l-0.15,-0.204l-0.153,-0.202l-0.156,-0.2l-0.158,-0.199l-0.16,-0.196l-0.162,-0.195l-0.165,-0.192l-0.167,-0.19l-0.169,-0.189l-0.172,-0.186l-0.173,-0.185l-0.176,-0.182l-0.178,-0.18l-0.18,-0.178l-0.183,-0.176l-0.184,-0.173l-0.186,-0.172l-0.189,-0.169l-0.19,-0.167l-0.193,-0.165l-0.194,-0.162l-0.196,-0.16l-0.199,-0.158l-0.2,-0.156l-0.202,-0.153l-0.204,-0.151l-0.206,-0.148l-0.208,-0.146l-0.209,-0.143l-0.212,-0.141l-0.213,-0.139l-0.215,-0.136l-0.217,-0.133l-0.218,-0.131l-0.22,-0.129l-0.222,-0.125l-0.223,-0.124l-0.225,-0.12l-0.227,-0.118l-0.228,-0.115l-0.23,-0.113l-0.231,-0.109l-0.233,-0.108l-0.234,-0.104l-0.236,-0.101l-0.237,-0.099l-0.239,-0.096l-0.24,-0.093l-0.242,-0.09l-0.243,-0.088l-0.244,-0.084l-0.246,-0.082l-0.247,-0.078l-0.248,-0.076l-0.25,-0.072l-0.25,-0.07l-0.253,-0.067l-0.253,-0.063l-0.254,-0.061l-0.256,-0.057l-0.257,-0.054l-0.258,-0.052l-0.259,-0.048l-0.26,-0.044l-0.261,-0.042l-0.263,-0.038l-0.263,-0.036l-0.264,-0.032l-0.266,-0.028l-0.266,-0.026l-0.267,-0.022l-0.268,-0.018l-0.27,-0.016l-0.27,-0.012l-0.27,-0.008l-0.272,-0.006l-0.273,-0.001l-0.272,0.001Z" style="fill:#bec1c5;"/>
            </g>
            <g transform="matrix(0.131208,0,0,0.131208,23.5518,1.77987)">
                <circle cx="30.46" cy="30.613" r="21.453"/>
            </g>
        </g>
    </g>
</svg>
