<?xml version="1.0" encoding="utf-8"?>
<!-- Generator: Adobe Illustrator 16.0.0, SVG Export Plug-In . SVG Version: 6.00 Build 0)  -->
<!DOCTYPE svg PUBLIC "-//W3C//DTD SVG 1.1//EN" "http://www.w3.org/Graphics/SVG/1.1/DTD/svg11.dtd">
<svg version="1.1"
	 xmlns:inkscape="http://www.inkscape.org/namespaces/inkscape" xmlns:svg="http://www.w3.org/2000/svg" xmlns:sodipodi="http://sodipodi.sourceforge.net/DTD/sodipodi-0.dtd" xmlns:rdf="http://www.w3.org/1999/02/22-rdf-syntax-ns#" xmlns:cc="http://creativecommons.org/ns#" xmlns:dc="http://purl.org/dc/elements/1.1/" xmlns:xlink="http://www.w3.org/1999/xlink" id="BigKnob" inkscape:version="0.92.2 5c3e80d, 2017-08-06"
	 sodipodi:docname="BefacoBigKnob.svg" xmlns="http://www.w3.org/2000/svg" x="0px" y="0px" width="55px" height="55px"
	 viewBox="0 0 55 55" enable-background="new 0 0 55 55" xml:space="preserve">
<g id="BigKnob_1_">
	<rect y="0" display="none" width="50" height="50"/>
	<circle fill="#232323" cx="27.5" cy="27.5" r="27.5"/>
	<circle fill="#C1C1C1" cx="27.5" cy="27.5" r="25.255"/>
	
		<path id="path8603" inkscape:connector-curvature="0" fill="#EFEFEF" stroke="#353535" stroke-width="0.4" stroke-miterlimit="10" d="
		M50.532,14.885c-1.54-2.924-3.606-5.517-6.065-7.657c-4.742,0.678-9.651-1.725-12.099-5.908c-1.575-0.304-3.204-0.468-4.867-0.468
		s-3.288,0.164-4.866,0.468c-2.45,4.184-7.358,6.586-12.1,5.908c-2.459,2.14-4.527,4.732-6.066,7.657
		c1.756,4.618,0.503,10.13-3.071,13.498c0.117,3.349,0.836,6.54,2.058,9.466c4.754,1.449,8.294,5.989,8.605,11.036
		c2.519,1.881,5.382,3.308,8.473,4.178c4.094-2.934,9.846-2.934,13.937,0c3.092-0.872,5.958-2.298,8.478-4.178
		c0.308-5.045,3.845-9.587,8.604-11.036c1.223-2.925,1.94-6.116,2.053-9.466C50.033,25.016,48.781,19.505,50.532,14.885"/>
	<circle fill="#E0E0E0" stroke="#050404" stroke-width="0.3" stroke-miterlimit="10" cx="27.499" cy="27.5" r="16.837"/>
	<circle fill="#020202" stroke="#050404" stroke-width="0.3" stroke-miterlimit="10" cx="27.5" cy="5.542" r="2.175"/>
</g>
</svg>
