<?xml version="1.0" encoding="utf-8"?>
<!-- Generator: Adobe Illustrator 16.0.0, SVG Export Plug-In . SVG Version: 6.00 Build 0)  -->
<!DOCTYPE svg PUBLIC "-//W3C//DTD SVG 1.1//EN" "http://www.w3.org/Graphics/SVG/1.1/DTD/svg11.dtd">
<svg version="1.1"
	 id="svg15246" sodipodi:docname="BefacoBigKnob.svg" inkscape:version="0.92.2 5c3e80d, 2017-08-06" xmlns:dc="http://purl.org/dc/elements/1.1/" xmlns:cc="http://creativecommons.org/ns#" xmlns:rdf="http://www.w3.org/1999/02/22-rdf-syntax-ns#" xmlns:svg="http://www.w3.org/2000/svg" xmlns:sodipodi="http://sodipodi.sourceforge.net/DTD/sodipodi-0.dtd" xmlns:inkscape="http://www.inkscape.org/namespaces/inkscape"
	 xmlns="http://www.w3.org/2000/svg" xmlns:xlink="http://www.w3.org/1999/xlink" x="0px" y="0px" width="50px" height="50px"
	 viewBox="11.375 11.376 50 50" enable-background="new 11.375 11.376 50 50" xml:space="preserve">
<sodipodi:namedview  units="px" fit-margin-bottom="0" fit-margin-right="0" inkscape:window-maximized="0" inkscape:window-y="0" inkscape:window-x="1280" inkscape:window-height="1434" inkscape:window-width="1274" inkscape:current-layer="layer1" inkscape:document-units="px" inkscape:pageshadow="2" inkscape:pageopacity="0.0" id="base" pagecolor="#ffffff" bordercolor="#666666" borderopacity="1.0" inkscape:zoom="1.979899" inkscape:cx="87.773411" inkscape:cy="59.915557" fit-margin-left="0" fit-margin-top="0" showgrid="false">
	</sodipodi:namedview>
<g id="layer1" transform="translate(-35.482976,-90.654687)" inkscape:groupmode="layer" inkscape:label="Layer 1">
	<circle fill="#232323" cx="71.859" cy="126.972" r="24.5"/>
	<path id="path8603" inkscape:connector-curvature="0" fill="#E2E1D7" d="M91.97,115.959c-1.346-2.554-3.151-4.817-5.298-6.686
		c-4.14,0.592-8.425-1.506-10.564-5.158c-1.376-0.266-2.797-0.408-4.249-0.408c-1.451,0-2.871,0.142-4.248,0.408
		c-2.14,3.652-6.424,5.75-10.566,5.158c-2.146,1.869-3.952,4.132-5.296,6.686c1.533,4.031,0.439,8.844-2.681,11.783
		c0.102,2.924,0.729,5.711,1.795,8.264c4.151,1.266,7.242,5.23,7.513,9.635c2.199,1.643,4.699,2.889,7.398,3.648
		c3.575-2.562,8.595-2.562,12.168,0c2.699-0.76,5.201-2.006,7.402-3.648c0.269-4.404,3.357-8.369,7.512-9.635
		c1.068-2.553,1.693-5.34,1.793-8.264C91.532,124.803,90.44,119.99,91.97,115.959"/>
	<circle fill="#E2E1D7" stroke="#939393" stroke-miterlimit="10" cx="71.859" cy="126.973" r="15.384"/>
	<path id="path8605" inkscape:connector-curvature="0" d="M73.568,106.851c0,0.994-0.772,1.794-1.712,1.794
		c-0.941,0-1.706-0.8-1.706-1.794c0-0.995,0.765-1.795,1.706-1.795C72.795,105.057,73.568,105.857,73.568,106.851"/>
</g>
</svg>
