<?xml version="1.0" encoding="UTF-8" standalone="no"?>
<!DOCTYPE svg PUBLIC "-//W3C//DTD SVG 1.1//EN" "http://www.w3.org/Graphics/SVG/1.1/DTD/svg11.dtd">
<svg width="56px" height="56px" version="1.1" xmlns="http://www.w3.org/2000/svg" xmlns:xlink="http://www.w3.org/1999/xlink" xml:space="preserve" xmlns:serif="http://www.serif.com/" style="fill-rule:evenodd;clip-rule:evenodd;stroke-linecap:round;stroke-linejoin:round;stroke-miterlimit:1.5;">
    <circle id="BG" cx="28" cy="28" r="28" style="fill-opacity:0.807843;"/>
    <g id="BigKnob">
        <g id="Version2">
            <g transform="matrix(1.16536,1.15648e-16,0,1.16536,-7.49697,-7.67464)">
                <circle cx="30.46" cy="30.613" r="21.453" style="fill:#5c5858;"/>
            </g>
            <g transform="matrix(1.0294,-0.594323,0.594323,1.0294,-17.7038,16.3809)">
                <path d="M31.889,6.502c2.47,0.41 4.909,1.262 7.204,2.587c2.197,1.269 4.085,2.869 5.638,4.701c-0.369,1.342 -0.222,2.825 0.528,4.125c0.749,1.296 1.956,2.164 3.299,2.518c1.604,4.485 1.716,9.478 0.117,14.159c-1.3,0.37 -2.463,1.226 -3.192,2.488c-0.76,1.317 -0.901,2.822 -0.514,4.177c-3.462,4.239 -8.338,6.883 -13.53,7.639c-0.986,-1.078 -2.404,-1.755 -3.979,-1.755c-1.437,0 -2.743,0.564 -3.71,1.481c-2.095,-0.461 -4.155,-1.247 -6.11,-2.376c-2.125,-1.227 -3.961,-2.763 -5.483,-4.52c0.404,-1.368 0.268,-2.892 -0.5,-4.224c-0.78,-1.35 -2.058,-2.236 -3.468,-2.559c-1.635,-4.542 -1.738,-9.609 -0.08,-14.346c1.442,-0.307 2.753,-1.201 3.548,-2.577c0.794,-1.376 0.912,-2.958 0.458,-4.361c3.193,-3.71 7.495,-6.127 12.114,-7.037c0.972,0.952 2.304,1.539 3.771,1.539c1.528,0 2.908,-0.636 3.889,-1.659Z" style="fill:#fff;stroke:#2c2c2c;stroke-width:0.93px;"/>
            </g>
            <g transform="matrix(0.839056,0,0,0.839056,2.40097,2.3499)">
                <circle cx="30.46" cy="30.613" r="21.453" style="fill:#f2f2f2;"/>
                <path d="M30.737,9.162l0.277,0.005l0.275,0.009l0.274,0.012l0.274,0.016l0.273,0.019l0.272,0.022l0.27,0.026l0.27,0.029l0.269,0.032l0.268,0.036l0.266,0.039l0.266,0.043l0.265,0.045l0.263,0.049l0.262,0.052l0.262,0.055l0.26,0.059l0.258,0.061l0.258,0.065l0.256,0.068l0.255,0.07l0.254,0.074l0.253,0.077l0.251,0.08l0.25,0.083l0.248,0.086l0.247,0.089l0.246,0.091l0.244,0.095l0.243,0.098l0.241,0.1l0.24,0.103l0.238,0.106l0.237,0.109l0.235,0.112l0.234,0.114l0.232,0.117l0.231,0.12l0.228,0.123l0.227,0.125l0.226,0.128l0.224,0.13l0.222,0.134l0.22,0.135l0.218,0.139l0.217,0.14l0.215,0.144l0.213,0.146l0.211,0.148l0.21,0.151l0.207,0.153l0.206,0.156l0.203,0.158l0.202,0.16l0.2,0.163l0.198,0.165l0.195,0.168l0.194,0.17l0.191,0.172l0.19,0.174l0.187,0.177l0.185,0.178l0.184,0.181l0.181,0.183l0.178,0.186l0.177,0.187l0.174,0.19l0.172,0.191l0.17,0.194l0.167,0.195l0.166,0.198l0.162,0.2l0.161,0.201l0.158,0.204l0.156,0.206l0.153,0.207l0.151,0.209l0.148,0.212l0.146,0.213l0.143,0.215l0.141,0.216l0.139,0.219l0.135,0.22l0.133,0.222l0.131,0.224l0.128,0.225l0.125,0.228l0.123,0.228l0.12,0.231l0.117,0.232l0.114,0.234l0.112,0.235l0.109,0.237l0.106,0.238l0.103,0.24l0.1,0.241l0.098,0.243l0.095,0.244l0.091,0.246l0.089,0.247l0.086,0.248l0.083,0.25l0.08,0.251l0.077,0.253l0.074,0.254l0.07,0.255l0.068,0.256l0.065,0.258l0.061,0.258l0.059,0.26l0.055,0.261l0.052,0.263l0.049,0.263l0.045,0.265l0.043,0.265l0.039,0.267l0.035,0.268l0.033,0.269l0.029,0.27l0.026,0.27l0.022,0.272l0.019,0.273l0.016,0.273l0.012,0.275l0.009,0.275l0.005,0.277l0.002,0.277l-0.002,0.277l-0.005,0.276l-0.009,0.275l-0.012,0.275l-0.016,0.274l-0.019,0.272l-0.022,0.272l-0.026,0.271l-0.029,0.27l-0.033,0.268l-0.035,0.268l-0.039,0.267l-0.043,0.266l-0.045,0.264l-0.049,0.264l-0.052,0.262l-0.055,0.261l-0.059,0.26l-0.061,0.259l-0.065,0.257l-0.068,0.257l-0.07,0.255l-0.074,0.254l-0.077,0.252l-0.08,0.251l-0.083,0.25l-0.086,0.249l-0.089,0.247l-0.091,0.245l-0.095,0.245l-0.098,0.242l-0.1,0.242l-0.103,0.24l-0.106,0.238l-0.109,0.237l-0.112,0.235l-0.114,0.234l-0.117,0.232l-0.12,0.23l-0.123,0.229l-0.125,0.227l-0.128,0.225l-0.131,0.224l-0.133,0.222l-0.135,0.22l-0.139,0.219l-0.141,0.217l-0.143,0.215l-0.146,0.213l-0.148,0.211l-0.151,0.209l-0.153,0.208l-0.156,0.205l-0.158,0.204l-0.161,0.202l-0.162,0.199l-0.166,0.198l-0.167,0.196l-0.17,0.193l-0.172,0.192l-0.174,0.189l-0.177,0.188l-0.178,0.185l-0.181,0.183l-0.184,0.181l-0.185,0.179l-0.187,0.176l-0.19,0.175l-0.191,0.172l-0.194,0.169l-0.195,0.168l-0.198,0.165l-0.2,0.163l-0.202,0.16l-0.203,0.158l-0.206,0.156l-0.207,0.153l-0.21,0.151l-0.211,0.149l-0.213,0.145l-0.215,0.144l-0.217,0.141l-0.218,0.138l-0.22,0.136l-0.222,0.133l-0.224,0.13l-0.226,0.128l-0.227,0.126l-0.228,0.122l-0.231,0.12l-0.232,0.117l-0.234,0.115l-0.235,0.111l-0.237,0.109l-0.238,0.106l-0.24,0.103l-0.241,0.101l-0.243,0.097l-0.244,0.095l-0.246,0.092l-0.247,0.089l-0.248,0.085l-0.25,0.083l-0.251,0.08l-0.253,0.077l-0.254,0.074l-0.255,0.071l-0.256,0.067l-0.258,0.065l-0.258,0.062l-0.26,0.058l-0.262,0.055l-0.262,0.052l-0.263,0.049l-0.265,0.046l-0.266,0.042l-0.266,0.039l-0.268,0.036l-0.269,0.032l-0.27,0.03l-0.27,0.025l-0.272,0.023l-0.273,0.019l-0.274,0.015l-0.274,0.013l-0.275,0.008l-0.277,0.006l-0.277,0.001l-0.277,-0.001l-0.276,-0.006l-0.276,-0.008l-0.274,-0.013l-0.274,-0.015l-0.272,-0.019l-0.272,-0.023l-0.271,-0.025l-0.27,-0.03l-0.268,-0.032l-0.268,-0.036l-0.267,-0.039l-0.266,-0.042l-0.264,-0.046l-0.264,-0.049l-0.262,-0.052l-0.261,-0.055l-0.26,-0.058l-0.259,-0.062l-0.257,-0.065l-0.257,-0.067l-0.255,-0.071l-0.254,-0.074l-0.252,-0.077l-0.251,-0.08l-0.25,-0.083l-0.249,-0.085l-0.247,-0.089l-0.245,-0.092l-0.245,-0.095l-0.242,-0.097l-0.242,-0.101l-0.24,-0.103l-0.238,-0.106l-0.237,-0.109l-0.235,-0.111l-0.234,-0.115l-0.232,-0.117l-0.23,-0.12l-0.229,-0.122l-0.227,-0.126l-0.225,-0.128l-0.224,-0.13l-0.222,-0.133l-0.221,-0.136l-0.218,-0.138l-0.217,-0.141l-0.215,-0.144l-0.213,-0.145l-0.211,-0.149l-0.209,-0.151l-0.208,-0.153l-0.205,-0.156l-0.204,-0.158l-0.202,-0.16l-0.199,-0.163l-0.198,-0.165l-0.196,-0.168l-0.193,-0.169l-0.192,-0.172l-0.189,-0.175l-0.188,-0.176l-0.185,-0.179l-0.183,-0.181l-0.181,-0.183l-0.179,-0.185l-0.176,-0.188l-0.175,-0.189l-0.172,-0.192l-0.17,-0.193l-0.167,-0.196l-0.165,-0.198l-0.163,-0.199l-0.16,-0.202l-0.159,-0.204l-0.155,-0.205l-0.154,-0.208l-0.15,-0.209l-0.149,-0.211l-0.146,-0.213l-0.143,-0.215l-0.141,-0.217l-0.138,-0.219l-0.136,-0.22l-0.133,-0.222l-0.131,-0.224l-0.127,-0.225l-0.126,-0.227l-0.122,-0.229l-0.12,-0.23l-0.117,-0.232l-0.115,-0.234l-0.111,-0.235l-0.109,-0.237l-0.106,-0.238l-0.103,-0.24l-0.101,-0.242l-0.097,-0.242l-0.095,-0.245l-0.092,-0.245l-0.089,-0.247l-0.086,-0.249l-0.082,-0.25l-0.08,-0.251l-0.077,-0.252l-0.074,-0.254l-0.071,-0.255l-0.068,-0.257l-0.064,-0.257l-0.062,-0.259l-0.058,-0.26l-0.055,-0.261l-0.052,-0.262l-0.049,-0.264l-0.046,-0.264l-0.042,-0.266l-0.039,-0.267l-0.036,-0.268l-0.032,-0.268l-0.03,-0.27l-0.025,-0.271l-0.023,-0.272l-0.019,-0.272l-0.016,-0.274l-0.012,-0.275l-0.008,-0.275l-0.006,-0.276l-0.001,-0.277l0.001,-0.277l0.006,-0.277l0.008,-0.275l0.012,-0.275l0.016,-0.273l0.019,-0.273l0.023,-0.272l0.025,-0.27l0.03,-0.27l0.032,-0.269l0.036,-0.268l0.039,-0.267l0.042,-0.265l0.046,-0.265l0.049,-0.263l0.052,-0.263l0.055,-0.261l0.058,-0.26l0.062,-0.258l0.064,-0.258l0.068,-0.256l0.071,-0.255l0.074,-0.254l0.077,-0.253l0.08,-0.251l0.082,-0.25l0.086,-0.248l0.089,-0.247l0.092,-0.246l0.095,-0.244l0.097,-0.243l0.101,-0.241l0.103,-0.24l0.106,-0.238l0.109,-0.237l0.111,-0.235l0.115,-0.234l0.117,-0.232l0.12,-0.231l0.122,-0.228l0.126,-0.228l0.127,-0.225l0.131,-0.224l0.133,-0.222l0.136,-0.22l0.138,-0.219l0.141,-0.216l0.143,-0.215l0.146,-0.213l0.149,-0.212l0.15,-0.209l0.154,-0.207l0.155,-0.206l0.159,-0.204l0.16,-0.201l0.163,-0.2l0.165,-0.198l0.167,-0.195l0.17,-0.194l0.172,-0.191l0.175,-0.19l0.176,-0.187l0.179,-0.186l0.181,-0.183l0.183,-0.181l0.185,-0.178l0.188,-0.177l0.189,-0.174l0.192,-0.172l0.193,-0.17l0.196,-0.168l0.198,-0.165l0.199,-0.163l0.202,-0.16l0.204,-0.158l0.205,-0.156l0.208,-0.153l0.209,-0.151l0.211,-0.148l0.213,-0.146l0.215,-0.144l0.217,-0.14l0.218,-0.139l0.221,-0.135l0.222,-0.134l0.224,-0.13l0.225,-0.128l0.227,-0.125l0.229,-0.123l0.23,-0.12l0.232,-0.117l0.234,-0.114l0.235,-0.112l0.237,-0.109l0.238,-0.106l0.24,-0.103l0.242,-0.1l0.242,-0.098l0.245,-0.095l0.245,-0.091l0.247,-0.089l0.249,-0.086l0.25,-0.083l0.251,-0.08l0.252,-0.077l0.254,-0.074l0.255,-0.07l0.257,-0.068l0.257,-0.065l0.259,-0.061l0.26,-0.059l0.261,-0.055l0.262,-0.052l0.264,-0.049l0.264,-0.045l0.266,-0.043l0.267,-0.039l0.268,-0.036l0.268,-0.032l0.27,-0.029l0.271,-0.026l0.272,-0.022l0.272,-0.019l0.274,-0.016l0.274,-0.012l0.276,-0.009l0.276,-0.005l0.277,-0.002l0.277,0.002Zm-0.546,0.596l-0.269,0.005l-0.268,0.008l-0.267,0.012l-0.266,0.015l-0.265,0.019l-0.264,0.022l-0.264,0.025l-0.262,0.028l-0.261,0.032l-0.261,0.034l-0.259,0.038l-0.258,0.042l-0.257,0.044l-0.256,0.047l-0.255,0.051l-0.254,0.054l-0.253,0.056l-0.252,0.06l-0.25,0.063l-0.249,0.066l-0.248,0.069l-0.247,0.071l-0.245,0.075l-0.244,0.078l-0.243,0.08l-0.242,0.084l-0.24,0.086l-0.239,0.089l-0.237,0.092l-0.236,0.095l-0.235,0.098l-0.233,0.1l-0.231,0.103l-0.23,0.106l-0.229,0.109l-0.227,0.111l-0.226,0.114l-0.224,0.116l-0.222,0.119l-0.221,0.122l-0.219,0.124l-0.218,0.127l-0.216,0.13l-0.214,0.132l-0.212,0.134l-0.211,0.137l-0.209,0.14l-0.207,0.141l-0.206,0.145l-0.203,0.146l-0.202,0.149l-0.2,0.152l-0.198,0.154l-0.196,0.156l-0.194,0.158l-0.192,0.16l-0.191,0.163l-0.188,0.165l-0.186,0.168l-0.184,0.169l-0.183,0.172l-0.18,0.174l-0.178,0.176l-0.176,0.178l-0.174,0.18l-0.171,0.182l-0.17,0.184l-0.167,0.187l-0.165,0.188l-0.163,0.19l-0.161,0.192l-0.158,0.195l-0.156,0.196l-0.154,0.198l-0.151,0.2l-0.149,0.201l-0.147,0.204l-0.144,0.205l-0.142,0.207l-0.139,0.209l-0.137,0.211l-0.135,0.213l-0.132,0.214l-0.129,0.216l-0.127,0.217l-0.124,0.219l-0.122,0.221l-0.119,0.223l-0.117,0.224l-0.114,0.225l-0.111,0.227l-0.108,0.229l-0.106,0.23l-0.103,0.232l-0.101,0.233l-0.097,0.235l-0.095,0.236l-0.092,0.237l-0.089,0.239l-0.087,0.24l-0.083,0.241l-0.081,0.243l-0.077,0.244l-0.075,0.246l-0.072,0.246l-0.069,0.248l-0.066,0.25l-0.062,0.25l-0.06,0.252l-0.057,0.252l-0.054,0.254l-0.05,0.255l-0.048,0.256l-0.044,0.257l-0.041,0.259l-0.038,0.259l-0.035,0.26l-0.031,0.262l-0.029,0.262l-0.025,0.263l-0.022,0.264l-0.018,0.266l-0.015,0.266l-0.012,0.267l-0.009,0.267l-0.005,0.269l-0.002,0.27l0.002,0.269l0.005,0.269l0.009,0.268l0.012,0.267l0.015,0.266l0.018,0.265l0.022,0.264l0.025,0.263l0.029,0.263l0.031,0.261l0.035,0.26l0.038,0.26l0.041,0.258l0.044,0.257l0.048,0.256l0.05,0.255l0.054,0.254l0.057,0.253l0.06,0.251l0.062,0.251l0.066,0.249l0.069,0.248l0.072,0.247l0.075,0.245l0.077,0.244l0.081,0.243l0.083,0.241l0.087,0.241l0.089,0.238l0.092,0.238l0.095,0.236l0.097,0.234l0.101,0.234l0.103,0.231l0.106,0.23l0.108,0.229l0.111,0.227l0.114,0.226l0.117,0.224l0.119,0.222l0.122,0.221l0.124,0.219l0.127,0.218l0.129,0.216l0.132,0.214l0.135,0.212l0.137,0.211l0.139,0.209l0.142,0.207l0.144,0.205l0.147,0.204l0.149,0.202l0.151,0.2l0.154,0.198l0.156,0.196l0.158,0.194l0.161,0.192l0.163,0.19l0.165,0.189l0.167,0.186l0.17,0.184l0.171,0.182l0.174,0.181l0.176,0.178l0.178,0.176l0.18,0.173l0.183,0.172l0.184,0.17l0.186,0.167l0.188,0.165l0.191,0.163l0.192,0.16l0.194,0.159l0.196,0.156l0.198,0.154l0.2,0.151l0.202,0.149l0.203,0.147l0.206,0.144l0.207,0.142l0.209,0.139l0.211,0.137l0.212,0.135l0.214,0.132l0.216,0.129l0.218,0.127l0.219,0.124l0.221,0.122l0.222,0.119l0.224,0.117l0.226,0.114l0.227,0.111l0.229,0.108l0.23,0.106l0.231,0.103l0.233,0.101l0.235,0.097l0.236,0.095l0.237,0.092l0.239,0.089l0.24,0.087l0.242,0.083l0.243,0.081l0.244,0.077l0.245,0.075l0.247,0.072l0.248,0.069l0.249,0.065l0.25,0.063l0.252,0.06l0.253,0.057l0.254,0.053l0.255,0.051l0.256,0.047l0.257,0.045l0.258,0.041l0.259,0.038l0.261,0.035l0.261,0.031l0.262,0.029l0.264,0.025l0.264,0.022l0.265,0.018l0.266,0.015l0.267,0.012l0.268,0.009l0.269,0.005l0.269,0.001l0.27,-0.001l0.268,-0.005l0.268,-0.009l0.267,-0.012l0.266,-0.015l0.266,-0.018l0.264,-0.022l0.263,-0.025l0.262,-0.029l0.262,-0.031l0.26,-0.035l0.259,-0.038l0.259,-0.041l0.257,-0.045l0.256,-0.047l0.255,-0.051l0.254,-0.053l0.252,-0.057l0.252,-0.06l0.25,-0.063l0.249,-0.065l0.248,-0.069l0.247,-0.072l0.246,-0.075l0.244,-0.077l0.242,-0.081l0.242,-0.083l0.24,-0.087l0.239,-0.089l0.237,-0.092l0.236,-0.095l0.235,-0.097l0.233,-0.101l0.232,-0.103l0.23,-0.106l0.229,-0.108l0.227,-0.111l0.225,-0.114l0.224,-0.117l0.223,-0.119l0.221,-0.122l0.219,-0.124l0.217,-0.127l0.216,-0.129l0.214,-0.132l0.213,-0.135l0.21,-0.137l0.209,-0.139l0.208,-0.142l0.205,-0.144l0.204,-0.147l0.201,-0.149l0.2,-0.151l0.198,-0.154l0.196,-0.156l0.194,-0.159l0.193,-0.16l0.19,-0.163l0.188,-0.165l0.187,-0.167l0.184,-0.17l0.182,-0.172l0.18,-0.173l0.178,-0.176l0.176,-0.178l0.174,-0.181l0.172,-0.182l0.169,-0.184l0.167,-0.186l0.166,-0.189l0.162,-0.19l0.161,-0.192l0.158,-0.194l0.156,-0.196l0.154,-0.198l0.152,-0.2l0.149,-0.202l0.146,-0.204l0.144,-0.205l0.142,-0.207l0.14,-0.209l0.137,-0.211l0.134,-0.212l0.132,-0.214l0.13,-0.216l0.126,-0.218l0.125,-0.219l0.122,-0.221l0.119,-0.222l0.116,-0.224l0.114,-0.226l0.111,-0.227l0.109,-0.229l0.106,-0.23l0.103,-0.231l0.1,-0.234l0.098,-0.234l0.095,-0.236l0.092,-0.238l0.089,-0.238l0.086,-0.241l0.084,-0.241l0.08,-0.243l0.078,-0.244l0.075,-0.245l0.071,-0.247l0.069,-0.248l0.066,-0.249l0.063,-0.251l0.06,-0.251l0.056,-0.253l0.054,-0.254l0.051,-0.255l0.047,-0.256l0.044,-0.257l0.041,-0.258l0.038,-0.26l0.035,-0.26l0.032,-0.261l0.028,-0.263l0.025,-0.263l0.022,-0.264l0.019,-0.265l0.015,-0.266l0.012,-0.267l0.008,-0.268l0.005,-0.269l0.002,-0.269l-0.002,-0.27l-0.005,-0.269l-0.008,-0.267l-0.012,-0.267l-0.015,-0.266l-0.019,-0.266l-0.022,-0.264l-0.025,-0.263l-0.028,-0.262l-0.032,-0.262l-0.035,-0.26l-0.038,-0.259l-0.041,-0.259l-0.044,-0.257l-0.047,-0.256l-0.051,-0.255l-0.054,-0.254l-0.056,-0.252l-0.06,-0.252l-0.063,-0.25l-0.066,-0.25l-0.069,-0.248l-0.071,-0.246l-0.075,-0.246l-0.078,-0.244l-0.08,-0.243l-0.084,-0.241l-0.086,-0.24l-0.089,-0.239l-0.092,-0.237l-0.095,-0.236l-0.098,-0.235l-0.1,-0.233l-0.103,-0.232l-0.106,-0.23l-0.109,-0.229l-0.111,-0.227l-0.114,-0.225l-0.116,-0.224l-0.119,-0.223l-0.122,-0.221l-0.125,-0.219l-0.126,-0.217l-0.13,-0.216l-0.132,-0.214l-0.134,-0.213l-0.137,-0.211l-0.14,-0.209l-0.142,-0.207l-0.144,-0.205l-0.146,-0.204l-0.149,-0.201l-0.152,-0.2l-0.154,-0.198l-0.156,-0.196l-0.158,-0.195l-0.161,-0.192l-0.162,-0.19l-0.166,-0.188l-0.167,-0.187l-0.169,-0.184l-0.172,-0.182l-0.174,-0.18l-0.176,-0.178l-0.178,-0.176l-0.18,-0.174l-0.182,-0.172l-0.184,-0.169l-0.187,-0.168l-0.188,-0.165l-0.19,-0.163l-0.193,-0.16l-0.194,-0.158l-0.196,-0.156l-0.198,-0.154l-0.2,-0.152l-0.201,-0.149l-0.204,-0.146l-0.205,-0.145l-0.208,-0.141l-0.209,-0.14l-0.21,-0.137l-0.213,-0.134l-0.214,-0.132l-0.216,-0.13l-0.217,-0.127l-0.219,-0.124l-0.221,-0.122l-0.223,-0.119l-0.224,-0.116l-0.225,-0.114l-0.227,-0.111l-0.229,-0.109l-0.23,-0.106l-0.232,-0.103l-0.233,-0.1l-0.235,-0.098l-0.236,-0.095l-0.237,-0.092l-0.239,-0.089l-0.24,-0.086l-0.242,-0.084l-0.242,-0.08l-0.244,-0.078l-0.246,-0.075l-0.247,-0.071l-0.248,-0.069l-0.249,-0.066l-0.25,-0.063l-0.252,-0.06l-0.252,-0.056l-0.254,-0.054l-0.255,-0.051l-0.256,-0.047l-0.257,-0.044l-0.259,-0.042l-0.259,-0.038l-0.26,-0.034l-0.262,-0.032l-0.262,-0.028l-0.263,-0.025l-0.264,-0.022l-0.266,-0.019l-0.266,-0.015l-0.267,-0.012l-0.268,-0.008l-0.268,-0.005l-0.27,-0.002l-0.269,0.002Z" style="fill:#d6d6d6;"/>
            </g>
            <g transform="matrix(0.116536,0,0,0.116536,23.9987,3.22902)">
                <circle cx="30.46" cy="30.613" r="21.453"/>
            </g>
        </g>
    </g>
</svg>
