<?xml version="1.0" encoding="utf-8"?>
<!-- Generator: Adobe Illustrator 16.0.0, SVG Export Plug-In . SVG Version: 6.00 Build 0)  -->
<!DOCTYPE svg PUBLIC "-//W3C//DTD SVG 1.1//EN" "http://www.w3.org/Graphics/SVG/1.1/DTD/svg11.dtd">
<svg xmlns:dc="http://purl.org/dc/elements/1.1/"
	 xmlns:sodipodi="http://sodipodi.sourceforge.net/DTD/sodipodi-0.dtd" xmlns:svg="http://www.w3.org/2000/svg" xmlns:inkscape="http://www.inkscape.org/namespaces/inkscape" xmlns:cc="http://creativecommons.org/ns#" xmlns:rdf="http://www.w3.org/1999/02/22-rdf-syntax-ns#" xmlns:xlink="http://www.w3.org/1999/xlink" version="1.1" id="BigKnob" sodipodi:docname="BefacoBigKnob.svg"
	 inkscape:version="0.92.2 5c3e80d, 2017-08-06" xmlns="http://www.w3.org/2000/svg" x="0px" y="0px" width="50px" height="50px"
	 viewBox="0 0 50 50" enable-background="new 0 0 50 50" xml:space="preserve">
<rect y="0" display="none" width="50" height="50"/>
<circle fill="#C1C1C1" cx="25" cy="25" r="22.5"/>
<path id="path8603" inkscape:connector-curvature="0" fill="#EFEFEF" stroke="#353535" stroke-width="0.4" stroke-miterlimit="10" d="
	M45.52,13.761c-1.372-2.605-3.213-4.915-5.403-6.821c-4.226,0.604-8.599-1.537-10.779-5.264c-1.403-0.271-2.854-0.417-4.336-0.417
	s-2.93,0.146-4.335,0.417C18.482,5.403,14.11,7.544,9.885,6.94c-2.191,1.907-4.033,4.216-5.404,6.821
	c1.564,4.115,0.448,9.025-2.736,12.025c0.104,2.983,0.745,5.827,1.833,8.434c4.236,1.291,7.389,5.336,7.667,9.832
	c2.244,1.676,4.795,2.947,7.549,3.722c3.647-2.613,8.771-2.613,12.416,0c2.755-0.776,5.309-2.047,7.553-3.722
	c0.274-4.494,3.426-8.541,7.666-9.832c1.09-2.605,1.729-5.449,1.829-8.434C45.075,22.787,43.96,17.877,45.52,13.761"/>
<circle fill="#E0E0E0" stroke="#050404" stroke-width="0.3" stroke-miterlimit="10" cx="24.999" cy="25" r="17.5"/>
<circle fill="#020202" stroke="#050404" stroke-width="0.3" stroke-miterlimit="10" cx="25" cy="4.438" r="1.938"/>
</svg>
