<?xml version="1.0" encoding="utf-8"?>
<!-- Generator: Adobe Illustrator 16.0.0, SVG Export Plug-In . SVG Version: 6.00 Build 0)  -->
<!DOCTYPE svg PUBLIC "-//W3C//DTD SVG 1.1//EN" "http://www.w3.org/Graphics/SVG/1.1/DTD/svg11.dtd">
<svg xmlns:dc="http://purl.org/dc/elements/1.1/"
	 xmlns:cc="http://creativecommons.org/ns#" xmlns:rdf="http://www.w3.org/1999/02/22-rdf-syntax-ns#" xmlns:svg="http://www.w3.org/2000/svg" xmlns:sodipodi="http://sodipodi.sourceforge.net/DTD/sodipodi-0.dtd" xmlns:inkscape="http://www.inkscape.org/namespaces/inkscape" xmlns:xlink="http://www.w3.org/1999/xlink" version="1.1" id="svg15246" inkscape:version="0.92.2 5c3e80d, 2017-08-06"
	 sodipodi:docname="BefacoBigKnob.svg" xmlns="http://www.w3.org/2000/svg" x="0px" y="0px" width="37px" height="37px"
	 viewBox="-34.5 215.5 37 37" enable-background="new -34.5 215.5 37 37" xml:space="preserve">
<sodipodi:namedview  units="px" showgrid="false" borderopacity="1.0" id="base" inkscape:cx="87.773411" inkscape:cy="59.915557" fit-margin-left="0" bordercolor="#666666" pagecolor="#ffffff" inkscape:zoom="1.979899" fit-margin-top="0" inkscape:current-layer="layer1" inkscape:window-width="1274" inkscape:window-height="1434" inkscape:window-x="1280" inkscape:window-y="0" inkscape:window-maximized="0" inkscape:pageopacity="0.0" fit-margin-right="0" inkscape:pageshadow="2" fit-margin-bottom="0" inkscape:document-units="px">
	</sodipodi:namedview>
<g id="layer1" transform="translate(-35.482976,-90.654687)" inkscape:label="Layer 1" inkscape:groupmode="layer">
	<circle fill="#898989" stroke="#969695" stroke-miterlimit="10" cx="19.483" cy="324.655" r="17.5"/>
	<path id="path8603_1_" inkscape:connector-curvature="0" fill="#EFEFEF" d="M27.874,311.985c-2.189-0.36-4.206-1.694-5.355-3.657
		c-0.983-0.189-1.998-0.291-3.035-0.291c-1.037,0-2.051,0.102-3.034,0.291c-1.528,2.609-4.588,4.107-7.547,3.685
		c-1.533,1.335-2.823,2.952-3.783,4.775c1.095,2.881,0.313,6.318-1.915,8.418c0.073,2.088,0.521,4.079,1.282,5.902
		c2.965,0.904,5.173,3.735,5.366,6.882c1.571,1.173,3.356,2.063,5.285,2.606c2.554-1.831,6.14-1.831,8.691,0
		c1.928-0.543,3.715-1.434,5.287-2.606c0.192-3.146,2.397-5.978,5.366-6.882c0.763-1.823,1.209-3.814,1.281-5.902
		c-2.227-2.1-3.007-5.537-1.914-8.418"/>
	<path id="path8603" inkscape:connector-curvature="0" fill="#EFEFEF" d="M33.848,316.788c-0.961-1.823-2.25-3.44-3.784-4.775
		c-0.732,0.104-1.47,0.092-2.19-0.027"/>
	<circle fill="#EFEFEF" stroke="#5B5B5B" stroke-miterlimit="10" cx="19.482" cy="324.316" r="8.5"/>
</g>
<rect x="-17.074" y="218.113" width="2.148" height="4.28"/>
</svg>
