<?xml version="1.0" encoding="UTF-8" standalone="no"?>
<!DOCTYPE svg PUBLIC "-//W3C//DTD SVG 1.1//EN" "http://www.w3.org/Graphics/SVG/1.1/DTD/svg11.dtd">
<svg width="270px" height="380px" version="1.1" xmlns="http://www.w3.org/2000/svg" xmlns:xlink="http://www.w3.org/1999/xlink" xml:space="preserve" xmlns:serif="http://www.serif.com/" style="fill-rule:evenodd;clip-rule:evenodd;stroke-linecap:square;stroke-miterlimit:10;">
    <rect x="0" y="0" width="270" height="380" style="fill:#1d1d1d;"/>
    <g transform="matrix(0.953523,0,0,1.00856,-3.72889,0.686327)">
        <path d="M37.056,338.139l1.714,-6.46l1.02,0l-2.133,7.29l-1.197,0l-2.133,-7.29l1.02,0l1.709,6.46Z" style="fill:#020000;fill-rule:nonzero;stroke:#000;stroke-width:0.2px;"/>
        <path d="M45.737,335.785l0,0.44l-3.891,0l0,0.029c-0.026,0.746 0.116,1.281 0.427,1.607c0.311,0.325 0.75,0.488 1.316,0.488c0.287,0 0.586,-0.046 0.898,-0.137c0.313,-0.091 0.647,-0.229 1.001,-0.415l0,0.894c-0.341,0.14 -0.671,0.245 -0.988,0.315c-0.318,0.07 -0.624,0.105 -0.921,0.105c-0.849,0 -1.513,-0.255 -1.992,-0.765c-0.478,-0.509 -0.718,-1.211 -0.718,-2.106c0,-0.873 0.235,-1.569 0.703,-2.09c0.469,-0.521 1.094,-0.782 1.875,-0.782c0.697,0 1.246,0.236 1.648,0.708c0.402,0.472 0.616,1.042 0.642,1.709Zm-0.898,-0.263c-0.039,-0.378 -0.177,-0.704 -0.413,-0.979c-0.236,-0.275 -0.575,-0.413 -1.018,-0.413c-0.433,0 -0.789,0.143 -1.069,0.43c-0.28,0.286 -0.433,0.609 -0.459,0.967l2.959,-0.005Z" style="fill:#020000;fill-rule:nonzero;stroke:#000;stroke-width:0.2px;"/>
        <path d="M52.129,334.628c-0.192,-0.15 -0.387,-0.259 -0.586,-0.327c-0.199,-0.068 -0.417,-0.102 -0.654,-0.102c-0.56,0 -0.988,0.175 -1.285,0.527c-0.296,0.351 -0.444,0.859 -0.444,1.523l0,2.72l-0.903,0l0,-5.469l0.903,0l0,1.07c0.15,-0.388 0.38,-0.685 0.691,-0.892c0.311,-0.206 0.68,-0.31 1.106,-0.31c0.221,0 0.428,0.028 0.62,0.083c0.192,0.056 0.376,0.142 0.552,0.259l0,0.918Z" style="fill:#020000;fill-rule:nonzero;stroke:#000;stroke-width:0.2px;"/>
        <path d="M57.461,333.691l0,0.879c-0.257,-0.15 -0.516,-0.262 -0.777,-0.337c-0.26,-0.075 -0.525,-0.113 -0.796,-0.113c-0.406,0 -0.71,0.066 -0.91,0.198c-0.2,0.132 -0.3,0.333 -0.3,0.603c0,0.244 0.074,0.427 0.224,0.547c0.15,0.12 0.523,0.238 1.118,0.352l0.362,0.068c0.446,0.085 0.783,0.254 1.013,0.508c0.229,0.254 0.344,0.584 0.344,0.991c0,0.54 -0.192,0.963 -0.576,1.267c-0.384,0.304 -0.918,0.457 -1.602,0.457c-0.27,0 -0.553,-0.029 -0.849,-0.086c-0.297,-0.057 -0.617,-0.142 -0.962,-0.256l0,-0.928c0.335,0.173 0.656,0.302 0.962,0.388c0.306,0.087 0.595,0.13 0.869,0.13c0.397,0 0.705,-0.081 0.923,-0.242c0.218,-0.161 0.327,-0.387 0.327,-0.676c0,-0.417 -0.399,-0.705 -1.196,-0.865l-0.039,-0.009l-0.337,-0.069c-0.518,-0.101 -0.896,-0.271 -1.133,-0.51c-0.238,-0.239 -0.357,-0.566 -0.357,-0.979c0,-0.524 0.178,-0.928 0.533,-1.213c0.354,-0.285 0.861,-0.428 1.518,-0.428c0.293,0 0.575,0.027 0.845,0.081c0.27,0.054 0.535,0.134 0.796,0.242Z" style="fill:#020000;fill-rule:nonzero;stroke:#000;stroke-width:0.2px;"/>
        <path d="M60.473,333.52l2.3,0l0,4.751l1.782,0l0,0.698l-4.463,0l0,-0.698l1.783,0l0,-4.053l-1.402,0l0,-0.698Zm1.402,-2.124l0.898,0l0,1.133l-0.898,0l0,-1.133Z" style="fill:#020000;fill-rule:nonzero;stroke:#000;stroke-width:0.2px;"/>
        <path d="M68.159,334.13c-0.456,0 -0.801,0.178 -1.036,0.532c-0.234,0.355 -0.351,0.881 -0.351,1.578c0,0.693 0.117,1.218 0.351,1.574c0.235,0.357 0.58,0.535 1.036,0.535c0.459,0 0.805,-0.178 1.04,-0.535c0.234,-0.356 0.351,-0.881 0.351,-1.574c0,-0.697 -0.117,-1.223 -0.351,-1.578c-0.235,-0.354 -0.581,-0.532 -1.04,-0.532Zm0,-0.762c0.758,0 1.338,0.246 1.74,0.738c0.402,0.491 0.603,1.203 0.603,2.134c0,0.934 -0.2,1.646 -0.6,2.136c-0.401,0.49 -0.982,0.735 -1.743,0.735c-0.759,0 -1.338,-0.245 -1.739,-0.735c-0.4,-0.49 -0.6,-1.202 -0.6,-2.136c0,-0.931 0.2,-1.643 0.6,-2.134c0.401,-0.492 0.98,-0.738 1.739,-0.738Z" style="fill:#020000;fill-rule:nonzero;stroke:#000;stroke-width:0.2px;"/>
        <path d="M76.503,335.58l0,3.389l-0.903,0l0,-3.389c0,-0.491 -0.086,-0.853 -0.259,-1.084c-0.173,-0.231 -0.443,-0.346 -0.811,-0.346c-0.419,0 -0.743,0.149 -0.969,0.446c-0.226,0.298 -0.339,0.726 -0.339,1.282l0,3.091l-0.899,0l0,-5.469l0.899,0l0,0.821c0.159,-0.313 0.376,-0.55 0.649,-0.711c0.274,-0.161 0.598,-0.242 0.972,-0.242c0.557,0 0.972,0.184 1.248,0.55c0.275,0.366 0.412,0.92 0.412,1.662Z" style="fill:#020000;fill-rule:nonzero;stroke:#000;stroke-width:0.2px;"/>
        <path d="M86.82,331.572c0.778,0 1.366,0.317 1.765,0.952c0.399,0.634 0.598,1.574 0.598,2.817c0,1.244 -0.199,2.183 -0.598,2.817c-0.399,0.635 -0.987,0.953 -1.765,0.953c-0.778,0 -1.365,-0.318 -1.763,-0.953c-0.397,-0.634 -0.595,-1.573 -0.595,-2.817c0,-1.243 0.198,-2.183 0.595,-2.817c0.398,-0.635 0.985,-0.952 1.763,-0.952Zm0,6.757c0.462,0 0.807,-0.245 1.033,-0.737c0.226,-0.491 0.339,-1.242 0.339,-2.251c0,-0.537 -0.032,-1.022 -0.097,-1.455l-2.325,3.638c0.244,0.537 0.594,0.805 1.05,0.805Zm0,-5.976c-0.459,0 -0.801,0.246 -1.028,0.737c-0.226,0.492 -0.339,1.242 -0.339,2.251c0,0.459 0.031,0.889 0.093,1.289l2.275,-3.628c-0.247,-0.433 -0.581,-0.649 -1.001,-0.649Z" style="fill:#020000;fill-rule:nonzero;stroke:#000;stroke-width:0.2px;"/>
        <rect x="91.932" y="336.996" width="1.719" height="1.973" style="fill:#020000;fill-rule:nonzero;stroke:#000;stroke-width:0.2px;"/>
        <path d="M101.092,331.84l0,0.908c-0.205,-0.12 -0.423,-0.212 -0.654,-0.276c-0.231,-0.063 -0.472,-0.095 -0.723,-0.095c-0.625,0 -1.098,0.235 -1.421,0.706c-0.322,0.47 -0.483,1.163 -0.483,2.077c0.156,-0.325 0.373,-0.575 0.649,-0.749c0.277,-0.174 0.594,-0.261 0.952,-0.261c0.704,0 1.248,0.215 1.634,0.647c0.386,0.431 0.578,1.042 0.578,1.833c0,0.788 -0.198,1.398 -0.595,1.831c-0.397,0.433 -0.956,0.65 -1.675,0.65c-0.846,0 -1.467,-0.304 -1.86,-0.911c-0.394,-0.607 -0.591,-1.563 -0.591,-2.869c0,-1.23 0.237,-2.168 0.71,-2.815c0.474,-0.646 1.16,-0.969 2.058,-0.969c0.241,0 0.482,0.025 0.723,0.076c0.241,0.05 0.474,0.123 0.698,0.217Zm-1.758,3.081c-0.42,0 -0.75,0.152 -0.991,0.454c-0.241,0.303 -0.361,0.721 -0.361,1.255c0,0.534 0.12,0.952 0.361,1.255c0.241,0.303 0.571,0.454 0.991,0.454c0.437,0 0.765,-0.144 0.987,-0.432c0.221,-0.288 0.332,-0.714 0.332,-1.277c0,-0.566 -0.111,-0.993 -0.332,-1.279c-0.222,-0.287 -0.55,-0.43 -0.987,-0.43Z" style="fill:#020000;fill-rule:nonzero;stroke:#000;stroke-width:0.2px;"/>
        <rect x="104.373" y="336.996" width="1.719" height="1.973" style="fill:#020000;fill-rule:nonzero;stroke:#000;stroke-width:0.2px;"/>
        <path d="M110.013,338.144l1.533,0l0,-5.508l-1.836,0.884l0,-0.947l1.826,-0.87l0.986,0l0,6.441l1.514,0l0,0.825l-4.023,0l0,-0.825Z" style="fill:#020000;fill-rule:nonzero;stroke:#000;stroke-width:0.2px;"/>
        <path d="M39.287,350.71c-0.25,0.134 -0.507,0.234 -0.771,0.301c-0.264,0.066 -0.544,0.1 -0.84,0.1c-0.934,0 -1.659,-0.331 -2.175,-0.992c-0.516,-0.66 -0.774,-1.59 -0.774,-2.788c0,-1.191 0.26,-2.12 0.779,-2.785c0.519,-0.666 1.242,-0.999 2.17,-0.999c0.296,0 0.576,0.034 0.84,0.1c0.264,0.067 0.521,0.167 0.771,0.301l0,1.01c-0.24,-0.198 -0.499,-0.35 -0.776,-0.454c-0.277,-0.104 -0.555,-0.156 -0.835,-0.156c-0.641,0 -1.121,0.247 -1.44,0.742c-0.319,0.495 -0.479,1.242 -0.479,2.241c0,0.996 0.16,1.742 0.479,2.237c0.319,0.494 0.799,0.742 1.44,0.742c0.287,0 0.567,-0.052 0.842,-0.156c0.276,-0.105 0.532,-0.256 0.769,-0.455l0,1.011Z" style="fill:#020000;fill-rule:nonzero;stroke:#000;stroke-width:0.2px;"/>
        <path d="M43.277,346.13c-0.456,0 -0.801,0.178 -1.036,0.532c-0.234,0.355 -0.351,0.881 -0.351,1.578c0,0.693 0.117,1.218 0.351,1.574c0.235,0.357 0.58,0.535 1.036,0.535c0.459,0 0.805,-0.178 1.04,-0.535c0.234,-0.356 0.351,-0.881 0.351,-1.574c0,-0.697 -0.117,-1.223 -0.351,-1.578c-0.235,-0.354 -0.581,-0.532 -1.04,-0.532Zm0,-0.762c0.758,0 1.338,0.246 1.74,0.738c0.402,0.491 0.603,1.203 0.603,2.134c0,0.934 -0.2,1.646 -0.6,2.136c-0.401,0.49 -0.982,0.735 -1.743,0.735c-0.759,0 -1.338,-0.245 -1.739,-0.735c-0.4,-0.49 -0.6,-1.202 -0.6,-2.136c0,-0.931 0.2,-1.643 0.6,-2.134c0.401,-0.492 0.98,-0.738 1.739,-0.738Z" style="fill:#020000;fill-rule:nonzero;stroke:#000;stroke-width:0.2px;"/>
        <path d="M48.32,350.281l0,2.768l-0.903,0l0,-7.549l0.903,0l0,0.699c0.15,-0.271 0.349,-0.477 0.598,-0.618c0.249,-0.142 0.537,-0.213 0.862,-0.213c0.661,0 1.179,0.256 1.555,0.767c0.376,0.511 0.564,1.219 0.564,2.124c0,0.889 -0.188,1.586 -0.566,2.092c-0.378,0.507 -0.895,0.76 -1.553,0.76c-0.332,0 -0.622,-0.071 -0.871,-0.213c-0.249,-0.141 -0.445,-0.347 -0.589,-0.617Zm2.637,-2.041c0,-0.697 -0.11,-1.223 -0.33,-1.578c-0.219,-0.354 -0.546,-0.532 -0.979,-0.532c-0.436,0 -0.766,0.178 -0.991,0.535c-0.224,0.356 -0.337,0.881 -0.337,1.575c0,0.69 0.113,1.214 0.337,1.572c0.225,0.358 0.555,0.537 0.991,0.537c0.433,0 0.76,-0.178 0.979,-0.532c0.22,-0.355 0.33,-0.881 0.33,-1.577Z" style="fill:#020000;fill-rule:nonzero;stroke:#000;stroke-width:0.2px;"/>
        <path d="M56.899,349.211c-0.15,0.381 -0.34,0.882 -0.571,1.504c-0.322,0.859 -0.539,1.384 -0.649,1.572c-0.15,0.254 -0.337,0.445 -0.562,0.572c-0.225,0.127 -0.487,0.19 -0.786,0.19l-0.723,0l0,-0.752l0.532,0c0.264,0 0.471,-0.076 0.621,-0.229c0.149,-0.153 0.34,-0.549 0.571,-1.187l-2.114,-5.381l0.952,0l1.621,4.278l1.596,-4.278l0.953,0l-1.441,3.711Z" style="fill:#020000;fill-rule:nonzero;stroke:#000;stroke-width:0.2px;"/>
        <path d="M64.57,346.628c-0.192,-0.15 -0.387,-0.259 -0.586,-0.327c-0.199,-0.068 -0.417,-0.102 -0.654,-0.102c-0.56,0 -0.988,0.175 -1.284,0.527c-0.297,0.351 -0.445,0.859 -0.445,1.523l0,2.72l-0.903,0l0,-5.469l0.903,0l0,1.07c0.15,-0.388 0.38,-0.685 0.691,-0.892c0.311,-0.206 0.68,-0.31 1.106,-0.31c0.221,0 0.428,0.028 0.62,0.083c0.192,0.056 0.376,0.142 0.552,0.259l0,0.918Z" style="fill:#020000;fill-rule:nonzero;stroke:#000;stroke-width:0.2px;"/>
        <path d="M66.694,345.52l2.3,0l0,4.751l1.782,0l0,0.698l-4.463,0l0,-0.698l1.782,0l0,-4.053l-1.401,0l0,-0.698Zm1.401,-2.124l0.899,0l0,1.133l-0.899,0l0,-1.133Z" style="fill:#020000;fill-rule:nonzero;stroke:#000;stroke-width:0.2px;"/>
        <path d="M75.561,348.191c0,-0.674 -0.11,-1.186 -0.33,-1.536c-0.22,-0.35 -0.539,-0.525 -0.959,-0.525c-0.44,0 -0.775,0.175 -1.006,0.525c-0.231,0.35 -0.347,0.862 -0.347,1.536c0,0.674 0.117,1.187 0.349,1.54c0.233,0.353 0.571,0.53 1.013,0.53c0.414,0 0.73,-0.177 0.95,-0.532c0.22,-0.355 0.33,-0.868 0.33,-1.538Zm0.898,2.426c0,0.821 -0.194,1.443 -0.581,1.866c-0.387,0.423 -0.957,0.634 -1.709,0.634c-0.247,0 -0.506,-0.022 -0.776,-0.068c-0.27,-0.045 -0.541,-0.112 -0.811,-0.2l0,-0.889c0.319,0.15 0.609,0.261 0.869,0.332c0.261,0.072 0.5,0.108 0.718,0.108c0.485,0 0.838,-0.132 1.06,-0.396c0.221,-0.263 0.332,-0.682 0.332,-1.255l0,-0.039l0,-0.61c-0.143,0.306 -0.339,0.534 -0.586,0.683c-0.248,0.15 -0.549,0.225 -0.904,0.225c-0.638,0 -1.147,-0.255 -1.528,-0.767c-0.381,-0.511 -0.571,-1.194 -0.571,-2.05c0,-0.86 0.19,-1.545 0.571,-2.056c0.381,-0.511 0.89,-0.767 1.528,-0.767c0.352,0 0.65,0.07 0.894,0.21c0.244,0.14 0.443,0.357 0.596,0.65l0,-0.708l0.898,0l0,5.097Z" style="fill:#020000;fill-rule:nonzero;stroke:#000;stroke-width:0.2px;"/>
        <path d="M82.724,347.58l0,3.389l-0.904,0l0,-3.389c0,-0.491 -0.086,-0.853 -0.258,-1.084c-0.173,-0.231 -0.443,-0.346 -0.811,-0.346c-0.42,0 -0.743,0.149 -0.969,0.446c-0.227,0.298 -0.34,0.726 -0.34,1.282l0,3.091l-0.898,0l0,-7.598l0.898,0l0,2.95c0.16,-0.313 0.376,-0.55 0.65,-0.711c0.273,-0.161 0.597,-0.242 0.971,-0.242c0.557,0 0.973,0.184 1.248,0.55c0.275,0.366 0.413,0.92 0.413,1.662Z" style="fill:#020000;fill-rule:nonzero;stroke:#000;stroke-width:0.2px;"/>
        <path d="M86.81,343.948l0,1.552l2.041,0l0,0.699l-2.041,0l0,2.968c0,0.404 0.077,0.685 0.23,0.845c0.153,0.159 0.42,0.239 0.801,0.239l1.01,0l0,0.718l-1.098,0c-0.674,0 -1.149,-0.135 -1.426,-0.405c-0.277,-0.27 -0.415,-0.736 -0.415,-1.397l0,-2.968l-1.46,0l0,-0.699l1.46,0l0,-1.552l0.898,0Z" style="fill:#020000;fill-rule:nonzero;stroke:#000;stroke-width:0.2px;"/>
        <path d="M98.075,350.139l3.349,0l0,0.83l-4.428,0l0,-0.83c0.608,-0.641 1.14,-1.208 1.596,-1.699c0.456,-0.492 0.77,-0.838 0.943,-1.04c0.325,-0.397 0.545,-0.719 0.659,-0.965c0.114,-0.245 0.171,-0.497 0.171,-0.754c0,-0.407 -0.12,-0.726 -0.359,-0.957c-0.239,-0.231 -0.567,-0.347 -0.984,-0.347c-0.296,0 -0.607,0.054 -0.933,0.161c-0.325,0.108 -0.67,0.271 -1.035,0.489l0,-0.996c0.335,-0.16 0.665,-0.28 0.989,-0.362c0.324,-0.081 0.644,-0.122 0.959,-0.122c0.713,0 1.287,0.19 1.722,0.569c0.434,0.379 0.651,0.876 0.651,1.492c0,0.312 -0.072,0.625 -0.217,0.937c-0.145,0.313 -0.38,0.658 -0.705,1.035c-0.183,0.212 -0.447,0.505 -0.794,0.879c-0.347,0.375 -0.875,0.935 -1.584,1.68Z" style="fill:#020000;fill-rule:nonzero;stroke:#000;stroke-width:0.2px;"/>
        <path d="M105.482,343.572c0.778,0 1.366,0.317 1.765,0.952c0.399,0.634 0.598,1.574 0.598,2.817c0,1.244 -0.199,2.183 -0.598,2.817c-0.399,0.635 -0.987,0.953 -1.765,0.953c-0.778,0 -1.366,-0.318 -1.763,-0.953c-0.397,-0.634 -0.596,-1.573 -0.596,-2.817c0,-1.243 0.199,-2.183 0.596,-2.817c0.397,-0.635 0.985,-0.952 1.763,-0.952Zm0,6.757c0.462,0 0.806,-0.245 1.032,-0.737c0.227,-0.491 0.34,-1.242 0.34,-2.251c0,-0.537 -0.033,-1.022 -0.098,-1.455l-2.324,3.638c0.244,0.537 0.594,0.805 1.05,0.805Zm0,-5.976c-0.459,0 -0.802,0.246 -1.028,0.737c-0.226,0.492 -0.34,1.242 -0.34,2.251c0,0.459 0.031,0.889 0.093,1.289l2.276,-3.628c-0.248,-0.433 -0.581,-0.649 -1.001,-0.649Z" style="fill:#020000;fill-rule:nonzero;stroke:#000;stroke-width:0.2px;"/>
        <path d="M110.013,350.144l1.533,0l0,-5.508l-1.836,0.884l0,-0.947l1.826,-0.87l0.986,0l0,6.441l1.514,0l0,0.825l-4.023,0l0,-0.825Z" style="fill:#020000;fill-rule:nonzero;stroke:#000;stroke-width:0.2px;"/>
        <path d="M115.594,343.679l4.589,0l0,0.42l-2.607,6.87l-1.03,0l2.539,-6.46l-3.491,0l0,-0.83Z" style="fill:#020000;fill-rule:nonzero;stroke:#000;stroke-width:0.2px;"/>
        <rect x="121.633" y="347.434" width="5.176" height="0.825" style="fill:#020000;fill-rule:nonzero;stroke:#000;stroke-width:0.2px;"/>
        <path d="M129.177,350.139l3.35,0l0,0.83l-4.429,0l0,-0.83c0.609,-0.641 1.141,-1.208 1.597,-1.699c0.455,-0.492 0.77,-0.838 0.942,-1.04c0.326,-0.397 0.545,-0.719 0.659,-0.965c0.114,-0.245 0.171,-0.497 0.171,-0.754c0,-0.407 -0.119,-0.726 -0.359,-0.957c-0.239,-0.231 -0.567,-0.347 -0.984,-0.347c-0.296,0 -0.607,0.054 -0.932,0.161c-0.326,0.108 -0.671,0.271 -1.035,0.489l0,-0.996c0.335,-0.16 0.665,-0.28 0.988,-0.362c0.324,-0.081 0.644,-0.122 0.96,-0.122c0.713,0 1.287,0.19 1.721,0.569c0.435,0.379 0.652,0.876 0.652,1.492c0,0.312 -0.073,0.625 -0.217,0.937c-0.145,0.313 -0.38,0.658 -0.706,1.035c-0.182,0.212 -0.447,0.505 -0.793,0.879c-0.347,0.375 -0.875,0.935 -1.585,1.68Z" style="fill:#020000;fill-rule:nonzero;stroke:#000;stroke-width:0.2px;"/>
        <path d="M136.584,343.572c0.778,0 1.367,0.317 1.765,0.952c0.399,0.634 0.598,1.574 0.598,2.817c0,1.244 -0.199,2.183 -0.598,2.817c-0.398,0.635 -0.987,0.953 -1.765,0.953c-0.778,0 -1.365,-0.318 -1.763,-0.953c-0.397,-0.634 -0.595,-1.573 -0.595,-2.817c0,-1.243 0.198,-2.183 0.595,-2.817c0.398,-0.635 0.985,-0.952 1.763,-0.952Zm0,6.757c0.462,0 0.807,-0.245 1.033,-0.737c0.226,-0.491 0.339,-1.242 0.339,-2.251c0,-0.537 -0.032,-1.022 -0.097,-1.455l-2.325,3.638c0.245,0.537 0.594,0.805 1.05,0.805Zm0,-5.976c-0.459,0 -0.801,0.246 -1.028,0.737c-0.226,0.492 -0.339,1.242 -0.339,2.251c0,0.459 0.031,0.889 0.093,1.289l2.275,-3.628c-0.247,-0.433 -0.581,-0.649 -1.001,-0.649Z" style="fill:#020000;fill-rule:nonzero;stroke:#000;stroke-width:0.2px;"/>
        <path d="M141.115,350.144l1.533,0l0,-5.508l-1.836,0.884l0,-0.947l1.827,-0.87l0.986,0l0,6.441l1.514,0l0,0.825l-4.024,0l0,-0.825Z" style="fill:#020000;fill-rule:nonzero;stroke:#000;stroke-width:0.2px;"/>
        <path d="M149.025,347.507c-0.439,0 -0.779,0.123 -1.018,0.369c-0.239,0.246 -0.359,0.593 -0.359,1.042c0,0.449 0.121,0.799 0.364,1.048c0.243,0.249 0.58,0.373 1.013,0.373c0.443,0 0.784,-0.123 1.023,-0.369c0.239,-0.245 0.359,-0.596 0.359,-1.052c0,-0.446 -0.121,-0.792 -0.364,-1.04c-0.242,-0.247 -0.582,-0.371 -1.018,-0.371Zm-0.859,-0.41c-0.42,-0.107 -0.748,-0.308 -0.984,-0.601c-0.236,-0.293 -0.354,-0.646 -0.354,-1.059c0,-0.58 0.197,-1.039 0.591,-1.38c0.394,-0.34 0.929,-0.51 1.606,-0.51c0.681,0 1.218,0.17 1.612,0.51c0.393,0.341 0.59,0.8 0.59,1.38c0,0.413 -0.118,0.766 -0.354,1.059c-0.236,0.293 -0.564,0.494 -0.984,0.601c0.489,0.107 0.862,0.324 1.121,0.649c0.259,0.326 0.388,0.747 0.388,1.265c0,0.658 -0.21,1.172 -0.63,1.543c-0.42,0.371 -1.001,0.557 -1.743,0.557c-0.742,0 -1.322,-0.185 -1.741,-0.555c-0.418,-0.369 -0.627,-0.881 -0.627,-1.535c0,-0.521 0.129,-0.945 0.388,-1.272c0.259,-0.327 0.633,-0.545 1.121,-0.652Zm-0.357,-1.567c0,0.39 0.105,0.688 0.313,0.893c0.208,0.205 0.509,0.308 0.903,0.308c0.397,0 0.7,-0.103 0.908,-0.308c0.209,-0.205 0.313,-0.503 0.313,-0.893c0,-0.398 -0.103,-0.7 -0.31,-0.909c-0.207,-0.208 -0.51,-0.312 -0.911,-0.312c-0.394,0 -0.695,0.105 -0.903,0.315c-0.208,0.21 -0.313,0.512 -0.313,0.906Z" style="fill:#020000;fill-rule:nonzero;stroke:#000;stroke-width:0.2px;"/>
        <path d="M160.407,344.49l0,2.739l1.142,0c0.456,0 0.812,-0.121 1.067,-0.362c0.256,-0.24 0.383,-0.577 0.383,-1.01c0,-0.433 -0.127,-0.769 -0.38,-1.009c-0.254,-0.239 -0.611,-0.358 -1.07,-0.358l-1.142,0Zm-0.987,-0.811l2.129,0c0.814,0 1.431,0.185 1.851,0.554c0.42,0.37 0.63,0.911 0.63,1.624c0,0.719 -0.209,1.263 -0.628,1.631c-0.418,0.367 -1.036,0.551 -1.853,0.551l-1.142,0l0,2.93l-0.987,0l0,-7.29Z" style="fill:#020000;fill-rule:nonzero;stroke:#000;stroke-width:0.2px;"/>
        <path d="M168.107,348.22l-0.298,0c-0.524,0 -0.919,0.092 -1.184,0.276c-0.266,0.184 -0.398,0.458 -0.398,0.823c0,0.328 0.099,0.584 0.298,0.766c0.198,0.183 0.473,0.274 0.825,0.274c0.495,0 0.884,-0.172 1.167,-0.515c0.283,-0.344 0.426,-0.818 0.429,-1.424l0,-0.2l-0.839,0Zm1.743,-0.371l0,3.12l-0.904,0l0,-0.811c-0.192,0.326 -0.433,0.566 -0.725,0.721c-0.291,0.154 -0.645,0.232 -1.062,0.232c-0.556,0 -1.001,-0.157 -1.333,-0.472c-0.332,-0.314 -0.498,-0.734 -0.498,-1.262c0,-0.608 0.205,-1.071 0.613,-1.386c0.409,-0.316 1.008,-0.474 1.799,-0.474l1.206,0l0,-0.142c-0.003,-0.436 -0.113,-0.752 -0.332,-0.949c-0.218,-0.197 -0.566,-0.296 -1.044,-0.296c-0.306,0 -0.616,0.044 -0.928,0.132c-0.313,0.088 -0.617,0.216 -0.913,0.386l0,-0.899c0.332,-0.127 0.65,-0.222 0.954,-0.285c0.305,-0.064 0.6,-0.096 0.887,-0.096c0.452,0 0.839,0.067 1.159,0.201c0.321,0.133 0.58,0.333 0.779,0.6c0.124,0.163 0.212,0.364 0.264,0.603c0.052,0.24 0.078,0.598 0.078,1.077Z" style="fill:#020000;fill-rule:nonzero;stroke:#000;stroke-width:0.2px;"/>
        <path d="M173.897,343.948l0,1.552l2.041,0l0,0.699l-2.041,0l0,2.968c0,0.404 0.077,0.685 0.23,0.845c0.153,0.159 0.42,0.239 0.801,0.239l1.01,0l0,0.718l-1.098,0c-0.674,0 -1.149,-0.135 -1.426,-0.405c-0.277,-0.27 -0.415,-0.736 -0.415,-1.397l0,-2.968l-1.46,0l0,-0.699l1.46,0l0,-1.552l0.898,0Z" style="fill:#020000;fill-rule:nonzero;stroke:#000;stroke-width:0.2px;"/>
        <path d="M182.76,346.628c-0.192,-0.15 -0.388,-0.259 -0.586,-0.327c-0.199,-0.068 -0.417,-0.102 -0.655,-0.102c-0.56,0 -0.988,0.175 -1.284,0.527c-0.296,0.351 -0.444,0.859 -0.444,1.523l0,2.72l-0.904,0l0,-5.469l0.904,0l0,1.07c0.15,-0.388 0.38,-0.685 0.691,-0.892c0.311,-0.206 0.679,-0.31 1.106,-0.31c0.221,0 0.428,0.028 0.62,0.083c0.192,0.056 0.376,0.142 0.552,0.259l0,0.918Z" style="fill:#020000;fill-rule:nonzero;stroke:#000;stroke-width:0.2px;"/>
        <path d="M184.883,345.52l2.3,0l0,4.751l1.782,0l0,0.698l-4.462,0l0,-0.698l1.782,0l0,-4.053l-1.402,0l0,-0.698Zm1.402,-2.124l0.898,0l0,1.133l-0.898,0l0,-1.133Z" style="fill:#020000;fill-rule:nonzero;stroke:#000;stroke-width:0.2px;"/>
        <path d="M194.742,350.691c-0.241,0.14 -0.489,0.245 -0.745,0.315c-0.256,0.07 -0.517,0.105 -0.784,0.105c-0.846,0 -1.508,-0.254 -1.985,-0.762c-0.476,-0.508 -0.715,-1.211 -0.715,-2.109c0,-0.899 0.239,-1.602 0.715,-2.11c0.477,-0.508 1.139,-0.762 1.985,-0.762c0.264,0 0.521,0.035 0.772,0.103c0.25,0.068 0.503,0.174 0.757,0.317l0,0.943c-0.238,-0.212 -0.476,-0.365 -0.716,-0.459c-0.239,-0.095 -0.51,-0.142 -0.813,-0.142c-0.563,0 -0.996,0.182 -1.299,0.547c-0.302,0.365 -0.454,0.885 -0.454,1.563c0,0.673 0.153,1.193 0.457,1.56c0.304,0.366 0.736,0.549 1.296,0.549c0.313,0 0.593,-0.048 0.84,-0.144c0.248,-0.096 0.477,-0.245 0.689,-0.447l0,0.933Z" style="fill:#020000;fill-rule:nonzero;stroke:#000;stroke-width:0.2px;"/>
        <path d="M196.934,343.371l0.928,0l0,4.4l2.358,-2.271l1.094,0l-2.154,2.061l2.491,3.408l-1.099,0l-2.022,-2.822l-0.668,0.63l0,2.192l-0.928,0l0,-7.598Z" style="fill:#020000;fill-rule:nonzero;stroke:#000;stroke-width:0.2px;"/>
        <path d="M209.272,343.679l0.991,0l0,6.46l3.521,0l0,0.83l-4.512,0l0,-7.29Z" style="fill:#020000;fill-rule:nonzero;stroke:#000;stroke-width:0.2px;"/>
        <path d="M215.986,345.52l2.3,0l0,4.751l1.782,0l0,0.698l-4.463,0l0,-0.698l1.782,0l0,-4.053l-1.401,0l0,-0.698Zm1.401,-2.124l0.899,0l0,1.133l-0.899,0l0,-1.133Z" style="fill:#020000;fill-rule:nonzero;stroke:#000;stroke-width:0.2px;"/>
        <path d="M225.795,347.58l0,3.389l-0.903,0l0,-3.389c0,-0.491 -0.086,-0.853 -0.259,-1.084c-0.172,-0.231 -0.443,-0.346 -0.81,-0.346c-0.42,0 -0.743,0.149 -0.97,0.446c-0.226,0.298 -0.339,0.726 -0.339,1.282l0,3.091l-0.898,0l0,-5.469l0.898,0l0,0.821c0.16,-0.313 0.376,-0.55 0.649,-0.711c0.274,-0.161 0.598,-0.242 0.972,-0.242c0.557,0 0.973,0.184 1.248,0.55c0.275,0.366 0.412,0.92 0.412,1.662Z" style="fill:#020000;fill-rule:nonzero;stroke:#000;stroke-width:0.2px;"/>
        <path d="M231.073,346.199l0,-2.828l0.899,0l0,7.598l-0.899,0l0,-0.688c-0.149,0.27 -0.349,0.476 -0.598,0.617c-0.249,0.142 -0.536,0.213 -0.862,0.213c-0.66,0 -1.18,-0.257 -1.56,-0.769c-0.379,-0.513 -0.568,-1.22 -0.568,-2.122c0,-0.889 0.19,-1.586 0.571,-2.092c0.381,-0.506 0.9,-0.76 1.557,-0.76c0.329,0 0.619,0.071 0.87,0.213c0.25,0.141 0.447,0.347 0.59,0.618Zm-2.641,2.041c0,0.696 0.111,1.222 0.332,1.577c0.221,0.354 0.548,0.532 0.981,0.532c0.433,0 0.763,-0.179 0.989,-0.537c0.226,-0.358 0.339,-0.882 0.339,-1.572c0,-0.694 -0.113,-1.219 -0.339,-1.575c-0.226,-0.357 -0.556,-0.535 -0.989,-0.535c-0.433,0 -0.76,0.178 -0.981,0.532c-0.221,0.355 -0.332,0.881 -0.332,1.578Z" style="fill:#020000;fill-rule:nonzero;stroke:#000;stroke-width:0.2px;"/>
        <path d="M238.573,347.785l0,0.44l-3.891,0l0,0.029c-0.026,0.746 0.116,1.281 0.427,1.607c0.311,0.325 0.749,0.488 1.316,0.488c0.286,0 0.586,-0.046 0.898,-0.137c0.313,-0.091 0.646,-0.229 1.001,-0.415l0,0.894c-0.342,0.14 -0.671,0.245 -0.989,0.315c-0.317,0.07 -0.624,0.105 -0.92,0.105c-0.85,0 -1.514,-0.255 -1.992,-0.765c-0.479,-0.509 -0.718,-1.211 -0.718,-2.106c0,-0.873 0.234,-1.569 0.703,-2.09c0.469,-0.521 1.094,-0.782 1.875,-0.782c0.697,0 1.246,0.236 1.648,0.708c0.402,0.472 0.616,1.042 0.642,1.709Zm-0.898,-0.263c-0.039,-0.378 -0.177,-0.704 -0.413,-0.979c-0.236,-0.275 -0.575,-0.413 -1.018,-0.413c-0.433,0 -0.789,0.143 -1.069,0.43c-0.28,0.286 -0.433,0.609 -0.459,0.967l2.959,-0.005Z" style="fill:#020000;fill-rule:nonzero;stroke:#000;stroke-width:0.2px;"/>
        <path d="M244.457,347.58l0,3.389l-0.903,0l0,-3.389c0,-0.491 -0.087,-0.853 -0.259,-1.084c-0.173,-0.231 -0.443,-0.346 -0.811,-0.346c-0.42,0 -0.743,0.149 -0.969,0.446c-0.226,0.298 -0.339,0.726 -0.339,1.282l0,3.091l-0.899,0l0,-5.469l0.899,0l0,0.821c0.159,-0.313 0.376,-0.55 0.649,-0.711c0.273,-0.161 0.597,-0.242 0.972,-0.242c0.556,0 0.972,0.184 1.247,0.55c0.275,0.366 0.413,0.92 0.413,1.662Z" style="fill:#020000;fill-rule:nonzero;stroke:#000;stroke-width:0.2px;"/>
        <path d="M250.028,348.24c0,-0.697 -0.111,-1.223 -0.332,-1.578c-0.221,-0.354 -0.549,-0.532 -0.982,-0.532c-0.436,0 -0.766,0.178 -0.991,0.535c-0.224,0.356 -0.337,0.881 -0.337,1.575c0,0.69 0.113,1.214 0.337,1.572c0.225,0.358 0.555,0.537 0.991,0.537c0.433,0 0.761,-0.178 0.982,-0.532c0.221,-0.355 0.332,-0.881 0.332,-1.577Zm-2.642,-2.041c0.144,-0.267 0.341,-0.472 0.594,-0.616c0.252,-0.143 0.544,-0.215 0.876,-0.215c0.658,0 1.175,0.254 1.553,0.76c0.377,0.506 0.566,1.203 0.566,2.092c0,0.902 -0.189,1.609 -0.569,2.122c-0.379,0.512 -0.899,0.769 -1.56,0.769c-0.325,0 -0.613,-0.071 -0.862,-0.213c-0.249,-0.141 -0.448,-0.347 -0.598,-0.617l0,0.688l-0.898,0l0,-7.598l0.898,0l0,2.828Z" style="fill:#020000;fill-rule:nonzero;stroke:#000;stroke-width:0.2px;"/>
        <path d="M257.235,347.785l0,0.44l-3.892,0l0,0.029c-0.026,0.746 0.117,1.281 0.427,1.607c0.311,0.325 0.75,0.488 1.316,0.488c0.287,0 0.586,-0.046 0.899,-0.137c0.312,-0.091 0.646,-0.229 1.001,-0.415l0,0.894c-0.342,0.14 -0.672,0.245 -0.989,0.315c-0.317,0.07 -0.624,0.105 -0.92,0.105c-0.85,0 -1.514,-0.255 -1.993,-0.765c-0.478,-0.509 -0.717,-1.211 -0.717,-2.106c0,-0.873 0.234,-1.569 0.703,-2.09c0.468,-0.521 1.093,-0.782 1.875,-0.782c0.696,0 1.246,0.236 1.648,0.708c0.402,0.472 0.616,1.042 0.642,1.709Zm-0.899,-0.263c-0.039,-0.378 -0.176,-0.704 -0.412,-0.979c-0.236,-0.275 -0.576,-0.413 -1.018,-0.413c-0.433,0 -0.79,0.143 -1.07,0.43c-0.28,0.286 -0.433,0.609 -0.459,0.967l2.959,-0.005Z" style="fill:#020000;fill-rule:nonzero;stroke:#000;stroke-width:0.2px;"/>
        <path d="M263.626,346.628c-0.192,-0.15 -0.387,-0.259 -0.586,-0.327c-0.198,-0.068 -0.416,-0.102 -0.654,-0.102c-0.56,0 -0.988,0.175 -1.284,0.527c-0.296,0.351 -0.445,0.859 -0.445,1.523l0,2.72l-0.903,0l0,-5.469l0.903,0l0,1.07c0.15,-0.388 0.38,-0.685 0.691,-0.892c0.311,-0.206 0.68,-0.31 1.106,-0.31c0.222,0 0.428,0.028 0.62,0.083c0.192,0.056 0.376,0.142 0.552,0.259l0,0.918Z" style="fill:#020000;fill-rule:nonzero;stroke:#000;stroke-width:0.2px;"/>
        <path d="M268.396,348.191c0,-0.674 -0.109,-1.186 -0.329,-1.536c-0.22,-0.35 -0.54,-0.525 -0.96,-0.525c-0.439,0 -0.774,0.175 -1.005,0.525c-0.232,0.35 -0.347,0.862 -0.347,1.536c0,0.674 0.116,1.187 0.349,1.54c0.233,0.353 0.57,0.53 1.013,0.53c0.414,0 0.73,-0.177 0.95,-0.532c0.22,-0.355 0.329,-0.868 0.329,-1.538Zm0.899,2.426c0,0.821 -0.194,1.443 -0.581,1.866c-0.388,0.423 -0.957,0.634 -1.709,0.634c-0.248,0 -0.506,-0.022 -0.776,-0.068c-0.271,-0.045 -0.541,-0.112 -0.811,-0.2l0,-0.889c0.319,0.15 0.609,0.261 0.869,0.332c0.261,0.072 0.5,0.108 0.718,0.108c0.485,0 0.838,-0.132 1.059,-0.396c0.222,-0.263 0.332,-0.682 0.332,-1.255l0,-0.039l0,-0.61c-0.143,0.306 -0.338,0.534 -0.585,0.683c-0.248,0.15 -0.549,0.225 -0.904,0.225c-0.638,0 -1.147,-0.255 -1.528,-0.767c-0.381,-0.511 -0.571,-1.194 -0.571,-2.05c0,-0.86 0.19,-1.545 0.571,-2.056c0.381,-0.511 0.89,-0.767 1.528,-0.767c0.352,0 0.65,0.07 0.894,0.21c0.244,0.14 0.442,0.357 0.595,0.65l0,-0.708l0.899,0l0,5.097Z" style="fill:#020000;fill-rule:nonzero;stroke:#000;stroke-width:0.2px;"/>
    </g>
    <g transform="matrix(0.953523,0,0,1.00856,-5.63594,-1.3308)">
        <path d="M37.056,338.139l1.714,-6.46l1.02,0l-2.133,7.29l-1.197,0l-2.133,-7.29l1.02,0l1.709,6.46Z" style="fill:#e6e0e0;fill-rule:nonzero;stroke:#fff;stroke-width:0.2px;"/>
        <path d="M45.737,335.785l0,0.44l-3.891,0l0,0.029c-0.026,0.746 0.116,1.281 0.427,1.607c0.311,0.325 0.75,0.488 1.316,0.488c0.287,0 0.586,-0.046 0.898,-0.137c0.313,-0.091 0.647,-0.229 1.001,-0.415l0,0.894c-0.341,0.14 -0.671,0.245 -0.988,0.315c-0.318,0.07 -0.624,0.105 -0.921,0.105c-0.849,0 -1.513,-0.255 -1.992,-0.765c-0.478,-0.509 -0.718,-1.211 -0.718,-2.106c0,-0.873 0.235,-1.569 0.703,-2.09c0.469,-0.521 1.094,-0.782 1.875,-0.782c0.697,0 1.246,0.236 1.648,0.708c0.402,0.472 0.616,1.042 0.642,1.709Zm-0.898,-0.263c-0.039,-0.378 -0.177,-0.704 -0.413,-0.979c-0.236,-0.275 -0.575,-0.413 -1.018,-0.413c-0.433,0 -0.789,0.143 -1.069,0.43c-0.28,0.286 -0.433,0.609 -0.459,0.967l2.959,-0.005Z" style="fill:#e6e0e0;fill-rule:nonzero;stroke:#fff;stroke-width:0.2px;"/>
        <path d="M52.129,334.628c-0.192,-0.15 -0.387,-0.259 -0.586,-0.327c-0.199,-0.068 -0.417,-0.102 -0.654,-0.102c-0.56,0 -0.988,0.175 -1.285,0.527c-0.296,0.351 -0.444,0.859 -0.444,1.523l0,2.72l-0.903,0l0,-5.469l0.903,0l0,1.07c0.15,-0.388 0.38,-0.685 0.691,-0.892c0.311,-0.206 0.68,-0.31 1.106,-0.31c0.221,0 0.428,0.028 0.62,0.083c0.192,0.056 0.376,0.142 0.552,0.259l0,0.918Z" style="fill:#e6e0e0;fill-rule:nonzero;stroke:#fff;stroke-width:0.2px;"/>
        <path d="M57.461,333.691l0,0.879c-0.257,-0.15 -0.516,-0.262 -0.777,-0.337c-0.26,-0.075 -0.525,-0.113 -0.796,-0.113c-0.406,0 -0.71,0.066 -0.91,0.198c-0.2,0.132 -0.3,0.333 -0.3,0.603c0,0.244 0.074,0.427 0.224,0.547c0.15,0.12 0.523,0.238 1.118,0.352l0.362,0.068c0.446,0.085 0.783,0.254 1.013,0.508c0.229,0.254 0.344,0.584 0.344,0.991c0,0.54 -0.192,0.963 -0.576,1.267c-0.384,0.304 -0.918,0.457 -1.602,0.457c-0.27,0 -0.553,-0.029 -0.849,-0.086c-0.297,-0.057 -0.617,-0.142 -0.962,-0.256l0,-0.928c0.335,0.173 0.656,0.302 0.962,0.388c0.306,0.087 0.595,0.13 0.869,0.13c0.397,0 0.705,-0.081 0.923,-0.242c0.218,-0.161 0.327,-0.387 0.327,-0.676c0,-0.417 -0.399,-0.705 -1.196,-0.865l-0.039,-0.009l-0.337,-0.069c-0.518,-0.101 -0.896,-0.271 -1.133,-0.51c-0.238,-0.239 -0.357,-0.566 -0.357,-0.979c0,-0.524 0.178,-0.928 0.533,-1.213c0.354,-0.285 0.861,-0.428 1.518,-0.428c0.293,0 0.575,0.027 0.845,0.081c0.27,0.054 0.535,0.134 0.796,0.242Z" style="fill:#e6e0e0;fill-rule:nonzero;stroke:#fff;stroke-width:0.2px;"/>
        <path d="M60.473,333.52l2.3,0l0,4.751l1.782,0l0,0.698l-4.463,0l0,-0.698l1.783,0l0,-4.053l-1.402,0l0,-0.698Zm1.402,-2.124l0.898,0l0,1.133l-0.898,0l0,-1.133Z" style="fill:#e6e0e0;fill-rule:nonzero;stroke:#fff;stroke-width:0.2px;"/>
        <path d="M68.159,334.13c-0.456,0 -0.801,0.178 -1.036,0.532c-0.234,0.355 -0.351,0.881 -0.351,1.578c0,0.693 0.117,1.218 0.351,1.574c0.235,0.357 0.58,0.535 1.036,0.535c0.459,0 0.805,-0.178 1.04,-0.535c0.234,-0.356 0.351,-0.881 0.351,-1.574c0,-0.697 -0.117,-1.223 -0.351,-1.578c-0.235,-0.354 -0.581,-0.532 -1.04,-0.532Zm0,-0.762c0.758,0 1.338,0.246 1.74,0.738c0.402,0.491 0.603,1.203 0.603,2.134c0,0.934 -0.2,1.646 -0.6,2.136c-0.401,0.49 -0.982,0.735 -1.743,0.735c-0.759,0 -1.338,-0.245 -1.739,-0.735c-0.4,-0.49 -0.6,-1.202 -0.6,-2.136c0,-0.931 0.2,-1.643 0.6,-2.134c0.401,-0.492 0.98,-0.738 1.739,-0.738Z" style="fill:#e6e0e0;fill-rule:nonzero;stroke:#fff;stroke-width:0.2px;"/>
        <path d="M76.503,335.58l0,3.389l-0.903,0l0,-3.389c0,-0.491 -0.086,-0.853 -0.259,-1.084c-0.173,-0.231 -0.443,-0.346 -0.811,-0.346c-0.419,0 -0.743,0.149 -0.969,0.446c-0.226,0.298 -0.339,0.726 -0.339,1.282l0,3.091l-0.899,0l0,-5.469l0.899,0l0,0.821c0.159,-0.313 0.376,-0.55 0.649,-0.711c0.274,-0.161 0.598,-0.242 0.972,-0.242c0.557,0 0.972,0.184 1.248,0.55c0.275,0.366 0.412,0.92 0.412,1.662Z" style="fill:#e6e0e0;fill-rule:nonzero;stroke:#fff;stroke-width:0.2px;"/>
        <path d="M86.82,331.572c0.778,0 1.366,0.317 1.765,0.952c0.399,0.634 0.598,1.574 0.598,2.817c0,1.244 -0.199,2.183 -0.598,2.817c-0.399,0.635 -0.987,0.953 -1.765,0.953c-0.778,0 -1.365,-0.318 -1.763,-0.953c-0.397,-0.634 -0.595,-1.573 -0.595,-2.817c0,-1.243 0.198,-2.183 0.595,-2.817c0.398,-0.635 0.985,-0.952 1.763,-0.952Zm0,6.757c0.462,0 0.807,-0.245 1.033,-0.737c0.226,-0.491 0.339,-1.242 0.339,-2.251c0,-0.537 -0.032,-1.022 -0.097,-1.455l-2.325,3.638c0.244,0.537 0.594,0.805 1.05,0.805Zm0,-5.976c-0.459,0 -0.801,0.246 -1.028,0.737c-0.226,0.492 -0.339,1.242 -0.339,2.251c0,0.459 0.031,0.889 0.093,1.289l2.275,-3.628c-0.247,-0.433 -0.581,-0.649 -1.001,-0.649Z" style="fill:#e6e0e0;fill-rule:nonzero;stroke:#fff;stroke-width:0.2px;"/>
        <rect x="91.932" y="336.996" width="1.719" height="1.973" style="fill:#e6e0e0;fill-rule:nonzero;stroke:#fff;stroke-width:0.2px;"/>
        <path d="M101.092,331.84l0,0.908c-0.205,-0.12 -0.423,-0.212 -0.654,-0.276c-0.231,-0.063 -0.472,-0.095 -0.723,-0.095c-0.625,0 -1.098,0.235 -1.421,0.706c-0.322,0.47 -0.483,1.163 -0.483,2.077c0.156,-0.325 0.373,-0.575 0.649,-0.749c0.277,-0.174 0.594,-0.261 0.952,-0.261c0.704,0 1.248,0.215 1.634,0.647c0.386,0.431 0.578,1.042 0.578,1.833c0,0.788 -0.198,1.398 -0.595,1.831c-0.397,0.433 -0.956,0.65 -1.675,0.65c-0.846,0 -1.467,-0.304 -1.86,-0.911c-0.394,-0.607 -0.591,-1.563 -0.591,-2.869c0,-1.23 0.237,-2.168 0.71,-2.815c0.474,-0.646 1.16,-0.969 2.058,-0.969c0.241,0 0.482,0.025 0.723,0.076c0.241,0.05 0.474,0.123 0.698,0.217Zm-1.758,3.081c-0.42,0 -0.75,0.152 -0.991,0.454c-0.241,0.303 -0.361,0.721 -0.361,1.255c0,0.534 0.12,0.952 0.361,1.255c0.241,0.303 0.571,0.454 0.991,0.454c0.437,0 0.765,-0.144 0.987,-0.432c0.221,-0.288 0.332,-0.714 0.332,-1.277c0,-0.566 -0.111,-0.993 -0.332,-1.279c-0.222,-0.287 -0.55,-0.43 -0.987,-0.43Z" style="fill:#e6e0e0;fill-rule:nonzero;stroke:#fff;stroke-width:0.2px;"/>
        <rect x="104.373" y="336.996" width="1.719" height="1.973" style="fill:#e6e0e0;fill-rule:nonzero;stroke:#fff;stroke-width:0.2px;"/>
        <path d="M110.013,338.144l1.533,0l0,-5.508l-1.836,0.884l0,-0.947l1.826,-0.87l0.986,0l0,6.441l1.514,0l0,0.825l-4.023,0l0,-0.825Z" style="fill:#e6e0e0;fill-rule:nonzero;stroke:#fff;stroke-width:0.2px;"/>
        <path d="M39.287,350.71c-0.25,0.134 -0.507,0.234 -0.771,0.301c-0.264,0.066 -0.544,0.1 -0.84,0.1c-0.934,0 -1.659,-0.331 -2.175,-0.992c-0.516,-0.66 -0.774,-1.59 -0.774,-2.788c0,-1.191 0.26,-2.12 0.779,-2.785c0.519,-0.666 1.242,-0.999 2.17,-0.999c0.296,0 0.576,0.034 0.84,0.1c0.264,0.067 0.521,0.167 0.771,0.301l0,1.01c-0.24,-0.198 -0.499,-0.35 -0.776,-0.454c-0.277,-0.104 -0.555,-0.156 -0.835,-0.156c-0.641,0 -1.121,0.247 -1.44,0.742c-0.319,0.495 -0.479,1.242 -0.479,2.241c0,0.996 0.16,1.742 0.479,2.237c0.319,0.494 0.799,0.742 1.44,0.742c0.287,0 0.567,-0.052 0.842,-0.156c0.276,-0.105 0.532,-0.256 0.769,-0.455l0,1.011Z" style="fill:#e6e0e0;fill-rule:nonzero;stroke:#fff;stroke-width:0.2px;"/>
        <path d="M43.277,346.13c-0.456,0 -0.801,0.178 -1.036,0.532c-0.234,0.355 -0.351,0.881 -0.351,1.578c0,0.693 0.117,1.218 0.351,1.574c0.235,0.357 0.58,0.535 1.036,0.535c0.459,0 0.805,-0.178 1.04,-0.535c0.234,-0.356 0.351,-0.881 0.351,-1.574c0,-0.697 -0.117,-1.223 -0.351,-1.578c-0.235,-0.354 -0.581,-0.532 -1.04,-0.532Zm0,-0.762c0.758,0 1.338,0.246 1.74,0.738c0.402,0.491 0.603,1.203 0.603,2.134c0,0.934 -0.2,1.646 -0.6,2.136c-0.401,0.49 -0.982,0.735 -1.743,0.735c-0.759,0 -1.338,-0.245 -1.739,-0.735c-0.4,-0.49 -0.6,-1.202 -0.6,-2.136c0,-0.931 0.2,-1.643 0.6,-2.134c0.401,-0.492 0.98,-0.738 1.739,-0.738Z" style="fill:#e6e0e0;fill-rule:nonzero;stroke:#fff;stroke-width:0.2px;"/>
        <path d="M48.32,350.281l0,2.768l-0.903,0l0,-7.549l0.903,0l0,0.699c0.15,-0.271 0.349,-0.477 0.598,-0.618c0.249,-0.142 0.537,-0.213 0.862,-0.213c0.661,0 1.179,0.256 1.555,0.767c0.376,0.511 0.564,1.219 0.564,2.124c0,0.889 -0.188,1.586 -0.566,2.092c-0.378,0.507 -0.895,0.76 -1.553,0.76c-0.332,0 -0.622,-0.071 -0.871,-0.213c-0.249,-0.141 -0.445,-0.347 -0.589,-0.617Zm2.637,-2.041c0,-0.697 -0.11,-1.223 -0.33,-1.578c-0.219,-0.354 -0.546,-0.532 -0.979,-0.532c-0.436,0 -0.766,0.178 -0.991,0.535c-0.224,0.356 -0.337,0.881 -0.337,1.575c0,0.69 0.113,1.214 0.337,1.572c0.225,0.358 0.555,0.537 0.991,0.537c0.433,0 0.76,-0.178 0.979,-0.532c0.22,-0.355 0.33,-0.881 0.33,-1.577Z" style="fill:#e6e0e0;fill-rule:nonzero;stroke:#fff;stroke-width:0.2px;"/>
        <path d="M56.899,349.211c-0.15,0.381 -0.34,0.882 -0.571,1.504c-0.322,0.859 -0.539,1.384 -0.649,1.572c-0.15,0.254 -0.337,0.445 -0.562,0.572c-0.225,0.127 -0.487,0.19 -0.786,0.19l-0.723,0l0,-0.752l0.532,0c0.264,0 0.471,-0.076 0.621,-0.229c0.149,-0.153 0.34,-0.549 0.571,-1.187l-2.114,-5.381l0.952,0l1.621,4.278l1.596,-4.278l0.953,0l-1.441,3.711Z" style="fill:#e6e0e0;fill-rule:nonzero;stroke:#fff;stroke-width:0.2px;"/>
        <path d="M64.57,346.628c-0.192,-0.15 -0.387,-0.259 -0.586,-0.327c-0.199,-0.068 -0.417,-0.102 -0.654,-0.102c-0.56,0 -0.988,0.175 -1.284,0.527c-0.297,0.351 -0.445,0.859 -0.445,1.523l0,2.72l-0.903,0l0,-5.469l0.903,0l0,1.07c0.15,-0.388 0.38,-0.685 0.691,-0.892c0.311,-0.206 0.68,-0.31 1.106,-0.31c0.221,0 0.428,0.028 0.62,0.083c0.192,0.056 0.376,0.142 0.552,0.259l0,0.918Z" style="fill:#e6e0e0;fill-rule:nonzero;stroke:#fff;stroke-width:0.2px;"/>
        <path d="M66.694,345.52l2.3,0l0,4.751l1.782,0l0,0.698l-4.463,0l0,-0.698l1.782,0l0,-4.053l-1.401,0l0,-0.698Zm1.401,-2.124l0.899,0l0,1.133l-0.899,0l0,-1.133Z" style="fill:#e6e0e0;fill-rule:nonzero;stroke:#fff;stroke-width:0.2px;"/>
        <path d="M75.561,348.191c0,-0.674 -0.11,-1.186 -0.33,-1.536c-0.22,-0.35 -0.539,-0.525 -0.959,-0.525c-0.44,0 -0.775,0.175 -1.006,0.525c-0.231,0.35 -0.347,0.862 -0.347,1.536c0,0.674 0.117,1.187 0.349,1.54c0.233,0.353 0.571,0.53 1.013,0.53c0.414,0 0.73,-0.177 0.95,-0.532c0.22,-0.355 0.33,-0.868 0.33,-1.538Zm0.898,2.426c0,0.821 -0.194,1.443 -0.581,1.866c-0.387,0.423 -0.957,0.634 -1.709,0.634c-0.247,0 -0.506,-0.022 -0.776,-0.068c-0.27,-0.045 -0.541,-0.112 -0.811,-0.2l0,-0.889c0.319,0.15 0.609,0.261 0.869,0.332c0.261,0.072 0.5,0.108 0.718,0.108c0.485,0 0.838,-0.132 1.06,-0.396c0.221,-0.263 0.332,-0.682 0.332,-1.255l0,-0.039l0,-0.61c-0.143,0.306 -0.339,0.534 -0.586,0.683c-0.248,0.15 -0.549,0.225 -0.904,0.225c-0.638,0 -1.147,-0.255 -1.528,-0.767c-0.381,-0.511 -0.571,-1.194 -0.571,-2.05c0,-0.86 0.19,-1.545 0.571,-2.056c0.381,-0.511 0.89,-0.767 1.528,-0.767c0.352,0 0.65,0.07 0.894,0.21c0.244,0.14 0.443,0.357 0.596,0.65l0,-0.708l0.898,0l0,5.097Z" style="fill:#e6e0e0;fill-rule:nonzero;stroke:#fff;stroke-width:0.2px;"/>
        <path d="M82.724,347.58l0,3.389l-0.904,0l0,-3.389c0,-0.491 -0.086,-0.853 -0.258,-1.084c-0.173,-0.231 -0.443,-0.346 -0.811,-0.346c-0.42,0 -0.743,0.149 -0.969,0.446c-0.227,0.298 -0.34,0.726 -0.34,1.282l0,3.091l-0.898,0l0,-7.598l0.898,0l0,2.95c0.16,-0.313 0.376,-0.55 0.65,-0.711c0.273,-0.161 0.597,-0.242 0.971,-0.242c0.557,0 0.973,0.184 1.248,0.55c0.275,0.366 0.413,0.92 0.413,1.662Z" style="fill:#e6e0e0;fill-rule:nonzero;stroke:#fff;stroke-width:0.2px;"/>
        <path d="M86.81,343.948l0,1.552l2.041,0l0,0.699l-2.041,0l0,2.968c0,0.404 0.077,0.685 0.23,0.845c0.153,0.159 0.42,0.239 0.801,0.239l1.01,0l0,0.718l-1.098,0c-0.674,0 -1.149,-0.135 -1.426,-0.405c-0.277,-0.27 -0.415,-0.736 -0.415,-1.397l0,-2.968l-1.46,0l0,-0.699l1.46,0l0,-1.552l0.898,0Z" style="fill:#e6e0e0;fill-rule:nonzero;stroke:#fff;stroke-width:0.2px;"/>
        <path d="M98.075,350.139l3.349,0l0,0.83l-4.428,0l0,-0.83c0.608,-0.641 1.14,-1.208 1.596,-1.699c0.456,-0.492 0.77,-0.838 0.943,-1.04c0.325,-0.397 0.545,-0.719 0.659,-0.965c0.114,-0.245 0.171,-0.497 0.171,-0.754c0,-0.407 -0.12,-0.726 -0.359,-0.957c-0.239,-0.231 -0.567,-0.347 -0.984,-0.347c-0.296,0 -0.607,0.054 -0.933,0.161c-0.325,0.108 -0.67,0.271 -1.035,0.489l0,-0.996c0.335,-0.16 0.665,-0.28 0.989,-0.362c0.324,-0.081 0.644,-0.122 0.959,-0.122c0.713,0 1.287,0.19 1.722,0.569c0.434,0.379 0.651,0.876 0.651,1.492c0,0.312 -0.072,0.625 -0.217,0.937c-0.145,0.313 -0.38,0.658 -0.705,1.035c-0.183,0.212 -0.447,0.505 -0.794,0.879c-0.347,0.375 -0.875,0.935 -1.584,1.68Z" style="fill:#e6e0e0;fill-rule:nonzero;stroke:#fff;stroke-width:0.2px;"/>
        <path d="M105.482,343.572c0.778,0 1.366,0.317 1.765,0.952c0.399,0.634 0.598,1.574 0.598,2.817c0,1.244 -0.199,2.183 -0.598,2.817c-0.399,0.635 -0.987,0.953 -1.765,0.953c-0.778,0 -1.366,-0.318 -1.763,-0.953c-0.397,-0.634 -0.596,-1.573 -0.596,-2.817c0,-1.243 0.199,-2.183 0.596,-2.817c0.397,-0.635 0.985,-0.952 1.763,-0.952Zm0,6.757c0.462,0 0.806,-0.245 1.032,-0.737c0.227,-0.491 0.34,-1.242 0.34,-2.251c0,-0.537 -0.033,-1.022 -0.098,-1.455l-2.324,3.638c0.244,0.537 0.594,0.805 1.05,0.805Zm0,-5.976c-0.459,0 -0.802,0.246 -1.028,0.737c-0.226,0.492 -0.34,1.242 -0.34,2.251c0,0.459 0.031,0.889 0.093,1.289l2.276,-3.628c-0.248,-0.433 -0.581,-0.649 -1.001,-0.649Z" style="fill:#e6e0e0;fill-rule:nonzero;stroke:#fff;stroke-width:0.2px;"/>
        <path d="M110.013,350.144l1.533,0l0,-5.508l-1.836,0.884l0,-0.947l1.826,-0.87l0.986,0l0,6.441l1.514,0l0,0.825l-4.023,0l0,-0.825Z" style="fill:#e6e0e0;fill-rule:nonzero;stroke:#fff;stroke-width:0.2px;"/>
        <path d="M115.594,343.679l4.589,0l0,0.42l-2.607,6.87l-1.03,0l2.539,-6.46l-3.491,0l0,-0.83Z" style="fill:#e6e0e0;fill-rule:nonzero;stroke:#fff;stroke-width:0.2px;"/>
        <rect x="121.633" y="347.434" width="5.176" height="0.825" style="fill:#e6e0e0;fill-rule:nonzero;stroke:#fff;stroke-width:0.2px;"/>
        <path d="M129.177,350.139l3.35,0l0,0.83l-4.429,0l0,-0.83c0.609,-0.641 1.141,-1.208 1.597,-1.699c0.455,-0.492 0.77,-0.838 0.942,-1.04c0.326,-0.397 0.545,-0.719 0.659,-0.965c0.114,-0.245 0.171,-0.497 0.171,-0.754c0,-0.407 -0.119,-0.726 -0.359,-0.957c-0.239,-0.231 -0.567,-0.347 -0.984,-0.347c-0.296,0 -0.607,0.054 -0.932,0.161c-0.326,0.108 -0.671,0.271 -1.035,0.489l0,-0.996c0.335,-0.16 0.665,-0.28 0.988,-0.362c0.324,-0.081 0.644,-0.122 0.96,-0.122c0.713,0 1.287,0.19 1.721,0.569c0.435,0.379 0.652,0.876 0.652,1.492c0,0.312 -0.073,0.625 -0.217,0.937c-0.145,0.313 -0.38,0.658 -0.706,1.035c-0.182,0.212 -0.447,0.505 -0.793,0.879c-0.347,0.375 -0.875,0.935 -1.585,1.68Z" style="fill:#e6e0e0;fill-rule:nonzero;stroke:#fff;stroke-width:0.2px;"/>
        <path d="M136.584,343.572c0.778,0 1.367,0.317 1.765,0.952c0.399,0.634 0.598,1.574 0.598,2.817c0,1.244 -0.199,2.183 -0.598,2.817c-0.398,0.635 -0.987,0.953 -1.765,0.953c-0.778,0 -1.365,-0.318 -1.763,-0.953c-0.397,-0.634 -0.595,-1.573 -0.595,-2.817c0,-1.243 0.198,-2.183 0.595,-2.817c0.398,-0.635 0.985,-0.952 1.763,-0.952Zm0,6.757c0.462,0 0.807,-0.245 1.033,-0.737c0.226,-0.491 0.339,-1.242 0.339,-2.251c0,-0.537 -0.032,-1.022 -0.097,-1.455l-2.325,3.638c0.245,0.537 0.594,0.805 1.05,0.805Zm0,-5.976c-0.459,0 -0.801,0.246 -1.028,0.737c-0.226,0.492 -0.339,1.242 -0.339,2.251c0,0.459 0.031,0.889 0.093,1.289l2.275,-3.628c-0.247,-0.433 -0.581,-0.649 -1.001,-0.649Z" style="fill:#e6e0e0;fill-rule:nonzero;stroke:#fff;stroke-width:0.2px;"/>
        <path d="M141.115,350.144l1.533,0l0,-5.508l-1.836,0.884l0,-0.947l1.827,-0.87l0.986,0l0,6.441l1.514,0l0,0.825l-4.024,0l0,-0.825Z" style="fill:#e6e0e0;fill-rule:nonzero;stroke:#fff;stroke-width:0.2px;"/>
        <path d="M149.025,347.507c-0.439,0 -0.779,0.123 -1.018,0.369c-0.239,0.246 -0.359,0.593 -0.359,1.042c0,0.449 0.121,0.799 0.364,1.048c0.243,0.249 0.58,0.373 1.013,0.373c0.443,0 0.784,-0.123 1.023,-0.369c0.239,-0.245 0.359,-0.596 0.359,-1.052c0,-0.446 -0.121,-0.792 -0.364,-1.04c-0.242,-0.247 -0.582,-0.371 -1.018,-0.371Zm-0.859,-0.41c-0.42,-0.107 -0.748,-0.308 -0.984,-0.601c-0.236,-0.293 -0.354,-0.646 -0.354,-1.059c0,-0.58 0.197,-1.039 0.591,-1.38c0.394,-0.34 0.929,-0.51 1.606,-0.51c0.681,0 1.218,0.17 1.612,0.51c0.393,0.341 0.59,0.8 0.59,1.38c0,0.413 -0.118,0.766 -0.354,1.059c-0.236,0.293 -0.564,0.494 -0.984,0.601c0.489,0.107 0.862,0.324 1.121,0.649c0.259,0.326 0.388,0.747 0.388,1.265c0,0.658 -0.21,1.172 -0.63,1.543c-0.42,0.371 -1.001,0.557 -1.743,0.557c-0.742,0 -1.322,-0.185 -1.741,-0.555c-0.418,-0.369 -0.627,-0.881 -0.627,-1.535c0,-0.521 0.129,-0.945 0.388,-1.272c0.259,-0.327 0.633,-0.545 1.121,-0.652Zm-0.357,-1.567c0,0.39 0.105,0.688 0.313,0.893c0.208,0.205 0.509,0.308 0.903,0.308c0.397,0 0.7,-0.103 0.908,-0.308c0.209,-0.205 0.313,-0.503 0.313,-0.893c0,-0.398 -0.103,-0.7 -0.31,-0.909c-0.207,-0.208 -0.51,-0.312 -0.911,-0.312c-0.394,0 -0.695,0.105 -0.903,0.315c-0.208,0.21 -0.313,0.512 -0.313,0.906Z" style="fill:#e6e0e0;fill-rule:nonzero;stroke:#fff;stroke-width:0.2px;"/>
        <path d="M160.407,344.49l0,2.739l1.142,0c0.456,0 0.812,-0.121 1.067,-0.362c0.256,-0.24 0.383,-0.577 0.383,-1.01c0,-0.433 -0.127,-0.769 -0.38,-1.009c-0.254,-0.239 -0.611,-0.358 -1.07,-0.358l-1.142,0Zm-0.987,-0.811l2.129,0c0.814,0 1.431,0.185 1.851,0.554c0.42,0.37 0.63,0.911 0.63,1.624c0,0.719 -0.209,1.263 -0.628,1.631c-0.418,0.367 -1.036,0.551 -1.853,0.551l-1.142,0l0,2.93l-0.987,0l0,-7.29Z" style="fill:#e6e0e0;fill-rule:nonzero;stroke:#fff;stroke-width:0.2px;"/>
        <path d="M168.107,348.22l-0.298,0c-0.524,0 -0.919,0.092 -1.184,0.276c-0.266,0.184 -0.398,0.458 -0.398,0.823c0,0.328 0.099,0.584 0.298,0.766c0.198,0.183 0.473,0.274 0.825,0.274c0.495,0 0.884,-0.172 1.167,-0.515c0.283,-0.344 0.426,-0.818 0.429,-1.424l0,-0.2l-0.839,0Zm1.743,-0.371l0,3.12l-0.904,0l0,-0.811c-0.192,0.326 -0.433,0.566 -0.725,0.721c-0.291,0.154 -0.645,0.232 -1.062,0.232c-0.556,0 -1.001,-0.157 -1.333,-0.472c-0.332,-0.314 -0.498,-0.734 -0.498,-1.262c0,-0.608 0.205,-1.071 0.613,-1.386c0.409,-0.316 1.008,-0.474 1.799,-0.474l1.206,0l0,-0.142c-0.003,-0.436 -0.113,-0.752 -0.332,-0.949c-0.218,-0.197 -0.566,-0.296 -1.044,-0.296c-0.306,0 -0.616,0.044 -0.928,0.132c-0.313,0.088 -0.617,0.216 -0.913,0.386l0,-0.899c0.332,-0.127 0.65,-0.222 0.954,-0.285c0.305,-0.064 0.6,-0.096 0.887,-0.096c0.452,0 0.839,0.067 1.159,0.201c0.321,0.133 0.58,0.333 0.779,0.6c0.124,0.163 0.212,0.364 0.264,0.603c0.052,0.24 0.078,0.598 0.078,1.077Z" style="fill:#e6e0e0;fill-rule:nonzero;stroke:#fff;stroke-width:0.2px;"/>
        <path d="M173.897,343.948l0,1.552l2.041,0l0,0.699l-2.041,0l0,2.968c0,0.404 0.077,0.685 0.23,0.845c0.153,0.159 0.42,0.239 0.801,0.239l1.01,0l0,0.718l-1.098,0c-0.674,0 -1.149,-0.135 -1.426,-0.405c-0.277,-0.27 -0.415,-0.736 -0.415,-1.397l0,-2.968l-1.46,0l0,-0.699l1.46,0l0,-1.552l0.898,0Z" style="fill:#e6e0e0;fill-rule:nonzero;stroke:#fff;stroke-width:0.2px;"/>
        <path d="M182.76,346.628c-0.192,-0.15 -0.388,-0.259 -0.586,-0.327c-0.199,-0.068 -0.417,-0.102 -0.655,-0.102c-0.56,0 -0.988,0.175 -1.284,0.527c-0.296,0.351 -0.444,0.859 -0.444,1.523l0,2.72l-0.904,0l0,-5.469l0.904,0l0,1.07c0.15,-0.388 0.38,-0.685 0.691,-0.892c0.311,-0.206 0.679,-0.31 1.106,-0.31c0.221,0 0.428,0.028 0.62,0.083c0.192,0.056 0.376,0.142 0.552,0.259l0,0.918Z" style="fill:#e6e0e0;fill-rule:nonzero;stroke:#fff;stroke-width:0.2px;"/>
        <path d="M184.883,345.52l2.3,0l0,4.751l1.782,0l0,0.698l-4.462,0l0,-0.698l1.782,0l0,-4.053l-1.402,0l0,-0.698Zm1.402,-2.124l0.898,0l0,1.133l-0.898,0l0,-1.133Z" style="fill:#e6e0e0;fill-rule:nonzero;stroke:#fff;stroke-width:0.2px;"/>
        <path d="M194.742,350.691c-0.241,0.14 -0.489,0.245 -0.745,0.315c-0.256,0.07 -0.517,0.105 -0.784,0.105c-0.846,0 -1.508,-0.254 -1.985,-0.762c-0.476,-0.508 -0.715,-1.211 -0.715,-2.109c0,-0.899 0.239,-1.602 0.715,-2.11c0.477,-0.508 1.139,-0.762 1.985,-0.762c0.264,0 0.521,0.035 0.772,0.103c0.25,0.068 0.503,0.174 0.757,0.317l0,0.943c-0.238,-0.212 -0.476,-0.365 -0.716,-0.459c-0.239,-0.095 -0.51,-0.142 -0.813,-0.142c-0.563,0 -0.996,0.182 -1.299,0.547c-0.302,0.365 -0.454,0.885 -0.454,1.563c0,0.673 0.153,1.193 0.457,1.56c0.304,0.366 0.736,0.549 1.296,0.549c0.313,0 0.593,-0.048 0.84,-0.144c0.248,-0.096 0.477,-0.245 0.689,-0.447l0,0.933Z" style="fill:#e6e0e0;fill-rule:nonzero;stroke:#fff;stroke-width:0.2px;"/>
        <path d="M196.934,343.371l0.928,0l0,4.4l2.358,-2.271l1.094,0l-2.154,2.061l2.491,3.408l-1.099,0l-2.022,-2.822l-0.668,0.63l0,2.192l-0.928,0l0,-7.598Z" style="fill:#e6e0e0;fill-rule:nonzero;stroke:#fff;stroke-width:0.2px;"/>
        <path d="M209.272,343.679l0.991,0l0,6.46l3.521,0l0,0.83l-4.512,0l0,-7.29Z" style="fill:#e6e0e0;fill-rule:nonzero;stroke:#fff;stroke-width:0.2px;"/>
        <path d="M215.986,345.52l2.3,0l0,4.751l1.782,0l0,0.698l-4.463,0l0,-0.698l1.782,0l0,-4.053l-1.401,0l0,-0.698Zm1.401,-2.124l0.899,0l0,1.133l-0.899,0l0,-1.133Z" style="fill:#e6e0e0;fill-rule:nonzero;stroke:#fff;stroke-width:0.2px;"/>
        <path d="M225.795,347.58l0,3.389l-0.903,0l0,-3.389c0,-0.491 -0.086,-0.853 -0.259,-1.084c-0.172,-0.231 -0.443,-0.346 -0.81,-0.346c-0.42,0 -0.743,0.149 -0.97,0.446c-0.226,0.298 -0.339,0.726 -0.339,1.282l0,3.091l-0.898,0l0,-5.469l0.898,0l0,0.821c0.16,-0.313 0.376,-0.55 0.649,-0.711c0.274,-0.161 0.598,-0.242 0.972,-0.242c0.557,0 0.973,0.184 1.248,0.55c0.275,0.366 0.412,0.92 0.412,1.662Z" style="fill:#e6e0e0;fill-rule:nonzero;stroke:#fff;stroke-width:0.2px;"/>
        <path d="M231.073,346.199l0,-2.828l0.899,0l0,7.598l-0.899,0l0,-0.688c-0.149,0.27 -0.349,0.476 -0.598,0.617c-0.249,0.142 -0.536,0.213 -0.862,0.213c-0.66,0 -1.18,-0.257 -1.56,-0.769c-0.379,-0.513 -0.568,-1.22 -0.568,-2.122c0,-0.889 0.19,-1.586 0.571,-2.092c0.381,-0.506 0.9,-0.76 1.557,-0.76c0.329,0 0.619,0.071 0.87,0.213c0.25,0.141 0.447,0.347 0.59,0.618Zm-2.641,2.041c0,0.696 0.111,1.222 0.332,1.577c0.221,0.354 0.548,0.532 0.981,0.532c0.433,0 0.763,-0.179 0.989,-0.537c0.226,-0.358 0.339,-0.882 0.339,-1.572c0,-0.694 -0.113,-1.219 -0.339,-1.575c-0.226,-0.357 -0.556,-0.535 -0.989,-0.535c-0.433,0 -0.76,0.178 -0.981,0.532c-0.221,0.355 -0.332,0.881 -0.332,1.578Z" style="fill:#e6e0e0;fill-rule:nonzero;stroke:#fff;stroke-width:0.2px;"/>
        <path d="M238.573,347.785l0,0.44l-3.891,0l0,0.029c-0.026,0.746 0.116,1.281 0.427,1.607c0.311,0.325 0.749,0.488 1.316,0.488c0.286,0 0.586,-0.046 0.898,-0.137c0.313,-0.091 0.646,-0.229 1.001,-0.415l0,0.894c-0.342,0.14 -0.671,0.245 -0.989,0.315c-0.317,0.07 -0.624,0.105 -0.92,0.105c-0.85,0 -1.514,-0.255 -1.992,-0.765c-0.479,-0.509 -0.718,-1.211 -0.718,-2.106c0,-0.873 0.234,-1.569 0.703,-2.09c0.469,-0.521 1.094,-0.782 1.875,-0.782c0.697,0 1.246,0.236 1.648,0.708c0.402,0.472 0.616,1.042 0.642,1.709Zm-0.898,-0.263c-0.039,-0.378 -0.177,-0.704 -0.413,-0.979c-0.236,-0.275 -0.575,-0.413 -1.018,-0.413c-0.433,0 -0.789,0.143 -1.069,0.43c-0.28,0.286 -0.433,0.609 -0.459,0.967l2.959,-0.005Z" style="fill:#e6e0e0;fill-rule:nonzero;stroke:#fff;stroke-width:0.2px;"/>
        <path d="M244.457,347.58l0,3.389l-0.903,0l0,-3.389c0,-0.491 -0.087,-0.853 -0.259,-1.084c-0.173,-0.231 -0.443,-0.346 -0.811,-0.346c-0.42,0 -0.743,0.149 -0.969,0.446c-0.226,0.298 -0.339,0.726 -0.339,1.282l0,3.091l-0.899,0l0,-5.469l0.899,0l0,0.821c0.159,-0.313 0.376,-0.55 0.649,-0.711c0.273,-0.161 0.597,-0.242 0.972,-0.242c0.556,0 0.972,0.184 1.247,0.55c0.275,0.366 0.413,0.92 0.413,1.662Z" style="fill:#e6e0e0;fill-rule:nonzero;stroke:#fff;stroke-width:0.2px;"/>
        <path d="M250.028,348.24c0,-0.697 -0.111,-1.223 -0.332,-1.578c-0.221,-0.354 -0.549,-0.532 -0.982,-0.532c-0.436,0 -0.766,0.178 -0.991,0.535c-0.224,0.356 -0.337,0.881 -0.337,1.575c0,0.69 0.113,1.214 0.337,1.572c0.225,0.358 0.555,0.537 0.991,0.537c0.433,0 0.761,-0.178 0.982,-0.532c0.221,-0.355 0.332,-0.881 0.332,-1.577Zm-2.642,-2.041c0.144,-0.267 0.341,-0.472 0.594,-0.616c0.252,-0.143 0.544,-0.215 0.876,-0.215c0.658,0 1.175,0.254 1.553,0.76c0.377,0.506 0.566,1.203 0.566,2.092c0,0.902 -0.189,1.609 -0.569,2.122c-0.379,0.512 -0.899,0.769 -1.56,0.769c-0.325,0 -0.613,-0.071 -0.862,-0.213c-0.249,-0.141 -0.448,-0.347 -0.598,-0.617l0,0.688l-0.898,0l0,-7.598l0.898,0l0,2.828Z" style="fill:#e6e0e0;fill-rule:nonzero;stroke:#fff;stroke-width:0.2px;"/>
        <path d="M257.235,347.785l0,0.44l-3.892,0l0,0.029c-0.026,0.746 0.117,1.281 0.427,1.607c0.311,0.325 0.75,0.488 1.316,0.488c0.287,0 0.586,-0.046 0.899,-0.137c0.312,-0.091 0.646,-0.229 1.001,-0.415l0,0.894c-0.342,0.14 -0.672,0.245 -0.989,0.315c-0.317,0.07 -0.624,0.105 -0.92,0.105c-0.85,0 -1.514,-0.255 -1.993,-0.765c-0.478,-0.509 -0.717,-1.211 -0.717,-2.106c0,-0.873 0.234,-1.569 0.703,-2.09c0.468,-0.521 1.093,-0.782 1.875,-0.782c0.696,0 1.246,0.236 1.648,0.708c0.402,0.472 0.616,1.042 0.642,1.709Zm-0.899,-0.263c-0.039,-0.378 -0.176,-0.704 -0.412,-0.979c-0.236,-0.275 -0.576,-0.413 -1.018,-0.413c-0.433,0 -0.79,0.143 -1.07,0.43c-0.28,0.286 -0.433,0.609 -0.459,0.967l2.959,-0.005Z" style="fill:#e6e0e0;fill-rule:nonzero;stroke:#fff;stroke-width:0.2px;"/>
        <path d="M263.626,346.628c-0.192,-0.15 -0.387,-0.259 -0.586,-0.327c-0.198,-0.068 -0.416,-0.102 -0.654,-0.102c-0.56,0 -0.988,0.175 -1.284,0.527c-0.296,0.351 -0.445,0.859 -0.445,1.523l0,2.72l-0.903,0l0,-5.469l0.903,0l0,1.07c0.15,-0.388 0.38,-0.685 0.691,-0.892c0.311,-0.206 0.68,-0.31 1.106,-0.31c0.222,0 0.428,0.028 0.62,0.083c0.192,0.056 0.376,0.142 0.552,0.259l0,0.918Z" style="fill:#e6e0e0;fill-rule:nonzero;stroke:#fff;stroke-width:0.2px;"/>
        <path d="M268.396,348.191c0,-0.674 -0.109,-1.186 -0.329,-1.536c-0.22,-0.35 -0.54,-0.525 -0.96,-0.525c-0.439,0 -0.774,0.175 -1.005,0.525c-0.232,0.35 -0.347,0.862 -0.347,1.536c0,0.674 0.116,1.187 0.349,1.54c0.233,0.353 0.57,0.53 1.013,0.53c0.414,0 0.73,-0.177 0.95,-0.532c0.22,-0.355 0.329,-0.868 0.329,-1.538Zm0.899,2.426c0,0.821 -0.194,1.443 -0.581,1.866c-0.388,0.423 -0.957,0.634 -1.709,0.634c-0.248,0 -0.506,-0.022 -0.776,-0.068c-0.271,-0.045 -0.541,-0.112 -0.811,-0.2l0,-0.889c0.319,0.15 0.609,0.261 0.869,0.332c0.261,0.072 0.5,0.108 0.718,0.108c0.485,0 0.838,-0.132 1.059,-0.396c0.222,-0.263 0.332,-0.682 0.332,-1.255l0,-0.039l0,-0.61c-0.143,0.306 -0.338,0.534 -0.585,0.683c-0.248,0.15 -0.549,0.225 -0.904,0.225c-0.638,0 -1.147,-0.255 -1.528,-0.767c-0.381,-0.511 -0.571,-1.194 -0.571,-2.05c0,-0.86 0.19,-1.545 0.571,-2.056c0.381,-0.511 0.89,-0.767 1.528,-0.767c0.352,0 0.65,0.07 0.894,0.21c0.244,0.14 0.442,0.357 0.595,0.65l0,-0.708l0.899,0l0,5.097Z" style="fill:#e6e0e0;fill-rule:nonzero;stroke:#fff;stroke-width:0.2px;"/>
    </g>
    <g id="Lady" transform="matrix(1,0,0,1,5.59709,9.51146)">
        <g transform="matrix(1,0,0,1,5,5)">
            <path d="M232.321,164.268c-0.551,-1.407 -1.25,-2.487 -1.733,-4.267l0.016,0c-0.034,0 -0.056,-0.074 -0.088,-0.149c-0.062,-0.193 -0.122,-0.353 -0.173,-0.548c-0.097,-0.365 -0.189,-0.759 -0.253,-1.179c-0.043,-2.08 1.872,-2.792 1.946,-5.183c0.081,-2.573 -1.476,-3.898 -1.946,-4.241c-0.02,-0.028 -0.037,-0.054 -0.056,-0.082c0.012,-0.037 0.02,-0.068 0.031,-0.104c2.993,-2.433 1.69,-5.738 1.69,-5.738c-0.636,-0.338 -1.313,-0.55 -1.797,-0.98c-4.337,-3.863 -4.606,-6.636 -1.196,-11.288c0.866,-1.185 1.746,-2.375 2.467,-3.649c1.761,-3.117 1.359,-4.599 -1.81,-6.367c-2.28,-1.271 -4.743,-2.218 -6.988,-3.545c-6.396,-3.778 -11.834,-8.521 -15.061,-15.174c2.171,-3.872 2.171,-3.872 1.304,-6.341c-0.791,0.865 -1.527,1.672 -2.688,2.944c0,-3.049 0.294,-5.379 -0.083,-7.595c-0.367,-2.156 -0.85,-4.792 -2.281,-6.178c-5.217,-5.045 -8.175,-11.292 -10.92,-17.796c-2.029,-4.806 -4.196,-9.66 -8.171,-13.236c-2,-1.8 -4.474,-3.072 -6.742,-4.587c0,-1.354 0.017,-2.653 -0.006,-3.951c-0.019,-1.297 0.038,-2.61 -0.136,-3.89c-0.702,-5.113 -4.34,-7.564 -9.404,-6.548c-3.181,0.638 -6.385,1.238 -9.605,1.563c-1.888,0.19 -3.584,0.128 -3.225,-3.432c1.62,0 3.162,0 5.368,0c-1.104,0 -1.515,-1.544 -2.067,-1.769c-2.208,-0.892 -4.045,-0.36 -5.099,1.396c-1.25,2.077 0.023,3.586 1.504,4.555c1.273,0.832 3.004,1.441 4.492,1.365c3.234,-0.167 6.436,-0.842 9.658,-1.296c2.8,-0.394 4.451,0.587 5.01,3.266c0.266,1.278 0.047,2.658 0.047,3.561c-3.72,-1.383 -6.953,-3.369 -10.347,-3.69c-7.432,-0.706 -14.956,-0.912 -22.413,-0.611c-3.084,0.124 -6.484,1.511 -9.049,3.309c-4.547,3.188 -9.441,5.039 -14.773,6.138c-2.549,0.526 -5.106,1.149 -7.55,2.03c-4.689,1.689 -8.626,4.342 -11.53,8.63c-1.595,2.354 -3.836,4.445 -6.188,6.076c-4.591,3.184 -9.001,6.424 -12.144,11.187c-1.712,2.596 -4.124,4.212 -7.839,3.113c-1.104,-4.244 -4.87,-4.911 -8.627,-5.423c-1.764,-0.242 -3.625,-0.32 -5.373,-0.04c-10.247,1.643 -19.554,5.56 -26.813,13.074c-6.565,6.797 -5.937,10.365 -2.739,16.202c2.063,3.766 2.131,7.435 -0.279,11.089c-1.874,2.842 -2.57,6.013 -2.071,9.354c1.284,8.609 4.072,16.22 13.409,19.251c0.615,0.198 1.156,0.607 1.748,0.881c2.125,0.984 3.145,2.592 3.365,4.971c0.144,1.54 0.491,3.357 1.429,4.479c6.245,7.454 20.432,8.503 25.041,-1.951c0.189,-0.432 0.624,-0.756 0.945,-1.129c0.305,0.134 0.609,0.266 0.914,0.399c-0.27,1.348 -0.539,2.694 -0.81,4.042c-0.351,1.75 -1.204,3.572 -0.961,5.235c0.915,6.264 1.484,12.716 3.503,18.648c2.452,7.204 8.53,14.587 18.762,13.197c3.549,-0.483 6.782,0.391 9.818,2.234c1.254,0.76 2.657,1.272 3.912,2.027c3.221,1.943 6.497,1.898 9.857,0.464c2.024,-0.863 4.052,-1.726 6.331,-2.698c-1.16,4.041 -2.278,7.594 -3.189,11.197c-1.336,5.287 -3.631,9.452 -9.941,9.48c-0.115,0 -0.228,0.204 -0.481,0.441c0.473,1.385 0.975,2.855 1.446,4.234c-3.43,5.076 -9.388,5.288 -13.951,7.881c8.949,0.082 15.39,-4.254 16.179,-10.562c4.91,-1.582 7.805,-5.034 9.233,-9.921c0.777,-2.659 1.611,-5.32 2.672,-7.879c1.746,-4.209 4.792,-6.719 9.406,-6.833c-0.302,3.22 -0.579,6.169 -0.855,9.113c-6.687,1.486 -6.819,1.649 -6.534,8.315c-1.583,1.269 -3.238,2.596 -5.685,4.557c6.226,-1.428 7.436,-2.953 8.025,-9.211c0.938,-0.325 1.962,-0.799 3.039,-1.035c4.009,-0.875 4.11,-0.859 3.682,-5.037c-0.251,-2.445 0.739,-3.996 3.163,-5.664c0.451,1.766 0.892,3.088 1.115,4.445c0.316,1.923 0.547,3.867 0.687,5.81c0.517,7.404 -0.06,14.643 -3.457,21.43c-4.159,8.313 -8.334,16.622 -12.413,24.973c-1.174,2.404 -2.482,4.234 -5.172,5.433c-4.265,1.907 -7.421,6.556 -7.757,10.832c15.258,2.949 26.312,6.953 41.04,18.833c9.647,7.785 19.862,11.309 29.399,12.456c0.003,-0.004 10.248,-13.711 19.753,-32.558c-0.241,-0.365 -0.484,-0.728 -0.723,-1.095c-6.25,-9.478 -11.533,-18.592 -13.049,-22.521c-2.853,-7.395 -3.838,-14.659 -2.132,-22.466c1.983,-9.083 3.633,-18.206 7.761,-26.672c2.412,-4.95 6.15,-7.711 11.519,-8.858c6.366,-1.36 12.689,-3.037 18.94,-4.868c6.706,-1.966 9.308,-7.753 6.747,-14.275Z" style="fill-opacity:0.215686;fill-rule:nonzero;"/>
        </g>
        <path d="M232.321,164.268c-0.551,-1.407 -1.25,-2.487 -1.733,-4.267l0.016,0c-0.034,0 -0.056,-0.074 -0.088,-0.149c-0.062,-0.193 -0.122,-0.353 -0.173,-0.548c-0.097,-0.365 -0.189,-0.759 -0.253,-1.179c-0.043,-2.08 1.872,-2.792 1.946,-5.183c0.081,-2.573 -1.476,-3.898 -1.946,-4.241c-0.02,-0.028 -0.037,-0.054 -0.056,-0.082c0.012,-0.037 0.02,-0.068 0.031,-0.104c2.993,-2.433 1.69,-5.738 1.69,-5.738c-0.636,-0.338 -1.313,-0.55 -1.797,-0.98c-4.337,-3.863 -4.606,-6.636 -1.196,-11.288c0.866,-1.185 1.746,-2.375 2.467,-3.649c1.761,-3.117 1.359,-4.599 -1.81,-6.367c-2.28,-1.271 -4.743,-2.218 -6.988,-3.545c-6.396,-3.778 -11.834,-8.521 -15.061,-15.174c2.171,-3.872 2.171,-3.872 1.304,-6.341c-0.791,0.865 -1.527,1.672 -2.688,2.944c0,-3.049 0.294,-5.379 -0.083,-7.595c-0.367,-2.156 -0.85,-4.792 -2.281,-6.178c-5.217,-5.045 -8.175,-11.292 -10.92,-17.796c-2.029,-4.806 -4.196,-9.66 -8.171,-13.236c-2,-1.8 -4.474,-3.072 -6.742,-4.587c0,-1.354 0.017,-2.653 -0.006,-3.951c-0.019,-1.297 0.038,-2.61 -0.136,-3.89c-0.702,-5.113 -4.34,-7.564 -9.404,-6.548c-3.181,0.638 -6.385,1.238 -9.605,1.563c-1.888,0.19 -3.584,0.128 -3.225,-3.432c1.62,0 3.162,0 5.368,0c-1.104,0 -1.515,-1.544 -2.067,-1.769c-2.208,-0.892 -4.045,-0.36 -5.099,1.396c-1.25,2.077 0.023,3.586 1.504,4.555c1.273,0.832 3.004,1.441 4.492,1.365c3.234,-0.167 6.436,-0.842 9.658,-1.296c2.8,-0.394 4.451,0.587 5.01,3.266c0.266,1.278 0.047,2.658 0.047,3.561c-3.72,-1.383 -6.953,-3.369 -10.347,-3.69c-7.432,-0.706 -14.956,-0.912 -22.413,-0.611c-3.084,0.124 -6.484,1.511 -9.049,3.309c-4.547,3.188 -9.441,5.039 -14.773,6.138c-2.549,0.526 -5.106,1.149 -7.55,2.03c-4.689,1.689 -8.626,4.342 -11.53,8.63c-1.595,2.354 -3.836,4.445 -6.188,6.076c-4.591,3.184 -9.001,6.424 -12.144,11.187c-1.712,2.596 -4.124,4.212 -7.839,3.113c-1.104,-4.244 -4.87,-4.911 -8.627,-5.423c-1.764,-0.242 -3.625,-0.32 -5.373,-0.04c-10.247,1.643 -19.554,5.56 -26.813,13.074c-6.565,6.797 -5.937,10.365 -2.739,16.202c2.063,3.766 2.131,7.435 -0.279,11.089c-1.874,2.842 -2.57,6.013 -2.071,9.354c1.284,8.609 4.072,16.22 13.409,19.251c0.615,0.198 1.156,0.607 1.748,0.881c2.125,0.984 3.145,2.592 3.365,4.971c0.144,1.54 0.491,3.357 1.429,4.479c6.245,7.454 20.432,8.503 25.041,-1.951c0.189,-0.432 0.624,-0.756 0.945,-1.129c0.305,0.134 0.609,0.266 0.914,0.399c-0.27,1.348 -0.539,2.694 -0.81,4.042c-0.351,1.75 -1.204,3.572 -0.961,5.235c0.915,6.264 1.484,12.716 3.503,18.648c2.452,7.204 8.53,14.587 18.762,13.197c3.549,-0.483 6.782,0.391 9.818,2.234c1.254,0.76 2.657,1.272 3.912,2.027c3.221,1.943 6.497,1.898 9.857,0.464c2.024,-0.863 4.052,-1.726 6.331,-2.698c-1.16,4.041 -2.278,7.594 -3.189,11.197c-1.336,5.287 -3.631,9.452 -9.941,9.48c-0.115,0 -0.228,0.204 -0.481,0.441c0.473,1.385 0.975,2.855 1.446,4.234c-3.43,5.076 -9.388,5.288 -13.951,7.881c8.949,0.082 15.39,-4.254 16.179,-10.562c4.91,-1.582 7.805,-5.034 9.233,-9.921c0.777,-2.659 1.611,-5.32 2.672,-7.879c1.746,-4.209 4.792,-6.719 9.406,-6.833c-0.302,3.22 -0.579,6.169 -0.855,9.113c-6.687,1.486 -6.819,1.649 -6.534,8.315c-1.583,1.269 -3.238,2.596 -5.685,4.557c6.226,-1.428 7.436,-2.953 8.025,-9.211c0.938,-0.325 1.962,-0.799 3.039,-1.035c4.009,-0.875 4.11,-0.859 3.682,-5.037c-0.251,-2.445 0.739,-3.996 3.163,-5.664c0.451,1.766 0.892,3.088 1.115,4.445c0.316,1.923 0.547,3.867 0.687,5.81c0.517,7.404 -0.06,14.643 -3.457,21.43c-4.159,8.313 -8.334,16.622 -12.413,24.973c-1.174,2.404 -2.482,4.234 -5.172,5.433c-4.265,1.907 -7.421,6.556 -7.757,10.832c15.258,2.949 26.312,6.953 41.04,18.833c9.647,7.785 19.862,11.309 29.399,12.456c0.003,-0.004 10.248,-13.711 19.753,-32.558c-0.241,-0.365 -0.484,-0.728 -0.723,-1.095c-6.25,-9.478 -11.533,-18.592 -13.049,-22.521c-2.853,-7.395 -3.838,-14.659 -2.132,-22.466c1.983,-9.083 3.633,-18.206 7.761,-26.672c2.412,-4.95 6.15,-7.711 11.519,-8.858c6.366,-1.36 12.689,-3.037 18.94,-4.868c6.706,-1.966 9.308,-7.753 6.747,-14.275Z" style="fill:#921233;fill-rule:nonzero;"/>
    </g>
    <g id="Logo" transform="matrix(1,0,0,1,0,-2)">
        <g transform="matrix(1,0,0,1,6.90649,-13.7511)">
            <path d="M21.739,317.971l2.774,0l0,6.455l6.164,0l0,2.209l-8.938,0l0,-8.664Z" style="fill-opacity:0.721569;fill-rule:nonzero;"/>
            <rect x="31.28" y="317.971" width="2.774" height="8.665" style="fill-opacity:0.721569;fill-rule:nonzero;"/>
            <path d="M35.266,317.971l4.627,0l4.539,6.461l0.273,0l-0.064,-6.461l2.685,0l0,8.664l-4.589,0l-4.558,-6.468l-0.285,0l0.057,6.468l-2.685,0l0,-8.664Z" style="fill-opacity:0.721569;fill-rule:nonzero;"/>
            <path d="M48.539,326.635l0,-8.664l6.252,0c1.359,0 2.237,0.023 2.635,0.069c0.77,0.089 1.337,0.29 1.701,0.603c0.389,0.339 0.645,0.885 0.768,1.638c0.059,0.36 0.089,0.988 0.089,1.885c0,1.147 -0.051,1.945 -0.153,2.393c-0.139,0.61 -0.368,1.058 -0.685,1.346c-0.216,0.199 -0.478,0.349 -0.787,0.451c-0.309,0.101 -0.726,0.175 -1.251,0.222c-0.415,0.038 -1.185,0.057 -2.31,0.057l-6.259,0Zm2.602,-2.209l3.676,0c0.744,0 1.301,-0.03 1.669,-0.089c0.411,-0.067 0.669,-0.294 0.774,-0.679c0.081,-0.279 0.121,-0.719 0.121,-1.32c0,-0.643 -0.042,-1.115 -0.127,-1.416c-0.101,-0.376 -0.334,-0.605 -0.698,-0.685c-0.288,-0.068 -0.876,-0.102 -1.765,-0.102l-3.65,0l0,4.291Z" style="fill-opacity:0.721569;fill-rule:nonzero;"/>
            <path d="M61.025,317.971l9.597,0l0,2.037l-6.995,0l0,1.251l6.64,0l0,1.904l-6.64,0l0,1.39l7.046,0l0,2.082l-9.648,0l0,-8.664Z" style="fill-opacity:0.721569;fill-rule:nonzero;"/>
            <path d="M71.498,317.971l4.628,0l4.538,6.461l0.273,0l-0.063,-6.461l2.685,0l0,8.664l-4.59,0l-4.557,-6.468l-0.286,0l0.057,6.468l-2.685,0l0,-8.664Z" style="fill-opacity:0.721569;fill-rule:nonzero;"/>
            <path d="M84.771,326.635l0,-8.664l6.227,0c1.325,0.004 2.112,0.014 2.362,0.031c0.567,0.034 0.984,0.136 1.25,0.305c0.305,0.195 0.504,0.463 0.597,0.806c0.084,0.326 0.127,0.694 0.127,1.105c0,0.507 -0.049,0.89 -0.146,1.149c-0.161,0.418 -0.502,0.704 -1.022,0.856c0.385,0.068 0.671,0.166 0.857,0.292c0.423,0.284 0.634,0.881 0.634,1.791c0,0.706 -0.11,1.229 -0.33,1.567c-0.194,0.297 -0.49,0.5 -0.888,0.61c-0.339,0.089 -0.906,0.135 -1.701,0.139l-1.721,0.013l-6.246,0Zm2.514,-5.249l3.72,0c0.816,0 1.303,-0.032 1.46,-0.096c0.207,-0.08 0.311,-0.287 0.311,-0.622c0,-0.342 -0.125,-0.548 -0.375,-0.615c-0.097,-0.026 -0.563,-0.041 -1.396,-0.045l-3.72,0l0,1.378Zm0,3.167l3.732,0c0.694,-0.004 1.103,-0.008 1.225,-0.013c0.386,-0.017 0.631,-0.093 0.737,-0.228c0.08,-0.11 0.12,-0.279 0.12,-0.508c0,-0.364 -0.131,-0.578 -0.393,-0.641c-0.093,-0.025 -0.656,-0.04 -1.689,-0.045l-3.732,0l0,1.435Z" style="fill-opacity:0.721569;fill-rule:nonzero;"/>
            <path d="M96.572,317.971l9.597,0l0,2.037l-6.995,0l0,1.251l6.64,0l0,1.904l-6.64,0l0,1.39l7.046,0l0,2.082l-9.648,0l0,-8.664Z" style="fill-opacity:0.721569;fill-rule:nonzero;"/>
            <path d="M107.045,326.635l0,-8.664l6.38,0c1.506,0.004 2.395,0.019 2.666,0.044c0.308,0.03 0.589,0.12 0.841,0.27c0.251,0.15 0.447,0.341 0.587,0.574c0.144,0.25 0.23,0.51 0.26,0.781c0.038,0.317 0.057,0.7 0.057,1.149c0,0.707 -0.048,1.2 -0.146,1.479c-0.148,0.415 -0.427,0.702 -0.838,0.863c-0.139,0.055 -0.349,0.104 -0.628,0.146c0.554,0.043 0.952,0.201 1.193,0.476c0.106,0.123 0.181,0.264 0.226,0.422c0.044,0.159 0.075,0.391 0.092,0.695c0.004,0.157 0.006,0.477 0.006,0.959l0,0.806l-2.603,0l0,-0.463c0,-0.517 -0.023,-0.887 -0.069,-1.111c-0.068,-0.322 -0.239,-0.512 -0.515,-0.571c-0.182,-0.038 -0.564,-0.058 -1.148,-0.058l-3.72,0l0,2.203l-2.641,0Zm2.641,-4.367l3.713,0c0.555,-0.009 0.882,-0.017 0.984,-0.025c0.372,-0.022 0.607,-0.136 0.705,-0.343c0.067,-0.144 0.101,-0.387 0.101,-0.73c0,-0.296 -0.029,-0.517 -0.089,-0.66c-0.089,-0.212 -0.302,-0.33 -0.641,-0.356c-0.118,-0.008 -0.474,-0.015 -1.066,-0.019l-3.707,0l0,2.133Z" style="fill-opacity:0.721569;fill-rule:nonzero;"/>
            <path d="M124.044,321.722l6.037,0c0.008,0.19 0.013,0.313 0.013,0.368c0,1.134 -0.032,2.01 -0.096,2.628c-0.101,0.999 -0.668,1.604 -1.701,1.816c-0.533,0.105 -1.117,0.169 -1.752,0.19c-0.673,0.025 -1.47,0.038 -2.393,0.038c-1.638,0 -2.808,-0.059 -3.51,-0.178c-0.973,-0.16 -1.576,-0.609 -1.809,-1.345c-0.114,-0.36 -0.18,-0.773 -0.197,-1.238c-0.021,-0.584 -0.032,-1.206 -0.032,-1.866c0,-1.118 0.053,-1.903 0.159,-2.355c0.152,-0.631 0.415,-1.075 0.787,-1.333c0.195,-0.14 0.439,-0.247 0.733,-0.321c0.294,-0.074 0.71,-0.134 1.248,-0.181c0.757,-0.068 1.781,-0.101 3.072,-0.101c1.659,0 2.833,0.065 3.523,0.196c0.698,0.132 1.189,0.364 1.472,0.699c0.25,0.3 0.402,0.774 0.457,1.421c0.013,0.174 0.019,0.441 0.019,0.8l-2.64,0c-0.004,-0.237 -0.017,-0.397 -0.038,-0.482c-0.059,-0.216 -0.248,-0.345 -0.565,-0.387c-0.419,-0.055 -1.244,-0.083 -2.476,-0.083c-1.096,0 -1.855,0.036 -2.279,0.108c-0.402,0.072 -0.645,0.292 -0.73,0.66c-0.067,0.28 -0.101,0.777 -0.101,1.492c0,0.821 0.036,1.382 0.108,1.682c0.093,0.402 0.381,0.626 0.863,0.673c0.237,0.021 0.952,0.04 2.146,0.057c1.303,-0.008 2.143,-0.034 2.52,-0.076c0.342,-0.055 0.539,-0.205 0.59,-0.451c0.03,-0.152 0.044,-0.385 0.044,-0.698l-3.472,0l0,-1.733Z" style="fill-opacity:0.721569;fill-rule:nonzero;"/>
            <path d="M21.739,339.635l0,-8.664l6.379,0c1.507,0.004 2.396,0.019 2.666,0.044c0.309,0.03 0.59,0.12 0.841,0.27c0.252,0.15 0.448,0.341 0.588,0.574c0.144,0.25 0.23,0.51 0.26,0.781c0.038,0.317 0.057,0.7 0.057,1.149c0,0.707 -0.049,1.2 -0.146,1.479c-0.148,0.415 -0.427,0.702 -0.838,0.863c-0.14,0.055 -0.349,0.104 -0.628,0.146c0.554,0.043 0.952,0.201 1.193,0.476c0.106,0.123 0.181,0.264 0.225,0.422c0.045,0.159 0.076,0.391 0.092,0.695c0.005,0.157 0.007,0.477 0.007,0.959l0,0.806l-2.603,0l0,-0.463c0,-0.517 -0.023,-0.887 -0.07,-1.111c-0.067,-0.322 -0.239,-0.512 -0.514,-0.571c-0.182,-0.038 -0.565,-0.058 -1.149,-0.058l-3.719,0l0,2.203l-2.641,0Zm2.641,-4.367l3.713,0c0.554,-0.009 0.882,-0.017 0.984,-0.025c0.372,-0.022 0.607,-0.136 0.704,-0.343c0.068,-0.144 0.102,-0.387 0.102,-0.73c0,-0.296 -0.03,-0.517 -0.089,-0.66c-0.089,-0.212 -0.302,-0.33 -0.641,-0.356c-0.118,-0.008 -0.474,-0.015 -1.066,-0.019l-3.707,0l0,2.133Z" style="fill-opacity:0.721569;fill-rule:nonzero;"/>
            <path d="M33.438,330.971l9.597,0l0,2.037l-6.995,0l0,1.251l6.64,0l0,1.904l-6.64,0l0,1.39l7.046,0l0,2.082l-9.648,0l0,-8.664Z" style="fill-opacity:0.721569;fill-rule:nonzero;"/>
            <path d="M43.607,336.766l2.558,0c-0.004,0.427 0.082,0.702 0.26,0.825c0.093,0.059 0.199,0.1 0.317,0.121c0.119,0.021 0.326,0.036 0.623,0.044c0.148,0.004 0.632,0.009 1.453,0.013c1.126,-0.004 1.777,-0.011 1.955,-0.019c0.335,-0.026 0.555,-0.07 0.66,-0.133c0.148,-0.094 0.223,-0.301 0.223,-0.623c0,-0.22 -0.047,-0.374 -0.14,-0.463c-0.127,-0.123 -0.43,-0.188 -0.908,-0.197c-0.33,0 -1.02,-0.025 -2.069,-0.076c-1.084,-0.051 -1.786,-0.08 -2.108,-0.089c-0.837,-0.025 -1.428,-0.122 -1.771,-0.292c-0.44,-0.216 -0.727,-0.584 -0.863,-1.104c-0.076,-0.288 -0.114,-0.665 -0.114,-1.13c0,-0.982 0.186,-1.674 0.558,-2.076c0.28,-0.304 0.703,-0.505 1.27,-0.603c0.512,-0.084 1.731,-0.127 3.656,-0.127c1.253,0 2.137,0.036 2.654,0.108c0.681,0.097 1.172,0.267 1.472,0.508c0.406,0.334 0.61,0.933 0.61,1.796c0,0.093 -0.003,0.242 -0.007,0.445l-2.558,0c-0.008,-0.208 -0.023,-0.352 -0.044,-0.432c-0.06,-0.237 -0.254,-0.37 -0.584,-0.4c-0.292,-0.025 -1.003,-0.038 -2.133,-0.038c-1.117,0 -1.78,0.032 -1.987,0.095c-0.233,0.076 -0.349,0.273 -0.349,0.591c0,0.304 0.123,0.49 0.368,0.558c0.207,0.055 1.141,0.108 2.799,0.159c1.503,0.042 2.461,0.095 2.876,0.159c0.419,0.063 0.752,0.158 1,0.285c0.247,0.127 0.445,0.307 0.593,0.54c0.224,0.343 0.337,0.895 0.337,1.657c0,0.85 -0.11,1.474 -0.33,1.872c-0.221,0.394 -0.58,0.662 -1.08,0.806c-0.49,0.144 -1.842,0.216 -4.056,0.216c-1.345,0 -2.317,-0.036 -2.913,-0.108c-0.728,-0.084 -1.251,-0.25 -1.568,-0.495c-0.343,-0.262 -0.546,-0.633 -0.61,-1.111c-0.033,-0.233 -0.05,-0.508 -0.05,-0.825l0,-0.457Z" style="fill-opacity:0.721569;fill-rule:nonzero;"/>
            <path d="M55.128,330.971l9.597,0l0,2.037l-6.995,0l0,1.251l6.64,0l0,1.904l-6.64,0l0,1.39l7.046,0l0,2.082l-9.648,0l0,-8.664Z" style="fill-opacity:0.721569;fill-rule:nonzero;"/>
            <path d="M75.009,339.635l-0.743,-1.466l-5.732,0l-0.743,1.466l-3.015,0l4.596,-8.664l4.1,0l4.533,8.664l-2.996,0Zm-1.67,-3.364l-1.669,-3.282l-0.527,0l-1.67,3.282l3.866,0Z" style="fill-opacity:0.721569;fill-rule:nonzero;"/>
            <path d="M78.398,339.635l0,-8.664l6.38,0c1.506,0.004 2.395,0.019 2.666,0.044c0.309,0.03 0.589,0.12 0.841,0.27c0.251,0.15 0.447,0.341 0.587,0.574c0.144,0.25 0.23,0.51 0.26,0.781c0.038,0.317 0.057,0.7 0.057,1.149c0,0.707 -0.048,1.2 -0.146,1.479c-0.148,0.415 -0.427,0.702 -0.838,0.863c-0.139,0.055 -0.349,0.104 -0.628,0.146c0.554,0.043 0.952,0.201 1.193,0.476c0.106,0.123 0.181,0.264 0.226,0.422c0.044,0.159 0.075,0.391 0.092,0.695c0.004,0.157 0.006,0.477 0.006,0.959l0,0.806l-2.603,0l0,-0.463c0,-0.517 -0.023,-0.887 -0.069,-1.111c-0.068,-0.322 -0.239,-0.512 -0.515,-0.571c-0.181,-0.038 -0.564,-0.058 -1.148,-0.058l-3.72,0l0,2.203l-2.641,0Zm2.641,-4.367l3.713,0c0.555,-0.009 0.883,-0.017 0.984,-0.025c0.372,-0.022 0.607,-0.136 0.705,-0.343c0.067,-0.144 0.101,-0.387 0.101,-0.73c0,-0.296 -0.029,-0.517 -0.089,-0.66c-0.088,-0.212 -0.302,-0.33 -0.641,-0.356c-0.118,-0.008 -0.474,-0.015 -1.066,-0.019l-3.707,0l0,2.133Z" style="fill-opacity:0.721569;fill-rule:nonzero;"/>
            <path d="M98.387,336.29l2.641,0c0.017,0.423 0.025,0.713 0.025,0.87c0,0.63 -0.099,1.136 -0.298,1.517c-0.208,0.397 -0.603,0.675 -1.187,0.831c-0.639,0.174 -1.744,0.26 -3.314,0.26c-1.731,0 -2.896,-0.027 -3.497,-0.082c-0.559,-0.047 -0.999,-0.121 -1.321,-0.222c-0.321,-0.102 -0.588,-0.25 -0.8,-0.445c-0.283,-0.262 -0.463,-0.609 -0.539,-1.041c-0.085,-0.452 -0.127,-1.324 -0.127,-2.615c0,-1.24 0.032,-2.076 0.095,-2.507c0.093,-0.648 0.345,-1.117 0.756,-1.409c0.313,-0.22 0.812,-0.377 1.498,-0.47c0.711,-0.093 1.986,-0.14 3.827,-0.14c1.096,0 1.877,0.024 2.343,0.07c0.702,0.068 1.214,0.203 1.536,0.406c0.397,0.25 0.649,0.612 0.755,1.086c0.076,0.338 0.114,0.73 0.114,1.174c0,0.076 -0.002,0.243 -0.006,0.502l-2.641,0c-0.008,-0.212 -0.017,-0.356 -0.025,-0.432c-0.034,-0.258 -0.15,-0.421 -0.349,-0.489c-0.301,-0.101 -1.122,-0.152 -2.463,-0.152c-0.914,0 -1.545,0.025 -1.892,0.076c-0.423,0.059 -0.685,0.29 -0.787,0.692c-0.08,0.326 -0.12,0.85 -0.12,1.574c0,0.745 0.04,1.259 0.12,1.543c0.102,0.368 0.381,0.581 0.838,0.641c0.372,0.046 1.026,0.07 1.962,0.07c1.011,0 1.701,-0.022 2.069,-0.064c0.347,-0.038 0.567,-0.163 0.66,-0.374c0.076,-0.178 0.119,-0.468 0.127,-0.87Z" style="fill-opacity:0.721569;fill-rule:nonzero;"/>
            <path d="M101.967,330.971l2.774,0l0,3.097l5.96,0l0,-3.097l2.774,0l0,8.664l-2.774,0l0,-3.142l-5.96,0l0,3.142l-2.774,0l0,-8.664Z" style="fill-opacity:0.721569;fill-rule:nonzero;"/>
        </g>
        <g transform="matrix(1,0,0,1,4.90649,-15.7511)">
            <path d="M21.739,317.971l2.774,0l0,6.455l6.164,0l0,2.209l-8.938,0l0,-8.664Z" style="fill:#fff;fill-rule:nonzero;"/>
            <rect x="31.28" y="317.971" width="2.774" height="8.665" style="fill:#fff;fill-rule:nonzero;"/>
            <path d="M35.266,317.971l4.627,0l4.539,6.461l0.273,0l-0.064,-6.461l2.685,0l0,8.664l-4.589,0l-4.558,-6.468l-0.285,0l0.057,6.468l-2.685,0l0,-8.664Z" style="fill:#fff;fill-rule:nonzero;"/>
            <path d="M48.539,326.635l0,-8.664l6.252,0c1.359,0 2.237,0.023 2.635,0.069c0.77,0.089 1.337,0.29 1.701,0.603c0.389,0.339 0.645,0.885 0.768,1.638c0.059,0.36 0.089,0.988 0.089,1.885c0,1.147 -0.051,1.945 -0.153,2.393c-0.139,0.61 -0.368,1.058 -0.685,1.346c-0.216,0.199 -0.478,0.349 -0.787,0.451c-0.309,0.101 -0.726,0.175 -1.251,0.222c-0.415,0.038 -1.185,0.057 -2.31,0.057l-6.259,0Zm2.602,-2.209l3.676,0c0.744,0 1.301,-0.03 1.669,-0.089c0.411,-0.067 0.669,-0.294 0.774,-0.679c0.081,-0.279 0.121,-0.719 0.121,-1.32c0,-0.643 -0.042,-1.115 -0.127,-1.416c-0.101,-0.376 -0.334,-0.605 -0.698,-0.685c-0.288,-0.068 -0.876,-0.102 -1.765,-0.102l-3.65,0l0,4.291Z" style="fill:#fff;fill-rule:nonzero;"/>
            <path d="M61.025,317.971l9.597,0l0,2.037l-6.995,0l0,1.251l6.64,0l0,1.904l-6.64,0l0,1.39l7.046,0l0,2.082l-9.648,0l0,-8.664Z" style="fill:#fff;fill-rule:nonzero;"/>
            <path d="M71.498,317.971l4.628,0l4.538,6.461l0.273,0l-0.063,-6.461l2.685,0l0,8.664l-4.59,0l-4.557,-6.468l-0.286,0l0.057,6.468l-2.685,0l0,-8.664Z" style="fill:#fff;fill-rule:nonzero;"/>
            <path d="M84.771,326.635l0,-8.664l6.227,0c1.325,0.004 2.112,0.014 2.362,0.031c0.567,0.034 0.984,0.136 1.25,0.305c0.305,0.195 0.504,0.463 0.597,0.806c0.084,0.326 0.127,0.694 0.127,1.105c0,0.507 -0.049,0.89 -0.146,1.149c-0.161,0.418 -0.502,0.704 -1.022,0.856c0.385,0.068 0.671,0.166 0.857,0.292c0.423,0.284 0.634,0.881 0.634,1.791c0,0.706 -0.11,1.229 -0.33,1.567c-0.194,0.297 -0.49,0.5 -0.888,0.61c-0.339,0.089 -0.906,0.135 -1.701,0.139l-1.721,0.013l-6.246,0Zm2.514,-5.249l3.72,0c0.816,0 1.303,-0.032 1.46,-0.096c0.207,-0.08 0.311,-0.287 0.311,-0.622c0,-0.342 -0.125,-0.548 -0.375,-0.615c-0.097,-0.026 -0.563,-0.041 -1.396,-0.045l-3.72,0l0,1.378Zm0,3.167l3.732,0c0.694,-0.004 1.103,-0.008 1.225,-0.013c0.386,-0.017 0.631,-0.093 0.737,-0.228c0.08,-0.11 0.12,-0.279 0.12,-0.508c0,-0.364 -0.131,-0.578 -0.393,-0.641c-0.093,-0.025 -0.656,-0.04 -1.689,-0.045l-3.732,0l0,1.435Z" style="fill:#fff;fill-rule:nonzero;"/>
            <path d="M96.572,317.971l9.597,0l0,2.037l-6.995,0l0,1.251l6.64,0l0,1.904l-6.64,0l0,1.39l7.046,0l0,2.082l-9.648,0l0,-8.664Z" style="fill:#fff;fill-rule:nonzero;"/>
            <path d="M107.045,326.635l0,-8.664l6.38,0c1.506,0.004 2.395,0.019 2.666,0.044c0.308,0.03 0.589,0.12 0.841,0.27c0.251,0.15 0.447,0.341 0.587,0.574c0.144,0.25 0.23,0.51 0.26,0.781c0.038,0.317 0.057,0.7 0.057,1.149c0,0.707 -0.048,1.2 -0.146,1.479c-0.148,0.415 -0.427,0.702 -0.838,0.863c-0.139,0.055 -0.349,0.104 -0.628,0.146c0.554,0.043 0.952,0.201 1.193,0.476c0.106,0.123 0.181,0.264 0.226,0.422c0.044,0.159 0.075,0.391 0.092,0.695c0.004,0.157 0.006,0.477 0.006,0.959l0,0.806l-2.603,0l0,-0.463c0,-0.517 -0.023,-0.887 -0.069,-1.111c-0.068,-0.322 -0.239,-0.512 -0.515,-0.571c-0.182,-0.038 -0.564,-0.058 -1.148,-0.058l-3.72,0l0,2.203l-2.641,0Zm2.641,-4.367l3.713,0c0.555,-0.009 0.882,-0.017 0.984,-0.025c0.372,-0.022 0.607,-0.136 0.705,-0.343c0.067,-0.144 0.101,-0.387 0.101,-0.73c0,-0.296 -0.029,-0.517 -0.089,-0.66c-0.089,-0.212 -0.302,-0.33 -0.641,-0.356c-0.118,-0.008 -0.474,-0.015 -1.066,-0.019l-3.707,0l0,2.133Z" style="fill:#fff;fill-rule:nonzero;"/>
            <path d="M124.044,321.722l6.037,0c0.008,0.19 0.013,0.313 0.013,0.368c0,1.134 -0.032,2.01 -0.096,2.628c-0.101,0.999 -0.668,1.604 -1.701,1.816c-0.533,0.105 -1.117,0.169 -1.752,0.19c-0.673,0.025 -1.47,0.038 -2.393,0.038c-1.638,0 -2.808,-0.059 -3.51,-0.178c-0.973,-0.16 -1.576,-0.609 -1.809,-1.345c-0.114,-0.36 -0.18,-0.773 -0.197,-1.238c-0.021,-0.584 -0.032,-1.206 -0.032,-1.866c0,-1.118 0.053,-1.903 0.159,-2.355c0.152,-0.631 0.415,-1.075 0.787,-1.333c0.195,-0.14 0.439,-0.247 0.733,-0.321c0.294,-0.074 0.71,-0.134 1.248,-0.181c0.757,-0.068 1.781,-0.101 3.072,-0.101c1.659,0 2.833,0.065 3.523,0.196c0.698,0.132 1.189,0.364 1.472,0.699c0.25,0.3 0.402,0.774 0.457,1.421c0.013,0.174 0.019,0.441 0.019,0.8l-2.64,0c-0.004,-0.237 -0.017,-0.397 -0.038,-0.482c-0.059,-0.216 -0.248,-0.345 -0.565,-0.387c-0.419,-0.055 -1.244,-0.083 -2.476,-0.083c-1.096,0 -1.855,0.036 -2.279,0.108c-0.402,0.072 -0.645,0.292 -0.73,0.66c-0.067,0.28 -0.101,0.777 -0.101,1.492c0,0.821 0.036,1.382 0.108,1.682c0.093,0.402 0.381,0.626 0.863,0.673c0.237,0.021 0.952,0.04 2.146,0.057c1.303,-0.008 2.143,-0.034 2.52,-0.076c0.342,-0.055 0.539,-0.205 0.59,-0.451c0.03,-0.152 0.044,-0.385 0.044,-0.698l-3.472,0l0,-1.733Z" style="fill:#fff;fill-rule:nonzero;"/>
            <path d="M21.739,339.635l0,-8.664l6.379,0c1.507,0.004 2.396,0.019 2.666,0.044c0.309,0.03 0.59,0.12 0.841,0.27c0.252,0.15 0.448,0.341 0.588,0.574c0.144,0.25 0.23,0.51 0.26,0.781c0.038,0.317 0.057,0.7 0.057,1.149c0,0.707 -0.049,1.2 -0.146,1.479c-0.148,0.415 -0.427,0.702 -0.838,0.863c-0.14,0.055 -0.349,0.104 -0.628,0.146c0.554,0.043 0.952,0.201 1.193,0.476c0.106,0.123 0.181,0.264 0.225,0.422c0.045,0.159 0.076,0.391 0.092,0.695c0.005,0.157 0.007,0.477 0.007,0.959l0,0.806l-2.603,0l0,-0.463c0,-0.517 -0.023,-0.887 -0.07,-1.111c-0.067,-0.322 -0.239,-0.512 -0.514,-0.571c-0.182,-0.038 -0.565,-0.058 -1.149,-0.058l-3.719,0l0,2.203l-2.641,0Zm2.641,-4.367l3.713,0c0.554,-0.009 0.882,-0.017 0.984,-0.025c0.372,-0.022 0.607,-0.136 0.704,-0.343c0.068,-0.144 0.102,-0.387 0.102,-0.73c0,-0.296 -0.03,-0.517 -0.089,-0.66c-0.089,-0.212 -0.302,-0.33 -0.641,-0.356c-0.118,-0.008 -0.474,-0.015 -1.066,-0.019l-3.707,0l0,2.133Z" style="fill:#fff;fill-rule:nonzero;"/>
            <path d="M33.438,330.971l9.597,0l0,2.037l-6.995,0l0,1.251l6.64,0l0,1.904l-6.64,0l0,1.39l7.046,0l0,2.082l-9.648,0l0,-8.664Z" style="fill:#fff;fill-rule:nonzero;"/>
            <path d="M43.607,336.766l2.558,0c-0.004,0.427 0.082,0.702 0.26,0.825c0.093,0.059 0.199,0.1 0.317,0.121c0.119,0.021 0.326,0.036 0.623,0.044c0.148,0.004 0.632,0.009 1.453,0.013c1.126,-0.004 1.777,-0.011 1.955,-0.019c0.335,-0.026 0.555,-0.07 0.66,-0.133c0.148,-0.094 0.223,-0.301 0.223,-0.623c0,-0.22 -0.047,-0.374 -0.14,-0.463c-0.127,-0.123 -0.43,-0.188 -0.908,-0.197c-0.33,0 -1.02,-0.025 -2.069,-0.076c-1.084,-0.051 -1.786,-0.08 -2.108,-0.089c-0.837,-0.025 -1.428,-0.122 -1.771,-0.292c-0.44,-0.216 -0.727,-0.584 -0.863,-1.104c-0.076,-0.288 -0.114,-0.665 -0.114,-1.13c0,-0.982 0.186,-1.674 0.558,-2.076c0.28,-0.304 0.703,-0.505 1.27,-0.603c0.512,-0.084 1.731,-0.127 3.656,-0.127c1.253,0 2.137,0.036 2.654,0.108c0.681,0.097 1.172,0.267 1.472,0.508c0.406,0.334 0.61,0.933 0.61,1.796c0,0.093 -0.003,0.242 -0.007,0.445l-2.558,0c-0.008,-0.208 -0.023,-0.352 -0.044,-0.432c-0.06,-0.237 -0.254,-0.37 -0.584,-0.4c-0.292,-0.025 -1.003,-0.038 -2.133,-0.038c-1.117,0 -1.78,0.032 -1.987,0.095c-0.233,0.076 -0.349,0.273 -0.349,0.591c0,0.304 0.123,0.49 0.368,0.558c0.207,0.055 1.141,0.108 2.799,0.159c1.503,0.042 2.461,0.095 2.876,0.159c0.419,0.063 0.752,0.158 1,0.285c0.247,0.127 0.445,0.307 0.593,0.54c0.224,0.343 0.337,0.895 0.337,1.657c0,0.85 -0.11,1.474 -0.33,1.872c-0.221,0.394 -0.58,0.662 -1.08,0.806c-0.49,0.144 -1.842,0.216 -4.056,0.216c-1.345,0 -2.317,-0.036 -2.913,-0.108c-0.728,-0.084 -1.251,-0.25 -1.568,-0.495c-0.343,-0.262 -0.546,-0.633 -0.61,-1.111c-0.033,-0.233 -0.05,-0.508 -0.05,-0.825l0,-0.457Z" style="fill:#fff;fill-rule:nonzero;"/>
            <path d="M55.128,330.971l9.597,0l0,2.037l-6.995,0l0,1.251l6.64,0l0,1.904l-6.64,0l0,1.39l7.046,0l0,2.082l-9.648,0l0,-8.664Z" style="fill:#fff;fill-rule:nonzero;"/>
            <path d="M75.009,339.635l-0.743,-1.466l-5.732,0l-0.743,1.466l-3.015,0l4.596,-8.664l4.1,0l4.533,8.664l-2.996,0Zm-1.67,-3.364l-1.669,-3.282l-0.527,0l-1.67,3.282l3.866,0Z" style="fill:#fff;fill-rule:nonzero;"/>
            <path d="M78.398,339.635l0,-8.664l6.38,0c1.506,0.004 2.395,0.019 2.666,0.044c0.309,0.03 0.589,0.12 0.841,0.27c0.251,0.15 0.447,0.341 0.587,0.574c0.144,0.25 0.23,0.51 0.26,0.781c0.038,0.317 0.057,0.7 0.057,1.149c0,0.707 -0.048,1.2 -0.146,1.479c-0.148,0.415 -0.427,0.702 -0.838,0.863c-0.139,0.055 -0.349,0.104 -0.628,0.146c0.554,0.043 0.952,0.201 1.193,0.476c0.106,0.123 0.181,0.264 0.226,0.422c0.044,0.159 0.075,0.391 0.092,0.695c0.004,0.157 0.006,0.477 0.006,0.959l0,0.806l-2.603,0l0,-0.463c0,-0.517 -0.023,-0.887 -0.069,-1.111c-0.068,-0.322 -0.239,-0.512 -0.515,-0.571c-0.181,-0.038 -0.564,-0.058 -1.148,-0.058l-3.72,0l0,2.203l-2.641,0Zm2.641,-4.367l3.713,0c0.555,-0.009 0.883,-0.017 0.984,-0.025c0.372,-0.022 0.607,-0.136 0.705,-0.343c0.067,-0.144 0.101,-0.387 0.101,-0.73c0,-0.296 -0.029,-0.517 -0.089,-0.66c-0.088,-0.212 -0.302,-0.33 -0.641,-0.356c-0.118,-0.008 -0.474,-0.015 -1.066,-0.019l-3.707,0l0,2.133Z" style="fill:#fff;fill-rule:nonzero;"/>
            <path d="M98.387,336.29l2.641,0c0.017,0.423 0.025,0.713 0.025,0.87c0,0.63 -0.099,1.136 -0.298,1.517c-0.208,0.397 -0.603,0.675 -1.187,0.831c-0.639,0.174 -1.744,0.26 -3.314,0.26c-1.731,0 -2.896,-0.027 -3.497,-0.082c-0.559,-0.047 -0.999,-0.121 -1.321,-0.222c-0.321,-0.102 -0.588,-0.25 -0.8,-0.445c-0.283,-0.262 -0.463,-0.609 -0.539,-1.041c-0.085,-0.452 -0.127,-1.324 -0.127,-2.615c0,-1.24 0.032,-2.076 0.095,-2.507c0.093,-0.648 0.345,-1.117 0.756,-1.409c0.313,-0.22 0.812,-0.377 1.498,-0.47c0.711,-0.093 1.986,-0.14 3.827,-0.14c1.096,0 1.877,0.024 2.343,0.07c0.702,0.068 1.214,0.203 1.536,0.406c0.397,0.25 0.649,0.612 0.755,1.086c0.076,0.338 0.114,0.73 0.114,1.174c0,0.076 -0.002,0.243 -0.006,0.502l-2.641,0c-0.008,-0.212 -0.017,-0.356 -0.025,-0.432c-0.034,-0.258 -0.15,-0.421 -0.349,-0.489c-0.301,-0.101 -1.122,-0.152 -2.463,-0.152c-0.914,0 -1.545,0.025 -1.892,0.076c-0.423,0.059 -0.685,0.29 -0.787,0.692c-0.08,0.326 -0.12,0.85 -0.12,1.574c0,0.745 0.04,1.259 0.12,1.543c0.102,0.368 0.381,0.581 0.838,0.641c0.372,0.046 1.026,0.07 1.962,0.07c1.011,0 1.701,-0.022 2.069,-0.064c0.347,-0.038 0.567,-0.163 0.66,-0.374c0.076,-0.178 0.119,-0.468 0.127,-0.87Z" style="fill:#fff;fill-rule:nonzero;"/>
            <path d="M101.967,330.971l2.774,0l0,3.097l5.96,0l0,-3.097l2.774,0l0,8.664l-2.774,0l0,-3.142l-5.96,0l0,3.142l-2.774,0l0,-8.664Z" style="fill:#fff;fill-rule:nonzero;"/>
        </g>
    </g>
    <g id="TopHL" transform="matrix(1,0,0,1,0,0.5125)">
        <path d="M0.5,18l270,0" style="fill:none;stroke:#c6c6c6;stroke-opacity:0.6;stroke-width:3px;stroke-linecap:butt;"/>
        <path d="M0.501,22.375l269.999,0" style="fill:none;stroke:#c6c6c6;stroke-opacity:0.6;stroke-width:1px;stroke-linecap:butt;"/>
    </g>
    <g id="BottomHL" transform="matrix(1,0,0,1,0,0.502)">
        <path d="M270.503,367.598l-270.001,0" style="fill:none;stroke:#c6c6c6;stroke-opacity:0.6;stroke-width:3px;stroke-linecap:butt;"/>
    </g>
    <g transform="matrix(0.952103,0,0,0.428609,1.27624,186.207)">
        <rect x="26.646" y="325.883" width="108.354" height="2.636" style="fill:#9b687e;fill-opacity:0.752941;"/>
    </g>
</svg>
