<?xml version="1.0" encoding="utf-8"?>
<!-- Generator: Adobe Illustrator 16.0.0, SVG Export Plug-In . SVG Version: 6.00 Build 0)  -->
<!DOCTYPE svg PUBLIC "-//W3C//DTD SVG 1.1//EN" "http://www.w3.org/Graphics/SVG/1.1/DTD/svg11.dtd" [
        <!ENTITY ns_extend "http://ns.adobe.com/Extensibility/1.0/">
        <!ENTITY ns_ai "http://ns.adobe.com/AdobeIllustrator/10.0/">
        <!ENTITY ns_graphs "http://ns.adobe.com/Graphs/1.0/">
        <!ENTITY ns_vars "http://ns.adobe.com/Variables/1.0/">
        <!ENTITY ns_imrep "http://ns.adobe.com/ImageReplacement/1.0/">
        <!ENTITY ns_sfw "http://ns.adobe.com/SaveForWeb/1.0/">
        <!ENTITY ns_custom "http://ns.adobe.com/GenericCustomNamespace/1.0/">
        <!ENTITY ns_adobe_xpath "http://ns.adobe.com/XPath/1.0/">
        ]>
<svg xmlns:x="&ns_extend;" xmlns:i="&ns_ai;" xmlns:graph="&ns_graphs;" xmlns:xlink="http://www.w3.org/1999/xlink" version="1.1"
	 id="Layer_1" xmlns="http://www.w3.org/2000/svg" x="0px" y="0px" width="270px" height="380px"
	 viewBox="0 0 270 380" enable-background="new 0 0 270 380" xml:space="preserve">
<metadata>
	<sfw  xmlns="&ns_sfw;">
		<slices></slices>
		<sliceSourceBounds  width="270" height="380" bottomLeftOrigin="true" x="-101" y="-155"></sliceSourceBounds>
	</sfw>
</metadata>
<rect x="-0.5" y="0.5" fill="#FFFFFF" width="270" height="380"/>
<rect x="-0.5" y="0.5" fill="#140E07" width="270" height="380"/>
<g>
	<path fill="#7A191A" d="M240.264,160.294c-0.619-1.581-1.404-2.794-1.947-4.794h0.017c-0.039,0-0.062-0.083-0.099-0.167
		c-0.069-0.217-0.137-0.397-0.195-0.616c-0.109-0.41-0.212-0.853-0.284-1.325c-0.048-2.337,2.104-3.136,2.188-5.823
		c0.09-2.891-1.659-4.38-2.188-4.765c-0.021-0.031-0.041-0.061-0.063-0.092c0.014-0.041,0.023-0.077,0.035-0.117
		c3.364-2.733,1.9-6.447,1.9-6.447c-0.714-0.38-1.475-0.618-2.018-1.101c-4.873-4.34-5.176-7.456-1.344-12.683
		c0.973-1.331,1.961-2.668,2.771-4.1c1.979-3.502,1.528-5.167-2.033-7.153c-2.562-1.428-5.329-2.493-7.851-3.983
		c-7.187-4.245-13.297-9.574-16.922-17.049c2.438-4.35,2.438-4.35,1.465-7.125c-0.889,0.972-1.717,1.879-3.021,3.308
		c0-3.426,0.33-6.044-0.094-8.533c-0.413-2.423-0.954-5.384-2.564-6.942c-5.861-5.669-9.184-12.688-12.268-19.995
		c-2.28-5.4-4.715-10.854-9.18-14.872c-2.248-2.022-5.028-3.451-7.577-5.154c0-1.522,0.019-2.981-0.005-4.439
		c-0.022-1.458,0.043-2.933-0.153-4.371c-0.789-5.745-4.877-8.499-10.567-7.357c-3.574,0.717-7.174,1.391-10.793,1.757
		c-2.121,0.214-4.027,0.144-3.623-3.856c1.821,0,3.553,0,6.032,0c-1.241,0-1.702-1.735-2.323-1.987
		c-2.481-1.002-4.545-0.404-5.729,1.568c-1.404,2.333,0.026,4.03,1.69,5.117c1.431,0.935,3.375,1.62,5.047,1.534
		c3.634-0.188,7.232-0.946,10.852-1.456c3.146-0.443,5.002,0.659,5.629,3.669c0.299,1.436,0.053,2.986,0.053,4.001
		c-4.179-1.555-7.813-3.786-11.625-4.147c-8.351-0.793-16.804-1.024-25.183-0.686c-3.465,0.139-7.285,1.698-10.168,3.718
		c-5.109,3.581-10.608,5.661-16.598,6.896c-2.864,0.591-5.737,1.291-8.483,2.281c-5.269,1.898-9.692,4.879-12.955,9.697
		c-1.792,2.645-4.31,4.994-6.953,6.826c-5.158,3.578-10.113,7.218-13.645,12.57c-1.923,2.917-4.633,4.732-8.807,3.497
		c-1.241-4.768-5.472-5.517-9.694-6.093c-1.981-0.272-4.073-0.36-6.037-0.045c-11.513,1.845-21.97,6.247-30.126,14.69
		c-7.377,7.637-6.671,11.646-3.078,18.204c2.319,4.231,2.395,8.353-0.313,12.459c-2.106,3.193-2.888,6.756-2.327,10.51
		c1.443,9.673,4.575,18.224,15.066,21.63c0.691,0.223,1.299,0.682,1.964,0.99c2.388,1.105,3.534,2.912,3.781,5.585
		c0.162,1.73,0.551,3.772,1.606,5.032c7.017,8.375,22.957,9.554,28.135-2.192c0.213-0.485,0.701-0.849,1.062-1.268
		c0.343,0.15,0.685,0.299,1.027,0.449c-0.303,1.514-0.606,3.027-0.91,4.541c-0.394,1.965-1.353,4.013-1.08,5.881
		c1.028,7.039,1.667,14.288,3.936,20.953c2.755,8.094,9.584,16.391,21.08,14.827c3.987-0.543,7.62,0.438,11.031,2.511
		c1.409,0.854,2.985,1.43,4.395,2.278c3.619,2.183,7.3,2.132,11.075,0.521c2.275-0.97,4.553-1.939,7.113-3.031
		c-1.303,4.541-2.56,8.531-3.583,12.58c-1.502,5.94-4.08,10.621-11.17,10.652c-0.129,0-0.256,0.229-0.541,0.496
		c0.531,1.557,1.096,3.209,1.625,4.758c-3.854,5.703-10.548,5.941-15.675,8.854c10.055,0.093,17.292-4.779,18.178-11.866
		c5.516-1.777,8.769-5.656,10.374-11.146c0.873-2.989,1.81-5.979,3.003-8.853c1.961-4.729,5.385-7.55,10.568-7.678
		c-0.34,3.618-0.65,6.931-0.961,10.239c-7.513,1.67-7.662,1.854-7.342,9.344c-1.778,1.425-3.638,2.916-6.387,5.119
		c6.995-1.604,8.355-3.318,9.017-10.35c1.054-0.365,2.205-0.896,3.414-1.162c4.505-0.983,4.619-0.965,4.137-5.66
		c-0.283-2.748,0.831-4.489,3.554-6.364c0.508,1.983,1.002,3.47,1.254,4.995c0.354,2.16,0.614,4.345,0.77,6.527
		c0.581,8.32-0.068,16.453-3.884,24.078c-4.673,9.34-9.364,18.676-13.947,28.059c-1.319,2.701-2.789,4.757-5.811,6.104
		c-4.792,2.142-8.338,7.366-8.716,12.171c17.143,3.313,29.564,7.811,46.111,21.16c10.84,8.747,22.317,12.706,33.032,13.995
		c0.004-0.004,11.515-15.405,22.195-36.581c-0.272-0.41-0.545-0.818-0.813-1.229c-7.021-10.65-12.958-20.89-14.661-25.305
		c-3.205-8.309-4.312-16.471-2.396-25.242c2.229-10.205,4.082-20.455,8.72-29.968c2.711-5.562,6.911-8.664,12.942-9.953
		c7.154-1.528,14.258-3.412,21.282-5.469C240.218,174.124,243.141,167.621,240.264,160.294z"/>
</g>
<g>
	<path fill="#663442" stroke="#D3B8C8" stroke-miterlimit="10" d="M118.463,126.513l3.834-5.368l-4.202-4.202l-5.367,3.834
		c-0.996-0.557-2.061-1-3.182-1.318l-1.084-6.506h-5.941l-1.084,6.507c-1.12,0.316-2.186,0.761-3.181,1.317l-5.367-3.834
		l-4.201,4.202l3.834,5.368c-0.557,0.995-1.001,2.061-1.318,3.181l-6.507,1.085v5.941l6.507,1.085
		c0.317,1.118,0.761,2.185,1.317,3.181l-3.833,5.367l4.202,4.202l5.367-3.834c0.995,0.557,2.061,1,3.18,1.318l1.085,6.506h5.941
		l1.084-6.506c1.12-0.317,2.186-0.761,3.182-1.318l5.367,3.834l4.201-4.201l-3.834-5.368c0.556-0.994,1-2.061,1.317-3.18
		l6.507-1.084v-5.941l-6.506-1.085C119.464,128.574,119.02,127.508,118.463,126.513z M105.492,139.69
		c-3.282,0-5.941-2.661-5.941-5.941c0-3.282,2.659-5.942,5.941-5.942c3.281,0,5.941,2.66,5.941,5.942
		C111.434,137.029,108.773,139.69,105.492,139.69z M179.762,95.129v-5.942l-6.257-1.136c-0.114-0.748-0.263-1.484-0.438-2.209
		l5.346-3.444l-2.271-5.489l-6.217,1.343c-0.392-0.642-0.812-1.264-1.253-1.868l3.621-5.23l-4.201-4.202l-5.229,3.622
		c-0.604-0.442-1.229-0.861-1.867-1.253l1.342-6.215l-5.488-2.273l-3.443,5.343c-0.727-0.175-1.463-0.323-2.209-0.438l-1.139-6.255
		h-5.94l-1.138,6.255c-0.746,0.115-1.481,0.263-2.209,0.438l-3.442-5.343l-5.488,2.273l1.343,6.215
		c-0.642,0.391-1.264,0.81-1.868,1.253l-5.231-3.622l-4.2,4.202l3.621,5.229c-0.442,0.605-0.861,1.228-1.252,1.869l-6.215-1.343
		l-2.273,5.489l5.344,3.444c-0.176,0.725-0.324,1.461-0.439,2.209l-6.255,1.136v5.942l6.255,1.137
		c0.115,0.747,0.264,1.483,0.439,2.209l-5.343,3.444l2.272,5.489l6.215-1.344c0.392,0.642,0.81,1.265,1.253,1.869l-3.622,5.23
		l4.201,4.201l5.23-3.621c0.605,0.442,1.228,0.861,1.869,1.253l-1.343,6.214l5.488,2.273l3.443-5.343
		c0.726,0.176,1.461,0.324,2.209,0.438l1.138,6.256h5.94l1.137-6.256c0.748-0.114,1.484-0.262,2.209-0.438l3.445,5.344l5.487-2.274
		l-1.342-6.215c0.642-0.392,1.264-0.811,1.868-1.252l5.229,3.621l4.201-4.201l-3.621-5.23c0.441-0.604,0.861-1.227,1.253-1.869
		l6.216,1.344l2.272-5.489l-5.345-3.444c0.177-0.726,0.322-1.462,0.438-2.209L179.762,95.129z M147.082,105.081
		c-7.137,0-12.922-5.785-12.922-12.921c0-7.138,5.785-12.923,12.922-12.923c7.139,0,12.923,5.785,12.923,12.923
		C160.005,99.295,154.221,105.081,147.082,105.081z"/>
</g>
<g>
	<path fill="#F7F7F7" d="M34.771,320.503h3.841v8.938h8.534v3.059H34.771V320.503z"/>
	<path fill="#F7F7F7" d="M47.981,320.503h3.841V332.5h-3.841V320.503z"/>
	<path fill="#F7F7F7" d="M53.5,320.503h6.407l6.284,8.947h0.378l-0.088-8.947H70.2V332.5h-6.354l-6.311-8.956h-0.396l0.079,8.956
		H53.5V320.503z"/>
	<path fill="#F7F7F7" d="M71.878,332.5v-11.997h8.657c1.881,0,3.097,0.032,3.647,0.097c1.066,0.123,1.852,0.401,2.355,0.836
		c0.539,0.469,0.894,1.226,1.063,2.269c0.082,0.498,0.123,1.368,0.123,2.608c0,1.59-0.07,2.692-0.211,3.313
		c-0.193,0.844-0.51,1.465-0.949,1.862c-0.299,0.275-0.662,0.482-1.09,0.625c-0.428,0.141-1.005,0.242-1.731,0.308
		c-0.574,0.054-1.641,0.079-3.199,0.079H71.878L71.878,332.5z M75.482,329.441h5.089c1.031,0,1.802-0.041,2.312-0.123
		c0.568-0.096,0.926-0.407,1.072-0.94c0.111-0.387,0.167-0.996,0.167-1.828c0-0.891-0.059-1.544-0.176-1.96
		c-0.141-0.521-0.463-0.838-0.967-0.949c-0.398-0.094-1.213-0.141-2.443-0.141h-5.054V329.441z"/>
	<path fill="#F7F7F7" d="M89.167,320.503h13.289v2.821H92.77v1.73h9.193v2.637H92.77v1.926h9.756v2.883H89.167V320.503z"/>
	<path fill="#F7F7F7" d="M103.668,320.503h6.407l6.284,8.947h0.378l-0.088-8.947h3.718V332.5h-6.354l-6.311-8.956h-0.396
		l0.079,8.956h-3.718L103.668,320.503L103.668,320.503z"/>
	<path fill="#F7F7F7" d="M122.046,332.5v-11.997h8.622c1.834,0.006,2.924,0.021,3.27,0.044c0.785,0.047,1.362,0.188,1.731,0.422
		c0.422,0.271,0.697,0.643,0.826,1.116c0.116,0.451,0.176,0.961,0.176,1.528c0,0.703-0.067,1.232-0.202,1.592
		c-0.223,0.58-0.693,0.977-1.415,1.188c0.533,0.094,0.928,0.229,1.187,0.403c0.586,0.394,0.879,1.22,0.879,2.479
		c0,0.979-0.152,1.701-0.457,2.17c-0.271,0.41-0.681,0.69-1.23,0.845c-0.469,0.123-1.254,0.188-2.355,0.192l-2.382,0.019
		L122.046,332.5L122.046,332.5z M125.527,325.23h5.15c1.131,0,1.805-0.045,2.021-0.133c0.287-0.109,0.431-0.396,0.431-0.859
		c0-0.477-0.173-0.76-0.519-0.854c-0.135-0.034-0.779-0.056-1.934-0.062h-5.15L125.527,325.23L125.527,325.23z M125.527,329.617
		h5.168c0.961-0.006,1.526-0.012,1.696-0.02c0.533-0.021,0.873-0.129,1.02-0.314c0.111-0.152,0.167-0.387,0.167-0.703
		c0-0.504-0.182-0.801-0.545-0.889c-0.129-0.034-0.908-0.057-2.338-0.062h-5.168V329.617L125.527,329.617z"/>
	<path fill="#F7F7F7" d="M138.385,320.503h13.289v2.821h-9.686v1.73h9.193v2.637h-9.193v1.926h9.756v2.883h-13.359V320.503
		L138.385,320.503z"/>
	<path fill="#F7F7F7" d="M152.887,332.5v-11.997h8.834c2.086,0.006,3.316,0.026,3.691,0.062c0.428,0.041,0.814,0.166,1.164,0.373
		c0.348,0.209,0.619,0.475,0.812,0.797c0.197,0.346,0.318,0.705,0.359,1.08c0.053,0.438,0.078,0.971,0.078,1.592
		c0,0.979-0.066,1.66-0.201,2.048c-0.205,0.573-0.592,0.973-1.16,1.194c-0.191,0.076-0.482,0.145-0.871,0.201
		c0.77,0.061,1.318,0.278,1.652,0.659c0.146,0.171,0.25,0.365,0.312,0.584c0.062,0.222,0.104,0.541,0.127,0.964
		c0.006,0.217,0.01,0.658,0.01,1.326v1.116h-3.604v-0.642c0-0.717-0.032-1.229-0.098-1.539c-0.095-0.444-0.33-0.709-0.712-0.791
		c-0.252-0.053-0.782-0.078-1.592-0.078h-5.149v3.05L152.887,332.5L152.887,332.5z M156.543,326.453h5.143
		c0.77-0.012,1.223-0.023,1.361-0.035c0.516-0.029,0.842-0.188,0.977-0.475c0.096-0.199,0.143-0.536,0.143-1.012
		c0-0.41-0.041-0.716-0.123-0.914c-0.123-0.293-0.42-0.457-0.891-0.492c-0.164-0.012-0.654-0.021-1.477-0.025h-5.133V326.453z"/>
	<path fill="#F7F7F7" d="M176.424,325.697h8.359c0.012,0.264,0.018,0.434,0.018,0.51c0,1.57-0.045,2.783-0.133,3.639
		c-0.141,1.383-0.926,2.223-2.355,2.516c-0.736,0.146-1.547,0.232-2.426,0.264c-0.932,0.035-2.035,0.053-3.312,0.053
		c-2.269,0-3.89-0.082-4.861-0.246c-1.348-0.223-2.182-0.844-2.504-1.861c-0.157-0.498-0.25-1.069-0.272-1.715
		c-0.028-0.81-0.043-1.67-0.043-2.584c0-1.547,0.071-2.635,0.22-3.262c0.211-0.873,0.573-1.486,1.09-1.846
		c0.271-0.193,0.606-0.341,1.017-0.443c0.405-0.103,0.981-0.187,1.727-0.25c1.05-0.095,2.468-0.142,4.255-0.142
		c2.297,0,3.924,0.091,4.879,0.271c0.967,0.184,1.646,0.506,2.039,0.969c0.346,0.416,0.558,1.07,0.633,1.969
		c0.019,0.24,0.024,0.609,0.024,1.105h-3.655c-0.006-0.326-0.022-0.551-0.054-0.668c-0.082-0.299-0.342-0.478-0.78-0.535
		c-0.58-0.075-1.724-0.113-3.429-0.113c-1.519,0-2.569,0.05-3.155,0.148c-0.558,0.101-0.894,0.403-1.011,0.914
		c-0.094,0.387-0.141,1.074-0.141,2.064c0,1.137,0.049,1.913,0.147,2.329c0.129,0.557,0.526,0.866,1.194,0.932
		c0.328,0.029,1.317,0.056,2.972,0.079c1.805-0.012,2.969-0.047,3.489-0.104c0.476-0.076,0.746-0.284,0.815-0.625
		c0.041-0.211,0.062-0.532,0.062-0.967h-4.809V325.697L176.424,325.697z"/>
	<path fill="#F7F7F7" d="M34.771,348.5v-11.997h8.833c2.086,0.006,3.316,0.026,3.691,0.062c0.428,0.041,0.816,0.166,1.165,0.373
		c0.349,0.209,0.62,0.475,0.813,0.797c0.199,0.346,0.319,0.705,0.36,1.08c0.053,0.438,0.079,0.971,0.079,1.592
		c0,0.979-0.067,1.66-0.202,2.048c-0.205,0.573-0.592,0.973-1.16,1.194c-0.193,0.076-0.483,0.145-0.87,0.201
		c0.768,0.061,1.318,0.278,1.652,0.659c0.146,0.171,0.25,0.365,0.312,0.584c0.062,0.222,0.104,0.541,0.127,0.964
		c0.006,0.217,0.009,0.658,0.009,1.326v1.116h-3.604v-0.642c0-0.717-0.032-1.229-0.097-1.539c-0.094-0.444-0.331-0.709-0.712-0.791
		c-0.252-0.053-0.782-0.078-1.591-0.078h-5.15v3.05L34.771,348.5L34.771,348.5z M38.427,342.453h5.142
		c0.768-0.012,1.222-0.023,1.362-0.035c0.516-0.029,0.841-0.188,0.976-0.475c0.094-0.199,0.141-0.536,0.141-1.012
		c0-0.41-0.041-0.716-0.123-0.914c-0.123-0.293-0.419-0.457-0.888-0.492c-0.164-0.012-0.656-0.021-1.477-0.025h-5.133V342.453z"/>
	<path fill="#F7F7F7" d="M50.969,336.503h13.289v2.821h-9.686v1.73h9.193v2.637h-9.193v1.926h9.756v2.883H50.969V336.503z"/>
	<path fill="#F7F7F7" d="M65.049,344.527h3.542c-0.006,0.592,0.114,0.973,0.36,1.143c0.129,0.082,0.275,0.139,0.439,0.167
		c0.164,0.029,0.451,0.05,0.861,0.062c0.205,0.007,0.876,0.013,2.013,0.019c1.559-0.006,2.461-0.015,2.707-0.026
		c0.463-0.033,0.768-0.097,0.914-0.185c0.205-0.129,0.308-0.416,0.308-0.86c0-0.306-0.064-0.52-0.193-0.643
		c-0.176-0.17-0.595-0.262-1.257-0.271c-0.457,0-1.412-0.035-2.865-0.104c-1.5-0.07-2.473-0.111-2.918-0.123
		c-1.16-0.035-1.978-0.17-2.452-0.404c-0.609-0.299-1.008-0.809-1.195-1.528c-0.105-0.397-0.158-0.92-0.158-1.563
		c0-1.358,0.258-2.317,0.773-2.874c0.387-0.422,0.973-0.7,1.758-0.835c0.709-0.117,2.396-0.176,5.062-0.176
		c1.734,0,2.959,0.05,3.674,0.147c0.943,0.137,1.623,0.369,2.039,0.703c0.562,0.463,0.844,1.292,0.844,2.487
		c0,0.129-0.003,0.334-0.009,0.614h-3.542c-0.012-0.286-0.032-0.485-0.062-0.598c-0.082-0.328-0.352-0.514-0.809-0.555
		c-0.404-0.035-1.389-0.053-2.953-0.053c-1.547,0-2.464,0.044-2.751,0.132c-0.322,0.104-0.483,0.378-0.483,0.817
		c0,0.422,0.17,0.68,0.51,0.771c0.287,0.076,1.579,0.148,3.876,0.221c2.08,0.06,3.407,0.133,3.981,0.221
		c0.58,0.088,1.042,0.22,1.384,0.396c0.342,0.177,0.617,0.425,0.822,0.747c0.311,0.475,0.466,1.239,0.466,2.294
		c0,1.179-0.152,2.042-0.457,2.593c-0.305,0.545-0.803,0.918-1.494,1.116c-0.68,0.199-2.552,0.3-5.616,0.3
		c-1.863,0-3.208-0.051-4.034-0.148c-1.008-0.117-1.731-0.348-2.171-0.688c-0.475-0.361-0.756-0.876-0.844-1.537
		c-0.047-0.322-0.07-0.703-0.07-1.144V344.527L65.049,344.527z"/>
	<path fill="#F7F7F7" d="M81.001,336.503H94.29v2.821h-9.686v1.73h9.193v2.637h-9.193v1.926h9.756v2.883H81.001V336.503z"/>
	<path fill="#F7F7F7" d="M108.529,348.5l-1.028-2.029h-7.937l-1.028,2.029h-4.175l6.363-11.997h5.678l6.275,11.997H108.529z
		 M106.217,343.842l-2.312-4.544h-0.729l-2.312,4.544H106.217z"/>
	<path fill="#F7F7F7" d="M113.222,348.5v-11.997h8.833c2.086,0.006,3.316,0.026,3.691,0.062c0.428,0.041,0.816,0.166,1.165,0.373
		c0.349,0.209,0.62,0.475,0.813,0.797c0.199,0.346,0.319,0.705,0.36,1.08c0.053,0.438,0.079,0.971,0.079,1.592
		c0,0.979-0.067,1.66-0.202,2.048c-0.205,0.573-0.592,0.973-1.16,1.194c-0.193,0.076-0.483,0.145-0.87,0.201
		c0.768,0.061,1.318,0.278,1.652,0.659c0.146,0.171,0.25,0.365,0.312,0.584c0.062,0.222,0.104,0.541,0.127,0.964
		c0.006,0.217,0.009,0.658,0.009,1.326v1.116h-3.604v-0.642c0-0.717-0.032-1.229-0.097-1.539c-0.094-0.444-0.331-0.709-0.712-0.791
		c-0.252-0.053-0.782-0.078-1.591-0.078h-5.15v3.05L113.222,348.5L113.222,348.5z M116.878,342.453h5.142
		c0.768-0.012,1.222-0.023,1.362-0.035c0.516-0.029,0.841-0.188,0.976-0.475c0.094-0.199,0.141-0.536,0.141-1.012
		c0-0.41-0.041-0.716-0.123-0.914c-0.123-0.293-0.419-0.457-0.888-0.492c-0.164-0.012-0.656-0.021-1.477-0.025h-5.133V342.453z"/>
	<path fill="#F7F7F7" d="M140.898,343.868h3.656c0.022,0.586,0.034,0.987,0.034,1.204c0,0.873-0.138,1.572-0.412,2.101
		c-0.286,0.552-0.836,0.937-1.645,1.151c-0.886,0.24-2.414,0.359-4.589,0.359c-2.396,0-4.01-0.037-4.842-0.113
		c-0.773-0.064-1.383-0.168-1.828-0.309c-0.445-0.142-0.814-0.347-1.107-0.615c-0.393-0.362-0.642-0.844-0.747-1.44
		c-0.117-0.627-0.176-1.834-0.176-3.621c0-1.717,0.044-2.874,0.132-3.472c0.129-0.896,0.478-1.547,1.046-1.951
		c0.434-0.305,1.125-0.521,2.074-0.65c0.984-0.129,2.751-0.191,5.3-0.191c1.52,0,2.6,0.031,3.243,0.097
		c0.974,0.095,1.683,0.281,2.127,0.562c0.551,0.347,0.897,0.848,1.046,1.504c0.104,0.469,0.158,1.011,0.158,1.625
		c0,0.104-0.003,0.338-0.01,0.693h-3.655c-0.013-0.293-0.022-0.492-0.035-0.598c-0.047-0.357-0.208-0.583-0.481-0.678
		c-0.416-0.141-1.554-0.211-3.41-0.211c-1.266,0-2.139,0.035-2.619,0.104c-0.586,0.082-0.949,0.401-1.09,0.958
		c-0.111,0.451-0.167,1.178-0.167,2.18c0,1.031,0.056,1.744,0.167,2.137c0.141,0.511,0.527,0.807,1.16,0.889
		c0.516,0.064,1.42,0.098,2.715,0.098c1.399,0,2.354-0.029,2.865-0.089c0.479-0.053,0.785-0.226,0.914-0.519
		C140.829,344.826,140.887,344.425,140.898,343.868z"/>
	<path fill="#F7F7F7" d="M145.855,336.503h3.842v4.289h8.252v-4.289h3.842V348.5h-3.842v-4.352h-8.252v4.352h-3.842V336.503z"/>
</g>
</svg>
