<?xml version="1.0" encoding="utf-8"?>
<!-- Generator: Adobe Illustrator 16.0.0, SVG Export Plug-In . SVG Version: 6.00 Build 0)  -->
<!DOCTYPE svg PUBLIC "-//W3C//DTD SVG 1.1//EN" "http://www.w3.org/Graphics/SVG/1.1/DTD/svg11.dtd">
<svg version="1.1" id="Layer_1" xmlns="http://www.w3.org/2000/svg" xmlns:xlink="http://www.w3.org/1999/xlink" x="0px" y="0px"
	 width="270px" height="380px" viewBox="0 0 270 380" enable-background="new 0 0 270 380" xml:space="preserve">
<rect x="-0.5" y="0.5" fill="#FFFFFF" width="270" height="380"/>
<rect x="-0.5" y="0.5" fill="#111111" width="270" height="380"/>
<g>
	<path fill="#7A191A" d="M240.264,160.294c-0.62-1.581-1.404-2.794-1.947-4.794h0.015c-0.039,0-0.063-0.083-0.098-0.167
		c-0.07-0.217-0.137-0.397-0.196-0.616c-0.11-0.41-0.212-0.853-0.284-1.325c-0.048-2.337,2.104-3.136,2.188-5.823
		c0.089-2.891-1.66-4.38-2.189-4.765c-0.021-0.031-0.041-0.061-0.063-0.092c0.012-0.041,0.023-0.077,0.035-0.117
		c3.364-2.733,1.9-6.447,1.9-6.447c-0.714-0.38-1.475-0.618-2.017-1.101c-4.874-4.34-5.176-7.456-1.345-12.683
		c0.974-1.331,1.962-2.668,2.771-4.1c1.979-3.502,1.528-5.167-2.033-7.153c-2.561-1.428-5.329-2.493-7.851-3.983
		c-7.185-4.245-13.296-9.574-16.922-17.049c2.44-4.35,2.44-4.35,1.465-7.125c-0.888,0.972-1.716,1.879-3.021,3.308
		c0-3.426,0.33-6.044-0.094-8.533c-0.413-2.423-0.954-5.384-2.564-6.942c-5.862-5.669-9.184-12.688-12.268-19.995
		c-2.28-5.4-4.715-10.854-9.18-14.872c-2.247-2.022-5.028-3.451-7.577-5.154c0-1.522,0.019-2.981-0.004-4.439
		c-0.023-1.458,0.043-2.933-0.154-4.371c-0.789-5.745-4.877-8.499-10.567-7.357c-3.574,0.717-7.174,1.391-10.794,1.757
		c-2.121,0.214-4.026,0.144-3.622-3.856c1.821,0,3.553,0,6.032,0c-1.241,0-1.702-1.735-2.324-1.987
		c-2.482-1.002-4.545-0.404-5.73,1.568c-1.404,2.333,0.028,4.03,1.691,5.117c1.43,0.935,3.376,1.62,5.047,1.534
		c3.633-0.188,7.233-0.946,10.851-1.456c3.148-0.443,5.002,0.659,5.629,3.669c0.299,1.436,0.052,2.986,0.052,4.001
		c-4.178-1.555-7.814-3.786-11.626-4.147c-8.349-0.793-16.802-1.024-25.181-0.686c-3.465,0.139-7.285,1.698-10.168,3.718
		c-5.109,3.581-10.608,5.661-16.598,6.896c-2.864,0.591-5.737,1.291-8.483,2.281c-5.269,1.898-9.692,4.879-12.955,9.697
		c-1.792,2.645-4.31,4.994-6.953,6.826c-5.158,3.578-10.113,7.218-13.645,12.57c-1.923,2.917-4.633,4.732-8.807,3.497
		c-1.241-4.768-5.472-5.517-9.694-6.093c-1.981-0.272-4.073-0.36-6.037-0.045c-11.513,1.845-21.97,6.247-30.126,14.69
		c-7.377,7.637-6.671,11.646-3.078,18.204c2.319,4.231,2.395,8.353-0.313,12.459c-2.106,3.193-2.888,6.756-2.327,10.51
		c1.443,9.673,4.575,18.224,15.066,21.63c0.691,0.223,1.299,0.682,1.964,0.99c2.388,1.105,3.534,2.912,3.781,5.585
		c0.162,1.73,0.551,3.772,1.606,5.032c7.017,8.375,22.957,9.554,28.135-2.192c0.213-0.485,0.701-0.849,1.062-1.268
		c0.343,0.15,0.685,0.299,1.027,0.449c-0.303,1.514-0.606,3.027-0.91,4.541c-0.394,1.965-1.353,4.013-1.08,5.881
		c1.028,7.039,1.667,14.288,3.936,20.953c2.755,8.094,9.584,16.39,21.08,14.827c3.987-0.543,7.62,0.438,11.031,2.51
		c1.409,0.854,2.985,1.431,4.395,2.279c3.619,2.182,7.3,2.132,11.075,0.521c2.275-0.97,4.553-1.941,7.113-3.032
		c-1.303,4.541-2.56,8.531-3.583,12.58c-1.502,5.941-4.08,10.622-11.17,10.652c-0.129,0-0.256,0.229-0.541,0.497
		c0.531,1.557,1.096,3.209,1.625,4.758c-3.854,5.703-10.548,5.941-15.675,8.853c10.055,0.093,17.292-4.779,18.178-11.866
		c5.516-1.778,8.769-5.658,10.374-11.147c0.873-2.99,1.81-5.98,3.003-8.852c1.961-4.729,5.385-7.55,10.568-7.678
		c-0.34,3.619-0.65,6.931-0.961,10.241c-7.513,1.669-7.662,1.853-7.342,9.342c-1.778,1.425-3.638,2.916-6.387,5.121
		c6.995-1.604,8.355-3.32,9.017-10.351c1.054-0.365,2.205-0.896,3.414-1.161c4.505-0.985,4.619-0.965,4.137-5.661
		c-0.283-2.748,0.831-4.49,3.553-6.365c0.508,1.984,1.002,3.47,1.253,4.996c0.356,2.16,0.616,4.344,0.77,6.527
		c0.581,8.321-0.069,16.454-3.884,24.079c-4.673,9.34-9.364,18.675-13.947,28.059c-1.319,2.7-2.789,4.755-5.811,6.103
		c-4.792,2.14-8.338,7.366-8.716,12.171c17.143,3.313,29.564,7.809,46.111,21.16c10.84,8.747,22.317,12.706,33.033,13.995
		c0.003-0.004,11.514-15.405,22.194-36.581c-0.272-0.41-0.544-0.819-0.813-1.229c-7.021-10.651-12.958-20.889-14.661-25.304
		c-3.205-8.309-4.312-16.471-2.396-25.243c2.229-10.205,4.081-20.456,8.718-29.967c2.711-5.562,6.913-8.664,12.943-9.953
		c7.155-1.528,14.259-3.412,21.283-5.469C240.218,174.124,243.141,167.621,240.264,160.294z"/>
</g>
<g>
	<path fill="#663442" stroke="#D3B8C8" stroke-miterlimit="10" d="M118.463,126.513l3.834-5.368l-4.202-4.202l-5.367,3.834
		c-0.996-0.557-2.061-1-3.182-1.318l-1.084-6.506h-5.941l-1.084,6.507c-1.12,0.316-2.186,0.761-3.181,1.317l-5.367-3.834
		l-4.201,4.202l3.834,5.368c-0.557,0.995-1.001,2.061-1.318,3.181l-6.507,1.085v5.941l6.507,1.085
		c0.317,1.118,0.761,2.185,1.317,3.181l-3.833,5.367l4.202,4.202l5.367-3.834c0.995,0.557,2.061,1,3.18,1.318l1.085,6.506h5.941
		l1.084-6.506c1.12-0.317,2.186-0.761,3.182-1.318l5.367,3.834l4.201-4.201l-3.834-5.368c0.556-0.994,1-2.061,1.317-3.18
		l6.507-1.084v-5.941l-6.506-1.085C119.464,128.574,119.02,127.508,118.463,126.513z M105.492,139.69
		c-3.282,0-5.941-2.661-5.941-5.941c0-3.282,2.659-5.942,5.941-5.942c3.281,0,5.941,2.66,5.941,5.942
		C111.434,137.029,108.773,139.69,105.492,139.69z M179.761,95.129v-5.942l-6.256-1.136c-0.115-0.748-0.263-1.484-0.438-2.209
		l5.344-3.444l-2.273-5.489l-6.215,1.343c-0.392-0.642-0.811-1.264-1.253-1.868l3.621-5.23l-4.201-4.202l-5.231,3.622
		c-0.604-0.442-1.227-0.861-1.867-1.253l1.342-6.215l-5.489-2.273l-3.443,5.343c-0.726-0.175-1.462-0.323-2.209-0.438l-1.138-6.255
		h-5.941l-1.137,6.255c-0.747,0.115-1.483,0.263-2.209,0.438l-3.444-5.343l-5.488,2.273l1.343,6.215
		c-0.642,0.391-1.264,0.81-1.868,1.253l-5.231-3.622l-4.2,4.202l3.621,5.229c-0.442,0.605-0.861,1.228-1.252,1.869l-6.215-1.343
		l-2.273,5.489l5.344,3.444c-0.176,0.725-0.324,1.461-0.439,2.209l-6.255,1.136v5.942l6.255,1.137
		c0.115,0.747,0.264,1.483,0.439,2.209l-5.343,3.444l2.272,5.489l6.215-1.344c0.392,0.642,0.81,1.265,1.253,1.869l-3.622,5.23
		l4.201,4.201l5.23-3.621c0.605,0.442,1.228,0.861,1.869,1.253l-1.343,6.214l5.488,2.273l3.444-5.343
		c0.725,0.176,1.461,0.324,2.209,0.438l1.137,6.256h5.941l1.138-6.256c0.747-0.114,1.483-0.262,2.209-0.438l3.444,5.344l5.488-2.274
		l-1.342-6.215c0.642-0.392,1.264-0.811,1.868-1.252l5.23,3.621l4.201-4.201l-3.621-5.23c0.442-0.604,0.861-1.227,1.253-1.869
		l6.215,1.344l2.273-5.489l-5.344-3.444c0.176-0.726,0.323-1.462,0.438-2.209L179.761,95.129z M147.082,105.081
		c-7.137,0-12.922-5.785-12.922-12.921c0-7.138,5.785-12.923,12.922-12.923c7.138,0,12.923,5.785,12.923,12.923
		C160.005,99.295,154.22,105.081,147.082,105.081z"/>
</g>
<g>
	<path fill="#F7F7F7" d="M34.771,320.503h3.841v8.938h8.534v3.059H34.771V320.503z"/>
	<path fill="#F7F7F7" d="M47.981,320.503h3.841V332.5h-3.841V320.503z"/>
	<path fill="#F7F7F7" d="M53.5,320.503h6.407l6.284,8.947h0.378l-0.088-8.947H70.2V332.5h-6.354l-6.311-8.956h-0.396l0.079,8.956
		H53.5V320.503z"/>
	<path fill="#F7F7F7" d="M71.878,332.5v-11.997h8.657c1.881,0,3.097,0.032,3.647,0.097c1.066,0.123,1.852,0.401,2.355,0.835
		c0.539,0.469,0.894,1.225,1.063,2.268c0.082,0.498,0.123,1.368,0.123,2.61c0,1.588-0.07,2.692-0.211,3.313
		c-0.193,0.844-0.51,1.465-0.949,1.863c-0.299,0.275-0.662,0.483-1.09,0.624s-1.005,0.243-1.731,0.308
		c-0.574,0.053-1.641,0.079-3.199,0.079H71.878z M75.482,329.441h5.089c1.031,0,1.802-0.041,2.312-0.123
		c0.568-0.094,0.926-0.407,1.072-0.94c0.111-0.387,0.167-0.996,0.167-1.828c0-0.891-0.059-1.544-0.176-1.96
		c-0.141-0.521-0.463-0.838-0.967-0.949c-0.398-0.094-1.213-0.141-2.443-0.141h-5.054V329.441z"/>
	<path fill="#F7F7F7" d="M89.167,320.503h13.289v2.821H92.77v1.731h9.193v2.637H92.77v1.925h9.756v2.883H89.167V320.503z"/>
	<path fill="#F7F7F7" d="M103.668,320.503h6.407l6.284,8.947h0.378l-0.088-8.947h3.718V332.5h-6.354l-6.311-8.956h-0.396
		l0.079,8.956h-3.718V320.503z"/>
	<path fill="#F7F7F7" d="M122.046,332.5v-11.997h8.622c1.834,0.006,2.924,0.021,3.27,0.044c0.785,0.047,1.362,0.188,1.731,0.422
		c0.422,0.27,0.697,0.642,0.826,1.116c0.117,0.451,0.176,0.961,0.176,1.529c0,0.703-0.067,1.233-0.202,1.591
		c-0.223,0.58-0.694,0.976-1.415,1.187c0.533,0.094,0.929,0.229,1.187,0.404c0.586,0.393,0.879,1.219,0.879,2.479
		c0,0.979-0.152,1.702-0.457,2.171c-0.27,0.41-0.68,0.691-1.23,0.844c-0.469,0.123-1.254,0.188-2.355,0.193l-2.382,0.018H122.046z
		 M125.527,325.231h5.15c1.131,0,1.805-0.044,2.021-0.132c0.287-0.111,0.431-0.398,0.431-0.861c0-0.475-0.173-0.759-0.519-0.853
		c-0.135-0.035-0.779-0.056-1.934-0.062h-5.15V325.231z M125.527,329.617h5.168c0.961-0.006,1.526-0.012,1.696-0.018
		c0.533-0.023,0.873-0.129,1.02-0.316c0.111-0.152,0.167-0.387,0.167-0.703c0-0.504-0.182-0.8-0.545-0.888
		c-0.129-0.035-0.908-0.056-2.338-0.062h-5.168V329.617z"/>
	<path fill="#F7F7F7" d="M138.385,320.503h13.289v2.821h-9.685v1.731h9.193v2.637h-9.193v1.925h9.755v2.883h-13.359V320.503z"/>
	<path fill="#F7F7F7" d="M152.887,332.5v-11.997h8.834c2.086,0.006,3.316,0.026,3.691,0.062c0.428,0.041,0.814,0.166,1.164,0.373
		c0.348,0.209,0.619,0.474,0.812,0.796c0.199,0.346,0.32,0.706,0.361,1.081c0.053,0.439,0.078,0.97,0.078,1.591
		c0,0.979-0.066,1.661-0.201,2.048c-0.205,0.574-0.592,0.973-1.16,1.195c-0.193,0.076-0.484,0.144-0.871,0.202
		c0.768,0.059,1.318,0.278,1.652,0.659c0.146,0.17,0.25,0.365,0.312,0.584c0.061,0.221,0.104,0.541,0.127,0.963
		c0.006,0.217,0.01,0.659,0.01,1.327v1.116h-3.604v-0.642c0-0.715-0.033-1.228-0.098-1.538c-0.094-0.445-0.33-0.709-0.711-0.791
		c-0.252-0.053-0.783-0.079-1.592-0.079h-5.15v3.05H152.887z M156.543,326.453h5.143c0.768-0.012,1.221-0.023,1.361-0.035
		c0.516-0.029,0.842-0.188,0.977-0.475c0.094-0.199,0.141-0.536,0.141-1.011c0-0.41-0.041-0.715-0.123-0.914
		c-0.123-0.293-0.42-0.457-0.889-0.492c-0.164-0.012-0.656-0.021-1.477-0.026h-5.133V326.453z"/>
	<path fill="#F7F7F7" d="M176.424,325.697h8.359c0.012,0.264,0.018,0.434,0.018,0.51c0,1.57-0.045,2.783-0.133,3.639
		c-0.141,1.383-0.926,2.221-2.355,2.514c-0.738,0.146-1.547,0.234-2.426,0.264c-0.932,0.035-2.035,0.053-3.312,0.053
		c-2.268,0-3.889-0.082-4.861-0.246c-1.348-0.223-2.182-0.844-2.504-1.863c-0.158-0.498-0.25-1.069-0.273-1.714
		c-0.029-0.809-0.043-1.67-0.043-2.584c0-1.547,0.072-2.634,0.219-3.261c0.211-0.873,0.574-1.488,1.09-1.846
		c0.27-0.193,0.607-0.341,1.016-0.443c0.406-0.103,0.982-0.187,1.727-0.251c1.049-0.094,2.467-0.141,4.254-0.141
		c2.297,0,3.924,0.091,4.879,0.272c0.967,0.182,1.646,0.504,2.039,0.967c0.346,0.416,0.557,1.072,0.633,1.969
		c0.018,0.24,0.025,0.609,0.025,1.107h-3.656c-0.006-0.328-0.023-0.551-0.053-0.668c-0.082-0.299-0.342-0.478-0.781-0.536
		c-0.58-0.076-1.723-0.114-3.428-0.114c-1.518,0-2.57,0.05-3.156,0.149c-0.557,0.1-0.893,0.404-1.01,0.914
		c-0.094,0.387-0.141,1.075-0.141,2.065c0,1.137,0.049,1.913,0.148,2.329c0.129,0.557,0.527,0.867,1.195,0.932
		c0.328,0.029,1.318,0.056,2.971,0.079c1.805-0.012,2.969-0.047,3.49-0.105c0.475-0.076,0.746-0.284,0.816-0.624
		c0.041-0.211,0.062-0.533,0.062-0.967h-4.809V325.697z"/>
	<path fill="#F7F7F7" d="M34.771,348.5v-11.997h8.833c2.086,0.006,3.316,0.026,3.691,0.062c0.428,0.041,0.816,0.166,1.165,0.373
		c0.349,0.209,0.62,0.474,0.813,0.796c0.199,0.346,0.319,0.706,0.36,1.081c0.053,0.439,0.079,0.97,0.079,1.591
		c0,0.979-0.067,1.661-0.202,2.048c-0.205,0.574-0.592,0.973-1.16,1.195c-0.193,0.076-0.483,0.144-0.87,0.202
		c0.768,0.059,1.318,0.278,1.652,0.659c0.146,0.17,0.25,0.365,0.312,0.584c0.062,0.221,0.104,0.541,0.127,0.963
		c0.006,0.217,0.009,0.659,0.009,1.327v1.116h-3.604v-0.642c0-0.715-0.032-1.228-0.097-1.538c-0.094-0.445-0.331-0.709-0.712-0.791
		c-0.252-0.053-0.782-0.079-1.591-0.079h-5.15v3.05H34.771z M38.427,342.453h5.142c0.768-0.012,1.222-0.023,1.362-0.035
		c0.516-0.029,0.841-0.188,0.976-0.475c0.094-0.199,0.141-0.536,0.141-1.011c0-0.41-0.041-0.715-0.123-0.914
		c-0.123-0.293-0.419-0.457-0.888-0.492c-0.164-0.012-0.656-0.021-1.477-0.026h-5.133V342.453z"/>
	<path fill="#F7F7F7" d="M50.969,336.503h13.289v2.821h-9.686v1.731h9.193v2.637h-9.193v1.925h9.756v2.883H50.969V336.503z"/>
	<path fill="#F7F7F7" d="M65.049,344.527h3.542c-0.006,0.592,0.114,0.973,0.36,1.143c0.129,0.082,0.275,0.138,0.439,0.167
		s0.451,0.05,0.861,0.062c0.205,0.006,0.876,0.012,2.013,0.018c1.559-0.006,2.461-0.015,2.707-0.026
		c0.463-0.035,0.768-0.097,0.914-0.185c0.205-0.129,0.308-0.416,0.308-0.861c0-0.305-0.064-0.519-0.193-0.642
		c-0.176-0.17-0.595-0.261-1.257-0.272c-0.457,0-1.412-0.035-2.865-0.105c-1.5-0.07-2.473-0.111-2.918-0.123
		c-1.16-0.035-1.978-0.17-2.452-0.404c-0.609-0.299-1.008-0.809-1.195-1.529c-0.105-0.398-0.158-0.92-0.158-1.564
		c0-1.359,0.258-2.317,0.773-2.874c0.387-0.422,0.973-0.7,1.758-0.835c0.709-0.117,2.396-0.176,5.062-0.176
		c1.734,0,2.959,0.05,3.674,0.149c0.943,0.135,1.623,0.369,2.039,0.703c0.562,0.463,0.844,1.292,0.844,2.487
		c0,0.129-0.003,0.334-0.009,0.615h-3.542c-0.012-0.287-0.032-0.486-0.062-0.598c-0.082-0.328-0.352-0.513-0.809-0.554
		c-0.404-0.035-1.389-0.053-2.953-0.053c-1.547,0-2.464,0.044-2.751,0.132c-0.322,0.105-0.483,0.378-0.483,0.817
		c0,0.422,0.17,0.68,0.51,0.773c0.287,0.076,1.579,0.149,3.876,0.22c2.08,0.059,3.407,0.132,3.981,0.22
		c0.58,0.088,1.042,0.22,1.384,0.396s0.617,0.425,0.822,0.747c0.311,0.475,0.466,1.239,0.466,2.294c0,1.178-0.152,2.042-0.457,2.593
		c-0.305,0.545-0.803,0.917-1.494,1.116c-0.68,0.199-2.552,0.299-5.616,0.299c-1.863,0-3.208-0.05-4.034-0.149
		c-1.008-0.117-1.731-0.346-2.171-0.686c-0.475-0.363-0.756-0.876-0.844-1.538c-0.047-0.322-0.07-0.703-0.07-1.143V344.527z"/>
	<path fill="#F7F7F7" d="M81.001,336.503h13.289v2.821h-9.686v1.731h9.193v2.637h-9.193v1.925h9.756v2.883H81.001V336.503z"/>
	<path fill="#F7F7F7" d="M108.529,348.5l-1.028-2.03h-7.937l-1.028,2.03h-4.175l6.363-11.997h5.678l6.275,11.997H108.529z
		 M106.217,343.842l-2.312-4.544h-0.729l-2.312,4.544H106.217z"/>
	<path fill="#F7F7F7" d="M113.222,348.5v-11.997h8.833c2.086,0.006,3.316,0.026,3.691,0.062c0.428,0.041,0.816,0.166,1.165,0.373
		c0.349,0.209,0.62,0.474,0.813,0.796c0.199,0.346,0.319,0.706,0.36,1.081c0.053,0.439,0.079,0.97,0.079,1.591
		c0,0.979-0.067,1.661-0.202,2.048c-0.205,0.574-0.592,0.973-1.16,1.195c-0.193,0.076-0.483,0.144-0.87,0.202
		c0.768,0.059,1.318,0.278,1.652,0.659c0.146,0.17,0.25,0.365,0.312,0.584c0.062,0.221,0.104,0.541,0.127,0.963
		c0.006,0.217,0.009,0.659,0.009,1.327v1.116h-3.604v-0.642c0-0.715-0.032-1.228-0.097-1.538c-0.094-0.445-0.331-0.709-0.712-0.791
		c-0.252-0.053-0.782-0.079-1.591-0.079h-5.15v3.05H113.222z M116.878,342.453h5.142c0.768-0.012,1.222-0.023,1.362-0.035
		c0.516-0.029,0.841-0.188,0.976-0.475c0.094-0.199,0.141-0.536,0.141-1.011c0-0.41-0.041-0.715-0.123-0.914
		c-0.123-0.293-0.419-0.457-0.888-0.492c-0.164-0.012-0.656-0.021-1.477-0.026h-5.133V342.453z"/>
	<path fill="#F7F7F7" d="M140.899,343.868h3.656c0.023,0.586,0.035,0.987,0.035,1.204c0,0.873-0.138,1.573-0.413,2.101
		c-0.287,0.551-0.835,0.935-1.644,1.151c-0.885,0.24-2.414,0.36-4.588,0.36c-2.396,0-4.011-0.038-4.843-0.114
		c-0.773-0.064-1.383-0.167-1.828-0.308s-0.814-0.346-1.107-0.615c-0.393-0.363-0.642-0.844-0.747-1.441
		c-0.117-0.627-0.176-1.834-0.176-3.621c0-1.717,0.044-2.874,0.132-3.472c0.129-0.896,0.478-1.547,1.046-1.951
		c0.434-0.305,1.125-0.521,2.074-0.65c0.984-0.129,2.751-0.193,5.3-0.193c1.518,0,2.599,0.032,3.243,0.097
		c0.973,0.094,1.682,0.281,2.127,0.562c0.551,0.346,0.899,0.847,1.046,1.503c0.105,0.469,0.158,1.011,0.158,1.626
		c0,0.105-0.003,0.337-0.009,0.694h-3.656c-0.012-0.293-0.023-0.492-0.035-0.598c-0.047-0.357-0.208-0.583-0.483-0.677
		c-0.416-0.141-1.553-0.211-3.41-0.211c-1.266,0-2.139,0.035-2.619,0.105c-0.586,0.082-0.949,0.401-1.09,0.958
		c-0.111,0.451-0.167,1.178-0.167,2.18c0,1.031,0.056,1.743,0.167,2.136c0.141,0.51,0.527,0.806,1.16,0.888
		c0.516,0.064,1.421,0.097,2.716,0.097c1.4,0,2.355-0.029,2.865-0.088c0.48-0.053,0.785-0.226,0.914-0.519
		C140.829,344.826,140.887,344.425,140.899,343.868z"/>
	<path fill="#F7F7F7" d="M145.856,336.503h3.841v4.289h8.252v-4.289h3.842V348.5h-3.842v-4.351h-8.252v4.351h-3.841V336.503z"/>
</g>
</svg>
