<?xml version="1.0" encoding="utf-8"?>
<!-- Generator: Adobe Illustrator 16.0.0, SVG Export Plug-In . SVG Version: 6.00 Build 0)  -->
<!DOCTYPE svg PUBLIC "-//W3C//DTD SVG 1.1//EN" "http://www.w3.org/Graphics/SVG/1.1/DTD/svg11.dtd">
<svg xmlns:dc="http://purl.org/dc/elements/1.1/"
	 xmlns:sodipodi="http://sodipodi.sourceforge.net/DTD/sodipodi-0.dtd" xmlns:svg="http://www.w3.org/2000/svg" xmlns:inkscape="http://www.inkscape.org/namespaces/inkscape" xmlns:cc="http://creativecommons.org/ns#" xmlns:rdf="http://www.w3.org/1999/02/22-rdf-syntax-ns#" xmlns:xlink="http://www.w3.org/1999/xlink" version="1.1" id="svg8" inkscape:version="0.92.2 5c3e80d, 2017-08-06"
	 sodipodi:docname="MyModule.svg" xmlns="http://www.w3.org/2000/svg" x="0px" y="0px" width="180px" height="380px"
	 viewBox="33 230.5 180 380" enable-background="new 33 230.5 180 380" xml:space="preserve">
<rect id="Panel" x="33" y="230.5" fill="#1C1C1C" width="180" height="380"/>
<g>
	<path fill="#7A191A" d="M156.673,379.212c0,0-0.67,3.86-1.527,5.551c-0.859,1.689-1.578,4.634-1.771,6.324
		c-0.195,1.689-0.475,4.059-0.428,6.036c0.049,1.978-0.957,7.24-1.389,8.158c-0.43,0.92-1.146,3.189-1.146,3.189
		s-0.576,1.542-0.908,2.121c-0.334,0.579-1.625,2.176-2.246,4.25c-0.619,2.075-1.838,5.163-1.885,5.599s-1.715,5.431-1.83,5.752
		c-0.115,0.318-1.902,4.712-2.445,5.58c-0.545,0.867-2.58,5.991-2.74,6.334c-0.158,0.344-2.059,5.352-2.059,5.352l-1.473,3.888
		c0,0-0.336,0.459-0.316,1.145c0.012,0.387,0.146,2.979,0.379,5.146c0.186,1.672,0.479,3.085,0.479,3.085s0.797,8.186,0.797,9.397
		c0,1.216-0.385,7.298-1.043,10.363c-0.658,3.064-2.738,10.838-2.738,10.838s-2.852,8.187-3.238,9.264
		c-0.387,1.076-2.945,6.742-3.354,7.775c-0.406,1.029-2.014,4.661-2.645,7.866c-0.637,3.204-1.154,5.466-1.678,7.068
		c-0.523,1.6-1.609,4.045-1.881,4.571c-0.271,0.529-0.246,1.059-0.34,1.512c-0.09,0.457-0.113,0.615-0.293,0.869
		c-0.182,0.252-0.32,0.866-0.34,1.095c-0.021,0.231-0.133,0.299-0.293,0.573c-0.158,0.273-0.273,0.728-0.545,0.844
		s0.068,0.349-0.068,0.532c-0.135,0.181-0.248,0.46-0.385,0.615c-0.135,0.159-0.227,0.343-0.34,0.526
		c-0.111,0.181-0.158,0.232-0.158,0.526s-0.02,0.453-0.178,0.708c-0.162,0.252-0.252,0.55-0.365,0.663
		c-0.111,0.113-0.135,0.294-0.135,0.524c0,0.229-0.113,0.823-0.113,0.823s0.021,0.32-0.295,0.915
		c-0.316,0.597-0.451,0.846-0.451,0.846l0.045,12.581c0,0-0.436,6.446-0.795,9.283c-0.359,2.839-0.971,7.658-1.062,8.415
		c-0.092,0.759-0.725,7.939-0.725,9.104s-0.205,5.581-0.137,5.968s0.252,0.436,0.252,0.914c0,0.481,0.039,1.373,0.088,1.878
		c0.047,0.502,0.27,1.051,0.295,1.325c0.023,0.274-0.229,0.822-0.229,0.822s0.523,1.783,0.93,2.424
		c0.408,0.642,1.654,2.287,4.688,3.567c3.035,1.282,5.434,2.585,5.434,2.585s3.031,1.372,3.713,1.44
		c0.678,0.068,1.545,0.616,1.768,0.848c0.223,0.229,1.195,1.305,1.74,1.418c0.547,0.112,1.699,0.299,2.176,0.48
		c0.475,0.183,1.018,0.706,1.018,0.868c0,0.16,0.111,0.41,0.111,0.41l0.59,0.415c0,0,1.02,0.589,1.518,0.844
		c0.5,0.254,1.223,0.303,1.246,0.757c0.023,0.455,0.109,0.57,0.109,0.57s1.859,0.066,1.883,0.066s0.451,0.78,0.316,1.466
		c-0.137,0.684-0.408,1.212-0.588,1.281c-0.18,0.068-0.229,0.181-0.432,0.181c-0.205,0-0.227,0.138-0.295,0.275
		c-0.068,0.137-0.199,0.668-0.633,0.689c-0.43,0.02-0.725,0.02-0.725,0.02s-0.199,0.391-0.52,0.527s-0.682,0.206-1.09,0.206
		c-0.404,0-0.543-0.044-0.654-0.069c-0.113-0.022-0.131,0.11-0.314,0.297c-0.184,0.185-0.703,0.32-1.27,0.392
		c-0.568,0.066-1.133-0.028-1.246-0.05c-0.111-0.021-0.295-0.068-0.295-0.068s0.023,0.276-0.748,0.415
		c-0.77,0.137-2.33,0.204-2.832,0.181c-0.494-0.024-3.213,0.229-3.801,0.298c-0.588,0.07-2.871-0.224-3.258-0.274
		c-0.387-0.048-3.963-0.435-4.779-0.457c-0.812-0.026-4.188-0.711-5.387-0.686c-1.203,0.022-3.215,0.161-3.215,0.161
		s-3.92,0.225-5.072,0.089c-1.154-0.14-2.197-0.206-2.604-0.25c-0.408-0.047-1.629-0.664-2.037-1.509
		c-0.406-0.848-0.361-1.513-0.361-1.719c0-0.203-0.068-1.186-0.203-1.414c-0.137-0.229-0.412-0.826-0.523-1.17
		c-0.113-0.343-0.066-1.325-0.066-1.714c0-0.388-0.135-1.766,0.113-2.609s0.428-0.572,0.383-2.355
		c-0.043-1.782-0.18-10.381-0.18-10.381s-0.721-0.159-0.746-0.387c-0.023-0.231-0.068-2.106-0.068-2.106s-0.066-1.692-0.135-2.927
		s-0.932-6.081-0.932-6.081s-1.336-9.402-1.336-10.157s-0.723-4.778-0.859-5.188c-0.135-0.413-1.424-6.981-1.424-8.535
		c0-0.634-0.221-1.799-0.281-3.132c-0.086-1.935-0.014-4.22,0.078-5.762c0.154-2.607,0.723-5.902,0.994-7.619
		c0.271-1.712,1.496-6.588,2.082-7.935c0.588-1.347,1.994-5.468,2.127-6.633c0.137-1.166,1.176-4.614,1.359-8.068
		c0.182-3.455,0.271-7.616,0.203-9.218s-0.834-6.977-0.746-8.21c0.041-0.55-0.092-2.061-0.092-3.729
		c0.004-2.09,0.189-4.286,0.252-4.984c0.111-1.26,0.746-5.697,0.746-6.291s0.34-5.605,0.271-7.045
		c-0.068-1.44-0.432-5.737-0.771-6.446c-0.34-0.71-0.857-3.634-1.086-4.438c-0.227-0.802-0.27-1.551-0.27-1.737
		c0-0.185,0-0.298,0-0.298s-0.975-1.486-1.314-3.133s-0.588-3.157-0.588-3.157s-0.139-4.045,0.09-5.67
		c0.227-1.624,1.451-6.427,1.766-7.112c0.316-0.685,1.99-4.667,3.6-6.633c0.6-0.735,1.361-1.935,2.193-2.944
		c1.4-1.698,2.83-3.161,2.83-3.161s1.357-1.854,1.518-2.06c0.16-0.206,0.16-0.554,0.592-0.848c0.43-0.295,1.627-1.688,1.832-1.964
		c0.205-0.273,2.988-4.004,3.398-5.236c0.406-1.234,2.58-4.852,2.58-4.852s1.789-3.339,1.902-3.521
		c0.111-0.182,0.361-0.755,0.361-0.755s0-0.391,0-0.664c0-0.275,0.16-0.771,0.227-0.912c0.068-0.141,0.729-1.303,0.748-1.396
		s0.18-2.104,0.18-2.104l-0.025-3.088c0,0-0.586-0.525-0.721-0.961s0.158-0.664,0.295-0.709c0.135-0.045,0.203-0.205,0.203-0.205
		s-0.045-1.076-0.068-1.558c-0.021-0.479-0.066-1.141-0.066-1.141s-0.633-0.504-0.545-0.871c0.09-0.366,0.273-0.64,0.273-0.64
		s-0.092-0.94-0.092-1.327c0-0.388-0.318-2.081-0.363-2.399s0.066-0.594-0.068-0.686c-0.135-0.093-0.18-0.228-0.18-0.48
		s-0.068-1.557-0.068-1.557l-0.227-1.919c0,0-0.045-0.182-0.248-0.549c-0.203-0.366-0.203-0.642-0.203-0.642l-0.049-0.321
		l-0.135-2.331l-0.225-2.334l-0.207-2.15c0,0-0.223-1.168-0.248-1.258c-0.023-0.088-0.271-0.729-0.271-0.729l-0.338-0.87
		l-0.229-0.594c0,0-0.949,0.291-1.289,0.363s-0.975,0.023-1.314,0.023c-0.338,0-1.562,0.391-1.83,0.529
		c-0.271,0.137-0.318,0.27-0.457,0.294c-0.135,0.023-0.229,0.435-0.229,0.435s-0.449,0.529-0.789,0.597
		c-0.338,0.069-0.338-0.048-0.746,0.113s-0.342,0.138-0.521,0.274c-0.182,0.137-0.094,0.295-0.273,0.593
		c-0.18,0.299-0.566,1.073-1.086,1.189c-0.518,0.117-1.064,0.206-1.516,0.093s-0.588-0.436-1.018-0.273
		c-0.432,0.16-1.383,0.867-1.473,0.959c-0.092,0.093-0.252,0.459-0.5,0.573c-0.246,0.112-0.699,0.16-0.699,0.16
		s-0.645,0.46-1.643,1.05c-0.963,0.572-2.262,1.268-3.199,1.793c-0.484,0.27-0.947,0.578-1.225,0.702
		c-1.383,0.616-5.094,2.556-5.594,2.812c-0.498,0.254-3.963,1.945-4.234,2.083c-0.271,0.137-0.656,0.182-0.791,0.456
		c-0.135,0.275-0.092,0.296-0.455,0.594c-0.363,0.297-0.994,0.963-1.264,1.008c-0.273,0.045-0.592,0.25-0.66-0.298
		c-0.066-0.55,0.316-0.505-0.09-0.413c-0.408,0.094-1.227,0.295-1.451,0.413c-0.223,0.116-1.561,0.548-2.172,0.753
		s-1.133,0.46-1.133,0.46s-0.318,0.068-0.611,0.138c-0.291,0.068-0.702,0.043-0.907,0.112c-0.203,0.068-2.33,1.37-2.67,1.875
		c-0.339,0.503-1.631,2.427-1.881,3.02c-0.247,0.594-1.04,1.626-1.221,2.036c-0.18,0.412-0.52,0.803-0.723,0.984
		c-0.203,0.182-0.906,0.871-1.042,1.189c-0.135,0.318-0.455,0.955-0.59,1.117c-0.135,0.16-1.45,1.947-1.63,2.222
		c-0.179,0.273-0.77,0.911-0.905,1.142c-0.137,0.229-0.812,1.188-0.927,1.326c-0.115,0.137-0.455,0.822-0.591,0.916
		c-0.136,0.092-0.25,0.346-0.296,0.436c-0.043,0.088-1.736,1.754-2.012,1.963c-0.274,0.209-0.522,0.525-0.591,0.642
		c-0.067,0.116-0.315,0.343-0.655,0.64c-0.339,0.299-0.683,0.525-0.861,0.688c-0.181,0.16-0.479,0.616-0.635,0.754
		c-0.156,0.137-0.472,0.846-1.062,0.846c-0.591,0-0.863-0.16-0.863-0.686c0-0.524,0.184-1.213,0.523-1.602
		c0.34-0.387,0.679-1.164,0.679-1.164s-0.36,0.116-0.476,0.161c-0.115,0.044-2.242,1.532-2.515,1.646
		c-0.271,0.113-1.36,1.072-1.744,1.164c-0.384,0.094-0.675,0.348-1.063,0.529c-0.386,0.182-1.177,0.911-1.584,0.73
		c-0.407-0.184-0.565-0.393-0.634-0.711c-0.067-0.318,0.044-0.777-0.136-0.846c-0.18-0.068-0.499,0.044-0.61,0.137
		c-0.113,0.092-1.429,1.374-1.812,1.236c-0.385-0.136-0.428-0.369-0.587-0.664c-0.159-0.294-0.275-0.299-0.183-0.709
		c0.09-0.412,0.318-0.549,0.159-0.593c-0.159-0.046-0.522-0.048-0.635-0.298c-0.113-0.251-0.387-0.961,0.204-2.082
		c0.59-1.121,1.992-2.492,2.558-2.834c0.567-0.344,4.504-4.029,5.026-4.416s1.292-1.027,1.7-1.576
		c0.407-0.549,1.334-1.76,1.629-2.355c0.294-0.597,1.225-2.148,1.065-2.148s-0.638,0.565-0.954,0.912
		c-0.315,0.346-1.474,1.627-1.72,1.878c-0.248,0.25-1.656,1.484-2.22,1.782c-0.563,0.299-1.333,0.66-1.876,0.455
		c-0.542-0.205-0.879-0.613-1.018-0.936c-0.139-0.321-0.204-0.986,0.067-1.443c0.272-0.455,0.652-0.955,0.768-1.049
		c0.115-0.092,0.659-0.777,0.793-0.914c0.136-0.137,1.134-1.327,1.518-1.602c0.383-0.273,1.038-0.73,1.333-0.983
		c0.295-0.253,1.514-1.396,1.833-2.198c0.319-0.801,1.069-1.531,1.611-1.874c0.544-0.344,2.036-1.824,2.24-2.033
		s1.788-1.468,2.966-1.511c1.178-0.045,1.312,0.068,2.151,0.023c0.838-0.045,2.467-1.098,2.942-1.396s1.338-0.915,1.338-0.915
		s0.067-0.209,0.135-0.299c0.067-0.089,2.898-1.943,2.898-1.943s-2.016,0.183-2.424-0.299c-0.407-0.479-0.518-0.314-0.18-1.254
		c0.34-0.938,1.11-1.027,1.585-1.258c0.476-0.23,1.537-0.668,1.673-0.688c0.137-0.021,1.633-0.202,2.176-0.364
		c0.543-0.16,1.178-0.754,1.426-0.983c0.246-0.229,2.307-1.145,2.67-1.214c0.363-0.068,1.336-0.775,1.676-0.799
		s1.584-0.527,1.584-0.527s4.758-4.049,4.982-4.254c0.223-0.206,3.215-2.379,3.645-2.585c0.432-0.206,1.9-1.097,2.037-1.142
		c0.135-0.044,0.566-0.229,0.566-0.229s-0.227-0.367-0.543-0.572c-0.316-0.206-0.77-2.335-0.703-3.339
		c0.068-1.004,0.344-1.803,0.115-2.17c-0.227-0.366-0.387-1.234-0.59-1.557s-0.496-0.66-0.814-0.754
		c-0.32-0.092-1.043-1.807-1.178-2.311c-0.137-0.504-0.654-1.439-0.746-1.601s-0.523-1.467-0.59-1.58
		c-0.068-0.113-0.389-3.062-0.545-3.702s-0.199-0.987-0.314-1.512c-0.117-0.523-0.07-2.379-0.184-2.652
		c-0.111-0.274-0.131-0.939-0.156-1.029c-0.023-0.09-0.115-2.238-0.295-2.674s-0.562-0.987-0.746-1.58
		c-0.186-0.594-0.32-0.73-0.32-1.577s-0.158-0.911,0.092-1.37c0.252-0.461,0.543-0.484,0.5-1.032
		c-0.045-0.548,0.658-2.054,0.973-2.513c0.316-0.459,0.408-0.117,0.477-0.939c0.066-0.822,0.539-1.693,0.723-1.968
		s0.223-0.182,0.271-0.866c0.047-0.686,0.387-1.969,0.387-1.969s0.359-1.714,0.859-1.943c0.498-0.229,0.928,0.041,0.928-0.528
		c0-0.568,0.387-0.843,0.635-1.072s0.611-0.755,1.562-0.823c0.949-0.068,1.287-0.113,1.424-0.137
		c0.137-0.024,0.635-0.09,0.795-0.274s0.047-0.479,0.701-0.642c0.656-0.16,0.887-0.342,1.043-0.41s0.902-0.895,2.486-1.076
		c1.586-0.182,2.105,0.205,2.83,0.137c0.727-0.068,1.746-0.613,2.176-1.004c0.432-0.392,1.785-2.197,2.172-2.815
		c0.387-0.616,1.066-1.665,1.541-1.782c0.475-0.115,1.473-0.141,2.039,0.73c0.568,0.87,1.125,1.214,1.379,1.327
		c0.25,0.112,0.996,0.092,1.27-0.046c0.27-0.137,0.885-0.641,1.199-0.434c0.316,0.204,0.564,0.66,0.564,0.66l0.793-0.044
		l0.045,0.823c0,0,0.727,1.168,1.064,1.373c0.34,0.207,0.84,0.275,1.088,0.207c0.246-0.069,0.613-0.597,0.727-0.872
		c0.111-0.274,0.154-1.282,0.451-1.463c0.295-0.181,0.857-0.456,0.992-0.161c0.066,0.141,0.168,0.329,0.295,0.395
		c0.139,0.068,0.301,0.017,0.475,0.157c0.342,0.274,0.324,0.388,0.752,0.388s1.855-0.182,1.855-0.182s1.518-0.299,2.555,1.142
		c0.68,0.946,0.389,1.984,0.389,2.307c0,0.321,0.049,2.772,0.432,4.624s1.154,3.98,1.922,5.146c0.771,1.165,2.736,2.972,2.988,3.178
		c0.25,0.206,0.908,1.468,1.09,1.923c0.178,0.455,1.473,2.584,1.789,2.858c0.314,0.274,1.309,2.9,1.469,4.251
		c0.158,1.35,0.41,4.137,0.793,4.734c0.383,0.596,1.879,3.754,2.193,4.164c0.316,0.412,1.496,1.687,1.857,1.965
		c0.365,0.277,1.65,1.072,1.834,1.669c0.182,0.597,0.207,1.237,0.41,1.648s1.197,2.835,1.334,3.339
		c0.135,0.504,0.746,1.121,0.746,1.121s1.135,2.125,1.338,2.424s2.852,2.924,3.078,3.109c0.227,0.185,2.67,3.41,2.965,3.592
		c0.297,0.182,2.148,2.537,2.469,3.932c0.318,1.396,0.521,3.479,0.59,4.508C156.831,378.348,156.673,379.212,156.673,379.212z"/>
</g>
<g>
	<path fill="#96393E" d="M133.553,285.956l2.285-3.2l-2.504-2.506l-3.201,2.286c-0.594-0.332-1.229-0.597-1.896-0.786l-0.646-3.879
		h-3.541l-0.646,3.88c-0.67,0.188-1.305,0.454-1.898,0.785l-3.199-2.286l-2.506,2.506l2.287,3.2
		c-0.332,0.593-0.596,1.229-0.785,1.896l-3.881,0.647v3.542l3.881,0.646c0.189,0.667,0.453,1.304,0.785,1.897l-2.287,3.199
		l2.508,2.506l3.199-2.287c0.592,0.332,1.229,0.597,1.896,0.787l0.646,3.879h3.541l0.646-3.879c0.668-0.189,1.303-0.455,1.896-0.787
		l3.201,2.287l2.504-2.506l-2.285-3.199c0.332-0.594,0.596-1.229,0.785-1.896l3.879-0.646v-3.542l-3.879-0.647
		C134.148,287.186,133.885,286.549,133.553,285.956z M125.818,293.812c-1.957,0-3.541-1.586-3.541-3.542
		c0-1.957,1.584-3.543,3.541-3.543s3.543,1.586,3.543,3.543C129.361,292.227,127.775,293.812,125.818,293.812z M170.1,267.244
		v-3.543l-3.73-0.678c-0.068-0.445-0.156-0.885-0.262-1.316l3.188-2.053l-1.355-3.273l-3.705,0.801
		c-0.234-0.383-0.484-0.754-0.748-1.113l2.16-3.119l-2.506-2.505l-3.117,2.159c-0.361-0.264-0.732-0.514-1.113-0.746l0.799-3.706
		l-3.271-1.354l-2.053,3.185c-0.434-0.104-0.873-0.192-1.318-0.261l-0.678-3.729h-3.543l-0.678,3.729
		c-0.445,0.068-0.883,0.156-1.316,0.261l-2.053-3.185l-3.273,1.354l0.801,3.706c-0.383,0.232-0.754,0.482-1.113,0.746l-3.119-2.159
		l-2.504,2.505l2.158,3.118c-0.264,0.36-0.512,0.731-0.746,1.114l-3.705-0.801l-1.355,3.273l3.188,2.053
		c-0.105,0.432-0.193,0.871-0.264,1.316l-3.729,0.678v3.543l3.729,0.678c0.07,0.445,0.158,0.885,0.264,1.317l-3.188,2.054
		l1.355,3.272l3.705-0.802c0.234,0.383,0.482,0.754,0.748,1.115l-2.16,3.117l2.504,2.505l3.119-2.159
		c0.361,0.264,0.732,0.514,1.113,0.748l-0.799,3.705l3.271,1.354l2.053-3.186c0.434,0.104,0.871,0.193,1.318,0.261l0.678,3.73h3.541
		l0.678-3.73c0.447-0.067,0.885-0.156,1.318-0.261l2.053,3.187l3.273-1.355l-0.801-3.706c0.383-0.233,0.754-0.483,1.113-0.747
		l3.119,2.159l2.504-2.505l-2.158-3.117c0.264-0.361,0.514-0.732,0.746-1.115l3.705,0.802l1.355-3.272l-3.186-2.054
		c0.105-0.433,0.191-0.872,0.262-1.317L170.1,267.244z M150.615,273.178c-4.254,0-7.703-3.449-7.703-7.703
		c0-4.256,3.449-7.705,7.703-7.705c4.258,0,7.705,3.449,7.705,7.705C158.32,269.729,154.873,273.178,150.615,273.178z"/>
</g>
</svg>
