<?xml version="1.0" encoding="utf-8"?>
<!-- Generator: Adobe Illustrator 16.0.0, SVG Export Plug-In . SVG Version: 6.00 Build 0)  -->
<!DOCTYPE svg PUBLIC "-//W3C//DTD SVG 1.1//EN" "http://www.w3.org/Graphics/SVG/1.1/DTD/svg11.dtd">
<svg version="1.1" id="Layer_1" xmlns="http://www.w3.org/2000/svg" xmlns:xlink="http://www.w3.org/1999/xlink" x="0px" y="0px"
	 width="300px" height="380px" viewBox="0 0 300 380" enable-background="new 0 0 300 380" xml:space="preserve">
<g id="background">
	<rect fill="#1C1C1C" width="300" height="380"/>
</g>
<g id="objetcs">
	<g>
		<path fill="#7A191A" d="M256.124,187.044c-0.62-1.581-1.403-3.044-1.947-5.044h0.015c-0.039,0-0.062,0.167-0.098,0.083
			c-0.07-0.217-0.137-0.272-0.195-0.491c-0.11-0.41-0.213-0.791-0.284-1.263c-0.048-2.337,2.104-3.104,2.188-5.792
			c0.089-2.891-1.659-4.364-2.188-4.749c-0.021-0.031-0.041-0.053-0.063-0.084c0.013-0.041,0.023-0.073,0.035-0.113
			c3.364-2.733,1.899-6.445,1.899-6.445c-0.713-0.38-1.475-0.617-2.017-1.1c-4.874-4.34-5.176-7.456-1.345-12.683
			c0.975-1.331,1.962-2.668,2.771-4.1c1.979-3.502,1.527-5.167-2.033-7.152c-2.562-1.428-5.329-2.493-7.852-3.983
			c-7.185-4.245-13.296-9.574-16.922-17.049c2.439-4.35,2.439-4.35,1.465-7.125c-0.888,0.972-1.716,1.879-3.021,3.308
			c0-3.426,0.329-6.044-0.095-8.533c-0.412-2.423-0.953-5.384-2.563-6.942c-5.862-5.669-9.185-12.688-12.269-19.995
			c-2.279-5.4-4.715-10.854-9.18-14.872c-2.246-2.022-5.027-3.451-7.576-5.154c0-1.522,0.019-2.981-0.004-4.439
			c-0.023-1.458,0.043-2.933-0.154-4.371c-0.789-5.745-4.877-8.499-10.567-7.357c-3.574,0.717-7.174,1.141-10.794,1.507
			C171.208,43.32,169.303,43,169.707,39c1.82,0,3.553,0,6.031,0c-1.24,0-1.701-1.485-2.323-1.737
			c-2.481-1.002-4.545-0.279-5.729,1.693c-1.404,2.333,0.027,4.092,1.69,5.18c1.431,0.935,3.376,1.651,5.047,1.565
			c3.634-0.188,7.233-0.93,10.851-1.44c3.148-0.443,5.002,0.667,5.629,3.677c0.3,1.436,0.053,2.99,0.053,4.005
			c-4.178-1.555-7.814-3.784-11.626-4.145c-8.349-0.793-16.802-1.023-25.181-0.685c-3.465,0.139-7.286,1.699-10.168,3.719
			c-5.109,3.581-10.607,5.661-16.598,6.896c-2.864,0.591-5.737,1.291-8.483,2.281c-5.269,1.898-9.692,4.879-12.955,9.697
			c-1.792,2.645-4.31,4.994-6.953,6.826c-5.158,3.578-10.113,7.218-13.645,12.57c-1.923,2.917-4.633,4.732-8.807,3.497
			c-1.241-4.768-5.472-5.517-9.694-6.093c-1.981-0.272-4.073-0.36-6.037-0.045c-11.513,1.845-21.97,6.247-30.126,14.69
			c-7.377,7.637-6.671,11.646-3.078,18.204c2.319,4.231,2.395,8.353-0.313,12.459c-2.106,3.193-2.888,6.756-2.327,10.51
			c1.443,9.673,4.575,18.224,15.066,21.63c0.691,0.223,1.299,0.682,1.964,0.99c2.388,1.105,3.534,2.912,3.781,5.585
			c0.162,1.729,0.551,3.771,1.606,5.032c7.017,8.375,22.957,9.554,28.135-2.192c0.213-0.485,0.701-0.849,1.062-1.268
			c0.343,0.15,0.685,0.299,1.027,0.449c-0.303,1.514-0.606,3.027-0.91,4.541c-0.394,1.965-1.353,4.013-1.08,5.881
			c1.028,7.039,1.667,14.288,3.936,20.953c2.755,8.095,9.584,16.39,21.08,14.827c3.987-0.543,7.62,0.438,11.031,2.51
			c1.409,0.854,2.985,1.432,4.396,2.279c3.618,2.182,7.3,2.132,11.074,0.521c2.275-0.971,4.553-1.941,7.113-3.032
			c-1.303,4.541-2.561,8.53-3.584,12.579c-1.502,5.941-4.08,10.623-11.17,10.652c-0.129,0-0.256,0.229-0.541,0.497
			c0.531,1.558,1.096,3.209,1.625,4.759c-3.854,5.703-10.548,5.94-15.675,8.853c10.054,0.093,17.292-4.779,18.177-11.866
			c5.517-1.777,8.77-5.658,10.374-11.146c0.873-2.99,1.81-5.98,3.003-8.853c1.961-4.729,5.385-7.55,10.568-7.678
			c-0.34,3.619-0.65,6.931-0.961,10.241c-7.514,1.668-7.662,1.853-7.342,9.342c-1.777,1.425-3.638,2.916-6.387,5.121
			c6.994-1.604,8.354-3.32,9.016-10.352c1.055-0.365,2.205-0.896,3.414-1.16c4.505-0.985,4.619-0.965,4.136-5.662
			c-0.282-2.748,0.832-4.489,3.554-6.364c0.508,1.983,1.002,3.47,1.253,4.996c0.355,2.159,0.615,4.344,0.77,6.526
			c0.582,8.321-0.068,16.454-3.884,24.079c-4.673,9.341-9.363,18.675-13.947,28.06c-1.318,2.699-2.788,4.755-5.811,6.103
			c-4.791,2.14-8.338,7.366-8.716,12.171c17.143,3.313,29.564,7.809,46.111,21.16c10.84,8.747,22.316,12.706,33.032,13.995
			c0.003-0.004,11.515-15.405,22.194-36.581c-0.271-0.41-0.544-0.818-0.812-1.229c-7.021-10.651-12.959-20.89-14.662-25.305
			c-3.205-8.309-4.312-16.471-2.396-25.242c2.229-10.205,4.081-20.457,8.718-29.968c2.711-5.562,6.913-8.663,12.943-9.952
			c7.154-1.529,14.259-3.537,21.283-5.595C256.078,200.998,259.001,194.371,256.124,187.044z"/>
	</g>
	<g>
		<path fill="#822A3D" stroke="#D3B8C8" stroke-miterlimit="10" d="M134.323,153.513l3.835-5.368l-4.202-4.202l-5.367,3.834
			c-0.996-0.557-2.061-1-3.182-1.318l-1.084-6.506h-5.941l-1.084,6.507c-1.119,0.316-2.186,0.761-3.182,1.317l-5.367-3.834
			l-4.201,4.202l3.834,5.368c-0.557,0.995-1.001,2.061-1.318,3.181l-6.507,1.085v5.941l6.507,1.085
			c0.317,1.118,0.761,2.185,1.317,3.181l-3.833,5.367l4.202,4.202l5.367-3.834c0.996,0.557,2.062,1,3.181,1.318l1.085,6.506h5.941
			l1.084-6.506c1.12-0.317,2.186-0.761,3.182-1.318l5.367,3.834l4.201-4.201l-3.834-5.368c0.557-0.994,1-2.061,1.317-3.18
			l6.507-1.084v-5.941l-6.506-1.085C135.325,155.574,134.88,154.508,134.323,153.513z M121.353,166.69
			c-3.281,0-5.941-2.661-5.941-5.941c0-3.282,2.66-5.942,5.941-5.942c3.281,0,5.941,2.66,5.941,5.942
			C127.294,164.029,124.634,166.69,121.353,166.69z M195.621,122.129v-5.942l-6.256-1.136c-0.115-0.748-0.264-1.484-0.438-2.209
			l5.345-3.444l-2.273-5.489l-6.215,1.343c-0.393-0.642-0.811-1.264-1.254-1.868l3.621-5.23l-4.2-4.202l-5.231,3.622
			c-0.604-0.442-1.227-0.861-1.867-1.253l1.342-6.215l-5.488-2.273l-3.443,5.343c-0.726-0.175-1.462-0.323-2.209-0.438l-1.138-6.255
			h-5.94l-1.138,6.255c-0.747,0.115-1.483,0.263-2.209,0.438l-3.444-5.343l-5.488,2.273l1.344,6.215
			c-0.643,0.391-1.264,0.81-1.868,1.253l-5.231-3.622l-4.2,4.202l3.62,5.229c-0.441,0.605-0.86,1.228-1.252,1.869l-6.215-1.343
			l-2.273,5.489l5.344,3.444c-0.176,0.725-0.324,1.461-0.439,2.209l-6.256,1.136v5.942l6.256,1.137
			c0.115,0.747,0.264,1.483,0.439,2.209l-5.344,3.444l2.272,5.489l6.216-1.344c0.391,0.642,0.81,1.265,1.252,1.869l-3.621,5.23
			l4.201,4.201l5.23-3.621c0.605,0.442,1.229,0.861,1.869,1.253l-1.344,6.214l5.488,2.273l3.444-5.343
			c0.726,0.176,1.461,0.324,2.209,0.438l1.138,6.256h5.94l1.138-6.256c0.747-0.114,1.483-0.262,2.209-0.438l3.444,5.344l5.487-2.274
			l-1.342-6.215c0.643-0.392,1.265-0.811,1.869-1.252l5.229,3.621l4.2-4.201l-3.621-5.23c0.443-0.604,0.861-1.227,1.254-1.869
			l6.215,1.344l2.273-5.489l-5.344-3.444c0.176-0.726,0.322-1.462,0.438-2.209L195.621,122.129z M162.941,132.081
			c-7.137,0-12.922-5.785-12.922-12.921c0-7.138,5.785-12.923,12.922-12.923c7.139,0,12.924,5.785,12.924,12.923
			C175.865,126.295,170.08,132.081,162.941,132.081z"/>
	</g>
	<g display="none">
		<path display="inline" fill="#EDEDED" d="M124.996,363.896h1.279v2.979h2.846v1.021h-4.125V363.896z"/>
		<path display="inline" fill="#EDEDED" d="M129.398,363.896h1.28v4h-1.28V363.896z"/>
		<path display="inline" fill="#EDEDED" d="M131.238,363.896h2.137l2.095,2.982h0.126l-0.029-2.982h1.239v4h-2.118l-2.104-2.985
			h-0.133l0.026,2.985h-1.239V363.896z"/>
		<path display="inline" fill="#EDEDED" d="M137.365,367.896v-4h2.886c0.627,0,1.032,0.012,1.216,0.033
			c0.355,0.041,0.617,0.133,0.785,0.275c0.18,0.156,0.298,0.408,0.354,0.758c0.027,0.166,0.041,0.455,0.041,0.868
			c0,0.528-0.023,0.897-0.07,1.104c-0.063,0.28-0.17,0.487-0.315,0.621c-0.101,0.092-0.222,0.16-0.362,0.207
			c-0.143,0.047-0.336,0.082-0.578,0.104c-0.19,0.02-0.547,0.025-1.065,0.025L137.365,367.896L137.365,367.896z M138.566,366.877
			h1.695c0.344,0,0.602-0.016,0.771-0.041c0.188-0.031,0.309-0.138,0.356-0.312c0.037-0.129,0.056-0.332,0.056-0.609
			c0-0.297-0.02-0.516-0.059-0.65c-0.047-0.175-0.154-0.279-0.322-0.316c-0.133-0.03-0.404-0.047-0.813-0.047h-1.685
			L138.566,366.877L138.566,366.877z"/>
		<path display="inline" fill="#EDEDED" d="M143.127,363.896h4.43v0.94h-3.229v0.577h3.063v0.879h-3.063v0.643h3.252v0.961h-4.453
			V363.896L143.127,363.896z"/>
		<path display="inline" fill="#EDEDED" d="M147.961,363.896h2.136l2.094,2.982h0.127l-0.028-2.982h1.237v4h-2.116l-2.104-2.985
			h-0.132l0.025,2.985h-1.238L147.961,363.896L147.961,363.896z"/>
		<path display="inline" fill="#EDEDED" d="M154.087,367.896v-4h2.874c0.611,0.002,0.975,0.008,1.09,0.016
			c0.262,0.018,0.454,0.062,0.577,0.143c0.142,0.09,0.231,0.215,0.274,0.373c0.039,0.147,0.06,0.317,0.06,0.51
			c0,0.233-0.022,0.41-0.067,0.529c-0.074,0.191-0.229,0.323-0.472,0.396c0.179,0.031,0.31,0.076,0.396,0.135
			c0.195,0.133,0.293,0.406,0.293,0.826c0,0.326-0.051,0.566-0.15,0.726c-0.091,0.138-0.229,0.229-0.41,0.279
			c-0.156,0.041-0.418,0.062-0.785,0.063l-0.793,0.006L154.087,367.896L154.087,367.896z M155.248,365.475h1.717
			c0.377,0,0.602-0.017,0.674-0.045c0.096-0.037,0.146-0.133,0.146-0.287c0-0.158-0.06-0.252-0.175-0.283
			c-0.045-0.012-0.26-0.02-0.645-0.021h-1.717V365.475L155.248,365.475z M155.248,366.936h1.723c0.32-0.002,0.51-0.004,0.564-0.006
			c0.179-0.008,0.291-0.043,0.341-0.104c0.036-0.052,0.056-0.13,0.056-0.232c0-0.168-0.061-0.269-0.182-0.296
			c-0.043-0.014-0.303-0.021-0.779-0.021h-1.723V366.936L155.248,366.936z"/>
		<path display="inline" fill="#EDEDED" d="M159.533,363.896h4.431v0.94h-3.229v0.577h3.064v0.879h-3.064v0.643h3.252v0.961h-4.452
			L159.533,363.896L159.533,363.896z"/>
		<path display="inline" fill="#EDEDED" d="M164.367,367.896v-4h2.945c0.693,0.002,1.104,0.01,1.229,0.021
			c0.143,0.014,0.271,0.057,0.389,0.125c0.115,0.066,0.207,0.155,0.271,0.266c0.065,0.114,0.104,0.234,0.118,0.359
			c0.02,0.146,0.027,0.321,0.027,0.527c0,0.326-0.022,0.557-0.068,0.686c-0.066,0.189-0.196,0.322-0.387,0.396
			c-0.063,0.024-0.16,0.048-0.289,0.066c0.256,0.02,0.438,0.094,0.551,0.221c0.05,0.057,0.082,0.121,0.104,0.194
			c0.021,0.07,0.035,0.181,0.042,0.318c0.002,0.071,0.004,0.222,0.004,0.442v0.371h-1.201v-0.214c0-0.237-0.012-0.409-0.031-0.514
			c-0.031-0.147-0.11-0.235-0.237-0.265c-0.085-0.019-0.261-0.025-0.53-0.025h-1.717v1.018L164.367,367.896L164.367,367.896z
			 M165.586,365.881h1.714c0.257-0.005,0.407-0.01,0.454-0.014c0.172-0.01,0.279-0.062,0.324-0.157
			c0.031-0.065,0.048-0.181,0.048-0.338c0-0.138-0.015-0.236-0.041-0.306c-0.041-0.098-0.14-0.149-0.296-0.164
			c-0.055-0.004-0.219-0.006-0.492-0.008h-1.711V365.881L165.586,365.881z"/>
		<path display="inline" fill="#EDEDED" d="M172.213,365.629h2.785c0.005,0.088,0.007,0.145,0.007,0.17
			c0,0.521-0.015,0.928-0.044,1.213c-0.047,0.461-0.309,0.739-0.785,0.838c-0.246,0.049-0.516,0.078-0.809,0.088
			c-0.312,0.013-0.68,0.019-1.104,0.019c-0.757,0-1.297-0.024-1.621-0.081c-0.449-0.072-0.729-0.279-0.834-0.62
			c-0.054-0.166-0.084-0.356-0.092-0.571c-0.01-0.271-0.016-0.557-0.016-0.86c0-0.517,0.023-0.878,0.074-1.087
			c0.068-0.291,0.189-0.496,0.361-0.615c0.09-0.062,0.203-0.111,0.338-0.146c0.137-0.033,0.328-0.062,0.576-0.082
			c0.352-0.031,0.821-0.047,1.418-0.047c0.768,0,1.309,0.028,1.627,0.09c0.321,0.062,0.549,0.168,0.68,0.322
			c0.115,0.139,0.187,0.355,0.211,0.655c0.006,0.079,0.01,0.202,0.01,0.368h-1.219c-0.002-0.107-0.01-0.184-0.02-0.223
			c-0.025-0.101-0.113-0.16-0.261-0.18c-0.192-0.025-0.574-0.037-1.144-0.037c-0.506,0-0.856,0.016-1.053,0.049
			c-0.186,0.033-0.298,0.135-0.337,0.306c-0.03,0.129-0.047,0.358-0.047,0.688c0,0.379,0.017,0.637,0.05,0.773
			c0.043,0.188,0.176,0.289,0.398,0.312c0.107,0.01,0.438,0.019,0.99,0.024c0.602-0.005,0.987-0.017,1.162-0.034
			c0.157-0.025,0.248-0.097,0.271-0.208c0.015-0.069,0.021-0.18,0.021-0.321h-1.603v-0.802L172.213,365.629L172.213,365.629z"/>
		<path display="inline" fill="#EDEDED" d="M128.791,375.098v-4h2.943c0.695,0.002,1.105,0.01,1.23,0.021
			c0.143,0.016,0.271,0.058,0.388,0.125c0.116,0.068,0.207,0.156,0.271,0.267c0.066,0.113,0.107,0.233,0.121,0.358
			c0.018,0.146,0.025,0.322,0.025,0.529c0,0.326-0.021,0.555-0.066,0.684c-0.068,0.191-0.197,0.324-0.387,0.398
			c-0.064,0.024-0.162,0.047-0.291,0.066c0.256,0.02,0.439,0.094,0.551,0.221c0.05,0.057,0.084,0.121,0.104,0.194
			c0.021,0.07,0.035,0.181,0.042,0.317c0.002,0.072,0.003,0.221,0.003,0.443v0.371h-1.2v-0.214c0-0.237-0.012-0.409-0.033-0.515
			c-0.03-0.146-0.109-0.234-0.236-0.264c-0.084-0.019-0.262-0.026-0.53-0.026h-1.717v1.019L128.791,375.098L128.791,375.098z
			 M130.01,373.081h1.714c0.257-0.004,0.407-0.008,0.454-0.013c0.172-0.01,0.279-0.062,0.325-0.157
			c0.03-0.063,0.047-0.179,0.047-0.337c0-0.137-0.015-0.236-0.041-0.305c-0.041-0.099-0.14-0.152-0.296-0.164
			c-0.055-0.004-0.219-0.008-0.492-0.01h-1.711V373.081L130.01,373.081z"/>
		<path display="inline" fill="#EDEDED" d="M134.189,371.098h4.43v0.938h-3.229v0.577h3.064v0.879h-3.064v0.644h3.252v0.962h-4.453
			V371.098L134.189,371.098z"/>
		<path display="inline" fill="#EDEDED" d="M138.884,373.771h1.181c-0.002,0.197,0.038,0.324,0.12,0.381
			c0.043,0.027,0.093,0.047,0.146,0.059c0.055,0.01,0.15,0.018,0.287,0.021c0.068,0.002,0.293,0.004,0.672,0.006
			c0.52-0.002,0.82-0.006,0.902-0.01c0.153-0.012,0.256-0.031,0.305-0.062c0.068-0.044,0.103-0.14,0.103-0.286
			c0-0.104-0.021-0.173-0.063-0.214c-0.06-0.06-0.198-0.089-0.42-0.093c-0.151,0-0.471-0.012-0.955-0.034
			c-0.5-0.022-0.823-0.036-0.973-0.041c-0.387-0.013-0.658-0.058-0.816-0.136c-0.203-0.1-0.336-0.27-0.398-0.51
			c-0.035-0.133-0.053-0.308-0.053-0.521c0-0.452,0.086-0.771,0.258-0.957c0.129-0.143,0.324-0.232,0.586-0.277
			c0.236-0.039,0.799-0.062,1.688-0.062c0.578,0,0.986,0.019,1.226,0.052c0.313,0.045,0.541,0.123,0.681,0.232
			c0.188,0.154,0.28,0.433,0.28,0.828c0,0.043-0.001,0.111-0.003,0.205h-1.182c-0.004-0.096-0.01-0.162-0.021-0.198
			c-0.026-0.107-0.116-0.171-0.271-0.185c-0.135-0.014-0.463-0.021-0.983-0.021c-0.517,0-0.821,0.017-0.917,0.045
			c-0.107,0.034-0.161,0.125-0.161,0.271c0,0.142,0.058,0.228,0.17,0.258c0.097,0.025,0.526,0.051,1.292,0.074
			c0.693,0.02,1.137,0.043,1.327,0.072c0.192,0.027,0.347,0.071,0.461,0.133c0.114,0.059,0.206,0.141,0.274,0.248
			c0.104,0.158,0.154,0.413,0.154,0.766c0,0.395-0.051,0.683-0.151,0.863c-0.103,0.183-0.269,0.307-0.498,0.373
			c-0.228,0.064-0.851,0.1-1.872,0.1c-0.621,0-1.068-0.018-1.346-0.051c-0.336-0.039-0.576-0.114-0.723-0.229
			c-0.158-0.121-0.253-0.292-0.281-0.516c-0.017-0.104-0.023-0.231-0.023-0.381L138.884,373.771L138.884,373.771z"/>
		<path display="inline" fill="#EDEDED" d="M144.201,371.098h4.43v0.938h-3.229v0.577h3.063v0.879h-3.063v0.644h3.252v0.962h-4.453
			V371.098L144.201,371.098z"/>
		<path display="inline" fill="#EDEDED" d="M153.377,375.098l-0.344-0.678h-2.646l-0.343,0.678h-1.393l2.121-4h1.895l2.092,4
			H153.377z M152.605,373.544l-0.771-1.517h-0.243l-0.771,1.517H152.605z"/>
		<path display="inline" fill="#EDEDED" d="M154.941,375.098v-4h2.942c0.695,0.002,1.104,0.01,1.229,0.021
			c0.144,0.016,0.271,0.058,0.389,0.125c0.116,0.068,0.207,0.156,0.271,0.267c0.065,0.113,0.105,0.233,0.119,0.358
			c0.02,0.146,0.026,0.322,0.026,0.529c0,0.326-0.021,0.555-0.067,0.684c-0.066,0.191-0.195,0.324-0.387,0.398
			c-0.062,0.024-0.16,0.047-0.29,0.066c0.257,0.02,0.438,0.094,0.552,0.221c0.049,0.057,0.082,0.121,0.104,0.194
			c0.021,0.07,0.035,0.181,0.043,0.317c0.002,0.072,0.003,0.221,0.003,0.443v0.371h-1.201v-0.214c0-0.237-0.011-0.409-0.032-0.515
			c-0.031-0.146-0.108-0.234-0.235-0.264c-0.084-0.019-0.263-0.026-0.53-0.026h-1.718v1.019L154.941,375.098L154.941,375.098z
			 M156.16,373.081h1.713c0.257-0.004,0.408-0.008,0.455-0.013c0.172-0.01,0.279-0.062,0.324-0.157
			c0.031-0.063,0.047-0.179,0.047-0.337c0-0.137-0.014-0.236-0.041-0.305c-0.041-0.099-0.141-0.152-0.295-0.164
			c-0.057-0.004-0.221-0.008-0.492-0.01h-1.711V373.081L156.16,373.081z"/>
		<path display="inline" fill="#EDEDED" d="M164.167,373.553h1.22c0.008,0.193,0.012,0.329,0.012,0.399
			c0,0.291-0.047,0.524-0.139,0.7c-0.096,0.186-0.277,0.312-0.548,0.384c-0.296,0.08-0.806,0.12-1.528,0.12
			c-0.8,0-1.338-0.014-1.615-0.038c-0.258-0.021-0.461-0.056-0.607-0.103c-0.148-0.048-0.271-0.115-0.369-0.205
			c-0.131-0.121-0.214-0.281-0.249-0.48c-0.038-0.209-0.059-0.609-0.059-1.207c0-0.57,0.015-0.958,0.043-1.155
			c0.043-0.299,0.159-0.518,0.35-0.649c0.146-0.103,0.375-0.174,0.691-0.217c0.327-0.043,0.916-0.064,1.767-0.064
			c0.506,0,0.866,0.013,1.081,0.031c0.324,0.031,0.562,0.095,0.709,0.188c0.185,0.113,0.3,0.28,0.351,0.501
			c0.033,0.154,0.053,0.338,0.053,0.542c0,0.033-0.002,0.11-0.004,0.229h-1.219c-0.004-0.098-0.008-0.164-0.013-0.199
			c-0.016-0.119-0.067-0.191-0.161-0.227c-0.14-0.047-0.519-0.069-1.137-0.069c-0.423,0-0.714,0.014-0.873,0.034
			c-0.195,0.027-0.314,0.135-0.363,0.32c-0.037,0.147-0.056,0.393-0.056,0.727c0,0.344,0.019,0.58,0.056,0.712
			c0.049,0.17,0.178,0.271,0.389,0.296c0.172,0.021,0.474,0.031,0.904,0.031c0.467,0,0.785-0.01,0.955-0.028
			c0.159-0.019,0.262-0.073,0.305-0.173C164.145,373.872,164.162,373.738,164.167,373.553z"/>
		<path display="inline" fill="#EDEDED" d="M165.818,371.098h1.279v1.43h2.752v-1.43h1.279v4h-1.279v-1.451h-2.752v1.451h-1.279
			V371.098z"/>
	</g>
</g>
<g>
	<path fill="#5B5A5A" d="M49.064,324.419h2.774v6.455h6.164v2.209h-8.938V324.419z"/>
	<path fill="#5B5A5A" d="M58.605,324.419h2.774v8.664h-2.774V324.419z"/>
	<path fill="#5B5A5A" d="M62.591,324.419h4.627l4.539,6.461h0.273l-0.063-6.461h2.685v8.664h-4.589l-4.558-6.469h-0.286l0.057,6.469
		h-2.685V324.419z"/>
	<path fill="#5B5A5A" d="M75.864,333.083v-8.664h6.252c1.358,0,2.236,0.022,2.634,0.069c0.77,0.089,1.337,0.29,1.701,0.603
		c0.389,0.339,0.646,0.885,0.768,1.639c0.059,0.359,0.089,0.987,0.089,1.885c0,1.146-0.051,1.944-0.152,2.393
		c-0.14,0.609-0.368,1.059-0.686,1.346c-0.216,0.199-0.478,0.35-0.787,0.451s-0.726,0.176-1.25,0.223
		c-0.415,0.037-1.185,0.057-2.311,0.057H75.864z M78.467,330.874h3.675c0.745,0,1.301-0.029,1.669-0.089
		c0.411-0.067,0.668-0.294,0.774-0.679c0.081-0.279,0.121-0.72,0.121-1.32c0-0.644-0.042-1.115-0.127-1.416
		c-0.102-0.377-0.334-0.605-0.698-0.686c-0.288-0.067-0.876-0.102-1.765-0.102h-3.65V330.874z"/>
	<path fill="#5B5A5A" d="M88.35,324.419h9.598v2.037h-6.995v1.25h6.64v1.904h-6.64v1.391h7.046v2.082H88.35V324.419z"/>
	<path fill="#5B5A5A" d="M98.824,324.419h4.627l4.539,6.461h0.273l-0.063-6.461h2.685v8.664h-4.589l-4.558-6.469h-0.286l0.057,6.469
		h-2.685V324.419z"/>
	<path fill="#5B5A5A" d="M112.097,333.083v-8.664h6.227c1.325,0.004,2.112,0.015,2.361,0.031c0.567,0.034,0.984,0.136,1.25,0.305
		c0.305,0.194,0.503,0.463,0.597,0.807c0.084,0.325,0.127,0.693,0.127,1.104c0,0.508-0.049,0.892-0.146,1.149
		c-0.161,0.419-0.501,0.704-1.022,0.856c0.385,0.068,0.671,0.166,0.857,0.293c0.423,0.283,0.635,0.88,0.635,1.789
		c0,0.707-0.11,1.229-0.33,1.568c-0.195,0.296-0.491,0.499-0.889,0.609c-0.338,0.089-0.906,0.136-1.701,0.14l-1.72,0.013H112.097z
		 M114.61,327.833h3.72c0.817,0,1.303-0.031,1.46-0.095c0.208-0.08,0.311-0.288,0.311-0.622c0-0.343-0.125-0.548-0.375-0.615
		c-0.097-0.025-0.563-0.041-1.396-0.045h-3.72V327.833z M114.61,331.001h3.732c0.694-0.004,1.103-0.009,1.225-0.013
		c0.385-0.017,0.63-0.093,0.736-0.229c0.081-0.11,0.121-0.279,0.121-0.508c0-0.364-0.131-0.577-0.394-0.642
		c-0.093-0.025-0.656-0.04-1.688-0.044h-3.732V331.001z"/>
	<path fill="#5B5A5A" d="M123.897,324.419h9.598v2.037H126.5v1.25h6.64v1.904h-6.64v1.391h7.046v2.082h-9.648V324.419z"/>
	<path fill="#5B5A5A" d="M134.371,333.083v-8.664h6.379c1.506,0.004,2.395,0.019,2.666,0.044c0.309,0.029,0.589,0.119,0.841,0.27
		c0.251,0.15,0.447,0.342,0.587,0.575c0.144,0.249,0.23,0.51,0.26,0.78c0.038,0.317,0.057,0.7,0.057,1.149
		c0,0.706-0.049,1.199-0.146,1.479c-0.148,0.415-0.427,0.702-0.838,0.863c-0.14,0.055-0.349,0.104-0.628,0.146
		c0.554,0.042,0.952,0.2,1.193,0.476c0.106,0.123,0.181,0.264,0.226,0.422c0.044,0.159,0.075,0.391,0.092,0.695
		c0.004,0.156,0.006,0.476,0.006,0.958v0.807h-2.603v-0.463c0-0.517-0.023-0.887-0.07-1.111c-0.068-0.321-0.239-0.512-0.514-0.571
		c-0.182-0.038-0.565-0.058-1.149-0.058h-3.72v2.203H134.371z M137.011,328.716h3.713c0.554-0.009,0.882-0.017,0.984-0.025
		c0.373-0.021,0.607-0.136,0.705-0.343c0.068-0.144,0.102-0.388,0.102-0.729c0-0.297-0.03-0.517-0.089-0.66
		c-0.089-0.212-0.303-0.33-0.641-0.355c-0.119-0.009-0.474-0.016-1.066-0.02h-3.707V328.716z"/>
	<path fill="#5B5A5A" d="M151.369,328.17h6.037c0.009,0.19,0.013,0.313,0.013,0.368c0,1.134-0.032,2.01-0.095,2.628
		c-0.102,0.999-0.669,1.604-1.701,1.815c-0.533,0.105-1.117,0.169-1.752,0.19c-0.674,0.025-1.471,0.038-2.394,0.038
		c-1.638,0-2.808-0.06-3.51-0.178c-0.973-0.161-1.576-0.609-1.809-1.346c-0.114-0.359-0.18-0.772-0.197-1.238
		c-0.021-0.584-0.032-1.205-0.032-1.865c0-1.117,0.053-1.902,0.159-2.355c0.152-0.631,0.415-1.075,0.787-1.333
		c0.195-0.14,0.439-0.246,0.733-0.32c0.294-0.074,0.71-0.135,1.248-0.181c0.757-0.068,1.782-0.102,3.072-0.102
		c1.659,0,2.834,0.065,3.523,0.196c0.698,0.131,1.189,0.364,1.473,0.698c0.25,0.301,0.402,0.774,0.457,1.422
		c0.013,0.174,0.02,0.44,0.02,0.8h-2.641c-0.005-0.237-0.018-0.397-0.039-0.482c-0.059-0.216-0.247-0.345-0.564-0.388
		c-0.419-0.055-1.244-0.082-2.476-0.082c-1.097,0-1.855,0.036-2.279,0.107c-0.402,0.072-0.646,0.293-0.73,0.66
		c-0.068,0.279-0.102,0.777-0.102,1.492c0,0.821,0.036,1.382,0.108,1.682c0.093,0.402,0.381,0.627,0.863,0.674
		c0.237,0.021,0.952,0.04,2.146,0.057c1.303-0.009,2.143-0.034,2.52-0.076c0.343-0.055,0.539-0.205,0.59-0.451
		c0.03-0.152,0.045-0.385,0.045-0.697h-3.473V328.17z"/>
	<path fill="#5B5A5A" d="M49.064,348.683v-8.664h6.379c1.506,0.004,2.395,0.019,2.666,0.044c0.309,0.029,0.589,0.119,0.841,0.27
		c0.251,0.15,0.447,0.342,0.587,0.575c0.144,0.249,0.23,0.51,0.26,0.78c0.038,0.317,0.057,0.7,0.057,1.149
		c0,0.706-0.049,1.199-0.146,1.479c-0.148,0.415-0.427,0.702-0.838,0.863c-0.14,0.055-0.349,0.104-0.628,0.146
		c0.554,0.042,0.952,0.2,1.193,0.476c0.106,0.123,0.181,0.264,0.226,0.422c0.044,0.159,0.075,0.391,0.092,0.695
		c0.004,0.156,0.006,0.476,0.006,0.958v0.807h-2.603v-0.463c0-0.517-0.023-0.887-0.07-1.111c-0.068-0.321-0.239-0.512-0.514-0.571
		c-0.182-0.038-0.565-0.058-1.149-0.058h-3.72v2.203H49.064z M51.705,344.315h3.713c0.554-0.009,0.882-0.017,0.984-0.025
		c0.373-0.021,0.607-0.136,0.705-0.343c0.068-0.144,0.102-0.388,0.102-0.729c0-0.297-0.03-0.517-0.089-0.66
		c-0.089-0.212-0.303-0.33-0.641-0.355c-0.119-0.009-0.474-0.016-1.066-0.02h-3.707V344.315z"/>
	<path fill="#5B5A5A" d="M60.763,340.019h9.598v2.037h-6.995v1.25h6.64v1.904h-6.64v1.391h7.046v2.082h-9.648V340.019z"/>
	<path fill="#5B5A5A" d="M70.932,345.813h2.558c-0.004,0.428,0.083,0.702,0.26,0.825c0.093,0.06,0.199,0.1,0.317,0.12
		c0.119,0.021,0.326,0.036,0.622,0.045c0.148,0.004,0.633,0.009,1.454,0.013c1.125-0.004,1.777-0.011,1.955-0.019
		c0.334-0.025,0.554-0.07,0.66-0.134c0.148-0.093,0.222-0.301,0.222-0.622c0-0.22-0.046-0.375-0.14-0.463
		c-0.127-0.123-0.43-0.188-0.908-0.197c-0.33,0-1.02-0.025-2.069-0.076c-1.083-0.051-1.786-0.08-2.107-0.089
		c-0.838-0.025-1.428-0.123-1.771-0.292c-0.44-0.216-0.728-0.584-0.863-1.104c-0.076-0.288-0.114-0.664-0.114-1.13
		c0-0.981,0.186-1.674,0.559-2.076c0.279-0.305,0.703-0.505,1.27-0.603c0.512-0.085,1.731-0.127,3.656-0.127
		c1.252,0,2.137,0.036,2.653,0.108c0.681,0.097,1.172,0.266,1.473,0.508c0.406,0.334,0.609,0.933,0.609,1.796
		c0,0.093-0.002,0.241-0.006,0.444h-2.558c-0.008-0.207-0.023-0.352-0.044-0.432c-0.059-0.237-0.254-0.37-0.584-0.4
		c-0.292-0.025-1.003-0.037-2.133-0.037c-1.117,0-1.779,0.031-1.987,0.095c-0.233,0.076-0.349,0.272-0.349,0.591
		c0,0.305,0.123,0.49,0.368,0.559c0.208,0.055,1.141,0.107,2.799,0.158c1.502,0.042,2.461,0.096,2.875,0.158
		c0.419,0.064,0.752,0.159,1,0.286c0.248,0.127,0.446,0.307,0.594,0.54c0.224,0.342,0.336,0.895,0.336,1.656
		c0,0.851-0.11,1.475-0.33,1.873c-0.22,0.393-0.58,0.662-1.079,0.806c-0.491,0.144-1.843,0.216-4.056,0.216
		c-1.346,0-2.317-0.036-2.914-0.107c-0.728-0.085-1.25-0.25-1.568-0.496c-0.343-0.262-0.546-0.632-0.609-1.11
		c-0.034-0.232-0.051-0.508-0.051-0.825V345.813z"/>
	<path fill="#5B5A5A" d="M82.453,340.019h9.598v2.037h-6.995v1.25h6.64v1.904h-6.64v1.391h7.046v2.082h-9.648V340.019z"/>
	<path fill="#5B5A5A" d="M102.334,348.683l-0.743-1.467h-5.732l-0.743,1.467h-3.015l4.596-8.664h4.101l4.532,8.664H102.334z
		 M100.665,345.318l-1.669-3.282h-0.527l-1.669,3.282H100.665z"/>
	<path fill="#5B5A5A" d="M105.724,348.683v-8.664h6.379c1.506,0.004,2.395,0.019,2.666,0.044c0.309,0.029,0.589,0.119,0.841,0.27
		c0.251,0.15,0.447,0.342,0.587,0.575c0.144,0.249,0.23,0.51,0.26,0.78c0.038,0.317,0.057,0.7,0.057,1.149
		c0,0.706-0.049,1.199-0.146,1.479c-0.148,0.415-0.427,0.702-0.838,0.863c-0.14,0.055-0.349,0.104-0.628,0.146
		c0.554,0.042,0.952,0.2,1.193,0.476c0.106,0.123,0.181,0.264,0.226,0.422c0.044,0.159,0.075,0.391,0.092,0.695
		c0.004,0.156,0.006,0.476,0.006,0.958v0.807h-2.603v-0.463c0-0.517-0.023-0.887-0.07-1.111c-0.068-0.321-0.239-0.512-0.514-0.571
		c-0.182-0.038-0.565-0.058-1.149-0.058h-3.72v2.203H105.724z M108.364,344.315h3.713c0.554-0.009,0.882-0.017,0.984-0.025
		c0.373-0.021,0.607-0.136,0.705-0.343c0.068-0.144,0.102-0.388,0.102-0.729c0-0.297-0.03-0.517-0.089-0.66
		c-0.089-0.212-0.303-0.33-0.641-0.355c-0.119-0.009-0.474-0.016-1.066-0.02h-3.707V344.315z"/>
	<path fill="#5B5A5A" d="M125.712,345.337h2.641c0.017,0.424,0.025,0.714,0.025,0.87c0,0.631-0.1,1.136-0.298,1.517
		c-0.208,0.398-0.603,0.676-1.187,0.832c-0.639,0.174-1.744,0.26-3.313,0.26c-1.731,0-2.896-0.027-3.498-0.082
		c-0.559-0.047-0.999-0.121-1.32-0.223s-0.588-0.249-0.8-0.443c-0.284-0.263-0.463-0.609-0.54-1.041
		c-0.084-0.453-0.127-1.325-0.127-2.615c0-1.24,0.032-2.076,0.095-2.508c0.093-0.647,0.345-1.117,0.755-1.409
		c0.313-0.22,0.812-0.377,1.498-0.47c0.711-0.093,1.987-0.14,3.828-0.14c1.096,0,1.877,0.023,2.342,0.069
		c0.703,0.068,1.214,0.203,1.536,0.406c0.398,0.25,0.649,0.612,0.755,1.086c0.076,0.339,0.114,0.73,0.114,1.174
		c0,0.076-0.002,0.244-0.006,0.502h-2.641c-0.008-0.212-0.017-0.355-0.025-0.432c-0.034-0.258-0.15-0.421-0.349-0.488
		c-0.3-0.102-1.122-0.152-2.463-0.152c-0.914,0-1.544,0.025-1.892,0.076c-0.423,0.059-0.686,0.289-0.787,0.691
		c-0.081,0.326-0.121,0.851-0.121,1.574c0,0.745,0.04,1.259,0.121,1.543c0.102,0.367,0.381,0.581,0.838,0.641
		c0.373,0.047,1.026,0.07,1.961,0.07c1.011,0,1.701-0.021,2.069-0.064c0.347-0.037,0.567-0.162,0.66-0.374
		C125.662,346.029,125.704,345.739,125.712,345.337z"/>
	<path fill="#5B5A5A" d="M129.292,340.019h2.774v3.098h5.96v-3.098h2.774v8.664h-2.774v-3.143h-5.96v3.143h-2.774V340.019z"/>
</g>
</svg>
