<?xml version="1.0" encoding="UTF-8" standalone="no"?>
<!DOCTYPE svg PUBLIC "-//W3C//DTD SVG 1.1//EN" "http://www.w3.org/Graphics/SVG/1.1/DTD/svg11.dtd">
<svg width="270px" height="380px" version="1.1" xmlns="http://www.w3.org/2000/svg" xmlns:xlink="http://www.w3.org/1999/xlink" xml:space="preserve" xmlns:serif="http://www.serif.com/" style="fill-rule:evenodd;clip-rule:evenodd;stroke-linecap:square;stroke-miterlimit:10;">
    <rect x="0" y="0" width="270" height="380" style="fill:#1d1d1d;"/>
    <g transform="matrix(1,0,0,1,-7.23135,-0.493109)">
        <path d="M40.596,332.66c-0.016,0.039 -0.36,0.782 -1.033,2.227c-0.672,1.445 -1.314,2.839 -1.926,4.18l-0.649,0c-0.674,-1.504 -1.319,-2.925 -1.934,-4.263c-0.615,-1.338 -0.937,-2.039 -0.967,-2.105l0.762,-0.38c0.023,0.065 0.317,0.743 0.881,2.033c0.565,1.291 1.11,2.506 1.634,3.645l0.009,0c0.534,-1.168 1.088,-2.399 1.663,-3.691c0.575,-1.292 0.872,-1.958 0.891,-1.997l0.669,0.351Z" style="fill:#e6e0e0;fill-rule:nonzero;"/>
        <path d="M45.381,336.318l-3.53,0c0.003,0.345 0.076,0.661 0.22,0.949c0.143,0.288 0.363,0.527 0.659,0.716c0.189,0.12 0.404,0.21 0.644,0.271c0.241,0.06 0.531,0.09 0.87,0.09c0.185,0 0.355,-0.005 0.51,-0.015c0.154,-0.009 0.25,-0.016 0.285,-0.019l-0.087,0.649c-0.026,0.004 -0.113,0.009 -0.259,0.017c-0.147,0.008 -0.319,0.013 -0.518,0.013c-0.521,0 -0.974,-0.068 -1.36,-0.203c-0.385,-0.135 -0.702,-0.322 -0.949,-0.559c-0.212,-0.199 -0.392,-0.453 -0.54,-0.762c-0.148,-0.309 -0.222,-0.653 -0.222,-1.03c0,-0.371 0.055,-0.707 0.166,-1.006c0.111,-0.299 0.277,-0.578 0.498,-0.835c0.192,-0.221 0.43,-0.392 0.715,-0.513c0.285,-0.12 0.581,-0.18 0.887,-0.18c0.302,0 0.571,0.045 0.805,0.136c0.235,0.092 0.438,0.23 0.611,0.415c0.192,0.209 0.338,0.465 0.439,0.769c0.101,0.305 0.153,0.67 0.156,1.097Zm-0.757,-0.547c-0.052,-0.404 -0.189,-0.72 -0.412,-0.95c-0.223,-0.229 -0.517,-0.344 -0.882,-0.344c-0.364,0 -0.668,0.116 -0.913,0.349c-0.244,0.233 -0.413,0.548 -0.507,0.945l2.714,0Z" style="fill:#e6e0e0;fill-rule:nonzero;"/>
        <path d="M49.527,334.604c-0.179,0.042 -0.454,0.132 -0.823,0.268c-0.369,0.137 -0.795,0.319 -1.277,0.547c0,0.036 -0.001,0.2 -0.005,0.491c-0.003,0.291 -0.005,0.562 -0.005,0.813c0,0.384 0.004,0.84 0.013,1.367c0.008,0.527 0.012,0.82 0.012,0.879l-0.772,0c0,-0.055 0.004,-0.238 0.01,-0.547c0.007,-0.309 0.01,-0.838 0.01,-1.587c0,-0.303 -0.002,-0.726 -0.005,-1.269c-0.003,-0.544 -0.008,-1.057 -0.015,-1.538l0.757,0l0,0.742l0.005,0.005c0.368,-0.209 0.731,-0.389 1.089,-0.542c0.358,-0.153 0.644,-0.257 0.859,-0.313l0.147,0.684Z" style="fill:#e6e0e0;fill-rule:nonzero;"/>
        <path d="M53.204,337.538c0,0.241 -0.059,0.456 -0.176,0.645c-0.117,0.189 -0.27,0.342 -0.459,0.459c-0.199,0.124 -0.434,0.217 -0.706,0.281c-0.272,0.063 -0.572,0.095 -0.901,0.095c-0.159,0 -0.324,-0.007 -0.495,-0.022c-0.171,-0.015 -0.268,-0.024 -0.291,-0.027l-0.029,-0.64c0.029,0.004 0.142,0.013 0.339,0.027c0.197,0.015 0.393,0.022 0.589,0.022c0.114,0 0.26,-0.01 0.439,-0.029c0.179,-0.02 0.327,-0.055 0.444,-0.108c0.163,-0.071 0.284,-0.159 0.362,-0.263c0.078,-0.104 0.117,-0.23 0.117,-0.376c0,-0.134 -0.034,-0.242 -0.103,-0.325c-0.068,-0.083 -0.162,-0.163 -0.283,-0.242c-0.13,-0.087 -0.308,-0.181 -0.534,-0.28c-0.227,-0.1 -0.416,-0.195 -0.569,-0.286c-0.218,-0.133 -0.385,-0.291 -0.501,-0.474c-0.115,-0.182 -0.173,-0.393 -0.173,-0.634c0,-0.241 0.066,-0.458 0.198,-0.65c0.131,-0.192 0.308,-0.346 0.529,-0.464c0.192,-0.104 0.405,-0.173 0.638,-0.207c0.232,-0.034 0.458,-0.051 0.676,-0.051c0.198,0 0.361,0.003 0.488,0.009c0.127,0.007 0.2,0.01 0.22,0.01l0.054,0.649c-0.023,0 -0.123,-0.006 -0.301,-0.019c-0.177,-0.013 -0.372,-0.02 -0.583,-0.02c-0.15,0 -0.292,0.013 -0.427,0.039c-0.136,0.027 -0.25,0.064 -0.345,0.113c-0.14,0.071 -0.24,0.158 -0.3,0.259c-0.06,0.101 -0.09,0.198 -0.09,0.293c0,0.13 0.042,0.242 0.127,0.336c0.084,0.095 0.184,0.175 0.297,0.24c0.134,0.078 0.316,0.171 0.547,0.278c0.231,0.107 0.399,0.194 0.503,0.259c0.228,0.143 0.401,0.303 0.52,0.478c0.119,0.176 0.179,0.384 0.179,0.625Z" style="fill:#e6e0e0;fill-rule:nonzero;"/>
        <path d="M55.454,333.08l-0.859,0l0,-0.839l0.859,0l0,0.839Zm-0.043,5.889l-0.772,0c0.003,-0.052 0.007,-0.373 0.012,-0.962c0.005,-0.589 0.008,-1.076 0.008,-1.46c0,-0.335 -0.001,-0.704 -0.003,-1.106c-0.001,-0.402 -0.007,-0.873 -0.017,-1.413l0.772,0c-0.007,0.468 -0.013,0.907 -0.018,1.316c-0.004,0.408 -0.007,0.772 -0.007,1.091c0,0.758 0.004,1.367 0.012,1.826c0.008,0.459 0.013,0.695 0.013,0.708Z" style="fill:#e6e0e0;fill-rule:nonzero;"/>
        <path d="M61.587,336.498c0,0.378 -0.067,0.739 -0.202,1.084c-0.135,0.345 -0.33,0.64 -0.584,0.884c-0.215,0.205 -0.453,0.361 -0.715,0.469c-0.262,0.107 -0.559,0.161 -0.891,0.161c-0.313,0 -0.606,-0.053 -0.879,-0.159c-0.274,-0.106 -0.518,-0.261 -0.733,-0.466c-0.247,-0.238 -0.438,-0.531 -0.573,-0.879c-0.135,-0.348 -0.203,-0.716 -0.203,-1.103c0,-0.375 0.058,-0.719 0.173,-1.033c0.116,-0.314 0.296,-0.597 0.54,-0.847c0.218,-0.228 0.472,-0.403 0.762,-0.525c0.289,-0.122 0.595,-0.183 0.918,-0.183c0.338,0 0.645,0.056 0.92,0.168c0.275,0.112 0.52,0.281 0.735,0.505c0.247,0.258 0.431,0.547 0.552,0.867c0.12,0.321 0.18,0.673 0.18,1.057Zm-0.781,0.034c0,-0.305 -0.05,-0.603 -0.149,-0.893c-0.099,-0.29 -0.253,-0.534 -0.461,-0.732c-0.127,-0.124 -0.278,-0.219 -0.452,-0.286c-0.174,-0.067 -0.356,-0.1 -0.544,-0.1c-0.225,0 -0.42,0.036 -0.586,0.107c-0.166,0.072 -0.323,0.184 -0.469,0.337c-0.173,0.176 -0.309,0.401 -0.408,0.674c-0.099,0.273 -0.149,0.557 -0.149,0.85c0,0.332 0.051,0.637 0.152,0.915c0.101,0.278 0.263,0.518 0.488,0.72c0.127,0.114 0.273,0.201 0.439,0.262c0.166,0.06 0.342,0.09 0.528,0.09c0.205,0 0.396,-0.036 0.573,-0.108c0.178,-0.071 0.333,-0.175 0.467,-0.312c0.185,-0.189 0.327,-0.417 0.425,-0.684c0.097,-0.267 0.146,-0.547 0.146,-0.84Z" style="fill:#e6e0e0;fill-rule:nonzero;"/>
        <path d="M66.988,338.969l-0.772,0c0.003,-0.091 0.008,-0.392 0.012,-0.903c0.005,-0.511 0.008,-0.827 0.008,-0.948c0,-0.169 -0.001,-0.419 -0.003,-0.749c-0.001,-0.33 -0.004,-0.572 -0.007,-0.725c-0.01,-0.375 -0.081,-0.643 -0.215,-0.806c-0.133,-0.163 -0.364,-0.244 -0.693,-0.244c-0.199,0 -0.445,0.059 -0.738,0.176c-0.293,0.117 -0.589,0.267 -0.888,0.449c0,0.036 -0.002,0.23 -0.005,0.581c-0.003,0.352 -0.005,0.672 -0.005,0.962c0,0.378 0.004,0.833 0.012,1.367c0.008,0.534 0.012,0.814 0.012,0.84l-0.771,0c0,-0.023 0.003,-0.222 0.01,-0.598c0.006,-0.376 0.009,-0.935 0.009,-1.677c0,-0.342 0,-0.743 -0.002,-1.202c-0.002,-0.459 -0.007,-0.947 -0.017,-1.464l0.762,0l-0.005,0.561l0.005,0.01c0.455,-0.261 0.835,-0.442 1.14,-0.545c0.304,-0.102 0.557,-0.153 0.759,-0.153c0.417,0 0.751,0.131 1.004,0.393c0.252,0.262 0.378,0.621 0.378,1.076c0,0.411 -0.003,0.765 -0.007,1.062c-0.005,0.298 -0.008,0.54 -0.008,0.725c0,0.297 0.004,0.667 0.012,1.111c0.009,0.445 0.013,0.678 0.013,0.701Z" style="fill:#e6e0e0;fill-rule:nonzero;"/>
        <path d="M76.011,336.513c0,0.387 -0.066,0.746 -0.198,1.077c-0.131,0.33 -0.316,0.608 -0.554,0.832c-0.234,0.225 -0.505,0.397 -0.813,0.518c-0.307,0.12 -0.64,0.18 -0.998,0.18c-0.355,0 -0.686,-0.06 -0.994,-0.18c-0.308,-0.121 -0.574,-0.293 -0.798,-0.518c-0.244,-0.244 -0.431,-0.528 -0.559,-0.852c-0.129,-0.324 -0.193,-0.679 -0.193,-1.067c0,-0.377 0.059,-0.72 0.178,-1.028c0.119,-0.307 0.289,-0.58 0.51,-0.818c0.215,-0.231 0.485,-0.415 0.811,-0.551c0.325,-0.137 0.677,-0.205 1.054,-0.205c0.381,0 0.73,0.065 1.045,0.195c0.316,0.13 0.581,0.308 0.796,0.532c0.231,0.241 0.408,0.517 0.53,0.828c0.122,0.311 0.183,0.663 0.183,1.057Zm-0.791,0.044c0,-0.313 -0.048,-0.603 -0.144,-0.872c-0.096,-0.268 -0.233,-0.494 -0.413,-0.676c-0.149,-0.156 -0.325,-0.277 -0.527,-0.361c-0.202,-0.085 -0.426,-0.127 -0.674,-0.127c-0.276,0 -0.512,0.046 -0.708,0.139c-0.195,0.093 -0.361,0.207 -0.498,0.344c-0.172,0.169 -0.309,0.389 -0.41,0.659c-0.101,0.271 -0.151,0.549 -0.151,0.835c0,0.313 0.048,0.6 0.144,0.862c0.096,0.262 0.246,0.491 0.451,0.686c0.144,0.14 0.313,0.251 0.508,0.332c0.196,0.082 0.41,0.122 0.645,0.122c0.241,0 0.461,-0.04 0.661,-0.119c0.201,-0.08 0.374,-0.192 0.52,-0.335c0.192,-0.182 0.34,-0.401 0.442,-0.657c0.103,-0.255 0.154,-0.533 0.154,-0.832Z" style="fill:#e6e0e0;fill-rule:nonzero;"/>
        <rect x="77.373" y="337.929" width="0.981" height="1.04" style="fill:#e6e0e0;fill-rule:nonzero;"/>
        <path d="M84.38,336.894c0,0.299 -0.062,0.591 -0.188,0.876c-0.125,0.285 -0.285,0.52 -0.481,0.706c-0.218,0.208 -0.459,0.368 -0.725,0.478c-0.265,0.111 -0.564,0.166 -0.896,0.166c-0.319,0 -0.622,-0.05 -0.908,-0.151c-0.286,-0.101 -0.548,-0.264 -0.786,-0.488c-0.186,-0.176 -0.335,-0.392 -0.447,-0.647c-0.112,-0.256 -0.168,-0.551 -0.168,-0.886c0,-0.352 0.068,-0.7 0.205,-1.045c0.136,-0.345 0.418,-0.772 0.844,-1.28c0.411,-0.488 0.807,-0.935 1.189,-1.34c0.383,-0.405 0.717,-0.763 1.004,-1.072l0.561,0.454c-0.237,0.241 -0.547,0.559 -0.93,0.952c-0.382,0.394 -0.694,0.715 -0.935,0.962l0,0.01c0.208,0.029 0.449,0.082 0.723,0.159c0.273,0.076 0.529,0.18 0.766,0.31c0.385,0.211 0.676,0.473 0.874,0.784c0.199,0.31 0.298,0.661 0.298,1.052Zm-0.791,0.049c0,-0.303 -0.093,-0.581 -0.281,-0.833c-0.187,-0.252 -0.443,-0.458 -0.769,-0.618c-0.195,-0.094 -0.414,-0.17 -0.656,-0.227c-0.243,-0.057 -0.434,-0.09 -0.574,-0.1c-0.221,0.231 -0.4,0.504 -0.535,0.818c-0.135,0.314 -0.202,0.629 -0.202,0.945c0,0.244 0.044,0.469 0.132,0.674c0.087,0.205 0.198,0.371 0.332,0.498c0.143,0.137 0.301,0.238 0.476,0.303c0.174,0.065 0.367,0.097 0.578,0.097c0.218,0 0.421,-0.039 0.608,-0.117c0.187,-0.078 0.339,-0.177 0.457,-0.298c0.143,-0.146 0.251,-0.319 0.324,-0.517c0.074,-0.199 0.11,-0.407 0.11,-0.625Z" style="fill:#e6e0e0;fill-rule:nonzero;"/>
        <rect x="85.718" y="337.929" width="0.981" height="1.04" style="fill:#e6e0e0;fill-rule:nonzero;"/>
        <path d="M90.254,338.969l-0.761,0c0.003,-0.104 0.009,-0.397 0.019,-0.879c0.01,-0.482 0.015,-1.151 0.015,-2.007c0,-0.149 -0.001,-0.366 -0.003,-0.649c-0.001,-0.283 -0.004,-0.505 -0.007,-0.664l-0.015,-0.005c-0.143,0.081 -0.353,0.208 -0.63,0.381c-0.276,0.172 -0.572,0.356 -0.888,0.552l-0.279,-0.43c0.391,-0.274 0.805,-0.562 1.243,-0.867c0.438,-0.304 0.688,-0.478 0.75,-0.52l0.556,0.386c-0.006,0.472 -0.011,0.955 -0.014,1.45c-0.004,0.495 -0.005,0.786 -0.005,0.874c0,0.384 0.002,0.851 0.007,1.399c0.005,0.549 0.009,0.875 0.012,0.979Z" style="fill:#e6e0e0;fill-rule:nonzero;"/>
        <path d="M39.517,350.368c-0.003,0.03 -0.012,0.112 -0.027,0.247c-0.015,0.135 -0.028,0.282 -0.041,0.442l-0.171,0c-0.795,0 -1.501,-0.1 -2.119,-0.3c-0.619,-0.201 -1.127,-0.491 -1.524,-0.872c-0.277,-0.264 -0.495,-0.579 -0.657,-0.947c-0.161,-0.368 -0.241,-0.788 -0.241,-1.26c0,-0.423 0.079,-0.81 0.239,-1.16c0.159,-0.35 0.368,-0.655 0.625,-0.915c0.374,-0.378 0.877,-0.677 1.509,-0.899c0.631,-0.221 1.307,-0.332 2.026,-0.332l0.22,0c0.003,0.059 0.01,0.153 0.019,0.281c0.01,0.129 0.022,0.268 0.035,0.418l-0.166,0c-0.407,0 -0.829,0.044 -1.265,0.134c-0.436,0.089 -0.812,0.224 -1.128,0.403c-0.41,0.234 -0.726,0.534 -0.947,0.901c-0.222,0.366 -0.332,0.76 -0.332,1.184c0,0.439 0.099,0.839 0.298,1.198c0.198,0.36 0.512,0.662 0.942,0.906c0.351,0.202 0.745,0.348 1.179,0.44c0.435,0.091 0.867,0.136 1.296,0.136c0.02,0 0.051,0 0.093,0c0.043,0 0.088,-0.001 0.137,-0.005Z" style="fill:#e6e0e0;fill-rule:nonzero;"/>
        <path d="M45.054,348.498c0,0.378 -0.067,0.739 -0.203,1.084c-0.135,0.345 -0.329,0.64 -0.583,0.884c-0.215,0.205 -0.453,0.361 -0.715,0.469c-0.262,0.107 -0.559,0.161 -0.891,0.161c-0.313,0 -0.606,-0.053 -0.879,-0.159c-0.274,-0.106 -0.518,-0.261 -0.733,-0.466c-0.247,-0.238 -0.438,-0.531 -0.574,-0.879c-0.135,-0.348 -0.202,-0.716 -0.202,-1.103c0,-0.375 0.058,-0.719 0.173,-1.033c0.116,-0.314 0.296,-0.597 0.54,-0.847c0.218,-0.228 0.472,-0.403 0.761,-0.525c0.29,-0.122 0.596,-0.183 0.918,-0.183c0.339,0 0.646,0.056 0.921,0.168c0.275,0.112 0.52,0.281 0.735,0.505c0.247,0.258 0.431,0.547 0.551,0.867c0.121,0.321 0.181,0.673 0.181,1.057Zm-0.781,0.034c0,-0.305 -0.05,-0.603 -0.149,-0.893c-0.099,-0.29 -0.253,-0.534 -0.462,-0.732c-0.126,-0.124 -0.277,-0.219 -0.451,-0.286c-0.174,-0.067 -0.356,-0.1 -0.545,-0.1c-0.224,0 -0.42,0.036 -0.586,0.107c-0.166,0.072 -0.322,0.184 -0.468,0.337c-0.173,0.176 -0.309,0.401 -0.408,0.674c-0.099,0.273 -0.149,0.557 -0.149,0.85c0,0.332 0.051,0.637 0.151,0.915c0.101,0.278 0.264,0.518 0.489,0.72c0.127,0.114 0.273,0.201 0.439,0.262c0.166,0.06 0.342,0.09 0.528,0.09c0.205,0 0.396,-0.036 0.573,-0.108c0.178,-0.071 0.333,-0.175 0.467,-0.312c0.185,-0.189 0.327,-0.417 0.424,-0.684c0.098,-0.267 0.147,-0.547 0.147,-0.84Z" style="fill:#e6e0e0;fill-rule:nonzero;"/>
        <path d="M50.63,348.347c0,0.505 -0.112,0.933 -0.337,1.287c-0.224,0.353 -0.527,0.632 -0.908,0.837c-0.332,0.176 -0.696,0.299 -1.094,0.371c-0.397,0.072 -0.774,0.107 -1.132,0.107l0.019,2.242l-0.776,0c0.003,-0.056 0.007,-0.506 0.012,-1.35c0.005,-0.845 0.007,-1.692 0.007,-2.542c0,-0.426 -0.001,-0.922 -0.005,-1.487c-0.003,-0.564 -0.008,-1.172 -0.014,-1.823c0.104,-0.004 0.207,-0.005 0.31,-0.005c0.102,0 0.181,0 0.237,0c0.683,0 1.214,0.035 1.591,0.107c0.378,0.072 0.721,0.199 1.031,0.381c0.328,0.192 0.587,0.448 0.776,0.769c0.189,0.321 0.283,0.689 0.283,1.106Zm-0.781,0.024c0,-0.319 -0.075,-0.599 -0.225,-0.839c-0.149,-0.241 -0.345,-0.432 -0.586,-0.572c-0.218,-0.123 -0.466,-0.214 -0.744,-0.271c-0.278,-0.057 -0.58,-0.085 -0.906,-0.085l-0.22,0c0,0.055 -0.002,0.248 -0.007,0.578c-0.005,0.331 -0.007,0.901 -0.007,1.712c0,0.169 0.001,0.407 0.002,0.713c0.002,0.306 0.003,0.55 0.003,0.732c0.306,0 0.612,-0.028 0.918,-0.085c0.306,-0.057 0.558,-0.135 0.756,-0.232c0.332,-0.163 0.585,-0.379 0.757,-0.65c0.173,-0.27 0.259,-0.603 0.259,-1.001Z" style="fill:#e6e0e0;fill-rule:nonzero;"/>
        <path d="M56.128,346.228c-0.634,1.4 -1.303,2.886 -2.004,4.46c-0.702,1.574 -1.075,2.412 -1.121,2.512l-0.674,-0.249l1.011,-2.094c-0.026,-0.065 -0.23,-0.541 -0.613,-1.426c-0.382,-0.885 -0.848,-1.943 -1.398,-3.174l0.732,-0.317c0.358,0.905 0.723,1.799 1.094,2.683c0.371,0.884 0.566,1.348 0.586,1.394l0.009,0c0.02,-0.033 0.205,-0.466 0.557,-1.299c0.352,-0.833 0.736,-1.753 1.152,-2.759l0.669,0.269Z" style="fill:#e6e0e0;fill-rule:nonzero;"/>
        <path d="M60.157,346.604c-0.179,0.042 -0.454,0.132 -0.823,0.268c-0.37,0.137 -0.795,0.319 -1.277,0.547c0,0.036 -0.002,0.2 -0.005,0.491c-0.003,0.291 -0.005,0.562 -0.005,0.813c0,0.384 0.004,0.84 0.012,1.367c0.009,0.527 0.013,0.82 0.013,0.879l-0.772,0c0,-0.055 0.003,-0.238 0.01,-0.547c0.006,-0.309 0.01,-0.838 0.01,-1.587c0,-0.303 -0.002,-0.726 -0.005,-1.269c-0.003,-0.544 -0.008,-1.057 -0.015,-1.538l0.757,0l0,0.742l0.005,0.005c0.368,-0.209 0.731,-0.389 1.089,-0.542c0.358,-0.153 0.644,-0.257 0.859,-0.313l0.147,0.684Z" style="fill:#e6e0e0;fill-rule:nonzero;"/>
        <path d="M62.017,345.08l-0.859,0l0,-0.839l0.859,0l0,0.839Zm-0.044,5.889l-0.771,0c0.003,-0.052 0.007,-0.373 0.012,-0.962c0.005,-0.589 0.007,-1.076 0.007,-1.46c0,-0.335 -0.001,-0.704 -0.002,-1.106c-0.002,-0.402 -0.008,-0.873 -0.017,-1.413l0.771,0c-0.006,0.468 -0.012,0.907 -0.017,1.316c-0.005,0.408 -0.007,0.772 -0.007,1.091c0,0.758 0.004,1.367 0.012,1.826c0.008,0.459 0.012,0.695 0.012,0.708Z" style="fill:#e6e0e0;fill-rule:nonzero;"/>
        <path d="M67.544,345.984c0,0.071 -0.002,0.394 -0.007,0.966c-0.005,0.573 -0.007,1.119 -0.007,1.636c0,0.352 0.001,0.71 0.005,1.074c0.003,0.365 0.004,0.699 0.004,1.001c0,0.557 -0.095,0.993 -0.285,1.309c-0.191,0.316 -0.462,0.568 -0.813,0.757c-0.277,0.143 -0.614,0.256 -1.011,0.339c-0.397,0.083 -0.879,0.125 -1.445,0.125l-0.078,-0.62c0.38,-0.007 0.722,-0.027 1.025,-0.061c0.303,-0.035 0.578,-0.097 0.825,-0.188c0.381,-0.144 0.646,-0.333 0.796,-0.569c0.15,-0.236 0.228,-0.524 0.234,-0.862l-0.234,0c-0.387,0 -0.786,-0.046 -1.196,-0.139c-0.41,-0.093 -0.76,-0.24 -1.05,-0.442c-0.286,-0.192 -0.519,-0.443 -0.698,-0.752c-0.179,-0.309 -0.269,-0.692 -0.269,-1.148c0,-0.455 0.126,-0.857 0.376,-1.206c0.251,-0.348 0.586,-0.625 1.006,-0.83c0.3,-0.146 0.626,-0.248 0.979,-0.305c0.353,-0.057 0.781,-0.085 1.282,-0.085l0.561,0Zm-0.747,2.597c0,-0.234 -0.001,-0.527 -0.002,-0.879c-0.002,-0.351 -0.006,-0.717 -0.012,-1.098l-0.127,0c-0.303,0 -0.568,0.019 -0.794,0.058c-0.226,0.039 -0.464,0.113 -0.715,0.22c-0.332,0.143 -0.586,0.353 -0.762,0.63c-0.176,0.277 -0.264,0.589 -0.264,0.937c0,0.359 0.088,0.665 0.262,0.918c0.174,0.254 0.407,0.451 0.7,0.591c0.199,0.095 0.429,0.171 0.691,0.23c0.262,0.058 0.54,0.088 0.833,0.088l0.18,0c0,-0.039 0.002,-0.221 0.005,-0.545c0.004,-0.324 0.005,-0.707 0.005,-1.15Z" style="fill:#e6e0e0;fill-rule:nonzero;"/>
        <path d="M73.37,350.969l-0.772,0c0.003,-0.098 0.007,-0.391 0.012,-0.881c0.005,-0.49 0.008,-0.813 0.008,-0.97c0,-0.169 -0.001,-0.419 -0.003,-0.749c-0.001,-0.33 -0.004,-0.572 -0.007,-0.725c-0.01,-0.375 -0.082,-0.643 -0.215,-0.806c-0.133,-0.163 -0.365,-0.244 -0.693,-0.244c-0.186,0 -0.424,0.056 -0.713,0.168c-0.29,0.113 -0.596,0.265 -0.918,0.457l0.019,3.75l-0.771,0c0.003,-0.127 0.007,-0.639 0.012,-1.536c0.005,-0.896 0.007,-1.635 0.007,-2.214c0,-0.378 0,-0.854 -0.002,-1.428c-0.002,-0.575 -0.007,-1.235 -0.017,-1.98l0.771,0l-0.019,2.778l0.005,0.005c0.465,-0.26 0.846,-0.441 1.142,-0.542c0.296,-0.101 0.55,-0.151 0.762,-0.151c0.417,0 0.751,0.131 1.003,0.393c0.253,0.262 0.379,0.621 0.379,1.076c0,0.411 -0.003,0.765 -0.008,1.062c-0.004,0.298 -0.007,0.54 -0.007,0.725c0,0.297 0.003,0.637 0.01,1.021c0.006,0.384 0.011,0.648 0.015,0.791Z" style="fill:#e6e0e0;fill-rule:nonzero;"/>
        <path d="M77.813,350.364l-0.088,0.62c-0.023,0.003 -0.079,0.006 -0.168,0.009c-0.09,0.004 -0.167,0.005 -0.232,0.005c-0.668,0 -1.172,-0.139 -1.514,-0.417c-0.342,-0.278 -0.513,-0.706 -0.513,-1.282c0,-0.361 0.003,-0.749 0.008,-1.162c0.004,-0.413 0.007,-0.926 0.007,-1.538l-0.82,0l0,-0.571l0.864,0l0,-1.158l0.708,0l0,1.158l1.748,0l0,0.571l-1.748,0c0,0.068 -0.003,0.272 -0.007,0.61c-0.005,0.339 -0.008,0.589 -0.008,0.752l0,1.211c0,0.423 0.114,0.729 0.342,0.916c0.228,0.187 0.579,0.28 1.055,0.28c0.058,0 0.128,0 0.21,-0.002c0.081,-0.002 0.133,-0.002 0.156,-0.002Z" style="fill:#e6e0e0;fill-rule:nonzero;"/>
        <path d="M85.655,350.959c-0.046,0 -0.352,-0.001 -0.918,-0.002c-0.567,-0.002 -0.985,-0.003 -1.255,-0.003c-0.384,0 -0.846,0.001 -1.384,0.003c-0.539,0.001 -0.823,0.002 -0.852,0.002l-0.186,-0.552c0.273,-0.133 0.592,-0.301 0.955,-0.505c0.363,-0.203 0.647,-0.385 0.852,-0.544c0.322,-0.248 0.567,-0.483 0.734,-0.706c0.168,-0.223 0.252,-0.487 0.252,-0.793c0,-0.238 -0.053,-0.439 -0.159,-0.603c-0.106,-0.165 -0.254,-0.296 -0.447,-0.393c-0.175,-0.088 -0.376,-0.151 -0.603,-0.188c-0.226,-0.038 -0.466,-0.057 -0.72,-0.057c-0.088,0 -0.188,0.003 -0.3,0.008c-0.112,0.005 -0.209,0.009 -0.291,0.012l0.069,-0.649c0.055,-0.004 0.137,-0.008 0.246,-0.013c0.109,-0.005 0.226,-0.007 0.349,-0.007c0.355,0 0.671,0.025 0.948,0.076c0.276,0.05 0.534,0.132 0.771,0.246c0.3,0.144 0.532,0.34 0.698,0.589c0.166,0.249 0.249,0.547 0.249,0.896c0,0.293 -0.066,0.564 -0.2,0.815c-0.133,0.251 -0.299,0.472 -0.498,0.664c-0.205,0.202 -0.455,0.399 -0.749,0.591c-0.295,0.192 -0.585,0.358 -0.872,0.498l0.01,0.029c0.14,-0.013 0.314,-0.025 0.522,-0.036c0.209,-0.012 0.415,-0.019 0.62,-0.022c0.411,-0.007 0.861,-0.012 1.353,-0.017c0.492,-0.005 0.76,-0.008 0.806,-0.008l0,0.669Z" style="fill:#e6e0e0;fill-rule:nonzero;"/>
        <path d="M91.436,348.513c0,0.387 -0.066,0.746 -0.198,1.077c-0.132,0.33 -0.316,0.608 -0.554,0.832c-0.234,0.225 -0.505,0.397 -0.813,0.518c-0.308,0.12 -0.64,0.18 -0.999,0.18c-0.354,0 -0.686,-0.06 -0.993,-0.18c-0.308,-0.121 -0.574,-0.293 -0.799,-0.518c-0.244,-0.244 -0.43,-0.528 -0.559,-0.852c-0.128,-0.324 -0.192,-0.679 -0.192,-1.067c0,-0.377 0.059,-0.72 0.178,-1.028c0.119,-0.307 0.289,-0.58 0.51,-0.818c0.215,-0.231 0.485,-0.415 0.811,-0.551c0.325,-0.137 0.677,-0.205 1.054,-0.205c0.381,0 0.729,0.065 1.045,0.195c0.316,0.13 0.581,0.308 0.796,0.532c0.231,0.241 0.408,0.517 0.53,0.828c0.122,0.311 0.183,0.663 0.183,1.057Zm-0.791,0.044c0,-0.313 -0.048,-0.603 -0.144,-0.872c-0.096,-0.268 -0.234,-0.494 -0.413,-0.676c-0.149,-0.156 -0.325,-0.277 -0.527,-0.361c-0.202,-0.085 -0.426,-0.127 -0.674,-0.127c-0.277,0 -0.513,0.046 -0.708,0.139c-0.195,0.093 -0.361,0.207 -0.498,0.344c-0.172,0.169 -0.309,0.389 -0.41,0.659c-0.101,0.271 -0.151,0.549 -0.151,0.835c0,0.313 0.048,0.6 0.144,0.862c0.096,0.262 0.246,0.491 0.451,0.686c0.143,0.14 0.313,0.251 0.508,0.332c0.195,0.082 0.41,0.122 0.645,0.122c0.24,0 0.461,-0.04 0.661,-0.119c0.2,-0.08 0.374,-0.192 0.52,-0.335c0.192,-0.182 0.34,-0.401 0.442,-0.657c0.103,-0.255 0.154,-0.533 0.154,-0.832Z" style="fill:#e6e0e0;fill-rule:nonzero;"/>
        <path d="M94.737,350.969l-0.762,0c0.003,-0.104 0.01,-0.397 0.02,-0.879c0.009,-0.482 0.014,-1.151 0.014,-2.007c0,-0.149 -0.001,-0.366 -0.002,-0.649c-0.002,-0.283 -0.004,-0.505 -0.008,-0.664l-0.014,-0.005c-0.143,0.081 -0.353,0.208 -0.63,0.381c-0.277,0.172 -0.573,0.356 -0.889,0.552l-0.278,-0.43c0.391,-0.274 0.805,-0.562 1.243,-0.867c0.437,-0.304 0.687,-0.478 0.749,-0.52l0.557,0.386c-0.007,0.472 -0.012,0.955 -0.015,1.45c-0.003,0.495 -0.005,0.786 -0.005,0.874c0,0.384 0.003,0.851 0.008,1.399c0.004,0.549 0.008,0.875 0.012,0.979Z" style="fill:#e6e0e0;fill-rule:nonzero;"/>
        <path d="M100.454,346.618c-0.807,1.498 -1.512,2.814 -2.114,3.948c-0.602,1.135 -0.941,1.775 -1.015,1.922l-0.625,-0.298c0.719,-1.293 1.359,-2.481 1.921,-3.565c0.562,-1.084 0.88,-1.704 0.955,-1.86l-0.005,-0.01l-0.918,0c-0.599,0 -1.179,0.005 -1.739,0.015c-0.559,0.01 -0.857,0.014 -0.893,0.014l0,-0.683c0.029,0 0.251,0.001 0.666,0.002c0.415,0.002 0.859,0.003 1.331,0.003c0.361,0 0.789,-0.001 1.282,-0.003c0.493,-0.001 0.765,-0.002 0.818,-0.002l0.336,0.517Z" style="fill:#e6e0e0;fill-rule:nonzero;"/>
        <rect x="101.021" y="347.81" width="2.651" height="0.659" style="fill:#e6e0e0;fill-rule:nonzero;"/>
        <path d="M109.048,350.959c-0.045,0 -0.351,-0.001 -0.918,-0.002c-0.566,-0.002 -0.984,-0.003 -1.255,-0.003c-0.384,0 -0.845,0.001 -1.384,0.003c-0.539,0.001 -0.823,0.002 -0.852,0.002l-0.185,-0.552c0.273,-0.133 0.591,-0.301 0.954,-0.505c0.363,-0.203 0.647,-0.385 0.852,-0.544c0.322,-0.248 0.567,-0.483 0.735,-0.706c0.168,-0.223 0.251,-0.487 0.251,-0.793c0,-0.238 -0.052,-0.439 -0.158,-0.603c-0.106,-0.165 -0.255,-0.296 -0.447,-0.393c-0.176,-0.088 -0.377,-0.151 -0.603,-0.188c-0.226,-0.038 -0.466,-0.057 -0.72,-0.057c-0.088,0 -0.188,0.003 -0.301,0.008c-0.112,0.005 -0.209,0.009 -0.29,0.012l0.068,-0.649c0.056,-0.004 0.138,-0.008 0.247,-0.013c0.109,-0.005 0.225,-0.007 0.349,-0.007c0.355,0 0.671,0.025 0.947,0.076c0.277,0.05 0.534,0.132 0.772,0.246c0.299,0.144 0.532,0.34 0.698,0.589c0.166,0.249 0.249,0.547 0.249,0.896c0,0.293 -0.067,0.564 -0.2,0.815c-0.134,0.251 -0.3,0.472 -0.498,0.664c-0.205,0.202 -0.455,0.399 -0.75,0.591c-0.294,0.192 -0.585,0.358 -0.871,0.498l0.009,0.029c0.14,-0.013 0.315,-0.025 0.523,-0.036c0.208,-0.012 0.415,-0.019 0.62,-0.022c0.41,-0.007 0.861,-0.012 1.353,-0.017c0.491,-0.005 0.76,-0.008 0.805,-0.008l0,0.669Z" style="fill:#e6e0e0;fill-rule:nonzero;"/>
        <path d="M114.829,348.513c0,0.387 -0.065,0.746 -0.197,1.077c-0.132,0.33 -0.317,0.608 -0.554,0.832c-0.235,0.225 -0.506,0.397 -0.813,0.518c-0.308,0.12 -0.641,0.18 -0.999,0.18c-0.355,0 -0.686,-0.06 -0.994,-0.18c-0.307,-0.121 -0.573,-0.293 -0.798,-0.518c-0.244,-0.244 -0.43,-0.528 -0.559,-0.852c-0.129,-0.324 -0.193,-0.679 -0.193,-1.067c0,-0.377 0.059,-0.72 0.178,-1.028c0.119,-0.307 0.289,-0.58 0.511,-0.818c0.214,-0.231 0.485,-0.415 0.81,-0.551c0.326,-0.137 0.677,-0.205 1.055,-0.205c0.381,0 0.729,0.065 1.045,0.195c0.315,0.13 0.581,0.308 0.796,0.532c0.231,0.241 0.407,0.517 0.529,0.828c0.122,0.311 0.183,0.663 0.183,1.057Zm-0.791,0.044c0,-0.313 -0.048,-0.603 -0.144,-0.872c-0.096,-0.268 -0.233,-0.494 -0.412,-0.676c-0.15,-0.156 -0.326,-0.277 -0.528,-0.361c-0.201,-0.085 -0.426,-0.127 -0.673,-0.127c-0.277,0 -0.513,0.046 -0.708,0.139c-0.196,0.093 -0.362,0.207 -0.498,0.344c-0.173,0.169 -0.31,0.389 -0.411,0.659c-0.1,0.271 -0.151,0.549 -0.151,0.835c0,0.313 0.048,0.6 0.144,0.862c0.096,0.262 0.247,0.491 0.452,0.686c0.143,0.14 0.312,0.251 0.508,0.332c0.195,0.082 0.41,0.122 0.644,0.122c0.241,0 0.462,-0.04 0.662,-0.119c0.2,-0.08 0.373,-0.192 0.52,-0.335c0.192,-0.182 0.339,-0.401 0.442,-0.657c0.102,-0.255 0.153,-0.533 0.153,-0.832Z" style="fill:#e6e0e0;fill-rule:nonzero;"/>
        <path d="M118.13,350.969l-0.761,0c0.003,-0.104 0.009,-0.397 0.019,-0.879c0.01,-0.482 0.015,-1.151 0.015,-2.007c0,-0.149 -0.001,-0.366 -0.003,-0.649c-0.001,-0.283 -0.004,-0.505 -0.007,-0.664l-0.015,-0.005c-0.143,0.081 -0.353,0.208 -0.63,0.381c-0.276,0.172 -0.572,0.356 -0.888,0.552l-0.279,-0.43c0.391,-0.274 0.805,-0.562 1.243,-0.867c0.438,-0.304 0.688,-0.478 0.75,-0.52l0.556,0.386c-0.006,0.472 -0.011,0.955 -0.014,1.45c-0.004,0.495 -0.005,0.786 -0.005,0.874c0,0.384 0.002,0.851 0.007,1.399c0.005,0.549 0.009,0.875 0.012,0.979Z" style="fill:#e6e0e0;fill-rule:nonzero;"/>
        <path d="M124.327,349.26c0,0.54 -0.219,0.986 -0.655,1.335c-0.436,0.35 -0.965,0.525 -1.587,0.525c-0.647,0 -1.185,-0.165 -1.611,-0.495c-0.426,-0.331 -0.64,-0.769 -0.64,-1.316c0,-0.316 0.098,-0.609 0.293,-0.879c0.196,-0.27 0.484,-0.544 0.865,-0.82l0,-0.01c-0.3,-0.16 -0.533,-0.352 -0.699,-0.576c-0.166,-0.225 -0.249,-0.516 -0.249,-0.874c0,-0.485 0.203,-0.885 0.608,-1.199c0.406,-0.314 0.883,-0.471 1.433,-0.471c0.612,0 1.11,0.15 1.494,0.451c0.385,0.302 0.577,0.695 0.577,1.18c0,0.319 -0.096,0.616 -0.288,0.893c-0.192,0.277 -0.422,0.51 -0.689,0.698l0,0.01c0.345,0.16 0.623,0.362 0.833,0.606c0.21,0.244 0.315,0.558 0.315,0.942Zm-0.962,-3.003c0,-0.361 -0.118,-0.644 -0.354,-0.85c-0.236,-0.205 -0.543,-0.307 -0.921,-0.307c-0.364,0 -0.665,0.095 -0.901,0.286c-0.236,0.19 -0.354,0.448 -0.354,0.773c0,0.212 0.061,0.389 0.183,0.53c0.123,0.142 0.276,0.261 0.462,0.359c0.133,0.072 0.302,0.147 0.505,0.225c0.204,0.078 0.4,0.146 0.589,0.205c0.241,-0.166 0.433,-0.351 0.576,-0.554c0.143,-0.204 0.215,-0.426 0.215,-0.667Zm0.171,3.076c0,-0.208 -0.06,-0.397 -0.179,-0.566c-0.118,-0.169 -0.303,-0.319 -0.554,-0.449c-0.14,-0.072 -0.327,-0.153 -0.561,-0.242c-0.235,-0.09 -0.455,-0.167 -0.66,-0.232c-0.27,0.173 -0.497,0.383 -0.681,0.63c-0.184,0.247 -0.276,0.522 -0.276,0.825c0,0.339 0.141,0.623 0.423,0.855c0.281,0.231 0.621,0.346 1.018,0.346c0.452,0 0.81,-0.101 1.074,-0.302c0.264,-0.202 0.396,-0.49 0.396,-0.865Z" style="fill:#e6e0e0;fill-rule:nonzero;"/>
        <path d="M132.701,346.667c0,0.476 -0.154,0.905 -0.462,1.289c-0.307,0.384 -0.718,0.645 -1.233,0.782c-0.221,0.058 -0.463,0.1 -0.725,0.127c-0.262,0.026 -0.554,0.039 -0.876,0.039l0.009,2.065l-0.805,0c0.003,-0.195 0.008,-0.557 0.014,-1.086c0.007,-0.529 0.01,-1.347 0.01,-2.454c0,-0.352 -0.001,-0.783 -0.005,-1.294c-0.003,-0.511 -0.009,-1.079 -0.019,-1.704c0.14,-0.003 0.277,-0.005 0.412,-0.005c0.135,0 0.245,0 0.33,0c0.563,0 1.042,0.036 1.438,0.107c0.395,0.072 0.728,0.194 0.998,0.367c0.297,0.185 0.523,0.427 0.679,0.725c0.156,0.298 0.235,0.645 0.235,1.042Zm-0.835,0c0,-0.335 -0.077,-0.621 -0.23,-0.857c-0.153,-0.236 -0.387,-0.422 -0.703,-0.559c-0.195,-0.084 -0.407,-0.137 -0.635,-0.158c-0.228,-0.022 -0.462,-0.032 -0.703,-0.032l-0.181,0c0,0.036 -0.003,0.28 -0.009,0.732c-0.007,0.453 -0.01,0.811 -0.01,1.074c0,0.241 0.001,0.526 0.002,0.855c0.002,0.329 0.003,0.516 0.003,0.561l0.195,0c0.218,0 0.45,-0.014 0.696,-0.043c0.246,-0.03 0.456,-0.083 0.632,-0.162c0.306,-0.13 0.54,-0.31 0.701,-0.542c0.161,-0.231 0.242,-0.52 0.242,-0.869Z" style="fill:#e6e0e0;fill-rule:nonzero;"/>
        <path d="M137.408,348.186c0,0.807 -0.002,1.465 -0.005,1.972c-0.004,0.508 -0.005,0.782 -0.005,0.821c-0.033,0.003 -0.184,0.015 -0.454,0.036c-0.27,0.022 -0.619,0.032 -1.045,0.032c-0.267,0 -0.536,-0.024 -0.806,-0.073c-0.27,-0.049 -0.503,-0.119 -0.698,-0.21c-0.26,-0.12 -0.471,-0.285 -0.632,-0.493c-0.162,-0.209 -0.242,-0.459 -0.242,-0.752c0,-0.309 0.095,-0.577 0.286,-0.803c0.19,-0.227 0.454,-0.41 0.793,-0.55c0.212,-0.088 0.494,-0.167 0.847,-0.237c0.353,-0.07 0.756,-0.122 1.209,-0.158c-0.02,-0.254 -0.083,-0.462 -0.191,-0.625c-0.107,-0.163 -0.265,-0.287 -0.473,-0.371c-0.144,-0.059 -0.303,-0.1 -0.479,-0.125c-0.176,-0.024 -0.381,-0.036 -0.615,-0.036c-0.147,0 -0.271,0.003 -0.374,0.009c-0.102,0.007 -0.241,0.015 -0.417,0.025l0.078,-0.65c0.049,-0.003 0.146,-0.009 0.29,-0.017c0.145,-0.008 0.343,-0.012 0.594,-0.012c0.384,0 0.726,0.04 1.028,0.12c0.301,0.079 0.551,0.209 0.749,0.388c0.186,0.169 0.326,0.378 0.42,0.627c0.094,0.249 0.142,0.61 0.142,1.082Zm-0.747,1.177c0,-0.111 0,-0.251 0,-0.42c0,-0.17 -0.002,-0.365 -0.005,-0.586c-0.144,0.006 -0.394,0.035 -0.752,0.085c-0.358,0.051 -0.659,0.123 -0.904,0.217c-0.182,0.069 -0.344,0.171 -0.485,0.308c-0.142,0.137 -0.213,0.306 -0.213,0.508c0,0.221 0.06,0.399 0.181,0.535c0.12,0.135 0.285,0.238 0.493,0.31c0.159,0.055 0.336,0.095 0.53,0.119c0.193,0.025 0.398,0.037 0.613,0.037c0.065,0 0.144,-0.002 0.239,-0.005c0.094,-0.003 0.193,-0.007 0.298,-0.01c0,-0.023 0,-0.13 0.002,-0.322c0.002,-0.192 0.003,-0.451 0.003,-0.776Z" style="fill:#e6e0e0;fill-rule:nonzero;"/>
        <path d="M141.836,350.364l-0.088,0.62c-0.022,0.003 -0.079,0.006 -0.168,0.009c-0.09,0.004 -0.167,0.005 -0.232,0.005c-0.667,0 -1.172,-0.139 -1.514,-0.417c-0.341,-0.278 -0.512,-0.706 -0.512,-1.282c0,-0.361 0.002,-0.749 0.007,-1.162c0.005,-0.413 0.007,-0.926 0.007,-1.538l-0.82,0l0,-0.571l0.864,0l0,-1.158l0.708,0l0,1.158l1.748,0l0,0.571l-1.748,0c0,0.068 -0.002,0.272 -0.007,0.61c-0.005,0.339 -0.007,0.589 -0.007,0.752l0,1.211c0,0.423 0.114,0.729 0.341,0.916c0.228,0.187 0.58,0.28 1.055,0.28c0.059,0 0.129,0 0.21,-0.002c0.081,-0.002 0.134,-0.002 0.156,-0.002Z" style="fill:#e6e0e0;fill-rule:nonzero;"/>
        <path d="M145.928,346.604c-0.179,0.042 -0.453,0.132 -0.823,0.268c-0.369,0.137 -0.795,0.319 -1.276,0.547c0,0.036 -0.002,0.2 -0.005,0.491c-0.004,0.291 -0.005,0.562 -0.005,0.813c0,0.384 0.004,0.84 0.012,1.367c0.008,0.527 0.012,0.82 0.012,0.879l-0.771,0c0,-0.055 0.003,-0.238 0.009,-0.547c0.007,-0.309 0.01,-0.838 0.01,-1.587c0,-0.303 -0.001,-0.726 -0.005,-1.269c-0.003,-0.544 -0.008,-1.057 -0.014,-1.538l0.757,0l0,0.742l0.004,0.005c0.368,-0.209 0.731,-0.389 1.089,-0.542c0.358,-0.153 0.645,-0.257 0.86,-0.313l0.146,0.684Z" style="fill:#e6e0e0;fill-rule:nonzero;"/>
        <path d="M147.788,345.08l-0.859,0l0,-0.839l0.859,0l0,0.839Zm-0.043,5.889l-0.772,0c0.003,-0.052 0.007,-0.373 0.012,-0.962c0.005,-0.589 0.008,-1.076 0.008,-1.46c0,-0.335 -0.001,-0.704 -0.003,-1.106c-0.001,-0.402 -0.007,-0.873 -0.017,-1.413l0.772,0c-0.007,0.468 -0.013,0.907 -0.018,1.316c-0.004,0.408 -0.007,0.772 -0.007,1.091c0,0.758 0.004,1.367 0.012,1.826c0.008,0.459 0.013,0.695 0.013,0.708Z" style="fill:#e6e0e0;fill-rule:nonzero;"/>
        <path d="M152.837,350.334l-0.058,0.655l-0.269,0c-0.42,0 -0.812,-0.04 -1.177,-0.12c-0.364,-0.08 -0.691,-0.198 -0.981,-0.354c-0.394,-0.215 -0.702,-0.5 -0.923,-0.855c-0.221,-0.354 -0.332,-0.75 -0.332,-1.186c0,-0.391 0.101,-0.75 0.303,-1.077c0.202,-0.327 0.465,-0.595 0.791,-0.803c0.293,-0.189 0.644,-0.333 1.052,-0.432c0.409,-0.099 0.831,-0.149 1.267,-0.149l0.2,0l0.039,0.654l-0.151,0c-0.361,0 -0.67,0.022 -0.925,0.066c-0.256,0.044 -0.504,0.117 -0.745,0.217c-0.322,0.131 -0.578,0.336 -0.766,0.616c-0.189,0.28 -0.284,0.579 -0.284,0.898c0,0.381 0.089,0.701 0.266,0.96c0.178,0.258 0.413,0.458 0.706,0.598c0.228,0.11 0.485,0.19 0.771,0.239c0.287,0.049 0.59,0.073 0.909,0.073l0.307,0Z" style="fill:#e6e0e0;fill-rule:nonzero;"/>
        <path d="M154.893,350.969l-0.772,0c0.004,-0.059 0.008,-0.498 0.013,-1.318c0.005,-0.821 0.007,-1.66 0.007,-2.52c0,-0.368 -0.001,-0.832 -0.002,-1.391c-0.002,-0.56 -0.008,-1.203 -0.018,-1.929l0.772,0c-0.01,0.576 -0.015,1.245 -0.017,2.007c-0.002,0.761 -0.003,1.214 -0.003,1.357c0,0.335 0.004,1.038 0.01,2.107c0.007,1.069 0.01,1.632 0.01,1.687Zm3.496,-0.098l-0.464,0.425c-0.719,-0.732 -1.361,-1.37 -1.926,-1.914c-0.565,-0.544 -0.877,-0.843 -0.935,-0.898l0,-0.01c0.078,-0.072 0.42,-0.418 1.025,-1.038c0.606,-0.62 1.096,-1.128 1.47,-1.526l0.474,0.489c-0.388,0.374 -0.794,0.769 -1.219,1.184c-0.424,0.415 -0.691,0.674 -0.798,0.779l0,0.004c0,0 0.238,0.251 0.715,0.752c0.477,0.502 1.03,1.086 1.658,1.753Z" style="fill:#e6e0e0;fill-rule:nonzero;"/>
        <path d="M166.119,350.959c-0.04,0 -0.245,-0.001 -0.618,-0.005c-0.373,-0.003 -0.849,-0.005 -1.428,-0.005c-0.381,0 -0.743,0.002 -1.087,0.005c-0.343,0.004 -0.634,0.005 -0.871,0.005c0.006,-0.56 0.012,-1.127 0.017,-1.701c0.005,-0.575 0.007,-1.139 0.007,-1.692c0,-0.925 -0.003,-1.63 -0.01,-2.115c-0.006,-0.485 -0.011,-0.825 -0.014,-1.02l0.805,0c-0.006,0.42 -0.011,0.905 -0.014,1.455c-0.004,0.55 -0.005,1.001 -0.005,1.353c0,0.856 0.001,1.57 0.005,2.143c0.003,0.573 0.005,0.876 0.005,0.908c0.133,0 0.294,0.001 0.483,0.003c0.189,0.001 0.36,0.002 0.513,0.002c0.582,0 1.089,-0.002 1.521,-0.007c0.431,-0.005 0.661,-0.007 0.691,-0.007l0,0.678Z" style="fill:#e6e0e0;fill-rule:nonzero;"/>
        <path d="M168.13,345.08l-0.859,0l0,-0.839l0.859,0l0,0.839Zm-0.044,5.889l-0.771,0c0.003,-0.052 0.007,-0.373 0.012,-0.962c0.005,-0.589 0.007,-1.076 0.007,-1.46c0,-0.335 0,-0.704 -0.002,-1.106c-0.002,-0.402 -0.007,-0.873 -0.017,-1.413l0.771,0c-0.006,0.468 -0.012,0.907 -0.017,1.316c-0.005,0.408 -0.007,0.772 -0.007,1.091c0,0.758 0.004,1.367 0.012,1.826c0.008,0.459 0.012,0.695 0.012,0.708Z" style="fill:#e6e0e0;fill-rule:nonzero;"/>
        <path d="M173.975,350.969l-0.771,0c0.003,-0.091 0.007,-0.392 0.012,-0.903c0.005,-0.511 0.007,-0.827 0.007,-0.948c0,-0.169 -0.001,-0.419 -0.002,-0.749c-0.002,-0.33 -0.004,-0.572 -0.008,-0.725c-0.009,-0.375 -0.081,-0.643 -0.215,-0.806c-0.133,-0.163 -0.364,-0.244 -0.693,-0.244c-0.198,0 -0.444,0.059 -0.737,0.176c-0.293,0.117 -0.589,0.267 -0.889,0.449c0,0.036 -0.002,0.23 -0.005,0.581c-0.003,0.352 -0.005,0.672 -0.005,0.962c0,0.378 0.004,0.833 0.013,1.367c0.008,0.534 0.012,0.814 0.012,0.84l-0.772,0c0,-0.023 0.004,-0.222 0.01,-0.598c0.007,-0.376 0.01,-0.935 0.01,-1.677c0,-0.342 -0.001,-0.743 -0.003,-1.202c-0.001,-0.459 -0.007,-0.947 -0.017,-1.464l0.762,0l-0.005,0.561l0.005,0.01c0.456,-0.261 0.836,-0.442 1.14,-0.545c0.304,-0.102 0.558,-0.153 0.759,-0.153c0.417,0 0.752,0.131 1.004,0.393c0.252,0.262 0.378,0.621 0.378,1.076c0,0.411 -0.002,0.765 -0.007,1.062c-0.005,0.298 -0.007,0.54 -0.007,0.725c0,0.297 0.004,0.667 0.012,1.111c0.008,0.445 0.012,0.678 0.012,0.701Z" style="fill:#e6e0e0;fill-rule:nonzero;"/>
        <path d="M179.488,351.047c-0.02,0 -0.082,0.001 -0.186,0.003c-0.104,0.001 -0.187,0.002 -0.249,0.002c-0.615,0 -1.097,-0.027 -1.445,-0.081c-0.348,-0.053 -0.689,-0.16 -1.021,-0.319c-0.433,-0.209 -0.761,-0.485 -0.986,-0.83c-0.225,-0.345 -0.337,-0.73 -0.337,-1.153c0,-0.495 0.125,-0.933 0.376,-1.316c0.251,-0.382 0.612,-0.681 1.084,-0.896c0.277,-0.13 0.594,-0.228 0.952,-0.295c0.358,-0.067 0.71,-0.1 1.055,-0.1l-0.015,-2.251l0.772,0c0,0.065 -0.004,0.521 -0.01,1.367c-0.007,0.846 -0.01,1.704 -0.01,2.573c0,0.687 0.003,1.308 0.007,1.863c0.005,0.555 0.009,1.033 0.013,1.433Zm-0.757,-3.432l0,-0.904c-0.326,0 -0.632,0.028 -0.921,0.083c-0.288,0.056 -0.534,0.13 -0.739,0.225c-0.326,0.15 -0.578,0.364 -0.757,0.642c-0.179,0.278 -0.269,0.605 -0.269,0.979c0,0.335 0.087,0.623 0.259,0.864c0.173,0.241 0.387,0.43 0.645,0.567c0.224,0.12 0.477,0.21 0.759,0.271c0.281,0.06 0.577,0.09 0.886,0.09l0.127,0c0,-0.029 0.002,-0.273 0.005,-0.73c0.003,-0.457 0.005,-1.153 0.005,-2.087Z" style="fill:#e6e0e0;fill-rule:nonzero;"/>
        <path d="M185.083,348.318l-3.53,0c0.003,0.345 0.077,0.661 0.22,0.949c0.143,0.288 0.363,0.527 0.659,0.716c0.189,0.12 0.404,0.21 0.645,0.271c0.24,0.06 0.53,0.09 0.869,0.09c0.185,0 0.355,-0.005 0.51,-0.015c0.155,-0.009 0.25,-0.016 0.286,-0.019l-0.088,0.649c-0.026,0.004 -0.113,0.009 -0.259,0.017c-0.147,0.008 -0.319,0.013 -0.518,0.013c-0.52,0 -0.974,-0.068 -1.36,-0.203c-0.385,-0.135 -0.702,-0.322 -0.949,-0.559c-0.212,-0.199 -0.392,-0.453 -0.54,-0.762c-0.148,-0.309 -0.222,-0.653 -0.222,-1.03c0,-0.371 0.055,-0.707 0.166,-1.006c0.111,-0.299 0.277,-0.578 0.498,-0.835c0.192,-0.221 0.431,-0.392 0.715,-0.513c0.285,-0.12 0.581,-0.18 0.887,-0.18c0.302,0 0.571,0.045 0.805,0.136c0.235,0.092 0.438,0.23 0.611,0.415c0.192,0.209 0.338,0.465 0.439,0.769c0.101,0.305 0.153,0.67 0.156,1.097Zm-0.756,-0.547c-0.053,-0.404 -0.19,-0.72 -0.413,-0.95c-0.223,-0.229 -0.517,-0.344 -0.881,-0.344c-0.365,0 -0.669,0.116 -0.913,0.349c-0.245,0.233 -0.414,0.548 -0.508,0.945l2.715,0Z" style="fill:#e6e0e0;fill-rule:nonzero;"/>
        <path d="M190.425,350.969l-0.771,0c0.003,-0.091 0.007,-0.392 0.012,-0.903c0.005,-0.511 0.007,-0.827 0.007,-0.948c0,-0.169 -0.001,-0.419 -0.002,-0.749c-0.002,-0.33 -0.004,-0.572 -0.008,-0.725c-0.009,-0.375 -0.081,-0.643 -0.214,-0.806c-0.134,-0.163 -0.365,-0.244 -0.694,-0.244c-0.198,0 -0.444,0.059 -0.737,0.176c-0.293,0.117 -0.589,0.267 -0.889,0.449c0,0.036 -0.001,0.23 -0.005,0.581c-0.003,0.352 -0.004,0.672 -0.004,0.962c0,0.378 0.004,0.833 0.012,1.367c0.008,0.534 0.012,0.814 0.012,0.84l-0.772,0c0,-0.023 0.004,-0.222 0.01,-0.598c0.007,-0.376 0.01,-0.935 0.01,-1.677c0,-0.342 -0.001,-0.743 -0.002,-1.202c-0.002,-0.459 -0.008,-0.947 -0.018,-1.464l0.762,0l-0.005,0.561l0.005,0.01c0.456,-0.261 0.836,-0.442 1.14,-0.545c0.305,-0.102 0.558,-0.153 0.76,-0.153c0.416,0 0.751,0.131 1.003,0.393c0.252,0.262 0.378,0.621 0.378,1.076c0,0.411 -0.002,0.765 -0.007,1.062c-0.005,0.298 -0.007,0.54 -0.007,0.725c0,0.297 0.004,0.667 0.012,1.111c0.008,0.445 0.012,0.678 0.012,0.701Z" style="fill:#e6e0e0;fill-rule:nonzero;"/>
        <path d="M196.402,348.459c0,0.534 -0.131,0.993 -0.393,1.377c-0.262,0.384 -0.616,0.671 -1.062,0.86c-0.29,0.123 -0.62,0.214 -0.992,0.271c-0.371,0.057 -0.817,0.085 -1.337,0.085l-0.435,0c0.003,-0.251 0.007,-0.716 0.012,-1.396c0.005,-0.681 0.008,-1.499 0.008,-2.457c0,-0.585 -0.002,-1.153 -0.005,-1.704c-0.004,-0.55 -0.008,-1.111 -0.015,-1.684l0.771,0l-0.014,2.251c0.667,0.006 1.202,0.066 1.604,0.178c0.402,0.112 0.736,0.265 1.003,0.457c0.277,0.198 0.489,0.446 0.635,0.744c0.147,0.298 0.22,0.637 0.22,1.018Zm-0.781,0.02c0,-0.394 -0.112,-0.724 -0.335,-0.991c-0.223,-0.267 -0.51,-0.461 -0.862,-0.581c-0.182,-0.062 -0.379,-0.11 -0.591,-0.145c-0.211,-0.034 -0.429,-0.051 -0.654,-0.051l-0.239,0c0,0.072 -0.001,0.331 -0.003,0.779c-0.001,0.448 -0.002,0.816 -0.002,1.106c0,0.544 0.002,0.928 0.005,1.152c0.003,0.225 0.005,0.453 0.005,0.684c0.358,0 0.685,-0.027 0.981,-0.081c0.296,-0.053 0.552,-0.137 0.767,-0.251c0.312,-0.166 0.545,-0.385 0.698,-0.657c0.153,-0.272 0.23,-0.593 0.23,-0.964Z" style="fill:#e6e0e0;fill-rule:nonzero;"/>
        <path d="M201.529,348.318l-3.531,0c0.004,0.345 0.077,0.661 0.22,0.949c0.143,0.288 0.363,0.527 0.659,0.716c0.189,0.12 0.404,0.21 0.645,0.271c0.241,0.06 0.53,0.09 0.869,0.09c0.186,0 0.356,-0.005 0.51,-0.015c0.155,-0.009 0.25,-0.016 0.286,-0.019l-0.088,0.649c-0.026,0.004 -0.112,0.009 -0.259,0.017c-0.146,0.008 -0.319,0.013 -0.517,0.013c-0.521,0 -0.974,-0.068 -1.36,-0.203c-0.386,-0.135 -0.703,-0.322 -0.95,-0.559c-0.212,-0.199 -0.391,-0.453 -0.539,-0.762c-0.149,-0.309 -0.223,-0.653 -0.223,-1.03c0,-0.371 0.056,-0.707 0.166,-1.006c0.111,-0.299 0.277,-0.578 0.498,-0.835c0.192,-0.221 0.431,-0.392 0.716,-0.513c0.285,-0.12 0.58,-0.18 0.886,-0.18c0.303,0 0.571,0.045 0.806,0.136c0.234,0.092 0.437,0.23 0.61,0.415c0.192,0.209 0.339,0.465 0.439,0.769c0.101,0.305 0.153,0.67 0.157,1.097Zm-0.757,-0.547c-0.052,-0.404 -0.19,-0.72 -0.413,-0.95c-0.223,-0.229 -0.516,-0.344 -0.881,-0.344c-0.365,0 -0.669,0.116 -0.913,0.349c-0.244,0.233 -0.414,0.548 -0.508,0.945l2.715,0Z" style="fill:#e6e0e0;fill-rule:nonzero;"/>
        <path d="M205.674,346.604c-0.179,0.042 -0.453,0.132 -0.823,0.268c-0.369,0.137 -0.795,0.319 -1.276,0.547c0,0.036 -0.002,0.2 -0.005,0.491c-0.004,0.291 -0.005,0.562 -0.005,0.813c0,0.384 0.004,0.84 0.012,1.367c0.008,0.527 0.012,0.82 0.012,0.879l-0.771,0c0,-0.055 0.003,-0.238 0.01,-0.547c0.006,-0.309 0.009,-0.838 0.009,-1.587c0,-0.303 -0.001,-0.726 -0.005,-1.269c-0.003,-0.544 -0.008,-1.057 -0.014,-1.538l0.757,0l0,0.742l0.004,0.005c0.368,-0.209 0.731,-0.389 1.089,-0.542c0.358,-0.153 0.645,-0.257 0.86,-0.313l0.146,0.684Z" style="fill:#e6e0e0;fill-rule:nonzero;"/>
        <path d="M210.401,345.984c0,0.071 -0.003,0.394 -0.008,0.966c-0.004,0.573 -0.007,1.119 -0.007,1.636c0,0.352 0.002,0.71 0.005,1.074c0.003,0.365 0.005,0.699 0.005,1.001c0,0.557 -0.095,0.993 -0.286,1.309c-0.19,0.316 -0.461,0.568 -0.813,0.757c-0.276,0.143 -0.613,0.256 -1.01,0.339c-0.398,0.083 -0.879,0.125 -1.446,0.125l-0.078,-0.62c0.381,-0.007 0.723,-0.027 1.025,-0.061c0.303,-0.035 0.578,-0.097 0.826,-0.188c0.381,-0.144 0.646,-0.333 0.796,-0.569c0.149,-0.236 0.227,-0.524 0.234,-0.862l-0.234,0c-0.388,0 -0.787,-0.046 -1.197,-0.139c-0.41,-0.093 -0.76,-0.24 -1.05,-0.442c-0.286,-0.192 -0.519,-0.443 -0.698,-0.752c-0.179,-0.309 -0.268,-0.692 -0.268,-1.148c0,-0.455 0.125,-0.857 0.376,-1.206c0.25,-0.348 0.586,-0.625 1.006,-0.83c0.299,-0.146 0.625,-0.248 0.979,-0.305c0.353,-0.057 0.78,-0.085 1.281,-0.085l0.562,0Zm-0.747,2.597c0,-0.234 -0.001,-0.527 -0.003,-0.879c-0.001,-0.351 -0.005,-0.717 -0.012,-1.098l-0.127,0c-0.303,0 -0.567,0.019 -0.793,0.058c-0.227,0.039 -0.465,0.113 -0.716,0.22c-0.332,0.143 -0.586,0.353 -0.761,0.63c-0.176,0.277 -0.264,0.589 -0.264,0.937c0,0.359 0.087,0.665 0.261,0.918c0.174,0.254 0.408,0.451 0.701,0.591c0.198,0.095 0.429,0.171 0.691,0.23c0.262,0.058 0.539,0.088 0.832,0.088l0.181,0c0,-0.039 0.002,-0.221 0.005,-0.545c0.003,-0.324 0.005,-0.707 0.005,-1.15Z" style="fill:#e6e0e0;fill-rule:nonzero;"/>
    </g>
    <g id="Lady" transform="matrix(1,0,0,1,5.59709,9.51146)">
        <g transform="matrix(1,0,0,1,5,5)">
            <path d="M232.321,164.268c-0.551,-1.407 -1.25,-2.487 -1.733,-4.267l0.016,0c-0.034,0 -0.056,-0.074 -0.088,-0.149c-0.062,-0.193 -0.122,-0.353 -0.173,-0.548c-0.097,-0.365 -0.189,-0.759 -0.253,-1.179c-0.043,-2.08 1.872,-2.792 1.946,-5.183c0.081,-2.573 -1.476,-3.898 -1.946,-4.241c-0.02,-0.028 -0.037,-0.054 -0.056,-0.082c0.012,-0.037 0.02,-0.068 0.031,-0.104c2.993,-2.433 1.69,-5.738 1.69,-5.738c-0.636,-0.338 -1.313,-0.55 -1.797,-0.98c-4.337,-3.863 -4.606,-6.636 -1.196,-11.288c0.866,-1.185 1.746,-2.375 2.467,-3.649c1.761,-3.117 1.359,-4.599 -1.81,-6.367c-2.28,-1.271 -4.743,-2.218 -6.988,-3.545c-6.396,-3.778 -11.834,-8.521 -15.061,-15.174c2.171,-3.872 2.171,-3.872 1.304,-6.341c-0.791,0.865 -1.527,1.672 -2.688,2.944c0,-3.049 0.294,-5.379 -0.083,-7.595c-0.367,-2.156 -0.85,-4.792 -2.281,-6.178c-5.217,-5.045 -8.175,-11.292 -10.92,-17.796c-2.029,-4.806 -4.196,-9.66 -8.171,-13.236c-2,-1.8 -4.474,-3.072 -6.742,-4.587c0,-1.354 0.017,-2.653 -0.006,-3.951c-0.019,-1.297 0.038,-2.61 -0.136,-3.89c-0.702,-5.113 -4.34,-7.564 -9.404,-6.548c-3.181,0.638 -6.385,1.238 -9.605,1.563c-1.888,0.19 -3.584,0.128 -3.225,-3.432c1.62,0 3.162,0 5.368,0c-1.104,0 -1.515,-1.544 -2.067,-1.769c-2.208,-0.892 -4.045,-0.36 -5.099,1.396c-1.25,2.077 0.023,3.586 1.504,4.555c1.273,0.832 3.004,1.441 4.492,1.365c3.234,-0.167 6.436,-0.842 9.658,-1.296c2.8,-0.394 4.451,0.587 5.01,3.266c0.266,1.278 0.047,2.658 0.047,3.561c-3.72,-1.383 -6.953,-3.369 -10.347,-3.69c-7.432,-0.706 -14.956,-0.912 -22.413,-0.611c-3.084,0.124 -6.484,1.511 -9.049,3.309c-4.547,3.188 -9.441,5.039 -14.773,6.138c-2.549,0.526 -5.106,1.149 -7.55,2.03c-4.689,1.689 -8.626,4.342 -11.53,8.63c-1.595,2.354 -3.836,4.445 -6.188,6.076c-4.591,3.184 -9.001,6.424 -12.144,11.187c-1.712,2.596 -4.124,4.212 -7.839,3.113c-1.104,-4.244 -4.87,-4.911 -8.627,-5.423c-1.764,-0.242 -3.625,-0.32 -5.373,-0.04c-10.247,1.643 -19.554,5.56 -26.813,13.074c-6.565,6.797 -5.937,10.365 -2.739,16.202c2.063,3.766 2.131,7.435 -0.279,11.089c-1.874,2.842 -2.57,6.013 -2.071,9.354c1.284,8.609 4.072,16.22 13.409,19.251c0.615,0.198 1.156,0.607 1.748,0.881c2.125,0.984 3.145,2.592 3.365,4.971c0.144,1.54 0.491,3.357 1.429,4.479c6.245,7.454 20.432,8.503 25.041,-1.951c0.189,-0.432 0.624,-0.756 0.945,-1.129c0.305,0.134 0.609,0.266 0.914,0.399c-0.27,1.348 -0.539,2.694 -0.81,4.042c-0.351,1.75 -1.204,3.572 -0.961,5.235c0.915,6.264 1.484,12.716 3.503,18.648c2.452,7.204 8.53,14.587 18.762,13.197c3.549,-0.483 6.782,0.391 9.818,2.234c1.254,0.76 2.657,1.272 3.912,2.027c3.221,1.943 6.497,1.898 9.857,0.464c2.024,-0.863 4.052,-1.726 6.331,-2.698c-1.16,4.041 -2.278,7.594 -3.189,11.197c-1.336,5.287 -3.631,9.452 -9.941,9.48c-0.115,0 -0.228,0.204 -0.481,0.441c0.473,1.385 0.975,2.855 1.446,4.234c-3.43,5.076 -9.388,5.288 -13.951,7.881c8.949,0.082 15.39,-4.254 16.179,-10.562c4.91,-1.582 7.805,-5.034 9.233,-9.921c0.777,-2.659 1.611,-5.32 2.672,-7.879c1.746,-4.209 4.792,-6.719 9.406,-6.833c-0.302,3.22 -0.579,6.169 -0.855,9.113c-6.687,1.486 -6.819,1.649 -6.534,8.315c-1.583,1.269 -3.238,2.596 -5.685,4.557c6.226,-1.428 7.436,-2.953 8.025,-9.211c0.938,-0.325 1.962,-0.799 3.039,-1.035c4.009,-0.875 4.11,-0.859 3.682,-5.037c-0.251,-2.445 0.739,-3.996 3.163,-5.664c0.451,1.766 0.892,3.088 1.115,4.445c0.316,1.923 0.547,3.867 0.687,5.81c0.517,7.404 -0.06,14.643 -3.457,21.43c-4.159,8.313 -8.334,16.622 -12.413,24.973c-1.174,2.404 -2.482,4.234 -5.172,5.433c-4.265,1.907 -7.421,6.556 -7.757,10.832c15.258,2.949 26.312,6.953 41.04,18.833c9.647,7.785 19.862,11.309 29.399,12.456c0.003,-0.004 10.248,-13.711 19.753,-32.558c-0.241,-0.365 -0.484,-0.728 -0.723,-1.095c-6.25,-9.478 -11.533,-18.592 -13.049,-22.521c-2.853,-7.395 -3.838,-14.659 -2.132,-22.466c1.983,-9.083 3.633,-18.206 7.761,-26.672c2.412,-4.95 6.15,-7.711 11.519,-8.858c6.366,-1.36 12.689,-3.037 18.94,-4.868c6.706,-1.966 9.308,-7.753 6.747,-14.275Z" style="fill-opacity:0.215686;fill-rule:nonzero;"/>
        </g>
        <path d="M232.321,164.268c-0.551,-1.407 -1.25,-2.487 -1.733,-4.267l0.016,0c-0.034,0 -0.056,-0.074 -0.088,-0.149c-0.062,-0.193 -0.122,-0.353 -0.173,-0.548c-0.097,-0.365 -0.189,-0.759 -0.253,-1.179c-0.043,-2.08 1.872,-2.792 1.946,-5.183c0.081,-2.573 -1.476,-3.898 -1.946,-4.241c-0.02,-0.028 -0.037,-0.054 -0.056,-0.082c0.012,-0.037 0.02,-0.068 0.031,-0.104c2.993,-2.433 1.69,-5.738 1.69,-5.738c-0.636,-0.338 -1.313,-0.55 -1.797,-0.98c-4.337,-3.863 -4.606,-6.636 -1.196,-11.288c0.866,-1.185 1.746,-2.375 2.467,-3.649c1.761,-3.117 1.359,-4.599 -1.81,-6.367c-2.28,-1.271 -4.743,-2.218 -6.988,-3.545c-6.396,-3.778 -11.834,-8.521 -15.061,-15.174c2.171,-3.872 2.171,-3.872 1.304,-6.341c-0.791,0.865 -1.527,1.672 -2.688,2.944c0,-3.049 0.294,-5.379 -0.083,-7.595c-0.367,-2.156 -0.85,-4.792 -2.281,-6.178c-5.217,-5.045 -8.175,-11.292 -10.92,-17.796c-2.029,-4.806 -4.196,-9.66 -8.171,-13.236c-2,-1.8 -4.474,-3.072 -6.742,-4.587c0,-1.354 0.017,-2.653 -0.006,-3.951c-0.019,-1.297 0.038,-2.61 -0.136,-3.89c-0.702,-5.113 -4.34,-7.564 -9.404,-6.548c-3.181,0.638 -6.385,1.238 -9.605,1.563c-1.888,0.19 -3.584,0.128 -3.225,-3.432c1.62,0 3.162,0 5.368,0c-1.104,0 -1.515,-1.544 -2.067,-1.769c-2.208,-0.892 -4.045,-0.36 -5.099,1.396c-1.25,2.077 0.023,3.586 1.504,4.555c1.273,0.832 3.004,1.441 4.492,1.365c3.234,-0.167 6.436,-0.842 9.658,-1.296c2.8,-0.394 4.451,0.587 5.01,3.266c0.266,1.278 0.047,2.658 0.047,3.561c-3.72,-1.383 -6.953,-3.369 -10.347,-3.69c-7.432,-0.706 -14.956,-0.912 -22.413,-0.611c-3.084,0.124 -6.484,1.511 -9.049,3.309c-4.547,3.188 -9.441,5.039 -14.773,6.138c-2.549,0.526 -5.106,1.149 -7.55,2.03c-4.689,1.689 -8.626,4.342 -11.53,8.63c-1.595,2.354 -3.836,4.445 -6.188,6.076c-4.591,3.184 -9.001,6.424 -12.144,11.187c-1.712,2.596 -4.124,4.212 -7.839,3.113c-1.104,-4.244 -4.87,-4.911 -8.627,-5.423c-1.764,-0.242 -3.625,-0.32 -5.373,-0.04c-10.247,1.643 -19.554,5.56 -26.813,13.074c-6.565,6.797 -5.937,10.365 -2.739,16.202c2.063,3.766 2.131,7.435 -0.279,11.089c-1.874,2.842 -2.57,6.013 -2.071,9.354c1.284,8.609 4.072,16.22 13.409,19.251c0.615,0.198 1.156,0.607 1.748,0.881c2.125,0.984 3.145,2.592 3.365,4.971c0.144,1.54 0.491,3.357 1.429,4.479c6.245,7.454 20.432,8.503 25.041,-1.951c0.189,-0.432 0.624,-0.756 0.945,-1.129c0.305,0.134 0.609,0.266 0.914,0.399c-0.27,1.348 -0.539,2.694 -0.81,4.042c-0.351,1.75 -1.204,3.572 -0.961,5.235c0.915,6.264 1.484,12.716 3.503,18.648c2.452,7.204 8.53,14.587 18.762,13.197c3.549,-0.483 6.782,0.391 9.818,2.234c1.254,0.76 2.657,1.272 3.912,2.027c3.221,1.943 6.497,1.898 9.857,0.464c2.024,-0.863 4.052,-1.726 6.331,-2.698c-1.16,4.041 -2.278,7.594 -3.189,11.197c-1.336,5.287 -3.631,9.452 -9.941,9.48c-0.115,0 -0.228,0.204 -0.481,0.441c0.473,1.385 0.975,2.855 1.446,4.234c-3.43,5.076 -9.388,5.288 -13.951,7.881c8.949,0.082 15.39,-4.254 16.179,-10.562c4.91,-1.582 7.805,-5.034 9.233,-9.921c0.777,-2.659 1.611,-5.32 2.672,-7.879c1.746,-4.209 4.792,-6.719 9.406,-6.833c-0.302,3.22 -0.579,6.169 -0.855,9.113c-6.687,1.486 -6.819,1.649 -6.534,8.315c-1.583,1.269 -3.238,2.596 -5.685,4.557c6.226,-1.428 7.436,-2.953 8.025,-9.211c0.938,-0.325 1.962,-0.799 3.039,-1.035c4.009,-0.875 4.11,-0.859 3.682,-5.037c-0.251,-2.445 0.739,-3.996 3.163,-5.664c0.451,1.766 0.892,3.088 1.115,4.445c0.316,1.923 0.547,3.867 0.687,5.81c0.517,7.404 -0.06,14.643 -3.457,21.43c-4.159,8.313 -8.334,16.622 -12.413,24.973c-1.174,2.404 -2.482,4.234 -5.172,5.433c-4.265,1.907 -7.421,6.556 -7.757,10.832c15.258,2.949 26.312,6.953 41.04,18.833c9.647,7.785 19.862,11.309 29.399,12.456c0.003,-0.004 10.248,-13.711 19.753,-32.558c-0.241,-0.365 -0.484,-0.728 -0.723,-1.095c-6.25,-9.478 -11.533,-18.592 -13.049,-22.521c-2.853,-7.395 -3.838,-14.659 -2.132,-22.466c1.983,-9.083 3.633,-18.206 7.761,-26.672c2.412,-4.95 6.15,-7.711 11.519,-8.858c6.366,-1.36 12.689,-3.037 18.94,-4.868c6.706,-1.966 9.308,-7.753 6.747,-14.275Z" style="fill:#a70d42;fill-rule:nonzero;"/>
    </g>
    <g id="Logo">
        <g transform="matrix(1,0,0,1,6.90649,-13.7511)">
            <path d="M21.739,317.971l2.774,0l0,6.455l6.164,0l0,2.209l-8.938,0l0,-8.664Z" style="fill-opacity:0.721569;fill-rule:nonzero;"/>
            <rect x="31.28" y="317.971" width="2.774" height="8.665" style="fill-opacity:0.721569;fill-rule:nonzero;"/>
            <path d="M35.266,317.971l4.627,0l4.539,6.461l0.273,0l-0.064,-6.461l2.685,0l0,8.664l-4.589,0l-4.558,-6.468l-0.285,0l0.057,6.468l-2.685,0l0,-8.664Z" style="fill-opacity:0.721569;fill-rule:nonzero;"/>
            <path d="M48.539,326.635l0,-8.664l6.252,0c1.359,0 2.237,0.023 2.635,0.069c0.77,0.089 1.337,0.29 1.701,0.603c0.389,0.339 0.645,0.885 0.768,1.638c0.059,0.36 0.089,0.988 0.089,1.885c0,1.147 -0.051,1.945 -0.153,2.393c-0.139,0.61 -0.368,1.058 -0.685,1.346c-0.216,0.199 -0.478,0.349 -0.787,0.451c-0.309,0.101 -0.726,0.175 -1.251,0.222c-0.415,0.038 -1.185,0.057 -2.31,0.057l-6.259,0Zm2.602,-2.209l3.676,0c0.744,0 1.301,-0.03 1.669,-0.089c0.411,-0.067 0.669,-0.294 0.774,-0.679c0.081,-0.279 0.121,-0.719 0.121,-1.32c0,-0.643 -0.042,-1.115 -0.127,-1.416c-0.101,-0.376 -0.334,-0.605 -0.698,-0.685c-0.288,-0.068 -0.876,-0.102 -1.765,-0.102l-3.65,0l0,4.291Z" style="fill-opacity:0.721569;fill-rule:nonzero;"/>
            <path d="M61.025,317.971l9.597,0l0,2.037l-6.995,0l0,1.251l6.64,0l0,1.904l-6.64,0l0,1.39l7.046,0l0,2.082l-9.648,0l0,-8.664Z" style="fill-opacity:0.721569;fill-rule:nonzero;"/>
            <path d="M71.498,317.971l4.628,0l4.538,6.461l0.273,0l-0.063,-6.461l2.685,0l0,8.664l-4.59,0l-4.557,-6.468l-0.286,0l0.057,6.468l-2.685,0l0,-8.664Z" style="fill-opacity:0.721569;fill-rule:nonzero;"/>
            <path d="M84.771,326.635l0,-8.664l6.227,0c1.325,0.004 2.112,0.014 2.362,0.031c0.567,0.034 0.984,0.136 1.25,0.305c0.305,0.195 0.504,0.463 0.597,0.806c0.084,0.326 0.127,0.694 0.127,1.105c0,0.507 -0.049,0.89 -0.146,1.149c-0.161,0.418 -0.502,0.704 -1.022,0.856c0.385,0.068 0.671,0.166 0.857,0.292c0.423,0.284 0.634,0.881 0.634,1.791c0,0.706 -0.11,1.229 -0.33,1.567c-0.194,0.297 -0.49,0.5 -0.888,0.61c-0.339,0.089 -0.906,0.135 -1.701,0.139l-1.721,0.013l-6.246,0Zm2.514,-5.249l3.72,0c0.816,0 1.303,-0.032 1.46,-0.096c0.207,-0.08 0.311,-0.287 0.311,-0.622c0,-0.342 -0.125,-0.548 -0.375,-0.615c-0.097,-0.026 -0.563,-0.041 -1.396,-0.045l-3.72,0l0,1.378Zm0,3.167l3.732,0c0.694,-0.004 1.103,-0.008 1.225,-0.013c0.386,-0.017 0.631,-0.093 0.737,-0.228c0.08,-0.11 0.12,-0.279 0.12,-0.508c0,-0.364 -0.131,-0.578 -0.393,-0.641c-0.093,-0.025 -0.656,-0.04 -1.689,-0.045l-3.732,0l0,1.435Z" style="fill-opacity:0.721569;fill-rule:nonzero;"/>
            <path d="M96.572,317.971l9.597,0l0,2.037l-6.995,0l0,1.251l6.64,0l0,1.904l-6.64,0l0,1.39l7.046,0l0,2.082l-9.648,0l0,-8.664Z" style="fill-opacity:0.721569;fill-rule:nonzero;"/>
            <path d="M107.045,326.635l0,-8.664l6.38,0c1.506,0.004 2.395,0.019 2.666,0.044c0.308,0.03 0.589,0.12 0.841,0.27c0.251,0.15 0.447,0.341 0.587,0.574c0.144,0.25 0.23,0.51 0.26,0.781c0.038,0.317 0.057,0.7 0.057,1.149c0,0.707 -0.048,1.2 -0.146,1.479c-0.148,0.415 -0.427,0.702 -0.838,0.863c-0.139,0.055 -0.349,0.104 -0.628,0.146c0.554,0.043 0.952,0.201 1.193,0.476c0.106,0.123 0.181,0.264 0.226,0.422c0.044,0.159 0.075,0.391 0.092,0.695c0.004,0.157 0.006,0.477 0.006,0.959l0,0.806l-2.603,0l0,-0.463c0,-0.517 -0.023,-0.887 -0.069,-1.111c-0.068,-0.322 -0.239,-0.512 -0.515,-0.571c-0.182,-0.038 -0.564,-0.058 -1.148,-0.058l-3.72,0l0,2.203l-2.641,0Zm2.641,-4.367l3.713,0c0.555,-0.009 0.882,-0.017 0.984,-0.025c0.372,-0.022 0.607,-0.136 0.705,-0.343c0.067,-0.144 0.101,-0.387 0.101,-0.73c0,-0.296 -0.029,-0.517 -0.089,-0.66c-0.089,-0.212 -0.302,-0.33 -0.641,-0.356c-0.118,-0.008 -0.474,-0.015 -1.066,-0.019l-3.707,0l0,2.133Z" style="fill-opacity:0.721569;fill-rule:nonzero;"/>
            <path d="M124.044,321.722l6.037,0c0.008,0.19 0.013,0.313 0.013,0.368c0,1.134 -0.032,2.01 -0.096,2.628c-0.101,0.999 -0.668,1.604 -1.701,1.816c-0.533,0.105 -1.117,0.169 -1.752,0.19c-0.673,0.025 -1.47,0.038 -2.393,0.038c-1.638,0 -2.808,-0.059 -3.51,-0.178c-0.973,-0.16 -1.576,-0.609 -1.809,-1.345c-0.114,-0.36 -0.18,-0.773 -0.197,-1.238c-0.021,-0.584 -0.032,-1.206 -0.032,-1.866c0,-1.118 0.053,-1.903 0.159,-2.355c0.152,-0.631 0.415,-1.075 0.787,-1.333c0.195,-0.14 0.439,-0.247 0.733,-0.321c0.294,-0.074 0.71,-0.134 1.248,-0.181c0.757,-0.068 1.781,-0.101 3.072,-0.101c1.659,0 2.833,0.065 3.523,0.196c0.698,0.132 1.189,0.364 1.472,0.699c0.25,0.3 0.402,0.774 0.457,1.421c0.013,0.174 0.019,0.441 0.019,0.8l-2.64,0c-0.004,-0.237 -0.017,-0.397 -0.038,-0.482c-0.059,-0.216 -0.248,-0.345 -0.565,-0.387c-0.419,-0.055 -1.244,-0.083 -2.476,-0.083c-1.096,0 -1.855,0.036 -2.279,0.108c-0.402,0.072 -0.645,0.292 -0.73,0.66c-0.067,0.28 -0.101,0.777 -0.101,1.492c0,0.821 0.036,1.382 0.108,1.682c0.093,0.402 0.381,0.626 0.863,0.673c0.237,0.021 0.952,0.04 2.146,0.057c1.303,-0.008 2.143,-0.034 2.52,-0.076c0.342,-0.055 0.539,-0.205 0.59,-0.451c0.03,-0.152 0.044,-0.385 0.044,-0.698l-3.472,0l0,-1.733Z" style="fill-opacity:0.721569;fill-rule:nonzero;"/>
            <path d="M21.739,339.635l0,-8.664l6.379,0c1.507,0.004 2.396,0.019 2.666,0.044c0.309,0.03 0.59,0.12 0.841,0.27c0.252,0.15 0.448,0.341 0.588,0.574c0.144,0.25 0.23,0.51 0.26,0.781c0.038,0.317 0.057,0.7 0.057,1.149c0,0.707 -0.049,1.2 -0.146,1.479c-0.148,0.415 -0.427,0.702 -0.838,0.863c-0.14,0.055 -0.349,0.104 -0.628,0.146c0.554,0.043 0.952,0.201 1.193,0.476c0.106,0.123 0.181,0.264 0.225,0.422c0.045,0.159 0.076,0.391 0.092,0.695c0.005,0.157 0.007,0.477 0.007,0.959l0,0.806l-2.603,0l0,-0.463c0,-0.517 -0.023,-0.887 -0.07,-1.111c-0.067,-0.322 -0.239,-0.512 -0.514,-0.571c-0.182,-0.038 -0.565,-0.058 -1.149,-0.058l-3.719,0l0,2.203l-2.641,0Zm2.641,-4.367l3.713,0c0.554,-0.009 0.882,-0.017 0.984,-0.025c0.372,-0.022 0.607,-0.136 0.704,-0.343c0.068,-0.144 0.102,-0.387 0.102,-0.73c0,-0.296 -0.03,-0.517 -0.089,-0.66c-0.089,-0.212 -0.302,-0.33 -0.641,-0.356c-0.118,-0.008 -0.474,-0.015 -1.066,-0.019l-3.707,0l0,2.133Z" style="fill-opacity:0.721569;fill-rule:nonzero;"/>
            <path d="M33.438,330.971l9.597,0l0,2.037l-6.995,0l0,1.251l6.64,0l0,1.904l-6.64,0l0,1.39l7.046,0l0,2.082l-9.648,0l0,-8.664Z" style="fill-opacity:0.721569;fill-rule:nonzero;"/>
            <path d="M43.607,336.766l2.558,0c-0.004,0.427 0.082,0.702 0.26,0.825c0.093,0.059 0.199,0.1 0.317,0.121c0.119,0.021 0.326,0.036 0.623,0.044c0.148,0.004 0.632,0.009 1.453,0.013c1.126,-0.004 1.777,-0.011 1.955,-0.019c0.335,-0.026 0.555,-0.07 0.66,-0.133c0.148,-0.094 0.223,-0.301 0.223,-0.623c0,-0.22 -0.047,-0.374 -0.14,-0.463c-0.127,-0.123 -0.43,-0.188 -0.908,-0.197c-0.33,0 -1.02,-0.025 -2.069,-0.076c-1.084,-0.051 -1.786,-0.08 -2.108,-0.089c-0.837,-0.025 -1.428,-0.122 -1.771,-0.292c-0.44,-0.216 -0.727,-0.584 -0.863,-1.104c-0.076,-0.288 -0.114,-0.665 -0.114,-1.13c0,-0.982 0.186,-1.674 0.558,-2.076c0.28,-0.304 0.703,-0.505 1.27,-0.603c0.512,-0.084 1.731,-0.127 3.656,-0.127c1.253,0 2.137,0.036 2.654,0.108c0.681,0.097 1.172,0.267 1.472,0.508c0.406,0.334 0.61,0.933 0.61,1.796c0,0.093 -0.003,0.242 -0.007,0.445l-2.558,0c-0.008,-0.208 -0.023,-0.352 -0.044,-0.432c-0.06,-0.237 -0.254,-0.37 -0.584,-0.4c-0.292,-0.025 -1.003,-0.038 -2.133,-0.038c-1.117,0 -1.78,0.032 -1.987,0.095c-0.233,0.076 -0.349,0.273 -0.349,0.591c0,0.304 0.123,0.49 0.368,0.558c0.207,0.055 1.141,0.108 2.799,0.159c1.503,0.042 2.461,0.095 2.876,0.159c0.419,0.063 0.752,0.158 1,0.285c0.247,0.127 0.445,0.307 0.593,0.54c0.224,0.343 0.337,0.895 0.337,1.657c0,0.85 -0.11,1.474 -0.33,1.872c-0.221,0.394 -0.58,0.662 -1.08,0.806c-0.49,0.144 -1.842,0.216 -4.056,0.216c-1.345,0 -2.317,-0.036 -2.913,-0.108c-0.728,-0.084 -1.251,-0.25 -1.568,-0.495c-0.343,-0.262 -0.546,-0.633 -0.61,-1.111c-0.033,-0.233 -0.05,-0.508 -0.05,-0.825l0,-0.457Z" style="fill-opacity:0.721569;fill-rule:nonzero;"/>
            <path d="M55.128,330.971l9.597,0l0,2.037l-6.995,0l0,1.251l6.64,0l0,1.904l-6.64,0l0,1.39l7.046,0l0,2.082l-9.648,0l0,-8.664Z" style="fill-opacity:0.721569;fill-rule:nonzero;"/>
            <path d="M75.009,339.635l-0.743,-1.466l-5.732,0l-0.743,1.466l-3.015,0l4.596,-8.664l4.1,0l4.533,8.664l-2.996,0Zm-1.67,-3.364l-1.669,-3.282l-0.527,0l-1.67,3.282l3.866,0Z" style="fill-opacity:0.721569;fill-rule:nonzero;"/>
            <path d="M78.398,339.635l0,-8.664l6.38,0c1.506,0.004 2.395,0.019 2.666,0.044c0.309,0.03 0.589,0.12 0.841,0.27c0.251,0.15 0.447,0.341 0.587,0.574c0.144,0.25 0.23,0.51 0.26,0.781c0.038,0.317 0.057,0.7 0.057,1.149c0,0.707 -0.048,1.2 -0.146,1.479c-0.148,0.415 -0.427,0.702 -0.838,0.863c-0.139,0.055 -0.349,0.104 -0.628,0.146c0.554,0.043 0.952,0.201 1.193,0.476c0.106,0.123 0.181,0.264 0.226,0.422c0.044,0.159 0.075,0.391 0.092,0.695c0.004,0.157 0.006,0.477 0.006,0.959l0,0.806l-2.603,0l0,-0.463c0,-0.517 -0.023,-0.887 -0.069,-1.111c-0.068,-0.322 -0.239,-0.512 -0.515,-0.571c-0.181,-0.038 -0.564,-0.058 -1.148,-0.058l-3.72,0l0,2.203l-2.641,0Zm2.641,-4.367l3.713,0c0.555,-0.009 0.883,-0.017 0.984,-0.025c0.372,-0.022 0.607,-0.136 0.705,-0.343c0.067,-0.144 0.101,-0.387 0.101,-0.73c0,-0.296 -0.029,-0.517 -0.089,-0.66c-0.088,-0.212 -0.302,-0.33 -0.641,-0.356c-0.118,-0.008 -0.474,-0.015 -1.066,-0.019l-3.707,0l0,2.133Z" style="fill-opacity:0.721569;fill-rule:nonzero;"/>
            <path d="M98.387,336.29l2.641,0c0.017,0.423 0.025,0.713 0.025,0.87c0,0.63 -0.099,1.136 -0.298,1.517c-0.208,0.397 -0.603,0.675 -1.187,0.831c-0.639,0.174 -1.744,0.26 -3.314,0.26c-1.731,0 -2.896,-0.027 -3.497,-0.082c-0.559,-0.047 -0.999,-0.121 -1.321,-0.222c-0.321,-0.102 -0.588,-0.25 -0.8,-0.445c-0.283,-0.262 -0.463,-0.609 -0.539,-1.041c-0.085,-0.452 -0.127,-1.324 -0.127,-2.615c0,-1.24 0.032,-2.076 0.095,-2.507c0.093,-0.648 0.345,-1.117 0.756,-1.409c0.313,-0.22 0.812,-0.377 1.498,-0.47c0.711,-0.093 1.986,-0.14 3.827,-0.14c1.096,0 1.877,0.024 2.343,0.07c0.702,0.068 1.214,0.203 1.536,0.406c0.397,0.25 0.649,0.612 0.755,1.086c0.076,0.338 0.114,0.73 0.114,1.174c0,0.076 -0.002,0.243 -0.006,0.502l-2.641,0c-0.008,-0.212 -0.017,-0.356 -0.025,-0.432c-0.034,-0.258 -0.15,-0.421 -0.349,-0.489c-0.301,-0.101 -1.122,-0.152 -2.463,-0.152c-0.914,0 -1.545,0.025 -1.892,0.076c-0.423,0.059 -0.685,0.29 -0.787,0.692c-0.08,0.326 -0.12,0.85 -0.12,1.574c0,0.745 0.04,1.259 0.12,1.543c0.102,0.368 0.381,0.581 0.838,0.641c0.372,0.046 1.026,0.07 1.962,0.07c1.011,0 1.701,-0.022 2.069,-0.064c0.347,-0.038 0.567,-0.163 0.66,-0.374c0.076,-0.178 0.119,-0.468 0.127,-0.87Z" style="fill-opacity:0.721569;fill-rule:nonzero;"/>
            <path d="M101.967,330.971l2.774,0l0,3.097l5.96,0l0,-3.097l2.774,0l0,8.664l-2.774,0l0,-3.142l-5.96,0l0,3.142l-2.774,0l0,-8.664Z" style="fill-opacity:0.721569;fill-rule:nonzero;"/>
        </g>
        <g transform="matrix(1,0,0,1,4.90649,-15.7511)">
            <path d="M21.739,317.971l2.774,0l0,6.455l6.164,0l0,2.209l-8.938,0l0,-8.664Z" style="fill:#fff;fill-rule:nonzero;"/>
            <rect x="31.28" y="317.971" width="2.774" height="8.665" style="fill:#fff;fill-rule:nonzero;"/>
            <path d="M35.266,317.971l4.627,0l4.539,6.461l0.273,0l-0.064,-6.461l2.685,0l0,8.664l-4.589,0l-4.558,-6.468l-0.285,0l0.057,6.468l-2.685,0l0,-8.664Z" style="fill:#fff;fill-rule:nonzero;"/>
            <path d="M48.539,326.635l0,-8.664l6.252,0c1.359,0 2.237,0.023 2.635,0.069c0.77,0.089 1.337,0.29 1.701,0.603c0.389,0.339 0.645,0.885 0.768,1.638c0.059,0.36 0.089,0.988 0.089,1.885c0,1.147 -0.051,1.945 -0.153,2.393c-0.139,0.61 -0.368,1.058 -0.685,1.346c-0.216,0.199 -0.478,0.349 -0.787,0.451c-0.309,0.101 -0.726,0.175 -1.251,0.222c-0.415,0.038 -1.185,0.057 -2.31,0.057l-6.259,0Zm2.602,-2.209l3.676,0c0.744,0 1.301,-0.03 1.669,-0.089c0.411,-0.067 0.669,-0.294 0.774,-0.679c0.081,-0.279 0.121,-0.719 0.121,-1.32c0,-0.643 -0.042,-1.115 -0.127,-1.416c-0.101,-0.376 -0.334,-0.605 -0.698,-0.685c-0.288,-0.068 -0.876,-0.102 -1.765,-0.102l-3.65,0l0,4.291Z" style="fill:#fff;fill-rule:nonzero;"/>
            <path d="M61.025,317.971l9.597,0l0,2.037l-6.995,0l0,1.251l6.64,0l0,1.904l-6.64,0l0,1.39l7.046,0l0,2.082l-9.648,0l0,-8.664Z" style="fill:#fff;fill-rule:nonzero;"/>
            <path d="M71.498,317.971l4.628,0l4.538,6.461l0.273,0l-0.063,-6.461l2.685,0l0,8.664l-4.59,0l-4.557,-6.468l-0.286,0l0.057,6.468l-2.685,0l0,-8.664Z" style="fill:#fff;fill-rule:nonzero;"/>
            <path d="M84.771,326.635l0,-8.664l6.227,0c1.325,0.004 2.112,0.014 2.362,0.031c0.567,0.034 0.984,0.136 1.25,0.305c0.305,0.195 0.504,0.463 0.597,0.806c0.084,0.326 0.127,0.694 0.127,1.105c0,0.507 -0.049,0.89 -0.146,1.149c-0.161,0.418 -0.502,0.704 -1.022,0.856c0.385,0.068 0.671,0.166 0.857,0.292c0.423,0.284 0.634,0.881 0.634,1.791c0,0.706 -0.11,1.229 -0.33,1.567c-0.194,0.297 -0.49,0.5 -0.888,0.61c-0.339,0.089 -0.906,0.135 -1.701,0.139l-1.721,0.013l-6.246,0Zm2.514,-5.249l3.72,0c0.816,0 1.303,-0.032 1.46,-0.096c0.207,-0.08 0.311,-0.287 0.311,-0.622c0,-0.342 -0.125,-0.548 -0.375,-0.615c-0.097,-0.026 -0.563,-0.041 -1.396,-0.045l-3.72,0l0,1.378Zm0,3.167l3.732,0c0.694,-0.004 1.103,-0.008 1.225,-0.013c0.386,-0.017 0.631,-0.093 0.737,-0.228c0.08,-0.11 0.12,-0.279 0.12,-0.508c0,-0.364 -0.131,-0.578 -0.393,-0.641c-0.093,-0.025 -0.656,-0.04 -1.689,-0.045l-3.732,0l0,1.435Z" style="fill:#fff;fill-rule:nonzero;"/>
            <path d="M96.572,317.971l9.597,0l0,2.037l-6.995,0l0,1.251l6.64,0l0,1.904l-6.64,0l0,1.39l7.046,0l0,2.082l-9.648,0l0,-8.664Z" style="fill:#fff;fill-rule:nonzero;"/>
            <path d="M107.045,326.635l0,-8.664l6.38,0c1.506,0.004 2.395,0.019 2.666,0.044c0.308,0.03 0.589,0.12 0.841,0.27c0.251,0.15 0.447,0.341 0.587,0.574c0.144,0.25 0.23,0.51 0.26,0.781c0.038,0.317 0.057,0.7 0.057,1.149c0,0.707 -0.048,1.2 -0.146,1.479c-0.148,0.415 -0.427,0.702 -0.838,0.863c-0.139,0.055 -0.349,0.104 -0.628,0.146c0.554,0.043 0.952,0.201 1.193,0.476c0.106,0.123 0.181,0.264 0.226,0.422c0.044,0.159 0.075,0.391 0.092,0.695c0.004,0.157 0.006,0.477 0.006,0.959l0,0.806l-2.603,0l0,-0.463c0,-0.517 -0.023,-0.887 -0.069,-1.111c-0.068,-0.322 -0.239,-0.512 -0.515,-0.571c-0.182,-0.038 -0.564,-0.058 -1.148,-0.058l-3.72,0l0,2.203l-2.641,0Zm2.641,-4.367l3.713,0c0.555,-0.009 0.882,-0.017 0.984,-0.025c0.372,-0.022 0.607,-0.136 0.705,-0.343c0.067,-0.144 0.101,-0.387 0.101,-0.73c0,-0.296 -0.029,-0.517 -0.089,-0.66c-0.089,-0.212 -0.302,-0.33 -0.641,-0.356c-0.118,-0.008 -0.474,-0.015 -1.066,-0.019l-3.707,0l0,2.133Z" style="fill:#fff;fill-rule:nonzero;"/>
            <path d="M124.044,321.722l6.037,0c0.008,0.19 0.013,0.313 0.013,0.368c0,1.134 -0.032,2.01 -0.096,2.628c-0.101,0.999 -0.668,1.604 -1.701,1.816c-0.533,0.105 -1.117,0.169 -1.752,0.19c-0.673,0.025 -1.47,0.038 -2.393,0.038c-1.638,0 -2.808,-0.059 -3.51,-0.178c-0.973,-0.16 -1.576,-0.609 -1.809,-1.345c-0.114,-0.36 -0.18,-0.773 -0.197,-1.238c-0.021,-0.584 -0.032,-1.206 -0.032,-1.866c0,-1.118 0.053,-1.903 0.159,-2.355c0.152,-0.631 0.415,-1.075 0.787,-1.333c0.195,-0.14 0.439,-0.247 0.733,-0.321c0.294,-0.074 0.71,-0.134 1.248,-0.181c0.757,-0.068 1.781,-0.101 3.072,-0.101c1.659,0 2.833,0.065 3.523,0.196c0.698,0.132 1.189,0.364 1.472,0.699c0.25,0.3 0.402,0.774 0.457,1.421c0.013,0.174 0.019,0.441 0.019,0.8l-2.64,0c-0.004,-0.237 -0.017,-0.397 -0.038,-0.482c-0.059,-0.216 -0.248,-0.345 -0.565,-0.387c-0.419,-0.055 -1.244,-0.083 -2.476,-0.083c-1.096,0 -1.855,0.036 -2.279,0.108c-0.402,0.072 -0.645,0.292 -0.73,0.66c-0.067,0.28 -0.101,0.777 -0.101,1.492c0,0.821 0.036,1.382 0.108,1.682c0.093,0.402 0.381,0.626 0.863,0.673c0.237,0.021 0.952,0.04 2.146,0.057c1.303,-0.008 2.143,-0.034 2.52,-0.076c0.342,-0.055 0.539,-0.205 0.59,-0.451c0.03,-0.152 0.044,-0.385 0.044,-0.698l-3.472,0l0,-1.733Z" style="fill:#fff;fill-rule:nonzero;"/>
            <path d="M21.739,339.635l0,-8.664l6.379,0c1.507,0.004 2.396,0.019 2.666,0.044c0.309,0.03 0.59,0.12 0.841,0.27c0.252,0.15 0.448,0.341 0.588,0.574c0.144,0.25 0.23,0.51 0.26,0.781c0.038,0.317 0.057,0.7 0.057,1.149c0,0.707 -0.049,1.2 -0.146,1.479c-0.148,0.415 -0.427,0.702 -0.838,0.863c-0.14,0.055 -0.349,0.104 -0.628,0.146c0.554,0.043 0.952,0.201 1.193,0.476c0.106,0.123 0.181,0.264 0.225,0.422c0.045,0.159 0.076,0.391 0.092,0.695c0.005,0.157 0.007,0.477 0.007,0.959l0,0.806l-2.603,0l0,-0.463c0,-0.517 -0.023,-0.887 -0.07,-1.111c-0.067,-0.322 -0.239,-0.512 -0.514,-0.571c-0.182,-0.038 -0.565,-0.058 -1.149,-0.058l-3.719,0l0,2.203l-2.641,0Zm2.641,-4.367l3.713,0c0.554,-0.009 0.882,-0.017 0.984,-0.025c0.372,-0.022 0.607,-0.136 0.704,-0.343c0.068,-0.144 0.102,-0.387 0.102,-0.73c0,-0.296 -0.03,-0.517 -0.089,-0.66c-0.089,-0.212 -0.302,-0.33 -0.641,-0.356c-0.118,-0.008 -0.474,-0.015 -1.066,-0.019l-3.707,0l0,2.133Z" style="fill:#fff;fill-rule:nonzero;"/>
            <path d="M33.438,330.971l9.597,0l0,2.037l-6.995,0l0,1.251l6.64,0l0,1.904l-6.64,0l0,1.39l7.046,0l0,2.082l-9.648,0l0,-8.664Z" style="fill:#fff;fill-rule:nonzero;"/>
            <path d="M43.607,336.766l2.558,0c-0.004,0.427 0.082,0.702 0.26,0.825c0.093,0.059 0.199,0.1 0.317,0.121c0.119,0.021 0.326,0.036 0.623,0.044c0.148,0.004 0.632,0.009 1.453,0.013c1.126,-0.004 1.777,-0.011 1.955,-0.019c0.335,-0.026 0.555,-0.07 0.66,-0.133c0.148,-0.094 0.223,-0.301 0.223,-0.623c0,-0.22 -0.047,-0.374 -0.14,-0.463c-0.127,-0.123 -0.43,-0.188 -0.908,-0.197c-0.33,0 -1.02,-0.025 -2.069,-0.076c-1.084,-0.051 -1.786,-0.08 -2.108,-0.089c-0.837,-0.025 -1.428,-0.122 -1.771,-0.292c-0.44,-0.216 -0.727,-0.584 -0.863,-1.104c-0.076,-0.288 -0.114,-0.665 -0.114,-1.13c0,-0.982 0.186,-1.674 0.558,-2.076c0.28,-0.304 0.703,-0.505 1.27,-0.603c0.512,-0.084 1.731,-0.127 3.656,-0.127c1.253,0 2.137,0.036 2.654,0.108c0.681,0.097 1.172,0.267 1.472,0.508c0.406,0.334 0.61,0.933 0.61,1.796c0,0.093 -0.003,0.242 -0.007,0.445l-2.558,0c-0.008,-0.208 -0.023,-0.352 -0.044,-0.432c-0.06,-0.237 -0.254,-0.37 -0.584,-0.4c-0.292,-0.025 -1.003,-0.038 -2.133,-0.038c-1.117,0 -1.78,0.032 -1.987,0.095c-0.233,0.076 -0.349,0.273 -0.349,0.591c0,0.304 0.123,0.49 0.368,0.558c0.207,0.055 1.141,0.108 2.799,0.159c1.503,0.042 2.461,0.095 2.876,0.159c0.419,0.063 0.752,0.158 1,0.285c0.247,0.127 0.445,0.307 0.593,0.54c0.224,0.343 0.337,0.895 0.337,1.657c0,0.85 -0.11,1.474 -0.33,1.872c-0.221,0.394 -0.58,0.662 -1.08,0.806c-0.49,0.144 -1.842,0.216 -4.056,0.216c-1.345,0 -2.317,-0.036 -2.913,-0.108c-0.728,-0.084 -1.251,-0.25 -1.568,-0.495c-0.343,-0.262 -0.546,-0.633 -0.61,-1.111c-0.033,-0.233 -0.05,-0.508 -0.05,-0.825l0,-0.457Z" style="fill:#fff;fill-rule:nonzero;"/>
            <path d="M55.128,330.971l9.597,0l0,2.037l-6.995,0l0,1.251l6.64,0l0,1.904l-6.64,0l0,1.39l7.046,0l0,2.082l-9.648,0l0,-8.664Z" style="fill:#fff;fill-rule:nonzero;"/>
            <path d="M75.009,339.635l-0.743,-1.466l-5.732,0l-0.743,1.466l-3.015,0l4.596,-8.664l4.1,0l4.533,8.664l-2.996,0Zm-1.67,-3.364l-1.669,-3.282l-0.527,0l-1.67,3.282l3.866,0Z" style="fill:#fff;fill-rule:nonzero;"/>
            <path d="M78.398,339.635l0,-8.664l6.38,0c1.506,0.004 2.395,0.019 2.666,0.044c0.309,0.03 0.589,0.12 0.841,0.27c0.251,0.15 0.447,0.341 0.587,0.574c0.144,0.25 0.23,0.51 0.26,0.781c0.038,0.317 0.057,0.7 0.057,1.149c0,0.707 -0.048,1.2 -0.146,1.479c-0.148,0.415 -0.427,0.702 -0.838,0.863c-0.139,0.055 -0.349,0.104 -0.628,0.146c0.554,0.043 0.952,0.201 1.193,0.476c0.106,0.123 0.181,0.264 0.226,0.422c0.044,0.159 0.075,0.391 0.092,0.695c0.004,0.157 0.006,0.477 0.006,0.959l0,0.806l-2.603,0l0,-0.463c0,-0.517 -0.023,-0.887 -0.069,-1.111c-0.068,-0.322 -0.239,-0.512 -0.515,-0.571c-0.181,-0.038 -0.564,-0.058 -1.148,-0.058l-3.72,0l0,2.203l-2.641,0Zm2.641,-4.367l3.713,0c0.555,-0.009 0.883,-0.017 0.984,-0.025c0.372,-0.022 0.607,-0.136 0.705,-0.343c0.067,-0.144 0.101,-0.387 0.101,-0.73c0,-0.296 -0.029,-0.517 -0.089,-0.66c-0.088,-0.212 -0.302,-0.33 -0.641,-0.356c-0.118,-0.008 -0.474,-0.015 -1.066,-0.019l-3.707,0l0,2.133Z" style="fill:#fff;fill-rule:nonzero;"/>
            <path d="M98.387,336.29l2.641,0c0.017,0.423 0.025,0.713 0.025,0.87c0,0.63 -0.099,1.136 -0.298,1.517c-0.208,0.397 -0.603,0.675 -1.187,0.831c-0.639,0.174 -1.744,0.26 -3.314,0.26c-1.731,0 -2.896,-0.027 -3.497,-0.082c-0.559,-0.047 -0.999,-0.121 -1.321,-0.222c-0.321,-0.102 -0.588,-0.25 -0.8,-0.445c-0.283,-0.262 -0.463,-0.609 -0.539,-1.041c-0.085,-0.452 -0.127,-1.324 -0.127,-2.615c0,-1.24 0.032,-2.076 0.095,-2.507c0.093,-0.648 0.345,-1.117 0.756,-1.409c0.313,-0.22 0.812,-0.377 1.498,-0.47c0.711,-0.093 1.986,-0.14 3.827,-0.14c1.096,0 1.877,0.024 2.343,0.07c0.702,0.068 1.214,0.203 1.536,0.406c0.397,0.25 0.649,0.612 0.755,1.086c0.076,0.338 0.114,0.73 0.114,1.174c0,0.076 -0.002,0.243 -0.006,0.502l-2.641,0c-0.008,-0.212 -0.017,-0.356 -0.025,-0.432c-0.034,-0.258 -0.15,-0.421 -0.349,-0.489c-0.301,-0.101 -1.122,-0.152 -2.463,-0.152c-0.914,0 -1.545,0.025 -1.892,0.076c-0.423,0.059 -0.685,0.29 -0.787,0.692c-0.08,0.326 -0.12,0.85 -0.12,1.574c0,0.745 0.04,1.259 0.12,1.543c0.102,0.368 0.381,0.581 0.838,0.641c0.372,0.046 1.026,0.07 1.962,0.07c1.011,0 1.701,-0.022 2.069,-0.064c0.347,-0.038 0.567,-0.163 0.66,-0.374c0.076,-0.178 0.119,-0.468 0.127,-0.87Z" style="fill:#fff;fill-rule:nonzero;"/>
            <path d="M101.967,330.971l2.774,0l0,3.097l5.96,0l0,-3.097l2.774,0l0,8.664l-2.774,0l0,-3.142l-5.96,0l0,3.142l-2.774,0l0,-8.664Z" style="fill:#fff;fill-rule:nonzero;"/>
        </g>
    </g>
    <g transform="matrix(1.15284,0,0,1.15284,42.3196,-264.431)">
        <path d="M40.257,335.921c0,0.648 -0.16,1.206 -0.478,1.672c-0.318,0.467 -0.748,0.815 -1.289,1.044c-0.352,0.15 -0.754,0.26 -1.204,0.329c-0.451,0.069 -0.992,0.104 -1.625,0.104l-0.528,0c0.004,-0.305 0.009,-0.87 0.015,-1.696c0.006,-0.826 0.009,-1.82 0.009,-2.983c0,-0.711 -0.002,-1.401 -0.006,-2.069c-0.004,-0.668 -0.01,-1.35 -0.018,-2.046l0.937,0l-0.018,2.734c0.811,0.008 1.46,0.08 1.948,0.216c0.489,0.137 0.895,0.321 1.219,0.555c0.336,0.241 0.593,0.542 0.771,0.904c0.178,0.362 0.267,0.774 0.267,1.236Zm-0.949,0.024c0,-0.478 -0.136,-0.88 -0.406,-1.204c-0.271,-0.324 -0.62,-0.559 -1.047,-0.705c-0.221,-0.076 -0.46,-0.134 -0.717,-0.175c-0.257,-0.042 -0.522,-0.063 -0.795,-0.063l-0.291,0c0,0.087 -0.001,0.403 -0.003,0.946c-0.001,0.544 -0.002,0.991 -0.002,1.343c0,0.66 0.002,1.127 0.005,1.4c0.004,0.272 0.006,0.549 0.006,0.83c0.435,0 0.833,-0.033 1.192,-0.098c0.36,-0.065 0.67,-0.167 0.931,-0.305c0.38,-0.202 0.662,-0.468 0.848,-0.798c0.186,-0.33 0.279,-0.72 0.279,-1.171Z" style="fill:#f8f8f8;fill-rule:nonzero;stroke:#fff0f0;stroke-width:0.48px;"/>
        <path d="M46.483,335.749l-4.287,0c0.004,0.419 0.092,0.804 0.266,1.154c0.174,0.349 0.441,0.639 0.801,0.868c0.229,0.146 0.49,0.256 0.783,0.329c0.292,0.073 0.644,0.11 1.055,0.11c0.225,0 0.432,-0.006 0.62,-0.018c0.188,-0.012 0.303,-0.02 0.347,-0.023l-0.107,0.788c-0.032,0.004 -0.136,0.011 -0.314,0.021c-0.178,0.01 -0.388,0.015 -0.629,0.015c-0.632,0 -1.183,-0.082 -1.651,-0.246c-0.469,-0.164 -0.853,-0.391 -1.154,-0.679c-0.257,-0.241 -0.475,-0.55 -0.655,-0.925c-0.18,-0.376 -0.27,-0.793 -0.27,-1.251c0,-0.451 0.068,-0.858 0.202,-1.222c0.134,-0.364 0.336,-0.702 0.605,-1.014c0.233,-0.269 0.523,-0.476 0.868,-0.623c0.346,-0.146 0.705,-0.219 1.077,-0.219c0.367,0 0.693,0.055 0.978,0.166c0.285,0.111 0.532,0.279 0.741,0.504c0.234,0.253 0.411,0.564 0.534,0.934c0.123,0.37 0.186,0.813 0.19,1.331Zm-0.919,-0.664c-0.064,-0.49 -0.231,-0.875 -0.501,-1.153c-0.271,-0.279 -0.628,-0.418 -1.071,-0.418c-0.442,0 -0.812,0.141 -1.109,0.424c-0.296,0.282 -0.502,0.665 -0.616,1.147l3.297,0Z" style="fill:#f8f8f8;fill-rule:nonzero;stroke:#fff0f0;stroke-width:0.48px;"/>
        <path d="M51.309,338.234l-0.106,0.753c-0.028,0.004 -0.096,0.008 -0.205,0.012c-0.109,0.004 -0.202,0.006 -0.282,0.006c-0.81,0 -1.423,-0.169 -1.838,-0.507c-0.415,-0.338 -0.622,-0.857 -0.622,-1.557c0,-0.439 0.003,-0.909 0.009,-1.411c0.006,-0.502 0.008,-1.125 0.008,-1.868l-0.996,0l0,-0.694l1.05,0l0,-1.405l0.86,0l0,1.405l2.122,0l0,0.694l-2.122,0c0,0.083 -0.003,0.33 -0.009,0.741c-0.006,0.411 -0.009,0.716 -0.009,0.913l0,1.471c0,0.514 0.138,0.884 0.415,1.112c0.277,0.227 0.704,0.341 1.281,0.341c0.071,0 0.156,-0.001 0.255,-0.003c0.099,-0.002 0.162,-0.003 0.189,-0.003Z" style="fill:#f8f8f8;fill-rule:nonzero;stroke:#fff0f0;stroke-width:0.48px;"/>
        <path d="M56.931,335.589c0,0.98 -0.002,1.779 -0.006,2.396c-0.004,0.616 -0.006,0.948 -0.006,0.996c-0.04,0.004 -0.223,0.019 -0.552,0.044c-0.328,0.026 -0.751,0.039 -1.268,0.039c-0.325,0 -0.651,-0.03 -0.979,-0.089c-0.328,-0.059 -0.611,-0.144 -0.848,-0.255c-0.316,-0.146 -0.572,-0.346 -0.768,-0.599c-0.195,-0.253 -0.293,-0.557 -0.293,-0.913c0,-0.376 0.115,-0.701 0.347,-0.976c0.231,-0.274 0.552,-0.497 0.963,-0.667c0.257,-0.106 0.6,-0.202 1.029,-0.287c0.429,-0.085 0.918,-0.149 1.468,-0.193c-0.024,-0.308 -0.101,-0.561 -0.232,-0.759c-0.13,-0.198 -0.322,-0.348 -0.575,-0.451c-0.174,-0.071 -0.367,-0.121 -0.581,-0.151c-0.213,-0.029 -0.462,-0.044 -0.747,-0.044c-0.178,0 -0.329,0.004 -0.454,0.012c-0.124,0.008 -0.293,0.017 -0.507,0.029l0.095,-0.788c0.06,-0.004 0.177,-0.011 0.353,-0.021c0.176,-0.01 0.416,-0.015 0.72,-0.015c0.467,0 0.883,0.048 1.249,0.145c0.365,0.097 0.669,0.254 0.91,0.472c0.225,0.205 0.395,0.459 0.51,0.762c0.114,0.302 0.172,0.74 0.172,1.313Zm-0.907,1.429c0,-0.134 0,-0.304 0,-0.51c0,-0.205 -0.002,-0.443 -0.006,-0.711c-0.174,0.008 -0.479,0.042 -0.914,0.103c-0.434,0.062 -0.8,0.15 -1.097,0.264c-0.221,0.083 -0.418,0.208 -0.59,0.374c-0.172,0.166 -0.257,0.371 -0.257,0.617c0,0.268 0.073,0.485 0.219,0.649c0.146,0.164 0.346,0.289 0.599,0.376c0.194,0.068 0.408,0.116 0.643,0.146c0.235,0.029 0.483,0.044 0.744,0.044c0.079,0 0.176,-0.002 0.291,-0.006c0.115,-0.004 0.235,-0.008 0.362,-0.012c0,-0.027 0.001,-0.158 0.003,-0.391c0.002,-0.233 0.003,-0.548 0.003,-0.943Z" style="fill:#f8f8f8;fill-rule:nonzero;stroke:#fff0f0;stroke-width:0.48px;"/>
        <path d="M67.136,333.199c-0.518,1.175 -1.067,2.419 -1.646,3.733c-0.579,1.315 -0.878,1.994 -0.898,2.037l-0.694,0c-0.02,-0.047 -0.308,-0.69 -0.866,-1.927c-0.557,-1.237 -1.124,-2.498 -1.701,-3.783l0.865,-0.398l2.088,4.94l0.011,0l2.028,-4.928l0.813,0.326Z" style="fill:#f8f8f8;fill-rule:nonzero;stroke:#fff0f0;stroke-width:0.48px;"/>
        <path d="M73.178,335.749l-4.287,0c0.004,0.419 0.093,0.804 0.267,1.154c0.174,0.349 0.44,0.639 0.8,0.868c0.23,0.146 0.49,0.256 0.783,0.329c0.292,0.073 0.644,0.11 1.055,0.11c0.226,0 0.432,-0.006 0.62,-0.018c0.188,-0.012 0.303,-0.02 0.347,-0.023l-0.107,0.788c-0.031,0.004 -0.136,0.011 -0.314,0.021c-0.178,0.01 -0.387,0.015 -0.629,0.015c-0.632,0 -1.183,-0.082 -1.651,-0.246c-0.468,-0.164 -0.853,-0.391 -1.153,-0.679c-0.257,-0.241 -0.476,-0.55 -0.656,-0.925c-0.179,-0.376 -0.269,-0.793 -0.269,-1.251c0,-0.451 0.067,-0.858 0.201,-1.222c0.135,-0.364 0.336,-0.702 0.605,-1.014c0.233,-0.269 0.523,-0.476 0.869,-0.623c0.346,-0.146 0.704,-0.219 1.076,-0.219c0.368,0 0.694,0.055 0.978,0.166c0.285,0.111 0.532,0.279 0.742,0.504c0.233,0.253 0.411,0.564 0.533,0.934c0.123,0.37 0.186,0.813 0.19,1.331Zm-0.919,-0.664c-0.063,-0.49 -0.23,-0.875 -0.501,-1.153c-0.271,-0.279 -0.628,-0.418 -1.07,-0.418c-0.443,0 -0.813,0.141 -1.109,0.424c-0.297,0.282 -0.502,0.665 -0.617,1.147l3.297,0Z" style="fill:#f8f8f8;fill-rule:nonzero;stroke:#fff0f0;stroke-width:0.48px;"/>
        <path d="M78.212,333.668c-0.217,0.051 -0.55,0.16 -0.999,0.326c-0.449,0.166 -0.965,0.387 -1.55,0.664c0,0.044 -0.002,0.242 -0.006,0.596c-0.004,0.354 -0.006,0.683 -0.006,0.987c0,0.467 0.005,1.02 0.015,1.661c0.009,0.64 0.014,0.996 0.014,1.067l-0.937,0c0,-0.067 0.004,-0.289 0.012,-0.664c0.008,-0.376 0.012,-1.018 0.012,-1.927c0,-0.368 -0.002,-0.882 -0.006,-1.542c-0.004,-0.66 -0.01,-1.283 -0.018,-1.868l0.92,0l0,0.902l0.005,0.005c0.447,-0.253 0.888,-0.472 1.323,-0.658c0.435,-0.186 0.783,-0.312 1.043,-0.379l0.178,0.83Z" style="fill:#f8f8f8;fill-rule:nonzero;stroke:#fff0f0;stroke-width:0.48px;"/>
        <path d="M82.677,337.232c0,0.292 -0.071,0.553 -0.213,0.782c-0.142,0.23 -0.328,0.415 -0.558,0.558c-0.241,0.15 -0.526,0.264 -0.856,0.341c-0.33,0.077 -0.695,0.115 -1.094,0.115c-0.194,0 -0.395,-0.009 -0.602,-0.026c-0.208,-0.018 -0.325,-0.029 -0.353,-0.033l-0.036,-0.777c0.036,0.004 0.173,0.015 0.412,0.033c0.24,0.018 0.478,0.027 0.715,0.027c0.138,0 0.316,-0.012 0.534,-0.036c0.217,-0.024 0.397,-0.067 0.539,-0.13c0.198,-0.087 0.344,-0.194 0.439,-0.321c0.095,-0.126 0.142,-0.278 0.142,-0.456c0,-0.162 -0.041,-0.294 -0.124,-0.395c-0.083,-0.1 -0.198,-0.198 -0.344,-0.293c-0.158,-0.107 -0.375,-0.221 -0.649,-0.341c-0.275,-0.121 -0.505,-0.236 -0.691,-0.347c-0.265,-0.162 -0.468,-0.354 -0.608,-0.575c-0.14,-0.222 -0.21,-0.478 -0.21,-0.771c0,-0.293 0.08,-0.555 0.24,-0.789c0.16,-0.233 0.374,-0.421 0.643,-0.563c0.233,-0.126 0.491,-0.21 0.774,-0.252c0.283,-0.041 0.556,-0.062 0.821,-0.062c0.241,0 0.439,0.004 0.593,0.012c0.154,0.008 0.243,0.011 0.267,0.011l0.065,0.789c-0.028,0 -0.149,-0.008 -0.365,-0.024c-0.215,-0.015 -0.451,-0.023 -0.708,-0.023c-0.182,0 -0.355,0.016 -0.519,0.047c-0.164,0.032 -0.303,0.077 -0.418,0.137c-0.17,0.086 -0.292,0.191 -0.365,0.314c-0.073,0.122 -0.109,0.241 -0.109,0.356c0,0.158 0.051,0.294 0.154,0.409c0.103,0.114 0.223,0.211 0.362,0.29c0.162,0.095 0.383,0.208 0.664,0.338c0.28,0.131 0.484,0.235 0.61,0.315c0.277,0.173 0.488,0.367 0.632,0.581c0.144,0.213 0.216,0.466 0.216,0.759Z" style="fill:#f8f8f8;fill-rule:nonzero;stroke:#fff0f0;stroke-width:0.48px;"/>
        <path d="M85.411,331.818l-1.044,0l0,-1.02l1.044,0l0,1.02Zm-0.053,7.151l-0.937,0c0.004,-0.063 0.009,-0.453 0.014,-1.168c0.006,-0.716 0.009,-1.307 0.009,-1.773c0,-0.407 -0.001,-0.855 -0.003,-1.343c-0.002,-0.488 -0.008,-1.061 -0.02,-1.717l0.937,0c-0.008,0.569 -0.015,1.102 -0.021,1.598c-0.006,0.496 -0.009,0.938 -0.009,1.326c0,0.921 0.005,1.66 0.015,2.217c0.01,0.558 0.015,0.844 0.015,0.86Z" style="fill:#f8f8f8;fill-rule:nonzero;stroke:#fff0f0;stroke-width:0.48px;"/>
        <path d="M92.859,335.969c0,0.458 -0.082,0.897 -0.247,1.316c-0.164,0.419 -0.4,0.777 -0.708,1.073c-0.261,0.249 -0.551,0.439 -0.869,0.57c-0.318,0.13 -0.679,0.195 -1.082,0.195c-0.379,0 -0.735,-0.064 -1.067,-0.193c-0.332,-0.128 -0.629,-0.317 -0.89,-0.566c-0.3,-0.288 -0.532,-0.644 -0.696,-1.067c-0.165,-0.423 -0.247,-0.87 -0.247,-1.34c0,-0.455 0.071,-0.873 0.211,-1.254c0.14,-0.382 0.359,-0.725 0.655,-1.029c0.265,-0.277 0.573,-0.489 0.925,-0.638c0.352,-0.148 0.724,-0.222 1.115,-0.222c0.411,0 0.784,0.068 1.118,0.205c0.334,0.136 0.631,0.341 0.892,0.613c0.301,0.313 0.524,0.663 0.67,1.053c0.146,0.389 0.22,0.817 0.22,1.284Zm-0.949,0.041c0,-0.371 -0.06,-0.733 -0.181,-1.085c-0.121,-0.352 -0.307,-0.648 -0.56,-0.889c-0.155,-0.151 -0.337,-0.266 -0.549,-0.347c-0.211,-0.081 -0.432,-0.122 -0.661,-0.122c-0.273,0 -0.51,0.044 -0.712,0.131c-0.201,0.087 -0.391,0.223 -0.569,0.409c-0.209,0.213 -0.374,0.486 -0.495,0.818c-0.121,0.332 -0.181,0.676 -0.181,1.032c0,0.403 0.061,0.774 0.184,1.112c0.123,0.338 0.32,0.629 0.593,0.874c0.154,0.139 0.332,0.244 0.534,0.317c0.201,0.074 0.415,0.11 0.64,0.11c0.249,0 0.481,-0.043 0.697,-0.13c0.215,-0.087 0.404,-0.214 0.566,-0.38c0.225,-0.229 0.397,-0.506 0.516,-0.83c0.119,-0.324 0.178,-0.664 0.178,-1.02Z" style="fill:#f8f8f8;fill-rule:nonzero;stroke:#fff0f0;stroke-width:0.48px;"/>
        <path d="M99.417,338.969l-0.937,0c0.004,-0.111 0.009,-0.476 0.015,-1.097c0.006,-0.621 0.009,-1.004 0.009,-1.15c0,-0.206 -0.001,-0.509 -0.003,-0.911c-0.002,-0.401 -0.005,-0.694 -0.009,-0.88c-0.012,-0.455 -0.099,-0.781 -0.261,-0.978c-0.162,-0.198 -0.443,-0.297 -0.842,-0.297c-0.241,0 -0.54,0.071 -0.896,0.214c-0.355,0.142 -0.715,0.324 -1.079,0.545c0,0.044 -0.002,0.279 -0.006,0.706c-0.004,0.427 -0.006,0.816 -0.006,1.168c0,0.458 0.005,1.012 0.015,1.66c0.01,0.648 0.015,0.988 0.015,1.02l-0.937,0c0,-0.028 0.004,-0.27 0.012,-0.726c0.008,-0.457 0.012,-1.136 0.012,-2.037c0,-0.415 -0.001,-0.902 -0.003,-1.459c-0.002,-0.557 -0.009,-1.15 -0.021,-1.779l0.925,0l-0.006,0.682l0.006,0.012c0.554,-0.316 1.015,-0.537 1.385,-0.661c0.369,-0.125 0.677,-0.187 0.922,-0.187c0.506,0 0.912,0.159 1.218,0.477c0.307,0.319 0.46,0.754 0.46,1.308c0,0.498 -0.003,0.928 -0.009,1.29c-0.006,0.361 -0.009,0.655 -0.009,0.88c0,0.36 0.005,0.81 0.015,1.349c0.01,0.54 0.015,0.823 0.015,0.851Z" style="fill:#f8f8f8;fill-rule:nonzero;stroke:#fff0f0;stroke-width:0.48px;"/>
        <path d="M40.055,350.969l-0.937,0c0.004,-0.111 0.009,-0.476 0.015,-1.097c0.006,-0.621 0.009,-1.004 0.009,-1.15c0,-0.206 -0.001,-0.509 -0.003,-0.911c-0.002,-0.401 -0.005,-0.694 -0.009,-0.88c-0.012,-0.455 -0.099,-0.781 -0.261,-0.978c-0.162,-0.198 -0.443,-0.297 -0.842,-0.297c-0.241,0 -0.54,0.071 -0.895,0.214c-0.356,0.142 -0.716,0.324 -1.08,0.545c0,0.044 -0.002,0.279 -0.005,0.706c-0.004,0.427 -0.006,0.816 -0.006,1.168c0,0.458 0.005,1.012 0.014,1.66c0.01,0.648 0.015,0.988 0.015,1.02l-0.937,0c0,-0.028 0.004,-0.27 0.012,-0.726c0.008,-0.457 0.012,-1.136 0.012,-2.037c0,-0.415 -0.001,-0.902 -0.003,-1.459c-0.002,-0.557 -0.009,-1.15 -0.021,-1.779l0.925,0l-0.006,0.682l0.006,0.012c0.554,-0.316 1.015,-0.537 1.385,-0.661c0.37,-0.125 0.677,-0.187 0.922,-0.187c0.506,0 0.912,0.159 1.219,0.477c0.306,0.319 0.459,0.754 0.459,1.308c0,0.498 -0.003,0.928 -0.009,1.29c-0.006,0.361 -0.009,0.655 -0.009,0.88c0,0.36 0.005,0.81 0.015,1.349c0.01,0.54 0.015,0.823 0.015,0.851Z" style="fill:#f8f8f8;fill-rule:nonzero;stroke:#fff0f0;stroke-width:0.48px;"/>
        <path d="M47.461,347.969c0,0.458 -0.082,0.897 -0.246,1.316c-0.164,0.419 -0.4,0.777 -0.709,1.073c-0.26,0.249 -0.55,0.439 -0.868,0.57c-0.318,0.13 -0.679,0.195 -1.082,0.195c-0.38,0 -0.736,-0.064 -1.068,-0.193c-0.332,-0.128 -0.628,-0.317 -0.889,-0.566c-0.301,-0.288 -0.533,-0.644 -0.697,-1.067c-0.164,-0.423 -0.246,-0.87 -0.246,-1.34c0,-0.455 0.07,-0.873 0.21,-1.254c0.141,-0.382 0.359,-0.725 0.656,-1.029c0.265,-0.277 0.573,-0.489 0.925,-0.638c0.352,-0.148 0.723,-0.222 1.115,-0.222c0.411,0 0.783,0.068 1.117,0.205c0.334,0.136 0.632,0.341 0.893,0.613c0.3,0.313 0.523,0.663 0.67,1.053c0.146,0.389 0.219,0.817 0.219,1.284Zm-0.949,0.041c0,-0.371 -0.06,-0.733 -0.18,-1.085c-0.121,-0.352 -0.308,-0.648 -0.561,-0.889c-0.154,-0.151 -0.337,-0.266 -0.548,-0.347c-0.212,-0.081 -0.432,-0.122 -0.661,-0.122c-0.273,0 -0.51,0.044 -0.712,0.131c-0.202,0.087 -0.391,0.223 -0.569,0.409c-0.21,0.213 -0.375,0.486 -0.495,0.818c-0.121,0.332 -0.181,0.676 -0.181,1.032c0,0.403 0.061,0.774 0.184,1.112c0.122,0.338 0.32,0.629 0.593,0.874c0.154,0.139 0.332,0.244 0.533,0.317c0.202,0.074 0.415,0.11 0.641,0.11c0.249,0 0.481,-0.043 0.696,-0.13c0.216,-0.087 0.405,-0.214 0.567,-0.38c0.225,-0.229 0.397,-0.506 0.515,-0.83c0.119,-0.324 0.178,-0.664 0.178,-1.02Z" style="fill:#f8f8f8;fill-rule:nonzero;stroke:#fff0f0;stroke-width:0.48px;"/>
        <path d="M52.359,350.234l-0.107,0.753c-0.027,0.004 -0.096,0.008 -0.204,0.012c-0.109,0.004 -0.203,0.006 -0.282,0.006c-0.81,0 -1.423,-0.169 -1.838,-0.507c-0.415,-0.338 -0.623,-0.857 -0.623,-1.557c0,-0.439 0.003,-0.909 0.009,-1.411c0.006,-0.502 0.009,-1.125 0.009,-1.868l-0.996,0l0,-0.694l1.049,0l0,-1.405l0.86,0l0,1.405l2.123,0l0,0.694l-2.123,0c0,0.083 -0.003,0.33 -0.009,0.741c-0.006,0.411 -0.009,0.716 -0.009,0.913l0,1.471c0,0.514 0.139,0.884 0.415,1.112c0.277,0.227 0.704,0.341 1.281,0.341c0.071,0 0.156,-0.001 0.255,-0.003c0.099,-0.002 0.162,-0.003 0.19,-0.003Z" style="fill:#f8f8f8;fill-rule:nonzero;stroke:#fff0f0;stroke-width:0.48px;"/>
        <path d="M60.328,343.029l-0.296,0c-0.372,0 -0.664,0.034 -0.878,0.101c-0.213,0.067 -0.405,0.182 -0.575,0.344c-0.13,0.122 -0.23,0.291 -0.299,0.507c-0.069,0.215 -0.104,0.456 -0.104,0.72l0,0.267l2.016,0l0,0.694l-2.016,0c0,1.281 0.003,2.47 0.009,3.567c0.006,1.097 0.009,1.677 0.009,1.74l-0.937,0c0,-0.063 0.004,-0.62 0.012,-1.669c0.008,-1.05 0.012,-2.262 0.012,-3.638l-1.169,0l0,-0.694l1.169,0l0,-0.29c0,-0.348 0.045,-0.66 0.136,-0.934c0.091,-0.275 0.251,-0.533 0.48,-0.774c0.198,-0.206 0.461,-0.374 0.789,-0.504c0.328,-0.131 0.731,-0.196 1.21,-0.196l0.32,0l0.112,0.759Z" style="fill:#f8f8f8;fill-rule:nonzero;stroke:#fff0f0;stroke-width:0.48px;"/>
        <path d="M66.626,347.969c0,0.458 -0.082,0.897 -0.246,1.316c-0.164,0.419 -0.401,0.777 -0.709,1.073c-0.261,0.249 -0.55,0.439 -0.869,0.57c-0.318,0.13 -0.679,0.195 -1.082,0.195c-0.379,0 -0.735,-0.064 -1.067,-0.193c-0.332,-0.128 -0.629,-0.317 -0.89,-0.566c-0.3,-0.288 -0.532,-0.644 -0.696,-1.067c-0.164,-0.423 -0.246,-0.87 -0.246,-1.34c0,-0.455 0.07,-0.873 0.21,-1.254c0.14,-0.382 0.359,-0.725 0.655,-1.029c0.265,-0.277 0.574,-0.489 0.925,-0.638c0.352,-0.148 0.724,-0.222 1.115,-0.222c0.411,0 0.784,0.068 1.118,0.205c0.334,0.136 0.631,0.341 0.892,0.613c0.301,0.313 0.524,0.663 0.67,1.053c0.147,0.389 0.22,0.817 0.22,1.284Zm-0.949,0.041c0,-0.371 -0.06,-0.733 -0.181,-1.085c-0.12,-0.352 -0.307,-0.648 -0.56,-0.889c-0.154,-0.151 -0.337,-0.266 -0.549,-0.347c-0.211,-0.081 -0.432,-0.122 -0.661,-0.122c-0.273,0 -0.51,0.044 -0.711,0.131c-0.202,0.087 -0.392,0.223 -0.57,0.409c-0.209,0.213 -0.374,0.486 -0.495,0.818c-0.12,0.332 -0.181,0.676 -0.181,1.032c0,0.403 0.062,0.774 0.184,1.112c0.123,0.338 0.32,0.629 0.593,0.874c0.154,0.139 0.332,0.244 0.534,0.317c0.201,0.074 0.415,0.11 0.64,0.11c0.249,0 0.482,-0.043 0.697,-0.13c0.215,-0.087 0.404,-0.214 0.566,-0.38c0.226,-0.229 0.398,-0.506 0.516,-0.83c0.119,-0.324 0.178,-0.664 0.178,-1.02Z" style="fill:#f8f8f8;fill-rule:nonzero;stroke:#fff0f0;stroke-width:0.48px;"/>
        <path d="M71.731,345.668c-0.217,0.051 -0.55,0.16 -0.999,0.326c-0.449,0.166 -0.965,0.387 -1.551,0.664c0,0.044 -0.002,0.242 -0.005,0.596c-0.004,0.354 -0.006,0.683 -0.006,0.987c0,0.467 0.005,1.02 0.014,1.661c0.01,0.64 0.015,0.996 0.015,1.067l-0.937,0c0,-0.067 0.004,-0.289 0.012,-0.664c0.008,-0.376 0.012,-1.018 0.012,-1.927c0,-0.368 -0.002,-0.882 -0.006,-1.542c-0.004,-0.66 -0.01,-1.283 -0.018,-1.868l0.919,0l0,0.902l0.006,0.005c0.447,-0.253 0.888,-0.472 1.323,-0.658c0.435,-0.186 0.782,-0.312 1.043,-0.379l0.178,0.83Z" style="fill:#f8f8f8;fill-rule:nonzero;stroke:#fff0f0;stroke-width:0.48px;"/>
        <path d="M81.106,347.785c0,0.613 -0.136,1.133 -0.409,1.562c-0.273,0.429 -0.641,0.768 -1.103,1.017c-0.403,0.214 -0.846,0.364 -1.328,0.451c-0.483,0.087 -0.941,0.13 -1.376,0.13l0.024,2.722l-0.943,0c0.004,-0.067 0.009,-0.614 0.015,-1.64c0.006,-1.025 0.009,-2.054 0.009,-3.086c0,-0.518 -0.002,-1.12 -0.006,-1.805c-0.004,-0.686 -0.01,-1.425 -0.018,-2.215c0.126,-0.004 0.252,-0.006 0.376,-0.006c0.125,0 0.221,0 0.288,0c0.83,0 1.475,0.043 1.933,0.13c0.459,0.087 0.876,0.241 1.251,0.463c0.4,0.233 0.714,0.544 0.943,0.934c0.229,0.389 0.344,0.837 0.344,1.343Zm-0.949,0.029c0,-0.387 -0.091,-0.727 -0.273,-1.019c-0.181,-0.293 -0.419,-0.524 -0.711,-0.694c-0.265,-0.15 -0.566,-0.26 -0.904,-0.329c-0.338,-0.069 -0.705,-0.104 -1.1,-0.104l-0.267,0c0,0.067 -0.003,0.301 -0.009,0.703c-0.006,0.401 -0.009,1.094 -0.009,2.078c0,0.205 0.001,0.494 0.003,0.866c0.002,0.371 0.003,0.668 0.003,0.889c0.372,0 0.743,-0.034 1.115,-0.104c0.371,-0.069 0.678,-0.163 0.919,-0.281c0.403,-0.198 0.709,-0.461 0.919,-0.789c0.209,-0.328 0.314,-0.733 0.314,-1.216Z" style="fill:#f8f8f8;fill-rule:nonzero;stroke:#fff0f0;stroke-width:0.48px;"/>
        <path d="M87.593,350.969l-0.907,0l0,-0.688l-0.006,-0.006c-0.277,0.182 -0.622,0.369 -1.035,0.561c-0.413,0.191 -0.819,0.287 -1.218,0.287c-0.546,0 -0.973,-0.162 -1.281,-0.486c-0.309,-0.324 -0.463,-0.779 -0.463,-1.364c0,-0.316 0.003,-0.693 0.009,-1.129c0.006,-0.437 0.009,-0.755 0.009,-0.952c0,-0.36 -0.005,-0.804 -0.015,-1.331c-0.01,-0.528 -0.015,-0.826 -0.015,-0.893l0.937,0c0,0.052 -0.004,0.336 -0.012,0.854c-0.007,0.518 -0.011,0.931 -0.011,1.239c0,0.273 0.002,0.613 0.006,1.02c0.003,0.407 0.005,0.696 0.005,0.866c0.008,0.466 0.089,0.808 0.244,1.026c0.154,0.217 0.403,0.326 0.747,0.326c0.352,0 0.738,-0.095 1.159,-0.285c0.421,-0.189 0.73,-0.355 0.928,-0.498c0,-0.047 0.002,-0.266 0.006,-0.655c0.004,-0.389 0.006,-0.875 0.006,-1.456c0,-0.415 -0.005,-0.912 -0.015,-1.491c-0.01,-0.579 -0.015,-0.894 -0.015,-0.946l0.937,0c0,0.067 -0.004,0.29 -0.012,0.667c-0.008,0.378 -0.012,1.021 -0.012,1.93c0,0.51 0.002,0.958 0.006,1.343c0.004,0.386 0.01,1.073 0.018,2.061Z" style="fill:#f8f8f8;fill-rule:nonzero;stroke:#fff0f0;stroke-width:0.48px;"/>
        <path d="M94.886,347.921c0,0.648 -0.159,1.206 -0.477,1.672c-0.318,0.467 -0.748,0.815 -1.29,1.044c-0.351,0.15 -0.753,0.26 -1.203,0.329c-0.451,0.069 -0.992,0.104 -1.625,0.104l-0.528,0c0.004,-0.305 0.009,-0.87 0.015,-1.696c0.006,-0.826 0.009,-1.82 0.009,-2.983c0,-0.711 -0.002,-1.401 -0.006,-2.069c-0.004,-0.668 -0.01,-1.35 -0.018,-2.046l0.937,0l-0.018,2.734c0.811,0.008 1.46,0.08 1.948,0.216c0.488,0.137 0.895,0.321 1.219,0.555c0.336,0.241 0.593,0.542 0.771,0.904c0.178,0.362 0.266,0.774 0.266,1.236Zm-0.948,0.024c0,-0.478 -0.136,-0.88 -0.406,-1.204c-0.271,-0.324 -0.62,-0.559 -1.047,-0.705c-0.221,-0.076 -0.461,-0.134 -0.718,-0.175c-0.256,-0.042 -0.521,-0.063 -0.794,-0.063l-0.291,0c0,0.087 -0.001,0.403 -0.003,0.946c-0.002,0.544 -0.003,0.991 -0.003,1.343c0,0.66 0.002,1.127 0.006,1.4c0.004,0.272 0.006,0.549 0.006,0.83c0.435,0 0.832,-0.033 1.192,-0.098c0.36,-0.065 0.67,-0.167 0.931,-0.305c0.38,-0.202 0.662,-0.468 0.848,-0.798c0.186,-0.33 0.279,-0.72 0.279,-1.171Z" style="fill:#f8f8f8;fill-rule:nonzero;stroke:#fff0f0;stroke-width:0.48px;"/>
        <path d="M97.49,350.969l-0.937,0c0.004,-0.047 0.009,-0.626 0.015,-1.734c0.005,-1.109 0.008,-2.029 0.008,-2.761c0,-0.47 -0.001,-1.064 -0.003,-1.782c-0.001,-0.717 -0.008,-1.522 -0.02,-2.416l0.937,0c-0.008,0.609 -0.014,1.314 -0.018,2.114c-0.004,0.801 -0.006,1.476 -0.006,2.025c0,1.198 0.004,2.245 0.012,3.143c0.008,0.897 0.012,1.368 0.012,1.411Z" style="fill:#f8f8f8;fill-rule:nonzero;stroke:#fff0f0;stroke-width:0.48px;"/>
        <path d="M100.781,343.818l-1.044,0l0,-1.02l1.044,0l0,1.02Zm-0.054,7.151l-0.937,0c0.004,-0.063 0.009,-0.453 0.015,-1.168c0.006,-0.716 0.009,-1.307 0.009,-1.773c0,-0.407 -0.001,-0.855 -0.003,-1.343c-0.002,-0.488 -0.009,-1.061 -0.021,-1.717l0.937,0c-0.008,0.569 -0.015,1.102 -0.021,1.598c-0.005,0.496 -0.008,0.938 -0.008,1.326c0,0.921 0.004,1.66 0.014,2.217c0.01,0.558 0.015,0.844 0.015,0.86Z" style="fill:#f8f8f8;fill-rule:nonzero;stroke:#fff0f0;stroke-width:0.48px;"/>
        <path d="M106.912,350.198l-0.071,0.795l-0.326,0c-0.51,0 -0.987,-0.049 -1.429,-0.146c-0.443,-0.096 -0.841,-0.24 -1.192,-0.429c-0.479,-0.261 -0.852,-0.607 -1.121,-1.038c-0.269,-0.431 -0.403,-0.911 -0.403,-1.441c0,-0.474 0.122,-0.91 0.367,-1.308c0.245,-0.397 0.566,-0.722 0.961,-0.975c0.356,-0.229 0.782,-0.404 1.278,-0.525c0.496,-0.12 1.009,-0.181 1.539,-0.181l0.243,0l0.047,0.795l-0.184,0c-0.439,0 -0.813,0.027 -1.123,0.08c-0.311,0.053 -0.612,0.141 -0.905,0.264c-0.391,0.158 -0.701,0.407 -0.931,0.747c-0.229,0.34 -0.344,0.704 -0.344,1.091c0,0.463 0.108,0.851 0.324,1.165c0.215,0.315 0.501,0.557 0.856,0.727c0.277,0.134 0.589,0.231 0.937,0.29c0.348,0.06 0.716,0.089 1.103,0.089l0.374,0Z" style="fill:#f8f8f8;fill-rule:nonzero;stroke:#fff0f0;stroke-width:0.48px;"/>
        <path d="M116.393,350.969l-0.907,0l0,-0.688l-0.006,-0.006c-0.277,0.182 -0.621,0.369 -1.035,0.561c-0.413,0.191 -0.819,0.287 -1.218,0.287c-0.546,0 -0.973,-0.162 -1.281,-0.486c-0.308,-0.324 -0.462,-0.779 -0.462,-1.364c0,-0.316 0.003,-0.693 0.008,-1.129c0.006,-0.437 0.009,-0.755 0.009,-0.952c0,-0.36 -0.005,-0.804 -0.014,-1.331c-0.01,-0.528 -0.015,-0.826 -0.015,-0.893l0.937,0c0,0.052 -0.004,0.336 -0.012,0.854c-0.008,0.518 -0.012,0.931 -0.012,1.239c0,0.273 0.002,0.613 0.006,1.02c0.004,0.407 0.006,0.696 0.006,0.866c0.008,0.466 0.089,0.808 0.243,1.026c0.154,0.217 0.403,0.326 0.747,0.326c0.352,0 0.738,-0.095 1.159,-0.285c0.421,-0.189 0.731,-0.355 0.928,-0.498c0,-0.047 0.002,-0.266 0.006,-0.655c0.004,-0.389 0.006,-0.875 0.006,-1.456c0,-0.415 -0.005,-0.912 -0.015,-1.491c-0.01,-0.579 -0.015,-0.894 -0.015,-0.946l0.937,0c0,0.067 -0.004,0.29 -0.012,0.667c-0.007,0.378 -0.011,1.021 -0.011,1.93c0,0.51 0.002,0.958 0.006,1.343c0.004,0.386 0.009,1.073 0.017,2.061Z" style="fill:#f8f8f8;fill-rule:nonzero;stroke:#fff0f0;stroke-width:0.48px;"/>
        <path d="M121.825,349.232c0,0.292 -0.071,0.553 -0.214,0.782c-0.142,0.23 -0.328,0.415 -0.557,0.558c-0.241,0.15 -0.527,0.264 -0.857,0.341c-0.33,0.077 -0.695,0.115 -1.094,0.115c-0.193,0 -0.394,-0.009 -0.602,-0.026c-0.207,-0.018 -0.325,-0.029 -0.352,-0.033l-0.036,-0.777c0.036,0.004 0.173,0.015 0.412,0.033c0.239,0.018 0.477,0.027 0.715,0.027c0.138,0 0.316,-0.012 0.533,-0.036c0.218,-0.024 0.398,-0.067 0.54,-0.13c0.198,-0.087 0.344,-0.194 0.439,-0.321c0.095,-0.126 0.142,-0.278 0.142,-0.456c0,-0.162 -0.042,-0.294 -0.125,-0.395c-0.083,-0.1 -0.197,-0.198 -0.343,-0.293c-0.159,-0.107 -0.375,-0.221 -0.65,-0.341c-0.275,-0.121 -0.505,-0.236 -0.691,-0.347c-0.264,-0.162 -0.467,-0.354 -0.607,-0.575c-0.141,-0.222 -0.211,-0.478 -0.211,-0.771c0,-0.293 0.08,-0.555 0.24,-0.789c0.16,-0.233 0.375,-0.421 0.644,-0.563c0.233,-0.126 0.491,-0.21 0.773,-0.252c0.283,-0.041 0.557,-0.062 0.822,-0.062c0.241,0 0.439,0.004 0.593,0.012c0.154,0.008 0.243,0.011 0.267,0.011l0.065,0.789c-0.028,0 -0.149,-0.008 -0.365,-0.024c-0.215,-0.015 -0.452,-0.023 -0.709,-0.023c-0.181,0 -0.354,0.016 -0.518,0.047c-0.164,0.032 -0.304,0.077 -0.418,0.137c-0.17,0.086 -0.292,0.191 -0.365,0.314c-0.073,0.122 -0.11,0.241 -0.11,0.356c0,0.158 0.052,0.294 0.154,0.409c0.103,0.114 0.224,0.211 0.362,0.29c0.162,0.095 0.384,0.208 0.664,0.338c0.281,0.131 0.484,0.235 0.611,0.315c0.277,0.173 0.487,0.367 0.631,0.581c0.145,0.213 0.217,0.466 0.217,0.759Z" style="fill:#f8f8f8;fill-rule:nonzero;stroke:#fff0f0;stroke-width:0.48px;"/>
        <path d="M127.624,347.589c0,0.98 -0.002,1.779 -0.006,2.396c-0.004,0.616 -0.006,0.948 -0.006,0.996c-0.039,0.004 -0.223,0.019 -0.551,0.044c-0.328,0.026 -0.751,0.039 -1.269,0.039c-0.324,0 -0.65,-0.03 -0.979,-0.089c-0.328,-0.059 -0.61,-0.144 -0.847,-0.255c-0.317,-0.146 -0.573,-0.346 -0.768,-0.599c-0.196,-0.253 -0.294,-0.557 -0.294,-0.913c0,-0.376 0.116,-0.701 0.347,-0.976c0.231,-0.274 0.552,-0.497 0.964,-0.667c0.257,-0.106 0.599,-0.202 1.028,-0.287c0.429,-0.085 0.918,-0.149 1.468,-0.193c-0.024,-0.308 -0.101,-0.561 -0.231,-0.759c-0.131,-0.198 -0.322,-0.348 -0.575,-0.451c-0.174,-0.071 -0.368,-0.121 -0.582,-0.151c-0.213,-0.029 -0.462,-0.044 -0.747,-0.044c-0.178,0 -0.329,0.004 -0.453,0.012c-0.125,0.008 -0.294,0.017 -0.507,0.029l0.095,-0.788c0.059,-0.004 0.176,-0.011 0.352,-0.021c0.176,-0.01 0.416,-0.015 0.721,-0.015c0.466,0 0.882,0.048 1.248,0.145c0.366,0.097 0.669,0.254 0.91,0.472c0.226,0.205 0.396,0.459 0.51,0.762c0.115,0.302 0.172,0.74 0.172,1.313Zm-0.907,1.429c0,-0.134 0,-0.304 0,-0.51c0,-0.205 -0.002,-0.443 -0.006,-0.711c-0.174,0.008 -0.478,0.042 -0.913,0.103c-0.435,0.062 -0.801,0.15 -1.097,0.264c-0.222,0.083 -0.418,0.208 -0.59,0.374c-0.172,0.166 -0.258,0.371 -0.258,0.617c0,0.268 0.073,0.485 0.219,0.649c0.147,0.164 0.346,0.289 0.599,0.376c0.194,0.068 0.408,0.116 0.644,0.146c0.235,0.029 0.483,0.044 0.744,0.044c0.079,0 0.176,-0.002 0.29,-0.006c0.115,-0.004 0.235,-0.008 0.362,-0.012c0,-0.027 0.001,-0.158 0.003,-0.391c0.002,-0.233 0.003,-0.548 0.003,-0.943Z" style="fill:#f8f8f8;fill-rule:nonzero;stroke:#fff0f0;stroke-width:0.48px;"/>
        <path d="M134.277,344.915c0,0.087 -0.003,0.478 -0.009,1.174c-0.006,0.696 -0.009,1.358 -0.009,1.986c0,0.427 0.002,0.862 0.006,1.305c0.004,0.443 0.006,0.848 0.006,1.215c0,0.676 -0.115,1.206 -0.347,1.59c-0.231,0.383 -0.56,0.689 -0.987,0.919c-0.336,0.174 -0.745,0.311 -1.227,0.412c-0.483,0.101 -1.068,0.151 -1.756,0.151l-0.094,-0.753c0.462,-0.008 0.877,-0.033 1.245,-0.074c0.367,-0.042 0.702,-0.118 1.002,-0.228c0.462,-0.174 0.785,-0.405 0.966,-0.691c0.182,-0.287 0.277,-0.636 0.285,-1.047l-0.285,0c-0.47,0 -0.954,-0.056 -1.452,-0.169c-0.498,-0.113 -0.923,-0.291 -1.275,-0.536c-0.348,-0.234 -0.631,-0.538 -0.848,-0.914c-0.218,-0.375 -0.326,-0.84 -0.326,-1.393c0,-0.554 0.152,-1.042 0.456,-1.465c0.305,-0.423 0.712,-0.759 1.222,-1.008c0.364,-0.178 0.76,-0.301 1.189,-0.37c0.429,-0.07 0.948,-0.104 1.556,-0.104l0.682,0Zm-0.907,3.154c0,-0.284 -0.001,-0.64 -0.003,-1.067c-0.002,-0.427 -0.007,-0.872 -0.015,-1.334l-0.154,0c-0.368,0 -0.689,0.024 -0.964,0.071c-0.274,0.048 -0.564,0.136 -0.868,0.267c-0.403,0.174 -0.712,0.429 -0.925,0.765c-0.214,0.336 -0.32,0.715 -0.32,1.138c0,0.435 0.105,0.807 0.317,1.115c0.211,0.308 0.495,0.548 0.851,0.718c0.241,0.114 0.52,0.207 0.839,0.278c0.318,0.071 0.655,0.107 1.011,0.107l0.219,0c0,-0.047 0.002,-0.268 0.006,-0.661c0.004,-0.393 0.006,-0.859 0.006,-1.397Z" style="fill:#f8f8f8;fill-rule:nonzero;stroke:#fff0f0;stroke-width:0.48px;"/>
        <path d="M141.055,347.749l-4.287,0c0.004,0.419 0.093,0.804 0.266,1.154c0.174,0.349 0.441,0.639 0.801,0.868c0.229,0.146 0.49,0.256 0.783,0.329c0.292,0.073 0.644,0.11 1.055,0.11c0.226,0 0.432,-0.006 0.62,-0.018c0.188,-0.012 0.303,-0.02 0.347,-0.023l-0.107,0.788c-0.032,0.004 -0.136,0.011 -0.314,0.021c-0.178,0.01 -0.388,0.015 -0.629,0.015c-0.632,0 -1.183,-0.082 -1.651,-0.246c-0.469,-0.164 -0.853,-0.391 -1.154,-0.679c-0.257,-0.241 -0.475,-0.55 -0.655,-0.925c-0.18,-0.376 -0.27,-0.793 -0.27,-1.251c0,-0.451 0.068,-0.858 0.202,-1.222c0.134,-0.364 0.336,-0.702 0.605,-1.014c0.233,-0.269 0.523,-0.476 0.869,-0.623c0.345,-0.146 0.704,-0.219 1.076,-0.219c0.367,0 0.694,0.055 0.978,0.166c0.285,0.111 0.532,0.279 0.741,0.504c0.234,0.253 0.411,0.564 0.534,0.934c0.123,0.37 0.186,0.813 0.19,1.331Zm-0.919,-0.664c-0.064,-0.49 -0.231,-0.875 -0.501,-1.153c-0.271,-0.279 -0.628,-0.418 -1.071,-0.418c-0.442,0 -0.812,0.141 -1.109,0.424c-0.296,0.282 -0.502,0.665 -0.616,1.147l3.297,0Z" style="fill:#f8f8f8;fill-rule:nonzero;stroke:#fff0f0;stroke-width:0.48px;"/>
    </g>
    <g id="TopHL" transform="matrix(1,0,0,1,0,0.5125)">
        <path d="M0.5,18l270,0" style="fill:none;stroke:#c6c6c6;stroke-opacity:0.6;stroke-width:3px;stroke-linecap:butt;"/>
        <path d="M0.501,22.375l269.999,0" style="fill:none;stroke:#c6c6c6;stroke-opacity:0.6;stroke-width:1px;stroke-linecap:butt;"/>
    </g>
    <g id="BottomHL" transform="matrix(1,0,0,1,0,0.502)">
        <path d="M270.503,367.598l-270.001,0" style="fill:none;stroke:#c6c6c6;stroke-opacity:0.6;stroke-width:3px;stroke-linecap:butt;"/>
    </g>
</svg>
