<?xml version="1.0" encoding="utf-8"?>
<!-- Generator: Adobe Illustrator 16.0.0, SVG Export Plug-In . SVG Version: 6.00 Build 0)  -->
<!DOCTYPE svg PUBLIC "-//W3C//DTD SVG 1.1//EN" "http://www.w3.org/Graphics/SVG/1.1/DTD/svg11.dtd" [
        <!ENTITY ns_flows "http://ns.adobe.com/Flows/1.0/">
        <!ENTITY ns_extend "http://ns.adobe.com/Extensibility/1.0/">
        <!ENTITY ns_ai "http://ns.adobe.com/AdobeIllustrator/10.0/">
        <!ENTITY ns_graphs "http://ns.adobe.com/Graphs/1.0/">
        <!ENTITY ns_vars "http://ns.adobe.com/Variables/1.0/">
        <!ENTITY ns_imrep "http://ns.adobe.com/ImageReplacement/1.0/">
        <!ENTITY ns_sfw "http://ns.adobe.com/SaveForWeb/1.0/">
        <!ENTITY ns_custom "http://ns.adobe.com/GenericCustomNamespace/1.0/">
        <!ENTITY ns_adobe_xpath "http://ns.adobe.com/XPath/1.0/">
        ]>
<svg xmlns:x="&ns_extend;" xmlns:i="&ns_ai;" xmlns:graph="&ns_graphs;" xmlns:xlink="http://www.w3.org/1999/xlink" xmlns:a="http://ns.adobe.com/AdobeSVGViewerExtensions/3.0/"
	 version="1.1" id="Layer_1" xmlns="http://www.w3.org/2000/svg"
	 x="0px" y="0px" width="270px" height="380px" viewBox="0 0 270 380" enable-background="new 0 0 270 380" xml:space="preserve">
<metadata>
	<sfw  xmlns="&ns_sfw;">
		<slices></slices>
		<sliceSourceBounds  width="270.503" height="380" bottomLeftOrigin="true" x="-119.5" y="-173.5"></sliceSourceBounds>
	</sfw>
</metadata>
<rect fill="#FFFFFF" width="270" height="380"/>
<rect fill="#140E07" width="270" height="380"/>
<g>
	<path fill="#7A191A" d="M232.321,164.268c-0.551-1.407-1.25-2.487-1.733-4.267h0.016c-0.034,0-0.056-0.074-0.088-0.149
		c-0.062-0.193-0.122-0.353-0.173-0.548c-0.097-0.365-0.189-0.759-0.253-1.179c-0.043-2.08,1.872-2.792,1.946-5.183
		c0.081-2.573-1.476-3.898-1.946-4.241c-0.02-0.028-0.037-0.054-0.056-0.082c0.012-0.037,0.02-0.068,0.031-0.104
		c2.993-2.433,1.69-5.738,1.69-5.738c-0.636-0.338-1.313-0.55-1.797-0.98c-4.337-3.863-4.606-6.636-1.196-11.288
		c0.866-1.185,1.746-2.375,2.467-3.649c1.761-3.117,1.359-4.599-1.81-6.367c-2.28-1.271-4.743-2.218-6.988-3.545
		c-6.396-3.778-11.834-8.521-15.061-15.174c2.171-3.872,2.171-3.872,1.304-6.341c-0.791,0.865-1.527,1.672-2.688,2.944
		c0-3.049,0.294-5.379-0.083-7.595c-0.367-2.156-0.85-4.792-2.281-6.178c-5.217-5.045-8.175-11.292-10.92-17.796
		c-2.029-4.806-4.196-9.66-8.171-13.236c-2-1.8-4.474-3.072-6.742-4.587c0-1.354,0.017-2.653-0.006-3.951
		c-0.019-1.297,0.038-2.61-0.136-3.89c-0.702-5.113-4.34-7.564-9.404-6.548c-3.181,0.638-6.385,1.238-9.605,1.563
		c-1.888,0.19-3.584,0.128-3.225-3.432c1.62,0,3.162,0,5.368,0c-1.104,0-1.515-1.544-2.067-1.769
		c-2.208-0.892-4.045-0.36-5.099,1.396c-1.25,2.077,0.023,3.586,1.504,4.555c1.273,0.832,3.004,1.441,4.492,1.365
		c3.234-0.167,6.436-0.842,9.658-1.296c2.8-0.394,4.451,0.587,5.01,3.266c0.266,1.278,0.047,2.658,0.047,3.561
		c-3.72-1.383-6.953-3.369-10.347-3.69c-7.432-0.706-14.956-0.912-22.413-0.611c-3.084,0.124-6.484,1.511-9.049,3.309
		c-4.547,3.188-9.441,5.039-14.773,6.138c-2.549,0.526-5.106,1.149-7.55,2.03c-4.689,1.689-8.626,4.342-11.53,8.63
		c-1.595,2.354-3.836,4.445-6.188,6.076c-4.591,3.184-9.001,6.424-12.144,11.187c-1.712,2.596-4.124,4.212-7.839,3.113
		c-1.104-4.244-4.87-4.911-8.627-5.423c-1.764-0.242-3.625-0.32-5.373-0.04c-10.247,1.643-19.554,5.56-26.813,13.074
		c-6.565,6.797-5.937,10.365-2.739,16.202c2.063,3.766,2.131,7.435-0.279,11.089c-1.874,2.842-2.57,6.013-2.071,9.354
		c1.284,8.609,4.072,16.22,13.409,19.251c0.615,0.198,1.156,0.607,1.748,0.881c2.125,0.984,3.145,2.592,3.365,4.971
		c0.144,1.54,0.491,3.357,1.429,4.479c6.245,7.454,20.432,8.503,25.041-1.951c0.189-0.432,0.624-0.756,0.945-1.129
		c0.305,0.134,0.609,0.266,0.914,0.399c-0.27,1.348-0.539,2.694-0.81,4.042c-0.351,1.75-1.204,3.572-0.961,5.235
		c0.915,6.264,1.484,12.716,3.503,18.648c2.452,7.204,8.53,14.587,18.762,13.197c3.549-0.483,6.782,0.391,9.818,2.234
		c1.254,0.76,2.657,1.272,3.912,2.027c3.221,1.943,6.497,1.898,9.857,0.464c2.024-0.863,4.052-1.726,6.331-2.698
		c-1.16,4.041-2.278,7.594-3.189,11.197c-1.336,5.287-3.631,9.452-9.941,9.48c-0.115,0-0.228,0.204-0.481,0.441
		c0.473,1.385,0.975,2.855,1.446,4.234c-3.43,5.076-9.388,5.288-13.951,7.881c8.949,0.082,15.39-4.254,16.179-10.562
		c4.91-1.582,7.805-5.034,9.233-9.921c0.777-2.659,1.611-5.32,2.672-7.879c1.746-4.209,4.792-6.719,9.406-6.833
		c-0.302,3.22-0.579,6.169-0.855,9.113c-6.687,1.486-6.819,1.649-6.534,8.315c-1.583,1.269-3.238,2.596-5.685,4.557
		c6.226-1.428,7.436-2.953,8.025-9.211c0.938-0.325,1.962-0.799,3.039-1.035c4.009-0.875,4.11-0.859,3.682-5.037
		c-0.251-2.445,0.739-3.996,3.163-5.664c0.451,1.766,0.892,3.088,1.115,4.445c0.316,1.923,0.547,3.867,0.687,5.81
		c0.517,7.404-0.06,14.643-3.457,21.43c-4.159,8.313-8.334,16.622-12.413,24.973c-1.174,2.404-2.482,4.234-5.172,5.433
		c-4.265,1.907-7.421,6.556-7.757,10.832c15.258,2.949,26.312,6.953,41.04,18.833c9.647,7.785,19.862,11.309,29.399,12.456
		c0.003-0.004,10.248-13.711,19.753-32.558c-0.241-0.365-0.484-0.728-0.723-1.095c-6.25-9.478-11.533-18.592-13.049-22.521
		c-2.853-7.395-3.838-14.659-2.132-22.466c1.983-9.083,3.633-18.206,7.761-26.672c2.412-4.95,6.15-7.711,11.519-8.858
		c6.366-1.36,12.689-3.037,18.94-4.868C232.28,176.577,234.882,170.79,232.321,164.268z"/>
</g>
<g>
	<path fill="#663442" stroke="#D3B8C8" stroke-miterlimit="10" d="M123.917,134.203l3.413-4.778l-3.74-3.74l-4.777,3.412
		c-0.887-0.496-1.834-0.89-2.832-1.173l-0.965-5.791h-5.288l-0.965,5.792c-0.997,0.281-1.945,0.677-2.831,1.172l-4.776-3.412
		l-3.739,3.74l3.412,4.778c-0.496,0.885-0.891,1.834-1.173,2.831l-5.792,0.966v5.288l5.792,0.965
		c0.282,0.995,0.677,1.945,1.172,2.831l-3.411,4.777l3.74,3.74l4.776-3.413c0.886,0.496,1.834,0.89,2.831,1.173l0.966,5.791h5.288
		l0.964-5.791c0.997-0.282,1.946-0.677,2.833-1.173l4.777,3.413l3.739-3.739l-3.413-4.778c0.495-0.884,0.89-1.834,1.172-2.83
		l5.792-0.965v-5.287l-5.791-0.966C124.808,136.037,124.413,135.088,123.917,134.203z M112.373,145.93
		c-2.921,0-5.288-2.369-5.288-5.288c0-2.921,2.367-5.289,5.288-5.289c2.92,0,5.288,2.367,5.288,5.289
		C117.661,143.562,115.292,145.93,112.373,145.93z M178.474,106.27v-5.289l-5.568-1.011c-0.102-0.666-0.234-1.32-0.391-1.966
		l4.759-3.065l-2.021-4.885l-5.534,1.195c-0.349-0.571-0.723-1.125-1.115-1.663l3.223-4.655l-3.739-3.739l-4.653,3.224
		c-0.538-0.394-1.094-0.767-1.662-1.116l1.194-5.531l-4.885-2.023l-3.064,4.755c-0.646-0.156-1.302-0.288-1.966-0.39l-1.014-5.567
		h-5.286l-1.013,5.567c-0.664,0.103-1.318,0.234-1.967,0.39l-3.062-4.755l-4.885,2.023l1.195,5.531
		c-0.571,0.348-1.125,0.721-1.663,1.116l-4.656-3.224l-3.738,3.739l3.223,4.654c-0.394,0.538-0.767,1.093-1.114,1.663l-5.532-1.195
		l-2.023,4.885l4.756,3.065c-0.157,0.646-0.288,1.3-0.391,1.966l-5.567,1.011v5.289l5.567,1.012c0.103,0.665,0.235,1.32,0.391,1.966
		l-4.755,3.065l2.022,4.885l5.532-1.196c0.349,0.571,0.721,1.126,1.115,1.664l-3.224,4.655l3.739,3.739l4.655-3.223
		c0.539,0.394,1.092,0.766,1.664,1.115l-1.196,5.53l4.885,2.023l3.064-4.755c0.646,0.156,1.301,0.288,1.966,0.39l1.014,5.568h5.286
		l1.012-5.568c0.666-0.102,1.321-0.233,1.966-0.39l3.066,4.756l4.884-2.024l-1.194-5.531c0.571-0.349,1.125-0.722,1.663-1.114
		l4.653,3.223l3.739-3.739l-3.223-4.655c0.393-0.538,0.767-1.092,1.115-1.664l5.532,1.196l2.022-4.885l-4.757-3.065
		c0.157-0.646,0.286-1.301,0.389-1.966L178.474,106.27z M149.389,115.127c-6.353,0-11.502-5.149-11.502-11.5
		c0-6.353,5.149-11.502,11.502-11.502s11.501,5.149,11.501,11.502C160.89,109.978,155.741,115.127,149.389,115.127z"/>
</g>
<g>
	<path fill="#EDEFEF" d="M35.271,308.003h3.841v8.938h8.534V320H35.271V308.003z"/>
	<path fill="#EDEFEF" d="M48.481,308.003h3.841V320h-3.841V308.003z"/>
	<path fill="#EDEFEF" d="M54,308.003h6.407l6.284,8.947h0.378l-0.088-8.947H70.7V320h-6.354l-6.311-8.956h-0.396L57.718,320H54
		V308.003z"/>
	<path fill="#EDEFEF" d="M72.378,320v-11.997h8.657c1.881,0,3.097,0.032,3.647,0.097c1.066,0.123,1.852,0.401,2.355,0.836
		c0.539,0.469,0.894,1.227,1.063,2.27c0.082,0.498,0.123,1.368,0.123,2.607c0,1.59-0.07,2.692-0.211,3.313
		c-0.193,0.844-0.51,1.465-0.949,1.862c-0.299,0.275-0.662,0.481-1.09,0.625c-0.428,0.141-1.005,0.242-1.731,0.308
		c-0.574,0.054-1.641,0.079-3.199,0.079H72.378L72.378,320z M75.982,316.941h5.089c1.031,0,1.802-0.041,2.312-0.123
		c0.568-0.096,0.926-0.407,1.072-0.94c0.111-0.387,0.167-0.996,0.167-1.828c0-0.891-0.059-1.544-0.176-1.96
		c-0.141-0.521-0.463-0.838-0.967-0.949c-0.398-0.094-1.213-0.141-2.443-0.141h-5.054V316.941z"/>
	<path fill="#EDEFEF" d="M89.667,308.003h13.289v2.821H93.27v1.73h9.193v2.637H93.27v1.926h9.756V320H89.667V308.003z"/>
	<path fill="#EDEFEF" d="M104.168,308.003h6.407l6.284,8.947h0.378l-0.088-8.947h3.718V320h-6.354l-6.311-8.956h-0.396l0.079,8.956
		h-3.718L104.168,308.003L104.168,308.003z"/>
	<path fill="#EDEFEF" d="M122.546,320v-11.997h8.622c1.834,0.006,2.924,0.021,3.27,0.044c0.785,0.047,1.362,0.188,1.731,0.422
		c0.422,0.271,0.697,0.643,0.826,1.116c0.116,0.451,0.176,0.961,0.176,1.528c0,0.703-0.067,1.232-0.202,1.592
		c-0.223,0.58-0.693,0.977-1.414,1.188c0.532,0.094,0.928,0.229,1.187,0.403c0.586,0.394,0.879,1.22,0.879,2.479
		c0,0.979-0.152,1.701-0.457,2.17c-0.271,0.41-0.681,0.689-1.229,0.845c-0.47,0.123-1.254,0.188-2.355,0.192l-2.382,0.019
		L122.546,320L122.546,320z M126.027,312.73h5.15c1.131,0,1.805-0.045,2.021-0.133c0.287-0.109,0.431-0.396,0.431-0.859
		c0-0.477-0.173-0.76-0.519-0.854c-0.135-0.034-0.779-0.056-1.934-0.062h-5.15L126.027,312.73L126.027,312.73z M126.027,317.117
		h5.168c0.961-0.006,1.526-0.012,1.696-0.02c0.533-0.021,0.873-0.13,1.02-0.314c0.111-0.152,0.167-0.387,0.167-0.703
		c0-0.504-0.182-0.801-0.545-0.889c-0.129-0.034-0.908-0.058-2.338-0.062h-5.168V317.117L126.027,317.117z"/>
	<path fill="#EDEFEF" d="M138.885,308.003h13.289v2.821h-9.686v1.73h9.193v2.637h-9.193v1.926h9.756V320h-13.359V308.003
		L138.885,308.003z"/>
	<path fill="#EDEFEF" d="M153.387,320v-11.997h8.834c2.086,0.006,3.316,0.026,3.691,0.062c0.428,0.041,0.814,0.166,1.164,0.373
		c0.348,0.209,0.619,0.476,0.812,0.797c0.196,0.347,0.317,0.705,0.358,1.08c0.053,0.438,0.078,0.972,0.078,1.593
		c0,0.979-0.066,1.659-0.201,2.048c-0.205,0.572-0.592,0.973-1.16,1.193c-0.19,0.076-0.481,0.146-0.871,0.201
		c0.771,0.062,1.318,0.278,1.652,0.659c0.146,0.171,0.25,0.365,0.312,0.584c0.062,0.222,0.104,0.541,0.127,0.964
		c0.006,0.217,0.01,0.658,0.01,1.326v1.116h-3.604v-0.642c0-0.717-0.031-1.229-0.098-1.539c-0.096-0.444-0.33-0.709-0.713-0.791
		c-0.252-0.053-0.781-0.078-1.592-0.078h-5.148v3.05L153.387,320L153.387,320z M157.043,313.953h5.143
		c0.771-0.012,1.224-0.023,1.361-0.035c0.516-0.029,0.842-0.188,0.977-0.475c0.097-0.199,0.144-0.536,0.144-1.012
		c0-0.41-0.041-0.717-0.123-0.914c-0.123-0.293-0.42-0.457-0.892-0.492c-0.164-0.012-0.653-0.021-1.477-0.025h-5.133V313.953z"/>
	<path fill="#EDEFEF" d="M176.924,313.197h8.359c0.012,0.264,0.018,0.434,0.018,0.51c0,1.57-0.045,2.783-0.133,3.639
		c-0.141,1.383-0.926,2.223-2.355,2.516c-0.735,0.146-1.547,0.232-2.426,0.265c-0.932,0.035-2.035,0.054-3.312,0.054
		c-2.269,0-3.89-0.082-4.861-0.246c-1.348-0.224-2.182-0.845-2.504-1.861c-0.157-0.498-0.25-1.069-0.272-1.715
		c-0.027-0.811-0.043-1.67-0.043-2.584c0-1.547,0.071-2.635,0.221-3.262c0.211-0.873,0.572-1.486,1.09-1.847
		c0.271-0.192,0.605-0.341,1.018-0.442c0.404-0.104,0.98-0.188,1.727-0.25c1.05-0.096,2.468-0.143,4.255-0.143
		c2.297,0,3.924,0.091,4.879,0.271c0.967,0.184,1.646,0.506,2.039,0.969c0.346,0.416,0.558,1.07,0.633,1.969
		c0.019,0.24,0.024,0.609,0.024,1.105h-3.655c-0.006-0.326-0.022-0.552-0.054-0.668c-0.082-0.3-0.342-0.479-0.78-0.535
		c-0.58-0.075-1.724-0.113-3.429-0.113c-1.52,0-2.569,0.05-3.155,0.148c-0.558,0.101-0.894,0.402-1.011,0.914
		c-0.094,0.387-0.141,1.073-0.141,2.063c0,1.137,0.049,1.913,0.146,2.329c0.129,0.557,0.525,0.865,1.193,0.932
		c0.328,0.029,1.317,0.057,2.973,0.079c1.805-0.012,2.969-0.047,3.488-0.104c0.477-0.075,0.746-0.283,0.815-0.625
		c0.041-0.211,0.062-0.531,0.062-0.967h-4.809V313.197L176.924,313.197z"/>
	<path fill="#EDEFEF" d="M35.271,336v-11.997h8.833c2.086,0.006,3.316,0.026,3.691,0.062c0.428,0.041,0.816,0.166,1.165,0.373
		c0.349,0.209,0.62,0.476,0.813,0.797c0.199,0.347,0.319,0.705,0.36,1.08c0.053,0.438,0.079,0.972,0.079,1.593
		c0,0.979-0.067,1.659-0.202,2.048c-0.205,0.572-0.592,0.973-1.16,1.193c-0.193,0.076-0.483,0.146-0.87,0.201
		c0.768,0.062,1.318,0.278,1.652,0.659c0.146,0.171,0.25,0.365,0.312,0.584c0.062,0.222,0.104,0.541,0.127,0.964
		c0.006,0.217,0.009,0.658,0.009,1.326v1.116h-3.604v-0.642c0-0.717-0.032-1.229-0.097-1.539c-0.094-0.444-0.331-0.709-0.712-0.791
		c-0.252-0.053-0.782-0.078-1.591-0.078h-5.15v3.05L35.271,336L35.271,336z M38.927,329.953h5.142
		c0.768-0.012,1.222-0.023,1.362-0.035c0.516-0.029,0.841-0.188,0.976-0.475c0.094-0.199,0.141-0.536,0.141-1.012
		c0-0.41-0.041-0.717-0.123-0.914c-0.123-0.293-0.419-0.457-0.888-0.492c-0.164-0.012-0.656-0.021-1.477-0.025h-5.133V329.953z"/>
	<path fill="#EDEFEF" d="M51.469,324.003h13.289v2.821h-9.686v1.73h9.193v2.637h-9.193v1.926h9.756V336H51.469V324.003z"/>
	<path fill="#EDEFEF" d="M65.549,332.027h3.542c-0.006,0.592,0.114,0.973,0.36,1.143c0.129,0.082,0.275,0.139,0.439,0.167
		c0.164,0.029,0.451,0.05,0.861,0.062c0.205,0.008,0.876,0.014,2.013,0.02c1.559-0.006,2.461-0.016,2.707-0.025
		c0.463-0.033,0.768-0.098,0.914-0.186c0.205-0.129,0.308-0.416,0.308-0.859c0-0.307-0.064-0.521-0.193-0.644
		c-0.176-0.17-0.595-0.263-1.257-0.271c-0.457,0-1.412-0.035-2.865-0.104c-1.5-0.07-2.473-0.11-2.918-0.123
		c-1.16-0.035-1.978-0.17-2.452-0.403c-0.609-0.3-1.008-0.81-1.195-1.529c-0.105-0.396-0.158-0.92-0.158-1.562
		c0-1.357,0.258-2.316,0.773-2.874c0.387-0.422,0.973-0.7,1.758-0.835c0.709-0.117,2.396-0.176,5.062-0.176
		c1.734,0,2.959,0.05,3.674,0.146c0.943,0.137,1.623,0.369,2.039,0.703c0.562,0.463,0.844,1.293,0.844,2.487
		c0,0.129-0.003,0.334-0.009,0.614h-3.542c-0.012-0.286-0.032-0.485-0.062-0.598c-0.082-0.328-0.352-0.515-0.809-0.556
		c-0.404-0.035-1.389-0.053-2.953-0.053c-1.547,0-2.464,0.044-2.751,0.132c-0.322,0.104-0.483,0.378-0.483,0.816
		c0,0.422,0.17,0.681,0.51,0.771c0.287,0.076,1.579,0.148,3.876,0.221c2.08,0.061,3.407,0.133,3.981,0.221
		c0.58,0.089,1.042,0.221,1.384,0.396c0.342,0.178,0.617,0.426,0.822,0.747c0.311,0.476,0.466,1.239,0.466,2.294
		c0,1.18-0.152,2.042-0.457,2.594c-0.305,0.545-0.803,0.918-1.494,1.115c-0.68,0.199-2.552,0.301-5.616,0.301
		c-1.863,0-3.208-0.052-4.034-0.148c-1.008-0.117-1.731-0.348-2.171-0.688c-0.475-0.361-0.756-0.877-0.844-1.537
		c-0.047-0.322-0.07-0.703-0.07-1.145V332.027L65.549,332.027z"/>
	<path fill="#EDEFEF" d="M81.501,324.003H94.79v2.821h-9.686v1.73h9.193v2.637h-9.193v1.926h9.756V336H81.501V324.003z"/>
	<path fill="#EDEFEF" d="M109.029,336l-1.028-2.029h-7.937L99.036,336h-4.175l6.363-11.997h5.678L113.177,336H109.029z
		 M106.717,331.342l-2.312-4.544h-0.729l-2.312,4.544H106.717z"/>
	<path fill="#EDEFEF" d="M113.722,336v-11.997h8.833c2.086,0.006,3.316,0.026,3.691,0.062c0.428,0.041,0.816,0.166,1.165,0.373
		c0.349,0.209,0.62,0.476,0.813,0.797c0.199,0.347,0.319,0.705,0.36,1.08c0.053,0.438,0.079,0.972,0.079,1.593
		c0,0.979-0.067,1.659-0.202,2.048c-0.205,0.572-0.592,0.973-1.16,1.193c-0.193,0.076-0.483,0.146-0.87,0.201
		c0.768,0.062,1.318,0.278,1.652,0.659c0.146,0.171,0.25,0.365,0.312,0.584c0.062,0.222,0.104,0.541,0.127,0.964
		c0.006,0.217,0.009,0.658,0.009,1.326v1.116h-3.604v-0.642c0-0.717-0.032-1.229-0.097-1.539c-0.094-0.444-0.331-0.709-0.712-0.791
		c-0.252-0.053-0.782-0.078-1.591-0.078h-5.15v3.05L113.722,336L113.722,336z M117.378,329.953h5.142
		c0.768-0.012,1.222-0.023,1.362-0.035c0.516-0.029,0.841-0.188,0.976-0.475c0.094-0.199,0.141-0.536,0.141-1.012
		c0-0.41-0.041-0.717-0.123-0.914c-0.123-0.293-0.419-0.457-0.888-0.492c-0.164-0.012-0.656-0.021-1.477-0.025h-5.133V329.953z"/>
	<path fill="#EDEFEF" d="M141.398,331.368h3.656c0.021,0.586,0.033,0.987,0.033,1.204c0,0.873-0.138,1.572-0.412,2.101
		c-0.285,0.552-0.836,0.937-1.645,1.151c-0.887,0.24-2.414,0.359-4.59,0.359c-2.396,0-4.009-0.037-4.841-0.113
		c-0.773-0.064-1.383-0.168-1.828-0.309c-0.445-0.143-0.814-0.348-1.107-0.615c-0.393-0.362-0.642-0.844-0.747-1.44
		c-0.117-0.627-0.176-1.834-0.176-3.621c0-1.717,0.044-2.874,0.132-3.472c0.129-0.896,0.478-1.547,1.046-1.951
		c0.434-0.305,1.125-0.521,2.074-0.65c0.984-0.129,2.751-0.19,5.3-0.19c1.521,0,2.601,0.03,3.243,0.097
		c0.975,0.096,1.684,0.281,2.127,0.562c0.551,0.347,0.896,0.848,1.046,1.504c0.104,0.469,0.158,1.011,0.158,1.625
		c0,0.104-0.003,0.338-0.011,0.693h-3.654c-0.014-0.293-0.021-0.492-0.035-0.599c-0.047-0.356-0.208-0.583-0.48-0.679
		c-0.416-0.141-1.555-0.211-3.41-0.211c-1.266,0-2.139,0.035-2.619,0.104c-0.586,0.082-0.949,0.401-1.09,0.958
		c-0.111,0.451-0.167,1.178-0.167,2.18c0,1.031,0.056,1.744,0.167,2.137c0.141,0.512,0.527,0.808,1.16,0.89
		c0.516,0.063,1.42,0.099,2.715,0.099c1.398,0,2.354-0.029,2.865-0.09c0.479-0.053,0.785-0.226,0.914-0.519
		C141.329,332.326,141.387,331.925,141.398,331.368z"/>
	<path fill="#EDEFEF" d="M146.355,324.003h3.842v4.289h8.252v-4.289h3.842V336h-3.842v-4.352h-8.252V336h-3.842V324.003z"/>
</g>
<g id="TopHL">
	<line fill="none" stroke="#C6C6C6" stroke-width="3" stroke-miterlimit="10" x1="0.5" y1="18" x2="270.5" y2="18"/>
	<line fill="none" stroke="#C6C6C6" stroke-miterlimit="10" x1="0.501" y1="22.375" x2="270.5" y2="22.375"/>
</g>
<g id="BottomHL">
	<line fill="none" stroke="#C6C6C6" stroke-width="3" stroke-miterlimit="10" x1="270.503" y1="367.598" x2="0.502" y2="367.598"/>
</g>
</svg>
