<?xml version="1.0" encoding="utf-8"?>
<!-- Generator: Adobe Illustrator 16.0.0, SVG Export Plug-In . SVG Version: 6.00 Build 0)  -->
<!DOCTYPE svg PUBLIC "-//W3C//DTD SVG 1.1//EN" "http://www.w3.org/Graphics/SVG/1.1/DTD/svg11.dtd">
<svg version="1.1"
	 id="svg16908" xmlns:dc="http://purl.org/dc/elements/1.1/" xmlns:cc="http://creativecommons.org/ns#" xmlns:rdf="http://www.w3.org/1999/02/22-rdf-syntax-ns#" xmlns:svg="http://www.w3.org/2000/svg" xmlns:sodipodi="http://sodipodi.sourceforge.net/DTD/sodipodi-0.dtd" xmlns:inkscape="http://www.inkscape.org/namespaces/inkscape" sodipodi:docname="Davies1900hRed.svg" inkscape:version="0.92.2 5c3e80d, 2017-08-06"
	 xmlns="http://www.w3.org/2000/svg" xmlns:xlink="http://www.w3.org/1999/xlink" x="0px" y="0px" width="36px" height="36.002px"
	 viewBox="0 0 36 36.002" enable-background="new 0 0 36 36.002" xml:space="preserve">
<sodipodi:namedview  showgrid="false" inkscape:cy="17.482497" inkscape:cx="-88.847695" inkscape:zoom="3.959798" borderopacity="1.0" bordercolor="#666666" pagecolor="#ffffff" id="base" units="px" inkscape:window-maximized="0" inkscape:window-y="18" inkscape:window-x="0" inkscape:window-height="1422" inkscape:window-width="2560" inkscape:current-layer="layer1" inkscape:pageshadow="2" inkscape:document-units="mm" inkscape:pageopacity="0.0" fit-margin-left="0" fit-margin-top="0" fit-margin-bottom="0" fit-margin-right="0">
	</sodipodi:namedview>
<g id="layer1" transform="translate(-230.79391,-125.3411)" inkscape:label="Layer 1" inkscape:groupmode="layer">
	<g id="g1996" transform="matrix(0.2645804,0,0,-0.2645804,-143.82352,756.18044)">
		<g id="g6467" transform="translate(1451.8926,2366.2998)">
			<path id="path6469" inkscape:connector-curvature="0" fill="#13315E" d="M100.067-50.031c0-37.574-30.462-68.032-68.034-68.032
				c-37.573,0-68.031,30.458-68.031,68.032c0,37.571,30.458,68.029,68.031,68.029C69.605,17.998,100.067-12.46,100.067-50.031"/>
		</g>
		<g id="g6471" transform="translate(1451.791,2368.2021)">
			<path id="path6473" inkscape:connector-curvature="0" fill="#3F5BAA" d="M99.784-44.743c-2.99,4.832-8.017,9.589-10.811,16.351
				c-2.798,6.743-2.609,13.642-3.905,19.153c-3.041,3.768-6.467,7.19-10.239,10.235c-5.514,1.288-12.405,1.107-19.152,3.905
				c-6.769,2.805-11.523,7.818-16.347,10.807c-2.362,0.251-4.765,0.395-7.19,0.395c-2.434,0-4.833-0.144-7.192-0.395
				c-4.833-2.99-9.589-8.002-16.355-10.807C1.851,2.103-5.04,2.284-10.558,0.996c-3.767-3.045-7.196-6.467-10.235-10.235
				c-1.292-5.511-1.111-12.409-3.911-19.153c-2.798-6.762-7.819-11.52-10.802-16.351c-0.251-2.362-0.389-4.765-0.389-7.19
				c0-2.429,0.138-4.832,0.389-7.201c2.982-4.824,8.004-9.578,10.802-16.344c2.8-6.744,2.619-13.642,3.911-19.149
				c3.04-3.772,6.469-7.197,10.235-10.239c5.518-1.292,12.409-1.107,19.151-3.901c6.766-2.809,11.521-7.825,16.355-10.811
				c2.359-0.247,4.758-0.391,7.192-0.391c2.425,0,4.828,0.144,7.19,0.391c4.824,2.986,9.578,8.002,16.347,10.811
				c6.747,2.794,13.638,2.609,19.152,3.901c3.772,3.041,7.198,6.467,10.239,10.239c1.296,5.507,1.107,12.405,3.905,19.149
				c2.794,6.766,7.821,11.52,10.811,16.344c0.244,2.37,0.384,4.772,0.384,7.201C100.168-49.508,100.028-47.105,99.784-44.743"/>
		</g>
		<g id="g6475" transform="translate(1434.4912,2384.2314)">
			<path id="path6477" inkscape:connector-curvature="0" fill="#FFFFFF" d="M52.544-0.009c-1.015,0.052-2.045,0.079-3.11,0.079
				c-1.07,0-2.102-0.028-3.108-0.079v-20.708h6.218V-0.009z"/>
		</g>
	</g>
</g>
</svg>
