<?xml version="1.0" encoding="utf-8"?>
<!-- Generator: Adobe Illustrator 16.0.0, SVG Export Plug-In . SVG Version: 6.00 Build 0)  -->
<!DOCTYPE svg PUBLIC "-//W3C//DTD SVG 1.1//EN" "http://www.w3.org/Graphics/SVG/1.1/DTD/svg11.dtd">
<svg version="1.1"
	 id="svg16908" inkscape:version="0.92.2 5c3e80d, 2017-08-06" sodipodi:docname="Davies1900hRed.svg" xmlns:dc="http://purl.org/dc/elements/1.1/" xmlns:cc="http://creativecommons.org/ns#" xmlns:rdf="http://www.w3.org/1999/02/22-rdf-syntax-ns#" xmlns:svg="http://www.w3.org/2000/svg" xmlns:sodipodi="http://sodipodi.sourceforge.net/DTD/sodipodi-0.dtd" xmlns:inkscape="http://www.inkscape.org/namespaces/inkscape"
	 xmlns="http://www.w3.org/2000/svg" xmlns:xlink="http://www.w3.org/1999/xlink" x="0px" y="0px" width="25px" height="25px"
	 viewBox="5.5 5.501 25 25" enable-background="new 5.5 5.501 25 25" xml:space="preserve">
<sodipodi:namedview  units="px" fit-margin-top="0" fit-margin-left="0" id="base" pagecolor="#ffffff" bordercolor="#666666" borderopacity="1.0" inkscape:zoom="3.959798" inkscape:cx="-88.847695" inkscape:cy="17.482497" showgrid="false" fit-margin-right="0" fit-margin-bottom="0" inkscape:pageshadow="2" inkscape:current-layer="layer1" inkscape:window-y="18" inkscape:window-maximized="0" inkscape:pageopacity="0.0" inkscape:window-width="2560" inkscape:window-x="0" inkscape:document-units="mm" inkscape:window-height="1422">
	</sodipodi:namedview>
<g id="layer1" transform="translate(-230.79391,-125.3411)" inkscape:groupmode="layer" inkscape:label="Layer 1">
	<g id="g1996" transform="matrix(0.2645804,0,0,-0.2645804,-143.82352,756.18044)">
		<g id="g6467" transform="translate(1451.8926,2366.2998)">
			<path id="path6469" inkscape:connector-curvature="0" fill="#595959" d="M79.279-50.028c0-26.092-21.157-47.248-47.25-47.248
				c-26.088,0-47.239,21.157-47.239,47.248c0,26.09,21.151,47.241,47.239,47.241C58.122-2.787,79.279-23.938,79.279-50.028"/>
		</g>
		<g id="g6471" transform="translate(1451.791,2368.2021)">
			<path id="path6473" inkscape:connector-curvature="0" fill="#FFFFFF" d="M79.115-46.944c-2.074,3.355-5.57,6.659-7.507,11.355
				c-1.942,4.684-1.809,9.471-2.713,13.302c-2.108,2.615-4.488,4.988-7.105,7.105c-3.831,0.897-8.619,0.77-13.302,2.713
				c-4.702,1.945-7.998,5.429-11.35,7.504c-1.646,0.175-3.318,0.275-5.005,0.275c-1.687,0-3.351-0.1-4.988-0.275
				c-3.359-2.074-6.659-5.559-11.359-7.504c-4.68-1.943-9.466-1.816-13.299-2.713c-2.617-2.117-4.996-4.49-7.107-7.105
				c-0.897-3.831-0.773-8.618-2.717-13.302c-1.943-4.697-5.431-8-7.502-11.355c-0.174-1.644-0.27-3.309-0.27-4.992
				c0-1.687,0.096-3.35,0.27-5c2.071-3.348,5.559-6.647,7.502-11.353c1.943-4.677,1.82-9.471,2.717-13.295
				c2.111-2.617,4.49-4.994,7.107-7.105c3.833-0.901,8.619-0.771,13.299-2.713c4.7-1.949,8-5.433,11.359-7.507
				c1.637-0.173,3.302-0.27,4.988-0.27c1.687,0,3.359,0.096,5.005,0.27c3.351,2.074,6.647,5.559,11.35,7.507
				c4.684,1.941,9.471,1.812,13.302,2.713c2.617,2.111,4.998,4.488,7.105,7.105c0.904,3.824,0.771,8.619,2.713,13.295
				c1.938,4.706,5.433,8.006,7.507,11.353c0.166,1.65,0.266,3.313,0.266,5C79.381-50.253,79.281-48.588,79.115-46.944"/>
		</g>
	</g>
</g>
<circle cx="18" cy="7.505" r="1.41"/>
</svg>
