<?xml version="1.0" encoding="utf-8"?>
<!-- Generator: Adobe Illustrator 16.0.0, SVG Export Plug-In . SVG Version: 6.00 Build 0)  -->
<!DOCTYPE svg PUBLIC "-//W3C//DTD SVG 1.1//EN" "http://www.w3.org/Graphics/SVG/1.1/DTD/svg11.dtd">
<svg version="1.1"
	 id="svg15246" inkscape:version="0.92.2 5c3e80d, 2017-08-06" sodipodi:docname="PJ3410.svg" xmlns:dc="http://purl.org/dc/elements/1.1/" xmlns:cc="http://creativecommons.org/ns#" xmlns:rdf="http://www.w3.org/1999/02/22-rdf-syntax-ns#" xmlns:svg="http://www.w3.org/2000/svg" xmlns:sodipodi="http://sodipodi.sourceforge.net/DTD/sodipodi-0.dtd" xmlns:inkscape="http://www.inkscape.org/namespaces/inkscape"
	 xmlns="http://www.w3.org/2000/svg" xmlns:xlink="http://www.w3.org/1999/xlink" x="0px" y="0px" width="30px" height="30px"
	 viewBox="-1 -1 30 30" enable-background="new -1 -1 30 30" xml:space="preserve">
<sodipodi:namedview  units="px" showgrid="false" borderopacity="1.0" id="base" inkscape:cx="6.9359976" inkscape:cy="-37.491484" fit-margin-left="0" bordercolor="#666666" pagecolor="#ffffff" inkscape:zoom="3.959798" fit-margin-top="0" inkscape:current-layer="layer1" inkscape:window-width="1274" inkscape:window-height="1434" inkscape:window-x="1280" inkscape:window-y="0" inkscape:window-maximized="0" inkscape:pageopacity="0.0" fit-margin-right="0" inkscape:pageshadow="2" fit-margin-bottom="0" inkscape:document-units="mm">
	</sodipodi:namedview>
<g>
	<circle fill="#1C1C1C" cx="14" cy="14" r="15"/>
	<circle fill="#353535" cx="14" cy="14.093" r="10.778"/>
	<path fill="#7C7B7B" d="M5.426,5.39c1.819-1.063,3.663-2.113,5.478-3.164c3.624-2.091,2.528-2.091,6.156,0.002
		c1.844,1.064,3.706,2.125,5.548,3.188c3.626,2.095,3.08,1.144,3.071,5.342c-0.002,2.099-0.007,4.224-0.013,6.32
		c0.013,4.192,0.562,3.241-3.062,5.334c-1.85,1.061-3.693,2.139-5.549,3.213c-3.624,2.09-2.513,2.086-6.15-0.015
		c-1.825-1.053-3.656-2.112-5.48-3.163c-3.634-2.101-3.077-1.144-3.078-5.331c-0.005-2.134-0.008-4.263-0.007-6.408
		C2.338,6.527,1.79,7.477,5.426,5.39L5.426,5.39z M5.458,8.992C8.18,4.281,14.205,2.667,18.918,5.39
		c4.725,2.725,6.337,8.749,3.618,13.463c-2.729,4.726-8.751,6.337-13.475,3.608C4.346,19.738,2.731,13.715,5.458,8.992L5.458,8.992z
		 M6.159,9.396c2.498-4.325,8.034-5.817,12.357-3.319c4.336,2.503,5.813,8.042,3.316,12.366c-2.503,4.338-8.035,5.817-12.368,3.315
		C5.139,19.259,3.658,13.731,6.159,9.396L6.159,9.396z M7.875,10.387c1.949-3.377,6.272-4.532,9.645-2.585
		c3.386,1.956,4.543,6.278,2.598,9.652c-1.957,3.388-6.279,4.544-9.664,2.59C7.08,18.093,5.919,13.773,7.875,10.387L7.875,10.387z
		 M8.566,10.784c-1.731,2.999-0.695,6.833,2.294,8.559c2.997,1.732,6.829,0.707,8.558-2.294c1.73-3,0.706-6.826-2.296-8.557
		C14.135,6.767,10.29,7.797,8.566,10.784L8.566,10.784z"/>
</g>
<circle cx="14.001" cy="14.09" r="6.919"/>
</svg>
