<?xml version="1.0" encoding="utf-8"?>
<!-- Generator: Adobe Illustrator 16.0.0, SVG Export Plug-In . SVG Version: 6.00 Build 0)  -->
<!DOCTYPE svg PUBLIC "-//W3C//DTD SVG 1.1//EN" "http://www.w3.org/Graphics/SVG/1.1/DTD/svg11.dtd">
<svg version="1.1"
	 id="svg15246" xmlns:dc="http://purl.org/dc/elements/1.1/" xmlns:cc="http://creativecommons.org/ns#" xmlns:rdf="http://www.w3.org/1999/02/22-rdf-syntax-ns#" xmlns:svg="http://www.w3.org/2000/svg" xmlns:sodipodi="http://sodipodi.sourceforge.net/DTD/sodipodi-0.dtd" xmlns:inkscape="http://www.inkscape.org/namespaces/inkscape" sodipodi:docname="PJ3410.svg" inkscape:version="0.92.2 5c3e80d, 2017-08-06"
	 xmlns="http://www.w3.org/2000/svg" xmlns:xlink="http://www.w3.org/1999/xlink" x="0px" y="0px" width="29.354px"
	 height="29.357px" viewBox="0 0 29.354 29.357" enable-background="new 0 0 29.354 29.357" xml:space="preserve">
<sodipodi:namedview  showgrid="false" inkscape:cy="-37.491484" inkscape:cx="6.9359976" inkscape:zoom="3.959798" borderopacity="1.0" bordercolor="#666666" pagecolor="#ffffff" id="base" units="px" inkscape:window-maximized="0" inkscape:window-y="0" inkscape:window-x="1280" inkscape:window-height="1434" inkscape:window-width="1274" inkscape:current-layer="layer1" inkscape:pageshadow="2" inkscape:document-units="mm" inkscape:pageopacity="0.0" fit-margin-left="0" fit-margin-top="0" fit-margin-bottom="0" fit-margin-right="0">
	</sodipodi:namedview>
<g id="layer1" transform="translate(-74.416306,-97.613551)" inkscape:label="Layer 1" inkscape:groupmode="layer">
	<path id="path7757" inkscape:connector-curvature="0" fill="#545454" d="M78.45,112.28c0.031,5.902,4.742,10.617,10.641,10.645
		c5.875-0.02,10.629-4.762,10.621-10.645c-0.004-5.867-4.754-10.602-10.621-10.617C83.2,101.686,78.493,106.386,78.45,112.28"/>
	<path id="path7759" inkscape:connector-curvature="0" d="M83.411,112.288c0.016,3.148,2.527,5.66,5.676,5.676
		c3.133-0.012,5.668-2.539,5.664-5.676c0-3.133-2.535-5.656-5.664-5.664C85.946,106.636,83.435,109.144,83.411,112.288"/>
	<path id="path18715" inkscape:connector-curvature="0" fill="none" stroke="#2A2B2A" stroke-width="0.25" d="M81.001,112.285
		c0.021,4.487,3.602,8.067,8.089,8.089c4.465-0.017,8.077-3.618,8.072-8.089c0-4.464-3.613-8.061-8.072-8.072
		C84.613,104.23,81.034,107.804,81.001,112.285"/>
</g>
<g>
	<g id="iconos_47_">
		<path fill="#C6C6C6" d="M5.551,14.631c0,5.032,4.095,9.127,9.126,9.127c5.033,0,9.126-4.095,9.126-9.127
			c0-5.031-4.093-9.126-9.126-9.126C9.645,5.505,5.551,9.6,5.551,14.631z M20.502,14.631c0,3.217-2.606,5.827-5.825,5.827
			c-3.216,0-5.824-2.61-5.824-5.827s2.608-5.825,5.824-5.825C17.895,8.805,20.502,11.414,20.502,14.631z"/>
		<path fill="#969595" d="M8.23,3.447L1.992,14.398L8.23,25.349h12.478l6.237-10.951L20.708,3.447H8.23z M24.269,14.631
			c0,5.291-4.304,9.593-9.593,9.593c-5.288,0-9.593-4.302-9.593-9.593c0-5.289,4.305-9.592,9.593-9.592
			C19.966,5.039,24.269,9.342,24.269,14.631z"/>
	</g>
</g>
<path id="path7759_1_" inkscape:connector-curvature="0" d="M47.109,14.934c0.016,3.148,2.527,5.66,5.676,5.676
	c3.133-0.012,5.668-2.539,5.664-5.676c0-3.133-2.535-5.656-5.664-5.664C49.644,9.282,47.133,11.79,47.109,14.934"/>
</svg>
