<?xml version="1.0" encoding="utf-8"?>
<!-- Generator: Adobe Illustrator 16.0.0, SVG Export Plug-In . SVG Version: 6.00 Build 0)  -->
<!DOCTYPE svg PUBLIC "-//W3C//DTD SVG 1.1//EN" "http://www.w3.org/Graphics/SVG/1.1/DTD/svg11.dtd">
<svg version="1.1"
	 id="svg15246" inkscape:version="0.92.2 5c3e80d, 2017-08-06" sodipodi:docname="PJ3410.svg" xmlns:dc="http://purl.org/dc/elements/1.1/" xmlns:cc="http://creativecommons.org/ns#" xmlns:rdf="http://www.w3.org/1999/02/22-rdf-syntax-ns#" xmlns:svg="http://www.w3.org/2000/svg" xmlns:sodipodi="http://sodipodi.sourceforge.net/DTD/sodipodi-0.dtd" xmlns:inkscape="http://www.inkscape.org/namespaces/inkscape"
	 xmlns="http://www.w3.org/2000/svg" xmlns:xlink="http://www.w3.org/1999/xlink" x="0px" y="0px" width="30px" height="30px"
	 viewBox="-1 -1 30 30" enable-background="new -1 -1 30 30" xml:space="preserve">
<sodipodi:namedview  units="px" showgrid="false" borderopacity="1.0" id="base" inkscape:cx="6.9359976" inkscape:cy="-37.491484" fit-margin-left="0" bordercolor="#666666" pagecolor="#ffffff" inkscape:zoom="3.959798" fit-margin-top="0" inkscape:current-layer="layer1" inkscape:window-width="1274" inkscape:window-height="1434" inkscape:window-x="1280" inkscape:window-y="0" inkscape:window-maximized="0" inkscape:pageopacity="0.0" fit-margin-right="0" inkscape:pageshadow="2" fit-margin-bottom="0" inkscape:document-units="mm">
	</sodipodi:namedview>
<g>
	<circle fill="#1C1C1C" cx="14" cy="14" r="15"/>
	<circle fill="#353535" cx="14" cy="14.093" r="10.778"/>
	<path fill="#7C7B7B" d="M4.84,4.917c1.943-1.122,3.913-2.23,5.852-3.339c3.871-2.208,2.701-2.208,6.576,0.002
		c1.97,1.123,3.959,2.243,5.927,3.365c3.873,2.211,3.29,1.208,3.28,5.638c-0.002,2.215-0.007,4.458-0.014,6.669
		c0.014,4.425,0.6,3.422-3.271,5.63c-1.976,1.119-3.945,2.257-5.927,3.392c-3.872,2.204-2.685,2.2-6.57-0.017
		c-1.949-1.11-3.905-2.229-5.854-3.337c-3.881-2.218-3.287-1.207-3.288-5.627c-0.006-2.252-0.009-4.5-0.008-6.762
		C1.542,6.118,0.956,7.12,4.84,4.917L4.84,4.917z M4.875,8.719c2.907-4.972,9.343-6.674,14.378-3.801
		c5.047,2.875,6.77,9.232,3.865,14.208c-2.916,4.988-9.349,6.688-14.395,3.809C3.687,20.06,1.962,13.703,4.875,8.719L4.875,8.719z
		 M5.623,9.145c2.668-4.564,8.582-6.138,13.2-3.502c4.632,2.641,6.21,8.487,3.542,13.05c-2.673,4.578-8.583,6.14-13.211,3.499
		C4.534,19.555,2.952,13.72,5.623,9.145L5.623,9.145z M7.456,10.191c2.082-3.564,6.7-4.783,10.303-2.729
		c3.617,2.064,4.853,6.625,2.775,10.187c-2.091,3.575-6.708,4.796-10.323,2.733C6.607,18.323,5.367,13.765,7.456,10.191
		L7.456,10.191z M8.195,10.61c-1.849,3.165-0.743,7.21,2.451,9.034c3.202,1.828,7.295,0.745,9.142-2.422
		c1.849-3.165,0.754-7.204-2.453-9.031C14.143,6.371,10.036,7.458,8.195,10.61L8.195,10.61z"/>
</g>
<circle cx="14.001" cy="14.09" r="6.919"/>
</svg>
