<?xml version="1.0" encoding="utf-8"?>
<!-- Generator: Adobe Illustrator 16.0.0, SVG Export Plug-In . SVG Version: 6.00 Build 0)  -->
<!DOCTYPE svg PUBLIC "-//W3C//DTD SVG 1.1//EN" "http://www.w3.org/Graphics/SVG/1.1/DTD/svg11.dtd" [
        <!ENTITY ns_extend "http://ns.adobe.com/Extensibility/1.0/">
        <!ENTITY ns_ai "http://ns.adobe.com/AdobeIllustrator/10.0/">
        <!ENTITY ns_graphs "http://ns.adobe.com/Graphs/1.0/">
        <!ENTITY ns_vars "http://ns.adobe.com/Variables/1.0/">
        <!ENTITY ns_imrep "http://ns.adobe.com/ImageReplacement/1.0/">
        <!ENTITY ns_sfw "http://ns.adobe.com/SaveForWeb/1.0/">
        <!ENTITY ns_custom "http://ns.adobe.com/GenericCustomNamespace/1.0/">
        <!ENTITY ns_adobe_xpath "http://ns.adobe.com/XPath/1.0/">
        ]>
<svg xmlns:x="&ns_extend;" xmlns:i="&ns_ai;" xmlns:graph="&ns_graphs;" xmlns:xlink="http://www.w3.org/1999/xlink" version="1.1"
	 id="IOPort" xmlns="http://www.w3.org/2000/svg" x="0px" y="0px" width="28px" height="28px"
	 viewBox="221 289.2 28 28" enable-background="new 221 289.2 28 28" xml:space="preserve">
<metadata>
	<sfw  xmlns="&ns_sfw;">
		<slices></slices>
		<sliceSourceBounds  width="27" height="27" bottomLeftOrigin="true" x="0" y="-25.209"></sliceSourceBounds>
	</sfw>
</metadata>
<g id="IOPort_1_">
	<g id="Outside">
		<polygon fill="#A8A8A8" points="231.497,290.169 244.537,293.663 248.031,306.703 238.485,316.249 225.445,312.755 
			221.951,299.715 		"/>
		<polygon fill="#A8A8A8" points="241.75,291.518 248.5,303.209 241.75,314.9 228.25,314.9 221.5,303.209 228.25,291.518 		"/>
		<polygon fill="#A8A8A8" points="248.031,299.715 244.537,312.755 231.497,316.249 221.951,306.703 225.445,293.663 
			238.485,290.169 		"/>
		<polygon fill="#A8A8A8" points="246.674,309.959 234.982,316.709 223.291,309.959 223.291,296.459 234.982,289.709 
			246.674,296.459 		"/>
	</g>
	<path id="inner_circle" fill="#7F7F7F" stroke="#494949" stroke-width="2" stroke-miterlimit="10" d="M234.991,313.084
		c5.445,0,9.875-4.43,9.875-9.875s-4.43-9.875-9.875-9.875s-9.875,4.43-9.875,9.875S229.546,313.084,234.991,313.084z
		 M234.991,296.906c3.48,0,6.304,2.821,6.304,6.303s-2.823,6.303-6.304,6.303c-3.482,0-6.304-2.821-6.304-6.303
		S231.509,296.906,234.991,296.906z"/>
	<rect x="222.094" y="302.244" fill="#494949" width="3.778" height="2"/>
	<rect x="244.119" y="302.244" fill="#494949" width="3.752" height="2"/>
	<circle fill="#0C0C0C" cx="234.991" cy="303.209" r="6.8"/>
</g>
<path id="inner_circle_1_" display="none" fill="#494949" d="M235,314.7c6.341,0,11.5-5.158,11.5-11.5s-5.159-11.5-11.5-11.5
	s-11.5,5.158-11.5,11.5S228.659,314.7,235,314.7z M235,295.86c4.053,0,7.341,3.285,7.341,7.34s-3.288,7.34-7.341,7.34
	c-4.056,0-7.341-3.285-7.341-7.34S230.944,295.86,235,295.86z"/>
</svg>
