<?xml version="1.0" encoding="utf-8"?>
<!-- Generator: Adobe Illustrator 16.0.0, SVG Export Plug-In . SVG Version: 6.00 Build 0)  -->
<!DOCTYPE svg PUBLIC "-//W3C//DTD SVG 1.1//EN" "http://www.w3.org/Graphics/SVG/1.1/DTD/svg11.dtd">
<svg version="1.1"
	 id="svg15246" xmlns:dc="http://purl.org/dc/elements/1.1/" xmlns:cc="http://creativecommons.org/ns#" xmlns:rdf="http://www.w3.org/1999/02/22-rdf-syntax-ns#" xmlns:svg="http://www.w3.org/2000/svg" xmlns:sodipodi="http://sodipodi.sourceforge.net/DTD/sodipodi-0.dtd" xmlns:inkscape="http://www.inkscape.org/namespaces/inkscape" sodipodi:docname="PJ3410.svg" inkscape:version="0.92.2 5c3e80d, 2017-08-06"
	 xmlns="http://www.w3.org/2000/svg" xmlns:xlink="http://www.w3.org/1999/xlink" x="0px" y="0px" width="29.354px"
	 height="29.357px" viewBox="0 0 29.354 29.357" enable-background="new 0 0 29.354 29.357" xml:space="preserve">
<sodipodi:namedview  showgrid="false" inkscape:cy="-37.491484" inkscape:cx="6.9359976" inkscape:zoom="3.959798" borderopacity="1.0" bordercolor="#666666" pagecolor="#ffffff" id="base" units="px" inkscape:window-maximized="0" inkscape:window-y="0" inkscape:window-x="1280" inkscape:window-height="1434" inkscape:window-width="1274" inkscape:current-layer="layer1" inkscape:pageshadow="2" inkscape:document-units="mm" inkscape:pageopacity="0.0" fit-margin-left="0" fit-margin-top="0" fit-margin-bottom="0" fit-margin-right="0">
	</sodipodi:namedview>
<g>
	<circle fill-rule="evenodd" clip-rule="evenodd" fill="#353535" cx="14.677" cy="14.68" r="10.06"/>
	<path fill-rule="evenodd" clip-rule="evenodd" fill="#9B9A9A" d="M17.492,3.475c1.736,0.99,3.471,2.006,5.195,2.998
		c3.436,1.984,2.916,1.086,2.916,5.053c0,2.02,0.012,4.049,0.012,6.068c0,3.967,0.52,3.07-2.928,5.053
		c-1.725,0.992-3.471,1.996-5.195,2.986c-3.436,1.996-2.396,1.996-5.832,0.012c-1.746-1.014-3.506-2.018-5.265-3.033
		C2.959,20.63,3.49,21.538,3.49,17.559c0-1.996,0-4.002,0-5.998c0-3.979-0.52-3.068,2.916-5.053C8.154,5.493,9.9,4.479,11.66,3.464
		C15.095,1.479,14.056,1.479,17.492,3.475L17.492,3.475z M14.552,5.21c5.158,0,9.338,4.18,9.338,9.34c0,5.17-4.18,9.35-9.338,9.35
		c-5.172,0-9.35-4.18-9.35-9.35C5.202,9.389,9.381,5.21,14.552,5.21L14.552,5.21z M14.552,5.977c4.734,0,8.582,3.838,8.582,8.572
		c0,4.744-3.848,8.582-8.582,8.582c-4.746,0-8.583-3.838-8.583-8.582C5.97,9.815,9.806,5.977,14.552,5.977L14.552,5.977z
		 M14.552,7.854c3.695,0,6.693,3,6.693,6.695c0,3.705-2.998,6.705-6.693,6.705c-3.707,0-6.706-3-6.706-6.705
		C7.847,10.854,10.845,7.854,14.552,7.854L14.552,7.854z M14.552,8.61c-3.281,0-5.938,2.668-5.938,5.939
		c0,3.281,2.656,5.938,5.938,5.938s5.938-2.656,5.938-5.938C20.49,11.278,17.822,8.61,14.552,8.61L14.552,8.61z"/>
</g>
<circle fill-rule="evenodd" clip-rule="evenodd" cx="14.676" cy="14.678" r="6.458"/>
</svg>
