<?xml version="1.0" encoding="utf-8"?>
<!-- Generator: Adobe Illustrator 16.0.0, SVG Export Plug-In . SVG Version: 6.00 Build 0)  -->
<!DOCTYPE svg PUBLIC "-//W3C//DTD SVG 1.1//EN" "http://www.w3.org/Graphics/SVG/1.1/DTD/svg11.dtd">
<svg version="1.1"
	 id="svg15246" sodipodi:docname="PJ3410.svg" inkscape:version="0.92.2 5c3e80d, 2017-08-06" xmlns:dc="http://purl.org/dc/elements/1.1/" xmlns:cc="http://creativecommons.org/ns#" xmlns:rdf="http://www.w3.org/1999/02/22-rdf-syntax-ns#" xmlns:svg="http://www.w3.org/2000/svg" xmlns:sodipodi="http://sodipodi.sourceforge.net/DTD/sodipodi-0.dtd" xmlns:inkscape="http://www.inkscape.org/namespaces/inkscape"
	 xmlns="http://www.w3.org/2000/svg" xmlns:xlink="http://www.w3.org/1999/xlink" x="0px" y="0px" width="28px" height="28px"
	 viewBox="0.677 0.678 28 28" enable-background="new 0.677 0.678 28 28" xml:space="preserve">
<sodipodi:namedview  units="px" fit-margin-bottom="0" fit-margin-right="0" inkscape:window-maximized="0" inkscape:window-y="0" inkscape:window-x="1280" inkscape:window-height="1434" inkscape:window-width="1274" inkscape:current-layer="layer1" inkscape:document-units="mm" inkscape:pageshadow="2" inkscape:pageopacity="0.0" id="base" pagecolor="#ffffff" bordercolor="#666666" borderopacity="1.0" inkscape:zoom="3.959798" inkscape:cx="6.9359976" inkscape:cy="-37.491484" fit-margin-left="0" fit-margin-top="0" showgrid="false">
	</sodipodi:namedview>
<g>
	<circle fill="#383838" cx="14.615" cy="14.619" r="14"/>
	<circle fill="#353535" cx="14.615" cy="14.706" r="10.06"/>
	<path fill="#7C7B7B" d="M6.613,6.583c1.697-0.992,3.418-1.972,5.112-2.953c3.383-1.952,2.36-1.952,5.745,0.002
		c1.722,0.993,3.46,1.983,5.179,2.976c3.384,1.955,2.874,1.068,2.867,4.986c-0.003,1.959-0.007,3.942-0.012,5.898
		c0.012,3.913,0.523,3.026-2.858,4.979c-1.726,0.989-3.447,1.996-5.179,2.998c-3.382,1.951-2.345,1.947-5.74-0.014
		c-1.703-0.983-3.412-1.97-5.115-2.952c-3.392-1.96-2.872-1.068-2.873-4.976c-0.005-1.991-0.008-3.978-0.007-5.98
		C3.731,7.644,3.219,8.531,6.613,6.583L6.613,6.583z M6.643,9.945c2.54-4.397,8.163-5.903,12.562-3.362
		c4.41,2.543,5.915,8.165,3.377,12.565c-2.547,4.411-8.168,5.915-12.576,3.367C5.605,19.974,4.098,14.353,6.643,9.945L6.643,9.945z
		 M7.297,10.322c2.331-4.037,7.498-5.429,11.533-3.098c4.047,2.336,5.426,7.506,3.095,11.542c-2.336,4.048-7.499,5.43-11.543,3.094
		C6.345,19.528,4.963,14.368,7.297,10.322L7.297,10.322z M8.898,11.247c1.819-3.152,5.854-4.23,9.003-2.413
		c3.159,1.825,4.239,5.86,2.423,9.009c-1.826,3.162-5.86,4.241-9.019,2.417C8.156,18.44,7.073,14.407,8.898,11.247L8.898,11.247z
		 M9.544,11.617c-1.616,2.799-0.649,6.377,2.141,7.988c2.797,1.617,6.373,0.66,7.987-2.14c1.615-2.8,0.659-6.371-2.143-7.987
		C14.741,7.868,11.153,8.83,9.544,11.617L9.544,11.617z"/>
</g>
<circle cx="14.616" cy="14.703" r="6.458"/>
</svg>
