<?xml version="1.0" encoding="utf-8"?>
<!-- Generator: Adobe Illustrator 16.0.0, SVG Export Plug-In . SVG Version: 6.00 Build 0)  -->
<!DOCTYPE svg PUBLIC "-//W3C//DTD SVG 1.1//EN" "http://www.w3.org/Graphics/SVG/1.1/DTD/svg11.dtd">
<svg xmlns:dc="http://purl.org/dc/elements/1.1/"
	 xmlns:sodipodi="http://sodipodi.sourceforge.net/DTD/sodipodi-0.dtd" xmlns:svg="http://www.w3.org/2000/svg" xmlns:inkscape="http://www.inkscape.org/namespaces/inkscape" xmlns:cc="http://creativecommons.org/ns#" xmlns:rdf="http://www.w3.org/1999/02/22-rdf-syntax-ns#" xmlns:xlink="http://www.w3.org/1999/xlink" version="1.1" id="LRBasicKnobWhite" inkscape:version="0.92.2 5c3e80d, 2017-08-06"
	 sodipodi:docname="LRBasicKnobWhite.svg" xmlns="http://www.w3.org/2000/svg" x="0px" y="0px" width="30px" height="30px"
	 viewBox="-24.5 65.5 30 30" enable-background="new -24.5 65.5 30 30" xml:space="preserve">
<rect id="Background" x="-24.5" y="65.5" display="none" width="30" height="30"/>
<sodipodi:namedview  units="px" id="base" inkscape:window-height="1434" inkscape:window-y="0" inkscape:current-layer="layer1" inkscape:pageshadow="2" fit-margin-bottom="0" inkscape:window-width="1274" inkscape:window-x="1280" inkscape:pageopacity="0.0" inkscape:document-units="px" inkscape:window-maximized="0" fit-margin-right="0" fit-margin-left="0" inkscape:cy="59.915557" bordercolor="#666666" fit-margin-top="0" pagecolor="#ffffff" borderopacity="1.0" inkscape:cx="87.773411" inkscape:zoom="1.979899" showgrid="false">
	</sodipodi:namedview>
<g id="Knob" transform="translate(-35.482976,-90.654687)" inkscape:groupmode="layer" inkscape:label="Layer 1">
	<path id="Structure" inkscape:connector-curvature="0" fill="#FDFEFF" d="M38.048,164.83c-0.807-1.531-1.89-2.889-3.178-4.011
		c-2.484,0.354-5.056-0.903-6.338-3.095c-0.826-0.16-1.679-0.245-2.55-0.245c-0.871,0-1.723,0.085-2.549,0.245
		c-1.284,2.191-3.854,3.449-6.339,3.095c-1.288,1.122-2.372,2.479-3.178,4.011c0.92,2.42,0.264,5.307-1.608,7.071
		c0.061,1.754,0.437,3.426,1.077,4.957c2.491,0.762,4.345,3.139,4.508,5.783c1.319,0.984,2.819,1.732,4.439,2.188
		c2.145-1.537,5.158-1.537,7.3,0c1.62-0.456,3.121-1.203,4.441-2.188c0.162-2.643,2.014-5.021,4.508-5.783
		c0.641-1.531,1.016-3.203,1.075-4.957C37.787,170.137,37.131,167.25,38.048,164.83"/>
	
		<circle id="Middlering" fill="#F7F7F7" stroke="#939393" stroke-width="0.4" stroke-miterlimit="10" cx="25.983" cy="171.44" r="9.23"/>
	<path id="Marker" inkscape:connector-curvature="0" d="M27.483,159.367c0,0.831-0.677,1.5-1.502,1.5
		c-0.827,0-1.498-0.669-1.498-1.5s0.671-1.5,1.498-1.5C26.804,157.869,27.483,158.536,27.483,159.367"/>
</g>
</svg>
