<?xml version="1.0" encoding="utf-8"?>
<!-- Generator: Adobe Illustrator 16.0.0, SVG Export Plug-In . SVG Version: 6.00 Build 0)  -->
<!DOCTYPE svg PUBLIC "-//W3C//DTD SVG 1.1//EN" "http://www.w3.org/Graphics/SVG/1.1/DTD/svg11.dtd">
<svg version="1.1"
	 id="svg16908" sodipodi:docname="Davies1900hWhite.svg" inkscape:version="0.92.2 5c3e80d, 2017-08-06" xmlns:dc="http://purl.org/dc/elements/1.1/" xmlns:cc="http://creativecommons.org/ns#" xmlns:rdf="http://www.w3.org/1999/02/22-rdf-syntax-ns#" xmlns:svg="http://www.w3.org/2000/svg" xmlns:sodipodi="http://sodipodi.sourceforge.net/DTD/sodipodi-0.dtd" xmlns:inkscape="http://www.inkscape.org/namespaces/inkscape"
	 xmlns="http://www.w3.org/2000/svg" xmlns:xlink="http://www.w3.org/1999/xlink" x="0px" y="0px" width="32px" height="32px"
	 viewBox="4 4 32 32" enable-background="new 4 4 32 32" xml:space="preserve">
<g id="g6455" transform="translate(1389.8926,2366.2998)">
	<path id="path6457" inkscape:connector-curvature="0" fill="#282828" stroke="#444444" stroke-miterlimit="10" d="
		M-1354.874-2346.298c0,8.284-6.717,15-15,15c-8.284,0-15-6.717-15-15c0-8.281,6.716-14.999,15-14.999
		C-1361.591-2361.297-1354.874-2354.58-1354.874-2346.298"/>
</g>
<circle fill="#B9B9BA" cx="20.004" cy="20" r="13.875"/>
<sodipodi:namedview  units="px" fit-margin-bottom="0" fit-margin-right="0" inkscape:window-maximized="0" inkscape:window-y="18" inkscape:window-x="0" inkscape:window-height="1422" inkscape:window-width="2560" inkscape:current-layer="layer1" inkscape:document-units="mm" inkscape:pageshadow="2" inkscape:pageopacity="0.0" id="base" pagecolor="#ffffff" bordercolor="#666666" borderopacity="1.0" inkscape:zoom="3.959798" inkscape:cx="-91.947964" inkscape:cy="8.8255993" fit-margin-left="0" fit-margin-top="0" showgrid="false">
	</sodipodi:namedview>
<g id="layer1" transform="translate(-231.61419,-123.05063)" inkscape:groupmode="layer" inkscape:label="Layer 1">
	<g id="g2004" transform="matrix(0.2645804,0,0,-0.2645804,-126.59926,753.88997)">
		<g id="g6463" transform="translate(1372.4912,2384.2314)">
			<path id="path6465" inkscape:connector-curvature="0" d="M59.903-21.257c-0.926,0.054-1.858,0.085-2.833,0.085
				c-0.98,0-1.912-0.031-2.835-0.085v-22.6h5.667V-21.257L59.903-21.257z"/>
		</g>
	</g>
</g>
<circle fill="#D6D4C4" stroke="#8B8C8E" stroke-miterlimit="10" cx="20.004" cy="20" r="8.386"/>
</svg>
