<?xml version="1.0" encoding="utf-8"?>
<!-- Generator: Adobe Illustrator 16.0.0, SVG Export Plug-In . SVG Version: 6.00 Build 0)  -->
<!DOCTYPE svg PUBLIC "-//W3C//DTD SVG 1.1//EN" "http://www.w3.org/Graphics/SVG/1.1/DTD/svg11.dtd">
<svg version="1.1"
	 id="svg16908" xmlns:dc="http://purl.org/dc/elements/1.1/" xmlns:cc="http://creativecommons.org/ns#" xmlns:rdf="http://www.w3.org/1999/02/22-rdf-syntax-ns#" xmlns:svg="http://www.w3.org/2000/svg" xmlns:sodipodi="http://sodipodi.sourceforge.net/DTD/sodipodi-0.dtd" xmlns:inkscape="http://www.inkscape.org/namespaces/inkscape" sodipodi:docname="Davies1900hWhite.svg" inkscape:version="0.92.2 5c3e80d, 2017-08-06"
	 xmlns="http://www.w3.org/2000/svg" xmlns:xlink="http://www.w3.org/1999/xlink" x="0px" y="0px" width="40px" height="40px"
	 viewBox="-307.5 394.501 40 40" enable-background="new -307.5 394.501 40 40" xml:space="preserve">
<g id="g6455" transform="translate(1389.8926,2366.2998)">
	<path id="path6457" inkscape:connector-curvature="0" fill="#282828" d="M-1657.393-1951.712c0,11.042-8.955,19.995-19.999,19.995
		c-11.045,0-19.999-8.953-19.999-19.995c0-11.038,8.954-19.992,19.999-19.992
		C-1666.347-1971.704-1657.393-1962.75-1657.393-1951.712"/>
</g>
<path fill="#FCFCFC" d="M-270.5,405.92c-0.247-1.861-1.234-3.85-2.895-5.501c-1.659-1.652-3.661-2.636-5.531-2.879
	c-0.845-0.11-1.976-0.576-2.652-1.094c-1.497-1.142-3.609-1.855-5.958-1.855c-2.348,0-4.461,0.714-5.957,1.855
	c-0.677,0.518-1.807,0.983-2.652,1.094c-1.871,0.243-3.873,1.227-5.531,2.879c-1.66,1.651-2.648,3.64-2.895,5.501
	c-0.111,0.84-0.578,1.962-1.098,2.639c-1.148,1.486-1.866,3.588-1.866,5.925c0,2.336,0.718,4.437,1.866,5.923
	c0.52,0.677,0.987,1.799,1.098,2.639c0.247,1.861,1.234,3.853,2.895,5.502c1.659,1.652,3.661,2.635,5.531,2.878
	c0.845,0.111,1.975,0.576,2.652,1.094c1.496,1.143,3.609,1.854,5.957,1.854c2.349,0,4.461-0.712,5.958-1.854
	c0.677-0.518,1.807-0.982,2.652-1.094c1.87-0.243,3.872-1.226,5.531-2.878c1.66-1.649,2.648-3.641,2.895-5.502
	c0.111-0.84,0.578-1.962,1.098-2.639c1.148-1.486,1.866-3.587,1.866-5.923c0-2.337-0.718-4.438-1.866-5.925
	C-269.922,407.882-270.389,406.76-270.5,405.92z"/>
<sodipodi:namedview  showgrid="false" inkscape:cy="8.8255993" inkscape:cx="-91.947964" inkscape:zoom="3.959798" borderopacity="1.0" bordercolor="#666666" pagecolor="#ffffff" id="base" units="px" inkscape:window-maximized="0" inkscape:window-y="18" inkscape:window-x="0" inkscape:window-height="1422" inkscape:window-width="2560" inkscape:current-layer="layer1" inkscape:pageshadow="2" inkscape:document-units="mm" inkscape:pageopacity="0.0" fit-margin-left="0" fit-margin-top="0" fit-margin-bottom="0" fit-margin-right="0">
	</sodipodi:namedview>
<g id="layer1" transform="translate(-231.61419,-123.05063)" inkscape:label="Layer 1" inkscape:groupmode="layer">
	<g id="g2004" transform="matrix(0.2645804,0,0,-0.2645804,-126.59926,753.88997)">
		<g id="g6463" transform="translate(1372.4912,2384.2314)">
			<path id="path6465" inkscape:connector-curvature="0" d="M-1102.691-1495.025c-0.825,0.055-1.657,0.085-2.523,0.085
				c-0.871,0-1.703-0.03-2.525-0.085v-21.589h5.047V-1495.025z"/>
		</g>
	</g>
</g>
</svg>
