<?xml version="1.0" encoding="utf-8"?>
<!-- Generator: Adobe Illustrator 16.0.0, SVG Export Plug-In . SVG Version: 6.00 Build 0)  -->
<!DOCTYPE svg PUBLIC "-//W3C//DTD SVG 1.1//EN" "http://www.w3.org/Graphics/SVG/1.1/DTD/svg11.dtd">
<svg version="1.1"
	 id="svg8" xmlns:dc="http://purl.org/dc/elements/1.1/" xmlns:cc="http://creativecommons.org/ns#" xmlns:rdf="http://www.w3.org/1999/02/22-rdf-syntax-ns#" xmlns:svg="http://www.w3.org/2000/svg" xmlns:sodipodi="http://sodipodi.sourceforge.net/DTD/sodipodi-0.dtd" xmlns:inkscape="http://www.inkscape.org/namespaces/inkscape" sodipodi:docname="MyModule.svg" inkscape:version="0.92.2 5c3e80d, 2017-08-06"
	 xmlns="http://www.w3.org/2000/svg" xmlns:xlink="http://www.w3.org/1999/xlink" x="0px" y="0px" width="120px" height="380px"
	 viewBox="30 0 120 380" enable-background="new 30 0 120 380" xml:space="preserve">
<g id="layer1" transform="translate(0,-196.45832)" inkscape:label="Layer 1" inkscape:groupmode="layer">
	<path id="rect817" inkscape:connector-curvature="0" fill="#0F1105" d="M30.195,196.458H150v380H30.195V196.458z"/>
</g>
<g>
	<path fill="#F7F7ED" d="M52.4,341.24h1.76v4.232h3.992v1.479H52.4V341.24z"/>
	<path fill="#F7F7ED" d="M59.095,346.961v-5.711h1.76v5.711H59.095z"/>
	<path fill="#F7F7ED" d="M69.966,346.961h-2.881l-3.016-4.232c-0.031-0.064-0.063-0.133-0.096-0.207
		c-0.039-0.068-0.076-0.104-0.111-0.104c0,0.053,0.002,0.105,0.008,0.158c0.09,0.289,0.135,0.436,0.135,0.441v3.941h-1.76v-5.711
		h2.881l3.008,4.225c0.033,0.066,0.067,0.139,0.104,0.209c0.033,0.066,0.068,0.104,0.104,0.104c-0.005-0.053-0.008-0.107-0.008-0.16
		c-0.042-0.145-0.084-0.291-0.127-0.439v-3.936h1.76L69.966,346.961L69.966,346.961z"/>
	<path fill="#F7F7ED" d="M71.438,346.945v-5.713h4.929c1.002,0,1.663,0.201,1.983,0.602c0.299,0.373,0.447,1.127,0.447,2.264
		c0,1.131-0.146,1.879-0.439,2.248c-0.319,0.4-0.983,0.6-1.991,0.6H71.438L71.438,346.945z M73.199,345.465h2.872
		c0.378,0,0.634-0.096,0.769-0.287c0.134-0.193,0.199-0.553,0.199-1.08c0-0.529-0.065-0.891-0.199-1.088s-0.39-0.297-0.769-0.297
		h-2.872V345.465z"/>
	<path fill="#F7F7ED" d="M80.392,346.953v-5.721h6.16v1.385h-4.4v0.791h4.199v1.377h-4.199v0.783h4.4v1.385H80.392L80.392,346.953z"
		/>
	<path fill="#F7F7ED" d="M95.999,346.961h-2.881l-3.016-4.232c-0.031-0.064-0.062-0.133-0.096-0.207
		c-0.038-0.068-0.074-0.104-0.111-0.104c0,0.053,0.002,0.105,0.008,0.158c0.091,0.289,0.136,0.436,0.136,0.441v3.941h-1.761v-5.711
		h2.882l3.007,4.225c0.033,0.066,0.066,0.139,0.104,0.209c0.033,0.066,0.067,0.104,0.104,0.104c-0.005-0.053-0.008-0.107-0.008-0.16
		c-0.041-0.145-0.085-0.291-0.128-0.439v-3.936H96L95.999,346.961L95.999,346.961z"/>
	<path fill="#F7F7ED" d="M102.608,341.232c0.549,0,0.947,0.08,1.199,0.24c0.373,0.238,0.561,0.697,0.561,1.377
		c0,0.299-0.057,0.549-0.168,0.752c-0.111,0.199-0.25,0.34-0.416,0.416c0.527,0.232,0.791,0.686,0.791,1.352
		c0,0.576-0.137,0.984-0.408,1.225s-0.723,0.359-1.352,0.359h-5.32v-5.721H102.608z M99.255,343.385h3.121
		c0.139,0,0.248-0.031,0.328-0.096c0.074-0.059,0.111-0.154,0.111-0.287c0-0.139-0.037-0.238-0.111-0.297
		c-0.075-0.059-0.186-0.088-0.328-0.088h-3.121V343.385z M99.255,345.57h3.049c0.342,0,0.512-0.146,0.512-0.434
		c0-0.182-0.041-0.307-0.127-0.375c-0.09-0.064-0.219-0.098-0.385-0.098h-3.049V345.57z"/>
	<path fill="#F7F7ED" d="M105.665,346.953v-5.721h6.16v1.385h-4.4v0.791h4.199v1.377h-4.199v0.783h4.4v1.385H105.665
		L105.665,346.953z"/>
	<path fill="#F7F7ED" d="M113.321,341.232h5.119c0.629,0,1.074,0.115,1.336,0.344c0.283,0.252,0.424,0.691,0.424,1.32
		c0,0.484-0.059,0.848-0.176,1.088c-0.123,0.24-0.328,0.418-0.615,0.529c0.318,0.139,0.531,0.277,0.639,0.424
		c0.102,0.143,0.152,0.389,0.152,0.734v1.279h-1.76v-1.021c0-0.15-0.043-0.277-0.129-0.387c-0.101-0.127-0.25-0.189-0.447-0.189
		h-2.783v1.6h-1.76V341.232z M115.081,342.713v1.16h2.822c0.193,0,0.332-0.043,0.416-0.127c0.08-0.08,0.121-0.23,0.121-0.449
		s-0.043-0.371-0.129-0.455c-0.084-0.086-0.222-0.129-0.408-0.129H115.081L115.081,342.713z"/>
	<path fill="#F7F7ED" d="M129.521,343.305h-1.76c0-0.336-0.082-0.533-0.248-0.592c-0.164-0.053-0.736-0.08-1.713-0.08
		c-0.975,0-1.545,0.062-1.711,0.186c-0.165,0.123-0.248,0.551-0.248,1.287c0,0.73,0.083,1.154,0.248,1.271
		c0.16,0.123,0.732,0.184,1.719,0.184c0.982,0,1.553-0.023,1.713-0.07c0.16-0.049,0.24-0.225,0.24-0.529h-2.176v-1.277h3.936
		c0,1.24-0.045,2.027-0.137,2.357c-0.127,0.463-0.447,0.754-0.959,0.873c-0.379,0.084-1.25,0.127-2.617,0.127
		c-1.791,0-2.859-0.145-3.207-0.432c-0.346-0.283-0.52-1.119-0.52-2.512s0.168-2.227,0.504-2.504
		c0.357-0.295,1.432-0.441,3.223-0.441c1.719,0,2.756,0.1,3.113,0.297C129.321,341.668,129.521,342.287,129.521,343.305z"/>
	<path fill="#F7F7ED" d="M58.285,350.832h5.118c0.63,0,1.074,0.115,1.336,0.344c0.283,0.252,0.425,0.691,0.425,1.32
		c0,0.486-0.06,0.848-0.177,1.088c-0.122,0.24-0.327,0.418-0.614,0.529c0.319,0.139,0.532,0.279,0.64,0.424
		c0.102,0.145,0.151,0.389,0.151,0.736v1.277h-1.761v-1.021c0-0.15-0.043-0.277-0.129-0.385c-0.1-0.127-0.25-0.191-0.446-0.191
		h-2.783v1.6h-1.76V350.832L58.285,350.832z M60.044,352.312v1.16h2.822c0.193,0,0.332-0.043,0.416-0.129
		c0.08-0.078,0.121-0.229,0.121-0.447c0-0.221-0.043-0.371-0.129-0.455c-0.084-0.086-0.222-0.129-0.408-0.129H60.044L60.044,352.312
		z"/>
	<path fill="#F7F7ED" d="M66.869,356.553v-5.721h6.159v1.385h-4.399v0.791h4.199v1.377h-4.199v0.783h4.399v1.385H66.869
		L66.869,356.553z"/>
	<path fill="#F7F7ED" d="M77.938,355.264c0.85,0,1.34-0.016,1.474-0.041s0.2-0.131,0.2-0.312c0-0.219-0.094-0.355-0.28-0.416
		c-0.187-0.053-0.649-0.08-1.394-0.08c-1.465,0-2.391-0.104-2.774-0.316c-0.384-0.215-0.576-0.742-0.576-1.584
		c0-0.779,0.25-1.277,0.752-1.496c0.384-0.166,1.238-0.248,2.562-0.248c1.178,0,1.925,0.031,2.24,0.096
		c0.74,0.148,1.11,0.777,1.11,1.887h-1.76c0-0.303-0.066-0.479-0.199-0.533c-0.134-0.049-0.597-0.072-1.386-0.072
		c-0.793,0-1.252,0.014-1.375,0.041c-0.123,0.031-0.186,0.141-0.186,0.328c0,0.195,0.104,0.322,0.312,0.381s0.635,0.088,1.279,0.088
		c1.451,0,2.388,0.115,2.809,0.344c0.417,0.23,0.625,0.758,0.625,1.584c0,0.764-0.235,1.252-0.705,1.465
		c-0.405,0.184-1.316,0.271-2.736,0.271c-1.092,0-1.801-0.023-2.127-0.072c-0.501-0.074-0.842-0.25-1.023-0.527
		c-0.182-0.27-0.272-0.744-0.272-1.424h1.761c0,0.32,0.068,0.506,0.207,0.561C76.614,355.238,77.103,355.264,77.938,355.264z"/>
	<path fill="#F7F7ED" d="M82.796,356.553v-5.721h6.16v1.385h-4.4v0.791h4.199v1.377h-4.199v0.783h4.4v1.385H82.796L82.796,356.553z"
		/>
	<path fill="#F7F7ED" d="M92.835,350.84h3.023l2.832,5.713h-2.056l-0.545-0.951h-3.487l-0.543,0.951h-2.057L92.835,350.84z
		 M94.483,352.129h-0.271l-0.953,1.992h2.176L94.483,352.129z"/>
	<path fill="#F7F7ED" d="M99.644,350.832h5.119c0.629,0,1.074,0.115,1.336,0.344c0.283,0.252,0.424,0.691,0.424,1.32
		c0,0.486-0.059,0.848-0.176,1.088c-0.121,0.24-0.326,0.418-0.615,0.529c0.319,0.139,0.533,0.279,0.64,0.424
		c0.103,0.145,0.151,0.389,0.151,0.736v1.277h-1.76v-1.021c0-0.15-0.043-0.277-0.129-0.385c-0.1-0.127-0.249-0.191-0.447-0.191
		h-2.783v1.6h-1.76V350.832z M101.403,352.312v1.16h2.822c0.192,0,0.332-0.043,0.416-0.129c0.08-0.078,0.12-0.229,0.12-0.447
		c0-0.221-0.043-0.371-0.129-0.455c-0.084-0.086-0.221-0.129-0.407-0.129H101.403L101.403,352.312z"/>
	<path fill="#F7F7ED" d="M111.522,350.752c1.633,0,2.639,0.137,3.016,0.408c0.331,0.236,0.496,0.859,0.496,1.873h-1.768
		c0-0.33-0.089-0.541-0.265-0.633c-0.219-0.111-0.712-0.168-1.479-0.168c-0.857,0-1.361,0.066-1.513,0.201
		c-0.149,0.133-0.225,0.555-0.225,1.264c0,0.703,0.075,1.121,0.225,1.256c0.15,0.133,0.654,0.199,1.513,0.199
		c0.778,0,1.268-0.049,1.465-0.146c0.19-0.09,0.287-0.307,0.287-0.652h1.76c0,1.018-0.159,1.643-0.479,1.869
		c-0.38,0.273-1.391,0.408-3.033,0.408s-2.635-0.146-2.978-0.445c-0.347-0.301-0.521-1.133-0.521-2.496
		c0-1.361,0.166-2.186,0.496-2.475C108.881,350.906,109.881,350.752,111.522,350.752z"/>
	<path fill="#F7F7ED" d="M117.987,350.85v2h3.801v-2h1.76v5.711h-1.76v-2.23h-3.801v2.23h-1.76v-5.711H117.987z"/>
</g>
<g>
	<path fill="#F7F7ED" d="M69.866,29.462h0.216h0.213l5.779-12.145h5.309l-7.729,16.483h-7.148l-7.723-16.483h5.305L69.866,29.462z"
		/>
	<path fill="#F7F7ED" d="M92.362,17.064c4.37,0,7.058,0.393,8.068,1.178c0.886,0.68,1.327,2.481,1.327,5.404h-4.729
		c0-0.953-0.236-1.562-0.707-1.826c-0.585-0.322-1.904-0.484-3.961-0.484c-2.296,0-3.645,0.193-4.044,0.581
		c-0.401,0.384-0.601,1.6-0.601,3.646c0,2.028,0.199,3.236,0.601,3.624c0.399,0.384,1.748,0.574,4.044,0.574
		c2.083,0,3.391-0.139,3.919-0.418c0.513-0.258,0.769-0.889,0.769-1.887h4.709c0,2.938-0.428,4.738-1.28,5.398
		c-1.015,0.785-3.718,1.178-8.115,1.178c-4.394,0-7.047-0.43-7.963-1.29c-0.927-0.864-1.39-3.265-1.39-7.202
		c0-3.927,0.441-6.305,1.328-7.135C85.295,17.511,87.969,17.064,92.362,17.064z"/>
	<path fill="#F7F7ED" d="M104.866,33.802V17.295h16.351v4.271h-11.641v2.841h10.999v4.271h-10.999v5.123H104.866z"/>
</g>
<g>
	<path fill="#F7F7ED" d="M73.437,43.679h-2.36c0-0.645,0.024-1.135,0.075-1.471c0.065-0.414,0.218-0.735,0.454-0.967
		s0.577-0.387,1.021-0.469c0.617-0.113,1.713-0.17,3.287-0.17c1.492,0,2.42,0.018,2.783,0.053c0.602,0.055,1.039,0.191,1.312,0.41
		c0.272,0.219,0.443,0.516,0.51,0.891c0.059,0.336,0.088,0.729,0.088,1.178c0,0.599-0.043,1.039-0.129,1.324
		c-0.133,0.441-0.383,0.756-0.75,0.943c-0.41,0.207-1.051,0.336-1.922,0.387c-2.137,0.133-3.357,0.219-3.662,0.258
		c-0.34,0.035-0.557,0.148-0.65,0.34c-0.031,0.078-0.053,0.236-0.063,0.476h7.307v1.839h-9.545c-0.016-0.32-0.022-0.592-0.022-0.814
		c0-0.983,0.028-1.674,0.088-2.067c0.117-0.75,0.549-1.219,1.295-1.406c0.383-0.094,0.791-0.158,1.225-0.193l1.67-0.129
		c1.215-0.094,1.902-0.149,2.062-0.17c0.375-0.039,0.615-0.125,0.721-0.258c0.066-0.082,0.1-0.248,0.1-0.498
		c0-0.276-0.039-0.463-0.117-0.557c-0.098-0.121-0.313-0.195-0.649-0.224c-0.19-0.016-0.674-0.022-1.446-0.022
		c-1.082,0-1.812,0.027-2.191,0.082c-0.223,0.031-0.359,0.11-0.41,0.24C73.465,42.808,73.44,43.14,73.437,43.679z"/>
	<path fill="#F7F7ED" d="M91.935,45.414v1.799h-1.547v1.488h-2.314v-1.488h-6.393v-3.063l4.758-3.445h3.949v4.711L91.935,45.414
		L91.935,45.414z M88.073,45.414v-2.859h-0.491l-3.722,2.544v0.315H88.073z"/>
	<path fill="#F7F7ED" d="M100.326,40.703v7.998h-1.998v-0.744h-0.117c-0.148,0.258-0.312,0.439-0.492,0.545
		c-0.391,0.23-1.057,0.347-1.998,0.347c-0.918,0-1.615-0.07-2.092-0.212c-0.258-0.077-0.486-0.21-0.687-0.396
		s-0.338-0.399-0.416-0.642c-0.129-0.379-0.192-0.972-0.192-1.775c0-0.484,0.023-0.875,0.072-1.172s0.133-0.56,0.249-0.785
		c0.22-0.422,0.609-0.701,1.173-0.838c0.409-0.103,1.008-0.152,1.793-0.152c0.733,0,1.237,0.039,1.512,0.117
		c0.43,0.125,0.758,0.389,0.983,0.791h0.089v-3.082H100.326z M96.394,44.476c-0.763,0-1.267,0.062-1.513,0.188
		c-0.176,0.094-0.295,0.25-0.356,0.469c-0.047,0.16-0.069,0.398-0.069,0.715c0,0.419,0.041,0.722,0.123,0.908
		c0.102,0.234,0.366,0.381,0.797,0.439c0.25,0.035,0.557,0.053,0.92,0.053c0.78,0,1.305-0.082,1.569-0.246
		c0.147-0.09,0.248-0.246,0.3-0.469c0.034-0.152,0.053-0.373,0.053-0.662c0-0.465-0.053-0.787-0.158-0.967
		c-0.109-0.18-0.338-0.301-0.686-0.363C97.138,44.498,96.812,44.476,96.394,44.476z"/>
	<path fill="#F7F7ED" d="M101.369,48.701v-7.998h5.748c1.223,0.004,1.949,0.014,2.18,0.029c0.523,0.031,0.908,0.125,1.154,0.281
		c0.281,0.18,0.465,0.428,0.551,0.743c0.078,0.302,0.117,0.642,0.117,1.021c0,0.469-0.045,0.822-0.135,1.061
		c-0.148,0.388-0.463,0.65-0.943,0.791c0.355,0.062,0.619,0.152,0.791,0.271c0.392,0.262,0.586,0.812,0.586,1.651
		c0,0.652-0.102,1.136-0.305,1.447c-0.18,0.273-0.453,0.461-0.82,0.562c-0.312,0.082-0.836,0.125-1.569,0.129l-1.589,0.012H101.369z
		 M103.689,43.855h3.434c0.754,0,1.203-0.029,1.349-0.088c0.19-0.074,0.286-0.267,0.286-0.574c0-0.316-0.114-0.506-0.346-0.568
		c-0.09-0.022-0.52-0.037-1.289-0.041h-3.434V43.855L103.689,43.855z M103.689,46.779h3.445c0.641-0.004,1.018-0.008,1.131-0.012
		c0.355-0.017,0.582-0.086,0.68-0.211c0.074-0.103,0.111-0.259,0.111-0.47c0-0.336-0.121-0.532-0.363-0.592
		c-0.086-0.022-0.605-0.037-1.559-0.041h-3.445V46.779L103.689,46.779z"/>
</g>
</svg>
