<?xml version="1.0" encoding="utf-8"?>
<!-- Generator: Adobe Illustrator 16.0.0, SVG Export Plug-In . SVG Version: 6.00 Build 0)  -->
<!DOCTYPE svg PUBLIC "-//W3C//DTD SVG 1.1//EN" "http://www.w3.org/Graphics/SVG/1.1/DTD/svg11.dtd">
<svg version="1.1"
	 id="svg8" inkscape:version="0.92.2 5c3e80d, 2017-08-06" sodipodi:docname="MyModule.svg" xmlns:dc="http://purl.org/dc/elements/1.1/" xmlns:cc="http://creativecommons.org/ns#" xmlns:rdf="http://www.w3.org/1999/02/22-rdf-syntax-ns#" xmlns:svg="http://www.w3.org/2000/svg" xmlns:sodipodi="http://sodipodi.sourceforge.net/DTD/sodipodi-0.dtd" xmlns:inkscape="http://www.inkscape.org/namespaces/inkscape"
	 xmlns="http://www.w3.org/2000/svg" xmlns:xlink="http://www.w3.org/1999/xlink" x="0px" y="0px" width="120px" height="380px"
	 viewBox="-305.5 396.5 120 380" enable-background="new -305.5 396.5 120 380" xml:space="preserve">
<g id="layer1" transform="translate(0,-196.45832)" inkscape:groupmode="layer" inkscape:label="Layer 1">
	<path id="rect817" inkscape:connector-curvature="0" fill="#161616" d="M-305.5,592.958h119.805v380H-305.5V592.958z"/>
</g>
<g id="LOGO">
	<path fill="#FFFFFF" d="M-283.296,737.74h1.76v4.231h3.992v1.479h-5.752V737.74z"/>
	<path fill="#FFFFFF" d="M-276.601,743.461v-5.711h1.76v5.711H-276.601z"/>
	<path fill="#FFFFFF" d="M-265.73,743.461h-2.881l-3.016-4.232c-0.031-0.063-0.063-0.133-0.096-0.206
		c-0.039-0.068-0.076-0.104-0.111-0.104c0,0.053,0.002,0.105,0.008,0.158c0.09,0.289,0.135,0.436,0.135,0.44v3.941h-1.76v-5.711
		h2.881l3.008,4.225c0.033,0.066,0.067,0.14,0.104,0.209c0.033,0.066,0.068,0.104,0.104,0.104c-0.005-0.053-0.008-0.107-0.008-0.16
		c-0.042-0.145-0.084-0.291-0.127-0.439v-3.936h1.76L-265.73,743.461L-265.73,743.461z"/>
	<path fill="#FFFFFF" d="M-264.257,743.445v-5.713h4.929c1.002,0,1.663,0.2,1.983,0.602c0.299,0.373,0.447,1.127,0.447,2.264
		c0,1.131-0.146,1.879-0.439,2.248c-0.319,0.4-0.983,0.601-1.991,0.601L-264.257,743.445L-264.257,743.445z M-262.496,741.965h2.872
		c0.378,0,0.634-0.096,0.769-0.287c0.134-0.192,0.199-0.553,0.199-1.08c0-0.528-0.065-0.891-0.199-1.088
		c-0.134-0.197-0.39-0.297-0.769-0.297h-2.872V741.965z"/>
	<path fill="#FFFFFF" d="M-255.304,743.453v-5.721h6.16v1.385h-4.4v0.791h4.199v1.377h-4.199v0.783h4.4v1.385H-255.304
		L-255.304,743.453z"/>
	<path fill="#FFFFFF" d="M-239.697,743.461h-2.881l-3.016-4.232c-0.031-0.063-0.062-0.133-0.096-0.206
		c-0.038-0.068-0.074-0.104-0.111-0.104c0,0.053,0.002,0.105,0.008,0.158c0.091,0.289,0.136,0.436,0.136,0.44v3.941h-1.761v-5.711
		h2.882l3.007,4.225c0.033,0.066,0.066,0.14,0.104,0.209c0.033,0.066,0.067,0.104,0.104,0.104c-0.005-0.053-0.008-0.107-0.008-0.16
		c-0.041-0.145-0.085-0.291-0.128-0.439v-3.936h1.761L-239.697,743.461L-239.697,743.461z"/>
	<path fill="#FFFFFF" d="M-233.087,737.732c0.549,0,0.947,0.08,1.199,0.239c0.373,0.238,0.561,0.697,0.561,1.377
		c0,0.3-0.057,0.55-0.168,0.752c-0.111,0.199-0.25,0.341-0.416,0.416c0.527,0.232,0.791,0.687,0.791,1.353
		c0,0.576-0.137,0.984-0.408,1.225c-0.271,0.241-0.723,0.359-1.352,0.359h-5.32v-5.721H-233.087z M-236.441,739.885h3.121
		c0.139,0,0.248-0.031,0.328-0.096c0.074-0.059,0.111-0.154,0.111-0.287c0-0.139-0.037-0.238-0.111-0.297
		c-0.075-0.059-0.186-0.088-0.328-0.088h-3.121V739.885z M-236.441,742.07h3.049c0.342,0,0.512-0.146,0.512-0.435
		c0-0.182-0.041-0.307-0.127-0.375c-0.09-0.063-0.219-0.098-0.385-0.098h-3.049V742.07z"/>
	<path fill="#FFFFFF" d="M-230.031,743.453v-5.721h6.16v1.385h-4.4v0.791h4.199v1.377h-4.199v0.783h4.4v1.385H-230.031
		L-230.031,743.453z"/>
	<path fill="#FFFFFF" d="M-222.374,737.732h5.119c0.629,0,1.074,0.114,1.336,0.344c0.283,0.252,0.424,0.69,0.424,1.32
		c0,0.483-0.059,0.848-0.176,1.088c-0.123,0.239-0.328,0.418-0.615,0.528c0.318,0.14,0.531,0.277,0.639,0.425
		c0.102,0.143,0.152,0.389,0.152,0.733v1.279h-1.76v-1.021c0-0.149-0.043-0.276-0.129-0.387c-0.101-0.127-0.25-0.189-0.447-0.189
		h-2.783v1.601h-1.76V737.732z M-220.615,739.213v1.16h2.822c0.193,0,0.332-0.043,0.416-0.127c0.08-0.08,0.121-0.23,0.121-0.449
		s-0.043-0.371-0.129-0.455c-0.084-0.086-0.222-0.129-0.408-0.129H-220.615L-220.615,739.213z"/>
	<path fill="#FFFFFF" d="M-206.175,739.805h-1.76c0-0.336-0.082-0.533-0.248-0.592c-0.164-0.053-0.736-0.08-1.713-0.08
		c-0.975,0-1.545,0.062-1.711,0.187c-0.165,0.123-0.248,0.551-0.248,1.286c0,0.73,0.083,1.154,0.248,1.271
		c0.16,0.123,0.732,0.184,1.719,0.184c0.982,0,1.553-0.022,1.713-0.069c0.16-0.049,0.24-0.226,0.24-0.529h-2.176v-1.277h3.936
		c0,1.24-0.045,2.027-0.137,2.357c-0.127,0.463-0.447,0.754-0.959,0.873c-0.379,0.084-1.25,0.127-2.617,0.127
		c-1.791,0-2.859-0.146-3.207-0.432c-0.346-0.283-0.52-1.119-0.52-2.513c0-1.393,0.168-2.227,0.504-2.504
		c0.357-0.295,1.432-0.44,3.223-0.44c1.719,0,2.756,0.1,3.113,0.297C-206.374,738.168-206.175,738.787-206.175,739.805z"/>
	<path fill="#FFFFFF" d="M-277.41,747.332h5.118c0.63,0,1.074,0.115,1.336,0.344c0.283,0.252,0.425,0.691,0.425,1.32
		c0,0.486-0.06,0.848-0.177,1.088c-0.122,0.24-0.327,0.418-0.614,0.529c0.319,0.139,0.532,0.278,0.64,0.424
		c0.102,0.145,0.151,0.389,0.151,0.736v1.276h-1.761v-1.021c0-0.15-0.043-0.277-0.129-0.386c-0.1-0.127-0.25-0.19-0.446-0.19h-2.783
		v1.6h-1.76V747.332L-277.41,747.332z M-275.652,748.812v1.159h2.822c0.193,0,0.332-0.043,0.416-0.129
		c0.08-0.078,0.121-0.229,0.121-0.447c0-0.221-0.043-0.37-0.129-0.454c-0.084-0.087-0.222-0.13-0.408-0.13L-275.652,748.812
		L-275.652,748.812z"/>
	<path fill="#FFFFFF" d="M-268.827,753.053v-5.721h6.159v1.385h-4.399v0.791h4.199v1.377h-4.199v0.783h4.399v1.385H-268.827
		L-268.827,753.053z"/>
	<path fill="#FFFFFF" d="M-257.757,751.764c0.85,0,1.34-0.016,1.474-0.041c0.134-0.024,0.2-0.131,0.2-0.312
		c0-0.219-0.094-0.355-0.28-0.416c-0.187-0.053-0.649-0.08-1.394-0.08c-1.465,0-2.391-0.104-2.774-0.316
		c-0.384-0.215-0.576-0.741-0.576-1.584c0-0.778,0.25-1.276,0.752-1.496c0.384-0.166,1.238-0.247,2.562-0.247
		c1.178,0,1.925,0.03,2.24,0.096c0.74,0.147,1.11,0.776,1.11,1.887h-1.76c0-0.303-0.066-0.479-0.199-0.533
		c-0.134-0.049-0.597-0.071-1.386-0.071c-0.793,0-1.252,0.014-1.375,0.041c-0.123,0.03-0.186,0.141-0.186,0.327
		c0,0.195,0.104,0.322,0.312,0.382c0.208,0.059,0.635,0.088,1.279,0.088c1.451,0,2.388,0.114,2.809,0.344
		c0.417,0.229,0.625,0.758,0.625,1.584c0,0.764-0.235,1.252-0.705,1.465c-0.405,0.185-1.316,0.271-2.736,0.271
		c-1.092,0-1.801-0.023-2.127-0.072c-0.501-0.074-0.842-0.25-1.023-0.527c-0.182-0.27-0.272-0.744-0.272-1.424h1.761
		c0,0.32,0.068,0.506,0.207,0.562C-259.081,751.738-258.593,751.764-257.757,751.764z"/>
	<path fill="#FFFFFF" d="M-252.9,753.053v-5.721h6.16v1.385h-4.4v0.791h4.199v1.377h-4.199v0.783h4.4v1.385H-252.9L-252.9,753.053z"
		/>
	<path fill="#FFFFFF" d="M-242.861,747.34h3.023l2.832,5.713h-2.056l-0.545-0.951h-3.487l-0.543,0.951h-2.057L-242.861,747.34z
		 M-241.212,748.629h-0.271l-0.953,1.992h2.176L-241.212,748.629z"/>
	<path fill="#FFFFFF" d="M-236.052,747.332h5.119c0.629,0,1.074,0.115,1.336,0.344c0.283,0.252,0.424,0.691,0.424,1.32
		c0,0.486-0.059,0.848-0.176,1.088c-0.121,0.24-0.326,0.418-0.615,0.529c0.319,0.139,0.533,0.278,0.64,0.424
		c0.103,0.145,0.151,0.389,0.151,0.736v1.276h-1.76v-1.021c0-0.15-0.043-0.277-0.129-0.386c-0.1-0.127-0.249-0.19-0.447-0.19h-2.783
		v1.6h-1.76V747.332z M-234.292,748.812v1.159h2.822c0.192,0,0.332-0.043,0.416-0.129c0.08-0.078,0.12-0.229,0.12-0.447
		c0-0.221-0.043-0.37-0.129-0.454c-0.084-0.087-0.221-0.13-0.407-0.13L-234.292,748.812L-234.292,748.812z"/>
	<path fill="#FFFFFF" d="M-224.173,747.252c1.633,0,2.639,0.137,3.016,0.408c0.331,0.236,0.496,0.859,0.496,1.873h-1.768
		c0-0.33-0.089-0.541-0.265-0.633c-0.219-0.111-0.712-0.168-1.479-0.168c-0.857,0-1.361,0.065-1.513,0.2
		c-0.149,0.134-0.225,0.556-0.225,1.265c0,0.703,0.075,1.121,0.225,1.256c0.15,0.133,0.654,0.199,1.513,0.199
		c0.778,0,1.268-0.05,1.465-0.146c0.19-0.09,0.287-0.307,0.287-0.652h1.76c0,1.019-0.159,1.644-0.479,1.869
		c-0.38,0.273-1.391,0.408-3.033,0.408c-1.642,0-2.635-0.146-2.978-0.445c-0.347-0.301-0.521-1.133-0.521-2.495
		c0-1.361,0.166-2.187,0.496-2.476C-226.815,747.406-225.815,747.252-224.173,747.252z"/>
	<path fill="#FFFFFF" d="M-217.708,747.35v2h3.801v-2h1.76v5.711h-1.76v-2.229h-3.801v2.229h-1.76v-5.711H-217.708z"/>
</g>
<g id="_x32_4dB">
	<path fill="#F7F7ED" d="M-262.259,444.18h-2.36c0-0.645,0.024-1.135,0.075-1.471c0.065-0.414,0.218-0.736,0.454-0.967
		c0.236-0.232,0.577-0.387,1.021-0.469c0.617-0.113,1.713-0.171,3.287-0.171c1.492,0,2.42,0.019,2.783,0.054
		c0.602,0.055,1.039,0.19,1.312,0.41c0.272,0.219,0.443,0.516,0.51,0.891c0.059,0.336,0.088,0.729,0.088,1.178
		c0,0.599-0.043,1.039-0.129,1.324c-0.133,0.441-0.383,0.756-0.75,0.943c-0.41,0.207-1.051,0.336-1.922,0.387
		c-2.137,0.133-3.357,0.219-3.662,0.258c-0.34,0.035-0.557,0.148-0.65,0.34c-0.031,0.078-0.053,0.236-0.063,0.476h7.307v1.84h-9.545
		c-0.016-0.32-0.022-0.592-0.022-0.814c0-0.983,0.028-1.674,0.088-2.067c0.117-0.75,0.549-1.22,1.295-1.406
		c0.383-0.094,0.791-0.158,1.225-0.193l1.67-0.129c1.215-0.094,1.902-0.147,2.062-0.17c0.375-0.039,0.615-0.125,0.721-0.258
		c0.066-0.082,0.1-0.248,0.1-0.498c0-0.275-0.039-0.463-0.117-0.557c-0.098-0.121-0.313-0.195-0.649-0.224
		c-0.19-0.016-0.674-0.022-1.446-0.022c-1.082,0-1.812,0.026-2.191,0.082c-0.223,0.03-0.359,0.11-0.41,0.239
		C-262.231,443.309-262.255,443.641-262.259,444.18z"/>
	<path fill="#F7F7ED" d="M-243.761,445.914v1.799h-1.547v1.488h-2.314v-1.488h-6.393v-3.063l4.758-3.445h3.949v4.711
		L-243.761,445.914L-243.761,445.914z M-247.622,445.914v-2.859h-0.491l-3.722,2.543v0.316H-247.622z"/>
	<path fill="#F7F7ED" d="M-235.369,441.203v7.998h-1.998v-0.744h-0.117c-0.148,0.258-0.312,0.439-0.492,0.545
		c-0.391,0.23-1.057,0.346-1.998,0.346c-0.918,0-1.615-0.069-2.092-0.211c-0.258-0.078-0.486-0.211-0.687-0.396
		c-0.201-0.186-0.338-0.398-0.416-0.642c-0.129-0.379-0.192-0.973-0.192-1.774c0-0.484,0.023-0.875,0.072-1.172
		c0.049-0.297,0.133-0.562,0.249-0.785c0.22-0.422,0.609-0.701,1.173-0.838c0.409-0.104,1.008-0.152,1.793-0.152
		c0.733,0,1.237,0.039,1.512,0.117c0.43,0.125,0.758,0.389,0.983,0.791h0.089v-3.082L-235.369,441.203L-235.369,441.203z
		 M-239.302,444.977c-0.763,0-1.267,0.062-1.513,0.188c-0.176,0.094-0.295,0.25-0.356,0.469c-0.047,0.16-0.069,0.398-0.069,0.715
		c0,0.418,0.041,0.722,0.123,0.908c0.102,0.234,0.366,0.381,0.797,0.439c0.25,0.034,0.557,0.053,0.92,0.053
		c0.78,0,1.305-0.082,1.569-0.246c0.147-0.09,0.248-0.246,0.3-0.469c0.034-0.152,0.053-0.373,0.053-0.662
		c0-0.465-0.053-0.787-0.158-0.967c-0.109-0.181-0.338-0.302-0.686-0.363C-238.558,444.998-238.884,444.977-239.302,444.977z"/>
	<path fill="#F7F7ED" d="M-234.327,449.201v-7.998h5.748c1.223,0.004,1.949,0.014,2.18,0.029c0.523,0.03,0.908,0.125,1.154,0.28
		c0.281,0.181,0.465,0.429,0.551,0.742c0.078,0.303,0.117,0.644,0.117,1.021c0,0.469-0.045,0.821-0.135,1.061
		c-0.148,0.387-0.463,0.65-0.943,0.791c0.355,0.062,0.619,0.152,0.791,0.271c0.392,0.262,0.586,0.812,0.586,1.651
		c0,0.652-0.102,1.135-0.305,1.447c-0.18,0.272-0.453,0.461-0.82,0.562c-0.312,0.082-0.836,0.125-1.569,0.129l-1.589,0.013
		L-234.327,449.201L-234.327,449.201z M-232.006,444.355h3.434c0.754,0,1.203-0.029,1.349-0.089c0.19-0.073,0.286-0.268,0.286-0.573
		c0-0.316-0.114-0.507-0.346-0.568c-0.09-0.023-0.52-0.037-1.289-0.041h-3.434V444.355L-232.006,444.355z M-232.006,447.279h3.445
		c0.641-0.004,1.018-0.008,1.131-0.013c0.355-0.018,0.582-0.086,0.68-0.211c0.074-0.104,0.111-0.26,0.111-0.471
		c0-0.336-0.121-0.531-0.363-0.592c-0.086-0.021-0.605-0.037-1.559-0.041h-3.445V447.279L-232.006,447.279z"/>
</g>
<g id="VCF">
	<path fill="#F9F9F7" d="M-269.423,430.633h0.25h0.25l6.75-13.151h6.201l-9.027,17.853h-8.35l-9.021-17.853h6.195L-269.423,430.633z
		"/>
	<path fill="#F9F9F7" d="M-243.147,417.205c5.103,0,8.243,0.426,9.424,1.276c1.033,0.735,1.55,2.688,1.55,5.853h-5.523
		c0-1.033-0.274-1.692-0.824-1.977c-0.684-0.352-2.226-0.525-4.626-0.525c-2.682,0-4.257,0.209-4.725,0.629
		c-0.468,0.415-0.702,1.73-0.702,3.949c0,2.197,0.234,3.505,0.702,3.924c0.468,0.415,2.043,0.623,4.725,0.623
		c2.433,0,3.959-0.15,4.577-0.452c0.599-0.28,0.897-0.962,0.897-2.044h5.499c0,3.182-0.498,5.131-1.495,5.847
		c-1.185,0.852-4.344,1.275-9.479,1.275c-5.131,0-8.232-0.466-9.302-1.397c-1.083-0.936-1.624-3.535-1.624-7.801
		c0-4.252,0.517-6.827,1.551-7.727C-251.403,417.689-248.278,417.205-243.147,417.205z"/>
	<path fill="#F9F9F7" d="M-228.54,435.333v-17.877h19.098v4.626h-13.599v3.076h12.848v4.627h-12.848v5.548H-228.54z"/>
</g>
<radialGradient id="knob_1_" cx="-283" cy="526.5" r="7.5" gradientUnits="userSpaceOnUse">
	<stop  offset="0" style="stop-color:#FFFFFF"/>
	<stop  offset="1" style="stop-color:#000000"/>
</radialGradient>
<circle id="knob" fill="url(#knob_1_)" cx="-283" cy="526.5" r="7.5"/>
</svg>
