<?xml version="1.0" encoding="utf-8"?>
<!-- Generator: Adobe Illustrator 16.0.0, SVG Export Plug-In . SVG Version: 6.00 Build 0)  -->
<!DOCTYPE svg PUBLIC "-//W3C//DTD SVG 1.1//EN" "http://www.w3.org/Graphics/SVG/1.1/DTD/svg11.dtd">
<svg version="1.1"
	 xmlns:dc="http://purl.org/dc/elements/1.1/" xmlns:sodipodi="http://sodipodi.sourceforge.net/DTD/sodipodi-0.dtd" xmlns:svg="http://www.w3.org/2000/svg" xmlns:inkscape="http://www.inkscape.org/namespaces/inkscape" xmlns:cc="http://creativecommons.org/ns#" xmlns:rdf="http://www.w3.org/1999/02/22-rdf-syntax-ns#" id="svg8" sodipodi:docname="MyModule.svg" inkscape:version="0.92.2 5c3e80d, 2017-08-06"
	 xmlns="http://www.w3.org/2000/svg" xmlns:xlink="http://www.w3.org/1999/xlink" x="0px" y="0px" width="150px" height="380px"
	 viewBox="0 0 150 380" enable-background="new 0 0 150 380" xml:space="preserve">
<g id="layer1" transform="translate(0,-196.45832)" inkscape:groupmode="layer" inkscape:label="Layer 1">
	<path id="rect817" inkscape:connector-curvature="0" fill="#1C1C1C" d="M0,196.458h150v380H0V196.458z"/>
</g>
<g>
	<path fill="#969696" d="M61.376,37.234h-1.771c0-0.484,0.019-0.854,0.057-1.104c0.05-0.312,0.163-0.552,0.34-0.726
		c0.177-0.172,0.433-0.291,0.767-0.354c0.463-0.085,1.285-0.128,2.465-0.128c1.119,0,1.815,0.018,2.087,0.04
		c0.451,0.041,0.779,0.146,0.984,0.312c0.205,0.166,0.333,0.388,0.382,0.668c0.044,0.254,0.066,0.547,0.066,0.885
		c0,0.447-0.032,0.777-0.097,0.992c-0.1,0.332-0.287,0.562-0.562,0.707c-0.308,0.151-0.788,0.254-1.441,0.291
		c-1.603,0.101-2.518,0.162-2.747,0.188c-0.255,0.024-0.417,0.111-0.488,0.254c-0.023,0.062-0.04,0.183-0.048,0.356h5.48v1.38
		h-7.159c-0.012-0.24-0.018-0.443-0.018-0.611c0-0.733,0.022-1.255,0.066-1.551c0.088-0.562,0.412-0.914,0.971-1.056
		c0.287-0.069,0.593-0.118,0.918-0.146l1.252-0.098c0.911-0.07,1.427-0.112,1.547-0.127c0.281-0.029,0.461-0.095,0.541-0.193
		c0.05-0.062,0.075-0.187,0.075-0.373c0-0.208-0.029-0.348-0.088-0.418c-0.073-0.091-0.236-0.146-0.488-0.167
		c-0.144-0.012-0.505-0.02-1.085-0.02c-0.812,0-1.359,0.021-1.644,0.062c-0.167,0.023-0.27,0.084-0.308,0.184
		C61.398,36.581,61.379,36.83,61.376,37.234z"/>
	<path fill="#969696" d="M75.25,38.535v1.349h-1.16V41h-1.736v-1.116H67.56v-2.298l3.568-2.584h2.962v3.533H75.25L75.25,38.535z
		 M72.354,38.535v-2.146h-0.369l-2.791,1.906v0.238L72.354,38.535L72.354,38.535z"/>
	<path fill="#969696" d="M81.543,35.002V41h-1.499v-0.559h-0.088c-0.11,0.188-0.233,0.33-0.369,0.404
		c-0.293,0.178-0.792,0.264-1.499,0.264c-0.688,0-1.211-0.059-1.568-0.158c-0.193-0.062-0.365-0.157-0.515-0.297
		c-0.149-0.145-0.253-0.299-0.312-0.48c-0.098-0.283-0.146-0.729-0.146-1.332c0-0.357,0.019-0.65,0.056-0.879
		c0.035-0.222,0.099-0.418,0.187-0.588c0.164-0.316,0.457-0.525,0.879-0.629c0.308-0.076,0.756-0.114,1.345-0.114
		c0.551,0,0.93,0.029,1.135,0.089c0.322,0.098,0.567,0.291,0.737,0.596h0.066v-2.312L81.543,35.002L81.543,35.002z M78.594,37.832
		c-0.57,0-0.949,0.047-1.134,0.141c-0.132,0.07-0.221,0.188-0.269,0.354c-0.034,0.12-0.053,0.299-0.053,0.534
		c0,0.312,0.031,0.541,0.092,0.683c0.076,0.177,0.275,0.285,0.599,0.33c0.188,0.022,0.417,0.039,0.69,0.039
		c0.586,0,0.979-0.062,1.178-0.188c0.111-0.062,0.186-0.185,0.224-0.352c0.026-0.114,0.04-0.279,0.04-0.497
		c0-0.349-0.04-0.59-0.119-0.726c-0.082-0.139-0.253-0.229-0.514-0.271C79.152,37.848,78.908,37.832,78.594,37.832z"/>
	<path fill="#969696" d="M82.325,41v-5.998h4.311c0.917,0.003,1.462,0.01,1.636,0.021c0.393,0.021,0.681,0.094,0.865,0.211
		c0.211,0.135,0.35,0.314,0.413,0.559c0.06,0.227,0.089,0.48,0.089,0.764c0,0.354-0.035,0.617-0.102,0.797
		c-0.111,0.289-0.348,0.486-0.708,0.598c0.267,0.048,0.464,0.109,0.593,0.201c0.293,0.193,0.439,0.605,0.439,1.234
		c0,0.49-0.076,0.854-0.229,1.086c-0.135,0.205-0.34,0.352-0.614,0.422c-0.234,0.062-0.627,0.1-1.179,0.103l-1.19,0.009L82.325,41
		L82.325,41z M84.064,37.365h2.576c0.564,0,0.901-0.021,1.01-0.065c0.145-0.056,0.216-0.198,0.216-0.431
		c0-0.237-0.087-0.379-0.259-0.426c-0.067-0.021-0.391-0.028-0.967-0.031h-2.576V37.365z M84.064,39.559h2.584
		c0.48-0.002,0.764-0.006,0.849-0.009c0.267-0.012,0.437-0.062,0.51-0.157c0.056-0.072,0.083-0.188,0.083-0.353
		c0-0.252-0.091-0.399-0.271-0.444c-0.064-0.018-0.454-0.021-1.17-0.025h-2.584V39.559L84.064,39.559z"/>
</g>
<line fill="none" stroke="#EFEFEF" stroke-width="2" stroke-miterlimit="10" x1="111" y1="74" x2="111" y2="136"/>
<line fill="none" stroke="#EFEFEF" stroke-width="2" stroke-miterlimit="10" x1="39" y1="74" x2="39" y2="136"/>
<polyline fill="none" stroke="#EFEFEF" stroke-width="2" stroke-miterlimit="10" points="75,200 39,200 39,197 39,136 "/>
<polyline fill="none" stroke="#EFEFEF" stroke-width="2" stroke-miterlimit="10" points="75,275 111,275 111,271.333 111,136 "/>
<g>
	<path fill="#F4F4F4" d="M47.828,228.584h4.932v1.098h-3.51v0.887h3.339v1.068H49.25v1.613h-1.422V228.584z"/>
	<path fill="#F4F4F4" d="M53.085,233.25v-4.666h3.435c0.811,0.003,1.29,0.011,1.436,0.024c0.167,0.016,0.317,0.062,0.453,0.146
		c0.136,0.081,0.241,0.184,0.316,0.309c0.078,0.14,0.124,0.275,0.14,0.426c0.021,0.171,0.031,0.377,0.031,0.613
		c0,0.386-0.026,0.646-0.079,0.802c-0.08,0.224-0.23,0.378-0.451,0.465c-0.075,0.024-0.188,0.056-0.338,0.078
		c0.298,0.021,0.513,0.104,0.643,0.257c0.057,0.062,0.098,0.142,0.121,0.228c0.024,0.085,0.041,0.21,0.05,0.374
		c0.002,0.084,0.003,0.262,0.003,0.521v0.434h-1.401v-0.25c0-0.272-0.013-0.477-0.038-0.598c-0.037-0.173-0.129-0.275-0.277-0.312
		c-0.098-0.021-0.304-0.025-0.619-0.025h-2.003v1.186h-1.422V233.25L53.085,233.25z M54.507,230.898h2
		c0.298-0.01,0.475-0.014,0.53-0.019c0.201-0.012,0.327-0.073,0.379-0.185c0.037-0.077,0.055-0.208,0.055-0.396
		c0-0.158-0.016-0.272-0.048-0.354c-0.048-0.113-0.163-0.18-0.345-0.191c-0.064-0.004-0.255-0.008-0.574-0.01h-1.996L54.507,230.898
		L54.507,230.898z"/>
	<path fill="#F4F4F4" d="M59.384,228.584h5.168v1.098h-3.767v0.679h3.575v1.021h-3.575v0.748h3.794v1.121h-5.195V228.584z"/>
	<path fill="#F4F4F4" d="M71.901,232.307l-0.537,0.991l-0.458-0.325c-0.182,0.146-0.414,0.231-0.694,0.271
		c-0.365,0.05-1.073,0.075-2.126,0.075c-0.978,0-1.654-0.025-2.03-0.075c-0.544-0.073-0.878-0.331-1.001-0.776
		c-0.084-0.305-0.126-0.817-0.126-1.551c0-0.728,0.042-1.243,0.126-1.549c0.123-0.444,0.457-0.703,1.001-0.775
		c0.378-0.051,1.071-0.076,2.078-0.076c1.007,0,1.7,0.025,2.078,0.076c0.544,0.072,0.878,0.331,1.001,0.775
		c0.059,0.212,0.095,0.449,0.106,0.711c0.014,0.269,0.021,0.559,0.021,0.868c0,0.458-0.014,0.808-0.041,1.05L71.901,232.307z
		 M68.466,230.279l1.449,0.916c0.002-0.063,0.003-0.121,0.003-0.176c0-0.312-0.009-0.539-0.027-0.683
		c-0.032-0.237-0.105-0.395-0.219-0.473c-0.103-0.072-0.318-0.117-0.646-0.133c-0.116-0.009-0.414-0.012-0.892-0.012
		c-0.75,0-1.201,0.021-1.354,0.062c-0.185,0.049-0.303,0.156-0.355,0.325c-0.05,0.169-0.075,0.479-0.075,0.938
		c0,0.273,0.016,0.479,0.048,0.604c0.055,0.232,0.226,0.37,0.513,0.402c0.209,0.027,0.643,0.041,1.299,0.041
		c0.579,0,0.977-0.016,1.193-0.045l-1.504-0.797L68.466,230.279z"/>
	<path fill="#F4F4F4" d="M71.966,228.584h1.422v2.145c0.007,0.491,0.024,0.808,0.051,0.937c0.045,0.222,0.201,0.352,0.465,0.391
		c0.242,0.036,0.607,0.06,1.097,0.06c0.506,0,0.86-0.021,1.065-0.047c0.299-0.047,0.466-0.22,0.5-0.516
		c0.026-0.237,0.041-0.513,0.041-0.816v-2.146h1.422v2.146c-0.016,0.745-0.04,1.232-0.072,1.467
		c-0.057,0.388-0.244,0.674-0.561,0.854c-0.235,0.139-0.629,0.219-1.184,0.246c-0.255,0.016-0.654,0.021-1.196,0.021
		c-0.8,0-1.368-0.022-1.706-0.068c-0.255-0.034-0.458-0.081-0.608-0.143c-0.15-0.062-0.278-0.146-0.383-0.262
		c-0.144-0.148-0.236-0.345-0.277-0.57c-0.045-0.267-0.069-0.578-0.072-0.949l-0.007-0.602v-2.146H71.966L71.966,228.584z"/>
	<path fill="#F4F4F4" d="M78.662,228.584h5.168v1.098h-3.768v0.679h3.576v1.021h-3.576v0.748h3.795v1.121h-5.195V228.584z"/>
	<path fill="#F4F4F4" d="M84.301,228.584h2.492l2.443,3.48h0.147l-0.034-3.48h1.446v4.666h-2.471l-2.454-3.482h-0.154l0.031,3.482
		h-1.446L84.301,228.584L84.301,228.584z"/>
	<path fill="#F4F4F4" d="M95.885,231.449h1.422c0.01,0.228,0.014,0.384,0.014,0.468c0,0.34-0.053,0.612-0.16,0.817
		c-0.112,0.214-0.325,0.358-0.639,0.442c-0.345,0.099-0.939,0.146-1.785,0.146c-0.932,0-1.56-0.021-1.883-0.045
		c-0.301-0.025-0.537-0.064-0.711-0.119c-0.172-0.057-0.316-0.135-0.431-0.24c-0.153-0.141-0.25-0.328-0.291-0.561
		c-0.045-0.243-0.067-0.715-0.067-1.408c0-0.667,0.017-1.117,0.051-1.354c0.05-0.349,0.186-0.602,0.406-0.759
		c0.168-0.118,0.438-0.203,0.808-0.253c0.383-0.05,1.069-0.075,2.062-0.075c0.59,0,1.01,0.018,1.26,0.038
		c0.379,0.036,0.654,0.109,0.828,0.222c0.213,0.136,0.35,0.326,0.406,0.584c0.041,0.185,0.062,0.395,0.062,0.635
		c0,0.041-0.002,0.131-0.004,0.27h-1.422c-0.004-0.112-0.009-0.188-0.014-0.229c-0.018-0.144-0.081-0.229-0.188-0.269
		c-0.162-0.055-0.604-0.082-1.326-0.082c-0.492,0-0.832,0.019-1.02,0.041c-0.228,0.032-0.369,0.156-0.424,0.373
		c-0.043,0.179-0.064,0.458-0.064,0.853c0,0.396,0.021,0.678,0.064,0.829c0.055,0.195,0.205,0.312,0.451,0.347
		c0.201,0.023,0.553,0.037,1.057,0.037c0.543,0,0.916-0.014,1.113-0.033c0.188-0.021,0.305-0.088,0.355-0.202
		C95.857,231.821,95.88,231.665,95.885,231.449z"/>
	<path fill="#F4F4F4" d="M97.344,228.584h1.87l1.521,1.87l1.457-1.87h1.853l-2.553,3.016v1.65h-1.47v-1.65L97.344,228.584z"/>
</g>
<g>
	<path fill="#F4F4F4" d="M45.828,308.75v-4.666h3.435c0.811,0.003,1.29,0.011,1.436,0.024c0.167,0.016,0.317,0.062,0.453,0.146
		c0.136,0.081,0.241,0.184,0.316,0.309c0.078,0.14,0.124,0.275,0.14,0.426c0.021,0.171,0.031,0.377,0.031,0.613
		c0,0.386-0.026,0.646-0.079,0.802c-0.08,0.224-0.23,0.378-0.451,0.465c-0.075,0.024-0.188,0.056-0.338,0.078
		c0.298,0.021,0.513,0.104,0.643,0.257c0.057,0.062,0.098,0.142,0.121,0.228c0.024,0.085,0.041,0.21,0.05,0.374
		c0.002,0.084,0.003,0.262,0.003,0.521v0.434h-1.401v-0.26c0-0.277-0.013-0.477-0.038-0.598c-0.037-0.178-0.129-0.275-0.277-0.312
		c-0.098-0.021-0.304-0.025-0.619-0.025H47.25v1.186H45.828L45.828,308.75z M47.25,306.398h2c0.298-0.01,0.475-0.014,0.53-0.019
		c0.201-0.012,0.327-0.073,0.379-0.185c0.037-0.077,0.055-0.208,0.055-0.396c0-0.158-0.016-0.272-0.048-0.354
		c-0.048-0.113-0.163-0.18-0.345-0.191c-0.064-0.004-0.255-0.008-0.574-0.01h-1.996L47.25,306.398L47.25,306.398z"/>
	<path fill="#F4F4F4" d="M52.127,304.084h5.168v1.098h-3.767v0.679h3.575v1.021h-3.575v0.748h3.794v1.121h-5.195V304.084z"/>
	<path fill="#F4F4F4" d="M57.603,307.205h1.377c-0.002,0.229,0.044,0.378,0.14,0.444c0.05,0.027,0.107,0.054,0.171,0.062
		s0.175,0.021,0.335,0.023c0.08,0.002,0.341,0.005,0.783,0.007c0.606-0.002,0.957-0.006,1.053-0.011
		c0.18-0.019,0.298-0.037,0.355-0.071c0.08-0.05,0.12-0.162,0.12-0.335c0-0.118-0.025-0.201-0.075-0.25
		c-0.068-0.065-0.231-0.104-0.489-0.105c-0.178,0-0.549-0.014-1.114-0.041c-0.583-0.022-0.961-0.043-1.135-0.048
		c-0.451-0.014-0.769-0.062-0.954-0.155c-0.237-0.113-0.392-0.312-0.465-0.597c-0.041-0.153-0.062-0.354-0.062-0.604
		c0-0.528,0.1-0.901,0.301-1.117c0.15-0.164,0.378-0.272,0.684-0.325c0.276-0.046,0.932-0.068,1.969-0.068
		c0.674,0,1.151,0.021,1.429,0.062c0.367,0.053,0.631,0.145,0.793,0.271c0.219,0.186,0.328,0.503,0.328,0.973
		c0,0.05-0.001,0.13-0.003,0.234h-1.377c-0.004-0.106-0.013-0.188-0.024-0.229c-0.032-0.128-0.137-0.199-0.314-0.216
		c-0.157-0.018-0.54-0.021-1.148-0.021c-0.602,0-0.958,0.021-1.07,0.052c-0.125,0.041-0.188,0.147-0.188,0.317
		c0,0.164,0.066,0.265,0.198,0.301c0.112,0.03,0.614,0.062,1.507,0.086c0.809,0.022,1.325,0.052,1.548,0.086
		c0.226,0.033,0.405,0.085,0.539,0.153c0.133,0.068,0.24,0.165,0.319,0.29c0.121,0.186,0.181,0.479,0.181,0.893
		c0,0.458-0.059,0.794-0.178,1.013c-0.119,0.213-0.312,0.354-0.581,0.435c-0.264,0.077-0.992,0.116-2.184,0.116
		c-0.725,0-1.248-0.021-1.569-0.062c-0.392-0.045-0.673-0.134-0.844-0.266c-0.185-0.143-0.294-0.341-0.328-0.599
		c-0.018-0.125-0.027-0.273-0.027-0.444L57.603,307.205L57.603,307.205z"/>
	<path fill="#F4F4F4" d="M66.958,304.016c0.98,0,1.659,0.025,2.037,0.076c0.544,0.072,0.878,0.331,1.001,0.775
		c0.084,0.306,0.126,0.822,0.126,1.552c0,0.73-0.042,1.243-0.126,1.548c-0.123,0.445-0.457,0.703-1.001,0.776
		c-0.376,0.05-1.069,0.075-2.078,0.075c-1.007,0-1.7-0.025-2.078-0.075c-0.544-0.073-0.878-0.331-1.001-0.776
		c-0.084-0.305-0.126-0.82-0.126-1.548c0-0.731,0.042-1.249,0.126-1.552c0.123-0.444,0.457-0.703,1.001-0.775
		C65.219,304.041,65.926,304.016,66.958,304.016z M66.862,305.229c-0.713,0-1.146,0.021-1.299,0.062
		c-0.185,0.049-0.303,0.156-0.355,0.325c-0.05,0.166-0.075,0.473-0.075,0.919c0,0.29,0.015,0.498,0.044,0.626
		c0.057,0.234,0.229,0.372,0.516,0.407c0.212,0.022,0.62,0.041,1.224,0.041s1.012-0.019,1.224-0.041
		c0.287-0.035,0.458-0.173,0.513-0.407c0.032-0.13,0.048-0.331,0.048-0.604c0-0.336-0.009-0.568-0.027-0.715
		c-0.032-0.23-0.105-0.391-0.219-0.469c-0.103-0.072-0.318-0.117-0.646-0.133C67.69,305.231,67.375,305.229,66.862,305.229z"/>
	<path fill="#F4F4F4" d="M70.684,304.084h2.492l2.444,3.48h0.147l-0.035-3.48h1.447v4.666h-2.472l-2.454-3.482H72.1l0.031,3.482
		h-1.446L70.684,304.084L70.684,304.084z"/>
	<path fill="#F4F4F4" d="M83.012,308.75l-0.4-0.789h-3.086l-0.399,0.789h-1.624l2.475-4.666h2.209l2.439,4.666H83.012z
		 M82.113,306.938l-0.899-1.767H80.93l-0.898,1.767H82.113z"/>
	<path fill="#F4F4F4" d="M84.837,304.084h2.492l2.444,3.48h0.146l-0.034-3.48h1.446v4.666h-2.471l-2.454-3.482h-0.154l0.031,3.482
		h-1.446L84.837,304.084L84.837,304.084z"/>
	<path fill="#F4F4F4" d="M96.421,306.949h1.422c0.009,0.228,0.015,0.384,0.015,0.468c0,0.34-0.055,0.612-0.162,0.817
		c-0.111,0.214-0.324,0.358-0.639,0.442c-0.344,0.099-0.938,0.146-1.783,0.146c-0.933,0-1.561-0.021-1.883-0.045
		c-0.302-0.025-0.539-0.064-0.711-0.119c-0.174-0.057-0.318-0.135-0.432-0.24c-0.152-0.141-0.25-0.328-0.291-0.561
		c-0.045-0.243-0.068-0.715-0.068-1.408c0-0.667,0.018-1.117,0.051-1.354c0.051-0.349,0.187-0.602,0.408-0.759
		c0.168-0.118,0.438-0.203,0.807-0.253c0.383-0.05,1.07-0.075,2.061-0.075c0.59,0,1.012,0.018,1.262,0.038
		c0.377,0.036,0.653,0.109,0.826,0.222c0.215,0.136,0.35,0.326,0.407,0.584c0.041,0.185,0.062,0.395,0.062,0.635
		c0,0.041,0,0.131-0.002,0.27h-1.422c-0.005-0.112-0.01-0.188-0.015-0.229c-0.019-0.144-0.081-0.229-0.188-0.269
		c-0.162-0.055-0.604-0.082-1.326-0.082c-0.491,0-0.832,0.019-1.019,0.041c-0.228,0.032-0.368,0.156-0.424,0.373
		c-0.043,0.179-0.065,0.458-0.065,0.853c0,0.396,0.021,0.678,0.065,0.829c0.056,0.195,0.205,0.312,0.451,0.347
		c0.2,0.023,0.553,0.037,1.056,0.037c0.544,0,0.916-0.014,1.114-0.033c0.187-0.021,0.305-0.088,0.354-0.202
		C96.395,307.321,96.417,307.165,96.421,306.949z"/>
	<path fill="#F4F4F4" d="M98.35,304.084h5.168v1.098H99.75v0.679h3.575v1.021H99.75v0.748h3.794v1.121H98.35V304.084z"/>
</g>
<g>
	<path fill="#F4F4F4" d="M33.828,351.834h1.494v4.666h-1.494V351.834z"/>
	<path fill="#F4F4F4" d="M35.975,351.834h2.492l2.444,3.48h0.147l-0.034-3.48h1.446v4.666h-2.471l-2.454-3.482h-0.154l0.031,3.482
		h-1.446L35.975,351.834L35.975,351.834z"/>
</g>
<g>
	<path fill="#F4F4F4" d="M105.432,351.516c0.98,0,1.659,0.025,2.037,0.076c0.545,0.072,0.879,0.331,1.002,0.775
		c0.084,0.306,0.125,0.822,0.125,1.552c0,0.73-0.041,1.243-0.125,1.548c-0.123,0.445-0.457,0.703-1.002,0.776
		c-0.376,0.05-1.068,0.075-2.078,0.075c-1.007,0-1.699-0.025-2.078-0.075c-0.543-0.073-0.877-0.331-1-0.776
		c-0.084-0.305-0.127-0.82-0.127-1.548c0-0.731,0.043-1.249,0.127-1.552c0.123-0.444,0.457-0.703,1-0.775
		C103.693,351.541,104.398,351.516,105.432,351.516z M105.336,352.729c-0.713,0-1.146,0.021-1.299,0.062
		c-0.186,0.049-0.303,0.156-0.355,0.325c-0.05,0.166-0.074,0.473-0.074,0.919c0,0.29,0.015,0.498,0.043,0.626
		c0.058,0.233,0.229,0.372,0.517,0.407c0.212,0.022,0.62,0.041,1.224,0.041c0.604,0,1.012-0.019,1.225-0.041
		c0.287-0.035,0.458-0.175,0.513-0.407c0.032-0.13,0.048-0.331,0.048-0.604c0-0.336-0.009-0.568-0.027-0.715
		c-0.031-0.23-0.104-0.391-0.219-0.469c-0.103-0.072-0.318-0.117-0.646-0.133C106.164,352.731,105.85,352.729,105.336,352.729z"/>
	<path fill="#F4F4F4" d="M109.133,351.584h1.422v2.144c0.008,0.492,0.024,0.809,0.051,0.938c0.045,0.222,0.201,0.352,0.465,0.391
		c0.242,0.036,0.607,0.06,1.098,0.06c0.506,0,0.861-0.021,1.066-0.047c0.298-0.049,0.465-0.22,0.498-0.516
		c0.027-0.238,0.041-0.513,0.041-0.816v-2.146h1.422v2.146c-0.016,0.744-0.039,1.232-0.071,1.467
		c-0.058,0.388-0.244,0.674-0.562,0.854c-0.234,0.139-0.629,0.217-1.183,0.246c-0.255,0.014-0.653,0.021-1.196,0.021
		c-0.8,0-1.367-0.022-1.705-0.068c-0.256-0.034-0.459-0.081-0.608-0.143c-0.149-0.062-0.278-0.146-0.384-0.263
		c-0.144-0.147-0.235-0.344-0.276-0.569c-0.045-0.267-0.069-0.578-0.071-0.949l-0.008-0.604v-2.145H109.133L109.133,351.584z"/>
	<path fill="#F4F4F4" d="M115.501,351.584h5.646v1.189h-2.074v3.477h-1.494v-3.477H115.5L115.501,351.584L115.501,351.584z"/>
</g>
<rect x="18.5" y="97.25" fill="#1C1C1C" width="39.825" height="12"/>
<rect x="94.336" y="97.25" fill="#1C1C1C" width="32.664" height="12"/>
<g>
	<path fill="#F4F4F4" d="M18.828,101.084h4.932v1.098h-3.51v0.885h3.339v1.07H20.25v1.613h-1.422V101.084z"/>
	<path fill="#F4F4F4" d="M24.085,105.75v-4.666h3.435c0.811,0.003,1.29,0.012,1.436,0.023c0.167,0.017,0.317,0.062,0.453,0.146
		c0.136,0.081,0.241,0.185,0.316,0.31c0.078,0.139,0.124,0.274,0.14,0.424c0.021,0.172,0.031,0.378,0.031,0.615
		c0,0.385-0.026,0.646-0.079,0.801c-0.08,0.224-0.23,0.377-0.451,0.465c-0.075,0.025-0.188,0.056-0.338,0.078
		c0.298,0.021,0.513,0.104,0.643,0.257c0.057,0.063,0.098,0.142,0.121,0.228c0.024,0.086,0.041,0.211,0.05,0.375
		c0.002,0.084,0.003,0.256,0.003,0.521v0.434h-1.401V105.5c0-0.277-0.013-0.477-0.038-0.598c-0.037-0.176-0.129-0.275-0.277-0.312
		c-0.098-0.021-0.304-0.025-0.619-0.025h-2.003v1.186H24.085L24.085,105.75z M25.507,103.398h2c0.298-0.008,0.475-0.012,0.53-0.019
		c0.201-0.012,0.327-0.071,0.379-0.187c0.037-0.075,0.055-0.207,0.055-0.396c0-0.157-0.016-0.274-0.048-0.354
		c-0.048-0.111-0.163-0.18-0.345-0.189c-0.064-0.004-0.255-0.008-0.574-0.01h-1.996L25.507,103.398L25.507,103.398z"/>
	<path fill="#F4F4F4" d="M30.384,101.084h5.168v1.098h-3.767v0.678h3.575v1.021h-3.575v0.748h3.794v1.121h-5.195V101.084z"/>
	<path fill="#F4F4F4" d="M42.901,104.807l-0.537,0.991l-0.458-0.325c-0.182,0.146-0.414,0.231-0.694,0.271
		c-0.365,0.05-1.073,0.074-2.126,0.074c-0.978,0-1.654-0.024-2.03-0.074c-0.544-0.073-0.878-0.331-1.001-0.776
		c-0.084-0.305-0.126-0.821-0.126-1.551c0-0.728,0.042-1.243,0.126-1.549c0.123-0.444,0.457-0.703,1.001-0.775
		c0.378-0.051,1.071-0.075,2.078-0.075c1.007,0,1.7,0.024,2.078,0.075c0.544,0.072,0.878,0.331,1.001,0.775
		c0.059,0.212,0.095,0.448,0.106,0.711c0.014,0.269,0.021,0.56,0.021,0.868c0,0.457-0.014,0.808-0.041,1.05L42.901,104.807z
		 M39.466,102.779l1.449,0.916c0.002-0.063,0.003-0.121,0.003-0.178c0-0.312-0.009-0.537-0.027-0.681
		c-0.032-0.235-0.105-0.396-0.219-0.474c-0.103-0.071-0.318-0.116-0.646-0.133c-0.116-0.008-0.414-0.01-0.892-0.01
		c-0.75,0-1.201,0.021-1.354,0.062c-0.186,0.049-0.303,0.155-0.355,0.323c-0.05,0.17-0.075,0.479-0.075,0.938
		c0,0.272,0.016,0.478,0.048,0.604c0.055,0.232,0.226,0.371,0.513,0.403c0.209,0.026,0.643,0.041,1.299,0.041
		c0.579,0,0.977-0.017,1.193-0.046l-1.504-0.797L39.466,102.779z"/>
	<path fill="#F4F4F4" d="M49.176,103.949h1.422c0.009,0.228,0.014,0.384,0.014,0.468c0,0.34-0.054,0.612-0.161,0.817
		c-0.112,0.213-0.325,0.358-0.639,0.442c-0.344,0.099-0.939,0.146-1.784,0.146c-0.932,0-1.56-0.021-1.883-0.045
		c-0.301-0.025-0.538-0.064-0.711-0.119c-0.173-0.059-0.317-0.135-0.431-0.24c-0.153-0.141-0.25-0.328-0.291-0.561
		c-0.045-0.244-0.068-0.717-0.068-1.408c0-0.667,0.017-1.117,0.051-1.354c0.05-0.349,0.186-0.602,0.407-0.759
		c0.168-0.118,0.438-0.203,0.807-0.253c0.383-0.05,1.07-0.075,2.061-0.075c0.59,0,1.011,0.018,1.261,0.038
		c0.378,0.036,0.654,0.108,0.827,0.22c0.214,0.137,0.35,0.329,0.407,0.584c0.041,0.187,0.062,0.396,0.062,0.637
		c0,0.041-0.001,0.131-0.003,0.27h-1.422c-0.004-0.113-0.009-0.189-0.014-0.229c-0.018-0.144-0.081-0.229-0.188-0.269
		c-0.162-0.055-0.604-0.082-1.326-0.082c-0.492,0-0.832,0.019-1.019,0.041c-0.228,0.032-0.369,0.156-0.424,0.373
		c-0.043,0.177-0.065,0.458-0.065,0.851c0,0.398,0.021,0.68,0.065,0.828c0.055,0.198,0.205,0.312,0.451,0.35
		c0.201,0.021,0.553,0.037,1.056,0.037c0.544,0,0.916-0.014,1.114-0.033c0.187-0.021,0.305-0.088,0.355-0.202
		C49.149,104.32,49.172,104.165,49.176,103.949z"/>
	<path fill="#F4F4F4" d="M50.684,101.084h1.562l1.702,3.494h0.267l1.685-3.494h1.552l-2.276,4.666h-2.184L50.684,101.084z"/>
</g>
<g>
	<path fill="#F4F4F4" d="M95.665,105.75v-4.666H99.1c0.812,0.003,1.291,0.012,1.437,0.023c0.167,0.017,0.317,0.062,0.453,0.146
		c0.136,0.081,0.241,0.185,0.315,0.31c0.078,0.139,0.125,0.274,0.141,0.424c0.021,0.172,0.031,0.378,0.031,0.615
		c0,0.385-0.026,0.646-0.08,0.801c-0.08,0.224-0.229,0.377-0.451,0.465c-0.074,0.025-0.188,0.056-0.338,0.078
		c0.299,0.021,0.514,0.104,0.644,0.257c0.058,0.063,0.099,0.142,0.121,0.228c0.024,0.086,0.041,0.211,0.05,0.375
		c0.002,0.084,0.003,0.256,0.003,0.521v0.434h-1.401V105.5c0-0.277-0.013-0.477-0.037-0.598c-0.037-0.176-0.129-0.275-0.277-0.312
		c-0.098-0.021-0.305-0.025-0.619-0.025h-2.003v1.186H95.665L95.665,105.75z M97.086,103.398h2c0.298-0.008,0.475-0.012,0.53-0.019
		c0.2-0.012,0.327-0.071,0.379-0.187c0.037-0.075,0.055-0.207,0.055-0.396c0-0.157-0.016-0.274-0.048-0.354
		c-0.048-0.111-0.163-0.18-0.345-0.189c-0.064-0.004-0.255-0.008-0.574-0.01h-1.996L97.086,103.398L97.086,103.398z"/>
	<path fill="#F4F4F4" d="M101.964,101.084h5.168v1.098h-3.767v0.678h3.574v1.021h-3.574v0.748h3.794v1.121h-5.195V101.084z"/>
	<path fill="#F4F4F4" d="M107.439,104.205h1.377c-0.002,0.229,0.043,0.378,0.14,0.443c0.05,0.028,0.106,0.055,0.171,0.062
		s0.175,0.021,0.335,0.022c0.08,0.002,0.341,0.006,0.783,0.008c0.606-0.004,0.957-0.008,1.053-0.012
		c0.181-0.018,0.298-0.037,0.354-0.07c0.08-0.051,0.121-0.162,0.121-0.335c0-0.118-0.025-0.201-0.075-0.25
		c-0.068-0.065-0.231-0.104-0.489-0.105c-0.178,0-0.549-0.014-1.113-0.041c-0.584-0.022-0.962-0.043-1.136-0.048
		c-0.451-0.014-0.769-0.062-0.954-0.156c-0.236-0.113-0.392-0.312-0.465-0.596c-0.041-0.154-0.062-0.354-0.062-0.604
		c0-0.528,0.101-0.901,0.301-1.117c0.15-0.164,0.379-0.272,0.685-0.325c0.276-0.046,0.933-0.067,1.97-0.067
		c0.674,0,1.15,0.021,1.428,0.062c0.367,0.053,0.632,0.145,0.793,0.271c0.22,0.186,0.328,0.504,0.328,0.969
		c0,0.054,0,0.133-0.002,0.238h-1.377c-0.004-0.107-0.014-0.188-0.024-0.229c-0.032-0.127-0.138-0.198-0.313-0.217
		c-0.158-0.016-0.541-0.021-1.148-0.021c-0.602,0-0.958,0.018-1.07,0.053c-0.125,0.04-0.188,0.146-0.188,0.316
		c0,0.164,0.065,0.265,0.197,0.301c0.112,0.03,0.614,0.059,1.508,0.086c0.809,0.021,1.324,0.051,1.547,0.086
		c0.227,0.033,0.406,0.085,0.539,0.153c0.134,0.065,0.24,0.165,0.32,0.29c0.12,0.186,0.18,0.479,0.18,0.893
		c0,0.459-0.059,0.795-0.178,1.008c-0.119,0.217-0.312,0.357-0.58,0.438c-0.265,0.077-0.992,0.116-2.185,0.116
		c-0.726,0-1.248-0.021-1.569-0.062c-0.392-0.045-0.673-0.134-0.844-0.266c-0.186-0.145-0.294-0.342-0.328-0.6
		c-0.018-0.125-0.027-0.272-0.027-0.443V104.205L107.439,104.205z"/>
	<path fill="#F4F4F4" d="M119.83,103.949h1.422c0.009,0.228,0.014,0.384,0.014,0.468c0,0.34-0.054,0.612-0.16,0.817
		c-0.112,0.213-0.326,0.358-0.64,0.442c-0.344,0.099-0.938,0.146-1.784,0.146c-0.932,0-1.56-0.021-1.883-0.045
		c-0.301-0.025-0.537-0.064-0.711-0.119c-0.173-0.059-0.316-0.135-0.431-0.24c-0.153-0.141-0.25-0.328-0.291-0.561
		c-0.046-0.244-0.068-0.717-0.068-1.408c0-0.667,0.017-1.117,0.052-1.354c0.049-0.349,0.186-0.602,0.406-0.759
		c0.168-0.118,0.438-0.203,0.807-0.253c0.383-0.05,1.07-0.075,2.062-0.075c0.59,0,1.011,0.018,1.261,0.038
		c0.379,0.036,0.654,0.108,0.827,0.22c0.214,0.137,0.351,0.329,0.407,0.584c0.041,0.187,0.062,0.396,0.062,0.637
		c0,0.041-0.002,0.131-0.004,0.27h-1.422c-0.004-0.113-0.009-0.189-0.014-0.229c-0.018-0.144-0.081-0.229-0.188-0.269
		c-0.162-0.055-0.604-0.082-1.326-0.082c-0.492,0-0.832,0.019-1.02,0.041c-0.229,0.032-0.369,0.156-0.424,0.373
		c-0.043,0.177-0.064,0.458-0.064,0.851c0,0.398,0.021,0.68,0.064,0.828c0.055,0.198,0.205,0.312,0.451,0.35
		c0.201,0.021,0.553,0.037,1.056,0.037c0.544,0,0.916-0.014,1.114-0.033c0.187-0.021,0.305-0.088,0.354-0.202
		C119.802,104.32,119.825,104.165,119.83,103.949z"/>
	<path fill="#F4F4F4" d="M121.337,101.084h1.562l1.703,3.494h0.267l1.685-3.494h1.553l-2.276,4.666h-2.185L121.337,101.084z"/>
</g>
<g>
	<path fill="#F9F9F9" d="M47.736,16.92h4.463l4.863,9.98h0.762l4.814-9.98h4.434l-6.504,13.33h-6.24L47.736,16.92z"/>
	<path fill="#F9F9F9" d="M80.246,25.104h4.062c0.025,0.651,0.039,1.102,0.039,1.342c0,0.971-0.154,1.748-0.459,2.334
		c-0.32,0.609-0.929,1.037-1.826,1.275c-0.983,0.271-2.683,0.4-5.099,0.4c-2.663,0-4.457-0.042-5.381-0.127
		c-0.859-0.071-1.537-0.188-2.031-0.342c-0.494-0.156-0.905-0.387-1.23-0.688c-0.436-0.399-0.713-0.938-0.83-1.603
		c-0.13-0.695-0.195-2.037-0.195-4.022c0-1.905,0.049-3.188,0.146-3.854c0.143-0.996,0.531-1.723,1.162-2.168
		c0.482-0.34,1.25-0.578,2.305-0.727c1.094-0.145,3.057-0.215,5.889-0.215c1.686,0,2.887,0.036,3.604,0.107
		c1.082,0.104,1.869,0.312,2.363,0.625c0.612,0.384,1,0.938,1.162,1.67c0.117,0.521,0.176,1.123,0.176,1.807
		c0,0.117-0.002,0.374-0.01,0.771h-4.062c-0.013-0.326-0.026-0.549-0.039-0.664c-0.052-0.397-0.231-0.647-0.537-0.752
		c-0.462-0.156-1.726-0.234-3.789-0.234c-1.406,0-2.376,0.039-2.91,0.117c-0.651,0.091-1.055,0.445-1.211,1.062
		c-0.124,0.5-0.186,1.312-0.186,2.425c0,1.146,0.062,1.938,0.186,2.371c0.156,0.564,0.586,0.896,1.289,0.984
		c0.573,0.07,1.579,0.105,3.019,0.105c1.556,0,2.617-0.031,3.184-0.101c0.533-0.06,0.873-0.251,1.016-0.575
		C80.168,26.168,80.232,25.723,80.246,25.104z"/>
	<path fill="#F9F9F9" d="M85.754,16.92h14.092v3.135H89.816v2.521h9.541v3.062h-9.541v4.608h-4.062L85.754,16.92L85.754,16.92z"/>
</g>
<g>
	<path fill="#EDEDED" d="M47.369,364.002h1.28v2.979h2.845v1.02h-4.125V364.002z"/>
	<path fill="#EDEDED" d="M51.772,364.002h1.28v3.999h-1.28V364.002z"/>
	<path fill="#EDEDED" d="M53.612,364.002h2.136l2.095,2.982h0.126l-0.029-2.982h1.239v3.999h-2.118l-2.104-2.985h-0.132l0.026,2.985
		h-1.239V364.002z"/>
	<path fill="#EDEDED" d="M59.738,368.001v-3.999h2.886c0.627,0,1.032,0.011,1.216,0.032c0.355,0.041,0.617,0.134,0.785,0.273
		c0.18,0.156,0.298,0.408,0.354,0.761c0.027,0.166,0.041,0.455,0.041,0.865c0,0.529-0.023,0.897-0.07,1.104
		c-0.064,0.281-0.17,0.488-0.316,0.621c-0.1,0.092-0.221,0.161-0.363,0.208s-0.335,0.081-0.577,0.103
		c-0.191,0.021-0.547,0.026-1.066,0.026L59.738,368.001L59.738,368.001z M60.939,366.981h1.696c0.344,0,0.601-0.019,0.771-0.041
		c0.188-0.031,0.309-0.141,0.357-0.313c0.037-0.129,0.056-0.332,0.056-0.609c0-0.297-0.02-0.515-0.059-0.648
		c-0.047-0.174-0.154-0.279-0.322-0.316c-0.133-0.027-0.404-0.047-0.814-0.047h-1.685V366.981L60.939,366.981z"/>
	<path fill="#EDEDED" d="M65.5,364.002h4.43v0.94h-3.229v0.577h3.064v0.879h-3.064v0.642h3.252v0.961H65.5V364.002L65.5,364.002z"/>
	<path fill="#EDEDED" d="M70.334,364.002h2.136l2.095,2.982h0.126l-0.029-2.982H75.9v3.999h-2.117l-2.104-2.985h-0.132l0.026,2.985
		h-1.239V364.002z"/>
	<path fill="#EDEDED" d="M76.46,368.001v-3.999h2.874c0.611,0.002,0.975,0.007,1.09,0.015c0.262,0.021,0.454,0.062,0.577,0.146
		c0.142,0.09,0.231,0.214,0.274,0.372c0.039,0.146,0.06,0.315,0.06,0.51c0,0.234-0.022,0.411-0.067,0.53
		c-0.074,0.188-0.23,0.32-0.472,0.396c0.179,0.031,0.31,0.076,0.396,0.138c0.195,0.133,0.293,0.403,0.293,0.823
		c0,0.326-0.051,0.567-0.151,0.729c-0.09,0.137-0.228,0.229-0.41,0.276c-0.155,0.041-0.418,0.062-0.784,0.064l-0.795,0.006
		L76.46,368.001L76.46,368.001z M77.621,365.578h1.717c0.377,0,0.602-0.016,0.674-0.044c0.096-0.037,0.145-0.133,0.145-0.287
		c0-0.158-0.059-0.253-0.174-0.284c-0.045-0.012-0.26-0.019-0.645-0.021h-1.717V365.578L77.621,365.578z M77.621,367.04h1.723
		c0.32-0.002,0.51-0.004,0.565-0.006c0.178-0.008,0.291-0.043,0.34-0.105c0.037-0.051,0.056-0.129,0.056-0.229
		c0-0.168-0.061-0.271-0.182-0.296c-0.043-0.017-0.303-0.021-0.779-0.021h-1.723V367.04L77.621,367.04z"/>
	<path fill="#EDEDED" d="M81.907,364.002h4.43v0.94h-3.229v0.577h3.064v0.879h-3.064v0.642h3.252v0.961h-4.452V364.002
		L81.907,364.002z"/>
	<path fill="#EDEDED" d="M86.741,368.001v-3.999h2.944c0.694,0.002,1.104,0.009,1.229,0.021c0.144,0.014,0.272,0.056,0.388,0.125
		c0.116,0.064,0.207,0.152,0.271,0.265c0.066,0.115,0.105,0.235,0.119,0.36c0.019,0.146,0.027,0.318,0.027,0.525
		c0,0.326-0.021,0.559-0.068,0.688c-0.067,0.188-0.196,0.319-0.387,0.396c-0.063,0.025-0.16,0.048-0.289,0.067
		c0.256,0.02,0.438,0.093,0.551,0.22c0.049,0.057,0.082,0.121,0.104,0.195c0.021,0.067,0.035,0.18,0.042,0.315
		c0.002,0.072,0.003,0.225,0.003,0.442v0.372h-1.201v-0.214c0-0.238-0.011-0.409-0.031-0.517c-0.031-0.146-0.11-0.232-0.237-0.265
		c-0.084-0.019-0.261-0.025-0.53-0.025h-1.717v1.021L86.741,368.001L86.741,368.001z M87.959,365.985h1.714
		c0.257-0.005,0.407-0.013,0.454-0.017c0.172-0.01,0.28-0.062,0.325-0.154c0.03-0.065,0.047-0.183,0.047-0.341
		c0-0.137-0.015-0.233-0.041-0.305c-0.041-0.098-0.14-0.148-0.296-0.164c-0.055-0.004-0.219-0.007-0.492-0.009h-1.711V365.985
		L87.959,365.985z"/>
	<path fill="#EDEDED" d="M94.586,365.733h2.786c0.004,0.088,0.006,0.145,0.006,0.17c0,0.521-0.015,0.928-0.044,1.213
		c-0.047,0.461-0.309,0.739-0.785,0.838c-0.246,0.049-0.516,0.078-0.809,0.088c-0.312,0.012-0.68,0.018-1.104,0.018
		c-0.756,0-1.296-0.022-1.62-0.081c-0.449-0.07-0.728-0.277-0.834-0.617c-0.054-0.166-0.084-0.356-0.092-0.571
		c-0.01-0.271-0.015-0.557-0.015-0.861c0-0.516,0.024-0.878,0.073-1.087c0.069-0.291,0.19-0.496,0.362-0.615
		c0.091-0.062,0.203-0.108,0.339-0.146c0.135-0.033,0.327-0.062,0.575-0.083c0.351-0.031,0.822-0.047,1.418-0.047
		c0.767,0,1.308,0.028,1.626,0.091c0.322,0.062,0.549,0.168,0.68,0.322c0.115,0.139,0.187,0.354,0.211,0.653
		c0.007,0.078,0.01,0.201,0.01,0.367H96.15c-0.002-0.104-0.008-0.184-0.019-0.223c-0.026-0.1-0.114-0.159-0.261-0.179
		c-0.193-0.025-0.574-0.038-1.143-0.038c-0.506,0-0.856,0.017-1.053,0.05c-0.186,0.033-0.298,0.135-0.337,0.305
		c-0.03,0.129-0.047,0.358-0.047,0.688c0,0.379,0.017,0.638,0.05,0.771c0.043,0.188,0.176,0.289,0.398,0.312
		c0.109,0.01,0.439,0.019,0.99,0.022c0.602-0.005,0.988-0.017,1.162-0.032c0.158-0.024,0.25-0.099,0.272-0.209
		c0.015-0.068,0.021-0.181,0.021-0.32h-1.603v-0.802L94.586,365.733L94.586,365.733z"/>
	<path fill="#EDEDED" d="M51.164,375.201v-3.999h2.944c0.695,0.002,1.105,0.009,1.23,0.021c0.143,0.019,0.272,0.061,0.388,0.125
		c0.116,0.069,0.207,0.157,0.271,0.27c0.066,0.11,0.106,0.23,0.12,0.355c0.018,0.146,0.026,0.323,0.026,0.53
		c0,0.326-0.022,0.554-0.067,0.683c-0.068,0.191-0.197,0.324-0.387,0.398c-0.064,0.025-0.161,0.048-0.29,0.067
		c0.256,0.02,0.439,0.093,0.551,0.22c0.049,0.057,0.083,0.121,0.104,0.195c0.021,0.067,0.035,0.18,0.042,0.315
		c0.002,0.072,0.003,0.22,0.003,0.442v0.372h-1.201v-0.214c0-0.238-0.011-0.409-0.032-0.518c-0.031-0.146-0.11-0.231-0.237-0.264
		c-0.084-0.019-0.261-0.026-0.53-0.026h-1.717v1.021L51.164,375.201L51.164,375.201z M52.383,373.186h1.714
		c0.256-0.004,0.407-0.008,0.454-0.012c0.172-0.01,0.28-0.062,0.325-0.158c0.031-0.062,0.047-0.179,0.047-0.337
		c0-0.137-0.014-0.233-0.041-0.305c-0.041-0.098-0.14-0.152-0.296-0.164c-0.055-0.004-0.219-0.007-0.492-0.009h-1.711V373.186
		L52.383,373.186z"/>
	<path fill="#EDEDED" d="M56.563,371.202h4.43v0.938h-3.229v0.577h3.064v0.879h-3.064v0.646h3.252v0.961h-4.453V371.202
		L56.563,371.202z"/>
	<path fill="#EDEDED" d="M61.257,373.877h1.181c-0.002,0.197,0.038,0.324,0.12,0.381c0.043,0.027,0.092,0.046,0.146,0.061
		c0.054,0.01,0.15,0.017,0.287,0.021c0.068,0.002,0.292,0.004,0.671,0.006c0.52-0.002,0.82-0.005,0.902-0.009
		c0.154-0.012,0.256-0.032,0.305-0.062c0.068-0.046,0.103-0.142,0.103-0.285c0-0.104-0.021-0.174-0.064-0.215
		c-0.059-0.061-0.198-0.091-0.419-0.095c-0.152,0-0.471-0.012-0.955-0.033c-0.5-0.021-0.824-0.034-0.973-0.041
		c-0.387-0.014-0.659-0.059-0.817-0.137c-0.203-0.1-0.336-0.27-0.398-0.51c-0.035-0.133-0.053-0.307-0.053-0.521
		c0-0.449,0.086-0.771,0.258-0.955c0.129-0.145,0.324-0.232,0.586-0.277c0.236-0.039,0.799-0.062,1.688-0.062
		c0.578,0,0.986,0.021,1.225,0.055c0.314,0.045,0.541,0.123,0.68,0.229c0.188,0.154,0.281,0.436,0.281,0.829
		c0,0.043-0.001,0.111-0.003,0.205h-1.181c-0.004-0.096-0.011-0.162-0.021-0.199c-0.027-0.104-0.117-0.171-0.27-0.185
		c-0.135-0.015-0.463-0.021-0.984-0.021c-0.516,0-0.821,0.02-0.917,0.045c-0.107,0.034-0.161,0.125-0.161,0.271
		c0,0.141,0.057,0.227,0.17,0.258c0.096,0.025,0.526,0.05,1.292,0.073c0.693,0.02,1.136,0.044,1.327,0.072
		c0.193,0.025,0.347,0.069,0.461,0.133c0.114,0.059,0.206,0.142,0.274,0.249c0.104,0.157,0.155,0.413,0.155,0.765
		c0,0.396-0.051,0.683-0.152,0.864c-0.102,0.182-0.268,0.306-0.498,0.372c-0.227,0.062-0.851,0.1-1.872,0.1
		c-0.621,0-1.069-0.017-1.345-0.05c-0.336-0.039-0.577-0.115-0.724-0.229c-0.158-0.12-0.252-0.294-0.281-0.517
		c-0.016-0.104-0.023-0.229-0.023-0.381L61.257,373.877L61.257,373.877z"/>
	<path fill="#EDEDED" d="M66.574,371.202h4.43v0.938h-3.229v0.577h3.064v0.879h-3.064v0.646h3.252v0.961h-4.453V371.202
		L66.574,371.202z"/>
	<path fill="#EDEDED" d="M75.75,375.201l-0.343-0.677h-2.646l-0.343,0.677h-1.392l2.121-3.999h1.893l2.092,3.999H75.75z
		 M74.979,373.648l-0.771-1.52h-0.243l-0.771,1.52H74.979z"/>
	<path fill="#EDEDED" d="M77.314,375.201v-3.999h2.943c0.695,0.002,1.105,0.009,1.23,0.021c0.143,0.019,0.271,0.061,0.388,0.125
		c0.116,0.069,0.207,0.157,0.271,0.27c0.066,0.11,0.106,0.23,0.121,0.355c0.018,0.146,0.025,0.323,0.025,0.53
		c0,0.326-0.021,0.554-0.066,0.683c-0.068,0.191-0.197,0.324-0.388,0.398c-0.063,0.025-0.161,0.048-0.29,0.067
		c0.256,0.02,0.439,0.093,0.551,0.22c0.049,0.057,0.084,0.121,0.104,0.195c0.021,0.067,0.035,0.18,0.042,0.315
		c0.002,0.072,0.003,0.22,0.003,0.442v0.372h-1.201v-0.214c0-0.238-0.011-0.409-0.032-0.518c-0.031-0.146-0.109-0.231-0.236-0.264
		c-0.084-0.019-0.262-0.026-0.53-0.026h-1.717v1.021L77.314,375.201L77.314,375.201z M78.533,373.186h1.714
		c0.256-0.004,0.407-0.008,0.454-0.012c0.172-0.01,0.279-0.062,0.324-0.158c0.031-0.062,0.048-0.179,0.048-0.337
		c0-0.137-0.015-0.233-0.041-0.305c-0.041-0.098-0.14-0.152-0.296-0.164c-0.055-0.004-0.219-0.007-0.492-0.009h-1.711V373.186
		L78.533,373.186z"/>
	<path fill="#EDEDED" d="M86.54,373.657h1.219c0.009,0.19,0.013,0.329,0.013,0.396c0,0.291-0.047,0.524-0.139,0.7
		c-0.096,0.188-0.277,0.312-0.548,0.384c-0.295,0.08-0.806,0.12-1.528,0.12c-0.8,0-1.338-0.013-1.615-0.038
		c-0.258-0.021-0.461-0.056-0.608-0.103s-0.271-0.115-0.369-0.205c-0.131-0.121-0.214-0.281-0.249-0.48
		c-0.039-0.209-0.059-0.606-0.059-1.207c0-0.567,0.015-0.958,0.044-1.152c0.043-0.302,0.159-0.521,0.349-0.65
		c0.145-0.102,0.375-0.174,0.691-0.217c0.328-0.043,0.917-0.064,1.767-0.064c0.507,0,0.866,0.016,1.081,0.032
		c0.324,0.031,0.561,0.094,0.709,0.188c0.184,0.11,0.301,0.277,0.35,0.5c0.035,0.152,0.053,0.338,0.053,0.543
		c0,0.03-0.001,0.107-0.004,0.229h-1.219c-0.004-0.098-0.008-0.164-0.012-0.199c-0.016-0.119-0.068-0.189-0.16-0.226
		c-0.14-0.047-0.519-0.07-1.138-0.07c-0.422,0-0.713,0.016-0.873,0.035c-0.194,0.027-0.315,0.134-0.362,0.319
		c-0.037,0.146-0.057,0.393-0.057,0.727c0,0.344,0.02,0.581,0.057,0.712c0.047,0.17,0.176,0.271,0.387,0.296
		c0.172,0.021,0.474,0.032,0.904,0.032c0.467,0,0.785-0.01,0.955-0.029c0.16-0.018,0.262-0.071,0.305-0.173
		C86.518,373.977,86.536,373.843,86.54,373.657z"/>
	<path fill="#EDEDED" d="M88.191,371.202h1.281v1.43h2.75v-1.43h1.28v3.999h-1.28v-1.45h-2.75v1.45h-1.281V371.202z"/>
</g>
</svg>
