<?xml version="1.0" encoding="utf-8"?>
<!-- Generator: Adobe Illustrator 16.0.0, SVG Export Plug-In . SVG Version: 6.00 Build 0)  -->
<!DOCTYPE svg PUBLIC "-//W3C//DTD SVG 1.1//EN" "http://www.w3.org/Graphics/SVG/1.1/DTD/svg11.dtd">
<svg version="1.1"
	 id="svg8" sodipodi:docname="MyModule.svg" inkscape:version="0.92.2 5c3e80d, 2017-08-06" xmlns:dc="http://purl.org/dc/elements/1.1/" xmlns:cc="http://creativecommons.org/ns#" xmlns:rdf="http://www.w3.org/1999/02/22-rdf-syntax-ns#" xmlns:svg="http://www.w3.org/2000/svg" xmlns:sodipodi="http://sodipodi.sourceforge.net/DTD/sodipodi-0.dtd" xmlns:inkscape="http://www.inkscape.org/namespaces/inkscape"
	 xmlns="http://www.w3.org/2000/svg" xmlns:xlink="http://www.w3.org/1999/xlink" x="0px" y="0px" width="150px" height="380px"
	 viewBox="-320.5 396.5 150 380" enable-background="new -320.5 396.5 150 380" xml:space="preserve">
<g id="layer1" transform="translate(0,-196.45832)" inkscape:groupmode="layer" inkscape:label="Layer 1">
	<path id="rect817" inkscape:connector-curvature="0" fill="#1C1C1C" d="M-320.5,592.958h150v380h-150V592.958z"/>
</g>
<g>
	<path fill="#969696" d="M-259.124,433.734h-1.771c0-0.484,0.019-0.853,0.057-1.104c0.05-0.311,0.163-0.552,0.34-0.725
		c0.177-0.173,0.433-0.291,0.767-0.353c0.463-0.085,1.285-0.128,2.465-0.128c1.119,0,1.815,0.014,2.087,0.04
		c0.451,0.041,0.779,0.145,0.984,0.308c0.205,0.165,0.333,0.387,0.382,0.668c0.044,0.253,0.066,0.547,0.066,0.884
		c0,0.448-0.032,0.779-0.097,0.993c-0.1,0.331-0.287,0.565-0.562,0.707c-0.308,0.155-0.788,0.253-1.441,0.291
		c-1.603,0.1-2.518,0.164-2.747,0.192c-0.255,0.025-0.417,0.111-0.488,0.254c-0.023,0.061-0.04,0.179-0.048,0.356h5.48v1.38h-7.159
		c-0.012-0.24-0.018-0.443-0.018-0.611c0-0.737,0.022-1.255,0.066-1.551c0.088-0.562,0.412-0.914,0.971-1.055
		c0.287-0.07,0.593-0.119,0.918-0.146l1.252-0.098c0.911-0.07,1.427-0.112,1.547-0.127c0.281-0.029,0.461-0.094,0.541-0.193
		c0.05-0.062,0.075-0.186,0.075-0.373c0-0.208-0.029-0.348-0.088-0.418c-0.073-0.091-0.236-0.146-0.488-0.167
		c-0.144-0.012-0.505-0.018-1.085-0.018c-0.812,0-1.359,0.021-1.644,0.062c-0.167,0.023-0.27,0.084-0.308,0.181
		C-259.102,433.081-259.121,433.33-259.124,433.734z"/>
	<path fill="#969696" d="M-245.25,435.035v1.349h-1.16v1.116h-1.736v-1.116h-4.794v-2.298l3.568-2.584h2.962v3.533H-245.25
		L-245.25,435.035z M-248.146,435.035v-2.146h-0.369l-2.791,1.906v0.238L-248.146,435.035L-248.146,435.035z"/>
	<path fill="#969696" d="M-238.957,431.502v5.998h-1.499v-0.559h-0.088c-0.111,0.192-0.234,0.33-0.369,0.408
		c-0.293,0.174-0.792,0.26-1.499,0.26c-0.688,0-1.211-0.054-1.569-0.158c-0.193-0.059-0.365-0.157-0.514-0.296
		c-0.149-0.141-0.253-0.3-0.312-0.481c-0.097-0.284-0.145-0.728-0.145-1.332c0-0.361,0.018-0.654,0.055-0.879
		c0.036-0.222,0.099-0.418,0.187-0.588c0.164-0.316,0.457-0.526,0.879-0.629c0.308-0.076,0.756-0.114,1.345-0.114
		c0.551,0,0.929,0.029,1.134,0.088c0.322,0.095,0.568,0.292,0.738,0.594h0.066v-2.312H-238.957z M-241.906,434.332
		c-0.571,0-0.949,0.047-1.134,0.141c-0.132,0.07-0.221,0.188-0.268,0.353c-0.035,0.12-0.053,0.299-0.053,0.535
		c0,0.313,0.031,0.541,0.092,0.682c0.076,0.176,0.275,0.285,0.598,0.33c0.188,0.024,0.417,0.039,0.69,0.039
		c0.586,0,0.979-0.062,1.178-0.186c0.111-0.066,0.186-0.185,0.224-0.352c0.026-0.114,0.04-0.279,0.04-0.497
		c0-0.348-0.04-0.59-0.119-0.725c-0.082-0.136-0.253-0.227-0.514-0.272C-241.348,434.348-241.592,434.332-241.906,434.332z"/>
	<path fill="#969696" d="M-238.175,437.5v-5.998h4.311c0.917,0.003,1.462,0.01,1.635,0.021c0.393,0.022,0.681,0.094,0.866,0.211
		c0.211,0.135,0.349,0.319,0.413,0.559c0.059,0.226,0.088,0.48,0.088,0.764c0,0.353-0.034,0.617-0.101,0.796
		c-0.111,0.29-0.347,0.487-0.708,0.594c0.267,0.048,0.464,0.114,0.593,0.203c0.293,0.195,0.439,0.608,0.439,1.237
		c0,0.49-0.076,0.853-0.229,1.086c-0.135,0.205-0.34,0.347-0.615,0.422c-0.234,0.062-0.627,0.095-1.178,0.098l-1.191,0.009
		L-238.175,437.5L-238.175,437.5z M-236.435,433.865h2.575c0.565,0,0.902-0.021,1.011-0.065c0.144-0.056,0.215-0.199,0.215-0.431
		c0-0.237-0.086-0.379-0.259-0.426c-0.067-0.019-0.39-0.028-0.967-0.031h-2.575V433.865z M-236.435,436.059h2.584
		c0.48-0.003,0.763-0.006,0.848-0.009c0.267-0.012,0.437-0.063,0.51-0.158c0.056-0.075,0.083-0.192,0.083-0.352
		c0-0.252-0.091-0.399-0.272-0.444c-0.064-0.018-0.454-0.026-1.169-0.029h-2.584V436.059L-236.435,436.059z"/>
</g>
<g>
	<path fill="#FFFFFF" d="M-274.599,761.465h1.32v3.175h2.994v1.11h-4.314V761.465z"/>
	<path fill="#FFFFFF" d="M-269.577,765.756v-4.283h1.32v4.283H-269.577z"/>
	<path fill="#FFFFFF" d="M-261.424,765.756h-2.161l-2.262-3.174c-0.023-0.048-0.047-0.1-0.072-0.156
		c-0.028-0.051-0.056-0.077-0.083-0.077c0,0.04,0.002,0.08,0.006,0.118c0.067,0.217,0.101,0.328,0.101,0.332v2.957h-1.32v-4.283
		h2.161l2.256,3.167c0.024,0.052,0.05,0.104,0.078,0.157c0.024,0.052,0.05,0.077,0.078,0.077c-0.004-0.04-0.006-0.08-0.006-0.12
		c-0.031-0.108-0.063-0.219-0.095-0.33v-2.951h1.32L-261.424,765.756L-261.424,765.756z"/>
	<path fill="#FFFFFF" d="M-260.319,765.744v-4.285h3.696c0.752,0,1.248,0.151,1.488,0.451c0.224,0.28,0.335,0.846,0.335,1.698
		c0,0.848-0.11,1.409-0.33,1.687c-0.24,0.3-0.738,0.449-1.494,0.449H-260.319z M-259,764.634h2.155c0.283,0,0.475-0.071,0.576-0.216
		c0.1-0.144,0.149-0.414,0.149-0.81c0-0.396-0.05-0.669-0.149-0.815c-0.101-0.148-0.292-0.223-0.576-0.223H-259V764.634z"/>
	<path fill="#FFFFFF" d="M-253.604,765.75v-4.291h4.62v1.039h-3.3v0.594h3.149v1.032h-3.149v0.587h3.3v1.039H-253.604
		L-253.604,765.75z"/>
	<path fill="#FFFFFF" d="M-241.899,765.756h-2.161l-2.262-3.174c-0.023-0.048-0.047-0.1-0.072-0.156
		c-0.028-0.051-0.056-0.077-0.083-0.077c0,0.04,0.002,0.08,0.006,0.118c0.067,0.217,0.101,0.328,0.101,0.332v2.957h-1.32v-4.283
		h2.161l2.256,3.167c0.024,0.052,0.05,0.104,0.078,0.157c0.024,0.052,0.05,0.077,0.078,0.077c-0.004-0.04-0.006-0.08-0.006-0.12
		c-0.031-0.108-0.063-0.219-0.095-0.33v-2.951h1.32L-241.899,765.756L-241.899,765.756z"/>
	<path fill="#FFFFFF" d="M-236.942,761.459c0.411,0,0.711,0.061,0.899,0.181c0.28,0.182,0.42,0.525,0.42,1.032
		c0,0.225-0.042,0.412-0.126,0.564c-0.084,0.15-0.188,0.256-0.312,0.312c0.396,0.176,0.593,0.515,0.593,1.015
		c0,0.432-0.102,0.736-0.306,0.918c-0.204,0.18-0.542,0.27-1.014,0.27h-3.99v-4.291H-236.942L-236.942,761.459z M-239.457,763.074
		h2.341c0.104,0,0.186-0.024,0.246-0.072c0.056-0.044,0.083-0.115,0.083-0.215c0-0.104-0.028-0.18-0.084-0.224
		c-0.057-0.045-0.138-0.065-0.246-0.065h-2.341L-239.457,763.074L-239.457,763.074z M-239.457,764.713h2.287
		c0.256,0,0.384-0.107,0.384-0.324c0-0.137-0.032-0.229-0.095-0.281c-0.068-0.049-0.165-0.071-0.289-0.071h-2.287V764.713z"/>
	<path fill="#FFFFFF" d="M-234.649,765.75v-4.291h4.62v1.039h-3.3v0.594h3.149v1.032h-3.149v0.587h3.3v1.039H-234.649
		L-234.649,765.75z"/>
	<path fill="#FFFFFF" d="M-228.907,761.459h3.839c0.472,0,0.806,0.087,1.002,0.258c0.212,0.189,0.318,0.521,0.318,0.99
		c0,0.365-0.044,0.637-0.132,0.816c-0.092,0.181-0.246,0.312-0.461,0.396c0.239,0.104,0.399,0.21,0.479,0.318
		c0.076,0.106,0.114,0.291,0.114,0.553v0.959h-1.32v-0.769c0-0.111-0.032-0.208-0.097-0.289c-0.075-0.095-0.187-0.143-0.335-0.143
		h-2.087v1.199h-1.32V761.459L-228.907,761.459z M-227.587,762.57v0.869h2.117c0.145,0,0.249-0.031,0.312-0.096
		c0.061-0.061,0.091-0.173,0.091-0.337s-0.032-0.276-0.097-0.342c-0.063-0.063-0.166-0.096-0.306-0.096L-227.587,762.57
		L-227.587,762.57z"/>
	<path fill="#FFFFFF" d="M-216.758,763.014h-1.32c0-0.252-0.062-0.399-0.186-0.442c-0.124-0.04-0.552-0.062-1.285-0.062
		c-0.731,0-1.159,0.046-1.283,0.14c-0.124,0.092-0.186,0.413-0.186,0.966c0,0.548,0.062,0.866,0.186,0.954
		c0.12,0.092,0.55,0.137,1.289,0.137c0.736,0,1.165-0.019,1.285-0.053c0.12-0.036,0.18-0.168,0.18-0.396h-1.632v-0.959h2.952
		c0,0.933-0.034,1.521-0.103,1.771c-0.096,0.348-0.335,0.564-0.719,0.653c-0.284,0.063-0.938,0.097-1.963,0.097
		c-1.344,0-2.146-0.108-2.405-0.324c-0.26-0.212-0.39-0.84-0.39-1.884s0.126-1.67,0.378-1.878c0.268-0.222,1.073-0.331,2.417-0.331
		c1.288,0,2.066,0.073,2.335,0.223C-216.908,761.786-216.758,762.25-216.758,763.014z"/>
	<path fill="#FFFFFF" d="M-270.185,768.659h3.839c0.472,0,0.806,0.087,1.002,0.258c0.212,0.189,0.318,0.521,0.318,0.99
		c0,0.364-0.044,0.637-0.132,0.815c-0.092,0.182-0.246,0.313-0.461,0.396c0.239,0.104,0.399,0.21,0.479,0.317
		c0.076,0.107,0.114,0.291,0.114,0.554v0.959h-1.32v-0.769c0-0.111-0.032-0.208-0.097-0.289c-0.075-0.095-0.187-0.143-0.335-0.143
		h-2.087v1.199h-1.32V768.659L-270.185,768.659z M-268.865,769.771v0.868h2.117c0.145,0,0.249-0.03,0.312-0.095
		c0.061-0.061,0.091-0.173,0.091-0.337s-0.032-0.277-0.097-0.342c-0.063-0.064-0.166-0.096-0.306-0.096L-268.865,769.771
		L-268.865,769.771z"/>
	<path fill="#FFFFFF" d="M-263.747,772.95v-4.291h4.62v1.039h-3.3v0.594h3.149v1.032h-3.149v0.587h3.3v1.039H-263.747
		L-263.747,772.95z"/>
	<path fill="#FFFFFF" d="M-255.444,771.983c0.637,0,1.005-0.011,1.104-0.03c0.101-0.021,0.151-0.099,0.151-0.234
		c0-0.163-0.07-0.268-0.211-0.312c-0.14-0.04-0.488-0.061-1.044-0.061c-1.1,0-1.793-0.079-2.082-0.239
		c-0.288-0.158-0.432-0.556-0.432-1.188c0-0.584,0.188-0.958,0.564-1.122c0.288-0.124,0.928-0.187,1.92-0.187
		c0.884,0,1.444,0.023,1.68,0.071c0.556,0.111,0.833,0.583,0.833,1.415h-1.32c0-0.227-0.05-0.359-0.149-0.399
		c-0.101-0.036-0.447-0.055-1.039-0.055c-0.596,0-0.939,0.011-1.031,0.03c-0.093,0.023-0.139,0.105-0.139,0.246
		c0,0.146,0.078,0.242,0.234,0.286c0.156,0.044,0.476,0.065,0.959,0.065c1.089,0,1.791,0.086,2.106,0.259
		c0.312,0.172,0.469,0.566,0.469,1.188c0,0.572-0.176,0.938-0.529,1.099c-0.304,0.137-0.988,0.204-2.052,0.204
		c-0.819,0-1.351-0.019-1.595-0.055c-0.376-0.056-0.632-0.188-0.768-0.396c-0.137-0.204-0.205-0.562-0.205-1.068h1.32
		c0,0.24,0.052,0.38,0.156,0.42C-256.438,771.964-256.072,771.983-255.444,771.983z"/>
	<path fill="#FFFFFF" d="M-251.801,772.95v-4.291h4.62v1.039h-3.3v0.594h3.149v1.032h-3.149v0.587h3.3v1.039H-251.801
		L-251.801,772.95z"/>
	<path fill="#FFFFFF" d="M-246.059,768.659h3.839c0.472,0,0.806,0.087,1.002,0.258c0.212,0.189,0.318,0.521,0.318,0.99
		c0,0.364-0.044,0.637-0.132,0.815c-0.092,0.182-0.246,0.313-0.461,0.396c0.239,0.104,0.399,0.21,0.479,0.317
		c0.076,0.107,0.114,0.291,0.114,0.554v0.959h-1.32v-0.769c0-0.111-0.032-0.208-0.097-0.289c-0.075-0.095-0.187-0.143-0.335-0.143
		h-2.087v1.199h-1.32V768.659L-246.059,768.659z M-244.739,769.771v0.868h2.117c0.145,0,0.249-0.03,0.312-0.095
		c0.061-0.061,0.091-0.173,0.091-0.337s-0.032-0.277-0.097-0.342c-0.063-0.064-0.166-0.096-0.306-0.096L-244.739,769.771
		L-244.739,769.771z"/>
	<path fill="#FFFFFF" d="M-237.84,768.665h2.268l2.124,4.285h-1.541l-0.409-0.713h-2.616l-0.407,0.713h-1.542L-237.84,768.665z
		 M-236.604,769.632h-0.204l-0.715,1.494h1.632L-236.604,769.632z"/>
	<path fill="#FFFFFF" d="M-230.256,768.6c1.225,0,1.979,0.104,2.262,0.307c0.248,0.178,0.372,0.646,0.372,1.404h-1.326
		c0-0.247-0.066-0.405-0.198-0.475c-0.164-0.084-0.534-0.126-1.11-0.126c-0.644,0-1.021,0.051-1.134,0.15
		c-0.113,0.099-0.168,0.416-0.168,0.948c0,0.526,0.056,0.842,0.168,0.941c0.112,0.1,0.49,0.148,1.134,0.148
		c0.584,0,0.95-0.035,1.099-0.107c0.144-0.068,0.215-0.23,0.215-0.491h1.32c0,0.765-0.12,1.231-0.359,1.403
		c-0.284,0.204-1.042,0.307-2.275,0.307c-1.231,0-1.976-0.111-2.232-0.336c-0.26-0.225-0.39-0.849-0.39-1.872
		c0-1.021,0.124-1.639,0.372-1.854C-232.238,768.716-231.488,768.6-230.256,768.6z"/>
	<path fill="#FFFFFF" d="M-225.408,768.673v1.5h2.851v-1.5h1.32v4.283h-1.32v-1.673h-2.851v1.673h-1.32v-4.283H-225.408z"/>
</g>
<circle fill="#494949" cx="-281.5" cy="470.5" r="15"/>
<circle fill="#494949" cx="-209.5" cy="470.5" r="15"/>
<circle fill="#B2B2B2" cx="-281.5" cy="532.5" r="16"/>
<circle fill="#B2B2B2" cx="-209.5" cy="532.5" r="16"/>
<circle fill="#B2B2B2" cx="-245.5" cy="596.5" r="25"/>
<circle fill="#B2B2B2" cx="-245.5" cy="671.5" r="25"/>
<circle fill="#494949" cx="-281.5" cy="730.5" r="15"/>
<circle fill="#494949" cx="-209.5" cy="730.5" r="15"/>
<line fill="#FFFFFF" stroke="#EFEFEF" stroke-width="2" stroke-miterlimit="10" x1="-209.5" y1="470.5" x2="-209.5" y2="532.5"/>
<line fill="#FFFFFF" stroke="#EFEFEF" stroke-width="2" stroke-miterlimit="10" x1="-281.5" y1="470.5" x2="-281.5" y2="532.5"/>
<line fill="none" stroke="#EFEFEF" stroke-width="2" stroke-miterlimit="10" x1="-281.5" y1="532.5" x2="-281.5" y2="596.5"/>
<line fill="none" stroke="#EFEFEF" stroke-width="2" stroke-miterlimit="10" x1="-245.5" y1="596.5" x2="-281.5" y2="596.5"/>
<line fill="none" stroke="#EFEFEF" stroke-width="2" stroke-miterlimit="10" x1="-209.5" y1="532.5" x2="-209.5" y2="671.5"/>
<line fill="none" stroke="#EFEFEF" stroke-width="2" stroke-miterlimit="10" x1="-245.5" y1="671.5" x2="-209.5" y2="671.5"/>
<g>
	<path fill="#F4F4F4" d="M-272.672,625.084h4.932v1.098h-3.51v0.882h3.339v1.073h-3.339v1.613h-1.422V625.084z"/>
	<path fill="#F4F4F4" d="M-267.415,629.75v-4.666h3.435c0.811,0.003,1.29,0.011,1.436,0.024c0.167,0.016,0.317,0.064,0.453,0.146
		c0.136,0.081,0.241,0.184,0.316,0.309c0.078,0.135,0.124,0.275,0.14,0.421c0.021,0.171,0.031,0.377,0.031,0.618
		c0,0.381-0.026,0.646-0.079,0.797c-0.08,0.224-0.23,0.378-0.451,0.465c-0.075,0.029-0.188,0.056-0.338,0.078
		c0.298,0.023,0.513,0.108,0.643,0.257c0.057,0.066,0.098,0.142,0.121,0.228c0.024,0.085,0.041,0.21,0.05,0.374
		c0.002,0.084,0.003,0.257,0.003,0.517v0.434h-1.401v-0.25c0-0.277-0.013-0.477-0.038-0.598c-0.037-0.173-0.129-0.275-0.277-0.308
		c-0.098-0.021-0.304-0.03-0.619-0.03h-2.003v1.186H-267.415z M-265.993,627.398h2c0.298-0.005,0.475-0.009,0.53-0.014
		c0.201-0.012,0.327-0.073,0.379-0.185c0.037-0.077,0.055-0.208,0.055-0.394c0-0.159-0.016-0.277-0.048-0.355
		c-0.048-0.113-0.163-0.178-0.345-0.191c-0.064-0.004-0.255-0.008-0.574-0.01h-1.996V627.398z"/>
	<path fill="#F4F4F4" d="M-261.116,625.084h5.168v1.098h-3.767v0.674h3.575v1.025h-3.575v0.748h3.794v1.121h-5.195V625.084z"/>
	<path fill="#F4F4F4" d="M-248.599,628.807l-0.537,0.991l-0.458-0.325c-0.182,0.142-0.414,0.231-0.694,0.271
		c-0.365,0.05-1.073,0.075-2.126,0.075c-0.978,0-1.654-0.025-2.03-0.075c-0.544-0.073-0.878-0.331-1.001-0.776
		c-0.084-0.305-0.126-0.822-0.126-1.551c0-0.728,0.042-1.243,0.126-1.549c0.123-0.444,0.457-0.703,1.001-0.775
		c0.378-0.051,1.071-0.076,2.078-0.076s1.7,0.025,2.078,0.076c0.544,0.072,0.878,0.331,1.001,0.775
		c0.059,0.212,0.095,0.449,0.106,0.711c0.014,0.269,0.021,0.559,0.021,0.868c0,0.458-0.014,0.808-0.041,1.05L-248.599,628.807z
		 M-252.034,626.779l1.449,0.916c0.002-0.063,0.003-0.121,0.003-0.174c0-0.314-0.009-0.541-0.027-0.68
		c-0.032-0.237-0.105-0.395-0.219-0.473c-0.103-0.072-0.318-0.117-0.646-0.133c-0.116-0.005-0.414-0.007-0.892-0.007
		c-0.75,0-1.201,0.02-1.354,0.058c-0.185,0.049-0.303,0.156-0.355,0.325c-0.05,0.169-0.075,0.481-0.075,0.94
		c0,0.273,0.016,0.475,0.048,0.604c0.055,0.237,0.226,0.372,0.513,0.407c0.209,0.027,0.643,0.041,1.299,0.041
		c0.579,0,0.977-0.016,1.193-0.045l-1.504-0.797L-252.034,626.779z"/>
	<path fill="#F4F4F4" d="M-248.534,625.084h1.422v2.144c0.007,0.492,0.024,0.804,0.051,0.933c0.045,0.222,0.201,0.352,0.465,0.391
		c0.242,0.036,0.607,0.055,1.097,0.055c0.506,0,0.861-0.016,1.066-0.045c0.298-0.046,0.465-0.217,0.499-0.513
		c0.027-0.239,0.041-0.513,0.041-0.82v-2.144h1.422v2.144c-0.016,0.747-0.04,1.236-0.072,1.466
		c-0.057,0.388-0.244,0.674-0.561,0.858c-0.235,0.135-0.629,0.217-1.183,0.246c-0.255,0.014-0.654,0.021-1.196,0.021
		c-0.8,0-1.368-0.022-1.706-0.068c-0.255-0.034-0.458-0.081-0.608-0.142s-0.278-0.146-0.383-0.259
		c-0.144-0.152-0.236-0.344-0.277-0.574c-0.045-0.262-0.069-0.578-0.072-0.949l-0.007-0.599V625.084z"/>
	<path fill="#F4F4F4" d="M-241.838,625.084h5.168v1.098h-3.767v0.674h3.575v1.025h-3.575v0.748h3.794v1.121h-5.195V625.084z"/>
	<path fill="#F4F4F4" d="M-236.199,625.084h2.492l2.444,3.48h0.147l-0.034-3.48h1.446v4.666h-2.471l-2.454-3.482h-0.154l0.031,3.482
		h-1.446V625.084z"/>
	<path fill="#F4F4F4" d="M-224.615,627.949h1.422c0.009,0.228,0.014,0.384,0.014,0.468c0,0.34-0.054,0.612-0.161,0.817
		c-0.112,0.214-0.325,0.363-0.639,0.447c-0.344,0.094-0.939,0.141-1.784,0.141c-0.932,0-1.56-0.016-1.883-0.045
		c-0.301-0.025-0.538-0.064-0.711-0.119s-0.317-0.135-0.431-0.24c-0.153-0.141-0.25-0.328-0.291-0.561
		c-0.045-0.243-0.068-0.713-0.068-1.408c0-0.667,0.017-1.117,0.051-1.35c0.05-0.349,0.186-0.602,0.407-0.759
		c0.168-0.118,0.438-0.203,0.807-0.253c0.383-0.05,1.07-0.075,2.061-0.075c0.59,0,1.011,0.013,1.261,0.038
		c0.378,0.036,0.654,0.109,0.827,0.219c0.214,0.134,0.35,0.329,0.407,0.584c0.041,0.183,0.062,0.393,0.062,0.633
		c0,0.041-0.001,0.131-0.003,0.27h-1.422c-0.004-0.114-0.009-0.191-0.014-0.232c-0.018-0.139-0.081-0.227-0.188-0.264
		c-0.162-0.055-0.604-0.082-1.326-0.082c-0.492,0-0.832,0.014-1.019,0.041c-0.228,0.032-0.369,0.156-0.424,0.373
		c-0.043,0.176-0.065,0.458-0.065,0.848c0,0.401,0.021,0.678,0.065,0.83c0.055,0.199,0.205,0.313,0.451,0.346
		c0.201,0.025,0.553,0.037,1.056,0.037c0.544,0,0.916-0.011,1.114-0.033c0.187-0.021,0.305-0.088,0.355-0.202
		C-224.643,628.321-224.62,628.165-224.615,627.949z"/>
	<path fill="#F4F4F4" d="M-223.156,625.084h1.87l1.521,1.87l1.456-1.87h1.853l-2.553,3.016v1.65h-1.47v-1.65L-223.156,625.084z"/>
</g>
<g>
	<path fill="#F4F4F4" d="M-274.672,705.25v-4.666h3.435c0.811,0.003,1.29,0.011,1.436,0.024c0.167,0.016,0.317,0.064,0.453,0.146
		c0.136,0.081,0.241,0.184,0.316,0.309c0.078,0.135,0.124,0.275,0.14,0.421c0.021,0.171,0.031,0.377,0.031,0.618
		c0,0.381-0.026,0.646-0.079,0.797c-0.08,0.224-0.23,0.378-0.451,0.465c-0.075,0.029-0.188,0.056-0.338,0.078
		c0.298,0.023,0.513,0.108,0.643,0.257c0.057,0.066,0.098,0.142,0.121,0.228c0.024,0.085,0.041,0.21,0.05,0.374
		c0.002,0.084,0.003,0.257,0.003,0.517v0.434h-1.401V705c0-0.277-0.013-0.477-0.038-0.598c-0.037-0.173-0.129-0.275-0.277-0.308
		c-0.098-0.021-0.304-0.03-0.619-0.03h-2.003v1.186H-274.672z M-273.25,702.898h2c0.298-0.005,0.475-0.009,0.53-0.014
		c0.201-0.012,0.327-0.073,0.379-0.185c0.037-0.077,0.055-0.208,0.055-0.394c0-0.159-0.016-0.277-0.048-0.355
		c-0.048-0.113-0.163-0.178-0.345-0.191c-0.064-0.004-0.255-0.008-0.574-0.01h-1.996V702.898z"/>
	<path fill="#F4F4F4" d="M-268.373,700.584h5.168v1.098h-3.767v0.674h3.575v1.025h-3.575v0.748h3.794v1.121h-5.195V700.584z"/>
	<path fill="#F4F4F4" d="M-262.897,703.705h1.377c-0.002,0.23,0.044,0.378,0.14,0.444c0.05,0.032,0.107,0.054,0.171,0.065
		c0.064,0.011,0.175,0.019,0.335,0.023c0.08,0.002,0.341,0.005,0.783,0.007c0.606-0.002,0.957-0.006,1.053-0.011
		c0.18-0.014,0.298-0.037,0.355-0.071c0.08-0.05,0.12-0.162,0.12-0.335c0-0.118-0.025-0.201-0.075-0.25
		c-0.068-0.065-0.231-0.101-0.489-0.105c-0.178,0-0.549-0.014-1.114-0.041c-0.583-0.027-0.961-0.043-1.135-0.048
		c-0.451-0.014-0.769-0.066-0.954-0.157c-0.237-0.116-0.392-0.314-0.465-0.595c-0.041-0.155-0.062-0.357-0.062-0.608
		c0-0.528,0.1-0.901,0.301-1.117c0.15-0.164,0.378-0.272,0.684-0.325c0.276-0.046,0.932-0.068,1.969-0.068
		c0.674,0,1.151,0.02,1.429,0.058c0.367,0.053,0.631,0.145,0.793,0.273c0.219,0.181,0.328,0.503,0.328,0.968
		c0,0.05-0.001,0.13-0.003,0.239h-1.377c-0.004-0.111-0.013-0.189-0.024-0.232c-0.032-0.128-0.137-0.199-0.314-0.215
		c-0.157-0.014-0.54-0.021-1.148-0.021c-0.602,0-0.958,0.018-1.07,0.052c-0.125,0.041-0.188,0.147-0.188,0.317
		c0,0.164,0.066,0.265,0.198,0.301c0.112,0.03,0.614,0.059,1.507,0.086c0.809,0.022,1.325,0.051,1.548,0.086
		c0.226,0.033,0.405,0.085,0.539,0.153c0.133,0.068,0.24,0.165,0.319,0.29c0.121,0.186,0.181,0.482,0.181,0.893
		c0,0.458-0.059,0.794-0.178,1.008c-0.119,0.213-0.312,0.357-0.581,0.435c-0.264,0.077-0.992,0.116-2.184,0.116
		c-0.725,0-1.248-0.02-1.569-0.059c-0.392-0.045-0.673-0.134-0.844-0.266c-0.185-0.142-0.294-0.341-0.328-0.599
		c-0.018-0.125-0.027-0.273-0.027-0.444V703.705z"/>
	<path fill="#F4F4F4" d="M-253.542,700.516c0.98,0,1.659,0.025,2.037,0.076c0.544,0.072,0.878,0.331,1.001,0.775
		c0.084,0.306,0.126,0.822,0.126,1.552c0,0.727-0.042,1.243-0.126,1.548c-0.123,0.445-0.457,0.703-1.001,0.776
		c-0.376,0.05-1.069,0.075-2.078,0.075c-1.007,0-1.7-0.025-2.078-0.075c-0.544-0.073-0.878-0.331-1.001-0.776
		c-0.084-0.305-0.126-0.821-0.126-1.548c0-0.731,0.042-1.249,0.126-1.552c0.123-0.444,0.457-0.703,1.001-0.775
		C-255.281,700.541-254.574,700.516-253.542,700.516z M-253.638,701.729c-0.713,0-1.146,0.02-1.299,0.058
		c-0.185,0.049-0.303,0.156-0.355,0.325c-0.05,0.166-0.075,0.473-0.075,0.919c0,0.29,0.015,0.498,0.044,0.626
		c0.057,0.237,0.229,0.372,0.516,0.407c0.212,0.027,0.62,0.041,1.224,0.041s1.012-0.014,1.224-0.041
		c0.287-0.035,0.458-0.17,0.513-0.407c0.032-0.13,0.048-0.331,0.048-0.604c0-0.336-0.009-0.573-0.027-0.715
		c-0.032-0.234-0.105-0.391-0.219-0.469c-0.103-0.072-0.318-0.117-0.646-0.133C-252.81,701.731-253.125,701.729-253.638,701.729z"/>
	<path fill="#F4F4F4" d="M-249.816,700.584h2.492l2.444,3.48h0.147l-0.034-3.48h1.446v4.666h-2.471l-2.454-3.482h-0.154l0.031,3.482
		h-1.446V700.584z"/>
	<path fill="#F4F4F4" d="M-237.488,705.25l-0.4-0.789h-3.086l-0.4,0.789h-1.624l2.475-4.666h2.208l2.44,4.666H-237.488z
		 M-238.387,703.438l-0.899-1.767h-0.284l-0.899,1.767H-238.387z"/>
	<path fill="#F4F4F4" d="M-235.663,700.584h2.492l2.444,3.48h0.147l-0.034-3.48h1.446v4.666h-2.471l-2.454-3.482h-0.154l0.031,3.482
		h-1.446V700.584z"/>
	<path fill="#F4F4F4" d="M-224.079,703.449h1.422c0.009,0.228,0.014,0.384,0.014,0.468c0,0.34-0.054,0.612-0.161,0.817
		c-0.112,0.214-0.325,0.363-0.639,0.447c-0.344,0.094-0.939,0.141-1.784,0.141c-0.932,0-1.56-0.016-1.883-0.045
		c-0.301-0.025-0.538-0.064-0.711-0.119s-0.317-0.135-0.431-0.24c-0.153-0.141-0.25-0.328-0.291-0.561
		c-0.045-0.243-0.068-0.713-0.068-1.408c0-0.667,0.017-1.117,0.051-1.35c0.05-0.349,0.186-0.602,0.407-0.759
		c0.168-0.118,0.438-0.203,0.807-0.253c0.383-0.05,1.07-0.075,2.061-0.075c0.59,0,1.011,0.013,1.261,0.038
		c0.378,0.036,0.654,0.109,0.827,0.219c0.214,0.134,0.35,0.329,0.407,0.584c0.041,0.183,0.062,0.393,0.062,0.633
		c0,0.041-0.001,0.131-0.003,0.27h-1.422c-0.004-0.114-0.009-0.191-0.014-0.232c-0.018-0.139-0.081-0.227-0.188-0.264
		c-0.162-0.055-0.604-0.082-1.326-0.082c-0.492,0-0.832,0.014-1.019,0.041c-0.228,0.032-0.369,0.156-0.424,0.373
		c-0.043,0.176-0.065,0.458-0.065,0.848c0,0.401,0.021,0.678,0.065,0.83c0.055,0.199,0.205,0.313,0.451,0.346
		c0.201,0.025,0.553,0.037,1.056,0.037c0.544,0,0.916-0.011,1.114-0.033c0.187-0.021,0.305-0.088,0.355-0.202
		C-224.106,703.821-224.083,703.665-224.079,703.449z"/>
	<path fill="#F4F4F4" d="M-222.151,700.584h5.168v1.098h-3.767v0.674h3.575v1.025h-3.575v0.748h3.794v1.121h-5.195V700.584z"/>
</g>
<g>
	<path fill="#F4F4F4" d="M-286.672,748.334h1.494V753h-1.494V748.334z"/>
	<path fill="#F4F4F4" d="M-284.525,748.334h2.492l2.444,3.48h0.147l-0.034-3.48h1.446V753h-2.471l-2.454-3.482h-0.154l0.031,3.482
		h-1.446V748.334z"/>
</g>
<g>
	<path fill="#F4F4F4" d="M-215.068,748.016c0.98,0,1.659,0.025,2.037,0.076c0.544,0.072,0.878,0.331,1.001,0.775
		c0.084,0.306,0.126,0.822,0.126,1.552c0,0.727-0.042,1.243-0.126,1.548c-0.123,0.445-0.457,0.703-1.001,0.776
		c-0.376,0.05-1.069,0.075-2.078,0.075c-1.007,0-1.7-0.025-2.078-0.075c-0.544-0.073-0.878-0.331-1.001-0.776
		c-0.084-0.305-0.126-0.821-0.126-1.548c0-0.731,0.042-1.249,0.126-1.552c0.123-0.444,0.457-0.703,1.001-0.775
		C-216.807,748.041-216.101,748.016-215.068,748.016z M-215.164,749.229c-0.713,0-1.146,0.02-1.299,0.058
		c-0.185,0.049-0.303,0.156-0.355,0.325c-0.05,0.166-0.075,0.473-0.075,0.919c0,0.29,0.015,0.498,0.044,0.626
		c0.057,0.237,0.229,0.372,0.516,0.407c0.212,0.027,0.62,0.041,1.224,0.041s1.012-0.014,1.224-0.041
		c0.287-0.035,0.458-0.17,0.513-0.407c0.032-0.13,0.048-0.331,0.048-0.604c0-0.336-0.009-0.573-0.027-0.715
		c-0.032-0.234-0.105-0.391-0.219-0.469c-0.103-0.072-0.318-0.117-0.646-0.133C-214.336,749.231-214.651,749.229-215.164,749.229z"
		/>
	<path fill="#F4F4F4" d="M-211.367,748.084h1.422v2.144c0.007,0.492,0.024,0.804,0.051,0.933c0.045,0.222,0.201,0.352,0.465,0.391
		c0.242,0.036,0.607,0.055,1.097,0.055c0.506,0,0.861-0.016,1.066-0.045c0.298-0.046,0.465-0.217,0.499-0.513
		c0.027-0.239,0.041-0.513,0.041-0.82v-2.144h1.422v2.144c-0.016,0.747-0.04,1.236-0.072,1.466
		c-0.057,0.388-0.244,0.674-0.561,0.858c-0.235,0.135-0.629,0.217-1.183,0.246c-0.255,0.014-0.654,0.021-1.196,0.021
		c-0.8,0-1.368-0.022-1.706-0.068c-0.255-0.034-0.458-0.081-0.608-0.142s-0.278-0.146-0.383-0.259
		c-0.144-0.152-0.236-0.344-0.277-0.574c-0.045-0.262-0.069-0.578-0.072-0.949l-0.007-0.599V748.084z"/>
	<path fill="#F4F4F4" d="M-204.999,748.084h5.646v1.189h-2.075v3.477h-1.494v-3.477h-2.078V748.084z"/>
</g>
<rect x="-302" y="493.75" fill="#1C1C1C" width="39.825" height="12"/>
<rect x="-226.164" y="493.75" fill="#1C1C1C" width="32.664" height="12"/>
<g>
	<path fill="#F4F4F4" d="M-301.672,497.584h4.932v1.098h-3.51v0.882h3.339v1.073h-3.339v1.613h-1.422V497.584z"/>
	<path fill="#F4F4F4" d="M-296.415,502.25v-4.666h3.435c0.811,0.003,1.29,0.011,1.436,0.024c0.167,0.016,0.317,0.064,0.453,0.146
		c0.136,0.081,0.241,0.184,0.316,0.309c0.078,0.135,0.124,0.275,0.14,0.421c0.021,0.171,0.031,0.377,0.031,0.618
		c0,0.381-0.026,0.646-0.079,0.797c-0.08,0.224-0.23,0.378-0.451,0.465c-0.075,0.029-0.188,0.056-0.338,0.078
		c0.298,0.023,0.513,0.108,0.643,0.257c0.057,0.066,0.098,0.142,0.121,0.228c0.024,0.085,0.041,0.21,0.05,0.374
		c0.002,0.084,0.003,0.257,0.003,0.517v0.434h-1.401V502c0-0.277-0.013-0.477-0.038-0.598c-0.037-0.173-0.129-0.275-0.277-0.308
		c-0.098-0.021-0.304-0.03-0.619-0.03h-2.003v1.186H-296.415z M-294.993,499.898h2c0.298-0.005,0.475-0.009,0.53-0.014
		c0.201-0.012,0.327-0.073,0.379-0.185c0.037-0.077,0.055-0.208,0.055-0.394c0-0.159-0.016-0.277-0.048-0.355
		c-0.048-0.113-0.163-0.178-0.345-0.191c-0.064-0.004-0.255-0.008-0.574-0.01h-1.996V499.898z"/>
	<path fill="#F4F4F4" d="M-290.116,497.584h5.168v1.098h-3.767v0.674h3.575v1.025h-3.575v0.748h3.794v1.121h-5.195V497.584z"/>
	<path fill="#F4F4F4" d="M-277.599,501.307l-0.537,0.991l-0.458-0.325c-0.182,0.142-0.414,0.231-0.694,0.271
		c-0.365,0.05-1.073,0.075-2.126,0.075c-0.978,0-1.654-0.025-2.03-0.075c-0.544-0.073-0.878-0.331-1.001-0.776
		c-0.084-0.305-0.126-0.822-0.126-1.551c0-0.728,0.042-1.243,0.126-1.549c0.123-0.444,0.457-0.703,1.001-0.775
		c0.378-0.051,1.071-0.076,2.078-0.076s1.7,0.025,2.078,0.076c0.544,0.072,0.878,0.331,1.001,0.775
		c0.059,0.212,0.095,0.449,0.106,0.711c0.014,0.269,0.021,0.559,0.021,0.868c0,0.458-0.014,0.808-0.041,1.05L-277.599,501.307z
		 M-281.034,499.279l1.449,0.916c0.002-0.063,0.003-0.121,0.003-0.174c0-0.314-0.009-0.541-0.027-0.68
		c-0.032-0.237-0.105-0.395-0.219-0.473c-0.103-0.072-0.318-0.117-0.646-0.133c-0.116-0.005-0.414-0.007-0.892-0.007
		c-0.75,0-1.201,0.02-1.354,0.058c-0.185,0.049-0.303,0.156-0.355,0.325c-0.05,0.169-0.075,0.481-0.075,0.94
		c0,0.273,0.016,0.475,0.048,0.604c0.055,0.237,0.226,0.372,0.513,0.407c0.209,0.027,0.643,0.041,1.299,0.041
		c0.579,0,0.977-0.016,1.193-0.045l-1.504-0.797L-281.034,499.279z"/>
	<path fill="#F4F4F4" d="M-271.324,500.449h1.422c0.009,0.228,0.014,0.384,0.014,0.468c0,0.34-0.054,0.612-0.161,0.817
		c-0.112,0.214-0.325,0.363-0.639,0.447c-0.344,0.094-0.939,0.141-1.784,0.141c-0.932,0-1.56-0.016-1.883-0.045
		c-0.301-0.025-0.538-0.064-0.711-0.119s-0.317-0.135-0.431-0.24c-0.153-0.141-0.25-0.328-0.291-0.561
		c-0.045-0.243-0.068-0.713-0.068-1.408c0-0.667,0.017-1.117,0.051-1.35c0.05-0.349,0.186-0.602,0.407-0.759
		c0.168-0.118,0.438-0.203,0.807-0.253c0.383-0.05,1.07-0.075,2.061-0.075c0.59,0,1.011,0.013,1.261,0.038
		c0.378,0.036,0.654,0.109,0.827,0.219c0.214,0.134,0.35,0.329,0.407,0.584c0.041,0.183,0.062,0.393,0.062,0.633
		c0,0.041-0.001,0.131-0.003,0.27h-1.422c-0.004-0.114-0.009-0.191-0.014-0.232c-0.018-0.139-0.081-0.227-0.188-0.264
		c-0.162-0.055-0.604-0.082-1.326-0.082c-0.492,0-0.832,0.014-1.019,0.041c-0.228,0.032-0.369,0.156-0.424,0.373
		c-0.043,0.176-0.065,0.458-0.065,0.848c0,0.401,0.021,0.678,0.065,0.83c0.055,0.199,0.205,0.313,0.451,0.346
		c0.201,0.025,0.553,0.037,1.056,0.037c0.544,0,0.916-0.011,1.114-0.033c0.187-0.021,0.305-0.088,0.355-0.202
		C-271.351,500.821-271.328,500.665-271.324,500.449z"/>
	<path fill="#F4F4F4" d="M-269.816,497.584h1.562l1.702,3.494h0.267l1.685-3.494h1.552l-2.276,4.666h-2.184L-269.816,497.584z"/>
</g>
<g>
	<path fill="#F4F4F4" d="M-224.835,502.25v-4.666h3.435c0.811,0.003,1.29,0.011,1.436,0.024c0.167,0.016,0.317,0.064,0.453,0.146
		c0.136,0.081,0.241,0.184,0.316,0.309c0.078,0.135,0.124,0.275,0.14,0.421c0.021,0.171,0.031,0.377,0.031,0.618
		c0,0.381-0.026,0.646-0.079,0.797c-0.08,0.224-0.23,0.378-0.451,0.465c-0.075,0.029-0.188,0.056-0.338,0.078
		c0.298,0.023,0.513,0.108,0.643,0.257c0.057,0.066,0.098,0.142,0.121,0.228c0.024,0.085,0.041,0.21,0.05,0.374
		c0.002,0.084,0.003,0.257,0.003,0.517v0.434h-1.401V502c0-0.277-0.013-0.477-0.038-0.598c-0.037-0.173-0.129-0.275-0.277-0.308
		c-0.098-0.021-0.304-0.03-0.619-0.03h-2.003v1.186H-224.835z M-223.414,499.898h2c0.298-0.005,0.475-0.009,0.53-0.014
		c0.201-0.012,0.327-0.073,0.379-0.185c0.037-0.077,0.055-0.208,0.055-0.394c0-0.159-0.016-0.277-0.048-0.355
		c-0.048-0.113-0.163-0.178-0.345-0.191c-0.064-0.004-0.255-0.008-0.574-0.01h-1.996V499.898z"/>
	<path fill="#F4F4F4" d="M-218.536,497.584h5.168v1.098h-3.767v0.674h3.575v1.025h-3.575v0.748h3.794v1.121h-5.195V497.584z"/>
	<path fill="#F4F4F4" d="M-213.061,500.705h1.377c-0.002,0.23,0.044,0.378,0.14,0.444c0.05,0.032,0.107,0.054,0.171,0.065
		c0.064,0.011,0.175,0.019,0.335,0.023c0.08,0.002,0.341,0.005,0.783,0.007c0.606-0.002,0.957-0.006,1.053-0.011
		c0.18-0.014,0.298-0.037,0.355-0.071c0.08-0.05,0.12-0.162,0.12-0.335c0-0.118-0.025-0.201-0.075-0.25
		c-0.068-0.065-0.231-0.101-0.489-0.105c-0.178,0-0.549-0.014-1.114-0.041c-0.583-0.027-0.961-0.043-1.135-0.048
		c-0.451-0.014-0.769-0.066-0.954-0.157c-0.237-0.116-0.392-0.314-0.465-0.595c-0.041-0.155-0.062-0.357-0.062-0.608
		c0-0.528,0.1-0.901,0.301-1.117c0.15-0.164,0.378-0.272,0.684-0.325c0.276-0.046,0.932-0.068,1.969-0.068
		c0.674,0,1.151,0.02,1.429,0.058c0.367,0.053,0.631,0.145,0.793,0.273c0.219,0.181,0.328,0.503,0.328,0.968
		c0,0.05-0.001,0.13-0.003,0.239h-1.377c-0.004-0.111-0.013-0.189-0.024-0.232c-0.032-0.128-0.137-0.199-0.314-0.215
		c-0.157-0.014-0.54-0.021-1.148-0.021c-0.602,0-0.958,0.018-1.07,0.052c-0.125,0.041-0.188,0.147-0.188,0.317
		c0,0.164,0.066,0.265,0.198,0.301c0.112,0.03,0.614,0.059,1.507,0.086c0.809,0.022,1.325,0.051,1.548,0.086
		c0.226,0.033,0.405,0.085,0.539,0.153c0.133,0.068,0.24,0.165,0.319,0.29c0.121,0.186,0.181,0.482,0.181,0.893
		c0,0.458-0.059,0.794-0.178,1.008c-0.119,0.213-0.312,0.357-0.581,0.435c-0.264,0.077-0.992,0.116-2.184,0.116
		c-0.725,0-1.248-0.02-1.569-0.059c-0.392-0.045-0.673-0.134-0.844-0.266c-0.185-0.142-0.294-0.341-0.328-0.599
		c-0.018-0.125-0.027-0.273-0.027-0.444V500.705z"/>
	<path fill="#F4F4F4" d="M-200.67,500.449h1.422c0.009,0.228,0.014,0.384,0.014,0.468c0,0.34-0.054,0.612-0.161,0.817
		c-0.112,0.214-0.325,0.363-0.639,0.447c-0.344,0.094-0.939,0.141-1.784,0.141c-0.932,0-1.56-0.016-1.883-0.045
		c-0.301-0.025-0.538-0.064-0.711-0.119s-0.317-0.135-0.431-0.24c-0.153-0.141-0.25-0.328-0.291-0.561
		c-0.045-0.243-0.068-0.713-0.068-1.408c0-0.667,0.017-1.117,0.051-1.35c0.05-0.349,0.186-0.602,0.407-0.759
		c0.168-0.118,0.438-0.203,0.807-0.253c0.383-0.05,1.07-0.075,2.061-0.075c0.59,0,1.011,0.013,1.261,0.038
		c0.378,0.036,0.654,0.109,0.827,0.219c0.214,0.134,0.35,0.329,0.407,0.584c0.041,0.183,0.062,0.393,0.062,0.633
		c0,0.041-0.001,0.131-0.003,0.27h-1.422c-0.004-0.114-0.009-0.191-0.014-0.232c-0.018-0.139-0.081-0.227-0.188-0.264
		c-0.162-0.055-0.604-0.082-1.326-0.082c-0.492,0-0.832,0.014-1.019,0.041c-0.228,0.032-0.369,0.156-0.424,0.373
		c-0.043,0.176-0.065,0.458-0.065,0.848c0,0.401,0.021,0.678,0.065,0.83c0.055,0.199,0.205,0.313,0.451,0.346
		c0.201,0.025,0.553,0.037,1.056,0.037c0.544,0,0.916-0.011,1.114-0.033c0.187-0.021,0.305-0.088,0.355-0.202
		C-200.698,500.821-200.675,500.665-200.67,500.449z"/>
	<path fill="#F4F4F4" d="M-199.163,497.584h1.562l1.702,3.494h0.267l1.685-3.494h1.552l-2.276,4.666h-2.184L-199.163,497.584z"/>
</g>
<g>
	<path fill="#F9F9F9" d="M-272.764,413.42h4.463l4.863,9.98h0.762l4.814-9.98h4.434l-6.504,13.33h-6.24L-272.764,413.42z"/>
	<path fill="#F9F9F9" d="M-240.254,421.604h4.062c0.026,0.651,0.039,1.097,0.039,1.338c0,0.97-0.153,1.748-0.459,2.334
		c-0.319,0.612-0.928,1.038-1.826,1.279c-0.983,0.267-2.682,0.4-5.098,0.4c-2.663,0-4.457-0.042-5.381-0.127
		c-0.859-0.071-1.537-0.186-2.031-0.342s-0.905-0.384-1.23-0.684c-0.436-0.403-0.713-0.938-0.83-1.602
		c-0.13-0.696-0.195-2.038-0.195-4.023c0-1.907,0.049-3.193,0.146-3.857c0.143-0.996,0.531-1.719,1.162-2.168
		c0.482-0.339,1.25-0.579,2.305-0.723c1.094-0.144,3.057-0.215,5.889-0.215c1.686,0,2.887,0.036,3.604,0.107
		c1.081,0.104,1.869,0.312,2.363,0.625c0.612,0.384,1,0.94,1.162,1.67c0.117,0.521,0.176,1.123,0.176,1.807
		c0,0.117-0.003,0.374-0.01,0.771h-4.062c-0.013-0.325-0.026-0.547-0.039-0.664c-0.052-0.397-0.231-0.647-0.537-0.752
		c-0.462-0.156-1.725-0.234-3.789-0.234c-1.406,0-2.376,0.039-2.91,0.117c-0.651,0.091-1.055,0.446-1.211,1.064
		c-0.124,0.501-0.186,1.309-0.186,2.422c0,1.146,0.062,1.937,0.186,2.373c0.156,0.566,0.586,0.896,1.289,0.986
		c0.573,0.071,1.579,0.107,3.018,0.107c1.556,0,2.617-0.032,3.184-0.098c0.534-0.059,0.873-0.251,1.016-0.576
		C-240.332,422.668-240.267,422.222-240.254,421.604z"/>
	<path fill="#F9F9F9" d="M-234.746,413.42h14.092v3.135h-10.029v2.52h9.541v3.066h-9.541v4.609h-4.062V413.42z"/>
</g>
</svg>
