<?xml version="1.0" encoding="utf-8"?>
<!-- Generator: Adobe Illustrator 16.0.0, SVG Export Plug-In . SVG Version: 6.00 Build 0)  -->
<!DOCTYPE svg PUBLIC "-//W3C//DTD SVG 1.1//EN" "http://www.w3.org/Graphics/SVG/1.1/DTD/svg11.dtd">
<svg version="1.1"
	 id="svg8" sodipodi:docname="MyModule.svg" inkscape:version="0.92.2 5c3e80d, 2017-08-06" xmlns:dc="http://purl.org/dc/elements/1.1/" xmlns:cc="http://creativecommons.org/ns#" xmlns:rdf="http://www.w3.org/1999/02/22-rdf-syntax-ns#" xmlns:svg="http://www.w3.org/2000/svg" xmlns:sodipodi="http://sodipodi.sourceforge.net/DTD/sodipodi-0.dtd" xmlns:inkscape="http://www.inkscape.org/namespaces/inkscape"
	 xmlns="http://www.w3.org/2000/svg" xmlns:xlink="http://www.w3.org/1999/xlink" x="0px" y="0px" width="150px" height="380px"
	 viewBox="-305.5 396.5 150 380" enable-background="new -305.5 396.5 150 380" xml:space="preserve">
<g id="layer1" transform="translate(0,-196.45832)" inkscape:groupmode="layer" inkscape:label="Layer 1">
	<path id="rect817" inkscape:connector-curvature="0" fill="#1C1C1C" d="M-305.5,592.958h150v380h-150V592.958z"/>
</g>
<g>
	<path fill="#969696" d="M-244.124,433.734h-1.771c0-0.484,0.019-0.854,0.057-1.104c0.05-0.311,0.163-0.552,0.34-0.725
		c0.177-0.173,0.433-0.291,0.767-0.354c0.463-0.085,1.285-0.128,2.465-0.128c1.119,0,1.815,0.016,2.087,0.04
		c0.451,0.041,0.779,0.146,0.984,0.31c0.205,0.165,0.333,0.387,0.382,0.668c0.044,0.253,0.066,0.547,0.066,0.884
		c0,0.448-0.032,0.778-0.097,0.993c-0.1,0.331-0.287,0.563-0.562,0.707c-0.308,0.153-0.788,0.253-1.441,0.291
		c-1.603,0.1-2.518,0.163-2.747,0.19c-0.255,0.025-0.417,0.111-0.488,0.254c-0.023,0.062-0.04,0.181-0.048,0.356h5.48v1.38h-7.159
		c-0.012-0.24-0.018-0.443-0.018-0.611c0-0.735,0.022-1.255,0.066-1.551c0.088-0.562,0.412-0.914,0.971-1.055
		c0.287-0.07,0.593-0.119,0.918-0.146l1.252-0.098c0.911-0.07,1.427-0.112,1.547-0.127c0.281-0.029,0.461-0.094,0.541-0.193
		c0.05-0.062,0.075-0.186,0.075-0.373c0-0.208-0.029-0.348-0.088-0.418c-0.073-0.091-0.236-0.146-0.488-0.167
		c-0.144-0.012-0.505-0.018-1.085-0.018c-0.812,0-1.359,0.021-1.644,0.062c-0.167,0.023-0.27,0.084-0.308,0.183
		C-244.102,433.081-244.121,433.33-244.124,433.734z"/>
	<path fill="#969696" d="M-230.25,435.035v1.349h-1.16v1.116h-1.736v-1.116h-4.794v-2.298l3.568-2.584h2.962v3.533H-230.25
		L-230.25,435.035z M-233.146,435.035v-2.146h-0.369l-2.791,1.906v0.238L-233.146,435.035L-233.146,435.035z"/>
	<path fill="#969696" d="M-223.957,431.502v5.998h-1.499v-0.559h-0.088c-0.111,0.19-0.234,0.33-0.369,0.406
		c-0.293,0.176-0.792,0.262-1.499,0.262c-0.688,0-1.211-0.056-1.569-0.158c-0.193-0.061-0.365-0.157-0.514-0.296
		c-0.149-0.143-0.253-0.3-0.312-0.481c-0.097-0.284-0.145-0.728-0.145-1.332c0-0.359,0.018-0.652,0.055-0.879
		c0.036-0.222,0.099-0.418,0.187-0.588c0.164-0.316,0.457-0.526,0.879-0.629c0.308-0.076,0.756-0.114,1.345-0.114
		c0.551,0,0.929,0.029,1.134,0.088c0.322,0.097,0.568,0.292,0.738,0.596h0.066v-2.312L-223.957,431.502L-223.957,431.502z
		 M-226.906,434.332c-0.571,0-0.949,0.047-1.134,0.141c-0.132,0.07-0.221,0.188-0.268,0.354c-0.035,0.12-0.053,0.299-0.053,0.535
		c0,0.312,0.031,0.541,0.092,0.682c0.076,0.176,0.275,0.285,0.598,0.33c0.188,0.023,0.417,0.039,0.69,0.039
		c0.586,0,0.979-0.062,1.178-0.188c0.111-0.064,0.186-0.185,0.224-0.352c0.026-0.114,0.04-0.279,0.04-0.497
		c0-0.348-0.04-0.59-0.119-0.725c-0.082-0.138-0.253-0.229-0.514-0.272C-226.348,434.348-226.592,434.332-226.906,434.332z"/>
	<path fill="#969696" d="M-223.175,437.5v-5.998h4.311c0.917,0.003,1.462,0.01,1.635,0.021c0.393,0.021,0.681,0.094,0.866,0.211
		c0.211,0.135,0.349,0.317,0.413,0.559c0.059,0.226,0.088,0.48,0.088,0.764c0,0.354-0.034,0.617-0.101,0.796
		c-0.111,0.29-0.347,0.487-0.708,0.596c0.267,0.048,0.464,0.112,0.593,0.203c0.293,0.193,0.439,0.606,0.439,1.235
		c0,0.49-0.076,0.854-0.229,1.086c-0.135,0.205-0.34,0.349-0.615,0.422c-0.234,0.062-0.627,0.097-1.178,0.1l-1.191,0.009
		L-223.175,437.5L-223.175,437.5z M-221.435,433.865h2.575c0.565,0,0.902-0.021,1.011-0.065c0.144-0.056,0.215-0.199,0.215-0.431
		c0-0.237-0.086-0.379-0.259-0.426c-0.067-0.021-0.39-0.028-0.967-0.031h-2.575V433.865z M-221.435,436.059h2.584
		c0.48-0.003,0.763-0.006,0.848-0.009c0.267-0.012,0.437-0.062,0.51-0.158c0.056-0.073,0.083-0.19,0.083-0.352
		c0-0.252-0.091-0.399-0.272-0.444c-0.064-0.018-0.454-0.024-1.169-0.027h-2.584V436.059L-221.435,436.059z"/>
</g>
<circle fill="#494949" cx="-266.5" cy="470.5" r="15"/>
<circle fill="#494949" cx="-194.5" cy="470.5" r="15"/>
<circle fill="#B2B2B2" cx="-266.5" cy="532.5" r="16"/>
<circle fill="#B2B2B2" cx="-194.5" cy="532.5" r="16"/>
<circle fill="#605F5F" cx="-230.5" cy="596.5" r="25"/>
<circle fill="#605F5F" cx="-230.5" cy="671.5" r="25"/>
<circle fill="#494949" cx="-266.5" cy="730.5" r="15"/>
<circle fill="#494949" cx="-194.5" cy="730.5" r="15"/>
<line fill="none" stroke="#EFEFEF" stroke-width="2" stroke-miterlimit="10" x1="-194.5" y1="470.5" x2="-194.5" y2="532.5"/>
<line fill="none" stroke="#EFEFEF" stroke-width="2" stroke-miterlimit="10" x1="-266.5" y1="470.5" x2="-266.5" y2="532.5"/>
<line fill="none" stroke="#EFEFEF" stroke-width="2" stroke-miterlimit="10" x1="-266.5" y1="532.5" x2="-266.5" y2="596.5"/>
<line fill="none" stroke="#EFEFEF" stroke-width="2" stroke-miterlimit="10" x1="-230.5" y1="596.5" x2="-266.5" y2="596.5"/>
<line fill="none" stroke="#EFEFEF" stroke-width="2" stroke-miterlimit="10" x1="-194.5" y1="532.5" x2="-194.5" y2="671.5"/>
<line fill="none" stroke="#EFEFEF" stroke-width="2" stroke-miterlimit="10" x1="-230.5" y1="671.5" x2="-194.5" y2="671.5"/>
<g>
	<path fill="#F4F4F4" d="M-257.672,625.084h4.932v1.098h-3.51v0.884h3.339v1.071h-3.339v1.613h-1.422V625.084z"/>
	<path fill="#F4F4F4" d="M-252.415,629.75v-4.666h3.435c0.811,0.003,1.29,0.011,1.436,0.024c0.167,0.016,0.317,0.062,0.453,0.146
		c0.136,0.081,0.241,0.184,0.316,0.309c0.078,0.137,0.124,0.275,0.14,0.423c0.021,0.171,0.031,0.377,0.031,0.616
		c0,0.383-0.026,0.646-0.079,0.799c-0.08,0.224-0.23,0.378-0.451,0.465c-0.075,0.027-0.188,0.056-0.338,0.078
		c0.298,0.021,0.513,0.106,0.643,0.257c0.057,0.064,0.098,0.142,0.121,0.228c0.024,0.085,0.041,0.21,0.05,0.374
		c0.002,0.084,0.003,0.259,0.003,0.519v0.434h-1.401v-0.25c0-0.275-0.013-0.477-0.038-0.598c-0.037-0.173-0.129-0.275-0.277-0.31
		c-0.098-0.021-0.304-0.028-0.619-0.028h-2.003v1.186h-1.422V629.75L-252.415,629.75z M-250.993,627.398h2
		c0.298-0.007,0.475-0.011,0.53-0.016c0.201-0.012,0.327-0.073,0.379-0.185c0.037-0.077,0.055-0.208,0.055-0.396
		c0-0.158-0.016-0.275-0.048-0.354c-0.048-0.113-0.163-0.178-0.345-0.191c-0.064-0.004-0.255-0.008-0.574-0.01h-1.996
		L-250.993,627.398L-250.993,627.398z"/>
	<path fill="#F4F4F4" d="M-246.116,625.084h5.168v1.098h-3.767v0.676h3.575v1.023h-3.575v0.748h3.794v1.121h-5.195V625.084z"/>
	<path fill="#F4F4F4" d="M-233.599,628.807l-0.537,0.991l-0.458-0.325c-0.182,0.144-0.414,0.231-0.694,0.271
		c-0.365,0.05-1.073,0.075-2.126,0.075c-0.978,0-1.654-0.025-2.03-0.075c-0.544-0.073-0.878-0.331-1.001-0.776
		c-0.084-0.305-0.126-0.82-0.126-1.551c0-0.728,0.042-1.243,0.126-1.549c0.123-0.444,0.457-0.703,1.001-0.775
		c0.378-0.051,1.071-0.076,2.078-0.076s1.7,0.025,2.078,0.076c0.544,0.072,0.878,0.331,1.001,0.775
		c0.059,0.212,0.095,0.449,0.106,0.711c0.014,0.269,0.021,0.559,0.021,0.868c0,0.458-0.014,0.808-0.041,1.05L-233.599,628.807z
		 M-237.034,626.779l1.449,0.916c0.002-0.063,0.003-0.121,0.003-0.174c0-0.314-0.009-0.541-0.027-0.682
		c-0.032-0.237-0.105-0.395-0.219-0.473c-0.103-0.072-0.318-0.117-0.646-0.133c-0.116-0.006-0.414-0.009-0.892-0.009
		c-0.75,0-1.201,0.021-1.354,0.06c-0.185,0.049-0.303,0.156-0.355,0.325c-0.05,0.169-0.075,0.479-0.075,0.938
		c0,0.273,0.016,0.477,0.048,0.604c0.055,0.235,0.226,0.372,0.513,0.405c0.209,0.027,0.643,0.041,1.299,0.041
		c0.579,0,0.977-0.016,1.193-0.045l-1.504-0.797L-237.034,626.779z"/>
	<path fill="#F4F4F4" d="M-233.534,625.084h1.422v2.144c0.007,0.492,0.024,0.806,0.051,0.935c0.045,0.222,0.201,0.352,0.465,0.391
		c0.242,0.036,0.607,0.057,1.097,0.057c0.506,0,0.861-0.018,1.066-0.047c0.298-0.046,0.465-0.217,0.499-0.513
		c0.027-0.239,0.041-0.513,0.041-0.819v-2.145h1.422v2.145c-0.016,0.746-0.04,1.235-0.072,1.467
		c-0.057,0.388-0.244,0.674-0.561,0.856c-0.235,0.136-0.629,0.217-1.183,0.246c-0.255,0.014-0.654,0.021-1.196,0.021
		c-0.8,0-1.368-0.022-1.706-0.068c-0.255-0.034-0.458-0.081-0.608-0.143c-0.15-0.062-0.278-0.146-0.383-0.26
		c-0.144-0.15-0.236-0.344-0.277-0.572c-0.045-0.264-0.069-0.578-0.072-0.949l-0.007-0.601v-2.145H-233.534z"/>
	<path fill="#F4F4F4" d="M-226.838,625.084h5.168v1.098h-3.767v0.676h3.575v1.023h-3.575v0.748h3.794v1.121h-5.195V625.084z"/>
	<path fill="#F4F4F4" d="M-221.199,625.084h2.492l2.444,3.48h0.147l-0.034-3.48h1.446v4.666h-2.471l-2.454-3.482h-0.154l0.031,3.482
		h-1.446L-221.199,625.084L-221.199,625.084z"/>
	<path fill="#F4F4F4" d="M-209.615,627.949h1.422c0.009,0.228,0.014,0.384,0.014,0.468c0,0.34-0.054,0.612-0.161,0.817
		c-0.112,0.214-0.325,0.361-0.639,0.445c-0.344,0.096-0.939,0.143-1.784,0.143c-0.932,0-1.56-0.018-1.883-0.045
		c-0.301-0.025-0.538-0.064-0.711-0.119c-0.173-0.055-0.317-0.135-0.431-0.24c-0.153-0.141-0.25-0.328-0.291-0.561
		c-0.045-0.243-0.068-0.713-0.068-1.408c0-0.667,0.017-1.117,0.051-1.352c0.05-0.349,0.186-0.602,0.407-0.759
		c0.168-0.118,0.438-0.203,0.807-0.253c0.383-0.05,1.07-0.075,2.061-0.075c0.59,0,1.011,0.015,1.261,0.038
		c0.378,0.036,0.654,0.109,0.827,0.221c0.214,0.134,0.35,0.327,0.407,0.584c0.041,0.183,0.062,0.393,0.062,0.633
		c0,0.041-0.001,0.131-0.003,0.27h-1.422c-0.004-0.113-0.009-0.189-0.014-0.23c-0.018-0.141-0.081-0.229-0.188-0.266
		c-0.162-0.055-0.604-0.082-1.326-0.082c-0.492,0-0.832,0.016-1.019,0.041c-0.228,0.032-0.369,0.156-0.424,0.373
		c-0.043,0.178-0.065,0.458-0.065,0.85c0,0.399,0.021,0.678,0.065,0.83c0.055,0.197,0.205,0.312,0.451,0.346
		c0.201,0.025,0.553,0.037,1.056,0.037c0.544,0,0.916-0.012,1.114-0.033c0.187-0.021,0.305-0.088,0.355-0.202
		C-209.643,628.321-209.62,628.165-209.615,627.949z"/>
	<path fill="#F4F4F4" d="M-208.156,625.084h1.87l1.521,1.87l1.456-1.87h1.853l-2.553,3.016v1.65h-1.47v-1.65L-208.156,625.084z"/>
</g>
<g>
	<path fill="#F4F4F4" d="M-259.672,705.25v-4.666h3.435c0.811,0.003,1.29,0.011,1.436,0.024c0.167,0.016,0.317,0.062,0.453,0.146
		c0.136,0.081,0.241,0.184,0.316,0.309c0.078,0.137,0.124,0.275,0.14,0.423c0.021,0.171,0.031,0.377,0.031,0.616
		c0,0.383-0.026,0.646-0.079,0.799c-0.08,0.224-0.23,0.378-0.451,0.465c-0.075,0.027-0.188,0.056-0.338,0.078
		c0.298,0.021,0.513,0.106,0.643,0.257c0.057,0.064,0.098,0.142,0.121,0.228c0.024,0.085,0.041,0.21,0.05,0.374
		c0.002,0.084,0.003,0.259,0.003,0.519v0.434h-1.401V705c0-0.277-0.013-0.477-0.038-0.598c-0.037-0.175-0.129-0.275-0.277-0.31
		c-0.098-0.021-0.304-0.028-0.619-0.028h-2.003v1.186H-259.672L-259.672,705.25z M-258.25,702.898h2
		c0.298-0.007,0.475-0.011,0.53-0.016c0.201-0.012,0.327-0.073,0.379-0.185c0.037-0.077,0.055-0.208,0.055-0.396
		c0-0.158-0.016-0.275-0.048-0.354c-0.048-0.113-0.163-0.178-0.345-0.191c-0.064-0.004-0.255-0.008-0.574-0.01h-1.996
		L-258.25,702.898L-258.25,702.898z"/>
	<path fill="#F4F4F4" d="M-253.373,700.584h5.168v1.098h-3.767v0.676h3.575v1.023h-3.575v0.748h3.794v1.121h-5.195V700.584z"/>
	<path fill="#F4F4F4" d="M-247.897,703.705h1.377c-0.002,0.229,0.044,0.378,0.14,0.444c0.05,0.03,0.107,0.054,0.171,0.063
		s0.175,0.021,0.335,0.023c0.08,0.002,0.341,0.005,0.783,0.007c0.606-0.002,0.957-0.006,1.053-0.011
		c0.18-0.016,0.298-0.037,0.355-0.071c0.08-0.05,0.12-0.162,0.12-0.335c0-0.118-0.025-0.201-0.075-0.25
		c-0.068-0.065-0.231-0.103-0.489-0.105c-0.178,0-0.549-0.014-1.114-0.041c-0.583-0.025-0.961-0.043-1.135-0.048
		c-0.451-0.014-0.769-0.064-0.954-0.155c-0.237-0.116-0.392-0.314-0.465-0.597c-0.041-0.153-0.062-0.355-0.062-0.606
		c0-0.528,0.1-0.901,0.301-1.117c0.15-0.164,0.378-0.272,0.684-0.325c0.276-0.046,0.932-0.068,1.969-0.068
		c0.674,0,1.151,0.021,1.429,0.06c0.367,0.053,0.631,0.145,0.793,0.271c0.219,0.183,0.328,0.503,0.328,0.97
		c0,0.05-0.001,0.13-0.003,0.237h-1.377c-0.004-0.109-0.013-0.188-0.024-0.23c-0.032-0.128-0.137-0.199-0.314-0.215
		c-0.157-0.016-0.54-0.021-1.148-0.021c-0.602,0-0.958,0.019-1.07,0.052c-0.125,0.041-0.188,0.147-0.188,0.317
		c0,0.164,0.066,0.265,0.198,0.301c0.112,0.03,0.614,0.061,1.507,0.086c0.809,0.022,1.325,0.052,1.548,0.086
		c0.226,0.033,0.405,0.085,0.539,0.153c0.133,0.068,0.24,0.165,0.319,0.29c0.121,0.186,0.181,0.481,0.181,0.893
		c0,0.458-0.059,0.794-0.178,1.01c-0.119,0.213-0.312,0.355-0.581,0.435c-0.264,0.077-0.992,0.116-2.184,0.116
		c-0.725,0-1.248-0.021-1.569-0.061c-0.392-0.045-0.673-0.134-0.844-0.266c-0.185-0.143-0.294-0.341-0.328-0.599
		c-0.018-0.125-0.027-0.273-0.027-0.444L-247.897,703.705L-247.897,703.705z"/>
	<path fill="#F4F4F4" d="M-238.542,700.516c0.98,0,1.659,0.025,2.037,0.076c0.544,0.072,0.878,0.331,1.001,0.775
		c0.084,0.306,0.126,0.822,0.126,1.552c0,0.729-0.042,1.243-0.126,1.548c-0.123,0.445-0.457,0.703-1.001,0.776
		c-0.376,0.05-1.069,0.075-2.078,0.075c-1.007,0-1.7-0.025-2.078-0.075c-0.544-0.073-0.878-0.331-1.001-0.776
		c-0.084-0.305-0.126-0.82-0.126-1.548c0-0.731,0.042-1.249,0.126-1.552c0.123-0.444,0.457-0.703,1.001-0.775
		C-240.281,700.541-239.574,700.516-238.542,700.516z M-238.638,701.729c-0.713,0-1.146,0.021-1.299,0.06
		c-0.185,0.049-0.303,0.156-0.355,0.325c-0.05,0.166-0.075,0.473-0.075,0.919c0,0.29,0.015,0.498,0.044,0.626
		c0.057,0.236,0.229,0.372,0.516,0.407c0.212,0.025,0.62,0.041,1.224,0.041s1.012-0.016,1.224-0.041
		c0.287-0.035,0.458-0.172,0.513-0.407c0.032-0.13,0.048-0.331,0.048-0.604c0-0.336-0.009-0.571-0.027-0.715
		c-0.032-0.233-0.105-0.391-0.219-0.469c-0.103-0.072-0.318-0.117-0.646-0.133C-237.81,701.731-238.125,701.729-238.638,701.729z"/>
	<path fill="#F4F4F4" d="M-234.816,700.584h2.492l2.444,3.48h0.147l-0.034-3.48h1.446v4.666h-2.471l-2.454-3.482h-0.154l0.031,3.482
		h-1.446L-234.816,700.584L-234.816,700.584z"/>
	<path fill="#F4F4F4" d="M-222.488,705.25l-0.4-0.789h-3.086l-0.4,0.789h-1.624l2.475-4.666h2.208l2.44,4.666H-222.488z
		 M-223.387,703.438l-0.899-1.767h-0.284l-0.899,1.767H-223.387z"/>
	<path fill="#F4F4F4" d="M-220.663,700.584h2.492l2.444,3.48h0.147l-0.034-3.48h1.446v4.666h-2.471l-2.454-3.482h-0.154l0.031,3.482
		h-1.446L-220.663,700.584L-220.663,700.584z"/>
	<path fill="#F4F4F4" d="M-209.079,703.449h1.422c0.009,0.228,0.014,0.384,0.014,0.468c0,0.34-0.054,0.612-0.161,0.817
		c-0.112,0.214-0.325,0.361-0.639,0.445c-0.344,0.096-0.939,0.143-1.784,0.143c-0.932,0-1.56-0.018-1.883-0.045
		c-0.301-0.025-0.538-0.064-0.711-0.119c-0.173-0.055-0.317-0.135-0.431-0.24c-0.153-0.141-0.25-0.328-0.291-0.561
		c-0.045-0.243-0.068-0.713-0.068-1.408c0-0.667,0.017-1.117,0.051-1.352c0.05-0.349,0.186-0.602,0.407-0.759
		c0.168-0.118,0.438-0.203,0.807-0.253c0.383-0.05,1.07-0.075,2.061-0.075c0.59,0,1.011,0.015,1.261,0.038
		c0.378,0.036,0.654,0.109,0.827,0.221c0.214,0.134,0.35,0.327,0.407,0.584c0.041,0.183,0.062,0.393,0.062,0.633
		c0,0.041-0.001,0.131-0.003,0.27h-1.422c-0.004-0.113-0.009-0.189-0.014-0.23c-0.018-0.141-0.081-0.229-0.188-0.266
		c-0.162-0.055-0.604-0.082-1.326-0.082c-0.492,0-0.832,0.016-1.019,0.041c-0.228,0.032-0.369,0.156-0.424,0.373
		c-0.043,0.178-0.065,0.458-0.065,0.85c0,0.399,0.021,0.678,0.065,0.83c0.055,0.197,0.205,0.312,0.451,0.346
		c0.201,0.025,0.553,0.037,1.056,0.037c0.544,0,0.916-0.012,1.114-0.033c0.187-0.021,0.305-0.088,0.355-0.202
		C-209.106,703.821-209.083,703.665-209.079,703.449z"/>
	<path fill="#F4F4F4" d="M-207.151,700.584h5.168v1.098h-3.767v0.676h3.575v1.023h-3.575v0.748h3.794v1.121h-5.195V700.584z"/>
</g>
<g>
	<path fill="#F4F4F4" d="M-271.672,748.334h1.494V753h-1.494V748.334z"/>
	<path fill="#F4F4F4" d="M-269.525,748.334h2.492l2.444,3.48h0.147l-0.034-3.48h1.446V753h-2.471l-2.454-3.482h-0.154l0.031,3.482
		h-1.446L-269.525,748.334L-269.525,748.334z"/>
</g>
<g>
	<path fill="#F4F4F4" d="M-200.068,748.016c0.98,0,1.659,0.025,2.037,0.076c0.544,0.072,0.878,0.331,1.001,0.775
		c0.084,0.306,0.126,0.822,0.126,1.552c0,0.729-0.042,1.243-0.126,1.548c-0.123,0.445-0.457,0.703-1.001,0.776
		c-0.376,0.05-1.069,0.075-2.078,0.075c-1.007,0-1.7-0.025-2.078-0.075c-0.544-0.073-0.878-0.331-1.001-0.776
		c-0.084-0.305-0.126-0.82-0.126-1.548c0-0.731,0.042-1.249,0.126-1.552c0.123-0.444,0.457-0.703,1.001-0.775
		C-201.807,748.041-201.101,748.016-200.068,748.016z M-200.164,749.229c-0.713,0-1.146,0.021-1.299,0.06
		c-0.185,0.049-0.303,0.156-0.355,0.325c-0.05,0.166-0.075,0.473-0.075,0.919c0,0.29,0.015,0.498,0.044,0.626
		c0.057,0.236,0.229,0.372,0.516,0.407c0.212,0.025,0.62,0.041,1.224,0.041s1.012-0.016,1.224-0.041
		c0.287-0.035,0.458-0.172,0.513-0.407c0.032-0.13,0.048-0.331,0.048-0.604c0-0.336-0.009-0.571-0.027-0.715
		c-0.032-0.233-0.105-0.391-0.219-0.469c-0.103-0.072-0.318-0.117-0.646-0.133C-199.336,749.231-199.651,749.229-200.164,749.229z"
		/>
	<path fill="#F4F4F4" d="M-196.367,748.084h1.422v2.144c0.007,0.492,0.024,0.806,0.051,0.935c0.045,0.222,0.201,0.352,0.465,0.391
		c0.242,0.036,0.607,0.057,1.097,0.057c0.506,0,0.861-0.018,1.066-0.047c0.298-0.046,0.465-0.217,0.499-0.513
		c0.027-0.239,0.041-0.513,0.041-0.819v-2.145h1.422v2.145c-0.016,0.746-0.04,1.235-0.072,1.467
		c-0.057,0.388-0.244,0.674-0.561,0.856c-0.235,0.136-0.629,0.217-1.183,0.246c-0.255,0.014-0.654,0.021-1.196,0.021
		c-0.8,0-1.368-0.022-1.706-0.068c-0.255-0.034-0.458-0.081-0.608-0.143c-0.15-0.062-0.278-0.146-0.383-0.26
		c-0.144-0.15-0.236-0.344-0.277-0.572c-0.045-0.264-0.069-0.578-0.072-0.949l-0.007-0.601v-2.145H-196.367z"/>
	<path fill="#F4F4F4" d="M-189.999,748.084h5.646v1.189h-2.075v3.477h-1.494v-3.477H-190L-189.999,748.084L-189.999,748.084z"/>
</g>
<rect x="-287" y="493.75" fill="#1C1C1C" width="39.825" height="12"/>
<rect x="-211.164" y="493.75" fill="#1C1C1C" width="32.664" height="12"/>
<g>
	<path fill="#F4F4F4" d="M-286.672,497.584h4.932v1.098h-3.51v0.884h3.339v1.071h-3.339v1.613h-1.422V497.584z"/>
	<path fill="#F4F4F4" d="M-281.415,502.25v-4.666h3.435c0.811,0.003,1.29,0.011,1.436,0.024c0.167,0.016,0.317,0.062,0.453,0.146
		c0.136,0.081,0.241,0.184,0.316,0.309c0.078,0.137,0.124,0.275,0.14,0.423c0.021,0.171,0.031,0.377,0.031,0.616
		c0,0.383-0.026,0.646-0.079,0.799c-0.08,0.224-0.23,0.378-0.451,0.465c-0.075,0.027-0.188,0.056-0.338,0.078
		c0.298,0.021,0.513,0.106,0.643,0.257c0.057,0.064,0.098,0.142,0.121,0.228c0.024,0.085,0.041,0.21,0.05,0.374
		c0.002,0.084,0.003,0.257,0.003,0.519v0.434h-1.401V502c0-0.277-0.013-0.477-0.038-0.598c-0.037-0.175-0.129-0.275-0.277-0.31
		c-0.098-0.021-0.304-0.028-0.619-0.028h-2.003v1.186H-281.415L-281.415,502.25z M-279.993,499.898h2
		c0.298-0.007,0.475-0.011,0.53-0.016c0.201-0.012,0.327-0.073,0.379-0.185c0.037-0.077,0.055-0.208,0.055-0.396
		c0-0.158-0.016-0.275-0.048-0.354c-0.048-0.113-0.163-0.18-0.345-0.191c-0.064-0.004-0.255-0.008-0.574-0.01h-1.996
		L-279.993,499.898L-279.993,499.898z"/>
	<path fill="#F4F4F4" d="M-275.116,497.584h5.168v1.098h-3.767v0.676h3.575v1.023h-3.575v0.748h3.794v1.121h-5.195V497.584z"/>
	<path fill="#F4F4F4" d="M-262.599,501.307l-0.537,0.991l-0.458-0.325c-0.182,0.144-0.414,0.231-0.694,0.271
		c-0.365,0.05-1.073,0.075-2.126,0.075c-0.978,0-1.654-0.025-2.03-0.075c-0.544-0.073-0.878-0.331-1.001-0.776
		c-0.084-0.305-0.126-0.821-0.126-1.551c0-0.728,0.042-1.243,0.126-1.549c0.123-0.444,0.457-0.703,1.001-0.775
		c0.378-0.051,1.071-0.076,2.078-0.076s1.7,0.025,2.078,0.076c0.544,0.072,0.878,0.331,1.001,0.775
		c0.059,0.212,0.095,0.449,0.106,0.711c0.014,0.269,0.021,0.559,0.021,0.868c0,0.458-0.014,0.808-0.041,1.05L-262.599,501.307z
		 M-266.034,499.279l1.449,0.916c0.002-0.063,0.003-0.121,0.003-0.176c0-0.312-0.009-0.539-0.027-0.68
		c-0.032-0.237-0.105-0.395-0.219-0.473c-0.103-0.072-0.318-0.117-0.646-0.133c-0.116-0.006-0.414-0.009-0.892-0.009
		c-0.75,0-1.201,0.021-1.354,0.06c-0.185,0.049-0.303,0.156-0.355,0.325c-0.05,0.169-0.075,0.479-0.075,0.938
		c0,0.273,0.016,0.477,0.048,0.604c0.055,0.235,0.226,0.372,0.513,0.406c0.209,0.026,0.643,0.041,1.299,0.041
		c0.579,0,0.977-0.017,1.193-0.046l-1.504-0.797L-266.034,499.279z"/>
	<path fill="#F4F4F4" d="M-256.324,500.449h1.422c0.009,0.228,0.014,0.384,0.014,0.468c0,0.34-0.054,0.612-0.161,0.817
		c-0.112,0.214-0.325,0.361-0.639,0.445c-0.344,0.096-0.939,0.143-1.784,0.143c-0.932,0-1.56-0.018-1.883-0.045
		c-0.301-0.025-0.538-0.064-0.711-0.119c-0.173-0.057-0.317-0.135-0.431-0.24c-0.153-0.141-0.25-0.328-0.291-0.561
		c-0.045-0.243-0.068-0.715-0.068-1.408c0-0.667,0.017-1.117,0.051-1.352c0.05-0.349,0.186-0.602,0.407-0.759
		c0.168-0.118,0.438-0.203,0.807-0.253c0.383-0.05,1.07-0.075,2.061-0.075c0.59,0,1.011,0.015,1.261,0.038
		c0.378,0.036,0.654,0.109,0.827,0.219c0.214,0.136,0.35,0.329,0.407,0.584c0.041,0.185,0.062,0.395,0.062,0.635
		c0,0.041-0.001,0.131-0.003,0.27h-1.422c-0.004-0.114-0.009-0.19-0.014-0.23c-0.018-0.141-0.081-0.229-0.188-0.266
		c-0.162-0.055-0.604-0.082-1.326-0.082c-0.492,0-0.832,0.016-1.019,0.041c-0.228,0.032-0.369,0.156-0.424,0.373
		c-0.043,0.176-0.065,0.458-0.065,0.848c0,0.401,0.021,0.68,0.065,0.83c0.055,0.199,0.205,0.313,0.451,0.348
		c0.201,0.023,0.553,0.037,1.056,0.037c0.544,0,0.916-0.013,1.114-0.033c0.187-0.021,0.305-0.088,0.355-0.202
		C-256.351,500.821-256.328,500.665-256.324,500.449z"/>
	<path fill="#F4F4F4" d="M-254.816,497.584h1.562l1.702,3.494h0.267l1.685-3.494h1.552l-2.276,4.666h-2.184L-254.816,497.584z"/>
</g>
<g>
	<path fill="#F4F4F4" d="M-209.835,502.25v-4.666h3.435c0.811,0.003,1.29,0.011,1.436,0.024c0.167,0.016,0.317,0.062,0.453,0.146
		c0.136,0.081,0.241,0.184,0.316,0.309c0.078,0.137,0.124,0.275,0.14,0.423c0.021,0.171,0.031,0.377,0.031,0.616
		c0,0.383-0.026,0.646-0.079,0.799c-0.08,0.224-0.23,0.378-0.451,0.465c-0.075,0.027-0.188,0.056-0.338,0.078
		c0.298,0.021,0.513,0.106,0.643,0.257c0.057,0.064,0.098,0.142,0.121,0.228c0.024,0.085,0.041,0.21,0.05,0.374
		c0.002,0.084,0.003,0.257,0.003,0.519v0.434h-1.401V502c0-0.277-0.013-0.477-0.038-0.598c-0.037-0.175-0.129-0.275-0.277-0.31
		c-0.098-0.021-0.304-0.028-0.619-0.028h-2.003v1.186H-209.835L-209.835,502.25z M-208.414,499.898h2
		c0.298-0.007,0.475-0.011,0.53-0.016c0.201-0.012,0.327-0.073,0.379-0.185c0.037-0.077,0.055-0.208,0.055-0.396
		c0-0.158-0.016-0.275-0.048-0.354c-0.048-0.113-0.163-0.18-0.345-0.191c-0.064-0.004-0.255-0.008-0.574-0.01h-1.996
		L-208.414,499.898L-208.414,499.898z"/>
	<path fill="#F4F4F4" d="M-203.536,497.584h5.168v1.098h-3.767v0.676h3.575v1.023h-3.575v0.748h3.794v1.121h-5.195V497.584z"/>
	<path fill="#F4F4F4" d="M-198.061,500.705h1.377c-0.002,0.229,0.044,0.378,0.14,0.444c0.05,0.03,0.107,0.054,0.171,0.063
		s0.175,0.021,0.335,0.023c0.08,0.002,0.341,0.005,0.783,0.007c0.606-0.002,0.957-0.006,1.053-0.011
		c0.18-0.016,0.298-0.037,0.355-0.071c0.08-0.05,0.12-0.162,0.12-0.335c0-0.118-0.025-0.201-0.075-0.25
		c-0.068-0.065-0.231-0.103-0.489-0.105c-0.178,0-0.549-0.014-1.114-0.041c-0.583-0.025-0.961-0.043-1.135-0.048
		c-0.451-0.014-0.769-0.064-0.954-0.157c-0.237-0.114-0.392-0.312-0.465-0.595c-0.041-0.155-0.062-0.355-0.062-0.606
		c0-0.528,0.1-0.901,0.301-1.117c0.15-0.164,0.378-0.272,0.684-0.325c0.276-0.046,0.932-0.068,1.969-0.068
		c0.674,0,1.151,0.021,1.429,0.06c0.367,0.053,0.631,0.145,0.793,0.271c0.219,0.183,0.328,0.503,0.328,0.968
		c0,0.052-0.001,0.132-0.003,0.239h-1.377c-0.004-0.109-0.013-0.188-0.024-0.23c-0.032-0.128-0.137-0.199-0.314-0.217
		c-0.157-0.014-0.54-0.021-1.148-0.021c-0.602,0-0.958,0.018-1.07,0.052c-0.125,0.041-0.188,0.147-0.188,0.317
		c0,0.164,0.066,0.265,0.198,0.301c0.112,0.03,0.614,0.059,1.507,0.086c0.809,0.022,1.325,0.051,1.548,0.086
		c0.226,0.033,0.405,0.085,0.539,0.153c0.133,0.067,0.24,0.165,0.319,0.29c0.121,0.186,0.181,0.48,0.181,0.893
		c0,0.458-0.059,0.794-0.178,1.008c-0.119,0.215-0.312,0.357-0.581,0.437c-0.264,0.077-0.992,0.116-2.184,0.116
		c-0.725,0-1.248-0.021-1.569-0.061c-0.392-0.045-0.673-0.134-0.844-0.266c-0.185-0.143-0.294-0.341-0.328-0.599
		c-0.018-0.125-0.027-0.273-0.027-0.444L-198.061,500.705L-198.061,500.705z"/>
	<path fill="#F4F4F4" d="M-185.67,500.449h1.422c0.009,0.228,0.014,0.384,0.014,0.468c0,0.34-0.054,0.612-0.161,0.817
		c-0.112,0.214-0.325,0.361-0.639,0.445c-0.344,0.096-0.939,0.143-1.784,0.143c-0.932,0-1.56-0.018-1.883-0.045
		c-0.301-0.025-0.538-0.064-0.711-0.119c-0.173-0.057-0.317-0.135-0.431-0.24c-0.153-0.141-0.25-0.328-0.291-0.561
		c-0.045-0.243-0.068-0.715-0.068-1.408c0-0.667,0.017-1.117,0.051-1.352c0.05-0.349,0.186-0.602,0.407-0.759
		c0.168-0.118,0.438-0.203,0.807-0.253c0.383-0.05,1.07-0.075,2.061-0.075c0.59,0,1.011,0.015,1.261,0.038
		c0.378,0.036,0.654,0.109,0.827,0.219c0.214,0.136,0.35,0.329,0.407,0.584c0.041,0.185,0.062,0.395,0.062,0.635
		c0,0.041-0.001,0.131-0.003,0.27h-1.422c-0.004-0.114-0.009-0.19-0.014-0.23c-0.018-0.141-0.081-0.229-0.188-0.266
		c-0.162-0.055-0.604-0.082-1.326-0.082c-0.492,0-0.832,0.016-1.019,0.041c-0.228,0.032-0.369,0.156-0.424,0.373
		c-0.043,0.176-0.065,0.458-0.065,0.848c0,0.401,0.021,0.68,0.065,0.83c0.055,0.199,0.205,0.313,0.451,0.348
		c0.201,0.023,0.553,0.037,1.056,0.037c0.544,0,0.916-0.013,1.114-0.033c0.187-0.021,0.305-0.088,0.355-0.202
		C-185.698,500.821-185.675,500.665-185.67,500.449z"/>
	<path fill="#F4F4F4" d="M-184.163,497.584h1.562l1.702,3.494h0.267l1.685-3.494h1.552l-2.276,4.666h-2.184L-184.163,497.584z"/>
</g>
<g>
	<path fill="#F9F9F9" d="M-257.764,413.42h4.463l4.863,9.98h0.762l4.814-9.98h4.434l-6.504,13.33h-6.24L-257.764,413.42z"/>
	<path fill="#F9F9F9" d="M-225.254,421.604h4.062c0.026,0.651,0.039,1.099,0.039,1.34c0,0.97-0.153,1.748-0.459,2.334
		c-0.319,0.61-0.928,1.038-1.826,1.277c-0.983,0.269-2.682,0.4-5.098,0.4c-2.663,0-4.457-0.042-5.381-0.127
		c-0.859-0.071-1.537-0.188-2.031-0.342c-0.494-0.156-0.905-0.386-1.23-0.686c-0.436-0.401-0.713-0.938-0.83-1.602
		c-0.13-0.696-0.195-2.038-0.195-4.023c0-1.907,0.049-3.191,0.146-3.855c0.143-0.996,0.531-1.721,1.162-2.168
		c0.482-0.339,1.25-0.579,2.305-0.725c1.094-0.144,3.057-0.215,5.889-0.215c1.686,0,2.887,0.036,3.604,0.107
		c1.081,0.104,1.869,0.312,2.363,0.625c0.612,0.384,1,0.938,1.162,1.67c0.117,0.521,0.176,1.123,0.176,1.807
		c0,0.117-0.003,0.374-0.01,0.771h-4.062c-0.013-0.325-0.026-0.547-0.039-0.664c-0.052-0.397-0.231-0.647-0.537-0.752
		c-0.462-0.156-1.725-0.234-3.789-0.234c-1.406,0-2.376,0.039-2.91,0.117c-0.651,0.091-1.055,0.446-1.211,1.062
		c-0.124,0.501-0.186,1.311-0.186,2.424c0,1.146,0.062,1.937,0.186,2.371c0.156,0.566,0.586,0.896,1.289,0.986
		c0.573,0.071,1.579,0.107,3.018,0.107c1.556,0,2.617-0.032,3.184-0.1c0.534-0.059,0.873-0.251,1.016-0.575
		C-225.332,422.668-225.267,422.222-225.254,421.604z"/>
	<path fill="#F9F9F9" d="M-219.746,413.42h14.092v3.135h-10.029v2.521h9.541v3.064h-9.541v4.609h-4.062L-219.746,413.42
		L-219.746,413.42z"/>
</g>
<g>
	<path fill="#EDEDED" d="M-258.131,760.502h1.28v2.979h2.845v1.02h-4.125V760.502z"/>
	<path fill="#EDEDED" d="M-253.728,760.502h1.28v3.999h-1.28V760.502z"/>
	<path fill="#EDEDED" d="M-251.888,760.502h2.136l2.095,2.982h0.126l-0.029-2.982h1.239v3.999h-2.118l-2.104-2.985h-0.132
		l0.026,2.985h-1.239V760.502z"/>
	<path fill="#EDEDED" d="M-245.762,764.501v-3.999h2.886c0.627,0,1.032,0.011,1.216,0.032c0.355,0.041,0.617,0.134,0.785,0.276
		c0.18,0.156,0.298,0.408,0.354,0.758c0.027,0.166,0.041,0.455,0.041,0.868c0,0.529-0.023,0.897-0.07,1.104
		c-0.064,0.281-0.17,0.488-0.316,0.621c-0.1,0.092-0.221,0.161-0.363,0.208c-0.142,0.047-0.335,0.081-0.577,0.103
		c-0.191,0.02-0.547,0.026-1.066,0.026L-245.762,764.501L-245.762,764.501z M-244.561,763.481h1.696
		c0.344,0,0.601-0.016,0.771-0.041c0.189-0.031,0.309-0.138,0.357-0.313c0.037-0.129,0.056-0.332,0.056-0.609
		c0-0.297-0.02-0.515-0.059-0.651c-0.047-0.174-0.154-0.279-0.322-0.316c-0.133-0.03-0.404-0.047-0.814-0.047h-1.685V763.481
		L-244.561,763.481z"/>
	<path fill="#EDEDED" d="M-240,760.502h4.43v0.94h-3.229v0.577h3.064v0.879h-3.064v0.642h3.252v0.961H-240V760.502L-240,760.502z"/>
	<path fill="#EDEDED" d="M-235.166,760.502h2.136l2.095,2.982h0.126l-0.029-2.982h1.239v3.999h-2.118l-2.104-2.985h-0.132
		l0.026,2.985h-1.239V760.502z"/>
	<path fill="#EDEDED" d="M-229.04,764.501v-3.999h2.874c0.611,0.002,0.975,0.007,1.09,0.015c0.262,0.018,0.454,0.062,0.577,0.143
		c0.141,0.09,0.232,0.214,0.275,0.372c0.039,0.148,0.059,0.318,0.059,0.51c0,0.234-0.022,0.411-0.067,0.53
		c-0.074,0.191-0.231,0.323-0.472,0.396c0.178,0.031,0.31,0.076,0.396,0.135c0.195,0.133,0.293,0.406,0.293,0.826
		c0,0.326-0.051,0.567-0.152,0.726c-0.09,0.137-0.227,0.229-0.41,0.279c-0.156,0.041-0.418,0.062-0.785,0.064l-0.794,0.006
		L-229.04,764.501L-229.04,764.501z M-227.879,762.078h1.717c0.377,0,0.602-0.016,0.674-0.044c0.096-0.037,0.144-0.133,0.144-0.287
		c0-0.158-0.058-0.253-0.173-0.284c-0.045-0.012-0.26-0.019-0.645-0.021h-1.717V762.078L-227.879,762.078z M-227.879,763.54h1.723
		c0.32-0.002,0.509-0.004,0.565-0.006c0.178-0.008,0.291-0.043,0.34-0.105c0.037-0.051,0.056-0.129,0.056-0.232
		c0-0.168-0.061-0.269-0.182-0.296c-0.043-0.014-0.303-0.021-0.779-0.021h-1.723V763.54L-227.879,763.54z"/>
	<path fill="#EDEDED" d="M-223.593,760.502h4.43v0.94h-3.229v0.577h3.064v0.879h-3.064v0.642h3.252v0.961h-4.453V760.502
		L-223.593,760.502z"/>
	<path fill="#EDEDED" d="M-218.759,764.501v-3.999h2.944c0.695,0.002,1.105,0.009,1.23,0.021c0.143,0.014,0.272,0.056,0.388,0.125
		c0.116,0.067,0.207,0.155,0.271,0.265c0.066,0.115,0.106,0.235,0.12,0.36c0.018,0.146,0.026,0.321,0.026,0.528
		c0,0.326-0.022,0.556-0.067,0.685c-0.068,0.189-0.197,0.322-0.387,0.396c-0.064,0.025-0.161,0.048-0.29,0.067
		c0.256,0.02,0.439,0.093,0.551,0.22c0.049,0.057,0.083,0.121,0.104,0.195c0.021,0.07,0.035,0.18,0.042,0.318
		c0.002,0.072,0.003,0.222,0.003,0.442v0.372h-1.201v-0.214c0-0.238-0.011-0.409-0.032-0.514c-0.031-0.147-0.11-0.235-0.237-0.265
		c-0.084-0.018-0.261-0.025-0.53-0.025h-1.717v1.018L-218.759,764.501L-218.759,764.501z M-217.541,762.485h1.714
		c0.256-0.005,0.407-0.01,0.454-0.014c0.172-0.01,0.28-0.062,0.325-0.157c0.031-0.065,0.047-0.18,0.047-0.338
		c0-0.137-0.014-0.236-0.041-0.305c-0.041-0.098-0.14-0.15-0.296-0.164c-0.055-0.004-0.219-0.007-0.492-0.009h-1.711V762.485
		L-217.541,762.485z"/>
	<path fill="#EDEDED" d="M-210.914,762.233h2.786c0.004,0.088,0.006,0.145,0.006,0.17c0,0.521-0.015,0.928-0.044,1.213
		c-0.047,0.461-0.309,0.739-0.785,0.838c-0.246,0.049-0.516,0.078-0.809,0.088c-0.311,0.012-0.679,0.018-1.104,0.018
		c-0.756,0-1.296-0.025-1.62-0.081c-0.449-0.073-0.728-0.28-0.835-0.62c-0.053-0.166-0.083-0.356-0.091-0.571
		c-0.01-0.271-0.015-0.557-0.015-0.861c0-0.516,0.024-0.878,0.073-1.087c0.07-0.291,0.191-0.496,0.363-0.615
		c0.09-0.062,0.203-0.111,0.338-0.146c0.136-0.033,0.328-0.062,0.576-0.083c0.35-0.031,0.822-0.047,1.418-0.047
		c0.766,0,1.308,0.029,1.626,0.091c0.322,0.061,0.549,0.168,0.68,0.322c0.115,0.139,0.186,0.355,0.211,0.655
		c0.006,0.079,0.009,0.202,0.009,0.368h-1.219c-0.002-0.107-0.008-0.184-0.018-0.223c-0.027-0.1-0.114-0.159-0.261-0.179
		c-0.193-0.025-0.574-0.038-1.143-0.038c-0.506,0-0.856,0.017-1.052,0.05c-0.186,0.033-0.298,0.135-0.337,0.305
		c-0.031,0.129-0.047,0.358-0.047,0.688c0,0.379,0.017,0.638,0.05,0.774c0.043,0.188,0.176,0.289,0.398,0.312
		c0.109,0.01,0.439,0.019,0.99,0.025c0.602-0.005,0.989-0.017,1.163-0.034c0.158-0.025,0.249-0.097,0.272-0.208
		c0.014-0.07,0.021-0.18,0.021-0.322h-1.603v-0.801L-210.914,762.233L-210.914,762.233z"/>
	<path fill="#EDEDED" d="M-254.336,771.701v-3.999h2.944c0.695,0.002,1.105,0.009,1.23,0.021c0.143,0.016,0.272,0.058,0.388,0.125
		c0.116,0.069,0.207,0.157,0.271,0.267c0.066,0.113,0.106,0.233,0.12,0.358c0.018,0.146,0.026,0.323,0.026,0.53
		c0,0.326-0.022,0.554-0.067,0.683c-0.068,0.191-0.197,0.324-0.387,0.398c-0.064,0.025-0.161,0.048-0.29,0.067
		c0.256,0.02,0.439,0.093,0.551,0.22c0.049,0.057,0.083,0.121,0.104,0.195c0.021,0.07,0.035,0.18,0.042,0.318
		c0.002,0.072,0.003,0.22,0.003,0.442v0.372h-1.201v-0.214c0-0.238-0.011-0.409-0.032-0.515c-0.031-0.146-0.11-0.234-0.237-0.264
		c-0.084-0.018-0.261-0.026-0.53-0.026h-1.717v1.019L-254.336,771.701L-254.336,771.701z M-253.117,769.686h1.714
		c0.256-0.004,0.407-0.008,0.454-0.012c0.172-0.01,0.28-0.062,0.325-0.158c0.031-0.064,0.047-0.179,0.047-0.337
		c0-0.137-0.014-0.236-0.041-0.305c-0.041-0.098-0.14-0.152-0.296-0.164c-0.055-0.004-0.219-0.007-0.492-0.009h-1.711V769.686
		L-253.117,769.686z"/>
	<path fill="#EDEDED" d="M-248.937,767.702h4.43v0.938h-3.229v0.577h3.064v0.879h-3.064v0.644h3.252v0.961h-4.453V767.702
		L-248.937,767.702z"/>
	<path fill="#EDEDED" d="M-244.243,770.377h1.181c-0.002,0.197,0.038,0.324,0.12,0.381c0.043,0.027,0.092,0.046,0.146,0.058
		c0.054,0.01,0.15,0.017,0.287,0.021c0.068,0.002,0.292,0.004,0.671,0.006c0.52-0.002,0.82-0.005,0.902-0.009
		c0.154-0.012,0.256-0.032,0.305-0.062c0.068-0.044,0.103-0.14,0.103-0.286c0-0.104-0.021-0.173-0.064-0.214
		c-0.059-0.059-0.198-0.089-0.419-0.093c-0.152,0-0.471-0.012-0.955-0.034c-0.5-0.022-0.824-0.036-0.973-0.041
		c-0.387-0.013-0.659-0.058-0.817-0.136c-0.203-0.1-0.336-0.27-0.398-0.51c-0.035-0.133-0.053-0.307-0.053-0.521
		c0-0.452,0.086-0.771,0.258-0.957c0.129-0.143,0.324-0.233,0.586-0.278c0.236-0.039,0.799-0.061,1.688-0.061
		c0.578,0,0.986,0.019,1.225,0.052c0.314,0.045,0.541,0.123,0.68,0.232c0.188,0.154,0.281,0.433,0.281,0.829
		c0,0.043-0.001,0.111-0.003,0.205h-1.181c-0.004-0.096-0.011-0.162-0.021-0.199c-0.027-0.107-0.117-0.171-0.27-0.185
		c-0.135-0.013-0.463-0.02-0.984-0.02c-0.516,0-0.821,0.017-0.917,0.045c-0.107,0.034-0.161,0.125-0.161,0.271
		c0,0.141,0.057,0.227,0.17,0.258c0.096,0.025,0.526,0.05,1.292,0.073c0.693,0.02,1.136,0.044,1.327,0.073
		c0.193,0.027,0.347,0.071,0.461,0.132c0.114,0.059,0.206,0.142,0.274,0.249c0.104,0.158,0.155,0.413,0.155,0.765
		c0,0.395-0.051,0.683-0.152,0.864c-0.102,0.182-0.268,0.306-0.498,0.372c-0.227,0.065-0.851,0.1-1.872,0.1
		c-0.621,0-1.069-0.017-1.345-0.05c-0.336-0.039-0.577-0.115-0.724-0.229c-0.158-0.121-0.252-0.292-0.281-0.515
		c-0.016-0.105-0.023-0.232-0.023-0.381L-244.243,770.377L-244.243,770.377z"/>
	<path fill="#EDEDED" d="M-238.926,767.702h4.43v0.938h-3.229v0.577h3.064v0.879h-3.064v0.644h3.252v0.961h-4.453V767.702
		L-238.926,767.702z"/>
	<path fill="#EDEDED" d="M-229.75,771.701l-0.343-0.677h-2.646l-0.343,0.677h-1.392l2.121-3.999h1.893l2.092,3.999H-229.75z
		 M-230.521,770.148l-0.771-1.517h-0.243l-0.771,1.517H-230.521z"/>
	<path fill="#EDEDED" d="M-228.186,771.701v-3.999h2.944c0.695,0.002,1.105,0.009,1.23,0.021c0.143,0.016,0.272,0.058,0.388,0.125
		c0.116,0.069,0.207,0.157,0.271,0.267c0.066,0.113,0.106,0.233,0.12,0.358c0.018,0.146,0.026,0.323,0.026,0.53
		c0,0.326-0.022,0.554-0.067,0.683c-0.068,0.191-0.197,0.324-0.387,0.398c-0.064,0.025-0.161,0.048-0.29,0.067
		c0.256,0.02,0.439,0.093,0.551,0.22c0.049,0.057,0.083,0.121,0.104,0.195c0.021,0.07,0.035,0.18,0.042,0.318
		c0.002,0.072,0.003,0.22,0.003,0.442v0.372h-1.201v-0.214c0-0.238-0.011-0.409-0.032-0.515c-0.031-0.146-0.11-0.234-0.237-0.264
		c-0.084-0.018-0.261-0.026-0.53-0.026h-1.717v1.019L-228.186,771.701L-228.186,771.701z M-226.967,769.686h1.714
		c0.256-0.004,0.407-0.008,0.454-0.012c0.172-0.01,0.28-0.062,0.325-0.158c0.031-0.064,0.047-0.179,0.047-0.337
		c0-0.137-0.014-0.236-0.041-0.305c-0.041-0.098-0.14-0.152-0.296-0.164c-0.055-0.004-0.219-0.007-0.492-0.009h-1.711V769.686
		L-226.967,769.686z"/>
	<path fill="#EDEDED" d="M-218.96,770.157h1.219c0.008,0.193,0.012,0.329,0.012,0.399c0,0.291-0.046,0.524-0.138,0.7
		c-0.096,0.186-0.278,0.312-0.548,0.384c-0.295,0.08-0.805,0.12-1.529,0.12c-0.799,0-1.337-0.013-1.614-0.038
		c-0.258-0.021-0.461-0.056-0.609-0.103c-0.148-0.047-0.271-0.115-0.369-0.205c-0.131-0.121-0.214-0.281-0.249-0.48
		c-0.039-0.209-0.059-0.609-0.059-1.207c0-0.57,0.015-0.958,0.044-1.155c0.043-0.299,0.159-0.518,0.349-0.65
		c0.145-0.102,0.375-0.174,0.691-0.217c0.328-0.043,0.917-0.064,1.767-0.064c0.506,0,0.866,0.013,1.081,0.032
		c0.324,0.031,0.561,0.094,0.709,0.188c0.184,0.113,0.3,0.28,0.349,0.501c0.035,0.154,0.053,0.337,0.053,0.542
		c0,0.033-0.001,0.11-0.003,0.229h-1.219c-0.004-0.098-0.008-0.164-0.012-0.199c-0.016-0.119-0.069-0.192-0.161-0.226
		c-0.139-0.047-0.518-0.07-1.137-0.07c-0.422,0-0.713,0.014-0.873,0.035c-0.195,0.027-0.316,0.134-0.363,0.319
		c-0.037,0.148-0.056,0.393-0.056,0.727c0,0.344,0.019,0.581,0.056,0.712c0.047,0.17,0.176,0.271,0.387,0.296
		c0.172,0.021,0.474,0.032,0.905,0.032c0.467,0,0.785-0.01,0.955-0.029c0.16-0.018,0.262-0.073,0.305-0.173
		C-218.983,770.477-218.964,770.343-218.96,770.157z"/>
	<path fill="#EDEDED" d="M-217.308,767.702h1.28v1.43h2.751v-1.43h1.28v3.999h-1.28v-1.45h-2.751v1.45h-1.28V767.702z"/>
</g>
</svg>
