<?xml version="1.0" encoding="utf-8"?>
<!-- Generator: Adobe Illustrator 16.0.0, SVG Export Plug-In . SVG Version: 6.00 Build 0)  -->
<!DOCTYPE svg PUBLIC "-//W3C//DTD SVG 1.1//EN" "http://www.w3.org/Graphics/SVG/1.1/DTD/svg11.dtd">
<svg version="1.1"
	 id="svg8" inkscape:version="0.92.2 5c3e80d, 2017-08-06" sodipodi:docname="MyModule.svg" xmlns:dc="http://purl.org/dc/elements/1.1/" xmlns:cc="http://creativecommons.org/ns#" xmlns:rdf="http://www.w3.org/1999/02/22-rdf-syntax-ns#" xmlns:svg="http://www.w3.org/2000/svg" xmlns:sodipodi="http://sodipodi.sourceforge.net/DTD/sodipodi-0.dtd" xmlns:inkscape="http://www.inkscape.org/namespaces/inkscape"
	 xmlns="http://www.w3.org/2000/svg" xmlns:xlink="http://www.w3.org/1999/xlink" x="0px" y="0px" width="150px" height="380px"
	 viewBox="-59.5 190.5 150 380" enable-background="new -59.5 190.5 150 380" xml:space="preserve">
<g id="layer1" transform="translate(0,-196.45832)" inkscape:label="Layer 1" inkscape:groupmode="layer">
	<path id="rect817" inkscape:connector-curvature="0" fill="#1C1C1C" d="M-59.5,386.958h150v380h-150V386.958z"/>
</g>
<g>
	<path fill="#969696" d="M1.876,227.734H0.105c0-0.484,0.019-0.854,0.057-1.104c0.05-0.312,0.163-0.552,0.34-0.726
		c0.177-0.172,0.433-0.291,0.767-0.354c0.463-0.085,1.285-0.128,2.465-0.128c1.119,0,1.815,0.017,2.087,0.04
		c0.451,0.041,0.779,0.146,0.984,0.311c0.205,0.166,0.333,0.388,0.382,0.668c0.044,0.254,0.066,0.547,0.066,0.885
		c0,0.447-0.032,0.777-0.097,0.992c-0.1,0.332-0.287,0.562-0.562,0.707c-0.308,0.152-0.788,0.254-1.441,0.291
		c-1.603,0.101-2.518,0.162-2.747,0.189c-0.255,0.025-0.417,0.111-0.488,0.254c-0.023,0.062-0.04,0.182-0.048,0.356h5.48v1.38H0.191
		c-0.012-0.24-0.018-0.443-0.018-0.611c0-0.734,0.022-1.255,0.066-1.551c0.088-0.562,0.412-0.914,0.971-1.055
		c0.287-0.07,0.593-0.119,0.918-0.146l1.252-0.098c0.911-0.07,1.427-0.112,1.547-0.127c0.281-0.029,0.461-0.094,0.541-0.193
		c0.05-0.062,0.075-0.186,0.075-0.373c0-0.208-0.029-0.348-0.088-0.418c-0.073-0.091-0.236-0.146-0.488-0.167
		c-0.144-0.012-0.505-0.019-1.085-0.019c-0.812,0-1.359,0.021-1.644,0.062c-0.167,0.023-0.27,0.084-0.308,0.184
		C1.898,227.081,1.879,227.33,1.876,227.734z"/>
	<path fill="#969696" d="M15.75,229.035v1.349h-1.16v1.116h-1.736v-1.116H8.06v-2.298l3.568-2.584h2.962v3.533H15.75L15.75,229.035z
		 M12.854,229.035v-2.146h-0.369l-2.791,1.906v0.238L12.854,229.035L12.854,229.035z"/>
	<path fill="#969696" d="M22.043,225.502v5.998h-1.499v-0.559h-0.088c-0.111,0.188-0.234,0.33-0.369,0.404
		c-0.293,0.178-0.792,0.264-1.499,0.264c-0.688,0-1.211-0.058-1.569-0.158c-0.193-0.062-0.365-0.157-0.514-0.297
		c-0.149-0.144-0.253-0.299-0.312-0.48c-0.097-0.283-0.145-0.729-0.145-1.332c0-0.357,0.018-0.65,0.055-0.879
		c0.036-0.222,0.099-0.418,0.187-0.588c0.164-0.316,0.457-0.525,0.879-0.629c0.308-0.076,0.756-0.114,1.345-0.114
		c0.551,0,0.929,0.029,1.134,0.088c0.322,0.099,0.568,0.292,0.738,0.597h0.066v-2.312L22.043,225.502L22.043,225.502z
		 M19.094,228.332c-0.571,0-0.949,0.047-1.134,0.141c-0.132,0.07-0.221,0.188-0.268,0.354c-0.035,0.12-0.053,0.299-0.053,0.534
		c0,0.312,0.031,0.541,0.092,0.683c0.076,0.177,0.275,0.285,0.598,0.33c0.188,0.022,0.417,0.039,0.69,0.039
		c0.586,0,0.979-0.062,1.178-0.188c0.111-0.062,0.186-0.185,0.224-0.352c0.026-0.114,0.04-0.279,0.04-0.497
		c0-0.349-0.04-0.59-0.119-0.726c-0.082-0.139-0.253-0.229-0.514-0.271C19.652,228.348,19.408,228.332,19.094,228.332z"/>
	<path fill="#969696" d="M22.825,231.5v-5.998h4.311c0.917,0.003,1.462,0.01,1.635,0.021c0.393,0.021,0.681,0.094,0.866,0.211
		c0.211,0.135,0.349,0.315,0.413,0.559c0.059,0.227,0.088,0.48,0.088,0.764c0,0.354-0.034,0.617-0.101,0.797
		c-0.111,0.289-0.347,0.486-0.708,0.597c0.267,0.048,0.464,0.11,0.593,0.202c0.293,0.193,0.439,0.605,0.439,1.234
		c0,0.49-0.076,0.854-0.229,1.086c-0.135,0.205-0.34,0.351-0.615,0.422c-0.234,0.062-0.627,0.099-1.178,0.102l-1.191,0.009
		L22.825,231.5L22.825,231.5z M24.565,227.865h2.575c0.565,0,0.902-0.021,1.011-0.065c0.144-0.056,0.215-0.198,0.215-0.431
		c0-0.237-0.086-0.379-0.259-0.426c-0.067-0.021-0.39-0.028-0.967-0.031h-2.575V227.865z M24.565,230.059h2.584
		c0.48-0.002,0.763-0.006,0.848-0.009c0.267-0.012,0.437-0.062,0.51-0.157c0.056-0.072,0.083-0.189,0.083-0.353
		c0-0.252-0.091-0.399-0.272-0.444c-0.064-0.018-0.454-0.022-1.169-0.025h-2.584V230.059L24.565,230.059z"/>
</g>
<circle fill="#494949" cx="-20.5" cy="264.5" r="15"/>
<circle fill="#494949" cx="51.5" cy="264.5" r="15"/>
<circle fill="#707070" cx="-20.5" cy="326.5" r="16"/>
<circle fill="#707070" cx="51.5" cy="326.5" r="16"/>
<circle fill="#605F5F" cx="15.5" cy="390.5" r="25"/>
<circle fill="#605F5F" cx="15.5" cy="465.5" r="25"/>
<circle fill="#494949" cx="-20.5" cy="524.5" r="15"/>
<circle fill="#494949" cx="51.5" cy="524.5" r="15"/>
<line fill="none" stroke="#EFEFEF" stroke-width="2" stroke-miterlimit="10" x1="51.5" y1="264.5" x2="51.5" y2="326.5"/>
<line fill="none" stroke="#EFEFEF" stroke-width="2" stroke-miterlimit="10" x1="-20.5" y1="264.5" x2="-20.5" y2="326.5"/>
<polyline fill="none" stroke="#EFEFEF" stroke-width="2" stroke-miterlimit="10" points="15.5,390.5 -20.5,390.5 -20.5,387.5 
	-20.5,326.5 "/>
<polyline fill="none" stroke="#EFEFEF" stroke-width="2" stroke-miterlimit="10" points="15.5,465.5 51.5,465.5 51.5,461.833 
	51.5,326.5 "/>
<g>
	<path fill="#F4F4F4" d="M-11.672,419.084h4.932v1.098h-3.51v0.886h3.339v1.069h-3.339v1.613h-1.422V419.084z"/>
	<path fill="#F4F4F4" d="M-6.415,423.75v-4.666h3.435c0.811,0.003,1.29,0.011,1.436,0.024c0.167,0.016,0.317,0.062,0.453,0.146
		c0.136,0.081,0.241,0.184,0.316,0.309c0.078,0.139,0.124,0.275,0.14,0.425c0.021,0.171,0.031,0.377,0.031,0.614
		c0,0.385-0.026,0.646-0.079,0.801c-0.08,0.224-0.23,0.378-0.451,0.465c-0.075,0.025-0.188,0.056-0.338,0.078
		c0.298,0.021,0.513,0.104,0.643,0.257c0.057,0.062,0.098,0.142,0.121,0.228c0.024,0.085,0.041,0.21,0.05,0.374
		c0.002,0.084,0.003,0.261,0.003,0.521v0.434h-1.401v-0.25c0-0.273-0.013-0.477-0.038-0.598c-0.037-0.173-0.129-0.275-0.277-0.312
		c-0.098-0.021-0.304-0.026-0.619-0.026h-2.003v1.186h-1.422V423.75L-6.415,423.75z M-4.993,421.398h2
		c0.298-0.009,0.475-0.013,0.53-0.018c0.201-0.012,0.327-0.073,0.379-0.185c0.037-0.077,0.055-0.208,0.055-0.396
		c0-0.158-0.016-0.273-0.048-0.354c-0.048-0.113-0.163-0.179-0.345-0.191c-0.064-0.004-0.255-0.008-0.574-0.01h-1.996
		L-4.993,421.398L-4.993,421.398z"/>
	<path fill="#F4F4F4" d="M-0.116,419.084h5.168v1.098H1.285v0.678H4.86v1.021H1.285v0.748h3.794v1.121h-5.195V419.084z"/>
	<path fill="#F4F4F4" d="M12.401,422.807l-0.537,0.991l-0.458-0.325c-0.182,0.146-0.414,0.231-0.694,0.271
		c-0.365,0.05-1.073,0.075-2.126,0.075c-0.978,0-1.654-0.025-2.03-0.075c-0.544-0.073-0.878-0.331-1.001-0.776
		c-0.084-0.305-0.126-0.818-0.126-1.551c0-0.728,0.042-1.243,0.126-1.549c0.123-0.444,0.457-0.703,1.001-0.775
		c0.378-0.051,1.071-0.076,2.078-0.076c1.007,0,1.7,0.025,2.078,0.076c0.544,0.072,0.878,0.331,1.001,0.775
		c0.059,0.212,0.095,0.449,0.106,0.711c0.014,0.269,0.021,0.559,0.021,0.868c0,0.458-0.014,0.808-0.041,1.05L12.401,422.807z
		 M8.966,420.779l1.449,0.916c0.002-0.063,0.003-0.121,0.003-0.175c0-0.313-0.009-0.54-0.027-0.683
		c-0.032-0.237-0.105-0.395-0.219-0.473c-0.103-0.072-0.318-0.117-0.646-0.133c-0.116-0.008-0.414-0.011-0.892-0.011
		c-0.75,0-1.201,0.021-1.354,0.062c-0.185,0.049-0.303,0.156-0.355,0.325c-0.05,0.169-0.075,0.479-0.075,0.938
		c0,0.273,0.016,0.479,0.048,0.604c0.055,0.233,0.226,0.371,0.513,0.403c0.209,0.027,0.643,0.041,1.299,0.041
		c0.579,0,0.977-0.016,1.193-0.045l-1.504-0.797L8.966,420.779z"/>
	<path fill="#F4F4F4" d="M12.466,419.084h1.422v2.145c0.007,0.491,0.024,0.807,0.051,0.936c0.045,0.222,0.201,0.352,0.465,0.391
		c0.242,0.036,0.607,0.059,1.097,0.059c0.506,0,0.861-0.02,1.066-0.047c0.298-0.047,0.465-0.219,0.499-0.515
		c0.027-0.238,0.041-0.513,0.041-0.817v-2.146h1.422v2.146c-0.016,0.745-0.04,1.233-0.072,1.467
		c-0.057,0.388-0.244,0.674-0.561,0.854c-0.235,0.138-0.629,0.218-1.183,0.246c-0.255,0.015-0.654,0.021-1.196,0.021
		c-0.8,0-1.368-0.022-1.706-0.068c-0.255-0.034-0.458-0.081-0.608-0.143c-0.15-0.062-0.278-0.146-0.383-0.261
		c-0.144-0.149-0.236-0.345-0.277-0.571c-0.045-0.266-0.069-0.578-0.072-0.949l-0.007-0.602v-2.146H12.466L12.466,419.084z"/>
	<path fill="#F4F4F4" d="M19.162,419.084h5.168v1.098h-3.767v0.678h3.575v1.021h-3.575v0.748h3.794v1.121h-5.195V419.084z"/>
	<path fill="#F4F4F4" d="M24.801,419.084h2.492l2.444,3.48h0.147l-0.034-3.48h1.446v4.666h-2.471l-2.454-3.482h-0.154l0.031,3.482
		h-1.446L24.801,419.084L24.801,419.084z"/>
	<path fill="#F4F4F4" d="M36.385,421.949h1.422c0.009,0.228,0.014,0.384,0.014,0.468c0,0.34-0.054,0.612-0.161,0.817
		c-0.112,0.214-0.325,0.359-0.639,0.443c-0.344,0.098-0.939,0.145-1.784,0.145c-0.932,0-1.56-0.02-1.883-0.045
		c-0.301-0.025-0.538-0.064-0.711-0.119c-0.173-0.056-0.317-0.135-0.431-0.24c-0.153-0.141-0.25-0.328-0.291-0.561
		c-0.045-0.243-0.068-0.714-0.068-1.408c0-0.667,0.017-1.117,0.051-1.354c0.05-0.349,0.186-0.602,0.407-0.759
		c0.168-0.118,0.438-0.203,0.807-0.253c0.383-0.05,1.07-0.075,2.061-0.075c0.59,0,1.011,0.017,1.261,0.038
		c0.378,0.036,0.654,0.109,0.827,0.222c0.214,0.135,0.35,0.326,0.407,0.584c0.041,0.184,0.062,0.394,0.062,0.634
		c0,0.041-0.001,0.131-0.003,0.27h-1.422c-0.004-0.112-0.009-0.188-0.014-0.229c-0.018-0.143-0.081-0.229-0.188-0.268
		c-0.162-0.055-0.604-0.082-1.326-0.082c-0.492,0-0.832,0.018-1.019,0.041c-0.228,0.032-0.369,0.156-0.424,0.373
		c-0.043,0.179-0.065,0.458-0.065,0.852c0,0.397,0.021,0.678,0.065,0.83c0.055,0.195,0.205,0.312,0.451,0.346
		c0.201,0.024,0.553,0.037,1.056,0.037c0.544,0,0.916-0.013,1.114-0.033c0.187-0.021,0.305-0.088,0.355-0.202
		C36.357,422.321,36.38,422.165,36.385,421.949z"/>
	<path fill="#F4F4F4" d="M37.844,419.084h1.87l1.521,1.87l1.456-1.87h1.853l-2.553,3.016v1.65h-1.47v-1.65L37.844,419.084z"/>
</g>
<g>
	<path fill="#F4F4F4" d="M-13.672,499.25v-4.666h3.435c0.811,0.003,1.29,0.011,1.436,0.024c0.167,0.016,0.317,0.062,0.453,0.146
		c0.136,0.081,0.241,0.184,0.316,0.309c0.078,0.139,0.124,0.275,0.14,0.425c0.021,0.171,0.031,0.377,0.031,0.614
		c0,0.385-0.026,0.646-0.079,0.801c-0.08,0.224-0.23,0.378-0.451,0.465c-0.075,0.025-0.188,0.056-0.338,0.078
		c0.298,0.021,0.513,0.104,0.643,0.257c0.057,0.062,0.098,0.142,0.121,0.228c0.024,0.085,0.041,0.21,0.05,0.374
		c0.002,0.084,0.003,0.261,0.003,0.521v0.434h-1.401V499c0-0.277-0.013-0.477-0.038-0.598c-0.037-0.177-0.129-0.275-0.277-0.312
		c-0.098-0.021-0.304-0.026-0.619-0.026h-2.003v1.186H-13.672L-13.672,499.25z M-12.25,496.898h2
		c0.298-0.009,0.475-0.013,0.53-0.018c0.201-0.012,0.327-0.073,0.379-0.185c0.037-0.077,0.055-0.208,0.055-0.396
		c0-0.158-0.016-0.273-0.048-0.354c-0.048-0.113-0.163-0.179-0.345-0.191c-0.064-0.004-0.255-0.008-0.574-0.01h-1.996
		L-12.25,496.898L-12.25,496.898z"/>
	<path fill="#F4F4F4" d="M-7.373,494.584h5.168v1.098h-3.767v0.678h3.575v1.021h-3.575v0.748h3.794v1.121h-5.195V494.584z"/>
	<path fill="#F4F4F4" d="M-1.897,497.705h1.377c-0.002,0.229,0.044,0.378,0.14,0.444c0.05,0.028,0.107,0.054,0.171,0.062
		s0.175,0.021,0.335,0.023c0.08,0.002,0.341,0.005,0.783,0.007c0.606-0.002,0.957-0.006,1.053-0.011
		c0.18-0.018,0.298-0.037,0.355-0.071c0.08-0.05,0.12-0.162,0.12-0.335c0-0.118-0.025-0.201-0.075-0.25
		c-0.068-0.065-0.231-0.104-0.489-0.105c-0.178,0-0.549-0.014-1.114-0.041c-0.583-0.023-0.961-0.043-1.135-0.048
		c-0.451-0.014-0.769-0.062-0.954-0.155c-0.237-0.114-0.392-0.312-0.465-0.597c-0.041-0.153-0.062-0.354-0.062-0.604
		c0-0.528,0.1-0.901,0.301-1.117c0.15-0.164,0.378-0.272,0.684-0.325c0.276-0.046,0.932-0.068,1.969-0.068
		c0.674,0,1.151,0.021,1.429,0.062c0.367,0.053,0.631,0.145,0.793,0.271c0.219,0.185,0.328,0.503,0.328,0.972
		c0,0.05-0.001,0.13-0.003,0.235H2.267c-0.004-0.107-0.013-0.188-0.024-0.229c-0.032-0.128-0.137-0.199-0.314-0.216
		c-0.157-0.017-0.54-0.021-1.148-0.021c-0.602,0-0.958,0.02-1.07,0.052c-0.125,0.041-0.188,0.147-0.188,0.317
		c0,0.164,0.066,0.265,0.198,0.301c0.112,0.03,0.614,0.062,1.507,0.086c0.809,0.022,1.325,0.052,1.548,0.086
		c0.226,0.033,0.405,0.085,0.539,0.153c0.133,0.068,0.24,0.165,0.319,0.29c0.121,0.186,0.181,0.479,0.181,0.893
		c0,0.458-0.059,0.794-0.178,1.012c-0.119,0.213-0.312,0.354-0.581,0.435c-0.264,0.077-0.992,0.116-2.184,0.116
		c-0.725,0-1.248-0.021-1.569-0.062c-0.392-0.045-0.673-0.134-0.844-0.266c-0.185-0.143-0.294-0.341-0.328-0.599
		c-0.018-0.125-0.027-0.273-0.027-0.444L-1.897,497.705L-1.897,497.705z"/>
	<path fill="#F4F4F4" d="M7.458,494.516c0.98,0,1.659,0.025,2.037,0.076c0.544,0.072,0.878,0.331,1.001,0.775
		c0.084,0.306,0.126,0.822,0.126,1.552c0,0.73-0.042,1.243-0.126,1.548c-0.123,0.445-0.457,0.703-1.001,0.776
		c-0.376,0.05-1.069,0.075-2.078,0.075c-1.007,0-1.7-0.025-2.078-0.075c-0.544-0.073-0.878-0.331-1.001-0.776
		c-0.084-0.305-0.126-0.82-0.126-1.548c0-0.731,0.042-1.249,0.126-1.552c0.123-0.444,0.457-0.703,1.001-0.775
		C5.719,494.541,6.426,494.516,7.458,494.516z M7.362,495.729c-0.713,0-1.146,0.021-1.299,0.062
		c-0.185,0.049-0.303,0.156-0.355,0.325c-0.05,0.166-0.075,0.473-0.075,0.919c0,0.29,0.015,0.498,0.044,0.626
		c0.057,0.234,0.229,0.372,0.516,0.407c0.212,0.023,0.62,0.041,1.224,0.041s1.012-0.018,1.224-0.041
		c0.287-0.035,0.458-0.173,0.513-0.407c0.032-0.13,0.048-0.331,0.048-0.604c0-0.336-0.009-0.569-0.027-0.715
		c-0.032-0.231-0.105-0.391-0.219-0.469c-0.103-0.072-0.318-0.117-0.646-0.133C8.19,495.731,7.875,495.729,7.362,495.729z"/>
	<path fill="#F4F4F4" d="M11.184,494.584h2.492l2.444,3.48h0.147l-0.034-3.48h1.446v4.666h-2.471l-2.454-3.482H12.6l0.031,3.482
		h-1.446L11.184,494.584L11.184,494.584z"/>
	<path fill="#F4F4F4" d="M23.512,499.25l-0.4-0.789h-3.086l-0.4,0.789h-1.624l2.475-4.666h2.208l2.44,4.666H23.512z M22.613,497.438
		l-0.899-1.767H21.43l-0.899,1.767H22.613z"/>
	<path fill="#F4F4F4" d="M25.337,494.584h2.492l2.444,3.48h0.147l-0.034-3.48h1.446v4.666h-2.471l-2.454-3.482h-0.154l0.031,3.482
		h-1.446L25.337,494.584L25.337,494.584z"/>
	<path fill="#F4F4F4" d="M36.921,497.449h1.422c0.009,0.228,0.014,0.384,0.014,0.468c0,0.34-0.054,0.612-0.161,0.817
		c-0.112,0.214-0.325,0.359-0.639,0.443c-0.344,0.098-0.939,0.145-1.784,0.145c-0.932,0-1.56-0.02-1.883-0.045
		c-0.301-0.025-0.538-0.064-0.711-0.119c-0.173-0.056-0.317-0.135-0.431-0.24c-0.153-0.141-0.25-0.328-0.291-0.561
		c-0.045-0.243-0.068-0.714-0.068-1.408c0-0.667,0.017-1.117,0.051-1.354c0.05-0.349,0.186-0.602,0.407-0.759
		c0.168-0.118,0.438-0.203,0.807-0.253c0.383-0.05,1.07-0.075,2.061-0.075c0.59,0,1.011,0.017,1.261,0.038
		c0.378,0.036,0.654,0.109,0.827,0.222c0.214,0.135,0.35,0.326,0.407,0.584c0.041,0.184,0.062,0.394,0.062,0.634
		c0,0.041-0.001,0.131-0.003,0.27h-1.422c-0.004-0.112-0.009-0.188-0.014-0.229c-0.018-0.143-0.081-0.229-0.188-0.268
		c-0.162-0.055-0.604-0.082-1.326-0.082c-0.492,0-0.832,0.018-1.019,0.041c-0.228,0.032-0.369,0.156-0.424,0.373
		c-0.043,0.179-0.065,0.458-0.065,0.852c0,0.397,0.021,0.678,0.065,0.83c0.055,0.195,0.205,0.312,0.451,0.346
		c0.201,0.024,0.553,0.037,1.056,0.037c0.544,0,0.916-0.013,1.114-0.033c0.187-0.021,0.305-0.088,0.355-0.202
		C36.894,497.821,36.917,497.665,36.921,497.449z"/>
	<path fill="#F4F4F4" d="M38.849,494.584h5.168v1.098H40.25v0.678h3.575v1.021H40.25v0.748h3.794v1.121h-5.195V494.584z"/>
</g>
<g>
	<path fill="#F4F4F4" d="M-25.672,542.334h1.494V547h-1.494V542.334z"/>
	<path fill="#F4F4F4" d="M-23.525,542.334h2.492l2.444,3.48h0.147l-0.034-3.48h1.446V547h-2.471l-2.454-3.482h-0.154l0.031,3.482
		h-1.446L-23.525,542.334L-23.525,542.334z"/>
</g>
<g>
	<path fill="#F4F4F4" d="M45.932,542.016c0.98,0,1.659,0.025,2.037,0.076c0.544,0.072,0.878,0.331,1.001,0.775
		c0.084,0.306,0.126,0.822,0.126,1.552c0,0.73-0.042,1.243-0.126,1.548c-0.123,0.445-0.457,0.703-1.001,0.776
		c-0.376,0.05-1.069,0.075-2.078,0.075c-1.007,0-1.7-0.025-2.078-0.075c-0.544-0.073-0.878-0.331-1.001-0.776
		c-0.084-0.305-0.126-0.82-0.126-1.548c0-0.731,0.042-1.249,0.126-1.552c0.123-0.444,0.457-0.703,1.001-0.775
		C44.193,542.041,44.899,542.016,45.932,542.016z M45.836,543.229c-0.713,0-1.146,0.021-1.299,0.062
		c-0.185,0.049-0.303,0.156-0.355,0.325c-0.05,0.166-0.075,0.473-0.075,0.919c0,0.29,0.015,0.498,0.044,0.626
		c0.057,0.234,0.229,0.372,0.516,0.407c0.212,0.023,0.62,0.041,1.224,0.041s1.012-0.018,1.224-0.041
		c0.287-0.035,0.458-0.174,0.513-0.407c0.032-0.13,0.048-0.331,0.048-0.604c0-0.336-0.009-0.569-0.027-0.715
		c-0.032-0.231-0.105-0.391-0.219-0.469c-0.103-0.072-0.318-0.117-0.646-0.133C46.664,543.231,46.349,543.229,45.836,543.229z"/>
	<path fill="#F4F4F4" d="M49.633,542.084h1.422v2.144c0.007,0.492,0.024,0.808,0.051,0.937c0.045,0.222,0.201,0.352,0.465,0.391
		c0.242,0.036,0.607,0.059,1.097,0.059c0.506,0,0.861-0.02,1.066-0.047c0.298-0.048,0.465-0.219,0.499-0.515
		c0.027-0.239,0.041-0.513,0.041-0.817v-2.146h1.422v2.146c-0.016,0.744-0.04,1.233-0.072,1.467
		c-0.057,0.388-0.244,0.674-0.561,0.854c-0.235,0.138-0.629,0.217-1.183,0.246c-0.255,0.014-0.654,0.021-1.196,0.021
		c-0.8,0-1.368-0.022-1.706-0.068c-0.255-0.034-0.458-0.081-0.608-0.143c-0.15-0.062-0.278-0.146-0.383-0.262
		c-0.144-0.148-0.236-0.344-0.277-0.57c-0.045-0.266-0.069-0.578-0.072-0.949l-0.007-0.603v-2.145H49.633L49.633,542.084z"/>
	<path fill="#F4F4F4" d="M56.001,542.084h5.646v1.189h-2.075v3.477h-1.494v-3.477H56L56.001,542.084L56.001,542.084z"/>
</g>
<rect x="-41" y="287.75" fill="#1C1C1C" width="39.825" height="12"/>
<rect x="34.836" y="287.75" fill="#1C1C1C" width="32.664" height="12"/>
<g>
	<path fill="#F4F4F4" d="M-40.672,291.584h4.932v1.098h-3.51v0.885h3.339v1.07h-3.339v1.613h-1.422V291.584z"/>
	<path fill="#F4F4F4" d="M-35.415,296.25v-4.666h3.435c0.811,0.003,1.29,0.012,1.436,0.023c0.167,0.017,0.317,0.062,0.453,0.146
		c0.136,0.081,0.241,0.184,0.316,0.309c0.078,0.139,0.124,0.275,0.14,0.424c0.021,0.172,0.031,0.378,0.031,0.615
		c0,0.385-0.026,0.646-0.079,0.801c-0.08,0.224-0.23,0.377-0.451,0.465c-0.075,0.025-0.188,0.056-0.338,0.078
		c0.298,0.021,0.513,0.104,0.643,0.257c0.057,0.063,0.098,0.142,0.121,0.228c0.024,0.086,0.041,0.211,0.05,0.374
		c0.002,0.085,0.003,0.257,0.003,0.521v0.434h-1.401V296c0-0.277-0.013-0.477-0.038-0.598c-0.037-0.176-0.129-0.275-0.277-0.312
		c-0.098-0.021-0.304-0.026-0.619-0.026h-2.003v1.186H-35.415L-35.415,296.25z M-33.993,293.898h2
		c0.298-0.008,0.475-0.012,0.53-0.018c0.201-0.012,0.327-0.072,0.379-0.186c0.037-0.076,0.055-0.207,0.055-0.396
		c0-0.157-0.016-0.274-0.048-0.354c-0.048-0.112-0.163-0.18-0.345-0.19c-0.064-0.004-0.255-0.008-0.574-0.01h-1.996L-33.993,293.898
		L-33.993,293.898z"/>
	<path fill="#F4F4F4" d="M-29.116,291.584h5.168v1.098h-3.767v0.678h3.575v1.021h-3.575v0.748h3.794v1.121h-5.195V291.584z"/>
	<path fill="#F4F4F4" d="M-16.599,295.307l-0.537,0.991l-0.458-0.325c-0.182,0.146-0.414,0.231-0.694,0.271
		c-0.365,0.05-1.073,0.074-2.126,0.074c-0.978,0-1.654-0.024-2.03-0.074c-0.544-0.073-0.878-0.331-1.001-0.776
		c-0.084-0.305-0.126-0.821-0.126-1.551c0-0.728,0.042-1.243,0.126-1.549c0.123-0.444,0.457-0.703,1.001-0.775
		c0.378-0.051,1.071-0.075,2.078-0.075c1.007,0,1.7,0.024,2.078,0.075c0.544,0.072,0.878,0.331,1.001,0.775
		c0.059,0.212,0.095,0.448,0.106,0.711c0.014,0.269,0.021,0.56,0.021,0.868c0,0.457-0.014,0.808-0.041,1.05L-16.599,295.307z
		 M-20.034,293.279l1.449,0.916c0.002-0.063,0.003-0.121,0.003-0.178c0-0.312-0.009-0.537-0.027-0.68
		c-0.032-0.236-0.105-0.395-0.219-0.473c-0.103-0.072-0.318-0.117-0.646-0.133c-0.116-0.008-0.414-0.01-0.892-0.01
		c-0.75,0-1.201,0.021-1.354,0.061c-0.186,0.049-0.303,0.156-0.355,0.324c-0.05,0.17-0.075,0.479-0.075,0.938
		c0,0.272,0.016,0.478,0.048,0.604c0.055,0.233,0.226,0.371,0.513,0.404c0.209,0.026,0.643,0.041,1.299,0.041
		c0.579,0,0.977-0.017,1.193-0.046l-1.504-0.797L-20.034,293.279z"/>
	<path fill="#F4F4F4" d="M-10.324,294.449h1.422c0.009,0.228,0.014,0.384,0.014,0.468c0,0.34-0.054,0.612-0.161,0.817
		c-0.112,0.213-0.325,0.359-0.639,0.443c-0.344,0.098-0.939,0.145-1.784,0.145c-0.932,0-1.56-0.02-1.883-0.045
		c-0.301-0.025-0.538-0.064-0.711-0.119c-0.173-0.059-0.317-0.135-0.431-0.24c-0.153-0.141-0.25-0.328-0.291-0.561
		c-0.045-0.244-0.068-0.717-0.068-1.408c0-0.667,0.017-1.117,0.051-1.354c0.05-0.349,0.186-0.602,0.407-0.759
		c0.168-0.118,0.438-0.203,0.807-0.253c0.383-0.05,1.07-0.075,2.061-0.075c0.59,0,1.011,0.017,1.261,0.038
		c0.378,0.036,0.654,0.109,0.827,0.219c0.214,0.137,0.35,0.33,0.407,0.584c0.041,0.187,0.062,0.396,0.062,0.637
		c0,0.041-0.001,0.131-0.003,0.27h-1.422c-0.004-0.113-0.009-0.189-0.014-0.229c-0.018-0.143-0.081-0.229-0.188-0.268
		c-0.162-0.055-0.604-0.082-1.326-0.082c-0.492,0-0.832,0.018-1.019,0.041c-0.228,0.032-0.369,0.156-0.424,0.373
		c-0.043,0.176-0.065,0.458-0.065,0.85c0,0.399,0.021,0.68,0.065,0.828c0.055,0.199,0.205,0.313,0.451,0.35
		c0.201,0.021,0.553,0.037,1.056,0.037c0.544,0,0.916-0.014,1.114-0.033c0.187-0.021,0.305-0.088,0.355-0.202
		C-10.351,294.82-10.328,294.665-10.324,294.449z"/>
	<path fill="#F4F4F4" d="M-8.816,291.584h1.562l1.702,3.494h0.267l1.685-3.494h1.552l-2.276,4.666h-2.184L-8.816,291.584z"/>
</g>
<g>
	<path fill="#F4F4F4" d="M36.165,296.25v-4.666H39.6c0.811,0.003,1.29,0.012,1.436,0.023c0.167,0.017,0.317,0.062,0.453,0.146
		c0.136,0.081,0.241,0.184,0.316,0.309c0.078,0.139,0.124,0.275,0.14,0.424c0.021,0.172,0.031,0.378,0.031,0.615
		c0,0.385-0.026,0.646-0.079,0.801c-0.08,0.224-0.23,0.377-0.451,0.465c-0.075,0.025-0.188,0.056-0.338,0.078
		c0.298,0.021,0.513,0.104,0.643,0.257c0.057,0.063,0.098,0.142,0.121,0.228c0.024,0.086,0.041,0.211,0.05,0.374
		c0.002,0.085,0.003,0.257,0.003,0.521v0.434h-1.401V296c0-0.277-0.013-0.477-0.038-0.598c-0.037-0.176-0.129-0.275-0.277-0.312
		c-0.098-0.021-0.304-0.026-0.619-0.026h-2.003v1.186H36.165L36.165,296.25z M37.586,293.898h2c0.298-0.008,0.475-0.012,0.53-0.018
		c0.201-0.012,0.327-0.072,0.379-0.186c0.037-0.076,0.055-0.207,0.055-0.396c0-0.157-0.016-0.274-0.048-0.354
		c-0.048-0.112-0.163-0.18-0.345-0.19c-0.064-0.004-0.255-0.008-0.574-0.01h-1.996L37.586,293.898L37.586,293.898z"/>
	<path fill="#F4F4F4" d="M42.464,291.584h5.168v1.098h-3.767v0.678h3.575v1.021h-3.575v0.748h3.794v1.121h-5.195V291.584z"/>
	<path fill="#F4F4F4" d="M47.939,294.705h1.377c-0.002,0.229,0.044,0.378,0.14,0.443c0.05,0.029,0.107,0.055,0.171,0.062
		s0.175,0.021,0.335,0.023c0.08,0.002,0.341,0.005,0.783,0.007c0.606-0.003,0.957-0.007,1.053-0.011
		c0.18-0.018,0.298-0.037,0.355-0.071c0.08-0.05,0.12-0.162,0.12-0.335c0-0.118-0.025-0.201-0.075-0.25
		c-0.068-0.065-0.231-0.104-0.489-0.105c-0.178,0-0.549-0.014-1.114-0.041c-0.583-0.023-0.961-0.043-1.135-0.048
		c-0.451-0.014-0.769-0.063-0.954-0.157c-0.237-0.113-0.392-0.312-0.465-0.595c-0.041-0.155-0.062-0.354-0.062-0.604
		c0-0.528,0.1-0.901,0.301-1.117c0.15-0.164,0.378-0.272,0.684-0.325c0.276-0.046,0.932-0.067,1.969-0.067
		c0.674,0,1.151,0.021,1.429,0.061c0.367,0.053,0.631,0.145,0.793,0.271c0.219,0.185,0.328,0.503,0.328,0.968
		c0,0.054-0.001,0.133-0.003,0.239h-1.377c-0.004-0.108-0.013-0.188-0.024-0.229c-0.032-0.127-0.137-0.198-0.314-0.217
		c-0.157-0.015-0.54-0.021-1.148-0.021c-0.602,0-0.958,0.018-1.07,0.052c-0.125,0.041-0.188,0.147-0.188,0.317
		c0,0.164,0.066,0.265,0.198,0.301c0.112,0.03,0.614,0.059,1.507,0.086c0.809,0.021,1.325,0.051,1.548,0.086
		c0.226,0.033,0.405,0.085,0.539,0.153c0.133,0.065,0.24,0.165,0.319,0.29c0.121,0.186,0.181,0.479,0.181,0.893
		c0,0.459-0.059,0.795-0.178,1.008c-0.119,0.217-0.312,0.357-0.581,0.438c-0.264,0.077-0.992,0.116-2.184,0.116
		c-0.725,0-1.248-0.021-1.569-0.062c-0.392-0.045-0.673-0.134-0.844-0.266c-0.185-0.145-0.294-0.342-0.328-0.6
		c-0.018-0.125-0.027-0.272-0.027-0.443L47.939,294.705L47.939,294.705z"/>
	<path fill="#F4F4F4" d="M60.33,294.449h1.422c0.009,0.228,0.014,0.384,0.014,0.468c0,0.34-0.054,0.612-0.161,0.817
		c-0.112,0.213-0.325,0.359-0.639,0.443c-0.344,0.098-0.939,0.145-1.784,0.145c-0.932,0-1.56-0.02-1.883-0.045
		c-0.301-0.025-0.538-0.064-0.711-0.119c-0.173-0.059-0.317-0.135-0.431-0.24c-0.153-0.141-0.25-0.328-0.291-0.561
		c-0.045-0.244-0.068-0.717-0.068-1.408c0-0.667,0.017-1.117,0.051-1.354c0.05-0.349,0.186-0.602,0.407-0.759
		c0.168-0.118,0.438-0.203,0.807-0.253c0.383-0.05,1.07-0.075,2.061-0.075c0.59,0,1.011,0.017,1.261,0.038
		c0.378,0.036,0.654,0.109,0.827,0.219c0.214,0.137,0.35,0.33,0.407,0.584c0.041,0.187,0.062,0.396,0.062,0.637
		c0,0.041-0.001,0.131-0.003,0.27h-1.422c-0.004-0.113-0.009-0.189-0.014-0.229c-0.018-0.143-0.081-0.229-0.188-0.268
		c-0.162-0.055-0.604-0.082-1.326-0.082c-0.492,0-0.832,0.018-1.019,0.041c-0.228,0.032-0.369,0.156-0.424,0.373
		c-0.043,0.176-0.065,0.458-0.065,0.85c0,0.399,0.021,0.68,0.065,0.828c0.055,0.199,0.205,0.313,0.451,0.35
		c0.201,0.021,0.553,0.037,1.056,0.037c0.544,0,0.916-0.014,1.114-0.033c0.187-0.021,0.305-0.088,0.354-0.202
		C60.302,294.82,60.325,294.665,60.33,294.449z"/>
	<path fill="#F4F4F4" d="M61.837,291.584h1.562l1.702,3.494h0.267l1.685-3.494h1.552l-2.276,4.666h-2.184L61.837,291.584z"/>
</g>
<g>
	<path fill="#F9F9F9" d="M-11.764,207.42h4.463l4.863,9.98h0.762l4.814-9.98h4.434l-6.504,13.33h-6.24L-11.764,207.42z"/>
	<path fill="#F9F9F9" d="M20.746,215.604h4.062c0.026,0.651,0.039,1.101,0.039,1.342c0,0.97-0.153,1.748-0.459,2.334
		c-0.319,0.609-0.928,1.037-1.826,1.275c-0.983,0.271-2.682,0.4-5.098,0.4c-2.663,0-4.457-0.042-5.381-0.127
		c-0.859-0.071-1.537-0.188-2.031-0.342c-0.494-0.156-0.905-0.387-1.23-0.688c-0.436-0.4-0.713-0.938-0.83-1.602
		c-0.13-0.696-0.195-2.038-0.195-4.023c0-1.906,0.049-3.189,0.146-3.854c0.143-0.996,0.531-1.723,1.162-2.168
		c0.482-0.34,1.25-0.579,2.305-0.727c1.094-0.144,3.057-0.215,5.889-0.215c1.686,0,2.887,0.036,3.604,0.107
		c1.081,0.104,1.869,0.312,2.363,0.625c0.612,0.384,1,0.938,1.162,1.67c0.117,0.521,0.176,1.123,0.176,1.807
		c0,0.117-0.003,0.374-0.01,0.771h-4.062c-0.013-0.325-0.026-0.549-0.039-0.664c-0.052-0.397-0.231-0.647-0.537-0.752
		c-0.462-0.156-1.725-0.234-3.789-0.234c-1.406,0-2.376,0.039-2.91,0.117c-0.651,0.091-1.055,0.445-1.211,1.062
		c-0.124,0.5-0.186,1.312-0.186,2.424c0,1.146,0.062,1.938,0.186,2.371c0.156,0.565,0.586,0.896,1.289,0.985
		c0.573,0.071,1.579,0.106,3.018,0.106c1.556,0,2.617-0.031,3.184-0.101c0.534-0.059,0.873-0.251,1.016-0.575
		C20.668,216.668,20.733,216.223,20.746,215.604z"/>
	<path fill="#F9F9F9" d="M26.254,207.42h14.092v3.135H30.317v2.521h9.541v3.062h-9.541v4.609h-4.062L26.254,207.42L26.254,207.42z"
		/>
</g>
<g>
	<path fill="#EDEDED" d="M-12.131,554.502h1.28v2.979h2.845v1.02h-4.125V554.502z"/>
	<path fill="#EDEDED" d="M-7.728,554.502h1.28v3.999h-1.28V554.502z"/>
	<path fill="#EDEDED" d="M-5.888,554.502h2.136l2.095,2.982h0.126l-0.029-2.982h1.239v3.999h-2.118l-2.104-2.985h-0.132l0.026,2.985
		h-1.239V554.502z"/>
	<path fill="#EDEDED" d="M0.238,558.501v-3.999h2.886c0.627,0,1.032,0.011,1.216,0.032c0.355,0.041,0.617,0.134,0.785,0.274
		c0.18,0.156,0.298,0.408,0.354,0.76c0.027,0.166,0.041,0.455,0.041,0.866c0,0.529-0.023,0.897-0.07,1.104
		c-0.064,0.281-0.17,0.488-0.316,0.621c-0.1,0.092-0.221,0.161-0.363,0.208s-0.335,0.081-0.577,0.103
		c-0.191,0.021-0.547,0.026-1.066,0.026L0.238,558.501L0.238,558.501z M1.439,557.481h1.696c0.344,0,0.601-0.018,0.771-0.041
		c0.188-0.031,0.309-0.14,0.357-0.313c0.037-0.129,0.056-0.332,0.056-0.609c0-0.297-0.02-0.515-0.059-0.649
		c-0.047-0.174-0.154-0.279-0.322-0.316c-0.133-0.028-0.404-0.047-0.814-0.047H1.439V557.481L1.439,557.481z"/>
	<path fill="#EDEDED" d="M6,554.502h4.43v0.94H7.201v0.577h3.064v0.879H7.201v0.642h3.252v0.961H6V554.502L6,554.502z"/>
	<path fill="#EDEDED" d="M10.834,554.502h2.136l2.095,2.982h0.126l-0.029-2.982h1.239v3.999h-2.118l-2.104-2.985h-0.132l0.026,2.985
		h-1.239V554.502z"/>
	<path fill="#EDEDED" d="M16.96,558.501v-3.999h2.874c0.611,0.002,0.975,0.007,1.09,0.015c0.262,0.02,0.454,0.062,0.577,0.145
		c0.141,0.09,0.232,0.214,0.275,0.372c0.039,0.146,0.059,0.316,0.059,0.51c0,0.234-0.022,0.411-0.067,0.53
		c-0.074,0.189-0.231,0.321-0.472,0.396c0.178,0.031,0.31,0.076,0.396,0.137c0.195,0.133,0.293,0.404,0.293,0.824
		c0,0.326-0.051,0.567-0.152,0.728c-0.09,0.137-0.227,0.229-0.41,0.277c-0.156,0.041-0.418,0.062-0.785,0.064l-0.794,0.006
		L16.96,558.501L16.96,558.501z M18.121,556.078h1.717c0.377,0,0.602-0.016,0.674-0.044c0.096-0.037,0.144-0.133,0.144-0.287
		c0-0.158-0.058-0.253-0.173-0.284c-0.045-0.012-0.26-0.019-0.645-0.021h-1.717V556.078L18.121,556.078z M18.121,557.54h1.723
		c0.32-0.002,0.509-0.004,0.565-0.006c0.178-0.008,0.291-0.043,0.34-0.105c0.037-0.051,0.056-0.129,0.056-0.23
		c0-0.168-0.061-0.271-0.182-0.296c-0.043-0.016-0.303-0.021-0.779-0.021h-1.723V557.54L18.121,557.54z"/>
	<path fill="#EDEDED" d="M22.407,554.502h4.43v0.94h-3.229v0.577h3.064v0.879h-3.064v0.642h3.252v0.961h-4.453V554.502
		L22.407,554.502z"/>
	<path fill="#EDEDED" d="M27.241,558.501v-3.999h2.944c0.695,0.002,1.105,0.009,1.23,0.021c0.143,0.014,0.272,0.056,0.388,0.125
		c0.116,0.065,0.207,0.153,0.271,0.265c0.066,0.115,0.106,0.235,0.12,0.36c0.018,0.146,0.026,0.319,0.026,0.526
		c0,0.326-0.021,0.558-0.067,0.687c-0.068,0.188-0.197,0.32-0.387,0.396c-0.064,0.025-0.161,0.048-0.29,0.067
		c0.256,0.02,0.439,0.093,0.551,0.22c0.049,0.057,0.083,0.121,0.104,0.195c0.021,0.068,0.035,0.18,0.042,0.316
		c0.002,0.072,0.003,0.224,0.003,0.442v0.372h-1.201v-0.214c0-0.238-0.011-0.409-0.032-0.516c-0.031-0.146-0.11-0.233-0.237-0.265
		c-0.084-0.019-0.261-0.025-0.53-0.025h-1.717v1.02L27.241,558.501L27.241,558.501z M28.459,556.485h1.714
		c0.256-0.005,0.407-0.012,0.454-0.016c0.172-0.01,0.28-0.062,0.325-0.155c0.031-0.065,0.047-0.182,0.047-0.34
		c0-0.137-0.014-0.234-0.041-0.305c-0.041-0.098-0.14-0.148-0.296-0.164c-0.055-0.004-0.219-0.007-0.492-0.009h-1.711V556.485
		L28.459,556.485z"/>
	<path fill="#EDEDED" d="M35.086,556.233h2.786c0.004,0.088,0.006,0.145,0.006,0.17c0,0.521-0.015,0.928-0.044,1.213
		c-0.047,0.461-0.309,0.739-0.785,0.838c-0.246,0.049-0.516,0.078-0.809,0.088c-0.312,0.012-0.679,0.018-1.104,0.018
		c-0.756,0-1.296-0.023-1.62-0.081c-0.449-0.071-0.728-0.278-0.835-0.618c-0.053-0.166-0.083-0.356-0.091-0.571
		c-0.01-0.271-0.015-0.557-0.015-0.861c0-0.516,0.024-0.878,0.073-1.087c0.07-0.291,0.191-0.496,0.363-0.615
		c0.09-0.062,0.203-0.109,0.338-0.146c0.136-0.033,0.328-0.062,0.576-0.083c0.35-0.031,0.822-0.047,1.418-0.047
		c0.766,0,1.308,0.028,1.626,0.091c0.322,0.061,0.549,0.168,0.68,0.322c0.115,0.139,0.186,0.354,0.211,0.654
		c0.006,0.078,0.009,0.201,0.009,0.367H36.65c-0.002-0.105-0.008-0.184-0.018-0.223c-0.027-0.1-0.114-0.159-0.261-0.179
		c-0.193-0.025-0.574-0.038-1.143-0.038c-0.506,0-0.856,0.017-1.052,0.05c-0.186,0.033-0.298,0.135-0.337,0.305
		c-0.031,0.129-0.047,0.358-0.047,0.688c0,0.379,0.017,0.638,0.05,0.772c0.043,0.188,0.176,0.289,0.398,0.312
		c0.109,0.01,0.439,0.019,0.99,0.023c0.602-0.005,0.989-0.017,1.163-0.032c0.158-0.025,0.249-0.099,0.272-0.209
		c0.014-0.069,0.021-0.181,0.021-0.321h-1.603v-0.802L35.086,556.233L35.086,556.233z"/>
	<path fill="#EDEDED" d="M-8.336,565.701v-3.999h2.944c0.695,0.002,1.105,0.009,1.23,0.021c0.143,0.018,0.272,0.06,0.388,0.125
		c0.116,0.069,0.207,0.157,0.271,0.269c0.066,0.111,0.106,0.231,0.12,0.356c0.018,0.146,0.026,0.323,0.026,0.53
		c0,0.326-0.022,0.554-0.067,0.683c-0.068,0.191-0.197,0.324-0.387,0.398c-0.064,0.025-0.161,0.048-0.29,0.067
		c0.256,0.02,0.439,0.093,0.551,0.22c0.049,0.057,0.083,0.121,0.104,0.195c0.021,0.068,0.035,0.18,0.042,0.316
		c0.002,0.072,0.003,0.22,0.003,0.442v0.372h-1.201v-0.214c0-0.238-0.011-0.409-0.032-0.517c-0.031-0.146-0.11-0.232-0.237-0.264
		c-0.084-0.018-0.261-0.026-0.53-0.026h-1.717v1.021L-8.336,565.701L-8.336,565.701z M-7.117,563.686h1.714
		c0.256-0.004,0.407-0.008,0.454-0.012c0.172-0.01,0.28-0.062,0.325-0.158c0.031-0.062,0.047-0.179,0.047-0.337
		c0-0.137-0.014-0.234-0.041-0.305c-0.041-0.098-0.14-0.152-0.296-0.164c-0.055-0.004-0.219-0.007-0.492-0.009h-1.711V563.686
		L-7.117,563.686z"/>
	<path fill="#EDEDED" d="M-2.937,561.702h4.43v0.938h-3.229v0.577h3.064v0.879h-3.064v0.646h3.252v0.961h-4.453V561.702
		L-2.937,561.702z"/>
	<path fill="#EDEDED" d="M1.757,564.377h1.181c-0.002,0.197,0.038,0.324,0.12,0.381c0.043,0.027,0.092,0.046,0.146,0.06
		c0.054,0.01,0.15,0.017,0.287,0.021c0.068,0.002,0.292,0.004,0.671,0.006c0.52-0.002,0.82-0.005,0.902-0.009
		c0.154-0.012,0.256-0.032,0.305-0.062c0.068-0.045,0.103-0.141,0.103-0.285c0-0.104-0.021-0.174-0.064-0.215
		c-0.059-0.06-0.198-0.09-0.419-0.094c-0.152,0-0.471-0.012-0.955-0.033c-0.5-0.021-0.824-0.035-0.973-0.041
		c-0.387-0.014-0.659-0.059-0.817-0.137c-0.203-0.1-0.336-0.27-0.398-0.51c-0.035-0.133-0.053-0.307-0.053-0.521
		c0-0.45,0.086-0.771,0.258-0.955c0.129-0.145,0.324-0.233,0.586-0.278c0.236-0.039,0.799-0.062,1.688-0.062
		c0.578,0,0.986,0.021,1.225,0.054c0.314,0.045,0.541,0.123,0.68,0.23c0.188,0.154,0.281,0.435,0.281,0.829
		c0,0.043-0.001,0.111-0.003,0.205H5.327c-0.004-0.096-0.011-0.162-0.021-0.199c-0.027-0.105-0.117-0.171-0.27-0.185
		c-0.135-0.014-0.463-0.021-0.984-0.021c-0.516,0-0.821,0.019-0.917,0.045c-0.107,0.034-0.161,0.125-0.161,0.271
		c0,0.141,0.057,0.227,0.17,0.258c0.096,0.025,0.526,0.05,1.292,0.073c0.693,0.02,1.136,0.044,1.327,0.073
		c0.193,0.025,0.347,0.069,0.461,0.132c0.114,0.059,0.206,0.142,0.274,0.249c0.104,0.158,0.155,0.413,0.155,0.765
		c0,0.396-0.051,0.683-0.152,0.864c-0.102,0.182-0.268,0.306-0.498,0.372c-0.227,0.063-0.851,0.1-1.872,0.1
		c-0.621,0-1.069-0.017-1.345-0.05c-0.336-0.039-0.577-0.115-0.724-0.229c-0.158-0.121-0.252-0.294-0.281-0.517
		c-0.016-0.104-0.023-0.23-0.023-0.381L1.757,564.377L1.757,564.377z"/>
	<path fill="#EDEDED" d="M7.074,561.702h4.43v0.938H8.275v0.577h3.064v0.879H8.275v0.646h3.252v0.961H7.074V561.702L7.074,561.702z"
		/>
	<path fill="#EDEDED" d="M16.25,565.701l-0.343-0.677h-2.646l-0.343,0.677h-1.392l2.121-3.999h1.893l2.092,3.999H16.25z
		 M15.479,564.148l-0.771-1.519h-0.243l-0.771,1.519H15.479z"/>
	<path fill="#EDEDED" d="M17.814,565.701v-3.999h2.944c0.695,0.002,1.105,0.009,1.23,0.021c0.143,0.018,0.272,0.06,0.388,0.125
		c0.116,0.069,0.207,0.157,0.271,0.269c0.066,0.111,0.106,0.231,0.12,0.356c0.018,0.146,0.026,0.323,0.026,0.53
		c0,0.326-0.022,0.554-0.067,0.683c-0.068,0.191-0.197,0.324-0.387,0.398c-0.064,0.025-0.161,0.048-0.29,0.067
		c0.256,0.02,0.439,0.093,0.551,0.22c0.049,0.057,0.083,0.121,0.104,0.195c0.021,0.068,0.035,0.18,0.042,0.316
		c0.002,0.072,0.003,0.22,0.003,0.442v0.372h-1.201v-0.214c0-0.238-0.011-0.409-0.032-0.517c-0.031-0.146-0.11-0.232-0.237-0.264
		c-0.084-0.018-0.261-0.026-0.53-0.026h-1.717v1.021L17.814,565.701L17.814,565.701z M19.033,563.686h1.714
		c0.256-0.004,0.407-0.008,0.454-0.012c0.172-0.01,0.28-0.062,0.325-0.158c0.031-0.062,0.047-0.179,0.047-0.337
		c0-0.137-0.014-0.234-0.041-0.305c-0.041-0.098-0.14-0.152-0.296-0.164c-0.055-0.004-0.219-0.007-0.492-0.009h-1.711V563.686
		L19.033,563.686z"/>
	<path fill="#EDEDED" d="M27.04,564.157h1.219c0.008,0.191,0.012,0.329,0.012,0.397c0,0.291-0.046,0.524-0.138,0.7
		c-0.096,0.188-0.278,0.312-0.548,0.384c-0.295,0.08-0.805,0.12-1.529,0.12c-0.799,0-1.337-0.013-1.614-0.038
		c-0.258-0.021-0.461-0.056-0.609-0.103s-0.271-0.115-0.369-0.205c-0.131-0.121-0.214-0.281-0.249-0.48
		c-0.039-0.209-0.059-0.607-0.059-1.207c0-0.568,0.015-0.958,0.044-1.153c0.043-0.301,0.159-0.52,0.349-0.65
		c0.145-0.102,0.375-0.174,0.691-0.217c0.328-0.043,0.917-0.064,1.767-0.064c0.506,0,0.866,0.015,1.081,0.032
		c0.324,0.031,0.561,0.094,0.709,0.188c0.184,0.111,0.3,0.278,0.349,0.5c0.035,0.153,0.053,0.338,0.053,0.543
		c0,0.031-0.001,0.108-0.003,0.229h-1.219c-0.004-0.098-0.008-0.164-0.012-0.199c-0.016-0.119-0.069-0.19-0.161-0.226
		c-0.139-0.047-0.518-0.07-1.137-0.07c-0.422,0-0.713,0.015-0.873,0.035c-0.195,0.027-0.316,0.134-0.363,0.319
		c-0.037,0.146-0.056,0.393-0.056,0.727c0,0.344,0.019,0.581,0.056,0.712c0.047,0.17,0.176,0.271,0.387,0.296
		c0.172,0.021,0.474,0.032,0.905,0.032c0.467,0,0.785-0.01,0.955-0.029c0.16-0.018,0.262-0.072,0.305-0.173
		C27.017,564.477,27.036,564.343,27.04,564.157z"/>
	<path fill="#EDEDED" d="M28.692,561.702h1.28v1.43h2.751v-1.43h1.28v3.999h-1.28v-1.45h-2.751v1.45h-1.28V561.702z"/>
</g>
</svg>
