<?xml version="1.0" encoding="UTF-8" standalone="no"?>
<!DOCTYPE svg PUBLIC "-//W3C//DTD SVG 1.1//EN" "http://www.w3.org/Graphics/SVG/1.1/DTD/svg11.dtd">
<svg width="75px" height="380px" version="1.1" xmlns="http://www.w3.org/2000/svg" xmlns:xlink="http://www.w3.org/1999/xlink" xml:space="preserve" xmlns:serif="http://www.serif.com/" style="fill-rule:evenodd;clip-rule:evenodd;stroke-miterlimit:10;">
    <rect id="Panel" x="0" y="0" width="75" height="380" style="fill:#1d1d1d;"/>
    <g id="Scales">
        <g id="ScaleSmall_3_" transform="matrix(1,0,0,1,-52.9243,157.337)">
            <g id="OuterCircle_4_" transform="matrix(0.871536,0,0,0.871536,9.37732,23.2294)">
                <path d="M66.295,194.337c-4.545,-2.404 -7.642,-7.182 -7.642,-12.684c0,-7.92 6.422,-14.343 14.342,-14.343c7.921,0 14.343,6.423 14.343,14.343c0,5.459 -3.05,10.206 -7.538,12.628" style="fill:none;stroke:#c96368;stroke-width:4.93px;"/>
            </g>
            <circle id="Circle_4_" cx="72.995" cy="181.659" r="11.474" style="fill:#323232;"/>
        </g>
        <g id="ScaleSmall_3_1" serif:id="ScaleSmall_3_" transform="matrix(1,0,0,1,-18.0933,-113.43)">
            <g id="OuterCircle_4_1" serif:id="OuterCircle_4_" transform="matrix(0.871536,0,0,0.871536,9.37732,23.2294)">
                <path d="M66.295,194.337c-4.545,-2.404 -7.642,-7.182 -7.642,-12.684c0,-7.92 6.422,-14.343 14.342,-14.343c7.921,0 14.343,6.423 14.343,14.343c0,5.459 -3.05,10.206 -7.538,12.628" style="fill:none;stroke:#f9f9f9;stroke-width:4.93px;"/>
            </g>
            <circle id="Circle_4_1" serif:id="Circle_4_" cx="72.995" cy="181.659" r="11.474" style="fill:#323232;"/>
        </g>
        <g id="ScaleSmall_3_2" serif:id="ScaleSmall_3_" transform="matrix(1,0,0,1,-18.0061,-68.4768)">
            <g id="OuterCircle_4_2" serif:id="OuterCircle_4_" transform="matrix(0.871536,0,0,0.871536,9.37732,23.2294)">
                <path d="M66.295,194.337c-4.545,-2.404 -7.642,-7.182 -7.642,-12.684c0,-7.92 6.422,-14.343 14.342,-14.343c7.921,0 14.343,6.423 14.343,14.343c0,5.459 -3.05,10.206 -7.538,12.628" style="fill:none;stroke:#f9f9f9;stroke-width:4.93px;"/>
            </g>
            <circle id="Circle_4_2" serif:id="Circle_4_" cx="72.995" cy="181.659" r="11.474" style="fill:#323232;"/>
        </g>
        <g id="ScaleSmall_3_3" serif:id="ScaleSmall_3_" transform="matrix(1,0,0,1,-17.9123,-23.578)">
            <g id="OuterCircle_4_3" serif:id="OuterCircle_4_" transform="matrix(0.871536,0,0,0.871536,9.37732,23.2294)">
                <path d="M66.295,194.337c-4.545,-2.404 -7.642,-7.182 -7.642,-12.684c0,-7.92 6.422,-14.343 14.342,-14.343c7.921,0 14.343,6.423 14.343,14.343c0,5.459 -3.05,10.206 -7.538,12.628" style="fill:none;stroke:#f9f9f9;stroke-width:4.93px;"/>
            </g>
            <circle id="Circle_4_3" serif:id="Circle_4_" cx="72.995" cy="181.659" r="11.474" style="fill:#323232;"/>
        </g>
        <g id="ScaleSmall_3_4" serif:id="ScaleSmall_3_" transform="matrix(1,0,0,1,-17.9753,21.3327)">
            <g id="OuterCircle_4_4" serif:id="OuterCircle_4_" transform="matrix(0.871536,0,0,0.871536,9.37732,23.2294)">
                <path d="M66.295,194.337c-4.545,-2.404 -7.642,-7.182 -7.642,-12.684c0,-7.92 6.422,-14.343 14.342,-14.343c7.921,0 14.343,6.423 14.343,14.343c0,5.459 -3.05,10.206 -7.538,12.628" style="fill:none;stroke:#f9f9f9;stroke-width:4.93px;"/>
            </g>
            <circle id="Circle_4_4" serif:id="Circle_4_" cx="72.995" cy="181.659" r="11.474" style="fill:#323232;"/>
        </g>
        <g id="ScaleSmall_3_5" serif:id="ScaleSmall_3_" transform="matrix(1,0,0,1,-17.9284,66.3318)">
            <g id="OuterCircle_4_5" serif:id="OuterCircle_4_" transform="matrix(0.871536,0,0,0.871536,9.37732,23.2294)">
                <path d="M66.295,194.337c-4.545,-2.404 -7.642,-7.182 -7.642,-12.684c0,-7.92 6.422,-14.343 14.342,-14.343c7.921,0 14.343,6.423 14.343,14.343c0,5.459 -3.05,10.206 -7.538,12.628" style="fill:none;stroke:#f9f9f9;stroke-width:4.93px;"/>
            </g>
            <circle id="Circle_4_5" serif:id="Circle_4_" cx="72.995" cy="181.659" r="11.474" style="fill:#323232;"/>
        </g>
        <g id="ScaleSmall_3_6" serif:id="ScaleSmall_3_" transform="matrix(1,0,0,1,-18.0074,111.547)">
            <g id="OuterCircle_4_6" serif:id="OuterCircle_4_" transform="matrix(0.871536,0,0,0.871536,9.37732,23.2294)">
                <path d="M66.295,194.337c-4.545,-2.404 -7.642,-7.182 -7.642,-12.684c0,-7.92 6.422,-14.343 14.342,-14.343c7.921,0 14.343,6.423 14.343,14.343c0,5.459 -3.05,10.206 -7.538,12.628" style="fill:none;stroke:#f9f9f9;stroke-width:4.93px;"/>
            </g>
            <circle id="Circle_4_6" serif:id="Circle_4_" cx="72.995" cy="181.659" r="11.474" style="fill:#323232;"/>
        </g>
    </g>
    <g id="Logo">
        <g transform="matrix(0.0779295,0,0,0.0779295,27.7136,350.135)">
            <path d="M232.321,164.268c-0.551,-1.407 -1.25,-2.487 -1.733,-4.267l0.016,0c-0.034,0 -0.056,-0.074 -0.088,-0.149c-0.062,-0.193 -0.122,-0.353 -0.173,-0.548c-0.097,-0.365 -0.189,-0.759 -0.253,-1.179c-0.043,-2.08 1.872,-2.792 1.946,-5.183c0.081,-2.573 -1.476,-3.898 -1.946,-4.241c-0.02,-0.028 -0.037,-0.054 -0.056,-0.082c0.012,-0.037 0.02,-0.068 0.031,-0.104c2.993,-2.433 1.69,-5.738 1.69,-5.738c-0.636,-0.338 -1.313,-0.55 -1.797,-0.98c-4.337,-3.863 -4.606,-6.636 -1.196,-11.288c0.866,-1.185 1.746,-2.375 2.467,-3.649c1.761,-3.117 1.359,-4.599 -1.81,-6.367c-2.28,-1.271 -4.743,-2.218 -6.988,-3.545c-6.396,-3.778 -11.834,-8.521 -15.061,-15.174c2.171,-3.872 2.171,-3.872 1.304,-6.341c-0.791,0.865 -1.527,1.672 -2.688,2.944c0,-3.049 0.294,-5.379 -0.083,-7.595c-0.367,-2.156 -0.85,-4.792 -2.281,-6.178c-5.217,-5.045 -8.175,-11.292 -10.92,-17.796c-2.029,-4.806 -4.196,-9.66 -8.171,-13.236c-2,-1.8 -4.474,-3.072 -6.742,-4.587c0,-1.354 0.017,-2.653 -0.006,-3.951c-0.019,-1.297 0.038,-2.61 -0.136,-3.89c-0.702,-5.113 -4.34,-7.564 -9.404,-6.548c-3.181,0.638 -6.385,1.238 -9.605,1.563c-1.888,0.19 -3.584,0.128 -3.225,-3.432c1.62,0 3.162,0 5.368,0c-1.104,0 -1.515,-1.544 -2.067,-1.769c-2.208,-0.892 -4.045,-0.36 -5.099,1.396c-1.25,2.077 0.023,3.586 1.504,4.555c1.273,0.832 3.004,1.441 4.492,1.365c3.234,-0.167 6.436,-0.842 9.658,-1.296c2.8,-0.394 4.451,0.587 5.01,3.266c0.266,1.278 0.047,2.658 0.047,3.561c-3.72,-1.383 -6.953,-3.369 -10.347,-3.69c-7.432,-0.706 -14.956,-0.912 -22.413,-0.611c-3.084,0.124 -6.484,1.511 -9.049,3.309c-4.547,3.188 -9.441,5.039 -14.773,6.138c-2.549,0.526 -5.106,1.149 -7.55,2.03c-4.689,1.689 -8.626,4.342 -11.53,8.63c-1.595,2.354 -3.836,4.445 -6.188,6.076c-4.591,3.184 -9.001,6.424 -12.144,11.187c-1.712,2.596 -4.124,4.212 -7.839,3.113c-1.104,-4.244 -4.87,-4.911 -8.627,-5.423c-1.764,-0.242 -3.625,-0.32 -5.373,-0.04c-10.247,1.643 -19.554,5.56 -26.813,13.074c-6.565,6.797 -5.937,10.365 -2.739,16.202c2.063,3.766 2.131,7.435 -0.279,11.089c-1.874,2.842 -2.57,6.013 -2.071,9.354c1.284,8.609 4.072,16.22 13.409,19.251c0.615,0.198 1.156,0.607 1.748,0.881c2.125,0.984 3.145,2.592 3.365,4.971c0.144,1.54 0.491,3.357 1.429,4.479c6.245,7.454 20.432,8.503 25.041,-1.951c0.189,-0.432 0.624,-0.756 0.945,-1.129c0.305,0.134 0.609,0.266 0.914,0.399c-0.27,1.348 -0.539,2.694 -0.81,4.042c-0.351,1.75 -1.204,3.572 -0.961,5.235c0.915,6.264 1.484,12.716 3.503,18.648c2.452,7.204 8.53,14.587 18.762,13.197c3.549,-0.483 6.782,0.391 9.818,2.234c1.254,0.76 2.657,1.272 3.912,2.027c3.221,1.943 6.497,1.898 9.857,0.464c2.024,-0.863 4.052,-1.726 6.331,-2.698c-1.16,4.041 -2.278,7.594 -3.189,11.197c-1.336,5.287 -3.631,9.452 -9.941,9.48c-0.115,0 -0.228,0.204 -0.481,0.441c0.473,1.385 0.975,2.855 1.446,4.234c-3.43,5.076 -9.388,5.288 -13.951,7.881c8.949,0.082 15.39,-4.254 16.179,-10.562c4.91,-1.582 7.805,-5.034 9.233,-9.921c0.777,-2.659 1.611,-5.32 2.672,-7.879c1.746,-4.209 4.792,-6.719 9.406,-6.833c-0.302,3.22 -0.579,6.169 -0.855,9.113c-6.687,1.486 -6.819,1.649 -6.534,8.315c-1.583,1.269 -3.238,2.596 -5.685,4.557c6.226,-1.428 7.436,-2.953 8.025,-9.211c0.938,-0.325 1.962,-0.799 3.039,-1.035c4.009,-0.875 4.11,-0.859 3.682,-5.037c-0.251,-2.445 0.739,-3.996 3.163,-5.664c0.451,1.766 0.892,3.088 1.115,4.445c0.316,1.923 0.547,3.867 0.687,5.81c0.517,7.404 -0.06,14.643 -3.457,21.43c-4.159,8.313 -8.334,16.622 -12.413,24.973c-1.174,2.404 -2.482,4.234 -5.172,5.433c-4.265,1.907 -7.421,6.556 -7.757,10.832c15.258,2.949 26.312,6.953 41.04,18.833c9.647,7.785 19.862,11.309 29.399,12.456c0.003,-0.004 10.248,-13.711 19.753,-32.558c-0.241,-0.365 -0.484,-0.728 -0.723,-1.095c-6.25,-9.478 -11.533,-18.592 -13.049,-22.521c-2.853,-7.395 -3.838,-14.659 -2.132,-22.466c1.983,-9.083 3.633,-18.206 7.761,-26.672c2.412,-4.95 6.15,-7.711 11.519,-8.858c6.366,-1.36 12.689,-3.037 18.94,-4.868c6.706,-1.966 9.308,-7.753 6.747,-14.275Z" style="fill-opacity:0.760784;fill-rule:nonzero;"/>
        </g>
        <g transform="matrix(0.0779295,0,0,0.0779295,27.0462,349.468)">
            <path d="M232.321,164.268c-0.551,-1.407 -1.25,-2.487 -1.733,-4.267l0.016,0c-0.034,0 -0.056,-0.074 -0.088,-0.149c-0.062,-0.193 -0.122,-0.353 -0.173,-0.548c-0.097,-0.365 -0.189,-0.759 -0.253,-1.179c-0.043,-2.08 1.872,-2.792 1.946,-5.183c0.081,-2.573 -1.476,-3.898 -1.946,-4.241c-0.02,-0.028 -0.037,-0.054 -0.056,-0.082c0.012,-0.037 0.02,-0.068 0.031,-0.104c2.993,-2.433 1.69,-5.738 1.69,-5.738c-0.636,-0.338 -1.313,-0.55 -1.797,-0.98c-4.337,-3.863 -4.606,-6.636 -1.196,-11.288c0.866,-1.185 1.746,-2.375 2.467,-3.649c1.761,-3.117 1.359,-4.599 -1.81,-6.367c-2.28,-1.271 -4.743,-2.218 -6.988,-3.545c-6.396,-3.778 -11.834,-8.521 -15.061,-15.174c2.171,-3.872 2.171,-3.872 1.304,-6.341c-0.791,0.865 -1.527,1.672 -2.688,2.944c0,-3.049 0.294,-5.379 -0.083,-7.595c-0.367,-2.156 -0.85,-4.792 -2.281,-6.178c-5.217,-5.045 -8.175,-11.292 -10.92,-17.796c-2.029,-4.806 -4.196,-9.66 -8.171,-13.236c-2,-1.8 -4.474,-3.072 -6.742,-4.587c0,-1.354 0.017,-2.653 -0.006,-3.951c-0.019,-1.297 0.038,-2.61 -0.136,-3.89c-0.702,-5.113 -4.34,-7.564 -9.404,-6.548c-3.181,0.638 -6.385,1.238 -9.605,1.563c-1.888,0.19 -3.584,0.128 -3.225,-3.432c1.62,0 3.162,0 5.368,0c-1.104,0 -1.515,-1.544 -2.067,-1.769c-2.208,-0.892 -4.045,-0.36 -5.099,1.396c-1.25,2.077 0.023,3.586 1.504,4.555c1.273,0.832 3.004,1.441 4.492,1.365c3.234,-0.167 6.436,-0.842 9.658,-1.296c2.8,-0.394 4.451,0.587 5.01,3.266c0.266,1.278 0.047,2.658 0.047,3.561c-3.72,-1.383 -6.953,-3.369 -10.347,-3.69c-7.432,-0.706 -14.956,-0.912 -22.413,-0.611c-3.084,0.124 -6.484,1.511 -9.049,3.309c-4.547,3.188 -9.441,5.039 -14.773,6.138c-2.549,0.526 -5.106,1.149 -7.55,2.03c-4.689,1.689 -8.626,4.342 -11.53,8.63c-1.595,2.354 -3.836,4.445 -6.188,6.076c-4.591,3.184 -9.001,6.424 -12.144,11.187c-1.712,2.596 -4.124,4.212 -7.839,3.113c-1.104,-4.244 -4.87,-4.911 -8.627,-5.423c-1.764,-0.242 -3.625,-0.32 -5.373,-0.04c-10.247,1.643 -19.554,5.56 -26.813,13.074c-6.565,6.797 -5.937,10.365 -2.739,16.202c2.063,3.766 2.131,7.435 -0.279,11.089c-1.874,2.842 -2.57,6.013 -2.071,9.354c1.284,8.609 4.072,16.22 13.409,19.251c0.615,0.198 1.156,0.607 1.748,0.881c2.125,0.984 3.145,2.592 3.365,4.971c0.144,1.54 0.491,3.357 1.429,4.479c6.245,7.454 20.432,8.503 25.041,-1.951c0.189,-0.432 0.624,-0.756 0.945,-1.129c0.305,0.134 0.609,0.266 0.914,0.399c-0.27,1.348 -0.539,2.694 -0.81,4.042c-0.351,1.75 -1.204,3.572 -0.961,5.235c0.915,6.264 1.484,12.716 3.503,18.648c2.452,7.204 8.53,14.587 18.762,13.197c3.549,-0.483 6.782,0.391 9.818,2.234c1.254,0.76 2.657,1.272 3.912,2.027c3.221,1.943 6.497,1.898 9.857,0.464c2.024,-0.863 4.052,-1.726 6.331,-2.698c-1.16,4.041 -2.278,7.594 -3.189,11.197c-1.336,5.287 -3.631,9.452 -9.941,9.48c-0.115,0 -0.228,0.204 -0.481,0.441c0.473,1.385 0.975,2.855 1.446,4.234c-3.43,5.076 -9.388,5.288 -13.951,7.881c8.949,0.082 15.39,-4.254 16.179,-10.562c4.91,-1.582 7.805,-5.034 9.233,-9.921c0.777,-2.659 1.611,-5.32 2.672,-7.879c1.746,-4.209 4.792,-6.719 9.406,-6.833c-0.302,3.22 -0.579,6.169 -0.855,9.113c-6.687,1.486 -6.819,1.649 -6.534,8.315c-1.583,1.269 -3.238,2.596 -5.685,4.557c6.226,-1.428 7.436,-2.953 8.025,-9.211c0.938,-0.325 1.962,-0.799 3.039,-1.035c4.009,-0.875 4.11,-0.859 3.682,-5.037c-0.251,-2.445 0.739,-3.996 3.163,-5.664c0.451,1.766 0.892,3.088 1.115,4.445c0.316,1.923 0.547,3.867 0.687,5.81c0.517,7.404 -0.06,14.643 -3.457,21.43c-4.159,8.313 -8.334,16.622 -12.413,24.973c-1.174,2.404 -2.482,4.234 -5.172,5.433c-4.265,1.907 -7.421,6.556 -7.757,10.832c15.258,2.949 26.312,6.953 41.04,18.833c9.647,7.785 19.862,11.309 29.399,12.456c0.003,-0.004 10.248,-13.711 19.753,-32.558c-0.241,-0.365 -0.484,-0.728 -0.723,-1.095c-6.25,-9.478 -11.533,-18.592 -13.049,-22.521c-2.853,-7.395 -3.838,-14.659 -2.132,-22.466c1.983,-9.083 3.633,-18.206 7.761,-26.672c2.412,-4.95 6.15,-7.711 11.519,-8.858c6.366,-1.36 12.689,-3.037 18.94,-4.868c6.706,-1.966 9.308,-7.753 6.747,-14.275Z" style="fill:#5a5a5a;fill-opacity:0.760784;fill-rule:nonzero;"/>
        </g>
    </g>
    <g id="Description" transform="matrix(1,0,0,1,-10.3942,-23.7183)">
        <path d="M30.054,63.222c-0.021,0.006 -0.042,0.01 -0.064,0.012c-0.021,0.003 -0.05,0.004 -0.088,0.004c-0.432,0 -0.817,-0.073 -1.156,-0.22c-0.338,-0.146 -0.624,-0.345 -0.856,-0.596c-0.232,-0.25 -0.408,-0.542 -0.528,-0.876c-0.12,-0.333 -0.18,-0.689 -0.18,-1.068c0,-0.378 0.06,-0.734 0.18,-1.068c0.12,-0.333 0.296,-0.625 0.528,-0.876c0.232,-0.25 0.518,-0.449 0.856,-0.596c0.339,-0.146 0.724,-0.22 1.156,-0.22c0.432,0 0.816,0.074 1.152,0.22c0.336,0.147 0.62,0.346 0.852,0.596c0.232,0.251 0.41,0.543 0.532,0.876c0.123,0.334 0.184,0.69 0.184,1.068c0,0.491 -0.1,0.94 -0.3,1.348c-0.2,0.408 -0.489,0.735 -0.868,0.98l1.28,0.848l-0.616,0.936l-2.064,-1.368Zm-0.152,-1.024c0.23,0 0.432,-0.042 0.608,-0.128c0.176,-0.085 0.324,-0.204 0.444,-0.356c0.12,-0.152 0.21,-0.333 0.268,-0.544c0.059,-0.21 0.088,-0.441 0.088,-0.692c0,-0.25 -0.029,-0.481 -0.088,-0.692c-0.058,-0.21 -0.148,-0.392 -0.268,-0.544c-0.12,-0.152 -0.268,-0.27 -0.444,-0.356c-0.176,-0.085 -0.378,-0.128 -0.608,-0.128c-0.234,0 -0.438,0.043 -0.612,0.128c-0.173,0.086 -0.32,0.204 -0.44,0.356c-0.12,0.152 -0.209,0.334 -0.268,0.544c-0.058,0.211 -0.088,0.442 -0.088,0.692c0,0.251 0.03,0.482 0.088,0.692c0.059,0.211 0.148,0.392 0.268,0.544c0.12,0.152 0.267,0.271 0.44,0.356c0.174,0.086 0.378,0.128 0.612,0.128Z" style="fill:#fff;fill-rule:nonzero;stroke:#fff;stroke-width:0.3px;stroke-linejoin:round;stroke-miterlimit:1.41421;"/>
        <path d="M36.998,57.814l1.312,0l0,3.408c0,0.63 -0.198,1.123 -0.596,1.48c-0.397,0.358 -0.95,0.536 -1.66,0.536c-0.709,0 -1.262,-0.178 -1.66,-0.536c-0.397,-0.357 -0.596,-0.85 -0.596,-1.48l0,-3.408l1.312,0l0,3.448c0,0.304 0.08,0.536 0.24,0.696c0.16,0.16 0.395,0.24 0.704,0.24c0.31,0 0.544,-0.08 0.704,-0.24c0.16,-0.16 0.24,-0.392 0.24,-0.696l0,-3.448Z" style="fill:#fff;fill-rule:nonzero;stroke:#fff;stroke-width:0.3px;stroke-linejoin:round;stroke-miterlimit:1.41421;"/>
        <rect x="39.774" y="57.814" width="1.312" height="5.328" style="fill:#fff;fill-rule:nonzero;stroke:#fff;stroke-width:0.3px;stroke-linejoin:round;stroke-miterlimit:1.41421;"/>
        <path d="M45.182,57.718c0.278,0 0.556,0.027 0.836,0.08c0.28,0.054 0.522,0.131 0.724,0.232l-0.192,0.968c-0.16,-0.064 -0.342,-0.118 -0.548,-0.164c-0.205,-0.045 -0.409,-0.068 -0.612,-0.068c-0.544,0 -0.973,0.142 -1.288,0.424c-0.314,0.283 -0.472,0.712 -0.472,1.288c0,0.576 0.158,1.006 0.472,1.288c0.315,0.283 0.744,0.424 1.288,0.424c0.203,0 0.407,-0.022 0.612,-0.068c0.206,-0.045 0.388,-0.1 0.548,-0.164l0.192,0.968c-0.202,0.102 -0.444,0.179 -0.724,0.232c-0.28,0.054 -0.558,0.08 -0.836,0.08c-0.469,0 -0.882,-0.069 -1.24,-0.208c-0.357,-0.138 -0.656,-0.33 -0.896,-0.576c-0.24,-0.245 -0.421,-0.536 -0.544,-0.872c-0.122,-0.336 -0.184,-0.704 -0.184,-1.104c0,-0.4 0.062,-0.768 0.184,-1.104c0.123,-0.336 0.304,-0.626 0.544,-0.872c0.24,-0.245 0.539,-0.437 0.896,-0.576c0.358,-0.138 0.771,-0.208 1.24,-0.208Z" style="fill:#fff;fill-rule:nonzero;stroke:#fff;stroke-width:0.3px;stroke-linejoin:round;stroke-miterlimit:1.41421;"/>
        <path d="M47.982,63.142l0,-5.328l1.312,0l0,2.552l1.68,-2.552l1.48,0l-1.8,2.632l1.928,2.696l-1.576,0l-1.712,-2.608l0,2.608l-1.312,0Z" style="fill:#fff;fill-rule:nonzero;stroke:#fff;stroke-width:0.3px;stroke-linejoin:round;stroke-miterlimit:1.41421;"/>
        <path d="M59.19,62.294l-1.264,0l-1.04,-2.136l-0.16,2.984l-1.288,0l0.4,-5.328l1.184,0l1.536,3.256l1.536,-3.256l1.184,0l0.4,5.328l-1.288,0l-0.16,-2.984l-1.04,2.136Z" style="fill:#fff;fill-rule:nonzero;stroke:#fff;stroke-width:0.3px;stroke-linejoin:round;stroke-miterlimit:1.41421;"/>
        <rect x="62.974" y="57.814" width="1.312" height="5.328" style="fill:#fff;fill-rule:nonzero;stroke:#fff;stroke-width:0.3px;stroke-linejoin:round;stroke-miterlimit:1.41421;"/>
        <path d="M68.534,60.462l1.8,2.68l-1.4,0l-1.072,-1.704l-1.072,1.704l-1.4,0l1.8,-2.68l-1.768,-2.648l1.392,0l1.048,1.664l1.048,-1.664l1.392,0l-1.768,2.648Z" style="fill:#fff;fill-rule:nonzero;stroke:#fff;stroke-width:0.3px;stroke-linejoin:round;stroke-miterlimit:1.41421;"/>
    </g>
    <g id="Name">
        <g transform="matrix(1,0,0,1,2.61305,0.286285)">
            <path d="M30.239,13.518c0,-0.014 -0.007,-0.027 -0.021,-0.041l0.021,0.041Zm-3.286,1.352c0,-0.027 -0.014,-0.069 -0.042,-0.125l0.042,0.125Zm0.083,0.853c0,-0.166 -0.021,-0.347 -0.063,-0.541c-0.235,-0.277 -0.523,-0.502 -0.863,-0.676c-0.34,-0.173 -0.704,-0.26 -1.092,-0.26c-0.347,0 -0.672,0.066 -0.977,0.198c-0.306,0.132 -0.569,0.312 -0.791,0.541c-0.222,0.228 -0.399,0.495 -0.53,0.8c-0.132,0.306 -0.198,0.631 -0.198,0.978c0,0.056 -0.003,0.104 -0.01,0.146c-0.007,0.041 -0.004,0.083 0.01,0.124c0.208,0.347 0.492,0.624 0.853,0.832c0.36,0.208 0.763,0.312 1.206,0.312c0.333,0 0.649,-0.065 0.947,-0.197c0.298,-0.132 0.558,-0.309 0.78,-0.531c0.222,-0.221 0.398,-0.481 0.53,-0.78c0.132,-0.298 0.198,-0.613 0.198,-0.946Zm-7.759,3.12c-0.263,-0.444 -0.468,-0.929 -0.613,-1.456c-0.146,-0.527 -0.219,-1.082 -0.219,-1.664c0,-0.846 0.16,-1.643 0.479,-2.392c0.319,-0.749 0.755,-1.4 1.31,-1.955c0.555,-0.555 1.207,-0.995 1.955,-1.321c0.749,-0.326 1.546,-0.489 2.392,-0.489c0.721,0 1.408,0.118 2.06,0.354c0.651,0.236 1.241,0.561 1.768,0.977c0.526,0.416 0.974,0.912 1.341,1.488c0.368,0.575 0.635,1.196 0.801,1.861l0.083,0.167c0.319,0.748 0.479,1.532 0.479,2.35l0,8.133l-3.578,0l-0.416,-0.978l-0.083,0l0,-1.393c-0.319,0.111 -0.652,0.194 -0.999,0.249c-0.346,0.056 -0.679,0.083 -0.998,0.083c-0.61,0 -1.2,-0.086 -1.768,-0.26c-0.569,-0.173 -1.099,-0.422 -1.591,-0.748c-0.493,-0.326 -0.936,-0.718 -1.331,-1.176c-0.396,-0.457 -0.711,-0.97 -0.947,-1.539l-0.125,-0.291Zm8.175,-3.12c0,0.402 -0.077,0.777 -0.229,1.123c-0.153,0.347 -0.357,0.649 -0.614,0.905c-0.256,0.257 -0.561,0.461 -0.915,0.614c-0.353,0.152 -0.724,0.228 -1.113,0.228c-0.402,0 -0.773,-0.076 -1.112,-0.228c-0.34,-0.153 -0.642,-0.357 -0.905,-0.614c-0.264,-0.256 -0.468,-0.558 -0.614,-0.905c-0.145,-0.346 -0.218,-0.721 -0.218,-1.123c0,-0.388 0.073,-0.759 0.218,-1.113c0.146,-0.353 0.35,-0.658 0.614,-0.915c0.263,-0.256 0.565,-0.461 0.905,-0.614c0.339,-0.152 0.71,-0.228 1.112,-0.228c0.389,0 0.76,0.076 1.113,0.228c0.354,0.153 0.659,0.358 0.915,0.614c0.257,0.257 0.461,0.562 0.614,0.915c0.152,0.354 0.229,0.725 0.229,1.113Zm2.87,0c0,-0.79 -0.149,-1.532 -0.447,-2.226c-0.298,-0.693 -0.707,-1.3 -1.227,-1.82c-0.52,-0.52 -1.13,-0.932 -1.831,-1.237c-0.7,-0.305 -1.445,-0.458 -2.236,-0.458c-0.79,0 -1.532,0.153 -2.225,0.458c-0.694,0.305 -1.3,0.717 -1.82,1.237c-0.52,0.52 -0.929,1.127 -1.227,1.82c-0.299,0.694 -0.448,1.436 -0.448,2.226c0,0.735 0.125,1.418 0.375,2.049c0.249,0.631 0.586,1.192 1.009,1.685c0.422,0.492 0.915,0.901 1.476,1.227c0.562,0.326 1.162,0.551 1.8,0.676c0.637,0.125 1.293,0.135 1.965,0.031c0.673,-0.104 1.328,-0.336 1.966,-0.697l0,2.808l2.87,0l0,-7.779Z" style="fill-rule:nonzero;stroke:#000;stroke-width:0.6px;stroke-linejoin:round;stroke-miterlimit:1.41421;"/>
            <path d="M48.169,14.912c0,-0.028 -0.014,-0.069 -0.042,-0.125l0.042,0.125Zm-17.036,6.989l-0.083,0l0,-12.293l3.703,0l0,0.229l0.083,0.228c0.388,-0.152 0.776,-0.266 1.165,-0.343c0.388,-0.076 0.783,-0.114 1.185,-0.114c0.791,0 1.553,0.149 2.288,0.447c0.735,0.298 1.408,0.732 2.018,1.3c0.624,-0.624 1.293,-1.075 2.007,-1.352c0.714,-0.277 1.459,-0.416 2.236,-0.416c0.125,0 0.239,0.004 0.343,0.01c0.104,0.007 0.212,0.018 0.323,0.032l0.499,0.083c0.069,0 0.142,0.007 0.218,0.021c0.076,0.014 0.149,0.034 0.219,0.062c0.027,0.014 0.055,0.021 0.083,0.021c0.291,0.097 0.558,0.191 0.801,0.281c0.242,0.09 0.447,0.19 0.613,0.301l-0.021,0l0.292,0.146l0.187,0.166c0.027,0.028 0.055,0.042 0.083,0.042l0.083,0.062l0.25,0.208c0.485,0.416 0.908,0.905 1.269,1.467c0.36,0.561 0.617,1.154 0.769,1.778l0.125,0.27c0.069,0.167 0.132,0.337 0.187,0.51c0.056,0.173 0.104,0.35 0.146,0.53l-0.021,-0.02l0.104,0.416c0.014,0.097 0.024,0.211 0.031,0.343c0.007,0.132 0.011,0.295 0.011,0.489l0,6.073l-3.578,0l-0.416,-0.977l-0.083,0l0,-6.136c0,-0.167 -0.021,-0.347 -0.063,-0.541c-0.235,-0.277 -0.523,-0.503 -0.863,-0.676c-0.34,-0.173 -0.704,-0.26 -1.092,-0.26c-0.333,0 -0.648,0.062 -0.946,0.187c-0.298,0.125 -0.562,0.295 -0.791,0.51c-0.228,0.215 -0.412,0.471 -0.551,0.769c-0.139,0.298 -0.215,0.614 -0.229,0.947l0,6.177l-3.577,0l-0.416,-0.977l-0.083,0l0,-6.136c0,-0.167 -0.021,-0.347 -0.063,-0.541c-0.236,-0.277 -0.52,-0.503 -0.853,-0.676c-0.332,-0.173 -0.693,-0.26 -1.081,-0.26c-0.347,0 -0.673,0.066 -0.978,0.197c-0.305,0.132 -0.572,0.309 -0.801,0.531c-0.228,0.222 -0.409,0.489 -0.54,0.801c-0.132,0.312 -0.198,0.641 -0.198,0.988l0,6.073l-3.578,0l-0.416,-0.977Zm20.405,-6.136c0,-0.305 -0.021,-0.604 -0.062,-0.895c-0.028,-0.111 -0.049,-0.201 -0.063,-0.27c-0.138,-0.666 -0.378,-1.276 -0.717,-1.831c-0.34,-0.554 -0.759,-1.033 -1.259,-1.435c-0.083,-0.083 -0.152,-0.145 -0.208,-0.187c-0.069,-0.042 -0.128,-0.083 -0.176,-0.125c-0.049,-0.041 -0.108,-0.083 -0.177,-0.125l-0.25,-0.124c-0.416,-0.236 -0.832,-0.416 -1.248,-0.541c-0.041,-0.014 -0.087,-0.024 -0.135,-0.031c-0.049,-0.007 -0.094,-0.018 -0.135,-0.032c-0.083,-0.027 -0.16,-0.041 -0.229,-0.041c-0.083,-0.028 -0.166,-0.045 -0.25,-0.052c-0.083,-0.007 -0.173,-0.017 -0.27,-0.031c-0.86,-0.097 -1.716,0.007 -2.569,0.312c-0.853,0.305 -1.619,0.839 -2.298,1.601c-0.458,-0.513 -0.978,-0.925 -1.56,-1.237c-0.583,-0.312 -1.189,-0.52 -1.82,-0.624c-0.631,-0.104 -1.273,-0.101 -1.924,0.01c-0.652,0.111 -1.269,0.34 -1.851,0.686l0,-0.395l0,-0.374l-2.871,0l0,11.461l2.871,0l0,-0.77l0,-4.846l0,-0.104l0,-0.042c0,-0.388 0.076,-0.756 0.228,-1.102c0.153,-0.347 0.357,-0.649 0.614,-0.905c0.256,-0.257 0.558,-0.458 0.905,-0.603c0.346,-0.146 0.721,-0.219 1.123,-0.219c0.388,0 0.756,0.073 1.102,0.219c0.347,0.145 0.652,0.35 0.916,0.613c0.263,0.264 0.468,0.569 0.613,0.915c0.146,0.347 0.219,0.722 0.219,1.124l0,5.72l2.87,0l0,-0.77l0,-4.95l0,-0.042l0,-0.062l0,-0.021c0.014,-0.388 0.1,-0.749 0.26,-1.082c0.159,-0.333 0.367,-0.624 0.624,-0.873c0.256,-0.25 0.555,-0.444 0.894,-0.583c0.34,-0.138 0.704,-0.208 1.092,-0.208c0.389,0 0.76,0.073 1.113,0.219c0.354,0.145 0.659,0.35 0.915,0.613c0.257,0.264 0.461,0.569 0.614,0.915c0.152,0.347 0.229,0.722 0.229,1.124l0,5.72l2.87,0l0,-5.72Z" style="fill-rule:nonzero;stroke:#000;stroke-width:0.6px;stroke-linejoin:round;stroke-miterlimit:1.41421;"/>
        </g>
        <g transform="matrix(1,0,0,1,1.61305,-0.713715)">
            <path d="M30.239,13.518c0,-0.014 -0.007,-0.027 -0.021,-0.041l0.021,0.041Zm-3.286,1.352c0,-0.027 -0.014,-0.069 -0.042,-0.125l0.042,0.125Zm0.083,0.853c0,-0.166 -0.021,-0.347 -0.063,-0.541c-0.235,-0.277 -0.523,-0.502 -0.863,-0.676c-0.34,-0.173 -0.704,-0.26 -1.092,-0.26c-0.347,0 -0.672,0.066 -0.977,0.198c-0.306,0.132 -0.569,0.312 -0.791,0.541c-0.222,0.228 -0.399,0.495 -0.53,0.8c-0.132,0.306 -0.198,0.631 -0.198,0.978c0,0.056 -0.003,0.104 -0.01,0.146c-0.007,0.041 -0.004,0.083 0.01,0.124c0.208,0.347 0.492,0.624 0.853,0.832c0.36,0.208 0.763,0.312 1.206,0.312c0.333,0 0.649,-0.065 0.947,-0.197c0.298,-0.132 0.558,-0.309 0.78,-0.531c0.222,-0.221 0.398,-0.481 0.53,-0.78c0.132,-0.298 0.198,-0.613 0.198,-0.946Zm-7.759,3.12c-0.263,-0.444 -0.468,-0.929 -0.613,-1.456c-0.146,-0.527 -0.219,-1.082 -0.219,-1.664c0,-0.846 0.16,-1.643 0.479,-2.392c0.319,-0.749 0.755,-1.4 1.31,-1.955c0.555,-0.555 1.207,-0.995 1.955,-1.321c0.749,-0.326 1.546,-0.489 2.392,-0.489c0.721,0 1.408,0.118 2.06,0.354c0.651,0.236 1.241,0.561 1.768,0.977c0.526,0.416 0.974,0.912 1.341,1.488c0.368,0.575 0.635,1.196 0.801,1.861l0.083,0.167c0.319,0.748 0.479,1.532 0.479,2.35l0,8.133l-3.578,0l-0.416,-0.978l-0.083,0l0,-1.393c-0.319,0.111 -0.652,0.194 -0.999,0.249c-0.346,0.056 -0.679,0.083 -0.998,0.083c-0.61,0 -1.2,-0.086 -1.768,-0.26c-0.569,-0.173 -1.099,-0.422 -1.591,-0.748c-0.493,-0.326 -0.936,-0.718 -1.331,-1.176c-0.396,-0.457 -0.711,-0.97 -0.947,-1.539l-0.125,-0.291Zm8.175,-3.12c0,0.402 -0.077,0.777 -0.229,1.123c-0.153,0.347 -0.357,0.649 -0.614,0.905c-0.256,0.257 -0.561,0.461 -0.915,0.614c-0.353,0.152 -0.724,0.228 -1.113,0.228c-0.402,0 -0.773,-0.076 -1.112,-0.228c-0.34,-0.153 -0.642,-0.357 -0.905,-0.614c-0.264,-0.256 -0.468,-0.558 -0.614,-0.905c-0.145,-0.346 -0.218,-0.721 -0.218,-1.123c0,-0.388 0.073,-0.759 0.218,-1.113c0.146,-0.353 0.35,-0.658 0.614,-0.915c0.263,-0.256 0.565,-0.461 0.905,-0.614c0.339,-0.152 0.71,-0.228 1.112,-0.228c0.389,0 0.76,0.076 1.113,0.228c0.354,0.153 0.659,0.358 0.915,0.614c0.257,0.257 0.461,0.562 0.614,0.915c0.152,0.354 0.229,0.725 0.229,1.113Zm2.87,0c0,-0.79 -0.149,-1.532 -0.447,-2.226c-0.298,-0.693 -0.707,-1.3 -1.227,-1.82c-0.52,-0.52 -1.13,-0.932 -1.831,-1.237c-0.7,-0.305 -1.445,-0.458 -2.236,-0.458c-0.79,0 -1.532,0.153 -2.225,0.458c-0.694,0.305 -1.3,0.717 -1.82,1.237c-0.52,0.52 -0.929,1.127 -1.227,1.82c-0.299,0.694 -0.448,1.436 -0.448,2.226c0,0.735 0.125,1.418 0.375,2.049c0.249,0.631 0.586,1.192 1.009,1.685c0.422,0.492 0.915,0.901 1.476,1.227c0.562,0.326 1.162,0.551 1.8,0.676c0.637,0.125 1.293,0.135 1.965,0.031c0.673,-0.104 1.328,-0.336 1.966,-0.697l0,2.808l2.87,0l0,-7.779Z" style="fill:#fff;fill-rule:nonzero;stroke:#fff;stroke-width:0.6px;stroke-linejoin:round;stroke-miterlimit:1.41421;"/>
            <path d="M48.169,14.912c0,-0.028 -0.014,-0.069 -0.042,-0.125l0.042,0.125Zm-17.036,6.989l-0.083,0l0,-12.293l3.703,0l0,0.229l0.083,0.228c0.388,-0.152 0.776,-0.266 1.165,-0.343c0.388,-0.076 0.783,-0.114 1.185,-0.114c0.791,0 1.553,0.149 2.288,0.447c0.735,0.298 1.408,0.732 2.018,1.3c0.624,-0.624 1.293,-1.075 2.007,-1.352c0.714,-0.277 1.459,-0.416 2.236,-0.416c0.125,0 0.239,0.004 0.343,0.01c0.104,0.007 0.212,0.018 0.323,0.032l0.499,0.083c0.069,0 0.142,0.007 0.218,0.021c0.076,0.014 0.149,0.034 0.219,0.062c0.027,0.014 0.055,0.021 0.083,0.021c0.291,0.097 0.558,0.191 0.801,0.281c0.242,0.09 0.447,0.19 0.613,0.301l-0.021,0l0.292,0.146l0.187,0.166c0.027,0.028 0.055,0.042 0.083,0.042l0.083,0.062l0.25,0.208c0.485,0.416 0.908,0.905 1.269,1.467c0.36,0.561 0.617,1.154 0.769,1.778l0.125,0.27c0.069,0.167 0.132,0.337 0.187,0.51c0.056,0.173 0.104,0.35 0.146,0.53l-0.021,-0.02l0.104,0.416c0.014,0.097 0.024,0.211 0.031,0.343c0.007,0.132 0.011,0.295 0.011,0.489l0,6.073l-3.578,0l-0.416,-0.977l-0.083,0l0,-6.136c0,-0.167 -0.021,-0.347 -0.063,-0.541c-0.235,-0.277 -0.523,-0.503 -0.863,-0.676c-0.34,-0.173 -0.704,-0.26 -1.092,-0.26c-0.333,0 -0.648,0.062 -0.946,0.187c-0.298,0.125 -0.562,0.295 -0.791,0.51c-0.228,0.215 -0.412,0.471 -0.551,0.769c-0.139,0.298 -0.215,0.614 -0.229,0.947l0,6.177l-3.577,0l-0.416,-0.977l-0.083,0l0,-6.136c0,-0.167 -0.021,-0.347 -0.063,-0.541c-0.236,-0.277 -0.52,-0.503 -0.853,-0.676c-0.332,-0.173 -0.693,-0.26 -1.081,-0.26c-0.347,0 -0.673,0.066 -0.978,0.197c-0.305,0.132 -0.572,0.309 -0.801,0.531c-0.228,0.222 -0.409,0.489 -0.54,0.801c-0.132,0.312 -0.198,0.641 -0.198,0.988l0,6.073l-3.578,0l-0.416,-0.977Zm20.405,-6.136c0,-0.305 -0.021,-0.604 -0.062,-0.895c-0.028,-0.111 -0.049,-0.201 -0.063,-0.27c-0.138,-0.666 -0.378,-1.276 -0.717,-1.831c-0.34,-0.554 -0.759,-1.033 -1.259,-1.435c-0.083,-0.083 -0.152,-0.145 -0.208,-0.187c-0.069,-0.042 -0.128,-0.083 -0.176,-0.125c-0.049,-0.041 -0.108,-0.083 -0.177,-0.125l-0.25,-0.124c-0.416,-0.236 -0.832,-0.416 -1.248,-0.541c-0.041,-0.014 -0.087,-0.024 -0.135,-0.031c-0.049,-0.007 -0.094,-0.018 -0.135,-0.032c-0.083,-0.027 -0.16,-0.041 -0.229,-0.041c-0.083,-0.028 -0.166,-0.045 -0.25,-0.052c-0.083,-0.007 -0.173,-0.017 -0.27,-0.031c-0.86,-0.097 -1.716,0.007 -2.569,0.312c-0.853,0.305 -1.619,0.839 -2.298,1.601c-0.458,-0.513 -0.978,-0.925 -1.56,-1.237c-0.583,-0.312 -1.189,-0.52 -1.82,-0.624c-0.631,-0.104 -1.273,-0.101 -1.924,0.01c-0.652,0.111 -1.269,0.34 -1.851,0.686l0,-0.395l0,-0.374l-2.871,0l0,11.461l2.871,0l0,-0.77l0,-4.846l0,-0.104l0,-0.042c0,-0.388 0.076,-0.756 0.228,-1.102c0.153,-0.347 0.357,-0.649 0.614,-0.905c0.256,-0.257 0.558,-0.458 0.905,-0.603c0.346,-0.146 0.721,-0.219 1.123,-0.219c0.388,0 0.756,0.073 1.102,0.219c0.347,0.145 0.652,0.35 0.916,0.613c0.263,0.264 0.468,0.569 0.613,0.915c0.146,0.347 0.219,0.722 0.219,1.124l0,5.72l2.87,0l0,-0.77l0,-4.95l0,-0.042l0,-0.062l0,-0.021c0.014,-0.388 0.1,-0.749 0.26,-1.082c0.159,-0.333 0.367,-0.624 0.624,-0.873c0.256,-0.25 0.555,-0.444 0.894,-0.583c0.34,-0.138 0.704,-0.208 1.092,-0.208c0.389,0 0.76,0.073 1.113,0.219c0.354,0.145 0.659,0.35 0.915,0.613c0.257,0.264 0.461,0.569 0.614,0.915c0.152,0.347 0.229,0.722 0.229,1.124l0,5.72l2.87,0l0,-5.72Z" style="fill:#fff;fill-rule:nonzero;stroke:#fff;stroke-width:0.6px;stroke-linejoin:round;stroke-miterlimit:1.41421;"/>
        </g>
    </g>
    <g transform="matrix(1,0,0,0.398134,0.428798,191.213)">
        <rect x="7.571" y="312.715" width="60.012" height="2.512" style="fill:#fefefe;fill-opacity:0.419608;"/>
    </g>
</svg>
