<?xml version="1.0" encoding="utf-8"?>
<!-- Generator: Adobe Illustrator 16.0.0, SVG Export Plug-In . SVG Version: 6.00 Build 0)  -->
<!DOCTYPE svg PUBLIC "-//W3C//DTD SVG 1.1//EN" "http://www.w3.org/Graphics/SVG/1.1/DTD/svg11.dtd">
<svg version="1.1" id="Layer_1" xmlns="http://www.w3.org/2000/svg" xmlns:xlink="http://www.w3.org/1999/xlink" x="0px" y="0px"
	 width="120px" height="380px" viewBox="0 0 120 380" enable-background="new 0 0 120 380" xml:space="preserve">
<rect fill="#1B1B1C" width="120" height="380"/>
<circle fill="#4A4A4A" cx="60" cy="334" r="15"/>
<circle fill="#717171" cx="60" cy="136" r="16"/>
<circle fill="#606060" cx="60" cy="241" r="25"/>
<circle fill="#4A4A4A" cx="85" cy="74" r="15"/>
<circle fill="#4A4A4A" cx="35" cy="74" r="15"/>
<g>
	<path fill="#F9F9FA" d="M32.7,16.917h4.463l4.863,9.98h0.762l4.814-9.98h4.434l-6.504,13.33h-6.24L32.7,16.917z"/>
	<path fill="#F9F9FA" d="M65.21,25.101h4.062c0.026,0.651,0.039,1.097,0.039,1.338c0,0.97-0.153,1.748-0.459,2.334
		c-0.319,0.612-0.928,1.039-1.826,1.279c-0.983,0.267-2.683,0.4-5.098,0.4c-2.663,0-4.457-0.042-5.381-0.127
		c-0.859-0.072-1.537-0.186-2.031-0.342s-0.905-0.384-1.23-0.684c-0.436-0.404-0.713-0.938-0.83-1.602
		c-0.13-0.697-0.195-2.038-0.195-4.023c0-1.908,0.049-3.193,0.146-3.857c0.143-0.996,0.531-1.719,1.162-2.168
		c0.482-0.338,1.25-0.58,2.305-0.723c1.094-0.143,3.057-0.215,5.889-0.215c1.687,0,2.888,0.036,3.604,0.107
		c1.081,0.104,1.868,0.312,2.363,0.625c0.612,0.384,0.999,0.941,1.162,1.67c0.117,0.521,0.176,1.123,0.176,1.807
		c0,0.117-0.003,0.375-0.01,0.771h-4.062c-0.013-0.326-0.026-0.547-0.039-0.664c-0.052-0.397-0.231-0.648-0.537-0.752
		c-0.462-0.156-1.726-0.234-3.789-0.234c-1.406,0-2.376,0.039-2.91,0.117c-0.651,0.091-1.055,0.446-1.211,1.064
		c-0.124,0.501-0.186,1.309-0.186,2.422c0,1.146,0.062,1.937,0.186,2.373c0.156,0.566,0.586,0.895,1.289,0.986
		c0.573,0.072,1.579,0.107,3.018,0.107c1.556,0,2.617-0.033,3.184-0.098c0.534-0.059,0.872-0.25,1.016-0.576
		C65.132,26.165,65.197,25.719,65.21,25.101z"/>
	<path fill="#F9F9FA" d="M70.249,25.833h3.936c-0.007,0.658,0.127,1.081,0.4,1.27c0.144,0.091,0.306,0.153,0.488,0.186
		s0.501,0.055,0.957,0.068c0.228,0.006,0.974,0.013,2.236,0.02c1.731-0.006,2.734-0.016,3.008-0.029
		c0.515-0.039,0.853-0.107,1.016-0.205c0.228-0.143,0.342-0.462,0.342-0.957c0-0.338-0.071-0.576-0.215-0.713
		c-0.195-0.189-0.661-0.29-1.396-0.303c-0.508,0-1.569-0.039-3.184-0.117c-1.667-0.078-2.747-0.124-3.242-0.137
		c-1.289-0.039-2.197-0.189-2.725-0.449c-0.677-0.332-1.12-0.898-1.328-1.699c-0.117-0.443-0.176-1.022-0.176-1.738
		c0-1.51,0.286-2.575,0.859-3.193c0.43-0.469,1.081-0.778,1.953-0.928c0.788-0.13,2.663-0.195,5.625-0.195
		c1.927,0,3.288,0.055,4.082,0.166c1.048,0.15,1.804,0.41,2.266,0.781c0.625,0.514,0.938,1.436,0.938,2.764
		c0,0.143-0.003,0.371-0.01,0.684h-3.936c-0.013-0.319-0.036-0.541-0.068-0.664c-0.091-0.365-0.391-0.57-0.898-0.615
		c-0.449-0.039-1.543-0.059-3.281-0.059c-1.719,0-2.737,0.049-3.057,0.146c-0.358,0.117-0.537,0.42-0.537,0.908
		c0,0.469,0.188,0.755,0.566,0.859c0.319,0.084,1.755,0.166,4.307,0.244c2.312,0.065,3.786,0.146,4.424,0.244
		c0.645,0.098,1.157,0.244,1.538,0.439s0.686,0.472,0.913,0.83c0.345,0.527,0.518,1.377,0.518,2.549
		c0,1.309-0.169,2.269-0.508,2.881c-0.339,0.605-0.892,1.019-1.66,1.24c-0.755,0.221-2.835,0.332-6.24,0.332
		c-2.07,0-3.564-0.055-4.482-0.166c-1.12-0.13-1.924-0.384-2.412-0.762c-0.527-0.404-0.84-0.973-0.938-1.709
		c-0.052-0.358-0.078-0.781-0.078-1.27V25.833z"/>
</g>
<line fill="none" stroke="#EFEFEF" stroke-width="2" stroke-miterlimit="10" x1="84.73" y1="74" x2="84.73" y2="136"/>
<line fill="none" stroke="#EFEFEF" stroke-width="2" stroke-miterlimit="10" x1="35.069" y1="74" x2="35" y2="208.25"/>
<rect x="76.767" y="97.29" fill="#1B1B1C" width="16.474" height="11.71"/>
<rect x="26.832" y="97" fill="#1B1B1C" width="16.474" height="11.71"/>
<g>
	<path fill="#969696" d="M26.863,34.995h1.449l1.251,3.493h0.263l1.056-3.493h1.716l1.063,3.493h0.267l1.258-3.493h1.507
		l-1.815,4.666h-2.194l-0.937-3.421l-0.926,3.421H28.62L26.863,34.995z"/>
	<path fill="#969696" d="M41.511,39.66l-0.4-0.79h-3.086l-0.4,0.79h-1.624l2.475-4.666h2.208l2.44,4.666H41.511z M40.612,37.849
		l-0.899-1.767H39.43l-0.899,1.767H40.612z"/>
	<path fill="#969696" d="M42.255,34.995h1.562l1.702,3.493h0.267l1.685-3.493h1.552l-2.276,4.666h-2.184L42.255,34.995z"/>
	<path fill="#969696" d="M49.356,34.995h5.168v1.097h-3.767v0.673h3.575v1.025h-3.575v0.749h3.794v1.121h-5.195V34.995z"/>
	<path fill="#969696" d="M54.93,38.115h1.377c-0.002,0.23,0.044,0.378,0.14,0.444c0.05,0.032,0.107,0.054,0.171,0.065
		s0.175,0.02,0.335,0.024c0.08,0.002,0.341,0.004,0.783,0.007c0.606-0.002,0.957-0.006,1.053-0.01
		c0.18-0.014,0.298-0.038,0.355-0.072c0.08-0.05,0.12-0.162,0.12-0.335c0-0.119-0.025-0.202-0.075-0.25
		c-0.068-0.066-0.231-0.102-0.489-0.106c-0.178,0-0.549-0.014-1.114-0.041c-0.583-0.027-0.961-0.043-1.135-0.048
		c-0.451-0.014-0.769-0.066-0.954-0.157c-0.237-0.116-0.392-0.314-0.465-0.595c-0.041-0.155-0.062-0.358-0.062-0.608
		c0-0.529,0.1-0.901,0.301-1.118c0.15-0.164,0.378-0.272,0.684-0.325c0.276-0.045,0.932-0.068,1.969-0.068
		c0.674,0,1.151,0.02,1.429,0.058c0.367,0.052,0.631,0.144,0.793,0.273c0.219,0.18,0.328,0.502,0.328,0.967
		c0,0.05-0.001,0.13-0.003,0.239h-1.377c-0.004-0.112-0.013-0.189-0.024-0.232c-0.032-0.127-0.137-0.199-0.314-0.215
		c-0.157-0.014-0.54-0.021-1.148-0.021c-0.602,0-0.958,0.017-1.07,0.051c-0.125,0.041-0.188,0.147-0.188,0.318
		c0,0.164,0.066,0.264,0.198,0.301c0.112,0.03,0.614,0.058,1.507,0.085c0.809,0.023,1.325,0.051,1.548,0.085
		c0.226,0.034,0.405,0.085,0.539,0.154c0.133,0.068,0.24,0.165,0.319,0.291c0.121,0.185,0.181,0.482,0.181,0.892
		c0,0.458-0.059,0.794-0.178,1.008c-0.119,0.212-0.312,0.356-0.581,0.434c-0.264,0.078-0.992,0.116-2.184,0.116
		c-0.725,0-1.248-0.02-1.569-0.058c-0.392-0.045-0.673-0.134-0.844-0.267c-0.185-0.141-0.294-0.341-0.328-0.598
		c-0.018-0.125-0.027-0.273-0.027-0.444V38.115z"/>
	<path fill="#969696" d="M61.232,34.995h1.493v1.668h3.21v-1.668h1.493v4.666h-1.493v-1.692h-3.21v1.692h-1.493V34.995z"/>
	<path fill="#969696" d="M73.244,39.66l-0.399-0.79h-3.087l-0.399,0.79h-1.624l2.475-4.666h2.209l2.439,4.666H73.244z
		 M72.346,37.849l-0.898-1.767h-0.284l-0.899,1.767H72.346z"/>
	<path fill="#969696" d="M75.168,39.66v-4.666h3.195c0.634,0,1.042,0.013,1.225,0.038c0.501,0.066,0.834,0.245,0.998,0.537
		c0.123,0.219,0.184,0.609,0.184,1.172c0,0.577-0.066,0.981-0.201,1.213c-0.128,0.219-0.338,0.37-0.633,0.455
		c-0.216,0.062-0.507,0.097-0.871,0.106c-0.164,0.002-0.393,0.003-0.688,0.003H76.59v1.142H75.168z M76.59,37.353h1.777
		c0.289-0.002,0.464-0.006,0.523-0.01c0.209-0.014,0.343-0.081,0.399-0.202c0.036-0.075,0.055-0.209,0.055-0.403
		c0-0.182-0.021-0.31-0.062-0.383c-0.062-0.109-0.19-0.17-0.387-0.181c-0.061-0.004-0.237-0.009-0.529-0.014H76.59V37.353z"/>
	<path fill="#969696" d="M81.336,34.995h5.168v1.097h-3.767v0.673h3.575v1.025h-3.575v0.749h3.794v1.121h-5.195V34.995z"/>
	<path fill="#969696" d="M87.074,39.66v-4.666h3.436c0.811,0.002,1.289,0.01,1.436,0.024c0.166,0.016,0.316,0.064,0.452,0.146
		c0.136,0.081,0.241,0.184,0.316,0.309c0.077,0.134,0.124,0.274,0.14,0.42c0.021,0.171,0.031,0.377,0.031,0.619
		c0,0.38-0.026,0.646-0.078,0.796c-0.08,0.223-0.23,0.378-0.451,0.465c-0.076,0.03-0.188,0.056-0.339,0.079
		c0.299,0.023,0.513,0.108,0.643,0.256c0.057,0.066,0.098,0.142,0.121,0.228c0.024,0.085,0.041,0.21,0.05,0.374
		c0.002,0.084,0.004,0.256,0.004,0.516v0.434h-1.402v-0.25c0-0.278-0.012-0.478-0.037-0.598c-0.036-0.173-0.129-0.276-0.277-0.308
		c-0.098-0.021-0.304-0.031-0.618-0.031h-2.003v1.186H87.074z M88.496,37.309h2c0.298-0.004,0.475-0.009,0.529-0.014
		c0.2-0.011,0.327-0.073,0.379-0.185c0.037-0.078,0.055-0.208,0.055-0.393c0-0.16-0.016-0.278-0.047-0.355
		c-0.049-0.114-0.163-0.178-0.346-0.191c-0.063-0.004-0.255-0.008-0.574-0.01h-1.996V37.309z"/>
</g>
<g>
	<path fill="#EDEDED" d="M34.996,364.053h1.279v2.979h2.846v1.02h-4.125V364.053z"/>
	<path fill="#EDEDED" d="M39.398,364.053h1.28v3.999h-1.28V364.053z"/>
	<path fill="#EDEDED" d="M41.238,364.053h2.137l2.095,2.982h0.126l-0.029-2.982h1.24v3.999h-2.119l-2.104-2.985h-0.132l0.026,2.985
		h-1.24V364.053z"/>
	<path fill="#EDEDED" d="M47.365,368.052v-3.999h2.886c0.627,0,1.032,0.011,1.216,0.032c0.355,0.041,0.617,0.134,0.785,0.275
		c0.18,0.156,0.298,0.408,0.354,0.759c0.027,0.166,0.041,0.455,0.041,0.867c0,0.529-0.022,0.897-0.069,1.104
		c-0.063,0.281-0.17,0.488-0.316,0.621c-0.1,0.092-0.221,0.161-0.362,0.208c-0.143,0.047-0.336,0.081-0.578,0.103
		c-0.19,0.021-0.547,0.026-1.065,0.026L47.365,368.052L47.365,368.052z M48.566,367.032h1.695c0.344,0,0.602-0.017,0.771-0.041
		c0.188-0.031,0.309-0.139,0.357-0.313c0.036-0.129,0.055-0.332,0.055-0.609c0-0.297-0.02-0.515-0.059-0.65
		c-0.047-0.174-0.154-0.279-0.322-0.316c-0.133-0.029-0.403-0.047-0.813-0.047h-1.685V367.032L48.566,367.032z"/>
	<path fill="#EDEDED" d="M53.126,364.053h4.43v0.94h-3.229v0.577h3.064v0.879h-3.064v0.642h3.252v0.961h-4.453V364.053
		L53.126,364.053z"/>
	<path fill="#EDEDED" d="M57.96,364.053h2.137l2.094,2.982h0.127l-0.029-2.982h1.238v3.999H61.41l-2.104-2.985h-0.133l0.026,2.985
		H57.96V364.053z"/>
	<path fill="#EDEDED" d="M64.086,368.052v-3.999h2.875c0.611,0.002,0.975,0.007,1.09,0.015c0.262,0.019,0.453,0.062,0.576,0.144
		c0.143,0.09,0.232,0.214,0.275,0.372c0.039,0.147,0.059,0.317,0.059,0.51c0,0.234-0.021,0.411-0.066,0.53
		c-0.074,0.19-0.23,0.322-0.473,0.396c0.18,0.031,0.311,0.076,0.396,0.136c0.195,0.133,0.293,0.405,0.293,0.825
		c0,0.326-0.051,0.567-0.152,0.727c-0.09,0.137-0.227,0.229-0.41,0.278c-0.154,0.041-0.418,0.062-0.783,0.064l-0.795,0.006
		L64.086,368.052L64.086,368.052z M65.248,365.629h1.717c0.377,0,0.602-0.016,0.674-0.044c0.096-0.037,0.145-0.133,0.145-0.287
		c0-0.158-0.059-0.253-0.174-0.284c-0.045-0.012-0.26-0.019-0.645-0.021h-1.717V365.629L65.248,365.629z M65.248,367.091h1.723
		c0.32-0.002,0.51-0.004,0.564-0.006c0.178-0.008,0.291-0.043,0.34-0.105c0.037-0.051,0.057-0.129,0.057-0.231
		c0-0.168-0.061-0.27-0.182-0.296c-0.043-0.015-0.303-0.021-0.779-0.021h-1.723V367.091L65.248,367.091z"/>
	<path fill="#EDEDED" d="M69.533,364.053h4.43v0.94h-3.229v0.577h3.064v0.879h-3.064v0.642h3.252v0.961h-4.453V364.053
		L69.533,364.053z"/>
	<path fill="#EDEDED" d="M74.367,368.052v-3.999h2.945c0.693,0.002,1.104,0.009,1.229,0.021c0.145,0.014,0.273,0.056,0.389,0.125
		c0.115,0.066,0.207,0.154,0.271,0.265c0.066,0.115,0.105,0.235,0.119,0.36c0.018,0.146,0.025,0.32,0.025,0.527
		c0,0.326-0.021,0.557-0.066,0.686c-0.068,0.188-0.197,0.321-0.387,0.396c-0.064,0.025-0.16,0.048-0.289,0.067
		c0.256,0.02,0.438,0.093,0.551,0.22c0.049,0.057,0.082,0.121,0.104,0.195c0.021,0.069,0.035,0.18,0.041,0.317
		c0.002,0.072,0.004,0.223,0.004,0.442v0.372h-1.201v-0.214c0-0.238-0.012-0.409-0.031-0.515c-0.031-0.146-0.111-0.234-0.238-0.265
		c-0.084-0.018-0.26-0.025-0.529-0.025h-1.717v1.019L74.367,368.052L74.367,368.052z M75.586,366.036h1.713
		c0.258-0.005,0.408-0.011,0.455-0.015c0.172-0.01,0.279-0.062,0.324-0.156c0.031-0.065,0.047-0.181,0.047-0.339
		c0-0.137-0.014-0.235-0.041-0.305c-0.041-0.098-0.139-0.149-0.295-0.164c-0.055-0.004-0.219-0.007-0.492-0.009h-1.711V366.036
		L75.586,366.036z"/>
	<path fill="#EDEDED" d="M82.213,365.784h2.785c0.004,0.088,0.006,0.145,0.006,0.17c0,0.521-0.014,0.928-0.043,1.213
		c-0.047,0.461-0.309,0.739-0.785,0.838c-0.246,0.049-0.516,0.078-0.809,0.088c-0.312,0.012-0.68,0.018-1.105,0.018
		c-0.756,0-1.295-0.024-1.619-0.081c-0.449-0.072-0.729-0.279-0.834-0.619c-0.055-0.166-0.084-0.356-0.092-0.571
		c-0.01-0.271-0.016-0.557-0.016-0.861c0-0.516,0.025-0.878,0.074-1.087c0.068-0.291,0.189-0.496,0.361-0.615
		c0.092-0.062,0.203-0.11,0.34-0.146c0.135-0.033,0.326-0.062,0.574-0.083c0.352-0.031,0.822-0.047,1.418-0.047
		c0.768,0,1.309,0.029,1.627,0.091c0.322,0.061,0.549,0.168,0.68,0.322c0.115,0.139,0.186,0.354,0.211,0.655
		c0.006,0.078,0.01,0.201,0.01,0.367h-1.219c-0.002-0.106-0.008-0.184-0.02-0.223c-0.025-0.1-0.113-0.159-0.26-0.179
		c-0.193-0.025-0.574-0.038-1.143-0.038c-0.506,0-0.857,0.017-1.053,0.05c-0.186,0.033-0.299,0.135-0.338,0.305
		c-0.029,0.129-0.047,0.358-0.047,0.688c0,0.379,0.018,0.638,0.051,0.773c0.043,0.188,0.176,0.289,0.398,0.312
		c0.109,0.01,0.438,0.019,0.99,0.024c0.602-0.005,0.988-0.017,1.162-0.033c0.158-0.025,0.25-0.098,0.271-0.208
		c0.014-0.07,0.021-0.181,0.021-0.322h-1.604v-0.801L82.213,365.784L82.213,365.784z"/>
	<path fill="#EDEDED" d="M38.791,375.252v-3.999h2.943c0.695,0.002,1.105,0.009,1.23,0.021c0.143,0.017,0.271,0.059,0.389,0.125
		c0.115,0.069,0.207,0.157,0.271,0.268c0.065,0.112,0.106,0.232,0.12,0.357c0.018,0.146,0.025,0.323,0.025,0.53
		c0,0.326-0.021,0.554-0.066,0.683c-0.068,0.191-0.197,0.324-0.387,0.398c-0.064,0.025-0.162,0.048-0.291,0.067
		c0.256,0.02,0.439,0.093,0.552,0.22c0.049,0.057,0.083,0.121,0.104,0.195c0.021,0.069,0.034,0.18,0.041,0.317
		c0.002,0.072,0.004,0.22,0.004,0.442v0.372h-1.201v-0.214c0-0.238-0.012-0.409-0.032-0.516c-0.031-0.146-0.11-0.233-0.237-0.264
		c-0.084-0.018-0.261-0.026-0.529-0.026h-1.718v1.02L38.791,375.252L38.791,375.252z M40.009,373.236h1.715
		c0.256-0.004,0.406-0.008,0.453-0.012c0.172-0.01,0.28-0.062,0.325-0.158c0.031-0.063,0.047-0.179,0.047-0.337
		c0-0.137-0.014-0.235-0.041-0.305c-0.041-0.098-0.14-0.152-0.296-0.164c-0.055-0.004-0.219-0.007-0.492-0.009h-1.711V373.236
		L40.009,373.236z"/>
	<path fill="#EDEDED" d="M44.189,371.253h4.431v0.938H45.39v0.577h3.064v0.879H45.39v0.645h3.252v0.961h-4.453V371.253
		L44.189,371.253z"/>
	<path fill="#EDEDED" d="M48.883,373.928h1.181c-0.002,0.197,0.039,0.324,0.121,0.381c0.043,0.027,0.092,0.046,0.146,0.059
		c0.054,0.01,0.149,0.017,0.287,0.021c0.067,0.002,0.292,0.004,0.671,0.006c0.52-0.002,0.82-0.005,0.902-0.009
		c0.153-0.012,0.256-0.032,0.305-0.062c0.068-0.044,0.104-0.14,0.104-0.285c0-0.104-0.021-0.174-0.064-0.215
		c-0.059-0.059-0.198-0.089-0.42-0.093c-0.151,0-0.471-0.012-0.954-0.034c-0.5-0.021-0.824-0.035-0.974-0.041
		c-0.387-0.013-0.658-0.058-0.816-0.136c-0.203-0.1-0.336-0.27-0.398-0.51c-0.035-0.133-0.053-0.307-0.053-0.521
		c0-0.451,0.086-0.771,0.258-0.956c0.129-0.144,0.324-0.233,0.586-0.278c0.236-0.039,0.799-0.062,1.688-0.062
		c0.577,0,0.985,0.02,1.225,0.053c0.313,0.045,0.541,0.123,0.681,0.231c0.188,0.154,0.28,0.434,0.28,0.829
		c0,0.043-0.001,0.111-0.003,0.205h-1.181c-0.004-0.096-0.011-0.162-0.021-0.199c-0.027-0.106-0.117-0.171-0.271-0.185
		c-0.136-0.013-0.463-0.021-0.984-0.021c-0.516,0-0.821,0.018-0.917,0.045c-0.107,0.034-0.16,0.125-0.16,0.271
		c0,0.141,0.057,0.227,0.17,0.258c0.096,0.025,0.525,0.05,1.291,0.073c0.693,0.02,1.137,0.044,1.328,0.073
		c0.192,0.026,0.346,0.07,0.461,0.132c0.113,0.059,0.205,0.142,0.273,0.249c0.104,0.158,0.154,0.413,0.154,0.765
		c0,0.396-0.051,0.683-0.151,0.864c-0.103,0.182-0.269,0.306-0.498,0.372c-0.228,0.064-0.851,0.1-1.872,0.1
		c-0.621,0-1.068-0.017-1.345-0.05c-0.336-0.039-0.577-0.115-0.724-0.229c-0.158-0.121-0.252-0.293-0.281-0.516
		c-0.016-0.104-0.023-0.231-0.023-0.381L48.883,373.928L48.883,373.928z"/>
	<path fill="#EDEDED" d="M54.201,371.253h4.43v0.938h-3.229v0.577h3.063v0.879h-3.063v0.645h3.252v0.961h-4.453V371.253
		L54.201,371.253z"/>
	<path fill="#EDEDED" d="M63.377,375.252l-0.344-0.677h-2.646l-0.343,0.677h-1.393l2.121-3.999h1.893l2.092,3.999H63.377z
		 M62.605,373.699l-0.771-1.518h-0.242l-0.772,1.518H62.605z"/>
	<path fill="#EDEDED" d="M64.941,375.252v-3.999h2.943c0.695,0.002,1.105,0.009,1.23,0.021c0.143,0.017,0.271,0.059,0.387,0.125
		c0.117,0.069,0.207,0.157,0.271,0.268c0.066,0.112,0.105,0.232,0.121,0.357c0.018,0.146,0.025,0.323,0.025,0.53
		c0,0.326-0.021,0.554-0.066,0.683c-0.068,0.191-0.197,0.324-0.389,0.398c-0.062,0.025-0.16,0.048-0.289,0.067
		c0.256,0.02,0.439,0.093,0.551,0.22c0.049,0.057,0.084,0.121,0.104,0.195c0.021,0.069,0.035,0.18,0.043,0.317
		c0.002,0.072,0.002,0.22,0.002,0.442v0.372h-1.201v-0.214c0-0.238-0.01-0.409-0.031-0.516c-0.031-0.146-0.109-0.233-0.236-0.264
		c-0.084-0.018-0.262-0.026-0.531-0.026h-1.717v1.02L64.941,375.252L64.941,375.252z M66.16,373.236h1.713
		c0.256-0.004,0.408-0.008,0.455-0.012c0.172-0.01,0.279-0.062,0.324-0.158c0.031-0.063,0.047-0.179,0.047-0.337
		c0-0.137-0.014-0.235-0.041-0.305c-0.041-0.098-0.139-0.152-0.295-0.164c-0.055-0.004-0.219-0.007-0.492-0.009H66.16V373.236
		L66.16,373.236z"/>
	<path fill="#EDEDED" d="M74.166,373.708h1.219c0.01,0.192,0.014,0.329,0.014,0.398c0,0.291-0.047,0.524-0.139,0.7
		c-0.096,0.187-0.277,0.312-0.549,0.384c-0.295,0.08-0.805,0.12-1.527,0.12c-0.801,0-1.338-0.013-1.615-0.038
		c-0.258-0.021-0.461-0.056-0.609-0.103c-0.146-0.047-0.27-0.115-0.369-0.205c-0.131-0.121-0.213-0.281-0.248-0.48
		c-0.039-0.209-0.059-0.608-0.059-1.207c0-0.569,0.014-0.958,0.043-1.154c0.043-0.3,0.16-0.519,0.35-0.65
		c0.145-0.102,0.375-0.174,0.691-0.217c0.328-0.043,0.916-0.064,1.766-0.064c0.508,0,0.867,0.014,1.082,0.032
		c0.324,0.031,0.561,0.094,0.709,0.188c0.184,0.112,0.301,0.279,0.35,0.5c0.035,0.154,0.053,0.338,0.053,0.543
		c0,0.032-0.002,0.109-0.004,0.229h-1.219c-0.004-0.098-0.008-0.164-0.012-0.199c-0.016-0.119-0.068-0.191-0.162-0.226
		c-0.139-0.047-0.518-0.07-1.137-0.07c-0.422,0-0.713,0.014-0.873,0.035c-0.193,0.027-0.314,0.134-0.361,0.319
		c-0.037,0.147-0.057,0.393-0.057,0.727c0,0.344,0.02,0.581,0.057,0.712c0.047,0.17,0.176,0.271,0.387,0.296
		c0.172,0.021,0.473,0.032,0.904,0.032c0.467,0,0.785-0.01,0.955-0.029c0.16-0.018,0.262-0.073,0.305-0.173
		C74.145,374.027,74.162,373.894,74.166,373.708z"/>
	<path fill="#EDEDED" d="M75.818,371.253H77.1v1.43h2.75v-1.43h1.279v3.999H79.85v-1.45H77.1v1.45h-1.281V371.253z"/>
</g>
<g>
	<path fill="#F4F4F4" d="M53.766,352.461c0.98,0,1.659,0.025,2.037,0.076c0.545,0.072,0.879,0.331,1.002,0.775
		c0.084,0.306,0.125,0.822,0.125,1.552s-0.041,1.243-0.125,1.548c-0.123,0.445-0.457,0.703-1.002,0.776
		c-0.376,0.05-1.068,0.075-2.078,0.075c-1.007,0-1.699-0.025-2.078-0.075c-0.543-0.073-0.877-0.331-1-0.776
		c-0.084-0.305-0.127-0.82-0.127-1.548c0-0.731,0.043-1.249,0.127-1.552c0.123-0.444,0.457-0.703,1-0.775
		C52.027,352.486,52.732,352.461,53.766,352.461z M53.67,353.674c-0.713,0-1.146,0.021-1.299,0.061
		c-0.186,0.049-0.303,0.156-0.355,0.325c-0.05,0.166-0.074,0.473-0.074,0.919c0,0.29,0.015,0.498,0.043,0.626
		c0.058,0.235,0.229,0.372,0.517,0.407c0.212,0.024,0.62,0.041,1.224,0.041c0.604,0,1.012-0.017,1.225-0.041
		c0.287-0.035,0.458-0.173,0.513-0.407c0.032-0.13,0.048-0.331,0.048-0.604c0-0.336-0.009-0.57-0.027-0.715
		c-0.031-0.232-0.104-0.391-0.219-0.469c-0.103-0.072-0.317-0.117-0.646-0.133C54.498,353.677,54.184,353.674,53.67,353.674z"/>
	<path fill="#F4F4F4" d="M57.467,352.529h1.422v2.144c0.008,0.492,0.024,0.807,0.051,0.936c0.045,0.222,0.201,0.352,0.465,0.391
		c0.242,0.036,0.607,0.058,1.098,0.058c0.506,0,0.861-0.019,1.066-0.047c0.298-0.047,0.465-0.218,0.498-0.514
		c0.027-0.239,0.041-0.513,0.041-0.818v-2.146h1.422v2.146c-0.016,0.745-0.039,1.234-0.071,1.467
		c-0.058,0.388-0.244,0.674-0.562,0.855c-0.234,0.137-0.629,0.217-1.183,0.246c-0.255,0.014-0.653,0.021-1.196,0.021
		c-0.8,0-1.367-0.022-1.705-0.068c-0.256-0.034-0.459-0.081-0.608-0.143c-0.15-0.062-0.278-0.146-0.384-0.261
		c-0.144-0.149-0.235-0.344-0.276-0.571c-0.045-0.265-0.069-0.578-0.071-0.949l-0.008-0.602v-2.145H57.467L57.467,352.529z"/>
	<path fill="#F4F4F4" d="M63.835,352.529h5.646v1.189h-2.074v3.477h-1.494v-3.477h-2.078L63.835,352.529L63.835,352.529z"/>
</g>
<g>
	<path fill="#F4F4F4" d="M30.674,101h1.494v4.666h-1.494V101z"/>
	<path fill="#F4F4F4" d="M32.821,101h2.492l2.444,3.48h0.147L37.87,101h1.447v4.666h-2.472l-2.454-3.482h-0.154l0.031,3.482h-1.445
		L32.821,101L32.821,101z"/>
</g>
<g>
	<path fill="#F3F4F4" d="M83.295,103.936h1.422c0.009,0.228,0.014,0.384,0.014,0.468c0,0.339-0.054,0.612-0.161,0.817
		c-0.111,0.214-0.324,0.363-0.639,0.448c-0.344,0.093-0.938,0.14-1.784,0.14c-0.932,0-1.56-0.015-1.884-0.044
		c-0.3-0.025-0.537-0.065-0.71-0.12c-0.174-0.055-0.317-0.134-0.432-0.239c-0.152-0.141-0.249-0.328-0.29-0.561
		c-0.046-0.244-0.068-0.713-0.068-1.408c0-0.667,0.017-1.118,0.052-1.35c0.05-0.349,0.186-0.602,0.406-0.759
		c0.168-0.119,0.438-0.203,0.807-0.253c0.383-0.05,1.069-0.075,2.062-0.075c0.59,0,1.01,0.013,1.261,0.038
		c0.378,0.037,0.654,0.109,0.827,0.219c0.214,0.134,0.35,0.329,0.406,0.584c0.041,0.182,0.062,0.393,0.062,0.632
		c0,0.041-0.002,0.131-0.004,0.27H83.22c-0.005-0.114-0.009-0.191-0.014-0.232c-0.019-0.139-0.081-0.227-0.188-0.263
		c-0.162-0.055-0.604-0.082-1.326-0.082c-0.492,0-0.832,0.014-1.02,0.041c-0.228,0.032-0.369,0.156-0.424,0.373
		c-0.043,0.175-0.064,0.458-0.064,0.848c0,0.401,0.021,0.678,0.064,0.831c0.055,0.198,0.205,0.313,0.451,0.345
		c0.201,0.025,0.553,0.038,1.057,0.038c0.545,0,0.916-0.011,1.114-0.034c0.187-0.021,0.306-0.088,0.355-0.202
		C83.268,104.309,83.29,104.152,83.295,103.936z"/>
	<path fill="#F3F4F4" d="M84.803,101.072h1.562l1.702,3.493h0.267l1.685-3.493h1.553l-2.277,4.666h-2.184L84.803,101.072z"/>
</g>
<line fill="none" stroke="#EFEFEF" stroke-width="2" stroke-miterlimit="10" x1="60" y1="136" x2="84.73" y2="136"/>
<line fill="none" stroke="#EFEFEF" stroke-width="2" stroke-miterlimit="10" x1="60" y1="136" x2="60.642" y2="241"/>
<line fill="none" stroke="#EFEFEF" stroke-width="2" stroke-miterlimit="10" x1="35" y1="208.25" x2="60.642" y2="241"/>
<line fill="none" stroke="#EFEFEF" stroke-width="2" stroke-miterlimit="10" x1="60.642" y1="241" x2="60.744" y2="334"/>
<g>
</g>
<g>
</g>
<g>
</g>
<g>
</g>
<g>
</g>
<g>
</g>
</svg>
