<?xml version="1.0" encoding="utf-8"?>
<!-- Generator: Adobe Illustrator 16.0.0, SVG Export Plug-In . SVG Version: 6.00 Build 0)  -->
<!DOCTYPE svg PUBLIC "-//W3C//DTD SVG 1.1//EN" "http://www.w3.org/Graphics/SVG/1.1/DTD/svg11.dtd" [
        <!ENTITY ns_extend "http://ns.adobe.com/Extensibility/1.0/">
        <!ENTITY ns_ai "http://ns.adobe.com/AdobeIllustrator/10.0/">
        <!ENTITY ns_graphs "http://ns.adobe.com/Graphs/1.0/">
        <!ENTITY ns_vars "http://ns.adobe.com/Variables/1.0/">
        <!ENTITY ns_imrep "http://ns.adobe.com/ImageReplacement/1.0/">
        <!ENTITY ns_sfw "http://ns.adobe.com/SaveForWeb/1.0/">
        <!ENTITY ns_custom "http://ns.adobe.com/GenericCustomNamespace/1.0/">
        <!ENTITY ns_adobe_xpath "http://ns.adobe.com/XPath/1.0/">
        ]>
<svg xmlns:x="&ns_extend;"
	 xmlns:i="&ns_ai;" xmlns:graph="&ns_graphs;" xmlns:dc="http://purl.org/dc/elements/1.1/" xmlns:cc="http://creativecommons.org/ns#" xmlns:rdf="http://www.w3.org/1999/02/22-rdf-syntax-ns#" xmlns:svg="http://www.w3.org/2000/svg" xmlns:sodipodi="http://sodipodi.sourceforge.net/DTD/sodipodi-0.dtd" xmlns:inkscape="http://www.inkscape.org/namespaces/inkscape" xmlns:xlink="http://www.w3.org/1999/xlink" version="1.1" id="svg8" inkscape:version="0.92.2 5c3e80d, 2017-08-06"
	 sodipodi:docname="MyModule.svg" xmlns="http://www.w3.org/2000/svg" x="0px" y="0px" width="150px" height="380px"
	 viewBox="40.5 225.5 150 380" enable-background="new 40.5 225.5 150 380" xml:space="preserve">
<metadata>
	<sfw  xmlns="&ns_sfw;">
		<slices></slices>
		<sliceSourceBounds  width="150" height="380" bottomLeftOrigin="true" x="0" y="-380"></sliceSourceBounds>
	</sfw>
</metadata>
<g id="layer1" transform="translate(0,-196.45832)" inkscape:groupmode="layer" inkscape:label="Layer 1">
	<path id="rect817" inkscape:connector-curvature="0" fill="#140E07" d="M40.5,421.958h150v380h-150V421.958z"/>
</g>
<g>
	<path fill="#969696" d="M101.876,262.734h-1.771c0-0.484,0.019-0.854,0.057-1.104c0.05-0.312,0.163-0.553,0.34-0.727
		c0.178-0.172,0.434-0.291,0.768-0.354c0.463-0.084,1.285-0.127,2.465-0.127c1.119,0,1.814,0.016,2.086,0.039
		c0.451,0.041,0.779,0.146,0.984,0.311c0.205,0.166,0.334,0.389,0.383,0.668c0.043,0.254,0.065,0.547,0.065,0.885
		c0,0.447-0.032,0.777-0.097,0.992c-0.1,0.332-0.287,0.562-0.562,0.707c-0.308,0.152-0.787,0.254-1.441,0.291
		c-1.603,0.102-2.518,0.162-2.746,0.189c-0.256,0.025-0.417,0.111-0.488,0.254c-0.023,0.062-0.04,0.182-0.048,0.357h5.479v1.379
		h-7.158c-0.012-0.24-0.019-0.443-0.019-0.611c0-0.734,0.022-1.254,0.066-1.551c0.088-0.562,0.411-0.914,0.971-1.055
		c0.287-0.07,0.593-0.119,0.918-0.146l1.252-0.098c0.911-0.07,1.427-0.111,1.547-0.127c0.281-0.029,0.462-0.094,0.541-0.193
		c0.05-0.062,0.075-0.186,0.075-0.373c0-0.207-0.029-0.348-0.088-0.418c-0.073-0.09-0.236-0.146-0.488-0.166
		c-0.144-0.012-0.505-0.02-1.085-0.02c-0.812,0-1.358,0.021-1.644,0.062c-0.168,0.023-0.271,0.084-0.309,0.184
		C101.898,262.082,101.879,262.33,101.876,262.734z"/>
	<path fill="#969696" d="M115.75,264.035v1.35h-1.16v1.115h-1.736v-1.115h-4.793v-2.299l3.567-2.584h2.962v3.533H115.75
		L115.75,264.035z M112.854,264.035v-2.146h-0.369l-2.791,1.906v0.238L112.854,264.035L112.854,264.035z"/>
	<path fill="#969696" d="M122.043,260.502v5.998h-1.499v-0.559h-0.088c-0.11,0.189-0.233,0.33-0.369,0.404
		c-0.293,0.178-0.792,0.264-1.499,0.264c-0.688,0-1.211-0.057-1.568-0.158c-0.193-0.062-0.365-0.156-0.515-0.297
		c-0.149-0.143-0.253-0.299-0.312-0.48c-0.098-0.283-0.146-0.729-0.146-1.332c0-0.357,0.019-0.65,0.056-0.879
		c0.035-0.221,0.099-0.418,0.187-0.588c0.164-0.316,0.457-0.525,0.879-0.629c0.308-0.076,0.756-0.113,1.345-0.113
		c0.551,0,0.93,0.029,1.135,0.088c0.322,0.098,0.567,0.291,0.738,0.596h0.065v-2.311L122.043,260.502L122.043,260.502z
		 M119.094,263.332c-0.57,0-0.949,0.047-1.134,0.141c-0.132,0.07-0.222,0.189-0.269,0.355c-0.034,0.119-0.053,0.299-0.053,0.533
		c0,0.312,0.031,0.541,0.092,0.684c0.076,0.176,0.275,0.285,0.599,0.33c0.188,0.021,0.417,0.039,0.69,0.039
		c0.586,0,0.979-0.062,1.178-0.189c0.111-0.062,0.186-0.184,0.224-0.352c0.026-0.113,0.04-0.279,0.04-0.496
		c0-0.35-0.04-0.59-0.119-0.727c-0.082-0.139-0.253-0.229-0.514-0.271C119.652,263.348,119.408,263.332,119.094,263.332z"/>
	<path fill="#969696" d="M122.825,266.5v-5.998h4.312c0.916,0.004,1.461,0.01,1.635,0.021c0.393,0.021,0.681,0.094,0.865,0.211
		c0.211,0.135,0.35,0.316,0.413,0.559c0.06,0.227,0.089,0.48,0.089,0.764c0,0.355-0.035,0.617-0.102,0.797
		c-0.111,0.289-0.348,0.486-0.708,0.598c0.267,0.047,0.464,0.109,0.593,0.201c0.293,0.193,0.439,0.605,0.439,1.234
		c0,0.49-0.076,0.855-0.229,1.086c-0.135,0.205-0.34,0.352-0.614,0.422c-0.234,0.062-0.627,0.1-1.179,0.102l-1.19,0.01
		L122.825,266.5L122.825,266.5z M124.564,262.865h2.576c0.564,0,0.901-0.021,1.01-0.064c0.145-0.057,0.216-0.199,0.216-0.432
		c0-0.236-0.087-0.379-0.259-0.426c-0.067-0.021-0.391-0.027-0.967-0.031h-2.576V262.865z M124.564,265.059h2.584
		c0.48-0.002,0.764-0.006,0.849-0.008c0.267-0.012,0.437-0.062,0.51-0.158c0.056-0.072,0.083-0.189,0.083-0.352
		c0-0.252-0.091-0.4-0.271-0.445c-0.064-0.018-0.455-0.021-1.17-0.025h-2.584V265.059L124.564,265.059z"/>
</g>
<line fill="none" stroke="#EFEFEF" stroke-width="2" stroke-miterlimit="10" x1="151.5" y1="299.5" x2="151.5" y2="361.5"/>
<line fill="none" stroke="#EFEFEF" stroke-width="2" stroke-miterlimit="10" x1="79.5" y1="299.5" x2="79.5" y2="361.5"/>
<line fill="none" stroke="#EFEFEF" stroke-width="2" stroke-miterlimit="10" x1="79.5" y1="361.5" x2="79.5" y2="425.5"/>
<line fill="none" stroke="#EFEFEF" stroke-width="2" stroke-miterlimit="10" x1="115.5" y1="425.5" x2="79.5" y2="425.5"/>
<line fill="none" stroke="#EFEFEF" stroke-width="2" stroke-miterlimit="10" x1="151.5" y1="361.5" x2="151.5" y2="500.5"/>
<line fill="none" stroke="#EFEFEF" stroke-width="2" stroke-miterlimit="10" x1="115.5" y1="500.5" x2="151.5" y2="500.5"/>
<g>
	<path fill="#F4F4F4" d="M88.328,454.084h4.932v1.098h-3.51v0.887h3.339v1.068H89.75v1.613h-1.422V454.084z"/>
	<path fill="#F4F4F4" d="M93.585,458.75v-4.666h3.435c0.812,0.004,1.291,0.012,1.437,0.025c0.167,0.016,0.317,0.061,0.453,0.145
		c0.136,0.082,0.241,0.184,0.315,0.309c0.078,0.139,0.125,0.275,0.141,0.426c0.021,0.17,0.031,0.377,0.031,0.613
		c0,0.385-0.026,0.646-0.08,0.801c-0.08,0.225-0.229,0.379-0.45,0.465c-0.075,0.025-0.188,0.057-0.339,0.078
		c0.299,0.021,0.514,0.105,0.644,0.258c0.058,0.062,0.099,0.141,0.121,0.227c0.024,0.086,0.041,0.211,0.05,0.375
		c0.002,0.084,0.004,0.26,0.004,0.52v0.434h-1.402v-0.25c0-0.273-0.012-0.477-0.037-0.598c-0.037-0.172-0.129-0.275-0.277-0.311
		c-0.098-0.021-0.304-0.027-0.619-0.027h-2.003v1.186h-1.422V458.75L93.585,458.75z M95.007,456.398h2
		c0.298-0.008,0.476-0.012,0.53-0.018c0.201-0.012,0.327-0.072,0.379-0.184c0.037-0.078,0.055-0.209,0.055-0.396
		c0-0.158-0.016-0.273-0.048-0.354c-0.048-0.113-0.163-0.18-0.345-0.191c-0.064-0.004-0.255-0.008-0.574-0.01h-1.996L95.007,456.398
		L95.007,456.398z"/>
	<path fill="#F4F4F4" d="M99.884,454.084h5.168v1.098h-3.767v0.678h3.574v1.021h-3.574v0.748h3.794v1.121h-5.195V454.084z"/>
	<path fill="#F4F4F4" d="M112.4,457.807l-0.536,0.992l-0.458-0.326c-0.182,0.146-0.414,0.232-0.694,0.271
		c-0.364,0.051-1.073,0.076-2.126,0.076c-0.979,0-1.654-0.025-2.029-0.076c-0.545-0.072-0.879-0.33-1.002-0.775
		c-0.084-0.305-0.125-0.818-0.125-1.551c0-0.729,0.041-1.244,0.125-1.549c0.123-0.445,0.457-0.703,1.002-0.775
		c0.377-0.051,1.07-0.076,2.077-0.076s1.7,0.025,2.078,0.076c0.544,0.072,0.878,0.33,1.001,0.775
		c0.059,0.211,0.096,0.449,0.105,0.711c0.015,0.268,0.021,0.559,0.021,0.867c0,0.459-0.014,0.809-0.041,1.051L112.4,457.807z
		 M108.966,455.779l1.449,0.916c0.002-0.062,0.003-0.121,0.003-0.174c0-0.314-0.009-0.541-0.027-0.684
		c-0.031-0.236-0.104-0.395-0.219-0.473c-0.104-0.072-0.318-0.117-0.646-0.133c-0.115-0.008-0.414-0.01-0.892-0.01
		c-0.75,0-1.2,0.021-1.354,0.061c-0.184,0.049-0.303,0.156-0.354,0.326c-0.05,0.168-0.075,0.479-0.075,0.938
		c0,0.273,0.017,0.479,0.049,0.604c0.055,0.234,0.226,0.371,0.513,0.404c0.209,0.027,0.644,0.041,1.299,0.041
		c0.579,0,0.978-0.016,1.192-0.045l-1.504-0.797L108.966,455.779z"/>
	<path fill="#F4F4F4" d="M112.466,454.084h1.423v2.145c0.006,0.492,0.023,0.807,0.051,0.936c0.045,0.223,0.201,0.352,0.465,0.391
		c0.242,0.037,0.607,0.059,1.097,0.059c0.506,0,0.86-0.02,1.065-0.047c0.299-0.047,0.466-0.219,0.5-0.514
		c0.026-0.238,0.041-0.514,0.041-0.818v-2.146h1.422v2.146c-0.016,0.746-0.041,1.234-0.072,1.467
		c-0.057,0.389-0.244,0.674-0.561,0.855c-0.235,0.137-0.629,0.217-1.184,0.246c-0.255,0.014-0.654,0.021-1.195,0.021
		c-0.801,0-1.369-0.023-1.707-0.068c-0.254-0.035-0.457-0.082-0.607-0.143c-0.15-0.062-0.278-0.146-0.383-0.262
		c-0.145-0.148-0.236-0.344-0.277-0.57c-0.045-0.266-0.068-0.578-0.072-0.949l-0.007-0.602v-2.146H112.466L112.466,454.084z"/>
	<path fill="#F4F4F4" d="M119.162,454.084h5.168v1.098h-3.768v0.678h3.576v1.021h-3.576v0.748h3.795v1.121h-5.195V454.084z"/>
	<path fill="#F4F4F4" d="M124.801,454.084h2.492l2.443,3.48h0.147l-0.034-3.48h1.446v4.666h-2.471l-2.454-3.482h-0.154l0.031,3.482
		h-1.446L124.801,454.084L124.801,454.084z"/>
	<path fill="#F4F4F4" d="M136.385,456.949h1.422c0.01,0.229,0.014,0.385,0.014,0.469c0,0.34-0.053,0.611-0.16,0.816
		c-0.112,0.215-0.325,0.359-0.639,0.443c-0.345,0.098-0.939,0.145-1.785,0.145c-0.932,0-1.56-0.02-1.883-0.045
		c-0.301-0.025-0.537-0.064-0.711-0.119c-0.172-0.055-0.316-0.135-0.431-0.24c-0.153-0.141-0.25-0.328-0.291-0.561
		c-0.045-0.242-0.067-0.713-0.067-1.408c0-0.666,0.017-1.117,0.051-1.354c0.05-0.348,0.186-0.602,0.406-0.758
		c0.168-0.119,0.438-0.203,0.808-0.254c0.383-0.049,1.069-0.074,2.062-0.074c0.59,0,1.01,0.016,1.26,0.037
		c0.379,0.037,0.654,0.109,0.828,0.223c0.213,0.135,0.35,0.326,0.406,0.584c0.041,0.184,0.062,0.393,0.062,0.633
		c0,0.041-0.002,0.131-0.004,0.27h-1.422c-0.004-0.111-0.009-0.188-0.014-0.229c-0.018-0.143-0.081-0.229-0.188-0.268
		c-0.162-0.055-0.604-0.082-1.326-0.082c-0.492,0-0.832,0.018-1.02,0.041c-0.228,0.033-0.369,0.156-0.424,0.373
		c-0.043,0.18-0.064,0.459-0.064,0.852c0,0.398,0.021,0.678,0.064,0.83c0.055,0.195,0.205,0.312,0.451,0.346
		c0.201,0.025,0.553,0.037,1.057,0.037c0.543,0,0.916-0.012,1.113-0.033c0.188-0.021,0.305-0.088,0.355-0.201
		C136.357,457.322,136.38,457.166,136.385,456.949z"/>
	<path fill="#F4F4F4" d="M137.844,454.084h1.87l1.521,1.871l1.457-1.871h1.853l-2.553,3.016v1.65h-1.47v-1.65L137.844,454.084z"/>
</g>
<g>
	<path fill="#F4F4F4" d="M86.328,534.25v-4.666h3.436c0.811,0.004,1.289,0.012,1.436,0.025c0.167,0.016,0.316,0.061,0.453,0.145
		c0.136,0.082,0.24,0.184,0.315,0.309c0.078,0.139,0.124,0.275,0.14,0.426c0.021,0.17,0.031,0.377,0.031,0.613
		c0,0.385-0.025,0.646-0.078,0.801c-0.08,0.225-0.23,0.379-0.451,0.465c-0.075,0.025-0.188,0.057-0.338,0.078
		c0.297,0.021,0.513,0.105,0.643,0.258c0.057,0.062,0.098,0.141,0.121,0.227s0.041,0.211,0.05,0.375
		c0.002,0.084,0.003,0.26,0.003,0.52v0.434h-1.4V534c0-0.277-0.014-0.477-0.039-0.598c-0.037-0.176-0.129-0.275-0.276-0.311
		c-0.099-0.021-0.304-0.027-0.619-0.027H87.75v1.186H86.328L86.328,534.25z M87.75,531.898h2c0.298-0.008,0.475-0.012,0.529-0.018
		c0.201-0.012,0.328-0.072,0.38-0.184c0.036-0.078,0.055-0.209,0.055-0.396c0-0.158-0.016-0.273-0.048-0.354
		c-0.048-0.113-0.163-0.18-0.346-0.191c-0.063-0.004-0.254-0.008-0.573-0.01h-1.996L87.75,531.898L87.75,531.898z"/>
	<path fill="#F4F4F4" d="M92.627,529.584h5.168v1.098h-3.768v0.678h3.576v1.021h-3.576v0.748h3.795v1.121h-5.195V529.584z"/>
	<path fill="#F4F4F4" d="M98.104,532.705h1.377c-0.002,0.229,0.043,0.379,0.14,0.445c0.05,0.027,0.106,0.053,0.171,0.061
		s0.175,0.021,0.335,0.023c0.08,0.002,0.341,0.006,0.783,0.008c0.606-0.002,0.957-0.006,1.053-0.012
		c0.181-0.018,0.298-0.037,0.354-0.07c0.08-0.051,0.121-0.162,0.121-0.336c0-0.117-0.025-0.201-0.076-0.25
		c-0.067-0.064-0.23-0.104-0.488-0.105c-0.178,0-0.549-0.014-1.114-0.041c-0.583-0.023-0.961-0.043-1.135-0.047
		c-0.451-0.014-0.769-0.062-0.954-0.156c-0.236-0.113-0.393-0.312-0.465-0.596c-0.041-0.154-0.062-0.354-0.062-0.605
		c0-0.527,0.101-0.9,0.301-1.117c0.15-0.164,0.379-0.271,0.685-0.324c0.276-0.047,0.933-0.068,1.97-0.068
		c0.674,0,1.15,0.021,1.428,0.061c0.367,0.053,0.632,0.145,0.793,0.271c0.22,0.184,0.328,0.502,0.328,0.971
		c0,0.051,0,0.131-0.002,0.236h-1.377c-0.004-0.107-0.014-0.188-0.024-0.229c-0.032-0.129-0.138-0.199-0.313-0.217
		c-0.158-0.016-0.541-0.021-1.148-0.021c-0.602,0-0.958,0.02-1.07,0.053c-0.125,0.041-0.188,0.146-0.188,0.316
		c0,0.164,0.065,0.266,0.197,0.301c0.112,0.031,0.614,0.062,1.508,0.086c0.809,0.023,1.324,0.053,1.547,0.086
		c0.227,0.033,0.406,0.086,0.539,0.154c0.134,0.068,0.24,0.164,0.319,0.289c0.121,0.186,0.181,0.48,0.181,0.893
		c0,0.459-0.059,0.795-0.178,1.012c-0.119,0.213-0.312,0.354-0.58,0.436c-0.265,0.076-0.992,0.115-2.185,0.115
		c-0.726,0-1.248-0.021-1.569-0.062c-0.392-0.045-0.673-0.133-0.844-0.266c-0.186-0.143-0.294-0.34-0.328-0.598
		c-0.018-0.125-0.027-0.273-0.027-0.445V532.705L98.104,532.705z"/>
	<path fill="#F4F4F4" d="M107.458,529.516c0.979,0,1.659,0.025,2.037,0.076c0.544,0.072,0.878,0.332,1.001,0.775
		c0.084,0.307,0.126,0.822,0.126,1.553s-0.042,1.242-0.126,1.547c-0.123,0.445-0.457,0.703-1.001,0.777
		c-0.376,0.049-1.069,0.074-2.078,0.074c-1.007,0-1.7-0.025-2.078-0.074c-0.544-0.074-0.878-0.332-1.001-0.777
		c-0.084-0.305-0.126-0.82-0.126-1.547c0-0.732,0.042-1.25,0.126-1.553c0.123-0.443,0.457-0.703,1.001-0.775
		C105.719,529.541,106.426,529.516,107.458,529.516z M107.361,530.729c-0.713,0-1.146,0.021-1.299,0.062
		c-0.185,0.049-0.303,0.156-0.354,0.324c-0.05,0.166-0.075,0.473-0.075,0.92c0,0.289,0.016,0.498,0.044,0.625
		c0.058,0.234,0.229,0.373,0.517,0.408c0.211,0.023,0.619,0.041,1.224,0.041s1.013-0.018,1.224-0.041
		c0.287-0.035,0.459-0.174,0.514-0.408c0.031-0.129,0.048-0.33,0.048-0.604c0-0.336-0.009-0.57-0.027-0.715
		c-0.032-0.232-0.104-0.391-0.219-0.469c-0.103-0.072-0.317-0.117-0.646-0.133C108.189,530.732,107.875,530.729,107.361,530.729z"/>
	<path fill="#F4F4F4" d="M111.184,529.584h2.492l2.444,3.48h0.147l-0.035-3.48h1.447v4.666h-2.472l-2.454-3.482H112.6l0.031,3.482
		h-1.445L111.184,529.584L111.184,529.584z"/>
	<path fill="#F4F4F4" d="M123.512,534.25l-0.4-0.789h-3.086l-0.399,0.789h-1.624l2.475-4.666h2.209l2.439,4.666H123.512z
		 M122.613,532.438l-0.899-1.766h-0.284l-0.898,1.766H122.613z"/>
	<path fill="#F4F4F4" d="M125.337,529.584h2.492l2.444,3.48h0.146l-0.033-3.48h1.445v4.666h-2.471l-2.454-3.482h-0.154l0.031,3.482
		h-1.446L125.337,529.584L125.337,529.584z"/>
	<path fill="#F4F4F4" d="M136.921,532.449h1.422c0.009,0.229,0.015,0.385,0.015,0.469c0,0.34-0.055,0.611-0.162,0.816
		c-0.111,0.215-0.324,0.359-0.639,0.443c-0.344,0.098-0.938,0.145-1.783,0.145c-0.933,0-1.561-0.02-1.883-0.045
		c-0.302-0.025-0.539-0.064-0.711-0.119c-0.174-0.055-0.318-0.135-0.432-0.24c-0.152-0.141-0.25-0.328-0.291-0.561
		c-0.045-0.242-0.068-0.713-0.068-1.408c0-0.666,0.018-1.117,0.051-1.354c0.051-0.348,0.187-0.602,0.408-0.758
		c0.168-0.119,0.438-0.203,0.807-0.254c0.383-0.049,1.07-0.074,2.061-0.074c0.59,0,1.012,0.016,1.262,0.037
		c0.377,0.037,0.653,0.109,0.826,0.223c0.215,0.135,0.35,0.326,0.407,0.584c0.041,0.184,0.062,0.393,0.062,0.633
		c0,0.041,0,0.131-0.002,0.27h-1.422c-0.005-0.111-0.01-0.188-0.015-0.229c-0.019-0.143-0.081-0.229-0.188-0.268
		c-0.162-0.055-0.604-0.082-1.326-0.082c-0.491,0-0.832,0.018-1.019,0.041c-0.228,0.033-0.368,0.156-0.424,0.373
		c-0.043,0.18-0.065,0.459-0.065,0.852c0,0.398,0.021,0.678,0.065,0.83c0.056,0.195,0.205,0.312,0.451,0.346
		c0.2,0.025,0.553,0.037,1.056,0.037c0.544,0,0.916-0.012,1.114-0.033c0.187-0.021,0.305-0.088,0.354-0.201
		C136.895,532.822,136.917,532.666,136.921,532.449z"/>
	<path fill="#F4F4F4" d="M138.85,529.584h5.168v1.098h-3.768v0.678h3.575v1.021h-3.575v0.748h3.794v1.121h-5.194V529.584z"/>
</g>
<g>
	<path fill="#F4F4F4" d="M74.328,577.334h1.494V582h-1.494V577.334z"/>
	<path fill="#F4F4F4" d="M76.475,577.334h2.492l2.444,3.48h0.147l-0.035-3.48h1.447V582h-2.472l-2.454-3.482h-0.154L77.922,582
		h-1.445L76.475,577.334L76.475,577.334z"/>
</g>
<g>
	<path fill="#F4F4F4" d="M145.932,577.016c0.98,0,1.659,0.025,2.037,0.076c0.545,0.072,0.879,0.332,1.002,0.775
		c0.084,0.307,0.125,0.822,0.125,1.553s-0.041,1.242-0.125,1.547c-0.123,0.445-0.457,0.703-1.002,0.777
		c-0.376,0.049-1.068,0.074-2.078,0.074c-1.007,0-1.699-0.025-2.078-0.074c-0.543-0.074-0.877-0.332-1-0.777
		c-0.084-0.305-0.127-0.82-0.127-1.547c0-0.732,0.043-1.25,0.127-1.553c0.123-0.443,0.457-0.703,1-0.775
		C144.193,577.041,144.898,577.016,145.932,577.016z M145.836,578.229c-0.713,0-1.146,0.021-1.299,0.062
		c-0.186,0.049-0.303,0.156-0.355,0.324c-0.05,0.166-0.074,0.473-0.074,0.92c0,0.289,0.015,0.498,0.043,0.625
		c0.058,0.234,0.229,0.373,0.517,0.408c0.212,0.023,0.62,0.041,1.224,0.041c0.604,0,1.012-0.018,1.225-0.041
		c0.287-0.035,0.458-0.174,0.513-0.408c0.032-0.129,0.048-0.33,0.048-0.604c0-0.336-0.009-0.57-0.027-0.715
		c-0.031-0.232-0.104-0.391-0.219-0.469c-0.103-0.072-0.318-0.117-0.646-0.133C146.664,578.232,146.35,578.229,145.836,578.229z"/>
	<path fill="#F4F4F4" d="M149.633,577.084h1.422v2.145c0.008,0.492,0.024,0.807,0.051,0.936c0.045,0.223,0.201,0.352,0.465,0.391
		c0.242,0.037,0.607,0.059,1.098,0.059c0.506,0,0.861-0.02,1.066-0.047c0.298-0.047,0.465-0.219,0.498-0.514
		c0.027-0.24,0.041-0.514,0.041-0.818v-2.146h1.422v2.146c-0.016,0.744-0.039,1.234-0.071,1.467
		c-0.058,0.389-0.244,0.674-0.562,0.855c-0.234,0.137-0.629,0.217-1.183,0.246c-0.255,0.014-0.653,0.021-1.196,0.021
		c-0.8,0-1.367-0.023-1.705-0.068c-0.256-0.035-0.459-0.082-0.608-0.143c-0.149-0.062-0.278-0.146-0.384-0.262
		c-0.144-0.148-0.235-0.344-0.276-0.57c-0.045-0.266-0.069-0.578-0.071-0.949l-0.008-0.604v-2.145H149.633L149.633,577.084z"/>
	<path fill="#F4F4F4" d="M156.001,577.084h5.646v1.189h-2.074v3.477h-1.494v-3.477H156L156.001,577.084L156.001,577.084z"/>
</g>
<rect x="59" y="322.75" fill="#140E07" width="39.825" height="12"/>
<rect x="134.836" y="322.75" fill="#140E07" width="32.664" height="12"/>
<g>
	<path fill="#F4F4F4" d="M59.328,326.584h4.932v1.098h-3.51v0.885h3.339v1.07H60.75v1.613h-1.422V326.584z"/>
	<path fill="#F4F4F4" d="M64.585,331.25v-4.666h3.435c0.811,0.004,1.29,0.012,1.436,0.023c0.167,0.018,0.317,0.062,0.453,0.146
		c0.136,0.082,0.241,0.184,0.316,0.309c0.078,0.139,0.124,0.275,0.14,0.424c0.021,0.172,0.031,0.379,0.031,0.615
		c0,0.385-0.026,0.646-0.079,0.801c-0.08,0.225-0.23,0.377-0.451,0.465c-0.075,0.025-0.188,0.057-0.338,0.078
		c0.298,0.021,0.513,0.105,0.643,0.258c0.057,0.062,0.098,0.141,0.121,0.227c0.024,0.086,0.041,0.211,0.05,0.375
		c0.002,0.084,0.003,0.256,0.003,0.52v0.434h-1.401V331c0-0.277-0.013-0.477-0.038-0.598c-0.037-0.176-0.129-0.275-0.277-0.311
		c-0.098-0.021-0.304-0.027-0.619-0.027h-2.003v1.186H64.585L64.585,331.25z M66.007,328.898h2c0.298-0.008,0.475-0.012,0.53-0.018
		c0.201-0.012,0.327-0.072,0.379-0.186c0.037-0.076,0.055-0.207,0.055-0.395c0-0.158-0.016-0.275-0.048-0.355
		c-0.048-0.111-0.163-0.18-0.345-0.189c-0.064-0.004-0.255-0.008-0.574-0.01h-1.996L66.007,328.898L66.007,328.898z"/>
	<path fill="#F4F4F4" d="M70.884,326.584h5.168v1.098h-3.767v0.678h3.574v1.021h-3.574v0.748h3.794v1.121h-5.195V326.584z"/>
	<path fill="#F4F4F4" d="M83.4,330.307l-0.536,0.992l-0.458-0.326c-0.182,0.146-0.414,0.232-0.694,0.271
		c-0.364,0.051-1.073,0.074-2.126,0.074c-0.979,0-1.654-0.023-2.029-0.074c-0.545-0.072-0.879-0.33-1.002-0.775
		c-0.084-0.305-0.125-0.822-0.125-1.551s0.041-1.244,0.125-1.549c0.123-0.445,0.457-0.703,1.002-0.775
		c0.377-0.051,1.07-0.076,2.077-0.076s1.7,0.025,2.078,0.076c0.544,0.072,0.878,0.33,1.001,0.775
		c0.059,0.211,0.096,0.447,0.105,0.711c0.015,0.268,0.021,0.559,0.021,0.867c0,0.457-0.014,0.809-0.041,1.051L83.4,330.307z
		 M79.966,328.279l1.449,0.916c0.002-0.062,0.003-0.121,0.003-0.178c0-0.311-0.009-0.537-0.027-0.68
		c-0.031-0.236-0.104-0.395-0.219-0.473c-0.104-0.072-0.318-0.117-0.646-0.133c-0.115-0.008-0.414-0.01-0.892-0.01
		c-0.75,0-1.2,0.021-1.354,0.061c-0.186,0.049-0.303,0.156-0.354,0.324c-0.05,0.17-0.075,0.48-0.075,0.939
		c0,0.271,0.017,0.477,0.049,0.604c0.055,0.234,0.226,0.371,0.513,0.404c0.209,0.027,0.644,0.041,1.299,0.041
		c0.579,0,0.978-0.016,1.192-0.045l-1.504-0.797L79.966,328.279z"/>
	<path fill="#F4F4F4" d="M89.676,329.449h1.422c0.01,0.229,0.014,0.385,0.014,0.469c0,0.34-0.053,0.611-0.16,0.816
		c-0.112,0.213-0.325,0.359-0.639,0.443c-0.345,0.098-0.939,0.145-1.785,0.145c-0.932,0-1.56-0.02-1.883-0.045
		c-0.301-0.025-0.537-0.064-0.711-0.119c-0.173-0.059-0.316-0.135-0.431-0.24c-0.153-0.141-0.25-0.328-0.291-0.561
		c-0.045-0.244-0.067-0.717-0.067-1.408c0-0.666,0.017-1.117,0.051-1.354c0.05-0.348,0.186-0.602,0.406-0.758
		c0.168-0.119,0.438-0.203,0.808-0.254c0.383-0.049,1.069-0.074,2.062-0.074c0.59,0,1.01,0.016,1.26,0.037
		c0.379,0.037,0.654,0.109,0.828,0.219c0.213,0.137,0.35,0.33,0.406,0.584c0.041,0.188,0.062,0.396,0.062,0.637
		c0,0.041-0.002,0.131-0.004,0.27h-1.422c-0.004-0.113-0.009-0.189-0.014-0.229c-0.018-0.143-0.081-0.229-0.188-0.268
		c-0.162-0.055-0.604-0.082-1.326-0.082c-0.492,0-0.832,0.018-1.02,0.041c-0.228,0.033-0.369,0.156-0.424,0.373
		c-0.043,0.176-0.064,0.459-0.064,0.85c0,0.4,0.021,0.68,0.064,0.828c0.055,0.199,0.205,0.314,0.451,0.35
		c0.201,0.021,0.553,0.037,1.057,0.037c0.543,0,0.916-0.014,1.113-0.033c0.188-0.021,0.305-0.088,0.355-0.201
		C89.648,329.82,89.672,329.666,89.676,329.449z"/>
	<path fill="#F4F4F4" d="M91.184,326.584h1.562l1.702,3.494h0.267l1.686-3.494h1.552l-2.276,4.666h-2.184L91.184,326.584z"/>
</g>
<g>
	<path fill="#F4F4F4" d="M136.165,331.25v-4.666h3.435c0.812,0.004,1.291,0.012,1.437,0.023c0.167,0.018,0.317,0.062,0.452,0.146
		c0.137,0.082,0.242,0.184,0.316,0.309c0.078,0.139,0.125,0.275,0.141,0.424c0.021,0.172,0.031,0.379,0.031,0.615
		c0,0.385-0.026,0.646-0.08,0.801c-0.08,0.225-0.229,0.377-0.451,0.465c-0.074,0.025-0.188,0.057-0.338,0.078
		c0.299,0.021,0.514,0.105,0.644,0.258c0.058,0.062,0.099,0.141,0.121,0.227c0.024,0.086,0.041,0.211,0.05,0.375
		c0.002,0.084,0.003,0.256,0.003,0.52v0.434h-1.401V331c0-0.277-0.013-0.477-0.037-0.598c-0.037-0.176-0.129-0.275-0.277-0.311
		c-0.098-0.021-0.305-0.027-0.619-0.027h-2.003v1.186H136.165L136.165,331.25z M137.586,328.898h2
		c0.298-0.008,0.475-0.012,0.53-0.018c0.2-0.012,0.327-0.072,0.379-0.186c0.037-0.076,0.055-0.207,0.055-0.395
		c0-0.158-0.016-0.275-0.048-0.355c-0.048-0.111-0.163-0.18-0.345-0.189c-0.064-0.004-0.255-0.008-0.574-0.01h-1.996
		L137.586,328.898L137.586,328.898z"/>
	<path fill="#F4F4F4" d="M142.464,326.584h5.168v1.098h-3.767v0.678h3.574v1.021h-3.574v0.748h3.794v1.121h-5.195V326.584z"/>
	<path fill="#F4F4F4" d="M147.939,329.705h1.377c-0.002,0.229,0.043,0.379,0.14,0.443c0.05,0.029,0.106,0.055,0.171,0.062
		s0.175,0.021,0.335,0.023c0.08,0.002,0.341,0.006,0.783,0.008c0.606-0.004,0.957-0.008,1.053-0.012
		c0.181-0.018,0.298-0.037,0.354-0.07c0.08-0.051,0.121-0.162,0.121-0.336c0-0.117-0.025-0.201-0.075-0.25
		c-0.068-0.064-0.231-0.104-0.489-0.105c-0.178,0-0.549-0.014-1.113-0.041c-0.584-0.023-0.962-0.043-1.136-0.047
		c-0.451-0.014-0.769-0.064-0.954-0.158c-0.236-0.113-0.392-0.311-0.465-0.594c-0.041-0.156-0.062-0.355-0.062-0.605
		c0-0.527,0.101-0.9,0.301-1.117c0.15-0.164,0.379-0.271,0.685-0.324c0.276-0.047,0.933-0.068,1.97-0.068
		c0.674,0,1.15,0.021,1.428,0.061c0.367,0.053,0.632,0.145,0.793,0.271c0.22,0.184,0.328,0.502,0.328,0.967
		c0,0.055,0,0.133-0.002,0.24h-1.377c-0.004-0.109-0.014-0.189-0.024-0.23c-0.032-0.127-0.138-0.197-0.313-0.217
		c-0.158-0.014-0.541-0.021-1.148-0.021c-0.602,0-0.958,0.018-1.07,0.053c-0.125,0.041-0.188,0.146-0.188,0.316
		c0,0.164,0.065,0.266,0.197,0.301c0.112,0.031,0.614,0.059,1.508,0.086c0.809,0.021,1.324,0.051,1.547,0.086
		c0.227,0.033,0.406,0.086,0.539,0.154c0.134,0.064,0.24,0.164,0.32,0.289c0.12,0.186,0.18,0.479,0.18,0.893
		c0,0.459-0.059,0.795-0.178,1.008c-0.119,0.217-0.312,0.357-0.58,0.439c-0.265,0.076-0.992,0.115-2.185,0.115
		c-0.726,0-1.248-0.021-1.569-0.062c-0.392-0.045-0.673-0.133-0.844-0.266c-0.186-0.145-0.294-0.342-0.328-0.6
		c-0.018-0.125-0.027-0.271-0.027-0.443V329.705L147.939,329.705z"/>
	<path fill="#F4F4F4" d="M160.33,329.449h1.422c0.01,0.229,0.014,0.385,0.014,0.469c0,0.34-0.054,0.611-0.16,0.816
		c-0.112,0.213-0.326,0.359-0.64,0.443c-0.344,0.098-0.938,0.145-1.784,0.145c-0.932,0-1.56-0.02-1.883-0.045
		c-0.301-0.025-0.537-0.064-0.711-0.119c-0.173-0.059-0.316-0.135-0.431-0.24c-0.153-0.141-0.25-0.328-0.291-0.561
		c-0.046-0.244-0.068-0.717-0.068-1.408c0-0.666,0.017-1.117,0.052-1.354c0.049-0.348,0.186-0.602,0.406-0.758
		c0.168-0.119,0.438-0.203,0.807-0.254c0.383-0.049,1.07-0.074,2.062-0.074c0.59,0,1.011,0.016,1.261,0.037
		c0.379,0.037,0.654,0.109,0.827,0.219c0.214,0.137,0.351,0.33,0.407,0.584c0.041,0.188,0.062,0.396,0.062,0.637
		c0,0.041-0.002,0.131-0.004,0.27h-1.422c-0.004-0.113-0.009-0.189-0.014-0.229c-0.018-0.143-0.081-0.229-0.188-0.268
		c-0.162-0.055-0.604-0.082-1.326-0.082c-0.492,0-0.832,0.018-1.02,0.041c-0.229,0.033-0.369,0.156-0.424,0.373
		c-0.043,0.176-0.064,0.459-0.064,0.85c0,0.4,0.021,0.68,0.064,0.828c0.055,0.199,0.205,0.314,0.451,0.35
		c0.201,0.021,0.553,0.037,1.056,0.037c0.544,0,0.916-0.014,1.114-0.033c0.187-0.021,0.305-0.088,0.354-0.201
		C160.302,329.82,160.325,329.666,160.33,329.449z"/>
	<path fill="#F4F4F4" d="M161.837,326.584h1.562l1.703,3.494h0.267l1.685-3.494h1.553l-2.276,4.666h-2.185L161.837,326.584z"/>
</g>
<g>
	<path fill="#F9F9F9" d="M88.236,242.42h4.463l4.863,9.98h0.762l4.814-9.98h4.434l-6.504,13.33h-6.24L88.236,242.42z"/>
	<path fill="#F9F9F9" d="M120.746,250.604h4.062c0.025,0.652,0.039,1.102,0.039,1.342c0,0.971-0.154,1.748-0.459,2.334
		c-0.32,0.609-0.929,1.037-1.826,1.275c-0.983,0.271-2.683,0.4-5.099,0.4c-2.663,0-4.457-0.041-5.381-0.127
		c-0.858-0.07-1.537-0.188-2.031-0.342c-0.493-0.156-0.905-0.387-1.229-0.688c-0.437-0.4-0.713-0.938-0.83-1.602
		c-0.131-0.695-0.195-2.037-0.195-4.023c0-1.906,0.049-3.189,0.146-3.854c0.143-0.996,0.531-1.723,1.162-2.168
		c0.481-0.34,1.25-0.578,2.305-0.727c1.094-0.143,3.057-0.215,5.889-0.215c1.686,0,2.887,0.037,3.604,0.107
		c1.082,0.104,1.869,0.312,2.363,0.625c0.612,0.385,1,0.938,1.162,1.67c0.117,0.521,0.176,1.123,0.176,1.807
		c0,0.117-0.002,0.375-0.01,0.771h-4.062c-0.013-0.324-0.026-0.549-0.039-0.664c-0.052-0.396-0.231-0.646-0.537-0.752
		c-0.462-0.156-1.726-0.234-3.789-0.234c-1.406,0-2.376,0.039-2.91,0.117c-0.651,0.092-1.055,0.445-1.211,1.062
		c-0.124,0.5-0.187,1.312-0.187,2.424c0,1.146,0.062,1.938,0.187,2.371c0.156,0.566,0.586,0.896,1.289,0.986
		c0.573,0.07,1.579,0.105,3.019,0.105c1.556,0,2.617-0.031,3.184-0.1c0.533-0.059,0.873-0.252,1.016-0.576
		C120.668,251.668,120.732,251.223,120.746,250.604z"/>
	<path fill="#F9F9F9" d="M126.254,242.42h14.092v3.135h-10.029v2.521h9.541v3.062h-9.541v4.609h-4.062L126.254,242.42
		L126.254,242.42z"/>
</g>
<g>
	<path fill="#EDEDED" d="M87.869,589.502h1.279v2.98h2.846v1.02h-4.125V589.502z"/>
	<path fill="#EDEDED" d="M92.271,589.502h1.28v4h-1.28V589.502z"/>
	<path fill="#EDEDED" d="M94.111,589.502h2.137l2.095,2.982h0.126l-0.029-2.982h1.24v4h-2.119l-2.104-2.986h-0.132l0.026,2.986
		h-1.24V589.502z"/>
	<path fill="#EDEDED" d="M100.238,593.502v-4h2.886c0.627,0,1.032,0.012,1.216,0.033c0.355,0.041,0.617,0.133,0.785,0.273
		c0.18,0.156,0.298,0.408,0.354,0.76c0.027,0.166,0.041,0.455,0.041,0.867c0,0.529-0.022,0.896-0.069,1.104
		c-0.064,0.281-0.171,0.488-0.316,0.621c-0.1,0.092-0.221,0.162-0.362,0.209c-0.143,0.047-0.336,0.08-0.578,0.102
		c-0.19,0.021-0.547,0.027-1.065,0.027L100.238,593.502L100.238,593.502z M101.439,592.482h1.695c0.344,0,0.602-0.018,0.771-0.041
		c0.188-0.031,0.309-0.141,0.357-0.314c0.036-0.129,0.055-0.332,0.055-0.609c0-0.297-0.02-0.514-0.059-0.648
		c-0.047-0.174-0.154-0.279-0.322-0.316c-0.133-0.029-0.403-0.047-0.813-0.047h-1.685V592.482L101.439,592.482z"/>
	<path fill="#EDEDED" d="M106,589.502h4.43v0.941h-3.229v0.576h3.064v0.879h-3.064v0.643h3.252v0.961H106V589.502L106,589.502z"/>
	<path fill="#EDEDED" d="M110.834,589.502h2.137l2.094,2.982h0.127l-0.029-2.982h1.238v4h-2.117l-2.104-2.986h-0.133l0.026,2.986
		h-1.239V589.502z"/>
	<path fill="#EDEDED" d="M116.96,593.502v-4h2.874c0.611,0.002,0.975,0.008,1.09,0.016c0.262,0.02,0.454,0.062,0.577,0.145
		c0.142,0.09,0.231,0.213,0.274,0.371c0.039,0.146,0.06,0.316,0.06,0.51c0,0.234-0.022,0.412-0.067,0.531
		c-0.074,0.189-0.23,0.32-0.472,0.395c0.179,0.031,0.31,0.076,0.396,0.137c0.195,0.133,0.293,0.404,0.293,0.824
		c0,0.326-0.051,0.568-0.151,0.729c-0.09,0.137-0.228,0.229-0.41,0.277c-0.155,0.041-0.418,0.062-0.784,0.064l-0.795,0.006
		L116.96,593.502L116.96,593.502z M118.121,591.078h1.717c0.377,0,0.602-0.016,0.674-0.043c0.096-0.037,0.145-0.133,0.145-0.287
		c0-0.158-0.059-0.254-0.174-0.285c-0.045-0.012-0.26-0.018-0.645-0.02h-1.717V591.078L118.121,591.078z M118.121,592.541h1.723
		c0.32-0.002,0.51-0.004,0.565-0.006c0.178-0.008,0.291-0.043,0.34-0.105c0.037-0.051,0.056-0.129,0.056-0.23
		c0-0.168-0.061-0.271-0.182-0.297c-0.043-0.016-0.303-0.021-0.779-0.021h-1.723V592.541L118.121,592.541z"/>
	<path fill="#EDEDED" d="M122.407,589.502h4.43v0.941h-3.229v0.576h3.064v0.879h-3.064v0.643h3.252v0.961h-4.452V589.502
		L122.407,589.502z"/>
	<path fill="#EDEDED" d="M127.241,593.502v-4h2.944c0.694,0.002,1.104,0.01,1.229,0.021c0.144,0.014,0.272,0.057,0.388,0.125
		c0.116,0.066,0.207,0.154,0.271,0.266c0.066,0.115,0.105,0.234,0.119,0.359c0.019,0.146,0.027,0.32,0.027,0.527
		c0,0.326-0.021,0.557-0.068,0.686c-0.067,0.188-0.196,0.32-0.387,0.396c-0.063,0.025-0.16,0.047-0.289,0.066
		c0.256,0.02,0.438,0.094,0.551,0.221c0.049,0.057,0.082,0.121,0.104,0.195c0.021,0.068,0.035,0.18,0.042,0.316
		c0.002,0.072,0.003,0.223,0.003,0.441v0.373h-1.201v-0.215c0-0.238-0.011-0.408-0.031-0.516c-0.031-0.145-0.11-0.232-0.237-0.264
		c-0.084-0.02-0.261-0.025-0.53-0.025h-1.717v1.02L127.241,593.502L127.241,593.502z M128.459,591.486h1.714
		c0.257-0.006,0.407-0.012,0.454-0.016c0.172-0.01,0.28-0.062,0.325-0.156c0.03-0.064,0.047-0.182,0.047-0.34
		c0-0.137-0.015-0.234-0.041-0.305c-0.041-0.098-0.14-0.148-0.296-0.164c-0.055-0.004-0.219-0.006-0.492-0.008h-1.711V591.486
		L128.459,591.486z"/>
	<path fill="#EDEDED" d="M135.086,591.234h2.786c0.004,0.088,0.006,0.145,0.006,0.17c0,0.52-0.015,0.928-0.044,1.213
		c-0.047,0.461-0.309,0.738-0.785,0.838c-0.246,0.049-0.516,0.078-0.809,0.088c-0.312,0.012-0.68,0.018-1.104,0.018
		c-0.757,0-1.297-0.023-1.621-0.082c-0.449-0.07-0.728-0.277-0.834-0.617c-0.054-0.166-0.084-0.357-0.092-0.572
		c-0.01-0.271-0.015-0.557-0.015-0.861c0-0.516,0.024-0.877,0.073-1.086c0.069-0.291,0.19-0.496,0.363-0.615
		c0.09-0.062,0.202-0.109,0.338-0.146c0.135-0.033,0.327-0.062,0.575-0.082c0.351-0.031,0.822-0.047,1.418-0.047
		c0.767,0,1.308,0.027,1.626,0.09c0.322,0.061,0.549,0.168,0.68,0.322c0.115,0.139,0.187,0.354,0.211,0.654
		c0.007,0.078,0.01,0.201,0.01,0.367h-1.219c-0.002-0.105-0.008-0.184-0.019-0.223c-0.026-0.1-0.114-0.158-0.261-0.178
		c-0.193-0.025-0.574-0.039-1.143-0.039c-0.506,0-0.856,0.018-1.053,0.051c-0.186,0.033-0.298,0.135-0.337,0.305
		c-0.03,0.129-0.047,0.357-0.047,0.688c0,0.379,0.017,0.639,0.05,0.773c0.043,0.188,0.176,0.289,0.398,0.312
		c0.109,0.01,0.439,0.018,0.99,0.023c0.602-0.006,0.988-0.018,1.162-0.033c0.158-0.025,0.25-0.098,0.272-0.209
		c0.015-0.068,0.021-0.18,0.021-0.32h-1.603v-0.803L135.086,591.234L135.086,591.234z"/>
	<path fill="#EDEDED" d="M91.664,600.701v-3.998h2.943c0.695,0.002,1.105,0.008,1.23,0.02c0.143,0.018,0.271,0.061,0.389,0.125
		c0.115,0.07,0.207,0.158,0.271,0.27c0.065,0.111,0.106,0.23,0.12,0.355c0.018,0.146,0.025,0.324,0.025,0.531
		c0,0.326-0.021,0.553-0.066,0.682c-0.068,0.191-0.197,0.324-0.387,0.398c-0.064,0.025-0.162,0.049-0.291,0.068
		c0.256,0.02,0.439,0.092,0.552,0.219c0.049,0.057,0.083,0.121,0.104,0.195c0.021,0.068,0.034,0.18,0.041,0.316
		c0.002,0.072,0.004,0.221,0.004,0.443v0.371h-1.201v-0.213c0-0.238-0.012-0.41-0.032-0.518c-0.031-0.145-0.11-0.232-0.237-0.264
		c-0.084-0.018-0.261-0.025-0.529-0.025h-1.718v1.02L91.664,600.701L91.664,600.701z M92.883,598.686h1.715
		c0.256-0.004,0.406-0.008,0.453-0.012c0.172-0.01,0.28-0.061,0.325-0.158c0.031-0.062,0.047-0.178,0.047-0.336
		c0-0.137-0.014-0.234-0.041-0.305c-0.041-0.098-0.14-0.152-0.296-0.164c-0.055-0.004-0.219-0.008-0.492-0.01h-1.711V598.686
		L92.883,598.686z"/>
	<path fill="#EDEDED" d="M97.062,596.703h4.431v0.938h-3.229v0.576h3.064v0.879h-3.064v0.646h3.252v0.961h-4.453V596.703
		L97.062,596.703z"/>
	<path fill="#EDEDED" d="M101.757,599.377h1.181c-0.002,0.197,0.039,0.324,0.121,0.381c0.043,0.027,0.092,0.047,0.146,0.061
		c0.054,0.01,0.149,0.016,0.287,0.02c0.067,0.002,0.292,0.004,0.671,0.006c0.52-0.002,0.82-0.004,0.902-0.008
		c0.153-0.012,0.256-0.033,0.305-0.062c0.068-0.045,0.104-0.141,0.104-0.285c0-0.104-0.021-0.174-0.064-0.215
		c-0.059-0.059-0.198-0.09-0.419-0.094c-0.152,0-0.472-0.012-0.955-0.033c-0.5-0.021-0.824-0.035-0.974-0.041
		c-0.387-0.014-0.658-0.059-0.816-0.137c-0.203-0.1-0.336-0.27-0.398-0.51c-0.035-0.133-0.053-0.307-0.053-0.521
		c0-0.449,0.086-0.77,0.258-0.955c0.129-0.145,0.324-0.232,0.586-0.277c0.236-0.039,0.799-0.062,1.688-0.062
		c0.577,0,0.985,0.02,1.225,0.053c0.314,0.045,0.541,0.123,0.681,0.23c0.188,0.154,0.28,0.436,0.28,0.83
		c0,0.043-0.001,0.111-0.003,0.205h-1.181c-0.004-0.096-0.011-0.162-0.021-0.199c-0.027-0.105-0.117-0.172-0.271-0.186
		c-0.136-0.014-0.463-0.021-0.984-0.021c-0.516,0-0.821,0.02-0.917,0.045c-0.107,0.035-0.16,0.125-0.16,0.271
		c0,0.141,0.057,0.227,0.17,0.258c0.096,0.025,0.525,0.051,1.291,0.074c0.693,0.02,1.137,0.043,1.328,0.072
		c0.192,0.025,0.346,0.07,0.461,0.133c0.113,0.059,0.205,0.141,0.273,0.248c0.104,0.158,0.154,0.414,0.154,0.766
		c0,0.396-0.051,0.682-0.151,0.863c-0.103,0.182-0.269,0.307-0.498,0.373c-0.228,0.062-0.851,0.1-1.872,0.1
		c-0.621,0-1.068-0.018-1.345-0.051c-0.336-0.039-0.577-0.115-0.724-0.229c-0.158-0.121-0.252-0.293-0.281-0.516
		c-0.016-0.104-0.023-0.23-0.023-0.381L101.757,599.377L101.757,599.377z"/>
	<path fill="#EDEDED" d="M107.074,596.703h4.43v0.938h-3.229v0.576h3.063v0.879h-3.063v0.646h3.252v0.961h-4.453V596.703
		L107.074,596.703z"/>
	<path fill="#EDEDED" d="M116.25,600.701l-0.343-0.676h-2.646l-0.343,0.676h-1.393l2.121-3.998h1.894l2.092,3.998H116.25z
		 M115.479,599.148l-0.771-1.518h-0.243l-0.771,1.518H115.479z"/>
	<path fill="#EDEDED" d="M117.814,600.701v-3.998h2.943c0.695,0.002,1.105,0.008,1.23,0.02c0.143,0.018,0.271,0.061,0.388,0.125
		c0.116,0.07,0.207,0.158,0.271,0.27c0.066,0.111,0.106,0.23,0.121,0.355c0.018,0.146,0.025,0.324,0.025,0.531
		c0,0.326-0.021,0.553-0.066,0.682c-0.068,0.191-0.197,0.324-0.388,0.398c-0.063,0.025-0.161,0.049-0.29,0.068
		c0.256,0.02,0.439,0.092,0.551,0.219c0.049,0.057,0.084,0.121,0.104,0.195c0.021,0.068,0.034,0.18,0.042,0.316
		c0.002,0.072,0.003,0.221,0.003,0.443v0.371h-1.201v-0.213c0-0.238-0.011-0.41-0.032-0.518c-0.031-0.145-0.109-0.232-0.236-0.264
		c-0.084-0.018-0.262-0.025-0.53-0.025h-1.717v1.02L117.814,600.701L117.814,600.701z M119.033,598.686h1.714
		c0.256-0.004,0.407-0.008,0.454-0.012c0.172-0.01,0.279-0.061,0.324-0.158c0.031-0.062,0.048-0.178,0.048-0.336
		c0-0.137-0.015-0.234-0.041-0.305c-0.041-0.098-0.14-0.152-0.296-0.164c-0.055-0.004-0.219-0.008-0.492-0.01h-1.711V598.686
		L119.033,598.686z"/>
	<path fill="#EDEDED" d="M127.04,599.158h1.219c0.009,0.191,0.013,0.328,0.013,0.396c0,0.291-0.047,0.525-0.139,0.701
		c-0.096,0.188-0.277,0.312-0.548,0.383c-0.295,0.08-0.806,0.121-1.528,0.121c-0.8,0-1.338-0.014-1.615-0.039
		c-0.258-0.02-0.461-0.055-0.608-0.102s-0.271-0.115-0.369-0.205c-0.131-0.121-0.214-0.281-0.249-0.48
		c-0.039-0.209-0.059-0.607-0.059-1.207c0-0.568,0.015-0.959,0.044-1.154c0.043-0.301,0.159-0.52,0.349-0.65
		c0.145-0.102,0.375-0.174,0.691-0.217c0.328-0.043,0.917-0.064,1.767-0.064c0.507,0,0.866,0.016,1.081,0.033
		c0.324,0.031,0.561,0.094,0.709,0.188c0.184,0.111,0.301,0.279,0.35,0.5c0.035,0.154,0.053,0.338,0.053,0.543
		c0,0.031-0.001,0.109-0.004,0.229h-1.219c-0.004-0.098-0.008-0.164-0.012-0.199c-0.016-0.119-0.068-0.189-0.16-0.225
		c-0.14-0.047-0.519-0.07-1.138-0.07c-0.422,0-0.713,0.014-0.873,0.035c-0.194,0.027-0.315,0.133-0.362,0.318
		c-0.037,0.146-0.057,0.393-0.057,0.727c0,0.344,0.02,0.582,0.057,0.713c0.047,0.17,0.176,0.271,0.387,0.295
		c0.172,0.021,0.474,0.033,0.904,0.033c0.467,0,0.785-0.01,0.955-0.029c0.16-0.018,0.262-0.072,0.305-0.174
		C127.018,599.477,127.036,599.344,127.04,599.158z"/>
	<path fill="#EDEDED" d="M128.691,596.703h1.281v1.43h2.75v-1.43h1.28v3.998h-1.28v-1.449h-2.75v1.449h-1.281V596.703z"/>
</g>
</svg>
