<?xml version="1.0" encoding="utf-8"?>
<!-- Generator: Adobe Illustrator 16.0.0, SVG Export Plug-In . SVG Version: 6.00 Build 0)  -->
<!DOCTYPE svg PUBLIC "-//W3C//DTD SVG 1.1//EN" "http://www.w3.org/Graphics/SVG/1.1/DTD/svg11.dtd" [
        <!ENTITY ns_extend "http://ns.adobe.com/Extensibility/1.0/">
        <!ENTITY ns_ai "http://ns.adobe.com/AdobeIllustrator/10.0/">
        <!ENTITY ns_graphs "http://ns.adobe.com/Graphs/1.0/">
        <!ENTITY ns_vars "http://ns.adobe.com/Variables/1.0/">
        <!ENTITY ns_imrep "http://ns.adobe.com/ImageReplacement/1.0/">
        <!ENTITY ns_sfw "http://ns.adobe.com/SaveForWeb/1.0/">
        <!ENTITY ns_custom "http://ns.adobe.com/GenericCustomNamespace/1.0/">
        <!ENTITY ns_adobe_xpath "http://ns.adobe.com/XPath/1.0/">
        ]>
<svg xmlns:x="&ns_extend;"
	 xmlns:i="&ns_ai;" xmlns:graph="&ns_graphs;" xmlns:rdf="http://www.w3.org/1999/02/22-rdf-syntax-ns#" xmlns:sodipodi="http://sodipodi.sourceforge.net/DTD/sodipodi-0.dtd" xmlns:svg="http://www.w3.org/2000/svg" xmlns:dc="http://purl.org/dc/elements/1.1/" xmlns:cc="http://creativecommons.org/ns#" xmlns:inkscape="http://www.inkscape.org/namespaces/inkscape" xmlns:xlink="http://www.w3.org/1999/xlink" version="1.1" id="SmallKnob_1_" sodipodi:docname="BefacoBigKnob.svg"
	 inkscape:version="0.92.2 5c3e80d, 2017-08-06" xmlns="http://www.w3.org/2000/svg" x="0px" y="0px" width="24px" height="24px"
	 viewBox="-24.5 65.5 24 24" enable-background="new -24.5 65.5 24 24" xml:space="preserve">
<metadata>
	<sfw  xmlns="&ns_sfw;">
		<slices></slices>
		<sliceSourceBounds  width="24.305" height="24.314" bottomLeftOrigin="true" x="-0.152" y="-24.164"></sliceSourceBounds>
	</sfw>
</metadata>
<g id="SmallKnob">
	<circle fill="#C1C1C1" stroke="#141414" stroke-miterlimit="10" cx="-12.501" cy="77.75" r="10.835"/>
	
		<path id="path8603" inkscape:connector-curvature="0" fill="#E5E5E5" stroke="#353535" stroke-width="0.3" stroke-miterlimit="10" d="
		M-1.914,71.95c-0.707-1.344-1.657-2.535-2.788-3.52c-2.18,0.312-4.437-0.793-5.562-2.717c-0.724-0.139-1.473-0.214-2.237-0.214
		s-1.512,0.075-2.237,0.214c-1.127,1.924-3.383,3.028-5.563,2.717c-1.131,0.984-2.082,2.176-2.789,3.52
		c0.807,2.124,0.232,4.657-1.411,6.205c0.053,1.54,0.384,3.007,0.946,4.352c2.186,0.666,3.812,2.753,3.956,5.073
		c1.158,0.864,2.474,1.521,3.895,1.92c1.882-1.349,4.526-1.349,6.406,0c1.422-0.399,2.739-1.056,3.898-1.92
		c0.142-2.319,1.767-4.407,3.955-5.073c0.562-1.345,0.893-2.812,0.945-4.352C-2.143,76.607-2.717,74.074-1.914,71.95"/>
	<circle fill="#EFEFEF" cx="-12.501" cy="77.75" r="10.75"/>
	<circle fill="#BFBFBF" stroke="#050404" stroke-width="0.3" stroke-miterlimit="10" cx="-12.501" cy="77.75" r="9.03"/>
	<rect x="-13.629" y="65.5" fill="#282828" width="2.321" height="8.062"/>
</g>
</svg>
