<?xml version="1.0" encoding="UTF-8" standalone="no"?>
<!DOCTYPE svg PUBLIC "-//W3C//DTD SVG 1.1//EN" "http://www.w3.org/Graphics/SVG/1.1/DTD/svg11.dtd">
<svg width="24px" height="18px" version="1.1" xmlns="http://www.w3.org/2000/svg" xmlns:xlink="http://www.w3.org/1999/xlink" xml:space="preserve" xmlns:serif="http://www.serif.com/" style="fill-rule:evenodd;clip-rule:evenodd;stroke-miterlimit:10;">
    <g transform="matrix(0.0842525,-7.31734e-18,-5.762e-18,0.0898693,-82.0836,-45.1452)">
        <g id="g56702">
            <g id="Toggle--on-" serif:id="Toggle (on)">
                <g transform="matrix(2.56,2.0844e-16,1.64135e-16,2.4,-2734.08,-4729)">
                    <path d="M1555.21,2220.19c0,-17.11 -13.891,-31 -31,-31l-40,0c-17.11,0 -31,13.89 -31,31c0,17.109 13.89,31 31,31l40,0c17.109,0 31,-13.891 31,-31Z" style="fill:#4c4c4c;"/>
                    <path d="M1524.65,2185.95l0.44,0.008l0.44,0.014l0.437,0.02l0.437,0.024l0.435,0.031l0.433,0.036l0.433,0.041l0.43,0.046l0.429,0.052l0.428,0.057l0.426,0.063l0.424,0.067l0.422,0.073l0.421,0.078l0.419,0.083l0.417,0.088l0.416,0.094l0.413,0.098l0.412,0.103l0.409,0.108l0.408,0.114l0.405,0.118l0.403,0.122l0.402,0.128l0.399,0.132l0.397,0.138l0.395,0.142l0.392,0.146l0.39,0.151l0.388,0.156l0.385,0.16l0.383,0.165l0.381,0.17l0.378,0.174l0.376,0.178l0.373,0.183l0.371,0.187l0.367,0.191l0.366,0.196l0.362,0.2l0.36,0.204l0.358,0.208l0.354,0.213l0.352,0.216l0.348,0.221l0.346,0.225l0.343,0.229l0.34,0.233l0.337,0.236l0.334,0.241l0.332,0.245l0.328,0.248l0.324,0.252l0.322,0.256l0.319,0.26l0.315,0.264l0.312,0.267l0.309,0.271l0.306,0.274l0.302,0.278l0.299,0.282l0.295,0.285l0.293,0.289l0.288,0.292l0.285,0.295l0.282,0.299l0.278,0.302l0.274,0.306l0.271,0.309l0.267,0.312l0.264,0.315l0.26,0.319l0.256,0.322l0.252,0.325l0.248,0.328l0.245,0.331l0.241,0.334l0.236,0.337l0.233,0.34l0.229,0.343l0.225,0.346l0.221,0.349l0.216,0.351l0.213,0.355l0.208,0.357l0.204,0.36l0.2,0.362l0.196,0.366l0.191,0.368l0.187,0.37l0.183,0.373l0.178,0.376l0.174,0.378l0.17,0.381l0.165,0.383l0.16,0.385l0.156,0.388l0.151,0.39l0.147,0.393l0.141,0.394l0.138,0.397l0.132,0.399l0.128,0.402l0.123,0.403l0.118,0.405l0.113,0.408l0.108,0.41l0.103,0.411l0.098,0.413l0.094,0.416l0.088,0.417l0.083,0.419l0.078,0.421l0.073,0.422l0.067,0.424l0.063,0.426l0.057,0.428l0.052,0.429l0.046,0.431l0.041,0.432l0.036,0.433l0.031,0.435l0.025,0.437l0.019,0.438l0.014,0.439l0.008,0.44l0.003,0.442l-0.003,0.441l-0.008,0.44l-0.014,0.439l-0.019,0.438l-0.025,0.437l-0.031,0.435l-0.036,0.433l-0.041,0.433l-0.046,0.43l-0.052,0.429l-0.057,0.428l-0.063,0.426l-0.067,0.424l-0.073,0.422l-0.078,0.421l-0.083,0.419l-0.088,0.417l-0.094,0.416l-0.098,0.413l-0.103,0.412l-0.108,0.409l-0.113,0.408l-0.118,0.405l-0.123,0.403l-0.128,0.402l-0.132,0.399l-0.138,0.397l-0.141,0.394l-0.147,0.393l-0.151,0.39l-0.156,0.388l-0.16,0.385l-0.165,0.383l-0.17,0.381l-0.174,0.378l-0.178,0.376l-0.183,0.373l-0.187,0.371l-0.191,0.367l-0.196,0.366l-0.2,0.362l-0.204,0.36l-0.208,0.358l-0.213,0.354l-0.216,0.351l-0.221,0.349l-0.225,0.346l-0.229,0.343l-0.233,0.34l-0.236,0.337l-0.241,0.334l-0.245,0.331l-0.248,0.328l-0.252,0.325l-0.256,0.322l-0.26,0.319l-0.264,0.315l-0.267,0.312l-0.271,0.309l-0.274,0.306l-0.278,0.302l-0.282,0.299l-0.285,0.295l-0.288,0.292l-0.293,0.289l-0.295,0.285l-0.299,0.282l-0.302,0.278l-0.306,0.274l-0.309,0.271l-0.312,0.267l-0.315,0.264l-0.319,0.26l-0.322,0.256l-0.324,0.252l-0.328,0.248l-0.332,0.245l-0.334,0.241l-0.337,0.236l-0.34,0.233l-0.343,0.229l-0.346,0.225l-0.348,0.221l-0.352,0.216l-0.354,0.213l-0.358,0.208l-0.36,0.204l-0.362,0.2l-0.366,0.196l-0.367,0.191l-0.371,0.187l-0.373,0.183l-0.376,0.178l-0.378,0.174l-0.381,0.17l-0.383,0.165l-0.385,0.16l-0.388,0.156l-0.39,0.151l-0.392,0.147l-0.395,0.141l-0.397,0.138l-0.399,0.132l-0.402,0.128l-0.403,0.123l-0.405,0.118l-0.408,0.113l-0.409,0.108l-0.412,0.103l-0.413,0.098l-0.416,0.094l-0.417,0.088l-0.419,0.083l-0.421,0.078l-0.422,0.073l-0.424,0.067l-0.426,0.063l-0.428,0.057l-0.429,0.052l-0.43,0.046l-0.433,0.041l-0.433,0.036l-0.435,0.031l-0.437,0.024l-0.437,0.02l-0.44,0.014l-0.44,0.008l-0.431,0.003l-40.021,0l-0.431,-0.003l-0.44,-0.008l-0.439,-0.014l-0.438,-0.02l-0.437,-0.024l-0.435,-0.031l-0.433,-0.036l-0.432,-0.041l-0.431,-0.046l-0.429,-0.052l-0.428,-0.057l-0.426,-0.063l-0.424,-0.067l-0.422,-0.073l-0.421,-0.078l-0.419,-0.083l-0.417,-0.088l-0.415,-0.094l-0.414,-0.098l-0.411,-0.103l-0.41,-0.108l-0.407,-0.114l-0.406,-0.117l-0.403,-0.123l-0.402,-0.128l-0.399,-0.132l-0.397,-0.138l-0.394,-0.141l-0.393,-0.147l-0.39,-0.151l-0.388,-0.156l-0.385,-0.16l-0.383,-0.165l-0.381,-0.17l-0.378,-0.174l-0.376,-0.178l-0.373,-0.183l-0.37,-0.187l-0.368,-0.191l-0.366,-0.196l-0.362,-0.2l-0.36,-0.204l-0.357,-0.208l-0.355,-0.213l-0.351,-0.216l-0.349,-0.221l-0.346,-0.225l-0.343,-0.229l-0.34,-0.233l-0.337,-0.236l-0.334,-0.241l-0.331,-0.245l-0.328,-0.248l-0.325,-0.252l-0.322,-0.256l-0.319,-0.26l-0.315,-0.264l-0.312,-0.267l-0.309,-0.271l-0.306,-0.274l-0.302,-0.278l-0.299,-0.282l-0.295,-0.285l-0.292,-0.289l-0.289,-0.292l-0.285,-0.295l-0.282,-0.299l-0.278,-0.302l-0.274,-0.306l-0.271,-0.309l-0.267,-0.312l-0.264,-0.315l-0.26,-0.319l-0.256,-0.322l-0.252,-0.325l-0.248,-0.328l-0.245,-0.331l-0.241,-0.334l-0.236,-0.337l-0.233,-0.34l-0.229,-0.343l-0.225,-0.346l-0.22,-0.348l-0.217,-0.352l-0.213,-0.355l-0.208,-0.357l-0.204,-0.36l-0.2,-0.362l-0.196,-0.366l-0.191,-0.368l-0.187,-0.37l-0.183,-0.373l-0.178,-0.376l-0.174,-0.378l-0.17,-0.381l-0.164,-0.383l-0.161,-0.385l-0.156,-0.388l-0.151,-0.39l-0.146,-0.393l-0.142,-0.394l-0.137,-0.397l-0.133,-0.399l-0.128,-0.402l-0.122,-0.403l-0.118,-0.405l-0.114,-0.408l-0.108,-0.409l-0.103,-0.412l-0.098,-0.413l-0.093,-0.416l-0.089,-0.417l-0.083,-0.419l-0.078,-0.421l-0.073,-0.422l-0.067,-0.424l-0.063,-0.426l-0.057,-0.428l-0.052,-0.429l-0.046,-0.43l-0.041,-0.433l-0.036,-0.433l-0.03,-0.435l-0.025,-0.437l-0.02,-0.437l-0.014,-0.44l-0.008,-0.44l-0.003,-0.441l0.003,-0.442l0.008,-0.44l0.014,-0.439l0.02,-0.438l0.025,-0.437l0.03,-0.435l0.036,-0.433l0.041,-0.432l0.046,-0.431l0.052,-0.429l0.057,-0.428l0.063,-0.426l0.067,-0.424l0.073,-0.422l0.078,-0.421l0.083,-0.419l0.089,-0.417l0.093,-0.416l0.098,-0.413l0.103,-0.411l0.108,-0.41l0.114,-0.408l0.118,-0.405l0.122,-0.403l0.128,-0.402l0.133,-0.399l0.137,-0.397l0.142,-0.394l0.146,-0.393l0.151,-0.39l0.156,-0.388l0.161,-0.385l0.164,-0.383l0.17,-0.381l0.174,-0.378l0.178,-0.376l0.183,-0.373l0.187,-0.37l0.191,-0.368l0.196,-0.366l0.2,-0.362l0.204,-0.36l0.208,-0.357l0.213,-0.355l0.217,-0.351l0.22,-0.349l0.225,-0.346l0.229,-0.343l0.233,-0.34l0.236,-0.337l0.241,-0.334l0.245,-0.331l0.248,-0.328l0.252,-0.325l0.256,-0.322l0.26,-0.319l0.264,-0.315l0.267,-0.312l0.271,-0.309l0.274,-0.306l0.278,-0.302l0.282,-0.299l0.285,-0.295l0.289,-0.292l0.292,-0.289l0.295,-0.285l0.299,-0.282l0.302,-0.278l0.306,-0.274l0.309,-0.271l0.312,-0.267l0.315,-0.264l0.319,-0.26l0.322,-0.256l0.325,-0.252l0.328,-0.248l0.331,-0.245l0.334,-0.241l0.337,-0.236l0.34,-0.233l0.343,-0.229l0.346,-0.225l0.349,-0.221l0.351,-0.216l0.355,-0.213l0.357,-0.208l0.36,-0.204l0.362,-0.2l0.366,-0.196l0.368,-0.191l0.37,-0.187l0.373,-0.183l0.376,-0.178l0.378,-0.174l0.381,-0.17l0.383,-0.165l0.385,-0.16l0.388,-0.156l0.39,-0.151l0.393,-0.146l0.394,-0.142l0.397,-0.138l0.399,-0.132l0.402,-0.128l0.403,-0.122l0.406,-0.118l0.407,-0.114l0.41,-0.108l0.411,-0.103l0.414,-0.098l0.415,-0.094l0.417,-0.088l0.419,-0.083l0.421,-0.078l0.422,-0.073l0.424,-0.067l0.426,-0.063l0.428,-0.057l0.429,-0.052l0.431,-0.046l0.432,-0.041l0.433,-0.036l0.435,-0.031l0.437,-0.024l0.438,-0.02l0.439,-0.014l0.44,-0.008l0.431,-0.003l40.021,0l0.431,0.003Zm-40.441,3.243l-0.401,0.002l-0.399,0.008l-0.398,0.012l-0.397,0.018l-0.395,0.022l-0.394,0.028l-0.393,0.032l-0.391,0.038l-0.39,0.042l-0.388,0.047l-0.387,0.052l-0.386,0.056l-0.384,0.061l-0.382,0.066l-0.381,0.071l-0.379,0.075l-0.377,0.08l-0.376,0.084l-0.374,0.089l-0.372,0.093l-0.37,0.098l-0.369,0.102l-0.367,0.107l-0.365,0.111l-0.363,0.116l-0.361,0.119l-0.359,0.125l-0.357,0.128l-0.355,0.132l-0.353,0.137l-0.35,0.141l-0.349,0.145l-0.347,0.149l-0.344,0.154l-0.342,0.157l-0.34,0.161l-0.338,0.166l-0.335,0.169l-0.333,0.173l-0.331,0.177l-0.328,0.181l-0.326,0.185l-0.323,0.189l-0.321,0.192l-0.318,0.196l-0.316,0.2l-0.313,0.204l-0.311,0.207l-0.308,0.211l-0.305,0.214l-0.302,0.218l-0.3,0.221l-0.297,0.225l-0.295,0.229l-0.291,0.232l-0.289,0.235l-0.285,0.239l-0.283,0.242l-0.28,0.245l-0.277,0.249l-0.273,0.252l-0.271,0.255l-0.268,0.258l-0.264,0.262l-0.262,0.264l-0.258,0.268l-0.255,0.271l-0.252,0.273l-0.249,0.277l-0.245,0.28l-0.242,0.283l-0.239,0.285l-0.235,0.289l-0.232,0.291l-0.228,0.295l-0.225,0.297l-0.222,0.299l-0.218,0.303l-0.214,0.305l-0.211,0.308l-0.207,0.311l-0.204,0.313l-0.2,0.316l-0.196,0.318l-0.192,0.321l-0.189,0.323l-0.185,0.326l-0.181,0.328l-0.177,0.331l-0.173,0.333l-0.169,0.335l-0.166,0.338l-0.161,0.34l-0.157,0.342l-0.153,0.344l-0.15,0.347l-0.145,0.348l-0.141,0.351l-0.136,0.353l-0.133,0.355l-0.128,0.357l-0.124,0.359l-0.12,0.361l-0.116,0.363l-0.111,0.365l-0.107,0.367l-0.102,0.369l-0.098,0.37l-0.093,0.372l-0.089,0.374l-0.084,0.376l-0.08,0.377l-0.075,0.379l-0.071,0.381l-0.066,0.382l-0.061,0.384l-0.056,0.386l-0.052,0.387l-0.047,0.388l-0.042,0.39l-0.038,0.391l-0.032,0.393l-0.027,0.394l-0.023,0.395l-0.018,0.397l-0.012,0.398l-0.008,0.399l-0.002,0.401l0.002,0.4l0.008,0.399l0.012,0.398l0.018,0.397l0.023,0.395l0.027,0.394l0.032,0.393l0.038,0.391l0.042,0.39l0.047,0.388l0.052,0.387l0.056,0.386l0.061,0.384l0.066,0.382l0.071,0.381l0.075,0.379l0.08,0.377l0.084,0.376l0.089,0.374l0.093,0.372l0.098,0.37l0.102,0.369l0.107,0.367l0.111,0.365l0.116,0.363l0.12,0.361l0.124,0.359l0.128,0.357l0.133,0.355l0.136,0.353l0.141,0.351l0.145,0.348l0.15,0.347l0.153,0.344l0.157,0.342l0.161,0.34l0.166,0.338l0.169,0.335l0.173,0.333l0.177,0.331l0.181,0.328l0.185,0.326l0.189,0.323l0.192,0.321l0.196,0.318l0.2,0.316l0.204,0.313l0.207,0.311l0.211,0.308l0.214,0.305l0.218,0.303l0.222,0.299l0.225,0.297l0.228,0.295l0.232,0.291l0.235,0.289l0.239,0.285l0.242,0.283l0.245,0.28l0.249,0.277l0.252,0.273l0.255,0.271l0.258,0.268l0.262,0.265l0.264,0.261l0.268,0.258l0.271,0.255l0.273,0.252l0.277,0.249l0.28,0.245l0.283,0.242l0.285,0.239l0.289,0.235l0.291,0.232l0.295,0.229l0.297,0.225l0.3,0.221l0.302,0.218l0.305,0.214l0.308,0.211l0.311,0.207l0.313,0.204l0.316,0.2l0.318,0.196l0.321,0.192l0.323,0.189l0.326,0.185l0.328,0.181l0.331,0.177l0.333,0.173l0.335,0.169l0.338,0.166l0.34,0.161l0.342,0.157l0.344,0.154l0.347,0.149l0.349,0.145l0.35,0.141l0.353,0.137l0.355,0.132l0.357,0.129l0.359,0.124l0.361,0.119l0.363,0.116l0.365,0.111l0.367,0.107l0.369,0.102l0.37,0.098l0.372,0.093l0.374,0.089l0.376,0.084l0.377,0.08l0.379,0.075l0.381,0.071l0.382,0.066l0.384,0.061l0.386,0.057l0.387,0.051l0.388,0.047l0.39,0.042l0.391,0.038l0.393,0.032l0.394,0.028l0.395,0.022l0.397,0.018l0.398,0.012l0.399,0.008l0.401,0.003l40,0l0.4,-0.003l0.399,-0.008l0.398,-0.012l0.397,-0.018l0.395,-0.022l0.394,-0.028l0.393,-0.032l0.391,-0.038l0.39,-0.042l0.389,-0.047l0.387,-0.051l0.385,-0.057l0.384,-0.061l0.382,-0.066l0.381,-0.071l0.379,-0.075l0.377,-0.08l0.376,-0.084l0.374,-0.089l0.372,-0.093l0.371,-0.098l0.368,-0.102l0.367,-0.107l0.365,-0.111l0.363,-0.116l0.361,-0.119l0.359,-0.124l0.357,-0.129l0.355,-0.132l0.353,-0.137l0.351,-0.141l0.348,-0.145l0.347,-0.149l0.344,-0.154l0.342,-0.157l0.34,-0.161l0.338,-0.166l0.335,-0.169l0.333,-0.173l0.331,-0.177l0.328,-0.181l0.326,-0.185l0.323,-0.189l0.321,-0.192l0.318,-0.196l0.316,-0.2l0.313,-0.204l0.311,-0.207l0.308,-0.211l0.305,-0.214l0.303,-0.218l0.299,-0.221l0.297,-0.225l0.295,-0.229l0.291,-0.232l0.289,-0.235l0.285,-0.239l0.283,-0.242l0.28,-0.245l0.277,-0.249l0.274,-0.252l0.27,-0.255l0.268,-0.258l0.265,-0.261l0.261,-0.265l0.258,-0.268l0.255,-0.271l0.252,-0.273l0.249,-0.277l0.245,-0.28l0.242,-0.283l0.239,-0.285l0.235,-0.289l0.232,-0.291l0.229,-0.295l0.225,-0.297l0.221,-0.299l0.218,-0.303l0.214,-0.305l0.211,-0.308l0.207,-0.311l0.204,-0.313l0.2,-0.316l0.196,-0.318l0.192,-0.321l0.189,-0.323l0.185,-0.326l0.181,-0.328l0.177,-0.331l0.173,-0.333l0.169,-0.335l0.166,-0.338l0.161,-0.34l0.157,-0.342l0.154,-0.344l0.149,-0.347l0.145,-0.348l0.141,-0.351l0.137,-0.353l0.132,-0.355l0.129,-0.357l0.124,-0.359l0.119,-0.361l0.116,-0.363l0.111,-0.365l0.107,-0.367l0.102,-0.369l0.098,-0.37l0.093,-0.372l0.089,-0.374l0.085,-0.376l0.079,-0.377l0.075,-0.379l0.071,-0.381l0.066,-0.382l0.061,-0.384l0.057,-0.386l0.051,-0.387l0.047,-0.388l0.042,-0.39l0.038,-0.391l0.032,-0.393l0.028,-0.394l0.022,-0.395l0.018,-0.397l0.012,-0.398l0.008,-0.399l0.003,-0.4l-0.003,-0.401l-0.008,-0.399l-0.012,-0.398l-0.018,-0.397l-0.022,-0.395l-0.028,-0.394l-0.032,-0.393l-0.038,-0.391l-0.042,-0.39l-0.047,-0.388l-0.051,-0.387l-0.057,-0.386l-0.061,-0.384l-0.066,-0.382l-0.071,-0.381l-0.075,-0.379l-0.079,-0.377l-0.085,-0.376l-0.089,-0.374l-0.093,-0.372l-0.098,-0.37l-0.102,-0.369l-0.107,-0.367l-0.111,-0.365l-0.116,-0.363l-0.119,-0.361l-0.124,-0.359l-0.129,-0.357l-0.132,-0.355l-0.137,-0.353l-0.141,-0.351l-0.145,-0.348l-0.149,-0.347l-0.154,-0.344l-0.157,-0.342l-0.161,-0.34l-0.166,-0.338l-0.169,-0.335l-0.173,-0.333l-0.177,-0.331l-0.181,-0.328l-0.185,-0.326l-0.189,-0.323l-0.192,-0.321l-0.196,-0.318l-0.2,-0.316l-0.204,-0.313l-0.207,-0.311l-0.211,-0.308l-0.214,-0.305l-0.218,-0.303l-0.221,-0.299l-0.225,-0.297l-0.229,-0.295l-0.232,-0.291l-0.235,-0.289l-0.239,-0.285l-0.242,-0.283l-0.245,-0.28l-0.249,-0.277l-0.252,-0.273l-0.255,-0.271l-0.258,-0.268l-0.261,-0.264l-0.265,-0.262l-0.268,-0.258l-0.27,-0.255l-0.274,-0.252l-0.277,-0.249l-0.28,-0.245l-0.283,-0.242l-0.285,-0.239l-0.289,-0.235l-0.291,-0.232l-0.295,-0.229l-0.297,-0.225l-0.299,-0.221l-0.303,-0.218l-0.305,-0.214l-0.308,-0.211l-0.311,-0.207l-0.313,-0.204l-0.316,-0.2l-0.318,-0.196l-0.321,-0.192l-0.323,-0.189l-0.326,-0.185l-0.328,-0.181l-0.331,-0.177l-0.333,-0.173l-0.335,-0.169l-0.338,-0.166l-0.34,-0.161l-0.342,-0.157l-0.344,-0.154l-0.347,-0.149l-0.348,-0.145l-0.351,-0.141l-0.353,-0.137l-0.355,-0.132l-0.357,-0.128l-0.359,-0.125l-0.361,-0.119l-0.363,-0.116l-0.365,-0.111l-0.367,-0.107l-0.368,-0.102l-0.371,-0.098l-0.372,-0.093l-0.374,-0.089l-0.376,-0.084l-0.377,-0.08l-0.379,-0.075l-0.381,-0.071l-0.382,-0.066l-0.384,-0.061l-0.385,-0.056l-0.387,-0.052l-0.389,-0.047l-0.39,-0.042l-0.391,-0.038l-0.393,-0.032l-0.394,-0.028l-0.395,-0.022l-0.397,-0.018l-0.398,-0.012l-0.399,-0.008l-0.4,-0.002l-40,0Z"/>
                </g>
                <g transform="matrix(2.56,2.0844e-16,1.64135e-16,2.4,626.702,519.774)">
                    <circle cx="211.4" cy="33.2" r="28" style="fill:#fff;stroke:#aeaeae;stroke-width:4.64px;"/>
                </g>
            </g>
        </g>
    </g>
</svg>
