<?xml version="1.0" encoding="UTF-8" standalone="no"?>
<!DOCTYPE svg PUBLIC "-//W3C//DTD SVG 1.1//EN" "http://www.w3.org/Graphics/SVG/1.1/DTD/svg11.dtd">
<svg width="39px" height="39px" version="1.1" xmlns="http://www.w3.org/2000/svg" xmlns:xlink="http://www.w3.org/1999/xlink" xml:space="preserve" xmlns:serif="http://www.serif.com/" style="fill-rule:evenodd;clip-rule:evenodd;stroke-miterlimit:10;">
    <g id="ToggleKnob">
        <circle cx="19.199" cy="19.389" r="18.24" style="fill:#232323;"/>
        <circle cx="19.199" cy="19.389" r="16.751" style="fill:#e0e0e0;"/>
        <path id="path8603" d="M34.476,11.021C33.455,9.081 32.084,7.362 30.453,5.943C27.308,6.393 24.051,4.799 22.428,2.024C21.383,1.821 20.303,1.714 19.2,1.714C18.096,1.714 17.018,1.821 15.971,2.024C14.346,4.799 11.091,6.393 7.946,5.943C6.314,7.363 4.944,9.081 3.923,11.021C5.087,14.085 4.257,17.74 1.886,19.974C1.964,22.195 2.44,24.313 3.251,26.252C6.405,27.214 8.752,30.225 8.958,33.572C10.629,34.82 12.528,35.767 14.578,36.343C17.294,34.396 21.109,34.396 23.822,36.343C25.873,35.765 27.774,34.818 29.445,33.572C29.649,30.226 31.995,27.213 35.153,26.252C35.963,24.313 36.439,22.195 36.514,19.974C34.146,17.74 33.315,14.086 34.476,11.021" style="fill:#efefef;fill-rule:nonzero;stroke:#353535;stroke-width:0.36px;"/>
        <g id="Top">
            <path d="M22.985,1.255C24.64,1.255 25.985,2.599 25.985,4.255L25.985,12.721C28.278,14.476 29.758,17.241 29.758,20.349C29.758,23.457 28.278,26.222 25.985,27.977L25.985,35.554C25.985,37.21 24.64,38.554 22.985,38.554L16.985,38.554C15.329,38.554 13.985,37.21 13.985,35.554L13.985,27.699C11.89,25.937 10.558,23.297 10.558,20.349C10.558,17.401 11.89,14.761 13.985,13L13.985,4.255C13.985,2.599 15.329,1.255 16.985,1.255L22.985,1.255Z" style="fill-opacity:0.258824;"/>
            <path d="M22.025,0.295C23.68,0.295 25.025,1.639 25.025,3.295L25.025,11.761C27.318,13.516 28.798,16.281 28.798,19.389C28.798,22.497 27.318,25.262 25.025,27.017L25.025,34.594C25.025,36.25 23.68,37.594 22.025,37.594L16.025,37.594C14.369,37.594 13.025,36.25 13.025,34.594L13.025,26.739C10.93,24.977 9.598,22.337 9.598,19.389C9.598,16.441 10.93,13.801 13.025,12.04L13.025,3.295C13.025,1.639 14.369,0.295 16.025,0.295L22.025,0.295Z" style="fill:#e0e0e0;stroke:#020202;stroke-width:0.47px;"/>
        </g>
        <path d="M20.202,2.59C20.202,2.265 19.938,2.002 19.613,2.002L18.436,2.002C18.111,2.002 17.848,2.265 17.848,2.59L17.848,7.826C17.848,8.151 18.111,8.415 18.436,8.415L19.613,8.415C19.938,8.415 20.202,8.151 20.202,7.826L20.202,2.59Z" style="fill:#020202;"/>
        <circle cx="19.2" cy="19.671" r="3.84" style="fill:#dcdcdc;stroke:#303030;stroke-width:0.29px;"/>
    </g>
</svg>
