<?xml version="1.0" encoding="UTF-8" standalone="no"?>
<!DOCTYPE svg PUBLIC "-//W3C//DTD SVG 1.1//EN" "http://www.w3.org/Graphics/SVG/1.1/DTD/svg11.dtd">
<svg width="180px" height="380px" version="1.1" xmlns="http://www.w3.org/2000/svg" xmlns:xlink="http://www.w3.org/1999/xlink" xml:space="preserve" xmlns:serif="http://www.serif.com/" style="fill-rule:evenodd;clip-rule:evenodd;stroke-miterlimit:10;">
    <rect id="Background" x="0" y="0" width="180" height="380" style="fill:#1d1d1d;"/>
    <g>
        <path d="M86.83,20.062L85.752,25.037L85.025,25.037C84.746,24.154 84.297,23.297 83.681,22.466C83.064,21.635 82.367,20.949 81.587,20.41C81.073,21.204 80.499,21.916 79.863,22.545C79.227,23.174 78.552,23.713 77.839,24.162C77.124,24.611 76.38,24.959 75.609,25.206C74.838,25.453 74.082,25.576 73.34,25.576C73.136,25.576 72.917,25.558 72.683,25.52L73.045,24.666C73.446,24.711 73.749,24.733 73.952,24.733C76.024,24.733 77.87,23.932 79.489,22.33C79.821,22.001 80.159,21.62 80.504,21.19C80.849,20.759 81.206,20.256 81.576,19.679C82.4,18.399 83.104,17.201 83.686,16.085L84.752,14.053C85.592,12.457 86.238,11.377 86.691,10.813C87.145,10.248 87.595,9.965 88.041,9.965C88.186,9.965 88.312,9.994 88.422,10.055C88.531,10.115 88.616,10.202 88.677,10.319C88.738,10.434 88.768,10.564 88.768,10.706C88.768,10.811 88.748,10.965 88.711,11.167C88.673,11.437 88.65,11.583 88.643,11.605L86.908,19.68L87.714,19.68L87.634,20.062L86.83,20.062ZM85.764,20.062L81.805,20.062L81.85,20.095C82.523,20.605 83.102,21.128 83.585,21.667C84.068,22.206 84.542,22.851 85.004,23.599L85.764,20.062ZM82.11,19.681L85.842,19.681L87.452,12.044C87.505,11.797 87.532,11.67 87.532,11.662C87.577,11.512 87.6,11.377 87.6,11.258C87.6,11.07 87.516,10.977 87.35,10.977C87.146,10.977 86.9,11.191 86.613,11.618C86.325,12.045 85.827,12.921 85.116,14.246C85.01,14.448 84.794,14.856 84.47,15.47C84.197,15.957 84.05,16.227 84.027,16.279L82.938,18.245C82.484,19.059 82.209,19.539 82.11,19.681Z" style="fill-rule:nonzero;stroke:#000;stroke-width:0.8px;"/>
        <path d="M93.299,9.214L90.315,22.162L90.213,22.6C90.114,23.011 90.066,23.36 90.066,23.644C90.066,23.876 90.11,24.066 90.196,24.212C90.284,24.357 90.391,24.431 90.52,24.431C90.754,24.431 91.128,24.154 91.643,23.599L91.825,23.757L91.712,23.88C91.28,24.382 90.962,24.72 90.759,24.896C90.554,25.073 90.364,25.161 90.191,25.161C89.964,25.161 89.766,25.035 89.596,24.785C89.425,24.534 89.341,24.248 89.341,23.926C89.341,23.701 89.39,23.346 89.487,22.86L92.108,9.788L93.299,9.214Z" style="fill-rule:nonzero;stroke:#000;stroke-width:0.8px;"/>
        <path d="M97.543,24.914L96.795,25.15L97.691,20.579L97.77,20.185C97.815,19.968 97.837,19.789 97.837,19.646C97.837,19.317 97.705,19.152 97.441,19.152C97.191,19.152 96.888,19.319 96.533,19.652C96.178,19.986 95.804,20.466 95.41,21.095C95.153,21.499 94.931,21.888 94.747,22.263C94.561,22.638 94.392,23.036 94.236,23.458C94.082,23.882 93.931,24.366 93.789,24.913L93.085,25.149L94.254,18.926L95.343,18.466L94.356,22.543C94.863,21.382 95.444,20.43 96.098,19.684C96.751,18.94 97.34,18.567 97.862,18.567C98.428,18.567 98.713,18.885 98.713,19.522C98.713,19.739 98.656,20.125 98.542,20.678L98.169,22.352C98.901,20.959 99.523,19.977 100.028,19.405C100.536,18.831 101.038,18.546 101.538,18.546C101.817,18.546 102.036,18.628 102.196,18.792C102.354,18.957 102.434,19.192 102.434,19.5C102.434,19.747 102.358,20.174 102.205,20.78L101.853,22.161L101.74,22.599C101.635,23.063 101.582,23.408 101.582,23.632C101.582,23.871 101.623,24.065 101.707,24.211C101.789,24.356 101.896,24.43 102.025,24.43C102.265,24.43 102.644,24.153 103.158,23.598L103.33,23.756L103.226,23.879C102.796,24.381 102.476,24.719 102.267,24.895C102.06,25.072 101.869,25.16 101.695,25.16C101.461,25.16 101.261,25.042 101.099,24.806C100.937,24.572 100.855,24.277 100.855,23.925C100.855,23.708 100.904,23.353 101.003,22.859L101.423,20.534L101.491,20.13C101.536,19.905 101.557,19.726 101.557,19.591C101.557,19.456 101.516,19.348 101.434,19.266C101.35,19.183 101.237,19.142 101.092,19.142C100.926,19.142 100.742,19.211 100.543,19.35C100.342,19.489 100.128,19.7 99.9,19.985C99.673,20.269 99.421,20.643 99.14,21.108C98.762,21.744 98.456,22.337 98.222,22.887C97.988,23.437 97.763,24.113 97.543,24.914Z" style="fill-rule:nonzero;stroke:#000;stroke-width:0.8px;"/>
        <path d="M110.943,18.4L109.877,22.51C109.764,22.959 109.707,23.312 109.707,23.566C109.707,23.791 109.756,23.986 109.854,24.15C109.952,24.314 110.074,24.397 110.217,24.397C110.436,24.397 110.799,24.131 111.306,23.599L111.465,23.757L111.34,23.903C110.939,24.359 110.631,24.679 110.415,24.863C110.199,25.047 110.013,25.138 109.853,25.138C109.611,25.138 109.401,25.013 109.223,24.761C109.045,24.511 108.956,24.221 108.956,23.892C108.956,23.652 109.047,23.109 109.228,22.263L109.319,21.836C109.039,22.48 108.665,23.098 108.196,23.689C107.409,24.677 106.657,25.171 105.938,25.171C105.507,25.171 105.167,25.019 104.917,24.711C104.667,24.403 104.542,23.992 104.542,23.476C104.542,22.773 104.745,22.035 105.149,21.263C105.553,20.492 106.056,19.858 106.658,19.361C107.26,18.863 107.844,18.613 108.411,18.613C109.008,18.613 109.454,18.831 109.749,19.265L109.874,18.837L110.943,18.4ZM109.639,19.838C109.548,19.553 109.396,19.33 109.18,19.17C108.964,19.009 108.716,18.928 108.437,18.928C108.104,18.928 107.752,19.08 107.382,19.383C107.011,19.686 106.671,20.108 106.361,20.647C106.119,21.074 105.917,21.545 105.755,22.062C105.592,22.579 105.511,23.005 105.511,23.342C105.511,23.724 105.584,24.024 105.732,24.24C105.88,24.456 106.089,24.566 106.362,24.566C106.71,24.566 107.073,24.404 107.451,24.083C107.829,23.762 108.204,23.301 108.574,22.701C108.802,22.357 108.979,22.013 109.107,21.668C109.236,21.324 109.379,20.845 109.539,20.23L109.639,19.838Z" style="fill-rule:nonzero;stroke:#000;stroke-width:0.8px;"/>
    </g>
    <g>
        <path d="M85.83,19.062L84.752,24.037L84.025,24.037C83.746,23.154 83.297,22.297 82.681,21.466C82.064,20.635 81.367,19.949 80.587,19.41C80.073,20.204 79.499,20.916 78.863,21.545C78.227,22.174 77.552,22.713 76.839,23.162C76.124,23.611 75.38,23.959 74.609,24.206C73.838,24.453 73.082,24.576 72.34,24.576C72.136,24.576 71.917,24.558 71.683,24.52L72.045,23.666C72.446,23.711 72.749,23.733 72.952,23.733C75.024,23.733 76.87,22.932 78.489,21.33C78.821,21.001 79.159,20.62 79.504,20.19C79.849,19.759 80.206,19.256 80.576,18.679C81.4,17.399 82.104,16.201 82.686,15.085L83.752,13.053C84.592,11.457 85.238,10.377 85.691,9.813C86.145,9.248 86.595,8.965 87.041,8.965C87.186,8.965 87.312,8.994 87.422,9.055C87.531,9.115 87.616,9.202 87.677,9.319C87.738,9.434 87.768,9.564 87.768,9.706C87.768,9.811 87.748,9.965 87.711,10.167C87.673,10.437 87.65,10.583 87.643,10.605L85.908,18.68L86.714,18.68L86.634,19.062L85.83,19.062ZM84.764,19.062L80.805,19.062L80.85,19.095C81.523,19.605 82.102,20.128 82.585,20.667C83.068,21.206 83.542,21.851 84.004,22.599L84.764,19.062ZM81.11,18.681L84.842,18.681L86.452,11.044C86.505,10.797 86.532,10.67 86.532,10.662C86.577,10.512 86.6,10.377 86.6,10.258C86.6,10.07 86.516,9.977 86.35,9.977C86.146,9.977 85.9,10.191 85.613,10.618C85.325,11.045 84.827,11.921 84.116,13.246C84.01,13.448 83.794,13.856 83.47,14.47C83.197,14.957 83.05,15.227 83.027,15.279L81.938,17.245C81.484,18.059 81.209,18.539 81.11,18.681Z" style="fill:#f9f9f9;fill-rule:nonzero;stroke:#f9f9f9;stroke-width:0.5px;"/>
        <path d="M92.299,8.214L89.315,21.162L89.213,21.6C89.114,22.011 89.066,22.36 89.066,22.644C89.066,22.876 89.11,23.066 89.196,23.212C89.284,23.357 89.391,23.431 89.52,23.431C89.754,23.431 90.128,23.154 90.643,22.599L90.825,22.757L90.712,22.88C90.28,23.382 89.962,23.72 89.759,23.896C89.554,24.073 89.364,24.161 89.191,24.161C88.964,24.161 88.766,24.035 88.596,23.785C88.425,23.534 88.341,23.248 88.341,22.926C88.341,22.701 88.39,22.346 88.487,21.86L91.108,8.788L92.299,8.214Z" style="fill:#f9f9f9;fill-rule:nonzero;stroke:#f9f9f9;stroke-width:0.5px;"/>
        <path d="M96.543,23.914L95.795,24.15L96.691,19.579L96.77,19.185C96.815,18.968 96.837,18.789 96.837,18.646C96.837,18.317 96.705,18.152 96.441,18.152C96.191,18.152 95.888,18.319 95.533,18.652C95.178,18.986 94.804,19.466 94.41,20.095C94.153,20.499 93.931,20.888 93.747,21.263C93.561,21.638 93.392,22.036 93.236,22.458C93.082,22.882 92.931,23.366 92.789,23.913L92.085,24.149L93.254,17.926L94.343,17.466L93.356,21.543C93.863,20.382 94.444,19.43 95.098,18.684C95.751,17.94 96.34,17.567 96.862,17.567C97.428,17.567 97.713,17.885 97.713,18.522C97.713,18.739 97.656,19.125 97.542,19.678L97.169,21.352C97.901,19.959 98.523,18.977 99.028,18.405C99.536,17.831 100.038,17.546 100.538,17.546C100.817,17.546 101.036,17.628 101.196,17.792C101.354,17.957 101.434,18.192 101.434,18.5C101.434,18.747 101.358,19.174 101.205,19.78L100.853,21.161L100.74,21.599C100.635,22.063 100.582,22.408 100.582,22.632C100.582,22.871 100.623,23.065 100.707,23.211C100.789,23.356 100.896,23.43 101.025,23.43C101.265,23.43 101.644,23.153 102.158,22.598L102.33,22.756L102.226,22.879C101.796,23.381 101.476,23.719 101.267,23.895C101.06,24.072 100.869,24.16 100.695,24.16C100.461,24.16 100.261,24.042 100.099,23.806C99.937,23.572 99.855,23.277 99.855,22.925C99.855,22.708 99.904,22.353 100.003,21.859L100.423,19.534L100.491,19.13C100.536,18.905 100.557,18.726 100.557,18.591C100.557,18.456 100.516,18.348 100.434,18.266C100.35,18.183 100.237,18.142 100.092,18.142C99.926,18.142 99.742,18.211 99.543,18.35C99.342,18.489 99.128,18.7 98.9,18.985C98.673,19.269 98.421,19.643 98.14,20.108C97.762,20.744 97.456,21.337 97.222,21.887C96.988,22.437 96.763,23.113 96.543,23.914Z" style="fill:#f9f9f9;fill-rule:nonzero;stroke:#f9f9f9;stroke-width:0.5px;"/>
        <path d="M109.943,17.4L108.877,21.51C108.764,21.959 108.707,22.312 108.707,22.566C108.707,22.791 108.756,22.986 108.854,23.15C108.952,23.314 109.074,23.397 109.217,23.397C109.436,23.397 109.799,23.131 110.306,22.599L110.465,22.757L110.34,22.903C109.939,23.359 109.631,23.679 109.415,23.863C109.199,24.047 109.013,24.138 108.853,24.138C108.611,24.138 108.401,24.013 108.223,23.761C108.045,23.511 107.956,23.221 107.956,22.892C107.956,22.652 108.047,22.109 108.228,21.263L108.319,20.836C108.039,21.48 107.665,22.098 107.196,22.689C106.409,23.677 105.657,24.171 104.938,24.171C104.507,24.171 104.167,24.019 103.917,23.711C103.667,23.403 103.542,22.992 103.542,22.476C103.542,21.773 103.745,21.035 104.149,20.263C104.553,19.492 105.056,18.858 105.658,18.361C106.26,17.863 106.844,17.613 107.411,17.613C108.008,17.613 108.454,17.831 108.749,18.265L108.874,17.837L109.943,17.4ZM108.639,18.838C108.548,18.553 108.396,18.33 108.18,18.17C107.964,18.009 107.716,17.928 107.437,17.928C107.104,17.928 106.752,18.08 106.382,18.383C106.011,18.686 105.671,19.108 105.361,19.647C105.119,20.074 104.917,20.545 104.755,21.062C104.592,21.579 104.511,22.005 104.511,22.342C104.511,22.724 104.584,23.024 104.732,23.24C104.88,23.456 105.089,23.566 105.362,23.566C105.71,23.566 106.073,23.404 106.451,23.083C106.829,22.762 107.204,22.301 107.574,21.701C107.802,21.357 107.979,21.013 108.107,20.668C108.236,20.324 108.379,19.845 108.539,19.23L108.639,18.838Z" style="fill:#f9f9f9;fill-rule:nonzero;stroke:#f9f9f9;stroke-width:0.5px;"/>
    </g>
    <path id="Arrow_1_" d="M44.492,92.873L39,97.127L33.508,92.873L44.492,92.873Z" style="fill:#fcfcfc;fill-rule:nonzero;"/>
    <path id="Arrow" d="M144.492,92.873L139,97.127L133.508,92.873L144.492,92.873Z" style="fill:#fcfcfc;fill-rule:nonzero;"/>
    <g>
        <path d="M81.711,339.037C81.711,339.266 81.662,339.473 81.564,339.653C81.465,339.835 81.333,339.989 81.165,340.117C80.997,340.246 80.8,340.344 80.572,340.414C80.345,340.482 80.101,340.518 79.841,340.518C79.585,340.518 79.321,340.491 79.052,340.438C78.783,340.385 78.536,340.305 78.313,340.198L78.457,339.614C78.654,339.705 78.872,339.78 79.109,339.839C79.346,339.898 79.586,339.927 79.826,339.927C80.172,339.927 80.452,339.853 80.666,339.706C80.879,339.56 80.985,339.348 80.985,339.07C80.985,338.915 80.955,338.784 80.893,338.674C80.831,338.564 80.747,338.465 80.641,338.377C80.535,338.289 80.41,338.211 80.269,338.142C80.127,338.073 79.977,338 79.817,337.926C79.636,337.84 79.461,337.751 79.293,337.657C79.125,337.564 78.978,337.457 78.85,337.338C78.722,337.217 78.62,337.082 78.541,336.93C78.464,336.778 78.426,336.6 78.426,336.398C78.426,336.169 78.467,335.965 78.549,335.79C78.633,335.614 78.748,335.468 78.898,335.351C79.048,335.234 79.226,335.146 79.434,335.087C79.642,335.028 79.872,334.999 80.122,334.999C80.378,334.999 80.628,335.028 80.87,335.087C81.113,335.146 81.325,335.222 81.507,335.318L81.37,335.902C81.2,335.811 81.005,335.737 80.786,335.678C80.567,335.619 80.347,335.59 80.122,335.59C79.477,335.59 79.154,335.84 79.154,336.342C79.154,336.453 79.171,336.551 79.202,336.633C79.234,336.717 79.286,336.793 79.358,336.865C79.43,336.937 79.526,337.007 79.646,337.073C79.766,337.14 79.911,337.217 80.083,337.301C80.253,337.387 80.435,337.479 80.626,337.577C80.818,337.676 80.995,337.793 81.154,337.93C81.314,338.066 81.448,338.225 81.553,338.406C81.658,338.587 81.711,338.797 81.711,339.037Z" style="fill:#fff;fill-rule:nonzero;stroke:#fff;stroke-width:0.4px;"/>
        <path d="M83.783,335.094L83.783,339.822L86.008,339.822L86.008,340.423L83.047,340.423L83.047,335.095L83.783,335.095L83.783,335.094Z" style="fill:#fff;fill-rule:nonzero;stroke:#fff;stroke-width:0.4px;"/>
        <path d="M89.344,340.518C88.928,340.518 88.557,340.444 88.232,340.293C87.907,340.145 87.634,339.944 87.417,339.693C87.198,339.443 87.03,339.149 86.917,338.813C86.802,338.477 86.744,338.125 86.744,337.757C86.744,337.388 86.802,337.036 86.917,336.7C87.03,336.364 87.198,336.071 87.417,335.82C87.635,335.569 87.907,335.37 88.232,335.219C88.557,335.071 88.928,334.996 89.344,334.996C89.76,334.996 90.13,335.07 90.455,335.219C90.781,335.369 91.053,335.569 91.271,335.82C91.489,336.071 91.656,336.364 91.771,336.7C91.885,337.036 91.943,337.388 91.943,337.757C91.943,338.124 91.885,338.477 91.771,338.813C91.656,339.149 91.49,339.443 91.271,339.693C91.052,339.944 90.781,340.144 90.455,340.293C90.13,340.443 89.76,340.518 89.344,340.518ZM89.344,339.926C89.648,339.926 89.916,339.869 90.152,339.758C90.386,339.646 90.581,339.49 90.736,339.293C90.891,339.096 91.008,338.865 91.089,338.602C91.17,338.339 91.208,338.057 91.208,337.758C91.208,337.459 91.169,337.178 91.089,336.914C91.009,336.649 90.892,336.42 90.736,336.226C90.58,336.032 90.386,335.876 90.152,335.762C89.917,335.647 89.648,335.59 89.344,335.59C89.039,335.59 88.77,335.647 88.535,335.762C88.301,335.876 88.105,336.032 87.951,336.226C87.797,336.42 87.68,336.65 87.599,336.914C87.519,337.178 87.479,337.459 87.479,337.758C87.479,338.057 87.519,338.338 87.599,338.602C87.679,338.866 87.796,339.096 87.951,339.293C88.106,339.49 88.301,339.646 88.535,339.758C88.77,339.869 89.039,339.926 89.344,339.926Z" style="fill:#fff;fill-rule:nonzero;stroke:#fff;stroke-width:0.4px;"/>
        <path d="M96.672,336.653C96.672,336.909 96.615,337.14 96.504,337.345C96.393,337.55 96.236,337.725 96.035,337.868C95.836,338.013 95.599,338.123 95.328,338.2C95.057,338.278 94.762,338.316 94.447,338.316L94.08,338.316L94.08,340.42L93.344,340.42L93.344,335.092L94.632,335.092C94.92,335.092 95.188,335.123 95.436,335.188C95.684,335.253 95.901,335.349 96.084,335.48C96.267,335.611 96.412,335.774 96.516,335.967C96.619,336.164 96.672,336.393 96.672,336.653ZM95.936,336.646C95.936,336.469 95.901,336.322 95.832,336.202C95.762,336.083 95.668,335.983 95.549,335.906C95.428,335.829 95.287,335.772 95.123,335.738C94.961,335.704 94.789,335.686 94.607,335.686L94.08,335.686L94.08,337.726L94.472,337.726C94.686,337.726 94.881,337.702 95.061,337.654C95.239,337.606 95.393,337.536 95.524,337.442C95.655,337.348 95.756,337.235 95.829,337.102C95.902,336.969 95.936,336.816 95.936,336.646Z" style="fill:#fff;fill-rule:nonzero;stroke:#fff;stroke-width:0.4px;"/>
        <path d="M97.807,335.094L100.776,335.094L100.776,335.694L98.544,335.694L98.544,337.398L100.679,337.398L100.679,337.999L98.544,337.999L98.544,339.822L100.8,339.822L100.8,340.423L97.808,340.423L97.808,335.094L97.807,335.094Z" style="fill:#fff;fill-rule:nonzero;stroke:#fff;stroke-width:0.4px;"/>
    </g>
    <g>
        <path d="M21.08,281.092L20.344,281.092L20.344,275.764L21.728,275.764C22.016,275.764 22.284,275.796 22.532,275.86C22.78,275.924 22.997,276.019 23.184,276.144C23.371,276.27 23.517,276.427 23.624,276.616C23.731,276.805 23.784,277.023 23.784,277.268C23.784,277.636 23.665,277.956 23.428,278.229C23.191,278.5 22.859,278.698 22.432,278.821L24.312,281.092L23.408,281.092L21.672,278.947C21.646,278.947 21.606,278.949 21.552,278.951C21.498,278.955 21.443,278.955 21.384,278.955L21.08,278.955L21.08,281.092ZM23.048,277.283C23.048,277.119 23.012,276.975 22.94,276.855C22.868,276.736 22.771,276.639 22.648,276.568C22.525,276.496 22.384,276.442 22.224,276.408C22.064,276.373 21.896,276.355 21.72,276.355L21.08,276.355L21.08,278.363L21.448,278.363C21.672,278.363 21.881,278.342 22.076,278.3C22.27,278.258 22.44,278.192 22.584,278.104C22.728,278.016 22.841,277.905 22.924,277.768C23.007,277.632 23.048,277.471 23.048,277.283Z" style="fill:#fff;fill-rule:nonzero;stroke:#fff;stroke-width:0.4px;"/>
        <path d="M25.416,275.764L28.384,275.764L28.384,276.364L26.152,276.364L26.152,278.069L28.288,278.069L28.288,278.669L26.152,278.669L26.152,280.493L28.408,280.493L28.408,281.093L25.416,281.093L25.416,275.764Z" style="fill:#fff;fill-rule:nonzero;stroke:#fff;stroke-width:0.4px;"/>
        <path d="M32.968,279.708C32.968,279.937 32.919,280.143 32.82,280.324C32.721,280.505 32.588,280.66 32.42,280.787C32.252,280.916 32.055,281.015 31.828,281.084C31.601,281.152 31.357,281.188 31.096,281.188C30.84,281.188 30.577,281.162 30.308,281.108C30.039,281.055 29.792,280.975 29.568,280.868L29.712,280.284C29.909,280.376 30.127,280.45 30.364,280.509C30.601,280.568 30.84,280.597 31.08,280.597C31.426,280.597 31.706,280.524 31.92,280.377C32.133,280.23 32.24,280.019 32.24,279.741C32.24,279.586 32.209,279.454 32.148,279.345C32.086,279.236 32.002,279.137 31.896,279.049C31.789,278.961 31.665,278.882 31.524,278.814C31.382,278.744 31.232,278.671 31.072,278.597C30.891,278.512 30.716,278.423 30.548,278.329C30.38,278.235 30.232,278.129 30.104,278.009C29.976,277.889 29.873,277.753 29.796,277.601C29.718,277.449 29.68,277.272 29.68,277.07C29.68,276.84 29.722,276.637 29.804,276.462C29.887,276.285 30.003,276.139 30.152,276.022C30.301,275.905 30.48,275.817 30.688,275.758C30.896,275.699 31.125,275.67 31.376,275.67C31.632,275.67 31.881,275.699 32.124,275.758C32.367,275.817 32.579,275.894 32.76,275.99L32.624,276.574C32.453,276.482 32.258,276.408 32.04,276.349C31.821,276.29 31.6,276.261 31.376,276.261C30.73,276.261 30.408,276.512 30.408,277.013C30.408,277.125 30.424,277.222 30.456,277.305C30.488,277.388 30.54,277.465 30.612,277.536C30.684,277.608 30.78,277.679 30.9,277.745C31.02,277.811 31.165,277.888 31.336,277.973C31.506,278.058 31.688,278.151 31.88,278.249C32.072,278.347 32.248,278.465 32.408,278.601C32.568,278.738 32.701,278.896 32.808,279.078C32.915,279.258 32.968,279.468 32.968,279.708Z" style="fill:#fff;fill-rule:nonzero;stroke:#fff;stroke-width:0.4px;"/>
        <path d="M36.624,281.188C36.208,281.188 35.837,281.114 35.512,280.964C35.186,280.815 34.914,280.615 34.696,280.363C34.477,280.113 34.31,279.82 34.196,279.484C34.081,279.148 34.024,278.796 34.024,278.427C34.024,278.058 34.082,277.707 34.196,277.37C34.31,277.034 34.477,276.741 34.696,276.491C34.914,276.24 35.186,276.04 35.512,275.89C35.837,275.741 36.208,275.666 36.624,275.666C37.04,275.666 37.411,275.74 37.736,275.89C38.061,276.04 38.333,276.24 38.551,276.491C38.77,276.741 38.937,277.034 39.051,277.37C39.166,277.707 39.223,278.058 39.223,278.427C39.223,278.796 39.166,279.148 39.051,279.484C38.937,279.82 38.77,280.113 38.551,280.363C38.332,280.615 38.061,280.814 37.736,280.964C37.411,281.114 37.04,281.188 36.624,281.188ZM36.624,280.596C36.929,280.596 37.197,280.54 37.433,280.428C37.667,280.317 37.862,280.161 38.016,279.964C38.171,279.767 38.288,279.535 38.369,279.272C38.45,279.009 38.489,278.727 38.489,278.428C38.489,278.129 38.449,277.848 38.369,277.584C38.289,277.32 38.172,277.09 38.016,276.896C37.862,276.701 37.667,276.546 37.433,276.431C37.198,276.317 36.929,276.259 36.624,276.259C36.32,276.259 36.051,276.317 35.816,276.431C35.582,276.546 35.387,276.701 35.232,276.896C35.077,277.089 34.96,277.32 34.88,277.584C34.8,277.848 34.76,278.129 34.76,278.428C34.76,278.727 34.8,279.008 34.88,279.272C34.96,279.536 35.077,279.767 35.232,279.964C35.387,280.161 35.582,280.317 35.816,280.428C36.051,280.54 36.32,280.596 36.624,280.596Z" style="fill:#fff;fill-rule:nonzero;stroke:#fff;stroke-width:0.4px;"/>
        <path d="M44.312,281.092L41.328,276.908L41.328,281.092L40.624,281.092L40.624,275.764L41.328,275.764L44.312,279.948L44.312,275.764L45.016,275.764L45.016,281.092L44.312,281.092Z" style="fill:#fff;fill-rule:nonzero;stroke:#fff;stroke-width:0.4px;"/>
        <path d="M51.239,281.092L50.487,281.092L50,279.804L47.512,279.804L47.032,281.092L46.28,281.092L48.4,275.764L49.121,275.764L51.239,281.092ZM47.735,279.212L49.783,279.212L48.76,276.436L47.735,279.212Z" style="fill:#fff;fill-rule:nonzero;stroke:#fff;stroke-width:0.4px;"/>
        <path d="M56.192,281.092L53.208,276.908L53.208,281.092L52.504,281.092L52.504,275.764L53.208,275.764L56.192,279.948L56.192,275.764L56.896,275.764L56.896,281.092L56.192,281.092Z" style="fill:#fff;fill-rule:nonzero;stroke:#fff;stroke-width:0.4px;"/>
        <path d="M61.048,275.668C61.287,275.668 61.538,275.69 61.8,275.736C62.061,275.781 62.279,275.841 62.455,275.916L62.336,276.484C62.154,276.42 61.96,276.367 61.752,276.328C61.544,276.287 61.338,276.267 61.136,276.267C60.469,276.267 59.949,276.455 59.575,276.828C59.202,277.201 59.015,277.734 59.015,278.428C59.015,279.122 59.202,279.655 59.575,280.028C59.949,280.402 60.469,280.589 61.136,280.589C61.338,280.589 61.544,280.569 61.752,280.528C61.96,280.489 62.154,280.436 62.336,280.372L62.455,280.94C62.279,281.015 62.06,281.075 61.8,281.12C61.538,281.166 61.287,281.188 61.048,281.188C60.61,281.188 60.22,281.12 59.876,280.981C59.531,280.842 59.242,280.65 59.008,280.405C58.773,280.159 58.593,279.868 58.468,279.532C58.342,279.196 58.28,278.829 58.28,278.428C58.28,278.027 58.342,277.66 58.468,277.324C58.593,276.988 58.773,276.697 59.008,276.451C59.242,276.207 59.531,276.014 59.876,275.876C60.22,275.737 60.61,275.668 61.048,275.668Z" style="fill:#fff;fill-rule:nonzero;stroke:#fff;stroke-width:0.4px;"/>
        <path d="M63.855,275.764L66.824,275.764L66.824,276.364L64.592,276.364L64.592,278.069L66.728,278.069L66.728,278.669L64.592,278.669L64.592,280.493L66.848,280.493L66.848,281.093L63.856,281.093L63.856,275.764L63.855,275.764Z" style="fill:#fff;fill-rule:nonzero;stroke:#fff;stroke-width:0.4px;"/>
    </g>
    <g>
        <path d="M77.294,89.092L77.294,83.764L80.294,83.764L80.294,84.365L78.029,84.365L78.029,86.189L80.197,86.189L80.197,86.789L78.029,86.789L78.029,89.093L77.294,89.093L77.294,89.092Z" style="fill:#fff;fill-rule:nonzero;stroke:#fff;stroke-width:0.4px;"/>
        <path d="M82.39,89.092L81.655,89.092L81.655,83.764L83.038,83.764C83.327,83.764 83.595,83.797 83.843,83.861C84.091,83.925 84.308,84.02 84.495,84.145C84.681,84.27 84.828,84.428 84.934,84.617C85.041,84.806 85.094,85.024 85.094,85.268C85.094,85.637 84.975,85.956 84.739,86.229C84.501,86.5 84.169,86.698 83.743,86.821L85.622,89.092L84.719,89.092L82.983,86.948C82.957,86.948 82.917,86.949 82.863,86.952C82.81,86.955 82.754,86.956 82.695,86.956L82.391,86.956L82.391,89.092L82.39,89.092ZM84.357,85.284C84.357,85.119 84.322,84.976 84.25,84.856C84.178,84.736 84.08,84.64 83.957,84.568C83.835,84.496 83.693,84.443 83.533,84.408C83.373,84.373 83.205,84.356 83.029,84.356L82.389,84.356L82.389,86.364L82.757,86.364C82.981,86.364 83.191,86.343 83.385,86.301C83.579,86.259 83.749,86.193 83.893,86.105C84.037,86.016 84.15,85.905 84.234,85.768C84.316,85.633 84.357,85.471 84.357,85.284Z" style="fill:#fff;fill-rule:nonzero;stroke:#fff;stroke-width:0.4px;"/>
        <path d="M88.99,89.188C88.574,89.188 88.203,89.113 87.878,88.964C87.553,88.814 87.28,88.614 87.063,88.363C86.844,88.112 86.676,87.819 86.563,87.483C86.448,87.147 86.39,86.795 86.39,86.426C86.39,86.059 86.448,85.707 86.563,85.37C86.676,85.034 86.844,84.741 87.063,84.49C87.281,84.24 87.553,84.039 87.878,83.89C88.203,83.741 88.574,83.665 88.99,83.665C89.406,83.665 89.776,83.74 90.101,83.89C90.427,84.038 90.699,84.24 90.917,84.49C91.136,84.741 91.302,85.034 91.417,85.37C91.531,85.707 91.589,86.058 91.589,86.426C91.589,86.694 91.56,86.951 91.501,87.202C91.442,87.453 91.355,87.686 91.237,87.902C91.119,88.118 90.975,88.312 90.804,88.486C90.633,88.66 90.436,88.802 90.212,88.914L91.531,89.746L91.187,90.291L89.427,89.154C89.358,89.165 89.286,89.173 89.211,89.177C89.139,89.186 89.064,89.188 88.99,89.188ZM88.99,88.596C89.294,88.596 89.562,88.541 89.798,88.428C90.032,88.317 90.227,88.162 90.382,87.965C90.537,87.768 90.654,87.536 90.735,87.273C90.815,87.008 90.854,86.727 90.854,86.428C90.854,86.13 90.815,85.848 90.735,85.584C90.655,85.32 90.538,85.091 90.382,84.896C90.227,84.701 90.032,84.546 89.798,84.431C89.563,84.318 89.294,84.259 88.99,84.259C88.685,84.259 88.416,84.318 88.181,84.431C87.947,84.546 87.751,84.701 87.597,84.896C87.443,85.09 87.326,85.32 87.245,85.584C87.164,85.848 87.125,86.13 87.125,86.428C87.125,86.727 87.165,87.008 87.245,87.273C87.325,87.537 87.442,87.768 87.597,87.965C87.752,88.162 87.947,88.317 88.181,88.428C88.416,88.541 88.686,88.596 88.99,88.596Z" style="fill:#fff;fill-rule:nonzero;stroke:#fff;stroke-width:0.4px;"/>
        <path d="M97.582,83.668C97.82,83.668 98.072,83.691 98.334,83.736C98.594,83.781 98.813,83.841 98.988,83.916L98.869,84.484C98.687,84.42 98.494,84.368 98.285,84.328C98.078,84.288 97.871,84.267 97.67,84.267C97.002,84.267 96.482,84.455 96.109,84.828C95.736,85.201 95.548,85.734 95.548,86.428C95.548,87.122 95.736,87.656 96.109,88.029C96.482,88.403 97.002,88.589 97.67,88.589C97.871,88.589 98.078,88.569 98.285,88.529C98.494,88.489 98.687,88.437 98.869,88.373L98.988,88.941C98.812,89.016 98.593,89.076 98.334,89.121C98.072,89.167 97.82,89.189 97.582,89.189C97.144,89.189 96.754,89.12 96.41,88.981C96.064,88.842 95.775,88.651 95.541,88.405C95.307,88.16 95.127,87.869 95.002,87.533C94.875,87.197 94.813,86.829 94.813,86.429C94.813,86.03 94.875,85.661 95.002,85.325C95.127,84.989 95.307,84.698 95.541,84.453C95.775,84.208 96.064,84.016 96.41,83.878C96.754,83.738 97.145,83.668 97.582,83.668Z" style="fill:#fff;fill-rule:nonzero;stroke:#fff;stroke-width:0.4px;"/>
        <path d="M103.725,83.764L104.461,83.764L102.549,89.092L101.781,89.092L99.869,83.764L100.605,83.764L102.166,88.221L103.725,83.764Z" style="fill:#fff;fill-rule:nonzero;stroke:#fff;stroke-width:0.4px;"/>
    </g>
    <g>
        <path d="M26.867,89.092L26.131,89.092L26.131,83.764L27.515,83.764C27.803,83.764 28.071,83.797 28.319,83.861C28.567,83.925 28.784,84.02 28.971,84.145C29.158,84.27 29.304,84.428 29.411,84.617C29.518,84.806 29.571,85.024 29.571,85.268C29.571,85.637 29.452,85.956 29.215,86.229C28.978,86.5 28.646,86.698 28.219,86.821L30.099,89.092L29.195,89.092L27.459,86.948C27.433,86.948 27.393,86.949 27.339,86.952C27.285,86.955 27.23,86.956 27.171,86.956L26.867,86.956L26.867,89.092ZM28.835,85.284C28.835,85.119 28.799,84.976 28.727,84.856C28.655,84.736 28.558,84.64 28.435,84.568C28.312,84.496 28.171,84.443 28.011,84.408C27.851,84.373 27.683,84.356 27.507,84.356L26.867,84.356L26.867,86.364L27.235,86.364C27.459,86.364 27.668,86.343 27.863,86.301C28.057,86.258 28.227,86.193 28.371,86.105C28.515,86.016 28.628,85.905 28.711,85.768C28.793,85.633 28.835,85.471 28.835,85.284Z" style="fill:#fff;fill-rule:nonzero;stroke:#fff;stroke-width:0.4px;"/>
        <path d="M31.203,83.764L34.171,83.764L34.171,84.365L31.939,84.365L31.939,86.069L34.075,86.069L34.075,86.669L31.939,86.669L31.939,88.493L34.195,88.493L34.195,89.093L31.203,89.093L31.203,83.764Z" style="fill:#fff;fill-rule:nonzero;stroke:#fff;stroke-width:0.4px;"/>
        <path d="M38.754,87.709C38.754,87.938 38.705,88.143 38.606,88.324C38.507,88.505 38.374,88.66 38.206,88.788C38.038,88.916 37.841,89.016 37.614,89.084C37.387,89.153 37.143,89.188 36.882,89.188C36.626,89.188 36.363,89.162 36.094,89.108C35.825,89.054 35.578,88.974 35.354,88.868L35.498,88.284C35.695,88.375 35.913,88.449 36.15,88.508C36.387,88.567 36.626,88.596 36.866,88.596C37.212,88.596 37.492,88.524 37.706,88.377C37.919,88.23 38.026,88.018 38.026,87.74C38.026,87.586 37.995,87.453 37.934,87.344C37.872,87.235 37.788,87.137 37.682,87.049C37.575,86.961 37.451,86.882 37.31,86.813C37.168,86.744 37.018,86.671 36.858,86.596C36.677,86.512 36.502,86.422 36.334,86.328C36.166,86.234 36.018,86.129 35.89,86.008C35.762,85.889 35.659,85.752 35.582,85.6C35.504,85.449 35.466,85.272 35.466,85.069C35.466,84.84 35.508,84.637 35.59,84.462C35.673,84.285 35.789,84.139 35.938,84.022C36.087,83.904 36.266,83.816 36.474,83.757C36.682,83.698 36.911,83.669 37.162,83.669C37.418,83.669 37.667,83.698 37.91,83.757C38.153,83.816 38.365,83.894 38.546,83.989L38.41,84.573C38.239,84.482 38.044,84.408 37.826,84.348C37.607,84.289 37.386,84.26 37.162,84.26C36.516,84.26 36.194,84.512 36.194,85.012C36.194,85.125 36.21,85.222 36.242,85.305C36.274,85.387 36.326,85.465 36.398,85.536C36.47,85.608 36.566,85.678 36.686,85.744C36.806,85.81 36.951,85.887 37.122,85.973C37.292,86.058 37.474,86.151 37.666,86.248C37.858,86.348 38.034,86.465 38.194,86.6C38.354,86.737 38.487,86.895 38.594,87.077C38.701,87.258 38.754,87.469 38.754,87.709Z" style="fill:#fff;fill-rule:nonzero;stroke:#fff;stroke-width:0.4px;"/>
        <path d="M44.682,83.668C44.922,83.668 45.172,83.691 45.434,83.736C45.696,83.781 45.914,83.841 46.09,83.916L45.971,84.484C45.789,84.42 45.594,84.368 45.387,84.328C45.178,84.288 44.973,84.267 44.77,84.267C44.104,84.267 43.584,84.455 43.209,84.828C42.836,85.201 42.65,85.734 42.65,86.428C42.65,87.122 42.836,87.656 43.209,88.029C43.584,88.403 44.104,88.589 44.77,88.589C44.973,88.589 45.178,88.569 45.387,88.529C45.594,88.489 45.789,88.437 45.971,88.373L46.09,88.941C45.914,89.016 45.695,89.076 45.434,89.121C45.172,89.167 44.922,89.189 44.682,89.189C44.244,89.189 43.854,89.12 43.51,88.981C43.166,88.842 42.877,88.651 42.643,88.405C42.408,88.16 42.227,87.869 42.102,87.533C41.977,87.197 41.914,86.829 41.914,86.429C41.914,86.03 41.976,85.661 42.102,85.325C42.227,84.989 42.407,84.698 42.643,84.453C42.877,84.208 43.166,84.016 43.51,83.878C43.854,83.74 44.245,83.668 44.682,83.668Z" style="fill:#fff;fill-rule:nonzero;stroke:#fff;stroke-width:0.4px;"/>
        <path d="M50.826,83.764L51.562,83.764L49.649,89.092L48.881,89.092L46.969,83.764L47.705,83.764L49.265,88.221L50.826,83.764Z" style="fill:#fff;fill-rule:nonzero;stroke:#fff;stroke-width:0.4px;"/>
    </g>
    <g id="Controls">
        <g id="Scale_2_">
            <g id="Big_3_">
                <path d="M90,309.824L90,281.942" style="fill:none;stroke:#f9f9f9;stroke-width:1.5px;"/>
                <path d="M116,307.942L64,307.942" style="fill:none;stroke:#f9f9f9;stroke-width:1.5px;"/>
                <path d="M67.483,320.942L112.517,294.942" style="fill:none;stroke:#f9f9f9;stroke-width:1.5px;"/>
                <path d="M77,330.458L103,285.426" style="fill:none;stroke:#f9f9f9;stroke-width:1.5px;"/>
                <path d="M112.517,320.942L67.483,294.942" style="fill:none;stroke:#f9f9f9;stroke-width:1.5px;"/>
                <path d="M103,330.458L77,285.426" style="fill:none;stroke:#f9f9f9;stroke-width:1.5px;"/>
            </g>
            <g id="Small_3_">
                <g id="smallScale_14_">
                    <path d="M92.872,326.901L86.235,284.966" style="fill:none;stroke:#fff;stroke-width:1px;"/>
                    <path d="M112.878,304.335L66.878,311.629" style="fill:none;stroke:#fff;stroke-width:1px;"/>
                    <path d="M71.78,322.647L107.977,293.317" style="fill:none;stroke:#fff;stroke-width:1px;"/>
                    <path d="M83.019,325.865L98.224,286.228" style="fill:none;stroke:#fff;stroke-width:1px;"/>
                    <path d="M111.618,316.331L68.138,299.631" style="fill:none;stroke:#fff;stroke-width:1px;"/>
                    <path d="M104.532,326.091L75.225,289.872" style="fill:none;stroke:#fff;stroke-width:1px;"/>
                </g>
                <g id="smallScale_12_">
                    <path d="M96.74,325.875L81.532,286.229" style="fill:none;stroke:#fff;stroke-width:1px;"/>
                    <path d="M111.619,299.63L68.139,316.332" style="fill:none;stroke:#fff;stroke-width:1px;"/>
                    <path d="M75.224,326.093L104.534,289.872" style="fill:none;stroke:#fff;stroke-width:1px;"/>
                    <path d="M86.885,326.891L93.521,284.967" style="fill:none;stroke:#fff;stroke-width:1px;"/>
                    <path d="M112.878,311.626L66.878,304.336" style="fill:none;stroke:#fff;stroke-width:1px;"/>
                    <path d="M107.975,322.646L71.781,293.317" style="fill:none;stroke:#fff;stroke-width:1px;"/>
                </g>
            </g>
            <path id="OuterCircle_5_" d="M80.647,325.45C74.308,322.096 69.99,315.434 69.99,307.763C69.99,296.718 78.945,287.764 89.99,287.764C101.036,287.764 109.99,296.718 109.99,307.763C109.99,315.375 105.737,321.994 99.476,325.372" style="fill:none;stroke:#f9f9f9;stroke-width:2.5px;"/>
        </g>
        <g id="Scale_2_1" serif:id="Scale_2_">
            <g id="Big_3_1" serif:id="Big_3_">
                <path d="M136,249.824L136,221.942" style="fill:none;stroke:#f9f9f9;stroke-width:1.5px;"/>
                <path d="M162,247.942L110,247.942" style="fill:none;stroke:#f9f9f9;stroke-width:1.5px;"/>
                <path d="M113.483,260.942L158.517,234.942" style="fill:none;stroke:#f9f9f9;stroke-width:1.5px;"/>
                <path d="M123,270.458L149,225.426" style="fill:none;stroke:#f9f9f9;stroke-width:1.5px;"/>
                <path d="M158.517,260.942L113.483,234.942" style="fill:none;stroke:#f9f9f9;stroke-width:1.5px;"/>
                <path d="M149,270.458L123,225.426" style="fill:none;stroke:#f9f9f9;stroke-width:1.5px;"/>
            </g>
            <g id="Small_3_1" serif:id="Small_3_">
                <g id="smallScale_14_1" serif:id="smallScale_14_">
                    <path d="M138.872,266.901L132.235,224.966" style="fill:none;stroke:#fff;stroke-width:1px;"/>
                    <path d="M158.878,244.335L112.878,251.629" style="fill:none;stroke:#fff;stroke-width:1px;"/>
                    <path d="M117.78,262.647L153.977,233.317" style="fill:none;stroke:#fff;stroke-width:1px;"/>
                    <path d="M129.019,265.865L144.224,226.228" style="fill:none;stroke:#fff;stroke-width:1px;"/>
                    <path d="M157.618,256.331L114.138,239.631" style="fill:none;stroke:#fff;stroke-width:1px;"/>
                    <path d="M150.532,266.091L121.225,229.872" style="fill:none;stroke:#fff;stroke-width:1px;"/>
                </g>
                <g id="smallScale_12_1" serif:id="smallScale_12_">
                    <path d="M142.74,265.875L127.532,226.229" style="fill:none;stroke:#fff;stroke-width:1px;"/>
                    <path d="M157.619,239.63L114.139,256.332" style="fill:none;stroke:#fff;stroke-width:1px;"/>
                    <path d="M121.224,266.093L150.534,229.872" style="fill:none;stroke:#fff;stroke-width:1px;"/>
                    <path d="M132.885,266.891L139.521,224.967" style="fill:none;stroke:#fff;stroke-width:1px;"/>
                    <path d="M158.878,251.626L112.878,244.336" style="fill:none;stroke:#fff;stroke-width:1px;"/>
                    <path d="M153.975,262.646L117.781,233.317" style="fill:none;stroke:#fff;stroke-width:1px;"/>
                </g>
            </g>
            <path id="OuterCircle_5_1" serif:id="OuterCircle_5_" d="M126.647,265.45C120.308,262.096 115.99,255.434 115.99,247.763C115.99,236.718 124.945,227.764 135.99,227.764C147.036,227.764 155.99,236.718 155.99,247.763C155.99,255.375 151.737,261.994 145.476,265.372" style="fill:none;stroke:#f9f9f9;stroke-width:2.5px;"/>
        </g>
        <g id="Scale_2_2" serif:id="Scale_2_">
            <g id="Big_3_2" serif:id="Big_3_">
                <path d="M44,250.924L44,223.042" style="fill:none;stroke:#f9f9f9;stroke-width:1.5px;"/>
                <path d="M70,249.042L18,249.042" style="fill:none;stroke:#f9f9f9;stroke-width:1.5px;"/>
                <path d="M21.483,262.042L66.517,236.042" style="fill:none;stroke:#f9f9f9;stroke-width:1.5px;"/>
                <path d="M31,271.558L57,226.526" style="fill:none;stroke:#f9f9f9;stroke-width:1.5px;"/>
                <path d="M66.517,262.042L21.483,236.042" style="fill:none;stroke:#f9f9f9;stroke-width:1.5px;"/>
                <path d="M57,271.558L31,226.526" style="fill:none;stroke:#f9f9f9;stroke-width:1.5px;"/>
            </g>
            <g id="Small_3_2" serif:id="Small_3_">
                <g id="smallScale_14_2" serif:id="smallScale_14_">
                    <path d="M46.872,268.001L40.235,226.066" style="fill:none;stroke:#fff;stroke-width:1px;"/>
                    <path d="M66.878,245.435L20.878,252.729" style="fill:none;stroke:#fff;stroke-width:1px;"/>
                    <path d="M25.78,263.747L61.977,234.417" style="fill:none;stroke:#fff;stroke-width:1px;"/>
                    <path d="M37.019,266.965L52.224,227.328" style="fill:none;stroke:#fff;stroke-width:1px;"/>
                    <path d="M65.618,257.431L22.138,240.731" style="fill:none;stroke:#fff;stroke-width:1px;"/>
                    <path d="M58.532,267.191L29.225,230.972" style="fill:none;stroke:#fff;stroke-width:1px;"/>
                </g>
                <g id="smallScale_12_2" serif:id="smallScale_12_">
                    <path d="M50.74,266.975L35.532,227.329" style="fill:none;stroke:#fff;stroke-width:1px;"/>
                    <path d="M65.619,240.73L22.139,257.432" style="fill:none;stroke:#fff;stroke-width:1px;"/>
                    <path d="M29.224,267.193L58.534,230.972" style="fill:none;stroke:#fff;stroke-width:1px;"/>
                    <path d="M40.885,267.991L47.521,226.067" style="fill:none;stroke:#fff;stroke-width:1px;"/>
                    <path d="M66.878,252.726L20.878,245.436" style="fill:none;stroke:#fff;stroke-width:1px;"/>
                    <path d="M61.975,263.746L25.781,234.417" style="fill:none;stroke:#fff;stroke-width:1px;"/>
                </g>
            </g>
            <path id="OuterCircle_5_2" serif:id="OuterCircle_5_" d="M34.647,266.55C28.308,263.196 23.99,256.534 23.99,248.863C23.99,237.818 32.945,228.864 43.99,228.864C55.036,228.864 63.99,237.818 63.99,248.863C63.99,256.475 59.737,263.094 53.476,266.472" style="fill:none;stroke:#f9f9f9;stroke-width:2.5px;"/>
        </g>
        <g id="ScaleSmall_3_">
            <path id="OuterCircle_4_" d="M133.26,128.911C129.299,126.816 126.6,122.652 126.6,117.857C126.6,110.954 132.197,105.357 139.1,105.357C146.003,105.357 151.6,110.954 151.6,117.857C151.6,122.615 148.942,126.752 145.03,128.863" style="fill:none;stroke:#f9f9f9;stroke-width:4.3px;"/>
            <circle id="Circle_4_" cx="139.099" cy="117.969" r="11.474" style="fill:#323232;"/>
        </g>
        <g id="ScaleSmall_3_1" serif:id="ScaleSmall_3_">
            <path id="OuterCircle_4_1" serif:id="OuterCircle_4_" d="M84.16,128.911C80.199,126.816 77.5,122.652 77.5,117.857C77.5,110.954 83.097,105.357 90,105.357C96.903,105.357 102.5,110.954 102.5,117.857C102.5,122.615 99.842,126.752 95.93,128.863" style="fill:none;stroke:#f9f9f9;stroke-width:4.3px;"/>
            <circle id="Circle_4_1" serif:id="Circle_4_" cx="90" cy="117.969" r="11.474" style="fill:#323232;"/>
        </g>
        <g id="ScaleSmall_3_2" serif:id="ScaleSmall_3_">
            <path id="OuterCircle_4_2" serif:id="OuterCircle_4_" d="M33.46,128.911C29.499,126.816 26.8,122.652 26.8,117.857C26.8,110.954 32.397,105.357 39.3,105.357C46.203,105.357 51.8,110.954 51.8,117.857C51.8,122.615 49.142,126.752 45.23,128.863" style="fill:none;stroke:#f9f9f9;stroke-width:4.3px;"/>
            <circle id="Circle_4_2" serif:id="Circle_4_" cx="39.299" cy="117.969" r="11.474" style="fill:#323232;"/>
        </g>
        <g id="Scale_1_">
            <g id="Big_1_">
                <path d="M90,203.238L90,142.555" style="fill:none;stroke:#f9f9f9;stroke-width:1.5px;"/>
                <path d="M125.5,178.078L54.5,178.078" style="fill:none;stroke:#f9f9f9;stroke-width:1.5px;"/>
                <path d="M59.257,195.84L120.745,160.317" style="fill:none;stroke:#f9f9f9;stroke-width:1.5px;"/>
                <path d="M72.25,208.845L107.75,147.315" style="fill:none;stroke:#f9f9f9;stroke-width:1.5px;"/>
                <path d="M120.745,195.84L59.257,160.317" style="fill:none;stroke:#f9f9f9;stroke-width:1.5px;"/>
                <path d="M107.75,208.845L72.25,147.315" style="fill:none;stroke:#f9f9f9;stroke-width:1.5px;"/>
            </g>
            <g id="Small_1_">
                <g id="smallScale_7_">
                    <path d="M92.78,204.678L86.637,146.199" style="fill:none;stroke:#f9f9f9;stroke-width:1px;"/>
                    <path d="M122,174.854L58,181.586" style="fill:none;stroke:#f9f9f9;stroke-width:1px;"/>
                    <path d="M63.97,197.145L116.033,159.294" style="fill:none;stroke:#f9f9f9;stroke-width:1px;"/>
                    <path d="M79.236,202.414L103.087,148.805" style="fill:none;stroke:#f9f9f9;stroke-width:1px;"/>
                    <path d="M119.395,191.316L60.607,165.123" style="fill:none;stroke:#f9f9f9;stroke-width:1px;"/>
                    <path d="M108.912,204.269L71.089,152.171" style="fill:none;stroke:#f9f9f9;stroke-width:1px;"/>
                </g>
                <g id="smallScale_6_">
                    <path d="M95.499,204.109L83.311,146.726" style="fill:none;stroke:#f9f9f9;stroke-width:1px;"/>
                    <path d="M121.473,171.527L58.529,184.914" style="fill:none;stroke:#f9f9f9;stroke-width:1px;"/>
                    <path d="M66.089,199.764L113.912,156.676" style="fill:none;stroke:#f9f9f9;stroke-width:1px;"/>
                    <path d="M81.826,203.393L99.942,147.598" style="fill:none;stroke:#f9f9f9;stroke-width:1px;"/>
                    <path d="M120.602,188.168L59.4,168.271" style="fill:none;stroke:#f9f9f9;stroke-width:1px;"/>
                    <path d="M111.531,202.149L68.47,154.29" style="fill:none;stroke:#f9f9f9;stroke-width:1px;"/>
                </g>
                <g id="smallScale_5_">
                    <path d="M98.176,203.4L80.059,147.599" style="fill:none;stroke:#f9f9f9;stroke-width:1px;"/>
                    <path d="M120.6,168.271L59.4,188.169" style="fill:none;stroke:#f9f9f9;stroke-width:1px;"/>
                    <path d="M68.471,202.149L111.531,154.29" style="fill:none;stroke:#f9f9f9;stroke-width:1px;"/>
                    <path d="M84.501,204.108L96.689,146.726" style="fill:none;stroke:#f9f9f9;stroke-width:1px;"/>
                    <path d="M121.474,184.913L58.529,171.527" style="fill:none;stroke:#f9f9f9;stroke-width:1px;"/>
                    <path d="M113.911,199.764L66.089,156.676" style="fill:none;stroke:#f9f9f9;stroke-width:1px;"/>
                </g>
                <g id="smallScale_4_">
                    <path d="M100.763,202.357L76.913,148.806" style="fill:none;stroke:#f9f9f9;stroke-width:1px;"/>
                    <path d="M119.394,165.123L60.607,191.316" style="fill:none;stroke:#f9f9f9;stroke-width:1px;"/>
                    <path d="M71.089,204.269L108.913,152.169" style="fill:none;stroke:#f9f9f9;stroke-width:1px;"/>
                    <path d="M87.238,204.529L93.362,146.2" style="fill:none;stroke:#f9f9f9;stroke-width:1px;"/>
                    <path d="M122,181.585L58,174.854" style="fill:none;stroke:#f9f9f9;stroke-width:1px;"/>
                    <path d="M116.031,197.145L63.969,159.294" style="fill:none;stroke:#f9f9f9;stroke-width:1px;"/>
                </g>
            </g>
            <path id="InnerCircle_1_" d="M77.445,201.744C68.858,197.221 63.001,188.203 63.001,177.816C63.001,162.894 75.09,150.798 90.001,150.798C104.911,150.798 117.001,162.894 117.001,177.816C117.001,188.166 111.187,197.154 102.652,201.692" style="fill:none;stroke:#f9f9f9;stroke-width:5px;"/>
        </g>
    </g>
    <g>
        <rect x="35.355" y="316.322" width="0.736" height="5.328" style="fill:#fff;stroke:#fff;stroke-width:0.4px;"/>
        <path d="M41.499,321.65L38.515,317.465L38.515,321.65L37.811,321.65L37.811,316.322L38.515,316.322L41.499,320.506L41.499,316.322L42.203,316.322L42.203,321.65L41.499,321.65Z" style="fill:#fff;fill-rule:nonzero;stroke:#fff;stroke-width:0.4px;"/>
    </g>
    <path id="Arrow_2_" d="M95.492,92.873L90,97.127L84.508,92.873L95.492,92.873Z" style="fill:#fcfcfc;fill-rule:nonzero;"/>
    <g id="DRIVE">
        <path d="M121.588,83.764L123.068,83.764C123.526,83.764 123.942,83.831 124.316,83.965C124.689,84.098 125.008,84.283 125.275,84.521C125.543,84.758 125.748,85.04 125.891,85.365C126.034,85.69 126.107,86.046 126.107,86.428C126.107,86.813 126.035,87.167 125.891,87.492C125.747,87.818 125.542,88.099 125.275,88.336C125.008,88.574 124.689,88.76 124.316,88.893C123.942,89.026 123.526,89.092 123.068,89.092L121.588,89.092L121.588,83.764ZM123.068,88.5C123.387,88.5 123.687,88.453 123.967,88.36C124.247,88.267 124.491,88.132 124.698,87.956C124.907,87.78 125.071,87.564 125.19,87.309C125.31,87.053 125.37,86.76 125.37,86.428C125.37,86.104 125.31,85.811 125.19,85.553C125.071,85.293 124.907,85.076 124.698,84.901C124.491,84.725 124.247,84.59 123.967,84.497C123.687,84.404 123.387,84.357 123.068,84.357L122.324,84.357L122.324,88.5L123.068,88.5Z" style="fill:#fff;fill-rule:nonzero;stroke:#fff;stroke-width:0.4px;"/>
        <path d="M128.188,89.092L127.452,89.092L127.452,83.764L128.837,83.764C129.124,83.764 129.393,83.797 129.641,83.861C129.889,83.925 130.107,84.02 130.292,84.145C130.48,84.27 130.626,84.428 130.732,84.617C130.838,84.806 130.892,85.024 130.892,85.268C130.892,85.637 130.774,85.956 130.536,86.229C130.3,86.5 129.968,86.698 129.54,86.821L131.421,89.092L130.517,89.092L128.781,86.948C128.755,86.948 128.715,86.949 128.662,86.952C128.607,86.955 128.553,86.956 128.494,86.956L128.189,86.956L128.189,89.092L128.188,89.092ZM130.156,85.284C130.156,85.119 130.119,84.976 130.047,84.856C129.976,84.736 129.878,84.64 129.756,84.568C129.633,84.496 129.492,84.443 129.332,84.408C129.172,84.373 129.004,84.356 128.828,84.356L128.187,84.356L128.187,86.364L128.555,86.364C128.779,86.364 128.988,86.343 129.183,86.301C129.377,86.258 129.546,86.193 129.691,86.105C129.836,86.016 129.949,85.905 130.031,85.768C130.114,85.633 130.156,85.471 130.156,85.284Z" style="fill:#fff;fill-rule:nonzero;stroke:#fff;stroke-width:0.4px;"/>
        <rect x="132.564" y="83.764" width="0.735" height="5.328" style="fill:#fff;stroke:#fff;stroke-width:0.4px;"/>
        <path d="M138.314,83.764L139.05,83.764L137.138,89.092L136.37,89.092L134.458,83.764L135.194,83.764L136.755,88.221L138.314,83.764Z" style="fill:#fff;fill-rule:nonzero;stroke:#fff;stroke-width:0.4px;"/>
        <path d="M140.17,83.764L143.139,83.764L143.139,84.365L140.907,84.365L140.907,86.069L143.044,86.069L143.044,86.669L140.907,86.669L140.907,88.493L143.163,88.493L143.163,89.093L140.171,89.093L140.171,83.764L140.17,83.764Z" style="fill:#fff;fill-rule:nonzero;stroke:#fff;stroke-width:0.4px;"/>
        <path d="M149.244,83.668C149.482,83.668 149.734,83.691 149.996,83.736C150.256,83.781 150.475,83.841 150.65,83.916L150.531,84.484C150.349,84.42 150.156,84.368 149.947,84.328C149.74,84.288 149.533,84.267 149.332,84.267C148.664,84.267 148.144,84.455 147.771,84.828C147.398,85.201 147.21,85.734 147.21,86.428C147.21,87.122 147.398,87.656 147.771,88.029C148.144,88.403 148.664,88.589 149.332,88.589C149.533,88.589 149.74,88.569 149.947,88.529C150.156,88.489 150.349,88.437 150.531,88.373L150.65,88.941C150.474,89.016 150.255,89.076 149.996,89.121C149.734,89.167 149.482,89.189 149.244,89.189C148.806,89.189 148.416,89.12 148.072,88.981C147.726,88.842 147.437,88.651 147.203,88.405C146.969,88.16 146.789,87.869 146.664,87.533C146.537,87.197 146.475,86.829 146.475,86.429C146.475,86.03 146.537,85.661 146.664,85.325C146.789,84.989 146.969,84.698 147.203,84.453C147.437,84.208 147.726,84.016 148.072,83.878C148.416,83.738 148.807,83.668 149.244,83.668Z" style="fill:#fff;fill-rule:nonzero;stroke:#fff;stroke-width:0.4px;"/>
        <path d="M155.387,83.764L156.123,83.764L154.211,89.092L153.443,89.092L151.531,83.764L152.267,83.764L153.826,88.221L155.387,83.764Z" style="fill:#fff;fill-rule:nonzero;stroke:#fff;stroke-width:0.4px;"/>
    </g>
    <g>
        <path d="M67.526,219.092L67.526,213.764L70.526,213.764L70.526,214.364L68.261,214.364L68.261,216.188L70.429,216.188L70.429,216.788L68.261,216.788L68.261,219.093L67.526,219.093L67.526,219.092Z" style="fill:#fff;fill-rule:nonzero;stroke:#fff;stroke-width:0.4px;"/>
        <path d="M72.622,219.092L71.887,219.092L71.887,213.764L73.27,213.764C73.559,213.764 73.827,213.796 74.075,213.86C74.323,213.924 74.54,214.019 74.727,214.144C74.913,214.27 75.06,214.427 75.166,214.616C75.273,214.805 75.326,215.023 75.326,215.268C75.326,215.636 75.207,215.956 74.971,216.229C74.733,216.5 74.401,216.698 73.975,216.821L75.854,219.092L74.951,219.092L73.215,216.947C73.189,216.947 73.149,216.949 73.095,216.951C73.042,216.955 72.986,216.955 72.927,216.955L72.623,216.955L72.623,219.092L72.622,219.092ZM74.59,215.283C74.59,215.119 74.555,214.975 74.483,214.855C74.411,214.736 74.313,214.639 74.19,214.568C74.068,214.496 73.926,214.442 73.766,214.408C73.606,214.373 73.438,214.355 73.262,214.355L72.622,214.355L72.622,216.363L72.99,216.363C73.214,216.363 73.424,216.342 73.618,216.3C73.812,216.258 73.982,216.192 74.126,216.104C74.27,216.016 74.383,215.905 74.467,215.768C74.549,215.632 74.59,215.471 74.59,215.283Z" style="fill:#fff;fill-rule:nonzero;stroke:#fff;stroke-width:0.4px;"/>
        <path d="M76.958,213.764L79.926,213.764L79.926,214.364L77.694,214.364L77.694,216.069L79.831,216.069L79.831,216.669L77.694,216.669L77.694,218.493L79.95,218.493L79.95,219.093L76.959,219.093L76.959,213.764L76.958,213.764Z" style="fill:#fff;fill-rule:nonzero;stroke:#fff;stroke-width:0.4px;"/>
        <path d="M83.758,219.188C83.342,219.188 82.972,219.114 82.647,218.964C82.321,218.815 82.049,218.615 81.831,218.363C81.612,218.113 81.446,217.82 81.331,217.484C81.217,217.148 81.159,216.796 81.159,216.427C81.159,216.058 81.217,215.707 81.331,215.37C81.446,215.034 81.612,214.741 81.831,214.491C82.05,214.24 82.321,214.04 82.647,213.89C82.972,213.741 83.342,213.666 83.758,213.666C84.174,213.666 84.545,213.74 84.871,213.89C85.195,214.039 85.467,214.24 85.685,214.491C85.904,214.741 86.072,215.034 86.185,215.37C86.3,215.707 86.357,216.058 86.357,216.427C86.357,216.694 86.328,216.952 86.269,217.202C86.21,217.454 86.123,217.686 86.005,217.903C85.888,218.118 85.743,218.313 85.573,218.487C85.403,218.66 85.206,218.802 84.981,218.915L86.301,219.747L85.957,220.291L84.197,219.155C84.127,219.165 84.054,219.173 83.98,219.178C83.906,219.183 83.833,219.188 83.758,219.188ZM83.758,218.596C84.063,218.596 84.332,218.54 84.567,218.428C84.801,218.317 84.997,218.161 85.151,217.964C85.305,217.767 85.422,217.535 85.503,217.272C85.584,217.009 85.624,216.727 85.624,216.428C85.624,216.129 85.583,215.848 85.503,215.584C85.423,215.32 85.306,215.09 85.151,214.896C84.997,214.701 84.801,214.546 84.567,214.431C84.333,214.317 84.063,214.259 83.758,214.259C83.454,214.259 83.186,214.317 82.95,214.431C82.716,214.546 82.521,214.701 82.366,214.896C82.211,215.089 82.094,215.32 82.013,215.584C81.934,215.848 81.894,216.129 81.894,216.428C81.894,216.727 81.934,217.008 82.013,217.272C82.093,217.536 82.21,217.767 82.366,217.964C82.522,218.161 82.716,218.317 82.95,218.428C83.186,218.54 83.454,218.596 83.758,218.596Z" style="fill:#fff;fill-rule:nonzero;stroke:#fff;stroke-width:0.4px;"/>
        <path d="M91.166,213.764L91.902,213.764L91.902,217.203C91.902,217.48 91.855,217.741 91.765,217.984C91.675,218.226 91.54,218.437 91.365,218.615C91.189,218.795 90.972,218.934 90.713,219.035C90.455,219.137 90.154,219.187 89.815,219.187C89.473,219.187 89.172,219.136 88.915,219.035C88.655,218.934 88.438,218.795 88.263,218.615C88.087,218.437 87.954,218.226 87.863,217.984C87.773,217.741 87.728,217.48 87.728,217.203L87.728,213.764L88.462,213.764L88.462,217.237C88.462,217.636 88.575,217.962 88.802,218.213C89.029,218.464 89.366,218.589 89.816,218.589C90.263,218.589 90.601,218.464 90.828,218.213C91.055,217.962 91.168,217.637 91.168,217.237L91.168,213.764L91.166,213.764Z" style="fill:#fff;fill-rule:nonzero;stroke:#fff;stroke-width:0.4px;"/>
        <path d="M93.549,213.764L96.518,213.764L96.518,214.364L94.286,214.364L94.286,216.069L96.423,216.069L96.423,216.669L94.286,216.669L94.286,218.493L96.542,218.493L96.542,219.093L93.55,219.093L93.55,213.764L93.549,213.764Z" style="fill:#fff;fill-rule:nonzero;stroke:#fff;stroke-width:0.4px;"/>
        <path d="M101.719,219.092L98.735,214.908L98.735,219.092L98.03,219.092L98.03,213.764L98.735,213.764L101.719,217.948L101.719,213.764L102.422,213.764L102.422,219.092L101.719,219.092Z" style="fill:#fff;fill-rule:nonzero;stroke:#fff;stroke-width:0.4px;"/>
        <path d="M106.574,213.668C106.812,213.668 107.064,213.69 107.326,213.736C107.586,213.781 107.805,213.841 107.98,213.916L107.861,214.484C107.679,214.42 107.486,214.367 107.277,214.328C107.07,214.287 106.863,214.267 106.662,214.267C105.994,214.267 105.474,214.455 105.101,214.828C104.728,215.201 104.54,215.734 104.54,216.428C104.54,217.122 104.728,217.655 105.101,218.028C105.474,218.402 105.994,218.589 106.662,218.589C106.863,218.589 107.07,218.569 107.277,218.528C107.486,218.489 107.679,218.436 107.861,218.372L107.98,218.94C107.804,219.015 107.585,219.075 107.326,219.12C107.064,219.166 106.812,219.188 106.574,219.188C106.136,219.188 105.746,219.12 105.402,218.981C105.056,218.842 104.767,218.65 104.533,218.405C104.299,218.159 104.119,217.868 103.994,217.532C103.867,217.196 103.805,216.829 103.805,216.428C103.805,216.027 103.867,215.66 103.994,215.324C104.119,214.988 104.299,214.697 104.533,214.451C104.767,214.207 105.056,214.014 105.402,213.876C105.746,213.737 106.137,213.668 106.574,213.668Z" style="fill:#fff;fill-rule:nonzero;stroke:#fff;stroke-width:0.4px;"/>
        <path d="M112.262,213.764L113.047,213.764L111.295,216.989L111.295,219.093L110.559,219.093L110.559,216.989L108.807,213.764L109.59,213.764L110.926,216.308L112.262,213.764Z" style="fill:#fff;fill-rule:nonzero;stroke:#fff;stroke-width:0.4px;"/>
    </g>
    <g id="LOGO">
        <path d="M64.172,361.77L65.451,361.77L65.451,364.749L68.297,364.749L68.297,365.769L64.172,365.769L64.172,361.77Z" style="fill:#fff;fill-rule:nonzero;"/>
        <rect x="68.574" y="361.77" width="1.279" height="3.998" style="fill:#fff;"/>
        <path d="M70.414,361.77L72.551,361.77L74.647,364.752L74.772,364.752L74.743,361.77L75.983,361.77L75.983,365.768L73.864,365.768L71.76,362.786L71.628,362.786L71.654,365.768L70.414,365.768L70.414,361.77Z" style="fill:#fff;fill-rule:nonzero;"/>
        <path d="M76.541,365.768L76.541,361.77L79.427,361.77C80.054,361.77 80.459,361.782 80.643,361.801C80.998,361.842 81.26,361.936 81.428,362.076C81.608,362.232 81.726,362.484 81.782,362.836C81.809,363.002 81.823,363.291 81.823,363.703C81.823,364.23 81.802,364.598 81.755,364.807C81.693,365.088 81.585,365.295 81.439,365.428C81.339,365.52 81.218,365.588 81.078,365.635C80.934,365.682 80.742,365.717 80.5,365.74C80.31,365.76 79.953,365.763 79.435,365.763L76.541,365.768ZM77.742,364.748L79.437,364.748C79.781,364.748 80.039,364.73 80.208,364.707C80.396,364.676 80.517,364.568 80.564,364.395C80.6,364.266 80.619,364.063 80.619,363.788C80.619,363.491 80.599,363.272 80.56,363.138C80.513,362.964 80.406,362.859 80.238,362.824C80.105,362.795 79.836,362.775 79.426,362.775L77.74,362.775L77.742,364.748Z" style="fill:#fff;fill-rule:nonzero;"/>
        <path d="M82.302,361.77L86.733,361.77L86.733,362.709L83.504,362.709L83.504,363.287L86.567,363.287L86.567,364.166L83.504,364.166L83.504,364.807L86.756,364.807L86.756,365.768L82.303,365.768L82.303,361.77L82.302,361.77Z" style="fill:#fff;fill-rule:nonzero;"/>
        <path d="M87.136,361.77L89.274,361.77L91.368,364.752L91.495,364.752L91.466,361.77L92.704,361.77L92.704,365.768L90.587,365.768L88.483,362.786L88.349,362.786L88.375,365.768L87.136,365.768L87.136,361.77Z" style="fill:#fff;fill-rule:nonzero;"/>
        <path d="M93.262,365.768L93.262,361.77L96.137,361.77C96.748,361.772 97.112,361.778 97.227,361.786C97.489,361.806 97.68,361.848 97.803,361.931C97.946,362.021 98.035,362.144 98.078,362.302C98.117,362.45 98.137,362.62 98.137,362.814C98.137,363.046 98.116,363.224 98.071,363.343C97.997,363.532 97.842,363.665 97.598,363.739C97.778,363.768 97.909,363.813 97.994,363.874C98.189,364.007 98.287,364.278 98.287,364.7C98.287,365.024 98.236,365.264 98.135,365.427C98.045,365.564 97.908,365.656 97.725,365.704C97.571,365.745 97.307,365.766 96.942,365.766L96.147,365.774L93.262,365.768ZM94.424,363.346L96.141,363.346C96.518,363.346 96.743,363.33 96.815,363.301C96.911,363.264 96.961,363.168 96.961,363.014C96.961,362.858 96.9,362.762 96.785,362.731C96.74,362.719 96.525,362.711 96.14,362.71L94.423,362.71L94.423,363.346L94.424,363.346ZM94.424,364.807L96.147,364.807C96.467,364.805 96.657,364.803 96.711,364.801C96.889,364.793 97.002,364.758 97.051,364.697C97.088,364.646 97.108,364.568 97.108,364.467C97.108,364.299 97.047,364.196 96.926,364.17C96.883,364.154 96.623,364.15 96.147,364.15L94.424,364.15L94.424,364.807Z" style="fill:#fff;fill-rule:nonzero;"/>
        <path d="M98.709,361.77L103.139,361.77L103.139,362.709L99.91,362.709L99.91,363.287L102.972,363.287L102.972,364.166L99.91,364.166L99.91,364.807L103.162,364.807L103.162,365.768L98.709,365.768L98.709,361.77Z" style="fill:#fff;fill-rule:nonzero;"/>
        <path d="M103.543,365.768L103.543,361.77L106.488,361.77C107.179,361.772 107.592,361.78 107.717,361.791C107.862,361.805 107.99,361.846 108.106,361.916C108.221,361.98 108.313,362.068 108.377,362.18C108.443,362.295 108.482,362.416 108.496,362.541C108.514,362.687 108.521,362.859 108.521,363.066C108.521,363.392 108.5,363.625 108.455,363.754C108.387,363.942 108.258,364.074 108.068,364.15C108.004,364.173 107.908,364.199 107.779,364.216C108.035,364.236 108.217,364.308 108.33,364.437C108.379,364.494 108.412,364.556 108.434,364.63C108.455,364.7 108.469,364.812 108.475,364.948C108.477,365.018 108.479,365.171 108.479,365.387L108.479,365.76L107.278,365.76L107.278,365.545C107.278,365.307 107.266,365.137 107.247,365.031C107.218,364.885 107.138,364.797 107.011,364.763C106.927,364.745 106.751,364.74 106.484,364.74L104.765,364.74L104.765,365.76L103.543,365.768ZM104.762,363.752L106.475,363.752C106.733,363.748 106.883,363.742 106.93,363.738C107.102,363.726 107.209,363.676 107.254,363.582C107.285,363.516 107.301,363.4 107.301,363.242C107.301,363.105 107.287,363.008 107.26,362.937C107.219,362.837 107.121,362.789 106.965,362.773C106.91,362.767 106.746,362.765 106.473,362.763L104.762,362.763L104.762,363.752Z" style="fill:#fff;fill-rule:nonzero;"/>
        <path d="M111.389,363.5L114.174,363.5C114.178,363.588 114.18,363.646 114.18,363.67C114.18,364.191 114.166,364.598 114.137,364.883C114.09,365.344 113.828,365.623 113.352,365.721C113.106,365.772 112.836,365.799 112.543,365.811C112.231,365.823 111.863,365.829 111.438,365.829C110.682,365.829 110.143,365.806 109.819,365.749C109.37,365.677 109.09,365.47 108.985,365.13C108.93,364.964 108.901,364.775 108.893,364.558C108.883,364.288 108.877,364.001 108.877,363.699C108.877,363.181 108.902,362.822 108.951,362.611C109.017,362.322 109.139,362.117 109.31,361.998C109.404,361.936 109.513,361.887 109.652,361.852C109.787,361.819 109.976,361.79 110.224,361.768C110.578,361.739 111.046,361.721 111.642,361.721C112.412,361.721 112.953,361.75 113.269,361.813C113.591,361.875 113.82,361.981 113.951,362.135C114.066,362.274 114.137,362.489 114.162,362.789C114.168,362.867 114.172,362.99 114.172,363.156L112.953,363.156C112.951,363.051 112.945,362.97 112.932,362.931C112.909,362.831 112.821,362.773 112.672,362.753C112.481,362.728 112.098,362.714 111.527,362.714C111.021,362.714 110.672,362.732 110.474,362.765C110.288,362.798 110.175,362.9 110.136,363.072C110.107,363.201 110.089,363.427 110.089,363.76C110.089,364.139 110.107,364.399 110.14,364.533C110.183,364.721 110.316,364.822 110.538,364.844C110.647,364.856 110.976,364.865 111.528,364.869C112.13,364.863 112.514,364.849 112.69,364.836C112.846,364.811 112.94,364.738 112.961,364.627C112.975,364.557 112.982,364.447 112.982,364.305L111.378,364.305L111.378,363.504L111.388,363.504L111.388,363.5L111.389,363.5Z" style="fill:#fff;fill-rule:nonzero;"/>
        <path d="M67.967,372.969L67.967,368.969L70.91,368.969C71.605,368.971 72.014,368.979 72.139,368.99C72.283,369.008 72.41,369.049 72.529,369.115C72.643,369.183 72.736,369.271 72.8,369.383C72.865,369.496 72.906,369.615 72.92,369.74C72.938,369.886 72.945,370.062 72.945,370.269C72.945,370.595 72.924,370.824 72.879,370.953C72.811,371.142 72.682,371.277 72.492,371.349C72.428,371.374 72.33,371.398 72.201,371.417C72.457,371.437 72.639,371.509 72.753,371.636C72.802,371.695 72.836,371.757 72.857,371.831C72.878,371.899 72.89,372.011 72.898,372.147C72.9,372.219 72.902,372.368 72.902,372.588L72.902,372.961L71.701,372.961L71.701,372.746C71.701,372.508 71.689,372.338 71.669,372.23C71.638,372.084 71.559,371.998 71.432,371.964C71.348,371.946 71.171,371.941 70.903,371.941L69.185,371.941L69.185,372.961L67.967,372.969ZM69.185,370.953L70.9,370.953C71.156,370.949 71.305,370.943 71.352,370.939C71.525,370.929 71.632,370.877 71.677,370.783C71.708,370.719 71.724,370.601 71.724,370.445C71.724,370.306 71.71,370.211 71.683,370.138C71.642,370.04 71.543,369.988 71.387,369.974C71.332,369.97 71.168,369.968 70.896,369.966L69.184,369.966L69.184,370.953L69.185,370.953Z" style="fill:#fff;fill-rule:nonzero;"/>
        <path d="M73.365,368.969L77.796,368.969L77.796,369.908L74.567,369.908L74.567,370.484L77.63,370.484L77.63,371.363L74.567,371.363L74.567,372.008L77.819,372.008L77.819,372.969L73.366,372.969L73.366,368.969L73.365,368.969Z" style="fill:#fff;fill-rule:nonzero;"/>
        <path d="M78.059,371.645L79.241,371.645C79.239,371.842 79.28,371.969 79.362,372.026C79.405,372.053 79.454,372.073 79.508,372.087C79.562,372.097 79.657,372.105 79.795,372.108C79.862,372.11 80.087,372.112 80.466,372.114C80.986,372.112 81.286,372.108 81.368,372.104C81.52,372.092 81.624,372.073 81.673,372.042C81.741,371.999 81.777,371.901 81.777,371.757C81.777,371.653 81.756,371.583 81.714,371.542C81.654,371.483 81.516,371.454 81.294,371.45C81.143,371.45 80.822,371.436 80.34,371.415C79.84,371.395 79.516,371.38 79.365,371.374C78.978,371.36 78.707,371.315 78.55,371.239C78.347,371.137 78.214,370.968 78.153,370.727C78.118,370.594 78.099,370.42 78.099,370.206C78.099,369.755 78.185,369.436 78.358,369.251C78.487,369.106 78.681,369.019 78.944,368.972C79.179,368.933 79.743,368.911 80.632,368.911C81.208,368.911 81.616,368.931 81.857,368.964C82.17,369.009 82.398,369.087 82.539,369.194C82.727,369.346 82.818,369.628 82.818,370.022C82.818,370.065 82.818,370.133 82.816,370.227L81.634,370.227C81.63,370.131 81.622,370.065 81.613,370.03C81.587,369.923 81.496,369.858 81.342,369.842C81.206,369.83 80.879,369.822 80.359,369.822C79.842,369.822 79.537,369.84 79.441,369.867C79.334,369.9 79.281,369.992 79.281,370.137C79.281,370.28 79.339,370.366 79.451,370.397C79.548,370.42 79.976,370.448 80.742,370.469C81.435,370.49 81.88,370.512 82.07,370.541C82.262,370.566 82.416,370.611 82.531,370.674C82.644,370.733 82.736,370.817 82.804,370.922C82.908,371.08 82.958,371.336 82.958,371.688C82.958,372.084 82.907,372.372 82.807,372.551C82.704,372.735 82.538,372.858 82.309,372.924C82.081,372.988 81.458,373.024 80.437,373.024C79.816,373.024 79.369,373.006 79.092,372.975C78.756,372.936 78.515,372.86 78.368,372.745C78.21,372.624 78.116,372.452 78.087,372.229C78.071,372.124 78.064,371.999 78.064,371.846L78.059,371.645Z" style="fill:#fff;fill-rule:nonzero;"/>
        <path d="M83.377,368.969L87.807,368.969L87.807,369.908L84.578,369.908L84.578,370.484L87.64,370.484L87.64,371.363L84.578,371.363L84.578,372.008L87.83,372.008L87.83,372.969L83.377,372.969L83.377,368.969Z" style="fill:#fff;fill-rule:nonzero;"/>
        <path d="M92.553,372.969L92.209,372.291L89.563,372.291L89.22,372.969L87.826,372.969L89.947,368.969L91.842,368.969L93.934,372.969L92.553,372.969ZM91.781,371.416L91.01,369.896L90.768,369.896L89.997,371.416L91.781,371.416Z" style="fill:#fff;fill-rule:nonzero;"/>
        <path d="M94.117,372.969L94.117,368.969L97.058,368.969C97.753,368.971 98.163,368.979 98.288,368.99C98.431,369.008 98.559,369.049 98.675,369.115C98.792,369.183 98.882,369.271 98.946,369.383C99.011,369.496 99.05,369.615 99.067,369.74C99.086,369.886 99.091,370.062 99.091,370.269C99.091,370.595 99.07,370.824 99.026,370.953C98.959,371.142 98.829,371.277 98.636,371.349C98.574,371.374 98.476,371.398 98.347,371.417C98.604,371.437 98.785,371.509 98.899,371.636C98.948,371.695 98.983,371.757 99.003,371.831C99.024,371.899 99.038,372.011 99.046,372.147C99.048,372.219 99.048,372.368 99.048,372.588L99.048,372.961L97.847,372.961L97.847,372.746C97.847,372.508 97.837,372.338 97.818,372.23C97.787,372.084 97.709,371.998 97.582,371.964C97.498,371.946 97.32,371.941 97.051,371.941L95.334,371.941L95.334,372.961L94.117,372.969ZM95.336,370.953L97.049,370.953C97.305,370.949 97.457,370.943 97.504,370.939C97.676,370.929 97.783,370.877 97.828,370.783C97.859,370.719 97.875,370.601 97.875,370.445C97.875,370.306 97.861,370.211 97.834,370.138C97.793,370.04 97.695,369.988 97.539,369.974C97.484,369.97 97.32,369.968 97.047,369.966L95.336,369.966L95.336,370.953Z" style="fill:#fff;fill-rule:nonzero;"/>
        <path d="M103.342,371.424L104.561,371.424C104.571,371.617 104.575,371.754 104.575,371.822C104.575,372.113 104.528,372.345 104.436,372.521C104.34,372.709 104.159,372.833 103.887,372.906C103.592,372.986 103.082,373.025 102.36,373.025C101.559,373.025 101.022,373.011 100.745,372.988C100.487,372.967 100.284,372.931 100.138,372.884C99.992,372.837 99.867,372.769 99.769,372.679C99.638,372.558 99.556,372.398 99.521,372.2C99.484,371.991 99.462,371.591 99.462,370.993C99.462,370.423 99.476,370.034 99.505,369.839C99.548,369.538 99.663,369.319 99.855,369.189C100.001,369.087 100.23,369.015 100.546,368.972C100.872,368.929 101.462,368.91 102.312,368.91C102.822,368.91 103.179,368.924 103.394,368.941C103.718,368.97 103.956,369.035 104.103,369.129C104.289,369.24 104.406,369.408 104.455,369.629C104.49,369.783 104.508,369.967 104.508,370.172C104.508,370.203 104.506,370.281 104.504,370.401L103.285,370.401C103.281,370.303 103.277,370.239 103.271,370.204C103.255,370.085 103.205,370.013 103.111,369.977C102.97,369.928 102.591,369.907 101.972,369.907C101.55,369.907 101.259,369.921 101.099,369.942C100.908,369.967 100.787,370.077 100.74,370.26C100.703,370.406 100.681,370.653 100.681,370.987C100.681,371.333 100.702,371.569 100.74,371.7C100.787,371.87 100.916,371.971 101.127,371.997C101.299,372.017 101.6,372.028 102.031,372.028C102.498,372.028 102.814,372.016 102.986,371.999C103.144,371.981 103.248,371.927 103.291,371.827C103.32,371.744 103.338,371.611 103.342,371.424Z" style="fill:#fff;fill-rule:nonzero;"/>
        <path d="M104.994,368.969L106.275,368.969L106.275,370.401L109.025,370.401L109.025,368.969L110.304,368.969L110.304,372.969L109.025,372.969L109.025,371.518L106.275,371.518L106.275,372.969L104.994,372.969L104.994,368.969Z" style="fill:#fff;fill-rule:nonzero;"/>
    </g>
    <g>
        <path d="M133.591,321.746C133.22,321.746 132.89,321.672 132.601,321.522C132.311,321.373 132.069,321.172 131.874,320.922C131.679,320.671 131.531,320.377 131.429,320.041C131.327,319.705 131.276,319.353 131.276,318.985C131.276,318.617 131.327,318.265 131.429,317.929C131.531,317.593 131.679,317.299 131.874,317.049C132.068,316.798 132.311,316.598 132.601,316.448C132.89,316.299 133.22,316.224 133.591,316.224C133.961,316.224 134.291,316.298 134.58,316.448C134.87,316.597 135.112,316.798 135.307,317.049C135.502,317.299 135.65,317.593 135.752,317.929C135.854,318.265 135.905,318.617 135.905,318.985C135.905,319.353 135.854,319.705 135.752,320.041C135.65,320.377 135.502,320.671 135.307,320.922C135.113,321.172 134.87,321.372 134.58,321.522C134.291,321.672 133.961,321.746 133.591,321.746ZM133.591,321.154C133.862,321.154 134.101,321.098 134.31,320.986C134.519,320.874 134.692,320.719 134.831,320.522C134.969,320.325 135.073,320.094 135.143,319.83C135.214,319.566 135.25,319.285 135.25,318.986C135.25,318.687 135.214,318.406 135.143,318.142C135.073,317.877 134.968,317.649 134.831,317.454C134.692,317.26 134.519,317.105 134.31,316.99C134.101,316.876 133.862,316.818 133.591,316.818C133.32,316.818 133.08,316.876 132.871,316.99C132.662,317.105 132.488,317.26 132.35,317.454C132.212,317.649 132.109,317.878 132.038,318.142C131.967,318.406 131.931,318.687 131.931,318.986C131.931,319.285 131.967,319.566 132.038,319.83C132.109,320.095 132.213,320.325 132.35,320.522C132.487,320.719 132.662,320.874 132.871,320.986C133.08,321.098 133.319,321.154 133.591,321.154Z" style="fill:#fff;fill-rule:nonzero;stroke:#fff;stroke-width:0.4px;"/>
        <path d="M140.186,316.322L140.841,316.322L140.841,319.762C140.841,320.039 140.801,320.299 140.72,320.541C140.64,320.784 140.521,320.995 140.365,321.174C140.208,321.353 140.014,321.492 139.784,321.594C139.554,321.695 139.287,321.745 138.983,321.745C138.679,321.745 138.412,321.694 138.181,321.594C137.951,321.492 137.757,321.353 137.601,321.174C137.444,320.995 137.326,320.784 137.245,320.541C137.165,320.299 137.124,320.039 137.124,319.762L137.124,316.322L137.779,316.322L137.779,319.794C137.779,320.194 137.881,320.52 138.082,320.771C138.284,321.022 138.584,321.147 138.983,321.147C139.381,321.147 139.682,321.022 139.883,320.771C140.085,320.52 140.186,320.195 140.186,319.794L140.186,316.322Z" style="fill:#fff;fill-rule:nonzero;stroke:#fff;stroke-width:0.4px;"/>
        <path d="M145.342,316.322L145.342,316.923L143.946,316.923L143.946,321.651L143.291,321.651L143.291,316.923L141.895,316.923L141.895,316.322L145.342,316.322Z" style="fill:#fff;fill-rule:nonzero;stroke:#fff;stroke-width:0.4px;"/>
    </g>
    <g id="TopHL">
        <path d="M112.692,18.5L180,18.5" style="fill:none;stroke:#c6c6c6;stroke-opacity:0.603922;stroke-width:3px;"/>
        <path d="M0,18.5L75.381,18.5" style="fill:none;stroke:#c6c6c6;stroke-opacity:0.603922;stroke-width:3px;"/>
        <path d="M112.279,22.875L180.001,22.875" style="fill:none;stroke:#c6c6c6;stroke-opacity:0.603922;stroke-width:1px;"/>
        <path d="M0.001,22.875L69.375,22.875" style="fill:none;stroke:#c6c6c6;stroke-opacity:0.603922;stroke-width:1px;"/>
    </g>
    <g id="BottomHL">
        <path d="M60.02,368.098L0,368.098" style="fill:none;stroke:#c6c6c6;stroke-opacity:0.603922;stroke-width:3px;"/>
        <path d="M180.01,368.098L119.172,368.098" style="fill:none;stroke:#c6c6c6;stroke-opacity:0.603922;stroke-width:3px;"/>
    </g>
    <g>
        <path d="M117.346,281.16C116.93,281.16 116.559,281.086 116.234,280.935C115.909,280.787 115.636,280.586 115.419,280.335C115.2,280.085 115.032,279.791 114.919,279.455C114.804,279.119 114.746,278.767 114.746,278.399C114.746,278.03 114.804,277.678 114.919,277.342C115.032,277.006 115.2,276.713 115.419,276.462C115.637,276.211 115.909,276.012 116.234,275.861C116.559,275.713 116.93,275.638 117.346,275.638C117.762,275.638 118.132,275.712 118.457,275.861C118.783,276.011 119.055,276.211 119.273,276.462C119.491,276.713 119.658,277.006 119.773,277.342C119.887,277.678 119.945,278.03 119.945,278.399C119.945,278.766 119.887,279.119 119.773,279.455C119.658,279.791 119.492,280.085 119.273,280.335C119.054,280.586 118.783,280.786 118.457,280.935C118.132,281.086 117.762,281.16 117.346,281.16ZM117.346,280.568C117.65,280.568 117.918,280.511 118.154,280.4C118.388,280.288 118.583,280.132 118.738,279.935C118.893,279.738 119.01,279.507 119.091,279.244C119.172,278.981 119.21,278.699 119.21,278.4C119.21,278.101 119.171,277.82 119.091,277.556C119.011,277.291 118.894,277.062 118.738,276.868C118.582,276.674 118.388,276.518 118.154,276.404C117.919,276.289 117.65,276.232 117.346,276.232C117.041,276.232 116.772,276.289 116.537,276.404C116.303,276.518 116.107,276.674 115.953,276.868C115.799,277.062 115.682,277.292 115.601,277.556C115.521,277.82 115.481,278.101 115.481,278.4C115.481,278.699 115.521,278.98 115.601,279.244C115.681,279.508 115.798,279.738 115.953,279.935C116.108,280.132 116.303,280.288 116.537,280.4C116.771,280.512 117.041,280.568 117.346,280.568Z" style="fill:#fff;fill-rule:nonzero;stroke:#fff;stroke-width:0.4px;"/>
        <path d="M124.561,275.736L125.297,275.736L123.385,281.064L122.617,281.064L120.705,275.736L121.441,275.736L123.001,280.191L124.561,275.736Z" style="fill:#fff;fill-rule:nonzero;stroke:#fff;stroke-width:0.4px;"/>
        <path d="M126.417,275.736L129.385,275.736L129.385,276.336L127.153,276.336L127.153,278.04L129.29,278.04L129.29,278.641L127.153,278.641L127.153,280.464L129.409,280.464L129.409,281.065L126.418,281.065L126.418,275.736L126.417,275.736Z" style="fill:#fff;fill-rule:nonzero;stroke:#fff;stroke-width:0.4px;"/>
        <path d="M131.633,281.064L130.898,281.064L130.898,275.736L132.282,275.736C132.569,275.736 132.839,275.767 133.087,275.832C133.335,275.897 133.552,275.99 133.739,276.115C133.925,276.241 134.071,276.398 134.178,276.588C134.283,276.777 134.338,276.994 134.338,277.24C134.338,277.607 134.219,277.928 133.981,278.2C133.745,278.472 133.413,278.67 132.985,278.792L134.866,281.064L133.962,281.064L132.226,278.919C132.201,278.919 132.16,278.921 132.107,278.923C132.052,278.926 131.998,278.927 131.939,278.927L131.634,278.927L131.634,281.064L131.633,281.064ZM133.602,277.256C133.602,277.091 133.565,276.947 133.495,276.828C133.423,276.708 133.325,276.611 133.202,276.54C133.079,276.468 132.938,276.414 132.778,276.38C132.618,276.346 132.45,276.328 132.274,276.328L131.633,276.328L131.633,278.336L132.002,278.336C132.225,278.336 132.436,278.315 132.629,278.272C132.824,278.23 132.994,278.165 133.137,278.077C133.282,277.989 133.395,277.877 133.477,277.741C133.561,277.604 133.602,277.443 133.602,277.256Z" style="fill:#fff;fill-rule:nonzero;stroke:#fff;stroke-width:0.4px;"/>
        <path d="M136.705,275.736L136.705,280.464L138.928,280.464L138.928,281.065L135.969,281.065L135.969,275.737L136.705,275.737L136.705,275.736Z" style="fill:#fff;fill-rule:nonzero;stroke:#fff;stroke-width:0.4px;"/>
        <path d="M142.264,281.16C141.848,281.16 141.477,281.086 141.153,280.935C140.827,280.787 140.555,280.586 140.337,280.335C140.118,280.085 139.952,279.791 139.837,279.455C139.722,279.119 139.665,278.767 139.665,278.399C139.665,278.03 139.722,277.678 139.837,277.342C139.952,277.006 140.118,276.713 140.337,276.462C140.556,276.211 140.827,276.012 141.153,275.861C141.477,275.713 141.848,275.638 142.264,275.638C142.68,275.638 143.051,275.712 143.377,275.861C143.701,276.011 143.973,276.211 144.191,276.462C144.409,276.713 144.578,277.006 144.691,277.342C144.806,277.678 144.863,278.03 144.863,278.399C144.863,278.766 144.806,279.119 144.691,279.455C144.578,279.791 144.41,280.085 144.191,280.335C143.972,280.586 143.701,280.786 143.377,280.935C143.051,281.086 142.68,281.16 142.264,281.16ZM142.264,280.568C142.569,280.568 142.838,280.511 143.073,280.4C143.307,280.288 143.503,280.132 143.657,279.935C143.811,279.738 143.928,279.507 144.009,279.244C144.09,278.981 144.13,278.699 144.13,278.4C144.13,278.101 144.089,277.82 144.009,277.556C143.929,277.291 143.812,277.062 143.657,276.868C143.502,276.674 143.307,276.518 143.073,276.404C142.839,276.289 142.569,276.232 142.264,276.232C141.961,276.232 141.692,276.289 141.457,276.404C141.221,276.518 141.027,276.674 140.873,276.868C140.717,277.062 140.6,277.292 140.519,277.556C140.439,277.82 140.4,278.101 140.4,278.4C140.4,278.699 140.439,278.98 140.519,279.244C140.599,279.508 140.716,279.738 140.873,279.935C141.027,280.132 141.221,280.288 141.457,280.4C141.691,280.512 141.961,280.568 142.264,280.568Z" style="fill:#fff;fill-rule:nonzero;stroke:#fff;stroke-width:0.4px;"/>
        <path d="M150.568,281.064L149.816,281.064L149.33,279.775L146.842,279.775L146.362,281.064L145.61,281.064L147.729,275.736L148.45,275.736L150.568,281.064ZM147.064,279.184L149.113,279.184L148.09,276.409L147.064,279.184Z" style="fill:#fff;fill-rule:nonzero;stroke:#fff;stroke-width:0.4px;"/>
        <path d="M151.832,275.736L153.312,275.736C153.771,275.736 154.187,275.802 154.56,275.935C154.933,276.069 155.253,276.254 155.521,276.492C155.787,276.729 155.992,277.011 156.136,277.336C156.28,277.661 156.353,278.016 156.353,278.4C156.353,278.784 156.281,279.138 156.136,279.463C155.991,279.788 155.786,280.069 155.521,280.308C155.253,280.544 154.933,280.73 154.56,280.863C154.187,280.998 153.771,281.064 153.312,281.064L151.832,281.064L151.832,275.736ZM153.312,280.473C153.632,280.473 153.933,280.426 154.212,280.332C154.491,280.238 154.735,280.103 154.944,279.928C155.151,279.752 155.315,279.536 155.436,279.28C155.555,279.024 155.616,278.731 155.616,278.401C155.616,278.075 155.555,277.784 155.436,277.524C155.315,277.266 155.151,277.048 154.944,276.873C154.735,276.696 154.491,276.562 154.212,276.469C153.933,276.376 153.632,276.329 153.312,276.329L152.568,276.329L152.568,280.474L153.312,280.474L153.312,280.473Z" style="fill:#fff;fill-rule:nonzero;stroke:#fff;stroke-width:0.4px;"/>
    </g>
    <g>
        <path d="M16.604,32.322L17.34,32.322L15.428,37.65L14.66,37.65L12.748,32.322L13.484,32.322L15.044,36.777L16.604,32.322Z" style="fill:#fff;fill-rule:nonzero;stroke:#fff;stroke-width:0.4px;"/>
        <path d="M20.699,37.746C20.283,37.746 19.912,37.672 19.587,37.521C19.261,37.373 18.989,37.172 18.771,36.921C18.552,36.671 18.385,36.377 18.271,36.041C18.156,35.705 18.099,35.353 18.099,34.985C18.099,34.616 18.157,34.264 18.271,33.928C18.385,33.592 18.552,33.299 18.771,33.048C18.989,32.797 19.261,32.598 19.587,32.447C19.912,32.299 20.283,32.224 20.699,32.224C21.115,32.224 21.486,32.298 21.811,32.447C22.137,32.597 22.409,32.797 22.627,33.048C22.845,33.299 23.012,33.592 23.127,33.928C23.241,34.264 23.299,34.616 23.299,34.985C23.299,35.352 23.241,35.705 23.127,36.041C23.012,36.377 22.845,36.671 22.627,36.921C22.408,37.172 22.136,37.372 21.811,37.521C21.486,37.672 21.115,37.746 20.699,37.746ZM20.699,37.154C21.003,37.154 21.272,37.097 21.507,36.986C21.741,36.874 21.936,36.718 22.091,36.521C22.246,36.324 22.363,36.093 22.443,35.83C22.523,35.567 22.563,35.285 22.563,34.986C22.563,34.687 22.523,34.406 22.443,34.142C22.363,33.877 22.246,33.648 22.091,33.454C21.936,33.26 21.741,33.104 21.507,32.99C21.272,32.875 21.003,32.818 20.699,32.818C20.395,32.818 20.126,32.875 19.891,32.99C19.657,33.104 19.462,33.26 19.307,33.454C19.152,33.648 19.035,33.878 18.955,34.142C18.875,34.406 18.835,34.687 18.835,34.986C18.835,35.285 18.875,35.566 18.955,35.83C19.035,36.094 19.152,36.324 19.307,36.521C19.462,36.718 19.657,36.874 19.891,36.986C20.126,37.098 20.395,37.154 20.699,37.154Z" style="fill:#fff;fill-rule:nonzero;stroke:#fff;stroke-width:0.4px;"/>
        <path d="M25.435,32.322L25.435,37.05L27.659,37.05L27.659,37.651L24.699,37.651L24.699,32.323L25.435,32.323L25.435,32.322Z" style="fill:#fff;fill-rule:nonzero;stroke:#fff;stroke-width:0.4px;"/>
        <path d="M31.644,32.322L31.644,32.922L30.076,32.922L30.076,37.651L29.34,37.651L29.34,32.922L27.772,32.922L27.772,32.322L31.644,32.322Z" style="fill:#fff;fill-rule:nonzero;stroke:#fff;stroke-width:0.4px;"/>
        <path d="M36.882,37.65L36.13,37.65L35.643,36.361L33.155,36.361L32.675,37.65L31.923,37.65L34.043,32.322L34.764,32.322L36.882,37.65ZM33.378,35.77L35.426,35.77L34.403,32.995L33.378,35.77Z" style="fill:#fff;fill-rule:nonzero;stroke:#fff;stroke-width:0.4px;"/>
        <path d="M40.452,32.227C40.751,32.227 41.036,32.252 41.307,32.302C41.579,32.353 41.825,32.432 42.043,32.538L41.923,33.122C41.694,33.031 41.455,32.959 41.207,32.906C40.959,32.852 40.71,32.826 40.459,32.826C39.798,32.826 39.277,33.019 38.899,33.404C38.52,33.791 38.331,34.338 38.331,35.046C38.331,35.727 38.51,36.25 38.867,36.615C39.224,36.979 39.76,37.162 40.474,37.162C40.645,37.162 40.817,37.15 40.991,37.126C41.164,37.102 41.312,37.071 41.434,37.033L41.434,35.298L42.107,35.298L42.107,37.445C41.904,37.532 41.645,37.603 41.331,37.66C41.017,37.717 40.701,37.746 40.387,37.746C39.949,37.746 39.558,37.681 39.211,37.55C38.864,37.42 38.571,37.236 38.331,36.998C38.091,36.76 37.908,36.477 37.783,36.146C37.657,35.815 37.595,35.449 37.595,35.049C37.595,34.633 37.66,34.251 37.791,33.905C37.922,33.557 38.109,33.26 38.354,33.012C38.6,32.764 38.899,32.571 39.25,32.432C39.601,32.293 40.003,32.227 40.452,32.227Z" style="fill:#fff;fill-rule:nonzero;stroke:#fff;stroke-width:0.4px;"/>
        <path d="M43.708,32.322L46.677,32.322L46.677,32.922L44.445,32.922L44.445,34.626L46.581,34.626L46.581,35.227L44.445,35.227L44.445,37.05L46.7,37.05L46.7,37.651L43.708,37.651L43.708,32.322Z" style="fill:#fff;fill-rule:nonzero;stroke:#fff;stroke-width:0.4px;"/>
        <path d="M52.779,32.227C53.019,32.227 53.269,32.248 53.531,32.294C53.793,32.34 54.011,32.399 54.187,32.475L54.068,33.042C53.886,32.979 53.691,32.926 53.484,32.886C53.275,32.846 53.07,32.826 52.867,32.826C52.201,32.826 51.681,33.013 51.306,33.386C50.933,33.76 50.747,34.293 50.747,34.987C50.747,35.681 50.933,36.214 51.306,36.587C51.681,36.96 52.201,37.148 52.867,37.148C53.07,37.148 53.275,37.127 53.484,37.087C53.691,37.047 53.886,36.995 54.068,36.931L54.187,37.499C54.011,37.573 53.792,37.634 53.531,37.679C53.27,37.724 53.019,37.747 52.779,37.747C52.341,37.747 51.951,37.678 51.607,37.539C51.263,37.4 50.974,37.208 50.74,36.963C50.504,36.718 50.324,36.427 50.199,36.091C50.074,35.755 50.011,35.387 50.011,34.987C50.011,34.587 50.073,34.218 50.199,33.883C50.325,33.548 50.504,33.257 50.74,33.011C50.974,32.766 51.263,32.573 51.607,32.435C51.951,32.297 52.342,32.227 52.779,32.227Z" style="fill:#fff;fill-rule:nonzero;stroke:#fff;stroke-width:0.4px;"/>
        <path d="M57.771,37.746C57.355,37.746 56.984,37.672 56.658,37.521C56.334,37.373 56.062,37.172 55.844,36.921C55.625,36.671 55.457,36.377 55.344,36.041C55.229,35.705 55.172,35.353 55.172,34.985C55.172,34.616 55.229,34.264 55.344,33.928C55.457,33.592 55.625,33.299 55.844,33.048C56.063,32.797 56.334,32.598 56.658,32.447C56.984,32.299 57.355,32.224 57.771,32.224C58.187,32.224 58.558,32.298 58.882,32.447C59.208,32.597 59.48,32.797 59.698,33.048C59.916,33.299 60.083,33.592 60.198,33.928C60.313,34.264 60.37,34.616 60.37,34.985C60.37,35.352 60.313,35.705 60.198,36.041C60.083,36.377 59.917,36.671 59.698,36.921C59.479,37.172 59.208,37.372 58.882,37.521C58.559,37.672 58.188,37.746 57.771,37.746ZM57.771,37.154C58.074,37.154 58.343,37.097 58.578,36.986C58.814,36.874 59.008,36.718 59.162,36.521C59.318,36.324 59.435,36.093 59.516,35.83C59.597,35.567 59.635,35.285 59.635,34.986C59.635,34.687 59.596,34.406 59.516,34.142C59.436,33.877 59.319,33.648 59.162,33.454C59.008,33.26 58.814,33.104 58.578,32.99C58.344,32.875 58.074,32.818 57.771,32.818C57.466,32.818 57.197,32.875 56.962,32.99C56.728,33.104 56.532,33.26 56.378,33.454C56.224,33.648 56.107,33.878 56.026,34.142C55.946,34.406 55.905,34.687 55.905,34.986C55.905,35.285 55.946,35.566 56.026,35.83C56.106,36.094 56.223,36.324 56.378,36.521C56.533,36.718 56.728,36.874 56.962,36.986C57.197,37.098 57.467,37.154 57.771,37.154Z" style="fill:#fff;fill-rule:nonzero;stroke:#fff;stroke-width:0.4px;"/>
        <path d="M65.459,37.65L62.475,33.465L62.475,37.65L61.772,37.65L61.772,32.322L62.475,32.322L65.459,36.506L65.459,32.322L66.164,32.322L66.164,37.65L65.459,37.65Z" style="fill:#fff;fill-rule:nonzero;stroke:#fff;stroke-width:0.4px;"/>
        <path d="M71.252,32.322L71.252,32.922L69.684,32.922L69.684,37.651L68.948,37.651L68.948,32.922L67.38,32.922L67.38,32.322L71.252,32.322Z" style="fill:#fff;fill-rule:nonzero;stroke:#fff;stroke-width:0.4px;"/>
        <path d="M73.203,37.65L72.467,37.65L72.467,32.322L73.852,32.322C74.139,32.322 74.407,32.353 74.655,32.418C74.903,32.483 75.12,32.576 75.307,32.701C75.495,32.827 75.641,32.984 75.746,33.174C75.853,33.363 75.906,33.58 75.906,33.826C75.906,34.193 75.787,34.514 75.551,34.786C75.313,35.058 74.981,35.256 74.555,35.378L76.436,37.65L75.532,37.65L73.796,35.505C73.769,35.505 73.73,35.507 73.675,35.509C73.622,35.512 73.566,35.513 73.507,35.513L73.204,35.513L73.204,37.65L73.203,37.65ZM75.17,33.842C75.17,33.677 75.135,33.533 75.063,33.414C74.991,33.294 74.893,33.197 74.772,33.126C74.649,33.054 74.506,33 74.346,32.966C74.188,32.932 74.02,32.914 73.842,32.914L73.203,32.914L73.203,34.922L73.57,34.922C73.795,34.922 74.004,34.901 74.199,34.858C74.392,34.816 74.562,34.751 74.707,34.663C74.852,34.575 74.965,34.463 75.047,34.327C75.129,34.189 75.17,34.029 75.17,33.842Z" style="fill:#fff;fill-rule:nonzero;stroke:#fff;stroke-width:0.4px;"/>
        <path d="M79.803,37.746C79.387,37.746 79.016,37.672 78.692,37.521C78.366,37.373 78.094,37.172 77.876,36.921C77.657,36.671 77.491,36.377 77.376,36.041C77.261,35.705 77.204,35.353 77.204,34.985C77.204,34.616 77.261,34.264 77.376,33.928C77.491,33.592 77.657,33.299 77.876,33.048C78.095,32.797 78.366,32.598 78.692,32.447C79.016,32.299 79.387,32.224 79.803,32.224C80.219,32.224 80.59,32.298 80.916,32.447C81.24,32.597 81.512,32.797 81.73,33.048C81.948,33.299 82.117,33.592 82.23,33.928C82.345,34.264 82.402,34.616 82.402,34.985C82.402,35.352 82.345,35.705 82.23,36.041C82.117,36.377 81.949,36.671 81.73,36.921C81.511,37.172 81.24,37.372 80.916,37.521C80.59,37.672 80.219,37.746 79.803,37.746ZM79.803,37.154C80.108,37.154 80.377,37.097 80.612,36.986C80.846,36.874 81.042,36.718 81.196,36.521C81.35,36.324 81.467,36.093 81.548,35.83C81.629,35.567 81.669,35.285 81.669,34.986C81.669,34.687 81.628,34.406 81.548,34.142C81.468,33.877 81.351,33.648 81.196,33.454C81.041,33.26 80.846,33.104 80.612,32.99C80.378,32.875 80.108,32.818 79.803,32.818C79.5,32.818 79.231,32.875 78.996,32.99C78.76,33.104 78.566,33.26 78.412,33.454C78.256,33.648 78.139,33.878 78.058,34.142C77.978,34.406 77.939,34.687 77.939,34.986C77.939,35.285 77.978,35.566 78.058,35.83C78.138,36.094 78.255,36.324 78.412,36.521C78.566,36.718 78.76,36.874 78.996,36.986C79.23,37.098 79.5,37.154 79.803,37.154Z" style="fill:#fff;fill-rule:nonzero;stroke:#fff;stroke-width:0.4px;"/>
        <path d="M84.539,32.322L84.539,37.05L86.762,37.05L86.762,37.651L83.803,37.651L83.803,32.323L84.539,32.323L84.539,32.322Z" style="fill:#fff;fill-rule:nonzero;stroke:#fff;stroke-width:0.4px;"/>
        <path d="M88.715,32.322L88.715,37.05L90.94,37.05L90.94,37.651L87.979,37.651L87.979,32.323L88.715,32.323L88.715,32.322Z" style="fill:#fff;fill-rule:nonzero;stroke:#fff;stroke-width:0.4px;"/>
        <path d="M92.154,32.322L95.123,32.322L95.123,32.922L92.891,32.922L92.891,34.626L95.028,34.626L95.028,35.227L92.891,35.227L92.891,37.05L95.147,37.05L95.147,37.651L92.155,37.651L92.155,32.322L92.154,32.322Z" style="fill:#fff;fill-rule:nonzero;stroke:#fff;stroke-width:0.4px;"/>
        <path d="M96.635,32.322L98.115,32.322C98.574,32.322 98.988,32.388 99.363,32.521C99.736,32.655 100.056,32.84 100.322,33.078C100.59,33.315 100.795,33.597 100.939,33.922C101.082,34.247 101.154,34.602 101.154,34.986C101.154,35.37 101.082,35.724 100.939,36.049C100.794,36.374 100.589,36.655 100.322,36.894C100.056,37.13 99.736,37.316 99.363,37.449C98.988,37.584 98.574,37.65 98.115,37.65L96.635,37.65L96.635,32.322ZM98.115,37.059C98.435,37.059 98.734,37.012 99.013,36.918C99.294,36.824 99.538,36.689 99.745,36.514C99.954,36.338 100.118,36.122 100.237,35.866C100.358,35.61 100.417,35.317 100.417,34.987C100.417,34.661 100.358,34.37 100.237,34.11C100.118,33.852 99.954,33.634 99.745,33.459C99.538,33.282 99.294,33.148 99.013,33.055C98.734,32.962 98.435,32.915 98.115,32.915L97.371,32.915L97.371,37.06L98.115,37.06L98.115,37.059Z" style="fill:#fff;fill-rule:nonzero;stroke:#fff;stroke-width:0.4px;"/>
        <path d="M104.617,32.322L106.097,32.322C106.556,32.322 106.972,32.388 107.345,32.521C107.718,32.655 108.038,32.84 108.306,33.078C108.572,33.315 108.777,33.597 108.921,33.922C109.065,34.247 109.138,34.602 109.138,34.986C109.138,35.37 109.066,35.724 108.921,36.049C108.776,36.374 108.571,36.655 108.306,36.894C108.038,37.13 107.718,37.316 107.345,37.449C106.972,37.584 106.556,37.65 106.097,37.65L104.617,37.65L104.617,32.322ZM106.098,37.059C106.418,37.059 106.719,37.012 106.998,36.918C107.277,36.824 107.521,36.689 107.73,36.514C107.937,36.338 108.101,36.122 108.222,35.866C108.341,35.61 108.402,35.317 108.402,34.987C108.402,34.661 108.341,34.37 108.222,34.11C108.101,33.852 107.937,33.634 107.73,33.459C107.521,33.282 107.277,33.148 106.998,33.055C106.719,32.962 106.418,32.915 106.098,32.915L105.354,32.915L105.354,37.06L106.098,37.06L106.098,37.059Z" style="fill:#fff;fill-rule:nonzero;stroke:#fff;stroke-width:0.4px;"/>
        <path d="M113.139,32.322L113.922,32.322L112.17,35.546L112.17,37.65L111.434,37.65L111.434,35.546L109.682,32.322L110.467,32.322L111.803,34.865L113.139,32.322Z" style="fill:#fff;fill-rule:nonzero;stroke:#fff;stroke-width:0.4px;"/>
        <path d="M118.691,37.65L115.707,33.465L115.707,37.65L115.002,37.65L115.002,32.322L115.707,32.322L118.691,36.506L118.691,32.322L119.394,32.322L119.394,37.65L118.691,37.65Z" style="fill:#fff;fill-rule:nonzero;stroke:#fff;stroke-width:0.4px;"/>
        <path d="M125.617,37.65L124.865,37.65L124.379,36.361L121.891,36.361L121.411,37.65L120.659,37.65L122.778,32.322L123.499,32.322L125.617,37.65ZM122.113,35.77L124.162,35.77L123.139,32.995L122.113,35.77Z" style="fill:#fff;fill-rule:nonzero;stroke:#fff;stroke-width:0.4px;"/>
        <path d="M131.451,32.322L132.115,32.322L132.498,37.65L131.795,37.65L131.539,33.498L130.002,36.689L129.25,36.689L127.715,33.498L127.459,37.65L126.754,37.65L127.139,32.322L127.803,32.322L129.627,36.09L131.451,32.322Z" style="fill:#fff;fill-rule:nonzero;stroke:#fff;stroke-width:0.4px;"/>
        <rect x="134.09" y="32.322" width="0.736" height="5.328" style="fill:#fff;stroke:#fff;stroke-width:0.4px;"/>
        <path d="M139.018,32.227C139.258,32.227 139.508,32.248 139.77,32.294C140.032,32.34 140.25,32.399 140.426,32.475L140.307,33.042C140.125,32.979 139.93,32.926 139.723,32.886C139.514,32.846 139.309,32.826 139.106,32.826C138.44,32.826 137.92,33.013 137.545,33.386C137.172,33.76 136.986,34.293 136.986,34.987C136.986,35.681 137.172,36.214 137.545,36.587C137.92,36.96 138.44,37.148 139.106,37.148C139.309,37.148 139.514,37.127 139.723,37.087C139.93,37.047 140.125,36.995 140.307,36.931L140.426,37.499C140.25,37.573 140.031,37.634 139.77,37.679C139.509,37.724 139.258,37.747 139.018,37.747C138.58,37.747 138.19,37.678 137.846,37.539C137.502,37.4 137.213,37.208 136.979,36.963C136.743,36.718 136.563,36.427 136.438,36.091C136.313,35.755 136.25,35.387 136.25,34.987C136.25,34.587 136.312,34.218 136.438,33.883C136.564,33.548 136.743,33.257 136.979,33.011C137.213,32.766 137.502,32.573 137.846,32.435C138.19,32.297 138.58,32.227 139.018,32.227Z" style="fill:#fff;fill-rule:nonzero;stroke:#fff;stroke-width:0.4px;"/>
        <path d="M143.945,37.65L143.945,32.322L146.945,32.322L146.945,32.922L144.681,32.922L144.681,34.746L146.849,34.746L146.849,35.346L144.681,35.346L144.681,37.651L143.945,37.651L143.945,37.65Z" style="fill:#fff;fill-rule:nonzero;stroke:#fff;stroke-width:0.4px;"/>
        <rect x="148.346" y="32.322" width="0.736" height="5.328" style="fill:#fff;stroke:#fff;stroke-width:0.4px;"/>
        <path d="M151.537,32.322L151.537,37.05L153.76,37.05L153.76,37.651L150.801,37.651L150.801,32.323L151.537,32.323L151.537,32.322Z" style="fill:#fff;fill-rule:nonzero;stroke:#fff;stroke-width:0.4px;"/>
        <path d="M157.744,32.322L157.744,32.922L156.178,32.922L156.178,37.651L155.442,37.651L155.442,32.922L153.874,32.922L153.874,32.322L157.744,32.322Z" style="fill:#fff;fill-rule:nonzero;stroke:#fff;stroke-width:0.4px;"/>
        <path d="M158.961,32.322L161.93,32.322L161.93,32.922L159.698,32.922L159.698,34.626L161.833,34.626L161.833,35.227L159.698,35.227L159.698,37.05L161.954,37.05L161.954,37.651L158.962,37.651L158.962,32.322L158.961,32.322Z" style="fill:#fff;fill-rule:nonzero;stroke:#fff;stroke-width:0.4px;"/>
        <path d="M164.176,37.65L163.44,37.65L163.44,32.322L164.825,32.322C165.112,32.322 165.382,32.353 165.63,32.418C165.878,32.483 166.095,32.576 166.282,32.701C166.468,32.827 166.614,32.984 166.721,33.174C166.826,33.363 166.881,33.58 166.881,33.826C166.881,34.193 166.762,34.514 166.524,34.786C166.288,35.058 165.956,35.256 165.528,35.378L167.409,37.65L166.505,37.65L164.769,35.505C164.744,35.505 164.703,35.507 164.65,35.509C164.597,35.512 164.541,35.513 164.482,35.513L164.177,35.513L164.177,37.65L164.176,37.65ZM166.145,33.842C166.145,33.677 166.108,33.533 166.038,33.414C165.966,33.294 165.868,33.197 165.745,33.126C165.622,33.054 165.481,33 165.321,32.966C165.161,32.932 164.993,32.914 164.817,32.914L164.176,32.914L164.176,34.922L164.545,34.922C164.768,34.922 164.979,34.901 165.172,34.858C165.367,34.816 165.537,34.751 165.68,34.663C165.825,34.575 165.938,34.463 166.02,34.327C166.104,34.189 166.145,34.029 166.145,33.842Z" style="fill:#fff;fill-rule:nonzero;stroke:#fff;stroke-width:0.4px;"/>
    </g>
</svg>
