<?xml version="1.0" encoding="utf-8"?>
<!-- Generator: Adobe Illustrator 16.0.0, SVG Export Plug-In . SVG Version: 6.00 Build 0)  -->
<!DOCTYPE svg PUBLIC "-//W3C//DTD SVG 1.1//EN" "http://www.w3.org/Graphics/SVG/1.1/DTD/svg11.dtd">
<svg xmlns:rdf="http://www.w3.org/1999/02/22-rdf-syntax-ns#"
	 xmlns:sodipodi="http://sodipodi.sourceforge.net/DTD/sodipodi-0.dtd" xmlns:svg="http://www.w3.org/2000/svg" xmlns:dc="http://purl.org/dc/elements/1.1/" xmlns:cc="http://creativecommons.org/ns#" xmlns:inkscape="http://www.inkscape.org/namespaces/inkscape" xmlns:xlink="http://www.w3.org/1999/xlink" version="1.1" id="vcf" sodipodi:docname="MyModule.svg"
	 inkscape:version="0.92.2 5c3e80d, 2017-08-06" xmlns="http://www.w3.org/2000/svg" x="0px" y="0px" width="180px" height="380px"
	 viewBox="25.5 230.5 180 380" enable-background="new 25.5 230.5 180 380" xml:space="preserve">
<g id="Panel" transform="translate(0,-196.45832)" inkscape:groupmode="layer" inkscape:label="Layer 1">
	<path id="Background" inkscape:connector-curvature="0" fill="#140E07" d="M25.5,426.96h180v380h-180V426.96z"/>
</g>
<g>
	<path fill="#F9F9F9" stroke="#F9F9F9" stroke-miterlimit="10" d="M111.75,251.78l-1.03,4.76h-0.7c-0.27-0.84-0.7-1.66-1.29-2.46
		s-1.26-1.45-2-1.97c-0.49,0.76-1.04,1.44-1.65,2.04c-0.61,0.6-1.25,1.12-1.94,1.55s-1.39,0.76-2.13,1s-1.46,0.35-2.17,0.35
		c-0.2,0-0.41-0.02-0.63-0.05l0.35-0.82c0.38,0.04,0.67,0.06,0.87,0.06c1.98,0,3.75-0.77,5.29-2.3c0.32-0.32,0.64-0.68,0.97-1.09
		c0.33-0.41,0.67-0.89,1.03-1.44c0.79-1.22,1.46-2.37,2.02-3.44l1.02-1.95c0.8-1.53,1.42-2.56,1.86-3.1
		c0.43-0.54,0.86-0.81,1.29-0.81c0.14,0,0.26,0.03,0.36,0.09c0.11,0.06,0.19,0.14,0.24,0.25c0.06,0.11,0.09,0.24,0.09,0.37
		c0,0.1-0.02,0.25-0.05,0.44c-0.04,0.26-0.06,0.4-0.07,0.42l-1.66,7.72h0.77l-0.08,0.37H111.75z M110.73,251.78h-3.79l0.04,0.03
		c0.64,0.49,1.2,0.99,1.66,1.5s0.92,1.13,1.36,1.85L110.73,251.78z M107.24,251.41h3.57l1.54-7.3c0.05-0.24,0.08-0.36,0.08-0.37
		c0.04-0.14,0.07-0.27,0.07-0.39c0-0.18-0.08-0.27-0.24-0.27c-0.2,0-0.43,0.21-0.71,0.61s-0.75,1.25-1.43,2.51
		c-0.1,0.19-0.31,0.58-0.62,1.17c-0.26,0.47-0.4,0.72-0.42,0.77l-1.04,1.88C107.6,250.82,107.33,251.28,107.24,251.41z"/>
	<path fill="#F9F9F9" stroke="#F9F9F9" stroke-miterlimit="10" d="M117.94,241.4l-2.85,12.38l-0.1,0.42c-0.09,0.39-0.14,0.73-0.14,1
		c0,0.22,0.04,0.4,0.12,0.54c0.08,0.14,0.19,0.21,0.31,0.21c0.22,0,0.58-0.26,1.07-0.79l0.17,0.15l-0.11,0.12
		c-0.41,0.48-0.72,0.8-0.91,0.97s-0.38,0.25-0.54,0.25c-0.22,0-0.41-0.12-0.57-0.36c-0.16-0.24-0.24-0.51-0.24-0.82
		c0-0.21,0.05-0.55,0.14-1.02l2.51-12.5L117.94,241.4z"/>
	<path fill="#F9F9F9" stroke="#F9F9F9" stroke-miterlimit="10" d="M122,256.42l-0.72,0.22l0.86-4.37l0.08-0.38
		c0.04-0.21,0.06-0.38,0.06-0.52c0-0.31-0.13-0.47-0.38-0.47c-0.24,0-0.53,0.16-0.87,0.48s-0.7,0.78-1.07,1.38
		c-0.25,0.39-0.46,0.76-0.63,1.12c-0.18,0.36-0.34,0.74-0.49,1.14c-0.15,0.41-0.29,0.87-0.43,1.39l-0.67,0.22l1.12-5.95l1.04-0.44
		l-0.94,3.9c0.49-1.11,1.04-2.02,1.67-2.73c0.63-0.71,1.19-1.07,1.69-1.07c0.54,0,0.81,0.3,0.81,0.91c0,0.21-0.05,0.58-0.16,1.11
		l-0.36,1.6c0.7-1.33,1.29-2.27,1.78-2.82c0.48-0.55,0.97-0.82,1.44-0.82c0.27,0,0.48,0.08,0.63,0.24c0.15,0.16,0.23,0.38,0.23,0.68
		c0,0.24-0.07,0.64-0.22,1.22l-0.34,1.32l-0.11,0.42c-0.1,0.44-0.15,0.77-0.15,0.99c0,0.23,0.04,0.41,0.12,0.55
		c0.08,0.14,0.18,0.21,0.3,0.21c0.23,0,0.59-0.26,1.09-0.79l0.16,0.15l-0.1,0.12c-0.41,0.48-0.72,0.8-0.92,0.97
		s-0.38,0.25-0.55,0.25c-0.22,0-0.41-0.11-0.57-0.34s-0.23-0.51-0.23-0.84c0-0.21,0.05-0.55,0.14-1.02l0.4-2.22l0.06-0.39
		c0.04-0.21,0.07-0.39,0.07-0.52s-0.04-0.23-0.12-0.31c-0.08-0.08-0.19-0.12-0.33-0.12c-0.16,0-0.33,0.07-0.53,0.2
		c-0.19,0.13-0.4,0.33-0.61,0.61c-0.22,0.27-0.46,0.63-0.73,1.07c-0.36,0.61-0.65,1.18-0.88,1.7S122.21,255.65,122,256.42z"/>
	<path fill="#F9F9F9" stroke="#F9F9F9" stroke-miterlimit="10" d="M134.82,250.19l-1.02,3.93c-0.11,0.43-0.16,0.77-0.16,1.01
		c0,0.21,0.05,0.4,0.14,0.56c0.09,0.16,0.21,0.24,0.35,0.24c0.21,0,0.56-0.25,1.04-0.76l0.15,0.15l-0.12,0.14
		c-0.38,0.44-0.68,0.74-0.88,0.92s-0.38,0.26-0.54,0.26c-0.23,0-0.43-0.12-0.6-0.36c-0.17-0.24-0.26-0.52-0.26-0.83
		c0-0.23,0.09-0.75,0.26-1.56l0.09-0.41c-0.27,0.62-0.63,1.21-1.07,1.77c-0.75,0.95-1.47,1.42-2.16,1.42
		c-0.41,0-0.74-0.15-0.98-0.44c-0.24-0.29-0.36-0.69-0.36-1.18c0-0.67,0.19-1.38,0.58-2.12c0.39-0.74,0.87-1.34,1.44-1.82
		s1.13-0.71,1.68-0.71c0.57,0,1,0.21,1.28,0.62l0.12-0.41L134.82,250.19z M133.57,251.56c-0.09-0.27-0.23-0.49-0.44-0.64
		c-0.21-0.15-0.44-0.23-0.71-0.23c-0.32,0-0.65,0.15-1.01,0.44s-0.68,0.69-0.98,1.21c-0.23,0.41-0.42,0.86-0.58,1.35
		c-0.16,0.49-0.23,0.9-0.23,1.22c0,0.37,0.07,0.65,0.21,0.86c0.14,0.21,0.34,0.31,0.6,0.31c0.33,0,0.68-0.15,1.04-0.46
		c0.36-0.31,0.72-0.75,1.07-1.32c0.22-0.33,0.39-0.66,0.51-0.99c0.12-0.33,0.26-0.79,0.41-1.38L133.57,251.56z"/>
</g>
<g>
	<path fill="#F9F9F9" stroke="#F9F9F9" stroke-width="0.5" stroke-miterlimit="10" d="M53.59,261.84h0.68l-2.6,5.81h-0.85
		l-0.05-5.81h0.67v4.88h0.02L53.59,261.84z"/>
	<path fill="#F9F9F9" stroke="#F9F9F9" stroke-width="0.5" stroke-miterlimit="10" d="M55.42,265.46c0.36-1.65,1.39-2.23,2.22-2.23
		c1.55,0,1.41,1.54,1.26,2.23c-0.36,1.66-1.39,2.22-2.23,2.22C55.91,267.68,55.04,267.18,55.42,265.46z M58.29,265.46
		c0.16-0.74,0.21-1.73-0.76-1.73s-1.35,0.99-1.5,1.73c-0.16,0.74-0.21,1.72,0.75,1.72S58.13,266.19,58.29,265.46z"/>
	<path fill="#F9F9F9" stroke="#F9F9F9" stroke-width="0.5" stroke-miterlimit="10" d="M62.89,262.16h-1.25l0.12-0.5h1.86l-1.3,5.93
		h-0.62L62.89,262.16z"/>
	<path fill="#F9F9F9" stroke="#F9F9F9" stroke-width="0.5" stroke-miterlimit="10" d="M69.45,263.82h-1.57l-0.53,2.44
		c-0.09,0.42-0.19,0.92,0.37,0.92c0.47,0,0.84-0.38,1.09-0.75l0.56,0.14c-0.43,0.62-1.03,1.11-1.77,1.11
		c-0.71,0-1.09-0.34-0.81-1.62l0.48-2.25h-0.94l0.11-0.5h0.94l0.29-1.31h0.62L68,263.31h1.57L69.45,263.82z"/>
	<path fill="#F9F9F9" stroke="#F9F9F9" stroke-width="0.5" stroke-miterlimit="10" d="M73.98,264.54c0.11-0.47-0.11-0.81-0.57-0.81
		c-0.39,0-0.79,0.18-1.17,0.32l-0.02-0.53c0.45-0.16,0.87-0.3,1.33-0.3c0.84,0,1.2,0.67,1.04,1.38l-0.4,1.86
		c-0.08,0.39-0.11,0.79-0.07,1.16l-0.59,0.07l-0.04-0.54c-0.37,0.34-0.74,0.52-1.2,0.52c-0.84,0-1.17-0.64-1-1.4
		c0.18-0.82,0.85-1.54,1.74-1.54c0.33,0,0.62,0.1,0.87,0.21L73.98,264.54z M73.79,265.45c-0.24-0.11-0.5-0.21-0.8-0.21
		c-0.62,0-0.98,0.53-1.1,1.07c-0.09,0.4,0.02,0.86,0.5,0.86c0.48,0,0.85-0.39,1.18-0.73v-0.02L73.79,265.45z"/>
	<path fill="#F9F9F9" stroke="#F9F9F9" stroke-width="0.5" stroke-miterlimit="10" d="M80.65,263.23c-0.26,0.52-0.41,1.06-0.53,1.6
		l-0.52,2.35c-0.29,1.34-1.38,1.72-2.01,1.72c-0.52,0-0.98-0.29-1.25-0.66l0.52-0.37c0.17,0.31,0.51,0.52,0.92,0.52
		c0.65,0,1.07-0.58,1.2-1.18l0.07-0.34c-0.38,0.21-0.69,0.36-1.12,0.36c-1.07,0-1.38-1-1.17-1.93c0.22-1.02,0.91-2.08,2.13-2.08
		c0.42,0,0.71,0.14,0.99,0.38l0.2-0.38H80.65z M79.62,264.26c-0.14-0.29-0.47-0.53-0.85-0.53c-0.81,0-1.26,0.85-1.4,1.5
		c-0.18,0.83,0.08,1.5,0.68,1.5c0.38,0,0.89-0.25,1.14-0.56L79.62,264.26z"/>
	<path fill="#F9F9F9" stroke="#F9F9F9" stroke-width="0.5" stroke-miterlimit="10" d="M82.61,265.61c-0.23,1.18,0.23,1.57,0.9,1.57
		c0.48,0,1.02-0.21,1.47-0.46l0.15,0.54c-0.6,0.24-1.17,0.42-1.77,0.42c-1.3,0-1.58-1.09-1.34-2.2c0.25-1.12,1.03-2.25,2.34-2.25
		c1.46,0,1.33,1.59,1.24,2.05l-0.06,0.33H82.61z M85.02,265.11c0.13-0.7-0.13-1.38-0.82-1.38s-1.14,0.51-1.49,1.38H85.02z"/>
	<path fill="#F9F9F9" stroke="#F9F9F9" stroke-width="0.5" stroke-miterlimit="10" d="M96.02,263.08c0.1-0.48-0.17-0.86-0.67-0.86
		c-1.25,0-1.69,1.65-1.89,2.54c-0.18,0.84-0.44,2.44,0.74,2.44c0.62,0,1.08-0.45,1.21-1.02h0.62c-0.26,0.94-0.98,1.52-1.96,1.52
		c-1.63,0-1.48-1.74-1.21-2.96c0.28-1.26,0.93-3.02,2.59-3.02c0.82,0,1.31,0.56,1.19,1.36H96.02z"/>
	<path fill="#F9F9F9" stroke="#F9F9F9" stroke-width="0.5" stroke-miterlimit="10" d="M98.09,265.46c0.36-1.65,1.39-2.23,2.22-2.23
		c1.55,0,1.41,1.54,1.26,2.23c-0.36,1.66-1.39,2.22-2.23,2.22C98.58,267.68,97.71,267.18,98.09,265.46z M100.96,265.46
		c0.16-0.74,0.21-1.73-0.75-1.73c-0.96,0-1.35,0.99-1.5,1.73c-0.16,0.74-0.21,1.72,0.75,1.72S100.8,266.19,100.96,265.46z"/>
	<path fill="#F9F9F9" stroke="#F9F9F9" stroke-width="0.5" stroke-miterlimit="10" d="M103.7,267.59h-0.62l0.47-2.15
		c0.16-0.72,0.29-1.45,0.27-2.13h0.59l-0.03,0.78c0.42-0.5,1.07-0.87,1.68-0.87c0.7,0,0.92,0.62,0.76,1.35l-0.66,3.01h-0.62
		l0.62-2.84c0.09-0.41,0.23-1.02-0.31-1.02c-0.58,0-1.45,0.58-1.77,2.08L103.7,267.59z"/>
	<path fill="#F9F9F9" stroke="#F9F9F9" stroke-width="0.5" stroke-miterlimit="10" d="M112.12,263.82h-1.57l-0.53,2.44
		c-0.09,0.42-0.19,0.92,0.37,0.92c0.47,0,0.84-0.38,1.09-0.75l0.56,0.14c-0.43,0.62-1.04,1.11-1.77,1.11
		c-0.71,0-1.09-0.34-0.81-1.62l0.48-2.25H109l0.11-0.5h0.95l0.29-1.31h0.62l-0.29,1.31h1.57L112.12,263.82z"/>
	<path fill="#F9F9F9" stroke="#F9F9F9" stroke-width="0.5" stroke-miterlimit="10" d="M114.75,267.59h-0.62l0.53-2.45
		c0.16-0.7,0.22-1.29,0.23-1.82h0.6l-0.04,0.82c0.44-0.5,0.9-0.9,1.56-0.9c0.82,0,0.85,0.78,0.71,1.43h-0.62
		c0.06-0.32,0.24-0.93-0.23-0.93c-0.45,0-1.44,0.66-1.74,2.08L114.75,267.59z"/>
	<path fill="#F9F9F9" stroke="#F9F9F9" stroke-width="0.5" stroke-miterlimit="10" d="M119.42,265.46c0.36-1.65,1.39-2.23,2.22-2.23
		c1.55,0,1.41,1.54,1.26,2.23c-0.36,1.66-1.39,2.22-2.23,2.22C119.92,267.68,119.05,267.18,119.42,265.46z M122.3,265.46
		c0.16-0.74,0.21-1.73-0.75-1.73c-0.96,0-1.35,0.99-1.5,1.73c-0.16,0.74-0.21,1.72,0.75,1.72S122.13,266.19,122.3,265.46z"/>
	<path fill="#F9F9F9" stroke="#F9F9F9" stroke-width="0.5" stroke-miterlimit="10" d="M126.89,262.16h-1.25l0.11-0.5h1.87l-1.3,5.93
		h-0.62L126.89,262.16z"/>
	<path fill="#F9F9F9" stroke="#F9F9F9" stroke-width="0.5" stroke-miterlimit="10" d="M132.22,262.16h-1.25l0.11-0.5h1.87l-1.3,5.93
		h-0.62L132.22,262.16z"/>
	<path fill="#F9F9F9" stroke="#F9F9F9" stroke-width="0.5" stroke-miterlimit="10" d="M135.94,265.61c-0.23,1.18,0.23,1.57,0.9,1.57
		c0.48,0,1.02-0.21,1.47-0.46l0.15,0.54c-0.6,0.24-1.17,0.42-1.77,0.42c-1.3,0-1.58-1.09-1.34-2.2c0.25-1.12,1.03-2.25,2.34-2.25
		c1.46,0,1.33,1.59,1.24,2.05l-0.06,0.33H135.94z M138.36,265.11c0.13-0.7-0.13-1.38-0.82-1.38s-1.14,0.51-1.49,1.38H138.36z"/>
	<path fill="#F9F9F9" stroke="#F9F9F9" stroke-width="0.5" stroke-miterlimit="10" d="M143.1,267.68l-0.03-0.48
		c-0.44,0.32-0.66,0.48-1.17,0.48c-0.77,0-1.63-0.58-1.26-2.25c0.35-1.63,1.54-2.2,2.26-2.2c0.37,0,0.61,0.09,0.87,0.25l0.4-1.81
		h0.62l-0.96,4.4c-0.12,0.53-0.18,1.06-0.12,1.54L143.1,267.68z M143.62,264.08c-0.2-0.19-0.44-0.35-0.75-0.35
		c-0.66,0-1.39,0.54-1.64,1.72c-0.3,1.39,0.37,1.73,0.78,1.73c0.48,0,0.85-0.34,1.1-0.73L143.62,264.08z"/>
	<path fill="#F9F9F9" stroke="#F9F9F9" stroke-width="0.5" stroke-miterlimit="10" d="M155.74,262.34h-2.55l-0.43,2h1.91l-0.12,0.5
		h-1.91l-0.6,2.75h-0.62l1.26-5.76h3.17L155.74,262.34z"/>
	<path fill="#F9F9F9" stroke="#F9F9F9" stroke-width="0.5" stroke-miterlimit="10" d="M158.6,263.82h-1.25l0.12-0.5h1.86l-0.94,4.28
		h-0.62L158.6,263.82z M159.76,262.23c-0.07,0.29-0.35,0.5-0.63,0.5s-0.47-0.21-0.4-0.5c0.06-0.29,0.34-0.5,0.62-0.5
		C159.63,261.72,159.81,261.94,159.76,262.23z"/>
	<path fill="#F9F9F9" stroke="#F9F9F9" stroke-width="0.5" stroke-miterlimit="10" d="M164.23,262.16h-1.25l0.12-0.5h1.86l-1.3,5.93
		h-0.62L164.23,262.16z"/>
	<path fill="#F9F9F9" stroke="#F9F9F9" stroke-width="0.5" stroke-miterlimit="10" d="M170.79,263.82h-1.57l-0.54,2.44
		c-0.09,0.42-0.19,0.92,0.37,0.92c0.47,0,0.84-0.38,1.09-0.75l0.56,0.14c-0.43,0.62-1.03,1.11-1.77,1.11
		c-0.71,0-1.09-0.34-0.81-1.62l0.48-2.25h-0.94l0.12-0.5h0.94l0.29-1.31h0.62l-0.29,1.31h1.57L170.79,263.82z"/>
	<path fill="#F9F9F9" stroke="#F9F9F9" stroke-width="0.5" stroke-miterlimit="10" d="M173.28,265.61c-0.23,1.18,0.23,1.57,0.9,1.57
		c0.48,0,1.02-0.21,1.47-0.46l0.15,0.54c-0.6,0.24-1.17,0.42-1.77,0.42c-1.3,0-1.58-1.09-1.34-2.2c0.25-1.12,1.03-2.25,2.34-2.25
		c1.46,0,1.33,1.59,1.24,2.05l-0.06,0.33H173.28z M175.69,265.11c0.13-0.7-0.13-1.38-0.82-1.38s-1.14,0.51-1.49,1.38H175.69z"/>
	<path fill="#F9F9F9" stroke="#F9F9F9" stroke-width="0.5" stroke-miterlimit="10" d="M178.75,267.59h-0.62l0.53-2.45
		c0.16-0.7,0.22-1.29,0.23-1.82h0.6l-0.04,0.82c0.44-0.5,0.9-0.9,1.56-0.9c0.82,0,0.85,0.78,0.71,1.43h-0.62
		c0.06-0.32,0.24-0.93-0.23-0.93c-0.45,0-1.44,0.66-1.74,2.08L178.75,267.59z"/>
</g>
<polygon id="Arrow_1_" fill="#FCFCFC" points="69.99,323.37 64.5,327.63 59.01,323.37 "/>
<polygon id="Arrow" fill="#FCFCFC" points="169.99,323.37 164.5,327.63 159.01,323.37 "/>
<g>
	<path fill="#FFFFFF" stroke="#FFFFFF" stroke-width="0.4" stroke-miterlimit="10" d="M134.96,509.45c1.47,0,1.2,1.68,0.99,2.62
		c-0.14,0.67-0.51,2.62-2.11,2.62c-1.55,0-1.14-1.91-0.99-2.62C133.3,509.96,134.11,509.45,134.96,509.45z M135.42,512.07
		c0.1-0.46,0.53-2.18-0.56-2.18c-1.12,0-1.42,1.88-1.48,2.18c-0.12,0.57-0.5,2.18,0.55,2.18
		C134.46,514.25,135.03,513.9,135.42,512.07z"/>
	<path fill="#FFFFFF" stroke="#FFFFFF" stroke-width="0.4" stroke-miterlimit="10" d="M140.37,509.55h0.58l-2.22,5.09h-0.72
		l-0.04-5.09h0.57v4.28h0.01L140.37,509.55z"/>
	<path fill="#FFFFFF" stroke="#FFFFFF" stroke-width="0.4" stroke-miterlimit="10" d="M145.43,509.99h-2.09l-0.39,1.79h1.51
		l-0.09,0.44h-1.51l-0.41,1.93h2.14l-0.09,0.44h-2.67l1.07-5.04h2.62L145.43,509.99z"/>
	<path fill="#FFFFFF" stroke="#FFFFFF" stroke-width="0.4" stroke-miterlimit="10" d="M147.4,509.55h1.31
		c1.26,0,1.13,1.13,1.07,1.43c-0.11,0.52-0.41,0.99-1.2,1.39l0.89,2.22h-0.64l-0.78-2.1c-0.25,0.01-0.5,0.01-0.76,0.01l-0.44,2.09
		h-0.53L147.4,509.55z M147.89,512.06c0.71,0,1.21-0.36,1.37-1.11c0.14-0.67-0.08-0.96-0.91-0.96h-0.52l-0.44,2.07H147.89z"/>
	<path fill="#FFFFFF" stroke="#FFFFFF" stroke-width="0.4" stroke-miterlimit="10" d="M151.82,509.55h1.28
		c0.97,0,1.51,0.55,1.09,2.52c-0.41,1.94-1.14,2.52-2.24,2.52h-1.21L151.82,509.55z M151.36,514.15h0.64c0.74,0,1.26-0.2,1.66-2.08
		c0.41-1.93-0.11-2.08-0.78-2.08h-0.63L151.36,514.15z"/>
	<path fill="#FFFFFF" stroke="#FFFFFF" stroke-width="0.4" stroke-miterlimit="10" d="M156.5,509.55h1.31
		c1.26,0,1.13,1.13,1.07,1.43c-0.11,0.52-0.41,0.99-1.2,1.39l0.89,2.22h-0.64l-0.78-2.1c-0.25,0.01-0.5,0.01-0.76,0.01l-0.44,2.09
		h-0.52L156.5,509.55z M156.99,512.06c0.71,0,1.21-0.36,1.37-1.11c0.14-0.67-0.08-0.96-0.91-0.96h-0.52l-0.44,2.07H156.99z"/>
	<path fill="#FFFFFF" stroke="#FFFFFF" stroke-width="0.4" stroke-miterlimit="10" d="M163.09,509.99h-0.69l-0.89,4.16h0.69
		l-0.09,0.44h-1.89l0.09-0.44h0.68l0.89-4.16h-0.68l0.09-0.44h1.89L163.09,509.99z"/>
	<path fill="#FFFFFF" stroke="#FFFFFF" stroke-width="0.4" stroke-miterlimit="10" d="M167.67,509.55h0.58l-2.22,5.09h-0.72
		l-0.04-5.09h0.57v4.28h0.01L167.67,509.55z"/>
	<path fill="#FFFFFF" stroke="#FFFFFF" stroke-width="0.4" stroke-miterlimit="10" d="M172.73,509.99h-2.09l-0.39,1.79h1.51
		l-0.09,0.44h-1.51l-0.41,1.93h2.14l-0.09,0.44h-2.67l1.07-5.04h2.62L172.73,509.99z"/>
</g>
<g>
	<path fill="#FFFFFF" stroke="#FFFFFF" stroke-width="0.4" stroke-miterlimit="10" d="M59.19,509.55h1.31
		c1.26,0,1.13,1.13,1.07,1.43c-0.11,0.52-0.41,0.99-1.2,1.39l0.89,2.22h-0.64l-0.78-2.1c-0.25,0.01-0.5,0.01-0.76,0.01l-0.44,2.09
		h-0.53L59.19,509.55z M59.68,512.06c0.71,0,1.21-0.36,1.37-1.11c0.14-0.67-0.08-0.96-0.91-0.96h-0.52l-0.44,2.07H59.68z"/>
	<path fill="#FFFFFF" stroke="#FFFFFF" stroke-width="0.4" stroke-miterlimit="10" d="M66.33,509.99h-2.09l-0.39,1.79h1.51
		l-0.09,0.44h-1.51l-0.41,1.93h2.14l-0.09,0.44h-2.67l1.07-5.04h2.62L66.33,509.99z"/>
	<path fill="#FFFFFF" stroke="#FFFFFF" stroke-width="0.4" stroke-miterlimit="10" d="M70.38,510.46c-0.25-0.27-0.53-0.57-0.97-0.57
		c-0.45,0-0.88,0.31-0.98,0.77c-0.06,0.27-0.06,0.5,0.53,0.92l0.35,0.25c0.81,0.57,1,0.83,0.88,1.42c-0.2,0.9-0.91,1.44-1.79,1.44
		c-0.65,0-1.06-0.31-1.35-0.82l0.48-0.32c0.16,0.39,0.48,0.7,0.97,0.7c0.53,0,1.04-0.39,1.16-0.93c0.08-0.41,0.08-0.54-0.69-1.08
		l-0.39-0.27c-0.43-0.3-0.8-0.64-0.67-1.27c0.17-0.79,0.87-1.25,1.62-1.25c0.53,0,0.95,0.28,1.25,0.63L70.38,510.46z"/>
	<path fill="#FFFFFF" stroke="#FFFFFF" stroke-width="0.4" stroke-miterlimit="10" d="M74.05,509.45c1.47,0,1.2,1.68,0.99,2.62
		c-0.14,0.67-0.51,2.62-2.11,2.62c-1.55,0-1.14-1.9-0.99-2.62C72.4,509.96,73.2,509.45,74.05,509.45z M74.52,512.07
		c0.1-0.46,0.53-2.18-0.56-2.18c-1.12,0-1.42,1.88-1.48,2.18c-0.12,0.57-0.5,2.18,0.55,2.18C73.55,514.25,74.12,513.9,74.52,512.07z
		"/>
	<path fill="#FFFFFF" stroke="#FFFFFF" stroke-width="0.4" stroke-miterlimit="10" d="M77.28,509.55h0.61l0.74,3.77h0.02l0.8-3.77
		h0.53l-1.08,5.09h-0.5l-0.79-4.07l-0.01,0.01l-0.85,4.01h-0.53L77.28,509.55z"/>
	<path fill="#FFFFFF" stroke="#FFFFFF" stroke-width="0.4" stroke-miterlimit="10" d="M83.85,514.59h-0.57l-0.13-1.48h-1.53
		l-0.76,1.48h-0.57l2.94-5.46L83.85,514.59z M81.83,512.67h1.28l-0.21-2.04L81.83,512.67z"/>
	<path fill="#FFFFFF" stroke="#FFFFFF" stroke-width="0.4" stroke-miterlimit="10" d="M86.38,509.55h0.61l0.74,3.77h0.02l0.8-3.77
		h0.53l-1.08,5.09h-0.5l-0.79-4.07l-0.01,0.01l-0.85,4.01h-0.53L86.38,509.55z"/>
	<path fill="#FFFFFF" stroke="#FFFFFF" stroke-width="0.4" stroke-miterlimit="10" d="M92.91,510.64c0.08-0.42-0.15-0.75-0.58-0.75
		c-1.06,0-1.44,1.44-1.61,2.22c-0.15,0.74-0.38,2.14,0.63,2.14c0.53,0,0.92-0.39,1.04-0.89h0.53c-0.22,0.82-0.83,1.33-1.67,1.33
		c-1.39,0-1.26-1.52-1.04-2.59c0.24-1.11,0.79-2.65,2.21-2.65c0.7,0,1.12,0.49,1.02,1.19H92.91z"/>
	<path fill="#FFFFFF" stroke="#FFFFFF" stroke-width="0.4" stroke-miterlimit="10" d="M98.18,509.99h-2.09l-0.39,1.79h1.51
		l-0.09,0.44h-1.51l-0.41,1.93h2.14l-0.09,0.44h-2.67l1.07-5.04h2.62L98.18,509.99z"/>
</g>
<g>
	<path fill="#FFFFFF" stroke="#FFFFFF" stroke-width="0.4" stroke-miterlimit="10" d="M106.9,314.99h-2.18l-0.37,1.75h1.63
		l-0.1,0.44h-1.63l-0.51,2.41h-0.53l1.07-5.04h2.7L106.9,314.99z"/>
	<path fill="#FFFFFF" stroke="#FFFFFF" stroke-width="0.4" stroke-miterlimit="10" d="M108.69,314.55H110
		c1.26,0,1.13,1.13,1.07,1.43c-0.11,0.52-0.41,0.99-1.2,1.39l0.89,2.22h-0.64l-0.78-2.1c-0.25,0.01-0.5,0.01-0.76,0.01l-0.44,2.09
		h-0.53L108.69,314.55z M109.18,317.06c0.71,0,1.21-0.36,1.37-1.11c0.14-0.67-0.08-0.96-0.91-0.96h-0.52l-0.44,2.07H109.18z"/>
	<path fill="#FFFFFF" stroke="#FFFFFF" stroke-width="0.4" stroke-miterlimit="10" d="M112.34,317.07c0.45-2.12,1.26-2.62,2.11-2.62
		c1.65,0,1.11,2.12,1,2.62c-0.2,0.93-0.43,1.65-0.97,2.14l0.45,0.8h-0.64l-0.25-0.49c-0.22,0.11-0.48,0.17-0.71,0.17
		C111.74,319.69,112.2,317.71,112.34,317.07z M113.43,319.25c0.62,0,1.15-0.53,1.5-2.18c0.38-1.79-0.04-2.18-0.57-2.18
		c-1.15,0-1.45,1.97-1.49,2.18C112.48,318.86,112.9,319.25,113.43,319.25z"/>
	<path fill="#FFFFFF" stroke="#FFFFFF" stroke-width="0.4" stroke-miterlimit="10" d="M124.21,315.64c0.08-0.42-0.15-0.75-0.58-0.75
		c-1.06,0-1.44,1.44-1.61,2.22c-0.15,0.73-0.38,2.14,0.63,2.14c0.53,0,0.93-0.39,1.04-0.89h0.53c-0.22,0.82-0.83,1.33-1.67,1.33
		c-1.39,0-1.26-1.52-1.04-2.59c0.24-1.11,0.79-2.65,2.21-2.65c0.7,0,1.12,0.49,1.01,1.19H124.21z"/>
	<path fill="#FFFFFF" stroke="#FFFFFF" stroke-width="0.4" stroke-miterlimit="10" d="M128.96,314.55h0.58l-2.22,5.09h-0.72
		l-0.04-5.09h0.57v4.28h0.01L128.96,314.55z"/>
</g>
<g>
	<path fill="#FFFFFF" stroke="#FFFFFF" stroke-width="0.4" stroke-miterlimit="10" d="M52.98,314.55h1.31
		c1.26,0,1.13,1.13,1.07,1.43c-0.11,0.52-0.41,0.99-1.2,1.39l0.89,2.22h-0.64l-0.78-2.1c-0.25,0.01-0.5,0.01-0.76,0.01l-0.44,2.09
		h-0.53L52.98,314.55z M53.47,317.06c0.71,0,1.21-0.36,1.37-1.11c0.14-0.67-0.08-0.96-0.91-0.96h-0.52l-0.44,2.07H53.47z"/>
	<path fill="#FFFFFF" stroke="#FFFFFF" stroke-width="0.4" stroke-miterlimit="10" d="M60.11,314.99h-2.09l-0.39,1.79h1.51
		l-0.09,0.44h-1.51l-0.41,1.93h2.14l-0.09,0.44h-2.67l1.07-5.04h2.62L60.11,314.99z"/>
	<path fill="#FFFFFF" stroke="#FFFFFF" stroke-width="0.4" stroke-miterlimit="10" d="M64.17,315.46c-0.25-0.27-0.53-0.57-0.97-0.57
		c-0.45,0-0.88,0.31-0.98,0.77c-0.06,0.27-0.06,0.5,0.53,0.92l0.35,0.25c0.81,0.57,1,0.83,0.88,1.42c-0.2,0.9-0.91,1.44-1.79,1.44
		c-0.65,0-1.06-0.32-1.35-0.82l0.48-0.32c0.16,0.39,0.48,0.7,0.97,0.7c0.53,0,1.04-0.39,1.16-0.93c0.08-0.41,0.08-0.54-0.69-1.08
		l-0.39-0.27c-0.43-0.3-0.8-0.64-0.67-1.27c0.17-0.79,0.87-1.25,1.62-1.25c0.53,0,0.95,0.28,1.25,0.63L64.17,315.46z"/>
	<path fill="#FFFFFF" stroke="#FFFFFF" stroke-width="0.4" stroke-miterlimit="10" d="M73.04,315.64c0.08-0.42-0.15-0.75-0.58-0.75
		c-1.06,0-1.44,1.44-1.61,2.22c-0.15,0.73-0.38,2.14,0.63,2.14c0.53,0,0.92-0.39,1.04-0.89h0.53c-0.22,0.82-0.83,1.33-1.67,1.33
		c-1.39,0-1.26-1.52-1.04-2.59c0.24-1.11,0.79-2.65,2.21-2.65c0.7,0,1.12,0.49,1.01,1.19H73.04z"/>
	<path fill="#FFFFFF" stroke="#FFFFFF" stroke-width="0.4" stroke-miterlimit="10" d="M77.8,314.55h0.58l-2.22,5.09h-0.72
		l-0.04-5.09h0.57v4.28h0.01L77.8,314.55z"/>
</g>
<g id="BorderMarkers">
	<polyline fill="none" stroke="#D3D3D3" stroke-miterlimit="10" points="182,276.33 190.5,276.33 190.5,284.5 	"/>
	<polyline fill="none" stroke="#D3D3D3" stroke-miterlimit="10" points="49,586.34 40.5,586.34 40.5,578.17 	"/>
	<polyline fill="none" stroke="#D3D3D3" stroke-miterlimit="10" points="40.5,284.83 40.5,276.33 48.67,276.33 	"/>
	<polyline fill="none" stroke="#D3D3D3" stroke-miterlimit="10" points="190.5,577.84 190.5,586.34 182.33,586.34 	"/>
</g>
<g id="Controls">
	<g id="ScaleBig">
		<g id="Scale_1_">
			<g id="Big_1_">
				<line fill="none" stroke="#F9F9F9" stroke-miterlimit="10" x1="115.5" y1="432.37" x2="115.5" y2="375.63"/>
				<line fill="none" stroke="#F9F9F9" stroke-miterlimit="10" x1="148.71" y1="408.85" x2="82.29" y2="408.85"/>
				<line fill="none" stroke="#F9F9F9" stroke-miterlimit="10" x1="86.74" y1="425.46" x2="144.27" y2="392.24"/>
				<line fill="none" stroke="#F9F9F9" stroke-miterlimit="10" x1="98.89" y1="437.61" x2="132.11" y2="380.08"/>
				<line fill="none" stroke="#F9F9F9" stroke-miterlimit="10" x1="144.27" y1="425.46" x2="86.74" y2="392.24"/>
				<line fill="none" stroke="#F9F9F9" stroke-miterlimit="10" x1="132.11" y1="437.61" x2="98.89" y2="380.08"/>
			</g>
			<g id="Small_1_">
				<g id="smallScale_7_">
					<line fill="none" stroke="#F9F9F9" stroke-miterlimit="10" x1="118.09" y1="433.62" x2="112.36" y2="379.11"/>
					<line fill="none" stroke="#F9F9F9" stroke-miterlimit="10" x1="145.35" y1="405.82" x2="85.65" y2="412.09"/>
					<line fill="none" stroke="#F9F9F9" stroke-miterlimit="10" x1="91.22" y1="426.59" x2="139.78" y2="391.31"/>
					<line fill="none" stroke="#F9F9F9" stroke-miterlimit="10" x1="105.46" y1="431.51" x2="127.71" y2="381.54"/>
					<line fill="none" stroke="#F9F9F9" stroke-miterlimit="10" x1="142.92" y1="421.16" x2="88.08" y2="396.75"/>
					<line fill="none" stroke="#F9F9F9" stroke-miterlimit="10" x1="133.14" y1="433.23" x2="97.86" y2="384.67"/>
				</g>
				<g id="smallScale_6_">
					<line fill="none" stroke="#F9F9F9" stroke-miterlimit="10" x1="120.63" y1="433.09" x2="109.26" y2="379.6"/>
					<line fill="none" stroke="#F9F9F9" stroke-miterlimit="10" x1="144.86" y1="402.71" x2="86.14" y2="415.2"/>
					<line fill="none" stroke="#F9F9F9" stroke-miterlimit="10" x1="93.2" y1="429.04" x2="137.8" y2="388.87"/>
					<line fill="none" stroke="#F9F9F9" stroke-miterlimit="10" x1="107.88" y1="432.42" x2="124.77" y2="380.41"/>
					<line fill="none" stroke="#F9F9F9" stroke-miterlimit="10" x1="144.04" y1="418.23" x2="86.96" y2="399.68"/>
					<line fill="none" stroke="#F9F9F9" stroke-miterlimit="10" x1="135.58" y1="431.26" x2="95.42" y2="386.65"/>
				</g>
				<g id="smallScale_5_">
					<line fill="none" stroke="#F9F9F9" stroke-miterlimit="10" x1="123.13" y1="432.42" x2="106.23" y2="380.41"/>
					<line fill="none" stroke="#F9F9F9" stroke-miterlimit="10" x1="144.04" y1="399.68" x2="86.96" y2="418.23"/>
					<line fill="none" stroke="#F9F9F9" stroke-miterlimit="10" x1="95.42" y1="431.26" x2="135.58" y2="386.65"/>
					<line fill="none" stroke="#F9F9F9" stroke-miterlimit="10" x1="110.37" y1="433.09" x2="121.74" y2="379.6"/>
					<line fill="none" stroke="#F9F9F9" stroke-miterlimit="10" x1="144.86" y1="415.19" x2="86.14" y2="402.71"/>
					<line fill="none" stroke="#F9F9F9" stroke-miterlimit="10" x1="137.8" y1="429.04" x2="93.2" y2="388.87"/>
				</g>
				<g id="smallScale_4_">
					<line fill="none" stroke="#F9F9F9" stroke-miterlimit="10" x1="125.54" y1="431.51" x2="103.29" y2="381.54"/>
					<line fill="none" stroke="#F9F9F9" stroke-miterlimit="10" x1="142.92" y1="396.75" x2="88.08" y2="421.16"/>
					<line fill="none" stroke="#F9F9F9" stroke-miterlimit="10" x1="97.86" y1="433.23" x2="133.14" y2="384.67"/>
					<line fill="none" stroke="#F9F9F9" stroke-miterlimit="10" x1="112.92" y1="433.48" x2="118.64" y2="379.11"/>
					<line fill="none" stroke="#F9F9F9" stroke-miterlimit="10" x1="145.35" y1="412.09" x2="85.65" y2="405.82"/>
					<line fill="none" stroke="#F9F9F9" stroke-miterlimit="10" x1="139.78" y1="426.59" x2="91.22" y2="391.31"/>
				</g>
			</g>
			<path id="OuterCircle_1_" display="none" fill="none" stroke="#F9F9F9" stroke-miterlimit="10" d="M85.18,456.91
				c-11.04-5.84-18.55-17.44-18.55-30.8c0-19.23,15.59-34.82,34.82-34.82c19.23,0,34.82,15.59,34.82,34.82
				c0,13.26-7.4,24.78-18.3,30.66"/>
			<path id="InnerCircle_1_" display="none" fill="none" stroke="#F9F9F9" stroke-width="0.5" stroke-miterlimit="10" d="
				M87.5,452.68c-9.54-5.02-16.05-15.03-16.05-26.57c0-16.57,13.43-30,30-30s30,13.43,30,30c0,11.49-6.46,21.47-15.94,26.51"/>
		</g>
		<circle id="Circle_1_" display="none" fill="#333333" cx="115.5" cy="408.91" r="27.5"/>
	</g>
	<g id="BigKnob_1_" display="none">
		<circle display="inline" fill="#232323" cx="115.5" cy="409.5" r="27.5"/>
		<circle display="inline" fill="#C1C1C1" cx="115.5" cy="409.5" r="25.25"/>
		
			<path id="path8603" inkscape:connector-curvature="0" display="inline" fill="#EFEFEF" stroke="#353535" stroke-width="0.4" stroke-miterlimit="10" d="
			M138.75,397.29c-1.49-2.95-3.51-5.58-5.93-7.76c-4.75,0.6-9.62-1.89-11.99-6.12c-1.57-0.33-3.2-0.52-4.86-0.55
			c-1.66-0.03-3.29,0.11-4.88,0.38c-2.52,4.14-7.47,6.46-12.2,5.7c-2.5,2.1-4.61,4.65-6.2,7.55c1.67,4.65,0.33,10.14-3.31,13.44
			c0.06,3.35,0.72,6.55,1.89,9.5c4.73,1.53,8.19,6.13,8.41,11.18c2.49,1.92,5.32,3.4,8.4,4.33c4.15-2.86,9.9-2.76,13.94,0.24
			c3.11-0.82,6-2.19,8.55-4.03c0.4-5.04,4.01-9.52,8.8-10.88c1.27-2.9,2.05-6.08,2.22-9.43
			C138.07,407.41,136.92,401.88,138.75,397.29"/>
		
			<circle display="inline" fill="#E0E0E0" stroke="#050404" stroke-width="0.3" stroke-miterlimit="10" cx="115.5" cy="409.5" r="16.84"/>
		
			<circle display="inline" fill="#020202" stroke="#050404" stroke-width="0.3" stroke-miterlimit="10" cx="115.88" cy="387.55" r="2.17"/>
	</g>
	<g id="ScaleMiddle_1_">
		<g id="Scale">
			<g id="Big">
				<line fill="none" stroke="#F9F9F9" stroke-width="2" stroke-miterlimit="10" x1="78.5" y1="484.4" x2="78.5" y2="460.06"/>
				<line fill="none" stroke="#F9F9F9" stroke-width="2" stroke-miterlimit="10" x1="101.19" y1="482.76" x2="55.81" y2="482.76"/>
				<line fill="none" stroke="#F9F9F9" stroke-width="2" stroke-miterlimit="10" x1="58.85" y1="494.1" x2="98.15" y2="471.41"/>
				<line fill="none" stroke="#F9F9F9" stroke-width="2" stroke-miterlimit="10" x1="67.15" y1="502.41" x2="89.84" y2="463.11"/>
				<line fill="none" stroke="#F9F9F9" stroke-width="2" stroke-miterlimit="10" x1="98.15" y1="494.1" x2="58.85" y2="471.41"/>
				<line fill="none" stroke="#F9F9F9" stroke-width="2" stroke-miterlimit="10" x1="89.84" y1="502.41" x2="67.15" y2="463.11"/>
			</g>
		</g>
		<path id="Circle" display="none" fill="#323232" d="M98.5,482.94c0,11.05-8.95,20-20,20c-11.04,0-20-8.95-20-20
			c0-11.04,8.95-20,20-20C89.55,462.94,98.5,471.89,98.5,482.94z"/>
	</g>
	<g id="MiddleKnob" display="none">
		<circle display="inline" fill="#232323" cx="78.5" cy="483" r="20"/>
		<circle display="inline" fill="#C1C1C1" cx="78.5" cy="483" r="18.37"/>
		
			<path id="path8603_1_" inkscape:connector-curvature="0" display="inline" fill="#EFEFEF" stroke="#353535" stroke-width="0.4" stroke-miterlimit="10" d="
			M95.25,473.82c-1.12-2.13-2.62-4.01-4.41-5.57c-3.45,0.49-7.02-1.25-8.8-4.3c-1.15-0.22-2.33-0.34-3.54-0.34
			c-1.21,0-2.39,0.12-3.54,0.34c-1.78,3.04-5.35,4.79-8.8,4.3c-1.79,1.56-3.29,3.44-4.41,5.57c1.28,3.36,0.37,7.37-2.23,9.82
			c0.09,2.44,0.61,4.76,1.5,6.88c3.46,1.05,6.03,4.36,6.26,8.03c1.83,1.37,3.91,2.41,6.16,3.04c2.98-2.13,7.16-2.13,10.13,0
			c2.25-0.63,4.33-1.67,6.17-3.04c0.22-3.67,2.8-6.97,6.26-8.03c0.89-2.12,1.41-4.45,1.49-6.88
			C94.89,481.19,93.98,477.19,95.25,473.82"/>
		
			<circle display="inline" fill="#E0E0E0" stroke="#050404" stroke-width="0.3" stroke-miterlimit="10" cx="78.5" cy="483" r="13.5"/>
		
			<circle display="inline" fill="#020202" stroke="#050404" stroke-width="0.3" stroke-miterlimit="10" cx="78.5" cy="467.03" r="1.58"/>
	</g>
	<g id="ScaleSmall_1_">
		<g id="Scale_3_">
			<g id="Big_3_" display="none">
				
					<line display="inline" fill="none" stroke="#F9F9F9" stroke-width="0.8" stroke-miterlimit="10" x1="160.5" y1="170.84" x2="160.5" y2="156.81"/>
				
					<line display="inline" fill="none" stroke="#F9F9F9" stroke-width="0.8" stroke-miterlimit="10" x1="173.59" y1="169.9" x2="147.41" y2="169.9"/>
				
					<line display="inline" fill="none" stroke="#F9F9F9" stroke-width="0.8" stroke-miterlimit="10" x1="149.16" y1="176.44" x2="171.84" y2="163.35"/>
				
					<line display="inline" fill="none" stroke="#F9F9F9" stroke-width="0.8" stroke-miterlimit="10" x1="153.96" y1="181.23" x2="167.04" y2="158.56"/>
				
					<line display="inline" fill="none" stroke="#F9F9F9" stroke-width="0.8" stroke-miterlimit="10" x1="171.84" y1="176.44" x2="149.16" y2="163.35"/>
				
					<line display="inline" fill="none" stroke="#F9F9F9" stroke-width="0.8" stroke-miterlimit="10" x1="167.04" y1="181.23" x2="153.96" y2="158.56"/>
			</g>
			<g id="Small_3_" display="none">
				<g id="smallScale_15_" display="inline">
					<line fill="none" stroke="#F9F9F9" stroke-miterlimit="10" x1="162.56" y1="182.27" x2="159.92" y2="157.11"/>
					<line fill="none" stroke="#F9F9F9" stroke-miterlimit="10" x1="175.14" y1="169.44" x2="147.59" y2="172.34"/>
					<line fill="none" stroke="#F9F9F9" stroke-miterlimit="10" x1="150.16" y1="179.03" x2="172.57" y2="162.75"/>
					<line fill="none" stroke="#F9F9F9" stroke-miterlimit="10" x1="156.73" y1="181.3" x2="167" y2="158.23"/>
					<line fill="none" stroke="#F9F9F9" stroke-miterlimit="10" x1="174.02" y1="176.52" x2="148.71" y2="165.25"/>
					<line fill="none" stroke="#F9F9F9" stroke-miterlimit="10" x1="169.51" y1="182.09" x2="153.22" y2="159.68"/>
				</g>
				<g id="smallScale_14_" display="inline">
					<line fill="none" stroke="#F9F9F9" stroke-miterlimit="10" x1="163.73" y1="182.03" x2="158.49" y2="157.34"/>
					<line fill="none" stroke="#F9F9F9" stroke-miterlimit="10" x1="174.91" y1="168.01" x2="147.82" y2="173.77"/>
					<line fill="none" stroke="#F9F9F9" stroke-miterlimit="10" x1="151.07" y1="180.16" x2="171.66" y2="161.62"/>
					<line fill="none" stroke="#F9F9F9" stroke-miterlimit="10" x1="157.85" y1="181.72" x2="165.64" y2="157.71"/>
					<line fill="none" stroke="#F9F9F9" stroke-miterlimit="10" x1="174.54" y1="175.17" x2="148.19" y2="166.61"/>
					<line fill="none" stroke="#F9F9F9" stroke-miterlimit="10" x1="170.63" y1="181.18" x2="152.1" y2="160.59"/>
				</g>
				<g id="smallScale_13_" display="inline">
					<line fill="none" stroke="#F9F9F9" stroke-miterlimit="10" x1="164.88" y1="181.72" x2="157.09" y2="157.71"/>
					<line fill="none" stroke="#F9F9F9" stroke-miterlimit="10" x1="174.54" y1="166.61" x2="148.19" y2="175.17"/>
					<line fill="none" stroke="#F9F9F9" stroke-miterlimit="10" x1="152.1" y1="181.18" x2="170.63" y2="160.59"/>
					<line fill="none" stroke="#F9F9F9" stroke-miterlimit="10" x1="159" y1="182.02" x2="164.24" y2="157.34"/>
					<line fill="none" stroke="#F9F9F9" stroke-miterlimit="10" x1="174.92" y1="173.77" x2="147.82" y2="168.01"/>
					<line fill="none" stroke="#F9F9F9" stroke-miterlimit="10" x1="171.66" y1="180.16" x2="151.07" y2="161.62"/>
				</g>
				<g id="smallScale_12_" display="inline">
					<line fill="none" stroke="#F9F9F9" stroke-miterlimit="10" x1="166" y1="181.3" x2="155.73" y2="158.23"/>
					<line fill="none" stroke="#F9F9F9" stroke-miterlimit="10" x1="174.02" y1="165.25" x2="148.71" y2="176.52"/>
					<line fill="none" stroke="#F9F9F9" stroke-miterlimit="10" x1="153.22" y1="182.09" x2="169.51" y2="159.68"/>
					<line fill="none" stroke="#F9F9F9" stroke-miterlimit="10" x1="160.18" y1="182.21" x2="162.81" y2="157.11"/>
					<line fill="none" stroke="#F9F9F9" stroke-miterlimit="10" x1="175.14" y1="172.34" x2="147.59" y2="169.44"/>
					<line fill="none" stroke="#F9F9F9" stroke-miterlimit="10" x1="172.57" y1="179.03" x2="150.16" y2="162.75"/>
				</g>
			</g>
			<path id="InnerCircle_3_" display="none" fill="none" stroke="#F9F9F9" stroke-width="0.5" stroke-miterlimit="10" d="
				M154.93,183.13c-4.4-2.32-7.41-6.94-7.41-12.26c0-7.65,6.2-13.85,13.85-13.85s13.85,6.2,13.85,13.85c0,5.3-2.98,9.91-7.36,12.24"
				/>
		</g>
	</g>
	<g id="ScaleSmall_2_">
		<g id="Scale_4_">
			<g id="Big_4_" display="none">
				
					<line display="inline" fill="none" stroke="#F9F9F9" stroke-width="0.8" stroke-miterlimit="10" x1="165.04" y1="348.74" x2="165.04" y2="334.71"/>
				
					<line display="inline" fill="none" stroke="#F9F9F9" stroke-width="0.8" stroke-miterlimit="10" x1="178.13" y1="347.79" x2="151.95" y2="347.79"/>
				
					<line display="inline" fill="none" stroke="#F9F9F9" stroke-width="0.8" stroke-miterlimit="10" x1="153.7" y1="354.34" x2="176.38" y2="341.25"/>
				
					<line display="inline" fill="none" stroke="#F9F9F9" stroke-width="0.8" stroke-miterlimit="10" x1="158.49" y1="359.13" x2="171.58" y2="336.46"/>
				
					<line display="inline" fill="none" stroke="#F9F9F9" stroke-width="0.8" stroke-miterlimit="10" x1="176.38" y1="354.34" x2="153.7" y2="341.25"/>
				
					<line display="inline" fill="none" stroke="#F9F9F9" stroke-width="0.8" stroke-miterlimit="10" x1="171.58" y1="359.13" x2="158.49" y2="336.46"/>
			</g>
			<g id="Small_4_" display="none">
				<g id="smallScale_19_" display="inline">
					<line fill="none" stroke="#F9F9F9" stroke-miterlimit="10" x1="167.1" y1="360.17" x2="164.46" y2="335.01"/>
					<line fill="none" stroke="#F9F9F9" stroke-miterlimit="10" x1="179.68" y1="347.34" x2="152.13" y2="350.23"/>
					<line fill="none" stroke="#F9F9F9" stroke-miterlimit="10" x1="154.7" y1="356.93" x2="177.11" y2="340.64"/>
					<line fill="none" stroke="#F9F9F9" stroke-miterlimit="10" x1="161.27" y1="359.2" x2="171.54" y2="336.13"/>
					<line fill="none" stroke="#F9F9F9" stroke-miterlimit="10" x1="178.56" y1="354.42" x2="153.25" y2="343.15"/>
					<line fill="none" stroke="#F9F9F9" stroke-miterlimit="10" x1="174.05" y1="359.99" x2="157.76" y2="337.58"/>
				</g>
				<g id="smallScale_18_" display="inline">
					<line fill="none" stroke="#F9F9F9" stroke-miterlimit="10" x1="168.27" y1="359.92" x2="163.02" y2="335.24"/>
					<line fill="none" stroke="#F9F9F9" stroke-miterlimit="10" x1="179.45" y1="345.91" x2="152.35" y2="351.67"/>
					<line fill="none" stroke="#F9F9F9" stroke-miterlimit="10" x1="155.61" y1="358.05" x2="176.2" y2="339.52"/>
					<line fill="none" stroke="#F9F9F9" stroke-miterlimit="10" x1="162.39" y1="359.62" x2="170.18" y2="335.61"/>
					<line fill="none" stroke="#F9F9F9" stroke-miterlimit="10" x1="179.08" y1="353.07" x2="152.73" y2="344.51"/>
					<line fill="none" stroke="#F9F9F9" stroke-miterlimit="10" x1="175.17" y1="359.08" x2="156.64" y2="338.49"/>
				</g>
				<g id="smallScale_17_" display="inline">
					<line fill="none" stroke="#F9F9F9" stroke-miterlimit="10" x1="169.42" y1="359.62" x2="161.62" y2="335.61"/>
					<line fill="none" stroke="#F9F9F9" stroke-miterlimit="10" x1="179.08" y1="344.51" x2="152.73" y2="353.07"/>
					<line fill="none" stroke="#F9F9F9" stroke-miterlimit="10" x1="156.64" y1="359.08" x2="175.17" y2="338.49"/>
					<line fill="none" stroke="#F9F9F9" stroke-miterlimit="10" x1="163.54" y1="359.92" x2="168.78" y2="335.24"/>
					<line fill="none" stroke="#F9F9F9" stroke-miterlimit="10" x1="179.45" y1="351.67" x2="152.35" y2="345.91"/>
					<line fill="none" stroke="#F9F9F9" stroke-miterlimit="10" x1="176.2" y1="358.05" x2="155.61" y2="339.52"/>
				</g>
				<g id="smallScale_16_" display="inline">
					<line fill="none" stroke="#F9F9F9" stroke-miterlimit="10" x1="170.54" y1="359.2" x2="160.27" y2="336.13"/>
					<line fill="none" stroke="#F9F9F9" stroke-miterlimit="10" x1="178.56" y1="343.15" x2="153.25" y2="354.42"/>
					<line fill="none" stroke="#F9F9F9" stroke-miterlimit="10" x1="157.76" y1="359.99" x2="174.05" y2="337.58"/>
					<line fill="none" stroke="#F9F9F9" stroke-miterlimit="10" x1="164.71" y1="360.1" x2="167.35" y2="335.01"/>
					<line fill="none" stroke="#F9F9F9" stroke-miterlimit="10" x1="179.68" y1="350.23" x2="152.13" y2="347.34"/>
					<line fill="none" stroke="#F9F9F9" stroke-miterlimit="10" x1="177.11" y1="356.93" x2="154.7" y2="340.64"/>
				</g>
			</g>
			<path id="OuterCircle_3_" fill="none" stroke="#F9F9F9" stroke-width="0.6" stroke-miterlimit="10" d="M158.22,360.85
				c-4.36-2.3-7.33-6.88-7.33-12.16c0-7.59,6.16-13.75,13.75-13.75s13.75,6.16,13.75,13.75c0,5.23-2.92,9.79-7.23,12.11"/>
			<path id="InnerCircle_4_" display="none" fill="none" stroke="#F9F9F9" stroke-width="0.5" stroke-miterlimit="10" d="
				M159.46,361.03c-4.4-2.32-7.41-6.94-7.41-12.26c0-7.65,6.2-13.85,13.85-13.85s13.85,6.2,13.85,13.85c0,5.3-2.98,9.91-7.36,12.24"
				/>
		</g>
		<circle id="Circle_3_" fill="#323232" cx="164.65" cy="348.7" r="11"/>
	</g>
	<g id="ScaleSmall_3_">
		<g id="Scale_5_">
			<g id="Big_5_" display="none">
				
					<line display="inline" fill="none" stroke="#F9F9F9" stroke-width="0.8" stroke-miterlimit="10" x1="114.75" y1="348.74" x2="114.75" y2="334.71"/>
				
					<line display="inline" fill="none" stroke="#F9F9F9" stroke-width="0.8" stroke-miterlimit="10" x1="127.84" y1="347.79" x2="101.66" y2="347.79"/>
				
					<line display="inline" fill="none" stroke="#F9F9F9" stroke-width="0.8" stroke-miterlimit="10" x1="103.41" y1="354.34" x2="126.09" y2="341.25"/>
				
					<line display="inline" fill="none" stroke="#F9F9F9" stroke-width="0.8" stroke-miterlimit="10" x1="108.2" y1="359.13" x2="121.29" y2="336.46"/>
				
					<line display="inline" fill="none" stroke="#F9F9F9" stroke-width="0.8" stroke-miterlimit="10" x1="126.09" y1="354.34" x2="103.41" y2="341.25"/>
				
					<line display="inline" fill="none" stroke="#F9F9F9" stroke-width="0.8" stroke-miterlimit="10" x1="121.29" y1="359.13" x2="108.2" y2="336.46"/>
			</g>
			<g id="Small_5_" display="none">
				<g id="smallScale_23_" display="inline">
					<line fill="none" stroke="#F9F9F9" stroke-miterlimit="10" x1="116.81" y1="360.17" x2="114.17" y2="335.01"/>
					<line fill="none" stroke="#F9F9F9" stroke-miterlimit="10" x1="129.39" y1="347.34" x2="101.84" y2="350.23"/>
					<line fill="none" stroke="#F9F9F9" stroke-miterlimit="10" x1="104.41" y1="356.93" x2="126.82" y2="340.64"/>
					<line fill="none" stroke="#F9F9F9" stroke-miterlimit="10" x1="110.98" y1="359.2" x2="121.25" y2="336.13"/>
					<line fill="none" stroke="#F9F9F9" stroke-miterlimit="10" x1="128.27" y1="354.42" x2="102.96" y2="343.15"/>
					<line fill="none" stroke="#F9F9F9" stroke-miterlimit="10" x1="123.76" y1="359.99" x2="107.47" y2="337.58"/>
				</g>
				<g id="smallScale_22_" display="inline">
					<line fill="none" stroke="#F9F9F9" stroke-miterlimit="10" x1="117.98" y1="359.92" x2="112.73" y2="335.24"/>
					<line fill="none" stroke="#F9F9F9" stroke-miterlimit="10" x1="129.16" y1="345.91" x2="102.07" y2="351.67"/>
					<line fill="none" stroke="#F9F9F9" stroke-miterlimit="10" x1="105.32" y1="358.05" x2="125.91" y2="339.52"/>
					<line fill="none" stroke="#F9F9F9" stroke-miterlimit="10" x1="112.1" y1="359.62" x2="119.89" y2="335.61"/>
					<line fill="none" stroke="#F9F9F9" stroke-miterlimit="10" x1="128.79" y1="353.07" x2="102.44" y2="344.51"/>
					<line fill="none" stroke="#F9F9F9" stroke-miterlimit="10" x1="124.88" y1="359.08" x2="106.35" y2="338.49"/>
				</g>
				<g id="smallScale_21_" display="inline">
					<line fill="none" stroke="#F9F9F9" stroke-miterlimit="10" x1="119.13" y1="359.62" x2="111.33" y2="335.61"/>
					<line fill="none" stroke="#F9F9F9" stroke-miterlimit="10" x1="128.79" y1="344.51" x2="102.44" y2="353.07"/>
					<line fill="none" stroke="#F9F9F9" stroke-miterlimit="10" x1="106.35" y1="359.08" x2="124.88" y2="338.49"/>
					<line fill="none" stroke="#F9F9F9" stroke-miterlimit="10" x1="113.25" y1="359.92" x2="118.49" y2="335.24"/>
					<line fill="none" stroke="#F9F9F9" stroke-miterlimit="10" x1="129.16" y1="351.67" x2="102.07" y2="345.91"/>
					<line fill="none" stroke="#F9F9F9" stroke-miterlimit="10" x1="125.91" y1="358.05" x2="105.32" y2="339.52"/>
				</g>
				<g id="smallScale_20_" display="inline">
					<line fill="none" stroke="#F9F9F9" stroke-miterlimit="10" x1="120.25" y1="359.2" x2="109.98" y2="336.13"/>
					<line fill="none" stroke="#F9F9F9" stroke-miterlimit="10" x1="128.27" y1="343.15" x2="102.96" y2="354.42"/>
					<line fill="none" stroke="#F9F9F9" stroke-miterlimit="10" x1="107.47" y1="359.99" x2="123.76" y2="337.58"/>
					<line fill="none" stroke="#F9F9F9" stroke-miterlimit="10" x1="114.42" y1="360.1" x2="117.06" y2="335.01"/>
					<line fill="none" stroke="#F9F9F9" stroke-miterlimit="10" x1="129.39" y1="350.23" x2="101.84" y2="347.34"/>
					<line fill="none" stroke="#F9F9F9" stroke-miterlimit="10" x1="126.82" y1="356.93" x2="104.41" y2="340.64"/>
				</g>
			</g>
			<path id="OuterCircle_4_" fill="none" stroke="#F9F9F9" stroke-width="0.6" stroke-miterlimit="10" d="M109.08,360.85
				c-4.36-2.3-7.33-6.88-7.33-12.16c0-7.59,6.16-13.75,13.75-13.75s13.75,6.16,13.75,13.75c0,5.23-2.92,9.79-7.23,12.11"/>
			<path id="InnerCircle_5_" display="none" fill="none" stroke="#F9F9F9" stroke-width="0.5" stroke-miterlimit="10" d="
				M109.18,361.03c-4.4-2.32-7.41-6.94-7.41-12.26c0-7.65,6.2-13.85,13.85-13.85s13.85,6.2,13.85,13.85c0,5.3-2.98,9.91-7.36,12.24"
				/>
		</g>
		<circle id="Circle_4_" fill="#323232" cx="115.5" cy="348.7" r="11"/>
	</g>
	<g id="ScaleMiddle_2_">
		<g id="Scale_2_">
			<g id="Big_2_">
				<line fill="none" stroke="#F9F9F9" stroke-width="2" stroke-miterlimit="10" x1="152.5" y1="484.4" x2="152.5" y2="460.06"/>
				<line fill="none" stroke="#F9F9F9" stroke-width="2" stroke-miterlimit="10" x1="175.19" y1="482.76" x2="129.81" y2="482.76"/>
				<line fill="none" stroke="#F9F9F9" stroke-width="2" stroke-miterlimit="10" x1="132.85" y1="494.1" x2="172.15" y2="471.41"/>
				<line fill="none" stroke="#F9F9F9" stroke-width="2" stroke-miterlimit="10" x1="141.15" y1="502.41" x2="163.84" y2="463.11"/>
				<line fill="none" stroke="#F9F9F9" stroke-width="2" stroke-miterlimit="10" x1="172.15" y1="494.1" x2="132.85" y2="471.41"/>
				<line fill="none" stroke="#F9F9F9" stroke-width="2" stroke-miterlimit="10" x1="163.84" y1="502.41" x2="141.15" y2="463.11"/>
			</g>
		</g>
		<circle id="Circle_5_" display="none" fill="#323232" cx="152.5" cy="482.75" r="20"/>
	</g>
	<g id="MiddleKnob_1_" display="none">
		<circle display="inline" fill="#232323" cx="152.5" cy="484.5" r="20"/>
		<circle display="inline" fill="#C1C1C1" cx="152.5" cy="484.5" r="18.37"/>
		
			<path id="path8603_5_" inkscape:connector-curvature="0" display="inline" fill="#EFEFEF" stroke="#353535" stroke-width="0.4" stroke-miterlimit="10" d="
			M169.25,475.32c-1.12-2.13-2.62-4.01-4.41-5.57c-3.45,0.49-7.02-1.25-8.8-4.3c-1.15-0.22-2.33-0.34-3.54-0.34
			c-1.21,0-2.39,0.12-3.54,0.34c-1.78,3.04-5.35,4.79-8.8,4.3c-1.79,1.56-3.29,3.44-4.41,5.57c1.28,3.36,0.37,7.37-2.23,9.82
			c0.09,2.44,0.61,4.76,1.5,6.88c3.46,1.05,6.03,4.36,6.26,8.03c1.83,1.37,3.91,2.41,6.16,3.04c2.98-2.13,7.16-2.13,10.14,0
			c2.25-0.63,4.33-1.67,6.17-3.04c0.22-3.67,2.8-6.97,6.26-8.03c0.89-2.12,1.41-4.45,1.49-6.88
			C168.89,482.69,167.98,478.69,169.25,475.32"/>
		
			<circle display="inline" fill="#E0E0E0" stroke="#050404" stroke-width="0.3" stroke-miterlimit="10" cx="152.5" cy="484.5" r="13.5"/>
		
			<circle display="inline" fill="#020202" stroke="#050404" stroke-width="0.3" stroke-miterlimit="10" cx="152.5" cy="468.53" r="1.58"/>
	</g>
	<g id="IOPort_1_" display="none">
		<polygon display="inline" fill="#7F7F7F" points="58.25,305.88 51.5,294.19 58.25,282.5 71.75,282.5 78.5,294.19 71.75,305.88 		
			"/>
		<path display="inline" fill="#494949" d="M55.12,294.2c0,5.45,4.43,9.88,9.88,9.88s9.88-4.43,9.88-9.88s-4.43-9.88-9.88-9.88
			S55.12,288.75,55.12,294.2z M71.3,294.2c0,3.48-2.82,6.3-6.3,6.3s-6.3-2.82-6.3-6.3c0-3.48,2.82-6.3,6.3-6.3
			S71.3,290.72,71.3,294.2z"/>
		<circle display="inline" fill="#0C0C0C" cx="65" cy="294.2" r="6.75"/>
	</g>
	<g id="IOPort_2_" display="none">
		<polygon display="inline" fill="#7F7F7F" points="108.75,305.89 102,294.2 108.75,282.51 122.25,282.51 129,294.2 122.25,305.89 
					"/>
		<path display="inline" fill="#494949" d="M105.62,294.21c0,5.45,4.43,9.88,9.88,9.88s9.88-4.43,9.88-9.88s-4.43-9.88-9.88-9.88
			S105.62,288.76,105.62,294.21z M121.8,294.21c0,3.48-2.82,6.3-6.3,6.3s-6.3-2.82-6.3-6.3c0-3.48,2.82-6.3,6.3-6.3
			S121.8,290.73,121.8,294.21z"/>
		<circle display="inline" fill="#0C0C0C" cx="115.5" cy="294.21" r="6.75"/>
	</g>
	<g id="IOPort_3_" display="none">
		<polygon display="inline" fill="#7F7F7F" points="157.9,305.88 151.15,294.19 157.9,282.5 171.4,282.5 178.15,294.19 
			171.4,305.88 		"/>
		<path display="inline" fill="#494949" d="M154.77,294.2c0,5.45,4.43,9.88,9.88,9.88s9.88-4.43,9.88-9.88s-4.43-9.88-9.88-9.88
			S154.77,288.75,154.77,294.2z M170.95,294.2c0,3.48-2.82,6.3-6.3,6.3s-6.3-2.82-6.3-6.3c0-3.48,2.82-6.3,6.3-6.3
			S170.95,290.72,170.95,294.2z"/>
		<circle display="inline" fill="#0C0C0C" cx="164.65" cy="294.2" r="6.75"/>
	</g>
	<g id="IOPort_4_" display="none">
		<polygon display="inline" fill="#7F7F7F" points="58.25,580.31 51.5,568.62 58.25,556.93 71.75,556.93 78.5,568.62 71.75,580.31 
					"/>
		<path display="inline" fill="#494949" d="M55.12,568.63c0,5.45,4.43,9.88,9.88,9.88s9.88-4.43,9.88-9.88s-4.43-9.88-9.88-9.88
			S55.12,563.19,55.12,568.63z M71.3,568.63c0,3.48-2.82,6.3-6.3,6.3s-6.3-2.82-6.3-6.3c0-3.48,2.82-6.3,6.3-6.3
			S71.3,565.15,71.3,568.63z"/>
		<circle display="inline" fill="#0C0C0C" cx="65" cy="568.63" r="6.75"/>
	</g>
	<g id="IOPort_6_" display="none">
		<polygon display="inline" fill="#7F7F7F" points="157.25,580.3 150.5,568.61 157.25,556.92 170.75,556.92 177.5,568.61 
			170.75,580.3 		"/>
		<path display="inline" fill="#494949" d="M154.12,568.62c0,5.45,4.43,9.88,9.88,9.88s9.88-4.43,9.88-9.88s-4.43-9.88-9.88-9.88
			S154.12,563.18,154.12,568.62z M170.3,568.62c0,3.48-2.82,6.3-6.3,6.3s-6.3-2.82-6.3-6.3c0-3.48,2.82-6.3,6.3-6.3
			S170.3,565.14,170.3,568.62z"/>
		<circle display="inline" fill="#0C0C0C" cx="164" cy="568.62" r="6.75"/>
	</g>
	<g id="ScaleSmall_4_">
		<g id="Scale_6_">
			<g id="Big_6_" display="none">
				
					<line display="inline" fill="none" stroke="#F9F9F9" stroke-width="0.8" stroke-miterlimit="10" x1="64.06" y1="348.78" x2="64.06" y2="334.74"/>
				
					<line display="inline" fill="none" stroke="#F9F9F9" stroke-width="0.8" stroke-miterlimit="10" x1="77.15" y1="347.83" x2="50.97" y2="347.83"/>
				
					<line display="inline" fill="none" stroke="#F9F9F9" stroke-width="0.8" stroke-miterlimit="10" x1="52.73" y1="354.37" x2="75.4" y2="341.28"/>
				
					<line display="inline" fill="none" stroke="#F9F9F9" stroke-width="0.8" stroke-miterlimit="10" x1="57.52" y1="359.17" x2="70.61" y2="336.49"/>
				
					<line display="inline" fill="none" stroke="#F9F9F9" stroke-width="0.8" stroke-miterlimit="10" x1="75.4" y1="354.37" x2="52.73" y2="341.28"/>
				
					<line display="inline" fill="none" stroke="#F9F9F9" stroke-width="0.8" stroke-miterlimit="10" x1="70.61" y1="359.17" x2="57.52" y2="336.49"/>
			</g>
			<g id="Small_6_" display="none">
				<g id="smallScale_27_" display="inline">
					<line fill="none" stroke="#F9F9F9" stroke-miterlimit="10" x1="66.12" y1="360.2" x2="63.48" y2="335.04"/>
					<line fill="none" stroke="#F9F9F9" stroke-miterlimit="10" x1="78.7" y1="347.37" x2="51.15" y2="350.27"/>
					<line fill="none" stroke="#F9F9F9" stroke-miterlimit="10" x1="53.72" y1="356.96" x2="76.14" y2="340.68"/>
					<line fill="none" stroke="#F9F9F9" stroke-miterlimit="10" x1="60.29" y1="359.23" x2="70.56" y2="336.17"/>
					<line fill="none" stroke="#F9F9F9" stroke-miterlimit="10" x1="77.58" y1="354.45" x2="52.28" y2="343.19"/>
					<line fill="none" stroke="#F9F9F9" stroke-miterlimit="10" x1="73.07" y1="360.03" x2="56.79" y2="337.61"/>
				</g>
				<g id="smallScale_26_" display="inline">
					<line fill="none" stroke="#F9F9F9" stroke-miterlimit="10" x1="67.3" y1="359.96" x2="62.05" y2="335.27"/>
					<line fill="none" stroke="#F9F9F9" stroke-miterlimit="10" x1="78.48" y1="345.94" x2="51.38" y2="351.7"/>
					<line fill="none" stroke="#F9F9F9" stroke-miterlimit="10" x1="54.64" y1="358.09" x2="75.22" y2="339.55"/>
					<line fill="none" stroke="#F9F9F9" stroke-miterlimit="10" x1="61.41" y1="359.65" x2="69.21" y2="335.65"/>
					<line fill="none" stroke="#F9F9F9" stroke-miterlimit="10" x1="78.1" y1="353.1" x2="51.76" y2="344.54"/>
					<line fill="none" stroke="#F9F9F9" stroke-miterlimit="10" x1="74.2" y1="359.11" x2="55.66" y2="338.53"/>
				</g>
				<g id="smallScale_25_" display="inline">
					<line fill="none" stroke="#F9F9F9" stroke-miterlimit="10" x1="68.45" y1="359.65" x2="60.65" y2="335.65"/>
					<line fill="none" stroke="#F9F9F9" stroke-miterlimit="10" x1="78.1" y1="344.54" x2="51.76" y2="353.1"/>
					<line fill="none" stroke="#F9F9F9" stroke-miterlimit="10" x1="55.66" y1="359.11" x2="74.2" y2="338.53"/>
					<line fill="none" stroke="#F9F9F9" stroke-miterlimit="10" x1="62.56" y1="359.96" x2="67.81" y2="335.27"/>
					<line fill="none" stroke="#F9F9F9" stroke-miterlimit="10" x1="78.48" y1="351.7" x2="51.38" y2="345.94"/>
					<line fill="none" stroke="#F9F9F9" stroke-miterlimit="10" x1="75.22" y1="358.09" x2="54.64" y2="339.55"/>
				</g>
				<g id="smallScale_24_" display="inline">
					<line fill="none" stroke="#F9F9F9" stroke-miterlimit="10" x1="69.56" y1="359.23" x2="59.29" y2="336.17"/>
					<line fill="none" stroke="#F9F9F9" stroke-miterlimit="10" x1="77.58" y1="343.19" x2="52.28" y2="354.45"/>
					<line fill="none" stroke="#F9F9F9" stroke-miterlimit="10" x1="56.79" y1="360.03" x2="73.07" y2="337.61"/>
					<line fill="none" stroke="#F9F9F9" stroke-miterlimit="10" x1="63.74" y1="360.14" x2="66.38" y2="335.04"/>
					<line fill="none" stroke="#F9F9F9" stroke-miterlimit="10" x1="78.7" y1="350.27" x2="51.15" y2="347.37"/>
					<line fill="none" stroke="#F9F9F9" stroke-miterlimit="10" x1="76.13" y1="356.96" x2="53.72" y2="340.68"/>
				</g>
			</g>
			<path id="OuterCircle_2_" fill="none" stroke="#F9F9F9" stroke-width="0.6" stroke-miterlimit="10" d="M58.39,360.89
				c-4.36-2.31-7.33-6.89-7.33-12.16c0-7.59,6.16-13.75,13.75-13.75s13.75,6.16,13.75,13.75c0,5.23-2.92,9.79-7.23,12.11"/>
			<path id="InnerCircle_6_" display="none" fill="none" stroke="#F9F9F9" stroke-width="0.5" stroke-miterlimit="10" d="
				M58.49,361.06c-4.4-2.32-7.41-6.94-7.41-12.26c0-7.65,6.2-13.85,13.85-13.85s13.85,6.2,13.85,13.85c0,5.3-2.98,9.91-7.36,12.24"
				/>
		</g>
		<circle id="Circle_2_" fill="#323232" cx="64.81" cy="348.73" r="11"/>
	</g>
	<g id="SmallKnob" display="none">
		<circle display="inline" fill="#C1C1C1" stroke="#141414" stroke-miterlimit="10" cx="65" cy="348.74" r="10.38"/>
		
			<path id="path8603_2_" inkscape:connector-curvature="0" display="inline" fill="#E5E5E5" stroke="#353535" stroke-width="0.3" stroke-miterlimit="10" d="
			M75.15,343.18c-0.68-1.29-1.59-2.43-2.67-3.37c-2.09,0.3-4.25-0.76-5.33-2.6C66.45,337.07,65.73,337,65,337s-1.45,0.07-2.14,0.21
			c-1.08,1.84-3.24,2.9-5.33,2.6c-1.08,0.94-2,2.08-2.67,3.37c0.77,2.04,0.22,4.46-1.35,5.95c0.05,1.48,0.37,2.88,0.91,4.17
			c2.09,0.64,3.65,2.64,3.79,4.86c1.11,0.83,2.37,1.46,3.73,1.84c1.8-1.29,4.34-1.29,6.14,0c1.36-0.38,2.62-1.01,3.74-1.84
			c0.14-2.22,1.69-4.22,3.79-4.86c0.54-1.29,0.86-2.69,0.91-4.17C74.93,347.64,74.38,345.22,75.15,343.18"/>
		<circle display="inline" fill="#EFEFEF" cx="65" cy="348.74" r="10.3"/>
		
			<circle display="inline" fill="#BFBFBF" stroke="#050404" stroke-width="0.3" stroke-miterlimit="10" cx="65" cy="348.74" r="8.65"/>
		<rect x="63.92" y="337" display="inline" fill="#282828" width="2.22" height="3.22"/>
	</g>
	<g id="SmallKnob_1_" display="none">
		<circle display="inline" fill="#C1C1C1" stroke="#141414" stroke-miterlimit="10" cx="115.5" cy="348.74" r="10.38"/>
		
			<path id="path8603_3_" inkscape:connector-curvature="0" display="inline" fill="#E5E5E5" stroke="#353535" stroke-width="0.3" stroke-miterlimit="10" d="
			M125.65,343.18c-0.68-1.29-1.59-2.43-2.67-3.37c-2.09,0.3-4.25-0.76-5.33-2.6c-0.69-0.13-1.41-0.21-2.14-0.21
			s-1.45,0.07-2.14,0.21c-1.08,1.84-3.24,2.9-5.33,2.6c-1.08,0.94-2,2.08-2.67,3.37c0.77,2.04,0.22,4.46-1.35,5.95
			c0.05,1.48,0.37,2.88,0.91,4.17c2.09,0.64,3.65,2.64,3.79,4.86c1.11,0.83,2.37,1.46,3.73,1.84c1.8-1.29,4.34-1.29,6.14,0
			c1.36-0.38,2.62-1.01,3.74-1.84c0.14-2.22,1.69-4.22,3.79-4.86c0.54-1.29,0.86-2.69,0.91-4.17
			C125.43,347.64,124.88,345.22,125.65,343.18"/>
		<circle display="inline" fill="#EFEFEF" cx="115.5" cy="348.74" r="10.3"/>
		
			<circle display="inline" fill="#BFBFBF" stroke="#050404" stroke-width="0.3" stroke-miterlimit="10" cx="115.5" cy="348.74" r="8.65"/>
		<rect x="114.42" y="337" display="inline" fill="#282828" width="2.22" height="3.22"/>
	</g>
	<g id="SmallKnob_2_" display="none">
		<circle display="inline" fill="#C1C1C1" stroke="#141414" stroke-miterlimit="10" cx="164.6" cy="348.74" r="10.38"/>
		
			<path id="path8603_4_" inkscape:connector-curvature="0" display="inline" fill="#E5E5E5" stroke="#353535" stroke-width="0.3" stroke-miterlimit="10" d="
			M174.75,343.18c-0.68-1.29-1.59-2.43-2.67-3.37c-2.09,0.3-4.25-0.76-5.33-2.6c-0.69-0.13-1.41-0.21-2.14-0.21
			s-1.45,0.07-2.14,0.21c-1.08,1.84-3.24,2.9-5.33,2.6c-1.08,0.94-2,2.08-2.67,3.37c0.77,2.04,0.22,4.46-1.35,5.95
			c0.05,1.48,0.37,2.88,0.91,4.17c2.09,0.64,3.65,2.64,3.79,4.86c1.11,0.83,2.37,1.46,3.73,1.84c1.8-1.29,4.34-1.29,6.14,0
			c1.36-0.38,2.62-1.01,3.74-1.84c0.14-2.22,1.69-4.22,3.79-4.86c0.54-1.29,0.86-2.69,0.91-4.17
			C174.53,347.64,173.97,345.22,174.75,343.18"/>
		<circle display="inline" fill="#EFEFEF" cx="164.6" cy="348.74" r="10.3"/>
		
			<circle display="inline" fill="#BFBFBF" stroke="#050404" stroke-width="0.3" stroke-miterlimit="10" cx="164.6" cy="348.74" r="8.65"/>
		<rect x="163.52" y="337" display="inline" fill="#282828" width="2.22" height="3.22"/>
	</g>
	<g id="Scale_7_">
		<g id="Big_7_">
			<line fill="none" stroke="#F9F9F9" stroke-width="2" stroke-miterlimit="10" x1="115.19" y1="544.83" x2="115.19" y2="520.5"/>
			<line fill="none" stroke="#F9F9F9" stroke-width="2" stroke-miterlimit="10" x1="137.88" y1="543.19" x2="92.5" y2="543.19"/>
			<line fill="none" stroke="#F9F9F9" stroke-width="2" stroke-miterlimit="10" x1="95.54" y1="554.54" x2="134.84" y2="531.85"/>
			<line fill="none" stroke="#F9F9F9" stroke-width="2" stroke-miterlimit="10" x1="103.84" y1="562.84" x2="126.54" y2="523.54"/>
			<line fill="none" stroke="#F9F9F9" stroke-width="2" stroke-miterlimit="10" x1="134.84" y1="554.54" x2="95.54" y2="531.85"/>
			<line fill="none" stroke="#F9F9F9" stroke-width="2" stroke-miterlimit="10" x1="126.54" y1="562.84" x2="103.84" y2="523.54"/>
		</g>
	</g>
	<g id="MiddleKnob_2_" display="none">
		<circle display="inline" fill="#232323" cx="115" cy="543.5" r="20"/>
		<circle display="inline" fill="#C1C1C1" cx="115" cy="543.5" r="18.37"/>
		
			<path id="path8603_6_" inkscape:connector-curvature="0" display="inline" fill="#EFEFEF" stroke="#353535" stroke-width="0.4" stroke-miterlimit="10" d="
			M131.75,534.32c-1.12-2.13-2.62-4.01-4.41-5.57c-3.45,0.49-7.02-1.25-8.8-4.3c-1.15-0.22-2.33-0.34-3.54-0.34
			c-1.21,0-2.39,0.12-3.54,0.34c-1.78,3.04-5.35,4.79-8.8,4.3c-1.79,1.56-3.29,3.44-4.41,5.57c1.28,3.36,0.37,7.37-2.23,9.82
			c0.09,2.44,0.61,4.76,1.5,6.88c3.46,1.05,6.03,4.36,6.26,8.03c1.83,1.37,3.91,2.41,6.16,3.04c2.98-2.13,7.16-2.13,10.13,0
			c2.25-0.63,4.33-1.67,6.17-3.04c0.22-3.67,2.8-6.97,6.26-8.03c0.89-2.12,1.41-4.45,1.49-6.88
			C131.39,541.69,130.48,537.69,131.75,534.32"/>
		
			<circle display="inline" fill="#E0E0E0" stroke="#050404" stroke-width="0.3" stroke-miterlimit="10" cx="115" cy="543.5" r="13.5"/>
		
			<circle display="inline" fill="#020202" stroke="#050404" stroke-width="0.3" stroke-miterlimit="10" cx="115" cy="527.53" r="1.58"/>
	</g>
</g>
<g>
	<path fill="#FFFFFF" stroke="#FFFFFF" stroke-width="0.4" stroke-miterlimit="10" d="M64.2,547.71h-0.69l-0.89,4.16h0.69
		l-0.09,0.44h-1.89l0.09-0.44h0.68l0.89-4.16h-0.68l0.09-0.44h1.89L64.2,547.71z"/>
	<path fill="#FFFFFF" stroke="#FFFFFF" stroke-width="0.4" stroke-miterlimit="10" d="M66.6,547.27h0.61l0.74,3.77h0.02l0.8-3.77
		h0.53l-1.08,5.09h-0.5l-0.79-4.07l-0.01,0.01l-0.85,4.01h-0.52L66.6,547.27z"/>
</g>
<polygon id="Arrow_2_" fill="#FCFCFC" points="120.99,323.37 115.5,327.63 110.01,323.37 "/>
<g id="DRIVE">
	<path fill="#FFFFFF" stroke="#FFFFFF" stroke-width="0.4" stroke-miterlimit="10" d="M148.3,314.55h1.28
		c0.97,0,1.51,0.55,1.09,2.52c-0.41,1.94-1.14,2.52-2.24,2.52h-1.21L148.3,314.55z M147.85,319.15h0.64c0.74,0,1.26-0.2,1.66-2.08
		c0.41-1.93-0.11-2.08-0.78-2.08h-0.63L147.85,319.15z"/>
	<path fill="#FFFFFF" stroke="#FFFFFF" stroke-width="0.4" stroke-miterlimit="10" d="M152.99,314.55h1.31
		c1.26,0,1.13,1.13,1.07,1.43c-0.11,0.52-0.41,0.99-1.2,1.39l0.89,2.22h-0.64l-0.78-2.1c-0.25,0.01-0.5,0.01-0.76,0.01l-0.44,2.09
		h-0.53L152.99,314.55z M153.48,317.06c0.71,0,1.21-0.36,1.37-1.11c0.14-0.67-0.08-0.96-0.91-0.96h-0.52l-0.44,2.07H153.48z"/>
	<path fill="#FFFFFF" stroke="#FFFFFF" stroke-width="0.4" stroke-miterlimit="10" d="M159.58,314.99h-0.69l-0.89,4.16h0.69
		l-0.09,0.44h-1.89l0.09-0.44h0.68l0.89-4.16h-0.68l0.09-0.44h1.89L159.58,314.99z"/>
	<path fill="#FFFFFF" stroke="#FFFFFF" stroke-width="0.4" stroke-miterlimit="10" d="M164.15,314.55h0.58l-2.22,5.09h-0.72
		l-0.04-5.09h0.57v4.28h0.01L164.15,314.55z"/>
	<path fill="#FFFFFF" stroke="#FFFFFF" stroke-width="0.4" stroke-miterlimit="10" d="M169.22,314.99h-2.09l-0.38,1.79h1.51
		l-0.09,0.44h-1.51l-0.41,1.93h2.14l-0.09,0.44h-2.67l1.07-5.04h2.62L169.22,314.99z"/>
	<path fill="#FFFFFF" stroke="#FFFFFF" stroke-width="0.4" stroke-miterlimit="10" d="M177.6,315.64c0.08-0.42-0.15-0.75-0.57-0.75
		c-1.06,0-1.44,1.44-1.61,2.22c-0.15,0.73-0.38,2.14,0.63,2.14c0.53,0,0.92-0.39,1.04-0.89h0.53c-0.22,0.82-0.83,1.33-1.67,1.33
		c-1.39,0-1.26-1.52-1.04-2.59c0.24-1.11,0.79-2.65,2.21-2.65c0.7,0,1.12,0.49,1.02,1.19H177.6z"/>
	<path fill="#FFFFFF" stroke="#FFFFFF" stroke-width="0.4" stroke-miterlimit="10" d="M182.35,314.55h0.58l-2.22,5.09h-0.72
		l-0.04-5.09h0.57v4.28h0.01L182.35,314.55z"/>
</g>
<g>
	<path fill="#FFFFFF" stroke="#FFFFFF" stroke-width="0.4" stroke-miterlimit="10" d="M99.13,443.99h-2.18l-0.37,1.75h1.63
		l-0.1,0.44h-1.63l-0.51,2.41h-0.53l1.07-5.04h2.7L99.13,443.99z"/>
	<path fill="#FFFFFF" stroke="#FFFFFF" stroke-width="0.4" stroke-miterlimit="10" d="M100.93,443.55h1.31
		c1.26,0,1.13,1.13,1.07,1.43c-0.11,0.52-0.41,0.99-1.2,1.39l0.89,2.22h-0.64l-0.78-2.1c-0.25,0.01-0.5,0.01-0.76,0.01l-0.44,2.09
		h-0.53L100.93,443.55z M101.42,446.06c0.71,0,1.21-0.36,1.37-1.11c0.14-0.67-0.08-0.96-0.91-0.96h-0.52l-0.44,2.07H101.42z"/>
	<path fill="#FFFFFF" stroke="#FFFFFF" stroke-width="0.4" stroke-miterlimit="10" d="M108.06,443.99h-2.09l-0.39,1.79h1.51
		l-0.09,0.44h-1.51l-0.41,1.93h2.14l-0.09,0.44h-2.67l1.07-5.04h2.62L108.06,443.99z"/>
	<path fill="#FFFFFF" stroke="#FFFFFF" stroke-width="0.4" stroke-miterlimit="10" d="M109.12,446.07c0.45-2.12,1.26-2.62,2.11-2.62
		c1.65,0,1.11,2.12,1,2.62c-0.2,0.93-0.43,1.65-0.97,2.14l0.45,0.8h-0.64l-0.24-0.49c-0.22,0.11-0.48,0.17-0.71,0.17
		C108.52,448.69,108.98,446.71,109.12,446.07z M110.21,448.25c0.62,0,1.15-0.53,1.5-2.18c0.38-1.79-0.04-2.18-0.57-2.18
		c-1.15,0-1.45,1.97-1.49,2.18C109.26,447.86,109.68,448.25,110.21,448.25z"/>
	<path fill="#FFFFFF" stroke="#FFFFFF" stroke-width="0.4" stroke-miterlimit="10" d="M117.15,443.55l-0.79,3.72
		c-0.2,0.95-1.02,1.42-1.7,1.42c-0.54,0-1.33-0.31-1.04-1.7l0.73-3.44h0.53l-0.79,3.72c-0.15,0.73,0.26,0.98,0.67,0.98
		c0.64,0,0.97-0.48,1.09-1.04l0.78-3.66H117.15z"/>
	<path fill="#FFFFFF" stroke="#FFFFFF" stroke-width="0.4" stroke-miterlimit="10" d="M121.71,443.99h-2.09l-0.38,1.79h1.51
		l-0.09,0.44h-1.51l-0.41,1.93h2.14l-0.09,0.44h-2.67l1.07-5.04h2.62L121.71,443.99z"/>
	<path fill="#FFFFFF" stroke="#FFFFFF" stroke-width="0.4" stroke-miterlimit="10" d="M123.56,443.55h0.61l0.74,3.77h0.02l0.8-3.77
		h0.53l-1.08,5.09h-0.5l-0.79-4.07l-0.01,0.01l-0.85,4.01h-0.53L123.56,443.55z"/>
	<path fill="#FFFFFF" stroke="#FFFFFF" stroke-width="0.4" stroke-miterlimit="10" d="M130.09,444.64c0.08-0.42-0.15-0.75-0.57-0.75
		c-1.06,0-1.44,1.44-1.61,2.22c-0.15,0.74-0.38,2.14,0.63,2.14c0.53,0,0.92-0.39,1.04-0.89h0.53c-0.22,0.82-0.83,1.33-1.67,1.33
		c-1.39,0-1.26-1.52-1.04-2.59c0.24-1.11,0.79-2.65,2.21-2.65c0.7,0,1.12,0.49,1.02,1.19H130.09z"/>
	<path fill="#FFFFFF" stroke="#FFFFFF" stroke-width="0.4" stroke-miterlimit="10" d="M134.8,443.55h0.58l-1.91,2.91l-0.46,2.13
		h-0.53l0.46-2.13l-0.67-2.91h0.58l0.49,2.28L134.8,443.55z"/>
</g>
<g>
	<path fill="#FFFFFF" d="M89.67,592.27h1.28v2.98h2.85v1.02h-4.12V592.27z"/>
	<path fill="#FFFFFF" d="M94.07,592.27h1.28v4h-1.28V592.27z"/>
	<path fill="#FFFFFF" d="M95.91,592.27h2.14l2.1,2.98h0.12l-0.03-2.98h1.24v4h-2.12l-2.1-2.98h-0.13l0.03,2.98h-1.24V592.27z"/>
	<path fill="#FFFFFF" d="M102.04,596.27v-4h2.89c0.63,0,1.03,0.01,1.22,0.03c0.36,0.04,0.62,0.13,0.79,0.28
		c0.18,0.16,0.3,0.41,0.35,0.76c0.03,0.17,0.04,0.46,0.04,0.87c0,0.53-0.02,0.89-0.07,1.1c-0.06,0.28-0.17,0.49-0.32,0.62
		c-0.1,0.09-0.22,0.16-0.36,0.21c-0.14,0.05-0.34,0.08-0.58,0.11c-0.19,0.02-0.55,0.02-1.07,0.02L102.04,596.27L102.04,596.27z
		 M103.24,595.25h1.7c0.34,0,0.6-0.02,0.77-0.04c0.19-0.03,0.31-0.14,0.36-0.31c0.04-0.13,0.05-0.33,0.05-0.61
		c0-0.3-0.02-0.52-0.06-0.65c-0.05-0.17-0.15-0.28-0.32-0.31c-0.13-0.03-0.4-0.05-0.81-0.05h-1.69L103.24,595.25L103.24,595.25z"/>
	<path fill="#FFFFFF" d="M107.8,592.27h4.43v0.94H109v0.58h3.06v0.88H109v0.64h3.25v0.96h-4.45V592.27L107.8,592.27z"/>
	<path fill="#FFFFFF" d="M112.64,592.27h2.14l2.09,2.98h0.13l-0.03-2.98h1.24v4h-2.12l-2.1-2.98h-0.13l0.03,2.98h-1.24V592.27z"/>
	<path fill="#FFFFFF" d="M118.76,596.27v-4h2.88c0.61,0,0.97,0.01,1.09,0.02c0.26,0.02,0.45,0.06,0.58,0.14
		c0.14,0.09,0.23,0.21,0.28,0.37c0.04,0.15,0.06,0.32,0.06,0.51c0,0.23-0.02,0.41-0.07,0.53c-0.07,0.19-0.23,0.32-0.47,0.4
		c0.18,0.03,0.31,0.07,0.4,0.13c0.2,0.13,0.29,0.4,0.29,0.83c0,0.32-0.05,0.56-0.15,0.73c-0.09,0.14-0.23,0.23-0.41,0.28
		c-0.15,0.04-0.42,0.06-0.78,0.06l-0.79,0.01L118.76,596.27L118.76,596.27z M119.92,593.85h1.72c0.38,0,0.6-0.02,0.67-0.04
		c0.1-0.04,0.15-0.13,0.15-0.29c0-0.16-0.06-0.25-0.18-0.28c-0.04-0.01-0.26-0.02-0.64-0.02h-1.72V593.85L119.92,593.85z
		 M119.92,595.31h1.72c0.32,0,0.51,0,0.56-0.01c0.18-0.01,0.29-0.04,0.34-0.1c0.04-0.05,0.06-0.13,0.06-0.23
		c0-0.17-0.06-0.27-0.18-0.3c-0.04-0.02-0.3-0.02-0.78-0.02h-1.72V595.31L119.92,595.31z"/>
	<path fill="#FFFFFF" d="M124.21,592.27h4.43v0.94h-3.23v0.58h3.06v0.88h-3.06v0.64h3.25v0.96h-4.45V592.27L124.21,592.27z"/>
	<path fill="#FFFFFF" d="M129.04,596.27v-4h2.95c0.69,0,1.1,0.01,1.23,0.02c0.14,0.01,0.27,0.05,0.39,0.12
		c0.12,0.06,0.21,0.15,0.27,0.26c0.07,0.12,0.11,0.24,0.12,0.36c0.02,0.15,0.03,0.32,0.03,0.53c0,0.33-0.02,0.56-0.07,0.69
		c-0.07,0.19-0.2,0.32-0.39,0.4c-0.06,0.02-0.16,0.05-0.29,0.07c0.26,0.02,0.44,0.09,0.55,0.22c0.05,0.06,0.08,0.12,0.1,0.19
		c0.02,0.07,0.04,0.18,0.04,0.32c0,0.07,0,0.22,0,0.44v0.37h-1.2v-0.21c0-0.24-0.01-0.41-0.03-0.51c-0.03-0.15-0.11-0.23-0.24-0.27
		c-0.08-0.02-0.26-0.02-0.53-0.02h-1.72v1.02L129.04,596.27L129.04,596.27z M130.26,594.25h1.71c0.26,0,0.41-0.01,0.46-0.01
		c0.17-0.01,0.28-0.06,0.32-0.16c0.03-0.07,0.05-0.18,0.05-0.34c0-0.14-0.01-0.23-0.04-0.3c-0.04-0.1-0.14-0.15-0.29-0.16
		c-0.05-0.01-0.22-0.01-0.49-0.01h-1.71V594.25L130.26,594.25z"/>
	<path fill="#FFFFFF" d="M136.89,594h2.79c0,0.09,0.01,0.15,0.01,0.17c0,0.52-0.01,0.93-0.04,1.21c-0.05,0.46-0.31,0.74-0.79,0.84
		c-0.25,0.05-0.52,0.08-0.81,0.09c-0.31,0.01-0.68,0.02-1.11,0.02c-0.76,0-1.29-0.02-1.62-0.08c-0.45-0.07-0.73-0.28-0.83-0.62
		c-0.05-0.17-0.08-0.36-0.09-0.57c-0.01-0.27-0.02-0.56-0.02-0.86c0-0.52,0.03-0.88,0.07-1.09c0.07-0.29,0.19-0.49,0.36-0.61
		c0.09-0.06,0.2-0.11,0.34-0.15c0.13-0.03,0.32-0.06,0.57-0.08c0.35-0.03,0.82-0.05,1.42-0.05c0.77,0,1.31,0.03,1.63,0.09
		c0.32,0.06,0.55,0.17,0.68,0.32c0.12,0.14,0.19,0.35,0.21,0.65c0.01,0.08,0.01,0.2,0.01,0.37h-1.22c0-0.11-0.01-0.19-0.02-0.22
		c-0.02-0.1-0.11-0.16-0.26-0.18c-0.19-0.03-0.57-0.04-1.14-0.04c-0.51,0-0.86,0.02-1.05,0.05c-0.19,0.03-0.3,0.13-0.34,0.31
		c-0.03,0.13-0.05,0.36-0.05,0.69c0,0.38,0.02,0.64,0.05,0.77c0.04,0.19,0.18,0.29,0.4,0.31c0.11,0.01,0.44,0.02,0.99,0.03
		c0.6-0.01,0.99-0.02,1.16-0.03c0.16-0.03,0.25-0.1,0.27-0.21c0.01-0.07,0.02-0.18,0.02-0.32h-1.6L136.89,594L136.89,594L136.89,594
		z"/>
	<path fill="#FFFFFF" d="M93.47,603.47v-4h2.94c0.7,0,1.1,0.01,1.23,0.02c0.14,0.02,0.27,0.06,0.39,0.12
		c0.11,0.07,0.21,0.16,0.27,0.27c0.07,0.11,0.11,0.23,0.12,0.36c0.02,0.15,0.03,0.32,0.03,0.53c0,0.33-0.02,0.55-0.07,0.68
		c-0.07,0.19-0.2,0.32-0.39,0.4c-0.06,0.03-0.16,0.05-0.29,0.07c0.26,0.02,0.44,0.09,0.55,0.22c0.05,0.06,0.08,0.12,0.1,0.2
		c0.02,0.07,0.03,0.18,0.04,0.32c0,0.07,0,0.22,0,0.44v0.37h-1.2v-0.21c0-0.24-0.01-0.41-0.03-0.52c-0.03-0.15-0.11-0.23-0.24-0.27
		c-0.08-0.02-0.26-0.02-0.53-0.02h-1.72v1.02L93.47,603.47L93.47,603.47z M94.68,601.45h1.72c0.26,0,0.41-0.01,0.45-0.01
		c0.17-0.01,0.28-0.06,0.33-0.16c0.03-0.06,0.05-0.18,0.05-0.34c0-0.14-0.01-0.23-0.04-0.31c-0.04-0.1-0.14-0.15-0.3-0.16
		c-0.05,0-0.22-0.01-0.49-0.01h-1.71V601.45L94.68,601.45z"/>
	<path fill="#FFFFFF" d="M98.87,599.47h4.43v0.94h-3.23v0.58h3.06v0.88h-3.06v0.64h3.25v0.96h-4.45V599.47L98.87,599.47z"/>
	<path fill="#FFFFFF" d="M103.56,602.14h1.18c0,0.2,0.04,0.32,0.12,0.38c0.04,0.03,0.09,0.05,0.15,0.06
		c0.05,0.01,0.15,0.02,0.29,0.02c0.07,0,0.29,0,0.67,0.01c0.52,0,0.82-0.01,0.9-0.01c0.15-0.01,0.26-0.03,0.3-0.06
		c0.07-0.04,0.1-0.14,0.1-0.29c0-0.1-0.02-0.17-0.06-0.21c-0.06-0.06-0.2-0.09-0.42-0.09c-0.15,0-0.47-0.01-0.95-0.04
		c-0.5-0.02-0.82-0.04-0.97-0.04c-0.39-0.01-0.66-0.06-0.82-0.13c-0.2-0.1-0.34-0.27-0.4-0.51c-0.04-0.13-0.05-0.31-0.05-0.52
		c0-0.45,0.09-0.77,0.26-0.96c0.13-0.14,0.32-0.23,0.59-0.28c0.24-0.04,0.8-0.06,1.69-0.06c0.58,0,0.98,0.02,1.22,0.05
		c0.31,0.04,0.54,0.12,0.68,0.23c0.19,0.15,0.28,0.43,0.28,0.83c0,0.04,0,0.11,0,0.21h-1.18c0-0.1-0.01-0.16-0.02-0.2
		c-0.03-0.11-0.12-0.17-0.27-0.19c-0.14-0.01-0.46-0.02-0.98-0.02c-0.52,0-0.82,0.02-0.92,0.04c-0.11,0.03-0.16,0.12-0.16,0.27
		c0,0.14,0.06,0.23,0.17,0.26c0.1,0.02,0.53,0.05,1.29,0.07c0.69,0.02,1.14,0.04,1.33,0.07c0.19,0.03,0.35,0.07,0.46,0.13
		c0.11,0.06,0.21,0.14,0.27,0.25c0.1,0.16,0.15,0.41,0.15,0.77c0,0.4-0.05,0.68-0.15,0.86c-0.1,0.18-0.27,0.31-0.5,0.37
		c-0.23,0.06-0.85,0.1-1.87,0.1c-0.62,0-1.07-0.02-1.34-0.05c-0.34-0.04-0.58-0.12-0.72-0.23c-0.16-0.12-0.25-0.29-0.28-0.52
		c-0.02-0.11-0.02-0.23-0.02-0.38L103.56,602.14L103.56,602.14z"/>
	<path fill="#FFFFFF" d="M108.88,599.47h4.43v0.94h-3.23v0.58h3.06v0.88h-3.06v0.64h3.25v0.96h-4.45V599.47L108.88,599.47z"/>
	<path fill="#FFFFFF" d="M118.05,603.47l-0.34-0.68h-2.65l-0.34,0.68h-1.39l2.12-4h1.89l2.09,4H118.05z M117.28,601.92l-0.77-1.52
		h-0.24l-0.77,1.52H117.28z"/>
	<path fill="#FFFFFF" d="M119.62,603.47v-4h2.94c0.7,0,1.11,0.01,1.23,0.02c0.14,0.02,0.27,0.06,0.39,0.12
		c0.12,0.07,0.21,0.16,0.27,0.27c0.07,0.11,0.1,0.23,0.12,0.36c0.02,0.15,0.02,0.32,0.02,0.53c0,0.33-0.02,0.55-0.07,0.68
		c-0.07,0.19-0.2,0.32-0.39,0.4c-0.06,0.03-0.16,0.05-0.29,0.07c0.26,0.02,0.44,0.09,0.55,0.22c0.05,0.06,0.08,0.12,0.1,0.2
		c0.02,0.07,0.04,0.18,0.04,0.32c0,0.07,0,0.22,0,0.44v0.37h-1.2v-0.21c0-0.24-0.01-0.41-0.03-0.52c-0.03-0.15-0.11-0.23-0.24-0.27
		c-0.08-0.02-0.26-0.02-0.53-0.02h-1.72v1.02L119.62,603.47L119.62,603.47z M120.84,601.45h1.71c0.26,0,0.41-0.01,0.46-0.01
		c0.17-0.01,0.28-0.06,0.32-0.16c0.03-0.06,0.05-0.18,0.05-0.34c0-0.14-0.01-0.23-0.04-0.31c-0.04-0.1-0.14-0.15-0.29-0.16
		c-0.05,0-0.22-0.01-0.49-0.01h-1.71V601.45L120.84,601.45z"/>
	<path fill="#FFFFFF" d="M128.84,601.92h1.22c0.01,0.19,0.01,0.33,0.01,0.4c0,0.29-0.05,0.52-0.14,0.7
		c-0.1,0.19-0.28,0.31-0.55,0.38c-0.29,0.08-0.8,0.12-1.53,0.12c-0.8,0-1.34-0.01-1.62-0.04c-0.26-0.02-0.46-0.06-0.61-0.1
		s-0.27-0.12-0.37-0.21c-0.13-0.12-0.21-0.28-0.25-0.48c-0.04-0.21-0.06-0.61-0.06-1.21c0-0.57,0.01-0.96,0.04-1.15
		c0.04-0.3,0.16-0.52,0.35-0.65c0.15-0.1,0.38-0.17,0.69-0.22c0.33-0.04,0.92-0.06,1.77-0.06c0.51,0,0.87,0.01,1.08,0.03
		c0.32,0.03,0.56,0.09,0.71,0.19c0.19,0.11,0.3,0.28,0.35,0.5c0.04,0.15,0.05,0.34,0.05,0.54c0,0.03,0,0.11,0,0.23h-1.22
		c0-0.1-0.01-0.16-0.01-0.2c-0.02-0.12-0.07-0.19-0.16-0.23c-0.14-0.05-0.52-0.07-1.14-0.07c-0.42,0-0.71,0.01-0.87,0.04
		c-0.19,0.03-0.31,0.13-0.36,0.32c-0.04,0.15-0.06,0.39-0.06,0.73c0,0.35,0.02,0.58,0.06,0.71c0.05,0.17,0.18,0.27,0.39,0.3
		c0.17,0.02,0.47,0.03,0.9,0.03c0.47,0,0.78-0.01,0.96-0.03c0.16-0.02,0.26-0.07,0.3-0.17
		C128.82,602.24,128.84,602.11,128.84,601.92z"/>
	<path fill="#FFFFFF" d="M130.49,599.47h1.28v1.43h2.75v-1.43h1.28v4h-1.28v-1.45h-2.75v1.45h-1.28V599.47L130.49,599.47z"/>
</g>
<g>
	<path fill="#FFFFFF" stroke="#FFFFFF" stroke-width="0.4" stroke-miterlimit="10" d="M160.27,547.77c1.47,0,1.2,1.68,0.99,2.62
		c-0.14,0.67-0.51,2.62-2.11,2.62c-1.55,0-1.14-1.91-0.99-2.62C158.62,548.29,159.42,547.77,160.27,547.77z M160.74,550.39
		c0.1-0.46,0.53-2.18-0.56-2.18c-1.12,0-1.42,1.88-1.48,2.18c-0.12,0.57-0.5,2.18,0.55,2.18
		C159.77,552.57,160.35,552.22,160.74,550.39z"/>
	<path fill="#FFFFFF" stroke="#FFFFFF" stroke-width="0.4" stroke-miterlimit="10" d="M166.19,547.87l-0.79,3.72
		c-0.2,0.95-1.02,1.42-1.7,1.42c-0.55,0-1.33-0.31-1.04-1.7l0.73-3.44h0.53l-0.79,3.72c-0.15,0.73,0.26,0.98,0.67,0.98
		c0.64,0,0.97-0.48,1.09-1.04l0.78-3.66H166.19z"/>
	<path fill="#FFFFFF" stroke="#FFFFFF" stroke-width="0.4" stroke-miterlimit="10" d="M170.95,548.31h-1.44l-0.98,4.6h-0.53
		l0.98-4.6h-1.41l0.09-0.44h3.37L170.95,548.31z"/>
</g>
<g id="TopHL">
	<line fill="none" stroke="#FCFCFC" stroke-width="3" stroke-miterlimit="10" x1="138.19" y1="251" x2="205.5" y2="251"/>
	<line fill="none" stroke="#FCFCFC" stroke-width="3" stroke-miterlimit="10" x1="25.5" y1="251" x2="100.88" y2="251"/>
	<line fill="none" stroke="#FCFCFC" stroke-miterlimit="10" x1="137.78" y1="255.38" x2="205.5" y2="255.38"/>
	<line fill="none" stroke="#FCFCFC" stroke-miterlimit="10" x1="25.5" y1="255.38" x2="94.88" y2="255.38"/>
</g>
<g id="BottomHL">
	<line fill="none" stroke="#EDEDED" stroke-width="3" stroke-miterlimit="10" x1="85.52" y1="598.6" x2="25.5" y2="598.6"/>
	<line fill="none" stroke="#EDEDED" stroke-width="3" stroke-miterlimit="10" x1="205.51" y1="598.6" x2="144.67" y2="598.6"/>
</g>
</svg>
