<?xml version="1.0" encoding="utf-8"?>
<!-- Generator: Adobe Illustrator 16.0.0, SVG Export Plug-In . SVG Version: 6.00 Build 0)  -->
<!DOCTYPE svg PUBLIC "-//W3C//DTD SVG 1.1//EN" "http://www.w3.org/Graphics/SVG/1.1/DTD/svg11.dtd">
<svg version="1.1"
	 id="svg8" inkscape:version="0.92.2 5c3e80d, 2017-08-06" sodipodi:docname="MyModule.svg" xmlns:dc="http://purl.org/dc/elements/1.1/" xmlns:cc="http://creativecommons.org/ns#" xmlns:rdf="http://www.w3.org/1999/02/22-rdf-syntax-ns#" xmlns:svg="http://www.w3.org/2000/svg" xmlns:sodipodi="http://sodipodi.sourceforge.net/DTD/sodipodi-0.dtd" xmlns:inkscape="http://www.inkscape.org/namespaces/inkscape"
	 xmlns="http://www.w3.org/2000/svg" xmlns:xlink="http://www.w3.org/1999/xlink" x="0px" y="0px" width="165px" height="380px"
	 viewBox="-59.5 190.5 165 380" enable-background="new -59.5 190.5 165 380" xml:space="preserve">
<rect x="-59.5" y="190.5" fill="#1C1C1C" width="165" height="380"/>
<g display="none">
	<path display="inline" fill="#F4F4F4" d="M12.1,217.195h0.199h0.2l5.399-10.522h4.961l-7.221,14.282H8.957L1.74,206.673h4.955
		L12.1,217.195z"/>
	<path display="inline" fill="#F4F4F4" d="M31.279,206.453c4.082,0,6.595,0.34,7.539,1.021c0.826,0.589,1.24,2.149,1.24,4.684
		h-4.418c0-0.827-0.222-1.354-0.66-1.582c-0.547-0.28-1.78-0.421-3.701-0.421c-2.146,0-3.404,0.169-3.778,0.504
		c-0.375,0.332-0.562,1.385-0.562,3.158c0,1.759,0.187,2.806,0.562,3.141c0.375,0.332,1.634,0.498,3.778,0.498
		c1.947,0,3.168-0.12,3.662-0.361c0.479-0.225,0.719-0.77,0.719-1.636h4.398c0,2.546-0.398,4.104-1.195,4.678
		c-0.947,0.682-3.475,1.021-7.584,1.021c-4.104,0-6.584-0.373-7.44-1.118c-0.866-0.749-1.299-2.829-1.299-6.24
		c0-3.399,0.414-5.462,1.239-6.182C24.674,206.841,27.174,206.453,31.279,206.453z"/>
	<path display="inline" fill="#F4F4F4" d="M60.479,213.816c0,3.479-0.42,5.56-1.26,6.239c-0.904,0.731-3.638,1.099-8.197,1.099
		c-3.334,0-5.521-0.119-6.562-0.36c-1.306-0.306-2.13-0.972-2.478-1.997c-0.267-0.788-0.398-2.447-0.398-4.979
		c0-3.479,0.414-5.561,1.24-6.239c0.904-0.749,3.638-1.123,8.197-1.123c4.547,0,7.273,0.368,8.18,1.104
		C60.053,208.25,60.479,210.337,60.479,213.816z M45.982,213.816c0,1.825,0.213,2.886,0.64,3.179
		c0.414,0.306,1.88,0.459,4.399,0.459c2.533,0,4.012-0.153,4.438-0.459c0.414-0.293,0.62-1.354,0.62-3.179
		c0-1.845-0.207-2.918-0.62-3.225c-0.414-0.293-1.886-0.438-4.419-0.438s-4.005,0.146-4.419,0.438
		C46.195,210.898,45.982,211.975,45.982,213.816z"/>
</g>
<circle fill="#494949" cx="-29.5" cy="318" r="15"/>
<circle fill="#494949" cx="-33.25" cy="524.5" r="15"/>
<circle fill="#494949" cx="4.25" cy="524.5" r="15"/>
<circle fill="#494949" cx="41.75" cy="524.5" r="15"/>
<circle fill="#494949" cx="79.25" cy="524.5" r="15"/>
<circle fill="#494949" cx="50.085" cy="455.668" r="25"/>
<circle fill="#494949" cx="75" cy="318" r="16"/>
<circle fill="#494949" cx="-29.5" cy="387.667" r="15"/>
<circle fill="#494949" cx="-29.5" cy="265.833" r="15"/>
<circle fill="#494949" cx="-29.5" cy="433.834" r="15"/>
<circle fill="#494949" cx="22.078" cy="265.833" r="16"/>
<circle fill="#494949" cx="22.078" cy="318" r="16"/>
<circle fill="#494949" cx="-29.5" cy="474" r="16"/>
<g display="none">
	<path display="inline" fill="#F9F4F4" d="M-11.359,230.506h0.573l1.408,3.95h0.014l1.401-3.95h0.525l-1.703,4.7h-0.519
		L-11.359,230.506z"/>
	<path display="inline" fill="#F9F4F4" d="M-7.006,233.532v-0.105c0-1.1,0.638-1.758,1.576-1.758c0.979,0,1.576,0.638,1.576,1.737
		v0.098c0,1.106-0.645,1.765-1.584,1.765C-6.418,235.269-7.006,234.639-7.006,233.532z M-4.4,233.567v-0.177
		c0-0.966-0.47-1.28-1.037-1.28c-0.631,0-1.022,0.447-1.022,1.261v0.175c0,0.967,0.456,1.282,1.037,1.282
		C-4.793,234.828-4.4,234.387-4.4,233.567z"/>
	<path display="inline" fill="#F9F4F4" d="M-3.037,230.191h0.539v5.015h-0.539V230.191z"/>
	<path display="inline" fill="#F9F4F4" d="M-1.266,234.422v-2.241h-0.498v-0.44h0.498v-0.827h0.531v0.827h0.889v0.44h-0.889v2.156
		c0,0.337,0.112,0.47,0.512,0.47c0.146,0,0.308-0.021,0.447-0.062v0.364c-0.14,0.062-0.287,0.141-0.588,0.141
		C-0.909,235.248-1.266,235.01-1.266,234.422z"/>
	<path display="inline" fill="#F9F4F4" d="M0.75,234.295c0-0.609,0.393-0.931,1.057-1.008l0.939-0.112v-0.364
		c0-0.538-0.238-0.68-0.861-0.68c-0.336,0-0.609,0.05-0.826,0.112v-0.385c0.301-0.126,0.637-0.189,1.035-0.189
		c0.764,0,1.191,0.315,1.191,1.022v2.515H2.852l-0.058-0.302H2.759c-0.161,0.195-0.454,0.363-0.924,0.363
		C1.205,235.269,0.75,234.946,0.75,234.295z M2.746,234.597v-1.021l-0.799,0.091c-0.428,0.042-0.637,0.217-0.637,0.616
		c0,0.378,0.258,0.566,0.657,0.566C2.291,234.849,2.6,234.743,2.746,234.597z"/>
	<path display="inline" fill="#F9F4F4" d="M3.914,235.423c0-0.371,0.301-0.588,0.658-0.707v-0.035
		c-0.196-0.056-0.352-0.203-0.352-0.435c0-0.217,0.127-0.378,0.393-0.574c-0.266-0.175-0.434-0.455-0.434-0.868v-0.015
		c0-0.721,0.547-1.12,1.311-1.12c0.174,0,0.336,0.021,0.49,0.056h1.176v0.414H6.533c0.16,0.153,0.252,0.363,0.252,0.638v0.007
		c0,0.743-0.574,1.113-1.303,1.113c-0.217,0-0.414-0.034-0.597-0.099c-0.09,0.084-0.159,0.168-0.159,0.28
		c0,0.188,0.11,0.259,0.342,0.259h0.961c0.63,0,1.1,0.189,1.1,0.834c0,0.596-0.477,1.064-1.66,1.064
		C4.411,236.235,3.914,235.927,3.914,235.423z M6.568,235.241c0-0.322-0.168-0.429-0.623-0.429H4.943
		c-0.267,0.092-0.469,0.245-0.469,0.539c0,0.31,0.293,0.464,0.979,0.464C6.273,235.815,6.568,235.605,6.568,235.241z M6.246,232.804
		v-0.035c0-0.477-0.295-0.692-0.764-0.692c-0.478,0-0.771,0.252-0.771,0.687v0.035c0,0.455,0.309,0.679,0.771,0.679
		C5.966,233.476,6.246,233.252,6.246,232.804z"/>
	<path display="inline" fill="#F9F4F4" d="M7.582,233.518v-0.098c0-1.212,0.715-1.751,1.514-1.751c0.951,0,1.399,0.554,1.399,1.632
		v0.301H8.128c0.028,0.869,0.44,1.205,1.185,1.205c0.461,0,0.771-0.111,1.086-0.259v0.398c-0.211,0.146-0.609,0.321-1.17,0.321
		C8.135,235.269,7.582,234.604,7.582,233.518z M8.128,233.175h1.808c0-0.757-0.287-1.071-0.854-1.071
		C8.646,232.104,8.184,232.355,8.128,233.175z"/>
	<path display="inline" fill="#F9F4F4" d="M12.973,232.908v-0.141c0-1.681,0.938-2.339,2.135-2.339c0.504,0,0.869,0.104,1.156,0.259
		v0.463c-0.371-0.146-0.722-0.252-1.184-0.252c-0.891,0-1.52,0.531-1.52,1.778v0.23c0,1.205,0.446,1.904,1.525,1.904
		c0.581,0,0.932-0.16,1.227-0.308v0.469c-0.315,0.184-0.742,0.31-1.297,0.31C13.749,235.283,12.973,234.498,12.973,232.908z"/>
	<path display="inline" fill="#F9F4F4" d="M16.912,233.532v-0.105c0-1.1,0.639-1.758,1.576-1.758c0.979,0,1.576,0.638,1.576,1.737
		v0.098c0,1.106-0.646,1.765-1.584,1.765C17.501,235.269,16.912,234.639,16.912,233.532z M19.518,233.567v-0.177
		c0-0.966-0.469-1.28-1.035-1.28c-0.631,0-1.022,0.447-1.022,1.261v0.175c0,0.967,0.455,1.282,1.037,1.282
		C19.127,234.828,19.518,234.387,19.518,233.567z"/>
	<path display="inline" fill="#F9F4F4" d="M20.869,231.732h0.51v0.301h0.029c0.322-0.21,0.77-0.364,1.197-0.364
		c0.68,0,1.008,0.273,1.008,0.945v2.592h-0.531v-2.479c0-0.42-0.148-0.596-0.701-0.596c-0.328,0-0.693,0.119-0.98,0.253v2.822h-0.53
		L20.869,231.732L20.869,231.732z"/>
	<path display="inline" fill="#F9F4F4" d="M24.816,234.422v-2.241h-0.498v-0.44h0.498v-0.827h0.531v0.827h0.891v0.44h-0.891v2.156
		c0,0.337,0.112,0.47,0.512,0.47c0.147,0,0.309-0.021,0.449-0.062v0.364c-0.142,0.062-0.287,0.141-0.588,0.141
		C25.174,235.248,24.816,235.01,24.816,234.422z"/>
	<path display="inline" fill="#F9F4F4" d="M27.07,231.732h0.51v0.392h0.035c0.197-0.224,0.574-0.427,0.967-0.427
		c0.078,0,0.176,0.007,0.211,0.014v0.483c-0.092-0.015-0.197-0.021-0.252-0.021c-0.352,0-0.688,0.126-0.932,0.302v2.731H27.07
		V231.732L27.07,231.732z"/>
	<path display="inline" fill="#F9F4F4" d="M29.273,233.532v-0.105c0-1.1,0.639-1.758,1.576-1.758c0.979,0,1.575,0.638,1.575,1.737
		v0.098c0,1.106-0.646,1.765-1.582,1.765C29.863,235.269,29.273,234.639,29.273,233.532z M31.879,233.567v-0.177
		c0-0.966-0.469-1.28-1.035-1.28c-0.631,0-1.023,0.447-1.023,1.261v0.175c0,0.967,0.455,1.282,1.037,1.282
		C31.488,234.828,31.879,234.387,31.879,233.567z"/>
	<path display="inline" fill="#F9F4F4" d="M33.244,230.191h0.539v5.015h-0.539V230.191z"/>
	<path display="inline" fill="#F9F4F4" d="M34.832,230.191h0.539v5.015h-0.539V230.191z"/>
	<path display="inline" fill="#F9F4F4" d="M36.189,233.518v-0.098c0-1.212,0.715-1.751,1.514-1.751c0.953,0,1.4,0.554,1.4,1.632
		v0.301h-2.367c0.027,0.869,0.44,1.205,1.184,1.205c0.463,0,0.771-0.111,1.086-0.259v0.398c-0.211,0.146-0.609,0.321-1.17,0.321
		C36.744,235.269,36.189,234.604,36.189,233.518z M36.736,233.175h1.807c0-0.757-0.287-1.071-0.854-1.071
		C37.254,232.104,36.793,232.355,36.736,233.175z"/>
	<path display="inline" fill="#F9F4F4" d="M39.705,233.567v-0.093c0-1.261,0.65-1.807,1.547-1.807c0.428,0,0.721,0.119,0.91,0.231
		v-1.71h0.539v5.016h-0.447l-0.062-0.287h-0.028c-0.209,0.203-0.547,0.35-1.017,0.35C40.453,235.269,39.705,234.849,39.705,233.567z
		 M42.162,234.533v-2.186c-0.16-0.126-0.482-0.225-0.84-0.225c-0.658,0-1.059,0.344-1.059,1.282v0.14
		c0,0.974,0.422,1.282,1.045,1.282C41.715,234.828,41.988,234.674,42.162,234.533z"/>
	<path display="inline" fill="#F9F4F4" d="M45.389,232.908v-0.111c0-1.479,0.777-2.367,2.072-2.367c1.268,0,2.045,0.833,2.045,2.374
		v0.112c0,1.478-0.777,2.367-2.064,2.367C46.166,235.283,45.389,234.449,45.389,232.908z M48.912,233.021v-0.218
		c0-1.142-0.414-1.912-1.479-1.919c-0.968,0-1.449,0.756-1.449,1.808v0.217c0,1.135,0.42,1.92,1.471,1.92
		C48.428,234.828,48.912,234.064,48.912,233.021z"/>
	<path display="inline" fill="#F9F4F4" d="M50.113,235.017v-0.427c0.301,0.111,0.553,0.217,1.043,0.217
		c0.555,0,0.777-0.195,0.777-0.512c0-0.321-0.16-0.462-0.603-0.588l-0.345-0.091c-0.504-0.142-0.848-0.371-0.848-0.96
		c0-0.588,0.387-0.987,1.185-0.987c0.463,0,0.764,0.105,0.946,0.203v0.435c-0.184-0.092-0.533-0.183-0.918-0.183
		c-0.469,0-0.701,0.161-0.701,0.483c0,0.301,0.148,0.428,0.521,0.531l0.351,0.099c0.666,0.176,0.938,0.398,0.938,1.002
		c0,0.658-0.461,1.021-1.225,1.021C50.779,235.262,50.4,235.178,50.113,235.017z"/>
	<path display="inline" fill="#F9F4F4" d="M53.039,233.539v-0.105c0-1.231,0.729-1.765,1.625-1.765c0.455,0,0.729,0.084,0.959,0.231
		v0.447c-0.309-0.141-0.531-0.225-0.988-0.225c-0.629,0-1.043,0.428-1.043,1.226v0.168c0,0.891,0.371,1.289,1.113,1.289
		c0.471,0,0.777-0.146,0.953-0.245v0.436c-0.225,0.133-0.533,0.271-1.016,0.271C53.648,235.269,53.039,234.681,53.039,233.539z"/>
	<path display="inline" fill="#F9F4F4" d="M56.42,230.479h0.547v0.562H56.42V230.479z M56.428,231.739h0.531v3.467h-0.531V231.739z"
		/>
	<path display="inline" fill="#F9F4F4" d="M58.01,230.191h0.539v5.015H58.01V230.191z"/>
	<path display="inline" fill="#F9F4F4" d="M59.598,230.191h0.539v5.015h-0.539V230.191z"/>
	<path display="inline" fill="#F9F4F4" d="M60.936,234.295c0-0.609,0.392-0.931,1.058-1.008l0.938-0.112v-0.364
		c0-0.538-0.238-0.68-0.861-0.68c-0.338,0-0.608,0.05-0.827,0.112v-0.385c0.303-0.126,0.639-0.189,1.036-0.189
		c0.765,0,1.191,0.315,1.191,1.022v2.515h-0.436l-0.055-0.302h-0.035c-0.162,0.195-0.455,0.363-0.926,0.363
		C61.391,235.269,60.936,234.946,60.936,234.295z M62.932,234.597v-1.021l-0.799,0.091c-0.428,0.042-0.639,0.217-0.639,0.616
		c0,0.378,0.26,0.566,0.66,0.566C62.477,234.849,62.783,234.743,62.932,234.597z"/>
	<path display="inline" fill="#F9F4F4" d="M64.672,234.422v-2.241h-0.496v-0.44h0.496v-0.827h0.533v0.827h0.889v0.44h-0.889v2.156
		c0,0.337,0.111,0.47,0.512,0.47c0.146,0,0.309-0.021,0.447-0.062v0.364c-0.139,0.062-0.287,0.141-0.588,0.141
		C65.029,235.248,64.672,235.01,64.672,234.422z"/>
	<path display="inline" fill="#F9F4F4" d="M66.709,233.532v-0.105c0-1.1,0.639-1.758,1.576-1.758c0.98,0,1.576,0.638,1.576,1.737
		v0.098c0,1.106-0.646,1.765-1.582,1.765C67.299,235.269,66.709,234.639,66.709,233.532z M69.314,233.567v-0.177
		c0-0.966-0.469-1.28-1.035-1.28c-0.631,0-1.023,0.447-1.023,1.261v0.175c0,0.967,0.455,1.282,1.037,1.282
		C68.924,234.828,69.314,234.387,69.314,233.567z"/>
	<path display="inline" fill="#F9F4F4" d="M70.666,231.732h0.51v0.392h0.035c0.197-0.224,0.574-0.427,0.967-0.427
		c0.078,0,0.176,0.007,0.211,0.014v0.483c-0.092-0.015-0.197-0.021-0.252-0.021c-0.352,0-0.688,0.126-0.932,0.302v2.731h-0.539
		V231.732L70.666,231.732z"/>
</g>
<g>
	<path fill="#EDEDED" d="M-2.173,555.434h1.28v2.979h2.845v1.02h-4.125V555.434z"/>
	<path fill="#EDEDED" d="M2.23,555.434h1.28v3.999H2.23V555.434z"/>
	<path fill="#EDEDED" d="M4.07,555.434h2.136l2.095,2.982h0.126l-0.029-2.982h1.239v3.999H7.519l-2.104-2.985H5.283l0.026,2.985
		H4.07V555.434z"/>
	<path fill="#EDEDED" d="M10.196,559.433v-3.999h2.886c0.627,0,1.032,0.011,1.216,0.032c0.355,0.041,0.617,0.134,0.785,0.274
		c0.18,0.156,0.298,0.408,0.354,0.76c0.027,0.166,0.041,0.455,0.041,0.866c0,0.529-0.023,0.897-0.07,1.104
		c-0.064,0.281-0.17,0.488-0.316,0.621c-0.1,0.092-0.221,0.161-0.363,0.208s-0.335,0.081-0.577,0.103
		c-0.191,0.021-0.547,0.026-1.066,0.026L10.196,559.433L10.196,559.433z M11.397,558.413h1.696c0.344,0,0.601-0.018,0.771-0.041
		c0.188-0.031,0.309-0.14,0.357-0.313c0.037-0.129,0.056-0.332,0.056-0.609c0-0.297-0.02-0.515-0.059-0.649
		c-0.047-0.174-0.154-0.279-0.322-0.316c-0.133-0.028-0.404-0.047-0.814-0.047h-1.685V558.413L11.397,558.413z"/>
	<path fill="#EDEDED" d="M15.958,555.434h4.43v0.94h-3.229v0.577h3.064v0.879h-3.064v0.642h3.252v0.961h-4.453V555.434
		L15.958,555.434z"/>
	<path fill="#EDEDED" d="M20.792,555.434h2.136l2.095,2.982h0.126l-0.029-2.982h1.239v3.999h-2.118l-2.104-2.985h-0.132l0.026,2.985
		h-1.239V555.434z"/>
	<path fill="#EDEDED" d="M26.918,559.433v-3.999h2.874c0.611,0.002,0.975,0.007,1.09,0.015c0.262,0.02,0.454,0.062,0.577,0.145
		c0.142,0.09,0.231,0.214,0.274,0.372c0.039,0.146,0.06,0.316,0.06,0.51c0,0.234-0.022,0.411-0.067,0.53
		c-0.074,0.189-0.23,0.321-0.472,0.396c0.178,0.031,0.31,0.076,0.396,0.137c0.195,0.133,0.293,0.404,0.293,0.824
		c0,0.326-0.051,0.567-0.151,0.728c-0.09,0.137-0.228,0.229-0.41,0.277c-0.156,0.041-0.418,0.062-0.785,0.064l-0.794,0.006
		L26.918,559.433L26.918,559.433z M28.079,557.01h1.717c0.377,0,0.602-0.016,0.674-0.044c0.096-0.037,0.144-0.133,0.144-0.287
		c0-0.158-0.058-0.253-0.173-0.284c-0.045-0.012-0.26-0.019-0.645-0.021h-1.717V557.01L28.079,557.01z M28.079,558.472h1.723
		c0.32-0.002,0.509-0.004,0.565-0.006c0.178-0.008,0.291-0.043,0.34-0.105c0.037-0.051,0.056-0.129,0.056-0.23
		c0-0.168-0.061-0.271-0.182-0.296c-0.043-0.016-0.303-0.021-0.779-0.021h-1.723V558.472L28.079,558.472z"/>
	<path fill="#EDEDED" d="M32.365,555.434h4.43v0.94h-3.229v0.577h3.064v0.879h-3.064v0.642h3.252v0.961h-4.452V555.434
		L32.365,555.434z"/>
	<path fill="#EDEDED" d="M37.199,559.433v-3.999h2.944c0.694,0.002,1.104,0.009,1.229,0.021c0.144,0.014,0.272,0.056,0.388,0.125
		c0.116,0.065,0.207,0.153,0.271,0.265c0.066,0.115,0.105,0.235,0.119,0.36c0.019,0.146,0.027,0.319,0.027,0.526
		c0,0.326-0.021,0.558-0.068,0.687c-0.067,0.188-0.196,0.32-0.387,0.396c-0.063,0.025-0.16,0.048-0.289,0.067
		c0.256,0.02,0.438,0.093,0.551,0.22c0.049,0.057,0.082,0.121,0.104,0.195c0.021,0.068,0.035,0.18,0.042,0.316
		c0.002,0.072,0.003,0.224,0.003,0.442v0.372h-1.201v-0.214c0-0.238-0.011-0.409-0.031-0.516c-0.031-0.146-0.11-0.233-0.237-0.265
		c-0.084-0.019-0.261-0.025-0.53-0.025h-1.717v1.02L37.199,559.433L37.199,559.433z M38.417,557.417h1.714
		c0.257-0.005,0.407-0.012,0.454-0.016c0.172-0.01,0.28-0.062,0.325-0.155c0.03-0.065,0.047-0.182,0.047-0.34
		c0-0.137-0.015-0.234-0.041-0.305c-0.041-0.098-0.14-0.148-0.296-0.164c-0.055-0.004-0.219-0.007-0.492-0.009h-1.711V557.417
		L38.417,557.417z"/>
	<path fill="#EDEDED" d="M45.044,557.165h2.786c0.004,0.088,0.006,0.145,0.006,0.17c0,0.521-0.015,0.928-0.044,1.213
		c-0.047,0.461-0.309,0.739-0.785,0.838c-0.246,0.049-0.516,0.078-0.809,0.088c-0.312,0.012-0.68,0.018-1.104,0.018
		c-0.757,0-1.297-0.023-1.621-0.081c-0.449-0.071-0.728-0.278-0.834-0.618c-0.054-0.166-0.084-0.356-0.092-0.571
		c-0.01-0.271-0.015-0.557-0.015-0.861c0-0.516,0.024-0.878,0.073-1.087c0.069-0.291,0.19-0.496,0.363-0.615
		c0.09-0.062,0.202-0.109,0.338-0.146c0.135-0.033,0.327-0.062,0.575-0.083c0.351-0.031,0.822-0.047,1.418-0.047
		c0.767,0,1.308,0.028,1.626,0.091c0.322,0.061,0.549,0.168,0.68,0.322c0.115,0.139,0.187,0.354,0.211,0.654
		c0.007,0.078,0.01,0.201,0.01,0.367h-1.219c-0.002-0.105-0.008-0.184-0.019-0.223c-0.026-0.1-0.114-0.159-0.261-0.179
		c-0.193-0.025-0.574-0.038-1.143-0.038c-0.506,0-0.856,0.017-1.053,0.05c-0.186,0.033-0.298,0.135-0.337,0.305
		c-0.03,0.129-0.047,0.358-0.047,0.688c0,0.379,0.017,0.638,0.05,0.772c0.043,0.188,0.176,0.289,0.398,0.312
		c0.109,0.01,0.439,0.019,0.99,0.023c0.602-0.005,0.988-0.017,1.162-0.032c0.158-0.025,0.25-0.099,0.272-0.209
		c0.015-0.069,0.021-0.181,0.021-0.321h-1.603v-0.802L45.044,557.165L45.044,557.165z"/>
	<path fill="#EDEDED" d="M1.622,566.633v-3.999h2.944c0.695,0.002,1.105,0.009,1.23,0.021c0.143,0.018,0.272,0.06,0.388,0.125
		c0.116,0.069,0.207,0.157,0.271,0.269c0.066,0.111,0.106,0.231,0.12,0.356c0.018,0.146,0.026,0.323,0.026,0.53
		c0,0.326-0.022,0.554-0.067,0.683c-0.068,0.191-0.197,0.324-0.387,0.398c-0.064,0.025-0.161,0.048-0.29,0.067
		c0.256,0.02,0.439,0.093,0.551,0.22c0.049,0.057,0.083,0.121,0.104,0.195c0.021,0.068,0.035,0.18,0.042,0.316
		c0.002,0.072,0.003,0.22,0.003,0.442v0.372H5.356v-0.214c0-0.238-0.011-0.409-0.032-0.517c-0.031-0.146-0.11-0.232-0.237-0.264
		c-0.084-0.018-0.261-0.026-0.53-0.026H2.84v1.021L1.622,566.633L1.622,566.633z M2.841,564.617h1.714
		c0.256-0.004,0.407-0.008,0.454-0.012c0.172-0.01,0.28-0.062,0.325-0.158c0.031-0.062,0.047-0.179,0.047-0.337
		c0-0.137-0.014-0.234-0.041-0.305c-0.041-0.098-0.14-0.152-0.296-0.164c-0.055-0.004-0.219-0.007-0.492-0.009H2.841V564.617
		L2.841,564.617z"/>
	<path fill="#EDEDED" d="M7.021,562.634h4.43v0.938H8.222v0.577h3.064v0.879H8.222v0.646h3.252v0.961H7.021V562.634L7.021,562.634z"
		/>
	<path fill="#EDEDED" d="M11.715,565.309h1.181c-0.002,0.197,0.038,0.324,0.12,0.381c0.043,0.027,0.092,0.046,0.146,0.06
		c0.054,0.01,0.15,0.017,0.287,0.021c0.068,0.002,0.292,0.004,0.671,0.006c0.52-0.002,0.82-0.005,0.902-0.009
		c0.154-0.012,0.256-0.032,0.305-0.062c0.068-0.045,0.103-0.141,0.103-0.285c0-0.104-0.021-0.174-0.064-0.215
		c-0.059-0.06-0.198-0.09-0.419-0.094c-0.152,0-0.471-0.012-0.955-0.033c-0.5-0.021-0.824-0.035-0.973-0.041
		c-0.387-0.014-0.659-0.059-0.817-0.137c-0.203-0.1-0.336-0.27-0.398-0.51c-0.035-0.133-0.053-0.307-0.053-0.521
		c0-0.45,0.086-0.771,0.258-0.955c0.129-0.145,0.324-0.233,0.586-0.278c0.236-0.039,0.799-0.062,1.688-0.062
		c0.578,0,0.986,0.021,1.225,0.054c0.314,0.045,0.541,0.123,0.68,0.23c0.188,0.154,0.281,0.435,0.281,0.829
		c0,0.043-0.001,0.111-0.003,0.205h-1.181c-0.004-0.096-0.011-0.162-0.021-0.199c-0.027-0.105-0.117-0.171-0.27-0.185
		c-0.135-0.014-0.463-0.021-0.984-0.021c-0.516,0-0.821,0.019-0.917,0.045c-0.107,0.034-0.161,0.125-0.161,0.271
		c0,0.141,0.057,0.227,0.17,0.258c0.096,0.025,0.526,0.05,1.292,0.073c0.693,0.02,1.136,0.044,1.327,0.073
		c0.193,0.025,0.347,0.069,0.461,0.132c0.114,0.059,0.206,0.142,0.274,0.249c0.104,0.158,0.155,0.413,0.155,0.765
		c0,0.396-0.051,0.683-0.152,0.864c-0.102,0.182-0.268,0.306-0.498,0.372c-0.227,0.063-0.851,0.1-1.872,0.1
		c-0.621,0-1.069-0.017-1.345-0.05c-0.336-0.039-0.577-0.115-0.724-0.229c-0.158-0.121-0.252-0.294-0.281-0.517
		c-0.016-0.104-0.023-0.23-0.023-0.381L11.715,565.309L11.715,565.309z"/>
	<path fill="#EDEDED" d="M17.032,562.634h4.43v0.938h-3.229v0.577h3.064v0.879h-3.064v0.646h3.252v0.961h-4.453V562.634
		L17.032,562.634z"/>
	<path fill="#EDEDED" d="M26.208,566.633l-0.343-0.677h-2.646l-0.343,0.677h-1.392l2.121-3.999h1.893l2.092,3.999H26.208z
		 M25.437,565.08l-0.771-1.519h-0.243l-0.771,1.519H25.437z"/>
	<path fill="#EDEDED" d="M27.772,566.633v-3.999h2.944c0.695,0.002,1.105,0.009,1.23,0.021c0.143,0.018,0.271,0.06,0.388,0.125
		c0.116,0.069,0.207,0.157,0.271,0.269c0.066,0.111,0.106,0.231,0.121,0.356c0.018,0.146,0.025,0.323,0.025,0.53
		c0,0.326-0.021,0.554-0.066,0.683c-0.068,0.191-0.197,0.324-0.388,0.398c-0.063,0.025-0.161,0.048-0.29,0.067
		c0.256,0.02,0.439,0.093,0.551,0.22c0.049,0.057,0.084,0.121,0.104,0.195c0.021,0.068,0.034,0.18,0.042,0.316
		c0.002,0.072,0.003,0.22,0.003,0.442v0.372h-1.201v-0.214c0-0.238-0.011-0.409-0.032-0.517c-0.031-0.146-0.109-0.232-0.237-0.264
		c-0.084-0.018-0.261-0.026-0.53-0.026H28.99v1.021L27.772,566.633L27.772,566.633z M28.991,564.617h1.714
		c0.256-0.004,0.407-0.008,0.454-0.012c0.172-0.01,0.28-0.062,0.324-0.158c0.031-0.062,0.048-0.179,0.048-0.337
		c0-0.137-0.015-0.234-0.041-0.305c-0.041-0.098-0.14-0.152-0.296-0.164c-0.055-0.004-0.219-0.007-0.492-0.009h-1.711V564.617
		L28.991,564.617z"/>
	<path fill="#EDEDED" d="M36.998,565.089h1.219c0.009,0.191,0.013,0.329,0.013,0.397c0,0.291-0.047,0.524-0.139,0.7
		c-0.096,0.188-0.277,0.312-0.548,0.384c-0.295,0.08-0.806,0.12-1.528,0.12c-0.8,0-1.338-0.013-1.615-0.038
		c-0.258-0.021-0.461-0.056-0.608-0.103s-0.271-0.115-0.369-0.205c-0.131-0.121-0.214-0.281-0.249-0.48
		c-0.039-0.209-0.059-0.607-0.059-1.207c0-0.568,0.015-0.958,0.044-1.153c0.043-0.301,0.159-0.52,0.349-0.65
		c0.145-0.102,0.375-0.174,0.691-0.217c0.328-0.043,0.917-0.064,1.767-0.064c0.507,0,0.866,0.015,1.081,0.032
		c0.324,0.031,0.561,0.094,0.709,0.188c0.184,0.111,0.301,0.278,0.35,0.5c0.035,0.153,0.053,0.338,0.053,0.543
		c0,0.031-0.001,0.108-0.004,0.229h-1.219c-0.004-0.098-0.008-0.164-0.012-0.199c-0.016-0.119-0.068-0.19-0.16-0.226
		c-0.14-0.047-0.519-0.07-1.138-0.07c-0.422,0-0.713,0.015-0.873,0.035c-0.194,0.027-0.315,0.134-0.362,0.319
		c-0.037,0.146-0.057,0.393-0.057,0.727c0,0.344,0.02,0.581,0.057,0.712c0.047,0.17,0.176,0.271,0.387,0.296
		c0.172,0.021,0.474,0.032,0.904,0.032c0.467,0,0.785-0.01,0.955-0.029c0.16-0.018,0.262-0.072,0.305-0.173
		C36.976,565.408,36.994,565.274,36.998,565.089z"/>
	<path fill="#EDEDED" d="M38.649,562.634h1.281v1.43h2.75v-1.43h1.28v3.999h-1.28v-1.45h-2.75v1.45h-1.281V562.634z"/>
</g>
<circle fill="#494949" cx="75" cy="265.833" r="16"/>
<circle fill="#494949" cx="48.974" cy="387.667" r="25"/>
<polyline fill="none" stroke="#FCFCFC" stroke-miterlimit="10" points="-37.166,546.5 -54.5,546.5 -54.5,532.168 "/>
<path fill="none" stroke="#FCFCFC" stroke-miterlimit="10" d="M-37.166,565.5"/>
<polyline fill="none" stroke="#FCFCFC" stroke-miterlimit="10" points="100.5,531.5 100.5,546.5 83.168,546.5 "/>
<polyline fill="none" stroke="#FCFCFC" stroke-miterlimit="10" points="-0.5,216.5 100.5,216.5 100.5,231.5 "/>
<polyline fill="none" stroke="#FCFCFC" stroke-miterlimit="10" points="-54.5,231.5 -54.5,216.5 -48.167,216.5 "/>
<g>
	<path fill="#F4F4F4" d="M-40.176,216.681h0.15h0.15l4.051-7.892h3.721l-5.417,10.712h-5.01l-5.413-10.712h3.717L-40.176,216.681z"
		/>
	<path fill="#F4F4F4" d="M-25.536,208.624c3.062,0,4.946,0.256,5.654,0.766c0.62,0.442,0.931,1.613,0.931,3.512h-3.314
		c0-0.619-0.165-1.015-0.494-1.186c-0.41-0.21-1.336-0.315-2.776-0.315c-1.609,0-2.554,0.126-2.834,0.377
		c-0.281,0.249-0.421,1.039-0.421,2.37c0,1.318,0.14,2.103,0.421,2.354c0.28,0.249,1.225,0.373,2.834,0.373
		c1.46,0,2.375-0.09,2.747-0.271c0.358-0.169,0.538-0.577,0.538-1.227h3.3c0,1.909-0.299,3.078-0.897,3.508
		c-0.71,0.511-2.606,0.766-5.688,0.766c-3.079,0-4.939-0.279-5.581-0.839c-0.649-0.562-0.974-2.121-0.974-4.681
		c0-2.551,0.31-4.096,0.93-4.636C-30.49,208.915-28.615,208.624-25.536,208.624z"/>
	<path fill="#F4F4F4" d="M-3.381,214.147c0,2.609-0.314,4.17-0.944,4.68c-0.679,0.549-2.729,0.824-6.149,0.824
		c-2.5,0-4.141-0.091-4.922-0.271c-0.979-0.229-1.598-0.729-1.857-1.498c-0.2-0.59-0.3-1.835-0.3-3.734c0-2.61,0.31-4.17,0.93-4.681
		c0.679-0.562,2.729-0.843,6.149-0.843c3.411,0,5.455,0.276,6.134,0.828C-3.701,209.972-3.381,211.537-3.381,214.147z
		 M-14.253,214.147c0,1.369,0.16,2.164,0.48,2.384c0.31,0.229,1.41,0.344,3.299,0.344c1.899,0,3.009-0.114,3.329-0.344
		c0.31-0.22,0.465-1.015,0.465-2.384c0-1.382-0.155-2.188-0.465-2.418c-0.31-0.219-1.415-0.329-3.314-0.329s-3.004,0.11-3.314,0.329
		C-14.094,211.96-14.253,212.766-14.253,214.147z"/>
</g>
<g>
	<g>
		<path fill="#F4F4F4" d="M-33.792,237.167c1.633,0,2.638,0.136,3.016,0.408c0.331,0.235,0.496,0.86,0.496,1.873h-1.768
			c0-0.331-0.088-0.542-0.264-0.633c-0.219-0.112-0.712-0.168-1.48-0.168c-0.858,0-1.362,0.067-1.512,0.201
			c-0.15,0.133-0.225,0.554-0.225,1.264c0,0.703,0.075,1.122,0.225,1.256c0.15,0.133,0.654,0.199,1.512,0.199
			c0.779,0,1.267-0.048,1.465-0.145c0.191-0.09,0.287-0.308,0.287-0.654h1.76c0,1.019-0.16,1.642-0.479,1.871
			c-0.379,0.272-1.39,0.408-3.033,0.408c-1.642,0-2.634-0.149-2.977-0.447c-0.346-0.3-0.52-1.132-0.52-2.496
			c0-1.36,0.166-2.185,0.496-2.473C-36.435,237.322-35.435,237.167-33.792,237.167z"/>
		<path fill="#F4F4F4" d="M-26.016,241.464h0.08h0.08l2.16-4.209h1.984l-2.889,5.713h-2.672l-2.887-5.713h1.982L-26.016,241.464z"/>
	</g>
	<polygon fill="#F9F9F9" points="-25.53,244.137 -29.697,248.301 -33.863,244.137 	"/>
</g>
<g>
	<g>
		<path fill="#F4F4F4" d="M-33.989,288.767c1.633,0,2.638,0.136,3.016,0.408c0.331,0.235,0.496,0.86,0.496,1.873h-1.768
			c0-0.331-0.088-0.542-0.264-0.633c-0.219-0.112-0.712-0.168-1.48-0.168c-0.858,0-1.362,0.067-1.512,0.201
			c-0.15,0.133-0.225,0.554-0.225,1.264c0,0.703,0.075,1.122,0.225,1.256c0.15,0.133,0.654,0.199,1.512,0.199
			c0.779,0,1.267-0.048,1.465-0.145c0.191-0.09,0.287-0.308,0.287-0.654h1.76c0,1.019-0.16,1.642-0.479,1.871
			c-0.379,0.272-1.39,0.408-3.033,0.408c-1.642,0-2.634-0.149-2.977-0.447c-0.346-0.3-0.52-1.132-0.52-2.496
			c0-1.36,0.166-2.185,0.496-2.473C-36.631,288.922-35.631,288.767-33.989,288.767z"/>
		<path fill="#F4F4F4" d="M-26.213,293.063h0.08h0.08l2.16-4.209h1.984l-2.889,5.713h-2.672l-2.887-5.713h1.982L-26.213,293.063z"/>
	</g>
	<polygon fill="#F4F4F4" points="-25.727,295.736 -29.894,299.9 -34.06,295.736 	"/>
</g>
<g>
	<g>
		<path fill="#F4F4F4" d="M-37.432,358.503c1.633,0,2.638,0.136,3.016,0.408c0.331,0.235,0.496,0.86,0.496,1.873h-1.768
			c0-0.331-0.088-0.542-0.264-0.633c-0.219-0.112-0.712-0.168-1.48-0.168c-0.858,0-1.362,0.067-1.512,0.201
			c-0.15,0.133-0.225,0.554-0.225,1.264c0,0.703,0.075,1.122,0.225,1.256c0.15,0.133,0.654,0.199,1.512,0.199
			c0.779,0,1.267-0.048,1.465-0.145c0.191-0.09,0.287-0.308,0.287-0.654h1.76c0,1.019-0.16,1.642-0.479,1.871
			c-0.379,0.272-1.39,0.408-3.033,0.408c-1.642,0-2.634-0.149-2.977-0.447c-0.346-0.3-0.52-1.132-0.52-2.496
			c0-1.36,0.166-2.185,0.496-2.473C-40.074,358.658-39.074,358.503-37.432,358.503z"/>
		<path fill="#F4F4F4" d="M-29.655,362.8h0.08h0.08l2.16-4.209h1.984l-2.889,5.713h-2.672l-2.887-5.713h1.982L-29.655,362.8z"/>
		<path fill="#F4F4F4" d="M-19.784,364.304h-1.76v-4.225h-0.271l-1.744,1.529l-0.936-1.168l2.039-1.84h2.672V364.304z"/>
	</g>
	<polygon fill="#F4F4F4" points="-25.504,365.886 -29.671,370.05 -33.837,365.886 	"/>
</g>
<g>
	<g>
		<path fill="#F4F4F4" d="M-38.122,404.899c1.633,0,2.638,0.136,3.016,0.408c0.331,0.235,0.496,0.86,0.496,1.873h-1.768
			c0-0.331-0.088-0.542-0.264-0.633c-0.219-0.112-0.712-0.168-1.48-0.168c-0.858,0-1.362,0.067-1.512,0.201
			c-0.15,0.133-0.225,0.554-0.225,1.264c0,0.703,0.075,1.122,0.225,1.256c0.15,0.133,0.654,0.199,1.512,0.199
			c0.779,0,1.267-0.048,1.465-0.145c0.191-0.09,0.287-0.308,0.287-0.654h1.76c0,1.019-0.16,1.642-0.479,1.871
			c-0.379,0.272-1.39,0.408-3.033,0.408c-1.642,0-2.634-0.149-2.977-0.447c-0.346-0.3-0.52-1.132-0.52-2.496
			c0-1.36,0.166-2.185,0.496-2.473C-40.764,405.055-39.764,404.899-38.122,404.899z"/>
		<path fill="#F4F4F4" d="M-30.346,409.196h0.08h0.08l2.16-4.209h1.984l-2.889,5.713h-2.672l-2.887-5.713h1.982L-30.346,409.196z"/>
		<path fill="#F4F4F4" d="M-22.57,407.3c0.694,0,1.134-0.026,1.32-0.08c0.181-0.054,0.271-0.176,0.271-0.367
			c0-0.234-0.064-0.37-0.191-0.408c-0.133-0.038-0.602-0.057-1.408-0.057c-0.827,0-1.307,0.026-1.439,0.08
			c-0.134,0.059-0.201,0.256-0.201,0.592h-1.68c0-1.051,0.166-1.677,0.496-1.879c0.299-0.183,1.241-0.273,2.824-0.273
			c1.43,0,2.328,0.099,2.695,0.297c0.363,0.203,0.545,0.686,0.545,1.447c0,0.907-0.246,1.489-0.736,1.744
			c-0.379,0.198-1.213,0.297-2.504,0.297c-0.72,0-1.184,0.04-1.393,0.119c-0.166,0.063-0.248,0.2-0.248,0.408h4.801v1.48h-6.561
			v-1.76c0-0.598,0.277-1.021,0.832-1.271C-24.597,407.423-23.738,407.3-22.57,407.3z"/>
	</g>
	<polygon fill="#F4F4F4" points="-25.944,412.282 -30.11,416.446 -34.277,412.282 	"/>
</g>
<g>
	<g>
		<path fill="#F4F4F4" d="M6.092,245.225h4.204v1.353H6.078L6.092,245.225z"/>
	</g>
	<g>
		<path fill="#F4F4F4" d="M34.812,246.062H32.68v-0.961h2.133v-1.879h0.961v1.879h2.133v0.961h-2.133v1.875h-0.961V246.062z"/>
	</g>
</g>
<g>
	<g>
		<path fill="#F4F4F4" d="M6.178,297.381h4.204v1.353H6.163L6.178,297.381z"/>
	</g>
	<g>
		<path fill="#F4F4F4" d="M34.898,298.219h-2.133v-0.961h2.133v-1.879h0.961v1.879h2.133v0.961h-2.133v1.875h-0.961V298.219z"/>
	</g>
</g>
<g>
	<g>
		<path fill="#F4F4F4" d="M-45.314,454.312h4.204v1.353h-4.219L-45.314,454.312z"/>
	</g>
	<g>
		<path fill="#F4F4F4" d="M-16.594,455.15h-2.133v-0.961h2.133v-1.879h0.961v1.879h2.133v0.961h-2.133v1.875h-0.961V455.15z"/>
	</g>
</g>
<g>
	<path fill-rule="evenodd" clip-rule="evenodd" fill="#FFFFFF" d="M16.5,387.543h4.106v0.821H16.5V387.543L16.5,387.543z
		 M17.011,382.194l4.05,0.677l-0.136,0.811l-4.049-0.677L17.011,382.194L17.011,382.194z M18.397,377.004l3.883,1.335l-0.267,0.776
		l-3.883-1.335L18.397,377.004L18.397,377.004z M20.619,372.112l3.611,1.955l-0.392,0.722l-3.609-1.955L20.619,372.112
		L20.619,372.112z M23.617,367.653l3.239,2.524l-0.506,0.647l-3.237-2.524L23.617,367.653L23.617,367.653z M27.307,363.75
		l2.779,3.021l-0.604,0.556l-2.778-3.022L27.307,363.75L27.307,363.75z M31.591,360.507l2.242,3.439l-0.688,0.447l-2.242-3.438
		L31.591,360.507L31.591,360.507z M36.35,358.014l1.646,3.762l-0.752,0.328l-1.645-3.761L36.35,358.014L36.35,358.014z
		 M41.456,356.34l1.003,3.98l-0.796,0.199l-1.003-3.979L41.456,356.34L41.456,356.34z M46.767,355.528l0.334,4.092l-0.819,0.066
		l-0.333-4.092L46.767,355.528L46.767,355.528z M52.139,355.604l-0.344,4.09l-0.818-0.068l0.344-4.091L52.139,355.604
		L52.139,355.604z M57.405,356.613l-1.015,3.977l-0.796-0.203l1.014-3.977L57.405,356.613L57.405,356.613z M62.482,358.379
		l-1.656,3.757l-0.753-0.332l1.656-3.756L62.482,358.379L62.482,358.379z M67.169,361.004l-2.251,3.433l-0.687-0.451l2.252-3.432
		L67.169,361.004L67.169,361.004z M71.36,364.365l-2.786,3.015l-0.602-0.558l2.786-3.015L71.36,364.365L71.36,364.365z
		 M77.813,372.911l-3.615,1.946l-0.39-0.723l3.614-1.946L77.813,372.911L77.813,372.911z M74.942,368.371l-3.246,2.515l-0.502-0.649
		l3.245-2.515L74.942,368.371L74.942,368.371z M26.808,405.671l-3.246,2.515l-0.502-0.649l3.244-2.514L26.808,405.671
		L26.808,405.671z M79.897,377.863l-3.887,1.324l-0.263-0.778l3.885-1.323L79.897,377.863L79.897,377.863z M81.137,383.091
		l-4.052,0.665l-0.132-0.81l4.05-0.665L81.137,383.091L81.137,383.091z M21.048,392.961l-4.051,0.666l-0.133-0.811l4.051-0.665
		L21.048,392.961L21.048,392.961z M22.254,397.498l-3.886,1.322l-0.265-0.776l3.887-1.324L22.254,397.498L22.254,397.498z
		 M24.191,401.772l-3.614,1.946l-0.389-0.723l3.615-1.945L24.191,401.772L24.191,401.772z M71.65,405.083l3.237,2.523l-0.504,0.647
		l-3.237-2.523L71.65,405.083L71.65,405.083z M74.162,401.118l3.611,1.955l-0.392,0.722l-3.609-1.955L74.162,401.118L74.162,401.118
		z M75.987,396.792l3.883,1.335l-0.267,0.776l-3.883-1.334L75.987,396.792L75.987,396.792z M77.075,392.226l4.05,0.677l-0.136,0.811
		l-4.05-0.677L77.075,392.226L77.075,392.226z M77.396,387.543H81.5v0.821h-4.104V387.543z"/>
	<path fill-rule="evenodd" clip-rule="evenodd" fill="#BCBDBF" d="M29.324,396.438l2.186-0.971l0.194,0.437l-2.187,0.972
		L29.324,396.438L29.324,396.438z M67.004,399.571l-2.024-1.273l0.255-0.405l2.024,1.274L67.004,399.571L67.004,399.571z
		 M69.1,395.374l-1.398-0.499l0.16-0.449l1.4,0.498L69.1,395.374L69.1,395.374z M70.174,391.235l-2.367-0.34l0.067-0.475
		l2.368,0.341L70.174,391.235L70.174,391.235z M70.381,386.56l-1.48,0.112l-0.038-0.477l1.483-0.112L70.381,386.56L70.381,386.56z
		 M69.768,382.681l-2.311,0.614l-0.123-0.462l2.311-0.615L69.768,382.681L69.768,382.681z M27.987,392.141l1.453-0.306l0.099,0.467
		l-1.455,0.308L27.987,392.141L27.987,392.141z M27.574,387.714h2.393v0.479l-2.393-0.001V387.714L27.574,387.714z M28.109,383.194
		l1.452,0.315l-0.101,0.466l-1.453-0.313L28.109,383.194L28.109,383.194z M29.429,379.231l2.195,0.95l-0.189,0.438l-2.196-0.95
		L29.429,379.231L29.429,379.231z M31.719,375.287l1.207,0.865l-0.277,0.389l-1.209-0.865L31.719,375.287L31.719,375.287z
		 M34.498,372.181l1.639,1.743l-0.349,0.327l-1.638-1.743L34.498,372.181L34.498,372.181z M38.289,369.397l0.757,1.277l-0.411,0.244
		l-0.758-1.279L38.289,369.397L38.289,369.397z M42.114,367.664l0.793,2.256l-0.451,0.159l-0.794-2.257L42.114,367.664
		L42.114,367.664z M46.644,366.658l0.179,1.474l-0.474,0.058l-0.18-1.476L46.644,366.658L46.644,366.658z M50.926,366.613
		l-0.189,2.386l-0.477-0.038l0.189-2.386L50.926,366.613L50.926,366.613z M55.3,367.476l-0.42,1.423l-0.459-0.134l0.421-1.426
		L55.3,367.476L55.3,367.476z M59.305,369.167l-1.126,2.11l-0.422-0.226l1.126-2.109L59.305,369.167L59.305,369.167z M62.856,371.61
		l-0.948,1.145l-0.368-0.305l0.948-1.145L62.856,371.61L62.856,371.61z M65.863,374.733l-1.866,1.496l-0.299-0.373l1.864-1.497
		L65.863,374.733L65.863,374.733z M68.188,378.42l-1.322,0.678l-0.217-0.427l1.324-0.677L68.188,378.42z"/>
</g>
<g>
	<path fill-rule="evenodd" clip-rule="evenodd" fill="#FFFFFF" d="M17.5,455.152h4.106v0.82H17.5V455.152L17.5,455.152z
		 M18.011,449.803l4.05,0.678l-0.136,0.811l-4.049-0.678L18.011,449.803L18.011,449.803z M19.397,444.613l3.883,1.334l-0.267,0.777
		l-3.883-1.336L19.397,444.613L19.397,444.613z M21.619,439.721l3.611,1.955l-0.392,0.723l-3.609-1.955L21.619,439.721
		L21.619,439.721z M24.617,435.262l3.239,2.525l-0.506,0.646l-3.237-2.523L24.617,435.262L24.617,435.262z M28.307,431.359
		l2.779,3.021l-0.604,0.555l-2.778-3.021L28.307,431.359L28.307,431.359z M32.591,428.115l2.242,3.439l-0.688,0.447l-2.242-3.438
		L32.591,428.115L32.591,428.115z M37.35,425.623l1.646,3.762l-0.752,0.328l-1.645-3.762L37.35,425.623L37.35,425.623z
		 M42.456,423.949l1.003,3.98l-0.796,0.199l-1.003-3.98L42.456,423.949L42.456,423.949z M47.767,423.137l0.334,4.092l-0.819,0.066
		l-0.333-4.092L47.767,423.137L47.767,423.137z M53.139,423.213l-0.344,4.09l-0.818-0.068l0.344-4.092L53.139,423.213
		L53.139,423.213z M58.426,424.172l-1.014,3.977l-0.796-0.203l1.014-3.977L58.426,424.172L58.426,424.172z M63.482,425.988
		l-1.656,3.756l-0.753-0.332l1.656-3.756L63.482,425.988L63.482,425.988z M68.169,428.613l-2.251,3.432l-0.687-0.451l2.252-3.432
		L68.169,428.613L68.169,428.613z M72.36,431.975l-2.786,3.014l-0.602-0.557l2.786-3.016L72.36,431.975L72.36,431.975z
		 M78.813,440.52l-3.615,1.947l-0.39-0.723l3.614-1.947L78.813,440.52L78.813,440.52z M75.942,435.98l-3.246,2.514l-0.502-0.648
		l3.245-2.516L75.942,435.98L75.942,435.98z M27.808,473.279l-3.246,2.516l-0.502-0.65l3.244-2.514L27.808,473.279L27.808,473.279z
		 M80.897,445.473l-3.887,1.324l-0.263-0.779l3.885-1.322L80.897,445.473L80.897,445.473z M82.137,450.699l-4.052,0.666
		l-0.132-0.811l4.05-0.664L82.137,450.699L82.137,450.699z M22.048,460.57l-4.051,0.666l-0.133-0.811l4.051-0.666L22.048,460.57
		L22.048,460.57z M23.254,465.107l-3.886,1.322l-0.265-0.777l3.887-1.324L23.254,465.107L23.254,465.107z M25.191,469.381
		l-3.614,1.947l-0.389-0.723l3.615-1.945L25.191,469.381L25.191,469.381z M72.65,472.691l3.237,2.523l-0.504,0.648l-3.237-2.523
		L72.65,472.691L72.65,472.691z M75.162,468.727l3.611,1.955l-0.392,0.723l-3.609-1.955L75.162,468.727L75.162,468.727z
		 M76.987,464.4l3.883,1.336l-0.267,0.775l-3.883-1.334L76.987,464.4L76.987,464.4z M78.075,459.834l4.05,0.678l-0.136,0.811
		l-4.05-0.678L78.075,459.834L78.075,459.834z M78.396,455.152H82.5v0.82h-4.104V455.152z"/>
	<path fill-rule="evenodd" clip-rule="evenodd" fill="#BCBDBF" d="M30.324,464.047l2.186-0.971l0.194,0.436l-2.187,0.973
		L30.324,464.047L30.324,464.047z M68.004,467.18l-2.024-1.273l0.255-0.404l2.024,1.273L68.004,467.18L68.004,467.18z M70.1,462.982
		l-1.398-0.498l0.16-0.449l1.4,0.498L70.1,462.982L70.1,462.982z M71.174,458.844l-2.367-0.34l0.067-0.475l2.368,0.342
		L71.174,458.844L71.174,458.844z M71.381,454.168l-1.48,0.113l-0.038-0.477l1.483-0.113L71.381,454.168L71.381,454.168z
		 M70.768,450.289l-2.311,0.615l-0.123-0.463l2.311-0.615L70.768,450.289L70.768,450.289z M28.987,459.75l1.453-0.307l0.099,0.467
		l-1.455,0.309L28.987,459.75L28.987,459.75z M28.574,455.322h2.393v0.48l-2.393-0.002V455.322L28.574,455.322z M29.109,450.803
		l1.452,0.316l-0.101,0.465l-1.453-0.312L29.109,450.803L29.109,450.803z M30.429,446.84l2.195,0.951l-0.189,0.438l-2.196-0.949
		L30.429,446.84L30.429,446.84z M32.719,442.896l1.207,0.865l-0.277,0.389l-1.209-0.865L32.719,442.896L32.719,442.896z
		 M35.498,439.789l1.639,1.744l-0.349,0.326l-1.638-1.742L35.498,439.789L35.498,439.789z M39.289,437.006l0.757,1.277l-0.411,0.244
		l-0.758-1.279L39.289,437.006L39.289,437.006z M43.114,435.273l0.793,2.256l-0.451,0.158l-0.794-2.256L43.114,435.273
		L43.114,435.273z M47.644,434.268l0.179,1.473l-0.474,0.059l-0.18-1.477L47.644,434.268L47.644,434.268z M51.926,434.223
		l-0.189,2.385l-0.477-0.037l0.189-2.387L51.926,434.223L51.926,434.223z M56.3,435.084l-0.42,1.424l-0.459-0.135l0.421-1.426
		L56.3,435.084L56.3,435.084z M60.305,436.775l-1.126,2.111l-0.422-0.227l1.126-2.109L60.305,436.775L60.305,436.775z
		 M63.856,439.219l-0.948,1.145l-0.368-0.305l0.948-1.145L63.856,439.219L63.856,439.219z M66.863,442.342l-1.866,1.496
		l-0.299-0.373l1.864-1.496L66.863,442.342L66.863,442.342z M69.188,446.029l-1.322,0.678l-0.217-0.428l1.324-0.676L69.188,446.029z
		"/>
</g>
</svg>
