<?xml version="1.0" encoding="UTF-8" standalone="no"?>
<!DOCTYPE svg PUBLIC "-//W3C//DTD SVG 1.1//EN" "http://www.w3.org/Graphics/SVG/1.1/DTD/svg11.dtd">
<svg width="180px" height="380px" version="1.1" xmlns="http://www.w3.org/2000/svg" xmlns:xlink="http://www.w3.org/1999/xlink" xml:space="preserve" xmlns:serif="http://www.serif.com/" style="fill-rule:evenodd;clip-rule:evenodd;stroke-linecap:round;stroke-linejoin:round;stroke-miterlimit:10;">
    <rect id="Panel" x="0" y="0" width="180" height="380" style="fill:#131b21;"/>
    <g transform="matrix(0.864132,0,0,0.864132,6.92348,9.01712)">
        <path d="M6.622,6.764l0,12.063l8.532,0l0,-2.23l-5.88,0l0,-9.833l-2.652,0Z" style="fill:#fff;fill-rule:nonzero;"/>
        <path d="M19.293,12.221l0,-3.396l2.906,0c0.609,0 1.065,0.133 1.369,0.397c0.304,0.265 0.456,0.69 0.456,1.276c0,0.608 -0.152,1.048 -0.456,1.318c-0.304,0.27 -0.76,0.405 -1.369,0.405l-2.906,0Zm-2.652,-5.457l0,12.063l2.652,0l0,-4.713l2.653,0c0.664,0 1.143,0.146 1.436,0.439c0.293,0.293 0.484,0.755 0.574,1.385c0.068,0.485 0.119,0.992 0.153,1.521c0.033,0.529 0.123,0.986 0.27,1.368l2.652,0c-0.123,-0.168 -0.216,-0.374 -0.278,-0.616c-0.062,-0.242 -0.107,-0.499 -0.135,-0.769c-0.029,-0.27 -0.048,-0.535 -0.06,-0.794c-0.011,-0.259 -0.022,-0.484 -0.033,-0.676c-0.023,-0.304 -0.065,-0.608 -0.127,-0.912c-0.062,-0.304 -0.161,-0.583 -0.296,-0.837c-0.135,-0.253 -0.31,-0.473 -0.524,-0.658c-0.214,-0.186 -0.484,-0.324 -0.811,-0.414l0,-0.034c0.676,-0.271 1.163,-0.665 1.462,-1.183c0.298,-0.518 0.448,-1.132 0.448,-1.842c0,-0.461 -0.082,-0.892 -0.245,-1.292c-0.164,-0.4 -0.4,-0.752 -0.71,-1.056c-0.31,-0.304 -0.681,-0.543 -1.115,-0.718c-0.434,-0.175 -0.921,-0.262 -1.462,-0.262l-6.504,0Z" style="fill:#fff;fill-rule:nonzero;"/>
        <rect x="28.569" y="13.184" width="5.086" height="2.061" style="fill:#fff;fill-rule:nonzero;"/>
        <path d="M41.173,18.827l0,-11.826l-1.909,0c-0.068,0.45 -0.209,0.827 -0.423,1.132c-0.214,0.304 -0.475,0.549 -0.785,0.735c-0.31,0.185 -0.659,0.315 -1.048,0.388c-0.388,0.073 -0.791,0.104 -1.208,0.093l0,1.808l2.974,0l0,7.67l2.399,0Z" style="fill:#fff;fill-rule:nonzero;"/>
        <path d="M46.698,12.863c0,-0.202 0.003,-0.447 0.008,-0.735c0.006,-0.287 0.026,-0.582 0.059,-0.887c0.034,-0.304 0.091,-0.605 0.169,-0.904c0.079,-0.298 0.189,-0.566 0.33,-0.802c0.141,-0.237 0.321,-0.428 0.541,-0.575c0.219,-0.146 0.492,-0.219 0.819,-0.219c0.327,0 0.603,0.073 0.828,0.219c0.225,0.147 0.411,0.338 0.557,0.575c0.147,0.236 0.257,0.504 0.33,0.802c0.073,0.299 0.129,0.6 0.169,0.904c0.039,0.305 0.062,0.6 0.067,0.887c0.006,0.288 0.009,0.533 0.009,0.735c0,0.338 -0.011,0.747 -0.034,1.225c-0.022,0.479 -0.093,0.941 -0.211,1.386c-0.118,0.445 -0.31,0.825 -0.575,1.14c-0.264,0.316 -0.644,0.473 -1.14,0.473c-0.484,0 -0.856,-0.157 -1.115,-0.473c-0.259,-0.315 -0.448,-0.695 -0.566,-1.14c-0.118,-0.445 -0.189,-0.907 -0.211,-1.386c-0.023,-0.478 -0.034,-0.887 -0.034,-1.225Zm-2.399,0c0,1.183 0.115,2.171 0.346,2.966c0.231,0.794 0.544,1.427 0.938,1.9c0.394,0.473 0.853,0.811 1.377,1.014c0.524,0.203 1.078,0.304 1.664,0.304c0.597,0 1.157,-0.101 1.681,-0.304c0.524,-0.203 0.986,-0.541 1.386,-1.014c0.399,-0.473 0.715,-1.106 0.946,-1.9c0.231,-0.795 0.346,-1.783 0.346,-2.966c0,-1.149 -0.115,-2.114 -0.346,-2.897c-0.231,-0.783 -0.547,-1.411 -0.946,-1.884c-0.4,-0.473 -0.862,-0.811 -1.386,-1.014c-0.524,-0.203 -1.084,-0.304 -1.681,-0.304c-0.586,0 -1.14,0.101 -1.664,0.304c-0.524,0.203 -0.983,0.541 -1.377,1.014c-0.394,0.473 -0.707,1.101 -0.938,1.884c-0.231,0.783 -0.346,1.748 -0.346,2.897Z" style="fill:#fff;fill-rule:nonzero;"/>
        <path d="M59.961,18.827l0,-11.826l-1.909,0c-0.068,0.45 -0.209,0.827 -0.423,1.132c-0.214,0.304 -0.476,0.549 -0.785,0.735c-0.31,0.185 -0.659,0.315 -1.048,0.388c-0.388,0.073 -0.791,0.104 -1.208,0.093l0,1.808l2.974,0l0,7.67l2.399,0Z" style="fill:#fff;fill-rule:nonzero;"/>
        <path d="M74.204,18.827l4.004,-12.063l-2.737,0l-2.72,8.482l-0.034,0l-2.686,-8.482l-2.721,0l3.903,12.063l2.991,0Z" style="fill:#bb3d3d;fill-rule:nonzero;"/>
        <path d="M87.281,10.819l2.568,0c-0.079,-0.698 -0.27,-1.318 -0.574,-1.859c-0.304,-0.54 -0.69,-0.994 -1.158,-1.36c-0.467,-0.366 -0.996,-0.644 -1.588,-0.836c-0.591,-0.191 -1.219,-0.287 -1.884,-0.287c-0.923,0 -1.754,0.163 -2.492,0.49c-0.738,0.326 -1.36,0.777 -1.867,1.351c-0.507,0.575 -0.895,1.248 -1.166,2.019c-0.27,0.772 -0.405,1.608 -0.405,2.509c0,0.879 0.135,1.698 0.405,2.459c0.271,0.76 0.659,1.422 1.166,1.985c0.507,0.563 1.129,1.005 1.867,1.326c0.738,0.321 1.569,0.482 2.492,0.482c0.744,0 1.425,-0.113 2.045,-0.338c0.619,-0.225 1.16,-0.552 1.622,-0.98c0.461,-0.428 0.833,-0.946 1.115,-1.554c0.281,-0.609 0.456,-1.29 0.524,-2.045l-2.569,0c-0.101,0.811 -0.38,1.464 -0.836,1.96c-0.456,0.496 -1.09,0.744 -1.901,0.744c-0.597,0 -1.104,-0.116 -1.52,-0.347c-0.417,-0.231 -0.755,-0.538 -1.014,-0.921c-0.259,-0.383 -0.448,-0.813 -0.566,-1.292c-0.118,-0.479 -0.177,-0.972 -0.177,-1.479c0,-0.529 0.059,-1.041 0.177,-1.537c0.118,-0.496 0.307,-0.938 0.566,-1.326c0.259,-0.389 0.597,-0.699 1.014,-0.93c0.416,-0.23 0.923,-0.346 1.52,-0.346c0.327,0 0.64,0.054 0.938,0.161c0.299,0.107 0.566,0.256 0.803,0.447c0.236,0.192 0.433,0.414 0.591,0.668c0.158,0.253 0.259,0.532 0.304,0.836Z" style="fill:#bb3d3d;fill-rule:nonzero;"/>
        <path d="M93.887,12.846c0,-0.529 0.059,-1.041 0.178,-1.537c0.118,-0.496 0.307,-0.938 0.566,-1.326c0.259,-0.389 0.597,-0.699 1.013,-0.93c0.417,-0.23 0.924,-0.346 1.521,-0.346c0.597,0 1.104,0.116 1.521,0.346c0.416,0.231 0.754,0.541 1.013,0.93c0.259,0.388 0.448,0.83 0.566,1.326c0.119,0.496 0.178,1.008 0.178,1.537c0,0.507 -0.059,1 -0.178,1.479c-0.118,0.479 -0.307,0.909 -0.566,1.292c-0.259,0.383 -0.597,0.69 -1.013,0.921c-0.417,0.231 -0.924,0.347 -1.521,0.347c-0.597,0 -1.104,-0.116 -1.521,-0.347c-0.416,-0.231 -0.754,-0.538 -1.013,-0.921c-0.259,-0.383 -0.448,-0.813 -0.566,-1.292c-0.119,-0.479 -0.178,-0.972 -0.178,-1.479Zm-2.652,0c0,0.879 0.135,1.698 0.405,2.459c0.27,0.76 0.659,1.422 1.166,1.985c0.507,0.563 1.129,1.005 1.867,1.326c0.738,0.321 1.568,0.482 2.492,0.482c0.935,0 1.768,-0.161 2.5,-0.482c0.733,-0.321 1.352,-0.763 1.859,-1.326c0.507,-0.563 0.895,-1.225 1.166,-1.985c0.27,-0.761 0.405,-1.58 0.405,-2.459c0,-0.901 -0.135,-1.737 -0.405,-2.509c-0.271,-0.771 -0.659,-1.444 -1.166,-2.019c-0.507,-0.574 -1.126,-1.025 -1.859,-1.351c-0.732,-0.327 -1.565,-0.49 -2.5,-0.49c-0.924,0 -1.754,0.163 -2.492,0.49c-0.738,0.326 -1.36,0.777 -1.867,1.351c-0.507,0.575 -0.896,1.248 -1.166,2.019c-0.27,0.772 -0.405,1.608 -0.405,2.509Z" style="fill:#bb3d3d;fill-rule:nonzero;"/>
    </g>
    <g id="ICONS">
        <g id="SYMSAW">
            <path d="M27.795,343.047l0,-5.047" style="fill:none;stroke:#fff;stroke-width:1.04px;"/>
            <path d="M41.62,343.047l0,4.953" style="fill:none;stroke:#fff;stroke-width:1.04px;"/>
            <path d="M41.62,348l-13.825,-10" style="fill:none;stroke:#fff;stroke-width:1.04px;"/>
        </g>
        <g id="SYMPLS">
            <path d="M63.028,343.012l0,-5.012" style="fill:none;stroke:#fff;stroke-width:1.04px;"/>
            <path d="M69.713,343.012l0,-5.012" style="fill:none;stroke:#fff;stroke-width:1.04px;"/>
            <path d="M69.713,342.988l0,5.012" style="fill:none;stroke:#fff;stroke-width:1.04px;"/>
            <path d="M77.563,348l0,-5.012" style="fill:none;stroke:#fff;stroke-width:1.04px;"/>
            <path d="M69.713,347.978l7.85,0" style="fill:none;stroke:#fff;stroke-width:1.04px;"/>
            <path d="M69.713,338l-6.685,0" style="fill:none;stroke:#fff;stroke-width:1.04px;"/>
        </g>
        <g id="SYMTRI">
            <path d="M138.924,343.009l3.222,-4.959" style="fill:none;stroke:#fff;stroke-width:1.04px;stroke-linejoin:miter;"/>
            <path d="M145.249,342.991l-3.103,-4.991" style="fill:none;stroke:#fff;stroke-width:1.04px;stroke-linejoin:miter;"/>
            <path d="M151.574,342.991l-3.223,4.959" style="fill:none;stroke:#fff;stroke-width:1.04px;stroke-linejoin:miter;"/>
            <path d="M145.249,343.009l3.102,4.991" style="fill:none;stroke:#fff;stroke-width:1.04px;stroke-linejoin:miter;"/>
        </g>
        <g id="SYMSIN">
            <path d="M102.555,343.127c0,-2.831 1.447,-5.127 3.233,-5.127c1.476,0 2.721,1.565 3.108,3.707" style="fill:none;stroke:#fff;stroke-width:1.04px;stroke-linejoin:miter;"/>
            <path d="M115.928,343.158c0,2.675 -1.446,4.842 -3.232,4.842c-1.477,0 -2.72,-1.479 -3.108,-3.502" style="fill:none;stroke:#fff;stroke-width:1.04px;stroke-linejoin:miter;"/>
            <path d="M108.896,341.707l0.691,2.902" style="fill:none;stroke:#fff;stroke-width:1.04px;stroke-linejoin:miter;"/>
        </g>
    </g>
    <g transform="matrix(1.03,0,0,1,-4.57281,289.651)">
        <path d="M34.065,75.993l1.558,0l0,3.625l3.461,0l0,1.24l-5.019,0l0,-4.865Z" style="fill:#fff;fill-rule:nonzero;"/>
        <rect x="39.459" y="75.993" width="1.558" height="4.865" style="fill:#fff;fill-rule:nonzero;"/>
        <path d="M41.734,75.993l2.599,0l2.548,3.629l0.153,0l-0.035,-3.629l1.507,0l0,4.865l-2.577,0l-2.559,-3.632l-0.16,0l0.032,3.632l-1.508,0l0,-4.865Z" style="fill:#fff;fill-rule:nonzero;"/>
        <path d="M49.224,80.858l0,-4.865l3.511,0c0.763,0 1.256,0.013 1.479,0.039c0.433,0.05 0.751,0.163 0.955,0.339c0.219,0.19 0.363,0.496 0.432,0.919c0.033,0.202 0.05,0.555 0.05,1.059c0,0.644 -0.029,1.092 -0.086,1.344c-0.078,0.342 -0.207,0.594 -0.385,0.755c-0.121,0.112 -0.269,0.197 -0.442,0.254c-0.173,0.057 -0.408,0.098 -0.702,0.124c-0.233,0.022 -0.666,0.032 -1.298,0.032l-3.514,0Zm1.461,-1.24l2.064,0c0.418,0 0.731,-0.017 0.938,-0.05c0.23,-0.038 0.375,-0.165 0.434,-0.381c0.046,-0.157 0.068,-0.404 0.068,-0.742c0,-0.361 -0.024,-0.626 -0.071,-0.795c-0.057,-0.211 -0.188,-0.339 -0.392,-0.385c-0.162,-0.038 -0.492,-0.057 -0.991,-0.057l-2.05,0l0,2.41Z" style="fill:#fff;fill-rule:nonzero;"/>
        <path d="M56.272,75.993l5.389,0l0,1.144l-3.928,0l0,0.702l3.728,0l0,1.07l-3.728,0l0,0.78l3.957,0l0,1.169l-5.418,0l0,-4.865Z" style="fill:#fff;fill-rule:nonzero;"/>
        <path d="M62.189,75.993l2.599,0l2.549,3.629l0.153,0l-0.036,-3.629l1.508,0l0,4.865l-2.577,0l-2.559,-3.632l-0.161,0l0.032,3.632l-1.508,0l0,-4.865Z" style="fill:#fff;fill-rule:nonzero;"/>
        <path d="M69.679,80.858l0,-4.865l3.497,0c0.744,0.002 1.186,0.008 1.326,0.018c0.318,0.019 0.552,0.076 0.702,0.171c0.171,0.109 0.283,0.26 0.335,0.452c0.048,0.183 0.071,0.39 0.071,0.621c0,0.285 -0.027,0.5 -0.082,0.645c-0.09,0.235 -0.281,0.396 -0.573,0.481c0.216,0.038 0.376,0.093 0.481,0.164c0.237,0.159 0.356,0.494 0.356,1.005c0,0.397 -0.062,0.691 -0.185,0.881c-0.109,0.166 -0.276,0.28 -0.499,0.342c-0.19,0.05 -0.509,0.076 -0.955,0.078l-0.966,0.007l-3.508,0Zm1.412,-2.947l2.088,0c0.459,0 0.732,-0.018 0.82,-0.054c0.117,-0.045 0.175,-0.161 0.175,-0.349c0,-0.193 -0.07,-0.308 -0.21,-0.346c-0.055,-0.014 -0.316,-0.023 -0.785,-0.025l-2.088,0l0,0.774Zm0,1.778l2.096,0c0.389,-0.002 0.619,-0.005 0.688,-0.007c0.216,-0.009 0.354,-0.052 0.413,-0.128c0.045,-0.062 0.068,-0.157 0.068,-0.285c0,-0.205 -0.074,-0.325 -0.221,-0.36c-0.053,-0.015 -0.369,-0.023 -0.948,-0.025l-2.096,0l0,0.805Z" style="fill:#fff;fill-rule:nonzero;"/>
        <path d="M76.342,75.993l5.389,0l0,1.144l-3.928,0l0,0.702l3.729,0l0,1.07l-3.729,0l0,0.78l3.957,0l0,1.169l-5.418,0l0,-4.865Z" style="fill:#fff;fill-rule:nonzero;"/>
        <path d="M82.26,80.858l0,-4.865l3.582,0c0.846,0.002 1.345,0.011 1.497,0.025c0.174,0.016 0.331,0.067 0.473,0.151c0.141,0.085 0.251,0.192 0.329,0.323c0.081,0.14 0.13,0.286 0.146,0.438c0.022,0.179 0.032,0.394 0.032,0.646c0,0.396 -0.027,0.673 -0.082,0.83c-0.083,0.233 -0.24,0.394 -0.47,0.485c-0.078,0.031 -0.196,0.058 -0.353,0.082c0.311,0.024 0.535,0.113 0.67,0.267c0.06,0.069 0.102,0.148 0.127,0.237c0.025,0.089 0.042,0.219 0.051,0.39c0.003,0.088 0.004,0.268 0.004,0.539l0,0.452l-1.461,0l0,-0.26c0,-0.29 -0.014,-0.498 -0.04,-0.624c-0.038,-0.18 -0.134,-0.287 -0.288,-0.32c-0.103,-0.022 -0.318,-0.032 -0.646,-0.032l-2.088,0l0,1.236l-1.483,0Zm1.483,-2.452l2.085,0c0.311,-0.005 0.495,-0.009 0.552,-0.014c0.209,-0.012 0.341,-0.076 0.396,-0.193c0.038,-0.081 0.057,-0.217 0.057,-0.41c0,-0.166 -0.017,-0.29 -0.05,-0.37c-0.05,-0.119 -0.17,-0.186 -0.36,-0.2c-0.066,-0.005 -0.266,-0.008 -0.599,-0.011l-2.081,0l0,1.198Z" style="fill:#fff;fill-rule:nonzero;"/>
        <path d="M91.842,78.099l3.39,0c0.005,0.107 0.007,0.176 0.007,0.207c0,0.637 -0.018,1.129 -0.054,1.476c-0.057,0.561 -0.375,0.901 -0.955,1.019c-0.299,0.06 -0.627,0.095 -0.984,0.107c-0.377,0.015 -0.825,0.022 -1.343,0.022c-0.92,0 -1.577,-0.034 -1.972,-0.1c-0.546,-0.09 -0.885,-0.342 -1.015,-0.756c-0.065,-0.202 -0.101,-0.433 -0.111,-0.695c-0.012,-0.328 -0.018,-0.677 -0.018,-1.048c0,-0.627 0.03,-1.068 0.089,-1.322c0.086,-0.354 0.233,-0.604 0.442,-0.749c0.11,-0.078 0.247,-0.138 0.412,-0.18c0.165,-0.041 0.399,-0.075 0.7,-0.101c0.426,-0.038 1.001,-0.057 1.726,-0.057c0.931,0 1.591,0.036 1.978,0.11c0.392,0.074 0.668,0.204 0.827,0.392c0.14,0.169 0.226,0.435 0.257,0.799c0.007,0.097 0.01,0.247 0.01,0.449l-1.483,0c-0.002,-0.133 -0.009,-0.224 -0.021,-0.271c-0.033,-0.121 -0.139,-0.194 -0.317,-0.218c-0.235,-0.03 -0.699,-0.046 -1.39,-0.046c-0.616,0 -1.042,0.02 -1.28,0.061c-0.226,0.04 -0.362,0.164 -0.41,0.37c-0.038,0.157 -0.057,0.436 -0.057,0.838c0,0.461 0.02,0.776 0.061,0.945c0.052,0.225 0.214,0.351 0.484,0.377c0.133,0.012 0.535,0.023 1.205,0.033c0.732,-0.005 1.204,-0.019 1.415,-0.043c0.193,-0.031 0.303,-0.116 0.332,-0.253c0.016,-0.086 0.025,-0.217 0.025,-0.392l-1.95,0l0,-0.974Z" style="fill:#fff;fill-rule:nonzero;"/>
        <path d="M97.721,80.858l0,-4.865l3.583,0c0.846,0.002 1.345,0.011 1.497,0.025c0.173,0.016 0.331,0.067 0.472,0.151c0.141,0.085 0.251,0.192 0.33,0.323c0.081,0.14 0.129,0.286 0.146,0.438c0.021,0.179 0.032,0.394 0.032,0.646c0,0.396 -0.027,0.673 -0.082,0.83c-0.083,0.233 -0.24,0.394 -0.47,0.485c-0.079,0.031 -0.196,0.058 -0.353,0.082c0.311,0.024 0.534,0.113 0.67,0.267c0.059,0.069 0.101,0.148 0.126,0.237c0.025,0.089 0.043,0.219 0.052,0.39c0.002,0.088 0.004,0.268 0.004,0.539l0,0.452l-1.462,0l0,-0.26c0,-0.29 -0.013,-0.498 -0.039,-0.624c-0.038,-0.18 -0.134,-0.287 -0.289,-0.32c-0.102,-0.022 -0.317,-0.032 -0.645,-0.032l-2.089,0l0,1.236l-1.483,0Zm1.483,-2.452l2.085,0c0.312,-0.005 0.496,-0.009 0.553,-0.014c0.209,-0.012 0.341,-0.076 0.396,-0.193c0.038,-0.081 0.057,-0.217 0.057,-0.41c0,-0.166 -0.017,-0.29 -0.05,-0.37c-0.05,-0.119 -0.17,-0.186 -0.36,-0.2c-0.067,-0.005 -0.266,-0.008 -0.599,-0.011l-2.082,0l0,1.198Z" style="fill:#fff;fill-rule:nonzero;"/>
        <path d="M104.327,75.993l5.39,0l0,1.144l-3.928,0l0,0.702l3.728,0l0,1.07l-3.728,0l0,0.78l3.956,0l0,1.169l-5.418,0l0,-4.865Z" style="fill:#fff;fill-rule:nonzero;"/>
        <path d="M110.074,79.247l1.436,0c-0.002,0.24 0.047,0.395 0.147,0.464c0.052,0.033 0.111,0.055 0.178,0.067c0.066,0.012 0.183,0.021 0.349,0.025c0.083,0.003 0.355,0.005 0.816,0.007c0.633,-0.002 0.998,-0.006 1.098,-0.01c0.188,-0.015 0.312,-0.039 0.371,-0.075c0.083,-0.052 0.125,-0.169 0.125,-0.349c0,-0.124 -0.026,-0.211 -0.079,-0.261c-0.071,-0.069 -0.241,-0.105 -0.509,-0.11c-0.186,0 -0.573,-0.014 -1.162,-0.043c-0.609,-0.028 -1.003,-0.045 -1.184,-0.05c-0.47,-0.014 -0.802,-0.069 -0.994,-0.164c-0.247,-0.121 -0.409,-0.328 -0.485,-0.62c-0.043,-0.162 -0.064,-0.373 -0.064,-0.634c0,-0.552 0.104,-0.94 0.313,-1.166c0.157,-0.171 0.395,-0.284 0.713,-0.339c0.288,-0.047 0.972,-0.071 2.053,-0.071c0.704,0 1.201,0.02 1.49,0.061c0.383,0.054 0.659,0.149 0.827,0.285c0.228,0.188 0.343,0.524 0.343,1.009c0,0.052 -0.002,0.135 -0.004,0.249l-1.436,0c-0.005,-0.116 -0.014,-0.197 -0.025,-0.242c-0.034,-0.133 -0.143,-0.208 -0.328,-0.225c-0.164,-0.014 -0.564,-0.021 -1.198,-0.021c-0.627,0 -0.999,0.018 -1.116,0.053c-0.13,0.043 -0.196,0.153 -0.196,0.332c0,0.171 0.069,0.275 0.207,0.313c0.116,0.031 0.64,0.061 1.572,0.089c0.844,0.024 1.382,0.054 1.615,0.09c0.235,0.035 0.422,0.089 0.561,0.16c0.139,0.071 0.25,0.172 0.333,0.303c0.126,0.192 0.189,0.503 0.189,0.93c0,0.478 -0.062,0.828 -0.185,1.052c-0.124,0.221 -0.326,0.372 -0.606,0.452c-0.276,0.081 -1.035,0.122 -2.278,0.122c-0.755,0 -1.301,-0.021 -1.636,-0.061c-0.409,-0.047 -0.702,-0.14 -0.88,-0.278c-0.193,-0.147 -0.307,-0.355 -0.342,-0.624c-0.019,-0.13 -0.029,-0.285 -0.029,-0.463l0,-0.257Z" style="fill:#fff;fill-rule:nonzero;"/>
        <path d="M116.58,75.993l5.389,0l0,1.144l-3.928,0l0,0.702l3.729,0l0,1.07l-3.729,0l0,0.78l3.957,0l0,1.169l-5.418,0l0,-4.865Z" style="fill:#fff;fill-rule:nonzero;"/>
        <path d="M127.78,80.858l-0.417,-0.823l-3.218,0l-0.417,0.823l-1.694,0l2.581,-4.865l2.303,0l2.545,4.865l-1.683,0Zm-0.937,-1.889l-0.938,-1.843l-0.295,0l-0.938,1.843l2.171,0Z" style="fill:#fff;fill-rule:nonzero;"/>
        <path d="M129.72,80.858l0,-4.865l3.583,0c0.846,0.002 1.345,0.011 1.497,0.025c0.173,0.016 0.331,0.067 0.472,0.151c0.141,0.085 0.251,0.192 0.33,0.323c0.08,0.14 0.129,0.286 0.146,0.438c0.021,0.179 0.032,0.394 0.032,0.646c0,0.396 -0.027,0.673 -0.082,0.83c-0.083,0.233 -0.24,0.394 -0.471,0.485c-0.078,0.031 -0.196,0.058 -0.353,0.082c0.312,0.024 0.535,0.113 0.671,0.267c0.059,0.069 0.101,0.148 0.126,0.237c0.025,0.089 0.042,0.219 0.052,0.39c0.002,0.088 0.003,0.268 0.003,0.539l0,0.452l-1.461,0l0,-0.26c0,-0.29 -0.013,-0.498 -0.039,-0.624c-0.038,-0.18 -0.135,-0.287 -0.289,-0.32c-0.102,-0.022 -0.317,-0.032 -0.645,-0.032l-2.089,0l0,1.236l-1.483,0Zm1.483,-2.452l2.085,0c0.312,-0.005 0.496,-0.009 0.553,-0.014c0.209,-0.012 0.341,-0.076 0.395,-0.193c0.038,-0.081 0.057,-0.217 0.057,-0.41c0,-0.166 -0.016,-0.29 -0.049,-0.37c-0.05,-0.119 -0.17,-0.186 -0.36,-0.2c-0.067,-0.005 -0.267,-0.008 -0.599,-0.011l-2.082,0l0,1.198Z" style="fill:#fff;fill-rule:nonzero;"/>
        <path d="M140.981,78.98l1.483,0c0.01,0.238 0.014,0.4 0.014,0.488c0,0.354 -0.056,0.638 -0.167,0.852c-0.117,0.224 -0.339,0.379 -0.667,0.467c-0.359,0.098 -0.979,0.146 -1.86,0.146c-0.972,0 -1.627,-0.015 -1.964,-0.046c-0.314,-0.026 -0.561,-0.068 -0.742,-0.125c-0.18,-0.057 -0.33,-0.14 -0.449,-0.249c-0.159,-0.148 -0.26,-0.343 -0.303,-0.585c-0.047,-0.254 -0.071,-0.744 -0.071,-1.469c0,-0.696 0.018,-1.165 0.053,-1.407c0.053,-0.364 0.194,-0.628 0.424,-0.792c0.176,-0.123 0.457,-0.211 0.842,-0.264c0.399,-0.052 1.115,-0.078 2.149,-0.078c0.615,0 1.054,0.013 1.315,0.039c0.395,0.038 0.682,0.114 0.863,0.228c0.223,0.141 0.365,0.344 0.424,0.61c0.043,0.19 0.064,0.41 0.064,0.659c0,0.043 -0.001,0.137 -0.003,0.282l-1.483,0c-0.005,-0.119 -0.01,-0.2 -0.014,-0.242c-0.019,-0.145 -0.085,-0.237 -0.196,-0.275c-0.169,-0.057 -0.63,-0.085 -1.383,-0.085c-0.514,0 -0.868,0.014 -1.063,0.042c-0.237,0.034 -0.385,0.163 -0.442,0.389c-0.045,0.183 -0.067,0.477 -0.067,0.884c0,0.418 0.022,0.707 0.067,0.866c0.057,0.207 0.214,0.327 0.471,0.36c0.209,0.026 0.576,0.039 1.101,0.039c0.568,0 0.956,-0.012 1.162,-0.035c0.195,-0.022 0.319,-0.092 0.371,-0.211c0.043,-0.1 0.066,-0.262 0.071,-0.488Z" style="fill:#fff;fill-rule:nonzero;"/>
        <path d="M143.028,75.993l1.558,0l0,1.739l3.347,0l0,-1.739l1.557,0l0,4.865l-1.557,0l0,-1.764l-3.347,0l0,1.764l-1.558,0l0,-4.865Z" style="fill:#fff;fill-rule:nonzero;"/>
    </g>
    <g transform="matrix(1,0,0,1,83.2028,270.637)">
        <path d="M22.102,81.974c-1.419,0 -2.241,0.755 -2.241,1.726c0,0.913 0.581,1.378 2.108,1.685c0.905,0.183 1.195,0.357 1.195,0.656c0,0.415 -0.381,0.647 -1.087,0.647c-0.739,0 -1.261,-0.191 -1.693,-0.904l-0.681,0.813c0.465,0.664 1.171,1.021 2.416,1.021c1.311,0 2.249,-0.614 2.249,-1.644c0,-0.913 -0.556,-1.369 -2.034,-1.643c-0.962,-0.174 -1.261,-0.373 -1.261,-0.739c0,-0.39 0.348,-0.672 1.037,-0.672c0.739,0 1.196,0.291 1.478,0.88l0.788,-0.772c-0.556,-0.73 -1.253,-1.054 -2.274,-1.054Z" style="fill:#fff;fill-rule:nonzero;"/>
        <rect x="25.439" y="82.057" width="1.145" height="5.478" style="fill:#fff;fill-rule:nonzero;"/>
        <path d="M32.718,82.057l-1.029,0l0,3.17l0.033,0.972l-0.017,0l-0.473,-0.93l-1.917,-3.212l-1.303,0l0,5.478l1.029,0l0,-3.171l-0.033,-0.971l0.008,0l0.473,0.921l1.917,3.221l1.312,0l0,-5.478Z" style="fill:#fff;fill-rule:nonzero;"/>
    </g>
    <g transform="matrix(1,0,0,1,42.995,270.637)">
        <path d="M15.985,82.057l-2.299,0l0,5.478l1.145,0l0,-1.992l1.154,0c1.27,0 2.017,-0.639 2.017,-1.727c0,-1.12 -0.747,-1.759 -2.017,-1.759Zm-0.174,2.598l-0.98,0l0,-1.685l0.98,0c0.713,0 1.029,0.282 1.029,0.838c0,0.556 -0.316,0.847 -1.029,0.847Z" style="fill:#fff;fill-rule:nonzero;"/>
        <path d="M23.646,82.057l-1.154,0l0,3.27c0,0.921 -0.382,1.353 -1.187,1.353c-0.805,0 -1.195,-0.432 -1.195,-1.353l0,-3.27l-1.145,0l0,3.32c0,1.494 0.813,2.241 2.34,2.241c1.527,0 2.341,-0.747 2.341,-2.241l0,-3.32Z" style="fill:#fff;fill-rule:nonzero;"/>
        <path d="M26.128,86.614l0,-4.557l-1.146,0l0,5.478l4.034,0l0,-0.921l-2.888,0Z" style="fill:#fff;fill-rule:nonzero;"/>
        <path d="M31.971,81.974c-1.42,0 -2.241,0.755 -2.241,1.726c0,0.913 0.581,1.378 2.108,1.685c0.905,0.183 1.195,0.357 1.195,0.656c0,0.415 -0.382,0.647 -1.087,0.647c-0.739,0 -1.262,-0.191 -1.693,-0.904l-0.681,0.813c0.465,0.664 1.17,1.021 2.415,1.021c1.312,0 2.25,-0.614 2.25,-1.644c0,-0.913 -0.556,-1.369 -2.034,-1.643c-0.963,-0.174 -1.261,-0.373 -1.261,-0.739c0,-0.39 0.348,-0.672 1.037,-0.672c0.739,0 1.195,0.291 1.477,0.88l0.789,-0.772c-0.556,-0.73 -1.253,-1.054 -2.274,-1.054Z" style="fill:#fff;fill-rule:nonzero;"/>
        <path d="M36.453,86.614l0,-1.395l2.332,0l0,-0.88l-2.332,0l0,-1.361l2.963,0l0,-0.921l-4.109,0l0,5.478l4.225,0l0,-0.921l-3.079,0Z" style="fill:#fff;fill-rule:nonzero;"/>
    </g>
    <g transform="matrix(1,0,0,1,48.8333,-50.4186)">
        <path d="M-30.881,82.057l-1.179,0l-1.162,3.494l-0.307,1.071l-0.315,-1.079l-1.154,-3.486l-1.212,0l2.001,5.478l1.336,0l1.992,-5.478Z" style="fill:#fff;fill-rule:nonzero;"/>
        <rect x="-30.051" y="82.057" width="1.145" height="5.478" style="fill:#fff;fill-rule:nonzero;"/>
        <path d="M-24.034,87.535l1.287,0l-1.444,-2.225c0.714,-0.232 1.12,-0.771 1.12,-1.56c0,-1.079 -0.747,-1.693 -1.992,-1.693l-2.415,0l0,5.478l1.129,0l0,-2.1l1.029,0l1.286,2.1Zm-2.315,-4.565l1.137,0c0.664,0 0.971,0.249 0.971,0.797c0,0.547 -0.307,0.796 -0.971,0.796l-1.137,0l0,-1.593Z" style="fill:#fff;fill-rule:nonzero;"/>
        <path d="M-17.601,82.057l-4.822,0l0,0.921l1.842,0l0,4.557l1.146,0l0,-4.557l1.834,0l0,-0.921Z" style="fill:#fff;fill-rule:nonzero;"/>
        <path d="M-12.065,82.057l-1.154,0l0,3.27c0,0.921 -0.381,1.353 -1.187,1.353c-0.805,0 -1.195,-0.432 -1.195,-1.353l0,-3.27l-1.145,0l0,3.32c0,1.494 0.813,2.241 2.34,2.241c1.528,0 2.341,-0.747 2.341,-2.241l0,-3.32Z" style="fill:#fff;fill-rule:nonzero;"/>
        <path d="M-7.359,87.535l1.187,0l-2,-5.478l-1.37,0l-2,5.478l1.17,0l0.448,-1.336l2.109,0l0.456,1.336Zm-2.282,-2.183l0.531,-1.56l0.232,-0.814l0.017,0l0.249,0.83l0.514,1.544l-1.543,0Z" style="fill:#fff;fill-rule:nonzero;"/>
        <path d="M-4.213,86.614l0,-4.557l-1.146,0l0,5.478l4.034,0l0,-0.921l-2.888,0Z" style="fill:#fff;fill-rule:nonzero;"/>
        <path d="M5.299,87.535l1.187,0l-2.001,-5.478l-1.369,0l-2.001,5.478l1.171,0l0.448,-1.336l2.108,0l0.457,1.336Zm-2.283,-2.183l0.531,-1.56l0.233,-0.814l0.016,0l0.249,0.83l0.515,1.544l-1.544,0Z" style="fill:#fff;fill-rule:nonzero;"/>
        <path d="M12.005,82.057l-1.029,0l0,3.17l0.033,0.972l-0.017,0l-0.473,-0.93l-1.917,-3.212l-1.303,0l0,5.478l1.029,0l0,-3.171l-0.033,-0.971l0.008,0l0.473,0.921l1.918,3.221l1.311,0l0,-5.478Z" style="fill:#fff;fill-rule:nonzero;"/>
        <path d="M17.002,87.535l1.187,0l-2.001,-5.478l-1.369,0l-2.001,5.478l1.171,0l0.448,-1.336l2.108,0l0.457,1.336Zm-2.283,-2.183l0.531,-1.56l0.233,-0.814l0.016,0l0.249,0.83l0.515,1.544l-1.544,0Z" style="fill:#fff;fill-rule:nonzero;"/>
        <path d="M20.147,86.614l0,-4.557l-1.145,0l0,5.478l4.034,0l0,-0.921l-2.889,0Z" style="fill:#fff;fill-rule:nonzero;"/>
        <path d="M26.173,81.974c-1.627,0 -2.639,1.062 -2.639,2.822c0,1.759 1.012,2.822 2.639,2.822c1.627,0 2.631,-1.063 2.631,-2.822c0,-1.76 -1.004,-2.822 -2.631,-2.822Zm0,0.938c0.913,0 1.444,0.664 1.444,1.884c0,1.22 -0.531,1.884 -1.444,1.884c-0.921,0 -1.452,-0.664 -1.452,-1.884c0,-1.22 0.531,-1.884 1.452,-1.884Z" style="fill:#fff;fill-rule:nonzero;"/>
        <path d="M32.116,84.638l0,0.847l1.602,0l0,0.124c0,0.731 -0.573,1.088 -1.312,1.088c-1.012,0 -1.535,-0.656 -1.535,-1.901c0,-1.22 0.573,-1.884 1.511,-1.884c0.605,0 1.07,0.282 1.245,0.863l1.054,-0.457c-0.432,-0.929 -1.146,-1.344 -2.333,-1.344c-1.626,0 -2.664,1.071 -2.664,2.83c0,1.785 1.038,2.814 2.54,2.814c0.772,0 1.303,-0.274 1.618,-0.739l0.025,0.656l0.839,0l0,-2.897l-2.59,0Z" style="fill:#fff;fill-rule:nonzero;"/>
        <path d="M40.864,81.974c-1.627,0 -2.639,1.062 -2.639,2.822c0,1.759 1.012,2.822 2.639,2.822c1.627,0 2.631,-1.063 2.631,-2.822c0,-1.76 -1.004,-2.822 -2.631,-2.822Zm0,0.938c0.913,0 1.444,0.664 1.444,1.884c0,1.22 -0.531,1.884 -1.444,1.884c-0.921,0 -1.452,-0.664 -1.452,-1.884c0,-1.22 0.531,-1.884 1.452,-1.884Z" style="fill:#fff;fill-rule:nonzero;"/>
        <path d="M46.616,81.974c-1.419,0 -2.241,0.755 -2.241,1.726c0,0.913 0.581,1.378 2.108,1.685c0.905,0.183 1.195,0.357 1.195,0.656c0,0.415 -0.381,0.647 -1.087,0.647c-0.739,0 -1.261,-0.191 -1.693,-0.904l-0.681,0.813c0.465,0.664 1.171,1.021 2.416,1.021c1.311,0 2.249,-0.614 2.249,-1.644c0,-0.913 -0.556,-1.369 -2.034,-1.643c-0.962,-0.174 -1.261,-0.373 -1.261,-0.739c0,-0.39 0.348,-0.672 1.037,-0.672c0.739,0 1.196,0.291 1.478,0.88l0.788,-0.772c-0.556,-0.73 -1.253,-1.054 -2.274,-1.054Z" style="fill:#fff;fill-rule:nonzero;"/>
        <path d="M54.642,86.024l-1.054,-0.315c-0.174,0.656 -0.606,0.971 -1.262,0.971c-0.921,0 -1.46,-0.672 -1.46,-1.884c0,-1.22 0.572,-1.884 1.485,-1.884c0.631,0 0.996,0.257 1.179,0.921l1.037,-0.44c-0.307,-0.954 -1.145,-1.419 -2.265,-1.419c-1.602,0 -2.623,1.062 -2.623,2.822c0,1.759 1.012,2.822 2.639,2.822c1.112,0 1.992,-0.523 2.324,-1.594Z" style="fill:#fff;fill-rule:nonzero;"/>
        <rect x="55.622" y="82.057" width="1.145" height="5.478" style="fill:#fff;fill-rule:nonzero;"/>
        <path d="M59.34,86.614l0,-4.557l-1.145,0l0,5.478l4.033,0l0,-0.921l-2.888,0Z" style="fill:#fff;fill-rule:nonzero;"/>
        <path d="M64.328,86.614l0,-4.557l-1.145,0l0,5.478l4.034,0l0,-0.921l-2.889,0Z" style="fill:#fff;fill-rule:nonzero;"/>
        <path d="M71.74,87.535l1.187,0l-2,-5.478l-1.37,0l-2,5.478l1.17,0l0.448,-1.336l2.109,0l0.456,1.336Zm-2.282,-2.183l0.531,-1.56l0.232,-0.814l0.017,0l0.249,0.83l0.514,1.544l-1.543,0Z" style="fill:#fff;fill-rule:nonzero;"/>
        <path d="M77.334,82.057l-4.822,0l0,0.921l1.843,0l0,4.557l1.145,0l0,-4.557l1.834,0l0,-0.921Z" style="fill:#fff;fill-rule:nonzero;"/>
        <path d="M80.43,81.974c-1.627,0 -2.639,1.062 -2.639,2.822c0,1.759 1.012,2.822 2.639,2.822c1.627,0 2.631,-1.063 2.631,-2.822c0,-1.76 -1.004,-2.822 -2.631,-2.822Zm0,0.938c0.913,0 1.444,0.664 1.444,1.884c0,1.22 -0.531,1.884 -1.444,1.884c-0.921,0 -1.452,-0.664 -1.452,-1.884c0,-1.22 0.531,-1.884 1.452,-1.884Z" style="fill:#fff;fill-rule:nonzero;"/>
        <path d="M87.66,87.535l1.286,0l-1.444,-2.225c0.714,-0.232 1.12,-0.771 1.12,-1.56c0,-1.079 -0.747,-1.693 -1.992,-1.693l-2.415,0l0,5.478l1.129,0l0,-2.1l1.029,0l1.287,2.1Zm-2.316,-4.565l1.137,0c0.664,0 0.971,0.249 0.971,0.797c0,0.547 -0.307,0.796 -0.971,0.796l-1.137,0l0,-1.593Z" style="fill:#fff;fill-rule:nonzero;"/>
    </g>
    <g id="SCREWS">
        <g id="SCREW" transform="matrix(7.34788e-17,1.2,-1.2,7.34788e-17,116.863,-19.5387)">
            <g transform="matrix(0.705166,0,0,0.705166,6.97402,25.1218)">
                <path d="M23.654,78.116l6.141,3.545l0,7.091l-6.141,3.545l-6.141,-3.545l0,-7.091l6.141,-3.545Z" style="fill:#1d1d1d;"/>
                <path d="M23.654,78.116l6.141,3.545l0,7.091l-6.141,3.545l-6.141,-3.545l0,-7.091l6.141,-3.545Zm-5.741,10.405l5.741,3.314l5.741,-3.314l0,-6.629l-5.741,-3.314l-5.741,3.314l0,6.629Z" style="fill:#7c7c7c;fill-opacity:0.333333;"/>
            </g>
            <g transform="matrix(0.4231,0,0,0.4231,13.646,49.1557)">
                <path d="M23.654,78.116l6.141,3.545l0,7.091l-6.141,3.545l-6.141,-3.545l0,-7.091l6.141,-3.545Z" style="fill:#060809;"/>
                <path d="M23.654,78.116l6.141,3.545l0,7.091l-6.141,3.545l-6.141,-3.545l0,-7.091l6.141,-3.545Zm-5.741,10.405l5.741,3.314l5.741,-3.314l0,-6.629l-5.741,-3.314l-5.741,3.314l0,6.629Z" style="fill:#adadad;fill-opacity:0.333333;"/>
            </g>
            <g transform="matrix(1,0,0,1,-1,3.55271e-15)">
                <circle cx="24.636" cy="85.235" r="0.982" style="fill:#343535;"/>
            </g>
        </g>
        <g id="SCREW1" serif:id="SCREW" transform="matrix(7.34788e-17,1.2,-1.2,7.34788e-17,267.633,-19.5387)">
            <g transform="matrix(0.705166,0,0,0.705166,6.97402,25.1218)">
                <path d="M23.654,78.116l6.141,3.545l0,7.091l-6.141,3.545l-6.141,-3.545l0,-7.091l6.141,-3.545Z" style="fill:#1d1d1d;"/>
                <path d="M23.654,78.116l6.141,3.545l0,7.091l-6.141,3.545l-6.141,-3.545l0,-7.091l6.141,-3.545Zm0,13.719l5.741,-3.314l0,-6.629l-5.741,-3.314l-5.741,3.314l0,6.629l5.741,3.314Z" style="fill:#7c7c7c;fill-opacity:0.333333;"/>
            </g>
            <g transform="matrix(0.4231,0,0,0.4231,13.646,49.1557)">
                <path d="M23.654,78.116l6.141,3.545l0,7.091l-6.141,3.545l-6.141,-3.545l0,-7.091l6.141,-3.545Z" style="fill:#060809;"/>
                <path d="M23.654,78.116l6.141,3.545l0,7.091l-6.141,3.545l-6.141,-3.545l0,-7.091l6.141,-3.545Zm-5.741,10.405l5.741,3.314l5.741,-3.314l0,-6.629l-5.741,-3.314l-5.741,3.314l0,6.629Z" style="fill:#adadad;fill-opacity:0.333333;"/>
            </g>
            <g transform="matrix(1,0,0,1,-1,3.55271e-15)">
                <circle cx="24.636" cy="85.235" r="0.982" style="fill:#343535;"/>
            </g>
        </g>
        <g id="SCREW2" serif:id="SCREW" transform="matrix(7.34788e-17,1.2,-1.2,7.34788e-17,267.633,343.461)">
            <g transform="matrix(0.705166,0,0,0.705166,6.97402,25.1218)">
                <path d="M23.654,78.116l6.141,3.545l0,7.091l-6.141,3.545l-6.141,-3.545l0,-7.091l6.141,-3.545Z" style="fill:#1d1d1d;"/>
                <path d="M23.654,78.116l6.141,3.545l0,7.091l-6.141,3.545l-6.141,-3.545l0,-7.091l6.141,-3.545Zm-5.741,10.405l5.741,3.314l5.741,-3.314l0,-6.629l-5.741,-3.314l-5.741,3.314l0,6.629Z" style="fill:#7c7c7c;fill-opacity:0.333333;"/>
            </g>
            <g transform="matrix(0.4231,0,0,0.4231,13.646,49.1557)">
                <path d="M23.654,78.116l6.141,3.545l0,7.091l-6.141,3.545l-6.141,-3.545l0,-7.091l6.141,-3.545Z" style="fill:#060809;"/>
                <path d="M23.654,78.116l6.141,3.545l0,7.091l-6.141,3.545l-6.141,-3.545l0,-7.091l6.141,-3.545Zm-5.741,10.405l5.741,3.314l5.741,-3.314l0,-6.629l-5.741,-3.314l-5.741,3.314l0,6.629Z" style="fill:#adadad;fill-opacity:0.333333;"/>
            </g>
            <g transform="matrix(1,0,0,1,-1,3.55271e-15)">
                <circle cx="24.636" cy="85.235" r="0.982" style="fill:#343535;"/>
            </g>
        </g>
        <g id="SCREW3" serif:id="SCREW" transform="matrix(7.34788e-17,1.2,-1.2,7.34788e-17,116.863,343.461)">
            <g transform="matrix(0.705166,0,0,0.705166,6.97402,25.1218)">
                <path d="M23.654,78.116l6.141,3.545l0,7.091l-6.141,3.545l-6.141,-3.545l0,-7.091l6.141,-3.545Z" style="fill:#1d1d1d;"/>
                <path d="M23.654,78.116l6.141,3.545l0,7.091l-6.141,3.545l-6.141,-3.545l0,-7.091l6.141,-3.545Zm-5.741,10.405l5.741,3.314l5.741,-3.314l0,-6.629l-5.741,-3.314l-5.741,3.314l0,6.629Z" style="fill:#7c7c7c;fill-opacity:0.333333;"/>
            </g>
            <g transform="matrix(0.4231,0,0,0.4231,13.646,49.1557)">
                <path d="M23.654,78.116l6.141,3.545l0,7.091l-6.141,3.545l-6.141,-3.545l0,-7.091l6.141,-3.545Z" style="fill:#060809;"/>
                <path d="M23.654,78.116l6.141,3.545l0,7.091l-6.141,3.545l-6.141,-3.545l0,-7.091l6.141,-3.545Zm-5.741,10.405l5.741,3.314l5.741,-3.314l0,-6.629l-5.741,-3.314l-5.741,3.314l0,6.629Z" style="fill:#adadad;fill-opacity:0.333333;"/>
            </g>
            <g transform="matrix(1,0,0,1,-1,3.55271e-15)">
                <circle cx="24.636" cy="85.235" r="0.982" style="fill:#343535;"/>
            </g>
        </g>
    </g>
</svg>
