<?xml version="1.0" encoding="utf-8"?>
<!-- Generator: Adobe Illustrator 16.0.0, SVG Export Plug-In . SVG Version: 6.00 Build 0)  -->
<!DOCTYPE svg PUBLIC "-//W3C//DTD SVG 1.1//EN" "http://www.w3.org/Graphics/SVG/1.1/DTD/svg11.dtd">
<svg version="1.1"
	 id="svg8" xmlns:dc="http://purl.org/dc/elements/1.1/" xmlns:cc="http://creativecommons.org/ns#" xmlns:rdf="http://www.w3.org/1999/02/22-rdf-syntax-ns#" xmlns:svg="http://www.w3.org/2000/svg" xmlns:sodipodi="http://sodipodi.sourceforge.net/DTD/sodipodi-0.dtd" xmlns:inkscape="http://www.inkscape.org/namespaces/inkscape" inkscape:version="0.92.2 5c3e80d, 2017-08-06" sodipodi:docname="MyModule.svg"
	 xmlns="http://www.w3.org/2000/svg" xmlns:xlink="http://www.w3.org/1999/xlink" x="0px" y="0px" width="210px" height="380px"
	 viewBox="-89.5 190.5 210 380" enable-background="new -89.5 190.5 210 380" xml:space="preserve">
<rect x="-89.5" y="190.5" fill="#1C1C1C" width="210" height="380"/>
<g>
	<path fill="#F4F4F4" d="M-2.901,217.195h0.2h0.2l5.4-10.522H7.86l-7.222,14.282h-6.68l-7.217-14.282h4.956L-2.901,217.195z"/>
	<path fill="#F4F4F4" d="M16.279,206.453c4.082,0,6.595,0.34,7.539,1.021c0.827,0.589,1.24,2.15,1.24,4.683H20.64
		c0-0.827-0.22-1.354-0.659-1.582c-0.547-0.28-1.781-0.42-3.701-0.42c-2.145,0-3.405,0.168-3.779,0.503
		c-0.375,0.332-0.562,1.385-0.562,3.159c0,1.758,0.187,2.805,0.562,3.14c0.375,0.332,1.634,0.498,3.779,0.498
		c1.947,0,3.167-0.12,3.662-0.361c0.479-0.225,0.718-0.77,0.718-1.636h4.399c0,2.546-0.399,4.104-1.196,4.678
		c-0.947,0.681-3.475,1.021-7.583,1.021c-4.105,0-6.585-0.373-7.441-1.118c-0.866-0.749-1.299-2.829-1.299-6.24
		c0-3.401,0.414-5.462,1.24-6.182C9.674,206.841,12.174,206.453,16.279,206.453z"/>
	<path fill="#F4F4F4" d="M45.479,213.816c0,3.479-0.42,5.56-1.26,6.24c-0.905,0.732-3.638,1.099-8.198,1.099
		c-3.333,0-5.521-0.12-6.562-0.361c-1.305-0.306-2.13-0.972-2.476-1.997c-0.267-0.788-0.4-2.448-0.4-4.98
		c0-3.479,0.414-5.56,1.24-6.24c0.905-0.749,3.638-1.123,8.198-1.123c4.547,0,7.274,0.368,8.179,1.104
		C45.053,208.25,45.479,210.337,45.479,213.816z M30.982,213.816c0,1.826,0.213,2.886,0.64,3.179
		c0.414,0.306,1.88,0.459,4.399,0.459c2.533,0,4.012-0.153,4.438-0.459c0.414-0.293,0.62-1.353,0.62-3.179
		c0-1.843-0.207-2.917-0.62-3.223c-0.414-0.293-1.886-0.439-4.419-0.439s-4.005,0.146-4.419,0.439
		C31.195,210.899,30.982,211.974,30.982,213.816z"/>
</g>
</svg>
