<?xml version="1.0" encoding="utf-8"?>
<!-- Generator: Adobe Illustrator 16.0.0, SVG Export Plug-In . SVG Version: 6.00 Build 0)  -->
<!DOCTYPE svg PUBLIC "-//W3C//DTD SVG 1.1//EN" "http://www.w3.org/Graphics/SVG/1.1/DTD/svg11.dtd" [
        <!ENTITY ns_extend "http://ns.adobe.com/Extensibility/1.0/">
        <!ENTITY ns_ai "http://ns.adobe.com/AdobeIllustrator/10.0/">
        <!ENTITY ns_graphs "http://ns.adobe.com/Graphs/1.0/">
        <!ENTITY ns_vars "http://ns.adobe.com/Variables/1.0/">
        <!ENTITY ns_imrep "http://ns.adobe.com/ImageReplacement/1.0/">
        <!ENTITY ns_sfw "http://ns.adobe.com/SaveForWeb/1.0/">
        <!ENTITY ns_custom "http://ns.adobe.com/GenericCustomNamespace/1.0/">
        <!ENTITY ns_adobe_xpath "http://ns.adobe.com/XPath/1.0/">
        ]>
<svg version="1.1"
	 xmlns:x="&ns_extend;" xmlns:i="&ns_ai;" xmlns:graph="&ns_graphs;" xmlns:inkscape="http://www.inkscape.org/namespaces/inkscape" xmlns:svg="http://www.w3.org/2000/svg" xmlns:dc="http://purl.org/dc/elements/1.1/" xmlns:rdf="http://www.w3.org/1999/02/22-rdf-syntax-ns#" xmlns:cc="http://creativecommons.org/ns#" xmlns:sodipodi="http://sodipodi.sourceforge.net/DTD/sodipodi-0.dtd" xmlns:xlink="http://www.w3.org/1999/xlink" id="VCO" inkscape:version="0.92.2 5c3e80d, 2017-08-06"
	 sodipodi:docname="MyModule.svg" xmlns="http://www.w3.org/2000/svg" x="0px" y="0px" width="180px" height="380px"
	 viewBox="-7.5 0 180 380" enable-background="new -7.5 0 180 380" xml:space="preserve">
<metadata>
	<sfw  xmlns="&ns_sfw;">
		<slices></slices>
		<sliceSourceBounds  width="180.01" height="380" y="-149.5" x="-40.5" bottomLeftOrigin="true"></sliceSourceBounds>
	</sfw>
</metadata>
<rect id="Panel" x="-7.5" fill="#140E07" width="180" height="380"/>
<g id="LOGO">
	<path fill="#FFFFFF" d="M56.672,361.006h1.279v2.979h2.846v1.02h-4.125V361.006z"/>
	<path fill="#FFFFFF" d="M61.074,361.006h1.279v3.998h-1.279V361.006z"/>
	<path fill="#FFFFFF" d="M62.914,361.006h2.137l2.096,2.982h0.125l-0.029-2.982h1.24v3.998h-2.119l-2.104-2.982h-0.132l0.026,2.982
		h-1.24V361.006z"/>
	<path fill="#FFFFFF" d="M69.041,365.004v-3.998h2.886c0.627,0,1.032,0.012,1.216,0.031c0.355,0.041,0.617,0.135,0.785,0.275
		c0.18,0.156,0.298,0.408,0.354,0.76c0.027,0.166,0.041,0.455,0.041,0.867c0,0.527-0.021,0.895-0.068,1.104
		c-0.062,0.281-0.17,0.488-0.316,0.621c-0.1,0.092-0.221,0.16-0.361,0.207c-0.144,0.047-0.336,0.082-0.578,0.105
		c-0.19,0.02-0.547,0.023-1.065,0.023L69.041,365.004L69.041,365.004z M70.242,363.984h1.695c0.344,0,0.602-0.018,0.771-0.041
		c0.188-0.031,0.309-0.139,0.356-0.312c0.036-0.129,0.055-0.332,0.055-0.607c0-0.297-0.02-0.516-0.059-0.65
		c-0.047-0.174-0.154-0.279-0.322-0.314c-0.133-0.029-0.402-0.049-0.812-0.049H70.24L70.242,363.984L70.242,363.984z"/>
	<path fill="#FFFFFF" d="M74.802,361.006h4.431v0.939h-3.229v0.578h3.063v0.879h-3.063v0.641h3.252v0.961h-4.453V361.006
		L74.802,361.006z"/>
	<path fill="#FFFFFF" d="M79.636,361.006h2.138l2.094,2.982h0.127l-0.029-2.982h1.238v3.998h-2.117l-2.104-2.982h-0.134l0.026,2.982
		h-1.239V361.006z"/>
	<path fill="#FFFFFF" d="M85.762,365.004v-3.998h2.875c0.611,0.002,0.975,0.008,1.09,0.016c0.262,0.02,0.453,0.062,0.576,0.145
		c0.143,0.09,0.232,0.213,0.275,0.371c0.039,0.148,0.059,0.318,0.059,0.512c0,0.232-0.021,0.41-0.066,0.529
		c-0.074,0.189-0.229,0.322-0.473,0.396c0.18,0.029,0.311,0.074,0.396,0.135c0.195,0.133,0.293,0.404,0.293,0.826
		c0,0.324-0.051,0.564-0.152,0.727c-0.09,0.137-0.227,0.229-0.41,0.277c-0.154,0.041-0.418,0.062-0.783,0.062l-0.795,0.008
		L85.762,365.004L85.762,365.004z M86.924,362.582h1.717c0.377,0,0.602-0.016,0.674-0.045c0.096-0.037,0.146-0.133,0.146-0.287
		c0-0.156-0.061-0.252-0.176-0.283c-0.045-0.012-0.26-0.02-0.645-0.021h-1.717V362.582L86.924,362.582z M86.924,364.043h1.723
		c0.32-0.002,0.51-0.004,0.564-0.006c0.178-0.008,0.291-0.043,0.34-0.104c0.037-0.051,0.057-0.129,0.057-0.23
		c0-0.168-0.061-0.271-0.182-0.297c-0.043-0.016-0.303-0.02-0.779-0.02h-1.723V364.043L86.924,364.043z"/>
	<path fill="#FFFFFF" d="M91.209,361.006h4.43v0.939H92.41v0.578h3.062v0.879H92.41v0.641h3.252v0.961h-4.453V361.006
		L91.209,361.006z"/>
	<path fill="#FFFFFF" d="M96.043,365.004v-3.998h2.945c0.691,0.002,1.104,0.01,1.229,0.021c0.145,0.014,0.273,0.055,0.389,0.125
		c0.115,0.064,0.207,0.152,0.271,0.264c0.066,0.115,0.105,0.236,0.119,0.361c0.018,0.146,0.025,0.318,0.025,0.525
		c0,0.326-0.021,0.559-0.066,0.688c-0.068,0.188-0.197,0.32-0.387,0.396c-0.064,0.023-0.16,0.049-0.289,0.066
		c0.256,0.02,0.438,0.092,0.551,0.221c0.049,0.057,0.082,0.119,0.104,0.193c0.021,0.07,0.035,0.182,0.041,0.318
		c0.002,0.07,0.004,0.223,0.004,0.439v0.373h-1.201v-0.215c0-0.238-0.012-0.408-0.031-0.514c-0.029-0.146-0.109-0.234-0.236-0.268
		c-0.084-0.018-0.26-0.023-0.527-0.023h-1.719v1.02L96.043,365.004L96.043,365.004z M97.262,362.988h1.713
		c0.258-0.004,0.408-0.01,0.455-0.014c0.172-0.012,0.279-0.062,0.324-0.156c0.031-0.066,0.047-0.182,0.047-0.34
		c0-0.137-0.014-0.234-0.041-0.305c-0.041-0.1-0.139-0.148-0.295-0.164c-0.055-0.006-0.219-0.008-0.492-0.01h-1.711V362.988
		L97.262,362.988z"/>
	<path fill="#FFFFFF" d="M103.889,362.736h2.785c0.004,0.088,0.006,0.146,0.006,0.17c0,0.521-0.014,0.928-0.043,1.213
		c-0.047,0.461-0.309,0.74-0.785,0.838c-0.246,0.051-0.516,0.078-0.809,0.09c-0.312,0.012-0.68,0.018-1.105,0.018
		c-0.756,0-1.295-0.023-1.619-0.08c-0.449-0.072-0.729-0.279-0.834-0.619c-0.055-0.166-0.084-0.355-0.092-0.572
		c-0.01-0.27-0.016-0.557-0.016-0.859c0-0.518,0.025-0.877,0.074-1.088c0.066-0.289,0.188-0.494,0.359-0.613
		c0.094-0.062,0.203-0.111,0.342-0.146c0.135-0.033,0.324-0.062,0.572-0.084c0.354-0.029,0.822-0.047,1.418-0.047
		c0.77,0,1.311,0.029,1.627,0.092c0.322,0.062,0.551,0.168,0.682,0.322c0.115,0.139,0.186,0.354,0.211,0.654
		c0.006,0.078,0.01,0.201,0.01,0.367h-1.219c-0.002-0.105-0.008-0.186-0.021-0.225c-0.023-0.1-0.111-0.158-0.26-0.178
		c-0.191-0.025-0.574-0.039-1.145-0.039c-0.506,0-0.855,0.018-1.053,0.051c-0.186,0.033-0.299,0.135-0.338,0.307
		c-0.029,0.129-0.047,0.355-0.047,0.688c0,0.379,0.018,0.639,0.051,0.773c0.043,0.188,0.176,0.289,0.398,0.311
		c0.109,0.012,0.438,0.021,0.99,0.025c0.602-0.006,0.986-0.02,1.162-0.033c0.156-0.025,0.25-0.098,0.271-0.209
		c0.014-0.07,0.021-0.18,0.021-0.322h-1.604v-0.801h0.01V362.736z"/>
	<path fill="#FFFFFF" d="M60.467,372.205v-4h2.943c0.695,0.002,1.104,0.01,1.229,0.021c0.144,0.018,0.271,0.059,0.39,0.125
		c0.114,0.068,0.207,0.156,0.271,0.268c0.065,0.113,0.106,0.232,0.12,0.357c0.018,0.146,0.025,0.322,0.025,0.529
		c0,0.326-0.021,0.555-0.066,0.684c-0.068,0.189-0.197,0.324-0.387,0.396c-0.064,0.025-0.162,0.049-0.291,0.068
		c0.256,0.02,0.438,0.092,0.552,0.219c0.049,0.059,0.083,0.121,0.104,0.195c0.021,0.068,0.033,0.18,0.041,0.316
		c0.002,0.072,0.004,0.221,0.004,0.441v0.373h-1.201v-0.215c0-0.238-0.012-0.408-0.032-0.516c-0.031-0.146-0.11-0.232-0.237-0.266
		c-0.084-0.018-0.261-0.023-0.529-0.023h-1.718v1.02L60.467,372.205L60.467,372.205z M61.685,370.189H63.4
		c0.256-0.004,0.405-0.01,0.452-0.014c0.173-0.01,0.28-0.062,0.325-0.156c0.031-0.064,0.047-0.182,0.047-0.338
		c0-0.139-0.014-0.234-0.041-0.307c-0.041-0.098-0.14-0.15-0.296-0.164c-0.055-0.004-0.219-0.006-0.491-0.008h-1.712V370.189
		L61.685,370.189z"/>
	<path fill="#FFFFFF" d="M65.865,368.205h4.431v0.939h-3.229v0.576h3.063v0.879h-3.063v0.645h3.252v0.961h-4.453V368.205
		L65.865,368.205z"/>
	<path fill="#FFFFFF" d="M70.559,370.881h1.182c-0.002,0.197,0.039,0.324,0.121,0.381c0.043,0.027,0.092,0.047,0.146,0.061
		c0.054,0.01,0.149,0.018,0.287,0.021c0.067,0.002,0.292,0.004,0.671,0.006c0.52-0.002,0.82-0.006,0.902-0.01
		c0.152-0.012,0.256-0.031,0.305-0.062c0.068-0.043,0.104-0.141,0.104-0.285c0-0.104-0.021-0.174-0.063-0.215
		c-0.06-0.059-0.198-0.088-0.42-0.092c-0.151,0-0.472-0.014-0.954-0.035c-0.5-0.02-0.824-0.035-0.975-0.041
		c-0.387-0.014-0.658-0.059-0.815-0.135c-0.203-0.102-0.336-0.271-0.397-0.512c-0.035-0.133-0.054-0.307-0.054-0.521
		c0-0.451,0.086-0.77,0.259-0.955c0.129-0.145,0.323-0.232,0.586-0.279c0.235-0.039,0.799-0.061,1.688-0.061
		c0.576,0,0.984,0.02,1.225,0.053c0.313,0.045,0.541,0.123,0.682,0.23c0.188,0.152,0.279,0.434,0.279,0.828
		c0,0.043,0,0.111-0.002,0.205h-1.182c-0.004-0.096-0.012-0.162-0.021-0.197c-0.026-0.107-0.117-0.172-0.271-0.188
		c-0.136-0.012-0.463-0.02-0.983-0.02c-0.517,0-0.822,0.018-0.918,0.045c-0.107,0.033-0.16,0.125-0.16,0.27
		c0,0.143,0.058,0.229,0.17,0.26c0.097,0.023,0.525,0.051,1.291,0.072c0.693,0.021,1.138,0.043,1.328,0.072
		c0.192,0.025,0.346,0.07,0.461,0.133c0.113,0.059,0.205,0.143,0.273,0.248c0.104,0.158,0.154,0.414,0.154,0.766
		c0,0.396-0.051,0.684-0.151,0.863c-0.103,0.184-0.269,0.307-0.498,0.373c-0.228,0.064-0.851,0.1-1.872,0.1
		c-0.621,0-1.068-0.018-1.345-0.049c-0.336-0.039-0.577-0.115-0.724-0.23c-0.158-0.121-0.252-0.293-0.281-0.516
		c-0.016-0.105-0.023-0.23-0.023-0.383L70.559,370.881L70.559,370.881z"/>
	<path fill="#FFFFFF" d="M75.877,368.205h4.43v0.939h-3.229v0.576h3.062v0.879h-3.062v0.645h3.252v0.961h-4.453V368.205
		L75.877,368.205z"/>
	<path fill="#FFFFFF" d="M85.053,372.205l-0.344-0.678h-2.646l-0.343,0.678h-1.394l2.121-4h1.895l2.092,4H85.053z M84.281,370.652
		l-0.771-1.52h-0.242l-0.771,1.52H84.281z"/>
	<path fill="#FFFFFF" d="M86.617,372.205v-4h2.941c0.695,0.002,1.105,0.01,1.23,0.021c0.143,0.018,0.271,0.059,0.387,0.125
		c0.117,0.068,0.207,0.156,0.271,0.268c0.065,0.113,0.104,0.232,0.121,0.357c0.019,0.146,0.024,0.322,0.024,0.529
		c0,0.326-0.021,0.555-0.065,0.684c-0.067,0.189-0.197,0.324-0.39,0.396c-0.062,0.025-0.16,0.049-0.289,0.068
		c0.257,0.02,0.438,0.092,0.552,0.219c0.049,0.059,0.084,0.121,0.104,0.195c0.021,0.068,0.035,0.18,0.043,0.316
		c0.002,0.072,0.002,0.221,0.002,0.441v0.373h-1.201v-0.215c0-0.238-0.01-0.408-0.029-0.516c-0.031-0.146-0.109-0.232-0.236-0.266
		c-0.084-0.018-0.262-0.023-0.531-0.023h-1.717v1.02L86.617,372.205L86.617,372.205z M87.836,370.189h1.713
		c0.256-0.004,0.408-0.01,0.455-0.014c0.172-0.01,0.279-0.062,0.324-0.156c0.031-0.064,0.047-0.182,0.047-0.338
		c0-0.139-0.014-0.234-0.041-0.307c-0.041-0.098-0.139-0.15-0.295-0.164c-0.055-0.004-0.219-0.006-0.492-0.008h-1.711V370.189
		L87.836,370.189z"/>
	<path fill="#FFFFFF" d="M95.842,370.66h1.219c0.01,0.193,0.014,0.33,0.014,0.398c0,0.291-0.047,0.523-0.139,0.699
		c-0.096,0.188-0.277,0.312-0.549,0.385c-0.295,0.08-0.805,0.119-1.527,0.119c-0.801,0-1.338-0.014-1.615-0.037
		c-0.258-0.021-0.461-0.057-0.607-0.104s-0.271-0.115-0.369-0.205c-0.131-0.121-0.213-0.281-0.248-0.479
		c-0.037-0.209-0.059-0.609-0.059-1.207c0-0.57,0.014-0.959,0.043-1.154c0.043-0.301,0.158-0.52,0.35-0.65
		c0.146-0.102,0.375-0.174,0.691-0.217c0.326-0.043,0.916-0.062,1.766-0.062c0.51,0,0.867,0.014,1.082,0.031
		c0.324,0.029,0.562,0.094,0.709,0.188c0.186,0.111,0.303,0.279,0.352,0.5c0.035,0.154,0.053,0.338,0.053,0.543
		c0,0.031-0.002,0.109-0.004,0.229h-1.219c-0.004-0.098-0.008-0.162-0.014-0.197c-0.016-0.119-0.066-0.191-0.16-0.227
		c-0.141-0.049-0.52-0.07-1.139-0.07c-0.422,0-0.713,0.014-0.873,0.035c-0.191,0.025-0.312,0.135-0.359,0.318
		c-0.037,0.146-0.059,0.393-0.059,0.727c0,0.346,0.021,0.582,0.059,0.713c0.047,0.17,0.176,0.271,0.387,0.297
		c0.172,0.02,0.473,0.031,0.904,0.031c0.467,0,0.783-0.012,0.955-0.029c0.158-0.018,0.262-0.072,0.305-0.172
		C95.82,370.98,95.838,370.848,95.842,370.66z"/>
	<path fill="#FFFFFF" d="M97.494,368.205h1.281v1.432h2.75v-1.432h1.279v4h-1.279v-1.451h-2.75v1.451h-1.281V368.205L97.494,368.205
		z"/>
</g>
<g id="TopHL">
	<line fill="none" stroke="#FCFCFC" stroke-width="3" stroke-miterlimit="10" x1="118.05" y1="17.737" x2="172.5" y2="17.737"/>
	<line fill="none" stroke="#FCFCFC" stroke-width="3" stroke-miterlimit="10" x1="-7.5" y1="17.737" x2="41.016" y2="17.737"/>
	<line fill="none" stroke="#FCFCFC" stroke-miterlimit="10" x1="116.667" y1="22.112" x2="172.501" y2="22.112"/>
	<line fill="none" stroke="#FCFCFC" stroke-miterlimit="10" x1="-7.499" y1="22.112" x2="43.333" y2="22.112"/>
</g>
<g id="BottomHL">
	<line fill="none" stroke="#EDEDED" stroke-width="3" stroke-miterlimit="10" x1="52.52" y1="367.334" x2="-7.5" y2="367.334"/>
	<line fill="none" stroke="#EDEDED" stroke-width="3" stroke-miterlimit="10" x1="172.51" y1="367.334" x2="111.672" y2="367.334"/>
</g>
<g>
	<path fill="#EFEFEF" stroke="#FCFCFC" stroke-width="0.2" stroke-miterlimit="10" d="M72.487,10.005
		c0.224,0.462,0.315,0.956,0.273,1.48c-0.042,0.525-0.151,1.05-0.326,1.575c-0.175,0.525-0.392,1.033-0.651,1.522
		c-0.259,0.49-0.501,0.931-0.725,1.323c-0.616,1.092-1.288,2.146-2.016,3.16c-0.728,1.015-1.533,1.971-2.415,2.867
		c-0.168,0.168-0.388,0.385-0.661,0.651c-0.273,0.266-0.574,0.536-0.903,0.809s-0.679,0.529-1.05,0.767
		c-0.371,0.238-0.739,0.413-1.103,0.525c-0.364,0.112-0.711,0.136-1.04,0.073c-0.329-0.063-0.62-0.255-0.872-0.577
		c-0.168-0.224-0.283-0.479-0.347-0.767c-0.063-0.287-0.087-0.584-0.073-0.893c0.014-0.308,0.049-0.616,0.105-0.924
		c0.056-0.308,0.105-0.588,0.147-0.84c0.028-0.182,0.066-0.364,0.116-0.546c0.049-0.182,0.094-0.371,0.136-0.567
		c-0.448,0.532-0.91,1.057-1.386,1.575c-0.476,0.518-0.966,1.008-1.47,1.47c-0.238,0.224-0.518,0.483-0.84,0.777
		c-0.322,0.294-0.669,0.553-1.04,0.777c-0.371,0.224-0.753,0.381-1.145,0.472c-0.392,0.091-0.763,0.046-1.113-0.136
		c-0.448-0.224-0.703-0.536-0.766-0.935s-0.032-0.822,0.094-1.271c0.126-0.448,0.305-0.885,0.536-1.312
		c0.231-0.427,0.423-0.78,0.578-1.061c0.448-0.798,0.906-1.592,1.375-2.383c0.469-0.791,0.885-1.606,1.25-2.447
		c0.154-0.364,0.301-0.742,0.441-1.134c0.14-0.392,0.234-0.78,0.283-1.166c0.049-0.385,0.032-0.763-0.052-1.134
		s-0.259-0.725-0.525-1.061c-0.364-0.448-0.777-0.759-1.239-0.935c-0.462-0.175-0.945-0.249-1.449-0.221
		c-0.504,0.028-1.015,0.133-1.533,0.315c-0.518,0.182-1.019,0.406-1.501,0.672s-0.935,0.556-1.354,0.871s-0.784,0.613-1.092,0.893
		c-0.588,0.56-1.117,1.176-1.586,1.848c-0.469,0.672-0.836,1.393-1.102,2.163c-0.112,0.322-0.2,0.689-0.263,1.103
		s-0.074,0.819-0.032,1.218s0.15,0.767,0.326,1.103c0.175,0.336,0.452,0.595,0.83,0.777c0.336,0.168,0.686,0.235,1.05,0.2
		c0.364-0.035,0.717-0.129,1.061-0.284c0.343-0.154,0.668-0.343,0.977-0.567c0.308-0.224,0.581-0.441,0.819-0.651
		c0.532-0.49,0.98-1.064,1.344-1.722c0.364-0.658,0.623-1.344,0.777-2.058c0.07-0.308,0.084-0.591,0.042-0.85
		c-0.042-0.259-0.098-0.528-0.168-0.809c-0.028-0.112-0.039-0.238-0.031-0.378c0.007-0.14,0.115-0.196,0.325-0.168
		c0.14,0,0.238,0.063,0.294,0.189s0.098,0.245,0.126,0.357c0.112,0.392,0.158,0.791,0.137,1.197
		c-0.021,0.406-0.091,0.809-0.21,1.208c-0.119,0.399-0.273,0.788-0.462,1.166S53,18.035,52.79,18.343
		c-0.238,0.35-0.536,0.71-0.893,1.081c-0.357,0.371-0.752,0.708-1.187,1.008c-0.434,0.301-0.886,0.549-1.354,0.746
		c-0.469,0.196-0.931,0.297-1.386,0.304c-0.455,0.007-0.889-0.098-1.302-0.315c-0.413-0.217-0.773-0.591-1.082-1.124
		c-0.434-0.742-0.623-1.519-0.567-2.331c0.056-0.812,0.255-1.603,0.599-2.373c0.343-0.77,0.788-1.494,1.333-2.173
		c0.546-0.679,1.092-1.263,1.638-1.753c0.574-0.504,1.246-0.977,2.016-1.417s1.571-0.759,2.405-0.956
		c0.833-0.196,1.651-0.231,2.457-0.105c0.805,0.126,1.536,0.497,2.194,1.113c0.364,0.336,0.63,0.69,0.798,1.061
		c0.168,0.371,0.266,0.732,0.294,1.082c0.056,0.532,0.032,1.064-0.073,1.596s-0.259,1.054-0.462,1.564
		c-0.203,0.511-0.435,1.015-0.693,1.512c-0.259,0.498-0.514,0.97-0.767,1.418c-0.238,0.448-0.486,0.892-0.745,1.333
		c-0.259,0.441-0.508,0.885-0.746,1.333c-0.07,0.126-0.179,0.308-0.326,0.546c-0.147,0.238-0.28,0.493-0.399,0.767
		c-0.119,0.273-0.199,0.528-0.241,0.766c-0.042,0.238,0.014,0.42,0.168,0.546c0.154,0.126,0.336,0.171,0.546,0.136
		c0.21-0.035,0.434-0.123,0.672-0.263c0.238-0.14,0.479-0.311,0.725-0.514c0.245-0.203,0.476-0.41,0.693-0.62
		c0.217-0.21,0.413-0.406,0.588-0.588c0.175-0.182,0.305-0.322,0.389-0.42c0.49-0.49,0.962-0.998,1.417-1.522
		c0.455-0.525,0.906-1.054,1.354-1.586c0.196-0.238,0.389-0.483,0.578-0.735s0.381-0.504,0.577-0.756
		c0.196-0.532,0.402-1.057,0.62-1.575c0.217-0.518,0.444-1.042,0.683-1.575c0.07-0.14,0.171-0.357,0.305-0.651
		c0.133-0.294,0.283-0.591,0.451-0.892s0.343-0.563,0.525-0.788c0.182-0.224,0.35-0.336,0.504-0.336
		c0.336-0.014,0.528,0.115,0.577,0.388c0.049,0.273,0.032,0.585-0.052,0.935c-0.084,0.35-0.196,0.69-0.336,1.019
		c-0.14,0.329-0.238,0.557-0.294,0.683c-0.322,0.672-0.679,1.32-1.071,1.942c-0.392,0.623-0.812,1.236-1.26,1.837
		c-0.154,0.462-0.294,0.921-0.42,1.375c-0.126,0.455-0.245,0.928-0.357,1.417c-0.042,0.168-0.094,0.392-0.157,0.672
		c-0.063,0.28-0.112,0.567-0.147,0.861c-0.035,0.294-0.042,0.578-0.021,0.851s0.101,0.486,0.241,0.64
		c0.14,0.168,0.329,0.228,0.567,0.179c0.238-0.049,0.483-0.14,0.735-0.273c0.252-0.133,0.49-0.287,0.714-0.462
		c0.224-0.175,0.392-0.305,0.504-0.389c0.434-0.364,0.851-0.749,1.25-1.155c0.399-0.406,0.78-0.826,1.145-1.26
		c0.728-0.84,1.414-1.715,2.058-2.625c0.644-0.91,1.225-1.848,1.743-2.814c0.266-0.518,0.514-1.036,0.746-1.554
		c0.231-0.518,0.402-1.057,0.514-1.617c0.056-0.224,0.081-0.438,0.074-0.641c-0.007-0.203-0.011-0.417-0.011-0.641
		c0-0.084,0.024-0.168,0.074-0.252c0.049-0.084,0.105-0.147,0.168-0.189s0.133-0.052,0.21-0.031
		C72.365,9.806,72.432,9.879,72.487,10.005z"/>
	<path fill="#EFEFEF" stroke="#FCFCFC" stroke-width="0.2" stroke-miterlimit="10" d="M85.633,14.374
		c0.127-0.042,0.211-0.049,0.252-0.021c0.043,0.028,0.049,0.074,0.021,0.137c-0.028,0.063-0.084,0.129-0.168,0.199
		c-0.084,0.07-0.176,0.133-0.273,0.189c-0.209,0.112-0.473,0.224-0.787,0.336c-0.314,0.112-0.658,0.214-1.029,0.305
		c-0.371,0.091-0.756,0.158-1.155,0.2s-0.788,0.049-1.166,0.021c0.028,0.588-0.035,1.197-0.189,1.827
		c-0.154,0.63-0.329,1.169-0.525,1.617c-0.21,0.49-0.455,0.991-0.735,1.501c-0.28,0.511-0.599,0.998-0.956,1.459
		s-0.746,0.889-1.166,1.281c-0.42,0.393-0.875,0.722-1.365,0.987c-0.364,0.196-0.742,0.322-1.134,0.378
		c-0.392,0.056-0.767,0.042-1.124-0.042s-0.686-0.245-0.987-0.483c-0.301-0.238-0.542-0.553-0.725-0.945
		c-0.238-0.518-0.35-1.071-0.336-1.659s0.105-1.176,0.273-1.764s0.392-1.155,0.672-1.701c0.28-0.546,0.56-1.042,0.84-1.491
		c0.28-0.434,0.63-0.899,1.05-1.396s0.882-0.935,1.386-1.312s1.043-0.651,1.617-0.819c0.574-0.168,1.155-0.14,1.743,0.084
		c0.126,0.07,0.189,0.168,0.189,0.294c0.322,0.112,0.584,0.27,0.787,0.472c0.203,0.203,0.36,0.445,0.473,0.725
		c0.336,0.084,0.707,0.13,1.113,0.137c0.406,0.007,0.816-0.014,1.228-0.063c0.414-0.049,0.809-0.116,1.188-0.2
		C85.024,14.542,85.354,14.458,85.633,14.374z M75.406,16.243c-0.56,0.714-1.047,1.491-1.459,2.331
		c-0.413,0.84-0.697,1.715-0.851,2.625c-0.028,0.196-0.053,0.402-0.074,0.619c-0.021,0.217-0.028,0.434-0.021,0.651
		c0.007,0.217,0.042,0.427,0.105,0.63c0.063,0.203,0.164,0.388,0.304,0.557c0.28,0.322,0.616,0.479,1.008,0.472
		c0.392-0.007,0.77-0.101,1.134-0.283c0.798-0.406,1.498-0.973,2.1-1.701c0.602-0.728,1.12-1.477,1.554-2.247
		c0.112-0.21,0.252-0.494,0.42-0.851c0.168-0.357,0.322-0.738,0.462-1.145c0.14-0.406,0.245-0.819,0.315-1.239
		c0.07-0.42,0.07-0.798,0-1.134c-0.35-0.126-0.644-0.318-0.882-0.577c-0.238-0.259-0.392-0.612-0.462-1.061
		c-0.756,0.098-1.438,0.371-2.047,0.819C76.404,15.158,75.868,15.668,75.406,16.243z"/>
	<path fill="#EFEFEF" stroke="#FCFCFC" stroke-width="0.2" stroke-miterlimit="10" d="M84.73,18.595
		c-0.406,0.91-0.738,1.69-0.998,2.341c-0.259,0.651-0.402,1.271-0.43,1.858c-0.014,0.308,0.027,0.55,0.125,0.725
		c0.099,0.175,0.234,0.298,0.41,0.368c0.175,0.07,0.374,0.084,0.598,0.042c0.225-0.042,0.455-0.126,0.693-0.252
		c0.477-0.28,0.917-0.616,1.323-1.008c0.405-0.392,0.784-0.809,1.134-1.25s0.683-0.896,0.998-1.365
		c0.314-0.469,0.626-0.914,0.934-1.333c0.127-0.182,0.229-0.245,0.305-0.189c0.077,0.056,0.053,0.196-0.073,0.42
		c-0.252,0.448-0.55,0.945-0.893,1.491c-0.343,0.546-0.714,1.085-1.112,1.617c-0.399,0.532-0.83,1.026-1.292,1.48
		c-0.462,0.455-0.944,0.809-1.449,1.061c-0.237,0.126-0.489,0.196-0.756,0.21c-0.267,0.014-0.515-0.021-0.745-0.105
		c-0.231-0.084-0.434-0.221-0.609-0.41c-0.175-0.189-0.304-0.423-0.388-0.703c-0.07-0.266-0.098-0.542-0.084-0.83
		c0.014-0.287,0.049-0.57,0.105-0.851c0.056-0.28,0.126-0.557,0.21-0.83s0.168-0.536,0.252-0.788
		c0.435-1.204,0.948-2.373,1.544-3.507c0.594-1.134,1.207-2.254,1.837-3.36c0.084-0.14,0.21-0.371,0.378-0.693
		c0.168-0.322,0.363-0.672,0.588-1.05s0.465-0.756,0.725-1.134c0.259-0.378,0.528-0.7,0.809-0.966
		c0.279-0.266,0.56-0.444,0.84-0.536c0.279-0.091,0.546-0.038,0.799,0.158c0.168,0.126,0.252,0.287,0.252,0.483
		c0,0.196-0.043,0.399-0.127,0.609c-0.084,0.21-0.186,0.414-0.305,0.609c-0.119,0.196-0.221,0.357-0.305,0.483
		c-0.812,1.344-1.666,2.597-2.562,3.759C86.564,16.313,85.654,17.46,84.73,18.595z M89.665,10.72
		c0.168-0.308,0.27-0.532,0.305-0.672c0.034-0.14,0.021-0.206-0.042-0.199c-0.062,0.007-0.161,0.084-0.294,0.231
		c-0.134,0.147-0.291,0.354-0.473,0.62c-0.462,0.714-0.987,1.575-1.575,2.583c-0.588,1.008-1.218,2.128-1.89,3.36
		c0.728-1.05,1.435-2.051,2.121-3.003C88.503,12.687,89.119,11.714,89.665,10.72z"/>
	<path fill="#EFEFEF" stroke="#FCFCFC" stroke-width="0.2" stroke-miterlimit="10" d="M97.393,14.08
		c-0.504-0.182-1.008-0.179-1.512,0.01s-0.983,0.466-1.438,0.83c-0.455,0.364-0.875,0.77-1.26,1.218
		c-0.386,0.448-0.704,0.847-0.956,1.197c-0.377,0.518-0.734,1.043-1.07,1.575s-0.623,1.092-0.861,1.68
		c-0.057,0.14-0.146,0.357-0.273,0.651c-0.125,0.294-0.23,0.605-0.314,0.934c-0.084,0.33-0.123,0.634-0.115,0.914
		c0.007,0.28,0.108,0.476,0.305,0.588c0.279,0.154,0.626,0.126,1.039-0.084c0.412-0.21,0.83-0.494,1.25-0.851
		s0.805-0.725,1.154-1.103s0.602-0.651,0.756-0.819c0.266-0.28,0.557-0.612,0.871-0.997c0.315-0.385,0.634-0.788,0.956-1.208
		c0.321-0.42,0.641-0.843,0.956-1.271c0.314-0.427,0.598-0.83,0.85-1.208c0.448-0.84,0.936-1.652,1.46-2.436
		s1.103-1.519,1.732-2.205c0.546-0.63,1.155-1.158,1.827-1.585c0.672-0.427,1.428-0.675,2.268-0.746
		c0.84-0.056,1.677-0.01,2.51,0.137s1.648,0.304,2.447,0.472c0.84,0.168,1.68,0.326,2.52,0.473s1.687,0.234,2.541,0.263
		c0.77,0.014,1.467-0.084,2.09-0.294c0.623-0.21,1.248-0.539,1.879-0.987c0.141-0.098,0.275-0.091,0.41,0.021
		c0.133,0.112,0.164,0.245,0.094,0.399c-0.293,0.672-0.746,1.145-1.354,1.417c-0.609,0.273-1.281,0.424-2.018,0.452
		c-0.734,0.028-1.469-0.028-2.204-0.168c-0.735-0.14-1.376-0.273-1.922-0.399c-0.603-0.14-1.226-0.297-1.868-0.473
		c-0.645-0.175-1.292-0.322-1.943-0.441c-0.65-0.119-1.305-0.189-1.963-0.21s-1.295,0.052-1.912,0.22
		c-0.686,0.196-1.305,0.529-1.857,0.998c-0.554,0.469-1.058,1.008-1.512,1.617c-0.455,0.609-0.861,1.25-1.219,1.921
		s-0.683,1.302-0.977,1.89c-0.07,0.126-0.207,0.396-0.409,0.809c-0.203,0.413-0.427,0.892-0.673,1.438
		c-0.244,0.546-0.49,1.124-0.734,1.732c-0.245,0.609-0.441,1.176-0.588,1.701c-0.146,0.525-0.225,0.966-0.23,1.323
		c-0.008,0.357,0.101,0.563,0.324,0.62c0.211,0.042,0.48-0.042,0.809-0.252c0.33-0.21,0.658-0.462,0.988-0.756
		c0.328-0.294,0.633-0.595,0.912-0.903c0.281-0.308,0.477-0.532,0.589-0.672c0.741-0.91,1.294-1.606,1.659-2.09
		c0.363-0.483,0.623-0.766,0.777-0.85c0.111-0.056,0.178-0.074,0.199-0.053c0.021,0.021,0.018,0.06-0.011,0.116
		s-0.067,0.126-0.116,0.21s-0.087,0.154-0.115,0.21c-0.041,0.084-0.168,0.287-0.378,0.609c-0.21,0.322-0.476,0.7-0.798,1.134
		c-0.322,0.435-0.68,0.893-1.07,1.375c-0.393,0.483-0.791,0.928-1.197,1.333c-0.406,0.406-0.806,0.739-1.197,0.998
		c-0.393,0.259-0.749,0.381-1.071,0.368c-0.406-0.014-0.696-0.15-0.871-0.41c-0.175-0.259-0.28-0.588-0.315-0.987
		s-0.007-0.833,0.084-1.302c0.092-0.469,0.203-0.927,0.336-1.375c0.133-0.448,0.276-0.847,0.431-1.197
		c0.153-0.35,0.28-0.609,0.378-0.777c-0.574,0.798-1.105,1.522-1.596,2.173s-0.959,1.222-1.407,1.711
		c-0.448,0.49-0.893,0.9-1.333,1.229c-0.441,0.329-0.893,0.571-1.355,0.725c-0.363,0.112-0.734,0.129-1.112,0.052
		c-0.378-0.077-0.665-0.297-0.86-0.661c-0.127-0.21-0.203-0.441-0.232-0.693c-0.027-0.252-0.027-0.507,0-0.766
		c0.029-0.259,0.074-0.515,0.137-0.767c0.063-0.252,0.13-0.49,0.2-0.714c0.321-1.008,0.773-1.978,1.354-2.909
		c0.58-0.931,1.229-1.788,1.942-2.573c0.308-0.35,0.675-0.714,1.103-1.092c0.427-0.378,0.885-0.7,1.375-0.966
		s0.994-0.427,1.512-0.483c0.519-0.056,1.022,0.063,1.513,0.357c0.084,0.042,0.133,0.108,0.147,0.199
		c0.014,0.091,0.006,0.172-0.021,0.242c-0.028,0.07-0.084,0.129-0.168,0.178C97.582,14.118,97.49,14.122,97.393,14.08z"/>
	<path fill="#EFEFEF" stroke="#FCFCFC" stroke-width="0.2" stroke-miterlimit="10" d="M103.272,23.151
		c0.42,0.49,0.927,0.771,1.522,0.84s1.204,0.021,1.827-0.147s1.226-0.413,1.806-0.735c0.581-0.322,1.074-0.63,1.48-0.924
		c1.12-0.812,2.107-1.792,2.961-2.94c0.127-0.168,0.221-0.305,0.284-0.41s0.115-0.192,0.157-0.262
		c0.098-0.14,0.186-0.179,0.263-0.116s0.087,0.165,0.031,0.305c-0.07,0.182-0.179,0.381-0.325,0.598
		c-0.146,0.217-0.242,0.361-0.283,0.431c-0.379,0.56-0.803,1.103-1.271,1.627s-0.979,1.008-1.533,1.449
		c-0.553,0.441-1.137,0.822-1.753,1.145s-1.26,0.56-1.932,0.714c-0.63,0.154-1.239,0.182-1.827,0.084s-1.103-0.297-1.543-0.599
		c-0.441-0.301-0.785-0.707-1.029-1.218c-0.245-0.511-0.34-1.116-0.283-1.816c0.041-0.686,0.191-1.379,0.451-2.079
		c0.259-0.7,0.588-1.365,0.986-1.995c0.399-0.63,0.854-1.214,1.365-1.753s1.053-0.998,1.627-1.375
		c0.281-0.182,0.582-0.35,0.904-0.504c0.321-0.154,0.65-0.263,0.986-0.326s0.672-0.073,1.008-0.031s0.658,0.161,0.967,0.357
		c0.363,0.238,0.619,0.528,0.766,0.872c0.147,0.343,0.217,0.707,0.211,1.092c-0.008,0.385-0.082,0.77-0.221,1.155
		c-0.141,0.385-0.315,0.732-0.525,1.04c-0.406,0.616-0.886,1.113-1.438,1.491c-0.554,0.378-1.145,0.641-1.774,0.788
		s-1.277,0.182-1.942,0.105s-1.312-0.263-1.942-0.557c-0.113,0.294-0.214,0.602-0.305,0.924c-0.092,0.322-0.146,0.648-0.168,0.977
		c-0.021,0.329,0.003,0.648,0.073,0.956C102.922,22.62,103.062,22.899,103.272,23.151z M109.678,17.125
		c0.14-0.224,0.262-0.486,0.367-0.788c0.105-0.301,0.158-0.598,0.158-0.893c0-0.294-0.063-0.563-0.189-0.808
		s-0.357-0.423-0.693-0.536c-0.322-0.112-0.65-0.129-0.986-0.053c-0.336,0.077-0.662,0.203-0.977,0.378
		c-0.315,0.175-0.617,0.385-0.903,0.63c-0.287,0.245-0.536,0.472-0.745,0.683c-0.449,0.462-0.861,0.959-1.239,1.491
		c-0.378,0.532-0.707,1.092-0.987,1.68c0.547,0.266,1.117,0.427,1.712,0.483c0.595,0.056,1.169,0.007,1.722-0.147
		c0.553-0.154,1.067-0.41,1.543-0.767C108.936,18.122,109.342,17.67,109.678,17.125z"/>
</g>
<g>
	<path fill="#F9F9F9" d="M25.862,36.088h-1.51l-1.846-5.328h1.411l1.19,4.056l1.19-4.056h1.411L25.862,36.088z"/>
	<path fill="#F9F9F9" d="M32.369,34.128c0,0.288-0.046,0.556-0.14,0.804c-0.093,0.248-0.229,0.464-0.41,0.648
		c-0.18,0.184-0.405,0.328-0.673,0.432s-0.574,0.156-0.919,0.156s-0.651-0.052-0.919-0.156s-0.492-0.248-0.673-0.432
		c-0.181-0.184-0.317-0.4-0.41-0.648c-0.093-0.248-0.14-0.516-0.14-0.804s0.046-0.556,0.14-0.804
		c0.093-0.248,0.229-0.464,0.41-0.648s0.405-0.328,0.673-0.432s0.574-0.156,0.919-0.156s0.651,0.052,0.919,0.156
		s0.493,0.248,0.673,0.432c0.181,0.184,0.317,0.4,0.41,0.648C32.323,33.572,32.369,33.84,32.369,34.128z M31.056,34.128
		c0-0.139-0.014-0.273-0.041-0.404c-0.027-0.131-0.072-0.248-0.135-0.352s-0.147-0.187-0.254-0.248
		c-0.106-0.062-0.239-0.092-0.398-0.092s-0.292,0.031-0.398,0.092c-0.106,0.061-0.191,0.144-0.254,0.248s-0.108,0.221-0.135,0.352
		c-0.027,0.13-0.041,0.265-0.041,0.404s0.014,0.273,0.041,0.404c0.027,0.131,0.072,0.248,0.135,0.352s0.148,0.187,0.254,0.248
		c0.106,0.062,0.239,0.092,0.398,0.092s0.292-0.031,0.398-0.092c0.107-0.061,0.191-0.144,0.254-0.248s0.108-0.221,0.135-0.352
		C31.042,34.401,31.056,34.267,31.056,34.128z"/>
	<path fill="#F9F9F9" d="M34.74,34.888c0,0.102,0.022,0.18,0.066,0.236c0.043,0.056,0.128,0.084,0.254,0.084
		c0.077,0,0.169-0.008,0.279-0.024l0.041,0.88c-0.109,0.032-0.234,0.057-0.373,0.076c-0.14,0.019-0.283,0.028-0.431,0.028
		c-0.219,0-0.402-0.032-0.55-0.096c-0.147-0.064-0.265-0.149-0.353-0.256c-0.088-0.106-0.15-0.228-0.189-0.364
		c-0.038-0.136-0.057-0.276-0.057-0.42V30.44h1.312V34.888z"/>
	<path fill="#F9F9F9" d="M35.938,32.168h0.616v-1.024h1.313v1.024h1.157v0.976h-1.157v1.53c0,0.154,0.034,0.275,0.103,0.363
		c0.068,0.087,0.192,0.131,0.373,0.131c0.099,0,0.198-0.007,0.3-0.02c0.101-0.013,0.198-0.033,0.291-0.06l0.091,0.895
		c-0.132,0.059-0.293,0.105-0.484,0.137s-0.383,0.048-0.574,0.048c-0.258,0-0.475-0.039-0.652-0.116
		c-0.178-0.077-0.323-0.181-0.435-0.312c-0.112-0.13-0.194-0.285-0.247-0.464c-0.052-0.179-0.078-0.369-0.078-0.572v-1.56h-0.616
		V32.168z"/>
	<path fill="#F9F9F9" d="M42.314,35.704c-0.126,0.123-0.297,0.23-0.513,0.324s-0.453,0.14-0.71,0.14
		c-0.181,0-0.342-0.029-0.484-0.088c-0.142-0.059-0.261-0.139-0.356-0.24c-0.096-0.101-0.17-0.22-0.222-0.356
		s-0.078-0.281-0.078-0.436c0-0.363,0.116-0.636,0.349-0.82s0.562-0.292,0.989-0.324c0.158-0.011,0.326-0.019,0.504-0.024
		s0.336-0.011,0.473-0.016v-0.128c0-0.427-0.244-0.64-0.73-0.64c-0.191,0-0.376,0.021-0.554,0.064
		c-0.178,0.043-0.341,0.102-0.488,0.176l-0.238-0.888c0.191-0.106,0.417-0.193,0.677-0.26s0.543-0.1,0.85-0.1
		c0.563,0,1.004,0.143,1.321,0.428c0.316,0.285,0.476,0.713,0.476,1.284v2.288h-1.264V35.704z M41.601,35.328
		c0.126,0,0.245-0.016,0.357-0.048c0.111-0.032,0.214-0.075,0.308-0.128v-0.584c-0.132,0.011-0.249,0.023-0.354,0.036
		c-0.104,0.013-0.205,0.025-0.304,0.036c-0.268,0.032-0.401,0.155-0.401,0.368c0,0.096,0.034,0.173,0.103,0.232
		C41.378,35.299,41.475,35.328,41.601,35.328z"/>
	<path fill="#F9F9F9" d="M48.657,32.168v0.816h-0.591l-0.009-0.008c0.061,0.16,0.091,0.314,0.091,0.464
		c0,0.181-0.037,0.352-0.111,0.512c-0.073,0.16-0.183,0.3-0.328,0.42c-0.145,0.12-0.325,0.214-0.541,0.284
		c-0.217,0.069-0.467,0.104-0.751,0.104h-0.05c-0.021,0.038-0.039,0.074-0.053,0.108c-0.014,0.035-0.021,0.074-0.021,0.116
		c0,0.075,0.028,0.129,0.086,0.164s0.13,0.055,0.218,0.06l0.705,0.04c0.405,0.026,0.729,0.129,0.973,0.308
		c0.243,0.179,0.365,0.444,0.365,0.796c0,0.245-0.067,0.46-0.201,0.644c-0.134,0.184-0.312,0.336-0.533,0.456
		c-0.222,0.12-0.472,0.211-0.751,0.272c-0.279,0.061-0.563,0.092-0.854,0.092c-0.229,0-0.452-0.016-0.669-0.048
		c-0.216-0.032-0.408-0.087-0.578-0.164c-0.17-0.078-0.307-0.18-0.41-0.308c-0.104-0.128-0.156-0.285-0.156-0.472
		c0-0.123,0.027-0.23,0.082-0.324s0.129-0.175,0.222-0.244s0.2-0.128,0.32-0.176c0.12-0.048,0.243-0.085,0.369-0.112
		c-0.241-0.117-0.361-0.296-0.361-0.536c0-0.102,0.021-0.192,0.062-0.272c0.041-0.08,0.092-0.15,0.152-0.212
		c0.06-0.061,0.127-0.114,0.201-0.16c0.073-0.045,0.144-0.082,0.209-0.108c-0.351-0.09-0.614-0.247-0.792-0.468
		s-0.267-0.479-0.267-0.772c0-0.192,0.037-0.369,0.11-0.532c0.074-0.163,0.184-0.305,0.328-0.428
		c0.146-0.123,0.326-0.219,0.542-0.288s0.466-0.104,0.751-0.104c0.12,0,0.233,0.007,0.341,0.02c0.106,0.013,0.206,0.033,0.299,0.06
		H48.657z M46.031,36.104c-0.065,0.048-0.134,0.106-0.205,0.176s-0.106,0.16-0.106,0.272c0,0.149,0.063,0.259,0.192,0.328
		s0.308,0.104,0.537,0.104c0.121,0,0.239-0.012,0.357-0.036c0.117-0.024,0.223-0.059,0.315-0.104
		c0.094-0.045,0.167-0.099,0.222-0.16c0.055-0.062,0.082-0.132,0.082-0.212c0-0.096-0.034-0.165-0.103-0.208
		c-0.068-0.042-0.176-0.069-0.324-0.08L46.031,36.104z M46.417,33.976c0.191,0,0.336-0.049,0.435-0.148s0.147-0.233,0.147-0.404
		c0-0.17-0.049-0.305-0.147-0.404s-0.243-0.148-0.435-0.148s-0.337,0.049-0.436,0.148c-0.098,0.099-0.147,0.233-0.147,0.404
		c0,0.171,0.05,0.306,0.147,0.404C46.08,33.927,46.226,33.976,46.417,33.976z"/>
	<path fill="#F9F9F9" d="M51.439,32.088c0.524,0,0.94,0.151,1.247,0.452c0.306,0.301,0.459,0.719,0.459,1.252
		c0,0.203-0.024,0.418-0.073,0.648h-2.331c0.011,0.24,0.095,0.433,0.251,0.58c0.155,0.146,0.395,0.22,0.718,0.22
		c0.196,0,0.403-0.017,0.619-0.052s0.403-0.087,0.562-0.156l0.164,0.824c-0.208,0.101-0.442,0.179-0.702,0.232
		s-0.529,0.08-0.808,0.08c-0.351,0-0.659-0.049-0.928-0.148c-0.268-0.099-0.492-0.236-0.673-0.412s-0.317-0.387-0.41-0.632
		c-0.093-0.246-0.14-0.518-0.14-0.816c0-0.32,0.048-0.608,0.144-0.864s0.232-0.473,0.41-0.652s0.393-0.316,0.645-0.412
		S51.127,32.088,51.439,32.088z M51.397,32.904c-0.207,0-0.367,0.065-0.479,0.196c-0.112,0.13-0.168,0.311-0.168,0.54h1.165
		c0.011-0.042,0.017-0.088,0.017-0.136c0-0.17-0.047-0.313-0.14-0.428C51.698,32.961,51.567,32.904,51.397,32.904z"/>
	<path fill="#F9F9F9" d="M59.201,30.664c0.284,0,0.57,0.026,0.857,0.079c0.287,0.053,0.534,0.13,0.742,0.23l-0.196,0.962
		c-0.164-0.064-0.352-0.119-0.562-0.164s-0.42-0.068-0.628-0.068c-0.558,0-0.998,0.142-1.321,0.426
		c-0.322,0.284-0.483,0.715-0.483,1.294s0.161,1.01,0.483,1.294c0.323,0.284,0.764,0.426,1.321,0.426
		c0.208,0,0.417-0.023,0.628-0.068c0.211-0.045,0.398-0.1,0.562-0.164l0.196,0.962c-0.208,0.101-0.455,0.178-0.742,0.23
		s-0.573,0.08-0.857,0.08c-0.481,0-0.905-0.069-1.272-0.208c-0.366-0.139-0.673-0.331-0.919-0.576
		c-0.246-0.245-0.432-0.536-0.558-0.872s-0.188-0.704-0.188-1.104s0.062-0.768,0.188-1.104s0.312-0.626,0.558-0.872
		c0.246-0.245,0.553-0.437,0.919-0.576C58.296,30.733,58.72,30.664,59.201,30.664z"/>
	<path fill="#F9F9F9" d="M65.996,34.128c0,0.288-0.047,0.556-0.14,0.804c-0.094,0.248-0.23,0.464-0.41,0.648
		c-0.181,0.184-0.405,0.328-0.673,0.432c-0.269,0.104-0.575,0.156-0.919,0.156c-0.345,0-0.651-0.052-0.92-0.156
		c-0.268-0.104-0.492-0.248-0.673-0.432c-0.18-0.184-0.317-0.4-0.41-0.648c-0.093-0.248-0.14-0.516-0.14-0.804
		s0.047-0.556,0.14-0.804s0.23-0.464,0.41-0.648c0.181-0.184,0.405-0.328,0.673-0.432c0.269-0.104,0.575-0.156,0.92-0.156
		c0.344,0,0.65,0.052,0.919,0.156c0.268,0.104,0.492,0.248,0.673,0.432c0.18,0.184,0.316,0.4,0.41,0.648
		C65.949,33.572,65.996,33.84,65.996,34.128z M64.683,34.128c0-0.139-0.014-0.273-0.041-0.404c-0.027-0.131-0.072-0.248-0.135-0.352
		c-0.063-0.104-0.148-0.187-0.255-0.248c-0.106-0.062-0.239-0.092-0.397-0.092c-0.159,0-0.292,0.031-0.398,0.092
		c-0.106,0.061-0.191,0.144-0.254,0.248c-0.063,0.104-0.108,0.221-0.136,0.352c-0.027,0.13-0.041,0.265-0.041,0.404
		s0.014,0.273,0.041,0.404c0.027,0.131,0.072,0.248,0.136,0.352c0.062,0.104,0.147,0.187,0.254,0.248
		c0.106,0.062,0.239,0.092,0.398,0.092c0.158,0,0.291-0.031,0.397-0.092c0.106-0.061,0.191-0.144,0.255-0.248
		c0.062-0.104,0.107-0.221,0.135-0.352C64.669,34.401,64.683,34.267,64.683,34.128z"/>
	<path fill="#F9F9F9" d="M67.111,36.088v-3.92h1.264v0.512c0.126-0.213,0.289-0.365,0.488-0.456c0.2-0.091,0.412-0.136,0.636-0.136
		c0.269,0,0.495,0.055,0.682,0.164c0.186,0.109,0.338,0.255,0.455,0.436s0.202,0.391,0.255,0.628
		c0.052,0.237,0.077,0.487,0.077,0.748v2.024h-1.312V34.04c0-0.325-0.052-0.564-0.156-0.716c-0.104-0.152-0.263-0.228-0.476-0.228
		c-0.137,0-0.256,0.03-0.357,0.088c-0.101,0.059-0.182,0.13-0.241,0.216v2.688H67.111z"/>
	<path fill="#F9F9F9" d="M71.854,32.168h0.615v-1.024h1.313v1.024h1.157v0.976h-1.157v1.53c0,0.154,0.034,0.275,0.103,0.363
		c0.068,0.087,0.192,0.131,0.373,0.131c0.099,0,0.198-0.007,0.3-0.02c0.101-0.013,0.198-0.033,0.291-0.06l0.091,0.895
		c-0.132,0.059-0.293,0.105-0.484,0.137s-0.383,0.048-0.574,0.048c-0.258,0-0.475-0.039-0.652-0.116s-0.323-0.181-0.436-0.312
		c-0.112-0.13-0.194-0.285-0.246-0.464s-0.078-0.369-0.078-0.572v-1.56h-0.615V32.168z"/>
	<path fill="#F9F9F9" d="M78.574,33.272h-0.156c-0.52,0-0.886,0.128-1.099,0.384v2.432h-1.313v-3.92h1.272v0.656
		c0.076-0.213,0.193-0.381,0.353-0.504c0.158-0.123,0.366-0.184,0.623-0.184c0.077,0,0.142,0.004,0.193,0.012
		c0.052,0.008,0.105,0.02,0.16,0.036L78.574,33.272z"/>
	<path fill="#F9F9F9" d="M83.531,34.128c0,0.288-0.047,0.556-0.14,0.804c-0.094,0.248-0.23,0.464-0.41,0.648
		c-0.181,0.184-0.405,0.328-0.673,0.432c-0.269,0.104-0.575,0.156-0.919,0.156c-0.345,0-0.651-0.052-0.92-0.156
		c-0.268-0.104-0.492-0.248-0.673-0.432c-0.18-0.184-0.317-0.4-0.41-0.648c-0.093-0.248-0.14-0.516-0.14-0.804
		s0.047-0.556,0.14-0.804s0.23-0.464,0.41-0.648c0.181-0.184,0.405-0.328,0.673-0.432c0.269-0.104,0.575-0.156,0.92-0.156
		c0.344,0,0.65,0.052,0.919,0.156c0.268,0.104,0.492,0.248,0.673,0.432c0.18,0.184,0.316,0.4,0.41,0.648
		C83.484,33.572,83.531,33.84,83.531,34.128z M82.218,34.128c0-0.139-0.014-0.273-0.041-0.404c-0.027-0.131-0.072-0.248-0.135-0.352
		c-0.063-0.104-0.148-0.187-0.255-0.248c-0.106-0.062-0.239-0.092-0.397-0.092c-0.159,0-0.292,0.031-0.398,0.092
		c-0.106,0.061-0.191,0.144-0.254,0.248c-0.063,0.104-0.108,0.221-0.136,0.352c-0.027,0.13-0.041,0.265-0.041,0.404
		s0.014,0.273,0.041,0.404c0.027,0.131,0.072,0.248,0.136,0.352c0.062,0.104,0.147,0.187,0.254,0.248
		c0.106,0.062,0.239,0.092,0.398,0.092c0.158,0,0.291-0.031,0.397-0.092c0.106-0.061,0.191-0.144,0.255-0.248
		c0.062-0.104,0.107-0.221,0.135-0.352C82.204,34.401,82.218,34.267,82.218,34.128z"/>
	<path fill="#F9F9F9" d="M85.902,34.888c0,0.102,0.021,0.18,0.065,0.236c0.044,0.056,0.129,0.084,0.254,0.084
		c0.077,0,0.17-0.008,0.279-0.024l0.041,0.88c-0.109,0.032-0.233,0.057-0.373,0.076c-0.14,0.019-0.283,0.028-0.431,0.028
		c-0.219,0-0.402-0.032-0.55-0.096c-0.148-0.064-0.266-0.149-0.354-0.256c-0.087-0.106-0.15-0.228-0.188-0.364
		c-0.038-0.136-0.058-0.276-0.058-0.42V30.44h1.313V34.888z"/>
	<path fill="#F9F9F9" d="M88.782,34.888c0,0.102,0.021,0.18,0.065,0.236c0.044,0.056,0.129,0.084,0.254,0.084
		c0.077,0,0.17-0.008,0.279-0.024l0.041,0.88c-0.109,0.032-0.233,0.057-0.373,0.076c-0.14,0.019-0.283,0.028-0.431,0.028
		c-0.219,0-0.402-0.032-0.55-0.096c-0.148-0.064-0.266-0.149-0.354-0.256c-0.087-0.106-0.15-0.228-0.188-0.364
		c-0.038-0.136-0.058-0.276-0.058-0.42V30.44h1.313V34.888z"/>
	<path fill="#F9F9F9" d="M92.188,32.088c0.524,0,0.94,0.151,1.247,0.452c0.306,0.301,0.459,0.719,0.459,1.252
		c0,0.203-0.024,0.418-0.073,0.648h-2.331c0.011,0.24,0.095,0.433,0.251,0.58c0.155,0.146,0.395,0.22,0.718,0.22
		c0.196,0,0.403-0.017,0.619-0.052s0.403-0.087,0.562-0.156l0.164,0.824c-0.208,0.101-0.442,0.179-0.702,0.232
		s-0.529,0.08-0.808,0.08c-0.351,0-0.659-0.049-0.928-0.148c-0.268-0.099-0.492-0.236-0.673-0.412s-0.317-0.387-0.41-0.632
		c-0.093-0.246-0.14-0.518-0.14-0.816c0-0.32,0.048-0.608,0.144-0.864s0.232-0.473,0.41-0.652s0.393-0.316,0.645-0.412
		S91.875,32.088,92.188,32.088z M92.146,32.904c-0.207,0-0.367,0.065-0.479,0.196c-0.112,0.13-0.168,0.311-0.168,0.54h1.165
		c0.011-0.042,0.017-0.088,0.017-0.136c0-0.17-0.047-0.313-0.14-0.428C92.446,32.961,92.315,32.904,92.146,32.904z"/>
	<path fill="#F9F9F9" d="M98.883,36.088h-1.256v-0.491c-0.126,0.174-0.288,0.313-0.488,0.417c-0.199,0.103-0.438,0.155-0.718,0.155
		c-0.225,0-0.435-0.047-0.632-0.14c-0.196-0.093-0.368-0.227-0.513-0.4S95.018,35.245,94.936,35s-0.123-0.52-0.123-0.824
		c0-0.341,0.057-0.643,0.169-0.904c0.111-0.261,0.262-0.48,0.451-0.656c0.188-0.176,0.408-0.308,0.66-0.396
		c0.252-0.088,0.52-0.132,0.805-0.132c0.142,0,0.268,0.009,0.377,0.028c0.109,0.019,0.208,0.042,0.296,0.068V30.44h1.312V36.088z
		 M96.897,35.192c0.278,0,0.503-0.091,0.673-0.273v-1.807c-0.121-0.043-0.276-0.064-0.468-0.064c-0.329,0-0.573,0.099-0.734,0.297
		c-0.162,0.198-0.242,0.468-0.242,0.811c0,0.305,0.062,0.554,0.185,0.747S96.629,35.192,96.897,35.192z"/>
	<path fill="#F9F9F9" d="M107.818,33.424c0,0.379-0.062,0.735-0.188,1.068c-0.126,0.333-0.308,0.625-0.546,0.876
		c-0.237,0.251-0.529,0.45-0.873,0.596c-0.345,0.146-0.739,0.22-1.182,0.22c-0.443,0-0.839-0.074-1.187-0.22
		c-0.347-0.146-0.64-0.345-0.878-0.596c-0.237-0.25-0.418-0.542-0.541-0.876c-0.123-0.333-0.185-0.689-0.185-1.068
		c0-0.378,0.062-0.734,0.185-1.068s0.304-0.625,0.541-0.876c0.238-0.25,0.531-0.449,0.878-0.596c0.348-0.146,0.743-0.22,1.187-0.22
		c0.442,0,0.837,0.073,1.182,0.22c0.344,0.147,0.636,0.346,0.873,0.596c0.238,0.25,0.42,0.542,0.546,0.876
		S107.818,33.045,107.818,33.424z M105.029,35.144c0.234,0,0.442-0.043,0.623-0.128c0.181-0.085,0.332-0.204,0.455-0.356
		c0.124-0.152,0.215-0.333,0.275-0.544c0.061-0.21,0.09-0.441,0.09-0.692c0-0.25-0.029-0.481-0.09-0.692
		c-0.061-0.21-0.151-0.392-0.275-0.544c-0.123-0.152-0.274-0.271-0.455-0.356s-0.389-0.128-0.623-0.128
		c-0.241,0-0.45,0.042-0.628,0.128s-0.328,0.204-0.451,0.356s-0.215,0.333-0.275,0.544c-0.061,0.211-0.09,0.441-0.09,0.692
		c0,0.251,0.029,0.481,0.09,0.692c0.061,0.211,0.152,0.392,0.275,0.544c0.123,0.152,0.273,0.271,0.451,0.356
		C104.579,35.101,104.788,35.144,105.029,35.144z"/>
	<path fill="#F9F9F9" d="M111.889,34.808c0,0.219-0.043,0.413-0.128,0.584c-0.085,0.17-0.205,0.313-0.36,0.428
		c-0.156,0.115-0.341,0.202-0.554,0.26c-0.214,0.059-0.449,0.088-0.706,0.088c-0.219,0-0.448-0.02-0.689-0.06
		c-0.24-0.04-0.459-0.1-0.656-0.18l0.181-0.888c0.169,0.069,0.356,0.121,0.562,0.156s0.385,0.052,0.538,0.052
		c0.158,0,0.296-0.023,0.414-0.068c0.117-0.045,0.177-0.121,0.177-0.228c0-0.096-0.053-0.164-0.156-0.204s-0.26-0.097-0.468-0.172
		c-0.17-0.059-0.328-0.124-0.476-0.196c-0.148-0.072-0.275-0.157-0.382-0.256s-0.19-0.212-0.25-0.34
		c-0.061-0.128-0.091-0.277-0.091-0.448c0-0.427,0.148-0.741,0.443-0.944c0.296-0.203,0.681-0.304,1.157-0.304
		c0.251,0,0.481,0.023,0.689,0.068c0.207,0.045,0.407,0.122,0.599,0.228l-0.181,0.84c-0.147-0.064-0.304-0.116-0.468-0.156
		s-0.336-0.06-0.517-0.06c-0.159,0-0.28,0.015-0.365,0.044s-0.127,0.089-0.127,0.18s0.05,0.156,0.151,0.196s0.231,0.089,0.39,0.148
		c0.12,0.043,0.255,0.095,0.402,0.156s0.286,0.14,0.414,0.236c0.129,0.096,0.237,0.212,0.324,0.348
		C111.845,34.452,111.889,34.616,111.889,34.808z"/>
	<path fill="#F9F9F9" d="M114.899,32.088c0.208,0,0.412,0.021,0.611,0.064c0.2,0.043,0.373,0.102,0.521,0.176L115.9,33.24
		c-0.104-0.041-0.229-0.076-0.373-0.106c-0.146-0.03-0.291-0.045-0.439-0.045c-0.35,0-0.612,0.093-0.787,0.278
		c-0.176,0.185-0.263,0.439-0.263,0.762s0.087,0.577,0.263,0.762c0.175,0.185,0.438,0.278,0.787,0.278
		c0.148,0,0.294-0.015,0.439-0.046c0.145-0.03,0.27-0.066,0.373-0.106l0.132,0.912c-0.148,0.075-0.321,0.133-0.521,0.176
		c-0.199,0.042-0.403,0.064-0.611,0.064c-0.339,0-0.644-0.049-0.915-0.148c-0.271-0.099-0.499-0.237-0.685-0.416
		c-0.187-0.179-0.328-0.394-0.427-0.644s-0.148-0.528-0.148-0.832s0.05-0.581,0.148-0.832c0.099-0.25,0.24-0.465,0.427-0.644
		c0.186-0.179,0.414-0.317,0.685-0.416C114.256,32.137,114.561,32.088,114.899,32.088z"/>
	<path fill="#F9F9F9" d="M117.058,31.024c0-0.203,0.068-0.373,0.205-0.512c0.137-0.139,0.314-0.208,0.533-0.208
		s0.396,0.069,0.534,0.208c0.136,0.139,0.205,0.31,0.205,0.512s-0.069,0.374-0.205,0.512c-0.138,0.139-0.315,0.208-0.534,0.208
		s-0.396-0.069-0.533-0.208S117.058,31.227,117.058,31.024z M117.14,36.088v-3.92h1.313v3.92H117.14z"/>
	<path fill="#F9F9F9" d="M121.104,34.888c0,0.102,0.021,0.18,0.065,0.236c0.044,0.056,0.129,0.084,0.254,0.084
		c0.077,0,0.17-0.008,0.279-0.024l0.041,0.88c-0.109,0.032-0.233,0.057-0.373,0.076c-0.14,0.019-0.283,0.028-0.431,0.028
		c-0.219,0-0.402-0.032-0.55-0.096c-0.148-0.064-0.266-0.149-0.354-0.256c-0.087-0.106-0.15-0.228-0.188-0.364
		c-0.038-0.136-0.058-0.276-0.058-0.42V30.44h1.313V34.888z"/>
	<path fill="#F9F9F9" d="M123.983,34.888c0,0.102,0.021,0.18,0.065,0.236c0.044,0.056,0.129,0.084,0.254,0.084
		c0.077,0,0.17-0.008,0.279-0.024l0.041,0.88c-0.109,0.032-0.233,0.057-0.373,0.076c-0.14,0.019-0.283,0.028-0.431,0.028
		c-0.219,0-0.402-0.032-0.55-0.096c-0.148-0.064-0.266-0.149-0.354-0.256c-0.087-0.106-0.15-0.228-0.188-0.364
		c-0.038-0.136-0.058-0.276-0.058-0.42V30.44h1.313V34.888z"/>
	<path fill="#F9F9F9" d="M127.849,35.704c-0.126,0.123-0.297,0.23-0.513,0.324s-0.453,0.14-0.71,0.14
		c-0.181,0-0.342-0.029-0.484-0.088c-0.142-0.059-0.261-0.139-0.356-0.24c-0.096-0.101-0.17-0.22-0.222-0.356
		s-0.078-0.281-0.078-0.436c0-0.363,0.116-0.636,0.349-0.82s0.562-0.292,0.989-0.324c0.158-0.011,0.326-0.019,0.504-0.024
		s0.336-0.011,0.473-0.016v-0.128c0-0.427-0.244-0.64-0.73-0.64c-0.191,0-0.376,0.021-0.554,0.064
		c-0.178,0.043-0.341,0.102-0.488,0.176l-0.238-0.888c0.191-0.106,0.417-0.193,0.677-0.26s0.543-0.1,0.85-0.1
		c0.563,0,1.004,0.143,1.321,0.428c0.316,0.285,0.476,0.713,0.476,1.284v2.288h-1.264V35.704z M127.135,35.328
		c0.126,0,0.245-0.016,0.357-0.048c0.111-0.032,0.214-0.075,0.308-0.128v-0.584c-0.132,0.011-0.249,0.023-0.354,0.036
		c-0.104,0.013-0.205,0.025-0.304,0.036c-0.268,0.032-0.401,0.155-0.401,0.368c0,0.096,0.034,0.173,0.103,0.232
		C126.912,35.299,127.009,35.328,127.135,35.328z"/>
	<path fill="#F9F9F9" d="M130.022,32.168h0.615v-1.024h1.313v1.024h1.157v0.976h-1.157v1.53c0,0.154,0.034,0.275,0.103,0.363
		c0.068,0.087,0.192,0.131,0.373,0.131c0.099,0,0.198-0.007,0.3-0.02c0.101-0.013,0.198-0.033,0.291-0.06l0.091,0.895
		c-0.132,0.059-0.293,0.105-0.484,0.137s-0.383,0.048-0.574,0.048c-0.258,0-0.475-0.039-0.652-0.116s-0.323-0.181-0.436-0.312
		c-0.112-0.13-0.194-0.285-0.246-0.464s-0.078-0.369-0.078-0.572v-1.56h-0.615V32.168z"/>
	<path fill="#F9F9F9" d="M138.18,34.128c0,0.288-0.047,0.556-0.14,0.804c-0.094,0.248-0.23,0.464-0.41,0.648
		c-0.181,0.184-0.405,0.328-0.673,0.432c-0.269,0.104-0.575,0.156-0.919,0.156c-0.345,0-0.651-0.052-0.92-0.156
		c-0.268-0.104-0.492-0.248-0.673-0.432c-0.18-0.184-0.317-0.4-0.41-0.648c-0.093-0.248-0.14-0.516-0.14-0.804
		s0.047-0.556,0.14-0.804s0.23-0.464,0.41-0.648c0.181-0.184,0.405-0.328,0.673-0.432c0.269-0.104,0.575-0.156,0.92-0.156
		c0.344,0,0.65,0.052,0.919,0.156c0.268,0.104,0.492,0.248,0.673,0.432c0.18,0.184,0.316,0.4,0.41,0.648
		C138.133,33.572,138.18,33.84,138.18,34.128z M136.866,34.128c0-0.139-0.014-0.273-0.041-0.404
		c-0.027-0.131-0.072-0.248-0.135-0.352c-0.063-0.104-0.148-0.187-0.255-0.248c-0.106-0.062-0.239-0.092-0.397-0.092
		c-0.159,0-0.292,0.031-0.398,0.092c-0.106,0.061-0.191,0.144-0.254,0.248c-0.063,0.104-0.108,0.221-0.136,0.352
		c-0.027,0.13-0.041,0.265-0.041,0.404s0.014,0.273,0.041,0.404c0.027,0.131,0.072,0.248,0.136,0.352
		c0.062,0.104,0.147,0.187,0.254,0.248c0.106,0.062,0.239,0.092,0.398,0.092c0.158,0,0.291-0.031,0.397-0.092
		c0.106-0.061,0.191-0.144,0.255-0.248c0.062-0.104,0.107-0.221,0.135-0.352C136.853,34.401,136.866,34.267,136.866,34.128z"/>
	<path fill="#F9F9F9" d="M141.863,33.272h-0.156c-0.52,0-0.886,0.128-1.099,0.384v2.432h-1.313v-3.92h1.272v0.656
		c0.076-0.213,0.193-0.381,0.353-0.504c0.158-0.123,0.366-0.184,0.623-0.184c0.077,0,0.142,0.004,0.193,0.012
		c0.052,0.008,0.105,0.02,0.16,0.036L141.863,33.272z"/>
</g>
<g id="BorderMarkers">
	<polyline fill="none" stroke="#D3D3D3" stroke-miterlimit="10" points="149,45 157.5,45 157.5,53.165 	"/>
	<polyline fill="none" stroke="#D3D3D3" stroke-miterlimit="10" points="16,355 7.5,355 7.5,346.834 	"/>
	<polyline fill="none" stroke="#D3D3D3" stroke-miterlimit="10" points="7.5,53.5 7.5,45 15.666,45 	"/>
	<polyline fill="none" stroke="#D3D3D3" stroke-miterlimit="10" points="157.5,346.5 157.5,355 149.334,355 	"/>
</g>
<g id="Controls">
	<g id="IOPort_1_">
		<g id="Outside">
			<polygon fill="#A8A8A8" points="23.287,304.96 36.327,308.454 39.821,321.494 30.275,331.04 17.235,327.546 13.741,314.506 			
				"/>
			<polygon fill="#A8A8A8" points="33.54,306.309 40.29,318 33.54,329.691 20.04,329.691 13.29,318 20.04,306.309 			"/>
			<polygon fill="#A8A8A8" points="39.821,314.506 36.327,327.546 23.287,331.04 13.741,321.494 17.235,308.454 30.275,304.96 			
				"/>
			<polygon fill="#A8A8A8" points="38.464,324.75 26.772,331.5 15.081,324.75 15.081,311.25 26.772,304.5 38.464,311.25 			"/>
		</g>
		<path id="inner_circle" fill="#7F7F7F" stroke="#494949" stroke-width="2" stroke-miterlimit="10" d="M26.781,327.875
			c5.445,0,9.875-4.43,9.875-9.875s-4.43-9.875-9.875-9.875s-9.875,4.43-9.875,9.875S21.336,327.875,26.781,327.875z
			 M26.781,311.697c3.48,0,6.304,2.821,6.304,6.303s-2.823,6.303-6.304,6.303c-3.482,0-6.304-2.821-6.304-6.303
			S23.299,311.697,26.781,311.697z"/>
		<rect x="13.884" y="317.035" fill="#494949" width="3.778" height="2"/>
		<rect x="35.909" y="317.035" fill="#494949" width="3.752" height="2"/>
		<circle fill="#0C0C0C" cx="26.781" cy="318" r="6.8"/>
	</g>
	<g id="IOPort_2_">
		<g id="Outside_1_">
			<polygon fill="#A8A8A8" points="98.62,304.96 111.66,308.454 115.154,321.494 105.608,331.04 92.568,327.546 89.074,314.506 			
				"/>
			<polygon fill="#A8A8A8" points="108.873,306.309 115.623,318 108.873,329.691 95.373,329.691 88.623,318 95.373,306.309 			"/>
			<polygon fill="#A8A8A8" points="115.154,314.506 111.66,327.546 98.62,331.04 89.074,321.494 92.568,308.454 105.608,304.96 			
				"/>
			<polygon fill="#A8A8A8" points="113.797,324.75 102.105,331.5 90.414,324.75 90.414,311.25 102.105,304.5 113.797,311.25 			"/>
		</g>
		<path id="inner_circle_3_" fill="#7F7F7F" stroke="#494949" stroke-width="2" stroke-miterlimit="10" d="M102.114,327.875
			c5.445,0,9.875-4.43,9.875-9.875s-4.43-9.875-9.875-9.875s-9.875,4.43-9.875,9.875S96.669,327.875,102.114,327.875z
			 M102.114,311.697c3.48,0,6.304,2.821,6.304,6.303s-2.823,6.303-6.304,6.303c-3.482,0-6.304-2.821-6.304-6.303
			S98.632,311.697,102.114,311.697z"/>
		<rect x="89.217" y="317.035" fill="#494949" width="3.778" height="2"/>
		<rect x="111.242" y="317.035" fill="#494949" width="3.752" height="2"/>
		<circle fill="#0C0C0C" cx="102.114" cy="318" r="6.8"/>
	</g>
	<g id="IOPort_3_">
		<g id="Outside_2_">
			<polygon fill="#A8A8A8" points="134.497,304.96 147.537,308.454 151.031,321.494 141.485,331.04 128.445,327.546 
				124.951,314.506 			"/>
			<polygon fill="#A8A8A8" points="144.75,306.309 151.5,318 144.75,329.691 131.25,329.691 124.5,318 131.25,306.309 			"/>
			<polygon fill="#A8A8A8" points="151.031,314.506 147.537,327.546 134.497,331.04 124.951,321.494 128.445,308.454 
				141.485,304.96 			"/>
			<polygon fill="#A8A8A8" points="149.674,324.75 137.982,331.5 126.291,324.75 126.291,311.25 137.982,304.5 149.674,311.25 			
				"/>
		</g>
		<path id="inner_circle_5_" fill="#7F7F7F" stroke="#494949" stroke-width="2" stroke-miterlimit="10" d="M137.991,327.875
			c5.445,0,9.875-4.43,9.875-9.875s-4.43-9.875-9.875-9.875s-9.875,4.43-9.875,9.875S132.546,327.875,137.991,327.875z
			 M137.991,311.697c3.48,0,6.304,2.821,6.304,6.303s-2.823,6.303-6.304,6.303c-3.482,0-6.304-2.821-6.304-6.303
			S134.509,311.697,137.991,311.697z"/>
		<rect x="125.094" y="317.035" fill="#494949" width="3.778" height="2"/>
		<rect x="147.119" y="317.035" fill="#494949" width="3.752" height="2"/>
		<circle fill="#0C0C0C" cx="137.991" cy="318" r="6.8"/>
	</g>
	<g id="IOPort_4_">
		<g id="Outside_3_">
			<polygon fill="#A8A8A8" points="59.669,304.96 72.709,308.454 76.203,321.494 66.657,331.04 53.617,327.546 50.123,314.506 			
				"/>
			<polygon fill="#A8A8A8" points="69.922,306.309 76.672,318 69.922,329.691 56.422,329.691 49.672,318 56.422,306.309 			"/>
			<polygon fill="#A8A8A8" points="76.203,314.506 72.709,327.546 59.669,331.04 50.123,321.494 53.617,308.454 66.657,304.96 			
				"/>
			<polygon fill="#A8A8A8" points="74.846,324.75 63.154,331.5 51.463,324.75 51.463,311.25 63.154,304.5 74.846,311.25 			"/>
		</g>
		<path id="inner_circle_7_" fill="#7F7F7F" stroke="#494949" stroke-width="2" stroke-miterlimit="10" d="M63.163,327.875
			c5.445,0,9.875-4.43,9.875-9.875s-4.43-9.875-9.875-9.875s-9.875,4.43-9.875,9.875S57.718,327.875,63.163,327.875z
			 M63.163,311.697c3.48,0,6.304,2.821,6.304,6.303s-2.823,6.303-6.304,6.303c-3.482,0-6.304-2.821-6.304-6.303
			S59.681,311.697,63.163,311.697z"/>
		<rect x="50.266" y="317.035" fill="#494949" width="3.778" height="2"/>
		<rect x="72.291" y="317.035" fill="#494949" width="3.752" height="2"/>
		<circle fill="#0C0C0C" cx="63.163" cy="318" r="6.8"/>
	</g>
</g>
<g display="none">
	<path display="inline" fill="#FFFFFF" stroke="#FFFFFF" stroke-width="0.4" stroke-miterlimit="10" d="M21.221,318.203
		c0,0.229-0.049,0.436-0.148,0.616c-0.099,0.182-0.232,0.336-0.4,0.464c-0.168,0.129-0.365,0.227-0.592,0.297
		c-0.227,0.068-0.471,0.104-0.732,0.104c-0.256,0-0.519-0.027-0.788-0.08c-0.269-0.053-0.516-0.133-0.74-0.24l0.144-0.584
		c0.197,0.091,0.415,0.166,0.652,0.225s0.476,0.088,0.716,0.088c0.346,0,0.626-0.074,0.84-0.221s0.32-0.358,0.32-0.636
		c0-0.155-0.031-0.286-0.092-0.396c-0.062-0.109-0.146-0.209-0.252-0.297c-0.107-0.088-0.231-0.166-0.372-0.235
		c-0.142-0.069-0.292-0.142-0.452-0.216c-0.181-0.086-0.356-0.175-0.524-0.269c-0.168-0.093-0.316-0.2-0.444-0.319
		c-0.128-0.121-0.231-0.256-0.308-0.408c-0.078-0.152-0.116-0.33-0.116-0.532c0-0.229,0.042-0.433,0.124-0.608
		c0.083-0.176,0.199-0.322,0.348-0.439s0.328-0.205,0.536-0.264s0.437-0.088,0.688-0.088c0.256,0,0.505,0.029,0.748,0.088
		s0.455,0.135,0.636,0.231l-0.136,0.584c-0.171-0.091-0.366-0.165-0.584-0.224c-0.219-0.059-0.44-0.088-0.664-0.088
		c-0.646,0-0.968,0.25-0.968,0.752c0,0.111,0.016,0.209,0.048,0.291c0.032,0.084,0.084,0.16,0.156,0.232
		c0.072,0.072,0.168,0.142,0.288,0.208c0.12,0.067,0.265,0.144,0.436,0.228c0.17,0.086,0.352,0.178,0.544,0.276
		s0.368,0.216,0.528,0.353c0.16,0.136,0.293,0.295,0.4,0.476C21.168,317.753,21.221,317.963,21.221,318.203z"/>
	<path display="inline" fill="#FFFFFF" stroke="#FFFFFF" stroke-width="0.4" stroke-miterlimit="10" d="M27.077,319.588h-0.752
		l-0.488-1.289h-2.488l-0.48,1.289h-0.752l2.12-5.328h0.72L27.077,319.588z M23.573,317.707h2.048l-1.024-2.775L23.573,317.707z"/>
	<path display="inline" fill="#FFFFFF" stroke="#FFFFFF" stroke-width="0.4" stroke-miterlimit="10" d="M32.733,318.619l1.176-4.359
		h0.711l-1.52,5.328h-0.728l-1.336-4.625l-1.336,4.625h-0.728l-1.52-5.328h0.712l1.176,4.359l1.28-4.359h0.832L32.733,318.619z"/>
</g>
<g display="none">
	<path display="inline" fill="#FFFFFF" stroke="#FFFFFF" stroke-width="0.4" stroke-miterlimit="10" d="M55.143,315.819
		c0,0.256-0.056,0.487-0.168,0.692c-0.112,0.205-0.268,0.38-0.468,0.523c-0.2,0.145-0.436,0.255-0.708,0.332
		c-0.272,0.078-0.565,0.116-0.88,0.116h-0.368v2.104h-0.736v-5.328h1.288c0.288,0,0.556,0.031,0.804,0.096s0.464,0.161,0.648,0.292
		s0.328,0.294,0.432,0.487C55.091,315.33,55.143,315.559,55.143,315.819z M54.407,315.812c0-0.177-0.035-0.324-0.104-0.444
		c-0.069-0.119-0.164-0.219-0.284-0.296c-0.12-0.077-0.262-0.134-0.424-0.168s-0.334-0.052-0.516-0.052h-0.528v2.04h0.392
		c0.213,0,0.409-0.024,0.588-0.072s0.333-0.118,0.464-0.212c0.131-0.094,0.232-0.207,0.304-0.34
		C54.371,316.135,54.407,315.982,54.407,315.812z"/>
	<path display="inline" fill="#FFFFFF" stroke="#FFFFFF" stroke-width="0.4" stroke-miterlimit="10" d="M59.687,314.26h0.736v3.439
		c0,0.277-0.045,0.537-0.136,0.78s-0.224,0.453-0.4,0.632c-0.176,0.179-0.394,0.318-0.652,0.42c-0.259,0.102-0.559,0.152-0.9,0.152
		s-0.641-0.051-0.9-0.152s-0.476-0.241-0.652-0.42c-0.176-0.179-0.31-0.389-0.4-0.632c-0.091-0.243-0.136-0.503-0.136-0.78v-3.439
		h0.736v3.472c0,0.399,0.113,0.726,0.34,0.976c0.227,0.251,0.564,0.377,1.012,0.377c0.448,0,0.786-0.126,1.012-0.377
		c0.227-0.25,0.34-0.576,0.34-0.976V314.26z"/>
	<path display="inline" fill="#FFFFFF" stroke="#FFFFFF" stroke-width="0.4" stroke-miterlimit="10" d="M62.807,314.26v4.728h2.224
		v0.601h-2.96v-5.328H62.807z"/>
	<path display="inline" fill="#FFFFFF" stroke="#FFFFFF" stroke-width="0.4" stroke-miterlimit="10" d="M69.319,318.203
		c0,0.229-0.049,0.436-0.147,0.616c-0.1,0.182-0.232,0.336-0.4,0.464c-0.168,0.129-0.365,0.227-0.592,0.297
		c-0.227,0.068-0.471,0.104-0.732,0.104c-0.256,0-0.519-0.027-0.788-0.08c-0.269-0.053-0.516-0.133-0.74-0.24l0.144-0.584
		c0.197,0.091,0.415,0.166,0.652,0.225s0.476,0.088,0.716,0.088c0.346,0,0.626-0.074,0.84-0.221c0.213-0.146,0.32-0.358,0.32-0.636
		c0-0.155-0.031-0.286-0.092-0.396c-0.062-0.109-0.146-0.209-0.252-0.297c-0.107-0.088-0.231-0.166-0.373-0.235
		c-0.142-0.069-0.292-0.142-0.452-0.216c-0.181-0.086-0.356-0.175-0.524-0.269c-0.168-0.093-0.316-0.2-0.444-0.319
		c-0.128-0.121-0.231-0.256-0.308-0.408c-0.078-0.152-0.116-0.33-0.116-0.532c0-0.229,0.042-0.433,0.124-0.608
		c0.083-0.176,0.199-0.322,0.348-0.439s0.328-0.205,0.536-0.264s0.437-0.088,0.688-0.088c0.256,0,0.505,0.029,0.748,0.088
		c0.242,0.059,0.454,0.135,0.636,0.231l-0.136,0.584c-0.171-0.091-0.365-0.165-0.584-0.224s-0.44-0.088-0.664-0.088
		c-0.646,0-0.968,0.25-0.968,0.752c0,0.111,0.016,0.209,0.048,0.291c0.032,0.084,0.084,0.16,0.156,0.232
		c0.072,0.072,0.168,0.142,0.288,0.208c0.12,0.067,0.265,0.144,0.436,0.228c0.17,0.086,0.352,0.178,0.544,0.276
		c0.192,0.099,0.368,0.216,0.528,0.353c0.159,0.136,0.293,0.295,0.399,0.476C69.265,317.753,69.319,317.963,69.319,318.203z"/>
	<path display="inline" fill="#FFFFFF" stroke="#FFFFFF" stroke-width="0.4" stroke-miterlimit="10" d="M70.655,314.26h2.969v0.6
		h-2.232v1.704h2.136v0.601h-2.136v1.823h2.256v0.601h-2.992V314.26z"/>
</g>
<g display="none">
	<path display="inline" fill="#FFFFFF" stroke="#FFFFFF" stroke-width="0.4" stroke-miterlimit="10" d="M98.887,318.203
		c0,0.229-0.049,0.436-0.147,0.616c-0.099,0.182-0.231,0.336-0.399,0.464c-0.168,0.129-0.365,0.227-0.593,0.297
		c-0.227,0.068-0.471,0.104-0.731,0.104c-0.256,0-0.52-0.027-0.789-0.08c-0.269-0.053-0.516-0.133-0.739-0.24l0.144-0.584
		c0.197,0.091,0.415,0.166,0.652,0.225s0.477,0.088,0.717,0.088c0.346,0,0.626-0.074,0.84-0.221
		c0.213-0.146,0.319-0.358,0.319-0.636c0-0.155-0.03-0.286-0.092-0.396s-0.146-0.209-0.252-0.297s-0.231-0.166-0.372-0.235
		c-0.142-0.069-0.292-0.142-0.452-0.216c-0.181-0.086-0.356-0.175-0.524-0.269c-0.168-0.093-0.315-0.2-0.443-0.319
		c-0.128-0.121-0.23-0.256-0.309-0.408c-0.077-0.152-0.115-0.33-0.115-0.532c0-0.229,0.041-0.433,0.123-0.608
		c0.084-0.176,0.199-0.322,0.349-0.439s0.328-0.205,0.536-0.264s0.438-0.088,0.688-0.088c0.256,0,0.506,0.029,0.748,0.088
		c0.243,0.059,0.455,0.135,0.637,0.231l-0.137,0.584c-0.17-0.091-0.365-0.165-0.584-0.224s-0.439-0.088-0.664-0.088
		c-0.645,0-0.968,0.25-0.968,0.752c0,0.111,0.017,0.209,0.048,0.291c0.032,0.084,0.084,0.16,0.156,0.232s0.168,0.142,0.288,0.208
		c0.12,0.067,0.265,0.144,0.437,0.228c0.17,0.086,0.352,0.178,0.543,0.276c0.192,0.099,0.369,0.216,0.528,0.353
		c0.16,0.136,0.294,0.295,0.399,0.476C98.834,317.753,98.887,317.963,98.887,318.203z"/>
	<path display="inline" fill="#FFFFFF" stroke="#FFFFFF" stroke-width="0.4" stroke-miterlimit="10" d="M100.999,319.588h-0.735
		v-5.328h0.735V319.588z"/>
	<path display="inline" fill="#FFFFFF" stroke="#FFFFFF" stroke-width="0.4" stroke-miterlimit="10" d="M106.407,319.588
		l-2.983-4.185v4.185h-0.705v-5.328h0.705l2.983,4.184v-4.184h0.704v5.328H106.407z"/>
</g>
<g display="none">
	<path display="inline" fill="#FFFFFF" stroke="#FFFFFF" stroke-width="0.4" stroke-miterlimit="10" d="M136.223,314.26v0.6h-1.567
		v4.729h-0.735v-4.729h-1.568v-0.6H136.223z"/>
	<path display="inline" fill="#FFFFFF" stroke="#FFFFFF" stroke-width="0.4" stroke-miterlimit="10" d="M138.176,319.588h-0.736
		v-5.328h1.384c0.288,0,0.556,0.031,0.804,0.096s0.466,0.158,0.652,0.283c0.187,0.126,0.334,0.283,0.439,0.473
		c0.107,0.189,0.16,0.406,0.16,0.652c0,0.367-0.118,0.688-0.355,0.96s-0.569,0.47-0.996,0.592l1.88,2.272h-0.903l-1.736-2.145
		c-0.027,0-0.066,0.002-0.12,0.004c-0.054,0.003-0.109,0.004-0.168,0.004c-0.06,0-0.116,0-0.173,0c-0.055,0-0.1,0-0.131,0V319.588z
		 M140.144,315.779c0-0.165-0.036-0.309-0.108-0.428c-0.072-0.12-0.17-0.217-0.292-0.288c-0.122-0.072-0.264-0.126-0.424-0.16
		s-0.328-0.052-0.504-0.052h-0.64v2.008h0.367c0.225,0,0.434-0.021,0.629-0.064c0.193-0.042,0.363-0.107,0.508-0.195
		c0.144-0.088,0.257-0.2,0.34-0.336C140.102,316.127,140.144,315.967,140.144,315.779z"/>
	<path display="inline" fill="#FFFFFF" stroke="#FFFFFF" stroke-width="0.4" stroke-miterlimit="10" d="M143.287,319.588h-0.736
		v-5.328h0.736V319.588z"/>
</g>
<g id="SYMSAW">
	<line fill="none" stroke="#AAA9A9" stroke-miterlimit="10" x1="18.111" y1="343.047" x2="36.111" y2="343.047"/>
	<line fill="none" stroke="#FFFFFF" stroke-miterlimit="10" x1="20.295" y1="343.047" x2="20.295" y2="338"/>
	<line fill="none" stroke="#FFFFFF" stroke-miterlimit="10" x1="34.12" y1="343.047" x2="34.12" y2="348"/>
	<line fill="none" stroke="#FFFFFF" stroke-miterlimit="10" x1="34.12" y1="348" x2="20.295" y2="338"/>
</g>
<g id="SYMPLS">
	<line fill="none" stroke="#AAA9A9" stroke-miterlimit="10" x1="53.787" y1="343.035" x2="71.787" y2="343.035"/>
	<line fill="none" stroke="#FFFFFF" stroke-miterlimit="10" x1="55.528" y1="343.012" x2="55.528" y2="338"/>
	<line fill="none" stroke="#FFFFFF" stroke-miterlimit="10" x1="62.213" y1="343.012" x2="62.213" y2="338"/>
	<line fill="none" stroke="#FFFFFF" stroke-miterlimit="10" x1="62.213" y1="342.988" x2="62.213" y2="348"/>
	<line fill="none" stroke="#FFFFFF" stroke-miterlimit="10" x1="70.063" y1="348" x2="70.063" y2="342.988"/>
	<line fill="none" stroke="#FFFFFF" stroke-miterlimit="10" x1="62.213" y1="347.978" x2="70.063" y2="347.978"/>
	<line fill="none" stroke="#FFFFFF" stroke-miterlimit="10" x1="62.213" y1="338" x2="55.528" y2="338"/>
</g>
<g id="SYMTRI">
	<line fill="none" stroke="#AAA9A9" stroke-miterlimit="10" x1="128.787" y1="343.009" x2="146.787" y2="343.009"/>
	<line fill="none" stroke="#FFFFFF" stroke-miterlimit="10" x1="131.424" y1="343.009" x2="134.646" y2="338.05"/>
	<line fill="none" stroke="#FFFFFF" stroke-miterlimit="10" x1="137.749" y1="342.991" x2="134.646" y2="338"/>
	<line fill="none" stroke="#FFFFFF" stroke-miterlimit="10" x1="144.074" y1="342.991" x2="140.851" y2="347.95"/>
	<line fill="none" stroke="#FFFFFF" stroke-miterlimit="10" x1="137.749" y1="343.009" x2="140.851" y2="348"/>
</g>
<g id="SYMSIN">
	<line fill="none" stroke="#AAA9A9" stroke-miterlimit="10" x1="92.787" y1="343.127" x2="110.787" y2="343.127"/>
	<path fill="none" stroke="#FFFFFF" stroke-miterlimit="10" d="M95.055,343.127c0-2.831,1.447-5.127,3.233-5.127
		c1.476,0,2.721,1.565,3.108,3.707"/>
	<path fill="none" stroke="#FFFFFF" stroke-miterlimit="10" d="M108.428,343.158c0,2.675-1.446,4.842-3.232,4.842
		c-1.477,0-2.72-1.479-3.108-3.502"/>
	<line fill="none" stroke="#FFFFFF" stroke-miterlimit="10" x1="101.396" y1="341.707" x2="102.087" y2="344.609"/>
</g>
</svg>
