<?xml version="1.0" encoding="utf-8"?>
<!-- Generator: Adobe Illustrator 16.0.0, SVG Export Plug-In . SVG Version: 6.00 Build 0)  -->
<!DOCTYPE svg PUBLIC "-//W3C//DTD SVG 1.1//EN" "http://www.w3.org/Graphics/SVG/1.1/DTD/svg11.dtd">
<svg version="1.1"
	 id="svg8" inkscape:version="0.92.2 5c3e80d, 2017-08-06" sodipodi:docname="MyModule.svg" xmlns:dc="http://purl.org/dc/elements/1.1/" xmlns:cc="http://creativecommons.org/ns#" xmlns:rdf="http://www.w3.org/1999/02/22-rdf-syntax-ns#" xmlns:svg="http://www.w3.org/2000/svg" xmlns:sodipodi="http://sodipodi.sourceforge.net/DTD/sodipodi-0.dtd" xmlns:inkscape="http://www.inkscape.org/namespaces/inkscape"
	 xmlns="http://www.w3.org/2000/svg" xmlns:xlink="http://www.w3.org/1999/xlink" x="0px" y="0px" width="180px" height="380px"
	 viewBox="45.5 380.5 180 380" enable-background="new 45.5 380.5 180 380" xml:space="preserve">
<rect x="45.5" y="380.5" fill="#1C1C1C" width="180" height="380"/>
<g>
	<path fill="#F4F4F4" d="M117.1,407.195h0.199h0.2l5.399-10.522h4.961l-7.221,14.282h-6.681l-7.217-14.282h4.956L117.1,407.195z"/>
	<path fill="#F4F4F4" d="M136.279,396.453c4.082,0,6.595,0.34,7.539,1.021c0.826,0.588,1.24,2.149,1.24,4.683h-4.418
		c0-0.827-0.221-1.354-0.66-1.582c-0.547-0.28-1.78-0.421-3.701-0.421c-2.145,0-3.404,0.169-3.778,0.504
		c-0.375,0.332-0.562,1.385-0.562,3.158c0,1.759,0.187,2.806,0.562,3.141c0.375,0.332,1.634,0.498,3.778,0.498
		c1.947,0,3.168-0.12,3.662-0.361c0.479-0.225,0.719-0.77,0.719-1.636h4.398c0,2.546-0.398,4.104-1.195,4.678
		c-0.947,0.681-3.475,1.021-7.584,1.021c-4.104,0-6.584-0.373-7.44-1.118c-0.866-0.749-1.299-2.829-1.299-6.24
		c0-3.4,0.414-5.462,1.239-6.182C129.674,396.841,132.174,396.453,136.279,396.453z"/>
	<path fill="#F4F4F4" d="M165.479,403.816c0,3.479-0.42,5.56-1.26,6.24c-0.904,0.731-3.638,1.098-8.197,1.098
		c-3.334,0-5.521-0.119-6.562-0.36c-1.305-0.306-2.13-0.972-2.477-1.997c-0.267-0.788-0.399-2.447-0.399-4.98
		c0-3.479,0.414-5.56,1.24-6.239c0.905-0.749,3.638-1.123,8.198-1.123c4.547,0,7.273,0.368,8.179,1.104
		C165.053,398.25,165.479,400.337,165.479,403.816z M150.982,403.816c0,1.826,0.213,2.886,0.64,3.179
		c0.414,0.306,1.88,0.459,4.399,0.459c2.533,0,4.012-0.153,4.438-0.459c0.414-0.293,0.62-1.353,0.62-3.179
		c0-1.844-0.207-2.918-0.62-3.224c-0.414-0.293-1.886-0.438-4.419-0.438s-4.005,0.146-4.419,0.438
		C151.195,400.898,150.982,401.975,150.982,403.816z"/>
</g>
<circle fill="#494949" cx="68" cy="454.5" r="15"/>
<circle fill="#494949" cx="68" cy="714.5" r="15"/>
<circle fill="#494949" cx="113" cy="714.5" r="15"/>
<circle fill="#494949" cx="158" cy="714.5" r="15"/>
<circle fill="#494949" cx="203" cy="714.5" r="15"/>
<circle fill="#605F5F" cx="135.5" cy="578" r="25"/>
<circle fill="#605F5F" cx="135.5" cy="648" r="25"/>
<circle fill="#494949" cx="203" cy="454.5" r="15"/>
<circle fill="#494949" cx="113" cy="454.5" r="15"/>
<circle fill="#494949" cx="158" cy="454.5" r="15"/>
<circle fill="#707070" cx="68" cy="507" r="16"/>
<circle fill="#707070" cx="113" cy="507" r="16"/>
<circle fill="#707070" cx="158" cy="507" r="16"/>
<circle fill="#707070" cx="203" cy="507" r="16"/>
<g>
	<path fill="#F9F4F4" d="M93.64,420.506h0.574l1.408,3.95h0.014l1.401-3.95h0.525l-1.702,4.7h-0.519L93.64,420.506z"/>
	<path fill="#F9F4F4" d="M97.994,423.532v-0.105c0-1.1,0.638-1.758,1.576-1.758c0.98,0,1.576,0.638,1.576,1.737v0.098
		c0,1.106-0.644,1.765-1.583,1.765C98.582,425.269,97.994,424.639,97.994,423.532z M100.599,423.567v-0.176
		c0-0.966-0.469-1.281-1.037-1.281c-0.63,0-1.022,0.448-1.022,1.261v0.175c0,0.967,0.456,1.282,1.037,1.282
		C100.207,424.828,100.599,424.387,100.599,423.567z"/>
	<path fill="#F9F4F4" d="M101.963,420.191h0.539v5.015h-0.539V420.191z"/>
	<path fill="#F9F4F4" d="M103.734,424.422v-2.241h-0.498v-0.441h0.498v-0.827h0.532v0.827h0.889v0.441h-0.889v2.156
		c0,0.337,0.112,0.47,0.511,0.47c0.147,0,0.308-0.021,0.448-0.063v0.364c-0.14,0.063-0.287,0.141-0.588,0.141
		C104.091,425.248,103.734,425.01,103.734,424.422z"/>
	<path fill="#F9F4F4" d="M105.75,424.295c0-0.609,0.393-0.931,1.057-1.008l0.939-0.112v-0.364c0-0.539-0.238-0.68-0.861-0.68
		c-0.336,0-0.609,0.05-0.826,0.112v-0.385c0.301-0.126,0.637-0.189,1.035-0.189c0.764,0,1.191,0.315,1.191,1.022v2.515h-0.434
		l-0.057-0.302h-0.035c-0.161,0.196-0.455,0.364-0.924,0.364C106.205,425.269,105.75,424.946,105.75,424.295z M107.746,424.597
		v-1.022l-0.799,0.091c-0.428,0.042-0.637,0.217-0.637,0.616c0,0.378,0.259,0.567,0.658,0.567
		C107.291,424.849,107.599,424.743,107.746,424.597z"/>
	<path fill="#F9F4F4" d="M108.914,425.423c0-0.371,0.301-0.588,0.658-0.707v-0.035c-0.196-0.056-0.351-0.203-0.351-0.435
		c0-0.217,0.126-0.378,0.393-0.574c-0.267-0.175-0.435-0.455-0.435-0.868v-0.015c0-0.721,0.547-1.12,1.311-1.12
		c0.174,0,0.336,0.021,0.49,0.056h1.176v0.414h-0.623c0.161,0.153,0.252,0.363,0.252,0.637v0.007c0,0.743-0.574,1.114-1.303,1.114
		c-0.217,0-0.413-0.035-0.596-0.099c-0.09,0.084-0.16,0.168-0.16,0.28c0,0.189,0.111,0.259,0.343,0.259h0.96
		c0.63,0,1.1,0.189,1.1,0.834c0,0.596-0.477,1.064-1.66,1.064C109.411,426.235,108.914,425.927,108.914,425.423z M111.568,425.241
		c0-0.322-0.168-0.428-0.623-0.428h-1.002c-0.266,0.091-0.469,0.245-0.469,0.539c0,0.309,0.293,0.463,0.98,0.463
		C111.273,425.815,111.568,425.605,111.568,425.241z M111.246,422.804v-0.035c0-0.477-0.295-0.693-0.764-0.693
		c-0.477,0-0.771,0.252-0.771,0.687v0.035c0,0.455,0.309,0.679,0.771,0.679C110.966,423.476,111.246,423.252,111.246,422.804z"/>
	<path fill="#F9F4F4" d="M112.582,423.518v-0.098c0-1.212,0.715-1.751,1.513-1.751c0.952,0,1.4,0.554,1.4,1.632v0.301h-2.367
		c0.028,0.869,0.441,1.205,1.184,1.205c0.462,0,0.771-0.112,1.086-0.259v0.398c-0.21,0.147-0.609,0.322-1.17,0.322
		C113.135,425.269,112.582,424.604,112.582,423.518z M113.128,423.175h1.808c0-0.757-0.287-1.071-0.855-1.071
		C113.646,422.104,113.184,422.355,113.128,423.175z"/>
	<path fill="#F9F4F4" d="M117.972,422.908v-0.14c0-1.681,0.938-2.339,2.136-2.339c0.504,0,0.869,0.104,1.156,0.259v0.462
		c-0.371-0.146-0.722-0.252-1.184-0.252c-0.89,0-1.52,0.532-1.52,1.779v0.23c0,1.205,0.447,1.905,1.526,1.905
		c0.581,0,0.931-0.161,1.226-0.308v0.469c-0.315,0.183-0.742,0.309-1.296,0.309C118.749,425.283,117.972,424.498,117.972,422.908z"
		/>
	<path fill="#F9F4F4" d="M121.912,423.532v-0.105c0-1.1,0.639-1.758,1.576-1.758c0.98,0,1.576,0.638,1.576,1.737v0.098
		c0,1.106-0.645,1.765-1.583,1.765C122.501,425.269,121.912,424.639,121.912,423.532z M124.518,423.567v-0.176
		c0-0.966-0.469-1.281-1.036-1.281c-0.63,0-1.022,0.448-1.022,1.261v0.175c0,0.967,0.455,1.282,1.037,1.282
		C124.127,424.828,124.518,424.387,124.518,423.567z"/>
	<path fill="#F9F4F4" d="M125.869,421.732h0.51v0.301h0.029c0.322-0.21,0.77-0.364,1.197-0.364c0.68,0,1.008,0.273,1.008,0.945
		v2.592h-0.531v-2.479c0-0.42-0.148-0.596-0.701-0.596c-0.328,0-0.693,0.119-0.98,0.253v2.822h-0.531V421.732z"/>
	<path fill="#F9F4F4" d="M129.816,424.422v-2.241h-0.498v-0.441h0.498v-0.827h0.531v0.827h0.891v0.441h-0.891v2.156
		c0,0.337,0.113,0.47,0.512,0.47c0.148,0,0.309-0.021,0.449-0.063v0.364c-0.141,0.063-0.287,0.141-0.588,0.141
		C130.174,425.248,129.816,425.01,129.816,424.422z"/>
	<path fill="#F9F4F4" d="M132.07,421.732h0.51v0.392h0.035c0.197-0.224,0.574-0.427,0.967-0.427c0.078,0,0.176,0.007,0.211,0.014
		v0.483c-0.092-0.014-0.197-0.021-0.252-0.021c-0.352,0-0.688,0.126-0.932,0.302v2.731h-0.539V421.732z"/>
	<path fill="#F9F4F4" d="M134.273,423.532v-0.105c0-1.1,0.639-1.758,1.576-1.758c0.98,0,1.576,0.638,1.576,1.737v0.098
		c0,1.106-0.645,1.765-1.582,1.765C134.863,425.269,134.273,424.639,134.273,423.532z M136.879,423.567v-0.176
		c0-0.966-0.469-1.281-1.035-1.281c-0.631,0-1.023,0.448-1.023,1.261v0.175c0,0.967,0.455,1.282,1.037,1.282
		C136.488,424.828,136.879,424.387,136.879,423.567z"/>
	<path fill="#F9F4F4" d="M138.244,420.191h0.539v5.015h-0.539V420.191z"/>
	<path fill="#F9F4F4" d="M139.832,420.191h0.539v5.015h-0.539V420.191z"/>
	<path fill="#F9F4F4" d="M141.189,423.518v-0.098c0-1.212,0.715-1.751,1.514-1.751c0.953,0,1.4,0.554,1.4,1.632v0.301h-2.367
		c0.027,0.869,0.441,1.205,1.184,1.205c0.463,0,0.771-0.112,1.086-0.259v0.398c-0.211,0.147-0.609,0.322-1.17,0.322
		C141.744,425.269,141.189,424.604,141.189,423.518z M141.736,423.175h1.807c0-0.757-0.287-1.071-0.854-1.071
		C142.254,422.104,141.793,422.355,141.736,423.175z"/>
	<path fill="#F9F4F4" d="M144.705,423.567v-0.092c0-1.261,0.65-1.807,1.547-1.807c0.428,0,0.721,0.119,0.91,0.231v-1.709h0.539
		v5.015h-0.447l-0.062-0.287h-0.029c-0.209,0.203-0.547,0.35-1.016,0.35C145.453,425.269,144.705,424.849,144.705,423.567z
		 M147.162,424.533v-2.185c-0.16-0.126-0.482-0.225-0.84-0.225c-0.658,0-1.059,0.344-1.059,1.282v0.14
		c0,0.974,0.422,1.282,1.045,1.282C146.715,424.828,146.988,424.674,147.162,424.533z"/>
	<path fill="#F9F4F4" d="M150.389,422.908v-0.111c0-1.479,0.777-2.367,2.072-2.367c1.268,0,2.045,0.833,2.045,2.374v0.112
		c0,1.478-0.777,2.367-2.064,2.367C151.166,425.283,150.389,424.449,150.389,422.908z M153.912,423.021v-0.217
		c0-1.142-0.414-1.912-1.479-1.919c-0.967,0-1.449,0.756-1.449,1.807v0.217c0,1.135,0.42,1.92,1.471,1.92
		C153.428,424.828,153.912,424.064,153.912,423.021z"/>
	<path fill="#F9F4F4" d="M155.113,425.017v-0.427c0.301,0.111,0.553,0.217,1.043,0.217c0.555,0,0.777-0.196,0.777-0.512
		c0-0.321-0.16-0.462-0.602-0.588l-0.344-0.091c-0.504-0.141-0.848-0.371-0.848-0.96c0-0.588,0.387-0.987,1.184-0.987
		c0.463,0,0.764,0.105,0.947,0.203v0.435c-0.184-0.092-0.533-0.183-0.918-0.183c-0.469,0-0.701,0.161-0.701,0.483
		c0,0.301,0.148,0.428,0.52,0.532l0.35,0.098c0.666,0.176,0.938,0.399,0.938,1.002c0,0.658-0.461,1.022-1.225,1.022
		C155.779,425.262,155.4,425.178,155.113,425.017z"/>
	<path fill="#F9F4F4" d="M158.039,423.539v-0.105c0-1.232,0.729-1.765,1.625-1.765c0.455,0,0.729,0.084,0.959,0.231v0.448
		c-0.309-0.141-0.531-0.225-0.988-0.225c-0.629,0-1.043,0.428-1.043,1.226v0.168c0,0.89,0.371,1.289,1.113,1.289
		c0.471,0,0.777-0.147,0.953-0.245v0.435c-0.225,0.133-0.533,0.272-1.016,0.272C158.648,425.269,158.039,424.681,158.039,423.539z"
		/>
	<path fill="#F9F4F4" d="M161.42,420.479h0.547v0.561h-0.547V420.479z M161.428,421.739h0.531v3.467h-0.531V421.739z"/>
	<path fill="#F9F4F4" d="M163.01,420.191h0.539v5.015h-0.539V420.191z"/>
	<path fill="#F9F4F4" d="M164.598,420.191h0.539v5.015h-0.539V420.191z"/>
	<path fill="#F9F4F4" d="M165.936,424.295c0-0.609,0.391-0.931,1.057-1.008l0.939-0.112v-0.364c0-0.539-0.238-0.68-0.861-0.68
		c-0.338,0-0.609,0.05-0.828,0.112v-0.385c0.303-0.126,0.639-0.189,1.037-0.189c0.764,0,1.191,0.315,1.191,1.022v2.515h-0.436
		l-0.055-0.302h-0.035c-0.162,0.196-0.455,0.364-0.926,0.364C166.391,425.269,165.936,424.946,165.936,424.295z M167.932,424.597
		v-1.022l-0.799,0.091c-0.428,0.042-0.639,0.217-0.639,0.616c0,0.378,0.26,0.567,0.66,0.567
		C167.477,424.849,167.783,424.743,167.932,424.597z"/>
	<path fill="#F9F4F4" d="M169.672,424.422v-2.241h-0.496v-0.441h0.496v-0.827h0.533v0.827h0.889v0.441h-0.889v2.156
		c0,0.337,0.111,0.47,0.512,0.47c0.146,0,0.309-0.021,0.447-0.063v0.364c-0.139,0.063-0.287,0.141-0.588,0.141
		C170.029,425.248,169.672,425.01,169.672,424.422z"/>
	<path fill="#F9F4F4" d="M171.709,423.532v-0.105c0-1.1,0.639-1.758,1.576-1.758c0.98,0,1.576,0.638,1.576,1.737v0.098
		c0,1.106-0.645,1.765-1.582,1.765C172.299,425.269,171.709,424.639,171.709,423.532z M174.314,423.567v-0.176
		c0-0.966-0.469-1.281-1.035-1.281c-0.631,0-1.023,0.448-1.023,1.261v0.175c0,0.967,0.455,1.282,1.037,1.282
		C173.924,424.828,174.314,424.387,174.314,423.567z"/>
	<path fill="#F9F4F4" d="M175.666,421.732h0.51v0.392h0.035c0.197-0.224,0.574-0.427,0.967-0.427c0.078,0,0.176,0.007,0.211,0.014
		v0.483c-0.092-0.014-0.197-0.021-0.252-0.021c-0.352,0-0.688,0.126-0.932,0.302v2.731h-0.539V421.732z"/>
</g>
</svg>
