<?xml version="1.0" encoding="UTF-8" standalone="no"?>
<!DOCTYPE svg PUBLIC "-//W3C//DTD SVG 1.1//EN" "http://www.w3.org/Graphics/SVG/1.1/DTD/svg11.dtd">
<svg width="210px" height="380px" version="1.1" xmlns="http://www.w3.org/2000/svg"  xml:space="preserve"  style="fill-rule:evenodd;clip-rule:evenodd;stroke-linejoin:round;stroke-miterlimit:1.41421;">
    <g id="Background" transform="matrix(1.16667,0,0,1,0.0116667,-196.458)">
        <rect x="-0.01" y="196.458" width="180" height="380" style="fill:#1d1d1d;"/>
    </g>
    <g id="LOGO">
        <g transform="matrix(1,0,0,1,15,0)">
            <path d="M64.162,361.77l1.279,0l0,2.979l2.846,0l0,1.02l-4.125,0l0,-3.999Z" style="fill:#fff;fill-rule:nonzero;"/>
        </g>
        <g transform="matrix(1,0,0,1,15,0)">
            <rect x="68.564" y="361.77" width="1.279" height="3.998" style="fill:#fff;"/>
        </g>
        <g transform="matrix(1,0,0,1,15,0)">
            <path d="M70.404,361.77l2.137,0l2.096,2.982l0.125,0l-0.029,-2.982l1.24,0l0,3.998l-2.119,0l-2.104,-2.982l-0.132,0l0.026,2.982l-1.24,0l0,-3.998Z" style="fill:#fff;fill-rule:nonzero;"/>
        </g>
        <g transform="matrix(1,0,0,1,15,0)">
            <path d="M76.531,365.768l0,-3.998l2.886,0c0.627,0 1.032,0.012 1.216,0.031c0.355,0.041 0.617,0.135 0.785,0.275c0.18,0.156 0.298,0.408 0.354,0.76c0.027,0.166 0.041,0.455 0.041,0.867c0,0.527 -0.021,0.895 -0.068,1.104c-0.062,0.281 -0.17,0.488 -0.316,0.621c-0.1,0.092 -0.221,0.16 -0.361,0.207c-0.144,0.047 -0.336,0.082 -0.578,0.105c-0.19,0.02 -0.547,0.023 -1.065,0.023l-2.894,0.005Zm1.201,-1.02l1.695,0c0.344,0 0.602,-0.018 0.771,-0.041c0.188,-0.031 0.309,-0.139 0.356,-0.312c0.036,-0.129 0.055,-0.332 0.055,-0.607c0,-0.297 -0.02,-0.516 -0.059,-0.65c-0.047,-0.174 -0.154,-0.279 -0.322,-0.314c-0.133,-0.029 -0.402,-0.049 -0.812,-0.049l-1.686,0l0.002,1.973Z" style="fill:#fff;fill-rule:nonzero;"/>
        </g>
        <g transform="matrix(1,0,0,1,15,0)">
            <path d="M82.292,361.77l4.431,0l0,0.939l-3.229,0l0,0.578l3.063,0l0,0.879l-3.063,0l0,0.641l3.252,0l0,0.961l-4.453,0l0,-3.998l-0.001,0Z" style="fill:#fff;fill-rule:nonzero;"/>
        </g>
        <g transform="matrix(1,0,0,1,15,0)">
            <path d="M87.126,361.77l2.138,0l2.094,2.982l0.127,0l-0.029,-2.982l1.238,0l0,3.998l-2.117,0l-2.104,-2.982l-0.134,0l0.026,2.982l-1.239,0l0,-3.998Z" style="fill:#fff;fill-rule:nonzero;"/>
        </g>
        <g transform="matrix(1,0,0,1,15,0)">
            <path d="M93.252,365.768l0,-3.998l2.875,0c0.611,0.002 0.975,0.008 1.09,0.016c0.262,0.02 0.453,0.062 0.576,0.145c0.143,0.09 0.232,0.213 0.275,0.371c0.039,0.148 0.059,0.318 0.059,0.512c0,0.232 -0.021,0.41 -0.066,0.529c-0.074,0.189 -0.229,0.322 -0.473,0.396c0.18,0.029 0.311,0.074 0.396,0.135c0.195,0.133 0.293,0.404 0.293,0.826c0,0.324 -0.051,0.564 -0.152,0.727c-0.09,0.137 -0.227,0.229 -0.41,0.277c-0.154,0.041 -0.418,0.062 -0.783,0.062l-0.795,0.008l-2.885,-0.006Zm1.162,-2.422l1.717,0c0.377,0 0.602,-0.016 0.674,-0.045c0.096,-0.037 0.146,-0.133 0.146,-0.287c0,-0.156 -0.061,-0.252 -0.176,-0.283c-0.045,-0.012 -0.26,-0.02 -0.645,-0.021l-1.717,0l0,0.636l0.001,0Zm0,1.461l1.723,0c0.32,-0.002 0.51,-0.004 0.564,-0.006c0.178,-0.008 0.291,-0.043 0.34,-0.104c0.037,-0.051 0.057,-0.129 0.057,-0.23c0,-0.168 -0.061,-0.271 -0.182,-0.297c-0.043,-0.016 -0.303,-0.02 -0.779,-0.02l-1.723,0l0,0.657Z" style="fill:#fff;fill-rule:nonzero;"/>
        </g>
        <g transform="matrix(1,0,0,1,15,0)">
            <path d="M98.699,361.77l4.43,0l0,0.939l-3.229,0l0,0.578l3.062,0l0,0.879l-3.062,0l0,0.641l3.252,0l0,0.961l-4.453,0l0,-3.998Z" style="fill:#fff;fill-rule:nonzero;"/>
        </g>
        <g transform="matrix(1,0,0,1,15,0)">
            <path d="M103.533,365.768l0,-3.998l2.945,0c0.691,0.002 1.104,0.01 1.229,0.021c0.145,0.014 0.273,0.055 0.389,0.125c0.115,0.064 0.207,0.152 0.271,0.264c0.066,0.115 0.105,0.236 0.119,0.361c0.018,0.146 0.025,0.318 0.025,0.525c0,0.326 -0.021,0.559 -0.066,0.688c-0.068,0.188 -0.197,0.32 -0.387,0.396c-0.064,0.023 -0.16,0.049 -0.289,0.066c0.256,0.02 0.438,0.092 0.551,0.221c0.049,0.057 0.082,0.119 0.104,0.193c0.021,0.07 0.035,0.182 0.041,0.318c0.002,0.07 0.004,0.223 0.004,0.439l0,0.373l-1.201,0l0,-0.215c0,-0.238 -0.012,-0.408 -0.031,-0.514c-0.029,-0.146 -0.109,-0.234 -0.236,-0.268c-0.084,-0.018 -0.26,-0.023 -0.527,-0.023l-1.719,0l0,1.02l-1.222,0.008Zm1.219,-2.016l1.713,0c0.258,-0.004 0.408,-0.01 0.455,-0.014c0.172,-0.012 0.279,-0.062 0.324,-0.156c0.031,-0.066 0.047,-0.182 0.047,-0.34c0,-0.137 -0.014,-0.234 -0.041,-0.305c-0.041,-0.1 -0.139,-0.148 -0.295,-0.164c-0.055,-0.006 -0.219,-0.008 -0.492,-0.01l-1.711,0l0,0.989Z" style="fill:#fff;fill-rule:nonzero;"/>
        </g>
        <g transform="matrix(1,0,0,1,15,0)">
            <path d="M111.379,363.5l2.785,0c0.004,0.088 0.006,0.146 0.006,0.17c0,0.521 -0.014,0.928 -0.043,1.213c-0.047,0.461 -0.309,0.74 -0.785,0.838c-0.246,0.051 -0.516,0.078 -0.809,0.09c-0.312,0.012 -0.68,0.018 -1.105,0.018c-0.756,0 -1.295,-0.023 -1.619,-0.08c-0.449,-0.072 -0.729,-0.279 -0.834,-0.619c-0.055,-0.166 -0.084,-0.355 -0.092,-0.572c-0.01,-0.27 -0.016,-0.557 -0.016,-0.859c0,-0.518 0.025,-0.877 0.074,-1.088c0.066,-0.289 0.188,-0.494 0.359,-0.613c0.094,-0.062 0.203,-0.111 0.342,-0.146c0.135,-0.033 0.324,-0.062 0.572,-0.084c0.354,-0.029 0.822,-0.047 1.418,-0.047c0.77,0 1.311,0.029 1.627,0.092c0.322,0.062 0.551,0.168 0.682,0.322c0.115,0.139 0.186,0.354 0.211,0.654c0.006,0.078 0.01,0.201 0.01,0.367l-1.219,0c-0.002,-0.105 -0.008,-0.186 -0.021,-0.225c-0.023,-0.1 -0.111,-0.158 -0.26,-0.178c-0.191,-0.025 -0.574,-0.039 -1.145,-0.039c-0.506,0 -0.855,0.018 -1.053,0.051c-0.186,0.033 -0.299,0.135 -0.338,0.307c-0.029,0.129 -0.047,0.355 -0.047,0.688c0,0.379 0.018,0.639 0.051,0.773c0.043,0.188 0.176,0.289 0.398,0.311c0.109,0.012 0.438,0.021 0.99,0.025c0.602,-0.006 0.986,-0.02 1.162,-0.033c0.156,-0.025 0.25,-0.098 0.271,-0.209c0.014,-0.07 0.021,-0.18 0.021,-0.322l-1.604,0l0,-0.801l0.01,0l0,-0.004l0.001,0Z" style="fill:#fff;fill-rule:nonzero;"/>
        </g>
        <g transform="matrix(1,0,0,1,15,0)">
            <path d="M67.957,372.969l0,-4l2.943,0c0.695,0.002 1.104,0.01 1.229,0.021c0.144,0.018 0.271,0.059 0.39,0.125c0.114,0.068 0.207,0.156 0.271,0.268c0.065,0.113 0.106,0.232 0.12,0.357c0.018,0.146 0.025,0.322 0.025,0.529c0,0.326 -0.021,0.555 -0.066,0.684c-0.068,0.189 -0.197,0.324 -0.387,0.396c-0.064,0.025 -0.162,0.049 -0.291,0.068c0.256,0.02 0.438,0.092 0.552,0.219c0.049,0.059 0.083,0.121 0.104,0.195c0.021,0.068 0.033,0.18 0.041,0.316c0.002,0.072 0.004,0.221 0.004,0.441l0,0.373l-1.201,0l0,-0.215c0,-0.238 -0.012,-0.408 -0.032,-0.516c-0.031,-0.146 -0.11,-0.232 -0.237,-0.266c-0.084,-0.018 -0.261,-0.023 -0.529,-0.023l-1.718,0l0,1.02l-1.218,0.008Zm1.218,-2.016l1.716,0c0.256,-0.004 0.405,-0.01 0.452,-0.014c0.173,-0.01 0.28,-0.062 0.325,-0.156c0.031,-0.064 0.047,-0.182 0.047,-0.338c0,-0.139 -0.014,-0.234 -0.041,-0.307c-0.041,-0.098 -0.14,-0.15 -0.296,-0.164c-0.055,-0.004 -0.219,-0.006 -0.491,-0.008l-1.712,0l0,0.987Z" style="fill:#fff;fill-rule:nonzero;"/>
        </g>
        <g transform="matrix(1,0,0,1,15,0)">
            <path d="M73.355,368.969l4.431,0l0,0.939l-3.229,0l0,0.576l3.063,0l0,0.879l-3.063,0l0,0.645l3.252,0l0,0.961l-4.453,0l0,-4l-0.001,0Z" style="fill:#fff;fill-rule:nonzero;"/>
        </g>
        <g transform="matrix(1,0,0,1,15,0)">
            <path d="M78.049,371.645l1.182,0c-0.002,0.197 0.039,0.324 0.121,0.381c0.043,0.027 0.092,0.047 0.146,0.061c0.054,0.01 0.149,0.018 0.287,0.021c0.067,0.002 0.292,0.004 0.671,0.006c0.52,-0.002 0.82,-0.006 0.902,-0.01c0.152,-0.012 0.256,-0.031 0.305,-0.062c0.068,-0.043 0.104,-0.141 0.104,-0.285c0,-0.104 -0.021,-0.174 -0.063,-0.215c-0.06,-0.059 -0.198,-0.088 -0.42,-0.092c-0.151,0 -0.472,-0.014 -0.954,-0.035c-0.5,-0.02 -0.824,-0.035 -0.975,-0.041c-0.387,-0.014 -0.658,-0.059 -0.815,-0.135c-0.203,-0.102 -0.336,-0.271 -0.397,-0.512c-0.035,-0.133 -0.054,-0.307 -0.054,-0.521c0,-0.451 0.086,-0.77 0.259,-0.955c0.129,-0.145 0.323,-0.232 0.586,-0.279c0.235,-0.039 0.799,-0.061 1.688,-0.061c0.576,0 0.984,0.02 1.225,0.053c0.313,0.045 0.541,0.123 0.682,0.23c0.188,0.152 0.279,0.434 0.279,0.828c0,0.043 0,0.111 -0.002,0.205l-1.182,0c-0.004,-0.096 -0.012,-0.162 -0.021,-0.197c-0.026,-0.107 -0.117,-0.172 -0.271,-0.188c-0.136,-0.012 -0.463,-0.02 -0.983,-0.02c-0.517,0 -0.822,0.018 -0.918,0.045c-0.107,0.033 -0.16,0.125 -0.16,0.27c0,0.143 0.058,0.229 0.17,0.26c0.097,0.023 0.525,0.051 1.291,0.072c0.693,0.021 1.138,0.043 1.328,0.072c0.192,0.025 0.346,0.07 0.461,0.133c0.113,0.059 0.205,0.143 0.273,0.248c0.104,0.158 0.154,0.414 0.154,0.766c0,0.396 -0.051,0.684 -0.151,0.863c-0.103,0.184 -0.269,0.307 -0.498,0.373c-0.228,0.064 -0.851,0.1 -1.872,0.1c-0.621,0 -1.068,-0.018 -1.345,-0.049c-0.336,-0.039 -0.577,-0.115 -0.724,-0.23c-0.158,-0.121 -0.252,-0.293 -0.281,-0.516c-0.016,-0.105 -0.023,-0.23 -0.023,-0.383l-0.005,-0.201Z" style="fill:#fff;fill-rule:nonzero;"/>
        </g>
        <g transform="matrix(1,0,0,1,15,0)">
            <path d="M83.367,368.969l4.43,0l0,0.939l-3.229,0l0,0.576l3.062,0l0,0.879l-3.062,0l0,0.645l3.252,0l0,0.961l-4.453,0l0,-4Z" style="fill:#fff;fill-rule:nonzero;"/>
        </g>
        <g transform="matrix(1,0,0,1,15,0)">
            <path d="M92.543,372.969l-0.344,-0.678l-2.646,0l-0.343,0.678l-1.394,0l2.121,-4l1.895,0l2.092,4l-1.381,0Zm-0.772,-1.553l-0.771,-1.52l-0.242,0l-0.771,1.52l1.784,0Z" style="fill:#fff;fill-rule:nonzero;"/>
        </g>
        <g transform="matrix(1,0,0,1,15,0)">
            <path d="M94.107,372.969l0,-4l2.941,0c0.695,0.002 1.105,0.01 1.23,0.021c0.143,0.018 0.271,0.059 0.387,0.125c0.117,0.068 0.207,0.156 0.271,0.268c0.065,0.113 0.104,0.232 0.121,0.357c0.019,0.146 0.024,0.322 0.024,0.529c0,0.326 -0.021,0.555 -0.065,0.684c-0.067,0.189 -0.197,0.324 -0.39,0.396c-0.062,0.025 -0.16,0.049 -0.289,0.068c0.257,0.02 0.438,0.092 0.552,0.219c0.049,0.059 0.084,0.121 0.104,0.195c0.021,0.068 0.035,0.18 0.043,0.316c0.002,0.072 0.002,0.221 0.002,0.441l0,0.373l-1.201,0l0,-0.215c0,-0.238 -0.01,-0.408 -0.029,-0.516c-0.031,-0.146 -0.109,-0.232 -0.236,-0.266c-0.084,-0.018 -0.262,-0.023 -0.531,-0.023l-1.717,0l0,1.02l-1.217,0.008Zm1.219,-2.016l1.713,0c0.256,-0.004 0.408,-0.01 0.455,-0.014c0.172,-0.01 0.279,-0.062 0.324,-0.156c0.031,-0.064 0.047,-0.182 0.047,-0.338c0,-0.139 -0.014,-0.234 -0.041,-0.307c-0.041,-0.098 -0.139,-0.15 -0.295,-0.164c-0.055,-0.004 -0.219,-0.006 -0.492,-0.008l-1.711,0l0,0.987Z" style="fill:#fff;fill-rule:nonzero;"/>
        </g>
        <g transform="matrix(1,0,0,1,15,0)">
            <path d="M103.332,371.424l1.219,0c0.01,0.193 0.014,0.33 0.014,0.398c0,0.291 -0.047,0.523 -0.139,0.699c-0.096,0.188 -0.277,0.312 -0.549,0.385c-0.295,0.08 -0.805,0.119 -1.527,0.119c-0.801,0 -1.338,-0.014 -1.615,-0.037c-0.258,-0.021 -0.461,-0.057 -0.607,-0.104c-0.146,-0.047 -0.271,-0.115 -0.369,-0.205c-0.131,-0.121 -0.213,-0.281 -0.248,-0.479c-0.037,-0.209 -0.059,-0.609 -0.059,-1.207c0,-0.57 0.014,-0.959 0.043,-1.154c0.043,-0.301 0.158,-0.52 0.35,-0.65c0.146,-0.102 0.375,-0.174 0.691,-0.217c0.326,-0.043 0.916,-0.062 1.766,-0.062c0.51,0 0.867,0.014 1.082,0.031c0.324,0.029 0.562,0.094 0.709,0.188c0.186,0.111 0.303,0.279 0.352,0.5c0.035,0.154 0.053,0.338 0.053,0.543c0,0.031 -0.002,0.109 -0.004,0.229l-1.219,0c-0.004,-0.098 -0.008,-0.162 -0.014,-0.197c-0.016,-0.119 -0.066,-0.191 -0.16,-0.227c-0.141,-0.049 -0.52,-0.07 -1.139,-0.07c-0.422,0 -0.713,0.014 -0.873,0.035c-0.191,0.025 -0.312,0.135 -0.359,0.318c-0.037,0.146 -0.059,0.393 -0.059,0.727c0,0.346 0.021,0.582 0.059,0.713c0.047,0.17 0.176,0.271 0.387,0.297c0.172,0.02 0.473,0.031 0.904,0.031c0.467,0 0.783,-0.012 0.955,-0.029c0.158,-0.018 0.262,-0.072 0.305,-0.172c0.03,-0.083 0.047,-0.216 0.051,-0.403Z" style="fill:#fff;fill-rule:nonzero;"/>
        </g>
        <g transform="matrix(1,0,0,1,15,0)">
            <path d="M104.984,368.969l1.281,0l0,1.432l2.75,0l0,-1.432l1.279,0l0,4l-1.279,0l0,-1.451l-2.75,0l0,1.451l-1.281,0l0,-4Z" style="fill:#fff;fill-rule:nonzero;"/>
        </g>
    </g>
    <g id="Description" transform="matrix(1,0,0,1,-8.39421,-25.7183)">
        <path d="M30.846,57.814l0.736,0l-1.912,5.328l-0.768,0l-1.912,-5.328l0.736,0l1.56,4.456l1.56,-4.456Z" style="fill:#fafafa;fill-rule:nonzero;stroke:#fff;stroke-width:0.4px;"/>
        <path d="M34.942,63.238c-0.416,0 -0.786,-0.074 -1.112,-0.224c-0.325,-0.149 -0.597,-0.349 -0.816,-0.6c-0.218,-0.25 -0.385,-0.544 -0.5,-0.88c-0.114,-0.336 -0.172,-0.688 -0.172,-1.056c0,-0.368 0.058,-0.72 0.172,-1.056c0.115,-0.336 0.282,-0.629 0.5,-0.88c0.219,-0.25 0.491,-0.45 0.816,-0.6c0.326,-0.149 0.696,-0.224 1.112,-0.224c0.416,0 0.787,0.075 1.112,0.224c0.326,0.15 0.598,0.35 0.816,0.6c0.219,0.251 0.386,0.544 0.5,0.88c0.115,0.336 0.172,0.688 0.172,1.056c0,0.368 -0.057,0.72 -0.172,1.056c-0.114,0.336 -0.281,0.63 -0.5,0.88c-0.218,0.251 -0.49,0.451 -0.816,0.6c-0.325,0.15 -0.696,0.224 -1.112,0.224Zm0,-0.592c0.304,0 0.574,-0.056 0.808,-0.168c0.235,-0.112 0.43,-0.266 0.584,-0.464c0.155,-0.197 0.272,-0.428 0.352,-0.692c0.08,-0.264 0.12,-0.545 0.12,-0.844c0,-0.298 -0.04,-0.58 -0.12,-0.844c-0.08,-0.264 -0.197,-0.493 -0.352,-0.688c-0.154,-0.194 -0.349,-0.349 -0.584,-0.464c-0.234,-0.114 -0.504,-0.172 -0.808,-0.172c-0.304,0 -0.573,0.058 -0.808,0.172c-0.234,0.115 -0.429,0.27 -0.584,0.464c-0.154,0.195 -0.272,0.424 -0.352,0.688c-0.08,0.264 -0.12,0.546 -0.12,0.844c0,0.299 0.04,0.58 0.12,0.844c0.08,0.264 0.198,0.495 0.352,0.692c0.155,0.198 0.35,0.352 0.584,0.464c0.235,0.112 0.504,0.168 0.808,0.168Z" style="fill:#fafafa;fill-rule:nonzero;stroke:#fff;stroke-width:0.4px;"/>
        <path d="M39.678,57.814l0,4.728l2.224,0l0,0.6l-2.96,0l0,-5.328l0.736,0Z" style="fill:#fafafa;fill-rule:nonzero;stroke:#fff;stroke-width:0.4px;"/>
        <path d="M45.886,57.814l0,0.6l-1.568,0l0,4.728l-0.736,0l0,-4.728l-1.568,0l0,-0.6l3.872,0Z" style="fill:#fafafa;fill-rule:nonzero;stroke:#fff;stroke-width:0.4px;"/>
        <path d="M51.126,63.142l-0.752,0l-0.488,-1.288l-2.488,0l-0.48,1.288l-0.752,0l2.12,-5.328l0.72,0l2.12,5.328Zm-3.504,-1.88l2.048,0l-1.024,-2.776l-1.024,2.776Z" style="fill:#fafafa;fill-rule:nonzero;stroke:#fff;stroke-width:0.4px;"/>
        <path d="M54.694,57.718c0.299,0 0.584,0.026 0.856,0.076c0.272,0.051 0.518,0.13 0.736,0.236l-0.12,0.584c-0.229,-0.09 -0.468,-0.162 -0.716,-0.216c-0.248,-0.053 -0.497,-0.08 -0.748,-0.08c-0.661,0 -1.181,0.194 -1.56,0.58c-0.378,0.387 -0.568,0.935 -0.568,1.644c0,0.683 0.179,1.207 0.536,1.572c0.358,0.366 0.894,0.548 1.608,0.548c0.171,0 0.343,-0.012 0.516,-0.036c0.174,-0.024 0.322,-0.054 0.444,-0.092l0,-1.736l0.672,0l0,2.144c-0.202,0.086 -0.461,0.156 -0.776,0.212c-0.314,0.056 -0.629,0.084 -0.944,0.084c-0.437,0 -0.829,-0.065 -1.176,-0.196c-0.346,-0.13 -0.64,-0.314 -0.88,-0.552c-0.24,-0.237 -0.422,-0.521 -0.548,-0.852c-0.125,-0.33 -0.188,-0.696 -0.188,-1.096c0,-0.416 0.066,-0.797 0.196,-1.144c0.131,-0.346 0.319,-0.644 0.564,-0.892c0.246,-0.248 0.544,-0.441 0.896,-0.58c0.352,-0.138 0.752,-0.208 1.2,-0.208Z" style="fill:#fafafa;fill-rule:nonzero;stroke:#fff;stroke-width:0.4px;"/>
        <path d="M57.95,57.814l2.968,0l0,0.6l-2.232,0l0,1.704l2.136,0l0,0.6l-2.136,0l0,1.824l2.256,0l0,0.6l-2.992,0l0,-5.328Z" style="fill:#fafafa;fill-rule:nonzero;stroke:#fff;stroke-width:0.4px;"/>
        <path d="M67.022,57.718c0.24,0 0.491,0.023 0.752,0.068c0.262,0.046 0.48,0.106 0.656,0.18l-0.12,0.568c-0.181,-0.064 -0.376,-0.116 -0.584,-0.156c-0.208,-0.04 -0.413,-0.06 -0.616,-0.06c-0.666,0 -1.186,0.187 -1.56,0.56c-0.373,0.374 -0.56,0.907 -0.56,1.6c0,0.694 0.187,1.227 0.56,1.6c0.374,0.374 0.894,0.56 1.56,0.56c0.203,0 0.408,-0.02 0.616,-0.06c0.208,-0.04 0.403,-0.092 0.584,-0.156l0.12,0.568c-0.176,0.075 -0.394,0.135 -0.656,0.18c-0.261,0.046 -0.512,0.068 -0.752,0.068c-0.437,0 -0.828,-0.069 -1.172,-0.208c-0.344,-0.138 -0.633,-0.33 -0.868,-0.576c-0.234,-0.245 -0.414,-0.536 -0.54,-0.872c-0.125,-0.336 -0.188,-0.704 -0.188,-1.104c0,-0.4 0.063,-0.768 0.188,-1.104c0.126,-0.336 0.306,-0.626 0.54,-0.872c0.235,-0.245 0.524,-0.437 0.868,-0.576c0.344,-0.138 0.735,-0.208 1.172,-0.208Z" style="fill:#fafafa;fill-rule:nonzero;stroke:#fff;stroke-width:0.4px;"/>
        <path d="M72.014,63.238c-0.416,0 -0.786,-0.074 -1.112,-0.224c-0.325,-0.149 -0.597,-0.349 -0.816,-0.6c-0.218,-0.25 -0.385,-0.544 -0.5,-0.88c-0.114,-0.336 -0.172,-0.688 -0.172,-1.056c0,-0.368 0.058,-0.72 0.172,-1.056c0.115,-0.336 0.282,-0.629 0.5,-0.88c0.219,-0.25 0.491,-0.45 0.816,-0.6c0.326,-0.149 0.696,-0.224 1.112,-0.224c0.416,0 0.787,0.075 1.112,0.224c0.326,0.15 0.598,0.35 0.816,0.6c0.219,0.251 0.386,0.544 0.5,0.88c0.115,0.336 0.172,0.688 0.172,1.056c0,0.368 -0.057,0.72 -0.172,1.056c-0.114,0.336 -0.281,0.63 -0.5,0.88c-0.218,0.251 -0.49,0.451 -0.816,0.6c-0.325,0.15 -0.696,0.224 -1.112,0.224Zm0,-0.592c0.304,0 0.574,-0.056 0.808,-0.168c0.235,-0.112 0.43,-0.266 0.584,-0.464c0.155,-0.197 0.272,-0.428 0.352,-0.692c0.08,-0.264 0.12,-0.545 0.12,-0.844c0,-0.298 -0.04,-0.58 -0.12,-0.844c-0.08,-0.264 -0.197,-0.493 -0.352,-0.688c-0.154,-0.194 -0.349,-0.349 -0.584,-0.464c-0.234,-0.114 -0.504,-0.172 -0.808,-0.172c-0.304,0 -0.573,0.058 -0.808,0.172c-0.234,0.115 -0.429,0.27 -0.584,0.464c-0.154,0.195 -0.272,0.424 -0.352,0.688c-0.08,0.264 -0.12,0.546 -0.12,0.844c0,0.299 0.04,0.58 0.12,0.844c0.08,0.264 0.198,0.495 0.352,0.692c0.155,0.198 0.35,0.352 0.584,0.464c0.235,0.112 0.504,0.168 0.808,0.168Z" style="fill:#fafafa;fill-rule:nonzero;stroke:#fff;stroke-width:0.4px;"/>
        <path d="M79.702,63.142l-2.984,-4.184l0,4.184l-0.704,0l0,-5.328l0.704,0l2.984,4.184l0,-4.184l0.704,0l0,5.328l-0.704,0Z" style="fill:#fafafa;fill-rule:nonzero;stroke:#fff;stroke-width:0.4px;"/>
        <path d="M85.494,57.814l0,0.6l-1.568,0l0,4.728l-0.736,0l0,-4.728l-1.568,0l0,-0.6l3.872,0Z" style="fill:#fafafa;fill-rule:nonzero;stroke:#fff;stroke-width:0.4px;"/>
        <path d="M87.446,63.142l-0.736,0l0,-5.328l1.384,0c0.288,0 0.556,0.032 0.804,0.096c0.248,0.064 0.466,0.159 0.652,0.284c0.187,0.126 0.334,0.283 0.44,0.472c0.107,0.19 0.16,0.407 0.16,0.652c0,0.368 -0.118,0.688 -0.356,0.96c-0.237,0.272 -0.569,0.47 -0.996,0.592l1.88,2.272l-0.904,0l-1.736,-2.144c-0.026,0 -0.066,0.002 -0.12,0.004c-0.053,0.003 -0.109,0.004 -0.168,0.004l-0.304,0l0,2.136Zm1.968,-3.808c0,-0.165 -0.036,-0.308 -0.108,-0.428c-0.072,-0.12 -0.169,-0.216 -0.292,-0.288c-0.122,-0.072 -0.264,-0.125 -0.424,-0.16c-0.16,-0.034 -0.328,-0.052 -0.504,-0.052l-0.64,0l0,2.008l0.368,0c0.224,0 0.434,-0.021 0.628,-0.064c0.195,-0.042 0.364,-0.108 0.508,-0.196c0.144,-0.088 0.258,-0.2 0.34,-0.336c0.083,-0.136 0.124,-0.297 0.124,-0.484Z" style="fill:#fafafa;fill-rule:nonzero;stroke:#fff;stroke-width:0.4px;"/>
        <path d="M94.046,63.238c-0.416,0 -0.786,-0.074 -1.112,-0.224c-0.325,-0.149 -0.597,-0.349 -0.816,-0.6c-0.218,-0.25 -0.385,-0.544 -0.5,-0.88c-0.114,-0.336 -0.172,-0.688 -0.172,-1.056c0,-0.368 0.058,-0.72 0.172,-1.056c0.115,-0.336 0.282,-0.629 0.5,-0.88c0.219,-0.25 0.491,-0.45 0.816,-0.6c0.326,-0.149 0.696,-0.224 1.112,-0.224c0.416,0 0.787,0.075 1.112,0.224c0.326,0.15 0.598,0.35 0.816,0.6c0.219,0.251 0.386,0.544 0.5,0.88c0.115,0.336 0.172,0.688 0.172,1.056c0,0.368 -0.057,0.72 -0.172,1.056c-0.114,0.336 -0.281,0.63 -0.5,0.88c-0.218,0.251 -0.49,0.451 -0.816,0.6c-0.325,0.15 -0.696,0.224 -1.112,0.224Zm0,-0.592c0.304,0 0.574,-0.056 0.808,-0.168c0.235,-0.112 0.43,-0.266 0.584,-0.464c0.155,-0.197 0.272,-0.428 0.352,-0.692c0.08,-0.264 0.12,-0.545 0.12,-0.844c0,-0.298 -0.04,-0.58 -0.12,-0.844c-0.08,-0.264 -0.197,-0.493 -0.352,-0.688c-0.154,-0.194 -0.349,-0.349 -0.584,-0.464c-0.234,-0.114 -0.504,-0.172 -0.808,-0.172c-0.304,0 -0.573,0.058 -0.808,0.172c-0.234,0.115 -0.429,0.27 -0.584,0.464c-0.154,0.195 -0.272,0.424 -0.352,0.688c-0.08,0.264 -0.12,0.546 -0.12,0.844c0,0.299 0.04,0.58 0.12,0.844c0.08,0.264 0.198,0.495 0.352,0.692c0.155,0.198 0.35,0.352 0.584,0.464c0.235,0.112 0.504,0.168 0.808,0.168Z" style="fill:#fafafa;fill-rule:nonzero;stroke:#fff;stroke-width:0.4px;"/>
        <path d="M98.782,57.814l0,4.728l2.224,0l0,0.6l-2.96,0l0,-5.328l0.736,0Z" style="fill:#fafafa;fill-rule:nonzero;stroke:#fff;stroke-width:0.4px;"/>
        <path d="M102.958,57.814l0,4.728l2.224,0l0,0.6l-2.96,0l0,-5.328l0.736,0Z" style="fill:#fafafa;fill-rule:nonzero;stroke:#fff;stroke-width:0.4px;"/>
        <path d="M106.398,57.814l2.968,0l0,0.6l-2.232,0l0,1.704l2.136,0l0,0.6l-2.136,0l0,1.824l2.256,0l0,0.6l-2.992,0l0,-5.328Z" style="fill:#fafafa;fill-rule:nonzero;stroke:#fff;stroke-width:0.4px;"/>
        <path d="M110.878,57.814l1.48,0c0.459,0 0.875,0.067 1.248,0.2c0.374,0.134 0.694,0.319 0.96,0.556c0.267,0.238 0.472,0.519 0.616,0.844c0.144,0.326 0.216,0.68 0.216,1.064c0,0.384 -0.072,0.739 -0.216,1.064c-0.144,0.326 -0.349,0.607 -0.616,0.844c-0.266,0.238 -0.586,0.423 -0.96,0.556c-0.373,0.134 -0.789,0.2 -1.248,0.2l-1.48,0l0,-5.328Zm1.48,4.736c0.32,0 0.62,-0.046 0.9,-0.14c0.28,-0.093 0.524,-0.228 0.732,-0.404c0.208,-0.176 0.372,-0.392 0.492,-0.648c0.12,-0.256 0.18,-0.549 0.18,-0.88c0,-0.325 -0.06,-0.617 -0.18,-0.876c-0.12,-0.258 -0.284,-0.476 -0.492,-0.652c-0.208,-0.176 -0.452,-0.31 -0.732,-0.404c-0.28,-0.093 -0.58,-0.14 -0.9,-0.14l-0.744,0l0,4.144l0.744,0Z" style="fill:#fafafa;fill-rule:nonzero;stroke:#fff;stroke-width:0.4px;"/>
        <path d="M121.334,57.718c0.24,0 0.491,0.023 0.752,0.068c0.262,0.046 0.48,0.106 0.656,0.18l-0.12,0.568c-0.181,-0.064 -0.376,-0.116 -0.584,-0.156c-0.208,-0.04 -0.413,-0.06 -0.616,-0.06c-0.666,0 -1.186,0.187 -1.56,0.56c-0.373,0.374 -0.56,0.907 -0.56,1.6c0,0.694 0.187,1.227 0.56,1.6c0.374,0.374 0.894,0.56 1.56,0.56c0.203,0 0.408,-0.02 0.616,-0.06c0.208,-0.04 0.403,-0.092 0.584,-0.156l0.12,0.568c-0.176,0.075 -0.394,0.135 -0.656,0.18c-0.261,0.046 -0.512,0.068 -0.752,0.068c-0.437,0 -0.828,-0.069 -1.172,-0.208c-0.344,-0.138 -0.633,-0.33 -0.868,-0.576c-0.234,-0.245 -0.414,-0.536 -0.54,-0.872c-0.125,-0.336 -0.188,-0.704 -0.188,-1.104c0,-0.4 0.063,-0.768 0.188,-1.104c0.126,-0.336 0.306,-0.626 0.54,-0.872c0.235,-0.245 0.524,-0.437 0.868,-0.576c0.344,-0.138 0.735,-0.208 1.172,-0.208Z" style="fill:#fafafa;fill-rule:nonzero;stroke:#fff;stroke-width:0.4px;"/>
        <path d="M126.326,63.238c-0.416,0 -0.786,-0.074 -1.112,-0.224c-0.325,-0.149 -0.597,-0.349 -0.816,-0.6c-0.218,-0.25 -0.385,-0.544 -0.5,-0.88c-0.114,-0.336 -0.172,-0.688 -0.172,-1.056c0,-0.368 0.058,-0.72 0.172,-1.056c0.115,-0.336 0.282,-0.629 0.5,-0.88c0.219,-0.25 0.491,-0.45 0.816,-0.6c0.326,-0.149 0.696,-0.224 1.112,-0.224c0.416,0 0.787,0.075 1.112,0.224c0.326,0.15 0.598,0.35 0.816,0.6c0.219,0.251 0.386,0.544 0.5,0.88c0.115,0.336 0.172,0.688 0.172,1.056c0,0.368 -0.057,0.72 -0.172,1.056c-0.114,0.336 -0.281,0.63 -0.5,0.88c-0.218,0.251 -0.49,0.451 -0.816,0.6c-0.325,0.15 -0.696,0.224 -1.112,0.224Zm0,-0.592c0.304,0 0.574,-0.056 0.808,-0.168c0.235,-0.112 0.43,-0.266 0.584,-0.464c0.155,-0.197 0.272,-0.428 0.352,-0.692c0.08,-0.264 0.12,-0.545 0.12,-0.844c0,-0.298 -0.04,-0.58 -0.12,-0.844c-0.08,-0.264 -0.197,-0.493 -0.352,-0.688c-0.154,-0.194 -0.349,-0.349 -0.584,-0.464c-0.234,-0.114 -0.504,-0.172 -0.808,-0.172c-0.304,0 -0.573,0.058 -0.808,0.172c-0.234,0.115 -0.429,0.27 -0.584,0.464c-0.154,0.195 -0.272,0.424 -0.352,0.688c-0.08,0.264 -0.12,0.546 -0.12,0.844c0,0.299 0.04,0.58 0.12,0.844c0.08,0.264 0.198,0.495 0.352,0.692c0.155,0.198 0.35,0.352 0.584,0.464c0.235,0.112 0.504,0.168 0.808,0.168Z" style="fill:#fafafa;fill-rule:nonzero;stroke:#fff;stroke-width:0.4px;"/>
        <path d="M134.894,57.814l0.664,0l0.384,5.328l-0.704,0l-0.256,-4.152l-1.536,3.192l-0.752,0l-1.536,-3.192l-0.256,4.152l-0.704,0l0.384,-5.328l0.664,0l1.824,3.768l1.824,-3.768Z" style="fill:#fafafa;fill-rule:nonzero;stroke:#fff;stroke-width:0.4px;"/>
        <path d="M140.822,59.374c0,0.256 -0.056,0.487 -0.168,0.692c-0.112,0.206 -0.268,0.38 -0.468,0.524c-0.2,0.144 -0.436,0.255 -0.708,0.332c-0.272,0.078 -0.565,0.116 -0.88,0.116l-0.368,0l0,2.104l-0.736,0l0,-5.328l1.288,0c0.288,0 0.556,0.032 0.804,0.096c0.248,0.064 0.464,0.162 0.648,0.292c0.184,0.131 0.328,0.294 0.432,0.488c0.104,0.195 0.156,0.423 0.156,0.684Zm-0.736,-0.008c0,-0.176 -0.034,-0.324 -0.104,-0.444c-0.069,-0.12 -0.164,-0.218 -0.284,-0.296c-0.12,-0.077 -0.261,-0.133 -0.424,-0.168c-0.162,-0.034 -0.334,-0.052 -0.516,-0.052l-0.528,0l0,2.04l0.392,0c0.214,0 0.41,-0.024 0.588,-0.072c0.179,-0.048 0.334,-0.118 0.464,-0.212c0.131,-0.093 0.232,-0.206 0.304,-0.34c0.072,-0.133 0.108,-0.285 0.108,-0.456Z" style="fill:#fafafa;fill-rule:nonzero;stroke:#fff;stroke-width:0.4px;"/>
        <path d="M142.694,57.814l0,4.728l2.224,0l0,0.6l-2.96,0l0,-5.328l0.736,0Z" style="fill:#fafafa;fill-rule:nonzero;stroke:#fff;stroke-width:0.4px;"/>
        <path d="M146.134,57.814l2.968,0l0,0.6l-2.232,0l0,1.704l2.136,0l0,0.6l-2.136,0l0,1.824l2.256,0l0,0.6l-2.992,0l0,-5.328Z" style="fill:#fafafa;fill-rule:nonzero;stroke:#fff;stroke-width:0.4px;"/>
        <path d="M152.414,61.038l-1.384,2.104l-0.776,0l1.776,-2.68l-1.752,-2.648l0.776,0l1.36,2.064l1.36,-2.064l0.776,0l-1.752,2.648l1.776,2.68l-0.776,0l-1.384,-2.104Z" style="fill:#fafafa;fill-rule:nonzero;stroke:#fff;stroke-width:0.4px;"/>
        <path d="M161.03,61.758c0,0.23 -0.049,0.435 -0.148,0.616c-0.098,0.182 -0.232,0.336 -0.4,0.464c-0.168,0.128 -0.365,0.227 -0.592,0.296c-0.226,0.07 -0.47,0.104 -0.732,0.104c-0.256,0 -0.518,-0.026 -0.788,-0.08c-0.269,-0.053 -0.516,-0.133 -0.74,-0.24l0.144,-0.584c0.198,0.091 0.415,0.166 0.652,0.224c0.238,0.059 0.476,0.088 0.716,0.088c0.347,0 0.627,-0.073 0.84,-0.22c0.214,-0.146 0.32,-0.358 0.32,-0.636c0,-0.154 -0.03,-0.286 -0.092,-0.396c-0.061,-0.109 -0.145,-0.208 -0.252,-0.296c-0.106,-0.088 -0.23,-0.166 -0.372,-0.236c-0.141,-0.069 -0.292,-0.141 -0.452,-0.216c-0.181,-0.085 -0.356,-0.174 -0.524,-0.268c-0.168,-0.093 -0.316,-0.2 -0.444,-0.32c-0.128,-0.12 -0.23,-0.256 -0.308,-0.408c-0.077,-0.152 -0.116,-0.329 -0.116,-0.532c0,-0.229 0.042,-0.432 0.124,-0.608c0.083,-0.176 0.199,-0.322 0.348,-0.44c0.15,-0.117 0.328,-0.205 0.536,-0.264c0.208,-0.058 0.438,-0.088 0.688,-0.088c0.256,0 0.506,0.03 0.748,0.088c0.243,0.059 0.455,0.136 0.636,0.232l-0.136,0.584c-0.17,-0.09 -0.365,-0.165 -0.584,-0.224c-0.218,-0.058 -0.44,-0.088 -0.664,-0.088c-0.645,0 -0.968,0.251 -0.968,0.752c0,0.112 0.016,0.21 0.048,0.292c0.032,0.083 0.084,0.16 0.156,0.232c0.072,0.072 0.168,0.142 0.288,0.208c0.12,0.067 0.266,0.143 0.436,0.228c0.171,0.086 0.352,0.178 0.544,0.276c0.192,0.099 0.368,0.216 0.528,0.352c0.16,0.136 0.294,0.295 0.4,0.476c0.107,0.182 0.16,0.392 0.16,0.632Z" style="fill:#fafafa;fill-rule:nonzero;stroke:#fff;stroke-width:0.4px;"/>
        <path d="M165.83,63.142l0,-2.392l-2.728,0l0,2.392l-0.736,0l0,-5.328l0.736,0l0,2.312l2.728,0l0,-2.312l0.736,0l0,5.328l-0.736,0Z" style="fill:#fafafa;fill-rule:nonzero;stroke:#fff;stroke-width:0.4px;"/>
        <path d="M172.79,63.142l-0.752,0l-0.488,-1.288l-2.488,0l-0.48,1.288l-0.752,0l2.12,-5.328l0.72,0l2.12,5.328Zm-3.504,-1.88l2.048,0l-1.024,-2.776l-1.024,2.776Z" style="fill:#fafafa;fill-rule:nonzero;stroke:#fff;stroke-width:0.4px;"/>
        <path d="M177.382,59.374c0,0.256 -0.056,0.487 -0.168,0.692c-0.112,0.206 -0.268,0.38 -0.468,0.524c-0.2,0.144 -0.436,0.255 -0.708,0.332c-0.272,0.078 -0.565,0.116 -0.88,0.116l-0.368,0l0,2.104l-0.736,0l0,-5.328l1.288,0c0.288,0 0.556,0.032 0.804,0.096c0.248,0.064 0.464,0.162 0.648,0.292c0.184,0.131 0.328,0.294 0.432,0.488c0.104,0.195 0.156,0.423 0.156,0.684Zm-0.736,-0.008c0,-0.176 -0.034,-0.324 -0.104,-0.444c-0.069,-0.12 -0.164,-0.218 -0.284,-0.296c-0.12,-0.077 -0.261,-0.133 -0.424,-0.168c-0.162,-0.034 -0.334,-0.052 -0.516,-0.052l-0.528,0l0,2.04l0.392,0c0.214,0 0.41,-0.024 0.588,-0.072c0.179,-0.048 0.334,-0.118 0.464,-0.212c0.131,-0.093 0.232,-0.206 0.304,-0.34c0.072,-0.133 0.108,-0.285 0.108,-0.456Z" style="fill:#fafafa;fill-rule:nonzero;stroke:#fff;stroke-width:0.4px;"/>
        <path d="M178.518,57.814l2.968,0l0,0.6l-2.232,0l0,1.704l2.136,0l0,0.6l-2.136,0l0,1.824l2.256,0l0,0.6l-2.992,0l0,-5.328Z" style="fill:#fafafa;fill-rule:nonzero;stroke:#fff;stroke-width:0.4px;"/>
        <path d="M183.734,63.142l-0.736,0l0,-5.328l1.384,0c0.288,0 0.556,0.032 0.804,0.096c0.248,0.064 0.466,0.159 0.652,0.284c0.187,0.126 0.334,0.283 0.44,0.472c0.107,0.19 0.16,0.407 0.16,0.652c0,0.368 -0.118,0.688 -0.356,0.96c-0.237,0.272 -0.569,0.47 -0.996,0.592l1.88,2.272l-0.904,0l-1.736,-2.144c-0.026,0 -0.066,0.002 -0.12,0.004c-0.053,0.003 -0.109,0.004 -0.168,0.004l-0.304,0l0,2.136Zm1.968,-3.808c0,-0.165 -0.036,-0.308 -0.108,-0.428c-0.072,-0.12 -0.169,-0.216 -0.292,-0.288c-0.122,-0.072 -0.264,-0.125 -0.424,-0.16c-0.16,-0.034 -0.328,-0.052 -0.504,-0.052l-0.64,0l0,2.008l0.368,0c0.224,0 0.434,-0.021 0.628,-0.064c0.195,-0.042 0.364,-0.108 0.508,-0.196c0.144,-0.088 0.258,-0.2 0.34,-0.336c0.083,-0.136 0.124,-0.297 0.124,-0.484Z" style="fill:#fafafa;fill-rule:nonzero;stroke:#fff;stroke-width:0.4px;"/>
    </g>
    <g transform="matrix(1.38133,0,0,1.38133,13.9593,-119.11)">
        <g id="Name">
            <path d="M48.98,93.099l0.734,-0.31c-0.017,2.033 -0.609,4.287 -1.778,6.76c-0.353,0.745 -0.723,1.431 -1.109,2.059c-0.386,0.628 -0.734,1.102 -1.044,1.423c-0.201,0.212 -0.375,0.361 -0.521,0.448c-0.147,0.087 -0.291,0.131 -0.433,0.131c-0.255,0 -0.43,-0.109 -0.526,-0.326c-0.095,-0.218 -0.142,-0.62 -0.142,-1.207c0,-0.468 0.002,-0.816 0.008,-1.044c0,-0.5 0.022,-1.286 0.065,-2.356c0.044,-1.022 0.09,-1.8 0.139,-2.333l0.016,-0.252c-0.397,1.554 -1.017,3.096 -1.859,4.623c-0.533,0.979 -1.068,1.772 -1.607,2.381c-0.304,0.353 -0.595,0.53 -0.872,0.53c-0.326,0 -0.53,-0.168 -0.612,-0.505c-0.021,-0.109 -0.032,-0.34 -0.032,-0.694l0,-0.244l0.293,-7.649c0.017,-0.304 0.025,-0.552 0.025,-0.742c0,-0.685 -0.174,-1.027 -0.522,-1.027c-0.212,0 -0.391,0.1 -0.538,0.301c-0.147,0.202 -0.297,0.552 -0.449,1.052c-0.234,0.772 -0.416,1.612 -0.546,2.52l-0.612,-0.408c0.12,-0.777 0.284,-1.449 0.494,-2.014c0.209,-0.565 0.454,-0.989 0.734,-1.272c0.28,-0.283 0.583,-0.424 0.909,-0.424c0.826,0 1.239,0.731 1.239,2.194c0,0.255 -0.003,0.462 -0.008,0.619l-0.261,6.613c-0.005,0.06 -0.008,0.155 -0.008,0.286c0,0.255 0.02,0.435 0.061,0.538c0.041,0.103 0.113,0.155 0.216,0.155c0.142,0 0.307,-0.097 0.498,-0.29c0.19,-0.193 0.429,-0.509 0.717,-0.95c0.354,-0.532 0.714,-1.17 1.081,-1.912c0.367,-0.742 0.681,-1.477 0.941,-2.205c0.126,-0.343 0.251,-0.738 0.376,-1.187c0.125,-0.448 0.224,-0.86 0.297,-1.235c0.074,-0.375 0.159,-0.914 0.257,-1.615l0.025,-0.196l0.79,-0.342l-0.016,0.188l-0.261,2.568c-0.021,0.266 -0.049,0.652 -0.081,1.158c-0.033,0.506 -0.056,0.964 -0.07,1.374c-0.013,0.41 -0.028,0.852 -0.044,1.325c-0.028,0.995 -0.041,1.734 -0.041,2.218c0,0.44 0.02,0.738 0.061,0.893c0.041,0.155 0.121,0.232 0.24,0.232c0.126,0 0.276,-0.084 0.453,-0.252c0.177,-0.169 0.393,-0.435 0.648,-0.8c0.56,-0.799 1.041,-1.652 1.444,-2.56c0.402,-0.908 0.71,-1.844 0.925,-2.809c0.215,-0.965 0.322,-1.88 0.322,-2.744c0,-0.054 -0.005,-0.283 -0.016,-0.685Z" style="fill:#fff;fill-rule:nonzero;stroke:#fff;stroke-width:0.44px;stroke-linejoin:bevel;"/>
            <path d="M52.806,102.167l0.147,0.122c-0.337,0.446 -0.666,0.768 -0.987,0.966c-0.321,0.199 -0.666,0.298 -1.036,0.298c-0.44,0 -0.793,-0.147 -1.06,-0.441c-0.266,-0.293 -0.399,-0.682 -0.399,-1.166c0,-0.489 0.129,-0.985 0.387,-1.488c0.258,-0.503 0.582,-0.918 0.971,-1.247c0.388,-0.329 0.773,-0.494 1.153,-0.494c0.223,0 0.407,0.066 0.551,0.196c0.144,0.13 0.216,0.299 0.216,0.506c0,0.418 -0.228,0.837 -0.685,1.255c-0.457,0.419 -1.079,0.775 -1.867,1.069c-0.006,0.043 -0.009,0.092 -0.009,0.146c0,0.375 0.104,0.681 0.31,0.918c0.207,0.236 0.473,0.354 0.799,0.354c0.256,0 0.503,-0.08 0.742,-0.24c0.24,-0.161 0.495,-0.412 0.767,-0.754Zm-2.609,-0.62c0.587,-0.261 1.038,-0.552 1.353,-0.873c0.212,-0.217 0.383,-0.451 0.514,-0.701c0.13,-0.25 0.196,-0.476 0.196,-0.677c0,-0.255 -0.117,-0.383 -0.351,-0.383c-0.353,0 -0.711,0.279 -1.072,0.836c-0.362,0.557 -0.575,1.156 -0.64,1.798Z" style="fill:#fff;fill-rule:nonzero;stroke:#fff;stroke-width:0.44px;stroke-linejoin:bevel;"/>
            <path d="M53.484,102.909l0.457,-0.539c0.239,0.566 0.62,0.848 1.142,0.848c0.271,0 0.504,-0.088 0.697,-0.265c0.193,-0.176 0.289,-0.381 0.289,-0.615c0,-0.169 -0.046,-0.313 -0.138,-0.432c-0.093,-0.12 -0.313,-0.321 -0.661,-0.604c-0.321,-0.261 -0.537,-0.466 -0.648,-0.615c-0.112,-0.15 -0.167,-0.323 -0.167,-0.518c0,-0.256 0.074,-0.492 0.224,-0.71c0.149,-0.217 0.349,-0.392 0.599,-0.526c0.25,-0.133 0.514,-0.199 0.791,-0.199c0.245,0 0.45,0.061 0.616,0.183c0.166,0.122 0.249,0.279 0.249,0.469c0,0.25 -0.106,0.421 -0.318,0.514c-0.033,-0.256 -0.13,-0.456 -0.29,-0.6c-0.16,-0.144 -0.365,-0.216 -0.616,-0.216c-0.222,0 -0.417,0.072 -0.583,0.216c-0.165,0.144 -0.248,0.309 -0.248,0.494c0,0.228 0.141,0.454 0.424,0.676l0.473,0.384c0.462,0.364 0.693,0.736 0.693,1.117c0,0.283 -0.08,0.548 -0.241,0.795c-0.16,0.247 -0.378,0.444 -0.652,0.591c-0.275,0.147 -0.564,0.22 -0.869,0.22c-0.483,0 -0.891,-0.223 -1.223,-0.668Z" style="fill:#fff;fill-rule:nonzero;stroke:#fff;stroke-width:0.44px;stroke-linejoin:bevel;"/>
            <path d="M59.463,99.076l-0.62,2.715c-0.065,0.299 -0.097,0.511 -0.097,0.636c0,0.196 0.046,0.354 0.138,0.473c0.093,0.12 0.215,0.18 0.367,0.18c0.147,0 0.281,-0.042 0.404,-0.127c0.122,-0.084 0.308,-0.259 0.558,-0.526l0.098,-0.097l0.122,0.122c-0.32,0.391 -0.588,0.667 -0.803,0.828c-0.214,0.16 -0.425,0.24 -0.632,0.24c-0.261,0 -0.469,-0.085 -0.624,-0.257c-0.154,-0.171 -0.232,-0.395 -0.232,-0.672c0,-0.207 0.041,-0.506 0.122,-0.897l0.53,-2.618l-0.782,0l0.057,-0.277l0.783,0l0.456,-2.202l0.783,-0.31l-0.571,2.512l1.321,0l-0.057,0.277l-1.321,0Z" style="fill:#fff;fill-rule:nonzero;stroke:#fff;stroke-width:0.44px;stroke-linejoin:bevel;"/>
            <path d="M64.741,102.207c-0.332,0.468 -0.654,0.809 -0.967,1.024c-0.312,0.214 -0.659,0.322 -1.039,0.322c-0.419,0 -0.76,-0.147 -1.024,-0.441c-0.263,-0.293 -0.395,-0.674 -0.395,-1.141c0,-0.489 0.127,-0.987 0.383,-1.492c0.255,-0.506 0.583,-0.925 0.983,-1.256c0.399,-0.332 0.784,-0.498 1.153,-0.498c0.25,0 0.452,0.07 0.604,0.208c0.152,0.139 0.228,0.325 0.228,0.559c0,0.212 -0.08,0.414 -0.24,0.607c-0.161,0.193 -0.333,0.29 -0.518,0.29c-0.082,0 -0.155,-0.033 -0.22,-0.098c0.353,-0.158 0.53,-0.451 0.53,-0.881c0,-0.152 -0.04,-0.27 -0.119,-0.354c-0.078,-0.085 -0.183,-0.127 -0.314,-0.127c-0.201,0 -0.403,0.082 -0.607,0.245c-0.204,0.163 -0.395,0.39 -0.575,0.681c-0.179,0.291 -0.319,0.601 -0.42,0.929c-0.1,0.329 -0.151,0.662 -0.151,0.999c0,0.403 0.095,0.729 0.286,0.979c0.19,0.25 0.44,0.375 0.75,0.375c0.266,0 0.525,-0.084 0.775,-0.253c0.25,-0.168 0.511,-0.427 0.782,-0.775l0.115,0.098Z" style="fill:#fff;fill-rule:nonzero;stroke:#fff;stroke-width:0.44px;stroke-linejoin:bevel;"/>
            <path d="M65.721,101.865c0,-0.489 0.132,-0.977 0.395,-1.464c0.264,-0.486 0.605,-0.882 1.024,-1.186c0.418,-0.305 0.845,-0.457 1.28,-0.457c0.456,0 0.825,0.151 1.105,0.453c0.28,0.301 0.42,0.691 0.42,1.17c0,0.522 -0.129,1.027 -0.388,1.516c-0.258,0.49 -0.598,0.891 -1.019,1.203c-0.421,0.313 -0.847,0.469 -1.276,0.469c-0.462,0 -0.835,-0.156 -1.117,-0.469c-0.283,-0.312 -0.424,-0.724 -0.424,-1.235Zm3.49,-1.794c0,-0.326 -0.08,-0.595 -0.241,-0.807c-0.16,-0.212 -0.365,-0.318 -0.615,-0.318c-0.229,0 -0.448,0.073 -0.657,0.22c-0.209,0.147 -0.401,0.361 -0.575,0.644c-0.195,0.326 -0.357,0.707 -0.485,1.142c-0.128,0.434 -0.192,0.82 -0.192,1.157c0,0.403 0.079,0.713 0.237,0.93c0.158,0.218 0.383,0.326 0.677,0.326c0.473,0 0.889,-0.329 1.247,-0.986c0.185,-0.337 0.332,-0.715 0.441,-1.134c0.108,-0.418 0.163,-0.81 0.163,-1.174Z" style="fill:#fff;fill-rule:nonzero;stroke:#fff;stroke-width:0.44px;stroke-linejoin:bevel;"/>
            <path d="M75.63,98.611l-0.767,2.985c-0.081,0.326 -0.122,0.581 -0.122,0.766c0,0.163 0.035,0.305 0.106,0.424c0.071,0.12 0.158,0.18 0.261,0.18c0.158,0 0.419,-0.193 0.783,-0.579l0.114,0.114l-0.09,0.106c-0.288,0.331 -0.509,0.564 -0.664,0.697c-0.155,0.133 -0.29,0.2 -0.404,0.2c-0.174,0 -0.325,-0.091 -0.453,-0.273c-0.127,-0.182 -0.191,-0.393 -0.191,-0.632c0,-0.174 0.065,-0.568 0.195,-1.183l0.066,-0.31c-0.201,0.468 -0.471,0.916 -0.808,1.346c-0.565,0.718 -1.106,1.076 -1.622,1.076c-0.31,0 -0.555,-0.111 -0.734,-0.334c-0.18,-0.223 -0.269,-0.522 -0.269,-0.897c0,-0.511 0.145,-1.046 0.436,-1.606c0.291,-0.56 0.652,-1.021 1.085,-1.383c0.432,-0.361 0.852,-0.542 1.259,-0.542c0.43,0 0.751,0.158 0.963,0.473l0.089,-0.31l0.767,-0.318Zm-0.938,1.044c-0.065,-0.207 -0.175,-0.368 -0.33,-0.485c-0.155,-0.117 -0.333,-0.175 -0.534,-0.175c-0.239,0 -0.492,0.11 -0.759,0.33c-0.266,0.22 -0.511,0.526 -0.734,0.917c-0.174,0.31 -0.319,0.652 -0.436,1.028c-0.117,0.375 -0.175,0.685 -0.175,0.929c0,0.277 0.053,0.495 0.159,0.653c0.106,0.157 0.257,0.236 0.452,0.236c0.251,0 0.511,-0.117 0.783,-0.351c0.272,-0.233 0.541,-0.568 0.808,-1.003c0.163,-0.25 0.29,-0.5 0.383,-0.75c0.092,-0.25 0.196,-0.598 0.31,-1.044l0.073,-0.285Z" style="fill:#fff;fill-rule:nonzero;stroke:#fff;stroke-width:0.44px;stroke-linejoin:bevel;"/>
            <path d="M76.431,102.909l0.456,-0.539c0.239,0.566 0.62,0.848 1.142,0.848c0.272,0 0.504,-0.088 0.697,-0.265c0.193,-0.176 0.289,-0.381 0.289,-0.615c0,-0.169 -0.046,-0.313 -0.138,-0.432c-0.093,-0.12 -0.313,-0.321 -0.661,-0.604c-0.32,-0.261 -0.536,-0.466 -0.648,-0.615c-0.111,-0.15 -0.167,-0.323 -0.167,-0.518c0,-0.256 0.075,-0.492 0.224,-0.71c0.15,-0.217 0.349,-0.392 0.599,-0.526c0.251,-0.133 0.514,-0.199 0.791,-0.199c0.245,0 0.45,0.061 0.616,0.183c0.166,0.122 0.249,0.279 0.249,0.469c0,0.25 -0.106,0.421 -0.318,0.514c-0.033,-0.256 -0.129,-0.456 -0.29,-0.6c-0.16,-0.144 -0.365,-0.216 -0.615,-0.216c-0.223,0 -0.418,0.072 -0.583,0.216c-0.166,0.144 -0.249,0.309 -0.249,0.494c0,0.228 0.141,0.454 0.424,0.676l0.473,0.384c0.462,0.364 0.693,0.736 0.693,1.117c0,0.283 -0.08,0.548 -0.241,0.795c-0.16,0.247 -0.377,0.444 -0.652,0.591c-0.274,0.147 -0.564,0.22 -0.868,0.22c-0.484,0 -0.892,-0.223 -1.223,-0.668Z" style="fill:#fff;fill-rule:nonzero;stroke:#fff;stroke-width:0.44px;stroke-linejoin:bevel;"/>
            <path d="M82.409,99.076l-0.619,2.715c-0.066,0.299 -0.098,0.511 -0.098,0.636c0,0.196 0.046,0.354 0.138,0.473c0.093,0.12 0.215,0.18 0.367,0.18c0.147,0 0.282,-0.042 0.404,-0.127c0.122,-0.084 0.308,-0.259 0.558,-0.526l0.098,-0.097l0.123,0.122c-0.321,0.391 -0.589,0.667 -0.804,0.828c-0.214,0.16 -0.425,0.24 -0.632,0.24c-0.26,0 -0.468,-0.085 -0.623,-0.257c-0.155,-0.171 -0.233,-0.395 -0.233,-0.672c0,-0.207 0.041,-0.506 0.123,-0.897l0.53,-2.618l-0.783,0l0.057,-0.277l0.783,0l0.456,-2.202l0.783,-0.31l-0.571,2.512l1.321,0l-0.057,0.277l-1.321,0Z" style="fill:#fff;fill-rule:nonzero;stroke:#fff;stroke-width:0.44px;stroke-linejoin:bevel;"/>
        </g>
    </g>
</svg>
