<?xml version="1.0" encoding="UTF-8" standalone="no"?>
<!DOCTYPE svg PUBLIC "-//W3C//DTD SVG 1.1//EN" "http://www.w3.org/Graphics/SVG/1.1/DTD/svg11.dtd">
<svg xmlns:xlink="http://www.w3.org/1999/xlink" xmlns:serif="http://www.serif.com/" width="24px" height="24px" version="1.1" xmlns="http://www.w3.org/2000/svg" xml:space="preserve" style="fill-rule:evenodd;clip-rule:evenodd;stroke-linejoin:round;stroke-miterlimit:1.41421;">
    <g id="SmallKnob"
       transform="matrix(1,0,0,1,0,-0.251)">
        <g>
            <g transform="matrix(1.11628,0,0,1.11628,-1.39536,-1.42455)">
                <circle cx="12"
                        cy="12.251"
                        r="10.75"
                        style="stroke:#adadad;stroke-width:0.4px;"/>
            </g>
            <g transform="matrix(0.886034,0,0,0.886034,1.36759,1.3962)">
                <circle cx="12"
                        cy="12.251"
                        r="9.029"
                        style="fill:#494949;stroke:#050404;stroke-width:0.2px;stroke-linejoin:miter;stroke-miterlimit:10;"/>
            </g>
            <g transform="matrix(0.970362,0,0,0.427554,0.32411,0.621165)">
                <path d="M13.193,2.518c0,-1.389 -0.497,-2.517 -1.109,-2.517l-0.103,0c-0.612,0 -1.109,1.128 -1.109,2.517l0,3.028c0,1.389 0.497,2.517 1.109,2.517l0.103,0c0.612,0 1.109,-1.128 1.109,-2.517l0,-3.028Z"
                      style="fill:#aaa7a7;"/>
            </g>
        </g>
    </g>
</svg>
