<?xml version="1.0" encoding="UTF-8" standalone="no"?>
<!DOCTYPE svg PUBLIC "-//W3C//DTD SVG 1.1//EN" "http://www.w3.org/Graphics/SVG/1.1/DTD/svg11.dtd">
<svg xmlns:xlink="http://www.w3.org/1999/xlink" xmlns:serif="http://www.serif.com/" width="42px" height="42px" version="1.1" xmlns="http://www.w3.org/2000/svg" xml:space="preserve" style="fill-rule:evenodd;clip-rule:evenodd;stroke-linejoin:round;stroke-miterlimit:1.41421;">
    <g transform="matrix(0.84,0,0,0.84,-2.52042,-2.05548)">
        <g transform="matrix(0.933344,-4.93432e-17,4.93432e-17,0.933344,1.86638,1.86638)">
            <circle cx="28" cy="28" r="25.714" style="fill:#141414;stroke:#7d7d7d;stroke-width:0.83px;"/>
        </g>
        <g id="path8603" transform="matrix(0.94061,0,0,0.94061,1.66295,1.63008)">
            <path d="M51.451,15.156c-1.568,-2.978 -3.672,-5.617 -6.176,-7.796c-4.828,0.69 -9.827,-1.756 -12.318,-6.016c-1.604,-0.31 -3.264,-0.477 -4.956,-0.477c-1.693,0 -3.348,0.167 -4.955,0.477c-2.495,4.26 -7.492,6.706 -12.32,6.016c-2.504,2.179 -4.609,4.818 -6.177,7.796c1.788,4.702 0.513,10.314 -3.127,13.742c0.119,3.41 0.851,6.66 2.095,9.64c4.841,1.476 8.444,6.098 8.761,11.235c2.564,1.916 5.48,3.369 8.627,4.254c4.168,-2.986 10.025,-2.986 14.191,0c3.146,-0.887 6.065,-2.34 8.631,-4.254c0.312,-5.137 3.914,-9.76 8.762,-11.235c1.244,-2.979 1.976,-6.228 2.09,-9.64c-3.636,-3.428 -4.911,-9.039 -3.128,-13.742" style="fill:#1a1a1a;fill-rule:nonzero;stroke:#bababa;stroke-width:0.7px;stroke-linejoin:miter;stroke-miterlimit:1.414;"/>
        </g>
        <g transform="matrix(0.601859,0,0,0.601859,11.148,11.148)">
            <circle cx="28" cy="28" r="25.714" style="fill:#3b3b3b;stroke:#747474;stroke-width:0.99px;"/>
        </g>
        <g id="Top" transform="matrix(1.13095,0,0,1.12824,5.44449,4.31588)">
            <g transform="matrix(1.11436,0,0,1.27647,-13.6642,-297.719)">
                <path d="M36.741,235.479c0,-1.348 -1.25,-2.442 -2.791,-2.442l-5.582,0c-1.54,0 -2.791,1.094 -2.791,2.442l0,27.284c0,1.348 1.251,2.443 2.791,2.443l5.582,0c1.541,0 2.791,-1.095 2.791,-2.443l0,-27.284Z" style="fill-opacity:0.196078;"/>
            </g>
            <g transform="matrix(1.11436,0,0,1.27647,-14.7786,-298.761)">
                <path d="M36.741,235.479c0,-1.348 -1.25,-2.442 -2.791,-2.442l-5.582,0c-1.54,0 -2.791,1.094 -2.791,2.442l0,27.284c0,1.348 1.251,2.443 2.791,2.443l5.582,0c1.541,0 2.791,-1.095 2.791,-2.443l0,-27.284Z" style="fill:#2f2f2f;stroke:#000;stroke-width:0.35px;stroke-linejoin:miter;stroke-miterlimit:10;"/>
            </g>
        </g>
        <g transform="matrix(0.143441,0,0,0.23034,24.0186,1.27546)">
            <path d="M34.791,14.019c0,-1.209 -1.576,-2.191 -3.517,-2.191l-7.035,0c-1.941,0 -3.517,0.982 -3.517,2.191l0,22.458c0,1.209 1.576,2.191 3.517,2.191l7.035,0c1.941,0 3.517,-0.982 3.517,-2.191l0,-22.458Z" style="fill:#979797;"/>
        </g>
    </g>
    <g transform="matrix(0.95,0,0,0.95,12.7836,-185.75)">
        <circle cx="8.649" cy="217.631" r="2.582" style="fill:#373737;stroke:#555;stroke-width:0.16px;stroke-linejoin:miter;stroke-miterlimit:10;"/>
    </g>
</svg>
