<?xml version="1.0" encoding="UTF-8" standalone="no"?>
<!DOCTYPE svg PUBLIC "-//W3C//DTD SVG 1.1//EN" "http://www.w3.org/Graphics/SVG/1.1/DTD/svg11.dtd">
<svg xmlns:xlink="http://www.w3.org/1999/xlink"
     xmlns:serif="http://www.serif.com/"
     width="24px"
     height="24px"
     version="1.1"
     xmlns="http://www.w3.org/2000/svg"
     xml:space="preserve"
     style="fill-rule:evenodd;clip-rule:evenodd;stroke-linejoin:round;stroke-miterlimit:1.41421;">
    <g id="SmallKnob">
    </g>
    <g id="SmallKnob1"
       serif:id="SmallKnob"
       transform="matrix(1,0,0,1,0,-0.251)">
        <g transform="matrix(1.07907,0,0,1.07907,-0.948847,-0.9687)">
            <circle cx="12"
                    cy="12.251"
                    r="10.75"
                    style="fill:#e2e0e0;stroke:#000;stroke-width:0.51px;"/>
        </g>
        <g transform="matrix(0.77528,0,0,0.77528,2.89664,2.95305)">
            <circle cx="12"
                    cy="12.251"
                    r="9.029"
                    style="fill:#d8d4d4;stroke:#050404;stroke-opacity:0.33;stroke-width:0.58px;stroke-linejoin:miter;stroke-miterlimit:10;"/>
        </g>
        <g transform="matrix(0.77528,0,0,0.77528,2.69664,2.75305)">
            <circle cx="12"
                    cy="12.251"
                    r="9.029"
                    style="fill:#d8d4d4;stroke:#050404;stroke-width:0.34px;stroke-linejoin:miter;stroke-miterlimit:10;"/>
        </g>
        <g transform="matrix(0.779367,0,0,0.671238,2.59474,-3.55397)">
            <path d="M13.442,8.549c0,-0.768 -0.537,-1.392 -1.199,-1.392l-0.35,0c-0.662,0 -1.2,0.624 -1.2,1.392l0,2.361c0,0.768 0.538,1.392 1.2,1.392l0.35,0c0.662,0 1.199,-0.624 1.199,-1.392l0,-2.361Z"
                  style="fill-opacity:0.87;"/>
        </g>
    </g>
</svg>
