<?xml version="1.0" encoding="UTF-8" standalone="no"?>
<!DOCTYPE svg PUBLIC "-//W3C//DTD SVG 1.1//EN" "http://www.w3.org/Graphics/SVG/1.1/DTD/svg11.dtd">
<svg xmlns:xlink="http://www.w3.org/1999/xlink"
     xmlns:serif="http://www.serif.com/"
     width="28px"
     height="28px"
     version="1.1"
     xmlns="http://www.w3.org/2000/svg"
     xml:space="preserve"
     style="fill-rule:evenodd;clip-rule:evenodd;stroke-linejoin:round;stroke-miterlimit:1.41421;">
    <g id="IOPortB_3_">
        <g>
            <path d="M5.311,22.794c-1.082,-1.866 -2.151,-3.757 -3.221,-5.619c-2.129,-3.715 -2.129,-2.593 0.002,-6.312c1.082,-1.892 2.161,-3.801 3.242,-5.693c2.135,-3.718 1.166,-3.156 5.438,-3.149c2.136,0.004 4.298,0.008 6.431,0.014c4.266,-0.012 3.3,-0.575 5.429,3.141c1.078,1.896 2.176,3.788 3.271,5.689c2.125,3.719 2.122,2.578 -0.018,6.309c-1.07,1.871 -2.151,3.749 -3.217,5.621c-2.142,3.726 -1.166,3.154 -5.426,3.155c-2.175,0.007 -4.341,0.009 -6.521,0.009c-4.254,0 -3.287,0.563 -5.41,-3.165Zm3.664,-0.035c-4.795,-2.79 -6.435,-8.968 -3.664,-13.802c2.771,-4.846 8.9,-6.5 13.7,-3.712c4.811,2.8 6.449,8.978 3.674,13.82c-2.774,4.834 -8.905,6.491 -13.71,3.694Zm0.411,-0.718c-4.401,-2.562 -5.919,-8.239 -3.377,-12.672c2.546,-4.447 8.186,-5.962 12.584,-3.4c4.415,2.566 5.922,8.24 3.372,12.685c-2.542,4.433 -8.168,5.95 -12.579,3.387Zm1.009,-1.761c-3.438,-1.998 -4.612,-6.431 -2.631,-9.89c1.99,-3.473 6.388,-4.658 9.82,-2.666c3.45,2.01 4.627,6.441 2.637,9.912c-1.986,3.462 -6.379,4.651 -9.826,2.644Zm0.404,-0.709c3.051,1.776 6.951,0.713 8.712,-2.354c1.763,-3.073 0.719,-7.005 -2.337,-8.775c-3.051,-1.774 -6.945,-0.724 -8.707,2.354c-1.756,3.065 -0.709,7.01 2.332,8.775Z"
                  style="fill:#b3b3b3;fill-rule:nonzero;"/>
            <path d="M8.638,1.487l0.237,0.003l0.257,0.006l0.278,0.006l0.302,0.006l0.326,0.006l0.354,0.005l0.186,0.001l0.195,0.001l3.217,0.006l3.212,0.008l0.194,-0.001l0.186,-0.002l0.353,-0.004l0.326,-0.007l0.301,-0.007l0.278,-0.006l0.257,-0.006l0.237,-0.003l0.113,-0.001l0.108,0l0.105,0.001l0.101,0.003l0.099,0.004l0.096,0.005l0.093,0.007l0.091,0.008l0.089,0.011l0.088,0.014l0.086,0.016l0.085,0.018l0.084,0.023l0.082,0.025l0.079,0.029l0.043,0.017l0.039,0.017l0.039,0.018l0.039,0.019l0.038,0.02l0.038,0.022l0.037,0.022l0.037,0.023l0.036,0.024l0.035,0.025l0.035,0.025l0.036,0.029l0.064,0.053l0.063,0.059l0.061,0.062l0.059,0.064l0.057,0.067l0.055,0.069l0.055,0.072l0.053,0.075l0.053,0.077l0.052,0.081l0.053,0.083l0.053,0.087l0.054,0.091l0.054,0.094l0.056,0.098l0.116,0.208l0.125,0.226l0.133,0.245l0.145,0.265l0.158,0.287l0.173,0.309l0.092,0.163l0.097,0.17l0.405,0.711l0.407,0.71l0.407,0.71l0.409,0.71l0.821,1.422l0.821,1.425l0.098,0.17l0.094,0.162l0.179,0.306l0.167,0.281l0.155,0.259l0.143,0.239l0.132,0.221l0.12,0.205l0.057,0.098l0.053,0.094l0.051,0.092l0.048,0.09l0.045,0.087l0.043,0.086l0.04,0.085l0.038,0.083l0.034,0.083l0.032,0.083l0.029,0.083l0.025,0.083l0.023,0.084l0.018,0.084l0.014,0.082l0.007,0.046l0.004,0.043l0.004,0.043l0.003,0.043l0.001,0.043l0,0.043l0,0.043l-0.002,0.043l-0.003,0.043l-0.004,0.043l-0.005,0.043l-0.007,0.046l-0.015,0.082l-0.019,0.084l-0.022,0.083l-0.027,0.083l-0.029,0.083l-0.032,0.083l-0.035,0.083l-0.038,0.084l-0.041,0.084l-0.043,0.086l-0.046,0.088l-0.049,0.089l-0.051,0.092l-0.054,0.095l-0.057,0.099l-0.121,0.205l-0.133,0.221l-0.144,0.24l-0.156,0.26l-0.169,0.282l-0.18,0.307l-0.095,0.162l-0.097,0.17l-0.804,1.404l-0.806,1.406l-0.805,1.405l-0.401,0.703l-0.401,0.702l-0.098,0.171l-0.092,0.163l-0.174,0.311l-0.159,0.287l-0.146,0.266l-0.134,0.245l-0.125,0.226l-0.116,0.208l-0.057,0.099l-0.054,0.094l-0.054,0.091l-0.053,0.087l-0.053,0.083l-0.053,0.081l-0.052,0.077l-0.054,0.075l-0.054,0.072l-0.055,0.07l-0.057,0.066l-0.059,0.065l-0.061,0.061l-0.063,0.059l-0.063,0.053l-0.037,0.029l-0.034,0.026l-0.035,0.025l-0.036,0.024l-0.037,0.023l-0.037,0.022l-0.037,0.021l-0.038,0.02l-0.039,0.019l-0.039,0.019l-0.04,0.017l-0.042,0.017l-0.078,0.029l-0.083,0.025l-0.083,0.023l-0.085,0.019l-0.086,0.016l-0.087,0.013l-0.089,0.011l-0.091,0.009l-0.093,0.007l-0.096,0.006l-0.098,0.004l-0.101,0.002l-0.105,0.002l-0.108,0l-0.113,0l-0.236,-0.003l-0.256,-0.005l-0.277,-0.006l-0.3,-0.006l-0.325,-0.006l-0.353,-0.004l-0.186,-0.001l-0.194,0l-1.629,0.004l-1.629,0.003l-1.63,0.002l-1.632,0l-0.195,0l-0.186,0.001l-0.352,0.004l-0.324,0.006l-0.3,0.006l-0.278,0.006l-0.256,0.004l-0.236,0.003l-0.112,0l-0.109,0l-0.104,-0.002l-0.101,-0.003l-0.099,-0.004l-0.095,-0.005l-0.093,-0.008l-0.091,-0.009l-0.089,-0.011l-0.088,-0.014l-0.086,-0.016l-0.085,-0.019l-0.083,-0.023l-0.082,-0.026l-0.078,-0.029l-0.043,-0.017l-0.04,-0.018l-0.039,-0.018l-0.038,-0.019l-0.038,-0.021l-0.038,-0.021l-0.037,-0.022l-0.036,-0.024l-0.036,-0.024l-0.035,-0.025l-0.035,-0.026l-0.036,-0.028l-0.063,-0.054l-0.063,-0.059l-0.061,-0.062l-0.058,-0.065l-0.057,-0.067l-0.055,-0.069l-0.054,-0.073l-0.053,-0.075l-0.053,-0.077l-0.052,-0.081l-0.052,-0.084l-0.053,-0.087l-0.053,-0.091l-0.055,-0.095l-0.056,-0.098l-0.115,-0.209l-0.124,-0.226l-0.133,-0.246l-0.144,-0.266l-0.158,-0.288l-0.172,-0.31l-0.092,-0.164l-0.096,-0.169l-0.404,-0.699l-0.405,-0.703l-0.403,-0.705l-0.403,-0.704l-0.804,-1.407l-0.401,-0.701l-0.401,-0.699l-0.097,-0.169l-0.094,-0.162l-0.18,-0.306l-0.167,-0.281l-0.155,-0.259l-0.144,-0.239l-0.132,-0.221l-0.121,-0.205l-0.056,-0.099l-0.054,-0.094l-0.051,-0.093l-0.048,-0.089l-0.046,-0.088l-0.043,-0.086l-0.04,-0.085l-0.038,-0.084l-0.034,-0.083l-0.032,-0.083l-0.029,-0.083l-0.026,-0.083l-0.022,-0.084l-0.019,-0.084l-0.015,-0.083l-0.006,-0.045l-0.005,-0.043l-0.004,-0.043l-0.002,-0.043l-0.002,-0.043l-0.001,-0.044l0.001,-0.043l0.002,-0.043l0.002,-0.043l0.004,-0.043l0.005,-0.043l0.007,-0.046l0.014,-0.082l0.019,-0.084l0.022,-0.084l0.026,-0.083l0.029,-0.083l0.032,-0.083l0.035,-0.084l0.038,-0.084l0.04,-0.084l0.043,-0.087l0.046,-0.087l0.048,-0.09l0.051,-0.092l0.054,-0.095l0.056,-0.099l0.121,-0.205l0.132,-0.221l0.144,-0.24l0.156,-0.259l0.167,-0.282l0.18,-0.305l0.094,-0.162l0.097,-0.17l0.405,-0.709l0.405,-0.711l0.811,-1.425l0.81,-1.425l0.405,-0.711l0.406,-0.711l0.097,-0.17l0.093,-0.164l0.173,-0.309l0.158,-0.287l0.146,-0.265l0.134,-0.245l0.124,-0.226l0.117,-0.208l0.056,-0.099l0.055,-0.094l0.053,-0.09l0.054,-0.087l0.052,-0.084l0.053,-0.081l0.053,-0.077l0.053,-0.075l0.054,-0.072l0.056,-0.07l0.057,-0.066l0.059,-0.065l0.061,-0.061l0.064,-0.059l0.063,-0.054l0.037,-0.028l0.034,-0.026l0.035,-0.025l0.036,-0.024l0.037,-0.023l0.037,-0.022l0.038,-0.021l0.038,-0.021l0.039,-0.019l0.039,-0.018l0.04,-0.017l0.042,-0.017l0.079,-0.029l0.082,-0.026l0.084,-0.022l0.085,-0.019l0.086,-0.016l0.088,-0.013l0.089,-0.012l0.092,-0.009l0.093,-0.007l0.096,-0.005l0.098,-0.004l0.102,-0.002l0.105,-0.002l0.109,0l0.113,0Zm-0.218,0.5l-0.099,0.002l-0.095,0.002l-0.091,0.004l-0.087,0.004l-0.083,0.007l-0.08,0.007l-0.075,0.01l-0.073,0.011l-0.07,0.013l-0.066,0.015l-0.064,0.017l-0.061,0.019l-0.059,0.021l-0.029,0.012l-0.028,0.012l-0.028,0.013l-0.027,0.014l-0.027,0.014l-0.026,0.015l-0.026,0.015l-0.026,0.016l-0.025,0.017l-0.025,0.018l-0.025,0.018l-0.024,0.019l-0.048,0.041l-0.048,0.044l-0.046,0.047l-0.047,0.05l-0.046,0.054l-0.046,0.057l-0.046,0.062l-0.046,0.065l-0.047,0.069l-0.048,0.073l-0.049,0.077l-0.049,0.082l-0.051,0.085l-0.053,0.091l-0.054,0.095l-0.114,0.204l-0.124,0.224l-0.134,0.245l-0.145,0.266l-0.16,0.289l-0.175,0.312l-0.093,0.165l-0.098,0.171l-0.405,0.71l-0.405,0.712l-0.811,1.424l-0.81,1.425l-0.405,0.712l-0.406,0.71l-0.098,0.171l-0.096,0.164l-0.181,0.308l-0.168,0.283l-0.156,0.261l-0.144,0.239l-0.131,0.219l-0.119,0.202l-0.054,0.095l-0.052,0.091l-0.048,0.087l-0.045,0.084l-0.043,0.081l-0.039,0.079l-0.035,0.075l-0.033,0.073l-0.03,0.071l-0.026,0.069l-0.024,0.067l-0.02,0.066l-0.017,0.064l-0.014,0.063l-0.011,0.062l-0.005,0.031l-0.003,0.031l-0.003,0.03l-0.002,0.031l-0.001,0.03l-0.001,0.03l0.001,0.031l0.001,0.03l0.002,0.031l0.003,0.03l0.003,0.031l0.004,0.031l0.011,0.062l0.014,0.063l0.018,0.064l0.02,0.066l0.023,0.067l0.027,0.069l0.029,0.07l0.033,0.073l0.036,0.076l0.039,0.078l0.042,0.081l0.045,0.084l0.048,0.087l0.052,0.091l0.054,0.095l0.119,0.202l0.131,0.219l0.143,0.239l0.156,0.26l0.169,0.283l0.181,0.308l0.095,0.163l0.098,0.171l0.401,0.7l0.402,0.701l0.803,1.407l0.402,0.704l0.404,0.704l0.404,0.702l0.405,0.701l0.097,0.172l0.093,0.165l0.174,0.313l0.158,0.289l0.146,0.267l0.133,0.246l0.122,0.224l0.114,0.205l0.054,0.096l0.052,0.09l0.05,0.086l0.05,0.082l0.048,0.078l0.048,0.073l0.046,0.069l0.047,0.066l0.045,0.061l0.046,0.058l0.046,0.054l0.046,0.05l0.046,0.048l0.047,0.044l0.048,0.04l0.024,0.019l0.025,0.019l0.024,0.018l0.026,0.017l0.025,0.016l0.026,0.016l0.026,0.014l0.027,0.015l0.027,0.013l0.027,0.013l0.028,0.012l0.029,0.012l0.059,0.022l0.061,0.019l0.063,0.017l0.066,0.015l0.07,0.014l0.072,0.011l0.075,0.009l0.079,0.008l0.083,0.007l0.086,0.005l0.091,0.004l0.094,0.002l0.1,0.002l0.103,0l0.109,0l0.232,-0.003l0.254,-0.004l0.276,-0.006l0.301,-0.006l0.328,-0.006l0.354,-0.003l0.188,-0.002l0.196,0l1.633,0l1.629,-0.002l1.629,-0.003l1.63,-0.004l0.196,0l0.188,0.001l0.355,0.004l0.328,0.006l0.301,0.006l0.277,0.006l0.254,0.005l0.232,0.003l0.109,0l0.104,0l0.099,-0.002l0.095,-0.002l0.09,-0.004l0.087,-0.005l0.082,-0.006l0.079,-0.008l0.076,-0.009l0.072,-0.011l0.069,-0.013l0.067,-0.015l0.063,-0.017l0.061,-0.019l0.059,-0.022l0.029,-0.011l0.028,-0.012l0.027,-0.013l0.027,-0.014l0.027,-0.014l0.026,-0.015l0.026,-0.015l0.026,-0.016l0.025,-0.017l0.025,-0.018l0.024,-0.018l0.025,-0.019l0.047,-0.041l0.048,-0.043l0.046,-0.047l0.046,-0.051l0.046,-0.054l0.046,-0.057l0.046,-0.061l0.046,-0.065l0.047,-0.069l0.048,-0.073l0.049,-0.078l0.05,-0.081l0.051,-0.086l0.052,-0.091l0.054,-0.095l0.115,-0.204l0.123,-0.225l0.135,-0.245l0.146,-0.266l0.16,-0.29l0.175,-0.312l0.094,-0.165l0.098,-0.172l0.4,-0.702l0.402,-0.703l0.805,-1.406l0.806,-1.406l0.804,-1.404l0.099,-0.171l0.095,-0.165l0.182,-0.309l0.17,-0.284l0.156,-0.261l0.145,-0.239l0.131,-0.22l0.12,-0.202l0.055,-0.095l0.051,-0.091l0.049,-0.087l0.046,-0.084l0.042,-0.081l0.039,-0.078l0.037,-0.076l0.033,-0.073l0.03,-0.071l0.026,-0.068l0.024,-0.067l0.021,-0.065l0.017,-0.064l0.014,-0.063l0.012,-0.062l0.004,-0.031l0.004,-0.031l0.002,-0.03l0.003,-0.03l0.001,-0.031l0,-0.03l0,-0.03l-0.001,-0.031l-0.002,-0.03l-0.002,-0.03l-0.004,-0.031l-0.004,-0.031l-0.011,-0.062l-0.013,-0.062l-0.017,-0.064l-0.02,-0.065l-0.024,-0.067l-0.026,-0.069l-0.029,-0.07l-0.033,-0.073l-0.036,-0.075l-0.038,-0.078l-0.042,-0.081l-0.045,-0.084l-0.048,-0.087l-0.052,-0.091l-0.054,-0.094l-0.118,-0.201l-0.131,-0.22l-0.143,-0.238l-0.155,-0.26l-0.169,-0.283l-0.18,-0.308l-0.095,-0.164l-0.098,-0.171l-0.821,-1.424l-0.821,-1.422l-0.409,-0.711l-0.408,-0.711l-0.407,-0.71l-0.405,-0.711l-0.098,-0.171l-0.093,-0.165l-0.174,-0.312l-0.159,-0.288l-0.146,-0.266l-0.133,-0.245l-0.123,-0.224l-0.114,-0.204l-0.054,-0.095l-0.053,-0.09l-0.05,-0.086l-0.05,-0.081l-0.049,-0.078l-0.047,-0.073l-0.047,-0.068l-0.047,-0.065l-0.046,-0.062l-0.046,-0.057l-0.045,-0.054l-0.047,-0.05l-0.046,-0.047l-0.047,-0.044l-0.048,-0.04l-0.025,-0.019l-0.024,-0.018l-0.025,-0.018l-0.026,-0.017l-0.025,-0.016l-0.026,-0.016l-0.026,-0.014l-0.027,-0.014l-0.027,-0.014l-0.028,-0.013l-0.028,-0.012l-0.029,-0.011l-0.059,-0.022l-0.061,-0.019l-0.064,-0.017l-0.066,-0.014l-0.07,-0.013l-0.072,-0.011l-0.076,-0.01l-0.079,-0.007l-0.083,-0.006l-0.087,-0.005l-0.091,-0.003l-0.095,-0.003l-0.099,-0.001l-0.104,0l-0.109,0.001l-0.233,0.003l-0.255,0.005l-0.277,0.007l-0.302,0.007l-0.328,0.006l-0.356,0.005l-0.189,0.002l-0.196,0.001l-3.214,-0.008l-3.217,-0.006l-0.196,-0.001l-0.189,-0.001l-0.357,-0.005l-0.328,-0.006l-0.303,-0.006l-0.277,-0.006l-0.255,-0.006l-0.233,-0.003l-0.109,0l-0.105,0Zm5.723,1.905l0.122,0.002l0.121,0.004l0.121,0.006l0.122,0.007l0.121,0.008l0.121,0.01l0.122,0.011l0.121,0.013l0.121,0.014l0.121,0.016l0.121,0.018l0.121,0.019l0.121,0.02l0.121,0.022l0.121,0.023l0.12,0.025l0.121,0.027l0.12,0.028l0.12,0.03l0.12,0.031l0.12,0.033l0.119,0.034l0.119,0.036l0.119,0.037l0.119,0.039l0.118,0.041l0.118,0.042l0.118,0.044l0.118,0.045l0.117,0.047l0.117,0.048l0.116,0.05l0.117,0.052l0.115,0.053l0.116,0.055l0.115,0.057l0.114,0.058l0.114,0.059l0.114,0.062l0.113,0.062l0.113,0.065l0.112,0.066l0.111,0.068l0.11,0.068l0.109,0.07l0.107,0.071l0.107,0.073l0.105,0.073l0.104,0.074l0.102,0.076l0.102,0.077l0.1,0.078l0.099,0.079l0.098,0.08l0.097,0.081l0.096,0.082l0.094,0.083l0.093,0.084l0.092,0.086l0.091,0.086l0.089,0.087l0.088,0.088l0.087,0.089l0.086,0.09l0.084,0.091l0.084,0.092l0.082,0.093l0.08,0.094l0.08,0.094l0.078,0.095l0.077,0.097l0.076,0.097l0.074,0.098l0.073,0.098l0.072,0.1l0.07,0.1l0.07,0.101l0.068,0.102l0.066,0.103l0.066,0.103l0.064,0.104l0.063,0.104l0.061,0.106l0.06,0.106l0.059,0.106l0.058,0.108l0.056,0.108l0.055,0.108l0.053,0.11l0.053,0.109l0.05,0.111l0.05,0.11l0.048,0.112l0.047,0.112l0.046,0.112l0.044,0.113l0.043,0.114l0.041,0.114l0.04,0.114l0.039,0.115l0.037,0.116l0.036,0.115l0.035,0.117l0.033,0.116l0.032,0.117l0.03,0.118l0.029,0.117l0.028,0.118l0.026,0.119l0.025,0.119l0.023,0.119l0.022,0.119l0.021,0.119l0.019,0.12l0.018,0.12l0.016,0.121l0.015,0.12l0.014,0.121l0.012,0.121l0.01,0.121l0.01,0.122l0.007,0.121l0.007,0.122l0.004,0.122l0.004,0.122l0.002,0.122l0,0.122l-0.001,0.122l-0.002,0.122l-0.004,0.122l-0.006,0.123l-0.007,0.122l-0.008,0.122l-0.01,0.123l-0.012,0.122l-0.012,0.122l-0.015,0.123l-0.016,0.122l-0.017,0.122l-0.019,0.122l-0.02,0.122l-0.022,0.122l-0.024,0.122l-0.025,0.121l-0.026,0.122l-0.028,0.121l-0.03,0.121l-0.031,0.121l-0.033,0.12l-0.034,0.121l-0.036,0.12l-0.037,0.12l-0.039,0.12l-0.04,0.119l-0.042,0.119l-0.044,0.119l-0.045,0.119l-0.047,0.118l-0.048,0.118l-0.05,0.117l-0.051,0.118l-0.053,0.116l-0.055,0.117l-0.056,0.116l-0.058,0.115l-0.059,0.115l-0.061,0.115l-0.063,0.114l-0.064,0.114l-0.066,0.113l-0.066,0.111l-0.069,0.111l-0.069,0.109l-0.07,0.108l-0.072,0.107l-0.072,0.105l-0.074,0.105l-0.075,0.103l-0.076,0.102l-0.078,0.101l-0.078,0.1l-0.079,0.098l-0.081,0.097l-0.081,0.097l-0.082,0.094l-0.084,0.094l-0.084,0.092l-0.086,0.091l-0.086,0.09l-0.088,0.089l-0.088,0.087l-0.089,0.087l-0.091,0.085l-0.091,0.083l-0.092,0.083l-0.093,0.081l-0.093,0.08l-0.095,0.079l-0.095,0.077l-0.097,0.076l-0.097,0.075l-0.098,0.073l-0.098,0.073l-0.1,0.071l-0.1,0.069l-0.101,0.069l-0.102,0.067l-0.102,0.066l-0.103,0.064l-0.104,0.063l-0.105,0.062l-0.105,0.061l-0.105,0.059l-0.107,0.058l-0.107,0.056l-0.108,0.056l-0.108,0.054l-0.109,0.052l-0.109,0.051l-0.11,0.05l-0.111,0.049l-0.111,0.047l-0.112,0.046l-0.112,0.044l-0.112,0.043l-0.113,0.042l-0.114,0.04l-0.114,0.039l-0.114,0.038l-0.115,0.036l-0.116,0.035l-0.115,0.034l-0.116,0.032l-0.117,0.03l-0.117,0.03l-0.117,0.027l-0.117,0.027l-0.118,0.025l-0.118,0.023l-0.119,0.023l-0.118,0.02l-0.119,0.02l-0.119,0.018l-0.12,0.016l-0.119,0.015l-0.12,0.014l-0.12,0.012l-0.121,0.011l-0.12,0.009l-0.12,0.008l-0.121,0.006l-0.121,0.005l-0.121,0.003l-0.121,0.002l-0.121,0.001l-0.121,-0.001l-0.122,-0.003l-0.121,-0.004l-0.121,-0.005l-0.122,-0.007l-0.121,-0.009l-0.122,-0.01l-0.121,-0.011l-0.121,-0.013l-0.122,-0.014l-0.121,-0.016l-0.121,-0.018l-0.121,-0.019l-0.121,-0.02l-0.121,-0.023l-0.121,-0.023l-0.121,-0.025l-0.12,-0.027l-0.121,-0.028l-0.12,-0.03l-0.12,-0.031l-0.119,-0.033l-0.12,-0.035l-0.119,-0.036l-0.119,-0.037l-0.119,-0.039l-0.119,-0.041l-0.118,-0.042l-0.118,-0.044l-0.117,-0.046l-0.118,-0.047l-0.117,-0.048l-0.116,-0.051l-0.117,-0.051l-0.116,-0.054l-0.115,-0.055l-0.115,-0.057l-0.115,-0.058l-0.114,-0.06l-0.114,-0.061l-0.113,-0.063l-0.113,-0.065l-0.112,-0.066l-0.11,-0.067l-0.11,-0.069l-0.108,-0.069l-0.107,-0.071l-0.106,-0.072l-0.105,-0.073l-0.104,-0.075l-0.102,-0.075l-0.101,-0.077l-0.101,-0.077l-0.098,-0.079l-0.098,-0.08l-0.096,-0.081l-0.096,-0.082l-0.094,-0.083l-0.093,-0.084l-0.091,-0.085l-0.091,-0.086l-0.089,-0.087l-0.088,-0.088l-0.086,-0.089l-0.086,-0.09l-0.084,-0.091l-0.083,-0.091l-0.082,-0.093l-0.08,-0.093l-0.08,-0.095l-0.078,-0.095l-0.076,-0.096l-0.076,-0.097l-0.074,-0.098l-0.073,-0.098l-0.072,-0.1l-0.07,-0.1l-0.069,-0.101l-0.068,-0.101l-0.066,-0.103l-0.066,-0.103l-0.064,-0.104l-0.062,-0.104l-0.062,-0.106l-0.06,-0.105l-0.058,-0.107l-0.058,-0.107l-0.056,-0.108l-0.055,-0.108l-0.053,-0.11l-0.052,-0.109l-0.051,-0.11l-0.049,-0.111l-0.049,-0.112l-0.046,-0.111l-0.046,-0.113l-0.044,-0.113l-0.043,-0.113l-0.041,-0.114l-0.04,-0.114l-0.039,-0.115l-0.037,-0.115l-0.036,-0.116l-0.034,-0.116l-0.033,-0.117l-0.032,-0.117l-0.031,-0.117l-0.029,-0.117l-0.027,-0.118l-0.026,-0.119l-0.025,-0.118l-0.024,-0.119l-0.022,-0.119l-0.02,-0.12l-0.019,-0.12l-0.018,-0.12l-0.016,-0.12l-0.015,-0.12l-0.014,-0.121l-0.012,-0.121l-0.011,-0.121l-0.009,-0.121l-0.007,-0.122l-0.007,-0.121l-0.005,-0.122l-0.003,-0.122l-0.002,-0.122l0,-0.122l0.001,-0.122l0.002,-0.122l0.004,-0.122l0.006,-0.122l0.006,-0.122l0.009,-0.123l0.01,-0.122l0.011,-0.122l0.013,-0.122l0.014,-0.122l0.016,-0.123l0.017,-0.122l0.019,-0.121l0.021,-0.122l0.021,-0.122l0.024,-0.122l0.025,-0.121l0.026,-0.121l0.028,-0.121l0.03,-0.121l0.031,-0.121l0.032,-0.121l0.035,-0.12l0.035,-0.12l0.037,-0.12l0.039,-0.119l0.041,-0.12l0.041,-0.119l0.044,-0.119l0.045,-0.118l0.047,-0.118l0.048,-0.118l0.049,-0.117l0.052,-0.117l0.053,-0.117l0.054,-0.116l0.056,-0.116l0.058,-0.115l0.059,-0.115l0.061,-0.114l0.063,-0.114l0.064,-0.114l0.066,-0.113l0.066,-0.112l0.068,-0.11l0.069,-0.11l0.071,-0.108l0.071,-0.107l0.073,-0.106l0.074,-0.105l0.075,-0.103l0.076,-0.103l0.077,-0.101l0.078,-0.1l0.079,-0.098l0.081,-0.098l0.081,-0.096l0.082,-0.095l0.084,-0.094l0.084,-0.093l0.086,-0.091l0.086,-0.09l0.087,-0.089l0.089,-0.087l0.089,-0.087l0.09,-0.085l0.091,-0.084l0.092,-0.082l0.093,-0.082l0.093,-0.08l0.095,-0.079l0.095,-0.077l0.097,-0.076l0.097,-0.075l0.097,-0.074l0.099,-0.073l0.099,-0.071l0.101,-0.07l0.101,-0.068l0.101,-0.067l0.103,-0.066l0.103,-0.065l0.103,-0.063l0.105,-0.062l0.105,-0.061l0.106,-0.059l0.106,-0.058l0.107,-0.057l0.108,-0.055l0.108,-0.054l0.109,-0.053l0.109,-0.051l0.11,-0.05l0.111,-0.049l0.111,-0.047l0.111,-0.046l0.112,-0.045l0.113,-0.043l0.113,-0.042l0.113,-0.04l0.114,-0.039l0.114,-0.038l0.115,-0.036l0.116,-0.035l0.115,-0.034l0.116,-0.032l0.116,-0.03l0.117,-0.03l0.117,-0.028l0.118,-0.026l0.117,-0.025l0.118,-0.024l0.119,-0.022l0.118,-0.021l0.119,-0.02l0.119,-0.018l0.12,-0.016l0.119,-0.015l0.12,-0.014l0.12,-0.012l0.12,-0.011l0.12,-0.009l0.121,-0.008l0.121,-0.007l0.12,-0.005l0.121,-0.003l0.121,-0.002l0.121,-0.001l0.121,0.001Zm-0.238,0.832l-0.112,0.002l-0.111,0.003l-0.111,0.004l-0.11,0.006l-0.111,0.007l-0.111,0.009l-0.11,0.01l-0.11,0.011l-0.11,0.012l-0.11,0.014l-0.11,0.015l-0.109,0.017l-0.109,0.018l-0.109,0.019l-0.109,0.02l-0.109,0.022l-0.108,0.023l-0.108,0.024l-0.107,0.026l-0.108,0.026l-0.107,0.029l-0.106,0.029l-0.106,0.031l-0.106,0.032l-0.106,0.033l-0.105,0.035l-0.105,0.035l-0.104,0.037l-0.104,0.039l-0.103,0.039l-0.103,0.041l-0.103,0.042l-0.102,0.044l-0.101,0.044l-0.102,0.046l-0.1,0.047l-0.1,0.048l-0.1,0.05l-0.099,0.051l-0.098,0.052l-0.098,0.053l-0.097,0.054l-0.097,0.056l-0.096,0.057l-0.095,0.058l-0.095,0.059l-0.094,0.061l-0.093,0.061l-0.093,0.063l-0.092,0.064l-0.092,0.065l-0.09,0.067l-0.09,0.067l-0.089,0.069l-0.089,0.07l-0.087,0.071l-0.087,0.073l-0.087,0.073l-0.085,0.075l-0.084,0.075l-0.084,0.077l-0.083,0.078l-0.082,0.08l-0.081,0.08l-0.08,0.082l-0.08,0.082l-0.078,0.084l-0.078,0.085l-0.077,0.086l-0.075,0.087l-0.075,0.089l-0.074,0.089l-0.073,0.091l-0.072,0.091l-0.071,0.093l-0.07,0.094l-0.068,0.095l-0.068,0.096l-0.067,0.097l-0.066,0.098l-0.064,0.1l-0.064,0.1l-0.062,0.102l-0.062,0.102l-0.06,0.104l-0.059,0.104l-0.057,0.105l-0.056,0.105l-0.054,0.105l-0.053,0.106l-0.052,0.106l-0.05,0.107l-0.048,0.107l-0.047,0.107l-0.046,0.108l-0.044,0.108l-0.043,0.108l-0.041,0.109l-0.04,0.109l-0.038,0.109l-0.037,0.109l-0.036,0.11l-0.034,0.11l-0.032,0.11l-0.032,0.11l-0.029,0.111l-0.029,0.111l-0.027,0.111l-0.025,0.111l-0.025,0.111l-0.022,0.112l-0.022,0.111l-0.02,0.112l-0.018,0.112l-0.017,0.112l-0.016,0.112l-0.015,0.112l-0.013,0.112l-0.011,0.112l-0.011,0.112l-0.009,0.113l-0.007,0.112l-0.006,0.112l-0.005,0.112l-0.004,0.112l-0.002,0.112l0,0.113l0,0.112l0.002,0.111l0.003,0.112l0.005,0.112l0.006,0.112l0.007,0.111l0.009,0.111l0.009,0.112l0.012,0.111l0.012,0.11l0.014,0.111l0.015,0.11l0.017,0.111l0.017,0.11l0.019,0.109l0.021,0.11l0.021,0.109l0.023,0.109l0.025,0.109l0.025,0.108l0.027,0.108l0.028,0.108l0.029,0.107l0.031,0.107l0.032,0.107l0.033,0.106l0.034,0.106l0.036,0.105l0.037,0.105l0.038,0.105l0.039,0.104l0.041,0.104l0.042,0.103l0.043,0.103l0.044,0.102l0.045,0.102l0.047,0.101l0.048,0.1l0.049,0.101l0.051,0.099l0.051,0.099l0.053,0.099l0.054,0.098l0.056,0.097l0.056,0.097l0.058,0.096l0.058,0.095l0.06,0.095l0.062,0.094l0.062,0.093l0.064,0.093l0.064,0.092l0.066,0.091l0.067,0.091l0.068,0.089l0.07,0.089l0.07,0.089l0.072,0.087l0.073,0.087l0.074,0.086l0.075,0.085l0.076,0.084l0.078,0.083l0.078,0.083l0.08,0.082l0.081,0.081l0.082,0.079l0.083,0.079l0.084,0.079l0.085,0.077l0.086,0.076l0.088,0.075l0.089,0.075l0.089,0.073l0.091,0.072l0.092,0.072l0.093,0.07l0.094,0.069l0.095,0.068l0.096,0.068l0.098,0.066l0.098,0.065l0.099,0.064l0.101,0.063l0.101,0.061l0.103,0.061l0.104,0.059l0.104,0.058l0.104,0.057l0.105,0.054l0.105,0.054l0.106,0.052l0.106,0.05l0.106,0.049l0.107,0.048l0.107,0.046l0.107,0.044l0.108,0.043l0.108,0.042l0.108,0.04l0.109,0.039l0.109,0.037l0.109,0.036l0.109,0.034l0.11,0.033l0.109,0.032l0.11,0.03l0.11,0.029l0.111,0.027l0.11,0.026l0.111,0.025l0.11,0.023l0.111,0.021l0.111,0.02l0.111,0.019l0.111,0.018l0.112,0.016l0.111,0.014l0.111,0.014l0.112,0.012l0.111,0.01l0.111,0.009l0.112,0.008l0.111,0.006l0.112,0.005l0.111,0.004l0.111,0.002l0.112,0.001l0.111,0l0.111,-0.002l0.111,-0.003l0.111,-0.005l0.111,-0.005l0.11,-0.007l0.111,-0.009l0.11,-0.01l0.11,-0.011l0.11,-0.012l0.11,-0.014l0.11,-0.015l0.109,-0.017l0.109,-0.017l0.109,-0.019l0.109,-0.021l0.108,-0.021l0.108,-0.023l0.108,-0.025l0.107,-0.025l0.108,-0.027l0.106,-0.028l0.107,-0.029l0.106,-0.031l0.106,-0.032l0.105,-0.033l0.105,-0.035l0.105,-0.035l0.104,-0.037l0.104,-0.039l0.103,-0.039l0.103,-0.041l0.102,-0.042l0.102,-0.043l0.102,-0.045l0.101,-0.045l0.1,-0.047l0.1,-0.048l0.099,-0.05l0.099,-0.051l0.098,-0.051l0.098,-0.053l0.097,-0.055l0.096,-0.055l0.096,-0.057l0.096,-0.058l0.094,-0.059l0.094,-0.06l0.093,-0.062l0.093,-0.063l0.092,-0.063l0.091,-0.065l0.091,-0.067l0.089,-0.067l0.089,-0.069l0.089,-0.07l0.087,-0.071l0.087,-0.072l0.086,-0.073l0.085,-0.074l0.085,-0.076l0.083,-0.077l0.083,-0.078l0.082,-0.079l0.081,-0.08l0.08,-0.081l0.079,-0.082l0.079,-0.084l0.077,-0.085l0.077,-0.086l0.075,-0.087l0.075,-0.088l0.074,-0.089l0.072,-0.09l0.072,-0.091l0.071,-0.093l0.07,-0.094l0.068,-0.094l0.068,-0.096l0.067,-0.097l0.065,-0.098l0.065,-0.099l0.063,-0.1l0.063,-0.101l0.061,-0.103l0.06,-0.103l0.059,-0.104l0.058,-0.105l0.056,-0.106l0.054,-0.105l0.053,-0.106l0.052,-0.107l0.05,-0.107l0.049,-0.107l0.047,-0.107l0.046,-0.108l0.044,-0.108l0.043,-0.109l0.042,-0.109l0.04,-0.109l0.038,-0.109l0.037,-0.11l0.036,-0.11l0.034,-0.11l0.033,-0.11l0.032,-0.111l0.03,-0.111l0.028,-0.111l0.027,-0.111l0.026,-0.111l0.024,-0.112l0.023,-0.111l0.022,-0.112l0.02,-0.112l0.019,-0.112l0.017,-0.112l0.016,-0.112l0.015,-0.112l0.013,-0.113l0.012,-0.112l0.01,-0.112l0.009,-0.113l0.008,-0.112l0.006,-0.112l0.005,-0.113l0.004,-0.112l0.002,-0.112l0.001,-0.112l0,-0.112l-0.002,-0.112l-0.003,-0.112l-0.004,-0.112l-0.006,-0.112l-0.007,-0.111l-0.009,-0.112l-0.009,-0.111l-0.011,-0.111l-0.013,-0.111l-0.014,-0.111l-0.015,-0.11l-0.016,-0.111l-0.018,-0.11l-0.018,-0.109l-0.021,-0.11l-0.021,-0.109l-0.023,-0.109l-0.024,-0.109l-0.026,-0.108l-0.026,-0.108l-0.028,-0.108l-0.029,-0.108l-0.031,-0.107l-0.032,-0.106l-0.033,-0.107l-0.034,-0.105l-0.035,-0.106l-0.037,-0.105l-0.038,-0.105l-0.04,-0.104l-0.04,-0.104l-0.042,-0.103l-0.043,-0.103l-0.044,-0.102l-0.046,-0.102l-0.047,-0.101l-0.048,-0.101l-0.049,-0.1l-0.05,-0.1l-0.052,-0.099l-0.053,-0.098l-0.054,-0.098l-0.055,-0.097l-0.056,-0.097l-0.058,-0.096l-0.059,-0.096l-0.06,-0.094l-0.061,-0.094l-0.062,-0.094l-0.064,-0.093l-0.065,-0.092l-0.066,-0.091l-0.067,-0.091l-0.068,-0.089l-0.07,-0.089l-0.07,-0.089l-0.072,-0.087l-0.073,-0.087l-0.074,-0.086l-0.075,-0.085l-0.077,-0.084l-0.077,-0.084l-0.079,-0.082l-0.08,-0.082l-0.081,-0.081l-0.082,-0.08l-0.083,-0.079l-0.084,-0.078l-0.086,-0.078l-0.087,-0.076l-0.087,-0.075l-0.089,-0.075l-0.09,-0.073l-0.091,-0.072l-0.092,-0.072l-0.093,-0.07l-0.095,-0.07l-0.095,-0.068l-0.096,-0.067l-0.098,-0.066l-0.099,-0.065l-0.099,-0.065l-0.101,-0.062l-0.102,-0.062l-0.103,-0.061l-0.103,-0.059l-0.104,-0.058l-0.104,-0.056l-0.105,-0.055l-0.105,-0.054l-0.105,-0.052l-0.106,-0.05l-0.106,-0.049l-0.107,-0.047l-0.106,-0.046l-0.108,-0.045l-0.107,-0.043l-0.108,-0.042l-0.108,-0.04l-0.108,-0.039l-0.109,-0.037l-0.109,-0.036l-0.109,-0.034l-0.109,-0.033l-0.11,-0.032l-0.11,-0.03l-0.11,-0.029l-0.11,-0.027l-0.11,-0.026l-0.111,-0.024l-0.11,-0.023l-0.111,-0.022l-0.111,-0.02l-0.111,-0.019l-0.111,-0.017l-0.111,-0.016l-0.112,-0.015l-0.111,-0.013l-0.111,-0.012l-0.112,-0.011l-0.111,-0.009l-0.111,-0.007l-0.112,-0.007l-0.111,-0.005l-0.112,-0.003l-0.111,-0.003l-0.111,-0.001l-0.111,0.001Zm0.195,2.034l0.086,0.002l0.087,0.003l0.087,0.004l0.087,0.004l0.087,0.006l0.087,0.007l0.087,0.008l0.087,0.01l0.087,0.01l0.086,0.011l0.087,0.012l0.087,0.014l0.086,0.015l0.087,0.015l0.086,0.017l0.087,0.018l0.086,0.019l0.086,0.02l0.086,0.021l0.086,0.022l0.085,0.024l0.086,0.024l0.085,0.026l0.085,0.026l0.085,0.028l0.085,0.029l0.085,0.03l0.084,0.031l0.084,0.033l0.084,0.033l0.084,0.035l0.083,0.036l0.083,0.037l0.083,0.038l0.082,0.039l0.083,0.04l0.082,0.042l0.081,0.042l0.081,0.044l0.081,0.045l0.081,0.046l0.08,0.048l0.08,0.048l0.079,0.049l0.078,0.05l0.077,0.051l0.076,0.052l0.075,0.053l0.075,0.053l0.074,0.055l0.073,0.055l0.072,0.056l0.071,0.056l0.07,0.058l0.069,0.058l0.069,0.059l0.067,0.06l0.067,0.06l0.066,0.061l0.065,0.062l0.064,0.063l0.064,0.063l0.062,0.064l0.061,0.064l0.061,0.066l0.06,0.066l0.059,0.066l0.057,0.067l0.057,0.068l0.057,0.069l0.055,0.069l0.054,0.069l0.053,0.071l0.053,0.07l0.051,0.072l0.051,0.072l0.05,0.072l0.048,0.073l0.048,0.074l0.047,0.074l0.046,0.074l0.045,0.076l0.044,0.075l0.044,0.076l0.042,0.077l0.041,0.077l0.04,0.077l0.04,0.078l0.038,0.078l0.038,0.079l0.036,0.079l0.036,0.08l0.034,0.08l0.034,0.08l0.033,0.081l0.031,0.081l0.031,0.081l0.03,0.082l0.029,0.082l0.027,0.082l0.027,0.083l0.026,0.083l0.025,0.084l0.024,0.083l0.022,0.084l0.022,0.084l0.021,0.085l0.02,0.084l0.019,0.085l0.018,0.085l0.017,0.086l0.015,0.085l0.015,0.086l0.014,0.086l0.013,0.086l0.011,0.087l0.011,0.086l0.01,0.087l0.009,0.086l0.007,0.087l0.007,0.087l0.005,0.088l0.005,0.087l0.003,0.087l0.003,0.088l0.001,0.087l0.001,0.088l-0.001,0.087l-0.002,0.088l-0.003,0.088l-0.004,0.087l-0.005,0.088l-0.006,0.088l-0.007,0.087l-0.008,0.088l-0.009,0.088l-0.01,0.088l-0.012,0.087l-0.012,0.088l-0.014,0.087l-0.014,0.088l-0.016,0.087l-0.017,0.087l-0.018,0.088l-0.019,0.087l-0.02,0.087l-0.021,0.086l-0.022,0.087l-0.024,0.087l-0.024,0.086l-0.026,0.086l-0.027,0.086l-0.027,0.086l-0.029,0.086l-0.031,0.085l-0.031,0.085l-0.032,0.085l-0.034,0.085l-0.034,0.085l-0.036,0.084l-0.037,0.084l-0.038,0.083l-0.039,0.084l-0.04,0.083l-0.042,0.083l-0.042,0.082l-0.044,0.083l-0.045,0.081l-0.046,0.082l-0.047,0.081l-0.048,0.08l-0.049,0.079l-0.049,0.078l-0.051,0.077l-0.051,0.077l-0.052,0.075l-0.053,0.075l-0.053,0.074l-0.055,0.073l-0.055,0.073l-0.056,0.071l-0.057,0.071l-0.058,0.069l-0.058,0.069l-0.059,0.068l-0.06,0.067l-0.06,0.066l-0.062,0.065l-0.061,0.065l-0.063,0.063l-0.063,0.063l-0.064,0.062l-0.065,0.061l-0.065,0.06l-0.066,0.059l-0.067,0.058l-0.067,0.057l-0.068,0.056l-0.068,0.056l-0.069,0.054l-0.069,0.054l-0.071,0.053l-0.07,0.051l-0.071,0.051l-0.072,0.05l-0.073,0.049l-0.072,0.048l-0.074,0.047l-0.074,0.047l-0.074,0.045l-0.075,0.044l-0.075,0.044l-0.076,0.042l-0.076,0.041l-0.077,0.041l-0.077,0.04l-0.078,0.038l-0.078,0.038l-0.078,0.037l-0.079,0.035l-0.079,0.035l-0.08,0.034l-0.08,0.033l-0.08,0.032l-0.081,0.03l-0.081,0.03l-0.081,0.029l-0.082,0.028l-0.082,0.027l-0.082,0.026l-0.083,0.025l-0.083,0.024l-0.083,0.023l-0.084,0.022l-0.083,0.021l-0.084,0.02l-0.084,0.019l-0.085,0.018l-0.084,0.017l-0.085,0.015l-0.085,0.015l-0.086,0.014l-0.085,0.013l-0.086,0.012l-0.085,0.011l-0.086,0.009l-0.086,0.009l-0.087,0.008l-0.086,0.006l-0.086,0.006l-0.087,0.004l-0.086,0.004l-0.087,0.002l-0.087,0.002l-0.087,0l-0.087,-0.001l-0.087,-0.002l-0.087,-0.002l-0.087,-0.004l-0.087,-0.005l-0.087,-0.006l-0.087,-0.008l-0.087,-0.008l-0.087,-0.009l-0.087,-0.011l-0.087,-0.011l-0.087,-0.013l-0.086,-0.013l-0.087,-0.015l-0.087,-0.016l-0.086,-0.017l-0.087,-0.018l-0.086,-0.019l-0.087,-0.02l-0.086,-0.022l-0.086,-0.022l-0.086,-0.024l-0.085,-0.024l-0.086,-0.026l-0.085,-0.027l-0.086,-0.028l-0.085,-0.03l-0.084,-0.03l-0.085,-0.031l-0.084,-0.033l-0.084,-0.034l-0.084,-0.035l-0.084,-0.036l-0.083,-0.037l-0.084,-0.038l-0.082,-0.04l-0.083,-0.04l-0.082,-0.042l-0.082,-0.043l-0.082,-0.044l-0.081,-0.046l-0.081,-0.046l-0.08,-0.047l-0.079,-0.048l-0.079,-0.049l-0.078,-0.05l-0.076,-0.051l-0.076,-0.052l-0.076,-0.052l-0.074,-0.053l-0.073,-0.054l-0.073,-0.055l-0.072,-0.056l-0.071,-0.056l-0.07,-0.058l-0.069,-0.058l-0.068,-0.058l-0.067,-0.06l-0.067,-0.06l-0.066,-0.061l-0.064,-0.062l-0.064,-0.062l-0.063,-0.063l-0.063,-0.064l-0.061,-0.064l-0.06,-0.065l-0.06,-0.066l-0.058,-0.066l-0.058,-0.067l-0.057,-0.068l-0.056,-0.068l-0.055,-0.069l-0.054,-0.07l-0.053,-0.07l-0.052,-0.07l-0.052,-0.072l-0.05,-0.071l-0.05,-0.073l-0.048,-0.073l-0.048,-0.073l-0.047,-0.074l-0.046,-0.074l-0.045,-0.075l-0.044,-0.076l-0.043,-0.076l-0.042,-0.076l-0.041,-0.077l-0.04,-0.077l-0.039,-0.078l-0.039,-0.078l-0.037,-0.079l-0.036,-0.079l-0.036,-0.079l-0.034,-0.08l-0.034,-0.08l-0.032,-0.081l-0.032,-0.081l-0.031,-0.081l-0.029,-0.082l-0.029,-0.082l-0.028,-0.082l-0.027,-0.083l-0.025,-0.083l-0.025,-0.083l-0.024,-0.083l-0.023,-0.084l-0.021,-0.084l-0.021,-0.084l-0.02,-0.085l-0.019,-0.085l-0.018,-0.085l-0.016,-0.085l-0.016,-0.086l-0.015,-0.085l-0.014,-0.086l-0.013,-0.086l-0.011,-0.086l-0.011,-0.087l-0.01,-0.086l-0.008,-0.087l-0.008,-0.087l-0.007,-0.086l-0.005,-0.088l-0.005,-0.087l-0.003,-0.087l-0.003,-0.087l-0.001,-0.087l0,-0.088l0,-0.087l0.002,-0.088l0.003,-0.087l0.004,-0.088l0.004,-0.088l0.006,-0.087l0.007,-0.088l0.009,-0.087l0.009,-0.088l0.01,-0.087l0.011,-0.088l0.013,-0.087l0.013,-0.088l0.015,-0.087l0.015,-0.087l0.017,-0.087l0.018,-0.087l0.019,-0.087l0.02,-0.087l0.021,-0.086l0.022,-0.087l0.023,-0.086l0.024,-0.086l0.026,-0.086l0.027,-0.086l0.027,-0.086l0.029,-0.085l0.03,-0.086l0.031,-0.085l0.032,-0.084l0.034,-0.085l0.034,-0.084l0.036,-0.084l0.036,-0.084l0.038,-0.083l0.039,-0.084l0.04,-0.082l0.041,-0.083l0.043,-0.082l0.043,-0.082l0.045,-0.082l0.046,-0.081l0.047,-0.081l0.048,-0.08l0.049,-0.079l0.05,-0.079l0.05,-0.077l0.051,-0.077l0.053,-0.076l0.053,-0.075l0.053,-0.074l0.055,-0.074l0.055,-0.072l0.056,-0.072l0.057,-0.07l0.058,-0.07l0.058,-0.069l0.06,-0.068l0.059,-0.068l0.061,-0.066l0.061,-0.065l0.062,-0.065l0.063,-0.064l0.063,-0.062l0.064,-0.062l0.065,-0.061l0.065,-0.06l0.066,-0.06l0.067,-0.058l0.067,-0.057l0.068,-0.057l0.069,-0.055l0.069,-0.055l0.069,-0.054l0.07,-0.053l0.071,-0.052l0.072,-0.051l0.071,-0.05l0.073,-0.049l0.073,-0.048l0.073,-0.047l0.074,-0.046l0.075,-0.046l0.074,-0.044l0.076,-0.044l0.076,-0.042l0.076,-0.042l0.077,-0.041l0.077,-0.039l0.078,-0.039l0.078,-0.038l0.078,-0.037l0.079,-0.035l0.079,-0.035l0.08,-0.034l0.08,-0.033l0.08,-0.032l0.081,-0.031l0.081,-0.03l0.081,-0.029l0.082,-0.028l0.082,-0.027l0.083,-0.026l0.082,-0.025l0.083,-0.024l0.083,-0.023l0.084,-0.022l0.083,-0.021l0.084,-0.021l0.084,-0.019l0.085,-0.018l0.085,-0.017l0.084,-0.016l0.085,-0.015l0.086,-0.014l0.085,-0.013l0.085,-0.011l0.086,-0.011l0.086,-0.01l0.086,-0.009l0.086,-0.008l0.086,-0.007l0.087,-0.005l0.086,-0.005l0.087,-0.004l0.086,-0.002l0.087,-0.002l0.087,0l0.087,0Zm-0.173,0.822l-0.077,0.001l-0.077,0.003l-0.077,0.003l-0.077,0.004l-0.076,0.005l-0.077,0.006l-0.076,0.006l-0.076,0.008l-0.076,0.009l-0.076,0.009l-0.076,0.011l-0.076,0.011l-0.075,0.013l-0.076,0.013l-0.075,0.014l-0.075,0.015l-0.075,0.016l-0.074,0.017l-0.075,0.017l-0.074,0.019l-0.074,0.02l-0.074,0.02l-0.073,0.021l-0.073,0.022l-0.073,0.023l-0.073,0.024l-0.072,0.025l-0.072,0.026l-0.072,0.026l-0.072,0.028l-0.071,0.028l-0.071,0.029l-0.07,0.03l-0.071,0.031l-0.07,0.032l-0.069,0.032l-0.069,0.034l-0.069,0.034l-0.068,0.035l-0.068,0.036l-0.068,0.037l-0.067,0.038l-0.067,0.038l-0.066,0.04l-0.066,0.04l-0.066,0.041l-0.065,0.042l-0.064,0.042l-0.065,0.044l-0.063,0.044l-0.063,0.045l-0.063,0.046l-0.062,0.047l-0.062,0.048l-0.061,0.048l-0.061,0.049l-0.06,0.051l-0.059,0.05l-0.059,0.052l-0.059,0.053l-0.058,0.053l-0.057,0.054l-0.057,0.055l-0.056,0.055l-0.055,0.057l-0.055,0.057l-0.054,0.058l-0.054,0.059l-0.053,0.059l-0.052,0.061l-0.052,0.061l-0.051,0.062l-0.051,0.062l-0.049,0.064l-0.049,0.064l-0.049,0.065l-0.047,0.066l-0.047,0.066l-0.046,0.068l-0.046,0.068l-0.045,0.068l-0.044,0.07l-0.043,0.07l-0.042,0.071l-0.042,0.072l-0.041,0.072l-0.039,0.072l-0.039,0.073l-0.037,0.073l-0.037,0.073l-0.036,0.074l-0.034,0.073l-0.034,0.074l-0.032,0.075l-0.032,0.074l-0.03,0.075l-0.03,0.075l-0.028,0.075l-0.028,0.075l-0.026,0.076l-0.026,0.076l-0.024,0.076l-0.024,0.076l-0.022,0.076l-0.022,0.076l-0.021,0.077l-0.019,0.077l-0.019,0.077l-0.017,0.077l-0.017,0.077l-0.016,0.077l-0.015,0.077l-0.013,0.078l-0.013,0.077l-0.012,0.078l-0.011,0.077l-0.01,0.078l-0.009,0.078l-0.008,0.077l-0.007,0.078l-0.006,0.078l-0.006,0.078l-0.004,0.077l-0.003,0.078l-0.003,0.078l-0.001,0.078l-0.001,0.077l0.001,0.078l0.001,0.077l0.002,0.078l0.003,0.077l0.004,0.078l0.005,0.077l0.006,0.077l0.007,0.077l0.008,0.077l0.008,0.077l0.01,0.077l0.01,0.076l0.012,0.077l0.012,0.076l0.013,0.076l0.014,0.076l0.015,0.076l0.016,0.075l0.017,0.075l0.017,0.075l0.019,0.075l0.019,0.075l0.02,0.074l0.021,0.075l0.022,0.073l0.023,0.074l0.024,0.073l0.025,0.074l0.025,0.072l0.026,0.073l0.028,0.072l0.028,0.072l0.029,0.072l0.029,0.071l0.031,0.071l0.031,0.07l0.033,0.07l0.033,0.07l0.034,0.069l0.035,0.069l0.035,0.069l0.037,0.068l0.037,0.068l0.038,0.068l0.039,0.067l0.04,0.066l0.041,0.066l0.041,0.066l0.042,0.065l0.043,0.065l0.044,0.064l0.045,0.063l0.045,0.064l0.047,0.062l0.047,0.062l0.048,0.062l0.049,0.061l0.049,0.061l0.05,0.06l0.051,0.059l0.052,0.059l0.053,0.058l0.054,0.058l0.054,0.057l0.055,0.057l0.056,0.056l0.056,0.055l0.058,0.055l0.058,0.054l0.059,0.053l0.059,0.053l0.061,0.052l0.061,0.051l0.062,0.051l0.063,0.05l0.063,0.049l0.064,0.048l0.065,0.048l0.066,0.047l0.067,0.047l0.067,0.045l0.068,0.045l0.068,0.044l0.07,0.044l0.07,0.042l0.071,0.042l0.072,0.041l0.072,0.04l0.072,0.039l0.072,0.038l0.073,0.037l0.073,0.036l0.074,0.035l0.073,0.034l0.074,0.033l0.074,0.032l0.074,0.031l0.075,0.029l0.075,0.029l0.075,0.028l0.075,0.027l0.075,0.026l0.076,0.024l0.075,0.024l0.076,0.023l0.076,0.022l0.076,0.021l0.076,0.019l0.077,0.019l0.076,0.018l0.077,0.017l0.076,0.016l0.077,0.015l0.077,0.014l0.077,0.013l0.077,0.012l0.077,0.011l0.077,0.01l0.077,0.009l0.077,0.008l0.077,0.007l0.077,0.006l0.077,0.006l0.078,0.004l0.077,0.003l0.077,0.003l0.077,0.001l0.077,0.001l0.077,-0.001l0.077,-0.001l0.077,-0.002l0.077,-0.003l0.076,-0.005l0.077,-0.005l0.077,-0.006l0.076,-0.007l0.076,-0.007l0.076,-0.009l0.076,-0.01l0.076,-0.01l0.076,-0.012l0.076,-0.012l0.075,-0.014l0.075,-0.014l0.075,-0.015l0.075,-0.016l0.075,-0.017l0.074,-0.018l0.075,-0.018l0.074,-0.02l0.074,-0.02l0.073,-0.022l0.073,-0.022l0.073,-0.023l0.073,-0.024l0.073,-0.025l0.072,-0.026l0.072,-0.026l0.071,-0.028l0.071,-0.028l0.071,-0.029l0.071,-0.03l0.07,-0.031l0.07,-0.032l0.07,-0.033l0.069,-0.033l0.069,-0.034l0.068,-0.036l0.068,-0.036l0.068,-0.036l0.067,-0.038l0.067,-0.039l0.067,-0.039l0.066,-0.04l0.065,-0.041l0.065,-0.042l0.065,-0.043l0.064,-0.043l0.064,-0.045l0.063,-0.045l0.063,-0.046l0.062,-0.047l0.062,-0.047l0.061,-0.049l0.06,-0.049l0.061,-0.05l0.059,-0.051l0.059,-0.051l0.059,-0.052l0.058,-0.054l0.057,-0.054l0.057,-0.054l0.056,-0.056l0.055,-0.056l0.055,-0.057l0.054,-0.058l0.054,-0.059l0.053,-0.059l0.053,-0.061l0.051,-0.061l0.051,-0.061l0.051,-0.063l0.049,-0.063l0.05,-0.064l0.048,-0.065l0.047,-0.066l0.047,-0.066l0.047,-0.067l0.045,-0.068l0.045,-0.068l0.044,-0.07l0.043,-0.07l0.042,-0.07l0.042,-0.072l0.041,-0.072l0.04,-0.073l0.038,-0.072l0.038,-0.074l0.037,-0.073l0.036,-0.073l0.034,-0.074l0.034,-0.075l0.033,-0.074l0.031,-0.075l0.031,-0.074l0.029,-0.075l0.029,-0.076l0.028,-0.075l0.026,-0.076l0.026,-0.076l0.025,-0.076l0.023,-0.076l0.023,-0.076l0.022,-0.077l0.021,-0.077l0.019,-0.076l0.019,-0.077l0.018,-0.077l0.017,-0.077l0.016,-0.078l0.014,-0.077l0.014,-0.077l0.013,-0.078l0.012,-0.077l0.011,-0.078l0.01,-0.078l0.009,-0.077l0.009,-0.078l0.007,-0.078l0.006,-0.077l0.005,-0.078l0.005,-0.078l0.003,-0.078l0.003,-0.077l0.001,-0.078l0.001,-0.078l0,-0.077l-0.002,-0.078l-0.002,-0.077l-0.003,-0.078l-0.004,-0.077l-0.005,-0.077l-0.006,-0.077l-0.007,-0.077l-0.007,-0.077l-0.009,-0.077l-0.009,-0.077l-0.011,-0.076l-0.011,-0.076l-0.012,-0.077l-0.013,-0.076l-0.014,-0.075l-0.015,-0.076l-0.016,-0.075l-0.017,-0.076l-0.018,-0.075l-0.018,-0.075l-0.019,-0.074l-0.021,-0.074l-0.021,-0.075l-0.022,-0.073l-0.023,-0.074l-0.023,-0.073l-0.025,-0.073l-0.026,-0.073l-0.026,-0.072l-0.027,-0.073l-0.028,-0.071l-0.029,-0.072l-0.03,-0.071l-0.031,-0.071l-0.031,-0.07l-0.033,-0.07l-0.033,-0.07l-0.034,-0.069l-0.035,-0.069l-0.035,-0.069l-0.037,-0.068l-0.037,-0.068l-0.039,-0.067l-0.039,-0.067l-0.04,-0.066l-0.04,-0.066l-0.042,-0.066l-0.042,-0.065l-0.044,-0.065l-0.044,-0.064l-0.045,-0.064l-0.045,-0.063l-0.047,-0.062l-0.047,-0.062l-0.048,-0.062l-0.049,-0.061l-0.05,-0.061l-0.05,-0.06l-0.051,-0.059l-0.053,-0.059l-0.052,-0.058l-0.054,-0.058l-0.055,-0.057l-0.055,-0.057l-0.056,-0.055l-0.057,-0.056l-0.057,-0.054l-0.059,-0.054l-0.059,-0.054l-0.06,-0.053l-0.06,-0.052l-0.062,-0.051l-0.062,-0.051l-0.063,-0.05l-0.064,-0.049l-0.064,-0.049l-0.066,-0.048l-0.066,-0.047l-0.067,-0.046l-0.067,-0.046l-0.068,-0.045l-0.069,-0.044l-0.07,-0.043l-0.071,-0.043l-0.071,-0.042l-0.072,-0.041l-0.072,-0.04l-0.072,-0.039l-0.072,-0.038l-0.073,-0.037l-0.073,-0.036l-0.074,-0.035l-0.073,-0.034l-0.074,-0.033l-0.074,-0.031l-0.074,-0.031l-0.075,-0.03l-0.075,-0.029l-0.074,-0.028l-0.076,-0.027l-0.075,-0.025l-0.075,-0.025l-0.076,-0.024l-0.076,-0.023l-0.076,-0.022l-0.076,-0.021l-0.076,-0.019l-0.076,-0.019l-0.076,-0.018l-0.077,-0.017l-0.077,-0.016l-0.076,-0.015l-0.077,-0.014l-0.077,-0.013l-0.077,-0.012l-0.077,-0.011l-0.077,-0.01l-0.077,-0.01l-0.077,-0.008l-0.077,-0.007l-0.077,-0.006l-0.077,-0.006l-0.077,-0.004l-0.077,-0.004l-0.077,-0.002l-0.078,-0.002l-0.077,0l-0.076,0Z"
                  style="fill:#201e1e;fill-opacity:0.56;"/>
            <circle cx="13.982"
                    cy="14.085"
                    r="9.333"
                    style="fill:#444;stroke:#1a1a1a;stroke-width:1.5px;"/>
        </g>
        <circle cx="14.001" cy="14.084" r="6.458"/>
        <g transform="matrix(1.12285,0,0,4.82292,12.003,-50.4092)">
            <path d="M3.221,13.307c0,-0.073 -0.255,-0.133 -0.568,-0.133l-1.781,0c-0.313,0 -0.568,0.06 -0.568,0.133l0,1.272c0,0.073 0.255,0.132 0.568,0.132l1.781,0c0.313,0 0.568,-0.059 0.568,-0.132l0,-1.272Z"
                  style="fill:#232323;"/>
        </g>
    </g>
</svg>
