<?xml version="1.0" encoding="UTF-8" standalone="no"?>
<!DOCTYPE svg PUBLIC "-//W3C//DTD SVG 1.1//EN" "http://www.w3.org/Graphics/SVG/1.1/DTD/svg11.dtd">
<svg xmlns:xlink="http://www.w3.org/1999/xlink"
     xmlns:serif="http://www.serif.com/"
     width="28px"
     height="28px"
     version="1.1"
     xmlns="http://www.w3.org/2000/svg"
     xml:space="preserve"
     style="fill-rule:evenodd;clip-rule:evenodd;stroke-miterlimit:1.414;">
    <g id="IOPortB_3_">
        <g>
            <g transform="matrix(0.857143,0,0,0.857143,2,2)">
                <circle cx="14"
                        cy="14"
                        r="14"
                        style="stroke:#414141;stroke-width:2.33px;"/>
            </g>
            <g transform="matrix(-2.29197,-2.80685e-16,2.82457e-16,-2.30644,47.8424,35.9965)">
                <path d="M20.285,9.564c0,-0.009 0,-0.018 0,-0.027c0,-3.027 -2.473,-5.485 -5.519,-5.485c-3.046,0 -5.52,2.458 -5.52,5.485c0,0.009 0,0.018 0,0.027l11.039,0Z"
                      style="fill:#090909;"/>
                <path d="M9.246,9.537l0.001,-0.071l0.001,-0.07l0.002,-0.071l0.004,-0.07l0.004,-0.07l0.005,-0.07l0.005,-0.069l0.007,-0.069l0.007,-0.069l0.009,-0.069l0.009,-0.069l0.01,-0.068l0.011,-0.068l0.012,-0.067l0.012,-0.068l0.014,-0.067l0.014,-0.067l0.015,-0.066l0.016,-0.066l0.016,-0.066l0.018,-0.066l0.018,-0.065l0.019,-0.065l0.02,-0.064l0.02,-0.064l0.022,-0.064l0.022,-0.064l0.023,-0.063l0.023,-0.063l0.024,-0.062l0.026,-0.062l0.025,-0.062l0.027,-0.061l0.027,-0.061l0.028,-0.061l0.029,-0.06l0.029,-0.06l0.031,-0.059l0.03,-0.059l0.032,-0.058l0.032,-0.058l0.033,-0.058l0.034,-0.057l0.034,-0.057l0.035,-0.056l0.035,-0.056l0.037,-0.056l0.037,-0.055l0.037,-0.054l0.038,-0.054l0.039,-0.054l0.039,-0.053l0.041,-0.052l0.04,-0.052l0.041,-0.052l0.042,-0.051l0.043,-0.05l0.043,-0.05l0.044,-0.05l0.044,-0.049l0.045,-0.048l0.045,-0.048l0.046,-0.048l0.047,-0.046l0.047,-0.047l0.047,-0.045l0.049,-0.046l0.048,-0.044l0.05,-0.044l0.05,-0.044l0.05,-0.042l0.051,-0.043l0.051,-0.041l0.052,-0.041l0.052,-0.041l0.053,-0.039l0.054,-0.04l0.054,-0.038l0.054,-0.038l0.055,-0.037l0.055,-0.037l0.056,-0.036l0.056,-0.035l0.057,-0.035l0.057,-0.034l0.057,-0.034l0.058,-0.032l0.059,-0.032l0.059,-0.032l0.059,-0.03l0.06,-0.03l0.06,-0.029l0.06,-0.029l0.061,-0.028l0.061,-0.027l0.062,-0.026l0.062,-0.026l0.063,-0.025l0.063,-0.024l0.063,-0.024l0.063,-0.022l0.064,-0.022l0.065,-0.021l0.064,-0.021l0.065,-0.02l0.065,-0.018l0.066,-0.019l0.066,-0.017l0.066,-0.016l0.067,-0.016l0.067,-0.015l0.067,-0.014l0.067,-0.013l0.068,-0.013l0.068,-0.012l0.069,-0.01l0.068,-0.01l0.069,-0.01l0.069,-0.008l0.07,-0.007l0.069,-0.007l0.07,-0.006l0.07,-0.005l0.071,-0.004l0.07,-0.003l0.071,-0.002l0.071,-0.001l0.072,-0.001l0.071,0.001l0.071,0.001l0.071,0.002l0.071,0.003l0.07,0.004l0.07,0.005l0.07,0.006l0.07,0.007l0.069,0.007l0.069,0.008l0.069,0.01l0.069,0.01l0.068,0.01l0.068,0.012l0.068,0.013l0.067,0.013l0.068,0.014l0.066,0.015l0.067,0.016l0.066,0.016l0.066,0.017l0.066,0.019l0.065,0.018l0.065,0.02l0.065,0.021l0.064,0.021l0.064,0.022l0.064,0.022l0.063,0.024l0.063,0.024l0.062,0.025l0.062,0.026l0.062,0.026l0.061,0.027l0.061,0.028l0.061,0.029l0.06,0.029l0.059,0.03l0.06,0.03l0.059,0.032l0.058,0.032l0.058,0.032l0.058,0.034l0.057,0.034l0.056,0.035l0.057,0.035l0.055,0.036l0.056,0.037l0.054,0.037l0.055,0.038l0.054,0.038l0.053,0.04l0.053,0.039l0.052,0.041l0.052,0.041l0.052,0.041l0.05,0.043l0.051,0.042l0.05,0.044l0.049,0.044l0.049,0.044l0.048,0.046l0.048,0.045l0.047,0.047l0.046,0.046l0.046,0.048l0.046,0.048l0.044,0.048l0.045,0.049l0.043,0.05l0.043,0.05l0.043,0.05l0.042,0.051l0.041,0.052l0.041,0.052l0.04,0.052l0.039,0.053l0.039,0.054l0.038,0.054l0.038,0.054l0.037,0.055l0.036,0.056l0.036,0.056l0.034,0.056l0.035,0.057l0.033,0.057l0.033,0.058l0.032,0.058l0.032,0.058l0.031,0.059l0.03,0.059l0.029,0.06l0.029,0.06l0.028,0.061l0.027,0.061l0.027,0.061l0.026,0.062l0.025,0.062l0.024,0.062l0.024,0.063l0.023,0.063l0.022,0.064l0.021,0.064l0.021,0.064l0.019,0.064l0.019,0.065l0.019,0.065l0.017,0.066l0.017,0.066l0.016,0.066l0.015,0.066l0.014,0.067l0.013,0.067l0.013,0.068l0.011,0.067l0.011,0.068l0.01,0.068l0.01,0.069l0.008,0.069l0.007,0.069l0.007,0.069l0.006,0.069l0.005,0.07l0.004,0.07l0.003,0.07l0.002,0.071l0.002,0.07l0,0.071l0,0.027l-11.039,0l0,-0.027Zm10.032,-0.888l-0.006,-0.033l-0.012,-0.056l-0.013,-0.055l-0.013,-0.055l-0.014,-0.055l-0.014,-0.055l-0.015,-0.054l-0.016,-0.054l-0.017,-0.053l-0.017,-0.054l-0.018,-0.053l-0.018,-0.053l-0.019,-0.052l-0.02,-0.053l-0.02,-0.052l-0.021,-0.051l-0.021,-0.052l-0.022,-0.051l-0.023,-0.05l-0.023,-0.051l-0.024,-0.05l-0.025,-0.05l-0.025,-0.049l-0.026,-0.049l-0.026,-0.049l-0.027,-0.048l-0.027,-0.048l-0.028,-0.048l-0.029,-0.047l-0.029,-0.047l-0.029,-0.047l-0.031,-0.046l-0.03,-0.046l-0.032,-0.045l-0.031,-0.045l-0.033,-0.045l-0.033,-0.044l-0.033,-0.044l-0.034,-0.043l-0.035,-0.043l-0.034,-0.043l-0.036,-0.042l-0.036,-0.042l-0.036,-0.041l-0.037,-0.041l-0.038,-0.041l-0.038,-0.039l-0.038,-0.04l-0.039,-0.039l-0.039,-0.039l-0.04,-0.038l-0.04,-0.037l-0.041,-0.038l-0.041,-0.036l-0.042,-0.037l-0.042,-0.035l-0.042,-0.036l-0.043,-0.034l-0.043,-0.035l-0.044,-0.033l-0.044,-0.033l-0.044,-0.033l-0.045,-0.032l-0.046,-0.032l-0.045,-0.031l-0.047,-0.031l-0.046,-0.03l-0.047,-0.029l-0.047,-0.029l-0.048,-0.028l-0.048,-0.028l-0.048,-0.027l-0.049,-0.027l-0.049,-0.026l-0.049,-0.026l-0.05,-0.025l-0.05,-0.024l-0.05,-0.024l-0.051,-0.023l-0.051,-0.023l-0.051,-0.022l-0.052,-0.021l-0.052,-0.021l-0.052,-0.02l-0.053,-0.019l-0.053,-0.019l-0.053,-0.018l-0.053,-0.018l-0.054,-0.017l-0.054,-0.016l-0.055,-0.016l-0.054,-0.015l-0.055,-0.015l-0.055,-0.013l-0.056,-0.013l-0.055,-0.013l-0.056,-0.012l-0.056,-0.011l-0.057,-0.01l-0.056,-0.01l-0.057,-0.009l-0.058,-0.008l-0.057,-0.008l-0.058,-0.007l-0.057,-0.006l-0.058,-0.005l-0.059,-0.005l-0.058,-0.004l-0.059,-0.004l-0.059,-0.002l-0.059,-0.002l-0.06,-0.001l-0.059,-0.001l-0.06,0.001l-0.059,0.001l-0.06,0.002l-0.059,0.002l-0.058,0.004l-0.059,0.004l-0.058,0.005l-0.058,0.005l-0.058,0.006l-0.058,0.007l-0.057,0.008l-0.057,0.008l-0.057,0.009l-0.057,0.01l-0.056,0.01l-0.056,0.011l-0.056,0.012l-0.056,0.013l-0.055,0.013l-0.056,0.013l-0.054,0.015l-0.055,0.015l-0.054,0.016l-0.054,0.016l-0.054,0.017l-0.054,0.018l-0.053,0.018l-0.053,0.019l-0.052,0.019l-0.053,0.02l-0.052,0.021l-0.051,0.021l-0.052,0.022l-0.051,0.023l-0.05,0.023l-0.051,0.024l-0.05,0.024l-0.05,0.025l-0.049,0.026l-0.049,0.026l-0.049,0.027l-0.048,0.027l-0.048,0.028l-0.048,0.028l-0.047,0.029l-0.047,0.029l-0.046,0.03l-0.046,0.031l-0.046,0.031l-0.045,0.032l-0.045,0.032l-0.045,0.033l-0.044,0.033l-0.044,0.033l-0.043,0.035l-0.043,0.034l-0.042,0.036l-0.042,0.035l-0.042,0.037l-0.041,0.036l-0.04,0.038l-0.041,0.037l-0.039,0.038l-0.04,0.039l-0.039,0.039l-0.038,0.04l-0.038,0.039l-0.037,0.041l-0.037,0.041l-0.037,0.041l-0.036,0.042l-0.035,0.042l-0.035,0.043l-0.035,0.043l-0.033,0.043l-0.034,0.044l-0.033,0.044l-0.032,0.045l-0.032,0.045l-0.031,0.045l-0.031,0.046l-0.03,0.046l-0.03,0.047l-0.029,0.047l-0.029,0.047l-0.028,0.048l-0.027,0.048l-0.027,0.048l-0.026,0.049l-0.026,0.049l-0.025,0.049l-0.024,0.05l-0.024,0.05l-0.024,0.051l-0.022,0.05l-0.022,0.051l-0.022,0.052l-0.021,0.051l-0.02,0.052l-0.02,0.053l-0.019,0.052l-0.018,0.053l-0.018,0.053l-0.017,0.053l-0.016,0.054l-0.016,0.054l-0.015,0.054l-0.015,0.055l-0.014,0.055l-0.013,0.055l-0.012,0.055l-0.012,0.056l-0.007,0.033l9.025,0Z"
                      style="fill:#a3a3a3;"/>
            </g>
            <g transform="matrix(2.29197,4.93038e-32,0,2.30644,-19.8424,-7.9965)">
                <path d="M20.285,9.564c0,-0.009 0,-0.018 0,-0.027c0,-3.027 -2.473,-5.485 -5.519,-5.485c-3.046,0 -5.52,2.458 -5.52,5.485c0,0.009 0,0.018 0,0.027l11.039,0Z"
                      style="fill:#090909;"/>
                <path d="M14.837,4.053l0.071,0.001l0.071,0.002l0.071,0.003l0.07,0.004l0.07,0.005l0.07,0.006l0.07,0.007l0.069,0.007l0.069,0.008l0.069,0.01l0.069,0.01l0.068,0.01l0.068,0.012l0.068,0.013l0.067,0.013l0.068,0.014l0.066,0.015l0.067,0.016l0.066,0.016l0.066,0.017l0.066,0.019l0.065,0.018l0.065,0.02l0.065,0.021l0.064,0.021l0.064,0.022l0.064,0.022l0.063,0.024l0.063,0.024l0.062,0.025l0.062,0.026l0.062,0.026l0.061,0.027l0.061,0.028l0.061,0.029l0.06,0.029l0.059,0.03l0.06,0.03l0.059,0.032l0.058,0.032l0.058,0.032l0.058,0.034l0.057,0.034l0.056,0.035l0.057,0.035l0.055,0.036l0.056,0.037l0.054,0.037l0.055,0.038l0.054,0.038l0.053,0.04l0.053,0.039l0.052,0.041l0.052,0.041l0.052,0.041l0.05,0.043l0.051,0.042l0.05,0.044l0.049,0.044l0.049,0.044l0.048,0.046l0.048,0.045l0.047,0.047l0.046,0.046l0.046,0.048l0.046,0.048l0.044,0.048l0.045,0.049l0.043,0.05l0.043,0.05l0.043,0.05l0.042,0.051l0.041,0.052l0.041,0.052l0.04,0.052l0.039,0.053l0.039,0.054l0.038,0.054l0.038,0.054l0.037,0.055l0.036,0.056l0.036,0.056l0.034,0.056l0.035,0.057l0.033,0.057l0.033,0.058l0.032,0.058l0.032,0.058l0.031,0.059l0.03,0.059l0.029,0.06l0.029,0.06l0.028,0.061l0.027,0.061l0.027,0.061l0.026,0.062l0.025,0.062l0.024,0.062l0.024,0.063l0.023,0.063l0.022,0.064l0.021,0.064l0.021,0.064l0.019,0.064l0.019,0.065l0.019,0.065l0.017,0.066l0.017,0.066l0.016,0.066l0.015,0.066l0.014,0.067l0.013,0.067l0.013,0.068l0.011,0.067l0.011,0.068l0.01,0.068l0.01,0.069l0.008,0.069l0.007,0.069l0.007,0.069l0.006,0.069l0.005,0.07l0.004,0.07l0.003,0.07l0.002,0.071l0.002,0.07l0,0.071l0,0.027l-11.039,0l0,-0.027l0.001,-0.071l0.001,-0.07l0.002,-0.071l0.004,-0.07l0.004,-0.07l0.005,-0.07l0.005,-0.069l0.007,-0.069l0.007,-0.069l0.009,-0.069l0.009,-0.069l0.01,-0.068l0.011,-0.068l0.012,-0.067l0.012,-0.068l0.014,-0.067l0.014,-0.067l0.015,-0.066l0.016,-0.066l0.016,-0.066l0.018,-0.066l0.018,-0.065l0.019,-0.065l0.02,-0.064l0.02,-0.064l0.022,-0.064l0.022,-0.064l0.023,-0.063l0.023,-0.063l0.024,-0.062l0.026,-0.062l0.025,-0.062l0.027,-0.061l0.027,-0.061l0.028,-0.061l0.029,-0.06l0.029,-0.06l0.031,-0.059l0.03,-0.059l0.032,-0.058l0.032,-0.058l0.033,-0.058l0.034,-0.057l0.034,-0.057l0.035,-0.056l0.035,-0.056l0.037,-0.056l0.037,-0.055l0.037,-0.054l0.038,-0.054l0.039,-0.054l0.039,-0.053l0.041,-0.052l0.04,-0.052l0.041,-0.052l0.042,-0.051l0.043,-0.05l0.043,-0.05l0.044,-0.05l0.044,-0.049l0.045,-0.048l0.045,-0.048l0.046,-0.048l0.047,-0.046l0.047,-0.047l0.047,-0.045l0.049,-0.046l0.048,-0.044l0.05,-0.044l0.05,-0.044l0.05,-0.042l0.051,-0.043l0.051,-0.041l0.052,-0.041l0.052,-0.041l0.053,-0.039l0.054,-0.04l0.054,-0.038l0.054,-0.038l0.055,-0.037l0.055,-0.037l0.056,-0.036l0.056,-0.035l0.057,-0.035l0.057,-0.034l0.057,-0.034l0.058,-0.032l0.059,-0.032l0.059,-0.032l0.059,-0.03l0.06,-0.03l0.06,-0.029l0.06,-0.029l0.061,-0.028l0.061,-0.027l0.062,-0.026l0.062,-0.026l0.063,-0.025l0.063,-0.024l0.063,-0.024l0.063,-0.022l0.064,-0.022l0.065,-0.021l0.064,-0.021l0.065,-0.02l0.065,-0.018l0.066,-0.019l0.066,-0.017l0.066,-0.016l0.067,-0.016l0.067,-0.015l0.067,-0.014l0.067,-0.013l0.068,-0.013l0.068,-0.012l0.069,-0.01l0.068,-0.01l0.069,-0.01l0.069,-0.008l0.07,-0.007l0.069,-0.007l0.07,-0.006l0.07,-0.005l0.071,-0.004l0.07,-0.003l0.071,-0.002l0.071,-0.001l0.072,-0.001l0.071,0.001Zm-0.131,0.914l-0.059,0.001l-0.06,0.002l-0.059,0.002l-0.058,0.004l-0.059,0.004l-0.058,0.005l-0.058,0.005l-0.058,0.006l-0.058,0.007l-0.057,0.008l-0.057,0.008l-0.057,0.009l-0.057,0.01l-0.056,0.01l-0.056,0.011l-0.056,0.012l-0.056,0.013l-0.055,0.013l-0.056,0.013l-0.054,0.015l-0.055,0.015l-0.054,0.016l-0.054,0.016l-0.054,0.017l-0.054,0.018l-0.053,0.018l-0.053,0.019l-0.052,0.019l-0.053,0.02l-0.052,0.021l-0.051,0.021l-0.052,0.022l-0.051,0.023l-0.05,0.023l-0.051,0.024l-0.05,0.024l-0.05,0.025l-0.049,0.026l-0.049,0.026l-0.049,0.027l-0.048,0.027l-0.048,0.028l-0.048,0.028l-0.047,0.029l-0.047,0.029l-0.046,0.03l-0.046,0.031l-0.046,0.031l-0.045,0.032l-0.045,0.032l-0.045,0.033l-0.044,0.033l-0.044,0.033l-0.043,0.035l-0.043,0.034l-0.042,0.036l-0.042,0.035l-0.042,0.037l-0.041,0.036l-0.04,0.038l-0.041,0.037l-0.04,0.038l-0.039,0.039l-0.039,0.039l-0.038,0.04l-0.038,0.039l-0.037,0.041l-0.037,0.041l-0.037,0.041l-0.036,0.042l-0.035,0.042l-0.035,0.043l-0.035,0.043l-0.034,0.043l-0.033,0.044l-0.033,0.044l-0.032,0.045l-0.032,0.045l-0.031,0.045l-0.031,0.046l-0.03,0.046l-0.03,0.047l-0.029,0.047l-0.029,0.047l-0.028,0.048l-0.027,0.048l-0.027,0.048l-0.026,0.049l-0.026,0.049l-0.025,0.049l-0.024,0.05l-0.024,0.05l-0.024,0.051l-0.022,0.05l-0.022,0.051l-0.022,0.052l-0.021,0.051l-0.02,0.052l-0.02,0.053l-0.019,0.052l-0.018,0.053l-0.018,0.053l-0.017,0.054l-0.016,0.053l-0.016,0.054l-0.015,0.054l-0.015,0.055l-0.014,0.055l-0.013,0.055l-0.012,0.055l-0.012,0.056l-0.007,0.033l9.025,0l-0.006,-0.033l-0.012,-0.056l-0.013,-0.055l-0.013,-0.055l-0.014,-0.055l-0.014,-0.055l-0.015,-0.054l-0.016,-0.054l-0.017,-0.054l-0.017,-0.053l-0.018,-0.053l-0.018,-0.053l-0.019,-0.052l-0.02,-0.053l-0.02,-0.052l-0.021,-0.051l-0.021,-0.052l-0.022,-0.051l-0.023,-0.05l-0.023,-0.051l-0.024,-0.05l-0.025,-0.05l-0.025,-0.049l-0.026,-0.049l-0.026,-0.049l-0.027,-0.048l-0.027,-0.048l-0.028,-0.048l-0.029,-0.047l-0.029,-0.047l-0.029,-0.047l-0.031,-0.046l-0.03,-0.046l-0.032,-0.045l-0.031,-0.045l-0.033,-0.045l-0.033,-0.044l-0.033,-0.044l-0.034,-0.043l-0.035,-0.043l-0.034,-0.043l-0.036,-0.042l-0.036,-0.042l-0.036,-0.041l-0.037,-0.041l-0.038,-0.041l-0.038,-0.039l-0.038,-0.04l-0.039,-0.039l-0.039,-0.039l-0.04,-0.038l-0.04,-0.037l-0.041,-0.038l-0.041,-0.036l-0.042,-0.037l-0.042,-0.035l-0.042,-0.036l-0.043,-0.034l-0.043,-0.035l-0.044,-0.033l-0.044,-0.033l-0.044,-0.033l-0.045,-0.032l-0.046,-0.032l-0.045,-0.031l-0.047,-0.031l-0.046,-0.03l-0.047,-0.029l-0.047,-0.029l-0.048,-0.028l-0.048,-0.028l-0.048,-0.027l-0.049,-0.027l-0.049,-0.026l-0.049,-0.026l-0.05,-0.025l-0.05,-0.024l-0.05,-0.024l-0.051,-0.023l-0.051,-0.023l-0.051,-0.022l-0.052,-0.021l-0.052,-0.021l-0.052,-0.02l-0.053,-0.019l-0.053,-0.019l-0.053,-0.018l-0.053,-0.018l-0.054,-0.017l-0.054,-0.016l-0.055,-0.016l-0.054,-0.015l-0.055,-0.015l-0.055,-0.013l-0.056,-0.013l-0.055,-0.013l-0.056,-0.012l-0.056,-0.011l-0.057,-0.01l-0.056,-0.01l-0.057,-0.009l-0.058,-0.008l-0.057,-0.008l-0.058,-0.007l-0.057,-0.006l-0.058,-0.005l-0.059,-0.005l-0.058,-0.004l-0.059,-0.004l-0.059,-0.002l-0.059,-0.002l-0.06,-0.001l-0.059,-0.001l-0.06,0.001Z"
                      style="fill:#a3a3a3;"/>
            </g>
            <g transform="matrix(1.12285,0,0,3.25333,1.0206,-31.3607)">
                <path d="M3.221,13.21c0,-0.02 -0.047,-0.036 -0.104,-0.036l-2.709,0c-0.057,0 -0.104,0.016 -0.104,0.036l0,1.465c0,0.02 0.047,0.036 0.104,0.036l2.709,0c0.057,0 0.104,-0.016 0.104,-0.036l0,-1.465Z"/>
            </g>
            <g transform="matrix(1.12285,0,0,3.25333,22.964,-31.3607)">
                <path d="M3.221,13.214c0,-0.022 -0.051,-0.04 -0.114,-0.04l-2.69,0c-0.062,0 -0.113,0.018 -0.113,0.04l0,1.458c0,0.022 0.051,0.039 0.113,0.039l2.69,0c0.063,0 0.114,-0.017 0.114,-0.039l0,-1.458Z"/>
            </g>
            <circle cx="13.982"
                    cy="14.085"
                    r="9.333"
                    style="fill:#404040;stroke:#313131;stroke-width:0.95px;stroke-linejoin:round;stroke-miterlimit:1.41421;"/>
            <circle cx="14.001" cy="14.084" r="6.458"/>
            <g transform="matrix(1.12285,0,0,4.82292,12.003,-50.4092)">
                <path d="M3.221,13.307c0,-0.073 -0.255,-0.133 -0.568,-0.133l-1.781,0c-0.313,0 -0.568,0.06 -0.568,0.133l0,1.272c0,0.073 0.255,0.132 0.568,0.132l1.781,0c0.313,0 0.568,-0.059 0.568,-0.132l0,-1.272Z"
                      style="fill:#1d1d1d;"/>
            </g>
        </g>
    </g>
</svg>
