<?xml version="1.0" encoding="UTF-8" standalone="no"?>
<!DOCTYPE svg PUBLIC "-//W3C//DTD SVG 1.1//EN" "http://www.w3.org/Graphics/SVG/1.1/DTD/svg11.dtd">
<svg xmlns:xlink="http://www.w3.org/1999/xlink"
     xmlns:serif="http://www.serif.com/"
     width="14px"
     height="14px"
     version="1.1"
     xmlns="http://www.w3.org/2000/svg"
     xml:space="preserve"
     style="fill-rule:evenodd;clip-rule:evenodd;stroke-linecap:round;stroke-linejoin:round;stroke-miterlimit:1.5;">
    <g id="Screw"
       transform="matrix(1.12705,0,0,1.12705,-1.15739,-1.19264)">
        <g transform="matrix(0.530666,-6.64007e-17,6.64007e-17,0.530666,3.53695,3.54247)">
            <circle cx="7.001"
                    cy="7"
                    r="5.016"
                    style="fill:#242424;"/>
        </g>
        <g transform="matrix(2.67294,-2.67294,2.53292,2.53292,-24.5409,13.369)">
            <ellipse cx="7.09"
                     cy="5.069"
                     rx="1.408"
                     ry="1.486"
                     style="fill:#c0c0c0;stroke:#333;stroke-width:0.24px;"/>
        </g>
        <g transform="matrix(1.57499,0,0,1.57499,-2.85707,-0.565072)">
            <path d="M6.419,3.112l1.707,0.927l0,1.854l-1.707,0.927l-1.708,-0.927l0,-1.854l1.708,-0.927Z"
                  style="fill:#343131;stroke:#636363;stroke-width:0.14px;stroke-linecap:square;stroke-linejoin:bevel;"/>
        </g>
        <g transform="matrix(1.49087,0,0,14.6626,-2.85052,-1.75446)">
            <rect x="6.172"
                  y="0.23"
                  width="1.19"
                  height="0.768"
                  style="fill:#323232;"/>
        </g>
        <g transform="matrix(9.3032,0,0,2.3099,-55.6747,5.8504)">
            <rect x="6.172"
                  y="0.23"
                  width="1.19"
                  height="0.768"
                  style="fill:#323232;"/>
        </g>
    </g>
</svg>
