<?xml version="1.0" encoding="UTF-8" standalone="no"?>
<!DOCTYPE svg PUBLIC "-//W3C//DTD SVG 1.1//EN" "http://www.w3.org/Graphics/SVG/1.1/DTD/svg11.dtd">
<svg width="270px" height="380px" version="1.1" xmlns="http://www.w3.org/2000/svg" xmlns:xlink="http://www.w3.org/1999/xlink" xml:space="preserve" xmlns:serif="http://www.serif.com/" style="fill-rule:evenodd;clip-rule:evenodd;stroke-linejoin:round;stroke-miterlimit:1.41421;">
    <rect x="0" y="0" width="270" height="380" style="fill:#fff;"/>
    <g id="Logo" transform="matrix(5.70718,0,0,5.70723,-548.329,-1983.05)">
        <g transform="matrix(0.104444,0,0,0.104443,112.266,337.43)">
            <path d="M151.374,117.324l-3.072,0l-100.224,227.328l-3.072,-7.296l96.768,-220.032l-3.072,0l-95.232,216.576l-3.072,-7.296l92.16,-209.28l-3.456,0l-90.624,205.824l-3.072,-7.296l87.552,-198.528l-3.072,0l-86.016,195.072l-3.072,-7.296l82.56,-187.776l-3.072,0l-81.024,184.32l-3.072,-7.296l77.952,-177.024l-3.072,0l-76.416,173.568l-3.072,-7.296l72.96,-166.272l-3.072,0l-71.808,162.816l-3.072,-7.296l68.736,-155.52l-3.072,0l-67.2,152.064l-3.072,-7.296l63.744,-144.768l-3.072,0l-62.208,141.312l-3.072,-7.296l59.136,-134.016l-3.072,0l-57.6,130.56l-3.072,-7.296l54.144,-123.264l-3.072,0l-52.608,119.808l-3.456,-7.296l49.92,-112.512l-3.456,0l-48,109.056l-3.072,-7.296l44.928,-101.76l-3.072,0l-43.392,98.304l-3.072,-7.296l39.936,-91.008l-3.072,0l-38.4,87.552l-3.072,-7.296l35.328,-80.256l-3.072,0l-33.792,76.8l-3.456,-7.296l30.72,-69.504l-3.072,0l-29.184,66.048l-3.072,-6.912l26.112,-59.136l-3.072,0l-24.576,55.296l-3.072,-6.912l21.12,-48.384l-3.072,0l-19.584,44.544l-3.072,-6.912l16.512,-37.632l-3.456,0l-14.592,33.792l-3.456,-6.912l11.904,-26.88l-3.072,0l-10.368,23.04l-3.072,-6.912l6.912,-16.128l-3.072,0l-5.376,12.288l-3.072,-6.912l2.304,-5.376l-3.072,0l-0.768,1.536l-0.768,-1.536l-74.496,0l140.16,318.72l37.248,-83.712l-1.92,-4.224l101.76,-230.784Z" style="fill:#26bcff;fill-opacity:0.529412;fill-rule:nonzero;"/>
            <rect x="176.334" y="117.324" width="65.664" height="307.2" style="fill:#26bcff;fill-opacity:0.529412;fill-rule:nonzero;"/>
        </g>
        <g transform="matrix(0.120472,0,0,0.120472,102.894,347.065)">
            <path d="M232.321,164.268c-0.551,-1.407 -1.25,-2.487 -1.733,-4.267l0.016,0c-0.034,0 -0.056,-0.074 -0.088,-0.149c-0.062,-0.193 -0.122,-0.353 -0.173,-0.548c-0.097,-0.365 -0.189,-0.759 -0.253,-1.179c-0.043,-2.08 1.872,-2.792 1.946,-5.183c0.081,-2.573 -1.476,-3.898 -1.946,-4.241c-0.02,-0.028 -0.037,-0.054 -0.056,-0.082c0.012,-0.037 0.02,-0.068 0.031,-0.104c2.993,-2.433 1.69,-5.738 1.69,-5.738c-0.636,-0.338 -1.313,-0.55 -1.797,-0.98c-4.337,-3.863 -4.606,-6.636 -1.196,-11.288c0.866,-1.185 1.746,-2.375 2.467,-3.649c1.761,-3.117 1.359,-4.599 -1.81,-6.367c-2.28,-1.271 -4.743,-2.218 -6.988,-3.545c-6.396,-3.778 -11.834,-8.521 -15.061,-15.174c2.171,-3.872 2.171,-3.872 1.304,-6.341c-0.791,0.865 -1.527,1.672 -2.688,2.944c0,-3.049 0.294,-5.379 -0.083,-7.595c-0.367,-2.156 -0.85,-4.792 -2.281,-6.178c-5.217,-5.045 -8.175,-11.292 -10.92,-17.796c-2.029,-4.806 -4.196,-9.66 -8.171,-13.236c-2,-1.8 -4.474,-3.072 -6.742,-4.587c0,-1.354 0.017,-2.653 -0.006,-3.951c-0.019,-1.297 0.038,-2.61 -0.136,-3.89c-0.702,-5.113 -4.34,-7.564 -9.404,-6.548c-3.181,0.638 -6.385,1.238 -9.605,1.563c-1.888,0.19 -3.584,0.128 -3.225,-3.432c1.62,0 3.162,0 5.368,0c-1.104,0 -1.515,-1.544 -2.067,-1.769c-2.208,-0.892 -4.045,-0.36 -5.099,1.396c-1.25,2.077 0.023,3.586 1.504,4.555c1.273,0.832 3.004,1.441 4.492,1.365c3.234,-0.167 6.436,-0.842 9.658,-1.296c2.8,-0.394 4.451,0.587 5.01,3.266c0.266,1.278 0.047,2.658 0.047,3.561c-3.72,-1.383 -6.953,-3.369 -10.347,-3.69c-7.432,-0.706 -14.956,-0.912 -22.413,-0.611c-3.084,0.124 -6.484,1.511 -9.049,3.309c-4.547,3.188 -9.441,5.039 -14.773,6.138c-2.549,0.526 -5.106,1.149 -7.55,2.03c-4.689,1.689 -8.626,4.342 -11.53,8.63c-1.595,2.354 -3.836,4.445 -6.188,6.076c-4.591,3.184 -9.001,6.424 -12.144,11.187c-1.712,2.596 -4.124,4.212 -7.839,3.113c-1.104,-4.244 -4.87,-4.911 -8.627,-5.423c-1.764,-0.242 -3.625,-0.32 -5.373,-0.04c-10.247,1.643 -19.554,5.56 -26.813,13.074c-6.565,6.797 -5.937,10.365 -2.739,16.202c2.063,3.766 2.131,7.435 -0.279,11.089c-1.874,2.842 -2.57,6.013 -2.071,9.354c1.284,8.609 4.072,16.22 13.409,19.251c0.615,0.198 1.156,0.607 1.748,0.881c2.125,0.984 3.145,2.592 3.365,4.971c0.144,1.54 0.491,3.357 1.429,4.479c6.245,7.454 20.432,8.503 25.041,-1.951c0.189,-0.432 0.624,-0.756 0.945,-1.129c0.305,0.134 0.609,0.266 0.914,0.399c-0.27,1.348 -0.539,2.694 -0.81,4.042c-0.351,1.75 -1.204,3.572 -0.961,5.235c0.915,6.264 1.484,12.716 3.503,18.648c2.452,7.204 8.53,14.587 18.762,13.197c3.549,-0.483 6.782,0.391 9.818,2.234c1.254,0.76 2.657,1.272 3.912,2.027c3.221,1.943 6.497,1.898 9.857,0.464c2.024,-0.863 4.052,-1.726 6.331,-2.698c-1.16,4.041 -2.278,7.594 -3.189,11.197c-1.336,5.287 -3.631,9.452 -9.941,9.48c-0.115,0 -0.228,0.204 -0.481,0.441c0.473,1.385 0.975,2.855 1.446,4.234c-3.43,5.076 -9.388,5.288 -13.951,7.881c8.949,0.082 15.39,-4.254 16.179,-10.562c4.91,-1.582 7.805,-5.034 9.233,-9.921c0.777,-2.659 1.611,-5.32 2.672,-7.879c1.746,-4.209 4.792,-6.719 9.406,-6.833c-0.302,3.22 -0.579,6.169 -0.855,9.113c-6.687,1.486 -6.819,1.649 -6.534,8.315c-1.583,1.269 -3.238,2.596 -5.685,4.557c6.226,-1.428 7.436,-2.953 8.025,-9.211c0.938,-0.325 1.962,-0.799 3.039,-1.035c4.009,-0.875 4.11,-0.859 3.682,-5.037c-0.251,-2.445 0.739,-3.996 3.163,-5.664c0.451,1.766 0.892,3.088 1.115,4.445c0.316,1.923 0.547,3.867 0.687,5.81c0.517,7.404 -0.06,14.643 -3.457,21.43c-4.159,8.313 -8.334,16.622 -12.413,24.973c-1.174,2.404 -2.482,4.234 -5.172,5.433c-4.265,1.907 -7.421,6.556 -7.757,10.832c15.258,2.949 26.312,6.953 41.04,18.833c9.647,7.785 19.862,11.309 29.399,12.456c0.003,-0.004 10.248,-13.711 19.753,-32.558c-0.241,-0.365 -0.484,-0.728 -0.723,-1.095c-6.25,-9.478 -11.533,-18.592 -13.049,-22.521c-2.853,-7.395 -3.838,-14.659 -2.132,-22.466c1.983,-9.083 3.633,-18.206 7.761,-26.672c2.412,-4.95 6.15,-7.711 11.519,-8.858c6.366,-1.36 12.689,-3.037 18.94,-4.868c6.706,-1.966 9.308,-7.753 6.747,-14.275Z" style="fill:#333;fill-rule:nonzero;"/>
        </g>
        <g transform="matrix(0.120472,0,0,0.120472,103.024,347.122)">
            <path d="M232.321,164.268c-0.551,-1.407 -1.25,-2.487 -1.733,-4.267l0.016,0c-0.034,0 -0.056,-0.074 -0.088,-0.149c-0.062,-0.193 -0.122,-0.353 -0.173,-0.548c-0.097,-0.365 -0.189,-0.759 -0.253,-1.179c-0.043,-2.08 1.872,-2.792 1.946,-5.183c0.081,-2.573 -1.476,-3.898 -1.946,-4.241c-0.02,-0.028 -0.037,-0.054 -0.056,-0.082c0.012,-0.037 0.02,-0.068 0.031,-0.104c2.993,-2.433 1.69,-5.738 1.69,-5.738c-0.636,-0.338 -1.313,-0.55 -1.797,-0.98c-4.337,-3.863 -4.606,-6.636 -1.196,-11.288c0.866,-1.185 1.746,-2.375 2.467,-3.649c1.761,-3.117 1.359,-4.599 -1.81,-6.367c-2.28,-1.271 -4.743,-2.218 -6.988,-3.545c-6.396,-3.778 -11.834,-8.521 -15.061,-15.174c2.171,-3.872 2.171,-3.872 1.304,-6.341c-0.791,0.865 -1.527,1.672 -2.688,2.944c0,-3.049 0.294,-5.379 -0.083,-7.595c-0.367,-2.156 -0.85,-4.792 -2.281,-6.178c-5.217,-5.045 -8.175,-11.292 -10.92,-17.796c-2.029,-4.806 -4.196,-9.66 -8.171,-13.236c-2,-1.8 -4.474,-3.072 -6.742,-4.587c0,-1.354 0.017,-2.653 -0.006,-3.951c-0.019,-1.297 0.038,-2.61 -0.136,-3.89c-0.702,-5.113 -4.34,-7.564 -9.404,-6.548c-3.181,0.638 -6.385,1.238 -9.605,1.563c-1.888,0.19 -3.584,0.128 -3.225,-3.432c1.62,0 3.162,0 5.368,0c-1.104,0 -1.515,-1.544 -2.067,-1.769c-2.208,-0.892 -4.045,-0.36 -5.099,1.396c-1.25,2.077 0.023,3.586 1.504,4.555c1.273,0.832 3.004,1.441 4.492,1.365c3.234,-0.167 6.436,-0.842 9.658,-1.296c2.8,-0.394 4.451,0.587 5.01,3.266c0.266,1.278 0.047,2.658 0.047,3.561c-3.72,-1.383 -6.953,-3.369 -10.347,-3.69c-7.432,-0.706 -14.956,-0.912 -22.413,-0.611c-3.084,0.124 -6.484,1.511 -9.049,3.309c-4.547,3.188 -9.441,5.039 -14.773,6.138c-2.549,0.526 -5.106,1.149 -7.55,2.03c-4.689,1.689 -8.626,4.342 -11.53,8.63c-1.595,2.354 -3.836,4.445 -6.188,6.076c-4.591,3.184 -9.001,6.424 -12.144,11.187c-1.712,2.596 -4.124,4.212 -7.839,3.113c-1.104,-4.244 -4.87,-4.911 -8.627,-5.423c-1.764,-0.242 -3.625,-0.32 -5.373,-0.04c-10.247,1.643 -19.554,5.56 -26.813,13.074c-6.565,6.797 -5.937,10.365 -2.739,16.202c2.063,3.766 2.131,7.435 -0.279,11.089c-1.874,2.842 -2.57,6.013 -2.071,9.354c1.284,8.609 4.072,16.22 13.409,19.251c0.615,0.198 1.156,0.607 1.748,0.881c2.125,0.984 3.145,2.592 3.365,4.971c0.144,1.54 0.491,3.357 1.429,4.479c6.245,7.454 20.432,8.503 25.041,-1.951c0.189,-0.432 0.624,-0.756 0.945,-1.129c0.305,0.134 0.609,0.266 0.914,0.399c-0.27,1.348 -0.539,2.694 -0.81,4.042c-0.351,1.75 -1.204,3.572 -0.961,5.235c0.915,6.264 1.484,12.716 3.503,18.648c2.452,7.204 8.53,14.587 18.762,13.197c3.549,-0.483 6.782,0.391 9.818,2.234c1.254,0.76 2.657,1.272 3.912,2.027c3.221,1.943 6.497,1.898 9.857,0.464c2.024,-0.863 4.052,-1.726 6.331,-2.698c-1.16,4.041 -2.278,7.594 -3.189,11.197c-1.336,5.287 -3.631,9.452 -9.941,9.48c-0.115,0 -0.228,0.204 -0.481,0.441c0.473,1.385 0.975,2.855 1.446,4.234c-3.43,5.076 -9.388,5.288 -13.951,7.881c8.949,0.082 15.39,-4.254 16.179,-10.562c4.91,-1.582 7.805,-5.034 9.233,-9.921c0.777,-2.659 1.611,-5.32 2.672,-7.879c1.746,-4.209 4.792,-6.719 9.406,-6.833c-0.302,3.22 -0.579,6.169 -0.855,9.113c-6.687,1.486 -6.819,1.649 -6.534,8.315c-1.583,1.269 -3.238,2.596 -5.685,4.557c6.226,-1.428 7.436,-2.953 8.025,-9.211c0.938,-0.325 1.962,-0.799 3.039,-1.035c4.009,-0.875 4.11,-0.859 3.682,-5.037c-0.251,-2.445 0.739,-3.996 3.163,-5.664c0.451,1.766 0.892,3.088 1.115,4.445c0.316,1.923 0.547,3.867 0.687,5.81c0.517,7.404 -0.06,14.643 -3.457,21.43c-4.159,8.313 -8.334,16.622 -12.413,24.973c-1.174,2.404 -2.482,4.234 -5.172,5.433c-4.265,1.907 -7.421,6.556 -7.757,10.832c15.258,2.949 26.312,6.953 41.04,18.833c9.647,7.785 19.862,11.309 29.399,12.456c0.003,-0.004 10.248,-13.711 19.753,-32.558c-0.241,-0.365 -0.484,-0.728 -0.723,-1.095c-6.25,-9.478 -11.533,-18.592 -13.049,-22.521c-2.853,-7.395 -3.838,-14.659 -2.132,-22.466c1.983,-9.083 3.633,-18.206 7.761,-26.672c2.412,-4.95 6.15,-7.711 11.519,-8.858c6.366,-1.36 12.689,-3.037 18.94,-4.868c6.706,-1.966 9.308,-7.753 6.747,-14.275Z" style="fill-rule:nonzero;stroke:#080000;stroke-opacity:0.658824;stroke-width:1.16px;"/>
        </g>
    </g>
    <g transform="matrix(1.408,0.00111507,-0.00106067,1.33931,-20.734,-71.4015)">
        <path d="M46.789,225.99l-2.211,0l0,-8.211l7.201,0c0.606,0 1.126,0.204 1.56,0.612c0.434,0.409 0.651,0.899 0.651,1.472l0,1.39c0,0.328 -0.097,0.612 -0.291,0.852c-0.194,0.24 -0.455,0.483 -0.783,0.727c0.48,0.059 0.779,0.335 0.897,0.827c0.118,0.493 0.177,1.278 0.177,2.356l-2.211,0c0,-0.716 -0.063,-1.242 -0.189,-1.579c-0.127,-0.337 -0.295,-0.505 -0.506,-0.505l-4.295,0l0,2.059Zm0,-6.127l0,1.983l4.005,0c0.269,0 0.501,-0.105 0.694,-0.315c0.194,-0.211 0.291,-0.464 0.291,-0.758c0,-0.253 -0.097,-0.468 -0.291,-0.645c-0.193,-0.176 -0.425,-0.265 -0.694,-0.265l-4.005,0Z" style="fill-rule:nonzero;"/>
        <path d="M54.697,225.99l2.413,-5.344l2.084,0l2.388,5.344l-1.466,0l-0.454,-1.011l-3.032,0l-0.455,1.011l-1.478,0Zm4.485,-2.084l-1.036,-2.3l-1.036,2.3l2.072,0Z" style="fill-rule:nonzero;"/>
        <path d="M67.254,223.994l1.326,0l0,0.758c0,0.337 -0.13,0.627 -0.391,0.872c-0.261,0.244 -0.573,0.366 -0.935,0.366l-3.638,0c-0.371,0 -0.685,-0.12 -0.941,-0.36c-0.257,-0.24 -0.386,-0.533 -0.386,-0.878l0,-2.868c0,-0.345 0.129,-0.638 0.386,-0.878c0.256,-0.24 0.57,-0.36 0.941,-0.36l3.638,0c0.37,0 0.684,0.12 0.941,0.36c0.257,0.24 0.385,0.533 0.385,0.878l0,0.67l-1.326,0c0,-0.177 -0.076,-0.333 -0.228,-0.468c-0.151,-0.134 -0.328,-0.202 -0.53,-0.202l-2.122,0c-0.211,0 -0.39,0.066 -0.537,0.196c-0.148,0.131 -0.221,0.289 -0.221,0.474l0,1.44c0,0.211 0.073,0.389 0.221,0.537c0.147,0.147 0.326,0.221 0.537,0.221l2.122,0c0.21,0 0.389,-0.074 0.537,-0.221c0.147,-0.148 0.221,-0.326 0.221,-0.537Z" style="fill-rule:nonzero;"/>
        <path d="M70.791,225.99l-1.326,0l0,-5.344l1.326,0l0,1.933l0.821,0l1.908,-1.933l1.958,0l-2.603,2.603l2.956,2.741l-2.046,0l-2.122,-1.971l-0.872,0l0,1.971Z" style="fill-rule:nonzero;"/>
        <path d="M81.617,225.99l4.017,-8.211l3.474,0l3.992,8.211l-2.451,0l-0.758,-1.554l-5.053,0l-0.758,1.554l-2.463,0Zm7.478,-3.196l-1.718,-3.537l-1.73,3.537l3.448,0Z" style="fill-rule:nonzero;"/>
        <path d="M93.668,224.752l0,-4.106l1.327,0l0,3.348c0,0.211 0.074,0.389 0.221,0.537c0.147,0.147 0.326,0.221 0.537,0.221l1.768,0c0.211,0 0.39,-0.074 0.537,-0.221c0.148,-0.148 0.221,-0.326 0.221,-0.537l0,-3.348l1.327,0l0,4.106c0,0.337 -0.131,0.627 -0.392,0.872c-0.261,0.244 -0.573,0.366 -0.935,0.366l-3.284,0c-0.371,0 -0.684,-0.12 -0.941,-0.36c-0.257,-0.24 -0.386,-0.533 -0.386,-0.878Z" style="fill-rule:nonzero;"/>
        <path d="M106.478,222.579l0,1.44c0,0.539 -0.131,1.002 -0.392,1.39c-0.261,0.387 -0.572,0.581 -0.935,0.581l-4.813,0l0,-5.344l4.813,0c0.363,0 0.674,0.19 0.935,0.569c0.261,0.379 0.392,0.834 0.392,1.364Zm-1.327,1.415l0,-1.415c0,-0.151 -0.063,-0.286 -0.189,-0.404c-0.126,-0.118 -0.278,-0.177 -0.455,-0.177l-2.842,0l0,2.64l2.817,0c0.177,0 0.333,-0.063 0.467,-0.189c0.135,-0.127 0.202,-0.278 0.202,-0.455Z" style="fill-rule:nonzero;"/>
        <rect x="107.312" y="220.646" width="1.326" height="5.344" style="fill-rule:nonzero;"/>
        <path d="M109.295,224.638l0,-2.64c0,-0.379 0.126,-0.699 0.379,-0.96c0.253,-0.261 0.568,-0.392 0.947,-0.392l3.638,0c0.371,0 0.685,0.133 0.942,0.398c0.256,0.266 0.385,0.583 0.385,0.954l0,2.615c0,0.379 -0.126,0.703 -0.379,0.973c-0.253,0.269 -0.569,0.404 -0.948,0.404l-3.638,0c-0.362,0 -0.673,-0.135 -0.935,-0.404c-0.261,-0.27 -0.391,-0.586 -0.391,-0.948Zm1.895,0l2.488,0c0.16,0 0.297,-0.061 0.411,-0.183c0.114,-0.122 0.17,-0.267 0.17,-0.436l0,-1.44c0,-0.16 -0.056,-0.297 -0.17,-0.41c-0.114,-0.114 -0.251,-0.171 -0.411,-0.171l-2.488,0c-0.16,0 -0.295,0.055 -0.404,0.164c-0.11,0.11 -0.165,0.249 -0.165,0.417l0,1.44c0,0.169 0.057,0.314 0.171,0.436c0.114,0.122 0.246,0.183 0.398,0.183Z" style="fill-rule:nonzero;"/>
        <path d="M121.586,225.99l0,-8.211l3.916,0l2.451,5.28l2.463,-5.28l3.891,0l0,8.211l-2.21,0l0,-6.885l-3.209,6.885l-1.882,0l-3.209,-6.948l0,6.948l-2.211,0Z" style="fill-rule:nonzero;"/>
        <path d="M135.192,224.638l0,-2.64c0,-0.379 0.126,-0.699 0.379,-0.96c0.252,-0.261 0.568,-0.392 0.947,-0.392l3.638,0c0.371,0 0.684,0.133 0.941,0.398c0.257,0.266 0.386,0.583 0.386,0.954l0,2.615c0,0.379 -0.127,0.703 -0.379,0.973c-0.253,0.269 -0.569,0.404 -0.948,0.404l-3.638,0c-0.362,0 -0.674,-0.135 -0.935,-0.404c-0.261,-0.27 -0.391,-0.586 -0.391,-0.948Zm1.894,0l2.489,0c0.16,0 0.297,-0.061 0.411,-0.183c0.113,-0.122 0.17,-0.267 0.17,-0.436l0,-1.44c0,-0.16 -0.057,-0.297 -0.17,-0.41c-0.114,-0.114 -0.251,-0.171 -0.411,-0.171l-2.489,0c-0.16,0 -0.294,0.055 -0.404,0.164c-0.109,0.11 -0.164,0.249 -0.164,0.417l0,1.44c0,0.169 0.057,0.314 0.171,0.436c0.113,0.122 0.246,0.183 0.397,0.183Z" style="fill-rule:nonzero;"/>
        <path d="M148.38,222.579l0,1.44c0,0.539 -0.131,1.002 -0.392,1.39c-0.261,0.387 -0.572,0.581 -0.934,0.581l-4.813,0l0,-5.344l4.813,0c0.362,0 0.673,0.19 0.934,0.569c0.261,0.379 0.392,0.834 0.392,1.364Zm-1.326,1.415l0,-1.415c0,-0.151 -0.064,-0.286 -0.19,-0.404c-0.126,-0.118 -0.278,-0.177 -0.455,-0.177l-2.842,0l0,2.64l2.817,0c0.177,0 0.333,-0.063 0.467,-0.189c0.135,-0.127 0.203,-0.278 0.203,-0.455Z" style="fill-rule:nonzero;"/>
        <path d="M149.075,224.752l0,-4.106l1.326,0l0,3.348c0,0.211 0.074,0.389 0.221,0.537c0.148,0.147 0.327,0.221 0.537,0.221l1.769,0c0.21,0 0.389,-0.074 0.537,-0.221c0.147,-0.148 0.221,-0.326 0.221,-0.537l0,-3.348l1.326,0l0,4.106c0,0.337 -0.131,0.627 -0.392,0.872c-0.261,0.244 -0.572,0.366 -0.934,0.366l-3.285,0c-0.37,0 -0.684,-0.12 -0.941,-0.36c-0.257,-0.24 -0.385,-0.533 -0.385,-0.878Z" style="fill-rule:nonzero;"/>
        <path d="M155.669,225.99l0,-5.344l1.326,0l0,4.106l3.449,0l0,1.238l-4.775,0Z" style="fill-rule:nonzero;"/>
        <path d="M166.065,222.756l0,1.074l-3.499,0l0,0.922l3.714,0l0,1.238l-5.04,0l0,-5.344l5.04,0l0,1.238l-3.714,0l0,0.872l3.499,0Z" style="fill-rule:nonzero;"/>
        <path d="M166.912,224.285l1.326,0.037c0,0.169 0.036,0.31 0.108,0.424c0.071,0.113 0.162,0.17 0.271,0.17l1.819,0c0.177,0 0.331,-0.052 0.461,-0.158c0.131,-0.105 0.196,-0.225 0.196,-0.36c0,-0.126 -0.046,-0.236 -0.139,-0.328c-0.092,-0.093 -0.202,-0.139 -0.328,-0.139l-2.388,-0.101c-0.455,0 -0.789,-0.12 -1.004,-0.36c-0.215,-0.24 -0.322,-0.55 -0.322,-0.929l0,-0.821c0,-0.303 0.128,-0.558 0.385,-0.764c0.257,-0.206 0.571,-0.31 0.941,-0.31l2.994,0c0.286,0 0.531,0.106 0.733,0.316c0.202,0.211 0.303,0.463 0.303,0.758l0,0.505l-1.326,0c0,-0.336 -0.177,-0.505 -0.531,-0.505l-1.819,0c-0.101,0 -0.185,0.042 -0.253,0.126c-0.067,0.085 -0.101,0.19 -0.101,0.316c0,0.169 0.013,0.287 0.038,0.354c0.025,0.067 0.105,0.101 0.24,0.101l2.577,0.088c0.404,0 0.727,0.112 0.967,0.335c0.24,0.223 0.36,0.621 0.36,1.194c0,0.691 -0.135,1.156 -0.405,1.396c-0.269,0.24 -0.682,0.36 -1.238,0.36l-2.539,0c-0.362,0 -0.673,-0.105 -0.935,-0.316c-0.261,-0.21 -0.391,-0.463 -0.391,-0.758l0,-0.631Z" style="fill-rule:nonzero;"/>
    </g>
    <g transform="matrix(7.14363,0,0,0.197353,-720.455,212.069)">
        <rect x="102.803" y="258.151" width="32.197" height="4.38" style="fill-opacity:0.427451;"/>
    </g>
    <g transform="matrix(7.14363,0,0,0.197353,-720.455,273.76)">
        <rect x="102.803" y="258.151" width="32.197" height="4.38" style="fill-opacity:0.427451;"/>
    </g>
    <g transform="matrix(1.12273,0,0,1.12273,-4.83909,-46.0488)">
        <path d="M47.805,288.141l2.1,0l0,1.116c0,0.496 -0.204,0.92 -0.612,1.272c-0.408,0.352 -0.904,0.528 -1.488,0.528l-5.76,0c-0.568,0 -1.06,-0.176 -1.476,-0.528c-0.416,-0.352 -0.624,-0.776 -0.624,-1.272l0,-4.2c0,-0.496 0.204,-0.92 0.612,-1.272c0.408,-0.352 0.904,-0.528 1.488,-0.528l5.76,0c0.568,0 1.06,0.176 1.476,0.528c0.416,0.352 0.624,0.776 0.624,1.272l0,0.984l-2.1,0c0,-0.272 -0.116,-0.504 -0.348,-0.696c-0.232,-0.192 -0.516,-0.288 -0.852,-0.288l-3.36,0c-0.344,0 -0.63,0.092 -0.858,0.276c-0.228,0.184 -0.342,0.42 -0.342,0.708l0,2.1c0,0.304 0.118,0.566 0.354,0.786c0.236,0.22 0.518,0.33 0.846,0.33l3.36,0c0.328,0 0.61,-0.11 0.846,-0.33c0.236,-0.22 0.354,-0.482 0.354,-0.786Z" style="fill-rule:nonzero;"/>
        <path d="M50.793,289.773l0,-2.508c0,-0.36 0.12,-0.664 0.36,-0.912c0.24,-0.248 0.54,-0.372 0.9,-0.372l3.456,0c0.352,0 0.65,0.126 0.894,0.378c0.244,0.252 0.366,0.554 0.366,0.906l0,2.484c0,0.36 -0.12,0.668 -0.36,0.924c-0.24,0.256 -0.54,0.384 -0.9,0.384l-3.456,0c-0.344,0 -0.64,-0.128 -0.888,-0.384c-0.248,-0.256 -0.372,-0.556 -0.372,-0.9Zm1.8,0l2.364,0c0.152,0 0.282,-0.058 0.39,-0.174c0.108,-0.116 0.162,-0.254 0.162,-0.414l0,-1.368c0,-0.152 -0.054,-0.282 -0.162,-0.39c-0.108,-0.108 -0.238,-0.162 -0.39,-0.162l-2.364,0c-0.152,0 -0.28,0.052 -0.384,0.156c-0.104,0.104 -0.156,0.236 -0.156,0.396l0,1.368c0,0.16 0.054,0.298 0.162,0.414c0.108,0.116 0.234,0.174 0.378,0.174Z" style="fill-rule:nonzero;"/>
        <path d="M57.453,291.057l0,-5.076l4.056,0c0.392,0 0.7,0.142 0.924,0.426c0.224,0.284 0.336,0.794 0.336,1.53c0,0.752 -0.11,1.26 -0.33,1.524c-0.22,0.264 -0.53,0.396 -0.93,0.396l-2.796,0l0,1.2l-1.26,0Zm1.26,-3.792l0,1.308l2.292,0c0.144,0 0.264,-0.06 0.36,-0.18c0.096,-0.12 0.144,-0.272 0.144,-0.456c0,-0.184 -0.052,-0.342 -0.156,-0.474c-0.104,-0.132 -0.228,-0.198 -0.372,-0.198l-2.268,0Z" style="fill-rule:nonzero;"/>
        <path d="M65.757,291.057l0,-1.644l-2.58,-3.408l1.632,0l1.572,2.088l1.584,-2.088l1.632,0l-2.58,3.408l0,1.644l-1.26,0Z" style="fill-rule:nonzero;"/>
        <path d="M71.481,291.057l-1.26,0l0,-5.076l4.104,0c0.344,0 0.64,0.124 0.888,0.372c0.248,0.248 0.372,0.552 0.372,0.912l0,0.864c0,0.208 -0.054,0.382 -0.162,0.522c-0.108,0.14 -0.258,0.29 -0.45,0.45c0.272,0.04 0.442,0.216 0.51,0.528c0.068,0.312 0.102,0.792 0.102,1.44l-1.26,0c0,-0.456 -0.034,-0.784 -0.102,-0.984c-0.068,-0.2 -0.166,-0.3 -0.294,-0.3l-2.448,0l0,1.272Zm0,-3.792l0,1.236l2.28,0c0.152,0 0.284,-0.064 0.396,-0.192c0.112,-0.128 0.168,-0.288 0.168,-0.48c0,-0.152 -0.056,-0.284 -0.168,-0.396c-0.112,-0.112 -0.244,-0.168 -0.396,-0.168l-2.28,0Z" style="fill-rule:nonzero;"/>
        <rect x="76.497" y="285.981" width="1.26" height="5.076" style="fill-rule:nonzero;"/>
        <path d="M82.893,289.161l-1.68,0l0,-1.02l2.94,0l0,1.74c0,0.32 -0.136,0.596 -0.408,0.828c-0.272,0.232 -0.6,0.348 -0.984,0.348l-2.964,0c-0.352,0 -0.65,-0.114 -0.894,-0.342c-0.244,-0.228 -0.366,-0.506 -0.366,-0.834l0,-2.724c0,-0.328 0.122,-0.606 0.366,-0.834c0.244,-0.228 0.542,-0.342 0.894,-0.342l2.964,0c0.392,0 0.722,0.114 0.99,0.342c0.268,0.228 0.402,0.506 0.402,0.834l0,0.468l-1.26,0c0,-0.128 -0.042,-0.238 -0.126,-0.33c-0.084,-0.092 -0.186,-0.138 -0.306,-0.138l-1.944,0c-0.2,0 -0.37,0.062 -0.51,0.186c-0.14,0.124 -0.21,0.274 -0.21,0.45l0,1.368c0,0.2 0.07,0.37 0.21,0.51c0.14,0.14 0.31,0.21 0.51,0.21l1.92,0c0.12,0 0.226,-0.072 0.318,-0.216c0.092,-0.144 0.138,-0.312 0.138,-0.504Z" style="fill-rule:nonzero;"/>
        <path d="M86.181,289.185l0,1.872l-1.26,0l0,-5.076l1.26,0l0,1.836l3.108,0l0,-1.836l1.26,0l0,5.076l-1.26,0l0,-1.872l-3.108,0Z" style="fill-rule:nonzero;"/>
        <path d="M94.653,291.057l-1.428,0l0,-3.708l-1.956,0l0,-1.368l5.328,0l0,1.368l-1.944,0l0,3.708Z" style="fill-rule:nonzero;"/>
        <path d="M102.189,291.057l0,-2.268c0,-0.544 0.18,-1 0.54,-1.368c0.36,-0.368 0.82,-0.58 1.38,-0.636l3.9,-0.42c0.2,-0.024 0.37,-0.094 0.51,-0.21c0.14,-0.116 0.21,-0.254 0.21,-0.414c0,-0.184 -0.068,-0.344 -0.204,-0.48c-0.136,-0.136 -0.296,-0.204 -0.48,-0.204l-3.156,0c-0.2,0 -0.37,0.062 -0.51,0.186c-0.14,0.124 -0.21,0.27 -0.21,0.438l0,0.516l-1.98,0l0,-1.716c0,-0.336 0.182,-0.624 0.546,-0.864c0.364,-0.24 0.802,-0.36 1.314,-0.36l5.016,0c0.456,0 0.85,0.25 1.182,0.75c0.332,0.5 0.498,1.09 0.498,1.77c0,0.648 -0.11,1.17 -0.33,1.566c-0.22,0.396 -0.562,0.622 -1.026,0.678l-4.74,0.504c-0.096,0 -0.18,0.07 -0.252,0.21c-0.072,0.14 -0.108,0.314 -0.108,0.522l6.516,0l0,1.8l-8.616,0Z" style="fill-rule:nonzero;"/>
        <path d="M111.693,289.077l0,-3.84c0,-0.552 0.204,-1.02 0.612,-1.404c0.408,-0.384 0.904,-0.576 1.488,-0.576l5.076,0c0.568,0 1.06,0.196 1.476,0.588c0.416,0.392 0.624,0.864 0.624,1.416l0,3.804c0,0.544 -0.204,1.012 -0.612,1.404c-0.408,0.392 -0.904,0.588 -1.488,0.588l-5.076,0c-0.568,0 -1.06,-0.196 -1.476,-0.588c-0.416,-0.392 -0.624,-0.856 -0.624,-1.392Zm3,0l3.36,-0.012c0.216,0 0.404,-0.084 0.564,-0.252c0.16,-0.168 0.24,-0.372 0.24,-0.612l0,-2.1c0,-0.248 -0.078,-0.454 -0.234,-0.618c-0.156,-0.164 -0.346,-0.246 -0.57,-0.246l-3.36,0c-0.256,0 -0.47,0.082 -0.642,0.246c-0.172,0.164 -0.258,0.362 -0.258,0.594l0,2.1c0,0.24 0.086,0.45 0.258,0.63c0.172,0.18 0.386,0.27 0.642,0.27Z" style="fill-rule:nonzero;"/>
        <path d="M125.253,291.057l-2.1,0l0,-5.7l-1.296,0l0.84,-2.1l2.556,0l0,7.8Z" style="fill-rule:nonzero;"/>
        <path d="M128.037,291.057l4.152,-5.82l-5.496,0l0,-1.98l8.244,0l0,1.752l-4.32,6.048l-2.58,0Z" style="fill-rule:nonzero;"/>
        <rect x="141.141" y="286.113" width="5.04" height="1.968" style="fill-rule:nonzero;"/>
        <path d="M152.145,291.057l0,-2.268c0,-0.544 0.18,-1 0.54,-1.368c0.36,-0.368 0.82,-0.58 1.38,-0.636l3.9,-0.42c0.2,-0.024 0.37,-0.094 0.51,-0.21c0.14,-0.116 0.21,-0.254 0.21,-0.414c0,-0.184 -0.068,-0.344 -0.204,-0.48c-0.136,-0.136 -0.296,-0.204 -0.48,-0.204l-3.156,0c-0.2,0 -0.37,0.062 -0.51,0.186c-0.14,0.124 -0.21,0.27 -0.21,0.438l0,0.516l-1.98,0l0,-1.716c0,-0.336 0.182,-0.624 0.546,-0.864c0.364,-0.24 0.802,-0.36 1.314,-0.36l5.016,0c0.456,0 0.85,0.25 1.182,0.75c0.332,0.5 0.498,1.09 0.498,1.77c0,0.648 -0.11,1.17 -0.33,1.566c-0.22,0.396 -0.562,0.622 -1.026,0.678l-4.74,0.504c-0.096,0 -0.18,0.07 -0.252,0.21c-0.072,0.14 -0.108,0.314 -0.108,0.522l6.516,0l0,1.8l-8.616,0Z" style="fill-rule:nonzero;"/>
        <path d="M161.649,289.077l0,-3.84c0,-0.552 0.204,-1.02 0.612,-1.404c0.408,-0.384 0.904,-0.576 1.488,-0.576l5.076,0c0.568,0 1.06,0.196 1.476,0.588c0.416,0.392 0.624,0.864 0.624,1.416l0,3.804c0,0.544 -0.204,1.012 -0.612,1.404c-0.408,0.392 -0.904,0.588 -1.488,0.588l-5.076,0c-0.568,0 -1.06,-0.196 -1.476,-0.588c-0.416,-0.392 -0.624,-0.856 -0.624,-1.392Zm3,0l3.36,-0.012c0.216,0 0.404,-0.084 0.564,-0.252c0.16,-0.168 0.24,-0.372 0.24,-0.612l0,-2.1c0,-0.248 -0.078,-0.454 -0.234,-0.618c-0.156,-0.164 -0.346,-0.246 -0.57,-0.246l-3.36,0c-0.256,0 -0.47,0.082 -0.642,0.246c-0.172,0.164 -0.258,0.362 -0.258,0.594l0,2.1c0,0.24 0.086,0.45 0.258,0.63c0.172,0.18 0.386,0.27 0.642,0.27Z" style="fill-rule:nonzero;"/>
        <path d="M175.209,291.057l-2.1,0l0,-5.7l-1.296,0l0.84,-2.1l2.556,0l0,7.8Z" style="fill-rule:nonzero;"/>
        <path d="M178.749,283.257l4.38,0c0.544,0 1.01,0.126 1.398,0.378c0.388,0.252 0.582,0.558 0.582,0.918l0,4.704c0,0.496 -0.192,0.92 -0.576,1.272c-0.384,0.352 -0.852,0.528 -1.404,0.528l-4.38,0c-0.528,0 -0.974,-0.152 -1.338,-0.456c-0.364,-0.304 -0.546,-0.68 -0.546,-1.128l0,-0.66l1.884,0c0,0.12 0.086,0.224 0.258,0.312c0.172,0.088 0.378,0.132 0.618,0.132l2.664,0c0.24,0 0.44,-0.056 0.6,-0.168c0.16,-0.112 0.24,-0.256 0.24,-0.432l0,-1.284c-0.24,0.32 -0.48,0.554 -0.72,0.702c-0.24,0.148 -0.588,0.222 -1.044,0.222l-2.616,0c-0.568,0 -1.06,-0.176 -1.476,-0.528c-0.416,-0.352 -0.624,-0.776 -0.624,-1.272l0,-1.68c0,-0.432 0.204,-0.8 0.612,-1.104c0.408,-0.304 0.904,-0.456 1.488,-0.456Zm3.48,1.56l-2.664,0c-0.224,0 -0.416,0.08 -0.576,0.24c-0.16,0.16 -0.24,0.36 -0.24,0.6c0,0.24 0.08,0.44 0.24,0.6c0.16,0.16 0.36,0.24 0.6,0.24l2.676,0c0.24,0 0.444,-0.08 0.612,-0.24c0.168,-0.16 0.252,-0.36 0.252,-0.6c0,-0.224 -0.088,-0.42 -0.264,-0.588c-0.176,-0.168 -0.388,-0.252 -0.636,-0.252Z" style="fill-rule:nonzero;"/>
        <path d="M190.869,291.057l0,-5.076l4.332,0c0.272,0 0.506,0.102 0.702,0.306c0.196,0.204 0.294,0.446 0.294,0.726l0,0.492c0,0.264 -0.04,0.462 -0.12,0.594c-0.08,0.132 -0.232,0.266 -0.456,0.402c0.208,0 0.376,0.102 0.504,0.306c0.128,0.204 0.192,0.458 0.192,0.762l0,0.528c0,0.288 -0.108,0.52 -0.324,0.696c-0.216,0.176 -0.568,0.264 -1.056,0.264l-4.068,0Zm1.26,-3.9l0,0.828l2.376,0c0.12,0 0.222,-0.042 0.306,-0.126c0.084,-0.084 0.126,-0.182 0.126,-0.294c0,-0.112 -0.042,-0.208 -0.126,-0.288c-0.084,-0.08 -0.186,-0.12 -0.306,-0.12l-2.376,0Zm0,1.848l0,0.876l2.604,0c0.096,0 0.184,-0.044 0.264,-0.132c0.08,-0.088 0.12,-0.192 0.12,-0.312c0,-0.12 -0.038,-0.222 -0.114,-0.306c-0.076,-0.084 -0.166,-0.126 -0.27,-0.126l-2.604,0Z" style="fill-rule:nonzero;"/>
        <path d="M199.293,291.057l0,-1.644l-2.58,-3.408l1.632,0l1.572,2.088l1.584,-2.088l1.632,0l-2.58,3.408l0,1.644l-1.26,0Z" style="fill-rule:nonzero;"/>
        <path d="M49.539,305.057l0,-7.8l2.1,0l0,6l5.46,0l0,1.8l-7.56,0Z" style="fill-rule:nonzero;"/>
        <rect x="57.963" y="299.981" width="1.26" height="5.076" style="fill-rule:nonzero;"/>
        <path d="M60.003,305.057l0,-5.076l2.16,0l2.556,4.092l0,-4.092l1.26,0l0,5.076l-2.184,0l-2.532,-4.08l0,4.08l-1.26,0Z" style="fill-rule:nonzero;"/>
        <path d="M72.639,301.817l0,1.368c0,0.512 -0.124,0.952 -0.372,1.32c-0.248,0.368 -0.544,0.552 -0.888,0.552l-4.572,0l0,-5.076l4.572,0c0.344,0 0.64,0.18 0.888,0.54c0.248,0.36 0.372,0.792 0.372,1.296Zm-1.26,1.344l0,-1.344c0,-0.144 -0.06,-0.272 -0.18,-0.384c-0.12,-0.112 -0.264,-0.168 -0.432,-0.168l-2.7,0l0,2.508l2.676,0c0.168,0 0.316,-0.06 0.444,-0.18c0.128,-0.12 0.192,-0.264 0.192,-0.432Z" style="fill-rule:nonzero;"/>
        <path d="M78.075,301.985l0,1.02l-3.324,0l0,0.876l3.528,0l0,1.176l-4.788,0l0,-5.076l4.788,0l0,1.176l-3.528,0l0,0.828l3.324,0Z" style="fill-rule:nonzero;"/>
        <path d="M79.011,305.057l0,-5.076l2.16,0l2.556,4.092l0,-4.092l1.26,0l0,5.076l-2.184,0l-2.532,-4.08l0,4.08l-1.26,0Z" style="fill-rule:nonzero;"/>
        <path d="M85.815,305.057l0,-5.076l4.332,0c0.272,0 0.506,0.102 0.702,0.306c0.196,0.204 0.294,0.446 0.294,0.726l0,0.492c0,0.264 -0.04,0.462 -0.12,0.594c-0.08,0.132 -0.232,0.266 -0.456,0.402c0.208,0 0.376,0.102 0.504,0.306c0.128,0.204 0.192,0.458 0.192,0.762l0,0.528c0,0.288 -0.108,0.52 -0.324,0.696c-0.216,0.176 -0.568,0.264 -1.056,0.264l-4.068,0Zm1.26,-3.9l0,0.828l2.376,0c0.12,0 0.222,-0.042 0.306,-0.126c0.084,-0.084 0.126,-0.182 0.126,-0.294c0,-0.112 -0.042,-0.208 -0.126,-0.288c-0.084,-0.08 -0.186,-0.12 -0.306,-0.12l-2.376,0Zm0,1.848l0,0.876l2.604,0c0.096,0 0.184,-0.044 0.264,-0.132c0.08,-0.088 0.12,-0.192 0.12,-0.312c0,-0.12 -0.038,-0.222 -0.114,-0.306c-0.076,-0.084 -0.166,-0.126 -0.27,-0.126l-2.604,0Z" style="fill-rule:nonzero;"/>
        <path d="M96.579,301.985l0,1.02l-3.324,0l0,0.876l3.528,0l0,1.176l-4.788,0l0,-5.076l4.788,0l0,1.176l-3.528,0l0,0.828l3.324,0Z" style="fill-rule:nonzero;"/>
        <path d="M98.739,305.057l-1.26,0l0,-5.076l4.104,0c0.344,0 0.64,0.124 0.888,0.372c0.248,0.248 0.372,0.552 0.372,0.912l0,0.864c0,0.208 -0.054,0.382 -0.162,0.522c-0.108,0.14 -0.258,0.29 -0.45,0.45c0.272,0.04 0.442,0.216 0.51,0.528c0.068,0.312 0.102,0.792 0.102,1.44l-1.26,0c0,-0.456 -0.034,-0.784 -0.102,-0.984c-0.068,-0.2 -0.166,-0.3 -0.294,-0.3l-2.448,0l0,1.272Zm0,-3.792l0,1.236l2.28,0c0.152,0 0.284,-0.064 0.396,-0.192c0.112,-0.128 0.168,-0.288 0.168,-0.48c0,-0.152 -0.056,-0.284 -0.168,-0.396c-0.112,-0.112 -0.244,-0.168 -0.396,-0.168l-2.28,0Z" style="fill-rule:nonzero;"/>
        <path d="M108.111,303.161l-1.68,0l0,-1.02l2.94,0l0,1.74c0,0.32 -0.136,0.596 -0.408,0.828c-0.272,0.232 -0.6,0.348 -0.984,0.348l-2.964,0c-0.352,0 -0.65,-0.114 -0.894,-0.342c-0.244,-0.228 -0.366,-0.506 -0.366,-0.834l0,-2.724c0,-0.328 0.122,-0.606 0.366,-0.834c0.244,-0.228 0.542,-0.342 0.894,-0.342l2.964,0c0.392,0 0.722,0.114 0.99,0.342c0.268,0.228 0.402,0.506 0.402,0.834l0,0.468l-1.26,0c0,-0.128 -0.042,-0.238 -0.126,-0.33c-0.084,-0.092 -0.186,-0.138 -0.306,-0.138l-1.944,0c-0.2,0 -0.37,0.062 -0.51,0.186c-0.14,0.124 -0.21,0.274 -0.21,0.45l0,1.368c0,0.2 0.07,0.37 0.21,0.51c0.14,0.14 0.31,0.21 0.51,0.21l1.92,0c0.12,0 0.226,-0.072 0.318,-0.216c0.092,-0.144 0.138,-0.312 0.138,-0.504Z" style="fill-rule:nonzero;"/>
        <path d="M117.219,305.057l-2.1,0l0,-7.8l6.84,0c0.576,0 1.07,0.194 1.482,0.582c0.412,0.388 0.618,0.854 0.618,1.398l0,1.32c0,0.312 -0.092,0.582 -0.276,0.81c-0.184,0.228 -0.432,0.458 -0.744,0.69c0.456,0.056 0.74,0.318 0.852,0.786c0.112,0.468 0.168,1.214 0.168,2.238l-2.1,0c0,-0.68 -0.06,-1.18 -0.18,-1.5c-0.12,-0.32 -0.28,-0.48 -0.48,-0.48l-4.08,0l0,1.956Zm0,-5.82l0,1.884l3.804,0c0.256,0 0.476,-0.1 0.66,-0.3c0.184,-0.2 0.276,-0.44 0.276,-0.72c0,-0.24 -0.092,-0.444 -0.276,-0.612c-0.184,-0.168 -0.404,-0.252 -0.66,-0.252l-3.804,0Z" style="fill-rule:nonzero;"/>
        <path d="M129.483,301.985l0,1.02l-3.324,0l0,0.876l3.528,0l0,1.176l-4.788,0l0,-5.076l4.788,0l0,1.176l-3.528,0l0,0.828l3.324,0Z" style="fill-rule:nonzero;"/>
        <path d="M130.347,303.437l1.26,0.036c0,0.16 0.034,0.294 0.102,0.402c0.068,0.108 0.154,0.162 0.258,0.162l1.728,0c0.168,0 0.314,-0.05 0.438,-0.15c0.124,-0.1 0.186,-0.214 0.186,-0.342c0,-0.12 -0.044,-0.224 -0.132,-0.312c-0.088,-0.088 -0.192,-0.132 -0.312,-0.132l-2.268,-0.096c-0.432,0 -0.75,-0.114 -0.954,-0.342c-0.204,-0.228 -0.306,-0.522 -0.306,-0.882l0,-0.78c0,-0.288 0.122,-0.53 0.366,-0.726c0.244,-0.196 0.542,-0.294 0.894,-0.294l2.844,0c0.272,0 0.504,0.1 0.696,0.3c0.192,0.2 0.288,0.44 0.288,0.72l0,0.48l-1.26,0c0,-0.32 -0.168,-0.48 -0.504,-0.48l-1.728,0c-0.096,0 -0.176,0.04 -0.24,0.12c-0.064,0.08 -0.096,0.18 -0.096,0.3c0,0.16 0.012,0.272 0.036,0.336c0.024,0.064 0.1,0.096 0.228,0.096l2.448,0.084c0.384,0 0.69,0.106 0.918,0.318c0.228,0.212 0.342,0.59 0.342,1.134c0,0.656 -0.128,1.098 -0.384,1.326c-0.256,0.228 -0.648,0.342 -1.176,0.342l-2.412,0c-0.344,0 -0.64,-0.1 -0.888,-0.3c-0.248,-0.2 -0.372,-0.44 -0.372,-0.72l0,-0.6Z" style="fill-rule:nonzero;"/>
        <path d="M140.967,301.985l0,1.02l-3.324,0l0,0.876l3.528,0l0,1.176l-4.788,0l0,-5.076l4.788,0l0,1.176l-3.528,0l0,0.828l3.324,0Z" style="fill-rule:nonzero;"/>
        <path d="M141.795,305.057l2.292,-5.076l1.98,0l2.268,5.076l-1.392,0l-0.432,-0.96l-2.88,0l-0.432,0.96l-1.404,0Zm4.26,-1.98l-0.984,-2.184l-0.984,2.184l1.968,0Z" style="fill-rule:nonzero;"/>
        <path d="M150.291,305.057l-1.26,0l0,-5.076l4.104,0c0.344,0 0.64,0.124 0.888,0.372c0.248,0.248 0.372,0.552 0.372,0.912l0,0.864c0,0.208 -0.054,0.382 -0.162,0.522c-0.108,0.14 -0.258,0.29 -0.45,0.45c0.272,0.04 0.442,0.216 0.51,0.528c0.068,0.312 0.102,0.792 0.102,1.44l-1.26,0c0,-0.456 -0.034,-0.784 -0.102,-0.984c-0.068,-0.2 -0.166,-0.3 -0.294,-0.3l-2.448,0l0,1.272Zm0,-3.792l0,1.236l2.28,0c0.152,0 0.284,-0.064 0.396,-0.192c0.112,-0.128 0.168,-0.288 0.168,-0.48c0,-0.152 -0.056,-0.284 -0.168,-0.396c-0.112,-0.112 -0.244,-0.168 -0.396,-0.168l-2.28,0Z" style="fill-rule:nonzero;"/>
        <path d="M160.023,303.161l1.26,0l0,0.72c0,0.32 -0.124,0.596 -0.372,0.828c-0.248,0.232 -0.544,0.348 -0.888,0.348l-3.456,0c-0.352,0 -0.65,-0.114 -0.894,-0.342c-0.244,-0.228 -0.366,-0.506 -0.366,-0.834l0,-2.724c0,-0.328 0.122,-0.606 0.366,-0.834c0.244,-0.228 0.542,-0.342 0.894,-0.342l3.456,0c0.352,0 0.65,0.114 0.894,0.342c0.244,0.228 0.366,0.506 0.366,0.834l0,0.636l-1.26,0c0,-0.168 -0.072,-0.316 -0.216,-0.444c-0.144,-0.128 -0.312,-0.192 -0.504,-0.192l-2.016,0c-0.2,0 -0.37,0.062 -0.51,0.186c-0.14,0.124 -0.21,0.274 -0.21,0.45l0,1.368c0,0.2 0.07,0.37 0.21,0.51c0.14,0.14 0.31,0.21 0.51,0.21l2.016,0c0.2,0 0.37,-0.07 0.51,-0.21c0.14,-0.14 0.21,-0.31 0.21,-0.51Z" style="fill-rule:nonzero;"/>
        <path d="M163.407,303.185l0,1.872l-1.26,0l0,-5.076l1.26,0l0,1.836l3.108,0l0,-1.836l1.26,0l0,5.076l-1.26,0l0,-1.872l-3.108,0Z" style="fill-rule:nonzero;"/>
        <path d="M173.319,305.057l2.292,-5.076l1.98,0l2.268,5.076l-1.392,0l-0.432,-0.96l-2.88,0l-0.432,0.96l-1.404,0Zm4.26,-1.98l-0.984,-2.184l-0.984,2.184l1.968,0Z" style="fill-rule:nonzero;"/>
        <path d="M180.591,305.057l0,-5.076l2.16,0l2.556,4.092l0,-4.092l1.26,0l0,5.076l-2.184,0l-2.532,-4.08l0,4.08l-1.26,0Z" style="fill-rule:nonzero;"/>
        <path d="M193.227,301.817l0,1.368c0,0.512 -0.124,0.952 -0.372,1.32c-0.248,0.368 -0.544,0.552 -0.888,0.552l-4.572,0l0,-5.076l4.572,0c0.344,0 0.64,0.18 0.888,0.54c0.248,0.36 0.372,0.792 0.372,1.296Zm-1.26,1.344l0,-1.344c0,-0.144 -0.06,-0.272 -0.18,-0.384c-0.12,-0.112 -0.264,-0.168 -0.432,-0.168l-2.7,0l0,2.508l2.676,0c0.168,0 0.316,-0.06 0.444,-0.18c0.128,-0.12 0.192,-0.264 0.192,-0.432Z" style="fill-rule:nonzero;"/>
        <path d="M66.609,319.057l0,-7.8l6.756,0c0.656,0 1.17,0.216 1.542,0.648c0.372,0.432 0.558,1.216 0.558,2.352c0,1.152 -0.184,1.934 -0.552,2.346c-0.368,0.412 -0.884,0.618 -1.548,0.618l-4.656,0l0,1.836l-2.1,0Zm2.1,-5.82l0,2.004l3.816,0c0.224,0 0.42,-0.096 0.588,-0.288c0.168,-0.192 0.252,-0.424 0.252,-0.696c0,-0.28 -0.084,-0.52 -0.252,-0.72c-0.168,-0.2 -0.376,-0.3 -0.624,-0.3l-3.78,0Z" style="fill-rule:nonzero;"/>
        <path d="M76.197,319.057l2.292,-5.076l1.98,0l2.268,5.076l-1.392,0l-0.432,-0.96l-2.88,0l-0.432,0.96l-1.404,0Zm4.26,-1.98l-0.984,-2.184l-0.984,2.184l1.968,0Z" style="fill-rule:nonzero;"/>
        <path d="M86.721,319.057l-1.428,0l0,-3.708l-1.956,0l0,-1.368l5.328,0l0,1.368l-1.944,0l0,3.708Z" style="fill-rule:nonzero;"/>
        <path d="M90.717,319.057l-1.26,0l0,-5.076l4.104,0c0.344,0 0.64,0.124 0.888,0.372c0.248,0.248 0.372,0.552 0.372,0.912l0,0.864c0,0.208 -0.054,0.382 -0.162,0.522c-0.108,0.14 -0.258,0.29 -0.45,0.45c0.272,0.04 0.442,0.216 0.51,0.528c0.068,0.312 0.102,0.792 0.102,1.44l-1.26,0c0,-0.456 -0.034,-0.784 -0.102,-0.984c-0.068,-0.2 -0.166,-0.3 -0.294,-0.3l-2.448,0l0,1.272Zm0,-3.792l0,1.236l2.28,0c0.152,0 0.284,-0.064 0.396,-0.192c0.112,-0.128 0.168,-0.288 0.168,-0.48c0,-0.152 -0.056,-0.284 -0.168,-0.396c-0.112,-0.112 -0.244,-0.168 -0.396,-0.168l-2.28,0Z" style="fill-rule:nonzero;"/>
        <rect x="95.733" y="313.981" width="1.26" height="5.076" style="fill-rule:nonzero;"/>
        <path d="M102.489,317.161l1.26,0l0,0.72c0,0.32 -0.124,0.596 -0.372,0.828c-0.248,0.232 -0.544,0.348 -0.888,0.348l-3.456,0c-0.352,0 -0.65,-0.114 -0.894,-0.342c-0.244,-0.228 -0.366,-0.506 -0.366,-0.834l0,-2.724c0,-0.328 0.122,-0.606 0.366,-0.834c0.244,-0.228 0.542,-0.342 0.894,-0.342l3.456,0c0.352,0 0.65,0.114 0.894,0.342c0.244,0.228 0.366,0.506 0.366,0.834l0,0.636l-1.26,0c0,-0.168 -0.072,-0.316 -0.216,-0.444c-0.144,-0.128 -0.312,-0.192 -0.504,-0.192l-2.016,0c-0.2,0 -0.37,0.062 -0.51,0.186c-0.14,0.124 -0.21,0.274 -0.21,0.45l0,1.368c0,0.2 0.07,0.37 0.21,0.51c0.14,0.14 0.31,0.21 0.51,0.21l2.016,0c0.2,0 0.37,-0.07 0.51,-0.21c0.14,-0.14 0.21,-0.31 0.21,-0.51Z" style="fill-rule:nonzero;"/>
        <path d="M105.909,319.057l-1.26,0l0,-5.076l1.26,0l0,1.836l0.78,0l1.812,-1.836l1.86,0l-2.472,2.472l2.808,2.604l-1.944,0l-2.016,-1.872l-0.828,0l0,1.872Z" style="fill-rule:nonzero;"/>
        <path d="M116.373,319.057l0,-7.8l2.1,0l0,6l5.46,0l0,1.8l-7.56,0Z" style="fill-rule:nonzero;"/>
        <rect x="124.797" y="313.981" width="1.26" height="5.076" style="fill-rule:nonzero;"/>
        <path d="M126.837,319.057l0,-5.076l2.16,0l2.556,4.092l0,-4.092l1.26,0l0,5.076l-2.184,0l-2.532,-4.08l0,4.08l-1.26,0Z" style="fill-rule:nonzero;"/>
        <path d="M139.473,315.817l0,1.368c0,0.512 -0.124,0.952 -0.372,1.32c-0.248,0.368 -0.544,0.552 -0.888,0.552l-4.572,0l0,-5.076l4.572,0c0.344,0 0.64,0.18 0.888,0.54c0.248,0.36 0.372,0.792 0.372,1.296Zm-1.26,1.344l0,-1.344c0,-0.144 -0.06,-0.272 -0.18,-0.384c-0.12,-0.112 -0.264,-0.168 -0.432,-0.168l-2.7,0l0,2.508l2.676,0c0.168,0 0.316,-0.06 0.444,-0.18c0.128,-0.12 0.192,-0.264 0.192,-0.432Z" style="fill-rule:nonzero;"/>
        <path d="M144.909,315.985l0,1.02l-3.324,0l0,0.876l3.528,0l0,1.176l-4.788,0l0,-5.076l4.788,0l0,1.176l-3.528,0l0,0.828l3.324,0Z" style="fill-rule:nonzero;"/>
        <path d="M145.845,319.057l0,-5.076l2.16,0l2.556,4.092l0,-4.092l1.26,0l0,5.076l-2.184,0l-2.532,-4.08l0,4.08l-1.26,0Z" style="fill-rule:nonzero;"/>
        <path d="M152.649,319.057l0,-5.076l4.332,0c0.272,0 0.506,0.102 0.702,0.306c0.196,0.204 0.294,0.446 0.294,0.726l0,0.492c0,0.264 -0.04,0.462 -0.12,0.594c-0.08,0.132 -0.232,0.266 -0.456,0.402c0.208,0 0.376,0.102 0.504,0.306c0.128,0.204 0.192,0.458 0.192,0.762l0,0.528c0,0.288 -0.108,0.52 -0.324,0.696c-0.216,0.176 -0.568,0.264 -1.056,0.264l-4.068,0Zm1.26,-3.9l0,0.828l2.376,0c0.12,0 0.222,-0.042 0.306,-0.126c0.084,-0.084 0.126,-0.182 0.126,-0.294c0,-0.112 -0.042,-0.208 -0.126,-0.288c-0.084,-0.08 -0.186,-0.12 -0.306,-0.12l-2.376,0Zm0,1.848l0,0.876l2.604,0c0.096,0 0.184,-0.044 0.264,-0.132c0.08,-0.088 0.12,-0.192 0.12,-0.312c0,-0.12 -0.038,-0.222 -0.114,-0.306c-0.076,-0.084 -0.166,-0.126 -0.27,-0.126l-2.604,0Z" style="fill-rule:nonzero;"/>
        <path d="M163.413,315.985l0,1.02l-3.324,0l0,0.876l3.528,0l0,1.176l-4.788,0l0,-5.076l4.788,0l0,1.176l-3.528,0l0,0.828l3.324,0Z" style="fill-rule:nonzero;"/>
        <path d="M165.573,319.057l-1.26,0l0,-5.076l4.104,0c0.344,0 0.64,0.124 0.888,0.372c0.248,0.248 0.372,0.552 0.372,0.912l0,0.864c0,0.208 -0.054,0.382 -0.162,0.522c-0.108,0.14 -0.258,0.29 -0.45,0.45c0.272,0.04 0.442,0.216 0.51,0.528c0.068,0.312 0.102,0.792 0.102,1.44l-1.26,0c0,-0.456 -0.034,-0.784 -0.102,-0.984c-0.068,-0.2 -0.166,-0.3 -0.294,-0.3l-2.448,0l0,1.272Zm0,-3.792l0,1.236l2.28,0c0.152,0 0.284,-0.064 0.396,-0.192c0.112,-0.128 0.168,-0.288 0.168,-0.48c0,-0.152 -0.056,-0.284 -0.168,-0.396c-0.112,-0.112 -0.244,-0.168 -0.396,-0.168l-2.28,0Z" style="fill-rule:nonzero;"/>
        <path d="M174.945,317.161l-1.68,0l0,-1.02l2.94,0l0,1.74c0,0.32 -0.136,0.596 -0.408,0.828c-0.272,0.232 -0.6,0.348 -0.984,0.348l-2.964,0c-0.352,0 -0.65,-0.114 -0.894,-0.342c-0.244,-0.228 -0.366,-0.506 -0.366,-0.834l0,-2.724c0,-0.328 0.122,-0.606 0.366,-0.834c0.244,-0.228 0.542,-0.342 0.894,-0.342l2.964,0c0.392,0 0.722,0.114 0.99,0.342c0.268,0.228 0.402,0.506 0.402,0.834l0,0.468l-1.26,0c0,-0.128 -0.042,-0.238 -0.126,-0.33c-0.084,-0.092 -0.186,-0.138 -0.306,-0.138l-1.944,0c-0.2,0 -0.37,0.062 -0.51,0.186c-0.14,0.124 -0.21,0.274 -0.21,0.45l0,1.368c0,0.2 0.07,0.37 0.21,0.51c0.14,0.14 0.31,0.21 0.51,0.21l1.92,0c0.12,0 0.226,-0.072 0.318,-0.216c0.092,-0.144 0.138,-0.312 0.138,-0.504Z" style="fill-rule:nonzero;"/>
    </g>
    <g transform="matrix(1.12273,0,0,1.12273,-39.3589,1.88214)">
        <path d="M96.789,307.185l0,1.872l-1.26,0l0,-5.076l1.26,0l0,1.836l3.108,0l0,-1.836l1.26,0l0,5.076l-1.26,0l0,-1.872l-3.108,0Z" style="fill:#00030d;fill-rule:nonzero;"/>
        <path d="M106.533,305.985l0,1.02l-3.324,0l0,0.876l3.528,0l0,1.176l-4.788,0l0,-5.076l4.788,0l0,1.176l-3.528,0l0,0.828l3.324,0Z" style="fill:#00030d;fill-rule:nonzero;"/>
        <path d="M107.301,309.057l2.292,-5.076l1.98,0l2.268,5.076l-1.392,0l-0.432,-0.96l-2.88,0l-0.432,0.96l-1.404,0Zm4.26,-1.98l-0.984,-2.184l-0.984,2.184l1.968,0Z" style="fill:#00030d;fill-rule:nonzero;"/>
        <path d="M114.417,309.057l0,-5.076l4.056,0c0.392,0 0.7,0.142 0.924,0.426c0.224,0.284 0.336,0.794 0.336,1.53c0,0.752 -0.11,1.26 -0.33,1.524c-0.22,0.264 -0.53,0.396 -0.93,0.396l-2.796,0l0,1.2l-1.26,0Zm1.26,-3.792l0,1.308l2.292,0c0.144,0 0.264,-0.06 0.36,-0.18c0.096,-0.12 0.144,-0.272 0.144,-0.456c0,-0.184 -0.052,-0.342 -0.156,-0.474c-0.104,-0.132 -0.228,-0.198 -0.372,-0.198l-2.268,0Z" style="fill:#00030d;fill-rule:nonzero;"/>
        <path d="M126.249,305.817l0,1.368c0,0.512 -0.124,0.952 -0.372,1.32c-0.248,0.368 -0.544,0.552 -0.888,0.552l-4.572,0l0,-5.076l4.572,0c0.344,0 0.64,0.18 0.888,0.54c0.248,0.36 0.372,0.792 0.372,1.296Zm-1.26,1.344l0,-1.344c0,-0.144 -0.06,-0.272 -0.18,-0.384c-0.12,-0.112 -0.264,-0.168 -0.432,-0.168l-2.7,0l0,2.508l2.676,0c0.168,0 0.316,-0.06 0.444,-0.18c0.128,-0.12 0.192,-0.264 0.192,-0.432Z" style="fill:#00030d;fill-rule:nonzero;"/>
        <path d="M126.909,307.881l0,-3.9l1.26,0l0,3.18c0,0.2 0.07,0.37 0.21,0.51c0.14,0.14 0.31,0.21 0.51,0.21l1.68,0c0.2,0 0.37,-0.07 0.51,-0.21c0.14,-0.14 0.21,-0.31 0.21,-0.51l0,-3.18l1.26,0l0,3.9c0,0.32 -0.124,0.596 -0.372,0.828c-0.248,0.232 -0.544,0.348 -0.888,0.348l-3.12,0c-0.352,0 -0.65,-0.114 -0.894,-0.342c-0.244,-0.228 -0.366,-0.506 -0.366,-0.834Z" style="fill:#00030d;fill-rule:nonzero;"/>
        <path d="M133.245,309.057l0,-5.076l2.232,0l1.392,3.264l1.404,-3.264l2.22,0l0,5.076l-1.26,0l0,-4.26l-1.824,4.26l-1.08,0l-1.824,-4.296l0,4.296l-1.26,0Z" style="fill:#00030d;fill-rule:nonzero;"/>
        <path d="M141.213,309.057l0,-5.076l4.056,0c0.392,0 0.7,0.142 0.924,0.426c0.224,0.284 0.336,0.794 0.336,1.53c0,0.752 -0.11,1.26 -0.33,1.524c-0.22,0.264 -0.53,0.396 -0.93,0.396l-2.796,0l0,1.2l-1.26,0Zm1.26,-3.792l0,1.308l2.292,0c0.144,0 0.264,-0.06 0.36,-0.18c0.096,-0.12 0.144,-0.272 0.144,-0.456c0,-0.184 -0.052,-0.342 -0.156,-0.474c-0.104,-0.132 -0.228,-0.198 -0.372,-0.198l-2.268,0Z" style="fill:#00030d;fill-rule:nonzero;"/>
        <path d="M154.16,310.574l0,0.692c-0.657,0.164 -1.239,0.246 -1.746,0.246c-1.52,0 -2.736,-0.489 -3.648,-1.468c-0.912,-0.978 -1.368,-2.284 -1.368,-3.917c0,-1.633 0.488,-2.999 1.465,-4.098c0.976,-1.1 2.189,-1.65 3.639,-1.65c1.253,0 2.271,0.444 3.052,1.333c0.782,0.889 1.172,2.048 1.172,3.478c0,1.129 -0.185,2.007 -0.557,2.636c-0.371,0.629 -0.89,0.944 -1.558,0.944c-0.66,0 -1.137,-0.397 -1.43,-1.19c-0.605,0.793 -1.22,1.19 -1.845,1.19c-0.497,0 -0.891,-0.205 -1.184,-0.615c-0.293,-0.411 -0.44,-0.963 -0.44,-1.659c0,-1.035 0.27,-1.879 0.809,-2.531c0.539,-0.652 1.236,-0.978 2.092,-0.978c0.305,0 0.76,0.035 1.365,0.105l0,3.018l0.006,0.545c0,0.55 0.054,0.925 0.161,1.125c0.107,0.199 0.31,0.298 0.607,0.298c0.859,0 1.289,-0.863 1.289,-2.589c0,-1.411 -0.307,-2.5 -0.92,-3.267c-0.614,-0.768 -1.485,-1.151 -2.614,-1.151c-1.269,0 -2.323,0.477 -3.161,1.432c-0.838,0.955 -1.257,2.157 -1.257,3.607c0,1.441 0.387,2.588 1.161,3.442c0.773,0.854 1.816,1.28 3.128,1.28c0.524,0 1.118,-0.086 1.782,-0.258Zm-1.049,-6.796c-0.305,-0.071 -0.541,-0.106 -0.709,-0.106c-1.191,0 -1.787,0.914 -1.787,2.742c0,1.051 0.312,1.576 0.937,1.576c0.582,0 1.102,-0.462 1.559,-1.388l0,-2.824Z" style="fill:#00030d;fill-rule:nonzero;"/>
        <rect x="157.514" y="303.981" width="1.26" height="5.076" style="fill:#00030d;fill-rule:nonzero;"/>
        <path d="M164.21,307.161l1.26,0l0,0.72c0,0.32 -0.124,0.596 -0.372,0.828c-0.248,0.232 -0.544,0.348 -0.888,0.348l-3.456,0c-0.352,0 -0.65,-0.114 -0.894,-0.342c-0.244,-0.228 -0.366,-0.506 -0.366,-0.834l0,-2.724c0,-0.328 0.122,-0.606 0.366,-0.834c0.244,-0.228 0.542,-0.342 0.894,-0.342l3.456,0c0.352,0 0.65,0.114 0.894,0.342c0.244,0.228 0.366,0.506 0.366,0.834l0,0.636l-1.26,0c0,-0.168 -0.072,-0.316 -0.216,-0.444c-0.144,-0.128 -0.312,-0.192 -0.504,-0.192l-2.016,0c-0.2,0 -0.37,0.062 -0.51,0.186c-0.14,0.124 -0.21,0.274 -0.21,0.45l0,1.368c0,0.2 0.07,0.37 0.21,0.51c0.14,0.14 0.31,0.21 0.51,0.21l2.016,0c0.2,0 0.37,-0.07 0.51,-0.21c0.14,-0.14 0.21,-0.31 0.21,-0.51Z" style="fill:#00030d;fill-rule:nonzero;"/>
        <path d="M166.202,309.057l0,-5.076l1.26,0l0,3.9l3.276,0l0,1.176l-4.536,0Z" style="fill:#00030d;fill-rule:nonzero;"/>
        <path d="M171.398,307.773l0,-2.508c0,-0.36 0.12,-0.664 0.36,-0.912c0.24,-0.248 0.54,-0.372 0.9,-0.372l3.456,0c0.352,0 0.65,0.126 0.894,0.378c0.244,0.252 0.366,0.554 0.366,0.906l0,2.484c0,0.36 -0.12,0.668 -0.36,0.924c-0.24,0.256 -0.54,0.384 -0.9,0.384l-3.456,0c-0.344,0 -0.64,-0.128 -0.888,-0.384c-0.248,-0.256 -0.372,-0.556 -0.372,-0.9Zm1.8,0l2.364,0c0.152,0 0.282,-0.058 0.39,-0.174c0.108,-0.116 0.162,-0.254 0.162,-0.414l0,-1.368c0,-0.152 -0.054,-0.282 -0.162,-0.39c-0.108,-0.108 -0.238,-0.162 -0.39,-0.162l-2.364,0c-0.152,0 -0.28,0.052 -0.384,0.156c-0.104,0.104 -0.156,0.236 -0.156,0.396l0,1.368c0,0.16 0.054,0.298 0.162,0.414c0.108,0.116 0.234,0.174 0.378,0.174Z" style="fill:#00030d;fill-rule:nonzero;"/>
        <path d="M177.962,307.881l0,-3.9l1.26,0l0,3.18c0,0.2 0.07,0.37 0.21,0.51c0.14,0.14 0.31,0.21 0.51,0.21l1.68,0c0.2,0 0.37,-0.07 0.51,-0.21c0.14,-0.14 0.21,-0.31 0.21,-0.51l0,-3.18l1.26,0l0,3.9c0,0.32 -0.124,0.596 -0.372,0.828c-0.248,0.232 -0.544,0.348 -0.888,0.348l-3.12,0c-0.352,0 -0.65,-0.114 -0.894,-0.342c-0.244,-0.228 -0.366,-0.506 -0.366,-0.834Z" style="fill:#00030d;fill-rule:nonzero;"/>
        <path d="M190.13,305.817l0,1.368c0,0.512 -0.124,0.952 -0.372,1.32c-0.248,0.368 -0.544,0.552 -0.888,0.552l-4.572,0l0,-5.076l4.572,0c0.344,0 0.64,0.18 0.888,0.54c0.248,0.36 0.372,0.792 0.372,1.296Zm-1.26,1.344l0,-1.344c0,-0.144 -0.06,-0.272 -0.18,-0.384c-0.12,-0.112 -0.264,-0.168 -0.432,-0.168l-2.7,0l0,2.508l2.676,0c0.168,0 0.316,-0.06 0.444,-0.18c0.128,-0.12 0.192,-0.264 0.192,-0.432Z" style="fill:#00030d;fill-rule:nonzero;"/>
        <rect x="191.066" y="306.657" width="2.4" height="2.4" style="fill:#00030d;fill-rule:nonzero;"/>
        <path d="M199.082,307.161l1.26,0l0,0.72c0,0.32 -0.124,0.596 -0.372,0.828c-0.248,0.232 -0.544,0.348 -0.888,0.348l-3.456,0c-0.352,0 -0.65,-0.114 -0.894,-0.342c-0.244,-0.228 -0.366,-0.506 -0.366,-0.834l0,-2.724c0,-0.328 0.122,-0.606 0.366,-0.834c0.244,-0.228 0.542,-0.342 0.894,-0.342l3.456,0c0.352,0 0.65,0.114 0.894,0.342c0.244,0.228 0.366,0.506 0.366,0.834l0,0.636l-1.26,0c0,-0.168 -0.072,-0.316 -0.216,-0.444c-0.144,-0.128 -0.312,-0.192 -0.504,-0.192l-2.016,0c-0.2,0 -0.37,0.062 -0.51,0.186c-0.14,0.124 -0.21,0.274 -0.21,0.45l0,1.368c0,0.2 0.07,0.37 0.21,0.51c0.14,0.14 0.31,0.21 0.51,0.21l2.016,0c0.2,0 0.37,-0.07 0.51,-0.21c0.14,-0.14 0.21,-0.31 0.21,-0.51Z" style="fill:#00030d;fill-rule:nonzero;"/>
        <path d="M201.05,307.773l0,-2.508c0,-0.36 0.12,-0.664 0.36,-0.912c0.24,-0.248 0.54,-0.372 0.9,-0.372l3.456,0c0.352,0 0.65,0.126 0.894,0.378c0.244,0.252 0.366,0.554 0.366,0.906l0,2.484c0,0.36 -0.12,0.668 -0.36,0.924c-0.24,0.256 -0.54,0.384 -0.9,0.384l-3.456,0c-0.344,0 -0.64,-0.128 -0.888,-0.384c-0.248,-0.256 -0.372,-0.556 -0.372,-0.9Zm1.8,0l2.364,0c0.152,0 0.282,-0.058 0.39,-0.174c0.108,-0.116 0.162,-0.254 0.162,-0.414l0,-1.368c0,-0.152 -0.054,-0.282 -0.162,-0.39c-0.108,-0.108 -0.238,-0.162 -0.39,-0.162l-2.364,0c-0.152,0 -0.28,0.052 -0.384,0.156c-0.104,0.104 -0.156,0.236 -0.156,0.396l0,1.368c0,0.16 0.054,0.298 0.162,0.414c0.108,0.116 0.234,0.174 0.378,0.174Z" style="fill:#00030d;fill-rule:nonzero;"/>
        <path d="M207.746,309.057l0,-5.076l2.232,0l1.392,3.264l1.404,-3.264l2.22,0l0,5.076l-1.26,0l0,-4.26l-1.824,4.26l-1.08,0l-1.824,-4.296l0,4.296l-1.26,0Z" style="fill:#00030d;fill-rule:nonzero;"/>
        <path d="M74.123,321.161l-1.68,0l0,-1.02l2.94,0l0,1.74c0,0.32 -0.136,0.596 -0.408,0.828c-0.272,0.232 -0.6,0.348 -0.984,0.348l-2.964,0c-0.352,0 -0.65,-0.114 -0.894,-0.342c-0.244,-0.228 -0.366,-0.506 -0.366,-0.834l0,-2.724c0,-0.328 0.122,-0.606 0.366,-0.834c0.244,-0.228 0.542,-0.342 0.894,-0.342l2.964,0c0.392,0 0.722,0.114 0.99,0.342c0.268,0.228 0.402,0.506 0.402,0.834l0,0.468l-1.26,0c0,-0.128 -0.042,-0.238 -0.126,-0.33c-0.084,-0.092 -0.186,-0.138 -0.306,-0.138l-1.944,0c-0.2,0 -0.37,0.062 -0.51,0.186c-0.14,0.124 -0.21,0.274 -0.21,0.45l0,1.368c0,0.2 0.07,0.37 0.21,0.51c0.14,0.14 0.31,0.21 0.51,0.21l1.92,0c0.12,0 0.226,-0.072 0.318,-0.216c0.092,-0.144 0.138,-0.312 0.138,-0.504Z" style="fill:#00030d;fill-rule:nonzero;"/>
        <rect x="76.091" y="317.981" width="1.26" height="5.076" style="fill:#00030d;fill-rule:nonzero;"/>
        <path d="M81.323,323.057l-1.428,0l0,-3.708l-1.956,0l0,-1.368l5.328,0l0,1.368l-1.944,0l0,3.708Z" style="fill:#00030d;fill-rule:nonzero;"/>
        <path d="M85.295,321.185l0,1.872l-1.26,0l0,-5.076l1.26,0l0,1.836l3.108,0l0,-1.836l1.26,0l0,5.076l-1.26,0l0,-1.872l-3.108,0Z" style="fill:#00030d;fill-rule:nonzero;"/>
        <path d="M90.323,321.881l0,-3.9l1.26,0l0,3.18c0,0.2 0.07,0.37 0.21,0.51c0.14,0.14 0.31,0.21 0.51,0.21l1.68,0c0.2,0 0.37,-0.07 0.51,-0.21c0.14,-0.14 0.21,-0.31 0.21,-0.51l0,-3.18l1.26,0l0,3.9c0,0.32 -0.124,0.596 -0.372,0.828c-0.248,0.232 -0.544,0.348 -0.888,0.348l-3.12,0c-0.352,0 -0.65,-0.114 -0.894,-0.342c-0.244,-0.228 -0.366,-0.506 -0.366,-0.834Z" style="fill:#00030d;fill-rule:nonzero;"/>
        <path d="M96.659,323.057l0,-5.076l4.332,0c0.272,0 0.506,0.102 0.702,0.306c0.196,0.204 0.294,0.446 0.294,0.726l0,0.492c0,0.264 -0.04,0.462 -0.12,0.594c-0.08,0.132 -0.232,0.266 -0.456,0.402c0.208,0 0.376,0.102 0.504,0.306c0.128,0.204 0.192,0.458 0.192,0.762l0,0.528c0,0.288 -0.108,0.52 -0.324,0.696c-0.216,0.176 -0.568,0.264 -1.056,0.264l-4.068,0Zm1.26,-3.9l0,0.828l2.376,0c0.12,0 0.222,-0.042 0.306,-0.126c0.084,-0.084 0.126,-0.182 0.126,-0.294c0,-0.112 -0.042,-0.208 -0.126,-0.288c-0.084,-0.08 -0.186,-0.12 -0.306,-0.12l-2.376,0Zm0,1.848l0,0.876l2.604,0c0.096,0 0.184,-0.044 0.264,-0.132c0.08,-0.088 0.12,-0.192 0.12,-0.312c0,-0.12 -0.038,-0.222 -0.114,-0.306c-0.076,-0.084 -0.166,-0.126 -0.27,-0.126l-2.604,0Z" style="fill:#00030d;fill-rule:nonzero;"/>
        <rect x="102.923" y="320.657" width="2.4" height="2.4" style="fill:#00030d;fill-rule:nonzero;"/>
        <path d="M110.939,321.161l1.26,0l0,0.72c0,0.32 -0.124,0.596 -0.372,0.828c-0.248,0.232 -0.544,0.348 -0.888,0.348l-3.456,0c-0.352,0 -0.65,-0.114 -0.894,-0.342c-0.244,-0.228 -0.366,-0.506 -0.366,-0.834l0,-2.724c0,-0.328 0.122,-0.606 0.366,-0.834c0.244,-0.228 0.542,-0.342 0.894,-0.342l3.456,0c0.352,0 0.65,0.114 0.894,0.342c0.244,0.228 0.366,0.506 0.366,0.834l0,0.636l-1.26,0c0,-0.168 -0.072,-0.316 -0.216,-0.444c-0.144,-0.128 -0.312,-0.192 -0.504,-0.192l-2.016,0c-0.2,0 -0.37,0.062 -0.51,0.186c-0.14,0.124 -0.21,0.274 -0.21,0.45l0,1.368c0,0.2 0.07,0.37 0.21,0.51c0.14,0.14 0.31,0.21 0.51,0.21l2.016,0c0.2,0 0.37,-0.07 0.51,-0.21c0.14,-0.14 0.21,-0.31 0.21,-0.51Z" style="fill:#00030d;fill-rule:nonzero;"/>
        <path d="M112.907,321.773l0,-2.508c0,-0.36 0.12,-0.664 0.36,-0.912c0.24,-0.248 0.54,-0.372 0.9,-0.372l3.456,0c0.352,0 0.65,0.126 0.894,0.378c0.244,0.252 0.366,0.554 0.366,0.906l0,2.484c0,0.36 -0.12,0.668 -0.36,0.924c-0.24,0.256 -0.54,0.384 -0.9,0.384l-3.456,0c-0.344,0 -0.64,-0.128 -0.888,-0.384c-0.248,-0.256 -0.372,-0.556 -0.372,-0.9Zm1.8,0l2.364,0c0.152,0 0.282,-0.058 0.39,-0.174c0.108,-0.116 0.162,-0.254 0.162,-0.414l0,-1.368c0,-0.152 -0.054,-0.282 -0.162,-0.39c-0.108,-0.108 -0.238,-0.162 -0.39,-0.162l-2.364,0c-0.152,0 -0.28,0.052 -0.384,0.156c-0.104,0.104 -0.156,0.236 -0.156,0.396l0,1.368c0,0.16 0.054,0.298 0.162,0.414c0.108,0.116 0.234,0.174 0.378,0.174Z" style="fill:#00030d;fill-rule:nonzero;"/>
        <path d="M119.603,323.057l0,-5.076l2.232,0l1.392,3.264l1.404,-3.264l2.22,0l0,5.076l-1.26,0l0,-4.26l-1.824,4.26l-1.08,0l-1.824,-4.296l0,4.296l-1.26,0Z" style="fill:#00030d;fill-rule:nonzero;"/>
        <path d="M127.679,323.057l5.352,-7.8l1.452,0l-5.352,7.8l-1.452,0Z" style="fill:#00030d;fill-rule:nonzero;"/>
        <path d="M135.155,323.057l0,-5.076l1.26,0l0,3.9l3.276,0l0,1.176l-4.536,0Z" style="fill:#00030d;fill-rule:nonzero;"/>
        <rect x="140.447" y="317.981" width="1.26" height="5.076" style="fill:#00030d;fill-rule:nonzero;"/>
        <path d="M142.427,323.057l0,-5.076l2.16,0l2.556,4.092l0,-4.092l1.26,0l0,5.076l-2.184,0l-2.532,-4.08l0,4.08l-1.26,0Z" style="fill:#00030d;fill-rule:nonzero;"/>
        <path d="M155.003,319.817l0,1.368c0,0.512 -0.124,0.952 -0.372,1.32c-0.248,0.368 -0.544,0.552 -0.888,0.552l-4.572,0l0,-5.076l4.572,0c0.344,0 0.64,0.18 0.888,0.54c0.248,0.36 0.372,0.792 0.372,1.296Zm-1.26,1.344l0,-1.344c0,-0.144 -0.06,-0.272 -0.18,-0.384c-0.12,-0.112 -0.264,-0.168 -0.432,-0.168l-2.7,0l0,2.508l2.676,0c0.168,0 0.316,-0.06 0.444,-0.18c0.128,-0.12 0.192,-0.264 0.192,-0.432Z" style="fill:#00030d;fill-rule:nonzero;"/>
        <path d="M160.379,319.985l0,1.02l-3.324,0l0,0.876l3.528,0l0,1.176l-4.788,0l0,-5.076l4.788,0l0,1.176l-3.528,0l0,0.828l3.324,0Z" style="fill:#00030d;fill-rule:nonzero;"/>
        <path d="M161.255,323.057l0,-5.076l2.16,0l2.556,4.092l0,-4.092l1.26,0l0,5.076l-2.184,0l-2.532,-4.08l0,4.08l-1.26,0Z" style="fill:#00030d;fill-rule:nonzero;"/>
        <path d="M167.999,323.057l0,-5.076l4.332,0c0.272,0 0.506,0.102 0.702,0.306c0.196,0.204 0.294,0.446 0.294,0.726l0,0.492c0,0.264 -0.04,0.462 -0.12,0.594c-0.08,0.132 -0.232,0.266 -0.456,0.402c0.208,0 0.376,0.102 0.504,0.306c0.128,0.204 0.192,0.458 0.192,0.762l0,0.528c0,0.288 -0.108,0.52 -0.324,0.696c-0.216,0.176 -0.568,0.264 -1.056,0.264l-4.068,0Zm1.26,-3.9l0,0.828l2.376,0c0.12,0 0.222,-0.042 0.306,-0.126c0.084,-0.084 0.126,-0.182 0.126,-0.294c0,-0.112 -0.042,-0.208 -0.126,-0.288c-0.084,-0.08 -0.186,-0.12 -0.306,-0.12l-2.376,0Zm0,1.848l0,0.876l2.604,0c0.096,0 0.184,-0.044 0.264,-0.132c0.08,-0.088 0.12,-0.192 0.12,-0.312c0,-0.12 -0.038,-0.222 -0.114,-0.306c-0.076,-0.084 -0.166,-0.126 -0.27,-0.126l-2.604,0Z" style="fill:#00030d;fill-rule:nonzero;"/>
        <path d="M178.703,319.985l0,1.02l-3.324,0l0,0.876l3.528,0l0,1.176l-4.788,0l0,-5.076l4.788,0l0,1.176l-3.528,0l0,0.828l3.324,0Z" style="fill:#00030d;fill-rule:nonzero;"/>
        <path d="M180.803,323.057l-1.26,0l0,-5.076l4.104,0c0.344,0 0.64,0.124 0.888,0.372c0.248,0.248 0.372,0.552 0.372,0.912l0,0.864c0,0.208 -0.054,0.382 -0.162,0.522c-0.108,0.14 -0.258,0.29 -0.45,0.45c0.272,0.04 0.442,0.216 0.51,0.528c0.068,0.312 0.102,0.792 0.102,1.44l-1.26,0c0,-0.456 -0.034,-0.784 -0.102,-0.984c-0.068,-0.2 -0.166,-0.3 -0.294,-0.3l-2.448,0l0,1.272Zm0,-3.792l0,1.236l2.28,0c0.152,0 0.284,-0.064 0.396,-0.192c0.112,-0.128 0.168,-0.288 0.168,-0.48c0,-0.152 -0.056,-0.284 -0.168,-0.396c-0.112,-0.112 -0.244,-0.168 -0.396,-0.168l-2.28,0Z" style="fill:#00030d;fill-rule:nonzero;"/>
        <path d="M190.115,321.161l-1.68,0l0,-1.02l2.94,0l0,1.74c0,0.32 -0.136,0.596 -0.408,0.828c-0.272,0.232 -0.6,0.348 -0.984,0.348l-2.964,0c-0.352,0 -0.65,-0.114 -0.894,-0.342c-0.244,-0.228 -0.366,-0.506 -0.366,-0.834l0,-2.724c0,-0.328 0.122,-0.606 0.366,-0.834c0.244,-0.228 0.542,-0.342 0.894,-0.342l2.964,0c0.392,0 0.722,0.114 0.99,0.342c0.268,0.228 0.402,0.506 0.402,0.834l0,0.468l-1.26,0c0,-0.128 -0.042,-0.238 -0.126,-0.33c-0.084,-0.092 -0.186,-0.138 -0.306,-0.138l-1.944,0c-0.2,0 -0.37,0.062 -0.51,0.186c-0.14,0.124 -0.21,0.274 -0.21,0.45l0,1.368c0,0.2 0.07,0.37 0.21,0.51c0.14,0.14 0.31,0.21 0.51,0.21l1.92,0c0.12,0 0.226,-0.072 0.318,-0.216c0.092,-0.144 0.138,-0.312 0.138,-0.504Z" style="fill:#00030d;fill-rule:nonzero;"/>
        <path d="M193.307,323.057l-1.26,0l0,-5.076l4.104,0c0.344,0 0.64,0.124 0.888,0.372c0.248,0.248 0.372,0.552 0.372,0.912l0,0.864c0,0.208 -0.054,0.382 -0.162,0.522c-0.108,0.14 -0.258,0.29 -0.45,0.45c0.272,0.04 0.442,0.216 0.51,0.528c0.068,0.312 0.102,0.792 0.102,1.44l-1.26,0c0,-0.456 -0.034,-0.784 -0.102,-0.984c-0.068,-0.2 -0.166,-0.3 -0.294,-0.3l-2.448,0l0,1.272Zm0,-3.792l0,1.236l2.28,0c0.152,0 0.284,-0.064 0.396,-0.192c0.112,-0.128 0.168,-0.288 0.168,-0.48c0,-0.152 -0.056,-0.284 -0.168,-0.396c-0.112,-0.112 -0.244,-0.168 -0.396,-0.168l-2.28,0Z" style="fill:#00030d;fill-rule:nonzero;"/>
        <path d="M202.847,319.985l0,1.02l-3.324,0l0,0.876l3.528,0l0,1.176l-4.788,0l0,-5.076l4.788,0l0,1.176l-3.528,0l0,0.828l3.324,0Z" style="fill:#00030d;fill-rule:nonzero;"/>
        <path d="M203.651,321.437l1.26,0.036c0,0.16 0.034,0.294 0.102,0.402c0.068,0.108 0.154,0.162 0.258,0.162l1.728,0c0.168,0 0.314,-0.05 0.438,-0.15c0.124,-0.1 0.186,-0.214 0.186,-0.342c0,-0.12 -0.044,-0.224 -0.132,-0.312c-0.088,-0.088 -0.192,-0.132 -0.312,-0.132l-2.268,-0.096c-0.432,0 -0.75,-0.114 -0.954,-0.342c-0.204,-0.228 -0.306,-0.522 -0.306,-0.882l0,-0.78c0,-0.288 0.122,-0.53 0.366,-0.726c0.244,-0.196 0.542,-0.294 0.894,-0.294l2.844,0c0.272,0 0.504,0.1 0.696,0.3c0.192,0.2 0.288,0.44 0.288,0.72l0,0.48l-1.26,0c0,-0.32 -0.168,-0.48 -0.504,-0.48l-1.728,0c-0.096,0 -0.176,0.04 -0.24,0.12c-0.064,0.08 -0.096,0.18 -0.096,0.3c0,0.16 0.012,0.272 0.036,0.336c0.024,0.064 0.1,0.096 0.228,0.096l2.448,0.084c0.384,0 0.69,0.106 0.918,0.318c0.228,0.212 0.342,0.59 0.342,1.134c0,0.656 -0.128,1.098 -0.384,1.326c-0.256,0.228 -0.648,0.342 -1.176,0.342l-2.412,0c-0.344,0 -0.64,-0.1 -0.888,-0.3c-0.248,-0.2 -0.372,-0.44 -0.372,-0.72l0,-0.6Z" style="fill:#00030d;fill-rule:nonzero;"/>
        <path d="M214.211,319.985l0,1.02l-3.324,0l0,0.876l3.528,0l0,1.176l-4.788,0l0,-5.076l4.788,0l0,1.176l-3.528,0l0,0.828l3.324,0Z" style="fill:#00030d;fill-rule:nonzero;"/>
        <path d="M214.979,323.057l2.292,-5.076l1.98,0l2.268,5.076l-1.392,0l-0.432,-0.96l-2.88,0l-0.432,0.96l-1.404,0Zm4.26,-1.98l-0.984,-2.184l-0.984,2.184l1.968,0Z" style="fill:#00030d;fill-rule:nonzero;"/>
        <path d="M223.415,323.057l-1.26,0l0,-5.076l4.104,0c0.344,0 0.64,0.124 0.888,0.372c0.248,0.248 0.372,0.552 0.372,0.912l0,0.864c0,0.208 -0.054,0.382 -0.162,0.522c-0.108,0.14 -0.258,0.29 -0.45,0.45c0.272,0.04 0.442,0.216 0.51,0.528c0.068,0.312 0.102,0.792 0.102,1.44l-1.26,0c0,-0.456 -0.034,-0.784 -0.102,-0.984c-0.068,-0.2 -0.166,-0.3 -0.294,-0.3l-2.448,0l0,1.272Zm0,-3.792l0,1.236l2.28,0c0.152,0 0.284,-0.064 0.396,-0.192c0.112,-0.128 0.168,-0.288 0.168,-0.48c0,-0.152 -0.056,-0.284 -0.168,-0.396c-0.112,-0.112 -0.244,-0.168 -0.396,-0.168l-2.28,0Z" style="fill:#00030d;fill-rule:nonzero;"/>
        <path d="M233.087,321.161l1.26,0l0,0.72c0,0.32 -0.124,0.596 -0.372,0.828c-0.248,0.232 -0.544,0.348 -0.888,0.348l-3.456,0c-0.352,0 -0.65,-0.114 -0.894,-0.342c-0.244,-0.228 -0.366,-0.506 -0.366,-0.834l0,-2.724c0,-0.328 0.122,-0.606 0.366,-0.834c0.244,-0.228 0.542,-0.342 0.894,-0.342l3.456,0c0.352,0 0.65,0.114 0.894,0.342c0.244,0.228 0.366,0.506 0.366,0.834l0,0.636l-1.26,0c0,-0.168 -0.072,-0.316 -0.216,-0.444c-0.144,-0.128 -0.312,-0.192 -0.504,-0.192l-2.016,0c-0.2,0 -0.37,0.062 -0.51,0.186c-0.14,0.124 -0.21,0.274 -0.21,0.45l0,1.368c0,0.2 0.07,0.37 0.21,0.51c0.14,0.14 0.31,0.21 0.51,0.21l2.016,0c0.2,0 0.37,-0.07 0.51,-0.21c0.14,-0.14 0.21,-0.31 0.21,-0.51Z" style="fill:#00030d;fill-rule:nonzero;"/>
        <path d="M236.411,321.185l0,1.872l-1.26,0l0,-5.076l1.26,0l0,1.836l3.108,0l0,-1.836l1.26,0l0,5.076l-1.26,0l0,-1.872l-3.108,0Z" style="fill:#00030d;fill-rule:nonzero;"/>
    </g>
    <g transform="matrix(1.00969,0,0,1,129.056,250.691)">
        <path d="M-11.599,-6.323c-0.205,0.036 -0.4,0.11 -0.585,0.222c-0.184,0.112 -0.343,0.309 -0.475,0.591c-0.269,0.611 -0.547,1.248 -0.834,1.911c-0.287,0.663 -0.586,1.359 -0.895,2.088c-0.092,0.21 -0.188,0.458 -0.291,0.745c-0.103,0.287 -0.197,0.563 -0.284,0.828l-0.533,0c-0.433,-1.071 -0.832,-2.048 -1.196,-2.93c-0.365,-0.882 -0.743,-1.785 -1.135,-2.71c-0.091,-0.21 -0.238,-0.373 -0.441,-0.489c-0.203,-0.116 -0.407,-0.19 -0.612,-0.222l0,-0.451l3.118,0l0,0.478c-0.137,0.005 -0.308,0.033 -0.513,0.086c-0.205,0.052 -0.308,0.124 -0.308,0.215c0,0.014 0.012,0.049 0.034,0.106c0.023,0.057 0.046,0.122 0.069,0.195c0.187,0.465 0.451,1.114 0.793,1.948c0.341,0.834 0.619,1.506 0.834,2.017c0.164,-0.392 0.37,-0.88 0.618,-1.463c0.249,-0.584 0.516,-1.235 0.804,-1.955c0.045,-0.123 0.088,-0.238 0.129,-0.345c0.041,-0.108 0.062,-0.216 0.062,-0.325c0,-0.078 -0.038,-0.147 -0.113,-0.209c-0.075,-0.061 -0.165,-0.115 -0.27,-0.16c-0.105,-0.046 -0.207,-0.08 -0.307,-0.103c-0.101,-0.023 -0.183,-0.039 -0.247,-0.048l0,-0.437l2.578,0l0,0.417Z" style="fill-rule:nonzero;"/>
        <path d="M-6.889,0l-4.369,0l0,-0.485c0.123,-0.009 0.301,-0.023 0.534,-0.041c0.232,-0.019 0.396,-0.046 0.492,-0.082c0.15,-0.06 0.26,-0.141 0.328,-0.243c0.068,-0.103 0.102,-0.245 0.102,-0.427l0,-7.028c0,-0.159 -0.025,-0.292 -0.075,-0.4c-0.05,-0.107 -0.168,-0.197 -0.355,-0.27c-0.137,-0.054 -0.309,-0.106 -0.516,-0.153c-0.208,-0.048 -0.377,-0.077 -0.51,-0.086l0,-0.485l4.369,0l0,0.485c-0.142,0.005 -0.31,0.022 -0.506,0.051c-0.196,0.03 -0.367,0.068 -0.513,0.113c-0.173,0.055 -0.289,0.144 -0.349,0.267c-0.059,0.123 -0.089,0.26 -0.089,0.41l0,7.02c0,0.151 0.034,0.284 0.1,0.4c0.066,0.117 0.178,0.209 0.338,0.277c0.096,0.037 0.252,0.077 0.468,0.12c0.217,0.043 0.4,0.067 0.551,0.072l0,0.485Z" style="fill-rule:nonzero;"/>
        <path d="M-3.506,-0.786c0,0.255 -0.092,0.473 -0.277,0.653c-0.184,0.18 -0.404,0.27 -0.659,0.27c-0.255,0 -0.475,-0.09 -0.66,-0.27c-0.184,-0.18 -0.277,-0.398 -0.277,-0.653c0,-0.255 0.093,-0.475 0.277,-0.66c0.185,-0.184 0.405,-0.277 0.66,-0.277c0.255,0 0.475,0.093 0.659,0.277c0.185,0.185 0.277,0.405 0.277,0.66Z" style="fill-rule:nonzero;"/>
        <path d="M4.451,-6.385c0.292,0.351 0.51,0.762 0.653,1.234c0.144,0.472 0.216,0.965 0.216,1.48c0,0.62 -0.089,1.175 -0.267,1.665c-0.178,0.49 -0.422,0.896 -0.732,1.22c-0.319,0.333 -0.697,0.583 -1.134,0.752c-0.438,0.168 -0.925,0.253 -1.463,0.253c-0.588,0 -1.112,-0.098 -1.572,-0.294c-0.461,-0.196 -0.834,-0.465 -1.122,-0.807c-0.3,-0.355 -0.525,-0.771 -0.673,-1.247c-0.148,-0.477 -0.222,-0.99 -0.222,-1.542c0,-0.542 0.072,-1.041 0.215,-1.497c0.144,-0.456 0.368,-0.868 0.674,-1.237c0.291,-0.356 0.667,-0.636 1.128,-0.841c0.46,-0.205 0.986,-0.308 1.579,-0.308c0.624,0 1.16,0.105 1.606,0.315c0.447,0.209 0.818,0.494 1.114,0.854Zm-0.642,2.714c0,-1.085 -0.186,-1.925 -0.557,-2.522c-0.372,-0.597 -0.876,-0.896 -1.514,-0.896c-0.648,0 -1.158,0.299 -1.532,0.896c-0.373,0.597 -0.56,1.437 -0.56,2.522c0,1.03 0.179,1.858 0.536,2.485c0.358,0.627 0.872,0.94 1.542,0.94c0.67,0 1.185,-0.313 1.545,-0.94c0.36,-0.627 0.54,-1.455 0.54,-2.485Z" style="fill-rule:nonzero;"/>
        <path d="M8.861,-0.786c0,0.255 -0.093,0.473 -0.277,0.653c-0.185,0.18 -0.405,0.27 -0.66,0.27c-0.255,0 -0.475,-0.09 -0.66,-0.27c-0.184,-0.18 -0.276,-0.398 -0.276,-0.653c0,-0.255 0.092,-0.475 0.276,-0.66c0.185,-0.184 0.405,-0.277 0.66,-0.277c0.255,0 0.475,0.093 0.66,0.277c0.184,0.185 0.277,0.405 0.277,0.66Z" style="fill-rule:nonzero;"/>
        <path d="M16.818,-6.385c0.291,0.351 0.509,0.762 0.652,1.234c0.144,0.472 0.216,0.965 0.216,1.48c0,0.62 -0.089,1.175 -0.267,1.665c-0.178,0.49 -0.421,0.896 -0.731,1.22c-0.319,0.333 -0.698,0.583 -1.135,0.752c-0.438,0.168 -0.925,0.253 -1.463,0.253c-0.588,0 -1.112,-0.098 -1.572,-0.294c-0.461,-0.196 -0.834,-0.465 -1.121,-0.807c-0.301,-0.355 -0.526,-0.771 -0.674,-1.247c-0.148,-0.477 -0.222,-0.99 -0.222,-1.542c0,-0.542 0.072,-1.041 0.216,-1.497c0.143,-0.456 0.368,-0.868 0.673,-1.237c0.292,-0.356 0.667,-0.636 1.128,-0.841c0.46,-0.205 0.986,-0.308 1.579,-0.308c0.624,0 1.16,0.105 1.606,0.315c0.447,0.209 0.818,0.494 1.115,0.854Zm-0.643,2.714c0,-1.085 -0.186,-1.925 -0.557,-2.522c-0.372,-0.597 -0.876,-0.896 -1.514,-0.896c-0.647,0 -1.158,0.299 -1.532,0.896c-0.373,0.597 -0.56,1.437 -0.56,2.522c0,1.03 0.179,1.858 0.537,2.485c0.357,0.627 0.871,0.94 1.541,0.94c0.67,0 1.185,-0.313 1.545,-0.94c0.36,-0.627 0.54,-1.455 0.54,-2.485Z" style="fill-rule:nonzero;"/>
    </g>
</svg>
