<?xml version="1.0" encoding="UTF-8" standalone="no"?>
<!DOCTYPE svg PUBLIC "-//W3C//DTD SVG 1.1//EN" "http://www.w3.org/Graphics/SVG/1.1/DTD/svg11.dtd">
<svg xmlns:xlink="http://www.w3.org/1999/xlink"
     xmlns:serif="http://www.serif.com/"
     width="180px"
     height="380px"
     version="1.1"
     xmlns="http://www.w3.org/2000/svg"
     xml:space="preserve"
     style="fill-rule:evenodd;clip-rule:evenodd;stroke-linejoin:round;stroke-miterlimit:1.41421;">
    <rect id="Panel"
          x="0"
          y="0"
          width="180"
          height="380"
          style="fill:#fff;"/>
    <g transform="matrix(-1.61757,0,0,1.61757,309.642,-192.904)">
        <path d="M100.274,204.21l-1.034,-0.118l0.525,-0.706l0.509,0.824Zm16.164,24.622c0.563,0.307 3.005,3.163 7.277,5.312c4.273,2.15 9.497,0.685 16.073,3.405c2.108,0.865 3.902,2.69 5.302,4.883c1.404,2.193 2.909,6.205 3.218,7.874c0.31,1.672 3.239,4.649 3.239,4.649c0,0 1.685,0.773 2.889,1.962c1.201,1.191 3.276,2.509 4.041,2.9c0.756,0.392 1.505,1.011 2.822,2.478c1.322,1.469 3.118,5.137 3.418,6.646c0.299,1.512 0.909,2.458 0.909,2.458c0.305,2.435 1.705,2.395 2.157,2.425c0.447,0.031 0.351,-0.854 0.942,-1.534c0.589,-0.679 0.05,-2.364 0.05,-2.364c0,0 0.214,-0.144 0.708,-0.403c0.489,-0.258 0.863,-1.723 0.595,-2.372c-0.275,-0.651 0.085,-0.966 0.097,-1.731c0.008,-0.765 -0.468,-2.037 -0.805,-2.338c-0.34,-0.293 -1.022,-2.191 -1.303,-3.381c-0.272,-1.197 -1.017,-4.427 -1.322,-4.629c-0.299,-0.199 -1.377,-0.57 -1.377,-0.57l0.162,-0.396c0,0 -3.404,-4.252 -4.115,-4.777c-0.707,-0.523 -0.798,-1.794 -0.717,-2.914c0.078,-1.125 1.306,-4.85 0.753,-6.312c-0.549,-1.459 -0.248,-4.802 0.025,-5.457c0.27,-0.661 1.078,-0.558 4.081,-1.859c2.999,-1.305 8.732,-8.1 10.207,-11.109c1.475,-3.011 3.322,-8.41 3.322,-8.41c0,0 -0.23,-0.015 1.087,-0.778c1.318,-0.771 5.916,-3.875 4.414,-5.652c-1.499,-1.774 -5.358,-0.441 -7.246,1.323c-1.883,1.76 -2.93,9.334 -6.928,14.16c-6.205,7.489 -13.34,8.809 -13.34,8.809c0,0 -1.481,-0.146 -4.11,-1.235c-2.63,-1.086 -12.101,-6.307 -12.101,-6.307c-2.147,-2.268 -6.052,-3.652 -8.793,-5.255c-2.739,-1.599 -5.241,-5.93 -5.865,-7.08c-0.625,-1.145 0.091,-1.739 -0.462,-2.176c-0.55,-0.438 -5.269,-1.811 -6.673,-2.334c-1.404,-0.529 -1.766,-1.048 -2.255,-1.512c-0.488,-0.466 -0.87,-0.936 -1.847,-1.231c-0.976,-0.297 -5.558,-2.246 -5.558,-2.246c0,0 -0.295,-1.953 -0.566,-2.061c-1.072,-0.444 -3.377,0.958 -3.377,0.958c0,0 -2.079,-0.282 -3.86,-0.028c-1.78,0.262 -2.651,1.105 -2.651,1.105l-0.712,1.591l-2.856,1.719l0.183,1.231l0.157,1.298c0,0 0.386,1.855 1.071,2.061c0.688,0.207 1.797,0.126 1.797,0.126l0.625,-0.586l1.017,0.342c0,0 -0.136,0.325 0.729,1.224c1.794,1.864 3.601,0.408 3.601,0.408c0,0 1.129,0.622 1.298,1.155c0.167,0.529 0.679,1.896 0.509,3.056c-0.176,1.16 0.553,4.622 0.553,4.622c0,0 -2.1,-0.872 -4.269,-2.537c-2.16,-1.662 -3.493,-1.599 -3.813,-1.57c-0.317,0.02 -1.281,1.24 -1.281,1.24l-4.421,0.255l-0.804,-0.102c-1.746,0.124 -5.062,1.988 -5.554,2.635c-0.499,0.641 0.972,1.936 2.237,1.845c1.272,-0.092 4.074,-1.088 4.074,-1.088l2.523,0.04l-0.314,0.951l0.212,1.161c0,0 0.28,2.118 0.793,2.179c0.515,0.059 1.355,-0.289 1.868,-1.157c0.509,-0.865 -0.01,-1.852 -0.01,-1.852c0,0 1.296,-0.155 1.601,0.047c0.301,0.199 1.559,0.333 3.695,1.678c2.14,1.345 7.359,6.429 8.874,6.672c1.522,0.24 2.239,-2.623 2.239,-2.623c0,0 1.298,0.773 1.861,1.083Z"
              style="fill:#231f20;fill-rule:nonzero;"/>
    </g>
</svg>
