<?xml version="1.0" encoding="UTF-8" standalone="no"?>
<!DOCTYPE svg PUBLIC "-//W3C//DTD SVG 1.1//EN" "http://www.w3.org/Graphics/SVG/1.1/DTD/svg11.dtd">
<svg xmlns:xlink="http://www.w3.org/1999/xlink"
     xmlns:serif="http://www.serif.com/"
     width="270px"
     height="380px"
     version="1.1"
     xmlns="http://www.w3.org/2000/svg"
     xml:space="preserve"
     style="fill-rule:evenodd;clip-rule:evenodd;stroke-linejoin:round;stroke-miterlimit:1.41421;">
    <rect x="0"
          y="0"
          width="270"
          height="380"
          style="fill:#fff;stroke:#000;stroke-width:1px;"/>
    <g transform="matrix(0.687555,0,0,0.687561,39.6475,-1.94491)">
        <g id="Logo">
            <path d="M232.321,164.268c-0.551,-1.407 -1.25,-2.487 -1.733,-4.267l0.016,0c-0.034,0 -0.056,-0.074 -0.088,-0.149c-0.062,-0.193 -0.122,-0.353 -0.173,-0.548c-0.097,-0.365 -0.189,-0.759 -0.253,-1.179c-0.043,-2.08 1.872,-2.792 1.946,-5.183c0.081,-2.573 -1.476,-3.898 -1.946,-4.241c-0.02,-0.028 -0.037,-0.054 -0.056,-0.082c0.012,-0.037 0.02,-0.068 0.031,-0.104c2.993,-2.433 1.69,-5.738 1.69,-5.738c-0.636,-0.338 -1.313,-0.55 -1.797,-0.98c-4.337,-3.863 -4.606,-6.636 -1.196,-11.288c0.866,-1.185 1.746,-2.375 2.467,-3.649c1.761,-3.117 1.359,-4.599 -1.81,-6.367c-2.28,-1.271 -4.743,-2.218 -6.988,-3.545c-6.396,-3.778 -11.834,-8.521 -15.061,-15.174c2.171,-3.872 2.171,-3.872 1.304,-6.341c-0.791,0.865 -1.527,1.672 -2.688,2.944c0,-3.049 0.294,-5.379 -0.083,-7.595c-0.367,-2.156 -0.85,-4.792 -2.281,-6.178c-5.217,-5.045 -8.175,-11.292 -10.92,-17.796c-2.029,-4.806 -4.196,-9.66 -8.171,-13.236c-2,-1.8 -4.474,-3.072 -6.742,-4.587c0,-1.354 0.017,-2.653 -0.006,-3.951c-0.019,-1.297 0.038,-2.61 -0.136,-3.89c-0.702,-5.113 -4.34,-7.564 -9.404,-6.548c-3.181,0.638 -6.385,1.238 -9.605,1.563c-1.888,0.19 -3.584,0.128 -3.225,-3.432c1.62,0 3.162,0 5.368,0c-1.104,0 -1.515,-1.544 -2.067,-1.769c-2.208,-0.892 -4.045,-0.36 -5.099,1.396c-1.25,2.077 0.023,3.586 1.504,4.555c1.273,0.832 3.004,1.441 4.492,1.365c3.234,-0.167 6.436,-0.842 9.658,-1.296c2.8,-0.394 4.451,0.587 5.01,3.266c0.266,1.278 0.047,2.658 0.047,3.561c-3.72,-1.383 -6.953,-3.369 -10.347,-3.69c-7.432,-0.706 -14.956,-0.912 -22.413,-0.611c-3.084,0.124 -6.484,1.511 -9.049,3.309c-4.547,3.188 -9.441,5.039 -14.773,6.138c-2.549,0.526 -5.106,1.149 -7.55,2.03c-4.689,1.689 -8.626,4.342 -11.53,8.63c-1.595,2.354 -3.836,4.445 -6.188,6.076c-4.591,3.184 -9.001,6.424 -12.144,11.187c-1.712,2.596 -4.124,4.212 -7.839,3.113c-1.104,-4.244 -4.87,-4.911 -8.627,-5.423c-1.764,-0.242 -3.625,-0.32 -5.373,-0.04c-10.247,1.643 -19.554,5.56 -26.813,13.074c-6.565,6.797 -5.937,10.365 -2.739,16.202c2.063,3.766 2.131,7.435 -0.279,11.089c-1.874,2.842 -2.57,6.013 -2.071,9.354c1.284,8.609 4.072,16.22 13.409,19.251c0.615,0.198 1.156,0.607 1.748,0.881c2.125,0.984 3.145,2.592 3.365,4.971c0.144,1.54 0.491,3.357 1.429,4.479c6.245,7.454 20.432,8.503 25.041,-1.951c0.189,-0.432 0.624,-0.756 0.945,-1.129c0.305,0.134 0.609,0.266 0.914,0.399c-0.27,1.348 -0.539,2.694 -0.81,4.042c-0.351,1.75 -1.204,3.572 -0.961,5.235c0.915,6.264 1.484,12.716 3.503,18.648c2.452,7.204 8.53,14.587 18.762,13.197c3.549,-0.483 6.782,0.391 9.818,2.234c1.254,0.76 2.657,1.272 3.912,2.027c3.221,1.943 6.497,1.898 9.857,0.464c2.024,-0.863 4.052,-1.726 6.331,-2.698c-1.16,4.041 -2.278,7.594 -3.189,11.197c-1.336,5.287 -3.631,9.452 -9.941,9.48c-0.115,0 -0.228,0.204 -0.481,0.441c0.473,1.385 0.975,2.855 1.446,4.234c-3.43,5.076 -9.388,5.288 -13.951,7.881c8.949,0.082 15.39,-4.254 16.179,-10.562c4.91,-1.582 7.805,-5.034 9.233,-9.921c0.777,-2.659 1.611,-5.32 2.672,-7.879c1.746,-4.209 4.792,-6.719 9.406,-6.833c-0.302,3.22 -0.579,6.169 -0.855,9.113c-6.687,1.486 -6.819,1.649 -6.534,8.315c-1.583,1.269 -3.238,2.596 -5.685,4.557c6.226,-1.428 7.436,-2.953 8.025,-9.211c0.938,-0.325 1.962,-0.799 3.039,-1.035c4.009,-0.875 4.11,-0.859 3.682,-5.037c-0.251,-2.445 0.739,-3.996 3.163,-5.664c0.451,1.766 0.892,3.088 1.115,4.445c0.316,1.923 0.547,3.867 0.687,5.81c0.517,7.404 -0.06,14.643 -3.457,21.43c-4.159,8.313 -8.334,16.622 -12.413,24.973c-1.174,2.404 -2.482,4.234 -5.172,5.433c-4.265,1.907 -7.421,6.556 -7.757,10.832c15.258,2.949 26.312,6.953 41.04,18.833c9.647,7.785 19.862,11.309 29.399,12.456c0.003,-0.004 10.248,-13.711 19.753,-32.558c-0.241,-0.365 -0.484,-0.728 -0.723,-1.095c-6.25,-9.478 -11.533,-18.592 -13.049,-22.521c-2.853,-7.395 -3.838,-14.659 -2.132,-22.466c1.983,-9.083 3.633,-18.206 7.761,-26.672c2.412,-4.95 6.15,-7.711 11.519,-8.858c6.366,-1.36 12.689,-3.037 18.94,-4.868c6.706,-1.966 9.308,-7.753 6.747,-14.275Z"
                  style="fill:url(#_Linear1);fill-rule:nonzero;stroke:#322727;stroke-opacity:0.658824;stroke-width:1.16px;"/>
        </g>
    </g>
    <g transform="matrix(1.24831,0.000988603,-0.000940372,1.18741,0.333401,-37.6799)">
        <path d="M27.228,225.99c-0.123,0 -0.174,-0.067 -0.152,-0.202l1.55,-10.393l-1.179,0c-0.123,0 -0.174,-0.067 -0.152,-0.202l0.203,-1.347c0.022,-0.135 0.089,-0.202 0.202,-0.202l6.013,0c0.954,0 1.709,0.345 2.265,1.036c0.556,0.69 0.761,1.53 0.615,2.518c-0.112,0.73 -0.401,1.386 -0.867,1.97c-0.466,0.584 -1.019,1.011 -1.66,1.28l1.718,5.357c0.034,0.123 -0.011,0.185 -0.134,0.185l-1.87,0c-0.135,0 -0.213,-0.062 -0.236,-0.185l-1.566,-5.037l-1.937,0l-0.741,5.02c-0.023,0.135 -0.096,0.202 -0.219,0.202l-1.853,0Zm5.306,-7.192c0.426,0 0.814,-0.157 1.162,-0.472c0.348,-0.314 0.556,-0.69 0.623,-1.128c0.067,-0.427 -0.022,-0.795 -0.269,-1.104c-0.247,-0.308 -0.579,-0.463 -0.994,-0.463l-2.24,0l-0.472,3.167l2.19,0Z"
              style="fill-rule:nonzero;"/>
        <path d="M42,217.231c1.022,0 1.841,0.416 2.459,1.247l0.135,-0.842c0.011,-0.101 0.067,-0.152 0.168,-0.152l1.769,0c0.089,0 0.123,0.051 0.101,0.152l-0.876,6.013l-0.068,0.673l0.96,0c0.102,0 0.141,0.057 0.118,0.169l-0.185,1.33c-0.022,0.113 -0.084,0.169 -0.185,0.169l-2.678,0c-0.113,0 -0.169,-0.056 -0.169,-0.169l-0.033,-0.825c-0.405,0.382 -0.854,0.682 -1.348,0.901c-0.494,0.219 -0.994,0.329 -1.499,0.329c-1.055,0 -1.884,-0.438 -2.484,-1.314c-0.601,-0.876 -0.812,-1.937 -0.632,-3.183c0.101,-0.618 0.289,-1.199 0.564,-1.744c0.275,-0.544 0.615,-1.022 1.019,-1.431c0.405,-0.41 0.854,-0.733 1.348,-0.969c0.494,-0.236 0.999,-0.354 1.516,-0.354Zm-2.375,4.498c-0.101,0.707 0.028,1.305 0.387,1.793c0.36,0.489 0.842,0.733 1.449,0.733c0.606,0 1.153,-0.244 1.642,-0.733c0.488,-0.488 0.789,-1.086 0.901,-1.793c0.101,-0.708 -0.02,-1.306 -0.362,-1.794c-0.343,-0.489 -0.817,-0.733 -1.423,-0.733c-0.607,0 -1.163,0.247 -1.668,0.741c-0.505,0.494 -0.814,1.089 -0.926,1.786Z"
              style="fill-rule:nonzero;"/>
        <path d="M51.685,226.226c-1.247,0 -2.204,-0.441 -2.872,-1.322c-0.668,-0.882 -0.907,-1.985 -0.716,-3.31c0.213,-1.437 0.778,-2.524 1.693,-3.259c0.915,-0.736 1.951,-1.104 3.107,-1.104c0.64,0 1.241,0.158 1.803,0.472c0.561,0.314 1.01,0.808 1.347,1.482l-0.253,1.701c-0.011,0.113 -0.073,0.169 -0.185,0.169l-1.263,0c-0.09,0 -0.129,-0.056 -0.118,-0.169l0.152,-1.027c-0.506,-0.438 -1.067,-0.657 -1.685,-0.657c-0.595,0 -1.134,0.211 -1.617,0.632c-0.483,0.421 -0.786,1.019 -0.909,1.793c-0.113,0.775 0.008,1.404 0.362,1.887c0.354,0.483 0.856,0.724 1.507,0.724c0.663,0 1.224,-0.196 1.685,-0.589c0.056,-0.045 0.095,-0.068 0.118,-0.068c0.033,0 0.073,0.023 0.117,0.068l1.264,0.993c0.078,0.079 0.073,0.152 -0.017,0.219c-0.449,0.427 -0.985,0.761 -1.609,1.003c-0.623,0.241 -1.26,0.362 -1.911,0.362Z"
              style="fill-rule:nonzero;"/>
        <path d="M57.647,214.52c-0.101,0 -0.146,-0.051 -0.135,-0.152l0.203,-1.347c0.022,-0.102 0.084,-0.152 0.185,-0.152l2.863,0c0.112,0 0.157,0.062 0.135,0.185l-1.129,7.647l3.386,-3.082c0.101,-0.09 0.213,-0.135 0.337,-0.135l2.004,0c0.112,0 0.124,0.045 0.034,0.135l-4.093,3.756l2.948,4.48c0.067,0.09 0.039,0.135 -0.085,0.135l-2.004,0c-0.124,0 -0.219,-0.045 -0.286,-0.135l-2.46,-3.705l-0.539,3.638c-0.022,0.135 -0.095,0.202 -0.218,0.202l-1.702,0c-0.112,0 -0.157,-0.067 -0.134,-0.202l1.667,-11.268l-0.977,0Z"
              style="fill-rule:nonzero;"/>
        <path d="M69.269,225.99c-0.101,0 -0.129,-0.062 -0.084,-0.185l5.44,-10.41l-1.179,0c-0.112,0 -0.163,-0.067 -0.151,-0.202l0.202,-1.347c0.011,-0.135 0.084,-0.202 0.219,-0.202l3.722,0c0.135,0 0.213,0.061 0.236,0.185l2.661,11.976c0.023,0.123 -0.033,0.185 -0.168,0.185l-1.853,0c-0.135,0 -0.208,-0.062 -0.219,-0.185l-0.623,-3.184l-4.481,0l-1.583,3.184c-0.045,0.123 -0.135,0.185 -0.269,0.185l-1.87,0Zm7.799,-5.339l-0.876,-4.363l-2.207,4.363l3.083,0Z"
              style="fill-rule:nonzero;"/>
        <path d="M82.777,219.152l-0.96,0c-0.101,0 -0.146,-0.057 -0.134,-0.169l0.185,-1.347c0.022,-0.101 0.084,-0.152 0.185,-0.152l2.88,0c0.113,0 0.158,0.051 0.135,0.152l-0.842,5.608c-0.09,0.674 0.202,1.011 0.876,1.011c0.471,0 0.94,-0.157 1.406,-0.472c0.466,-0.314 0.772,-0.774 0.918,-1.381l0.489,-3.25l-0.96,0c-0.113,0 -0.163,-0.057 -0.152,-0.169l0.202,-1.347c0.023,-0.101 0.084,-0.152 0.185,-0.152l2.898,0c0.089,0 0.123,0.051 0.101,0.152l-0.876,5.962l-0.118,2.19c-0.011,0.135 -0.079,0.202 -0.202,0.202l-1.735,0c-0.101,0 -0.152,-0.056 -0.152,-0.169l-0.033,-0.842c-0.393,0.393 -0.851,0.702 -1.373,0.927c-0.522,0.224 -1.059,0.337 -1.609,0.337c-0.842,0 -1.409,-0.264 -1.701,-0.792c-0.292,-0.528 -0.376,-1.218 -0.253,-2.072l0.64,-4.227Z"
              style="fill-rule:nonzero;"/>
        <path d="M91.199,221.661c0.191,-1.257 0.691,-2.307 1.499,-3.15c0.809,-0.842 1.786,-1.263 2.931,-1.263c1.033,0 1.858,0.416 2.476,1.247l0.589,-3.975l-0.976,0c-0.102,0 -0.146,-0.051 -0.135,-0.152l0.202,-1.347c0.022,-0.102 0.084,-0.152 0.185,-0.152l2.88,0c0.113,0 0.158,0.05 0.135,0.152l-1.903,12.767c-0.023,0.135 -0.096,0.202 -0.219,0.202l-1.567,0c-0.101,0 -0.151,-0.056 -0.151,-0.169l0,-0.842c-0.865,0.831 -1.814,1.247 -2.847,1.247c-1.055,0 -1.88,-0.447 -2.476,-1.339c-0.595,-0.893 -0.802,-1.968 -0.623,-3.226Zm2.072,0.084c-0.101,0.708 0.022,1.306 0.37,1.794c0.349,0.489 0.826,0.733 1.432,0.733c0.607,0 1.162,-0.247 1.668,-0.741c0.505,-0.494 0.808,-1.089 0.909,-1.786c0.101,-0.707 -0.022,-1.305 -0.37,-1.793c-0.348,-0.489 -0.831,-0.733 -1.449,-0.733c-0.674,0 -1.238,0.241 -1.693,0.724c-0.454,0.483 -0.744,1.084 -0.867,1.802Z"
              style="fill-rule:nonzero;"/>
        <path d="M101.659,217.636c0.022,-0.101 0.084,-0.152 0.185,-0.152l2.88,0c0.113,0 0.158,0.051 0.135,0.152l-1.213,8.152c-0.022,0.135 -0.095,0.202 -0.219,0.202l-1.701,0c-0.112,0 -0.157,-0.067 -0.134,-0.202l0.976,-6.636l-0.976,0c-0.09,0 -0.135,-0.057 -0.135,-0.169l0.202,-1.347Zm1.533,-1.617c-0.101,0 -0.146,-0.056 -0.135,-0.169l0.32,-2.038c0.011,-0.112 0.062,-0.168 0.152,-0.168l1.768,0c0.101,0 0.146,0.056 0.135,0.168l-0.32,2.038c-0.011,0.113 -0.062,0.169 -0.152,0.169l-1.768,0Z"
              style="fill-rule:nonzero;"/>
        <path d="M109.457,226.209c-0.595,0 -1.134,-0.124 -1.617,-0.371c-0.482,-0.247 -0.887,-0.581 -1.212,-1.002c-0.326,-0.421 -0.562,-0.909 -0.708,-1.465c-0.146,-0.556 -0.174,-1.143 -0.084,-1.76c0.202,-1.314 0.755,-2.372 1.659,-3.175c0.904,-0.803 2.002,-1.205 3.293,-1.205c0.595,0 1.134,0.118 1.617,0.354c0.483,0.236 0.89,0.556 1.221,0.96c0.331,0.404 0.57,0.879 0.716,1.423c0.146,0.545 0.174,1.126 0.084,1.744c-0.09,0.617 -0.289,1.201 -0.598,1.751c-0.309,0.551 -0.688,1.028 -1.137,1.432c-0.449,0.404 -0.951,0.724 -1.507,0.96c-0.556,0.236 -1.131,0.354 -1.727,0.354Zm-1.566,-4.497c-0.101,0.696 0.031,1.288 0.396,1.777c0.365,0.488 0.856,0.732 1.474,0.732c0.64,0 1.209,-0.238 1.709,-0.715c0.5,-0.478 0.806,-1.076 0.918,-1.794c0.101,-0.696 -0.028,-1.289 -0.387,-1.777c-0.36,-0.489 -0.859,-0.733 -1.499,-0.733c-0.674,0 -1.25,0.233 -1.727,0.699c-0.477,0.466 -0.772,1.07 -0.884,1.811Z"
              style="fill-rule:nonzero;"/>
        <path d="M121.18,215.395c-0.123,0 -0.174,-0.067 -0.151,-0.202l0.202,-1.347c0.011,-0.135 0.078,-0.202 0.202,-0.202l3.453,0c0.135,0 0.224,0.056 0.269,0.168l2.847,5.811l4.615,-5.811c0.09,-0.112 0.191,-0.168 0.303,-0.168l2.106,0c0.123,0 0.174,0.067 0.151,0.202l-1.768,11.942c-0.023,0.135 -0.101,0.202 -0.236,0.202l-1.853,0c-0.112,0 -0.163,-0.067 -0.152,-0.202l1.281,-8.624l-3.706,4.565c-0.09,0.112 -0.196,0.168 -0.32,0.168l-1.516,0c-0.101,0 -0.185,-0.056 -0.253,-0.168l-2.341,-4.565l-1.28,8.624c-0.022,0.135 -0.095,0.202 -0.219,0.202l-1.869,0c-0.124,0 -0.174,-0.067 -0.152,-0.202l1.55,-10.393l-1.163,0Z"
              style="fill-rule:nonzero;"/>
        <path d="M139.455,226.209c-0.595,0 -1.134,-0.124 -1.617,-0.371c-0.482,-0.247 -0.887,-0.581 -1.212,-1.002c-0.326,-0.421 -0.562,-0.909 -0.708,-1.465c-0.146,-0.556 -0.174,-1.143 -0.084,-1.76c0.202,-1.314 0.755,-2.372 1.659,-3.175c0.904,-0.803 2.002,-1.205 3.293,-1.205c0.595,0 1.134,0.118 1.617,0.354c0.483,0.236 0.89,0.556 1.221,0.96c0.331,0.404 0.57,0.879 0.716,1.423c0.146,0.545 0.174,1.126 0.084,1.744c-0.09,0.617 -0.289,1.201 -0.598,1.751c-0.309,0.551 -0.687,1.028 -1.137,1.432c-0.449,0.404 -0.951,0.724 -1.507,0.96c-0.556,0.236 -1.131,0.354 -1.727,0.354Zm-1.566,-4.497c-0.101,0.696 0.031,1.288 0.396,1.777c0.365,0.488 0.856,0.732 1.474,0.732c0.64,0 1.21,-0.238 1.709,-0.715c0.5,-0.478 0.806,-1.076 0.918,-1.794c0.101,-0.696 -0.028,-1.289 -0.387,-1.777c-0.36,-0.489 -0.859,-0.733 -1.499,-0.733c-0.674,0 -1.25,0.233 -1.727,0.699c-0.477,0.466 -0.772,1.07 -0.884,1.811Z"
              style="fill-rule:nonzero;"/>
        <path d="M145.654,221.661c0.191,-1.257 0.69,-2.307 1.499,-3.15c0.808,-0.842 1.785,-1.263 2.931,-1.263c1.033,0 1.858,0.416 2.476,1.247l0.589,-3.975l-0.977,0c-0.101,0 -0.146,-0.051 -0.135,-0.152l0.203,-1.347c0.022,-0.102 0.084,-0.152 0.185,-0.152l2.88,0c0.112,0 0.157,0.05 0.135,0.152l-1.904,12.767c-0.022,0.135 -0.095,0.202 -0.218,0.202l-1.567,0c-0.101,0 -0.152,-0.056 -0.152,-0.169l0,-0.842c-0.864,0.831 -1.813,1.247 -2.846,1.247c-1.056,0 -1.881,-0.447 -2.476,-1.339c-0.595,-0.893 -0.803,-1.968 -0.623,-3.226Zm2.072,0.084c-0.102,0.708 0.022,1.306 0.37,1.794c0.348,0.489 0.825,0.733 1.432,0.733c0.606,0 1.162,-0.247 1.667,-0.741c0.506,-0.494 0.809,-1.089 0.91,-1.786c0.101,-0.707 -0.023,-1.305 -0.371,-1.793c-0.348,-0.489 -0.831,-0.733 -1.448,-0.733c-0.674,0 -1.238,0.241 -1.693,0.724c-0.455,0.483 -0.744,1.084 -0.867,1.802Z"
              style="fill-rule:nonzero;"/>
        <path d="M156.989,219.152l-0.96,0c-0.101,0 -0.146,-0.057 -0.134,-0.169l0.185,-1.347c0.022,-0.101 0.084,-0.152 0.185,-0.152l2.88,0c0.113,0 0.158,0.051 0.135,0.152l-0.842,5.608c-0.09,0.674 0.202,1.011 0.876,1.011c0.471,0 0.94,-0.157 1.406,-0.472c0.466,-0.314 0.772,-0.774 0.918,-1.381l0.489,-3.25l-0.96,0c-0.113,0 -0.163,-0.057 -0.152,-0.169l0.202,-1.347c0.023,-0.101 0.084,-0.152 0.185,-0.152l2.897,0c0.09,0 0.124,0.051 0.101,0.152l-0.875,5.962l-0.118,2.19c-0.012,0.135 -0.079,0.202 -0.202,0.202l-1.735,0c-0.101,0 -0.152,-0.056 -0.152,-0.169l-0.034,-0.842c-0.393,0.393 -0.85,0.702 -1.372,0.927c-0.522,0.224 -1.059,0.337 -1.609,0.337c-0.842,0 -1.409,-0.264 -1.701,-0.792c-0.292,-0.528 -0.376,-1.218 -0.253,-2.072l0.64,-4.227Z"
              style="fill-rule:nonzero;"/>
        <path d="M166.337,214.52c-0.101,0 -0.146,-0.051 -0.134,-0.152l0.202,-1.347c0.022,-0.102 0.084,-0.152 0.185,-0.152l2.88,0c0.101,0 0.141,0.05 0.118,0.152l-1.886,12.767c-0.023,0.135 -0.096,0.202 -0.219,0.202l-1.701,0c-0.113,0 -0.158,-0.067 -0.135,-0.202l1.667,-11.268l-0.977,0Z"
              style="fill-rule:nonzero;"/>
        <path d="M176.865,224.289c-0.472,0.606 -1.025,1.081 -1.66,1.423c-0.634,0.342 -1.294,0.514 -1.979,0.514c-0.561,0 -1.069,-0.121 -1.524,-0.362c-0.455,-0.242 -0.828,-0.573 -1.12,-0.994c-0.292,-0.421 -0.5,-0.913 -0.623,-1.474c-0.124,-0.561 -0.135,-1.162 -0.034,-1.802c0.191,-1.314 0.71,-2.369 1.558,-3.167c0.848,-0.797 1.889,-1.196 3.125,-1.196c0.64,0 1.19,0.13 1.65,0.388c0.461,0.258 0.828,0.612 1.103,1.061c0.276,0.449 0.458,0.971 0.548,1.566c0.09,0.595 0.084,1.224 -0.017,1.887c-0.011,0.112 -0.067,0.168 -0.168,0.168l-5.845,0c-0.045,0.573 0.098,1.036 0.429,1.39c0.332,0.354 0.75,0.53 1.255,0.53c0.696,0 1.292,-0.314 1.786,-0.943c0.056,-0.067 0.095,-0.101 0.118,-0.101c0.033,0 0.067,0.011 0.101,0.034l1.28,0.876c0.078,0.067 0.084,0.134 0.017,0.202Zm-0.859,-3.436c-0.023,-0.483 -0.186,-0.876 -0.489,-1.179c-0.303,-0.304 -0.702,-0.455 -1.196,-0.455c-0.483,0 -0.923,0.151 -1.322,0.455c-0.399,0.303 -0.693,0.696 -0.884,1.179l3.891,0Z"
              style="fill-rule:nonzero;"/>
        <path d="M178.583,224.979c-0.079,-0.09 -0.057,-0.179 0.067,-0.269l1.112,-0.943c0.056,-0.045 0.101,-0.068 0.134,-0.068c0.034,0 0.079,0.028 0.135,0.084c0.382,0.461 0.971,0.691 1.769,0.691c0.415,0 0.758,-0.079 1.027,-0.236c0.27,-0.157 0.427,-0.37 0.472,-0.64c0.056,-0.281 -0.051,-0.5 -0.32,-0.657c-0.27,-0.157 -0.618,-0.297 -1.045,-0.421c-0.763,-0.224 -1.403,-0.547 -1.92,-0.968c-0.516,-0.421 -0.713,-1.047 -0.589,-1.878c0.123,-0.798 0.491,-1.404 1.103,-1.819c0.612,-0.416 1.339,-0.624 2.181,-0.624c0.618,0 1.19,0.13 1.718,0.388c0.528,0.258 0.927,0.567 1.196,0.926l-0.185,1.263c-0.023,0.113 -0.079,0.169 -0.169,0.169l-1.28,0c-0.09,0 -0.123,-0.056 -0.101,-0.169l0.051,-0.404c-0.416,-0.281 -0.854,-0.421 -1.314,-0.421c-0.674,0 -1.061,0.258 -1.162,0.775c-0.045,0.326 0.078,0.573 0.37,0.741c0.292,0.168 0.674,0.326 1.146,0.472c0.685,0.202 1.285,0.496 1.802,0.884c0.516,0.387 0.713,1.008 0.589,1.861c-0.123,0.82 -0.522,1.443 -1.195,1.87c-0.674,0.426 -1.516,0.64 -2.527,0.64c-0.674,0 -1.286,-0.11 -1.836,-0.329c-0.55,-0.219 -0.96,-0.525 -1.229,-0.918Z"
              style="fill-rule:nonzero;"/>
    </g>
    <g transform="matrix(1.24831,0.000988603,-0.000940372,1.18741,1.3334,-36.6799)">
        <path d="M27.228,225.99c-0.123,0 -0.174,-0.067 -0.152,-0.202l1.55,-10.393l-1.179,0c-0.123,0 -0.174,-0.067 -0.152,-0.202l0.203,-1.347c0.022,-0.135 0.089,-0.202 0.202,-0.202l6.013,0c0.954,0 1.709,0.345 2.265,1.036c0.556,0.69 0.761,1.53 0.615,2.518c-0.112,0.73 -0.401,1.386 -0.867,1.97c-0.466,0.584 -1.019,1.011 -1.66,1.28l1.718,5.357c0.034,0.123 -0.011,0.185 -0.134,0.185l-1.87,0c-0.135,0 -0.213,-0.062 -0.236,-0.185l-1.566,-5.037l-1.937,0l-0.741,5.02c-0.023,0.135 -0.096,0.202 -0.219,0.202l-1.853,0Zm5.306,-7.192c0.426,0 0.814,-0.157 1.162,-0.472c0.348,-0.314 0.556,-0.69 0.623,-1.128c0.067,-0.427 -0.022,-0.795 -0.269,-1.104c-0.247,-0.308 -0.579,-0.463 -0.994,-0.463l-2.24,0l-0.472,3.167l2.19,0Z"
              style="fill-opacity:0.294118;fill-rule:nonzero;"/>
        <path d="M42,217.231c1.022,0 1.841,0.416 2.459,1.247l0.135,-0.842c0.011,-0.101 0.067,-0.152 0.168,-0.152l1.769,0c0.089,0 0.123,0.051 0.101,0.152l-0.876,6.013l-0.068,0.673l0.96,0c0.102,0 0.141,0.057 0.118,0.169l-0.185,1.33c-0.022,0.113 -0.084,0.169 -0.185,0.169l-2.678,0c-0.113,0 -0.169,-0.056 -0.169,-0.169l-0.033,-0.825c-0.405,0.382 -0.854,0.682 -1.348,0.901c-0.494,0.219 -0.994,0.329 -1.499,0.329c-1.055,0 -1.884,-0.438 -2.484,-1.314c-0.601,-0.876 -0.812,-1.937 -0.632,-3.183c0.101,-0.618 0.289,-1.199 0.564,-1.744c0.275,-0.544 0.615,-1.022 1.019,-1.431c0.405,-0.41 0.854,-0.733 1.348,-0.969c0.494,-0.236 0.999,-0.354 1.516,-0.354Zm-2.375,4.498c-0.101,0.707 0.028,1.305 0.387,1.793c0.36,0.489 0.842,0.733 1.449,0.733c0.606,0 1.153,-0.244 1.642,-0.733c0.488,-0.488 0.789,-1.086 0.901,-1.793c0.101,-0.708 -0.02,-1.306 -0.362,-1.794c-0.343,-0.489 -0.817,-0.733 -1.423,-0.733c-0.607,0 -1.163,0.247 -1.668,0.741c-0.505,0.494 -0.814,1.089 -0.926,1.786Z"
              style="fill-opacity:0.294118;fill-rule:nonzero;"/>
        <path d="M51.685,226.226c-1.247,0 -2.204,-0.441 -2.872,-1.322c-0.668,-0.882 -0.907,-1.985 -0.716,-3.31c0.213,-1.437 0.778,-2.524 1.693,-3.259c0.915,-0.736 1.951,-1.104 3.107,-1.104c0.64,0 1.241,0.158 1.803,0.472c0.561,0.314 1.01,0.808 1.347,1.482l-0.253,1.701c-0.011,0.113 -0.073,0.169 -0.185,0.169l-1.263,0c-0.09,0 -0.129,-0.056 -0.118,-0.169l0.152,-1.027c-0.506,-0.438 -1.067,-0.657 -1.685,-0.657c-0.595,0 -1.134,0.211 -1.617,0.632c-0.483,0.421 -0.786,1.019 -0.909,1.793c-0.113,0.775 0.008,1.404 0.362,1.887c0.354,0.483 0.856,0.724 1.507,0.724c0.663,0 1.224,-0.196 1.685,-0.589c0.056,-0.045 0.095,-0.068 0.118,-0.068c0.033,0 0.073,0.023 0.117,0.068l1.264,0.993c0.078,0.079 0.073,0.152 -0.017,0.219c-0.449,0.427 -0.985,0.761 -1.609,1.003c-0.623,0.241 -1.26,0.362 -1.911,0.362Z"
              style="fill-opacity:0.294118;fill-rule:nonzero;"/>
        <path d="M57.647,214.52c-0.101,0 -0.146,-0.051 -0.135,-0.152l0.203,-1.347c0.022,-0.102 0.084,-0.152 0.185,-0.152l2.863,0c0.112,0 0.157,0.062 0.135,0.185l-1.129,7.647l3.386,-3.082c0.101,-0.09 0.213,-0.135 0.337,-0.135l2.004,0c0.112,0 0.124,0.045 0.034,0.135l-4.093,3.756l2.948,4.48c0.067,0.09 0.039,0.135 -0.085,0.135l-2.004,0c-0.124,0 -0.219,-0.045 -0.286,-0.135l-2.46,-3.705l-0.539,3.638c-0.022,0.135 -0.095,0.202 -0.218,0.202l-1.702,0c-0.112,0 -0.157,-0.067 -0.134,-0.202l1.667,-11.268l-0.977,0Z"
              style="fill-opacity:0.294118;fill-rule:nonzero;"/>
        <path d="M69.269,225.99c-0.101,0 -0.129,-0.062 -0.084,-0.185l5.44,-10.41l-1.179,0c-0.112,0 -0.163,-0.067 -0.151,-0.202l0.202,-1.347c0.011,-0.135 0.084,-0.202 0.219,-0.202l3.722,0c0.135,0 0.213,0.061 0.236,0.185l2.661,11.976c0.023,0.123 -0.033,0.185 -0.168,0.185l-1.853,0c-0.135,0 -0.208,-0.062 -0.219,-0.185l-0.623,-3.184l-4.481,0l-1.583,3.184c-0.045,0.123 -0.135,0.185 -0.269,0.185l-1.87,0Zm7.799,-5.339l-0.876,-4.363l-2.207,4.363l3.083,0Z"
              style="fill-opacity:0.294118;fill-rule:nonzero;"/>
        <path d="M82.777,219.152l-0.96,0c-0.101,0 -0.146,-0.057 -0.134,-0.169l0.185,-1.347c0.022,-0.101 0.084,-0.152 0.185,-0.152l2.88,0c0.113,0 0.158,0.051 0.135,0.152l-0.842,5.608c-0.09,0.674 0.202,1.011 0.876,1.011c0.471,0 0.94,-0.157 1.406,-0.472c0.466,-0.314 0.772,-0.774 0.918,-1.381l0.489,-3.25l-0.96,0c-0.113,0 -0.163,-0.057 -0.152,-0.169l0.202,-1.347c0.023,-0.101 0.084,-0.152 0.185,-0.152l2.898,0c0.089,0 0.123,0.051 0.101,0.152l-0.876,5.962l-0.118,2.19c-0.011,0.135 -0.079,0.202 -0.202,0.202l-1.735,0c-0.101,0 -0.152,-0.056 -0.152,-0.169l-0.033,-0.842c-0.393,0.393 -0.851,0.702 -1.373,0.927c-0.522,0.224 -1.059,0.337 -1.609,0.337c-0.842,0 -1.409,-0.264 -1.701,-0.792c-0.292,-0.528 -0.376,-1.218 -0.253,-2.072l0.64,-4.227Z"
              style="fill-opacity:0.294118;fill-rule:nonzero;"/>
        <path d="M91.199,221.661c0.191,-1.257 0.691,-2.307 1.499,-3.15c0.809,-0.842 1.786,-1.263 2.931,-1.263c1.033,0 1.858,0.416 2.476,1.247l0.589,-3.975l-0.976,0c-0.102,0 -0.146,-0.051 -0.135,-0.152l0.202,-1.347c0.022,-0.102 0.084,-0.152 0.185,-0.152l2.88,0c0.113,0 0.158,0.05 0.135,0.152l-1.903,12.767c-0.023,0.135 -0.096,0.202 -0.219,0.202l-1.567,0c-0.101,0 -0.151,-0.056 -0.151,-0.169l0,-0.842c-0.865,0.831 -1.814,1.247 -2.847,1.247c-1.055,0 -1.88,-0.447 -2.476,-1.339c-0.595,-0.893 -0.802,-1.968 -0.623,-3.226Zm2.072,0.084c-0.101,0.708 0.022,1.306 0.37,1.794c0.349,0.489 0.826,0.733 1.432,0.733c0.607,0 1.162,-0.247 1.668,-0.741c0.505,-0.494 0.808,-1.089 0.909,-1.786c0.101,-0.707 -0.022,-1.305 -0.37,-1.793c-0.348,-0.489 -0.831,-0.733 -1.449,-0.733c-0.674,0 -1.238,0.241 -1.693,0.724c-0.454,0.483 -0.744,1.084 -0.867,1.802Z"
              style="fill-opacity:0.294118;fill-rule:nonzero;"/>
        <path d="M101.659,217.636c0.022,-0.101 0.084,-0.152 0.185,-0.152l2.88,0c0.113,0 0.158,0.051 0.135,0.152l-1.213,8.152c-0.022,0.135 -0.095,0.202 -0.219,0.202l-1.701,0c-0.112,0 -0.157,-0.067 -0.134,-0.202l0.976,-6.636l-0.976,0c-0.09,0 -0.135,-0.057 -0.135,-0.169l0.202,-1.347Zm1.533,-1.617c-0.101,0 -0.146,-0.056 -0.135,-0.169l0.32,-2.038c0.011,-0.112 0.062,-0.168 0.152,-0.168l1.768,0c0.101,0 0.146,0.056 0.135,0.168l-0.32,2.038c-0.011,0.113 -0.062,0.169 -0.152,0.169l-1.768,0Z"
              style="fill-opacity:0.294118;fill-rule:nonzero;"/>
        <path d="M109.457,226.209c-0.595,0 -1.134,-0.124 -1.617,-0.371c-0.482,-0.247 -0.887,-0.581 -1.212,-1.002c-0.326,-0.421 -0.562,-0.909 -0.708,-1.465c-0.146,-0.556 -0.174,-1.143 -0.084,-1.76c0.202,-1.314 0.755,-2.372 1.659,-3.175c0.904,-0.803 2.002,-1.205 3.293,-1.205c0.595,0 1.134,0.118 1.617,0.354c0.483,0.236 0.89,0.556 1.221,0.96c0.331,0.404 0.57,0.879 0.716,1.423c0.146,0.545 0.174,1.126 0.084,1.744c-0.09,0.617 -0.289,1.201 -0.598,1.751c-0.309,0.551 -0.688,1.028 -1.137,1.432c-0.449,0.404 -0.951,0.724 -1.507,0.96c-0.556,0.236 -1.131,0.354 -1.727,0.354Zm-1.566,-4.497c-0.101,0.696 0.031,1.288 0.396,1.777c0.365,0.488 0.856,0.732 1.474,0.732c0.64,0 1.209,-0.238 1.709,-0.715c0.5,-0.478 0.806,-1.076 0.918,-1.794c0.101,-0.696 -0.028,-1.289 -0.387,-1.777c-0.36,-0.489 -0.859,-0.733 -1.499,-0.733c-0.674,0 -1.25,0.233 -1.727,0.699c-0.477,0.466 -0.772,1.07 -0.884,1.811Z"
              style="fill-opacity:0.294118;fill-rule:nonzero;"/>
        <path d="M121.18,215.395c-0.123,0 -0.174,-0.067 -0.151,-0.202l0.202,-1.347c0.011,-0.135 0.078,-0.202 0.202,-0.202l3.453,0c0.135,0 0.224,0.056 0.269,0.168l2.847,5.811l4.615,-5.811c0.09,-0.112 0.191,-0.168 0.303,-0.168l2.106,0c0.123,0 0.174,0.067 0.151,0.202l-1.768,11.942c-0.023,0.135 -0.101,0.202 -0.236,0.202l-1.853,0c-0.112,0 -0.163,-0.067 -0.152,-0.202l1.281,-8.624l-3.706,4.565c-0.09,0.112 -0.196,0.168 -0.32,0.168l-1.516,0c-0.101,0 -0.185,-0.056 -0.253,-0.168l-2.341,-4.565l-1.28,8.624c-0.022,0.135 -0.095,0.202 -0.219,0.202l-1.869,0c-0.124,0 -0.174,-0.067 -0.152,-0.202l1.55,-10.393l-1.163,0Z"
              style="fill-opacity:0.294118;fill-rule:nonzero;"/>
        <path d="M139.455,226.209c-0.595,0 -1.134,-0.124 -1.617,-0.371c-0.482,-0.247 -0.887,-0.581 -1.212,-1.002c-0.326,-0.421 -0.562,-0.909 -0.708,-1.465c-0.146,-0.556 -0.174,-1.143 -0.084,-1.76c0.202,-1.314 0.755,-2.372 1.659,-3.175c0.904,-0.803 2.002,-1.205 3.293,-1.205c0.595,0 1.134,0.118 1.617,0.354c0.483,0.236 0.89,0.556 1.221,0.96c0.331,0.404 0.57,0.879 0.716,1.423c0.146,0.545 0.174,1.126 0.084,1.744c-0.09,0.617 -0.289,1.201 -0.598,1.751c-0.309,0.551 -0.687,1.028 -1.137,1.432c-0.449,0.404 -0.951,0.724 -1.507,0.96c-0.556,0.236 -1.131,0.354 -1.727,0.354Zm-1.566,-4.497c-0.101,0.696 0.031,1.288 0.396,1.777c0.365,0.488 0.856,0.732 1.474,0.732c0.64,0 1.21,-0.238 1.709,-0.715c0.5,-0.478 0.806,-1.076 0.918,-1.794c0.101,-0.696 -0.028,-1.289 -0.387,-1.777c-0.36,-0.489 -0.859,-0.733 -1.499,-0.733c-0.674,0 -1.25,0.233 -1.727,0.699c-0.477,0.466 -0.772,1.07 -0.884,1.811Z"
              style="fill-opacity:0.294118;fill-rule:nonzero;"/>
        <path d="M145.654,221.661c0.191,-1.257 0.69,-2.307 1.499,-3.15c0.808,-0.842 1.785,-1.263 2.931,-1.263c1.033,0 1.858,0.416 2.476,1.247l0.589,-3.975l-0.977,0c-0.101,0 -0.146,-0.051 -0.135,-0.152l0.203,-1.347c0.022,-0.102 0.084,-0.152 0.185,-0.152l2.88,0c0.112,0 0.157,0.05 0.135,0.152l-1.904,12.767c-0.022,0.135 -0.095,0.202 -0.218,0.202l-1.567,0c-0.101,0 -0.152,-0.056 -0.152,-0.169l0,-0.842c-0.864,0.831 -1.813,1.247 -2.846,1.247c-1.056,0 -1.881,-0.447 -2.476,-1.339c-0.595,-0.893 -0.803,-1.968 -0.623,-3.226Zm2.072,0.084c-0.102,0.708 0.022,1.306 0.37,1.794c0.348,0.489 0.825,0.733 1.432,0.733c0.606,0 1.162,-0.247 1.667,-0.741c0.506,-0.494 0.809,-1.089 0.91,-1.786c0.101,-0.707 -0.023,-1.305 -0.371,-1.793c-0.348,-0.489 -0.831,-0.733 -1.448,-0.733c-0.674,0 -1.238,0.241 -1.693,0.724c-0.455,0.483 -0.744,1.084 -0.867,1.802Z"
              style="fill-opacity:0.294118;fill-rule:nonzero;"/>
        <path d="M156.989,219.152l-0.96,0c-0.101,0 -0.146,-0.057 -0.134,-0.169l0.185,-1.347c0.022,-0.101 0.084,-0.152 0.185,-0.152l2.88,0c0.113,0 0.158,0.051 0.135,0.152l-0.842,5.608c-0.09,0.674 0.202,1.011 0.876,1.011c0.471,0 0.94,-0.157 1.406,-0.472c0.466,-0.314 0.772,-0.774 0.918,-1.381l0.489,-3.25l-0.96,0c-0.113,0 -0.163,-0.057 -0.152,-0.169l0.202,-1.347c0.023,-0.101 0.084,-0.152 0.185,-0.152l2.897,0c0.09,0 0.124,0.051 0.101,0.152l-0.875,5.962l-0.118,2.19c-0.012,0.135 -0.079,0.202 -0.202,0.202l-1.735,0c-0.101,0 -0.152,-0.056 -0.152,-0.169l-0.034,-0.842c-0.393,0.393 -0.85,0.702 -1.372,0.927c-0.522,0.224 -1.059,0.337 -1.609,0.337c-0.842,0 -1.409,-0.264 -1.701,-0.792c-0.292,-0.528 -0.376,-1.218 -0.253,-2.072l0.64,-4.227Z"
              style="fill-opacity:0.294118;fill-rule:nonzero;"/>
        <path d="M166.337,214.52c-0.101,0 -0.146,-0.051 -0.134,-0.152l0.202,-1.347c0.022,-0.102 0.084,-0.152 0.185,-0.152l2.88,0c0.101,0 0.141,0.05 0.118,0.152l-1.886,12.767c-0.023,0.135 -0.096,0.202 -0.219,0.202l-1.701,0c-0.113,0 -0.158,-0.067 -0.135,-0.202l1.667,-11.268l-0.977,0Z"
              style="fill-opacity:0.294118;fill-rule:nonzero;"/>
        <path d="M176.865,224.289c-0.472,0.606 -1.025,1.081 -1.66,1.423c-0.634,0.342 -1.294,0.514 -1.979,0.514c-0.561,0 -1.069,-0.121 -1.524,-0.362c-0.455,-0.242 -0.828,-0.573 -1.12,-0.994c-0.292,-0.421 -0.5,-0.913 -0.623,-1.474c-0.124,-0.561 -0.135,-1.162 -0.034,-1.802c0.191,-1.314 0.71,-2.369 1.558,-3.167c0.848,-0.797 1.889,-1.196 3.125,-1.196c0.64,0 1.19,0.13 1.65,0.388c0.461,0.258 0.828,0.612 1.103,1.061c0.276,0.449 0.458,0.971 0.548,1.566c0.09,0.595 0.084,1.224 -0.017,1.887c-0.011,0.112 -0.067,0.168 -0.168,0.168l-5.845,0c-0.045,0.573 0.098,1.036 0.429,1.39c0.332,0.354 0.75,0.53 1.255,0.53c0.696,0 1.292,-0.314 1.786,-0.943c0.056,-0.067 0.095,-0.101 0.118,-0.101c0.033,0 0.067,0.011 0.101,0.034l1.28,0.876c0.078,0.067 0.084,0.134 0.017,0.202Zm-0.859,-3.436c-0.023,-0.483 -0.186,-0.876 -0.489,-1.179c-0.303,-0.304 -0.702,-0.455 -1.196,-0.455c-0.483,0 -0.923,0.151 -1.322,0.455c-0.399,0.303 -0.693,0.696 -0.884,1.179l3.891,0Z"
              style="fill-opacity:0.294118;fill-rule:nonzero;"/>
        <path d="M178.583,224.979c-0.079,-0.09 -0.057,-0.179 0.067,-0.269l1.112,-0.943c0.056,-0.045 0.101,-0.068 0.134,-0.068c0.034,0 0.079,0.028 0.135,0.084c0.382,0.461 0.971,0.691 1.769,0.691c0.415,0 0.758,-0.079 1.027,-0.236c0.27,-0.157 0.427,-0.37 0.472,-0.64c0.056,-0.281 -0.051,-0.5 -0.32,-0.657c-0.27,-0.157 -0.618,-0.297 -1.045,-0.421c-0.763,-0.224 -1.403,-0.547 -1.92,-0.968c-0.516,-0.421 -0.713,-1.047 -0.589,-1.878c0.123,-0.798 0.491,-1.404 1.103,-1.819c0.612,-0.416 1.339,-0.624 2.181,-0.624c0.618,0 1.19,0.13 1.718,0.388c0.528,0.258 0.927,0.567 1.196,0.926l-0.185,1.263c-0.023,0.113 -0.079,0.169 -0.169,0.169l-1.28,0c-0.09,0 -0.123,-0.056 -0.101,-0.169l0.051,-0.404c-0.416,-0.281 -0.854,-0.421 -1.314,-0.421c-0.674,0 -1.061,0.258 -1.162,0.775c-0.045,0.326 0.078,0.573 0.37,0.741c0.292,0.168 0.674,0.326 1.146,0.472c0.685,0.202 1.285,0.496 1.802,0.884c0.516,0.387 0.713,1.008 0.589,1.861c-0.123,0.82 -0.522,1.443 -1.195,1.87c-0.674,0.426 -1.516,0.64 -2.527,0.64c-0.674,0 -1.286,-0.11 -1.836,-0.329c-0.55,-0.219 -0.96,-0.525 -1.229,-0.918Z"
              style="fill-opacity:0.294118;fill-rule:nonzero;"/>
    </g>
    <g transform="matrix(7.14363,0,0,0.197353,-720.455,212.069)">
        <rect x="102.803"
              y="258.151"
              width="32.197"
              height="4.38"
              style="fill-opacity:0.427451;"/>
    </g>
    <g transform="matrix(7.14363,0,0,0.197353,-720.455,273.76)">
        <rect x="102.803"
              y="258.151"
              width="32.197"
              height="4.38"
              style="fill-opacity:0.427451;"/>
    </g>
    <g transform="matrix(1,0,0,1,10.4439,-6.22244)">
        <path d="M58.155,290.277c-1.752,0 -3.144,-1.2 -3.144,-3.384c0,-2.184 1.188,-3.612 3.108,-3.612c0.768,0 1.392,0.18 1.896,0.384l0.336,-0.876c-0.564,-0.24 -1.308,-0.432 -2.232,-0.432c-2.376,0 -4.164,1.596 -4.164,4.536c0,2.664 1.656,4.308 4.212,4.308c0.984,0 1.824,-0.252 2.364,-0.516l-0.3,-0.888c-0.468,0.228 -1.26,0.48 -2.076,0.48Z"
              style="fill-rule:nonzero;"/>
        <path d="M64.443,290.397c-1.14,0 -1.968,-0.744 -1.968,-2.256c0,-1.524 0.72,-2.256 1.98,-2.256c1.14,0 1.956,0.732 1.956,2.256c0,1.5 -0.708,2.256 -1.968,2.256Zm0.012,-5.316c-1.584,0 -2.964,1.008 -2.964,3.06c0,2.04 1.284,3.06 2.952,3.06c1.572,0 2.952,-1.02 2.952,-3.06c0,-2.052 -1.284,-3.06 -2.94,-3.06Z"
              style="fill-rule:nonzero;"/>
        <path d="M71.415,290.397c-0.66,0 -1.248,-0.24 -1.68,-0.768l0,-2.772c0.42,-0.612 1.08,-0.972 1.74,-0.972c1.188,0 1.74,0.696 1.74,2.052c0,1.548 -0.768,2.46 -1.8,2.46Zm0.06,-5.316c-0.78,0 -1.464,0.384 -1.836,0.9l-0.048,0l-0.108,-0.756l-0.708,0l0,9.036l0.96,0l0,-3.576l0.048,0c0.372,0.3 0.996,0.516 1.632,0.516c1.536,0 2.784,-1.224 2.784,-3.264c0,-1.944 -1.02,-2.856 -2.724,-2.856Z"
              style="fill-rule:nonzero;"/>
        <path d="M77.715,290.001l-0.048,0l-1.752,-4.776l-1.044,0l2.328,5.832c-0.348,0.768 -0.588,1.248 -0.924,1.644c-0.36,0.408 -0.84,0.744 -1.02,0.84l0.132,0.864c0.48,-0.216 1.152,-0.744 1.476,-1.116c0.48,-0.564 0.888,-1.176 1.284,-2.232l2.22,-5.832l-0.996,0l-1.656,4.776Z"
              style="fill-rule:nonzero;"/>
        <path d="M84.111,285.081c-0.588,0 -1.056,0.18 -1.752,1.224l-0.048,0l-0.156,-1.08l-0.708,0l0,5.832l0.96,0l0,-3.504c0.648,-1.14 1.02,-1.644 1.536,-1.644c0.276,0 0.528,0.18 0.66,0.264l0.444,-0.804c-0.204,-0.12 -0.468,-0.288 -0.936,-0.288Z"
              style="fill-rule:nonzero;"/>
        <path d="M86.547,284.265c0.36,0 0.648,-0.288 0.648,-0.648c0,-0.36 -0.288,-0.648 -0.648,-0.648c-0.36,0 -0.648,0.288 -0.648,0.648c0,0.36 0.288,0.648 0.648,0.648Zm0.48,6.792l0,-5.832l-0.96,0l0,5.832l0.96,0Z"
              style="fill-rule:nonzero;"/>
        <path d="M91.047,288.921c-0.6,0 -1.056,-0.24 -1.284,-0.588c-0.18,-0.264 -0.252,-0.6 -0.252,-0.96c0,-0.876 0.528,-1.512 1.536,-1.512c1.02,0 1.512,0.708 1.512,1.548c0,0.768 -0.576,1.512 -1.512,1.512Zm0.516,2.58c1.056,0.144 1.356,0.504 1.356,1.092c0,0.648 -0.528,1.032 -1.764,1.032c-1.344,0 -1.92,-0.552 -1.92,-1.116c0,-0.648 0.516,-1.02 1.008,-1.188l1.32,0.18Zm2.22,-5.868c0.156,0 0.288,0.012 0.384,0.036l0.156,-0.756c-0.132,-0.036 -0.3,-0.06 -0.504,-0.06c-0.492,0 -0.996,0.096 -1.5,0.528c-0.348,-0.192 -0.792,-0.3 -1.272,-0.3c-1.272,0 -2.46,0.78 -2.46,2.292c0,0.924 0.432,1.596 1.056,1.968c-0.06,0.396 -0.192,1.272 -0.252,1.584c-0.504,0.132 -1.092,0.768 -1.092,1.608c0,1.188 1.14,1.872 2.88,1.872c1.56,0 2.664,-0.624 2.664,-1.776c0,-1.104 -0.636,-1.68 -2.1,-1.872l-1.452,-0.192l0.144,-0.972c0.144,0.036 0.396,0.06 0.6,0.06c1.452,0 2.46,-0.924 2.46,-2.244c0,-0.576 -0.216,-1.116 -0.564,-1.524l0,-0.024c0.24,-0.168 0.66,-0.228 0.852,-0.228Z"
              style="fill-rule:nonzero;"/>
        <path d="M98.535,285.081c-1.032,0 -1.824,0.516 -2.292,1.152l-0.048,0l0,-4.368l-0.96,0l0,9.192l0.96,0l0,-3.624c0.54,-0.792 1.2,-1.548 2.232,-1.548c0.288,0 0.516,0.108 0.636,0.324c0.072,0.132 0.096,0.432 0.096,0.6l0,4.248l0.96,0l0,-4.272c0,-1.14 -0.456,-1.704 -1.584,-1.704Z"
              style="fill-rule:nonzero;"/>
        <path d="M105.459,290.601l-0.348,-0.72c-0.36,0.24 -0.864,0.492 -1.32,0.492c-0.336,0 -0.444,-0.336 -0.444,-0.768l0,-3.576l1.812,0l0,-0.804l-1.812,0l0,-1.896l-0.96,0l0,1.884l-1.188,0.18l0,0.636l1.188,0l0,3.54c0,1.116 0.372,1.632 1.284,1.632c0.744,0 1.404,-0.336 1.788,-0.6Z"
              style="fill-rule:nonzero;"/>
        <path d="M110.775,290.109c0,-0.984 1.02,-1.728 1.836,-2.268c1.164,-0.768 2.592,-1.524 2.592,-2.94c0,-1.608 -1.032,-2.544 -2.856,-2.544c-0.972,0 -1.728,0.276 -2.496,0.78l0.396,0.84c0.564,-0.396 1.344,-0.696 1.992,-0.696c1.344,0 1.944,0.576 1.944,1.608c0,0.96 -1.128,1.476 -2.268,2.256c-1.056,0.732 -2.196,1.62 -2.196,3.192l0,0.72l5.616,0l0,-0.948l-4.56,0Z"
              style="fill-rule:nonzero;"/>
        <path d="M119.823,290.301c-1.332,0 -2.304,-1.32 -2.304,-3.492c0,-2.184 0.888,-3.552 2.388,-3.552c1.332,0 2.28,1.32 2.28,3.492c0,2.172 -0.852,3.552 -2.364,3.552Zm0.084,-7.944c-1.932,0 -3.432,1.536 -3.432,4.452c0,2.568 1.296,4.392 3.336,4.392c1.992,0 3.42,-1.584 3.42,-4.452c0,-2.556 -1.248,-4.392 -3.324,-4.392Z"
              style="fill-rule:nonzero;"/>
        <path d="M126.819,282.501c-0.624,0.816 -1.428,1.176 -2.316,1.356l0.24,0.912c0.636,-0.144 1.344,-0.384 1.8,-0.732l0.048,0c0,2.448 0,4.572 0,7.02l1.02,0l0,-8.556l-0.792,0Z"
              style="fill-rule:nonzero;"/>
        <path d="M129.231,283.449l4.524,0l0,0.036c-2.316,2.796 -2.868,6.204 -2.868,7.572l1.044,0c0,-2.676 1.164,-5.364 3.036,-7.704l0,-0.852l-5.736,0l0,0.948Z"
              style="fill-rule:nonzero;"/>
        <rect x="139.179"
              y="287.109"
              width="3.024"
              height="0.732"
              style="fill-rule:nonzero;"/>
        <path d="M147.879,290.109c0,-0.984 1.02,-1.728 1.836,-2.268c1.164,-0.768 2.592,-1.524 2.592,-2.94c0,-1.608 -1.032,-2.544 -2.856,-2.544c-0.972,0 -1.728,0.276 -2.496,0.78l0.396,0.84c0.564,-0.396 1.344,-0.696 1.992,-0.696c1.344,0 1.944,0.576 1.944,1.608c0,0.96 -1.128,1.476 -2.268,2.256c-1.056,0.732 -2.196,1.62 -2.196,3.192l0,0.72l5.616,0l0,-0.948l-4.56,0Z"
              style="fill-rule:nonzero;"/>
        <path d="M156.927,290.301c-1.332,0 -2.304,-1.32 -2.304,-3.492c0,-2.184 0.888,-3.552 2.388,-3.552c1.332,0 2.28,1.32 2.28,3.492c0,2.172 -0.852,3.552 -2.364,3.552Zm0.084,-7.944c-1.932,0 -3.432,1.536 -3.432,4.452c0,2.568 1.296,4.392 3.336,4.392c1.992,0 3.42,-1.584 3.42,-4.452c0,-2.556 -1.248,-4.392 -3.324,-4.392Z"
              style="fill-rule:nonzero;"/>
        <path d="M163.923,282.501c-0.624,0.816 -1.428,1.176 -2.316,1.356l0.24,0.912c0.636,-0.144 1.344,-0.384 1.8,-0.732l0.048,0c0,2.448 0,4.572 0,7.02l1.02,0l0,-8.556l-0.792,0Z"
              style="fill-rule:nonzero;"/>
        <path d="M169.551,290.301c-1.008,0 -2.04,-0.456 -2.04,-1.632c0,-0.852 0.588,-1.5 1.248,-1.884c0.312,0.108 1.584,0.54 1.584,0.54c0.792,0.264 1.188,0.804 1.188,1.512c0,0.996 -0.708,1.464 -1.98,1.464Zm-0.024,-7.044c1.056,0 1.752,0.372 1.752,1.488c0,0.6 -0.336,1.164 -0.912,1.596c-0.24,-0.072 -1.2,-0.396 -1.368,-0.456c-0.84,-0.288 -1.08,-0.816 -1.08,-1.344c0,-0.936 0.696,-1.284 1.608,-1.284Zm1.776,3.504c0.672,-0.588 0.984,-1.452 0.984,-2.016c0,-1.572 -1.032,-2.388 -2.76,-2.388c-1.476,0 -2.604,0.78 -2.604,2.196c0,0.72 0.324,1.356 0.912,1.764c-0.792,0.504 -1.332,1.392 -1.332,2.352c0,1.62 1.344,2.532 3.036,2.532c1.824,0 3,-0.9 3,-2.364c0,-0.924 -0.42,-1.62 -1.236,-2.076Z"
              style="fill-rule:nonzero;"/>
        <path d="M179.787,290.397c-0.348,0 -0.948,-0.132 -1.248,-0.288l0,-3.408c0.324,-0.552 1.056,-0.816 1.668,-0.816c1.176,0 1.764,0.756 1.764,2.136c0,1.5 -0.9,2.376 -2.184,2.376Zm0.42,-5.316c-0.552,0 -1.176,0.156 -1.62,0.552l-0.048,0l0,-3.768l-0.96,0l0,8.784c0.444,0.276 1.416,0.552 2.208,0.552c1.608,0 3.168,-1.092 3.168,-3.18c0,-2.004 -1.092,-2.94 -2.748,-2.94Z"
              style="fill-rule:nonzero;"/>
        <path d="M186.471,290.001l-0.048,0l-1.752,-4.776l-1.044,0l2.328,5.832c-0.348,0.768 -0.588,1.248 -0.924,1.644c-0.36,0.408 -0.84,0.744 -1.02,0.84l0.132,0.864c0.48,-0.216 1.152,-0.744 1.476,-1.116c0.48,-0.564 0.888,-1.176 1.284,-2.232l2.22,-5.832l-0.996,0l-1.656,4.776Z"
              style="fill-rule:nonzero;"/>
        <path d="M56.787,296.501l-1.02,0l0,8.556l4.848,0l0,-0.96l-3.828,0l0,-7.596Z"
              style="fill-rule:nonzero;"/>
        <path d="M62.235,298.265c0.36,0 0.648,-0.288 0.648,-0.648c0,-0.36 -0.288,-0.648 -0.648,-0.648c-0.36,0 -0.648,0.288 -0.648,0.648c0,0.36 0.288,0.648 0.648,0.648Zm0.48,6.792l0,-5.832l-0.96,0l0,5.832l0.96,0Z"
              style="fill-rule:nonzero;"/>
        <path d="M67.815,299.081c-1.092,0 -1.86,0.564 -2.388,1.236l-0.048,0l-0.156,-1.092l-0.708,0l0,5.832l0.96,0l0,-3.624c0.54,-0.828 1.224,-1.548 2.232,-1.548c0.288,0 0.516,0.108 0.636,0.324c0.072,0.132 0.096,0.432 0.096,0.6l0,4.248l0.96,0l0,-4.272c0,-1.14 -0.456,-1.704 -1.584,-1.704Z"
              style="fill-rule:nonzero;"/>
        <path d="M75.243,303.521c-0.384,0.516 -1.032,0.876 -1.692,0.876c-1.092,0 -1.788,-0.72 -1.788,-2.124c0,-1.548 0.792,-2.388 1.764,-2.388c0.756,0 1.344,0.24 1.716,0.768l0,2.868Zm0,-3.936l-0.048,0c-0.336,-0.3 -1.02,-0.504 -1.668,-0.504c-1.452,0 -2.748,1.14 -2.748,3.192c0,1.968 1.176,2.928 2.772,2.928c0.78,0 1.548,-0.444 1.8,-0.816l0.048,0l0.096,0.672l0.708,0l0,-9.192l-0.96,0l0,3.72Z"
              style="fill-rule:nonzero;"/>
        <path d="M78.579,301.433c0.204,-0.984 0.732,-1.572 1.776,-1.572c0.528,0 0.912,0.18 1.152,0.468c0.252,0.288 0.36,0.708 0.384,1.104l-3.312,0Zm4.272,0.468c0,-1.284 -0.564,-2.82 -2.46,-2.82c-0.792,0 -1.392,0.216 -1.872,0.672c-0.588,0.552 -0.936,1.44 -0.936,2.496c0,1.836 1.164,2.952 2.94,2.952c0.672,0 1.428,-0.156 2.004,-0.492l-0.36,-0.744c-0.468,0.276 -1.068,0.444 -1.644,0.444c-1.104,0 -1.992,-0.624 -1.992,-2.196l4.296,0c0.012,-0.096 0.024,-0.192 0.024,-0.312Z"
              style="fill-rule:nonzero;"/>
        <path d="M87.495,299.081c-1.092,0 -1.86,0.564 -2.388,1.236l-0.048,0l-0.156,-1.092l-0.708,0l0,5.832l0.96,0l0,-3.624c0.54,-0.828 1.224,-1.548 2.232,-1.548c0.288,0 0.516,0.108 0.636,0.324c0.072,0.132 0.096,0.432 0.096,0.6l0,4.248l0.96,0l0,-4.272c0,-1.14 -0.456,-1.704 -1.584,-1.704Z"
              style="fill-rule:nonzero;"/>
        <path d="M93.027,304.397c-0.348,0 -0.948,-0.132 -1.248,-0.288l0,-3.408c0.324,-0.552 1.056,-0.816 1.668,-0.816c1.176,0 1.764,0.756 1.764,2.136c0,1.5 -0.9,2.376 -2.184,2.376Zm0.42,-5.316c-0.552,0 -1.176,0.156 -1.62,0.552l-0.048,0l0,-3.768l-0.96,0l0,8.784c0.444,0.276 1.416,0.552 2.208,0.552c1.608,0 3.168,-1.092 3.168,-3.18c0,-2.004 -1.092,-2.94 -2.748,-2.94Z"
              style="fill-rule:nonzero;"/>
        <path d="M98.295,301.433c0.204,-0.984 0.732,-1.572 1.776,-1.572c0.528,0 0.912,0.18 1.152,0.468c0.252,0.288 0.36,0.708 0.384,1.104l-3.312,0Zm4.272,0.468c0,-1.284 -0.564,-2.82 -2.46,-2.82c-0.792,0 -1.392,0.216 -1.872,0.672c-0.588,0.552 -0.936,1.44 -0.936,2.496c0,1.836 1.164,2.952 2.94,2.952c0.672,0 1.428,-0.156 2.004,-0.492l-0.36,-0.744c-0.468,0.276 -1.068,0.444 -1.644,0.444c-1.104,0 -1.992,-0.624 -1.992,-2.196l4.296,0c0.012,-0.096 0.024,-0.192 0.024,-0.312Z"
              style="fill-rule:nonzero;"/>
        <path d="M106.575,299.081c-0.588,0 -1.056,0.18 -1.752,1.224l-0.048,0l-0.156,-1.08l-0.708,0l0,5.832l0.96,0l0,-3.504c0.648,-1.14 1.02,-1.644 1.536,-1.644c0.276,0 0.528,0.18 0.66,0.264l0.444,-0.804c-0.204,-0.12 -0.468,-0.288 -0.936,-0.288Z"
              style="fill-rule:nonzero;"/>
        <path d="M110.523,302.921c-0.6,0 -1.056,-0.24 -1.284,-0.588c-0.18,-0.264 -0.252,-0.6 -0.252,-0.96c0,-0.876 0.528,-1.512 1.536,-1.512c1.02,0 1.512,0.708 1.512,1.548c0,0.768 -0.576,1.512 -1.512,1.512Zm0.516,2.58c1.056,0.144 1.356,0.504 1.356,1.092c0,0.648 -0.528,1.032 -1.764,1.032c-1.344,0 -1.92,-0.552 -1.92,-1.116c0,-0.648 0.516,-1.02 1.008,-1.188l1.32,0.18Zm2.22,-5.868c0.156,0 0.288,0.012 0.384,0.036l0.156,-0.756c-0.132,-0.036 -0.3,-0.06 -0.504,-0.06c-0.492,0 -0.996,0.096 -1.5,0.528c-0.348,-0.192 -0.792,-0.3 -1.272,-0.3c-1.272,0 -2.46,0.78 -2.46,2.292c0,0.924 0.432,1.596 1.056,1.968c-0.06,0.396 -0.192,1.272 -0.252,1.584c-0.504,0.132 -1.092,0.768 -1.092,1.608c0,1.188 1.14,1.872 2.88,1.872c1.56,0 2.664,-0.624 2.664,-1.776c0,-1.104 -0.636,-1.68 -2.1,-1.872l-1.452,-0.192l0.144,-0.972c0.144,0.036 0.396,0.06 0.6,0.06c1.452,0 2.46,-0.924 2.46,-2.244c0,-0.576 -0.216,-1.116 -0.564,-1.524l0,-0.024c0.24,-0.168 0.66,-0.228 0.852,-0.228Z"
              style="fill-rule:nonzero;"/>
        <path d="M119.331,297.449l1.62,0c1.704,0 2.316,0.408 2.316,1.5c0,1.056 -0.588,1.584 -2.148,1.584l-1.788,0l0,-3.084Zm2.832,3.936c1.212,-0.24 2.124,-0.936 2.124,-2.388c0,-1.8 -1.092,-2.496 -3.384,-2.496l-2.592,0l0,8.556l1.02,0l0,-3.588l1.704,0l2.28,3.588l1.2,0l-2.352,-3.624l0,-0.048Z"
              style="fill-rule:nonzero;"/>
        <path d="M126.315,301.433c0.204,-0.984 0.732,-1.572 1.776,-1.572c0.528,0 0.912,0.18 1.152,0.468c0.252,0.288 0.36,0.708 0.384,1.104l-3.312,0Zm4.272,0.468c0,-1.284 -0.564,-2.82 -2.46,-2.82c-0.792,0 -1.392,0.216 -1.872,0.672c-0.588,0.552 -0.936,1.44 -0.936,2.496c0,1.836 1.164,2.952 2.94,2.952c0.672,0 1.428,-0.156 2.004,-0.492l-0.36,-0.744c-0.468,0.276 -1.068,0.444 -1.644,0.444c-1.104,0 -1.992,-0.624 -1.992,-2.196l4.296,0c0.012,-0.096 0.024,-0.192 0.024,-0.312Z"
              style="fill-rule:nonzero;"/>
        <path d="M134.175,301.589c-0.876,-0.3 -1.464,-0.408 -1.464,-0.912c0,-0.648 0.492,-0.792 1.212,-0.792c0.6,0 1.032,0.108 1.512,0.324l0.264,-0.756c-0.48,-0.24 -1.044,-0.372 -1.752,-0.372c-1.44,0 -2.196,0.672 -2.196,1.62c0,0.852 0.552,1.176 1.74,1.584c1.02,0.348 1.404,0.564 1.404,1.248c0,0.636 -0.444,0.864 -1.392,0.864c-0.636,0 -1.248,-0.264 -1.632,-0.468l-0.312,0.756c0.456,0.3 1.284,0.516 1.908,0.516c1.596,0 2.388,-0.612 2.388,-1.704c0,-0.912 -0.528,-1.5 -1.68,-1.908Z"
              style="fill-rule:nonzero;"/>
        <path d="M137.919,301.433c0.204,-0.984 0.732,-1.572 1.776,-1.572c0.528,0 0.912,0.18 1.152,0.468c0.252,0.288 0.36,0.708 0.384,1.104l-3.312,0Zm4.272,0.468c0,-1.284 -0.564,-2.82 -2.46,-2.82c-0.792,0 -1.392,0.216 -1.872,0.672c-0.588,0.552 -0.936,1.44 -0.936,2.496c0,1.836 1.164,2.952 2.94,2.952c0.672,0 1.428,-0.156 2.004,-0.492l-0.36,-0.744c-0.468,0.276 -1.068,0.444 -1.644,0.444c-1.104,0 -1.992,-0.624 -1.992,-2.196l4.296,0c0.012,-0.096 0.024,-0.192 0.024,-0.312Z"
              style="fill-rule:nonzero;"/>
        <path d="M147.543,303.929l0,-3.324c0,-0.888 -0.648,-1.524 -1.86,-1.524c-1.212,0 -2.088,0.444 -2.088,1.284c0,0.096 0.024,0.18 0.036,0.24l0.96,-0.144c-0.012,-0.048 -0.024,-0.108 -0.024,-0.156c0,-0.324 0.48,-0.432 0.984,-0.432c0.636,0 1.044,0.3 1.056,0.648l0,1.02l-2.148,0.324c-0.816,0.18 -1.344,0.816 -1.344,1.74c0,0.96 0.54,1.596 1.8,1.596c0.48,0 1.2,-0.156 1.788,-0.72l0.048,0c0.276,0.54 0.744,0.576 1.296,0.6l0,-0.852c-0.312,-0.024 -0.48,-0.156 -0.504,-0.3Zm-0.936,-0.276c-0.564,0.54 -1.236,0.756 -1.704,0.756c-0.54,0 -0.828,-0.384 -0.828,-0.888c0,-0.612 0.36,-0.828 0.672,-0.9l1.86,-0.276l0,1.308Z"
              style="fill-rule:nonzero;"/>
        <path d="M151.947,299.081c-0.588,0 -1.056,0.18 -1.752,1.224l-0.048,0l-0.156,-1.08l-0.708,0l0,5.832l0.96,0l0,-3.504c0.648,-1.14 1.02,-1.644 1.536,-1.644c0.276,0 0.528,0.18 0.66,0.264l0.444,-0.804c-0.204,-0.12 -0.468,-0.288 -0.936,-0.288Z"
              style="fill-rule:nonzero;"/>
        <path d="M157.791,303.941c-0.396,0.228 -0.888,0.456 -1.548,0.456c-1.176,0 -1.956,-0.744 -1.956,-2.244c0,-1.56 0.804,-2.268 2.112,-2.268c0.48,0 0.996,0.156 1.296,0.3l0.276,-0.78c-0.456,-0.192 -0.948,-0.324 -1.572,-0.324c-1.656,0 -3.096,1.008 -3.096,3.072c0,2.052 1.26,3.048 2.94,3.048c0.78,0 1.404,-0.204 1.908,-0.528l-0.36,-0.732Z"
              style="fill-rule:nonzero;"/>
        <path d="M162.711,299.081c-1.032,0 -1.824,0.516 -2.292,1.152l-0.048,0l0,-4.368l-0.96,0l0,9.192l0.96,0l0,-3.624c0.54,-0.792 1.2,-1.548 2.232,-1.548c0.288,0 0.516,0.108 0.636,0.324c0.072,0.132 0.096,0.432 0.096,0.6l0,4.248l0.96,0l0,-4.272c0,-1.14 -0.456,-1.704 -1.584,-1.704Z"
              style="fill-rule:nonzero;"/>
        <path d="M173.583,303.929l0,-3.324c0,-0.888 -0.648,-1.524 -1.86,-1.524c-1.212,0 -2.088,0.444 -2.088,1.284c0,0.096 0.024,0.18 0.036,0.24l0.96,-0.144c-0.012,-0.048 -0.024,-0.108 -0.024,-0.156c0,-0.324 0.48,-0.432 0.984,-0.432c0.636,0 1.044,0.3 1.056,0.648l0,1.02l-2.148,0.324c-0.816,0.18 -1.344,0.816 -1.344,1.74c0,0.96 0.54,1.596 1.8,1.596c0.48,0 1.2,-0.156 1.788,-0.72l0.048,0c0.276,0.54 0.744,0.576 1.296,0.6l0,-0.852c-0.312,-0.024 -0.48,-0.156 -0.504,-0.3Zm-0.936,-0.276c-0.564,0.54 -1.236,0.756 -1.704,0.756c-0.54,0 -0.828,-0.384 -0.828,-0.888c0,-0.612 0.36,-0.828 0.672,-0.9l1.86,-0.276l0,1.308Z"
              style="fill-rule:nonzero;"/>
        <path d="M178.623,299.081c-1.092,0 -1.86,0.564 -2.388,1.236l-0.048,0l-0.156,-1.092l-0.708,0l0,5.832l0.96,0l0,-3.624c0.54,-0.828 1.224,-1.548 2.232,-1.548c0.288,0 0.516,0.108 0.636,0.324c0.072,0.132 0.096,0.432 0.096,0.6l0,4.248l0.96,0l0,-4.272c0,-1.14 -0.456,-1.704 -1.584,-1.704Z"
              style="fill-rule:nonzero;"/>
        <path d="M186.051,303.521c-0.384,0.516 -1.032,0.876 -1.692,0.876c-1.092,0 -1.788,-0.72 -1.788,-2.124c0,-1.548 0.792,-2.388 1.764,-2.388c0.756,0 1.344,0.24 1.716,0.768l0,2.868Zm0,-3.936l-0.048,0c-0.336,-0.3 -1.02,-0.504 -1.668,-0.504c-1.452,0 -2.748,1.14 -2.748,3.192c0,1.968 1.176,2.928 2.772,2.928c0.78,0 1.548,-0.444 1.8,-0.816l0.048,0l0.096,0.672l0.708,0l0,-9.192l-0.96,0l0,3.72Z"
              style="fill-rule:nonzero;"/>
        <path d="M73.815,314.869l0,-3.42l1.584,0c1.704,0 2.256,0.576 2.256,1.668c0,1.068 -0.576,1.752 -2.34,1.752l-1.5,0Zm4.86,-1.704c0,-1.8 -1.032,-2.664 -3.324,-2.664l-2.556,0l0,8.556l1.02,0l0,-3.252l1.536,0c2.124,0 3.324,-0.84 3.324,-2.64Z"
              style="fill-rule:nonzero;"/>
        <path d="M83.991,317.929l0,-3.324c0,-0.888 -0.648,-1.524 -1.86,-1.524c-1.212,0 -2.088,0.444 -2.088,1.284c0,0.096 0.024,0.18 0.036,0.24l0.96,-0.144c-0.012,-0.048 -0.024,-0.108 -0.024,-0.156c0,-0.324 0.48,-0.432 0.984,-0.432c0.636,0 1.044,0.3 1.056,0.648l0,1.02l-2.148,0.324c-0.816,0.18 -1.344,0.816 -1.344,1.74c0,0.96 0.54,1.596 1.8,1.596c0.48,0 1.2,-0.156 1.788,-0.72l0.048,0c0.276,0.54 0.744,0.576 1.296,0.6l0,-0.852c-0.312,-0.024 -0.48,-0.156 -0.504,-0.3Zm-0.936,-0.276c-0.564,0.54 -1.236,0.756 -1.704,0.756c-0.54,0 -0.828,-0.384 -0.828,-0.888c0,-0.612 0.36,-0.828 0.672,-0.9l1.86,-0.276l0,1.308Z"
              style="fill-rule:nonzero;"/>
        <path d="M89.331,318.601l-0.348,-0.72c-0.36,0.24 -0.864,0.492 -1.32,0.492c-0.336,0 -0.444,-0.336 -0.444,-0.768l0,-3.576l1.812,0l0,-0.804l-1.812,0l0,-1.896l-0.96,0l0,1.884l-1.188,0.18l0,0.636l1.188,0l0,3.54c0,1.116 0.372,1.632 1.284,1.632c0.744,0 1.404,-0.336 1.788,-0.6Z"
              style="fill-rule:nonzero;"/>
        <path d="M93.015,313.081c-0.588,0 -1.056,0.18 -1.752,1.224l-0.048,0l-0.156,-1.08l-0.708,0l0,5.832l0.96,0l0,-3.504c0.648,-1.14 1.02,-1.644 1.536,-1.644c0.276,0 0.528,0.18 0.66,0.264l0.444,-0.804c-0.204,-0.12 -0.468,-0.288 -0.936,-0.288Z"
              style="fill-rule:nonzero;"/>
        <path d="M95.451,312.265c0.36,0 0.648,-0.288 0.648,-0.648c0,-0.36 -0.288,-0.648 -0.648,-0.648c-0.36,0 -0.648,0.288 -0.648,0.648c0,0.36 0.288,0.648 0.648,0.648Zm0.48,6.792l0,-5.832l-0.96,0l0,5.832l0.96,0Z"
              style="fill-rule:nonzero;"/>
        <path d="M101.859,317.941c-0.396,0.228 -0.888,0.456 -1.548,0.456c-1.176,0 -1.956,-0.744 -1.956,-2.244c0,-1.56 0.804,-2.268 2.112,-2.268c0.48,0 0.996,0.156 1.296,0.3l0.276,-0.78c-0.456,-0.192 -0.948,-0.324 -1.572,-0.324c-1.656,0 -3.096,1.008 -3.096,3.072c0,2.052 1.26,3.048 2.94,3.048c0.78,0 1.404,-0.204 1.908,-0.528l-0.36,-0.732Z"
              style="fill-rule:nonzero;"/>
        <path d="M107.967,313.225l-1.116,0l-2.376,2.52l-0.048,0l0,-5.88l-0.948,0l0,9.192l0.948,0l0,-2.244l0.672,-0.672l2.052,2.916l1.128,0l-2.556,-3.456l2.244,-2.376Z"
              style="fill-rule:nonzero;"/>
        <path d="M113.799,310.501l-1.02,0l0,8.556l4.848,0l0,-0.96l-3.828,0l0,-7.596Z"
              style="fill-rule:nonzero;"/>
        <path d="M119.247,312.265c0.36,0 0.648,-0.288 0.648,-0.648c0,-0.36 -0.288,-0.648 -0.648,-0.648c-0.36,0 -0.648,0.288 -0.648,0.648c0,0.36 0.288,0.648 0.648,0.648Zm0.48,6.792l0,-5.832l-0.96,0l0,5.832l0.96,0Z"
              style="fill-rule:nonzero;"/>
        <path d="M124.827,313.081c-1.092,0 -1.86,0.564 -2.388,1.236l-0.048,0l-0.156,-1.092l-0.708,0l0,5.832l0.96,0l0,-3.624c0.54,-0.828 1.224,-1.548 2.232,-1.548c0.288,0 0.516,0.108 0.636,0.324c0.072,0.132 0.096,0.432 0.096,0.6l0,4.248l0.96,0l0,-4.272c0,-1.14 -0.456,-1.704 -1.584,-1.704Z"
              style="fill-rule:nonzero;"/>
        <path d="M132.255,317.521c-0.384,0.516 -1.032,0.876 -1.692,0.876c-1.092,0 -1.788,-0.72 -1.788,-2.124c0,-1.548 0.792,-2.388 1.764,-2.388c0.756,0 1.344,0.24 1.716,0.768l0,2.868Zm0,-3.936l-0.048,0c-0.336,-0.3 -1.02,-0.504 -1.668,-0.504c-1.452,0 -2.748,1.14 -2.748,3.192c0,1.968 1.176,2.928 2.772,2.928c0.78,0 1.548,-0.444 1.8,-0.816l0.048,0l0.096,0.672l0.708,0l0,-9.192l-0.96,0l0,3.72Z"
              style="fill-rule:nonzero;"/>
        <path d="M135.591,315.433c0.204,-0.984 0.732,-1.572 1.776,-1.572c0.528,0 0.912,0.18 1.152,0.468c0.252,0.288 0.36,0.708 0.384,1.104l-3.312,0Zm4.272,0.468c0,-1.284 -0.564,-2.82 -2.46,-2.82c-0.792,0 -1.392,0.216 -1.872,0.672c-0.588,0.552 -0.936,1.44 -0.936,2.496c0,1.836 1.164,2.952 2.94,2.952c0.672,0 1.428,-0.156 2.004,-0.492l-0.36,-0.744c-0.468,0.276 -1.068,0.444 -1.644,0.444c-1.104,0 -1.992,-0.624 -1.992,-2.196l4.296,0c0.012,-0.096 0.024,-0.192 0.024,-0.312Z"
              style="fill-rule:nonzero;"/>
        <path d="M144.507,313.081c-1.092,0 -1.86,0.564 -2.388,1.236l-0.048,0l-0.156,-1.092l-0.708,0l0,5.832l0.96,0l0,-3.624c0.54,-0.828 1.224,-1.548 2.232,-1.548c0.288,0 0.516,0.108 0.636,0.324c0.072,0.132 0.096,0.432 0.096,0.6l0,4.248l0.96,0l0,-4.272c0,-1.14 -0.456,-1.704 -1.584,-1.704Z"
              style="fill-rule:nonzero;"/>
        <path d="M150.039,318.397c-0.348,0 -0.948,-0.132 -1.248,-0.288l0,-3.408c0.324,-0.552 1.056,-0.816 1.668,-0.816c1.176,0 1.764,0.756 1.764,2.136c0,1.5 -0.9,2.376 -2.184,2.376Zm0.42,-5.316c-0.552,0 -1.176,0.156 -1.62,0.552l-0.048,0l0,-3.768l-0.96,0l0,8.784c0.444,0.276 1.416,0.552 2.208,0.552c1.608,0 3.168,-1.092 3.168,-3.18c0,-2.004 -1.092,-2.94 -2.748,-2.94Z"
              style="fill-rule:nonzero;"/>
        <path d="M155.307,315.433c0.204,-0.984 0.732,-1.572 1.776,-1.572c0.528,0 0.912,0.18 1.152,0.468c0.252,0.288 0.36,0.708 0.384,1.104l-3.312,0Zm4.272,0.468c0,-1.284 -0.564,-2.82 -2.46,-2.82c-0.792,0 -1.392,0.216 -1.872,0.672c-0.588,0.552 -0.936,1.44 -0.936,2.496c0,1.836 1.164,2.952 2.94,2.952c0.672,0 1.428,-0.156 2.004,-0.492l-0.36,-0.744c-0.468,0.276 -1.068,0.444 -1.644,0.444c-1.104,0 -1.992,-0.624 -1.992,-2.196l4.296,0c0.012,-0.096 0.024,-0.192 0.024,-0.312Z"
              style="fill-rule:nonzero;"/>
        <path d="M163.587,313.081c-0.588,0 -1.056,0.18 -1.752,1.224l-0.048,0l-0.156,-1.08l-0.708,0l0,5.832l0.96,0l0,-3.504c0.648,-1.14 1.02,-1.644 1.536,-1.644c0.276,0 0.528,0.18 0.66,0.264l0.444,-0.804c-0.204,-0.12 -0.468,-0.288 -0.936,-0.288Z"
              style="fill-rule:nonzero;"/>
        <path d="M167.535,316.921c-0.6,0 -1.056,-0.24 -1.284,-0.588c-0.18,-0.264 -0.252,-0.6 -0.252,-0.96c0,-0.876 0.528,-1.512 1.536,-1.512c1.02,0 1.512,0.708 1.512,1.548c0,0.768 -0.576,1.512 -1.512,1.512Zm0.516,2.58c1.056,0.144 1.356,0.504 1.356,1.092c0,0.648 -0.528,1.032 -1.764,1.032c-1.344,0 -1.92,-0.552 -1.92,-1.116c0,-0.648 0.516,-1.02 1.008,-1.188l1.32,0.18Zm2.22,-5.868c0.156,0 0.288,0.012 0.384,0.036l0.156,-0.756c-0.132,-0.036 -0.3,-0.06 -0.504,-0.06c-0.492,0 -0.996,0.096 -1.5,0.528c-0.348,-0.192 -0.792,-0.3 -1.272,-0.3c-1.272,0 -2.46,0.78 -2.46,2.292c0,0.924 0.432,1.596 1.056,1.968c-0.06,0.396 -0.192,1.272 -0.252,1.584c-0.504,0.132 -1.092,0.768 -1.092,1.608c0,1.188 1.14,1.872 2.88,1.872c1.56,0 2.664,-0.624 2.664,-1.776c0,-1.104 -0.636,-1.68 -2.1,-1.872l-1.452,-0.192l0.144,-0.972c0.144,0.036 0.396,0.06 0.6,0.06c1.452,0 2.46,-0.924 2.46,-2.244c0,-0.576 -0.216,-1.116 -0.564,-1.524l0,-0.024c0.24,-0.168 0.66,-0.228 0.852,-0.228Z"
              style="fill-rule:nonzero;"/>
    </g>
    <g transform="matrix(1,0,0,1,-20.3025,36.4691)">
        <path d="M98.633,303.081c-1.032,0 -1.824,0.516 -2.292,1.152l-0.048,0l0,-4.368l-0.96,0l0,9.192l0.96,0l0,-3.624c0.54,-0.792 1.2,-1.548 2.232,-1.548c0.288,0 0.516,0.108 0.636,0.324c0.072,0.132 0.096,0.432 0.096,0.6l0,4.248l0.96,0l0,-4.272c0,-1.14 -0.456,-1.704 -1.584,-1.704Z"
              style="fill:#00030d;fill-rule:nonzero;"/>
        <path d="M102.533,305.433c0.204,-0.984 0.732,-1.572 1.776,-1.572c0.528,0 0.912,0.18 1.152,0.468c0.252,0.288 0.36,0.708 0.384,1.104l-3.312,0Zm4.272,0.468c0,-1.284 -0.564,-2.82 -2.46,-2.82c-0.792,0 -1.392,0.216 -1.872,0.672c-0.588,0.552 -0.936,1.44 -0.936,2.496c0,1.836 1.164,2.952 2.94,2.952c0.672,0 1.428,-0.156 2.004,-0.492l-0.36,-0.744c-0.468,0.276 -1.068,0.444 -1.644,0.444c-1.104,0 -1.992,-0.624 -1.992,-2.196l4.296,0c0.012,-0.096 0.024,-0.192 0.024,-0.312Z"
              style="fill:#00030d;fill-rule:nonzero;"/>
        <path d="M112.097,307.929l0,-3.324c0,-0.888 -0.648,-1.524 -1.86,-1.524c-1.212,0 -2.088,0.444 -2.088,1.284c0,0.096 0.024,0.18 0.036,0.24l0.96,-0.144c-0.012,-0.048 -0.024,-0.108 -0.024,-0.156c0,-0.324 0.48,-0.432 0.984,-0.432c0.636,0 1.044,0.3 1.056,0.648l0,1.02l-2.148,0.324c-0.816,0.18 -1.344,0.816 -1.344,1.74c0,0.96 0.54,1.596 1.8,1.596c0.48,0 1.2,-0.156 1.788,-0.72l0.048,0c0.276,0.54 0.744,0.576 1.296,0.6l0,-0.852c-0.312,-0.024 -0.48,-0.156 -0.504,-0.3Zm-0.936,-0.276c-0.564,0.54 -1.236,0.756 -1.704,0.756c-0.54,0 -0.828,-0.384 -0.828,-0.888c0,-0.612 0.36,-0.828 0.672,-0.9l1.86,-0.276l0,1.308Z"
              style="fill:#00030d;fill-rule:nonzero;"/>
        <path d="M116.417,308.397c-0.66,0 -1.248,-0.24 -1.68,-0.768l0,-2.772c0.42,-0.612 1.08,-0.972 1.74,-0.972c1.188,0 1.74,0.696 1.74,2.052c0,1.548 -0.768,2.46 -1.8,2.46Zm0.06,-5.316c-0.78,0 -1.464,0.384 -1.836,0.9l-0.048,0l-0.108,-0.756l-0.708,0l0,9.036l0.96,0l0,-3.576l0.048,0c0.372,0.3 0.996,0.516 1.632,0.516c1.536,0 2.784,-1.224 2.784,-3.264c0,-1.944 -1.02,-2.856 -2.724,-2.856Z"
              style="fill:#00030d;fill-rule:nonzero;"/>
        <path d="M124.709,307.521c-0.384,0.516 -1.032,0.876 -1.692,0.876c-1.092,0 -1.788,-0.72 -1.788,-2.124c0,-1.548 0.792,-2.388 1.764,-2.388c0.756,0 1.344,0.24 1.716,0.768l0,2.868Zm0,-3.936l-0.048,0c-0.336,-0.3 -1.02,-0.504 -1.668,-0.504c-1.452,0 -2.748,1.14 -2.748,3.192c0,1.968 1.176,2.928 2.772,2.928c0.78,0 1.548,-0.444 1.8,-0.816l0.048,0l0.096,0.672l0.708,0l0,-9.192l-0.96,0l0,3.72Z"
              style="fill:#00030d;fill-rule:nonzero;"/>
        <path d="M129.029,309.201c1.044,0 1.704,-0.6 2.208,-1.236l0.048,0l0.156,1.092l0.708,0l0,-5.832l-0.96,0l0,3.636c-0.336,0.648 -1.32,1.536 -2.052,1.536c-0.54,0 -0.828,-0.456 -0.828,-1.032l0,-4.14l-0.96,0l0,4.164c0,0.6 0.144,1.008 0.408,1.332c0.276,0.324 0.732,0.48 1.272,0.48Z"
              style="fill:#00030d;fill-rule:nonzero;"/>
        <path d="M140.429,303.081c-0.792,0 -1.512,0.42 -2.124,1.224l-0.048,0c-0.168,-0.804 -0.468,-1.224 -1.452,-1.224c-0.768,0 -1.452,0.444 -2.064,1.224l-0.048,0l-0.156,-1.08l-0.708,0l0,5.832l0.96,0l0,-3.624c0.552,-0.936 1.368,-1.548 1.86,-1.548c0.348,0 0.576,0.084 0.696,0.288c0.084,0.144 0.108,0.456 0.108,0.636l0,4.248l0.96,0l0,-3.624c0.564,-1.068 1.32,-1.548 1.86,-1.548c0.336,0 0.588,0.072 0.696,0.288c0.084,0.144 0.108,0.456 0.108,0.636l0,4.248l0.96,0l0,-4.272c0,-1.14 -0.444,-1.704 -1.608,-1.704Z"
              style="fill:#00030d;fill-rule:nonzero;"/>
        <path d="M146.357,308.397c-0.66,0 -1.248,-0.24 -1.68,-0.768l0,-2.772c0.42,-0.612 1.08,-0.972 1.74,-0.972c1.188,0 1.74,0.696 1.74,2.052c0,1.548 -0.768,2.46 -1.8,2.46Zm0.06,-5.316c-0.78,0 -1.464,0.384 -1.836,0.9l-0.048,0l-0.108,-0.756l-0.708,0l0,9.036l0.96,0l0,-3.576l0.048,0c0.372,0.3 0.996,0.516 1.632,0.516c1.536,0 2.784,-1.224 2.784,-3.264c0,-1.944 -1.02,-2.856 -2.724,-2.856Z"
              style="fill:#00030d;fill-rule:nonzero;"/>
        <path d="M155.729,307.653c-0.564,0.528 -1.236,0.756 -1.704,0.756c-0.54,0 -0.828,-0.384 -0.828,-0.888c0,-0.612 0.348,-0.852 0.66,-0.9l1.872,-0.288l0,1.32Zm-1.116,-6.6c-2.508,0 -4.452,1.944 -4.452,4.476c0,0.216 0.048,0.636 0.084,0.852l0.756,-0.108c-0.036,-0.18 -0.06,-0.564 -0.06,-0.744c0,-2.04 1.572,-3.72 3.672,-3.72c2.316,0 3.708,1.368 3.708,3.732c0,2.328 -0.708,3.108 -1.26,3.108c-0.168,0 -0.408,-0.204 -0.408,-0.528l0,-3.372c0,-0.888 -0.636,-1.536 -1.848,-1.536c-1.212,0 -2.088,0.456 -2.088,1.296c0,0.096 0.012,0.18 0.036,0.24l0.948,-0.144c-0.012,-0.048 -0.012,-0.108 -0.012,-0.156c0,-0.324 0.48,-0.444 0.984,-0.444c0.636,0 1.056,0.312 1.056,0.66l0,0.876l-2.148,0.324c-0.828,0.12 -1.332,0.816 -1.332,1.74c0,0.948 0.516,1.596 1.788,1.596c0.48,0 1.248,-0.144 1.812,-0.72l0.048,0c0.156,0.492 0.588,0.9 1.056,0.9c1.428,0 2.136,-1.5 2.136,-3.84c0,-2.832 -1.752,-4.488 -4.476,-4.488Z"
              style="fill:#00030d;fill-rule:nonzero;"/>
        <path d="M161.129,302.265c0.36,0 0.648,-0.288 0.648,-0.648c0,-0.36 -0.288,-0.648 -0.648,-0.648c-0.36,0 -0.648,0.288 -0.648,0.648c0,0.36 0.288,0.648 0.648,0.648Zm0.48,6.792l0,-5.832l-0.96,0l0,5.832l0.96,0Z"
              style="fill:#00030d;fill-rule:nonzero;"/>
        <path d="M167.477,307.941c-0.396,0.228 -0.888,0.456 -1.548,0.456c-1.176,0 -1.956,-0.744 -1.956,-2.244c0,-1.56 0.804,-2.268 2.112,-2.268c0.48,0 0.996,0.156 1.296,0.3l0.276,-0.78c-0.456,-0.192 -0.948,-0.324 -1.572,-0.324c-1.656,0 -3.096,1.008 -3.096,3.072c0,2.052 1.26,3.048 2.94,3.048c0.78,0 1.404,-0.204 1.908,-0.528l-0.36,-0.732Z"
              style="fill:#00030d;fill-rule:nonzero;"/>
        <rect x="169.097"
              y="299.865"
              width="0.96"
              height="9.192"
              style="fill:#00030d;fill-rule:nonzero;"/>
        <path d="M174.389,308.397c-1.14,0 -1.968,-0.744 -1.968,-2.256c0,-1.524 0.72,-2.256 1.98,-2.256c1.14,0 1.956,0.732 1.956,2.256c0,1.5 -0.708,2.256 -1.968,2.256Zm0.012,-5.316c-1.584,0 -2.964,1.008 -2.964,3.06c0,2.04 1.284,3.06 2.952,3.06c1.572,0 2.952,-1.02 2.952,-3.06c0,-2.052 -1.284,-3.06 -2.94,-3.06Z"
              style="fill:#00030d;fill-rule:nonzero;"/>
        <path d="M180.341,309.201c1.044,0 1.704,-0.6 2.208,-1.236l0.048,0l0.156,1.092l0.708,0l0,-5.832l-0.96,0l0,3.636c-0.336,0.648 -1.32,1.536 -2.052,1.536c-0.54,0 -0.828,-0.456 -0.828,-1.032l0,-4.14l-0.96,0l0,4.164c0,0.6 0.144,1.008 0.408,1.332c0.276,0.324 0.732,0.48 1.272,0.48Z"
              style="fill:#00030d;fill-rule:nonzero;"/>
        <path d="M189.245,307.521c-0.384,0.516 -1.032,0.876 -1.692,0.876c-1.092,0 -1.788,-0.72 -1.788,-2.124c0,-1.548 0.792,-2.388 1.764,-2.388c0.756,0 1.344,0.24 1.716,0.768l0,2.868Zm0,-3.936l-0.048,0c-0.336,-0.3 -1.02,-0.504 -1.668,-0.504c-1.452,0 -2.748,1.14 -2.748,3.192c0,1.968 1.176,2.928 2.772,2.928c0.78,0 1.548,-0.444 1.8,-0.816l0.048,0l0.096,0.672l0.708,0l0,-9.192l-0.96,0l0,3.72Z"
              style="fill:#00030d;fill-rule:nonzero;"/>
        <path d="M192.401,307.809c-0.384,0 -0.696,0.312 -0.696,0.696c0,0.384 0.312,0.696 0.696,0.696c0.384,0 0.696,-0.312 0.696,-0.696c0,-0.384 -0.312,-0.696 -0.696,-0.696Z"
              style="fill:#00030d;fill-rule:nonzero;"/>
        <path d="M198.725,307.941c-0.396,0.228 -0.888,0.456 -1.548,0.456c-1.176,0 -1.956,-0.744 -1.956,-2.244c0,-1.56 0.804,-2.268 2.112,-2.268c0.48,0 0.996,0.156 1.296,0.3l0.276,-0.78c-0.456,-0.192 -0.948,-0.324 -1.572,-0.324c-1.656,0 -3.096,1.008 -3.096,3.072c0,2.052 1.26,3.048 2.94,3.048c0.78,0 1.404,-0.204 1.908,-0.528l-0.36,-0.732Z"
              style="fill:#00030d;fill-rule:nonzero;"/>
        <path d="M202.805,308.397c-1.14,0 -1.968,-0.744 -1.968,-2.256c0,-1.524 0.72,-2.256 1.98,-2.256c1.14,0 1.956,0.732 1.956,2.256c0,1.5 -0.708,2.256 -1.968,2.256Zm0.012,-5.316c-1.584,0 -2.964,1.008 -2.964,3.06c0,2.04 1.284,3.06 2.952,3.06c1.572,0 2.952,-1.02 2.952,-3.06c0,-2.052 -1.284,-3.06 -2.94,-3.06Z"
              style="fill:#00030d;fill-rule:nonzero;"/>
        <path d="M213.677,303.081c-0.792,0 -1.512,0.42 -2.124,1.224l-0.048,0c-0.168,-0.804 -0.468,-1.224 -1.452,-1.224c-0.768,0 -1.452,0.444 -2.064,1.224l-0.048,0l-0.156,-1.08l-0.708,0l0,5.832l0.96,0l0,-3.624c0.552,-0.936 1.368,-1.548 1.86,-1.548c0.348,0 0.576,0.084 0.696,0.288c0.084,0.144 0.108,0.456 0.108,0.636l0,4.248l0.96,0l0,-3.624c0.564,-1.068 1.32,-1.548 1.86,-1.548c0.336,0 0.588,0.072 0.696,0.288c0.084,0.144 0.108,0.456 0.108,0.636l0,4.248l0.96,0l0,-4.272c0,-1.14 -0.444,-1.704 -1.608,-1.704Z"
              style="fill:#00030d;fill-rule:nonzero;"/>
        <path d="M77.477,320.921c-0.6,0 -1.056,-0.24 -1.284,-0.588c-0.18,-0.264 -0.252,-0.6 -0.252,-0.96c0,-0.876 0.528,-1.512 1.536,-1.512c1.02,0 1.512,0.708 1.512,1.548c0,0.768 -0.576,1.512 -1.512,1.512Zm0.516,2.58c1.056,0.144 1.356,0.504 1.356,1.092c0,0.648 -0.528,1.032 -1.764,1.032c-1.344,0 -1.92,-0.552 -1.92,-1.116c0,-0.648 0.516,-1.02 1.008,-1.188l1.32,0.18Zm2.22,-5.868c0.156,0 0.288,0.012 0.384,0.036l0.156,-0.756c-0.132,-0.036 -0.3,-0.06 -0.504,-0.06c-0.492,0 -0.996,0.096 -1.5,0.528c-0.348,-0.192 -0.792,-0.3 -1.272,-0.3c-1.272,0 -2.46,0.78 -2.46,2.292c0,0.924 0.432,1.596 1.056,1.968c-0.06,0.396 -0.192,1.272 -0.252,1.584c-0.504,0.132 -1.092,0.768 -1.092,1.608c0,1.188 1.14,1.872 2.88,1.872c1.56,0 2.664,-0.624 2.664,-1.776c0,-1.104 -0.636,-1.68 -2.1,-1.872l-1.452,-0.192l0.144,-0.972c0.144,0.036 0.396,0.06 0.6,0.06c1.452,0 2.46,-0.924 2.46,-2.244c0,-0.576 -0.216,-1.116 -0.564,-1.524l0,-0.024c0.24,-0.168 0.66,-0.228 0.852,-0.228Z"
              style="fill:#00030d;fill-rule:nonzero;"/>
        <path d="M82.145,316.265c0.36,0 0.648,-0.288 0.648,-0.648c0,-0.36 -0.288,-0.648 -0.648,-0.648c-0.36,0 -0.648,0.288 -0.648,0.648c0,0.36 0.288,0.648 0.648,0.648Zm0.48,6.792l0,-5.832l-0.96,0l0,5.832l0.96,0Z"
              style="fill:#00030d;fill-rule:nonzero;"/>
        <path d="M87.965,322.601l-0.348,-0.72c-0.36,0.24 -0.864,0.492 -1.32,0.492c-0.336,0 -0.444,-0.336 -0.444,-0.768l0,-3.576l1.812,0l0,-0.804l-1.812,0l0,-1.896l-0.96,0l0,1.884l-1.188,0.18l0,0.636l1.188,0l0,3.54c0,1.116 0.372,1.632 1.284,1.632c0.744,0 1.404,-0.336 1.788,-0.6Z"
              style="fill:#00030d;fill-rule:nonzero;"/>
        <path d="M92.225,317.081c-1.032,0 -1.824,0.516 -2.292,1.152l-0.048,0l0,-4.368l-0.96,0l0,9.192l0.96,0l0,-3.624c0.54,-0.792 1.2,-1.548 2.232,-1.548c0.288,0 0.516,0.108 0.636,0.324c0.072,0.132 0.096,0.432 0.096,0.6l0,4.248l0.96,0l0,-4.272c0,-1.14 -0.456,-1.704 -1.584,-1.704Z"
              style="fill:#00030d;fill-rule:nonzero;"/>
        <path d="M97.169,323.201c1.044,0 1.704,-0.6 2.208,-1.236l0.048,0l0.156,1.092l0.708,0l0,-5.832l-0.96,0l0,3.636c-0.336,0.648 -1.32,1.536 -2.052,1.536c-0.54,0 -0.828,-0.456 -0.828,-1.032l0,-4.14l-0.96,0l0,4.164c0,0.6 0.144,1.008 0.408,1.332c0.276,0.324 0.732,0.48 1.272,0.48Z"
              style="fill:#00030d;fill-rule:nonzero;"/>
        <path d="M104.177,322.397c-0.348,0 -0.948,-0.132 -1.248,-0.288l0,-3.408c0.324,-0.552 1.056,-0.816 1.668,-0.816c1.176,0 1.764,0.756 1.764,2.136c0,1.5 -0.9,2.376 -2.184,2.376Zm0.42,-5.316c-0.552,0 -1.176,0.156 -1.62,0.552l-0.048,0l0,-3.768l-0.96,0l0,8.784c0.444,0.276 1.416,0.552 2.208,0.552c1.608,0 3.168,-1.092 3.168,-3.18c0,-2.004 -1.092,-2.94 -2.748,-2.94Z"
              style="fill:#00030d;fill-rule:nonzero;"/>
        <path d="M109.073,321.809c-0.384,0 -0.696,0.312 -0.696,0.696c0,0.384 0.312,0.696 0.696,0.696c0.384,0 0.696,-0.312 0.696,-0.696c0,-0.384 -0.312,-0.696 -0.696,-0.696Z"
              style="fill:#00030d;fill-rule:nonzero;"/>
        <path d="M115.397,321.941c-0.396,0.228 -0.888,0.456 -1.548,0.456c-1.176,0 -1.956,-0.744 -1.956,-2.244c0,-1.56 0.804,-2.268 2.112,-2.268c0.48,0 0.996,0.156 1.296,0.3l0.276,-0.78c-0.456,-0.192 -0.948,-0.324 -1.572,-0.324c-1.656,0 -3.096,1.008 -3.096,3.072c0,2.052 1.26,3.048 2.94,3.048c0.78,0 1.404,-0.204 1.908,-0.528l-0.36,-0.732Z"
              style="fill:#00030d;fill-rule:nonzero;"/>
        <path d="M119.477,322.397c-1.14,0 -1.968,-0.744 -1.968,-2.256c0,-1.524 0.72,-2.256 1.98,-2.256c1.14,0 1.956,0.732 1.956,2.256c0,1.5 -0.708,2.256 -1.968,2.256Zm0.012,-5.316c-1.584,0 -2.964,1.008 -2.964,3.06c0,2.04 1.284,3.06 2.952,3.06c1.572,0 2.952,-1.02 2.952,-3.06c0,-2.052 -1.284,-3.06 -2.94,-3.06Z"
              style="fill:#00030d;fill-rule:nonzero;"/>
        <path d="M130.349,317.081c-0.792,0 -1.512,0.42 -2.124,1.224l-0.048,0c-0.168,-0.804 -0.468,-1.224 -1.452,-1.224c-0.768,0 -1.452,0.444 -2.064,1.224l-0.048,0l-0.156,-1.08l-0.708,0l0,5.832l0.96,0l0,-3.624c0.552,-0.936 1.368,-1.548 1.86,-1.548c0.348,0 0.576,0.084 0.696,0.288c0.084,0.144 0.108,0.456 0.108,0.636l0,4.248l0.96,0l0,-3.624c0.564,-1.068 1.32,-1.548 1.86,-1.548c0.336,0 0.588,0.072 0.696,0.288c0.084,0.144 0.108,0.456 0.108,0.636l0,4.248l0.96,0l0,-4.272c0,-1.14 -0.444,-1.704 -1.608,-1.704Z"
              style="fill:#00030d;fill-rule:nonzero;"/>
        <path d="M133.793,323.057l2.676,-8.556l-0.78,0l-2.676,8.556l0.78,0Z"
              style="fill:#00030d;fill-rule:nonzero;"/>
        <rect x="137.609"
              y="313.865"
              width="0.96"
              height="9.192"
              style="fill:#00030d;fill-rule:nonzero;"/>
        <path d="M140.849,316.265c0.36,0 0.648,-0.288 0.648,-0.648c0,-0.36 -0.288,-0.648 -0.648,-0.648c-0.36,0 -0.648,0.288 -0.648,0.648c0,0.36 0.288,0.648 0.648,0.648Zm0.48,6.792l0,-5.832l-0.96,0l0,5.832l0.96,0Z"
              style="fill:#00030d;fill-rule:nonzero;"/>
        <path d="M146.369,317.081c-1.092,0 -1.86,0.564 -2.388,1.236l-0.048,0l-0.156,-1.092l-0.708,0l0,5.832l0.96,0l0,-3.624c0.54,-0.828 1.224,-1.548 2.232,-1.548c0.288,0 0.516,0.108 0.636,0.324c0.072,0.132 0.096,0.432 0.096,0.6l0,4.248l0.96,0l0,-4.272c0,-1.14 -0.456,-1.704 -1.584,-1.704Z"
              style="fill:#00030d;fill-rule:nonzero;"/>
        <path d="M153.737,321.521c-0.384,0.516 -1.032,0.876 -1.692,0.876c-1.092,0 -1.788,-0.72 -1.788,-2.124c0,-1.548 0.792,-2.388 1.764,-2.388c0.756,0 1.344,0.24 1.716,0.768l0,2.868Zm0,-3.936l-0.048,0c-0.336,-0.3 -1.02,-0.504 -1.668,-0.504c-1.452,0 -2.748,1.14 -2.748,3.192c0,1.968 1.176,2.928 2.772,2.928c0.78,0 1.548,-0.444 1.8,-0.816l0.048,0l0.096,0.672l0.708,0l0,-9.192l-0.96,0l0,3.72Z"
              style="fill:#00030d;fill-rule:nonzero;"/>
        <path d="M157.013,319.433c0.204,-0.984 0.732,-1.572 1.776,-1.572c0.528,0 0.912,0.18 1.152,0.468c0.252,0.288 0.36,0.708 0.384,1.104l-3.312,0Zm4.272,0.468c0,-1.284 -0.564,-2.82 -2.46,-2.82c-0.792,0 -1.392,0.216 -1.872,0.672c-0.588,0.552 -0.936,1.44 -0.936,2.496c0,1.836 1.164,2.952 2.94,2.952c0.672,0 1.428,-0.156 2.004,-0.492l-0.36,-0.744c-0.468,0.276 -1.068,0.444 -1.644,0.444c-1.104,0 -1.992,-0.624 -1.992,-2.196l4.296,0c0.012,-0.096 0.024,-0.192 0.024,-0.312Z"
              style="fill:#00030d;fill-rule:nonzero;"/>
        <path d="M165.869,317.081c-1.092,0 -1.86,0.564 -2.388,1.236l-0.048,0l-0.156,-1.092l-0.708,0l0,5.832l0.96,0l0,-3.624c0.54,-0.828 1.224,-1.548 2.232,-1.548c0.288,0 0.516,0.108 0.636,0.324c0.072,0.132 0.096,0.432 0.096,0.6l0,4.248l0.96,0l0,-4.272c0,-1.14 -0.456,-1.704 -1.584,-1.704Z"
              style="fill:#00030d;fill-rule:nonzero;"/>
        <path d="M171.341,322.397c-0.348,0 -0.948,-0.132 -1.248,-0.288l0,-3.408c0.324,-0.552 1.056,-0.816 1.668,-0.816c1.176,0 1.764,0.756 1.764,2.136c0,1.5 -0.9,2.376 -2.184,2.376Zm0.42,-5.316c-0.552,0 -1.176,0.156 -1.62,0.552l-0.048,0l0,-3.768l-0.96,0l0,8.784c0.444,0.276 1.416,0.552 2.208,0.552c1.608,0 3.168,-1.092 3.168,-3.18c0,-2.004 -1.092,-2.94 -2.748,-2.94Z"
              style="fill:#00030d;fill-rule:nonzero;"/>
        <path d="M176.549,319.433c0.204,-0.984 0.732,-1.572 1.776,-1.572c0.528,0 0.912,0.18 1.152,0.468c0.252,0.288 0.36,0.708 0.384,1.104l-3.312,0Zm4.272,0.468c0,-1.284 -0.564,-2.82 -2.46,-2.82c-0.792,0 -1.392,0.216 -1.872,0.672c-0.588,0.552 -0.936,1.44 -0.936,2.496c0,1.836 1.164,2.952 2.94,2.952c0.672,0 1.428,-0.156 2.004,-0.492l-0.36,-0.744c-0.468,0.276 -1.068,0.444 -1.644,0.444c-1.104,0 -1.992,-0.624 -1.992,-2.196l4.296,0c0.012,-0.096 0.024,-0.192 0.024,-0.312Z"
              style="fill:#00030d;fill-rule:nonzero;"/>
        <path d="M184.769,317.081c-0.588,0 -1.056,0.18 -1.752,1.224l-0.048,0l-0.156,-1.08l-0.708,0l0,5.832l0.96,0l0,-3.504c0.648,-1.14 1.02,-1.644 1.536,-1.644c0.276,0 0.528,0.18 0.66,0.264l0.444,-0.804c-0.204,-0.12 -0.468,-0.288 -0.936,-0.288Z"
              style="fill:#00030d;fill-rule:nonzero;"/>
        <path d="M188.657,320.921c-0.6,0 -1.056,-0.24 -1.284,-0.588c-0.18,-0.264 -0.252,-0.6 -0.252,-0.96c0,-0.876 0.528,-1.512 1.536,-1.512c1.02,0 1.512,0.708 1.512,1.548c0,0.768 -0.576,1.512 -1.512,1.512Zm0.516,2.58c1.056,0.144 1.356,0.504 1.356,1.092c0,0.648 -0.528,1.032 -1.764,1.032c-1.344,0 -1.92,-0.552 -1.92,-1.116c0,-0.648 0.516,-1.02 1.008,-1.188l1.32,0.18Zm2.22,-5.868c0.156,0 0.288,0.012 0.384,0.036l0.156,-0.756c-0.132,-0.036 -0.3,-0.06 -0.504,-0.06c-0.492,0 -0.996,0.096 -1.5,0.528c-0.348,-0.192 -0.792,-0.3 -1.272,-0.3c-1.272,0 -2.46,0.78 -2.46,2.292c0,0.924 0.432,1.596 1.056,1.968c-0.06,0.396 -0.192,1.272 -0.252,1.584c-0.504,0.132 -1.092,0.768 -1.092,1.608c0,1.188 1.14,1.872 2.88,1.872c1.56,0 2.664,-0.624 2.664,-1.776c0,-1.104 -0.636,-1.68 -2.1,-1.872l-1.452,-0.192l0.144,-0.972c0.144,0.036 0.396,0.06 0.6,0.06c1.452,0 2.46,-0.924 2.46,-2.244c0,-0.576 -0.216,-1.116 -0.564,-1.524l0,-0.024c0.24,-0.168 0.66,-0.228 0.852,-0.228Z"
              style="fill:#00030d;fill-rule:nonzero;"/>
        <path d="M195.449,317.081c-0.588,0 -1.056,0.18 -1.752,1.224l-0.048,0l-0.156,-1.08l-0.708,0l0,5.832l0.96,0l0,-3.504c0.648,-1.14 1.02,-1.644 1.536,-1.644c0.276,0 0.528,0.18 0.66,0.264l0.444,-0.804c-0.204,-0.12 -0.468,-0.288 -0.936,-0.288Z"
              style="fill:#00030d;fill-rule:nonzero;"/>
        <path d="M197.741,319.433c0.204,-0.984 0.732,-1.572 1.776,-1.572c0.528,0 0.912,0.18 1.152,0.468c0.252,0.288 0.36,0.708 0.384,1.104l-3.312,0Zm4.272,0.468c0,-1.284 -0.564,-2.82 -2.46,-2.82c-0.792,0 -1.392,0.216 -1.872,0.672c-0.588,0.552 -0.936,1.44 -0.936,2.496c0,1.836 1.164,2.952 2.94,2.952c0.672,0 1.428,-0.156 2.004,-0.492l-0.36,-0.744c-0.468,0.276 -1.068,0.444 -1.644,0.444c-1.104,0 -1.992,-0.624 -1.992,-2.196l4.296,0c0.012,-0.096 0.024,-0.192 0.024,-0.312Z"
              style="fill:#00030d;fill-rule:nonzero;"/>
        <path d="M205.541,319.589c-0.876,-0.3 -1.464,-0.408 -1.464,-0.912c0,-0.648 0.492,-0.792 1.212,-0.792c0.6,0 1.032,0.108 1.512,0.324l0.264,-0.756c-0.48,-0.24 -1.044,-0.372 -1.752,-0.372c-1.44,0 -2.196,0.672 -2.196,1.62c0,0.852 0.552,1.176 1.74,1.584c1.02,0.348 1.404,0.564 1.404,1.248c0,0.636 -0.444,0.864 -1.392,0.864c-0.636,0 -1.248,-0.264 -1.632,-0.468l-0.312,0.756c0.456,0.3 1.284,0.516 1.908,0.516c1.596,0 2.388,-0.612 2.388,-1.704c0,-0.912 -0.528,-1.5 -1.68,-1.908Z"
              style="fill:#00030d;fill-rule:nonzero;"/>
        <path d="M209.225,319.433c0.204,-0.984 0.732,-1.572 1.776,-1.572c0.528,0 0.912,0.18 1.152,0.468c0.252,0.288 0.36,0.708 0.384,1.104l-3.312,0Zm4.272,0.468c0,-1.284 -0.564,-2.82 -2.46,-2.82c-0.792,0 -1.392,0.216 -1.872,0.672c-0.588,0.552 -0.936,1.44 -0.936,2.496c0,1.836 1.164,2.952 2.94,2.952c0.672,0 1.428,-0.156 2.004,-0.492l-0.36,-0.744c-0.468,0.276 -1.068,0.444 -1.644,0.444c-1.104,0 -1.992,-0.624 -1.992,-2.196l4.296,0c0.012,-0.096 0.024,-0.192 0.024,-0.312Z"
              style="fill:#00030d;fill-rule:nonzero;"/>
        <path d="M218.789,321.929l0,-3.324c0,-0.888 -0.648,-1.524 -1.86,-1.524c-1.212,0 -2.088,0.444 -2.088,1.284c0,0.096 0.024,0.18 0.036,0.24l0.96,-0.144c-0.012,-0.048 -0.024,-0.108 -0.024,-0.156c0,-0.324 0.48,-0.432 0.984,-0.432c0.636,0 1.044,0.3 1.056,0.648l0,1.02l-2.148,0.324c-0.816,0.18 -1.344,0.816 -1.344,1.74c0,0.96 0.54,1.596 1.8,1.596c0.48,0 1.2,-0.156 1.788,-0.72l0.048,0c0.276,0.54 0.744,0.576 1.296,0.6l0,-0.852c-0.312,-0.024 -0.48,-0.156 -0.504,-0.3Zm-0.936,-0.276c-0.564,0.54 -1.236,0.756 -1.704,0.756c-0.54,0 -0.828,-0.384 -0.828,-0.888c0,-0.612 0.36,-0.828 0.672,-0.9l1.86,-0.276l0,1.308Z"
              style="fill:#00030d;fill-rule:nonzero;"/>
        <path d="M223.133,317.081c-0.588,0 -1.056,0.18 -1.752,1.224l-0.048,0l-0.156,-1.08l-0.708,0l0,5.832l0.96,0l0,-3.504c0.648,-1.14 1.02,-1.644 1.536,-1.644c0.276,0 0.528,0.18 0.66,0.264l0.444,-0.804c-0.204,-0.12 -0.468,-0.288 -0.936,-0.288Z"
              style="fill:#00030d;fill-rule:nonzero;"/>
        <path d="M228.917,321.941c-0.396,0.228 -0.888,0.456 -1.548,0.456c-1.176,0 -1.956,-0.744 -1.956,-2.244c0,-1.56 0.804,-2.268 2.112,-2.268c0.48,0 0.996,0.156 1.296,0.3l0.276,-0.78c-0.456,-0.192 -0.948,-0.324 -1.572,-0.324c-1.656,0 -3.096,1.008 -3.096,3.072c0,2.052 1.26,3.048 2.94,3.048c0.78,0 1.404,-0.204 1.908,-0.528l-0.36,-0.732Z"
              style="fill:#00030d;fill-rule:nonzero;"/>
        <path d="M233.777,317.081c-1.032,0 -1.824,0.516 -2.292,1.152l-0.048,0l0,-4.368l-0.96,0l0,9.192l0.96,0l0,-3.624c0.54,-0.792 1.2,-1.548 2.232,-1.548c0.288,0 0.516,0.108 0.636,0.324c0.072,0.132 0.096,0.432 0.096,0.6l0,4.248l0.96,0l0,-4.272c0,-1.14 -0.456,-1.704 -1.584,-1.704Z"
              style="fill:#00030d;fill-rule:nonzero;"/>
    </g>
    <g transform="matrix(1.00969,0,0,1,129.317,250.691)">
        <path d="M-38.528,-6.323c-0.205,0.036 -0.4,0.11 -0.585,0.222c-0.184,0.112 -0.343,0.309 -0.475,0.591c-0.269,0.611 -0.547,1.248 -0.834,1.911c-0.287,0.663 -0.585,1.359 -0.895,2.088c-0.092,0.21 -0.188,0.458 -0.291,0.745c-0.102,0.287 -0.197,0.563 -0.284,0.828l-0.533,0c-0.433,-1.071 -0.831,-2.048 -1.196,-2.93c-0.365,-0.882 -0.743,-1.785 -1.135,-2.71c-0.091,-0.21 -0.238,-0.373 -0.441,-0.489c-0.203,-0.116 -0.406,-0.19 -0.612,-0.222l0,-0.451l3.118,0l0,0.478c-0.137,0.005 -0.308,0.033 -0.513,0.086c-0.205,0.052 -0.308,0.124 -0.308,0.215c0,0.014 0.012,0.049 0.034,0.106c0.023,0.057 0.046,0.122 0.069,0.195c0.187,0.465 0.451,1.114 0.793,1.948c0.342,0.834 0.62,1.506 0.834,2.017c0.164,-0.392 0.37,-0.88 0.618,-1.463c0.249,-0.584 0.517,-1.235 0.804,-1.955c0.045,-0.123 0.089,-0.238 0.13,-0.345c0.041,-0.108 0.061,-0.216 0.061,-0.325c0,-0.078 -0.038,-0.147 -0.113,-0.209c-0.075,-0.061 -0.165,-0.115 -0.27,-0.16c-0.105,-0.046 -0.207,-0.08 -0.307,-0.103c-0.101,-0.023 -0.183,-0.039 -0.246,-0.048l0,-0.437l2.577,0l0,0.417Z"
              style="fill-rule:nonzero;"/>
        <path d="M-31.706,-6.385c0.292,0.351 0.509,0.762 0.653,1.234c0.143,0.472 0.215,0.965 0.215,1.48c0,0.62 -0.089,1.175 -0.266,1.665c-0.178,0.49 -0.422,0.896 -0.732,1.22c-0.319,0.333 -0.697,0.583 -1.135,0.752c-0.437,0.168 -0.925,0.253 -1.463,0.253c-0.587,0 -1.112,-0.098 -1.572,-0.294c-0.46,-0.196 -0.834,-0.465 -1.121,-0.807c-0.301,-0.355 -0.525,-0.771 -0.673,-1.247c-0.148,-0.477 -0.222,-0.99 -0.222,-1.542c0,-0.542 0.071,-1.041 0.215,-1.497c0.143,-0.456 0.368,-0.868 0.673,-1.237c0.292,-0.356 0.668,-0.636 1.128,-0.841c0.46,-0.205 0.987,-0.308 1.579,-0.308c0.625,0 1.16,0.105 1.607,0.315c0.446,0.209 0.818,0.494 1.114,0.854Zm-0.643,2.714c0,-1.085 -0.185,-1.925 -0.557,-2.522c-0.371,-0.597 -0.876,-0.896 -1.514,-0.896c-0.647,0 -1.157,0.299 -1.531,0.896c-0.374,0.597 -0.561,1.437 -0.561,2.522c0,1.03 0.179,1.858 0.537,2.485c0.358,0.627 0.872,0.94 1.541,0.94c0.67,0 1.185,-0.313 1.545,-0.94c0.36,-0.627 0.54,-1.455 0.54,-2.485Z"
              style="fill-rule:nonzero;"/>
        <path d="M-27.297,-0.786c0,0.255 -0.092,0.473 -0.277,0.653c-0.184,0.18 -0.404,0.27 -0.659,0.27c-0.256,0 -0.475,-0.09 -0.66,-0.27c-0.185,-0.18 -0.277,-0.398 -0.277,-0.653c0,-0.255 0.092,-0.475 0.277,-0.66c0.185,-0.184 0.404,-0.277 0.66,-0.277c0.255,0 0.475,0.093 0.659,0.277c0.185,0.185 0.277,0.405 0.277,0.66Z"
              style="fill-rule:nonzero;"/>
        <path d="M-19.012,-3.151c0,0.474 -0.085,0.918 -0.256,1.333c-0.171,0.414 -0.4,0.768 -0.687,1.059c-0.333,0.333 -0.701,0.579 -1.104,0.738c-0.403,0.16 -0.824,0.24 -1.261,0.24c-0.506,0 -0.964,-0.094 -1.374,-0.281c-0.41,-0.186 -0.759,-0.451 -1.046,-0.792c-0.292,-0.347 -0.517,-0.771 -0.677,-1.272c-0.159,-0.501 -0.239,-1.064 -0.239,-1.688c0,-1.627 0.484,-2.999 1.452,-4.116c0.969,-1.116 2.267,-1.786 3.893,-2.009l0.124,0.615l-0.616,0.109c-0.989,0.319 -1.753,0.816 -2.293,1.49c-0.54,0.675 -0.89,1.493 -1.049,2.454c0.391,-0.341 0.779,-0.583 1.162,-0.724c0.382,-0.141 0.786,-0.212 1.21,-0.212c0.761,0 1.411,0.292 1.951,0.875c0.54,0.583 0.81,1.31 0.81,2.181Zm-1.483,0.184c0,-0.738 -0.17,-1.331 -0.509,-1.777c-0.34,-0.447 -0.794,-0.67 -1.364,-0.67c-0.342,0 -0.66,0.064 -0.954,0.191c-0.294,0.128 -0.577,0.342 -0.851,0.643c-0.004,0.055 -0.011,0.181 -0.02,0.379c-0.009,0.199 -0.014,0.355 -0.014,0.469c0,1.066 0.174,1.901 0.523,2.505c0.349,0.604 0.808,0.906 1.377,0.906c0.543,0 0.98,-0.236 1.313,-0.708c0.333,-0.471 0.499,-1.117 0.499,-1.938Z"
              style="fill-rule:nonzero;"/>
        <path d="M-15.601,-0.786c0,0.255 -0.092,0.473 -0.276,0.653c-0.185,0.18 -0.405,0.27 -0.66,0.27c-0.255,0 -0.475,-0.09 -0.66,-0.27c-0.184,-0.18 -0.277,-0.398 -0.277,-0.653c0,-0.255 0.093,-0.475 0.277,-0.66c0.185,-0.184 0.405,-0.277 0.66,-0.277c0.255,0 0.475,0.093 0.66,0.277c0.184,0.185 0.276,0.405 0.276,0.66Z"
              style="fill-rule:nonzero;"/>
        <path d="M-7.254,-0.615l-1.388,0l0,3.11l-1.312,0l0,-3.11l-4.375,0l0,-1.053l4.792,-5.845l0.895,0l0,6.002l1.388,0l0,0.896Zm-2.7,-0.896l0,-4.477l-3.691,4.477l3.691,0Z"
              style="fill-rule:nonzero;"/>
        <rect x="-1.184"
              y="-10.411"
              width="0.868"
              height="13.31"
              style="fill-rule:nonzero;"/>
        <path d="M12.584,-3.377c0,1.012 -0.319,1.862 -0.957,2.55c-0.638,0.688 -1.379,1.032 -2.222,1.032c-0.369,0 -0.732,-0.057 -1.09,-0.171c-0.358,-0.114 -0.694,-0.266 -1.008,-0.458l-0.506,0.786l-0.424,-0.095c0.023,-0.338 0.039,-0.743 0.048,-1.217c0.009,-0.474 0.013,-0.932 0.013,-1.374l0,-6.672c0,-0.155 -0.035,-0.31 -0.105,-0.465c-0.071,-0.155 -0.161,-0.267 -0.27,-0.335c-0.087,-0.059 -0.232,-0.104 -0.435,-0.133c-0.202,-0.03 -0.365,-0.049 -0.488,-0.058l0,-0.438l2.474,-0.157l0.096,0.103l0,4.443l0.048,0.014c0.282,-0.301 0.591,-0.527 0.926,-0.677c0.335,-0.151 0.664,-0.226 0.988,-0.226c0.829,0 1.522,0.328 2.078,0.985c0.556,0.656 0.834,1.51 0.834,2.563Zm-1.429,0.048c0,-0.337 -0.036,-0.681 -0.109,-1.032c-0.073,-0.351 -0.187,-0.657 -0.342,-0.916c-0.155,-0.265 -0.358,-0.479 -0.608,-0.643c-0.251,-0.164 -0.552,-0.246 -0.903,-0.246c-0.319,0 -0.598,0.063 -0.837,0.188c-0.239,0.125 -0.455,0.295 -0.646,0.509l0,3.924c0.027,0.109 0.081,0.237 0.161,0.383c0.079,0.146 0.188,0.285 0.324,0.417c0.137,0.127 0.292,0.231 0.465,0.311c0.173,0.08 0.385,0.12 0.636,0.12c0.556,0 1.005,-0.269 1.347,-0.807c0.341,-0.538 0.512,-1.274 0.512,-2.208Z"
              style="fill-rule:nonzero;"/>
        <path d="M19.57,-1.586c-0.282,0.538 -0.66,0.966 -1.134,1.285c-0.474,0.319 -1.019,0.479 -1.634,0.479c-0.543,0 -1.018,-0.096 -1.426,-0.287c-0.407,-0.192 -0.743,-0.452 -1.008,-0.78c-0.264,-0.328 -0.461,-0.711 -0.591,-1.148c-0.13,-0.438 -0.195,-0.9 -0.195,-1.388c0,-0.437 0.07,-0.867 0.209,-1.288c0.139,-0.422 0.342,-0.801 0.611,-1.139c0.26,-0.323 0.583,-0.584 0.968,-0.782c0.385,-0.199 0.817,-0.298 1.295,-0.298c0.492,0 0.914,0.078 1.265,0.233c0.351,0.155 0.635,0.367 0.854,0.636c0.21,0.255 0.366,0.556 0.468,0.902c0.103,0.346 0.154,0.722 0.154,1.128l0,0.451l-4.464,0c0,0.442 0.043,0.843 0.127,1.203c0.084,0.36 0.217,0.677 0.4,0.95c0.178,0.265 0.41,0.473 0.697,0.626c0.287,0.152 0.629,0.229 1.025,0.229c0.406,0 0.756,-0.095 1.05,-0.284c0.294,-0.189 0.577,-0.53 0.851,-1.022l0.478,0.294Zm-1.51,-2.57c0,-0.255 -0.022,-0.529 -0.065,-0.821c-0.044,-0.291 -0.113,-0.535 -0.209,-0.731c-0.105,-0.21 -0.248,-0.381 -0.431,-0.513c-0.182,-0.132 -0.417,-0.198 -0.704,-0.198c-0.478,0 -0.876,0.199 -1.192,0.598c-0.317,0.399 -0.489,0.954 -0.517,1.665l3.118,0Z"
              style="fill-rule:nonzero;"/>
        <path d="M24.513,-0.294c-0.297,0.123 -0.577,0.227 -0.841,0.311c-0.264,0.084 -0.588,0.127 -0.971,0.127c-0.565,0 -0.963,-0.143 -1.193,-0.428c-0.23,-0.285 -0.345,-0.687 -0.345,-1.206l0,-4.567l-1.217,0l0,-0.656l1.244,0l0,-2.099l1.245,0l0,2.099l1.934,0l0,0.656l-1.921,0l0,3.767c0,0.283 0.011,0.518 0.031,0.707c0.021,0.19 0.07,0.355 0.147,0.496c0.073,0.132 0.182,0.233 0.328,0.301c0.146,0.068 0.342,0.102 0.588,0.102c0.114,0 0.281,-0.01 0.502,-0.03c0.221,-0.021 0.378,-0.047 0.469,-0.079l0,0.499Z"
              style="fill-rule:nonzero;"/>
        <path d="M31.567,-0.123c-0.214,0.077 -0.402,0.14 -0.564,0.188c-0.161,0.048 -0.345,0.072 -0.55,0.072c-0.355,0 -0.639,-0.083 -0.851,-0.25c-0.212,-0.166 -0.347,-0.409 -0.407,-0.728l-0.041,0c-0.296,0.328 -0.614,0.579 -0.953,0.752c-0.34,0.173 -0.749,0.26 -1.227,0.26c-0.506,0 -0.922,-0.155 -1.248,-0.465c-0.326,-0.31 -0.489,-0.715 -0.489,-1.217c0,-0.26 0.037,-0.492 0.11,-0.697c0.073,-0.205 0.182,-0.39 0.328,-0.554c0.114,-0.136 0.264,-0.258 0.451,-0.365c0.187,-0.108 0.362,-0.193 0.526,-0.257c0.205,-0.077 0.621,-0.221 1.248,-0.43c0.627,-0.21 1.049,-0.374 1.268,-0.493l0,-0.676c0,-0.06 -0.013,-0.174 -0.038,-0.342c-0.025,-0.169 -0.078,-0.328 -0.16,-0.479c-0.091,-0.168 -0.22,-0.315 -0.386,-0.441c-0.167,-0.125 -0.403,-0.188 -0.708,-0.188c-0.21,0 -0.404,0.036 -0.584,0.106c-0.18,0.071 -0.307,0.145 -0.38,0.223c0,0.091 0.022,0.225 0.065,0.403c0.043,0.178 0.065,0.342 0.065,0.492c0,0.16 -0.072,0.305 -0.215,0.438c-0.144,0.132 -0.343,0.198 -0.598,0.198c-0.228,0 -0.396,-0.081 -0.503,-0.243c-0.107,-0.162 -0.161,-0.343 -0.161,-0.543c0,-0.21 0.075,-0.411 0.223,-0.602c0.148,-0.191 0.34,-0.362 0.577,-0.513c0.205,-0.127 0.454,-0.235 0.745,-0.324c0.292,-0.089 0.577,-0.134 0.855,-0.134c0.383,0 0.716,0.027 1.001,0.079c0.285,0.052 0.544,0.165 0.776,0.338c0.233,0.169 0.409,0.398 0.53,0.687c0.121,0.29 0.181,0.662 0.181,1.118c0,0.652 -0.007,1.229 -0.02,1.733c-0.014,0.504 -0.021,1.054 -0.021,1.651c0,0.178 0.031,0.319 0.092,0.424c0.062,0.104 0.157,0.193 0.284,0.266c0.068,0.041 0.177,0.064 0.325,0.069c0.148,0.004 0.299,0.006 0.454,0.006l0,0.438Zm-2.385,-3.609c-0.388,0.114 -0.727,0.225 -1.019,0.335c-0.292,0.109 -0.563,0.246 -0.813,0.41c-0.228,0.155 -0.408,0.338 -0.54,0.55c-0.133,0.212 -0.199,0.464 -0.199,0.755c0,0.379 0.099,0.657 0.298,0.834c0.198,0.178 0.45,0.267 0.755,0.267c0.324,0 0.608,-0.079 0.855,-0.236c0.246,-0.157 0.453,-0.343 0.622,-0.557l0.041,-2.358Z"
              style="fill-rule:nonzero;"/>
        <rect x="32.326"
              y="-4.252"
              width="4.074"
              height="1.073"
              style="fill-rule:nonzero;"/>
        <path d="M44.139,0l-6.406,0l0,-0.93c0.123,-0.141 0.294,-0.299 0.513,-0.475c0.219,-0.175 0.479,-0.366 0.779,-0.571c0.183,-0.123 0.401,-0.257 0.657,-0.403c0.255,-0.146 0.544,-0.305 0.868,-0.478c0.36,-0.192 0.637,-0.36 0.83,-0.506c0.194,-0.146 0.371,-0.326 0.53,-0.54c0.105,-0.142 0.189,-0.318 0.253,-0.53c0.064,-0.212 0.096,-0.514 0.096,-0.906c0,-0.57 -0.153,-0.988 -0.458,-1.254c-0.306,-0.267 -0.697,-0.4 -1.176,-0.4c-0.296,0 -0.576,0.058 -0.841,0.174c-0.264,0.116 -0.462,0.277 -0.595,0.482c0.032,0.146 0.072,0.319 0.12,0.52c0.048,0.2 0.072,0.396 0.072,0.588c0,0.173 -0.072,0.326 -0.215,0.461c-0.144,0.134 -0.357,0.202 -0.64,0.202c-0.227,0 -0.403,-0.079 -0.526,-0.236c-0.123,-0.157 -0.185,-0.368 -0.185,-0.633c0,-0.246 0.069,-0.493 0.206,-0.741c0.136,-0.249 0.332,-0.478 0.587,-0.687c0.251,-0.205 0.561,-0.372 0.93,-0.499c0.369,-0.128 0.768,-0.192 1.196,-0.192c0.935,0 1.676,0.209 2.225,0.626c0.55,0.417 0.824,0.974 0.824,1.671c0,0.333 -0.049,0.636 -0.147,0.909c-0.098,0.274 -0.256,0.515 -0.475,0.725c-0.241,0.232 -0.524,0.432 -0.848,0.598c-0.323,0.166 -0.818,0.398 -1.483,0.694c-0.396,0.178 -0.766,0.363 -1.107,0.557c-0.342,0.194 -0.622,0.382 -0.841,0.564l5.257,0l0,1.21Z"
              style="fill-rule:nonzero;"/>
    </g>
    <defs>
        <linearGradient id="_Linear1"
                        x1="0"
                        y1="0"
                        x2="1"
                        y2="0"
                        gradientUnits="userSpaceOnUse"
                        gradientTransform="matrix(206.856,0,0,206.856,26.4346,164.057)"><stop offset="0" style="stop-color:#1e61d4;stop-opacity:1"/><stop offset="1"
                                                                                                                                                          style="stop-color:#ff0046;stop-opacity:1"/></linearGradient>
    </defs>
</svg>
