<?xml version="1.0" encoding="UTF-8" standalone="no"?>
<!DOCTYPE svg PUBLIC "-//W3C//DTD SVG 1.1//EN" "http://www.w3.org/Graphics/SVG/1.1/DTD/svg11.dtd">
<svg xmlns:xlink="http://www.w3.org/1999/xlink"
     xmlns:serif="http://www.serif.com/"
     width="270px"
     height="380px"
     version="1.1"
     xmlns="http://www.w3.org/2000/svg"
     xml:space="preserve"
     style="fill-rule:evenodd;clip-rule:evenodd;stroke-linejoin:round;stroke-miterlimit:1.41421;">
    <rect x="0"
          y="0"
          width="270"
          height="380"
          style="fill:#fff;stroke:#000;stroke-width:1px;"/>
        <defs>
        <linearGradient id="_Linear1"
                        x1="0"
                        y1="0"
                        x2="1"
                        y2="0"
                        gradientUnits="userSpaceOnUse"
                        gradientTransform="matrix(206.856,0,0,206.856,26.4346,164.057)"><stop offset="0" style="stop-color:#1e61d4;stop-opacity:1"/><stop offset="1"
                                                                                                                                                          style="stop-color:#ff0046;stop-opacity:1"/></linearGradient>
    </defs>
    <g id="Logo"
       transform="matrix(5.70718,0,0,5.70723,-548.329,-1983.05)">
        <g transform="matrix(0.120472,0,0,0.120472,102.894,347.065)">
            <path d="M232.321,164.268c-0.551,-1.407 -1.25,-2.487 -1.733,-4.267l0.016,0c-0.034,0 -0.056,-0.074 -0.088,-0.149c-0.062,-0.193 -0.122,-0.353 -0.173,-0.548c-0.097,-0.365 -0.189,-0.759 -0.253,-1.179c-0.043,-2.08 1.872,-2.792 1.946,-5.183c0.081,-2.573 -1.476,-3.898 -1.946,-4.241c-0.02,-0.028 -0.037,-0.054 -0.056,-0.082c0.012,-0.037 0.02,-0.068 0.031,-0.104c2.993,-2.433 1.69,-5.738 1.69,-5.738c-0.636,-0.338 -1.313,-0.55 -1.797,-0.98c-4.337,-3.863 -4.606,-6.636 -1.196,-11.288c0.866,-1.185 1.746,-2.375 2.467,-3.649c1.761,-3.117 1.359,-4.599 -1.81,-6.367c-2.28,-1.271 -4.743,-2.218 -6.988,-3.545c-6.396,-3.778 -11.834,-8.521 -15.061,-15.174c2.171,-3.872 2.171,-3.872 1.304,-6.341c-0.791,0.865 -1.527,1.672 -2.688,2.944c0,-3.049 0.294,-5.379 -0.083,-7.595c-0.367,-2.156 -0.85,-4.792 -2.281,-6.178c-5.217,-5.045 -8.175,-11.292 -10.92,-17.796c-2.029,-4.806 -4.196,-9.66 -8.171,-13.236c-2,-1.8 -4.474,-3.072 -6.742,-4.587c0,-1.354 0.017,-2.653 -0.006,-3.951c-0.019,-1.297 0.038,-2.61 -0.136,-3.89c-0.702,-5.113 -4.34,-7.564 -9.404,-6.548c-3.181,0.638 -6.385,1.238 -9.605,1.563c-1.888,0.19 -3.584,0.128 -3.225,-3.432c1.62,0 3.162,0 5.368,0c-1.104,0 -1.515,-1.544 -2.067,-1.769c-2.208,-0.892 -4.045,-0.36 -5.099,1.396c-1.25,2.077 0.023,3.586 1.504,4.555c1.273,0.832 3.004,1.441 4.492,1.365c3.234,-0.167 6.436,-0.842 9.658,-1.296c2.8,-0.394 4.451,0.587 5.01,3.266c0.266,1.278 0.047,2.658 0.047,3.561c-3.72,-1.383 -6.953,-3.369 -10.347,-3.69c-7.432,-0.706 -14.956,-0.912 -22.413,-0.611c-3.084,0.124 -6.484,1.511 -9.049,3.309c-4.547,3.188 -9.441,5.039 -14.773,6.138c-2.549,0.526 -5.106,1.149 -7.55,2.03c-4.689,1.689 -8.626,4.342 -11.53,8.63c-1.595,2.354 -3.836,4.445 -6.188,6.076c-4.591,3.184 -9.001,6.424 -12.144,11.187c-1.712,2.596 -4.124,4.212 -7.839,3.113c-1.104,-4.244 -4.87,-4.911 -8.627,-5.423c-1.764,-0.242 -3.625,-0.32 -5.373,-0.04c-10.247,1.643 -19.554,5.56 -26.813,13.074c-6.565,6.797 -5.937,10.365 -2.739,16.202c2.063,3.766 2.131,7.435 -0.279,11.089c-1.874,2.842 -2.57,6.013 -2.071,9.354c1.284,8.609 4.072,16.22 13.409,19.251c0.615,0.198 1.156,0.607 1.748,0.881c2.125,0.984 3.145,2.592 3.365,4.971c0.144,1.54 0.491,3.357 1.429,4.479c6.245,7.454 20.432,8.503 25.041,-1.951c0.189,-0.432 0.624,-0.756 0.945,-1.129c0.305,0.134 0.609,0.266 0.914,0.399c-0.27,1.348 -0.539,2.694 -0.81,4.042c-0.351,1.75 -1.204,3.572 -0.961,5.235c0.915,6.264 1.484,12.716 3.503,18.648c2.452,7.204 8.53,14.587 18.762,13.197c3.549,-0.483 6.782,0.391 9.818,2.234c1.254,0.76 2.657,1.272 3.912,2.027c3.221,1.943 6.497,1.898 9.857,0.464c2.024,-0.863 4.052,-1.726 6.331,-2.698c-1.16,4.041 -2.278,7.594 -3.189,11.197c-1.336,5.287 -3.631,9.452 -9.941,9.48c-0.115,0 -0.228,0.204 -0.481,0.441c0.473,1.385 0.975,2.855 1.446,4.234c-3.43,5.076 -9.388,5.288 -13.951,7.881c8.949,0.082 15.39,-4.254 16.179,-10.562c4.91,-1.582 7.805,-5.034 9.233,-9.921c0.777,-2.659 1.611,-5.32 2.672,-7.879c1.746,-4.209 4.792,-6.719 9.406,-6.833c-0.302,3.22 -0.579,6.169 -0.855,9.113c-6.687,1.486 -6.819,1.649 -6.534,8.315c-1.583,1.269 -3.238,2.596 -5.685,4.557c6.226,-1.428 7.436,-2.953 8.025,-9.211c0.938,-0.325 1.962,-0.799 3.039,-1.035c4.009,-0.875 4.11,-0.859 3.682,-5.037c-0.251,-2.445 0.739,-3.996 3.163,-5.664c0.451,1.766 0.892,3.088 1.115,4.445c0.316,1.923 0.547,3.867 0.687,5.81c0.517,7.404 -0.06,14.643 -3.457,21.43c-4.159,8.313 -8.334,16.622 -12.413,24.973c-1.174,2.404 -2.482,4.234 -5.172,5.433c-4.265,1.907 -7.421,6.556 -7.757,10.832c15.258,2.949 26.312,6.953 41.04,18.833c9.647,7.785 19.862,11.309 29.399,12.456c0.003,-0.004 10.248,-13.711 19.753,-32.558c-0.241,-0.365 -0.484,-0.728 -0.723,-1.095c-6.25,-9.478 -11.533,-18.592 -13.049,-22.521c-2.853,-7.395 -3.838,-14.659 -2.132,-22.466c1.983,-9.083 3.633,-18.206 7.761,-26.672c2.412,-4.95 6.15,-7.711 11.519,-8.858c6.366,-1.36 12.689,-3.037 18.94,-4.868c6.706,-1.966 9.308,-7.753 6.747,-14.275Z"
                  style="fill:#333;fill-rule:nonzero;"/>
        </g>
        <g transform="matrix(0.120472,0,0,0.120472,103.024,347.122)">
            <path d="M232.321,164.268c-0.551,-1.407 -1.25,-2.487 -1.733,-4.267l0.016,0c-0.034,0 -0.056,-0.074 -0.088,-0.149c-0.062,-0.193 -0.122,-0.353 -0.173,-0.548c-0.097,-0.365 -0.189,-0.759 -0.253,-1.179c-0.043,-2.08 1.872,-2.792 1.946,-5.183c0.081,-2.573 -1.476,-3.898 -1.946,-4.241c-0.02,-0.028 -0.037,-0.054 -0.056,-0.082c0.012,-0.037 0.02,-0.068 0.031,-0.104c2.993,-2.433 1.69,-5.738 1.69,-5.738c-0.636,-0.338 -1.313,-0.55 -1.797,-0.98c-4.337,-3.863 -4.606,-6.636 -1.196,-11.288c0.866,-1.185 1.746,-2.375 2.467,-3.649c1.761,-3.117 1.359,-4.599 -1.81,-6.367c-2.28,-1.271 -4.743,-2.218 -6.988,-3.545c-6.396,-3.778 -11.834,-8.521 -15.061,-15.174c2.171,-3.872 2.171,-3.872 1.304,-6.341c-0.791,0.865 -1.527,1.672 -2.688,2.944c0,-3.049 0.294,-5.379 -0.083,-7.595c-0.367,-2.156 -0.85,-4.792 -2.281,-6.178c-5.217,-5.045 -8.175,-11.292 -10.92,-17.796c-2.029,-4.806 -4.196,-9.66 -8.171,-13.236c-2,-1.8 -4.474,-3.072 -6.742,-4.587c0,-1.354 0.017,-2.653 -0.006,-3.951c-0.019,-1.297 0.038,-2.61 -0.136,-3.89c-0.702,-5.113 -4.34,-7.564 -9.404,-6.548c-3.181,0.638 -6.385,1.238 -9.605,1.563c-1.888,0.19 -3.584,0.128 -3.225,-3.432c1.62,0 3.162,0 5.368,0c-1.104,0 -1.515,-1.544 -2.067,-1.769c-2.208,-0.892 -4.045,-0.36 -5.099,1.396c-1.25,2.077 0.023,3.586 1.504,4.555c1.273,0.832 3.004,1.441 4.492,1.365c3.234,-0.167 6.436,-0.842 9.658,-1.296c2.8,-0.394 4.451,0.587 5.01,3.266c0.266,1.278 0.047,2.658 0.047,3.561c-3.72,-1.383 -6.953,-3.369 -10.347,-3.69c-7.432,-0.706 -14.956,-0.912 -22.413,-0.611c-3.084,0.124 -6.484,1.511 -9.049,3.309c-4.547,3.188 -9.441,5.039 -14.773,6.138c-2.549,0.526 -5.106,1.149 -7.55,2.03c-4.689,1.689 -8.626,4.342 -11.53,8.63c-1.595,2.354 -3.836,4.445 -6.188,6.076c-4.591,3.184 -9.001,6.424 -12.144,11.187c-1.712,2.596 -4.124,4.212 -7.839,3.113c-1.104,-4.244 -4.87,-4.911 -8.627,-5.423c-1.764,-0.242 -3.625,-0.32 -5.373,-0.04c-10.247,1.643 -19.554,5.56 -26.813,13.074c-6.565,6.797 -5.937,10.365 -2.739,16.202c2.063,3.766 2.131,7.435 -0.279,11.089c-1.874,2.842 -2.57,6.013 -2.071,9.354c1.284,8.609 4.072,16.22 13.409,19.251c0.615,0.198 1.156,0.607 1.748,0.881c2.125,0.984 3.145,2.592 3.365,4.971c0.144,1.54 0.491,3.357 1.429,4.479c6.245,7.454 20.432,8.503 25.041,-1.951c0.189,-0.432 0.624,-0.756 0.945,-1.129c0.305,0.134 0.609,0.266 0.914,0.399c-0.27,1.348 -0.539,2.694 -0.81,4.042c-0.351,1.75 -1.204,3.572 -0.961,5.235c0.915,6.264 1.484,12.716 3.503,18.648c2.452,7.204 8.53,14.587 18.762,13.197c3.549,-0.483 6.782,0.391 9.818,2.234c1.254,0.76 2.657,1.272 3.912,2.027c3.221,1.943 6.497,1.898 9.857,0.464c2.024,-0.863 4.052,-1.726 6.331,-2.698c-1.16,4.041 -2.278,7.594 -3.189,11.197c-1.336,5.287 -3.631,9.452 -9.941,9.48c-0.115,0 -0.228,0.204 -0.481,0.441c0.473,1.385 0.975,2.855 1.446,4.234c-3.43,5.076 -9.388,5.288 -13.951,7.881c8.949,0.082 15.39,-4.254 16.179,-10.562c4.91,-1.582 7.805,-5.034 9.233,-9.921c0.777,-2.659 1.611,-5.32 2.672,-7.879c1.746,-4.209 4.792,-6.719 9.406,-6.833c-0.302,3.22 -0.579,6.169 -0.855,9.113c-6.687,1.486 -6.819,1.649 -6.534,8.315c-1.583,1.269 -3.238,2.596 -5.685,4.557c6.226,-1.428 7.436,-2.953 8.025,-9.211c0.938,-0.325 1.962,-0.799 3.039,-1.035c4.009,-0.875 4.11,-0.859 3.682,-5.037c-0.251,-2.445 0.739,-3.996 3.163,-5.664c0.451,1.766 0.892,3.088 1.115,4.445c0.316,1.923 0.547,3.867 0.687,5.81c0.517,7.404 -0.06,14.643 -3.457,21.43c-4.159,8.313 -8.334,16.622 -12.413,24.973c-1.174,2.404 -2.482,4.234 -5.172,5.433c-4.265,1.907 -7.421,6.556 -7.757,10.832c15.258,2.949 26.312,6.953 41.04,18.833c9.647,7.785 19.862,11.309 29.399,12.456c0.003,-0.004 10.248,-13.711 19.753,-32.558c-0.241,-0.365 -0.484,-0.728 -0.723,-1.095c-6.25,-9.478 -11.533,-18.592 -13.049,-22.521c-2.853,-7.395 -3.838,-14.659 -2.132,-22.466c1.983,-9.083 3.633,-18.206 7.761,-26.672c2.412,-4.95 6.15,-7.711 11.519,-8.858c6.366,-1.36 12.689,-3.037 18.94,-4.868c6.706,-1.966 9.308,-7.753 6.747,-14.275Z"
                  style="fill:url(#_Linear1);fill-rule:nonzero;stroke:#322727;stroke-opacity:0.658824;stroke-width:1.16px;"/>
        </g>
    </g>
    <g transform="matrix(1.04645,0.00082874,-0.000875582,1.1056,8.26151,-13.191)">
        <path d="M35.065,224.557l0,-11.181l-1.529,0l0,12.614l8.754,0l0,-1.433l-7.225,0Z"
              style="fill-rule:nonzero;"/>
        <path d="M52.954,225.99l1.816,0l-3.555,-5.409c1.72,-0.459 2.791,-1.72 2.791,-3.516c0,-2.275 -1.701,-3.689 -4.262,-3.689l-4.778,0l0,12.614l1.529,0l0,-5.237l3.019,0l3.44,5.237Zm-6.459,-11.181l3.23,0c1.796,0 2.675,0.746 2.675,2.256c0,1.509 -0.879,2.255 -2.675,2.255l-3.23,0l0,-4.511Z"
              style="fill-rule:nonzero;"/>
        <path d="M66.161,213.376l-10.321,0l0,1.433l4.396,0l0,11.181l1.529,0l0,-11.181l4.396,0l0,-1.433Z"
              style="fill-rule:nonzero;"/>
        <path d="M82.502,225.99l1.624,0l-4.892,-12.614l-1.816,0l-4.912,12.614l1.606,0l1.338,-3.498l5.714,0l1.338,3.498Zm-6.498,-4.931l1.72,-4.53l0.554,-1.701l0.038,0l0.593,1.759l1.701,4.472l-4.606,0Z"
              style="fill-rule:nonzero;"/>
        <path d="M92.975,216.434l0,5.198c0,2.256 -1.433,3.211 -3.058,3.211c-1.376,0 -2.255,-0.592 -2.255,-2.561l0,-5.848l-1.529,0l0,6.25c0,2.522 1.625,3.497 3.517,3.497c1.529,0 2.752,-0.497 3.421,-1.644l0.096,1.453l1.337,0l0,-9.556l-1.529,0Z"
              style="fill-rule:nonzero;"/>
        <path d="M105.016,212.038l0,5.887c-0.592,-0.994 -1.739,-1.682 -3.173,-1.682c-2.656,0 -4.357,1.854 -4.357,4.969c0,3.115 1.701,4.969 4.357,4.969c1.51,0 2.714,-0.764 3.269,-1.854l0.095,1.663l1.338,0l0,-13.952l-1.529,0Zm-3.001,12.805c-1.873,0 -3,-1.414 -3,-3.631c0,-2.217 1.127,-3.631 3,-3.631c1.816,0 3.001,1.357 3.001,3.516l0,0.23c0,2.159 -1.185,3.516 -3.001,3.516Z"
              style="fill-rule:nonzero;"/>
        <path d="M110.864,214.599c0.688,0 1.147,-0.459 1.147,-1.147c0,-0.688 -0.459,-1.146 -1.147,-1.146c-0.688,0 -1.146,0.458 -1.146,1.146c0,0.688 0.458,1.147 1.146,1.147Zm0.765,1.835l-1.529,0l0,9.556l1.529,0l0,-9.556Z"
              style="fill-rule:nonzero;"/>
        <path d="M119.216,216.243c-2.886,0 -4.625,1.873 -4.625,4.969c0,3.096 1.739,4.969 4.625,4.969c2.886,0 4.626,-1.873 4.626,-4.969c0,-3.096 -1.74,-4.969 -4.626,-4.969Zm0,1.318c1.931,0 3.097,1.377 3.097,3.651c0,2.274 -1.166,3.65 -3.097,3.65c-1.93,0 -3.096,-1.376 -3.096,-3.65c0,-2.274 1.166,-3.651 3.096,-3.651Z"
              style="fill-rule:nonzero;"/>
        <path d="M145.801,213.376l-2.35,0l-2.752,7.683l-0.975,3.134l-0.038,0l-0.956,-3.153l-2.771,-7.664l-2.351,0l0,12.614l1.452,0l0,-7.932l-0.172,-3.325l0.02,0l4.147,11.257l1.3,0l4.147,-11.257l0.019,0l-0.172,3.325l0,7.932l1.452,0l0,-12.614Z"
              style="fill-rule:nonzero;"/>
        <path d="M153.504,216.243c-2.886,0 -4.625,1.873 -4.625,4.969c0,3.096 1.739,4.969 4.625,4.969c2.886,0 4.625,-1.873 4.625,-4.969c0,-3.096 -1.739,-4.969 -4.625,-4.969Zm0,1.318c1.93,0 3.096,1.377 3.096,3.651c0,2.274 -1.166,3.65 -3.096,3.65c-1.931,0 -3.096,-1.376 -3.096,-3.65c0,-2.274 1.165,-3.651 3.096,-3.651Z"
              style="fill-rule:nonzero;"/>
        <path d="M168.048,212.038l0,5.887c-0.592,-0.994 -1.739,-1.682 -3.173,-1.682c-2.656,0 -4.357,1.854 -4.357,4.969c0,3.115 1.701,4.969 4.357,4.969c1.51,0 2.714,-0.764 3.269,-1.854l0.095,1.663l1.338,0l0,-13.952l-1.529,0Zm-3.001,12.805c-1.873,0 -3,-1.414 -3,-3.631c0,-2.217 1.127,-3.631 3,-3.631c1.816,0 3.001,1.357 3.001,3.516l0,0.23c0,2.159 -1.185,3.516 -3.001,3.516Z"
              style="fill-rule:nonzero;"/>
        <path d="M179.879,216.434l0,5.198c0,2.256 -1.434,3.211 -3.058,3.211c-1.376,0 -2.256,-0.592 -2.256,-2.561l0,-5.848l-1.529,0l0,6.25c0,2.522 1.625,3.497 3.517,3.497c1.529,0 2.752,-0.497 3.421,-1.644l0.096,1.453l1.338,0l0,-9.556l-1.529,0Z"
              style="fill-rule:nonzero;"/>
        <path d="M186.415,212.038l-1.529,0l0,11.582c0,1.739 0.745,2.561 2.293,2.561c0.497,0 1.013,-0.096 1.415,-0.268l0.248,-1.471c-0.554,0.21 -0.879,0.267 -1.395,0.267c-0.784,0 -1.032,-0.305 -1.032,-1.28l0,-11.391Z"
              style="fill-rule:nonzero;"/>
        <path d="M199.01,220.715c0,-2.466 -1.51,-4.472 -4.281,-4.472c-2.886,0 -4.511,1.873 -4.511,4.969c0,3.096 1.739,4.969 4.625,4.969c2.064,0 3.249,-0.784 3.976,-2.083l-1.281,-0.669c-0.344,0.917 -1.299,1.414 -2.695,1.414c-1.758,0 -2.924,-1.127 -3.115,-3.058l7.205,0c0.039,-0.267 0.077,-0.63 0.077,-1.07Zm-4.281,-3.134c1.624,0 2.599,1.089 2.809,2.847l-5.791,0c0.23,-1.796 1.281,-2.847 2.982,-2.847Z"
              style="fill-rule:nonzero;"/>
        <path d="M205.164,226.181c2.446,0 3.994,-1.166 3.994,-2.829c0,-1.567 -0.955,-2.369 -3.631,-2.809c-1.949,-0.325 -2.58,-0.745 -2.58,-1.567c0,-0.707 0.956,-1.395 2.236,-1.395c1.204,0 2.064,0.458 2.485,1.72l1.299,-0.765c-0.535,-1.567 -1.739,-2.293 -3.784,-2.293c-2.332,0 -3.765,1.318 -3.765,2.867c0,1.605 0.994,2.35 3.708,2.847c1.911,0.344 2.503,0.765 2.503,1.472c0,0.783 -0.745,1.414 -2.312,1.414c-1.376,0 -2.561,-0.516 -3.02,-1.682l-1.242,0.86c0.726,1.472 2.351,2.16 4.109,2.16Z"
              style="fill-rule:nonzero;"/>
        <path d="M103.502,240.324l-2.803,7.207l-2.718,-7.207l-1.565,0l3.577,8.601l1.376,0l3.578,-8.601l-1.445,0Z"
              style="fill-rule:nonzero;"/>
        <path d="M110.503,249.097c2.752,0 4.232,-2.047 4.232,-5.849c0,-3.801 -1.48,-5.848 -4.232,-5.848c-2.752,0 -4.231,2.047 -4.231,5.848c0,3.802 1.479,5.849 4.231,5.849Zm0,-1.239c-1.823,0 -2.804,-1.617 -2.804,-4.61c0,-2.993 0.981,-4.61 2.804,-4.61c1.823,0 2.804,1.617 2.804,4.61c0,2.993 -0.981,4.61 -2.804,4.61Z"
              style="fill-rule:nonzero;"/>
        <path d="M117.9,246.86c-0.671,0 -1.118,0.448 -1.118,1.119c0,0.67 0.447,1.118 1.118,1.118c0.67,0 1.118,-0.448 1.118,-1.118c0,-0.671 -0.448,-1.119 -1.118,-1.119Z"
              style="fill-rule:nonzero;"/>
        <path d="M125.588,237.4c-2.511,0 -4.437,2.047 -4.437,5.848c0,3.389 1.53,5.849 4.386,5.849c2.391,0 3.904,-1.428 3.904,-3.681c0,-2.254 -1.513,-3.681 -3.818,-3.681c-1.239,0 -2.735,0.619 -3.114,2.081l-0.068,0l0,-0.31c0,-2.7 1.238,-4.816 3.061,-4.816c1.359,0 2.082,0.654 2.426,1.703l1.273,-0.602c-0.706,-1.686 -1.806,-2.391 -3.613,-2.391Zm-0.068,5.659c1.565,0 2.477,0.894 2.477,2.339c0,1.497 -0.912,2.374 -2.477,2.374c-1.48,0 -2.477,-0.946 -2.477,-2.374c0,-1.376 0.997,-2.339 2.477,-2.339Z"
              style="fill-rule:nonzero;"/>
        <path d="M132.847,246.86c-0.671,0 -1.118,0.448 -1.118,1.119c0,0.67 0.447,1.118 1.118,1.118c0.671,0 1.118,-0.448 1.118,-1.118c0,-0.671 -0.447,-1.119 -1.118,-1.119Z"
              style="fill-rule:nonzero;"/>
        <path d="M144.647,244.762l-2.012,0l0,-7.19l-1.738,0l-5.177,7.362l0,1.015l5.539,0l0,2.976l1.376,0l0,-2.976l2.012,0l0,-1.187Zm-4.489,-4.18c0.361,-0.516 0.86,-1.324 1.135,-1.892l0.034,0l-0.068,1.823l0,4.249l-4.077,0l2.976,-4.18Z"
              style="fill-rule:nonzero;"/>
    </g>
    <g transform="matrix(1,0,0,1,13.3535,-2.82022)">
        <path d="M55.767,289.029l-0.96,-0.36c-0.348,1.068 -1.176,1.608 -2.232,1.608c-1.644,0 -2.664,-1.188 -2.664,-3.18c0,-2.004 1.092,-3.18 2.712,-3.18c1.056,0 1.704,0.48 2.052,1.392l0.948,-0.444c-0.504,-1.2 -1.536,-1.848 -3.072,-1.848c-2.208,0 -3.648,1.572 -3.648,4.08c0,2.508 1.416,4.08 3.672,4.08c1.488,0 2.688,-0.792 3.192,-2.148Z"
              style="fill-opacity:0.803922;fill-rule:nonzero;"/>
        <path d="M60.027,284.937c-1.812,0 -2.904,1.176 -2.904,3.12c0,1.944 1.092,3.12 2.904,3.12c1.812,0 2.904,-1.176 2.904,-3.12c0,-1.944 -1.092,-3.12 -2.904,-3.12Zm0,0.828c1.212,0 1.944,0.864 1.944,2.292c0,1.428 -0.732,2.292 -1.944,2.292c-1.212,0 -1.944,-0.864 -1.944,-2.292c0,-1.428 0.732,-2.292 1.944,-2.292Z"
              style="fill-opacity:0.803922;fill-rule:nonzero;"/>
        <path d="M67.803,284.937c-0.948,0 -1.704,0.48 -2.052,1.164l-0.06,-1.044l-0.84,0l0,8.52l0.96,0l0,-3.456c0.372,0.624 1.092,1.056 1.992,1.056c1.668,0 2.736,-1.164 2.736,-3.12c0,-1.956 -1.068,-3.12 -2.736,-3.12Zm-0.108,5.4c-1.14,0 -1.884,-0.852 -1.884,-2.208l0,-0.144c0,-1.356 0.744,-2.208 1.884,-2.208c1.176,0 1.884,0.888 1.884,2.28c0,1.392 -0.708,2.28 -1.884,2.28Z"
              style="fill-opacity:0.803922;fill-rule:nonzero;"/>
        <path d="M77.391,285.057l-1.032,0l-1.404,3.792l-0.432,1.188l-0.372,-1.068l-1.5,-3.912l-1.092,0l2.508,5.988l-0.312,0.78c-0.3,0.792 -0.672,0.972 -1.092,0.972c-0.336,0 -0.696,-0.096 -0.972,-0.48l-0.336,0.816c0.336,0.36 0.72,0.504 1.32,0.504c0.888,0 1.428,-0.396 1.896,-1.572l2.82,-7.008Z"
              style="fill-opacity:0.803922;fill-rule:nonzero;"/>
        <path d="M81.603,284.937c-0.936,0 -1.584,0.372 -1.92,1.104l-0.132,-0.984l-0.78,0l0,6l0.96,0l0,-3.24c0,-1.344 0.864,-1.98 1.584,-1.98c0.312,0 0.576,0.06 0.756,0.156l0.192,-0.936c-0.18,-0.096 -0.456,-0.12 -0.66,-0.12Z"
              style="fill-opacity:0.803922;fill-rule:nonzero;"/>
        <path d="M84.207,283.905c0.432,0 0.72,-0.288 0.72,-0.72c0,-0.432 -0.288,-0.72 -0.72,-0.72c-0.432,0 -0.72,0.288 -0.72,0.72c0,0.432 0.288,0.72 0.72,0.72Zm0.48,1.152l-0.96,0l0,6l0.96,0l0,-6Z"
              style="fill-opacity:0.803922;fill-rule:nonzero;"/>
        <path d="M90.327,290.289l-1.992,0c-0.468,0 -0.792,-0.228 -0.792,-0.648c0,-0.408 0.192,-0.648 0.672,-0.756c0.264,0.072 0.576,0.108 0.924,0.108c1.44,0 2.46,-0.84 2.46,-2.028c0,-0.624 -0.276,-1.152 -0.756,-1.512c0.168,-0.432 0.624,-0.66 1.428,-0.66l-0.216,-0.84c-0.9,0 -1.464,0.396 -1.692,1.224c-0.36,-0.156 -0.768,-0.24 -1.224,-0.24c-1.44,0 -2.46,0.84 -2.46,2.028c0,0.696 0.3,1.284 0.876,1.644c-0.528,0.18 -0.9,0.552 -0.9,1.176c0,0.528 0.36,0.888 0.816,1.104c-0.66,0.18 -1.056,0.612 -1.056,1.164c0,0.9 0.864,1.584 2.76,1.584c1.62,0 2.964,-0.732 2.964,-1.92c0,-0.864 -0.672,-1.428 -1.812,-1.428Zm-1.188,-4.572c0.828,0 1.464,0.504 1.464,1.248c0,0.744 -0.636,1.248 -1.464,1.248c-0.828,0 -1.464,-0.504 -1.464,-1.248c0,-0.744 0.636,-1.248 1.464,-1.248Zm0.144,7.116c-1.32,0 -1.98,-0.384 -1.98,-0.972c0,-0.456 0.396,-0.744 1.152,-0.744l1.608,0c0.9,0 1.188,0.276 1.188,0.708c0,0.528 -0.696,1.008 -1.968,1.008Z"
              style="fill-opacity:0.803922;fill-rule:nonzero;"/>
        <path d="M96.543,284.937c-0.816,0 -1.536,0.3 -1.956,1.02l0,-3.66l-0.96,0l0,8.76l0.96,0l0,-3.18c0,-1.536 0.984,-2.1 1.86,-2.1c0.828,0 1.476,0.444 1.476,1.776l0,3.504l0.96,0l0,-3.84c0,-1.548 -1.056,-2.28 -2.34,-2.28Z"
              style="fill-opacity:0.803922;fill-rule:nonzero;"/>
        <path d="M104.367,289.833c-0.276,0.276 -0.588,0.444 -1.02,0.444c-0.528,0 -0.9,-0.288 -0.9,-0.876l0,-3.516l2.22,0l0,-0.828l-2.22,0l0,-1.704l-0.96,0.264l0,1.44l-1.2,0l0,0.828l1.2,0l0,3.684c0.012,1.164 0.78,1.608 1.668,1.608c0.66,0 1.176,-0.204 1.548,-0.54l-0.336,-0.804Z"
              style="fill-opacity:0.803922;fill-rule:nonzero;"/>
        <path d="M110.043,291.057l5.328,0l0,-0.9l-2.772,0c-0.24,0 -0.924,0.024 -1.188,0.036l0,-0.012c2.832,-1.884 3.792,-3.192 3.792,-4.68c0,-1.464 -1.032,-2.484 -2.652,-2.484c-1.608,0 -2.556,0.972 -2.76,2.352l0.84,0.504c0.108,-1.188 0.792,-1.956 1.884,-1.956c1.032,0 1.68,0.648 1.68,1.584c0,1.404 -0.984,2.448 -4.152,4.776l0,0.78Z"
              style="fill-opacity:0.803922;fill-rule:nonzero;"/>
        <path d="M119.943,291.177c1.92,0 2.952,-1.428 2.952,-4.08c0,-2.652 -1.032,-4.08 -2.952,-4.08c-1.92,0 -2.952,1.428 -2.952,4.08c0,2.652 1.032,4.08 2.952,4.08Zm0,-0.864c-1.272,0 -1.956,-1.128 -1.956,-3.216c0,-2.088 0.684,-3.216 1.956,-3.216c1.272,0 1.956,1.128 1.956,3.216c0,2.088 -0.684,3.216 -1.956,3.216Z"
              style="fill-opacity:0.803922;fill-rule:nonzero;"/>
        <path d="M126.579,283.137c-0.444,0.612 -1.836,1.356 -2.4,1.428l0.252,0.876c0.744,-0.18 1.5,-0.588 2.052,-1.116c-0.012,0.336 -0.024,0.66 -0.024,0.924l0,5.808l0.96,0l0,-7.92l-0.84,0Z"
              style="fill-opacity:0.803922;fill-rule:nonzero;"/>
        <path d="M129.183,283.137l0,0.9l4.788,0c-1.848,2.004 -2.772,4.464 -2.772,7.02l0.984,0c0,-2.676 0.828,-4.92 2.832,-7.02l0,-0.9l-5.832,0Z"
              style="fill-opacity:0.803922;fill-rule:nonzero;"/>
        <rect x="140.367"
              y="287.421"
              width="3.96"
              height="0.996"
              style="fill-opacity:0.803922;fill-rule:nonzero;"/>
        <path d="M150.507,291.057l5.328,0l0,-0.9l-2.772,0c-0.24,0 -0.924,0.024 -1.188,0.036l0,-0.012c2.832,-1.884 3.792,-3.192 3.792,-4.68c0,-1.464 -1.032,-2.484 -2.652,-2.484c-1.608,0 -2.556,0.972 -2.76,2.352l0.84,0.504c0.108,-1.188 0.792,-1.956 1.884,-1.956c1.032,0 1.68,0.648 1.68,1.584c0,1.404 -0.984,2.448 -4.152,4.776l0,0.78Z"
              style="fill-opacity:0.803922;fill-rule:nonzero;"/>
        <path d="M160.407,291.177c1.92,0 2.952,-1.428 2.952,-4.08c0,-2.652 -1.032,-4.08 -2.952,-4.08c-1.92,0 -2.952,1.428 -2.952,4.08c0,2.652 1.032,4.08 2.952,4.08Zm0,-0.864c-1.272,0 -1.956,-1.128 -1.956,-3.216c0,-2.088 0.684,-3.216 1.956,-3.216c1.272,0 1.956,1.128 1.956,3.216c0,2.088 -0.684,3.216 -1.956,3.216Z"
              style="fill-opacity:0.803922;fill-rule:nonzero;"/>
        <path d="M167.043,283.137c-0.444,0.612 -1.836,1.356 -2.4,1.428l0.252,0.876c0.744,-0.18 1.5,-0.588 2.052,-1.116c-0.012,0.336 -0.024,0.66 -0.024,0.924l0,5.808l0.96,0l0,-7.92l-0.84,0Z"
              style="fill-opacity:0.803922;fill-rule:nonzero;"/>
        <path d="M172.863,283.029c-1.524,0 -2.52,0.792 -2.52,2.076c0,0.828 0.432,1.476 1.128,1.776l0,0.012c-0.924,0.336 -1.488,1.056 -1.488,2.028c0,1.38 1.152,2.256 2.88,2.256c1.74,0 2.88,-0.876 2.88,-2.256c0,-0.996 -0.576,-1.692 -1.476,-2.028l0,-0.012c0.696,-0.312 1.116,-0.96 1.116,-1.776c0,-1.284 -0.996,-2.076 -2.52,-2.076Zm0,0.9c0.936,0 1.524,0.468 1.524,1.272c0,0.78 -0.612,1.26 -1.524,1.26c-0.912,0 -1.524,-0.48 -1.524,-1.26c0,-0.804 0.588,-1.272 1.524,-1.272Zm0,6.348c-1.152,0 -1.884,-0.552 -1.884,-1.452c0,-0.912 0.756,-1.464 1.884,-1.464c1.14,0 1.884,0.552 1.884,1.464c0,0.9 -0.72,1.452 -1.884,1.452Z"
              style="fill-opacity:0.803922;fill-rule:nonzero;"/>
        <path d="M184.839,284.937c-0.9,0 -1.62,0.432 -1.992,1.056l0,-3.696l-0.96,0l0,8.76l0.84,0l0.06,-1.044c0.348,0.684 1.104,1.164 2.052,1.164c1.668,0 2.736,-1.164 2.736,-3.12c0,-1.956 -1.068,-3.12 -2.736,-3.12Zm-0.108,5.4c-1.14,0 -1.884,-0.852 -1.884,-2.208l0,-0.144c0,-1.356 0.744,-2.208 1.884,-2.208c1.176,0 1.884,0.888 1.884,2.28c0,1.392 -0.708,2.28 -1.884,2.28Z"
              style="fill-opacity:0.803922;fill-rule:nonzero;"/>
        <path d="M194.427,285.057l-1.032,0l-1.404,3.792l-0.432,1.188l-0.372,-1.068l-1.5,-3.912l-1.092,0l2.508,5.988l-0.312,0.78c-0.3,0.792 -0.672,0.972 -1.092,0.972c-0.336,0 -0.696,-0.096 -0.972,-0.48l-0.336,0.816c0.336,0.36 0.72,0.504 1.32,0.504c0.888,0 1.428,-0.396 1.896,-1.572l2.82,-7.008Z"
              style="fill-opacity:0.803922;fill-rule:nonzero;"/>
        <path d="M47.961,304.157l0,-7.02l-0.96,0l0,7.92l5.496,0l0,-0.9l-4.536,0Z"
              style="fill-opacity:0.803922;fill-rule:nonzero;"/>
        <path d="M54.537,297.905c0.432,0 0.72,-0.288 0.72,-0.72c0,-0.432 -0.288,-0.72 -0.72,-0.72c-0.432,0 -0.72,0.288 -0.72,0.72c0,0.432 0.288,0.72 0.72,0.72Zm0.48,1.152l-0.96,0l0,6l0.96,0l0,-6Z"
              style="fill-opacity:0.803922;fill-rule:nonzero;"/>
        <path d="M60.225,298.937c-0.828,0 -1.596,0.3 -2.016,1.056l-0.06,-0.936l-0.84,0l0,6l0.96,0l0,-3.192c0,-1.536 0.984,-2.088 1.86,-2.088c0.828,0 1.476,0.444 1.476,1.776l0,3.504l0.96,0l0,-3.84c0,-1.548 -1.056,-2.28 -2.34,-2.28Z"
              style="fill-opacity:0.803922;fill-rule:nonzero;"/>
        <path d="M69.165,296.297l0,3.696c-0.372,-0.624 -1.092,-1.056 -1.992,-1.056c-1.668,0 -2.736,1.164 -2.736,3.12c0,1.956 1.068,3.12 2.736,3.12c0.948,0 1.704,-0.48 2.052,-1.164l0.06,1.044l0.84,0l0,-8.76l-0.96,0Zm-1.884,8.04c-1.176,0 -1.884,-0.888 -1.884,-2.28c0,-1.392 0.708,-2.28 1.884,-2.28c1.14,0 1.884,0.852 1.884,2.208l0,0.144c0,1.356 -0.744,2.208 -1.884,2.208Z"
              style="fill-opacity:0.803922;fill-rule:nonzero;"/>
        <path d="M77.565,301.745c0,-1.548 -0.948,-2.808 -2.688,-2.808c-1.812,0 -2.832,1.176 -2.832,3.12c0,1.944 1.092,3.12 2.904,3.12c1.296,0 2.04,-0.492 2.496,-1.308l-0.804,-0.42c-0.216,0.576 -0.816,0.888 -1.692,0.888c-1.104,0 -1.836,-0.708 -1.956,-1.92l4.524,0c0.024,-0.168 0.048,-0.396 0.048,-0.672Zm-2.688,-1.968c1.02,0 1.632,0.684 1.764,1.788l-3.636,0c0.144,-1.128 0.804,-1.788 1.872,-1.788Z"
              style="fill-opacity:0.803922;fill-rule:nonzero;"/>
        <path d="M82.365,298.937c-0.828,0 -1.596,0.3 -2.016,1.056l-0.06,-0.936l-0.84,0l0,6l0.96,0l0,-3.192c0,-1.536 0.984,-2.088 1.86,-2.088c0.828,0 1.476,0.444 1.476,1.776l0,3.504l0.96,0l0,-3.84c0,-1.548 -1.056,-2.28 -2.34,-2.28Z"
              style="fill-opacity:0.803922;fill-rule:nonzero;"/>
        <path d="M89.889,298.937c-0.9,0 -1.62,0.432 -1.992,1.056l0,-3.696l-0.96,0l0,8.76l0.84,0l0.06,-1.044c0.348,0.684 1.104,1.164 2.052,1.164c1.668,0 2.736,-1.164 2.736,-3.12c0,-1.956 -1.068,-3.12 -2.736,-3.12Zm-0.108,5.4c-1.14,0 -1.884,-0.852 -1.884,-2.208l0,-0.144c0,-1.356 0.744,-2.208 1.884,-2.208c1.176,0 1.884,0.888 1.884,2.28c0,1.392 -0.708,2.28 -1.884,2.28Z"
              style="fill-opacity:0.803922;fill-rule:nonzero;"/>
        <path d="M99.705,301.745c0,-1.548 -0.948,-2.808 -2.688,-2.808c-1.812,0 -2.832,1.176 -2.832,3.12c0,1.944 1.092,3.12 2.904,3.12c1.296,0 2.04,-0.492 2.496,-1.308l-0.804,-0.42c-0.216,0.576 -0.816,0.888 -1.692,0.888c-1.104,0 -1.836,-0.708 -1.956,-1.92l4.524,0c0.024,-0.168 0.048,-0.396 0.048,-0.672Zm-2.688,-1.968c1.02,0 1.632,0.684 1.764,1.788l-3.636,0c0.144,-1.128 0.804,-1.788 1.872,-1.788Z"
              style="fill-opacity:0.803922;fill-rule:nonzero;"/>
        <path d="M104.421,298.937c-0.936,0 -1.584,0.372 -1.92,1.104l-0.132,-0.984l-0.78,0l0,6l0.96,0l0,-3.24c0,-1.344 0.864,-1.98 1.584,-1.98c0.312,0 0.576,0.06 0.756,0.156l0.192,-0.936c-0.18,-0.096 -0.456,-0.12 -0.66,-0.12Z"
              style="fill-opacity:0.803922;fill-rule:nonzero;"/>
        <path d="M109.593,304.289l-1.992,0c-0.468,0 -0.792,-0.228 -0.792,-0.648c0,-0.408 0.192,-0.648 0.672,-0.756c0.264,0.072 0.576,0.108 0.924,0.108c1.44,0 2.46,-0.84 2.46,-2.028c0,-0.624 -0.276,-1.152 -0.756,-1.512c0.168,-0.432 0.624,-0.66 1.428,-0.66l-0.216,-0.84c-0.9,0 -1.464,0.396 -1.692,1.224c-0.36,-0.156 -0.768,-0.24 -1.224,-0.24c-1.44,0 -2.46,0.84 -2.46,2.028c0,0.696 0.3,1.284 0.876,1.644c-0.528,0.18 -0.9,0.552 -0.9,1.176c0,0.528 0.36,0.888 0.816,1.104c-0.66,0.18 -1.056,0.612 -1.056,1.164c0,0.9 0.864,1.584 2.76,1.584c1.62,0 2.964,-0.732 2.964,-1.92c0,-0.864 -0.672,-1.428 -1.812,-1.428Zm-1.188,-4.572c0.828,0 1.464,0.504 1.464,1.248c0,0.744 -0.636,1.248 -1.464,1.248c-0.828,0 -1.464,-0.504 -1.464,-1.248c0,-0.744 0.636,-1.248 1.464,-1.248Zm0.144,7.116c-1.32,0 -1.98,-0.384 -1.98,-0.972c0,-0.456 0.396,-0.744 1.152,-0.744l1.608,0c0.9,0 1.188,0.276 1.188,0.708c0,0.528 -0.696,1.008 -1.968,1.008Z"
              style="fill-opacity:0.803922;fill-rule:nonzero;"/>
        <path d="M122.241,305.057l1.14,0l-2.232,-3.396c1.08,-0.288 1.752,-1.08 1.752,-2.208c0,-1.428 -1.068,-2.316 -2.676,-2.316l-3,0l0,7.92l0.96,0l0,-3.288l1.896,0l2.16,3.288Zm-4.056,-7.02l2.028,0c1.128,0 1.68,0.468 1.68,1.416c0,0.948 -0.552,1.416 -1.68,1.416l-2.028,0l0,-2.832Z"
              style="fill-opacity:0.803922;fill-rule:nonzero;"/>
        <path d="M130.029,301.745c0,-1.548 -0.948,-2.808 -2.688,-2.808c-1.812,0 -2.832,1.176 -2.832,3.12c0,1.944 1.092,3.12 2.904,3.12c1.296,0 2.04,-0.492 2.496,-1.308l-0.804,-0.42c-0.216,0.576 -0.816,0.888 -1.692,0.888c-1.104,0 -1.836,-0.708 -1.956,-1.92l4.524,0c0.024,-0.168 0.048,-0.396 0.048,-0.672Zm-2.688,-1.968c1.02,0 1.632,0.684 1.764,1.788l-3.636,0c0.144,-1.128 0.804,-1.788 1.872,-1.788Z"
              style="fill-opacity:0.803922;fill-rule:nonzero;"/>
        <path d="M133.953,305.177c1.536,0 2.508,-0.732 2.508,-1.776c0,-0.984 -0.6,-1.488 -2.28,-1.764c-1.224,-0.204 -1.62,-0.468 -1.62,-0.984c0,-0.444 0.6,-0.876 1.404,-0.876c0.756,0 1.296,0.288 1.56,1.08l0.816,-0.48c-0.336,-0.984 -1.092,-1.44 -2.376,-1.44c-1.464,0 -2.364,0.828 -2.364,1.8c0,1.008 0.624,1.476 2.328,1.788c1.2,0.216 1.572,0.48 1.572,0.924c0,0.492 -0.468,0.888 -1.452,0.888c-0.864,0 -1.608,-0.324 -1.896,-1.056l-0.78,0.54c0.456,0.924 1.476,1.356 2.58,1.356Z"
              style="fill-opacity:0.803922;fill-rule:nonzero;"/>
        <path d="M143.445,301.745c0,-1.548 -0.948,-2.808 -2.688,-2.808c-1.812,0 -2.832,1.176 -2.832,3.12c0,1.944 1.092,3.12 2.904,3.12c1.296,0 2.04,-0.492 2.496,-1.308l-0.804,-0.42c-0.216,0.576 -0.816,0.888 -1.692,0.888c-1.104,0 -1.836,-0.708 -1.956,-1.92l4.524,0c0.024,-0.168 0.048,-0.396 0.048,-0.672Zm-2.688,-1.968c1.02,0 1.632,0.684 1.764,1.788l-3.636,0c0.144,-1.128 0.804,-1.788 1.872,-1.788Z"
              style="fill-opacity:0.803922;fill-rule:nonzero;"/>
        <path d="M150.249,304.361c-0.336,0 -0.456,-0.144 -0.456,-0.432l0,-2.952c0,-1.392 -0.996,-2.04 -2.364,-2.04c-1.164,0 -2.112,0.576 -2.424,1.464l0.708,0.516c0.324,-0.756 0.924,-1.14 1.716,-1.14c0.9,0 1.404,0.528 1.404,1.32l0,0.336l-1.596,0.264c-1.548,0.264 -2.34,0.972 -2.34,1.872c0,1.08 0.912,1.608 2.04,1.608c0.768,0 1.548,-0.324 1.932,-0.888c0.108,0.672 0.492,0.888 1.08,0.888c0.3,0 0.552,-0.06 0.72,-0.12l0.06,-0.756c-0.144,0.036 -0.324,0.06 -0.48,0.06Zm-3.264,-0.024c-0.684,0 -1.092,-0.264 -1.092,-0.768c0,-0.564 0.54,-0.912 1.596,-1.104l1.344,-0.252l0,0.828c0,0.792 -0.888,1.296 -1.848,1.296Z"
              style="fill-opacity:0.803922;fill-rule:nonzero;"/>
        <path d="M155.013,298.937c-0.936,0 -1.584,0.372 -1.92,1.104l-0.132,-0.984l-0.78,0l0,6l0.96,0l0,-3.24c0,-1.344 0.864,-1.98 1.584,-1.98c0.312,0 0.576,0.06 0.756,0.156l0.192,-0.936c-0.18,-0.096 -0.456,-0.12 -0.66,-0.12Z"
              style="fill-opacity:0.803922;fill-rule:nonzero;"/>
        <path d="M159.477,298.937c-1.812,0 -2.904,1.176 -2.904,3.12c0,1.944 1.092,3.12 2.904,3.12c1.272,0 2.136,-0.66 2.544,-1.764l-0.888,-0.312c-0.18,0.792 -0.744,1.236 -1.68,1.236c-1.2,0 -1.92,-0.852 -1.92,-2.28c0,-1.428 0.72,-2.28 1.92,-2.28c0.828,0 1.344,0.42 1.596,1.188l0.912,-0.432c-0.444,-0.984 -1.248,-1.596 -2.484,-1.596Z"
              style="fill-opacity:0.803922;fill-rule:nonzero;"/>
        <path d="M166.689,298.937c-0.816,0 -1.536,0.3 -1.956,1.02l0,-3.66l-0.96,0l0,8.76l0.96,0l0,-3.18c0,-1.536 0.984,-2.1 1.86,-2.1c0.828,0 1.476,0.444 1.476,1.776l0,3.504l0.96,0l0,-3.84c0,-1.548 -1.056,-2.28 -2.34,-2.28Z"
              style="fill-opacity:0.803922;fill-rule:nonzero;"/>
        <path d="M180.837,297.137l-6.48,0l0,0.9l2.76,0l0,7.02l0.96,0l0,-7.02l2.76,0l0,-0.9Z"
              style="fill-opacity:0.803922;fill-rule:nonzero;"/>
        <path d="M186.225,301.745c0,-1.548 -0.948,-2.808 -2.688,-2.808c-1.812,0 -2.832,1.176 -2.832,3.12c0,1.944 1.092,3.12 2.904,3.12c1.296,0 2.04,-0.492 2.496,-1.308l-0.804,-0.42c-0.216,0.576 -0.816,0.888 -1.692,0.888c-1.104,0 -1.836,-0.708 -1.956,-1.92l4.524,0c0.024,-0.168 0.048,-0.396 0.048,-0.672Zm-2.688,-1.968c1.02,0 1.632,0.684 1.764,1.788l-3.636,0c0.144,-1.128 0.804,-1.788 1.872,-1.788Z"
              style="fill-opacity:0.803922;fill-rule:nonzero;"/>
        <path d="M190.641,298.937c-1.812,0 -2.904,1.176 -2.904,3.12c0,1.944 1.092,3.12 2.904,3.12c1.272,0 2.136,-0.66 2.544,-1.764l-0.888,-0.312c-0.18,0.792 -0.744,1.236 -1.68,1.236c-1.2,0 -1.92,-0.852 -1.92,-2.28c0,-1.428 0.72,-2.28 1.92,-2.28c0.828,0 1.344,0.42 1.596,1.188l0.912,-0.432c-0.444,-0.984 -1.248,-1.596 -2.484,-1.596Z"
              style="fill-opacity:0.803922;fill-rule:nonzero;"/>
        <path d="M195.417,303.617c-0.468,0 -0.78,0.312 -0.78,0.78c0,0.468 0.312,0.78 0.78,0.78c0.468,0 0.78,-0.312 0.78,-0.78c0,-0.468 -0.312,-0.78 -0.78,-0.78Z"
              style="fill-opacity:0.803922;fill-rule:nonzero;"/>
        <path d="M70.011,311.137l-2.796,0l0,7.92l0.96,0l0,-3.096l1.836,0c1.596,0 2.664,-0.924 2.664,-2.412c0,-1.488 -1.068,-2.412 -2.664,-2.412Zm-0.144,3.924l-1.692,0l0,-3.024l1.692,0c1.248,0 1.8,0.528 1.8,1.512c0,0.984 -0.552,1.512 -1.8,1.512Z"
              style="fill-opacity:0.803922;fill-rule:nonzero;"/>
        <path d="M79.335,318.361c-0.336,0 -0.456,-0.144 -0.456,-0.432l0,-2.952c0,-1.392 -0.996,-2.04 -2.364,-2.04c-1.164,0 -2.112,0.576 -2.424,1.464l0.708,0.516c0.324,-0.756 0.924,-1.14 1.716,-1.14c0.9,0 1.404,0.528 1.404,1.32l0,0.336l-1.596,0.264c-1.548,0.264 -2.34,0.972 -2.34,1.872c0,1.08 0.912,1.608 2.04,1.608c0.768,0 1.548,-0.324 1.932,-0.888c0.108,0.672 0.492,0.888 1.08,0.888c0.3,0 0.552,-0.06 0.72,-0.12l0.06,-0.756c-0.144,0.036 -0.324,0.06 -0.48,0.06Zm-3.264,-0.024c-0.684,0 -1.092,-0.264 -1.092,-0.768c0,-0.564 0.54,-0.912 1.596,-1.104l1.344,-0.252l0,0.828c0,0.792 -0.888,1.296 -1.848,1.296Z"
              style="fill-opacity:0.803922;fill-rule:nonzero;"/>
        <path d="M84.363,317.833c-0.276,0.276 -0.588,0.444 -1.02,0.444c-0.528,0 -0.9,-0.288 -0.9,-0.876l0,-3.516l2.22,0l0,-0.828l-2.22,0l0,-1.704l-0.96,0.264l0,1.44l-1.2,0l0,0.828l1.2,0l0,3.684c0.012,1.164 0.78,1.608 1.668,1.608c0.66,0 1.176,-0.204 1.548,-0.54l-0.336,-0.804Z"
              style="fill-opacity:0.803922;fill-rule:nonzero;"/>
        <path d="M88.947,312.937c-0.936,0 -1.584,0.372 -1.92,1.104l-0.132,-0.984l-0.78,0l0,6l0.96,0l0,-3.24c0,-1.344 0.864,-1.98 1.584,-1.98c0.312,0 0.576,0.06 0.756,0.156l0.192,-0.936c-0.18,-0.096 -0.456,-0.12 -0.66,-0.12Z"
              style="fill-opacity:0.803922;fill-rule:nonzero;"/>
        <path d="M91.551,311.905c0.432,0 0.72,-0.288 0.72,-0.72c0,-0.432 -0.288,-0.72 -0.72,-0.72c-0.432,0 -0.72,0.288 -0.72,0.72c0,0.432 0.288,0.72 0.72,0.72Zm0.48,1.152l-0.96,0l0,6l0.96,0l0,-6Z"
              style="fill-opacity:0.803922;fill-rule:nonzero;"/>
        <path d="M96.855,312.937c-1.812,0 -2.904,1.176 -2.904,3.12c0,1.944 1.092,3.12 2.904,3.12c1.272,0 2.136,-0.66 2.544,-1.764l-0.888,-0.312c-0.18,0.792 -0.744,1.236 -1.68,1.236c-1.2,0 -1.92,-0.852 -1.92,-2.28c0,-1.428 0.72,-2.28 1.92,-2.28c0.828,0 1.344,0.42 1.596,1.188l0.912,-0.432c-0.444,-0.984 -1.248,-1.596 -2.484,-1.596Z"
              style="fill-opacity:0.803922;fill-rule:nonzero;"/>
        <path d="M105.399,319.057l1.164,0l-2.484,-3.66l2.34,-2.34l-1.2,0l-3.108,3.108l0,-5.868l-0.96,0l0,8.76l0.96,0l0,-1.692l1.272,-1.272l2.016,2.964Z"
              style="fill-opacity:0.803922;fill-rule:nonzero;"/>
        <path d="M113.043,318.157l0,-7.02l-0.96,0l0,7.92l5.496,0l0,-0.9l-4.536,0Z"
              style="fill-opacity:0.803922;fill-rule:nonzero;"/>
        <path d="M119.619,311.905c0.432,0 0.72,-0.288 0.72,-0.72c0,-0.432 -0.288,-0.72 -0.72,-0.72c-0.432,0 -0.72,0.288 -0.72,0.72c0,0.432 0.288,0.72 0.72,0.72Zm0.48,1.152l-0.96,0l0,6l0.96,0l0,-6Z"
              style="fill-opacity:0.803922;fill-rule:nonzero;"/>
        <path d="M125.307,312.937c-0.828,0 -1.596,0.3 -2.016,1.056l-0.06,-0.936l-0.84,0l0,6l0.96,0l0,-3.192c0,-1.536 0.984,-2.088 1.86,-2.088c0.828,0 1.476,0.444 1.476,1.776l0,3.504l0.96,0l0,-3.84c0,-1.548 -1.056,-2.28 -2.34,-2.28Z"
              style="fill-opacity:0.803922;fill-rule:nonzero;"/>
        <path d="M134.247,310.297l0,3.696c-0.372,-0.624 -1.092,-1.056 -1.992,-1.056c-1.668,0 -2.736,1.164 -2.736,3.12c0,1.956 1.068,3.12 2.736,3.12c0.948,0 1.704,-0.48 2.052,-1.164l0.06,1.044l0.84,0l0,-8.76l-0.96,0Zm-1.884,8.04c-1.176,0 -1.884,-0.888 -1.884,-2.28c0,-1.392 0.708,-2.28 1.884,-2.28c1.14,0 1.884,0.852 1.884,2.208l0,0.144c0,1.356 -0.744,2.208 -1.884,2.208Z"
              style="fill-opacity:0.803922;fill-rule:nonzero;"/>
        <path d="M142.647,315.745c0,-1.548 -0.948,-2.808 -2.688,-2.808c-1.812,0 -2.832,1.176 -2.832,3.12c0,1.944 1.092,3.12 2.904,3.12c1.296,0 2.04,-0.492 2.496,-1.308l-0.804,-0.42c-0.216,0.576 -0.816,0.888 -1.692,0.888c-1.104,0 -1.836,-0.708 -1.956,-1.92l4.524,0c0.024,-0.168 0.048,-0.396 0.048,-0.672Zm-2.688,-1.968c1.02,0 1.632,0.684 1.764,1.788l-3.636,0c0.144,-1.128 0.804,-1.788 1.872,-1.788Z"
              style="fill-opacity:0.803922;fill-rule:nonzero;"/>
        <path d="M147.447,312.937c-0.828,0 -1.596,0.3 -2.016,1.056l-0.06,-0.936l-0.84,0l0,6l0.96,0l0,-3.192c0,-1.536 0.984,-2.088 1.86,-2.088c0.828,0 1.476,0.444 1.476,1.776l0,3.504l0.96,0l0,-3.84c0,-1.548 -1.056,-2.28 -2.34,-2.28Z"
              style="fill-opacity:0.803922;fill-rule:nonzero;"/>
        <path d="M154.971,312.937c-0.9,0 -1.62,0.432 -1.992,1.056l0,-3.696l-0.96,0l0,8.76l0.84,0l0.06,-1.044c0.348,0.684 1.104,1.164 2.052,1.164c1.668,0 2.736,-1.164 2.736,-3.12c0,-1.956 -1.068,-3.12 -2.736,-3.12Zm-0.108,5.4c-1.14,0 -1.884,-0.852 -1.884,-2.208l0,-0.144c0,-1.356 0.744,-2.208 1.884,-2.208c1.176,0 1.884,0.888 1.884,2.28c0,1.392 -0.708,2.28 -1.884,2.28Z"
              style="fill-opacity:0.803922;fill-rule:nonzero;"/>
        <path d="M164.787,315.745c0,-1.548 -0.948,-2.808 -2.688,-2.808c-1.812,0 -2.832,1.176 -2.832,3.12c0,1.944 1.092,3.12 2.904,3.12c1.296,0 2.04,-0.492 2.496,-1.308l-0.804,-0.42c-0.216,0.576 -0.816,0.888 -1.692,0.888c-1.104,0 -1.836,-0.708 -1.956,-1.92l4.524,0c0.024,-0.168 0.048,-0.396 0.048,-0.672Zm-2.688,-1.968c1.02,0 1.632,0.684 1.764,1.788l-3.636,0c0.144,-1.128 0.804,-1.788 1.872,-1.788Z"
              style="fill-opacity:0.803922;fill-rule:nonzero;"/>
        <path d="M169.503,312.937c-0.936,0 -1.584,0.372 -1.92,1.104l-0.132,-0.984l-0.78,0l0,6l0.96,0l0,-3.24c0,-1.344 0.864,-1.98 1.584,-1.98c0.312,0 0.576,0.06 0.756,0.156l0.192,-0.936c-0.18,-0.096 -0.456,-0.12 -0.66,-0.12Z"
              style="fill-opacity:0.803922;fill-rule:nonzero;"/>
        <path d="M174.675,318.289l-1.992,0c-0.468,0 -0.792,-0.228 -0.792,-0.648c0,-0.408 0.192,-0.648 0.672,-0.756c0.264,0.072 0.576,0.108 0.924,0.108c1.44,0 2.46,-0.84 2.46,-2.028c0,-0.624 -0.276,-1.152 -0.756,-1.512c0.168,-0.432 0.624,-0.66 1.428,-0.66l-0.216,-0.84c-0.9,0 -1.464,0.396 -1.692,1.224c-0.36,-0.156 -0.768,-0.24 -1.224,-0.24c-1.44,0 -2.46,0.84 -2.46,2.028c0,0.696 0.3,1.284 0.876,1.644c-0.528,0.18 -0.9,0.552 -0.9,1.176c0,0.528 0.36,0.888 0.816,1.104c-0.66,0.18 -1.056,0.612 -1.056,1.164c0,0.9 0.864,1.584 2.76,1.584c1.62,0 2.964,-0.732 2.964,-1.92c0,-0.864 -0.672,-1.428 -1.812,-1.428Zm-1.188,-4.572c0.828,0 1.464,0.504 1.464,1.248c0,0.744 -0.636,1.248 -1.464,1.248c-0.828,0 -1.464,-0.504 -1.464,-1.248c0,-0.744 0.636,-1.248 1.464,-1.248Zm0.144,7.116c-1.32,0 -1.98,-0.384 -1.98,-0.972c0,-0.456 0.396,-0.744 1.152,-0.744l1.608,0c0.9,0 1.188,0.276 1.188,0.708c0,0.528 -0.696,1.008 -1.968,1.008Z"
              style="fill-opacity:0.803922;fill-rule:nonzero;"/>
    </g>
    <g transform="matrix(1,0,0,1,-20.3025,33.4691)">
        <path d="M89.879,302.937c-0.816,0 -1.536,0.3 -1.956,1.02l0,-3.66l-0.96,0l0,8.76l0.96,0l0,-3.18c0,-1.536 0.984,-2.1 1.86,-2.1c0.828,0 1.476,0.444 1.476,1.776l0,3.504l0.96,0l0,-3.84c0,-1.548 -1.056,-2.28 -2.34,-2.28Z"
              style="fill:#00030d;fill-opacity:0.803922;fill-rule:nonzero;"/>
        <path d="M99.539,305.745c0,-1.548 -0.948,-2.808 -2.688,-2.808c-1.812,0 -2.832,1.176 -2.832,3.12c0,1.944 1.092,3.12 2.904,3.12c1.296,0 2.04,-0.492 2.496,-1.308l-0.804,-0.42c-0.216,0.576 -0.816,0.888 -1.692,0.888c-1.104,0 -1.836,-0.708 -1.956,-1.92l4.524,0c0.024,-0.168 0.048,-0.396 0.048,-0.672Zm-2.688,-1.968c1.02,0 1.632,0.684 1.764,1.788l-3.636,0c0.144,-1.128 0.804,-1.788 1.872,-1.788Z"
              style="fill:#00030d;fill-opacity:0.803922;fill-rule:nonzero;"/>
        <path d="M106.283,308.361c-0.336,0 -0.456,-0.144 -0.456,-0.432l0,-2.952c0,-1.392 -0.996,-2.04 -2.364,-2.04c-1.164,0 -2.112,0.576 -2.424,1.464l0.708,0.516c0.324,-0.756 0.924,-1.14 1.716,-1.14c0.9,0 1.404,0.528 1.404,1.32l0,0.336l-1.596,0.264c-1.548,0.264 -2.34,0.972 -2.34,1.872c0,1.08 0.912,1.608 2.04,1.608c0.768,0 1.548,-0.324 1.932,-0.888c0.108,0.672 0.492,0.888 1.08,0.888c0.3,0 0.552,-0.06 0.72,-0.12l0.06,-0.756c-0.144,0.036 -0.324,0.06 -0.48,0.06Zm-3.264,-0.024c-0.684,0 -1.092,-0.264 -1.092,-0.768c0,-0.564 0.54,-0.912 1.596,-1.104l1.344,-0.252l0,0.828c0,0.792 -0.888,1.296 -1.848,1.296Z"
              style="fill:#00030d;fill-opacity:0.803922;fill-rule:nonzero;"/>
        <path d="M111.107,302.937c-0.948,0 -1.704,0.48 -2.052,1.164l-0.06,-1.044l-0.84,0l0,8.52l0.96,0l0,-3.456c0.372,0.624 1.092,1.056 1.992,1.056c1.668,0 2.736,-1.164 2.736,-3.12c0,-1.956 -1.068,-3.12 -2.736,-3.12Zm-0.108,5.4c-1.14,0 -1.884,-0.852 -1.884,-2.208l0,-0.144c0,-1.356 0.744,-2.208 1.884,-2.208c1.176,0 1.884,0.888 1.884,2.28c0,1.392 -0.708,2.28 -1.884,2.28Z"
              style="fill:#00030d;fill-opacity:0.803922;fill-rule:nonzero;"/>
        <path d="M120.083,300.297l0,3.696c-0.372,-0.624 -1.092,-1.056 -1.992,-1.056c-1.668,0 -2.736,1.164 -2.736,3.12c0,1.956 1.068,3.12 2.736,3.12c0.948,0 1.704,-0.48 2.052,-1.164l0.06,1.044l0.84,0l0,-8.76l-0.96,0Zm-1.884,8.04c-1.176,0 -1.884,-0.888 -1.884,-2.28c0,-1.392 0.708,-2.28 1.884,-2.28c1.14,0 1.884,0.852 1.884,2.208l0,0.144c0,1.356 -0.744,2.208 -1.884,2.208Z"
              style="fill:#00030d;fill-opacity:0.803922;fill-rule:nonzero;"/>
        <path d="M127.511,303.057l0,3.264c0,1.416 -0.9,2.016 -1.92,2.016c-0.864,0 -1.416,-0.372 -1.416,-1.608l0,-3.672l-0.96,0l0,3.924c0,1.584 1.02,2.196 2.208,2.196c0.96,0 1.728,-0.312 2.148,-1.032l0.06,0.912l0.84,0l0,-6l-0.96,0Z"
              style="fill:#00030d;fill-opacity:0.803922;fill-rule:nonzero;"/>
        <path d="M137.675,302.937c-0.756,0 -1.716,0.36 -2.088,1.176c-0.396,-0.804 -1.224,-1.176 -2.064,-1.176c-0.744,0 -1.488,0.324 -1.92,1.056l-0.06,-0.936l-0.84,0l0,6l0.96,0l0,-3.204c0,-1.488 0.984,-2.076 1.776,-2.076c0.792,0 1.416,0.444 1.416,1.536l0,3.744l0.96,0l0,-3.288c0,-1.284 0.84,-1.992 1.776,-1.992c0.792,0 1.416,0.444 1.416,1.536l0,3.744l0.96,0l0,-3.84c0,-1.584 -1.14,-2.28 -2.292,-2.28Z"
              style="fill:#00030d;fill-opacity:0.803922;fill-rule:nonzero;"/>
        <path d="M145.091,302.937c-0.948,0 -1.704,0.48 -2.052,1.164l-0.06,-1.044l-0.84,0l0,8.52l0.96,0l0,-3.456c0.372,0.624 1.092,1.056 1.992,1.056c1.668,0 2.736,-1.164 2.736,-3.12c0,-1.956 -1.068,-3.12 -2.736,-3.12Zm-0.108,5.4c-1.14,0 -1.884,-0.852 -1.884,-2.208l0,-0.144c0,-1.356 0.744,-2.208 1.884,-2.208c1.176,0 1.884,0.888 1.884,2.28c0,1.392 -0.708,2.28 -1.884,2.28Z"
              style="fill:#00030d;fill-opacity:0.803922;fill-rule:nonzero;"/>
        <path d="M154.667,301.137c-3.204,0 -5.292,2.148 -5.292,5.244c0,3.012 1.992,5.016 5.016,5.016c1.56,0 2.328,-0.456 3.012,-0.936l-0.42,-0.552c-0.54,0.384 -1.2,0.78 -2.592,0.78c-2.388,0 -4.212,-1.632 -4.212,-4.308c0,-2.76 1.692,-4.536 4.488,-4.536c2.76,0 4.152,1.716 4.152,4.092c0,1.668 -0.468,2.508 -1.32,2.508c-0.672,0 -0.816,-0.528 -0.744,-1.164l0.468,-3.732l-0.624,0l-0.24,0.972c-0.228,-0.588 -0.732,-1.044 -1.8,-1.044c-1.38,0 -2.772,1.14 -2.772,3.144c0,1.536 0.924,2.436 2.052,2.436c0.972,0 1.704,-0.408 2.124,-1.044c0.12,0.54 0.504,1.104 1.392,1.104c1.332,0 2.208,-1.212 2.208,-3.18c0,-2.64 -1.524,-4.8 -4.896,-4.8Zm-0.012,3.048c1.224,0 1.572,0.804 1.452,1.812l-0.072,0.588c-0.144,1.176 -1.008,1.752 -1.908,1.752c-0.948,0 -1.476,-0.66 -1.476,-1.764c0,-1.512 0.792,-2.388 2.004,-2.388Z"
              style="fill:#00030d;fill-opacity:0.803922;fill-rule:nonzero;"/>
        <path d="M161.999,301.905c0.432,0 0.72,-0.288 0.72,-0.72c0,-0.432 -0.288,-0.72 -0.72,-0.72c-0.432,0 -0.72,0.288 -0.72,0.72c0,0.432 0.288,0.72 0.72,0.72Zm0.48,1.152l-0.96,0l0,6l0.96,0l0,-6Z"
              style="fill:#00030d;fill-opacity:0.803922;fill-rule:nonzero;"/>
        <path d="M167.243,302.937c-1.812,0 -2.904,1.176 -2.904,3.12c0,1.944 1.092,3.12 2.904,3.12c1.272,0 2.136,-0.66 2.544,-1.764l-0.888,-0.312c-0.18,0.792 -0.744,1.236 -1.68,1.236c-1.2,0 -1.92,-0.852 -1.92,-2.28c0,-1.428 0.72,-2.28 1.92,-2.28c0.828,0 1.344,0.42 1.596,1.188l0.912,-0.432c-0.444,-0.984 -1.248,-1.596 -2.484,-1.596Z"
              style="fill:#00030d;fill-opacity:0.803922;fill-rule:nonzero;"/>
        <path d="M172.391,300.297l-0.96,0l0,7.272c0,1.092 0.468,1.608 1.44,1.608c0.312,0 0.636,-0.06 0.888,-0.168l0.156,-0.924c-0.348,0.132 -0.552,0.168 -0.876,0.168c-0.492,0 -0.648,-0.192 -0.648,-0.804l0,-7.152Z"
              style="fill:#00030d;fill-opacity:0.803922;fill-rule:nonzero;"/>
        <path d="M177.683,302.937c-1.812,0 -2.904,1.176 -2.904,3.12c0,1.944 1.092,3.12 2.904,3.12c1.812,0 2.904,-1.176 2.904,-3.12c0,-1.944 -1.092,-3.12 -2.904,-3.12Zm0,0.828c1.212,0 1.944,0.864 1.944,2.292c0,1.428 -0.732,2.292 -1.944,2.292c-1.212,0 -1.944,-0.864 -1.944,-2.292c0,-1.428 0.732,-2.292 1.944,-2.292Z"
              style="fill:#00030d;fill-opacity:0.803922;fill-rule:nonzero;"/>
        <path d="M186.683,303.057l0,3.264c0,1.416 -0.9,2.016 -1.92,2.016c-0.864,0 -1.416,-0.372 -1.416,-1.608l0,-3.672l-0.96,0l0,3.924c0,1.584 1.02,2.196 2.208,2.196c0.96,0 1.728,-0.312 2.148,-1.032l0.06,0.912l0.84,0l0,-6l-0.96,0Z"
              style="fill:#00030d;fill-opacity:0.803922;fill-rule:nonzero;"/>
        <path d="M194.243,300.297l0,3.696c-0.372,-0.624 -1.092,-1.056 -1.992,-1.056c-1.668,0 -2.736,1.164 -2.736,3.12c0,1.956 1.068,3.12 2.736,3.12c0.948,0 1.704,-0.48 2.052,-1.164l0.06,1.044l0.84,0l0,-8.76l-0.96,0Zm-1.884,8.04c-1.176,0 -1.884,-0.888 -1.884,-2.28c0,-1.392 0.708,-2.28 1.884,-2.28c1.14,0 1.884,0.852 1.884,2.208l0,0.144c0,1.356 -0.744,2.208 -1.884,2.208Z"
              style="fill:#00030d;fill-opacity:0.803922;fill-rule:nonzero;"/>
        <path d="M197.915,307.617c-0.468,0 -0.78,0.312 -0.78,0.78c0,0.468 0.312,0.78 0.78,0.78c0.468,0 0.78,-0.312 0.78,-0.78c0,-0.468 -0.312,-0.78 -0.78,-0.78Z"
              style="fill:#00030d;fill-opacity:0.803922;fill-rule:nonzero;"/>
        <path d="M202.919,302.937c-1.812,0 -2.904,1.176 -2.904,3.12c0,1.944 1.092,3.12 2.904,3.12c1.272,0 2.136,-0.66 2.544,-1.764l-0.888,-0.312c-0.18,0.792 -0.744,1.236 -1.68,1.236c-1.2,0 -1.92,-0.852 -1.92,-2.28c0,-1.428 0.72,-2.28 1.92,-2.28c0.828,0 1.344,0.42 1.596,1.188l0.912,-0.432c-0.444,-0.984 -1.248,-1.596 -2.484,-1.596Z"
              style="fill:#00030d;fill-opacity:0.803922;fill-rule:nonzero;"/>
        <path d="M209.687,302.937c-1.812,0 -2.904,1.176 -2.904,3.12c0,1.944 1.092,3.12 2.904,3.12c1.812,0 2.904,-1.176 2.904,-3.12c0,-1.944 -1.092,-3.12 -2.904,-3.12Zm0,0.828c1.212,0 1.944,0.864 1.944,2.292c0,1.428 -0.732,2.292 -1.944,2.292c-1.212,0 -1.944,-0.864 -1.944,-2.292c0,-1.428 0.732,-2.292 1.944,-2.292Z"
              style="fill:#00030d;fill-opacity:0.803922;fill-rule:nonzero;"/>
        <path d="M221.423,302.937c-0.756,0 -1.716,0.36 -2.088,1.176c-0.396,-0.804 -1.224,-1.176 -2.064,-1.176c-0.744,0 -1.488,0.324 -1.92,1.056l-0.06,-0.936l-0.84,0l0,6l0.96,0l0,-3.204c0,-1.488 0.984,-2.076 1.776,-2.076c0.792,0 1.416,0.444 1.416,1.536l0,3.744l0.96,0l0,-3.288c0,-1.284 0.84,-1.992 1.776,-1.992c0.792,0 1.416,0.444 1.416,1.536l0,3.744l0.96,0l0,-3.84c0,-1.584 -1.14,-2.28 -2.292,-2.28Z"
              style="fill:#00030d;fill-opacity:0.803922;fill-rule:nonzero;"/>
        <path d="M68.111,322.289l-1.992,0c-0.468,0 -0.792,-0.228 -0.792,-0.648c0,-0.408 0.192,-0.648 0.672,-0.756c0.264,0.072 0.576,0.108 0.924,0.108c1.44,0 2.46,-0.84 2.46,-2.028c0,-0.624 -0.276,-1.152 -0.756,-1.512c0.168,-0.432 0.624,-0.66 1.428,-0.66l-0.216,-0.84c-0.9,0 -1.464,0.396 -1.692,1.224c-0.36,-0.156 -0.768,-0.24 -1.224,-0.24c-1.44,0 -2.46,0.84 -2.46,2.028c0,0.696 0.3,1.284 0.876,1.644c-0.528,0.18 -0.9,0.552 -0.9,1.176c0,0.528 0.36,0.888 0.816,1.104c-0.66,0.18 -1.056,0.612 -1.056,1.164c0,0.9 0.864,1.584 2.76,1.584c1.62,0 2.964,-0.732 2.964,-1.92c0,-0.864 -0.672,-1.428 -1.812,-1.428Zm-1.188,-4.572c0.828,0 1.464,0.504 1.464,1.248c0,0.744 -0.636,1.248 -1.464,1.248c-0.828,0 -1.464,-0.504 -1.464,-1.248c0,-0.744 0.636,-1.248 1.464,-1.248Zm0.144,7.116c-1.32,0 -1.98,-0.384 -1.98,-0.972c0,-0.456 0.396,-0.744 1.152,-0.744l1.608,0c0.9,0 1.188,0.276 1.188,0.708c0,0.528 -0.696,1.008 -1.968,1.008Z"
              style="fill:#00030d;fill-opacity:0.803922;fill-rule:nonzero;"/>
        <path d="M71.831,315.905c0.432,0 0.72,-0.288 0.72,-0.72c0,-0.432 -0.288,-0.72 -0.72,-0.72c-0.432,0 -0.72,0.288 -0.72,0.72c0,0.432 0.288,0.72 0.72,0.72Zm0.48,1.152l-0.96,0l0,6l0.96,0l0,-6Z"
              style="fill:#00030d;fill-opacity:0.803922;fill-rule:nonzero;"/>
        <path d="M77.879,321.833c-0.276,0.276 -0.588,0.444 -1.02,0.444c-0.528,0 -0.9,-0.288 -0.9,-0.876l0,-3.516l2.22,0l0,-0.828l-2.22,0l0,-1.704l-0.96,0.264l0,1.44l-1.2,0l0,0.828l1.2,0l0,3.684c0.012,1.164 0.78,1.608 1.668,1.608c0.66,0 1.176,-0.204 1.548,-0.54l-0.336,-0.804Z"
              style="fill:#00030d;fill-opacity:0.803922;fill-rule:nonzero;"/>
        <path d="M82.487,316.937c-0.816,0 -1.536,0.3 -1.956,1.02l0,-3.66l-0.96,0l0,8.76l0.96,0l0,-3.18c0,-1.536 0.984,-2.1 1.86,-2.1c0.828,0 1.476,0.444 1.476,1.776l0,3.504l0.96,0l0,-3.84c0,-1.548 -1.056,-2.28 -2.34,-2.28Z"
              style="fill:#00030d;fill-opacity:0.803922;fill-rule:nonzero;"/>
        <path d="M91.235,317.057l0,3.264c0,1.416 -0.9,2.016 -1.92,2.016c-0.864,0 -1.416,-0.372 -1.416,-1.608l0,-3.672l-0.96,0l0,3.924c0,1.584 1.02,2.196 2.208,2.196c0.96,0 1.728,-0.312 2.148,-1.032l0.06,0.912l0.84,0l0,-6l-0.96,0Z"
              style="fill:#00030d;fill-opacity:0.803922;fill-rule:nonzero;"/>
        <path d="M97.379,316.937c-0.9,0 -1.62,0.432 -1.992,1.056l0,-3.696l-0.96,0l0,8.76l0.84,0l0.06,-1.044c0.348,0.684 1.104,1.164 2.052,1.164c1.668,0 2.736,-1.164 2.736,-3.12c0,-1.956 -1.068,-3.12 -2.736,-3.12Zm-0.108,5.4c-1.14,0 -1.884,-0.852 -1.884,-2.208l0,-0.144c0,-1.356 0.744,-2.208 1.884,-2.208c1.176,0 1.884,0.888 1.884,2.28c0,1.392 -0.708,2.28 -1.884,2.28Z"
              style="fill:#00030d;fill-opacity:0.803922;fill-rule:nonzero;"/>
        <path d="M102.227,321.617c-0.468,0 -0.78,0.312 -0.78,0.78c0,0.468 0.312,0.78 0.78,0.78c0.468,0 0.78,-0.312 0.78,-0.78c0,-0.468 -0.312,-0.78 -0.78,-0.78Z"
              style="fill:#00030d;fill-opacity:0.803922;fill-rule:nonzero;"/>
        <path d="M107.231,316.937c-1.812,0 -2.904,1.176 -2.904,3.12c0,1.944 1.092,3.12 2.904,3.12c1.272,0 2.136,-0.66 2.544,-1.764l-0.888,-0.312c-0.18,0.792 -0.744,1.236 -1.68,1.236c-1.2,0 -1.92,-0.852 -1.92,-2.28c0,-1.428 0.72,-2.28 1.92,-2.28c0.828,0 1.344,0.42 1.596,1.188l0.912,-0.432c-0.444,-0.984 -1.248,-1.596 -2.484,-1.596Z"
              style="fill:#00030d;fill-opacity:0.803922;fill-rule:nonzero;"/>
        <path d="M113.999,316.937c-1.812,0 -2.904,1.176 -2.904,3.12c0,1.944 1.092,3.12 2.904,3.12c1.812,0 2.904,-1.176 2.904,-3.12c0,-1.944 -1.092,-3.12 -2.904,-3.12Zm0,0.828c1.212,0 1.944,0.864 1.944,2.292c0,1.428 -0.732,2.292 -1.944,2.292c-1.212,0 -1.944,-0.864 -1.944,-2.292c0,-1.428 0.732,-2.292 1.944,-2.292Z"
              style="fill:#00030d;fill-opacity:0.803922;fill-rule:nonzero;"/>
        <path d="M125.735,316.937c-0.756,0 -1.716,0.36 -2.088,1.176c-0.396,-0.804 -1.224,-1.176 -2.064,-1.176c-0.744,0 -1.488,0.324 -1.92,1.056l-0.06,-0.936l-0.84,0l0,6l0.96,0l0,-3.204c0,-1.488 0.984,-2.076 1.776,-2.076c0.792,0 1.416,0.444 1.416,1.536l0,3.744l0.96,0l0,-3.288c0,-1.284 0.84,-1.992 1.776,-1.992c0.792,0 1.416,0.444 1.416,1.536l0,3.744l0.96,0l0,-3.84c0,-1.584 -1.14,-2.28 -2.292,-2.28Z"
              style="fill:#00030d;fill-opacity:0.803922;fill-rule:nonzero;"/>
        <path d="M133.991,314.297l-0.9,0l-3.672,9.6l0.9,0l3.672,-9.6Z"
              style="fill:#00030d;fill-opacity:0.803922;fill-rule:nonzero;"/>
        <path d="M136.367,314.297l-0.96,0l0,7.272c0,1.092 0.468,1.608 1.44,1.608c0.312,0 0.636,-0.06 0.888,-0.168l0.156,-0.924c-0.348,0.132 -0.552,0.168 -0.876,0.168c-0.492,0 -0.648,-0.192 -0.648,-0.804l0,-7.152Z"
              style="fill:#00030d;fill-opacity:0.803922;fill-rule:nonzero;"/>
        <path d="M139.607,315.905c0.432,0 0.72,-0.288 0.72,-0.72c0,-0.432 -0.288,-0.72 -0.72,-0.72c-0.432,0 -0.72,0.288 -0.72,0.72c0,0.432 0.288,0.72 0.72,0.72Zm0.48,1.152l-0.96,0l0,6l0.96,0l0,-6Z"
              style="fill:#00030d;fill-opacity:0.803922;fill-rule:nonzero;"/>
        <path d="M145.235,316.937c-0.828,0 -1.596,0.3 -2.016,1.056l-0.06,-0.936l-0.84,0l0,6l0.96,0l0,-3.192c0,-1.536 0.984,-2.088 1.86,-2.088c0.828,0 1.476,0.444 1.476,1.776l0,3.504l0.96,0l0,-3.84c0,-1.548 -1.056,-2.28 -2.34,-2.28Z"
              style="fill:#00030d;fill-opacity:0.803922;fill-rule:nonzero;"/>
        <path d="M154.115,314.297l0,3.696c-0.372,-0.624 -1.092,-1.056 -1.992,-1.056c-1.668,0 -2.736,1.164 -2.736,3.12c0,1.956 1.068,3.12 2.736,3.12c0.948,0 1.704,-0.48 2.052,-1.164l0.06,1.044l0.84,0l0,-8.76l-0.96,0Zm-1.884,8.04c-1.176,0 -1.884,-0.888 -1.884,-2.28c0,-1.392 0.708,-2.28 1.884,-2.28c1.14,0 1.884,0.852 1.884,2.208l0,0.144c0,1.356 -0.744,2.208 -1.884,2.208Z"
              style="fill:#00030d;fill-opacity:0.803922;fill-rule:nonzero;"/>
        <path d="M162.455,319.745c0,-1.548 -0.948,-2.808 -2.688,-2.808c-1.812,0 -2.832,1.176 -2.832,3.12c0,1.944 1.092,3.12 2.904,3.12c1.296,0 2.04,-0.492 2.496,-1.308l-0.804,-0.42c-0.216,0.576 -0.816,0.888 -1.692,0.888c-1.104,0 -1.836,-0.708 -1.956,-1.92l4.524,0c0.024,-0.168 0.048,-0.396 0.048,-0.672Zm-2.688,-1.968c1.02,0 1.632,0.684 1.764,1.788l-3.636,0c0.144,-1.128 0.804,-1.788 1.872,-1.788Z"
              style="fill:#00030d;fill-opacity:0.803922;fill-rule:nonzero;"/>
        <path d="M167.195,316.937c-0.828,0 -1.596,0.3 -2.016,1.056l-0.06,-0.936l-0.84,0l0,6l0.96,0l0,-3.192c0,-1.536 0.984,-2.088 1.86,-2.088c0.828,0 1.476,0.444 1.476,1.776l0,3.504l0.96,0l0,-3.84c0,-1.548 -1.056,-2.28 -2.34,-2.28Z"
              style="fill:#00030d;fill-opacity:0.803922;fill-rule:nonzero;"/>
        <path d="M174.659,316.937c-0.9,0 -1.62,0.432 -1.992,1.056l0,-3.696l-0.96,0l0,8.76l0.84,0l0.06,-1.044c0.348,0.684 1.104,1.164 2.052,1.164c1.668,0 2.736,-1.164 2.736,-3.12c0,-1.956 -1.068,-3.12 -2.736,-3.12Zm-0.108,5.4c-1.14,0 -1.884,-0.852 -1.884,-2.208l0,-0.144c0,-1.356 0.744,-2.208 1.884,-2.208c1.176,0 1.884,0.888 1.884,2.28c0,1.392 -0.708,2.28 -1.884,2.28Z"
              style="fill:#00030d;fill-opacity:0.803922;fill-rule:nonzero;"/>
        <path d="M184.415,319.745c0,-1.548 -0.948,-2.808 -2.688,-2.808c-1.812,0 -2.832,1.176 -2.832,3.12c0,1.944 1.092,3.12 2.904,3.12c1.296,0 2.04,-0.492 2.496,-1.308l-0.804,-0.42c-0.216,0.576 -0.816,0.888 -1.692,0.888c-1.104,0 -1.836,-0.708 -1.956,-1.92l4.524,0c0.024,-0.168 0.048,-0.396 0.048,-0.672Zm-2.688,-1.968c1.02,0 1.632,0.684 1.764,1.788l-3.636,0c0.144,-1.128 0.804,-1.788 1.872,-1.788Z"
              style="fill:#00030d;fill-opacity:0.803922;fill-rule:nonzero;"/>
        <path d="M189.071,316.937c-0.936,0 -1.584,0.372 -1.92,1.104l-0.132,-0.984l-0.78,0l0,6l0.96,0l0,-3.24c0,-1.344 0.864,-1.98 1.584,-1.98c0.312,0 0.576,0.06 0.756,0.156l0.192,-0.936c-0.18,-0.096 -0.456,-0.12 -0.66,-0.12Z"
              style="fill:#00030d;fill-opacity:0.803922;fill-rule:nonzero;"/>
        <path d="M194.183,322.289l-1.992,0c-0.468,0 -0.792,-0.228 -0.792,-0.648c0,-0.408 0.192,-0.648 0.672,-0.756c0.264,0.072 0.576,0.108 0.924,0.108c1.44,0 2.46,-0.84 2.46,-2.028c0,-0.624 -0.276,-1.152 -0.756,-1.512c0.168,-0.432 0.624,-0.66 1.428,-0.66l-0.216,-0.84c-0.9,0 -1.464,0.396 -1.692,1.224c-0.36,-0.156 -0.768,-0.24 -1.224,-0.24c-1.44,0 -2.46,0.84 -2.46,2.028c0,0.696 0.3,1.284 0.876,1.644c-0.528,0.18 -0.9,0.552 -0.9,1.176c0,0.528 0.36,0.888 0.816,1.104c-0.66,0.18 -1.056,0.612 -1.056,1.164c0,0.9 0.864,1.584 2.76,1.584c1.62,0 2.964,-0.732 2.964,-1.92c0,-0.864 -0.672,-1.428 -1.812,-1.428Zm-1.188,-4.572c0.828,0 1.464,0.504 1.464,1.248c0,0.744 -0.636,1.248 -1.464,1.248c-0.828,0 -1.464,-0.504 -1.464,-1.248c0,-0.744 0.636,-1.248 1.464,-1.248Zm0.144,7.116c-1.32,0 -1.98,-0.384 -1.98,-0.972c0,-0.456 0.396,-0.744 1.152,-0.744l1.608,0c0.9,0 1.188,0.276 1.188,0.708c0,0.528 -0.696,1.008 -1.968,1.008Z"
              style="fill:#00030d;fill-opacity:0.803922;fill-rule:nonzero;"/>
        <path d="M200.255,316.937c-0.936,0 -1.584,0.372 -1.92,1.104l-0.132,-0.984l-0.78,0l0,6l0.96,0l0,-3.24c0,-1.344 0.864,-1.98 1.584,-1.98c0.312,0 0.576,0.06 0.756,0.156l0.192,-0.936c-0.18,-0.096 -0.456,-0.12 -0.66,-0.12Z"
              style="fill:#00030d;fill-opacity:0.803922;fill-rule:nonzero;"/>
        <path d="M207.275,319.745c0,-1.548 -0.948,-2.808 -2.688,-2.808c-1.812,0 -2.832,1.176 -2.832,3.12c0,1.944 1.092,3.12 2.904,3.12c1.296,0 2.04,-0.492 2.496,-1.308l-0.804,-0.42c-0.216,0.576 -0.816,0.888 -1.692,0.888c-1.104,0 -1.836,-0.708 -1.956,-1.92l4.524,0c0.024,-0.168 0.048,-0.396 0.048,-0.672Zm-2.688,-1.968c1.02,0 1.632,0.684 1.764,1.788l-3.636,0c0.144,-1.128 0.804,-1.788 1.872,-1.788Z"
              style="fill:#00030d;fill-opacity:0.803922;fill-rule:nonzero;"/>
        <path d="M211.139,323.177c1.536,0 2.508,-0.732 2.508,-1.776c0,-0.984 -0.6,-1.488 -2.28,-1.764c-1.224,-0.204 -1.62,-0.468 -1.62,-0.984c0,-0.444 0.6,-0.876 1.404,-0.876c0.756,0 1.296,0.288 1.56,1.08l0.816,-0.48c-0.336,-0.984 -1.092,-1.44 -2.376,-1.44c-1.464,0 -2.364,0.828 -2.364,1.8c0,1.008 0.624,1.476 2.328,1.788c1.2,0.216 1.572,0.48 1.572,0.924c0,0.492 -0.468,0.888 -1.452,0.888c-0.864,0 -1.608,-0.324 -1.896,-1.056l-0.78,0.54c0.456,0.924 1.476,1.356 2.58,1.356Z"
              style="fill:#00030d;fill-opacity:0.803922;fill-rule:nonzero;"/>
        <path d="M220.571,319.745c0,-1.548 -0.948,-2.808 -2.688,-2.808c-1.812,0 -2.832,1.176 -2.832,3.12c0,1.944 1.092,3.12 2.904,3.12c1.296,0 2.04,-0.492 2.496,-1.308l-0.804,-0.42c-0.216,0.576 -0.816,0.888 -1.692,0.888c-1.104,0 -1.836,-0.708 -1.956,-1.92l4.524,0c0.024,-0.168 0.048,-0.396 0.048,-0.672Zm-2.688,-1.968c1.02,0 1.632,0.684 1.764,1.788l-3.636,0c0.144,-1.128 0.804,-1.788 1.872,-1.788Z"
              style="fill:#00030d;fill-opacity:0.803922;fill-rule:nonzero;"/>
        <path d="M227.315,322.361c-0.336,0 -0.456,-0.144 -0.456,-0.432l0,-2.952c0,-1.392 -0.996,-2.04 -2.364,-2.04c-1.164,0 -2.112,0.576 -2.424,1.464l0.708,0.516c0.324,-0.756 0.924,-1.14 1.716,-1.14c0.9,0 1.404,0.528 1.404,1.32l0,0.336l-1.596,0.264c-1.548,0.264 -2.34,0.972 -2.34,1.872c0,1.08 0.912,1.608 2.04,1.608c0.768,0 1.548,-0.324 1.932,-0.888c0.108,0.672 0.492,0.888 1.08,0.888c0.3,0 0.552,-0.06 0.72,-0.12l0.06,-0.756c-0.144,0.036 -0.324,0.06 -0.48,0.06Zm-3.264,-0.024c-0.684,0 -1.092,-0.264 -1.092,-0.768c0,-0.564 0.54,-0.912 1.596,-1.104l1.344,-0.252l0,0.828c0,0.792 -0.888,1.296 -1.848,1.296Z"
              style="fill:#00030d;fill-opacity:0.803922;fill-rule:nonzero;"/>
        <path d="M232.019,316.937c-0.936,0 -1.584,0.372 -1.92,1.104l-0.132,-0.984l-0.78,0l0,6l0.96,0l0,-3.24c0,-1.344 0.864,-1.98 1.584,-1.98c0.312,0 0.576,0.06 0.756,0.156l0.192,-0.936c-0.18,-0.096 -0.456,-0.12 -0.66,-0.12Z"
              style="fill:#00030d;fill-opacity:0.803922;fill-rule:nonzero;"/>
        <path d="M236.423,316.937c-1.812,0 -2.904,1.176 -2.904,3.12c0,1.944 1.092,3.12 2.904,3.12c1.272,0 2.136,-0.66 2.544,-1.764l-0.888,-0.312c-0.18,0.792 -0.744,1.236 -1.68,1.236c-1.2,0 -1.92,-0.852 -1.92,-2.28c0,-1.428 0.72,-2.28 1.92,-2.28c0.828,0 1.344,0.42 1.596,1.188l0.912,-0.432c-0.444,-0.984 -1.248,-1.596 -2.484,-1.596Z"
              style="fill:#00030d;fill-opacity:0.803922;fill-rule:nonzero;"/>
        <path d="M243.575,316.937c-0.816,0 -1.536,0.3 -1.956,1.02l0,-3.66l-0.96,0l0,8.76l0.96,0l0,-3.18c0,-1.536 0.984,-2.1 1.86,-2.1c0.828,0 1.476,0.444 1.476,1.776l0,3.504l0.96,0l0,-3.84c0,-1.548 -1.056,-2.28 -2.34,-2.28Z"
              style="fill:#00030d;fill-opacity:0.803922;fill-rule:nonzero;"/>
    </g>

</svg>
