<?xml version="1.0" encoding="UTF-8" standalone="no"?>
<!DOCTYPE svg PUBLIC "-//W3C//DTD SVG 1.1//EN" "http://www.w3.org/Graphics/SVG/1.1/DTD/svg11.dtd">
<svg xmlns:xlink="http://www.w3.org/1999/xlink" xmlns:serif="http://www.serif.com/" width="180px" height="380px" version="1.1" xmlns="http://www.w3.org/2000/svg" xml:space="preserve" style="fill-rule:evenodd;clip-rule:evenodd;stroke-linejoin:round;stroke-miterlimit:1.41421;">
    <g id="Background" transform="matrix(1,0,0,1,0,-196.458)">
        <rect x="-0.01" y="196.458" width="180" height="380" style="fill:#161616;"/>
    </g>
    <g id="LOGO">
        <path d="M64.162,361.77l1.279,0l0,2.979l2.846,0l0,1.02l-4.125,0l0,-3.999Z" style="fill:#fff;fill-rule:nonzero;"/>
        <rect x="68.564" y="361.77" width="1.279" height="3.998" style="fill:#fff;"/>
        <path d="M70.404,361.77l2.137,0l2.096,2.982l0.125,0l-0.029,-2.982l1.24,0l0,3.998l-2.119,0l-2.104,-2.982l-0.132,0l0.026,2.982l-1.24,0l0,-3.998Z" style="fill:#fff;fill-rule:nonzero;"/>
        <path d="M76.531,365.768l0,-3.998l2.886,0c0.627,0 1.032,0.012 1.216,0.031c0.355,0.041 0.617,0.135 0.785,0.275c0.18,0.156 0.298,0.408 0.354,0.76c0.027,0.166 0.041,0.455 0.041,0.867c0,0.527 -0.021,0.895 -0.068,1.104c-0.062,0.281 -0.17,0.488 -0.316,0.621c-0.1,0.092 -0.221,0.16 -0.361,0.207c-0.144,0.047 -0.336,0.082 -0.578,0.105c-0.19,0.02 -0.547,0.023 -1.065,0.023l-2.894,0.005Zm1.201,-1.02l1.695,0c0.344,0 0.602,-0.018 0.771,-0.041c0.188,-0.031 0.309,-0.139 0.356,-0.312c0.036,-0.129 0.055,-0.332 0.055,-0.607c0,-0.297 -0.02,-0.516 -0.059,-0.65c-0.047,-0.174 -0.154,-0.279 -0.322,-0.314c-0.133,-0.029 -0.402,-0.049 -0.812,-0.049l-1.686,0l0.002,1.973Z" style="fill:#fff;fill-rule:nonzero;"/>
        <path d="M82.292,361.77l4.431,0l0,0.939l-3.229,0l0,0.578l3.063,0l0,0.879l-3.063,0l0,0.641l3.252,0l0,0.961l-4.453,0l0,-3.998l-0.001,0Z" style="fill:#fff;fill-rule:nonzero;"/>
        <path d="M87.126,361.77l2.138,0l2.094,2.982l0.127,0l-0.029,-2.982l1.238,0l0,3.998l-2.117,0l-2.104,-2.982l-0.134,0l0.026,2.982l-1.239,0l0,-3.998Z" style="fill:#fff;fill-rule:nonzero;"/>
        <path d="M93.252,365.768l0,-3.998l2.875,0c0.611,0.002 0.975,0.008 1.09,0.016c0.262,0.02 0.453,0.062 0.576,0.145c0.143,0.09 0.232,0.213 0.275,0.371c0.039,0.148 0.059,0.318 0.059,0.512c0,0.232 -0.021,0.41 -0.066,0.529c-0.074,0.189 -0.229,0.322 -0.473,0.396c0.18,0.029 0.311,0.074 0.396,0.135c0.195,0.133 0.293,0.404 0.293,0.826c0,0.324 -0.051,0.564 -0.152,0.727c-0.09,0.137 -0.227,0.229 -0.41,0.277c-0.154,0.041 -0.418,0.062 -0.783,0.062l-0.795,0.008l-2.885,-0.006Zm1.162,-2.422l1.717,0c0.377,0 0.602,-0.016 0.674,-0.045c0.096,-0.037 0.146,-0.133 0.146,-0.287c0,-0.156 -0.061,-0.252 -0.176,-0.283c-0.045,-0.012 -0.26,-0.02 -0.645,-0.021l-1.717,0l0,0.636l0.001,0Zm0,1.461l1.723,0c0.32,-0.002 0.51,-0.004 0.564,-0.006c0.178,-0.008 0.291,-0.043 0.34,-0.104c0.037,-0.051 0.057,-0.129 0.057,-0.23c0,-0.168 -0.061,-0.271 -0.182,-0.297c-0.043,-0.016 -0.303,-0.02 -0.779,-0.02l-1.723,0l0,0.657Z" style="fill:#fff;fill-rule:nonzero;"/>
        <path d="M98.699,361.77l4.43,0l0,0.939l-3.229,0l0,0.578l3.062,0l0,0.879l-3.062,0l0,0.641l3.252,0l0,0.961l-4.453,0l0,-3.998Z" style="fill:#fff;fill-rule:nonzero;"/>
        <path d="M103.533,365.768l0,-3.998l2.945,0c0.691,0.002 1.104,0.01 1.229,0.021c0.145,0.014 0.273,0.055 0.389,0.125c0.115,0.064 0.207,0.152 0.271,0.264c0.066,0.115 0.105,0.236 0.119,0.361c0.018,0.146 0.025,0.318 0.025,0.525c0,0.326 -0.021,0.559 -0.066,0.688c-0.068,0.188 -0.197,0.32 -0.387,0.396c-0.064,0.023 -0.16,0.049 -0.289,0.066c0.256,0.02 0.438,0.092 0.551,0.221c0.049,0.057 0.082,0.119 0.104,0.193c0.021,0.07 0.035,0.182 0.041,0.318c0.002,0.07 0.004,0.223 0.004,0.439l0,0.373l-1.201,0l0,-0.215c0,-0.238 -0.012,-0.408 -0.031,-0.514c-0.029,-0.146 -0.109,-0.234 -0.236,-0.268c-0.084,-0.018 -0.26,-0.023 -0.527,-0.023l-1.719,0l0,1.02l-1.222,0.008Zm1.219,-2.016l1.713,0c0.258,-0.004 0.408,-0.01 0.455,-0.014c0.172,-0.012 0.279,-0.062 0.324,-0.156c0.031,-0.066 0.047,-0.182 0.047,-0.34c0,-0.137 -0.014,-0.234 -0.041,-0.305c-0.041,-0.1 -0.139,-0.148 -0.295,-0.164c-0.055,-0.006 -0.219,-0.008 -0.492,-0.01l-1.711,0l0,0.989Z" style="fill:#fff;fill-rule:nonzero;"/>
        <path d="M111.379,363.5l2.785,0c0.004,0.088 0.006,0.146 0.006,0.17c0,0.521 -0.014,0.928 -0.043,1.213c-0.047,0.461 -0.309,0.74 -0.785,0.838c-0.246,0.051 -0.516,0.078 -0.809,0.09c-0.312,0.012 -0.68,0.018 -1.105,0.018c-0.756,0 -1.295,-0.023 -1.619,-0.08c-0.449,-0.072 -0.729,-0.279 -0.834,-0.619c-0.055,-0.166 -0.084,-0.355 -0.092,-0.572c-0.01,-0.27 -0.016,-0.557 -0.016,-0.859c0,-0.518 0.025,-0.877 0.074,-1.088c0.066,-0.289 0.188,-0.494 0.359,-0.613c0.094,-0.062 0.203,-0.111 0.342,-0.146c0.135,-0.033 0.324,-0.062 0.572,-0.084c0.354,-0.029 0.822,-0.047 1.418,-0.047c0.77,0 1.311,0.029 1.627,0.092c0.322,0.062 0.551,0.168 0.682,0.322c0.115,0.139 0.186,0.354 0.211,0.654c0.006,0.078 0.01,0.201 0.01,0.367l-1.219,0c-0.002,-0.105 -0.008,-0.186 -0.021,-0.225c-0.023,-0.1 -0.111,-0.158 -0.26,-0.178c-0.191,-0.025 -0.574,-0.039 -1.145,-0.039c-0.506,0 -0.855,0.018 -1.053,0.051c-0.186,0.033 -0.299,0.135 -0.338,0.307c-0.029,0.129 -0.047,0.355 -0.047,0.688c0,0.379 0.018,0.639 0.051,0.773c0.043,0.188 0.176,0.289 0.398,0.311c0.109,0.012 0.438,0.021 0.99,0.025c0.602,-0.006 0.986,-0.02 1.162,-0.033c0.156,-0.025 0.25,-0.098 0.271,-0.209c0.014,-0.07 0.021,-0.18 0.021,-0.322l-1.604,0l0,-0.801l0.01,0l0,-0.004l0.001,0Z" style="fill:#fff;fill-rule:nonzero;"/>
        <path d="M67.957,372.969l0,-4l2.943,0c0.695,0.002 1.104,0.01 1.229,0.021c0.144,0.018 0.271,0.059 0.39,0.125c0.114,0.068 0.207,0.156 0.271,0.268c0.065,0.113 0.106,0.232 0.12,0.357c0.018,0.146 0.025,0.322 0.025,0.529c0,0.326 -0.021,0.555 -0.066,0.684c-0.068,0.189 -0.197,0.324 -0.387,0.396c-0.064,0.025 -0.162,0.049 -0.291,0.068c0.256,0.02 0.438,0.092 0.552,0.219c0.049,0.059 0.083,0.121 0.104,0.195c0.021,0.068 0.033,0.18 0.041,0.316c0.002,0.072 0.004,0.221 0.004,0.441l0,0.373l-1.201,0l0,-0.215c0,-0.238 -0.012,-0.408 -0.032,-0.516c-0.031,-0.146 -0.11,-0.232 -0.237,-0.266c-0.084,-0.018 -0.261,-0.023 -0.529,-0.023l-1.718,0l0,1.02l-1.218,0.008Zm1.218,-2.016l1.716,0c0.256,-0.004 0.405,-0.01 0.452,-0.014c0.173,-0.01 0.28,-0.062 0.325,-0.156c0.031,-0.064 0.047,-0.182 0.047,-0.338c0,-0.139 -0.014,-0.234 -0.041,-0.307c-0.041,-0.098 -0.14,-0.15 -0.296,-0.164c-0.055,-0.004 -0.219,-0.006 -0.491,-0.008l-1.712,0l0,0.987Z" style="fill:#fff;fill-rule:nonzero;"/>
        <path d="M73.355,368.969l4.431,0l0,0.939l-3.229,0l0,0.576l3.063,0l0,0.879l-3.063,0l0,0.645l3.252,0l0,0.961l-4.453,0l0,-4l-0.001,0Z" style="fill:#fff;fill-rule:nonzero;"/>
        <path d="M78.049,371.645l1.182,0c-0.002,0.197 0.039,0.324 0.121,0.381c0.043,0.027 0.092,0.047 0.146,0.061c0.054,0.01 0.149,0.018 0.287,0.021c0.067,0.002 0.292,0.004 0.671,0.006c0.52,-0.002 0.82,-0.006 0.902,-0.01c0.152,-0.012 0.256,-0.031 0.305,-0.062c0.068,-0.043 0.104,-0.141 0.104,-0.285c0,-0.104 -0.021,-0.174 -0.063,-0.215c-0.06,-0.059 -0.198,-0.088 -0.42,-0.092c-0.151,0 -0.472,-0.014 -0.954,-0.035c-0.5,-0.02 -0.824,-0.035 -0.975,-0.041c-0.387,-0.014 -0.658,-0.059 -0.815,-0.135c-0.203,-0.102 -0.336,-0.271 -0.397,-0.512c-0.035,-0.133 -0.054,-0.307 -0.054,-0.521c0,-0.451 0.086,-0.77 0.259,-0.955c0.129,-0.145 0.323,-0.232 0.586,-0.279c0.235,-0.039 0.799,-0.061 1.688,-0.061c0.576,0 0.984,0.02 1.225,0.053c0.313,0.045 0.541,0.123 0.682,0.23c0.188,0.152 0.279,0.434 0.279,0.828c0,0.043 0,0.111 -0.002,0.205l-1.182,0c-0.004,-0.096 -0.012,-0.162 -0.021,-0.197c-0.026,-0.107 -0.117,-0.172 -0.271,-0.188c-0.136,-0.012 -0.463,-0.02 -0.983,-0.02c-0.517,0 -0.822,0.018 -0.918,0.045c-0.107,0.033 -0.16,0.125 -0.16,0.27c0,0.143 0.058,0.229 0.17,0.26c0.097,0.023 0.525,0.051 1.291,0.072c0.693,0.021 1.138,0.043 1.328,0.072c0.192,0.025 0.346,0.07 0.461,0.133c0.113,0.059 0.205,0.143 0.273,0.248c0.104,0.158 0.154,0.414 0.154,0.766c0,0.396 -0.051,0.684 -0.151,0.863c-0.103,0.184 -0.269,0.307 -0.498,0.373c-0.228,0.064 -0.851,0.1 -1.872,0.1c-0.621,0 -1.068,-0.018 -1.345,-0.049c-0.336,-0.039 -0.577,-0.115 -0.724,-0.23c-0.158,-0.121 -0.252,-0.293 -0.281,-0.516c-0.016,-0.105 -0.023,-0.23 -0.023,-0.383l-0.005,-0.201Z" style="fill:#fff;fill-rule:nonzero;"/>
        <path d="M83.367,368.969l4.43,0l0,0.939l-3.229,0l0,0.576l3.062,0l0,0.879l-3.062,0l0,0.645l3.252,0l0,0.961l-4.453,0l0,-4Z" style="fill:#fff;fill-rule:nonzero;"/>
        <path d="M92.543,372.969l-0.344,-0.678l-2.646,0l-0.343,0.678l-1.394,0l2.121,-4l1.895,0l2.092,4l-1.381,0Zm-0.772,-1.553l-0.771,-1.52l-0.242,0l-0.771,1.52l1.784,0Z" style="fill:#fff;fill-rule:nonzero;"/>
        <path d="M94.107,372.969l0,-4l2.941,0c0.695,0.002 1.105,0.01 1.23,0.021c0.143,0.018 0.271,0.059 0.387,0.125c0.117,0.068 0.207,0.156 0.271,0.268c0.065,0.113 0.104,0.232 0.121,0.357c0.019,0.146 0.024,0.322 0.024,0.529c0,0.326 -0.021,0.555 -0.065,0.684c-0.067,0.189 -0.197,0.324 -0.39,0.396c-0.062,0.025 -0.16,0.049 -0.289,0.068c0.257,0.02 0.438,0.092 0.552,0.219c0.049,0.059 0.084,0.121 0.104,0.195c0.021,0.068 0.035,0.18 0.043,0.316c0.002,0.072 0.002,0.221 0.002,0.441l0,0.373l-1.201,0l0,-0.215c0,-0.238 -0.01,-0.408 -0.029,-0.516c-0.031,-0.146 -0.109,-0.232 -0.236,-0.266c-0.084,-0.018 -0.262,-0.023 -0.531,-0.023l-1.717,0l0,1.02l-1.217,0.008Zm1.219,-2.016l1.713,0c0.256,-0.004 0.408,-0.01 0.455,-0.014c0.172,-0.01 0.279,-0.062 0.324,-0.156c0.031,-0.064 0.047,-0.182 0.047,-0.338c0,-0.139 -0.014,-0.234 -0.041,-0.307c-0.041,-0.098 -0.139,-0.15 -0.295,-0.164c-0.055,-0.004 -0.219,-0.006 -0.492,-0.008l-1.711,0l0,0.987Z" style="fill:#fff;fill-rule:nonzero;"/>
        <path d="M103.332,371.424l1.219,0c0.01,0.193 0.014,0.33 0.014,0.398c0,0.291 -0.047,0.523 -0.139,0.699c-0.096,0.188 -0.277,0.312 -0.549,0.385c-0.295,0.08 -0.805,0.119 -1.527,0.119c-0.801,0 -1.338,-0.014 -1.615,-0.037c-0.258,-0.021 -0.461,-0.057 -0.607,-0.104c-0.146,-0.047 -0.271,-0.115 -0.369,-0.205c-0.131,-0.121 -0.213,-0.281 -0.248,-0.479c-0.037,-0.209 -0.059,-0.609 -0.059,-1.207c0,-0.57 0.014,-0.959 0.043,-1.154c0.043,-0.301 0.158,-0.52 0.35,-0.65c0.146,-0.102 0.375,-0.174 0.691,-0.217c0.326,-0.043 0.916,-0.062 1.766,-0.062c0.51,0 0.867,0.014 1.082,0.031c0.324,0.029 0.562,0.094 0.709,0.188c0.186,0.111 0.303,0.279 0.352,0.5c0.035,0.154 0.053,0.338 0.053,0.543c0,0.031 -0.002,0.109 -0.004,0.229l-1.219,0c-0.004,-0.098 -0.008,-0.162 -0.014,-0.197c-0.016,-0.119 -0.066,-0.191 -0.16,-0.227c-0.141,-0.049 -0.52,-0.07 -1.139,-0.07c-0.422,0 -0.713,0.014 -0.873,0.035c-0.191,0.025 -0.312,0.135 -0.359,0.318c-0.037,0.146 -0.059,0.393 -0.059,0.727c0,0.346 0.021,0.582 0.059,0.713c0.047,0.17 0.176,0.271 0.387,0.297c0.172,0.02 0.473,0.031 0.904,0.031c0.467,0 0.783,-0.012 0.955,-0.029c0.158,-0.018 0.262,-0.072 0.305,-0.172c0.03,-0.083 0.047,-0.216 0.051,-0.403Z" style="fill:#fff;fill-rule:nonzero;"/>
        <path d="M104.984,368.969l1.281,0l0,1.432l2.75,0l0,-1.432l1.279,0l0,4l-1.279,0l0,-1.451l-2.75,0l0,1.451l-1.281,0l0,-4Z" style="fill:#fff;fill-rule:nonzero;"/>
    </g>
    <g id="Description" transform="matrix(1,0,0,1,-11.8702,-23.6105)">
        <path d="M30.182,63.142l-1.472,0l-1.8,-5.328l1.376,0l1.16,4.056l1.16,-4.056l1.376,0l-1.8,5.328Z" style="fill:#fff;fill-rule:nonzero;stroke:#fff;stroke-width:0.4px;"/>
        <path d="M38.014,60.478c0,0.379 -0.061,0.735 -0.184,1.068c-0.122,0.334 -0.3,0.626 -0.532,0.876c-0.232,0.251 -0.516,0.45 -0.852,0.596c-0.336,0.147 -0.72,0.22 -1.152,0.22c-0.432,0 -0.817,-0.073 -1.156,-0.22c-0.338,-0.146 -0.624,-0.345 -0.856,-0.596c-0.232,-0.25 -0.408,-0.542 -0.528,-0.876c-0.12,-0.333 -0.18,-0.689 -0.18,-1.068c0,-0.378 0.06,-0.734 0.18,-1.068c0.12,-0.333 0.296,-0.625 0.528,-0.876c0.232,-0.25 0.518,-0.449 0.856,-0.596c0.339,-0.146 0.724,-0.22 1.156,-0.22c0.432,0 0.816,0.074 1.152,0.22c0.336,0.147 0.62,0.346 0.852,0.596c0.232,0.251 0.41,0.543 0.532,0.876c0.123,0.334 0.184,0.69 0.184,1.068Zm-2.72,1.72c0.23,0 0.432,-0.042 0.608,-0.128c0.176,-0.085 0.324,-0.204 0.444,-0.356c0.12,-0.152 0.21,-0.333 0.268,-0.544c0.059,-0.21 0.088,-0.441 0.088,-0.692c0,-0.25 -0.029,-0.481 -0.088,-0.692c-0.058,-0.21 -0.148,-0.392 -0.268,-0.544c-0.12,-0.152 -0.268,-0.27 -0.444,-0.356c-0.176,-0.085 -0.378,-0.128 -0.608,-0.128c-0.234,0 -0.438,0.043 -0.612,0.128c-0.173,0.086 -0.32,0.204 -0.44,0.356c-0.12,0.152 -0.209,0.334 -0.268,0.544c-0.058,0.211 -0.088,0.442 -0.088,0.692c0,0.251 0.03,0.482 0.088,0.692c0.059,0.211 0.148,0.392 0.268,0.544c0.12,0.152 0.267,0.271 0.44,0.356c0.174,0.086 0.378,0.128 0.612,0.128Z" style="fill:#fff;fill-rule:nonzero;stroke:#fff;stroke-width:0.4px;"/>
        <path d="M40.518,57.814l0,4.288l1.96,0l0,1.04l-3.272,0l0,-5.328l1.312,0Z" style="fill:#fff;fill-rule:nonzero;stroke:#fff;stroke-width:0.4px;"/>
        <path d="M46.95,57.814l0,1.04l-1.432,0l0,4.288l-1.312,0l0,-4.288l-1.432,0l0,-1.04l4.176,0Z" style="fill:#fff;fill-rule:nonzero;stroke:#fff;stroke-width:0.4px;"/>
        <path d="M50.918,62.11l-2.04,0l-0.328,1.032l-1.352,0l1.984,-5.328l1.44,0l1.984,5.328l-1.352,0l-0.336,-1.032Zm-1.704,-1.04l1.368,0l-0.68,-2.248l-0.688,2.248Z" style="fill:#fff;fill-rule:nonzero;stroke:#fff;stroke-width:0.4px;"/>
        <path d="M56.118,57.718c0.694,0 1.275,0.11 1.744,0.328l-0.176,0.992c-0.458,-0.181 -0.938,-0.272 -1.44,-0.272c-0.266,0 -0.506,0.035 -0.72,0.104c-0.213,0.07 -0.396,0.178 -0.548,0.324c-0.152,0.147 -0.269,0.334 -0.352,0.56c-0.082,0.227 -0.124,0.498 -0.124,0.812c0,0.555 0.146,0.974 0.436,1.256c0.291,0.283 0.719,0.424 1.284,0.424c0.123,0 0.24,-0.009 0.352,-0.028c0.112,-0.018 0.206,-0.041 0.28,-0.068l0,-1.488l1.176,0l0,2.192c-0.229,0.112 -0.521,0.204 -0.876,0.276c-0.354,0.072 -0.724,0.108 -1.108,0.108c-0.448,0 -0.848,-0.065 -1.2,-0.196c-0.352,-0.13 -0.65,-0.313 -0.896,-0.548c-0.245,-0.234 -0.433,-0.516 -0.564,-0.844c-0.13,-0.328 -0.196,-0.692 -0.196,-1.092c0,-0.426 0.066,-0.814 0.196,-1.164c0.131,-0.349 0.322,-0.648 0.572,-0.896c0.251,-0.248 0.558,-0.44 0.92,-0.576c0.363,-0.136 0.776,-0.204 1.24,-0.204Z" style="fill:#fff;fill-rule:nonzero;stroke:#fff;stroke-width:0.4px;"/>
        <path d="M59.39,57.814l3.32,0l0,1.04l-2.008,0l0,1.072l1.912,0l0,1.04l-1.912,0l0,1.136l2.032,0l0,1.04l-3.344,0l0,-5.328Z" style="fill:#fff;fill-rule:nonzero;stroke:#fff;stroke-width:0.4px;"/>
        <path d="M68.774,57.718c0.278,0 0.556,0.027 0.836,0.08c0.28,0.054 0.522,0.131 0.724,0.232l-0.192,0.968c-0.16,-0.064 -0.342,-0.118 -0.548,-0.164c-0.205,-0.045 -0.409,-0.068 -0.612,-0.068c-0.544,0 -0.973,0.142 -1.288,0.424c-0.314,0.283 -0.472,0.712 -0.472,1.288c0,0.576 0.158,1.006 0.472,1.288c0.315,0.283 0.744,0.424 1.288,0.424c0.203,0 0.407,-0.022 0.612,-0.068c0.206,-0.045 0.388,-0.1 0.548,-0.164l0.192,0.968c-0.202,0.102 -0.444,0.179 -0.724,0.232c-0.28,0.054 -0.558,0.08 -0.836,0.08c-0.469,0 -0.882,-0.069 -1.24,-0.208c-0.357,-0.138 -0.656,-0.33 -0.896,-0.576c-0.24,-0.245 -0.421,-0.536 -0.544,-0.872c-0.122,-0.336 -0.184,-0.704 -0.184,-1.104c0,-0.4 0.062,-0.768 0.184,-1.104c0.123,-0.336 0.304,-0.626 0.544,-0.872c0.24,-0.245 0.539,-0.437 0.896,-0.576c0.358,-0.138 0.771,-0.208 1.24,-0.208Z" style="fill:#fff;fill-rule:nonzero;stroke:#fff;stroke-width:0.4px;"/>
        <path d="M76.726,60.478c0,0.379 -0.061,0.735 -0.184,1.068c-0.122,0.334 -0.3,0.626 -0.532,0.876c-0.232,0.251 -0.516,0.45 -0.852,0.596c-0.336,0.147 -0.72,0.22 -1.152,0.22c-0.432,0 -0.817,-0.073 -1.156,-0.22c-0.338,-0.146 -0.624,-0.345 -0.856,-0.596c-0.232,-0.25 -0.408,-0.542 -0.528,-0.876c-0.12,-0.333 -0.18,-0.689 -0.18,-1.068c0,-0.378 0.06,-0.734 0.18,-1.068c0.12,-0.333 0.296,-0.625 0.528,-0.876c0.232,-0.25 0.518,-0.449 0.856,-0.596c0.339,-0.146 0.724,-0.22 1.156,-0.22c0.432,0 0.816,0.074 1.152,0.22c0.336,0.147 0.62,0.346 0.852,0.596c0.232,0.251 0.41,0.543 0.532,0.876c0.123,0.334 0.184,0.69 0.184,1.068Zm-2.72,1.72c0.23,0 0.432,-0.042 0.608,-0.128c0.176,-0.085 0.324,-0.204 0.444,-0.356c0.12,-0.152 0.21,-0.333 0.268,-0.544c0.059,-0.21 0.088,-0.441 0.088,-0.692c0,-0.25 -0.029,-0.481 -0.088,-0.692c-0.058,-0.21 -0.148,-0.392 -0.268,-0.544c-0.12,-0.152 -0.268,-0.27 -0.444,-0.356c-0.176,-0.085 -0.378,-0.128 -0.608,-0.128c-0.234,0 -0.438,0.043 -0.612,0.128c-0.173,0.086 -0.32,0.204 -0.44,0.356c-0.12,0.152 -0.209,0.334 -0.268,0.544c-0.058,0.211 -0.088,0.442 -0.088,0.692c0,0.251 0.03,0.482 0.088,0.692c0.059,0.211 0.148,0.392 0.268,0.544c0.12,0.152 0.267,0.271 0.44,0.356c0.174,0.086 0.378,0.128 0.612,0.128Z" style="fill:#fff;fill-rule:nonzero;stroke:#fff;stroke-width:0.4px;"/>
        <path d="M81.382,63.142l-2.2,-3.176l0,3.176l-1.264,0l0,-5.328l1.264,0l2.2,3.176l0,-3.176l1.264,0l0,5.328l-1.264,0Z" style="fill:#fff;fill-rule:nonzero;stroke:#fff;stroke-width:0.4px;"/>
        <path d="M87.854,57.814l0,1.04l-1.432,0l0,4.288l-1.312,0l0,-4.288l-1.432,0l0,-1.04l4.176,0Z" style="fill:#fff;fill-rule:nonzero;stroke:#fff;stroke-width:0.4px;"/>
        <path d="M92.902,59.502c0,0.358 -0.1,0.67 -0.3,0.936c-0.2,0.267 -0.478,0.47 -0.836,0.608l1.752,2.096l-1.616,0l-1.464,-1.848l-0.24,0l0,1.848l-1.312,0l0,-5.328l1.696,0c0.331,0 0.638,0.035 0.92,0.104c0.283,0.07 0.528,0.174 0.736,0.312c0.208,0.139 0.371,0.314 0.488,0.524c0.118,0.211 0.176,0.46 0.176,0.748Zm-1.264,0.024c0,-0.24 -0.093,-0.417 -0.28,-0.532c-0.186,-0.114 -0.448,-0.172 -0.784,-0.172l-0.376,0l0,1.496l0.32,0c0.352,0 0.627,-0.069 0.824,-0.208c0.198,-0.138 0.296,-0.333 0.296,-0.584Z" style="fill:#fff;fill-rule:nonzero;stroke:#fff;stroke-width:0.4px;"/>
        <path d="M99.526,60.478c0,0.379 -0.061,0.735 -0.184,1.068c-0.122,0.334 -0.3,0.626 -0.532,0.876c-0.232,0.251 -0.516,0.45 -0.852,0.596c-0.336,0.147 -0.72,0.22 -1.152,0.22c-0.432,0 -0.817,-0.073 -1.156,-0.22c-0.338,-0.146 -0.624,-0.345 -0.856,-0.596c-0.232,-0.25 -0.408,-0.542 -0.528,-0.876c-0.12,-0.333 -0.18,-0.689 -0.18,-1.068c0,-0.378 0.06,-0.734 0.18,-1.068c0.12,-0.333 0.296,-0.625 0.528,-0.876c0.232,-0.25 0.518,-0.449 0.856,-0.596c0.339,-0.146 0.724,-0.22 1.156,-0.22c0.432,0 0.816,0.074 1.152,0.22c0.336,0.147 0.62,0.346 0.852,0.596c0.232,0.251 0.41,0.543 0.532,0.876c0.123,0.334 0.184,0.69 0.184,1.068Zm-2.72,1.72c0.23,0 0.432,-0.042 0.608,-0.128c0.176,-0.085 0.324,-0.204 0.444,-0.356c0.12,-0.152 0.21,-0.333 0.268,-0.544c0.059,-0.21 0.088,-0.441 0.088,-0.692c0,-0.25 -0.029,-0.481 -0.088,-0.692c-0.058,-0.21 -0.148,-0.392 -0.268,-0.544c-0.12,-0.152 -0.268,-0.27 -0.444,-0.356c-0.176,-0.085 -0.378,-0.128 -0.608,-0.128c-0.234,0 -0.438,0.043 -0.612,0.128c-0.173,0.086 -0.32,0.204 -0.44,0.356c-0.12,0.152 -0.209,0.334 -0.268,0.544c-0.058,0.211 -0.088,0.442 -0.088,0.692c0,0.251 0.03,0.482 0.088,0.692c0.059,0.211 0.148,0.392 0.268,0.544c0.12,0.152 0.267,0.271 0.44,0.356c0.174,0.086 0.378,0.128 0.612,0.128Z" style="fill:#fff;fill-rule:nonzero;stroke:#fff;stroke-width:0.4px;"/>
        <path d="M102.03,57.814l0,4.288l1.96,0l0,1.04l-3.272,0l0,-5.328l1.312,0Z" style="fill:#fff;fill-rule:nonzero;stroke:#fff;stroke-width:0.4px;"/>
        <path d="M106.366,57.814l0,4.288l1.96,0l0,1.04l-3.272,0l0,-5.328l1.312,0Z" style="fill:#fff;fill-rule:nonzero;stroke:#fff;stroke-width:0.4px;"/>
        <path d="M109.39,57.814l3.32,0l0,1.04l-2.008,0l0,1.072l1.912,0l0,1.04l-1.912,0l0,1.136l2.032,0l0,1.04l-3.344,0l0,-5.328Z" style="fill:#fff;fill-rule:nonzero;stroke:#fff;stroke-width:0.4px;"/>
        <path d="M114.038,57.814l1.624,0c0.47,0 0.9,0.067 1.292,0.2c0.392,0.134 0.727,0.318 1.004,0.552c0.278,0.235 0.494,0.516 0.648,0.844c0.155,0.328 0.232,0.684 0.232,1.068c0,0.384 -0.077,0.74 -0.232,1.068c-0.154,0.328 -0.37,0.61 -0.648,0.844c-0.277,0.235 -0.612,0.419 -1.004,0.552c-0.392,0.134 -0.822,0.2 -1.292,0.2l-1.624,0l0,-5.328Zm1.704,4.288c0.267,0 0.51,-0.037 0.728,-0.112c0.219,-0.074 0.407,-0.181 0.564,-0.32c0.158,-0.138 0.279,-0.308 0.364,-0.508c0.086,-0.2 0.128,-0.428 0.128,-0.684c0,-0.256 -0.042,-0.484 -0.128,-0.684c-0.085,-0.2 -0.206,-0.369 -0.364,-0.508c-0.157,-0.138 -0.345,-0.245 -0.564,-0.32c-0.218,-0.074 -0.461,-0.112 -0.728,-0.112l-0.392,0l0,3.248l0.392,0Z" style="fill:#fff;fill-rule:nonzero;stroke:#fff;stroke-width:0.4px;"/>
        <path d="M122.102,57.814l1.624,0c0.47,0 0.9,0.067 1.292,0.2c0.392,0.134 0.727,0.318 1.004,0.552c0.278,0.235 0.494,0.516 0.648,0.844c0.155,0.328 0.232,0.684 0.232,1.068c0,0.384 -0.077,0.74 -0.232,1.068c-0.154,0.328 -0.37,0.61 -0.648,0.844c-0.277,0.235 -0.612,0.419 -1.004,0.552c-0.392,0.134 -0.822,0.2 -1.292,0.2l-1.624,0l0,-5.328Zm1.704,4.288c0.267,0 0.51,-0.037 0.728,-0.112c0.219,-0.074 0.407,-0.181 0.564,-0.32c0.158,-0.138 0.279,-0.308 0.364,-0.508c0.086,-0.2 0.128,-0.428 0.128,-0.684c0,-0.256 -0.042,-0.484 -0.128,-0.684c-0.085,-0.2 -0.206,-0.369 -0.364,-0.508c-0.157,-0.138 -0.345,-0.245 -0.564,-0.32c-0.218,-0.074 -0.461,-0.112 -0.728,-0.112l-0.392,0l0,3.248l0.392,0Z" style="fill:#fff;fill-rule:nonzero;stroke:#fff;stroke-width:0.4px;"/>
        <rect x="128.086" y="57.814" width="1.312" height="5.328" style="fill:#fff;fill-rule:nonzero;stroke:#fff;stroke-width:0.4px;"/>
        <path d="M136.07,60.478c0,0.379 -0.061,0.735 -0.184,1.068c-0.122,0.334 -0.3,0.626 -0.532,0.876c-0.232,0.251 -0.516,0.45 -0.852,0.596c-0.336,0.147 -0.72,0.22 -1.152,0.22c-0.432,0 -0.817,-0.073 -1.156,-0.22c-0.338,-0.146 -0.624,-0.345 -0.856,-0.596c-0.232,-0.25 -0.408,-0.542 -0.528,-0.876c-0.12,-0.333 -0.18,-0.689 -0.18,-1.068c0,-0.378 0.06,-0.734 0.18,-1.068c0.12,-0.333 0.296,-0.625 0.528,-0.876c0.232,-0.25 0.518,-0.449 0.856,-0.596c0.339,-0.146 0.724,-0.22 1.156,-0.22c0.432,0 0.816,0.074 1.152,0.22c0.336,0.147 0.62,0.346 0.852,0.596c0.232,0.251 0.41,0.543 0.532,0.876c0.123,0.334 0.184,0.69 0.184,1.068Zm-2.72,1.72c0.23,0 0.432,-0.042 0.608,-0.128c0.176,-0.085 0.324,-0.204 0.444,-0.356c0.12,-0.152 0.21,-0.333 0.268,-0.544c0.059,-0.21 0.088,-0.441 0.088,-0.692c0,-0.25 -0.029,-0.481 -0.088,-0.692c-0.058,-0.21 -0.148,-0.392 -0.268,-0.544c-0.12,-0.152 -0.268,-0.27 -0.444,-0.356c-0.176,-0.085 -0.378,-0.128 -0.608,-0.128c-0.234,0 -0.438,0.043 -0.612,0.128c-0.173,0.086 -0.32,0.204 -0.44,0.356c-0.12,0.152 -0.209,0.334 -0.268,0.544c-0.058,0.211 -0.088,0.442 -0.088,0.692c0,0.251 0.03,0.482 0.088,0.692c0.059,0.211 0.148,0.392 0.268,0.544c0.12,0.152 0.267,0.271 0.44,0.356c0.174,0.086 0.378,0.128 0.612,0.128Z" style="fill:#fff;fill-rule:nonzero;stroke:#fff;stroke-width:0.4px;"/>
        <path d="M137.262,57.814l1.624,0c0.47,0 0.9,0.067 1.292,0.2c0.392,0.134 0.727,0.318 1.004,0.552c0.278,0.235 0.494,0.516 0.648,0.844c0.155,0.328 0.232,0.684 0.232,1.068c0,0.384 -0.077,0.74 -0.232,1.068c-0.154,0.328 -0.37,0.61 -0.648,0.844c-0.277,0.235 -0.612,0.419 -1.004,0.552c-0.392,0.134 -0.822,0.2 -1.292,0.2l-1.624,0l0,-5.328Zm1.704,4.288c0.267,0 0.51,-0.037 0.728,-0.112c0.219,-0.074 0.407,-0.181 0.564,-0.32c0.158,-0.138 0.279,-0.308 0.364,-0.508c0.086,-0.2 0.128,-0.428 0.128,-0.684c0,-0.256 -0.042,-0.484 -0.128,-0.684c-0.085,-0.2 -0.206,-0.369 -0.364,-0.508c-0.157,-0.138 -0.345,-0.245 -0.564,-0.32c-0.218,-0.074 -0.461,-0.112 -0.728,-0.112l-0.392,0l0,3.248l0.392,0Z" style="fill:#fff;fill-rule:nonzero;stroke:#fff;stroke-width:0.4px;"/>
        <path d="M143.206,57.814l3.32,0l0,1.04l-2.008,0l0,1.072l1.912,0l0,1.04l-1.912,0l0,1.136l2.032,0l0,1.04l-3.344,0l0,-5.328Z" style="fill:#fff;fill-rule:nonzero;stroke:#fff;stroke-width:0.4px;"/>
        <path d="M149.974,63.142l0,-5.328l3.352,0l0,1.04l-2.04,0l0,1.208l1.944,0l0,1.04l-1.944,0l0,2.04l-1.312,0Z" style="fill:#fff;fill-rule:nonzero;stroke:#fff;stroke-width:0.4px;"/>
        <rect x="154.526" y="57.814" width="1.312" height="5.328" style="fill:#fff;fill-rule:nonzero;stroke:#fff;stroke-width:0.4px;"/>
        <path d="M158.63,57.814l0,4.288l1.96,0l0,1.04l-3.272,0l0,-5.328l1.312,0Z" style="fill:#fff;fill-rule:nonzero;stroke:#fff;stroke-width:0.4px;"/>
        <path d="M165.062,57.814l0,1.04l-1.432,0l0,4.288l-1.312,0l0,-4.288l-1.432,0l0,-1.04l4.176,0Z" style="fill:#fff;fill-rule:nonzero;stroke:#fff;stroke-width:0.4px;"/>
        <path d="M166.094,57.814l3.32,0l0,1.04l-2.008,0l0,1.072l1.912,0l0,1.04l-1.912,0l0,1.136l2.032,0l0,1.04l-3.344,0l0,-5.328Z" style="fill:#fff;fill-rule:nonzero;stroke:#fff;stroke-width:0.4px;"/>
        <path d="M174.758,59.502c0,0.358 -0.1,0.67 -0.3,0.936c-0.2,0.267 -0.478,0.47 -0.836,0.608l1.752,2.096l-1.616,0l-1.464,-1.848l-0.24,0l0,1.848l-1.312,0l0,-5.328l1.696,0c0.331,0 0.638,0.035 0.92,0.104c0.283,0.07 0.528,0.174 0.736,0.312c0.208,0.139 0.371,0.314 0.488,0.524c0.118,0.211 0.176,0.46 0.176,0.748Zm-1.264,0.024c0,-0.24 -0.093,-0.417 -0.28,-0.532c-0.186,-0.114 -0.448,-0.172 -0.784,-0.172l-0.376,0l0,1.496l0.32,0c0.352,0 0.627,-0.069 0.824,-0.208c0.198,-0.138 0.296,-0.333 0.296,-0.584Z" style="fill:#fff;fill-rule:nonzero;stroke:#fff;stroke-width:0.4px;"/>
    </g>
    <g id="Name" transform="matrix(1.13333,0,0,1.13333,-34.2113,-63.1633)">
        <g transform="matrix(1.01712,0,0,1.01712,41.2688,-26.2632)">
            <path d="M49.252,103.43l0,-2.905l-2.288,0l0,-10.455l-0.117,0l0,10.455l-0.251,0l0,-10.455l-0.133,0l0,10.455l-0.251,0l0,-10.455l-0.117,0l0,10.455l-0.25,0l0,-10.455l-0.134,0l0,10.455l-0.25,0l0,-10.455l-0.117,0l0,10.455l-0.251,0l0,-10.455l-0.133,0l0,10.455l-0.251,0l0,-10.455l-0.117,0l0,10.455l-0.25,0l0,-10.455l-0.134,0l0,10.455l-0.25,0l0,-10.455l-0.117,0l0,10.455l-0.251,0l0,-10.455l-0.133,0l0,10.455l-0.251,0l0,-10.455l-0.117,0l0,10.455l-0.25,0l0,-10.455l-0.134,0l0,10.455l-0.25,0l0,-10.455l-0.117,0l0,10.455l-0.251,0l0,-10.455l-0.133,0l0,10.455l-0.251,0l0,-10.455l-0.117,0l0,10.455l-0.25,0l0,-10.455l-0.117,0l0,10.455l-0.267,0l0,-10.455l-0.117,0l0,10.455l-0.05,0l0,2.905l8.467,0Zm-8.684,0l0,-13.36l-3.023,0l0,13.36l3.023,0Z" style="fill-rule:nonzero;"/>
            <path d="M65.618,103.43l-7.415,-13.694l-7.098,13.694l3.374,0l1.419,-2.805l4.81,0l1.536,2.805l3.374,0Zm-7.265,-7.064l-0.3,0l0.15,-0.284l0.15,0.284Zm0.217,0.384l-0.701,0l0.134,-0.25l0.417,0l0.15,0.25Zm0.201,0.368l-1.086,0l0.117,-0.251l0.835,0l0.134,0.251Zm0.2,0.384l-1.486,0l0.133,-0.267l1.22,0l0.133,0.267Zm0.217,0.367l-1.887,0l0.117,-0.25l1.637,0l0.133,0.25Zm0.201,0.368l-2.288,0l0.133,-0.251l2.021,0l0.134,0.251Zm0.217,0.384l-2.689,0l0.134,-0.251l2.404,0l0.151,0.251Zm0.2,0.367l-3.073,0l0.117,-0.25l2.823,0l0.133,0.25Zm0.201,0.384l-3.474,0l0.134,-0.25l3.206,0l0.134,0.25Zm0.217,0.368l-3.875,0l0.117,-0.251l3.607,0l0.151,0.251Zm0.2,0.384l-4.275,0l0.133,-0.251l4.008,0l0.134,0.251Zm0.2,0.367l-4.659,0l0.134,-0.25l4.392,0l0.133,0.25Z" style="fill-rule:nonzero;"/>
            <path d="M67.505,90.07l0,13.36l0.117,0l0,-10.454l0.25,0l0,10.454l0.134,0l0,-10.454l0.25,0l0,10.454l0.117,0l0,-10.454l0.251,0l0,10.454l0.133,0l0,-10.454l0.251,0l0,10.454l0.117,0l0,-10.454l0.25,0l0,10.454l0.134,0l0,-10.454l0.25,0l0,10.454l0.117,0l0,-10.454l0.251,0l0,10.454l0.133,0l0,-10.454l0.251,0l0,10.454l0.167,0l0,-13.36l-3.173,0Z" style="fill-rule:nonzero;"/>
            <path d="M81.099,103.43l-4.626,-6.947l4.075,-6.413l-3.29,0l-0.318,0.501l0,-0.501l-0.133,0l0,0.685l-0.251,0.401l0,-1.086l-0.117,0l0,1.27l-0.25,0.384l0,-1.654l-0.117,0l0,1.854l-0.267,0.384l0,-2.238l-0.117,0l0,2.439l-0.251,0.384l0,-2.823l-0.117,0l0,3.006l-0.25,0.385l0,-3.391l-0.134,0l0,3.591l-0.25,0.384l0,-3.975l-0.117,0l0,4.175l-0.251,0.385l0,-4.56l-0.133,0l0,4.743l-0.251,0.384l0,-5.127l-0.117,0l0,5.328l-0.25,0.384l0,-5.712l-0.134,0l0,5.912l-0.25,0.384l0,-6.296l-0.117,0l0,13.36l0.117,0l0,-6.229l0,-0.451l0.25,0.368l0,6.312l0.134,0l0,-6.128l0.25,0.384l0,5.744l0.117,0l0,-5.561l0.251,0.384l0,5.177l0.133,0l0,-4.993l0.251,0.368l0,4.625l0.117,0l0,-4.442l0.25,0.384l0,4.058l0.134,0l0,-3.874l0.25,0.384l0,3.49l0.117,0l0,-3.306l0.251,0.367l0,2.939l0.117,0l0,-2.738l0.267,0.367l0,2.371l0.117,0l0,-2.187l0.25,0.384l0,1.803l0.117,0l0,-1.619l0.251,0.384l0,1.235l0.133,0l0,-1.052l0.251,0.368l0,0.684l0.117,0l0,-0.501l0.334,0.501l3.457,0Zm-8.284,0l0,-13.36l-0.183,0l0,13.36l0.183,0Z" style="fill-rule:nonzero;"/>
            <path d="M97.481,103.43l-7.414,-13.694l-7.098,13.694l3.373,0l1.42,-2.805l4.81,0l1.536,2.805l3.373,0Zm-7.264,-7.064l-0.301,0l0.151,-0.284l0.15,0.284Zm0.217,0.384l-0.701,0l0.133,-0.25l0.418,0l0.15,0.25Zm0.2,0.368l-1.085,0l0.117,-0.251l0.835,0l0.133,0.251Zm0.201,0.384l-1.487,0l0.134,-0.267l1.219,0l0.134,0.267Zm0.217,0.367l-1.887,0l0.117,-0.25l1.636,0l0.134,0.25Zm0.2,0.368l-2.288,0l0.134,-0.251l2.021,0l0.133,0.251Zm0.217,0.384l-2.688,0l0.133,-0.251l2.405,0l0.15,0.251Zm0.201,0.367l-3.073,0l0.117,-0.25l2.822,0l0.134,0.25Zm0.2,0.384l-3.473,0l0.133,-0.25l3.207,0l0.133,0.25Zm0.217,0.368l-3.874,0l0.117,-0.251l3.607,0l0.15,0.251Zm0.201,0.384l-4.276,0l0.134,-0.251l4.008,0l0.134,0.251Zm0.2,0.367l-4.659,0l0.133,-0.25l4.392,0l0.134,0.25Z" style="fill-rule:nonzero;"/>
        </g>
        <g transform="matrix(1.01712,0,0,1.01712,40.3737,-27.1583)">
            <path d="M49.252,103.43l0,-2.905l-2.288,0l0,-10.455l-0.117,0l0,10.455l-0.251,0l0,-10.455l-0.133,0l0,10.455l-0.251,0l0,-10.455l-0.117,0l0,10.455l-0.25,0l0,-10.455l-0.134,0l0,10.455l-0.25,0l0,-10.455l-0.117,0l0,10.455l-0.251,0l0,-10.455l-0.133,0l0,10.455l-0.251,0l0,-10.455l-0.117,0l0,10.455l-0.25,0l0,-10.455l-0.134,0l0,10.455l-0.25,0l0,-10.455l-0.117,0l0,10.455l-0.251,0l0,-10.455l-0.133,0l0,10.455l-0.251,0l0,-10.455l-0.117,0l0,10.455l-0.25,0l0,-10.455l-0.134,0l0,10.455l-0.25,0l0,-10.455l-0.117,0l0,10.455l-0.251,0l0,-10.455l-0.133,0l0,10.455l-0.251,0l0,-10.455l-0.117,0l0,10.455l-0.25,0l0,-10.455l-0.117,0l0,10.455l-0.267,0l0,-10.455l-0.117,0l0,10.455l-0.05,0l0,2.905l8.467,0Zm-8.684,0l0,-13.36l-3.023,0l0,13.36l3.023,0Z" style="fill:#fff;fill-rule:nonzero;"/>
            <path d="M65.618,103.43l-7.415,-13.694l-7.098,13.694l3.374,0l1.419,-2.805l4.81,0l1.536,2.805l3.374,0Zm-7.265,-7.064l-0.3,0l0.15,-0.284l0.15,0.284Zm0.217,0.384l-0.701,0l0.134,-0.25l0.417,0l0.15,0.25Zm0.201,0.368l-1.086,0l0.117,-0.251l0.835,0l0.134,0.251Zm0.2,0.384l-1.486,0l0.133,-0.267l1.22,0l0.133,0.267Zm0.217,0.367l-1.887,0l0.117,-0.25l1.637,0l0.133,0.25Zm0.201,0.368l-2.288,0l0.133,-0.251l2.021,0l0.134,0.251Zm0.217,0.384l-2.689,0l0.134,-0.251l2.404,0l0.151,0.251Zm0.2,0.367l-3.073,0l0.117,-0.25l2.823,0l0.133,0.25Zm0.201,0.384l-3.474,0l0.134,-0.25l3.206,0l0.134,0.25Zm0.217,0.368l-3.875,0l0.117,-0.251l3.607,0l0.151,0.251Zm0.2,0.384l-4.275,0l0.133,-0.251l4.008,0l0.134,0.251Zm0.2,0.367l-4.659,0l0.134,-0.25l4.392,0l0.133,0.25Z" style="fill:#fff;fill-rule:nonzero;"/>
            <path d="M67.505,90.07l0,13.36l0.117,0l0,-10.454l0.25,0l0,10.454l0.134,0l0,-10.454l0.25,0l0,10.454l0.117,0l0,-10.454l0.251,0l0,10.454l0.133,0l0,-10.454l0.251,0l0,10.454l0.117,0l0,-10.454l0.25,0l0,10.454l0.134,0l0,-10.454l0.25,0l0,10.454l0.117,0l0,-10.454l0.251,0l0,10.454l0.133,0l0,-10.454l0.251,0l0,10.454l0.167,0l0,-13.36l-3.173,0Z" style="fill:#fff;fill-rule:nonzero;"/>
            <path d="M81.099,103.43l-4.626,-6.947l4.075,-6.413l-3.29,0l-0.318,0.501l0,-0.501l-0.133,0l0,0.685l-0.251,0.401l0,-1.086l-0.117,0l0,1.27l-0.25,0.384l0,-1.654l-0.117,0l0,1.854l-0.267,0.384l0,-2.238l-0.117,0l0,2.439l-0.251,0.384l0,-2.823l-0.117,0l0,3.006l-0.25,0.385l0,-3.391l-0.134,0l0,3.591l-0.25,0.384l0,-3.975l-0.117,0l0,4.175l-0.251,0.385l0,-4.56l-0.133,0l0,4.743l-0.251,0.384l0,-5.127l-0.117,0l0,5.328l-0.25,0.384l0,-5.712l-0.134,0l0,5.912l-0.25,0.384l0,-6.296l-0.117,0l0,13.36l0.117,0l0,-6.229l0,-0.451l0.25,0.368l0,6.312l0.134,0l0,-6.128l0.25,0.384l0,5.744l0.117,0l0,-5.561l0.251,0.384l0,5.177l0.133,0l0,-4.993l0.251,0.368l0,4.625l0.117,0l0,-4.442l0.25,0.384l0,4.058l0.134,0l0,-3.874l0.25,0.384l0,3.49l0.117,0l0,-3.306l0.251,0.367l0,2.939l0.117,0l0,-2.738l0.267,0.367l0,2.371l0.117,0l0,-2.187l0.25,0.384l0,1.803l0.117,0l0,-1.619l0.251,0.384l0,1.235l0.133,0l0,-1.052l0.251,0.368l0,0.684l0.117,0l0,-0.501l0.334,0.501l3.457,0Zm-8.284,0l0,-13.36l-0.183,0l0,13.36l0.183,0Z" style="fill:#fff;fill-rule:nonzero;"/>
            <path d="M97.481,103.43l-7.414,-13.694l-7.098,13.694l3.373,0l1.42,-2.805l4.81,0l1.536,2.805l3.373,0Zm-7.264,-7.064l-0.301,0l0.151,-0.284l0.15,0.284Zm0.217,0.384l-0.701,0l0.133,-0.25l0.418,0l0.15,0.25Zm0.2,0.368l-1.085,0l0.117,-0.251l0.835,0l0.133,0.251Zm0.201,0.384l-1.487,0l0.134,-0.267l1.219,0l0.134,0.267Zm0.217,0.367l-1.887,0l0.117,-0.25l1.636,0l0.134,0.25Zm0.2,0.368l-2.288,0l0.134,-0.251l2.021,0l0.133,0.251Zm0.217,0.384l-2.688,0l0.133,-0.251l2.405,0l0.15,0.251Zm0.201,0.367l-3.073,0l0.117,-0.25l2.822,0l0.134,0.25Zm0.2,0.384l-3.473,0l0.133,-0.25l3.207,0l0.133,0.25Zm0.217,0.368l-3.874,0l0.117,-0.251l3.607,0l0.15,0.251Zm0.201,0.384l-4.276,0l0.134,-0.251l4.008,0l0.134,0.251Zm0.2,0.367l-4.659,0l0.133,-0.25l4.392,0l0.134,0.25Z" style="fill:#fff;fill-rule:nonzero;"/>
        </g>
    </g>
</svg>
