<?xml version="1.0" encoding="UTF-8" standalone="no"?>
<!DOCTYPE svg PUBLIC "-//W3C//DTD SVG 1.1//EN" "http://www.w3.org/Graphics/SVG/1.1/DTD/svg11.dtd">
<svg xmlns:xlink="http://www.w3.org/1999/xlink" xmlns:serif="http://www.serif.com/" width="240px" height="380px" version="1.1" xmlns="http://www.w3.org/2000/svg" xml:space="preserve" style="fill-rule:evenodd;clip-rule:evenodd;stroke-linejoin:round;stroke-miterlimit:1.41421;">
    <g id="Background" transform="matrix(1.33333,0,0,1,0.0133333,-196.458)">
        <rect x="-0.01" y="196.458" width="180" height="380" style="fill:#fff;"/>
    </g>
    <g id="Description" transform="matrix(1,0,0,1,30,5)">
        <g transform="matrix(1.64164,0,0,0.728651,-56.2841,-15.1297)">
            <rect x="25.142" y="61.007" width="127.921" height="19.438"/>
        </g>
        <g id="Description1" serif:id="Description" transform="matrix(1.10867,0,0,1.10867,-20.0067,-30.2728)">
            <path d="M30.134,63.142l1.816,-5.392l-1.296,0l-0.688,2.304c-0.184,0.616 -0.352,1.256 -0.488,1.904l-0.024,0c-0.128,-0.672 -0.296,-1.288 -0.48,-1.928l-0.656,-2.28l-1.336,0l1.728,5.392l1.424,0Z" style="fill:#fff;fill-rule:nonzero;"/>
            <path d="M35.262,57.662c-1.584,0 -2.648,1.152 -2.648,2.824c0,1.616 0.992,2.744 2.544,2.744c1.448,0 2.64,-0.984 2.64,-2.792c0,-1.576 -0.904,-2.776 -2.536,-2.776Zm-0.048,0.968c0.896,0 1.296,0.912 1.296,1.824c0,0.976 -0.44,1.808 -1.304,1.808c-0.84,0 -1.304,-0.8 -1.304,-1.808c0,-1 0.456,-1.824 1.312,-1.824Z" style="fill:#fff;fill-rule:nonzero;"/>
            <path d="M38.998,63.142l3.368,0l0,-1.024l-2.144,0l0,-4.368l-1.224,0l0,5.392Z" style="fill:#fff;fill-rule:nonzero;"/>
            <path d="M43.694,63.142l1.224,0l0,-4.368l1.472,0l0,-1.024l-4.144,0l0,1.024l1.448,0l0,4.368Z" style="fill:#fff;fill-rule:nonzero;"/>
            <path d="M49.662,61.758l0.416,1.384l1.312,0l-1.672,-5.392l-1.6,0l-1.648,5.392l1.264,0l0.384,-1.384l1.544,0Zm-1.368,-0.912l0.32,-1.144c0.088,-0.312 0.168,-0.72 0.248,-1.04l0.016,0c0.08,0.32 0.176,0.72 0.272,1.04l0.336,1.144l-1.192,0Z" style="fill:#fff;fill-rule:nonzero;"/>
            <path d="M56.814,60.054l-2.008,0l0,0.952l0.832,0l0,1.128c-0.096,0.048 -0.32,0.08 -0.6,0.08c-1,0 -1.696,-0.656 -1.696,-1.768c0,-1.168 0.768,-1.744 1.784,-1.744c0.592,0 0.96,0.104 1.256,0.232l0.256,-0.976c-0.264,-0.128 -0.8,-0.264 -1.496,-0.264c-1.768,0 -3.072,1.024 -3.08,2.816c-0.008,0.792 0.264,1.496 0.76,1.96c0.496,0.48 1.208,0.728 2.192,0.728c0.712,0 1.424,-0.176 1.8,-0.304l0,-2.84Z" style="fill:#fff;fill-rule:nonzero;"/>
            <path d="M61.374,59.87l-1.984,0l0,-1.12l2.104,0l0,-1l-3.328,0l0,5.392l3.44,0l0,-1l-2.216,0l0,-1.28l1.984,0l0,-0.992Z" style="fill:#fff;fill-rule:nonzero;"/>
            <path d="M68.63,62.038c-0.24,0.096 -0.648,0.176 -1.016,0.176c-1.088,0 -1.728,-0.68 -1.728,-1.76c0,-1.2 0.752,-1.784 1.72,-1.784c0.432,0 0.776,0.096 1.024,0.2l0.248,-0.968c-0.216,-0.112 -0.696,-0.232 -1.328,-0.232c-1.632,0 -2.944,1.016 -2.944,2.856c0,1.536 0.96,2.704 2.824,2.704c0.656,0 1.16,-0.128 1.384,-0.24l-0.184,-0.952Z" style="fill:#fff;fill-rule:nonzero;"/>
            <path d="M72.174,57.662c-1.584,0 -2.648,1.152 -2.648,2.824c0,1.616 0.992,2.744 2.544,2.744c1.448,0 2.64,-0.984 2.64,-2.792c0,-1.576 -0.904,-2.776 -2.536,-2.776Zm-0.048,0.968c0.896,0 1.296,0.912 1.296,1.824c0,0.976 -0.44,1.808 -1.304,1.808c-0.84,0 -1.304,-0.8 -1.304,-1.808c0,-1 0.456,-1.824 1.312,-1.824Z" style="fill:#fff;fill-rule:nonzero;"/>
            <path d="M77.03,63.142l0,-1.624c0,-0.88 -0.016,-1.64 -0.048,-2.352l0.024,-0.008c0.264,0.632 0.616,1.328 0.936,1.904l1.152,2.08l1.28,0l0,-5.392l-1.12,0l0,1.568c0,0.816 0.024,1.544 0.104,2.256l-0.024,0c-0.24,-0.608 -0.56,-1.28 -0.88,-1.848l-1.12,-1.976l-1.424,0l0,5.392l1.12,0Z" style="fill:#fff;fill-rule:nonzero;"/>
            <path d="M82.87,63.142l1.224,0l0,-4.368l1.472,0l0,-1.024l-4.144,0l0,1.024l1.448,0l0,4.368Z" style="fill:#fff;fill-rule:nonzero;"/>
            <path d="M86.614,63.142l1.208,0l0,-2.12l0.368,0c0.496,0.008 0.728,0.192 0.872,0.864c0.16,0.664 0.288,1.104 0.376,1.256l1.248,0c-0.104,-0.208 -0.272,-0.912 -0.44,-1.52c-0.136,-0.496 -0.344,-0.856 -0.72,-1.008l0,-0.024c0.464,-0.168 0.952,-0.64 0.952,-1.328c0,-0.496 -0.176,-0.872 -0.496,-1.128c-0.384,-0.304 -0.944,-0.424 -1.744,-0.424c-0.648,0 -1.232,0.048 -1.624,0.112l0,5.32Zm1.208,-4.488c0.088,-0.016 0.256,-0.04 0.552,-0.04c0.56,0.008 0.896,0.256 0.896,0.752c0,0.472 -0.36,0.776 -0.968,0.776l-0.48,0l0,-1.488Z" style="fill:#fff;fill-rule:nonzero;"/>
            <path d="M94.126,57.662c-1.584,0 -2.648,1.152 -2.648,2.824c0,1.616 0.992,2.744 2.544,2.744c1.448,0 2.64,-0.984 2.64,-2.792c0,-1.576 -0.904,-2.776 -2.536,-2.776Zm-0.048,0.968c0.896,0 1.296,0.912 1.296,1.824c0,0.976 -0.44,1.808 -1.304,1.808c-0.84,0 -1.304,-0.8 -1.304,-1.808c0,-1 0.456,-1.824 1.312,-1.824Z" style="fill:#fff;fill-rule:nonzero;"/>
            <path d="M97.862,63.142l3.368,0l0,-1.024l-2.144,0l0,-4.368l-1.224,0l0,5.392Z" style="fill:#fff;fill-rule:nonzero;"/>
            <path d="M102.35,63.142l3.368,0l0,-1.024l-2.144,0l0,-4.368l-1.224,0l0,5.392Z" style="fill:#fff;fill-rule:nonzero;"/>
            <path d="M110.046,59.87l-1.984,0l0,-1.12l2.104,0l0,-1l-3.328,0l0,5.392l3.44,0l0,-1l-2.216,0l0,-1.28l1.984,0l0,-0.992Z" style="fill:#fff;fill-rule:nonzero;"/>
            <path d="M111.51,63.118c0.304,0.04 0.752,0.08 1.384,0.08c1.056,0 1.92,-0.224 2.488,-0.696c0.52,-0.44 0.896,-1.152 0.896,-2.184c0,-0.952 -0.352,-1.616 -0.912,-2.032c-0.52,-0.392 -1.184,-0.576 -2.208,-0.576c-0.616,0 -1.2,0.04 -1.648,0.112l0,5.296Zm1.224,-4.424c0.104,-0.024 0.28,-0.048 0.552,-0.048c1.048,0 1.704,0.592 1.696,1.712c0,1.288 -0.72,1.896 -1.824,1.888c-0.152,0 -0.32,0 -0.424,-0.024l0,-3.528Z" style="fill:#fff;fill-rule:nonzero;"/>
            <path d="M119.494,63.118c0.304,0.04 0.752,0.08 1.384,0.08c1.056,0 1.92,-0.224 2.488,-0.696c0.52,-0.44 0.896,-1.152 0.896,-2.184c0,-0.952 -0.352,-1.616 -0.912,-2.032c-0.52,-0.392 -1.184,-0.576 -2.208,-0.576c-0.616,0 -1.2,0.04 -1.648,0.112l0,5.296Zm1.224,-4.424c0.104,-0.024 0.28,-0.048 0.552,-0.048c1.048,0 1.704,0.592 1.696,1.712c0,1.288 -0.72,1.896 -1.824,1.888c-0.152,0 -0.32,0 -0.424,-0.024l0,-3.528Z" style="fill:#fff;fill-rule:nonzero;"/>
            <rect x="125.462" y="57.75" width="1.224" height="5.392" style="fill:#fff;fill-rule:nonzero;"/>
            <path d="M130.542,57.662c-1.584,0 -2.648,1.152 -2.648,2.824c0,1.616 0.992,2.744 2.544,2.744c1.448,0 2.64,-0.984 2.64,-2.792c0,-1.576 -0.904,-2.776 -2.536,-2.776Zm-0.048,0.968c0.896,0 1.296,0.912 1.296,1.824c0,0.976 -0.44,1.808 -1.304,1.808c-0.84,0 -1.304,-0.8 -1.304,-1.808c0,-1 0.456,-1.824 1.312,-1.824Z" style="fill:#fff;fill-rule:nonzero;"/>
            <path d="M134.278,63.118c0.304,0.04 0.752,0.08 1.384,0.08c1.056,0 1.92,-0.224 2.488,-0.696c0.52,-0.44 0.896,-1.152 0.896,-2.184c0,-0.952 -0.352,-1.616 -0.912,-2.032c-0.52,-0.392 -1.184,-0.576 -2.208,-0.576c-0.616,0 -1.2,0.04 -1.648,0.112l0,5.296Zm1.224,-4.424c0.104,-0.024 0.28,-0.048 0.552,-0.048c1.048,0 1.704,0.592 1.696,1.712c0,1.288 -0.72,1.896 -1.824,1.888c-0.152,0 -0.32,0 -0.424,-0.024l0,-3.528Z" style="fill:#fff;fill-rule:nonzero;"/>
            <path d="M143.454,59.87l-1.984,0l0,-1.12l2.104,0l0,-1l-3.328,0l0,5.392l3.44,0l0,-1l-2.216,0l0,-1.28l1.984,0l0,-0.992Z" style="fill:#fff;fill-rule:nonzero;"/>
            <path d="M146.934,63.142l1.224,0l0,-2.168l1.936,0l0,-0.992l-1.936,0l0,-1.232l2.072,0l0,-1l-3.296,0l0,5.392Z" style="fill:#fff;fill-rule:nonzero;"/>
            <rect x="151.55" y="57.75" width="1.224" height="5.392" style="fill:#fff;fill-rule:nonzero;"/>
            <path d="M154.23,63.142l3.368,0l0,-1.024l-2.144,0l0,-4.368l-1.224,0l0,5.392Z" style="fill:#fff;fill-rule:nonzero;"/>
            <path d="M158.926,63.142l1.224,0l0,-4.368l1.472,0l0,-1.024l-4.144,0l0,1.024l1.448,0l0,4.368Z" style="fill:#fff;fill-rule:nonzero;"/>
            <path d="M165.878,59.87l-1.984,0l0,-1.12l2.104,0l0,-1l-3.328,0l0,5.392l3.44,0l0,-1l-2.216,0l0,-1.28l1.984,0l0,-0.992Z" style="fill:#fff;fill-rule:nonzero;"/>
            <path d="M167.342,63.142l1.208,0l0,-2.12l0.368,0c0.496,0.008 0.728,0.192 0.872,0.864c0.16,0.664 0.288,1.104 0.376,1.256l1.248,0c-0.104,-0.208 -0.272,-0.912 -0.44,-1.52c-0.136,-0.496 -0.344,-0.856 -0.72,-1.008l0,-0.024c0.464,-0.168 0.952,-0.64 0.952,-1.328c0,-0.496 -0.176,-0.872 -0.496,-1.128c-0.384,-0.304 -0.944,-0.424 -1.744,-0.424c-0.648,0 -1.232,0.048 -1.624,0.112l0,5.32Zm1.208,-4.488c0.088,-0.016 0.256,-0.04 0.552,-0.04c0.56,0.008 0.896,0.256 0.896,0.752c0,0.472 -0.36,0.776 -0.968,0.776l-0.48,0l0,-1.488Z" style="fill:#fff;fill-rule:nonzero;"/>
        </g>
    </g>
    <g id="Name" transform="matrix(1.52909,0,0,1.52909,-46.7022,-93.095)">
        <g transform="matrix(0.918873,0,0,0.918873,52.3877,-18.5318)">
            <path d="M51.59,89.302c0.501,0.023 0.993,0.106 1.478,0.251c0.484,0.145 0.921,0.362 1.311,0.651c0.746,-0.289 1.492,-0.445 2.237,-0.468c1.192,-0.055 2.088,0.073 2.689,0.385c0.601,0.311 0.902,0.768 0.902,1.369c0.011,0.557 -0.17,1.052 -0.543,1.486c-0.373,0.434 -0.86,0.813 -1.461,1.136c-0.601,0.323 -1.275,0.582 -2.021,0.776c-0.746,0.195 -1.497,0.321 -2.254,0.376c-0.624,0.056 -1.228,0.064 -1.812,0.025c-0.585,-0.039 -1.133,-0.131 -1.645,-0.275c-0.111,0.167 -0.217,0.334 -0.317,0.501c-0.101,0.167 -0.206,0.334 -0.318,0.501c-0.256,0.456 -0.534,0.929 -0.835,1.419c-0.3,0.49 -0.612,0.969 -0.935,1.436c-0.323,0.468 -0.66,0.924 -1.01,1.37c-0.351,0.445 -0.721,0.863 -1.111,1.252c0.857,0.123 1.701,0.245 2.53,0.368c0.83,0.122 1.712,0.172 2.647,0.15c0.535,-0.022 1.024,-0.061 1.47,-0.117c0.445,-0.056 0.874,-0.153 1.286,-0.292c0.412,-0.139 0.824,-0.337 1.235,-0.593c0.412,-0.256 0.852,-0.596 1.32,-1.019c0.111,-0.089 0.222,-0.142 0.334,-0.158c0.111,-0.017 0.206,-0.003 0.284,0.041c0.078,0.045 0.122,0.114 0.133,0.209c0.011,0.095 -0.028,0.198 -0.117,0.309c-0.467,0.512 -0.932,0.988 -1.394,1.428c-0.462,0.44 -0.933,0.818 -1.411,1.136c-0.479,0.317 -0.98,0.573 -1.503,0.768c-0.524,0.195 -1.08,0.292 -1.67,0.292c-0.501,0 -1.011,-0.07 -1.528,-0.209c-0.518,-0.139 -1.033,-0.303 -1.545,-0.492c-0.512,-0.19 -1.022,-0.382 -1.528,-0.577c-0.507,-0.194 -0.994,-0.347 -1.461,-0.459c-0.579,0.457 -1.189,0.813 -1.829,1.069c-0.64,0.256 -1.322,0.401 -2.046,0.434c-0.857,0.011 -1.564,-0.042 -2.121,-0.158c-0.556,-0.117 -0.965,-0.259 -1.227,-0.426c-0.262,-0.167 -0.387,-0.362 -0.376,-0.585c0.011,-0.222 0.153,-0.434 0.426,-0.634c0.273,-0.201 0.676,-0.379 1.211,-0.535c0.534,-0.156 1.18,-0.267 1.937,-0.334c0.59,-0.022 1.166,-0.019 1.728,0.009c0.563,0.027 1.128,0.08 1.695,0.158c0.279,-0.345 0.549,-0.715 0.81,-1.11c0.262,-0.396 0.524,-0.808 0.785,-1.236c0.262,-0.429 0.529,-0.877 0.802,-1.345c0.273,-0.467 0.554,-0.929 0.843,-1.386c0.201,-0.311 0.412,-0.615 0.635,-0.91c0.223,-0.295 0.462,-0.598 0.718,-0.91c-0.401,-0.245 -0.707,-0.568 -0.919,-0.969c-0.211,-0.4 -0.283,-0.857 -0.217,-1.369c0.034,-0.39 0.159,-0.754 0.376,-1.094c0.217,-0.339 0.496,-0.634 0.835,-0.885c0.34,-0.25 0.729,-0.442 1.169,-0.576c0.44,-0.134 0.882,-0.195 1.328,-0.184Zm4.091,3.424c0.023,0.122 -0.011,0.222 -0.1,0.3c-0.089,0.078 -0.178,0.128 -0.267,0.151c-0.089,0.022 -0.181,0.011 -0.276,-0.034c-0.094,-0.044 -0.153,-0.128 -0.175,-0.25c-0.078,-0.657 -0.317,-1.214 -0.718,-1.67c-0.579,0.345 -1.136,0.79 -1.67,1.336c-0.535,0.545 -1.036,1.135 -1.503,1.77c0.512,0.134 1.052,0.186 1.62,0.159c0.568,-0.028 1.085,-0.087 1.553,-0.176c0.434,-0.078 0.882,-0.186 1.344,-0.325c0.462,-0.14 0.891,-0.315 1.286,-0.526c0.395,-0.212 0.729,-0.462 1.002,-0.752c0.273,-0.289 0.432,-0.612 0.476,-0.969c0.022,-0.2 0.014,-0.386 -0.025,-0.559c-0.039,-0.173 -0.128,-0.317 -0.267,-0.434c-0.139,-0.117 -0.323,-0.212 -0.551,-0.284c-0.229,-0.072 -0.515,-0.097 -0.86,-0.075c-0.512,0.011 -1.041,0.145 -1.587,0.401c0.401,0.512 0.64,1.157 0.718,1.937Zm-6.079,0.952c0.602,-0.624 1.22,-1.2 1.854,-1.729c0.635,-0.529 1.297,-0.966 1.987,-1.311c-0.3,-0.2 -0.617,-0.35 -0.951,-0.451c-0.334,-0.1 -0.674,-0.144 -1.019,-0.133c-0.312,0 -0.615,0.05 -0.91,0.15c-0.295,0.1 -0.56,0.237 -0.794,0.409c-0.233,0.173 -0.423,0.376 -0.567,0.61c-0.145,0.234 -0.229,0.479 -0.251,0.735c-0.011,0.389 0.042,0.726 0.159,1.01c0.117,0.284 0.281,0.52 0.492,0.71Zm-8.667,9.302c0.557,0 1.058,-0.089 1.503,-0.268c0.445,-0.178 0.857,-0.423 1.236,-0.734c-0.434,-0.078 -0.866,-0.14 -1.294,-0.184c-0.429,-0.045 -0.866,-0.039 -1.311,0.017c-0.39,0.066 -0.707,0.161 -0.952,0.283c-0.245,0.123 -0.393,0.257 -0.443,0.401c-0.05,0.145 0.023,0.262 0.217,0.351c0.195,0.089 0.543,0.134 1.044,0.134Z" style="fill-rule:nonzero;stroke:#000;stroke-width:0.28px;"/>
            <path d="M64.499,97.936c0.1,-0.067 0.25,-0.114 0.451,-0.142c0.2,-0.028 0.403,-0.039 0.609,-0.033c0.206,0.005 0.379,0.028 0.518,0.067c0.139,0.039 0.198,0.097 0.175,0.175c-0.311,0.356 -0.609,0.699 -0.893,1.027c-0.284,0.328 -0.571,0.657 -0.86,0.985c-0.29,0.329 -0.579,0.66 -0.869,0.994c-0.289,0.334 -0.573,0.696 -0.851,1.085c-0.067,0.112 -0.109,0.229 -0.125,0.351c-0.017,0.123 0,0.231 0.05,0.326c0.05,0.094 0.133,0.17 0.25,0.225c0.117,0.056 0.281,0.062 0.493,0.017c0.234,-0.045 0.465,-0.134 0.693,-0.267c0.228,-0.134 0.456,-0.29 0.685,-0.468c0.228,-0.178 0.45,-0.378 0.668,-0.601c0.217,-0.223 0.431,-0.451 0.642,-0.685c0.101,-0.055 0.201,-0.083 0.301,-0.083c0.1,0 0.181,0.03 0.242,0.092c0.061,0.061 0.092,0.142 0.092,0.242c0,0.1 -0.028,0.2 -0.083,0.3c-0.19,0.179 -0.407,0.39 -0.652,0.635c-0.245,0.245 -0.504,0.476 -0.776,0.693c-0.273,0.217 -0.551,0.406 -0.835,0.568c-0.284,0.161 -0.576,0.259 -0.877,0.292c-0.312,0.033 -0.626,0.033 -0.944,0c-0.317,-0.033 -0.601,-0.103 -0.851,-0.209c-0.251,-0.105 -0.44,-0.253 -0.568,-0.442c-0.128,-0.189 -0.153,-0.423 -0.075,-0.702c-0.212,0.145 -0.421,0.29 -0.626,0.435c-0.206,0.144 -0.415,0.272 -0.627,0.384c-0.234,0.144 -0.473,0.261 -0.718,0.35c-0.245,0.089 -0.495,0.145 -0.751,0.167c-0.368,0.034 -0.654,0.003 -0.86,-0.091c-0.206,-0.095 -0.365,-0.218 -0.476,-0.368c-0.112,-0.15 -0.184,-0.323 -0.217,-0.518c-0.034,-0.194 -0.023,-0.375 0.033,-0.542c0.056,-0.501 0.27,-1.027 0.643,-1.578c0.373,-0.552 0.849,-1.058 1.428,-1.52c0.579,-0.462 1.238,-0.832 1.979,-1.111c0.74,-0.278 1.517,-0.395 2.329,-0.35c0.245,0.033 0.454,0.1 0.627,0.2c0.172,0.1 0.303,0.228 0.392,0.384c0.033,-0.044 0.07,-0.092 0.109,-0.142c0.039,-0.05 0.08,-0.097 0.125,-0.142Zm-3.056,3.257c0.167,-0.145 0.337,-0.293 0.509,-0.443c0.173,-0.15 0.354,-0.292 0.543,-0.426c0.2,-0.256 0.403,-0.495 0.609,-0.718c0.206,-0.222 0.393,-0.445 0.56,-0.668c0.044,-0.078 0.067,-0.172 0.067,-0.284c0,-0.078 -0.042,-0.131 -0.126,-0.158c-0.083,-0.028 -0.181,-0.048 -0.292,-0.059c-0.111,-0.011 -0.22,-0.008 -0.325,0.009c-0.106,0.016 -0.193,0.036 -0.259,0.058c-0.546,0.1 -1.055,0.306 -1.528,0.618c-0.474,0.312 -0.922,0.64 -1.345,0.985c-0.311,0.256 -0.593,0.551 -0.843,0.885c-0.251,0.334 -0.47,0.679 -0.66,1.036c-0.011,0.044 -0.044,0.117 -0.1,0.217c-0.056,0.1 -0.092,0.203 -0.108,0.309c-0.017,0.105 -0.009,0.2 0.025,0.284c0.033,0.083 0.105,0.125 0.217,0.125c0.211,0 0.459,-0.067 0.743,-0.201c0.284,-0.133 0.568,-0.297 0.852,-0.492c0.283,-0.195 0.559,-0.393 0.826,-0.593c0.267,-0.2 0.479,-0.362 0.635,-0.484Z" style="fill-rule:nonzero;stroke:#000;stroke-width:0.28px;"/>
            <path d="M68.674,97.936c0.089,-0.067 0.217,-0.111 0.384,-0.133c0.167,-0.023 0.323,-0.023 0.468,0c0.144,0.022 0.27,0.069 0.375,0.142c0.106,0.072 0.131,0.164 0.075,0.275c-0.256,0.356 -0.526,0.688 -0.809,0.994c-0.284,0.306 -0.566,0.606 -0.844,0.902c-0.278,0.295 -0.554,0.598 -0.826,0.91c-0.273,0.311 -0.538,0.651 -0.794,1.018c-0.055,0.134 -0.083,0.265 -0.083,0.393c0,0.128 0.033,0.239 0.1,0.334c0.067,0.094 0.167,0.17 0.301,0.225c0.133,0.056 0.311,0.062 0.534,0.017c0.234,-0.045 0.468,-0.134 0.701,-0.267c0.234,-0.134 0.46,-0.29 0.677,-0.468c0.217,-0.178 0.434,-0.378 0.651,-0.601c0.217,-0.223 0.437,-0.451 0.66,-0.685c0.111,-0.055 0.211,-0.083 0.3,-0.083c0.089,0 0.167,0.03 0.234,0.092c0.067,0.061 0.103,0.142 0.109,0.242c0.005,0.1 -0.031,0.2 -0.109,0.3c-0.189,0.179 -0.404,0.39 -0.643,0.635c-0.239,0.245 -0.495,0.476 -0.768,0.693c-0.273,0.217 -0.554,0.406 -0.843,0.568c-0.29,0.161 -0.585,0.259 -0.886,0.292c-0.434,0.078 -0.818,0.084 -1.152,0.017c-0.334,-0.067 -0.609,-0.176 -0.826,-0.326c-0.218,-0.15 -0.354,-0.339 -0.41,-0.568c-0.055,-0.228 -0.022,-0.47 0.101,-0.726c0.233,-0.468 0.487,-0.882 0.759,-1.244c0.273,-0.362 0.554,-0.702 0.844,-1.019c0.289,-0.317 0.579,-0.629 0.868,-0.935c0.29,-0.306 0.574,-0.638 0.852,-0.994Zm1.803,-2.455c0.19,-0.311 0.426,-0.545 0.71,-0.701c0.284,-0.156 0.554,-0.195 0.81,-0.117c0.245,0.078 0.387,0.245 0.426,0.501c0.039,0.256 -0.042,0.54 -0.242,0.852c-0.201,0.3 -0.448,0.523 -0.743,0.668c-0.295,0.144 -0.571,0.172 -0.827,0.083c-0.245,-0.078 -0.384,-0.236 -0.417,-0.476c-0.034,-0.239 0.061,-0.509 0.283,-0.81Z" style="fill-rule:nonzero;stroke:#000;stroke-width:0.28px;"/>
            <path d="M73.884,101.076c0.178,0.055 0.318,0.178 0.418,0.367c0.1,0.189 0.153,0.401 0.158,0.635c0.006,0.234 -0.044,0.47 -0.15,0.71c-0.106,0.239 -0.292,0.459 -0.559,0.659c-0.156,0.112 -0.351,0.265 -0.585,0.459c-0.234,0.195 -0.467,0.401 -0.701,0.618c-0.234,0.217 -0.448,0.44 -0.643,0.668c-0.195,0.229 -0.331,0.443 -0.409,0.643c-0.123,0.301 -0.078,0.546 0.133,0.735c0.256,-0.334 0.54,-0.648 0.852,-0.943c0.312,-0.296 0.646,-0.565 1.002,-0.81c0.735,-0.501 1.361,-0.83 1.879,-0.986c0.517,-0.156 0.927,-0.192 1.227,-0.108c0.301,0.083 0.482,0.259 0.543,0.526c0.061,0.267 0.014,0.568 -0.142,0.902c-0.156,0.334 -0.426,0.673 -0.81,1.018c-0.384,0.345 -0.877,0.64 -1.478,0.885c-0.189,0.067 -0.398,0.131 -0.626,0.192c-0.228,0.062 -0.471,0.112 -0.727,0.151c-0.256,0.039 -0.512,0.058 -0.768,0.058c-0.256,0 -0.501,-0.022 -0.735,-0.067c-0.122,0.212 -0.236,0.426 -0.342,0.643c-0.106,0.217 -0.198,0.437 -0.276,0.66c-0.022,0.111 -0.08,0.195 -0.175,0.25c-0.095,0.056 -0.178,0.076 -0.25,0.059c-0.073,-0.017 -0.137,-0.064 -0.192,-0.142c-0.056,-0.078 -0.067,-0.173 -0.034,-0.284c0.156,-0.479 0.384,-0.963 0.685,-1.453c-0.223,-0.156 -0.373,-0.339 -0.451,-0.551c-0.134,-0.334 -0.178,-0.66 -0.134,-0.977c0.045,-0.317 0.145,-0.621 0.301,-0.91c0.156,-0.289 0.348,-0.568 0.576,-0.835c0.228,-0.267 0.459,-0.507 0.693,-0.718c0.167,-0.145 0.37,-0.317 0.61,-0.518c0.239,-0.2 0.426,-0.398 0.559,-0.593c0.134,-0.195 0.153,-0.381 0.059,-0.559c-0.095,-0.178 -0.398,-0.317 -0.911,-0.418c-0.122,-0.033 -0.203,-0.083 -0.242,-0.15c-0.039,-0.067 -0.05,-0.136 -0.033,-0.209c0.017,-0.072 0.056,-0.136 0.117,-0.192c0.061,-0.055 0.153,-0.067 0.275,-0.033c0.357,0.067 0.73,0.033 1.119,-0.1c0.39,-0.134 0.738,-0.298 1.044,-0.493c0.306,-0.195 0.548,-0.398 0.726,-0.61c0.179,-0.211 0.245,-0.372 0.201,-0.484c-0.078,-0.122 -0.242,-0.158 -0.493,-0.108c-0.25,0.05 -0.54,0.144 -0.868,0.284c-0.329,0.139 -0.668,0.297 -1.019,0.475c-0.351,0.179 -0.648,0.34 -0.893,0.485c-0.167,0.211 -0.326,0.423 -0.476,0.634c-0.151,0.212 -0.287,0.418 -0.409,0.618c-0.357,0.501 -0.618,0.963 -0.785,1.386c-0.167,0.423 -0.307,0.78 -0.418,1.069c0,0.045 -0.042,0.073 -0.125,0.084c-0.084,0.011 -0.175,0.011 -0.276,0c-0.1,-0.011 -0.197,-0.028 -0.292,-0.05c-0.095,-0.023 -0.147,-0.051 -0.159,-0.084c-0.055,-0.044 -0.089,-0.145 -0.1,-0.301c-0.011,-0.155 0.003,-0.342 0.042,-0.559c0.039,-0.217 0.103,-0.462 0.192,-0.735c0.089,-0.273 0.228,-0.559 0.418,-0.86c0.356,-0.623 0.812,-1.291 1.369,-2.004c0.557,-0.712 1.149,-1.433 1.779,-2.162c0.629,-0.73 1.283,-1.437 1.962,-2.121c0.679,-0.685 1.322,-1.303 1.929,-1.854c0.606,-0.551 1.155,-1.01 1.645,-1.378c0.489,-0.367 0.885,-0.59 1.185,-0.668c0.323,-0.089 0.568,-0.089 0.735,0c0.167,0.089 0.256,0.262 0.267,0.518c0.023,0.512 -0.156,1.052 -0.534,1.62c-0.379,0.568 -0.852,1.119 -1.42,1.653c-0.456,0.423 -0.862,0.771 -1.219,1.044c-0.356,0.273 -0.723,0.531 -1.102,0.776c-0.378,0.245 -0.796,0.499 -1.252,0.76c-0.457,0.262 -1.008,0.571 -1.654,0.927l-0.3,0.401c0.111,-0.078 0.25,-0.156 0.417,-0.234c0.134,-0.067 0.329,-0.147 0.585,-0.242c0.256,-0.095 0.528,-0.184 0.818,-0.267c0.289,-0.084 0.576,-0.145 0.86,-0.184c0.284,-0.039 0.532,-0.045 0.743,-0.017c0.212,0.028 0.365,0.117 0.459,0.268c0.095,0.15 0.098,0.375 0.009,0.676c-0.078,0.234 -0.24,0.473 -0.485,0.718c-0.244,0.245 -0.531,0.481 -0.86,0.71c-0.328,0.228 -0.673,0.431 -1.035,0.609c-0.362,0.178 -0.71,0.318 -1.044,0.418Zm1.57,3.523c-0.623,0.123 -1.225,0.385 -1.804,0.785c-0.578,0.401 -1.074,0.88 -1.486,1.437c0.156,0.033 0.326,0.052 0.51,0.058c0.183,0.006 0.386,-0.008 0.609,-0.042c0.367,-0.022 0.771,-0.156 1.211,-0.401c0.44,-0.244 0.815,-0.562 1.127,-0.951c0.089,-0.112 0.17,-0.229 0.242,-0.351c0.073,-0.123 0.112,-0.231 0.117,-0.326c0.006,-0.094 -0.033,-0.161 -0.117,-0.2c-0.083,-0.039 -0.22,-0.042 -0.409,-0.009Zm4.325,-12.641c-0.111,0.055 -0.323,0.225 -0.634,0.509c-0.312,0.284 -0.685,0.643 -1.119,1.077c-0.434,0.434 -0.916,0.932 -1.445,1.495c-0.529,0.562 -1.06,1.138 -1.595,1.728c0.624,-0.378 1.245,-0.776 1.863,-1.194c0.617,-0.417 1.205,-0.899 1.761,-1.444c0.234,-0.234 0.479,-0.513 0.735,-0.835c0.256,-0.323 0.454,-0.607 0.593,-0.852c0.139,-0.245 0.209,-0.432 0.209,-0.56c0,-0.128 -0.123,-0.103 -0.368,0.076Z" style="fill-rule:nonzero;stroke:#000;stroke-width:0.28px;"/>
            <path d="M83.554,97.936c0.1,-0.067 0.25,-0.114 0.45,-0.142c0.201,-0.028 0.404,-0.039 0.61,-0.033c0.206,0.005 0.379,0.028 0.518,0.067c0.139,0.039 0.197,0.097 0.175,0.175c-0.312,0.356 -0.609,0.699 -0.893,1.027c-0.284,0.328 -0.571,0.657 -0.86,0.985c-0.29,0.329 -0.579,0.66 -0.869,0.994c-0.289,0.334 -0.573,0.696 -0.852,1.085c-0.066,0.112 -0.108,0.229 -0.125,0.351c-0.016,0.123 0,0.231 0.05,0.326c0.05,0.094 0.134,0.17 0.251,0.225c0.117,0.056 0.281,0.062 0.492,0.017c0.234,-0.045 0.465,-0.134 0.694,-0.267c0.228,-0.134 0.456,-0.29 0.684,-0.468c0.228,-0.178 0.451,-0.378 0.668,-0.601c0.217,-0.223 0.432,-0.451 0.643,-0.685c0.1,-0.055 0.201,-0.083 0.301,-0.083c0.1,0 0.181,0.03 0.242,0.092c0.061,0.061 0.092,0.142 0.092,0.242c0,0.1 -0.028,0.2 -0.084,0.3c-0.189,0.179 -0.406,0.39 -0.651,0.635c-0.245,0.245 -0.504,0.476 -0.777,0.693c-0.272,0.217 -0.551,0.406 -0.835,0.568c-0.283,0.161 -0.576,0.259 -0.876,0.292c-0.312,0.033 -0.627,0.033 -0.944,0c-0.317,-0.033 -0.601,-0.103 -0.852,-0.209c-0.25,-0.105 -0.439,-0.253 -0.567,-0.442c-0.128,-0.189 -0.153,-0.423 -0.076,-0.702c-0.211,0.145 -0.42,0.29 -0.626,0.435c-0.206,0.144 -0.415,0.272 -0.626,0.384c-0.234,0.144 -0.473,0.261 -0.718,0.35c-0.245,0.089 -0.496,0.145 -0.752,0.167c-0.367,0.034 -0.654,0.003 -0.86,-0.091c-0.206,-0.095 -0.364,-0.218 -0.476,-0.368c-0.111,-0.15 -0.183,-0.323 -0.217,-0.518c-0.033,-0.194 -0.022,-0.375 0.034,-0.542c0.055,-0.501 0.27,-1.027 0.643,-1.578c0.373,-0.552 0.849,-1.058 1.427,-1.52c0.579,-0.462 1.239,-0.832 1.979,-1.111c0.741,-0.278 1.517,-0.395 2.33,-0.35c0.245,0.033 0.454,0.1 0.626,0.2c0.173,0.1 0.304,0.228 0.393,0.384c0.033,-0.044 0.069,-0.092 0.108,-0.142c0.039,-0.05 0.081,-0.097 0.126,-0.142Zm-3.057,3.257c0.167,-0.145 0.337,-0.293 0.51,-0.443c0.172,-0.15 0.353,-0.292 0.543,-0.426c0.2,-0.256 0.403,-0.495 0.609,-0.718c0.206,-0.222 0.393,-0.445 0.56,-0.668c0.044,-0.078 0.066,-0.172 0.066,-0.284c0,-0.078 -0.041,-0.131 -0.125,-0.158c-0.083,-0.028 -0.181,-0.048 -0.292,-0.059c-0.111,-0.011 -0.22,-0.008 -0.326,0.009c-0.106,0.016 -0.192,0.036 -0.259,0.058c-0.545,0.1 -1.055,0.306 -1.528,0.618c-0.473,0.312 -0.921,0.64 -1.344,0.985c-0.312,0.256 -0.593,0.551 -0.843,0.885c-0.251,0.334 -0.471,0.679 -0.66,1.036c-0.011,0.044 -0.045,0.117 -0.1,0.217c-0.056,0.1 -0.092,0.203 -0.109,0.309c-0.016,0.105 -0.008,0.2 0.025,0.284c0.034,0.083 0.106,0.125 0.217,0.125c0.212,0 0.46,-0.067 0.744,-0.201c0.283,-0.133 0.567,-0.297 0.851,-0.492c0.284,-0.195 0.56,-0.393 0.827,-0.593c0.267,-0.2 0.479,-0.362 0.634,-0.484Z" style="fill-rule:nonzero;stroke:#000;stroke-width:0.28px;"/>
        </g>
        <g transform="matrix(11.3758,0,0,11.3758,-381.916,-926.845)">
            <path d="M39.85,94.396l0.033,0.2l0,0.167l-0.017,0.034l0,0.133l0.034,0.067l0.016,0.267l0.134,0.451l0.184,0.401l0.033,0.017l0.084,0.15l0.384,0.518l0.267,0.3l0.25,0.568l0.201,0.234l0.05,0.033l0.117,0.167l0.033,0.017l0.084,0.25l0.2,0.167l0.201,0.017l0.217,-0.083l0.133,0l0.267,0.1l0.101,0l0.233,-0.117l0.067,0l0.267,0.117l0.167,0l0.251,-0.134l0.1,0l0.067,0.034l0.067,0.066l0.1,0.05l0.134,-0.016l0.116,-0.05l0.101,-0.134l0.15,-0.267l0.2,-0.251l0.034,-0.016l0.117,-0.167l0.25,-0.585l0.267,-0.3l0.117,-0.067l0.234,-0.384l0.033,-0.017l0.201,-0.384l0.234,-0.668l0.066,-0.267l0.017,-0.318l-0.033,-0.133l0,-0.384l-0.017,-0.034l-0.017,-0.317l-0.3,-0.785l-0.234,-0.367l-0.601,-0.668l-0.134,-0.117l-0.25,-0.134l-0.101,-0.083l-0.2,-0.117l-0.651,-0.201l-0.451,-0.083l-0.568,0l-0.033,0.017l-0.301,0.016l-0.134,0.034l-0.183,0.083l-0.301,0.067l-0.417,0.184l-0.101,0.1l-0.267,0.15l-0.534,0.535l-0.267,0.334l-0.184,0.4l-0.05,0.067l0.017,0.117l-0.051,0.05l-0.183,0.468l0.016,0.284l-0.05,0.183l-0.016,0.034Zm8.984,6.93l-0.15,-0.217l-0.033,-0.117l-0.084,-0.117l-0.117,-0.1l-0.25,-0.15l-0.167,-0.034l-0.368,0.017l-0.2,0.05l-0.217,0.1l-0.267,0.284l-0.134,0.084l-0.234,-0.017l-0.785,-0.367l-0.768,-0.301l-0.1,-0.05l-0.067,-0.083l0.033,-0.084l0.117,-0.083l0.318,-0.101l0.785,-0.367l0.551,-0.2l0.183,0.016l0.134,0.084l0.334,0.284l0.367,0.15l0.234,0.017l0.167,-0.034l0.334,-0.167l0.334,-0.451l0.067,-0.334l-0.017,-0.3l-0.234,-0.451l-0.083,-0.234l-0.067,-0.301l-0.167,-0.317l-0.217,-0.25l-0.351,-0.184l-0.066,-0.017l-0.368,0.017l-0.167,0.05l-0.434,0.301l-0.2,0.384l-0.051,0.2l0,0.334l-0.116,0.15l-0.301,0.134l-0.401,0.134l-0.3,0.167l-0.167,0.05l-0.501,0.217l-0.719,0.267l-0.434,0.2l-0.2,0.034l-0.267,0l-0.268,-0.084l-0.584,-0.233l-0.267,-0.084l-0.468,-0.2l-0.167,-0.101l-0.584,-0.2l-0.668,-0.267l-0.101,-0.067l-0.066,-0.1l-0.034,-0.451l-0.033,-0.117l-0.05,-0.083l-0.067,-0.017l0.033,-0.034l-0.016,-0.116l-0.101,-0.134l-0.133,-0.084l-0.05,0l0.016,-0.05l-0.05,-0.05l-0.35,-0.15l-0.067,0.017l-0.301,0l-0.217,0.083l-0.1,0.017l-0.284,0.284l-0.033,0.067l-0.034,0.016l-0.117,0.267l-0.066,0.368l-0.067,0.15l-0.034,0.017l-0.133,0.2l-0.117,0.401l0,0.418l0.133,0.25l0.067,0.067l0.067,0.033l0.017,0.034l0.1,0.05l0.134,0.15l0.283,0.084l0.268,0.033l0.183,-0.033l0.451,-0.251l0.151,-0.184l0.167,-0.066l0.25,0.016l0.768,0.318l0.652,0.25l0.25,0.167l0.033,0.067l-0.016,0.05l-0.167,0.117l-0.702,0.3l-0.734,0.284l-0.167,0.05l-0.151,0.017l-0.133,-0.033l-0.117,-0.067l-0.017,-0.033l-0.067,-0.034l-0.183,-0.2l-0.101,0.016l-0.066,0.084l-0.067,0.017l0.1,-0.151l-0.1,-0.066l-0.117,-0.034l-0.301,-0.017l-0.167,0.034l-0.284,0.15l-0.217,0.15l-0.2,0.485l0,0.334l0.167,0.467l0.117,0.151l0.117,0.25l0.033,0.134l0.017,0.234l0.083,0.167l0.084,0.05l0.117,0.15l0.2,0.117l0.317,0.133l0.318,-0.033l0.016,0.017l0.084,0l0.267,-0.167l0.334,-0.318l0.067,-0.116l0,-0.184l0.05,-0.134l0,-0.234l0.033,-0.1l0.117,-0.133l0.134,-0.101l0.835,-0.317l0.267,-0.15l0.184,-0.017l0.317,-0.184l0.251,-0.1l0.167,-0.033l0.25,-0.117l0.167,-0.05l0.067,0l0.467,-0.184l0.201,0.017l0.651,0.25l0.15,0.034l0.201,0.117l0.334,0.1l0.634,0.284l0.134,0.033l0.301,0.15l0.567,0.201l0.117,0.133l0.05,0.134l0.017,0.251l0.067,0.267l0.15,0.267l0.267,0.267l0.184,0.084l0.234,0.066l0.334,-0.016l0.167,-0.05l0.167,-0.101l0.25,-0.25l0.067,-0.2l0.1,-0.084l0.067,-0.334l0.084,-0.234l0.25,-0.434l0.034,-0.334l-0.017,-0.033l0,-0.134l-0.017,-0.033l0,-0.034Zm-3.974,-6.112l0.016,0.033l-0.083,0.101l0,0.05l0.1,0.2l0,0.201l-0.134,0.283l-0.066,0.067l-0.284,0.1l-0.267,-0.016l-0.151,-0.084l-0.167,-0.167l-0.05,-0.117l-0.017,-0.217l0.051,-0.167l0.066,-0.133l0.134,-0.151l0.234,-0.083l0.267,0.017l0.117,0.05l0.133,0.016l-0.016,0.034l0.016,0.033l0.067,-0.05l0.034,0Zm-2.372,0.768l-0.083,0.1l-0.251,0.117l-0.167,0.05l-0.234,-0.033l-0.1,-0.05l-0.167,-0.167l-0.067,-0.15l-0.016,-0.101l0.033,-0.233l0.1,-0.217l0.101,-0.084l0.233,-0.1l0.301,0.017l0.217,0.15l0.067,0.083l0.067,0.201l0.016,0.133l-0.033,0.251l-0.017,0.033Zm1.303,-2.171l-0.067,0.134l0.033,0.067l0,0.05l-0.133,0.117l-0.1,-0.184l-0.067,-0.017l-0.034,0.017l0.084,-0.117l0.067,0l0.033,0.184l0.05,-0.034l0,-0.117l-0.05,-0.033l0.05,-0.05l0.1,-0.017l0.034,0Zm-1.787,0.067l0.017,-0.067l-0.034,-0.067l0.017,-0.083l0.033,0.017l0.017,-0.017l-0.017,-0.067l0.05,-0.05l0.084,-0.017l0.05,0.05l-0.05,0.034l-0.017,-0.067l-0.033,0.067l-0.034,-0.034l0.084,0.101l-0.067,0.1l0.017,0.184l-0.167,-0.034l-0.034,0.017l-0.033,-0.017l0,-0.033l0.1,0l0.017,-0.017Zm0.718,-0.785l0.084,0.067l0.1,0.033l0.016,0.05l-0.066,0.051l-0.084,-0.067l-0.067,0.016l-0.016,-0.083l-0.117,-0.05l-0.017,-0.117l0.017,-0.017l0.15,0l0,0.117Zm0.384,0.067l-0.067,0.067l-0.05,-0.05l-0.033,-0.101l0.083,-0.016l0.017,-0.034l0.117,0.017l0.05,0.05l0.05,0.1l0,0.05l-0.033,0.034l-0.034,0l-0.083,-0.117l-0.017,0Zm0.434,-0.2l-0.016,0.083l-0.034,0.017l0.034,0.083l-0.017,0.034l-0.033,-0.017l-0.034,-0.067l0.017,-0.1l-0.017,-0.1l-0.033,-0.017l0.05,-0.033l0.133,0l0.051,-0.034l0.05,0.067l-0.134,0.067l-0.017,0.017Zm-4.993,5.01l0.067,0.033l0.2,0l-0.033,0.117l0.017,0.017l-0.134,0.016l-0.084,-0.05l-0.033,-0.067l0,-0.066Zm5.377,-4.61l0.051,0.034l0.066,0.2l-0.183,-0.133l-0.017,-0.034l0.017,-0.017l-0.05,-0.083l-0.151,-0.084l-0.016,-0.033l0.033,-0.017l0.1,0.101l0.067,-0.017l0.033,0.017l-0.016,0.033l0.016,0.033l0.05,0Zm-2.287,0.535l-0.017,-0.067l-0.067,-0.084l0.017,-0.033l0.1,-0.067l0.017,-0.033l-0.084,-0.084l0.017,-0.033l0.083,0.017l0.084,0.133l-0.1,0l-0.034,0.05l0.034,0.167l-0.017,0.017l-0.033,0.017Zm0.684,0.133l0.067,-0.016l0.05,-0.067l0,-0.034l0.067,-0.033l-0.017,0.1l0.05,0.05l0,0.034l-0.133,0.067l-0.067,-0.017l-0.017,-0.034l0,-0.05Zm-3.106,8.35l-0.067,-0.05l-0.117,0.117l-0.016,-0.033l0.083,-0.117l0.134,-0.017l0.083,0.05l0.05,0l-0.05,0.084l-0.033,0l-0.067,-0.034Zm4.977,-9.736l0.117,0.067l0.083,0.117l0.033,-0.017l0.084,0.084l-0.017,0.067l-0.067,-0.067l-0.066,-0.034l-0.067,0l0.017,-0.066l-0.117,-0.117l0,-0.034Zm-1.353,1.854l-0.05,-0.05l-0.017,-0.05l-0.033,-0.017l-0.034,0.017l0.017,-0.034l0.134,-0.033l0,-0.033l0.033,0l-0.05,0.133l0.033,0.017l0.084,-0.1l0.017,0.033l0,0.134l-0.067,-0.017l-0.017,-0.033l-0.033,0l-0.017,0.033Zm1.152,-1.737l-0.033,-0.1l0.067,-0.017l0.1,0.234l0.05,0.033l0.067,-0.016l0.016,0.016l-0.066,0.084l-0.067,0l-0.017,-0.134l-0.083,-0.083l-0.034,-0.017Zm-5.411,6.012l-0.016,-0.083l0.05,-0.101l0.05,-0.033l0.067,0.017l0.033,0.067l-0.067,0.016l-0.083,0.1l-0.034,0.017Zm4.626,-4.693l-0.05,0.051l-0.067,0l0.067,-0.184l0.034,-0.017l0.083,0.084l-0.033,0.05l-0.034,0.016Zm-0.751,-0.885l0.067,0.034l-0.017,0.05l-0.05,0.05l-0.167,0.083l0.067,0.067l-0.017,0.034l-0.067,-0.017l-0.017,-0.084l0.134,-0.1l0.067,-0.016l-0.017,-0.067l0.017,-0.034Zm-3.708,5.745l0,-0.1l0.151,-0.017l0.033,0.017l0.134,0l-0.05,0.067l-0.05,0l-0.101,-0.05l-0.083,0.083l-0.034,0Zm4.927,1.787l-0.017,-0.1l0.067,-0.05l0.067,0.05l0.033,0.1l-0.083,0.017l-0.034,-0.017l-0.033,0Zm-1.603,-7.498l0,-0.167l0.05,-0.067l0.033,0l0.034,0.033l-0.05,0.167l-0.067,0.034Zm-2.789,8.984l-0.067,-0.016l-0.067,0.033l-0.016,-0.083l0.1,-0.067l0.033,0l0.034,0.033l0,0.05l-0.017,0.05Zm5.244,-8.517l-0.067,0.067l-0.134,0.05l-0.05,-0.067l0.184,-0.016l-0.017,-0.05l0.084,-0.05l0.033,0.016l-0.033,0.05Zm-0.869,-0.217l-0.05,-0.016l-0.033,-0.067l0,-0.134l-0.017,-0.033l0.033,-0.017l0.067,0.15l0,0.117Zm0.752,0.201l-0.184,-0.034l-0.017,-0.117l0.151,0.067l0.033,0.05l0.017,0.034Zm-5.361,8.901l-0.167,-0.034l0.15,-0.083l0.084,0.017l0,0.033l-0.05,0.033l-0.017,0.034Zm0.067,-3.357l-0.034,0.033l-0.066,0l0,0.034l-0.084,-0.034l-0.017,-0.033l0.084,-0.1l0.033,0l-0.016,0.083l0.033,0.017l0.067,0Zm4.843,-6.196l0.067,0.05l0.016,0.051l-0.016,0.05l-0.05,0.033l-0.084,0.017l0,-0.034l0.084,-0.05l-0.017,-0.05l0,-0.067Zm0.317,0.334l-0.05,0.117l-0.033,0.017l0.016,-0.067l-0.016,-0.067l-0.034,-0.016l0.05,-0.084l0.067,0.067l0,0.033Zm-5.795,5.161l-0.033,0.15l-0.034,-0.05l-0.066,0.033l0.016,-0.1l0.084,-0.05l0.033,0.017Zm4.175,-5.728l-0.15,-0.067l0.017,-0.084l0.066,0.017l0.051,0.05l0.016,0.05l0,0.034Zm-0.751,0.033l0.117,0.134l-0.034,0.016l-0.1,-0.033l-0.017,0.017l-0.016,-0.067l0.016,-0.034l0.034,-0.033Zm1.135,1.837l-0.1,0.083l-0.067,0.017l0.05,-0.1l0.084,-0.067l0.033,0.017l0,0.05Zm-0.668,-1.804l-0.016,-0.1l0.066,0.084l-0.016,0.083l-0.034,0.017l-0.083,-0.05l-0.017,-0.05l0.067,0l0.033,0.016Zm-0.384,0.351l0.117,0.1l0.034,0l-0.017,0.05l-0.1,0.017l-0.034,-0.134l0,-0.033Zm1.336,-1.286l0.067,-0.017l0.067,-0.066l0.033,0.083l-0.15,0.067l-0.017,-0.017l0,-0.05Zm0.251,1.653l-0.134,0.101l-0.05,-0.134l0.017,-0.033l0.033,0l0.017,0.083l0.083,-0.017l0.034,0Zm-1.186,-0.016l0.05,-0.05l0.034,0l-0.034,0.183l-0.033,0l-0.034,-0.033l0.034,-0.1l-0.017,0Zm-0.601,-0.1l-0.134,-0.084l-0.016,-0.033l0.016,-0.05l0.134,0.1l0,0.067Zm1.169,-0.769l0.033,0l0.067,0.084l0.017,0.067l-0.017,0.05l-0.033,0.016l-0.017,-0.066l0.033,-0.017l-0.083,-0.1l0,-0.034Zm-4.776,5.912l-0.101,-0.067l0.017,-0.033l0.1,-0.033l0.034,0.016l-0.05,0.084l0,0.033Zm5.878,-6.646l0.033,-0.017l0.051,0.033l0.016,0.067l-0.05,0.033l-0.033,-0.016l-0.034,-0.067l0.017,-0.033Zm-5.628,10.704l-0.067,-0.067l-0.033,-0.066l0.017,-0.084l0.083,0.134l0,0.083Zm5.578,-10.254l0.033,0.051l-0.066,0.116l-0.084,0l0.084,-0.1l0.033,-0.067Zm4.242,6.23l0.067,0l0.1,0.05l-0.017,0.033l-0.134,-0.033l-0.016,0.033l-0.017,-0.05l0.017,-0.033Zm-5.177,-6.029l0.033,0.033l0.1,0l-0.05,0.084l-0.067,-0.017l-0.033,-0.067l0.017,-0.033Zm-2.288,2.071l0.033,0.016l0.034,0.084l-0.017,0.033l-0.084,-0.033l0,-0.034l0.034,-0.066Zm-1.937,7.598l0.016,-0.067l0.084,-0.016l0.05,0.033l-0.084,0.05l-0.066,0Zm-0.284,-3.357l-0.084,-0.066l0.084,-0.067l0.033,0.05l-0.017,0.05l-0.016,0.033Zm4.542,-5.611l0.067,0.034l0.033,0.1l-0.066,-0.017l-0.051,-0.083l0.017,-0.034Zm1.37,-0.902l-0.084,-0.033l0.117,-0.117l-0.017,0.134l-0.016,0.016Zm-5.628,6.129l-0.034,-0.15l0.067,0.017l0.017,0.083l-0.017,0.034l-0.033,0.016Zm3.974,-4.425l-0.05,-0.034l-0.017,-0.066l0.051,-0.017l0.05,0.05l0,0.033l-0.034,0.034Zm-1.119,-1.002l-0.016,0.05l-0.067,0.017l-0.034,-0.117l0.034,0l0.05,0.05l0.033,0Zm-3.44,8.801l-0.067,-0.067l0.017,-0.067l0.067,0.017l0,0.067l-0.017,0.05Zm0.434,0l0.017,-0.034l0.117,0.017l-0.017,0.067l-0.05,0l-0.033,-0.034l-0.034,-0.016Zm3.708,-8.751l-0.05,-0.084l0,-0.066l0.066,0.016l0,0.117l-0.016,0.017Zm1.77,1.035l0.05,0.084l-0.05,0.05l-0.033,-0.017l0,-0.083l0.033,-0.034Zm-1.804,0.05l0,-0.033l0.05,-0.033l0.067,0l-0.033,0.066l-0.05,0.017l-0.034,-0.017Zm0.251,-1.837l-0.084,0.017l-0.033,-0.017l0.033,-0.066l0.05,0l0.034,0.066Zm-4.242,8.968l-0.083,-0.016l-0.051,-0.034l0.051,-0.05l0.066,0.067l0.017,0.033Zm5.127,-9.135l-0.067,-0.016l-0.033,-0.067l0.083,0l0.017,0.017l0,0.066Zm-0.2,0.301l-0.134,0.033l0.033,-0.066l0.067,-0.017l0.017,0.017l0.017,0.033Zm-0.401,0.418l-0.017,0.066l-0.067,0.017l-0.016,-0.033l0.033,-0.05l0.067,0Zm0.801,-0.251l-0.016,-0.083l0.117,0.016l-0.067,0.067l-0.034,0Zm-0.885,0.935l0.05,0l0.067,0.1l-0.067,-0.016l-0.05,-0.05l0,-0.034Zm-0.183,0.234l-0.017,0.067l-0.05,0.017l-0.034,-0.017l0.017,-0.05l0.05,-0.017l0.034,0Zm-4.175,8.2l0,-0.034l-0.034,-0.016l0,-0.034l0.1,0l-0.033,0.084l-0.033,0Zm0.818,-4.092l-0.067,0.084l-0.05,0l0.033,-0.084l0.084,0Zm-0.434,1.453l-0.034,-0.033l0.034,-0.034l0.066,0.017l0.017,0.033l-0.017,0.017l-0.066,0Zm7.197,-0.434l-0.016,0.083l-0.05,0.017l-0.017,-0.05l0.05,-0.05l0.033,0Zm-1.352,-5.812l-0.034,0.017l-0.05,-0.05l0,-0.033l0.034,-0.017l0.05,0.05l0,0.033Zm-0.067,0.618l-0.067,-0.016l0,-0.084l0.033,0l0.034,0.05l0,0.05Zm-6.63,7.766l-0.033,-0.034l0.016,-0.066l0.05,0.016l0.017,0.05l-0.033,0.017l-0.017,0.017Zm5.778,-0.618l0.034,-0.017l0.05,0.05l0,0.034l-0.067,0l-0.017,-0.034l0,-0.033Zm0.518,-6.48l-0.034,0.117l-0.05,-0.083l0.034,-0.034l0.05,0Zm-5.327,7.315l-0.117,-0.034l0.2,0.017l0.017,0.034l-0.05,0.016l-0.05,-0.033Zm7.832,-3.29l-0.017,0.033l0,0.134l-0.05,-0.033l0.033,-0.117l0.034,-0.017Zm-4.593,-5.177l0.017,-0.067l0.05,-0.033l0.017,0.067l-0.05,0.033l-0.034,0Zm2.439,0.284l0.083,-0.05l0.067,0l-0.017,0.05l-0.133,0Zm-2.489,-1.486l-0.033,0.016l-0.05,-0.033l0,-0.034l0.067,-0.016l0.016,0.033l0,0.034Zm-3.54,10.42l-0.05,-0.033l0,-0.05l0.033,-0.017l0.034,0.017l0,0.05l-0.017,0.033Zm3.958,-8.166l0.05,-0.017l0.05,0.034l-0.017,0.05l-0.05,-0.017l-0.033,-0.05Zm3.624,4.659l0.05,0.017l0,0.084l-0.034,0l-0.033,-0.067l0.017,-0.034Zm-0.418,-5.01l-0.033,0l-0.017,-0.117l0.05,0l0,0.117Zm-2.338,-1.553l-0.05,0.017l-0.067,-0.033l-0.033,-0.051l0.133,0.051l0.017,0.016Zm0.852,0.485l0.083,-0.017l0.034,0.017l-0.05,0.05l-0.05,-0.017l-0.017,-0.033Zm-2.689,0.267l-0.017,0.067l-0.066,-0.017l0.016,-0.05l0.034,-0.017l0.033,0.017Zm1.019,1.436l0.033,0l0.034,0.083l-0.05,0.017l-0.017,-0.033l0,-0.067Zm-3.557,3.975l0.016,-0.067l0.067,0.033l-0.033,0.067l-0.017,-0.017l-0.033,-0.016Zm2.421,-6.513l-0.083,0.116l-0.017,-0.066l0.067,-0.05l0.033,0Zm3.023,0.066l0.05,-0.066l0.033,0.05l-0.016,0.05l-0.017,0l-0.05,-0.034Zm-1.253,0.485l0.117,0.016l-0.05,0.05l-0.033,0l-0.034,-0.066Zm-1.619,8.65l0.016,-0.067l0.067,-0.016l-0.017,0.067l-0.033,0.016l-0.033,0Zm2.054,-7.749l0.066,0.017l0.034,0.05l-0.084,0l-0.016,-0.033l0,-0.034Zm-5.06,8.801l0.033,-0.066l0.067,-0.017l-0.034,0.067l-0.033,0.016l-0.033,0Zm8.4,-1.169l-0.017,0.05l-0.05,0l-0.017,-0.05l0.034,-0.016l0.05,0.016Zm-8.618,0.284l-0.016,0.084l-0.05,-0.017l-0.017,-0.033l0.033,-0.017l0.05,-0.017Zm5.762,-1.403l0.033,-0.116l0.034,0l-0.034,0.116l-0.033,0Zm-1.236,0.552l0.017,-0.067l0.067,-0.05l-0.017,0.066l-0.033,0.034l-0.034,0.017Zm2.188,-6.964l-0.05,-0.034l0,-0.067l0.033,0l0.017,0.034l0,0.067Zm-1.086,7.298l-0.066,-0.034l-0.017,-0.033l0.033,-0.017l0.05,0.033l0,0.051Zm-0.851,-7.198l-0.034,0l-0.033,-0.05l0.017,-0.034l0.066,0.05l-0.016,0.034Zm-4.676,4.96l-0.05,0.05l-0.067,-0.017l0.016,-0.033l0.101,0Zm4.091,-4.643l0.05,0.017l0.017,0.067l-0.033,0l-0.034,-0.034l0,-0.05Zm-1.336,-0.551l0.067,0.017l0,0.05l-0.05,0l-0.017,-0.034l0,-0.033Zm2.288,4.593l0.084,0l0,0.033l-0.051,0.017l-0.033,-0.017l0,-0.033Zm-4.876,0.968l-0.017,-0.033l0.05,-0.067l0.017,0.05l-0.017,0.033l-0.033,0.017Zm0.2,-1.302l-0.067,0.066l-0.033,-0.016l0.067,-0.067l0.033,0.017Zm9.419,5.06l-0.017,0.016l-0.05,-0.05l0.067,-0.016l0.033,0.033l-0.033,0.017Zm-6.012,-9.887l-0.034,0.084l-0.033,-0.034l0.033,-0.066l0.034,0.016Zm2.638,1.203l0.051,0.05l-0.017,0.033l-0.05,-0.017l0,-0.033l0.016,-0.033Zm-2.955,-2.355l0.083,0.033l-0.017,0.034l-0.033,0l-0.033,-0.034l0,-0.033Zm-3.491,9.953l-0.033,0.017l-0.034,-0.017l0,-0.033l0.034,-0.017l0.033,0.017l0,0.033Zm5.027,-6.997l0,-0.034l0.033,-0.033l0.034,0l0,0.033l-0.034,0.034l-0.033,0Zm-0.484,-1.203l0.016,-0.1l0.05,0.05l-0.033,0.034l-0.033,0.016Zm1.235,-1.052l-0.016,0.084l-0.05,-0.034l0,-0.033l0.033,0l0.033,-0.017Zm-3.841,0.885l0.067,0l0.017,0.034l-0.05,0.017l-0.034,-0.017l0,-0.034Zm2.472,0.852l-0.033,-0.017l-0.034,-0.066l0.067,0.016l0,0.067Zm2.422,-0.083l-0.017,-0.05l0.05,-0.017l0.033,0.017l-0.033,0.033l-0.033,0.017Zm0.701,7.498l0,-0.067l0.067,0.017l0,0.033l-0.034,0l-0.033,0.017Zm-6.847,0l0,-0.05l0.05,0l0.017,0.033l-0.017,0.017l-0.05,0Zm4.626,-3.39l-0.05,0.017l-0.017,-0.067l0.067,0.016l0,0.034Zm-0.735,-4.409l0.067,0.05l0,0.034l-0.05,-0.017l-0.017,-0.034l0,-0.033Zm1.386,-1.236l0.05,0.017l-0.016,0.033l-0.067,0.017l0,-0.033l0.033,0l0,-0.034Zm-6.262,9.486l0,-0.034l0.033,-0.033l0.033,0l0,0.033l-0.066,0.034Zm0.15,-0.217l0.017,-0.034l0.066,0.017l0.017,0.033l-0.083,-0.016l-0.017,0Zm3.474,-8.116l0.083,-0.017l0,0.033l-0.067,0.017l-0.016,-0.033Zm-3.34,8.5l0,-0.05l0.033,0l0.033,0.033l-0.016,0.017l-0.05,0Zm5.377,-4.726l0.083,0.016l-0.016,0.034l-0.067,-0.017l0,-0.033Zm-0.952,-1.019l0.017,-0.083l0.033,0.016l-0.017,0.067l-0.033,0Zm5.311,6.496l-0.05,-0.033l0,-0.033l0.066,0.016l-0.016,0.034l0,0.016Zm-5.328,-10.37l-0.083,0l0.033,-0.05l0.034,0.016l0.016,0.034Zm2.923,2.638l-0.05,0l0,-0.067l0.05,0.034l0,0.033Zm-4.71,-1.803l0.051,0l0,0.066l-0.051,-0.033l0,-0.033Zm0.385,3.907l-0.034,-0.016l0,-0.05l0.05,-0.017l-0.016,0.05l0,0.033Zm2.171,0.334l-0.051,0.034l-0.033,-0.017l0.017,-0.033l0.033,0l0.034,0.016Zm0.434,-3.573l-0.017,0.033l-0.05,0l0,-0.033l0.033,-0.017l0.034,0.017Zm0.584,0.985l-0.033,-0.084l0.05,0l0,0.051l-0.017,0.033Zm-2.271,2.238l0.033,-0.067l0.034,0.033l-0.034,0.034l-0.033,0Zm-4.592,4.609l0,-0.033l0.033,-0.034l0.017,0.034l-0.017,0.033l-0.033,0Zm6.095,-9.085l0.05,0.034l0,0.033l-0.033,0l-0.017,-0.033l0,-0.034Zm0.351,-0.551l0.033,0.017l0,0.067l-0.033,-0.017l0,-0.067Zm-0.451,0.1l-0.017,0.034l-0.067,0l0.017,-0.034l0.067,0Zm4.459,6.446l0.1,0.034l-0.05,0.017l-0.034,-0.017l-0.016,-0.034Zm0.133,3.274l-0.033,0.016l-0.017,-0.066l0.05,0.016l0,0.034Zm-8.984,-4.743l0.05,0.05l-0.034,0.017l-0.033,-0.034l0.017,-0.033Zm-0.785,0.935l-0.034,-0.05l0.017,-0.033l0.034,0.033l-0.017,0.05Zm0.551,0.685l0.05,-0.017l0.05,0.05l-0.017,0.017l-0.05,-0.05l-0.033,0Zm6.112,-5.495l0.067,0.034l-0.033,0.033l-0.017,-0.016l-0.017,-0.051Zm-0.2,-0.801l0.033,0.017l0,0.033l-0.05,0l0,-0.017l0.017,-0.033Zm-0.935,1.035l-0.034,-0.033l0,-0.05l0.034,0.016l0,0.067Zm-4.86,4.877l-0.034,-0.017l0.017,-0.05l0.034,0l-0.017,0.033l0,0.034Zm-0.969,-0.735l0.034,0.017l-0.017,0.05l-0.033,-0.034l0.016,-0.033Zm-0.033,-0.635l0.017,-0.033l0.033,0l0,0.033l-0.033,0.017l-0.017,-0.017Zm6.212,-3.206l-0.016,0.033l-0.034,0l0,-0.033l0.034,-0.017l0.016,0.017Zm-6.212,7.966l0.067,0.067l-0.067,-0.017l0,-0.05Zm0.367,-0.485l-0.067,-0.016l0.067,-0.034l0,0.05Zm3.941,-8.767l0.051,0.017l0,0.033l-0.051,-0.017l0,-0.033Zm-3.206,5.878l0.017,-0.05l0.033,0l-0.017,0.05l-0.033,0Zm2.021,-6.045l-0.017,0.05l-0.033,0l0.016,-0.05l0.034,0Zm0.451,0.417l0.05,0.034l0.016,0.067l-0.05,-0.067l-0.016,-0.034Zm2.054,0.735l0.016,0.067l-0.05,0l0,-0.033l0.034,0l0,-0.034Zm-0.835,-1.737l0.067,0l-0.034,0.034l-0.033,0l0,-0.034Zm0.334,2.288l0.033,-0.033l0.034,0.033l-0.017,0.017l-0.05,-0.017Zm2.638,6.948l0.034,-0.051l0.033,0.017l-0.033,0.034l-0.034,0Zm-2.555,-0.435l-0.05,0l0,-0.05l0.034,0.017l0.016,0.033Zm-0.801,-5.778l0.016,-0.05l0.034,0l-0.017,0.05l-0.033,0Zm1.736,-1.186l0.034,-0.033l0.033,0.017l-0.033,0.033l-0.034,-0.017Zm-6.446,7.733l-0.05,0l0,-0.051l0.034,0.017l0.016,0.034Zm7.165,-0.785l0.05,0l0.016,0.033l-0.05,0l-0.016,-0.033Zm-1.453,-8.701l0.033,0.05l-0.033,0.017l-0.017,-0.034l0.017,-0.033Zm-4.726,5.979l-0.017,0.05l-0.034,0l0.017,-0.05l0.034,0Zm8.75,-0.685l0,-0.034l0.034,-0.016l0.016,0.033l-0.05,0.017Zm-9.068,5.294l0,-0.034l0.034,-0.016l0.016,0.033l-0.05,0.017Zm4.326,-9.102l0,-0.033l0.033,-0.017l0.017,0.034l-0.05,0.016Zm4.826,5.444l-0.034,-0.016l0,-0.034l0.034,0l0,0.05Zm-3.908,-4.225l-0.033,-0.016l0,-0.034l0.033,0l0,0.05Zm-2.388,-1.837l-0.05,0l0,-0.033l0.033,0l0.017,0.033Zm1.971,0.668l0,0.034l-0.051,0l0.017,-0.034l0.034,0Zm1.369,3.357l-0.05,0l0,-0.033l0.033,0l0.017,0.033Zm-1.72,-2.588l0.017,-0.017l0.066,0.033l-0.05,0.017l0,-0.033l-0.033,0Zm1.97,-0.568l0,0.033l-0.033,0.017l-0.017,-0.017l0.017,-0.017l0.033,-0.016Zm0.184,-0.017l-0.017,0.033l-0.033,0l0.033,-0.05l0.017,0.017Zm-4.409,-0.017l-0.033,0.05l-0.017,-0.016l0.017,-0.034l0.033,0Zm3.357,0.234l0.033,0.05l-0.033,0l-0.017,-0.033l0.017,-0.017Zm2.655,5.277l0.05,0.017l0,0.033l-0.033,-0.016l-0.017,-0.034Zm0.986,1.47l0.033,0.05l-0.033,0l-0.017,-0.033l0.017,-0.017Zm-4.543,-6.212l0.05,0.016l0,0.034l-0.05,-0.034l0,-0.016Zm-3.791,2.822l0.017,-0.05l0.033,0l-0.016,0.033l-0.034,0.017Zm-1.018,4.392l0.05,0.017l0,0.033l-0.034,-0.017l-0.016,-0.033Zm2.455,-0.601l0.05,0.033l-0.034,0.017l-0.016,-0.017l0,-0.033Zm-0.635,-6.196l0.017,0.05l-0.05,0l0.016,-0.017l0.017,-0.033Zm-2.088,3.357l0,-0.034l0.034,0l0,0.034l-0.034,0Zm0.284,3.24l0.017,0.016l0,0.017l-0.067,-0.017l0.05,-0.016Zm5.144,-9.135l0.033,0.016l-0.033,0.017l-0.033,-0.017l0.033,-0.016Zm-0.184,-0.134l-0.067,-0.017l0,-0.016l0.034,0l0.033,0.033Zm0.351,0.434l0.017,0.05l-0.034,0l0,-0.033l0.017,-0.017Zm4.509,9.903l0.017,-0.05l0.033,0.017l-0.017,0.017l-0.033,0.016Zm-4.576,-8.433l0.017,-0.05l0.033,0.016l-0.016,0.017l-0.034,0.017Zm-2.906,0.568l0.034,0l0,0.066l-0.034,-0.066Zm-2.822,6.245l-0.033,0l0,-0.033l0.033,0l0,0.033Zm5.912,-6.696l0,0.033l-0.034,-0.017l0,-0.033l0.034,0.017Zm-5.11,8.049l0.05,-0.017l0.016,0.017l-0.05,0.017l-0.016,-0.017Zm0.2,-3.407l0.017,-0.05l0.033,0.017l-0.017,0.017l-0.033,0.016Zm0.434,-0.451l0.034,0.034l-0.034,0.017l-0.016,0.016l0.016,-0.067Zm5.561,0.668l0.034,0.034l-0.05,0l0,-0.017l0.016,-0.017Zm-1.87,-4.408l0.033,-0.05l0.017,0.033l-0.05,0.017Zm0.902,-2.689l0.033,0.05l-0.05,-0.017l0.017,-0.033Zm-5.277,6.58l0.033,-0.05l0.017,0.033l-0.05,0.017Zm-0.485,2.956l-0.033,-0.034l0.017,-0.016l0.016,0.016l0,0.034Zm2.973,-8.534l0.033,0.033l-0.016,0.017l-0.017,-0.017l0,-0.033Zm1.252,0.484l0,-0.05l0.034,0.017l-0.034,0.033Zm0.151,-0.2l0.033,0.017l-0.033,0.033l0,-0.05Zm1.753,-1.42l-0.033,0.05l-0.017,-0.016l0.017,-0.017l0.033,-0.017Zm4.042,6.73l0.05,0.017l-0.05,0.017l0,-0.034Zm-6.68,-5.744l0.033,0.033l0,0.033l-0.017,-0.016l-0.016,-0.05Zm-2.639,5.477l0.05,0l-0.033,0.034l-0.017,-0.034Zm-0.718,0.819l0,-0.034l0.033,0.017l-0.016,0.017l-0.017,0Zm6.379,-5.962l-0.05,-0.017l0.034,-0.017l0.016,0.034Zm-0.918,0.284l-0.017,-0.017l0.033,-0.034l0,0.017l-0.016,0.034Zm-4.76,4.609l-0.033,0l0.033,-0.034l0,0.034Zm-1.286,0.718l0,-0.034l0.034,0.017l-0.034,0.017Zm1.637,3.039l-0.017,-0.083l0.017,0.016l0,0.067Zm6.045,-7.899l0.034,0.034l-0.034,0l0,-0.034Zm-3.323,-1.954l0.033,0.034l-0.033,0l0,-0.034Zm0.935,2.405l0.034,0l0,0.033l-0.034,-0.033Zm-4.993,7.599l0.033,0.083l-0.033,-0.05l0,-0.033Zm4.392,-4.693l0.05,-0.017l-0.033,0.034l-0.017,-0.017Zm0.234,-5.044l0.033,0l-0.016,0.034l-0.017,-0.034Zm-2.071,1.921l0,0.033l-0.033,-0.016l0.033,-0.017Zm2.104,-2.572l0.017,0.034l-0.033,0l0.016,-0.034Zm0.201,2.121l-0.034,0l0.034,-0.033l0,0.033Zm2.354,-0.317l0.017,0.016l-0.017,0.017l-0.016,-0.017l0.016,-0.016Zm-6.913,8.016l0.033,-0.034l0.017,0.017l-0.05,0.017Zm4.041,-7.215l-0.033,-0.016l0.033,-0.017l0,0.033Zm1.403,0l-0.034,0l0,-0.033l0.034,0.033Zm0.451,5.795l0,-0.033l0.033,0.017l-0.033,0.016Zm-6.396,-1.62l0.016,-0.033l0.017,0.017l-0.033,0.016Zm0.951,3.457l0.017,-0.033l0.017,0.017l-0.034,0.016Zm5.445,-4.509l0.016,-0.033l0.017,0.017l-0.033,0.016Zm4.158,4.726l0,-0.05l0.017,0.034l-0.017,0.016Zm-6.78,-8.066l-0.034,0.034l-0.016,-0.017l0.016,0l0.034,-0.017Zm2.889,-0.117l0.017,-0.033l0.016,0.017l-0.033,0.016Zm1.186,5.227l0.033,0.017l-0.017,0.017l-0.016,-0.034Zm-0.668,-5.527l0.016,-0.034l0.017,0.017l-0.033,0.017Zm-3.057,-0.885l0.051,-0.034l0,0.017l-0.051,0.017Zm3.207,3.273l0.017,-0.034l0.016,0.017l-0.033,0.017Zm-6.513,5.962l0.017,-0.034l0.016,0.017l-0.033,0.017Zm0.968,-2.772l0,-0.017l0.051,0.017l-0.051,0Zm-1.72,-0.451l0.017,-0.034l0.017,0.017l-0.034,0.017Zm10.004,1.887l0.016,-0.034l0.017,0.017l-0.033,0.017Zm-3.825,-3.958l0.017,-0.034l0.017,0.017l-0.034,0.017Zm-2.02,-4.042l0.016,0.034l-0.016,0.017l0,-0.051Zm-0.551,0.552l-0.034,0.016l0,-0.016l0.034,0Zm-2.873,9.602l0.017,-0.017l0,0.034l-0.017,-0.017Zm3.858,-9.068l0,-0.033l0.017,0.033l-0.017,0Zm-4.643,5.411l0,-0.034l0.017,0.034l-0.017,0Zm6.062,-5.211l0,-0.033l0.017,0.017l-0.017,0.016Z" style="fill-opacity:0.172549;fill-rule:nonzero;"/>
        </g>
    </g>
    <g transform="matrix(0.0628457,0,0,0.0628457,111.829,355.771)">
        <path d="M232.321,164.268c-0.551,-1.407 -1.25,-2.487 -1.733,-4.267l0.016,0c-0.034,0 -0.056,-0.074 -0.088,-0.149c-0.062,-0.193 -0.122,-0.353 -0.173,-0.548c-0.097,-0.365 -0.189,-0.759 -0.253,-1.179c-0.043,-2.08 1.872,-2.792 1.946,-5.183c0.081,-2.573 -1.476,-3.898 -1.946,-4.241c-0.02,-0.028 -0.037,-0.054 -0.056,-0.082c0.012,-0.037 0.02,-0.068 0.031,-0.104c2.993,-2.433 1.69,-5.738 1.69,-5.738c-0.636,-0.338 -1.313,-0.55 -1.797,-0.98c-4.337,-3.863 -4.606,-6.636 -1.196,-11.288c0.866,-1.185 1.746,-2.375 2.467,-3.649c1.761,-3.117 1.359,-4.599 -1.81,-6.367c-2.28,-1.271 -4.743,-2.218 -6.988,-3.545c-6.396,-3.778 -11.834,-8.521 -15.061,-15.174c2.171,-3.872 2.171,-3.872 1.304,-6.341c-0.791,0.865 -1.527,1.672 -2.688,2.944c0,-3.049 0.294,-5.379 -0.083,-7.595c-0.367,-2.156 -0.85,-4.792 -2.281,-6.178c-5.217,-5.045 -8.175,-11.292 -10.92,-17.796c-2.029,-4.806 -4.196,-9.66 -8.171,-13.236c-2,-1.8 -4.474,-3.072 -6.742,-4.587c0,-1.354 0.017,-2.653 -0.006,-3.951c-0.019,-1.297 0.038,-2.61 -0.136,-3.89c-0.702,-5.113 -4.34,-7.564 -9.404,-6.548c-3.181,0.638 -6.385,1.238 -9.605,1.563c-1.888,0.19 -3.584,0.128 -3.225,-3.432c1.62,0 3.162,0 5.368,0c-1.104,0 -1.515,-1.544 -2.067,-1.769c-2.208,-0.892 -4.045,-0.36 -5.099,1.396c-1.25,2.077 0.023,3.586 1.504,4.555c1.273,0.832 3.004,1.441 4.492,1.365c3.234,-0.167 6.436,-0.842 9.658,-1.296c2.8,-0.394 4.451,0.587 5.01,3.266c0.266,1.278 0.047,2.658 0.047,3.561c-3.72,-1.383 -6.953,-3.369 -10.347,-3.69c-7.432,-0.706 -14.956,-0.912 -22.413,-0.611c-3.084,0.124 -6.484,1.511 -9.049,3.309c-4.547,3.188 -9.441,5.039 -14.773,6.138c-2.549,0.526 -5.106,1.149 -7.55,2.03c-4.689,1.689 -8.626,4.342 -11.53,8.63c-1.595,2.354 -3.836,4.445 -6.188,6.076c-4.591,3.184 -9.001,6.424 -12.144,11.187c-1.712,2.596 -4.124,4.212 -7.839,3.113c-1.104,-4.244 -4.87,-4.911 -8.627,-5.423c-1.764,-0.242 -3.625,-0.32 -5.373,-0.04c-10.247,1.643 -19.554,5.56 -26.813,13.074c-6.565,6.797 -5.937,10.365 -2.739,16.202c2.063,3.766 2.131,7.435 -0.279,11.089c-1.874,2.842 -2.57,6.013 -2.071,9.354c1.284,8.609 4.072,16.22 13.409,19.251c0.615,0.198 1.156,0.607 1.748,0.881c2.125,0.984 3.145,2.592 3.365,4.971c0.144,1.54 0.491,3.357 1.429,4.479c6.245,7.454 20.432,8.503 25.041,-1.951c0.189,-0.432 0.624,-0.756 0.945,-1.129c0.305,0.134 0.609,0.266 0.914,0.399c-0.27,1.348 -0.539,2.694 -0.81,4.042c-0.351,1.75 -1.204,3.572 -0.961,5.235c0.915,6.264 1.484,12.716 3.503,18.648c2.452,7.204 8.53,14.587 18.762,13.197c3.549,-0.483 6.782,0.391 9.818,2.234c1.254,0.76 2.657,1.272 3.912,2.027c3.221,1.943 6.497,1.898 9.857,0.464c2.024,-0.863 4.052,-1.726 6.331,-2.698c-1.16,4.041 -2.278,7.594 -3.189,11.197c-1.336,5.287 -3.631,9.452 -9.941,9.48c-0.115,0 -0.228,0.204 -0.481,0.441c0.473,1.385 0.975,2.855 1.446,4.234c-3.43,5.076 -9.388,5.288 -13.951,7.881c8.949,0.082 15.39,-4.254 16.179,-10.562c4.91,-1.582 7.805,-5.034 9.233,-9.921c0.777,-2.659 1.611,-5.32 2.672,-7.879c1.746,-4.209 4.792,-6.719 9.406,-6.833c-0.302,3.22 -0.579,6.169 -0.855,9.113c-6.687,1.486 -6.819,1.649 -6.534,8.315c-1.583,1.269 -3.238,2.596 -5.685,4.557c6.226,-1.428 7.436,-2.953 8.025,-9.211c0.938,-0.325 1.962,-0.799 3.039,-1.035c4.009,-0.875 4.11,-0.859 3.682,-5.037c-0.251,-2.445 0.739,-3.996 3.163,-5.664c0.451,1.766 0.892,3.088 1.115,4.445c0.316,1.923 0.547,3.867 0.687,5.81c0.517,7.404 -0.06,14.643 -3.457,21.43c-4.159,8.313 -8.334,16.622 -12.413,24.973c-1.174,2.404 -2.482,4.234 -5.172,5.433c-4.265,1.907 -7.421,6.556 -7.757,10.832c15.258,2.949 26.312,6.953 41.04,18.833c9.647,7.785 19.862,11.309 29.399,12.456c0.003,-0.004 10.248,-13.711 19.753,-32.558c-0.241,-0.365 -0.484,-0.728 -0.723,-1.095c-6.25,-9.478 -11.533,-18.592 -13.049,-22.521c-2.853,-7.395 -3.838,-14.659 -2.132,-22.466c1.983,-9.083 3.633,-18.206 7.761,-26.672c2.412,-4.95 6.15,-7.711 11.519,-8.858c6.366,-1.36 12.689,-3.037 18.94,-4.868c6.706,-1.966 9.308,-7.753 6.747,-14.275Z" style="fill-rule:nonzero;"/>
    </g>
</svg>
