<?xml version="1.0" encoding="UTF-8" standalone="no"?>
<!DOCTYPE svg PUBLIC "-//W3C//DTD SVG 1.1//EN" "http://www.w3.org/Graphics/SVG/1.1/DTD/svg11.dtd">
<svg xmlns:xlink="http://www.w3.org/1999/xlink" xmlns:serif="http://www.serif.com/" width="240px" height="380px" version="1.1" xmlns="http://www.w3.org/2000/svg" xml:space="preserve" style="fill-rule:evenodd;clip-rule:evenodd;stroke-miterlimit:10;">
    <g id="Background" transform="matrix(1.33333,0,0,1,0.0133333,-196.458)">
        <rect x="-0.01" y="196.458" width="180" height="380" style="fill:#fff;"/>
    </g>
    <g id="Controls">
        <g id="ScaleMiddle" transform="matrix(0.720434,0,0,0.720434,86.5172,127.821)">
            <g id="Big_1_">
                <path d="M129.99,118.265l0,-60.683" style="fill:none;stroke:#000;stroke-width:1.5px;"/>
                <path d="M165.49,93.105l-71,0" style="fill:none;stroke:#000;stroke-width:1.5px;"/>
                <path d="M99.247,110.867l61.488,-35.523" style="fill:none;stroke:#000;stroke-width:1.5px;"/>
                <path d="M112.24,123.872l35.5,-61.53" style="fill:none;stroke:#000;stroke-width:1.5px;"/>
                <path d="M160.735,110.867l-61.488,-35.523" style="fill:none;stroke:#000;stroke-width:1.5px;"/>
                <path d="M147.74,123.872l-35.5,-61.53" style="fill:none;stroke:#000;stroke-width:1.5px;"/>
            </g>
            <g id="Small_1_">
                <g id="smallScale_7_">
                    <path d="M132.77,119.705l-6.143,-58.479" style="fill:none;stroke:#f9f9f9;stroke-width:1px;"/>
                    <path d="M161.99,89.881l-64,6.732" style="fill:none;stroke:#f9f9f9;stroke-width:1px;"/>
                    <path d="M103.96,112.172l52.063,-37.851" style="fill:none;stroke:#f9f9f9;stroke-width:1px;"/>
                    <path d="M119.226,117.441l23.851,-53.609" style="fill:none;stroke:#f9f9f9;stroke-width:1px;"/>
                    <path d="M159.385,106.343l-58.788,-26.193" style="fill:none;stroke:#f9f9f9;stroke-width:1px;"/>
                    <path d="M148.902,119.296l-37.823,-52.098" style="fill:none;stroke:#f9f9f9;stroke-width:1px;"/>
                </g>
                <g id="smallScale_6_">
                    <path d="M135.489,119.136l-12.188,-57.383" style="fill:none;stroke:#f9f9f9;stroke-width:1px;"/>
                    <path d="M161.463,86.554l-62.944,13.387" style="fill:none;stroke:#f9f9f9;stroke-width:1px;"/>
                    <path d="M106.079,114.791l47.823,-43.088" style="fill:none;stroke:#f9f9f9;stroke-width:1px;"/>
                    <path d="M121.816,118.42l18.116,-55.795" style="fill:none;stroke:#f9f9f9;stroke-width:1px;"/>
                    <path d="M160.592,103.195l-61.202,-19.897" style="fill:none;stroke:#f9f9f9;stroke-width:1px;"/>
                    <path d="M151.521,117.176l-43.061,-47.859" style="fill:none;stroke:#f9f9f9;stroke-width:1px;"/>
                </g>
                <g id="smallScale_5_">
                    <path d="M138.166,118.427l-18.117,-55.801" style="fill:none;stroke:#f9f9f9;stroke-width:1px;"/>
                    <path d="M160.59,83.298l-61.2,19.898" style="fill:none;stroke:#f9f9f9;stroke-width:1px;"/>
                    <path d="M108.461,117.176l43.06,-47.859" style="fill:none;stroke:#f9f9f9;stroke-width:1px;"/>
                    <path d="M124.491,119.135l12.188,-57.382" style="fill:none;stroke:#f9f9f9;stroke-width:1px;"/>
                    <path d="M161.464,99.94l-62.945,-13.386" style="fill:none;stroke:#f9f9f9;stroke-width:1px;"/>
                    <path d="M153.901,114.791l-47.822,-43.088" style="fill:none;stroke:#f9f9f9;stroke-width:1px;"/>
                </g>
                <g id="smallScale_4_">
                    <g transform="matrix(1,0,0,0.998956,0,0.0666488)">
                        <path d="M140.753,117.44l-23.85,-53.607" style="fill:none;stroke:#f9f9f9;stroke-width:1px;"/>
                    </g>
                    <path d="M159.384,80.15l-58.787,26.193" style="fill:none;stroke:#f9f9f9;stroke-width:1px;"/>
                    <path d="M111.079,119.296l37.824,-52.1" style="fill:none;stroke:#f9f9f9;stroke-width:1px;"/>
                    <path d="M127.228,119.556l6.124,-58.329" style="fill:none;stroke:#f9f9f9;stroke-width:1px;"/>
                    <path d="M161.99,96.612l-64,-6.731" style="fill:none;stroke:#f9f9f9;stroke-width:1px;"/>
                    <path d="M156.021,112.172l-52.062,-37.851" style="fill:none;stroke:#f9f9f9;stroke-width:1px;"/>
                </g>
            </g>
            <g transform="matrix(0.959459,0,0,0.959459,-26.7775,24.6906)">
                <path d="M125.967,94.126l0,-3.734l-0.894,0.324l-0.238,-0.778l1.535,-0.613l0.592,0l0,4.801l-0.995,0Z" style="fill-rule:nonzero;"/>
            </g>
            <g transform="matrix(0.959459,0,0,0.959459,-31.4325,5.34996)">
                <path d="M125.167,89.599c0.173,-0.11 0.365,-0.198 0.576,-0.263c0.212,-0.065 0.445,-0.097 0.699,-0.097c0.476,0 0.852,0.127 1.129,0.382c0.276,0.254 0.414,0.61 0.414,1.067c0,0.192 -0.024,0.372 -0.072,0.54c-0.048,0.168 -0.115,0.328 -0.202,0.48c-0.086,0.151 -0.188,0.298 -0.306,0.439c-0.118,0.142 -0.246,0.28 -0.386,0.415c-0.149,0.144 -0.291,0.279 -0.425,0.404c-0.135,0.124 -0.267,0.245 -0.397,0.36l1.831,0l0,0.8l-2.984,0l-0.137,-0.577c0.13,-0.134 0.249,-0.257 0.357,-0.367c0.108,-0.111 0.21,-0.215 0.306,-0.314c0.096,-0.098 0.189,-0.196 0.278,-0.292c0.089,-0.096 0.181,-0.197 0.277,-0.303c0.106,-0.12 0.212,-0.24 0.317,-0.36c0.106,-0.12 0.199,-0.243 0.278,-0.368c0.079,-0.125 0.144,-0.252 0.195,-0.382c0.05,-0.129 0.075,-0.262 0.075,-0.396c0,-0.226 -0.065,-0.403 -0.194,-0.53c-0.13,-0.127 -0.31,-0.191 -0.541,-0.191c-0.178,0 -0.336,0.023 -0.476,0.068c-0.139,0.046 -0.266,0.105 -0.382,0.177l-0.23,-0.692Z" style="fill-rule:nonzero;"/>
            </g>
            <g transform="matrix(0.959459,0,0,0.959459,-26.8749,-13.4575)">
                <path d="M127.971,92.821c0,0.217 -0.045,0.41 -0.134,0.581c-0.089,0.17 -0.209,0.316 -0.36,0.436c-0.151,0.12 -0.33,0.212 -0.537,0.277c-0.207,0.065 -0.428,0.098 -0.663,0.098c-0.221,0 -0.445,-0.024 -0.671,-0.072c-0.226,-0.049 -0.423,-0.111 -0.591,-0.188l0.166,-0.75c0.149,0.068 0.304,0.122 0.465,0.163c0.161,0.04 0.333,0.061 0.515,0.061c0.274,0 0.479,-0.06 0.613,-0.18c0.135,-0.12 0.202,-0.272 0.202,-0.454c0,-0.246 -0.101,-0.422 -0.303,-0.53c-0.202,-0.108 -0.461,-0.163 -0.778,-0.163l-0.404,0l0,-0.8l0.267,0c0.355,0 0.63,-0.065 0.825,-0.194c0.195,-0.13 0.292,-0.308 0.292,-0.534c0,-0.173 -0.059,-0.306 -0.177,-0.4c-0.117,-0.094 -0.284,-0.14 -0.501,-0.14c-0.307,0 -0.596,0.067 -0.865,0.201l-0.173,-0.713c0.154,-0.087 0.34,-0.155 0.559,-0.206c0.219,-0.05 0.446,-0.075 0.681,-0.075c0.207,0 0.4,0.026 0.581,0.079c0.18,0.053 0.336,0.13 0.468,0.231c0.132,0.101 0.236,0.223 0.31,0.367c0.075,0.144 0.112,0.308 0.112,0.49c0,0.274 -0.076,0.516 -0.227,0.725c-0.152,0.209 -0.376,0.376 -0.674,0.501c0.134,0.038 0.263,0.092 0.385,0.162c0.123,0.07 0.23,0.154 0.321,0.252c0.091,0.099 0.164,0.213 0.216,0.343c0.053,0.13 0.08,0.274 0.08,0.432Z" style="fill-rule:nonzero;"/>
            </g>
            <g transform="matrix(0.959459,0,0,0.959459,-14.1018,-28.1218)">
                <path d="M128.028,92.901l0,1.225l-0.973,0l0,-1.225l-1.939,0l-0.144,-0.728l1.853,-2.848l1.203,0l0,2.812l0.649,0l0,0.764l-0.649,0Zm-0.973,-2.675l-1.16,1.911l1.16,0l0,-1.911Z" style="fill-rule:nonzero;"/>
            </g>
            <g transform="matrix(0.959459,0,0,0.959459,8.47298,-35.1424)">
                <path d="M128.18,92.677c0,0.24 -0.048,0.456 -0.144,0.645c-0.096,0.19 -0.229,0.351 -0.397,0.483c-0.168,0.132 -0.364,0.233 -0.587,0.303c-0.224,0.07 -0.465,0.105 -0.725,0.105c-0.216,0 -0.435,-0.021 -0.656,-0.062c-0.221,-0.04 -0.404,-0.092 -0.548,-0.155l0.137,-0.771c0.154,0.058 0.317,0.105 0.49,0.141c0.173,0.036 0.346,0.054 0.519,0.054c0.279,0 0.501,-0.058 0.667,-0.173c0.166,-0.116 0.249,-0.286 0.249,-0.512c0,-0.255 -0.1,-0.436 -0.299,-0.544c-0.2,-0.109 -0.463,-0.163 -0.79,-0.163l-0.778,0l0,-2.703l2.595,0l0,0.807l-1.607,0l0,1.111l0.151,0c0.245,0 0.472,0.031 0.681,0.093c0.209,0.063 0.392,0.154 0.548,0.274c0.156,0.12 0.278,0.269 0.364,0.447c0.087,0.178 0.13,0.385 0.13,0.62Z" style="fill-rule:nonzero;"/>
            </g>
            <g transform="matrix(0.959459,0,0,0.959459,30.7695,-28.2048)">
                <path d="M127.884,89.974c-0.216,0.11 -0.419,0.217 -0.609,0.321c-0.19,0.103 -0.363,0.218 -0.519,0.346c-0.156,0.127 -0.291,0.272 -0.404,0.436c-0.113,0.163 -0.198,0.36 -0.256,0.591c0.116,-0.125 0.256,-0.222 0.422,-0.292c0.166,-0.07 0.35,-0.105 0.552,-0.105c0.206,0 0.396,0.033 0.569,0.098c0.173,0.065 0.321,0.158 0.443,0.281c0.123,0.122 0.219,0.27 0.289,0.443c0.07,0.173 0.104,0.368 0.104,0.584c0,0.221 -0.042,0.425 -0.126,0.613c-0.084,0.187 -0.2,0.35 -0.349,0.486c-0.149,0.137 -0.322,0.244 -0.519,0.321c-0.197,0.077 -0.407,0.116 -0.628,0.116c-0.302,0 -0.564,-0.057 -0.785,-0.17c-0.221,-0.113 -0.404,-0.259 -0.548,-0.44c-0.144,-0.18 -0.253,-0.384 -0.325,-0.612c-0.072,-0.229 -0.108,-0.458 -0.108,-0.689c0,-0.379 0.057,-0.727 0.17,-1.041c0.113,-0.315 0.276,-0.6 0.49,-0.855c0.214,-0.254 0.474,-0.479 0.782,-0.674c0.308,-0.194 0.654,-0.359 1.038,-0.493l0.317,0.735Zm-0.346,2.732c0,-0.211 -0.06,-0.377 -0.18,-0.497c-0.12,-0.121 -0.288,-0.181 -0.505,-0.181c-0.173,0 -0.323,0.034 -0.45,0.101c-0.128,0.068 -0.234,0.147 -0.321,0.238c0,0.14 0.012,0.274 0.036,0.404c0.024,0.13 0.066,0.245 0.126,0.346c0.06,0.101 0.138,0.183 0.235,0.245c0.096,0.062 0.213,0.094 0.353,0.094c0.216,0 0.388,-0.071 0.515,-0.213c0.128,-0.142 0.191,-0.321 0.191,-0.537Z" style="fill-rule:nonzero;"/>
            </g>
            <g transform="matrix(0.959459,0,0,0.959459,44.1251,-13.5405)">
                <path d="M127.971,90.111l-1.838,4.015l-0.988,0l1.874,-4.008l-2.004,0l0,-0.793l2.819,0l0.137,0.786Z" style="fill-rule:nonzero;"/>
            </g>
            <g transform="matrix(0.959459,0,0,0.959459,48.503,5.26696)">
                <path d="M126.774,89.239c0.221,0 0.423,0.026 0.606,0.079c0.182,0.053 0.34,0.128 0.472,0.227c0.132,0.098 0.234,0.22 0.306,0.364c0.072,0.144 0.108,0.308 0.108,0.49c0,0.13 -0.024,0.25 -0.072,0.361c-0.048,0.11 -0.112,0.215 -0.191,0.313c-0.079,0.099 -0.169,0.19 -0.27,0.274c-0.101,0.084 -0.204,0.162 -0.31,0.234c0.13,0.082 0.253,0.167 0.371,0.256c0.118,0.089 0.221,0.188 0.31,0.296c0.089,0.108 0.16,0.227 0.213,0.357c0.053,0.129 0.079,0.274 0.079,0.432c0,0.183 -0.042,0.353 -0.126,0.512c-0.084,0.159 -0.201,0.296 -0.35,0.411c-0.149,0.115 -0.322,0.205 -0.519,0.27c-0.197,0.065 -0.406,0.098 -0.627,0.098c-0.245,0 -0.468,-0.03 -0.67,-0.09c-0.202,-0.061 -0.374,-0.145 -0.516,-0.253c-0.142,-0.108 -0.251,-0.24 -0.328,-0.396c-0.077,-0.156 -0.115,-0.333 -0.115,-0.53c0,-0.149 0.029,-0.287 0.086,-0.415c0.058,-0.127 0.133,-0.242 0.224,-0.346c0.091,-0.103 0.195,-0.199 0.31,-0.288c0.115,-0.089 0.233,-0.174 0.353,-0.256c-0.24,-0.163 -0.441,-0.337 -0.602,-0.523c-0.161,-0.185 -0.241,-0.407 -0.241,-0.666c0,-0.178 0.035,-0.342 0.104,-0.491c0.07,-0.149 0.17,-0.277 0.299,-0.385c0.13,-0.108 0.288,-0.191 0.473,-0.249c0.185,-0.058 0.392,-0.086 0.623,-0.086Zm0.685,3.683c0,-0.178 -0.06,-0.33 -0.18,-0.457c-0.12,-0.128 -0.289,-0.261 -0.505,-0.401c-0.096,0.073 -0.186,0.14 -0.27,0.202c-0.084,0.063 -0.158,0.128 -0.22,0.195c-0.063,0.067 -0.112,0.138 -0.148,0.213c-0.036,0.074 -0.054,0.159 -0.054,0.255c0,0.183 0.061,0.324 0.184,0.422c0.122,0.099 0.292,0.148 0.508,0.148c0.202,0 0.367,-0.054 0.494,-0.162c0.127,-0.108 0.191,-0.247 0.191,-0.415Zm-1.262,-2.494c0,0.139 0.042,0.261 0.127,0.364c0.084,0.103 0.234,0.227 0.45,0.371c0.168,-0.115 0.305,-0.23 0.411,-0.346c0.106,-0.115 0.159,-0.245 0.159,-0.389c0,-0.154 -0.053,-0.273 -0.159,-0.357c-0.106,-0.084 -0.243,-0.126 -0.411,-0.126c-0.173,0 -0.312,0.046 -0.418,0.137c-0.106,0.091 -0.159,0.207 -0.159,0.346Z" style="fill-rule:nonzero;"/>
            </g>
            <g transform="matrix(0.959459,0,0,0.959459,44.9615,24.7736)">
                <path d="M125.642,93.477c0.217,-0.096 0.42,-0.195 0.609,-0.299c0.19,-0.103 0.362,-0.22 0.516,-0.349c0.154,-0.13 0.288,-0.279 0.404,-0.447c0.115,-0.169 0.201,-0.368 0.259,-0.599c-0.115,0.125 -0.256,0.223 -0.422,0.292c-0.165,0.07 -0.349,0.105 -0.551,0.105c-0.207,0 -0.397,-0.033 -0.57,-0.098c-0.173,-0.064 -0.32,-0.158 -0.443,-0.281c-0.122,-0.122 -0.219,-0.27 -0.288,-0.443c-0.07,-0.173 -0.105,-0.368 -0.105,-0.584c0,-0.231 0.04,-0.441 0.119,-0.631c0.079,-0.19 0.191,-0.352 0.335,-0.486c0.145,-0.135 0.316,-0.238 0.516,-0.31c0.199,-0.072 0.417,-0.108 0.652,-0.108c0.308,0 0.573,0.056 0.797,0.169c0.223,0.113 0.407,0.26 0.551,0.44c0.144,0.18 0.25,0.384 0.317,0.612c0.068,0.229 0.101,0.458 0.101,0.689c0,0.384 -0.056,0.735 -0.169,1.052c-0.113,0.318 -0.276,0.602 -0.49,0.855c-0.214,0.252 -0.475,0.474 -0.782,0.666c-0.308,0.193 -0.654,0.356 -1.038,0.491l-0.318,-0.736Zm0.346,-2.739c0,0.221 0.063,0.39 0.188,0.508c0.125,0.118 0.291,0.177 0.497,0.177c0.173,0 0.323,-0.034 0.451,-0.101c0.127,-0.067 0.234,-0.147 0.321,-0.238c0,-0.135 -0.013,-0.268 -0.037,-0.4c-0.024,-0.132 -0.066,-0.249 -0.126,-0.35c-0.06,-0.101 -0.138,-0.182 -0.234,-0.245c-0.096,-0.062 -0.214,-0.093 -0.353,-0.093c-0.216,0 -0.388,0.067 -0.516,0.201c-0.127,0.135 -0.191,0.315 -0.191,0.541Z" style="fill-rule:nonzero;"/>
            </g>
            <g transform="matrix(0.959459,0,0,0.959459,31.015,39.7691)">
                <path d="M125.967,94.126l0,-3.734l-0.894,0.324l-0.238,-0.778l1.535,-0.613l0.592,0l0,4.801l-0.995,0Z" style="fill-rule:nonzero;"/>
                <path d="M131.604,91.726c0,0.365 -0.039,0.7 -0.115,1.005c-0.077,0.305 -0.195,0.567 -0.354,0.786c-0.158,0.219 -0.355,0.389 -0.591,0.512c-0.235,0.122 -0.512,0.184 -0.829,0.184c-0.317,0 -0.593,-0.062 -0.829,-0.184c-0.235,-0.123 -0.432,-0.293 -0.591,-0.512c-0.158,-0.219 -0.276,-0.481 -0.353,-0.786c-0.077,-0.305 -0.115,-0.64 -0.115,-1.005c0,-0.366 0.038,-0.701 0.115,-1.006c0.077,-0.305 0.195,-0.567 0.353,-0.786c0.159,-0.218 0.356,-0.389 0.591,-0.512c0.236,-0.122 0.512,-0.183 0.829,-0.183c0.317,0 0.594,0.061 0.829,0.183c0.236,0.123 0.433,0.294 0.591,0.512c0.159,0.219 0.277,0.481 0.354,0.786c0.076,0.305 0.115,0.64 0.115,1.006Zm-0.995,0c0,-0.265 -0.015,-0.501 -0.047,-0.71c-0.031,-0.209 -0.083,-0.387 -0.155,-0.534c-0.072,-0.146 -0.164,-0.258 -0.277,-0.335c-0.113,-0.077 -0.251,-0.115 -0.415,-0.115c-0.163,0 -0.301,0.038 -0.414,0.115c-0.113,0.077 -0.206,0.189 -0.278,0.335c-0.072,0.147 -0.124,0.325 -0.155,0.534c-0.031,0.209 -0.047,0.445 -0.047,0.71c0,0.264 0.016,0.501 0.047,0.71c0.031,0.209 0.083,0.387 0.155,0.533c0.072,0.147 0.165,0.258 0.278,0.335c0.113,0.077 0.251,0.116 0.414,0.116c0.322,0 0.552,-0.151 0.689,-0.451c0.137,-0.3 0.205,-0.715 0.205,-1.243Z" style="fill-rule:nonzero;"/>
            </g>
            <g transform="matrix(0.959459,0,0,0.959459,-14.2816,39.7691)">
                <path d="M128.865,91.726c0,0.365 -0.039,0.7 -0.116,1.005c-0.077,0.305 -0.194,0.567 -0.353,0.786c-0.159,0.219 -0.356,0.389 -0.591,0.512c-0.236,0.122 -0.512,0.184 -0.829,0.184c-0.317,0 -0.594,-0.062 -0.829,-0.184c-0.236,-0.123 -0.433,-0.293 -0.591,-0.512c-0.159,-0.219 -0.277,-0.481 -0.353,-0.786c-0.077,-0.305 -0.116,-0.64 -0.116,-1.005c0,-0.366 0.039,-0.701 0.116,-1.006c0.076,-0.305 0.194,-0.567 0.353,-0.786c0.158,-0.218 0.355,-0.389 0.591,-0.512c0.235,-0.122 0.512,-0.183 0.829,-0.183c0.317,0 0.593,0.061 0.829,0.183c0.235,0.123 0.432,0.294 0.591,0.512c0.159,0.219 0.276,0.481 0.353,0.786c0.077,0.305 0.116,0.64 0.116,1.006Zm-0.995,0c0,-0.265 -0.016,-0.501 -0.047,-0.71c-0.031,-0.209 -0.083,-0.387 -0.155,-0.534c-0.072,-0.146 -0.165,-0.258 -0.278,-0.335c-0.113,-0.077 -0.251,-0.115 -0.414,-0.115c-0.163,0 -0.302,0.038 -0.415,0.115c-0.113,0.077 -0.205,0.189 -0.277,0.335c-0.072,0.147 -0.124,0.325 -0.155,0.534c-0.031,0.209 -0.047,0.445 -0.047,0.71c0,0.264 0.016,0.501 0.047,0.71c0.031,0.209 0.083,0.387 0.155,0.533c0.072,0.147 0.164,0.258 0.277,0.335c0.113,0.077 0.252,0.116 0.415,0.116c0.322,0 0.551,-0.151 0.688,-0.451c0.137,-0.3 0.206,-0.715 0.206,-1.243Z" style="fill-rule:nonzero;"/>
            </g>
        </g>
        <g id="ScaleMiddle1" serif:id="ScaleMiddle" transform="matrix(0.720434,0,0,0.720434,86.5172,206.377)">
            <g id="Big_1_1" serif:id="Big_1_">
                <path d="M129.99,118.265l0,-60.683" style="fill:none;stroke:#000;stroke-width:1.5px;"/>
                <path d="M165.49,93.105l-71,0" style="fill:none;stroke:#000;stroke-width:1.5px;"/>
                <path d="M99.247,110.867l61.488,-35.523" style="fill:none;stroke:#000;stroke-width:1.5px;"/>
                <path d="M112.24,123.872l35.5,-61.53" style="fill:none;stroke:#000;stroke-width:1.5px;"/>
                <path d="M160.735,110.867l-61.488,-35.523" style="fill:none;stroke:#000;stroke-width:1.5px;"/>
                <path d="M147.74,123.872l-35.5,-61.53" style="fill:none;stroke:#000;stroke-width:1.5px;"/>
            </g>
            <g id="Small_1_1" serif:id="Small_1_">
                <g id="smallScale_7_1" serif:id="smallScale_7_">
                    <path d="M132.77,119.705l-6.143,-58.479" style="fill:none;stroke:#f9f9f9;stroke-width:1px;"/>
                    <path d="M161.99,89.881l-64,6.732" style="fill:none;stroke:#f9f9f9;stroke-width:1px;"/>
                    <path d="M103.96,112.172l52.063,-37.851" style="fill:none;stroke:#f9f9f9;stroke-width:1px;"/>
                    <path d="M119.226,117.441l23.851,-53.609" style="fill:none;stroke:#f9f9f9;stroke-width:1px;"/>
                    <path d="M159.385,106.343l-58.788,-26.193" style="fill:none;stroke:#f9f9f9;stroke-width:1px;"/>
                    <path d="M148.902,119.296l-37.823,-52.098" style="fill:none;stroke:#f9f9f9;stroke-width:1px;"/>
                </g>
                <g id="smallScale_6_1" serif:id="smallScale_6_">
                    <path d="M135.489,119.136l-12.188,-57.383" style="fill:none;stroke:#f9f9f9;stroke-width:1px;"/>
                    <path d="M161.463,86.554l-62.944,13.387" style="fill:none;stroke:#f9f9f9;stroke-width:1px;"/>
                    <path d="M106.079,114.791l47.823,-43.088" style="fill:none;stroke:#f9f9f9;stroke-width:1px;"/>
                    <path d="M121.816,118.42l18.116,-55.795" style="fill:none;stroke:#f9f9f9;stroke-width:1px;"/>
                    <path d="M160.592,103.195l-61.202,-19.897" style="fill:none;stroke:#f9f9f9;stroke-width:1px;"/>
                    <path d="M151.521,117.176l-43.061,-47.859" style="fill:none;stroke:#f9f9f9;stroke-width:1px;"/>
                </g>
                <g id="smallScale_5_1" serif:id="smallScale_5_">
                    <path d="M138.166,118.427l-18.117,-55.801" style="fill:none;stroke:#f9f9f9;stroke-width:1px;"/>
                    <path d="M160.59,83.298l-61.2,19.898" style="fill:none;stroke:#f9f9f9;stroke-width:1px;"/>
                    <path d="M108.461,117.176l43.06,-47.859" style="fill:none;stroke:#f9f9f9;stroke-width:1px;"/>
                    <path d="M124.491,119.135l12.188,-57.382" style="fill:none;stroke:#f9f9f9;stroke-width:1px;"/>
                    <path d="M161.464,99.94l-62.945,-13.386" style="fill:none;stroke:#f9f9f9;stroke-width:1px;"/>
                    <path d="M153.901,114.791l-47.822,-43.088" style="fill:none;stroke:#f9f9f9;stroke-width:1px;"/>
                </g>
                <g id="smallScale_4_1" serif:id="smallScale_4_">
                    <g transform="matrix(1,0,0,0.998956,0,0.0666488)">
                        <path d="M140.753,117.44l-23.85,-53.607" style="fill:none;stroke:#f9f9f9;stroke-width:1px;"/>
                    </g>
                    <path d="M159.384,80.15l-58.787,26.193" style="fill:none;stroke:#f9f9f9;stroke-width:1px;"/>
                    <path d="M111.079,119.296l37.824,-52.1" style="fill:none;stroke:#f9f9f9;stroke-width:1px;"/>
                    <path d="M127.228,119.556l6.124,-58.329" style="fill:none;stroke:#f9f9f9;stroke-width:1px;"/>
                    <path d="M161.99,96.612l-64,-6.731" style="fill:none;stroke:#f9f9f9;stroke-width:1px;"/>
                    <path d="M156.021,112.172l-52.062,-37.851" style="fill:none;stroke:#f9f9f9;stroke-width:1px;"/>
                </g>
            </g>
            <g transform="matrix(0.959459,0,0,0.959459,-26.7775,24.6906)">
                <path d="M125.967,94.126l0,-3.734l-0.894,0.324l-0.238,-0.778l1.535,-0.613l0.592,0l0,4.801l-0.995,0Z" style="fill-rule:nonzero;"/>
            </g>
            <g transform="matrix(0.959459,0,0,0.959459,-31.4325,5.34996)">
                <path d="M125.167,89.599c0.173,-0.11 0.365,-0.198 0.576,-0.263c0.212,-0.065 0.445,-0.097 0.699,-0.097c0.476,0 0.852,0.127 1.129,0.382c0.276,0.254 0.414,0.61 0.414,1.067c0,0.192 -0.024,0.372 -0.072,0.54c-0.048,0.168 -0.115,0.328 -0.202,0.48c-0.086,0.151 -0.188,0.298 -0.306,0.439c-0.118,0.142 -0.246,0.28 -0.386,0.415c-0.149,0.144 -0.291,0.279 -0.425,0.404c-0.135,0.124 -0.267,0.245 -0.397,0.36l1.831,0l0,0.8l-2.984,0l-0.137,-0.577c0.13,-0.134 0.249,-0.257 0.357,-0.367c0.108,-0.111 0.21,-0.215 0.306,-0.314c0.096,-0.098 0.189,-0.196 0.278,-0.292c0.089,-0.096 0.181,-0.197 0.277,-0.303c0.106,-0.12 0.212,-0.24 0.317,-0.36c0.106,-0.12 0.199,-0.243 0.278,-0.368c0.079,-0.125 0.144,-0.252 0.195,-0.382c0.05,-0.129 0.075,-0.262 0.075,-0.396c0,-0.226 -0.065,-0.403 -0.194,-0.53c-0.13,-0.127 -0.31,-0.191 -0.541,-0.191c-0.178,0 -0.336,0.023 -0.476,0.068c-0.139,0.046 -0.266,0.105 -0.382,0.177l-0.23,-0.692Z" style="fill-rule:nonzero;"/>
            </g>
            <g transform="matrix(0.959459,0,0,0.959459,-26.8749,-13.4575)">
                <path d="M127.971,92.821c0,0.217 -0.045,0.41 -0.134,0.581c-0.089,0.17 -0.209,0.316 -0.36,0.436c-0.151,0.12 -0.33,0.212 -0.537,0.277c-0.207,0.065 -0.428,0.098 -0.663,0.098c-0.221,0 -0.445,-0.024 -0.671,-0.072c-0.226,-0.049 -0.423,-0.111 -0.591,-0.188l0.166,-0.75c0.149,0.068 0.304,0.122 0.465,0.163c0.161,0.04 0.333,0.061 0.515,0.061c0.274,0 0.479,-0.06 0.613,-0.18c0.135,-0.12 0.202,-0.272 0.202,-0.454c0,-0.246 -0.101,-0.422 -0.303,-0.53c-0.202,-0.108 -0.461,-0.163 -0.778,-0.163l-0.404,0l0,-0.8l0.267,0c0.355,0 0.63,-0.065 0.825,-0.194c0.195,-0.13 0.292,-0.308 0.292,-0.534c0,-0.173 -0.059,-0.306 -0.177,-0.4c-0.117,-0.094 -0.284,-0.14 -0.501,-0.14c-0.307,0 -0.596,0.067 -0.865,0.201l-0.173,-0.713c0.154,-0.087 0.34,-0.155 0.559,-0.206c0.219,-0.05 0.446,-0.075 0.681,-0.075c0.207,0 0.4,0.026 0.581,0.079c0.18,0.053 0.336,0.13 0.468,0.231c0.132,0.101 0.236,0.223 0.31,0.367c0.075,0.144 0.112,0.308 0.112,0.49c0,0.274 -0.076,0.516 -0.227,0.725c-0.152,0.209 -0.376,0.376 -0.674,0.501c0.134,0.038 0.263,0.092 0.385,0.162c0.123,0.07 0.23,0.154 0.321,0.252c0.091,0.099 0.164,0.213 0.216,0.343c0.053,0.13 0.08,0.274 0.08,0.432Z" style="fill-rule:nonzero;"/>
            </g>
            <g transform="matrix(0.959459,0,0,0.959459,-14.1018,-28.1218)">
                <path d="M128.028,92.901l0,1.225l-0.973,0l0,-1.225l-1.939,0l-0.144,-0.728l1.853,-2.848l1.203,0l0,2.812l0.649,0l0,0.764l-0.649,0Zm-0.973,-2.675l-1.16,1.911l1.16,0l0,-1.911Z" style="fill-rule:nonzero;"/>
            </g>
            <g transform="matrix(0.959459,0,0,0.959459,8.47298,-35.1424)">
                <path d="M128.18,92.677c0,0.24 -0.048,0.456 -0.144,0.645c-0.096,0.19 -0.229,0.351 -0.397,0.483c-0.168,0.132 -0.364,0.233 -0.587,0.303c-0.224,0.07 -0.465,0.105 -0.725,0.105c-0.216,0 -0.435,-0.021 -0.656,-0.062c-0.221,-0.04 -0.404,-0.092 -0.548,-0.155l0.137,-0.771c0.154,0.058 0.317,0.105 0.49,0.141c0.173,0.036 0.346,0.054 0.519,0.054c0.279,0 0.501,-0.058 0.667,-0.173c0.166,-0.116 0.249,-0.286 0.249,-0.512c0,-0.255 -0.1,-0.436 -0.299,-0.544c-0.2,-0.109 -0.463,-0.163 -0.79,-0.163l-0.778,0l0,-2.703l2.595,0l0,0.807l-1.607,0l0,1.111l0.151,0c0.245,0 0.472,0.031 0.681,0.093c0.209,0.063 0.392,0.154 0.548,0.274c0.156,0.12 0.278,0.269 0.364,0.447c0.087,0.178 0.13,0.385 0.13,0.62Z" style="fill-rule:nonzero;"/>
            </g>
            <g transform="matrix(0.959459,0,0,0.959459,30.7695,-28.2048)">
                <path d="M127.884,89.974c-0.216,0.11 -0.419,0.217 -0.609,0.321c-0.19,0.103 -0.363,0.218 -0.519,0.346c-0.156,0.127 -0.291,0.272 -0.404,0.436c-0.113,0.163 -0.198,0.36 -0.256,0.591c0.116,-0.125 0.256,-0.222 0.422,-0.292c0.166,-0.07 0.35,-0.105 0.552,-0.105c0.206,0 0.396,0.033 0.569,0.098c0.173,0.065 0.321,0.158 0.443,0.281c0.123,0.122 0.219,0.27 0.289,0.443c0.07,0.173 0.104,0.368 0.104,0.584c0,0.221 -0.042,0.425 -0.126,0.613c-0.084,0.187 -0.2,0.35 -0.349,0.486c-0.149,0.137 -0.322,0.244 -0.519,0.321c-0.197,0.077 -0.407,0.116 -0.628,0.116c-0.302,0 -0.564,-0.057 -0.785,-0.17c-0.221,-0.113 -0.404,-0.259 -0.548,-0.44c-0.144,-0.18 -0.253,-0.384 -0.325,-0.612c-0.072,-0.229 -0.108,-0.458 -0.108,-0.689c0,-0.379 0.057,-0.727 0.17,-1.041c0.113,-0.315 0.276,-0.6 0.49,-0.855c0.214,-0.254 0.474,-0.479 0.782,-0.674c0.308,-0.194 0.654,-0.359 1.038,-0.493l0.317,0.735Zm-0.346,2.732c0,-0.211 -0.06,-0.377 -0.18,-0.497c-0.12,-0.121 -0.288,-0.181 -0.505,-0.181c-0.173,0 -0.323,0.034 -0.45,0.101c-0.128,0.068 -0.234,0.147 -0.321,0.238c0,0.14 0.012,0.274 0.036,0.404c0.024,0.13 0.066,0.245 0.126,0.346c0.06,0.101 0.138,0.183 0.235,0.245c0.096,0.062 0.213,0.094 0.353,0.094c0.216,0 0.388,-0.071 0.515,-0.213c0.128,-0.142 0.191,-0.321 0.191,-0.537Z" style="fill-rule:nonzero;"/>
            </g>
            <g transform="matrix(0.959459,0,0,0.959459,44.1251,-13.5405)">
                <path d="M127.971,90.111l-1.838,4.015l-0.988,0l1.874,-4.008l-2.004,0l0,-0.793l2.819,0l0.137,0.786Z" style="fill-rule:nonzero;"/>
            </g>
            <g transform="matrix(0.959459,0,0,0.959459,48.503,5.26696)">
                <path d="M126.774,89.239c0.221,0 0.423,0.026 0.606,0.079c0.182,0.053 0.34,0.128 0.472,0.227c0.132,0.098 0.234,0.22 0.306,0.364c0.072,0.144 0.108,0.308 0.108,0.49c0,0.13 -0.024,0.25 -0.072,0.361c-0.048,0.11 -0.112,0.215 -0.191,0.313c-0.079,0.099 -0.169,0.19 -0.27,0.274c-0.101,0.084 -0.204,0.162 -0.31,0.234c0.13,0.082 0.253,0.167 0.371,0.256c0.118,0.089 0.221,0.188 0.31,0.296c0.089,0.108 0.16,0.227 0.213,0.357c0.053,0.129 0.079,0.274 0.079,0.432c0,0.183 -0.042,0.353 -0.126,0.512c-0.084,0.159 -0.201,0.296 -0.35,0.411c-0.149,0.115 -0.322,0.205 -0.519,0.27c-0.197,0.065 -0.406,0.098 -0.627,0.098c-0.245,0 -0.468,-0.03 -0.67,-0.09c-0.202,-0.061 -0.374,-0.145 -0.516,-0.253c-0.142,-0.108 -0.251,-0.24 -0.328,-0.396c-0.077,-0.156 -0.115,-0.333 -0.115,-0.53c0,-0.149 0.029,-0.287 0.086,-0.415c0.058,-0.127 0.133,-0.242 0.224,-0.346c0.091,-0.103 0.195,-0.199 0.31,-0.288c0.115,-0.089 0.233,-0.174 0.353,-0.256c-0.24,-0.163 -0.441,-0.337 -0.602,-0.523c-0.161,-0.185 -0.241,-0.407 -0.241,-0.666c0,-0.178 0.035,-0.342 0.104,-0.491c0.07,-0.149 0.17,-0.277 0.299,-0.385c0.13,-0.108 0.288,-0.191 0.473,-0.249c0.185,-0.058 0.392,-0.086 0.623,-0.086Zm0.685,3.683c0,-0.178 -0.06,-0.33 -0.18,-0.457c-0.12,-0.128 -0.289,-0.261 -0.505,-0.401c-0.096,0.073 -0.186,0.14 -0.27,0.202c-0.084,0.063 -0.158,0.128 -0.22,0.195c-0.063,0.067 -0.112,0.138 -0.148,0.213c-0.036,0.074 -0.054,0.159 -0.054,0.255c0,0.183 0.061,0.324 0.184,0.422c0.122,0.099 0.292,0.148 0.508,0.148c0.202,0 0.367,-0.054 0.494,-0.162c0.127,-0.108 0.191,-0.247 0.191,-0.415Zm-1.262,-2.494c0,0.139 0.042,0.261 0.127,0.364c0.084,0.103 0.234,0.227 0.45,0.371c0.168,-0.115 0.305,-0.23 0.411,-0.346c0.106,-0.115 0.159,-0.245 0.159,-0.389c0,-0.154 -0.053,-0.273 -0.159,-0.357c-0.106,-0.084 -0.243,-0.126 -0.411,-0.126c-0.173,0 -0.312,0.046 -0.418,0.137c-0.106,0.091 -0.159,0.207 -0.159,0.346Z" style="fill-rule:nonzero;"/>
            </g>
            <g transform="matrix(0.959459,0,0,0.959459,44.9615,24.7736)">
                <path d="M125.642,93.477c0.217,-0.096 0.42,-0.195 0.609,-0.299c0.19,-0.103 0.362,-0.22 0.516,-0.349c0.154,-0.13 0.288,-0.279 0.404,-0.447c0.115,-0.169 0.201,-0.368 0.259,-0.599c-0.115,0.125 -0.256,0.223 -0.422,0.292c-0.165,0.07 -0.349,0.105 -0.551,0.105c-0.207,0 -0.397,-0.033 -0.57,-0.098c-0.173,-0.064 -0.32,-0.158 -0.443,-0.281c-0.122,-0.122 -0.219,-0.27 -0.288,-0.443c-0.07,-0.173 -0.105,-0.368 -0.105,-0.584c0,-0.231 0.04,-0.441 0.119,-0.631c0.079,-0.19 0.191,-0.352 0.335,-0.486c0.145,-0.135 0.316,-0.238 0.516,-0.31c0.199,-0.072 0.417,-0.108 0.652,-0.108c0.308,0 0.573,0.056 0.797,0.169c0.223,0.113 0.407,0.26 0.551,0.44c0.144,0.18 0.25,0.384 0.317,0.612c0.068,0.229 0.101,0.458 0.101,0.689c0,0.384 -0.056,0.735 -0.169,1.052c-0.113,0.318 -0.276,0.602 -0.49,0.855c-0.214,0.252 -0.475,0.474 -0.782,0.666c-0.308,0.193 -0.654,0.356 -1.038,0.491l-0.318,-0.736Zm0.346,-2.739c0,0.221 0.063,0.39 0.188,0.508c0.125,0.118 0.291,0.177 0.497,0.177c0.173,0 0.323,-0.034 0.451,-0.101c0.127,-0.067 0.234,-0.147 0.321,-0.238c0,-0.135 -0.013,-0.268 -0.037,-0.4c-0.024,-0.132 -0.066,-0.249 -0.126,-0.35c-0.06,-0.101 -0.138,-0.182 -0.234,-0.245c-0.096,-0.062 -0.214,-0.093 -0.353,-0.093c-0.216,0 -0.388,0.067 -0.516,0.201c-0.127,0.135 -0.191,0.315 -0.191,0.541Z" style="fill-rule:nonzero;"/>
            </g>
            <g transform="matrix(0.959459,0,0,0.959459,31.015,39.7691)">
                <path d="M125.967,94.126l0,-3.734l-0.894,0.324l-0.238,-0.778l1.535,-0.613l0.592,0l0,4.801l-0.995,0Z" style="fill-rule:nonzero;"/>
                <path d="M131.604,91.726c0,0.365 -0.039,0.7 -0.115,1.005c-0.077,0.305 -0.195,0.567 -0.354,0.786c-0.158,0.219 -0.355,0.389 -0.591,0.512c-0.235,0.122 -0.512,0.184 -0.829,0.184c-0.317,0 -0.593,-0.062 -0.829,-0.184c-0.235,-0.123 -0.432,-0.293 -0.591,-0.512c-0.158,-0.219 -0.276,-0.481 -0.353,-0.786c-0.077,-0.305 -0.115,-0.64 -0.115,-1.005c0,-0.366 0.038,-0.701 0.115,-1.006c0.077,-0.305 0.195,-0.567 0.353,-0.786c0.159,-0.218 0.356,-0.389 0.591,-0.512c0.236,-0.122 0.512,-0.183 0.829,-0.183c0.317,0 0.594,0.061 0.829,0.183c0.236,0.123 0.433,0.294 0.591,0.512c0.159,0.219 0.277,0.481 0.354,0.786c0.076,0.305 0.115,0.64 0.115,1.006Zm-0.995,0c0,-0.265 -0.015,-0.501 -0.047,-0.71c-0.031,-0.209 -0.083,-0.387 -0.155,-0.534c-0.072,-0.146 -0.164,-0.258 -0.277,-0.335c-0.113,-0.077 -0.251,-0.115 -0.415,-0.115c-0.163,0 -0.301,0.038 -0.414,0.115c-0.113,0.077 -0.206,0.189 -0.278,0.335c-0.072,0.147 -0.124,0.325 -0.155,0.534c-0.031,0.209 -0.047,0.445 -0.047,0.71c0,0.264 0.016,0.501 0.047,0.71c0.031,0.209 0.083,0.387 0.155,0.533c0.072,0.147 0.165,0.258 0.278,0.335c0.113,0.077 0.251,0.116 0.414,0.116c0.322,0 0.552,-0.151 0.689,-0.451c0.137,-0.3 0.205,-0.715 0.205,-1.243Z" style="fill-rule:nonzero;"/>
            </g>
            <g transform="matrix(0.959459,0,0,0.959459,-14.2816,39.7691)">
                <path d="M128.865,91.726c0,0.365 -0.039,0.7 -0.116,1.005c-0.077,0.305 -0.194,0.567 -0.353,0.786c-0.159,0.219 -0.356,0.389 -0.591,0.512c-0.236,0.122 -0.512,0.184 -0.829,0.184c-0.317,0 -0.594,-0.062 -0.829,-0.184c-0.236,-0.123 -0.433,-0.293 -0.591,-0.512c-0.159,-0.219 -0.277,-0.481 -0.353,-0.786c-0.077,-0.305 -0.116,-0.64 -0.116,-1.005c0,-0.366 0.039,-0.701 0.116,-1.006c0.076,-0.305 0.194,-0.567 0.353,-0.786c0.158,-0.218 0.355,-0.389 0.591,-0.512c0.235,-0.122 0.512,-0.183 0.829,-0.183c0.317,0 0.593,0.061 0.829,0.183c0.235,0.123 0.432,0.294 0.591,0.512c0.159,0.219 0.276,0.481 0.353,0.786c0.077,0.305 0.116,0.64 0.116,1.006Zm-0.995,0c0,-0.265 -0.016,-0.501 -0.047,-0.71c-0.031,-0.209 -0.083,-0.387 -0.155,-0.534c-0.072,-0.146 -0.165,-0.258 -0.278,-0.335c-0.113,-0.077 -0.251,-0.115 -0.414,-0.115c-0.163,0 -0.302,0.038 -0.415,0.115c-0.113,0.077 -0.205,0.189 -0.277,0.335c-0.072,0.147 -0.124,0.325 -0.155,0.534c-0.031,0.209 -0.047,0.445 -0.047,0.71c0,0.264 0.016,0.501 0.047,0.71c0.031,0.209 0.083,0.387 0.155,0.533c0.072,0.147 0.164,0.258 0.277,0.335c0.113,0.077 0.252,0.116 0.415,0.116c0.322,0 0.551,-0.151 0.688,-0.451c0.137,-0.3 0.206,-0.715 0.206,-1.243Z" style="fill-rule:nonzero;"/>
            </g>
        </g>
        <g id="ScaleBig" transform="matrix(0.936565,0,0,0.936565,55.5861,18.2119)">
            <g id="Big_1_2" serif:id="Big_1_">
                <path d="M129.99,118.265l0,-60.683" style="fill:none;stroke:#000;stroke-width:1.5px;"/>
                <path d="M165.49,93.105l-71,0" style="fill:none;stroke:#000;stroke-width:1.5px;"/>
                <path d="M99.247,110.867l61.488,-35.523" style="fill:none;stroke:#000;stroke-width:1.5px;"/>
                <path d="M112.24,123.872l35.5,-61.53" style="fill:none;stroke:#000;stroke-width:1.5px;"/>
                <path d="M160.735,110.867l-61.488,-35.523" style="fill:none;stroke:#000;stroke-width:1.5px;"/>
                <path d="M147.74,123.872l-35.5,-61.53" style="fill:none;stroke:#000;stroke-width:1.5px;"/>
            </g>
            <g id="Small_1_2" serif:id="Small_1_">
                <g id="smallScale_7_2" serif:id="smallScale_7_">
                    <path d="M132.77,119.705l-6.143,-58.479" style="fill:none;stroke:#f9f9f9;stroke-width:1px;"/>
                    <path d="M161.99,89.881l-64,6.732" style="fill:none;stroke:#f9f9f9;stroke-width:1px;"/>
                    <path d="M103.96,112.172l52.063,-37.851" style="fill:none;stroke:#f9f9f9;stroke-width:1px;"/>
                    <path d="M119.226,117.441l23.851,-53.609" style="fill:none;stroke:#f9f9f9;stroke-width:1px;"/>
                    <path d="M159.385,106.343l-58.788,-26.193" style="fill:none;stroke:#f9f9f9;stroke-width:1px;"/>
                    <path d="M148.902,119.296l-37.823,-52.098" style="fill:none;stroke:#f9f9f9;stroke-width:1px;"/>
                </g>
                <g id="smallScale_6_2" serif:id="smallScale_6_">
                    <path d="M135.489,119.136l-12.188,-57.383" style="fill:none;stroke:#f9f9f9;stroke-width:1px;"/>
                    <path d="M161.463,86.554l-62.944,13.387" style="fill:none;stroke:#f9f9f9;stroke-width:1px;"/>
                    <path d="M106.079,114.791l47.823,-43.088" style="fill:none;stroke:#f9f9f9;stroke-width:1px;"/>
                    <path d="M121.816,118.42l18.116,-55.795" style="fill:none;stroke:#f9f9f9;stroke-width:1px;"/>
                    <path d="M160.592,103.195l-61.202,-19.897" style="fill:none;stroke:#f9f9f9;stroke-width:1px;"/>
                    <path d="M151.521,117.176l-43.061,-47.859" style="fill:none;stroke:#f9f9f9;stroke-width:1px;"/>
                </g>
                <g id="smallScale_5_2" serif:id="smallScale_5_">
                    <path d="M138.166,118.427l-18.117,-55.801" style="fill:none;stroke:#f9f9f9;stroke-width:1px;"/>
                    <path d="M160.59,83.298l-61.2,19.898" style="fill:none;stroke:#f9f9f9;stroke-width:1px;"/>
                    <path d="M108.461,117.176l43.06,-47.859" style="fill:none;stroke:#f9f9f9;stroke-width:1px;"/>
                    <path d="M124.491,119.135l12.188,-57.382" style="fill:none;stroke:#f9f9f9;stroke-width:1px;"/>
                    <path d="M161.464,99.94l-62.945,-13.386" style="fill:none;stroke:#f9f9f9;stroke-width:1px;"/>
                    <path d="M153.901,114.791l-47.822,-43.088" style="fill:none;stroke:#f9f9f9;stroke-width:1px;"/>
                </g>
                <g id="smallScale_4_2" serif:id="smallScale_4_">
                    <g transform="matrix(1,0,0,0.998956,0,0.0666488)">
                        <path d="M140.753,117.44l-23.85,-53.607" style="fill:none;stroke:#f9f9f9;stroke-width:1px;"/>
                    </g>
                    <path d="M159.384,80.15l-58.787,26.193" style="fill:none;stroke:#f9f9f9;stroke-width:1px;"/>
                    <path d="M111.079,119.296l37.824,-52.1" style="fill:none;stroke:#f9f9f9;stroke-width:1px;"/>
                    <path d="M127.228,119.556l6.124,-58.329" style="fill:none;stroke:#f9f9f9;stroke-width:1px;"/>
                    <path d="M161.99,96.612l-64,-6.731" style="fill:none;stroke:#f9f9f9;stroke-width:1px;"/>
                    <path d="M156.021,112.172l-52.062,-37.851" style="fill:none;stroke:#f9f9f9;stroke-width:1px;"/>
                </g>
            </g>
            <g transform="matrix(0.959459,0,0,0.959459,-26.7775,24.6906)">
                <path d="M125.967,94.126l0,-3.734l-0.894,0.324l-0.238,-0.778l1.535,-0.613l0.592,0l0,4.801l-0.995,0Z" style="fill-rule:nonzero;"/>
            </g>
            <g transform="matrix(0.959459,0,0,0.959459,-31.4325,5.34996)">
                <path d="M125.167,89.599c0.173,-0.11 0.365,-0.198 0.576,-0.263c0.212,-0.065 0.445,-0.097 0.699,-0.097c0.476,0 0.852,0.127 1.129,0.382c0.276,0.254 0.414,0.61 0.414,1.067c0,0.192 -0.024,0.372 -0.072,0.54c-0.048,0.168 -0.115,0.328 -0.202,0.48c-0.086,0.151 -0.188,0.298 -0.306,0.439c-0.118,0.142 -0.246,0.28 -0.386,0.415c-0.149,0.144 -0.291,0.279 -0.425,0.404c-0.135,0.124 -0.267,0.245 -0.397,0.36l1.831,0l0,0.8l-2.984,0l-0.137,-0.577c0.13,-0.134 0.249,-0.257 0.357,-0.367c0.108,-0.111 0.21,-0.215 0.306,-0.314c0.096,-0.098 0.189,-0.196 0.278,-0.292c0.089,-0.096 0.181,-0.197 0.277,-0.303c0.106,-0.12 0.212,-0.24 0.317,-0.36c0.106,-0.12 0.199,-0.243 0.278,-0.368c0.079,-0.125 0.144,-0.252 0.195,-0.382c0.05,-0.129 0.075,-0.262 0.075,-0.396c0,-0.226 -0.065,-0.403 -0.194,-0.53c-0.13,-0.127 -0.31,-0.191 -0.541,-0.191c-0.178,0 -0.336,0.023 -0.476,0.068c-0.139,0.046 -0.266,0.105 -0.382,0.177l-0.23,-0.692Z" style="fill-rule:nonzero;"/>
            </g>
            <g transform="matrix(0.959459,0,0,0.959459,-26.8749,-13.4575)">
                <path d="M127.971,92.821c0,0.217 -0.045,0.41 -0.134,0.581c-0.089,0.17 -0.209,0.316 -0.36,0.436c-0.151,0.12 -0.33,0.212 -0.537,0.277c-0.207,0.065 -0.428,0.098 -0.663,0.098c-0.221,0 -0.445,-0.024 -0.671,-0.072c-0.226,-0.049 -0.423,-0.111 -0.591,-0.188l0.166,-0.75c0.149,0.068 0.304,0.122 0.465,0.163c0.161,0.04 0.333,0.061 0.515,0.061c0.274,0 0.479,-0.06 0.613,-0.18c0.135,-0.12 0.202,-0.272 0.202,-0.454c0,-0.246 -0.101,-0.422 -0.303,-0.53c-0.202,-0.108 -0.461,-0.163 -0.778,-0.163l-0.404,0l0,-0.8l0.267,0c0.355,0 0.63,-0.065 0.825,-0.194c0.195,-0.13 0.292,-0.308 0.292,-0.534c0,-0.173 -0.059,-0.306 -0.177,-0.4c-0.117,-0.094 -0.284,-0.14 -0.501,-0.14c-0.307,0 -0.596,0.067 -0.865,0.201l-0.173,-0.713c0.154,-0.087 0.34,-0.155 0.559,-0.206c0.219,-0.05 0.446,-0.075 0.681,-0.075c0.207,0 0.4,0.026 0.581,0.079c0.18,0.053 0.336,0.13 0.468,0.231c0.132,0.101 0.236,0.223 0.31,0.367c0.075,0.144 0.112,0.308 0.112,0.49c0,0.274 -0.076,0.516 -0.227,0.725c-0.152,0.209 -0.376,0.376 -0.674,0.501c0.134,0.038 0.263,0.092 0.385,0.162c0.123,0.07 0.23,0.154 0.321,0.252c0.091,0.099 0.164,0.213 0.216,0.343c0.053,0.13 0.08,0.274 0.08,0.432Z" style="fill-rule:nonzero;"/>
            </g>
            <g transform="matrix(0.959459,0,0,0.959459,-14.1018,-28.1218)">
                <path d="M128.028,92.901l0,1.225l-0.973,0l0,-1.225l-1.939,0l-0.144,-0.728l1.853,-2.848l1.203,0l0,2.812l0.649,0l0,0.764l-0.649,0Zm-0.973,-2.675l-1.16,1.911l1.16,0l0,-1.911Z" style="fill-rule:nonzero;"/>
            </g>
            <g transform="matrix(0.959459,0,0,0.959459,8.47298,-35.1424)">
                <path d="M128.18,92.677c0,0.24 -0.048,0.456 -0.144,0.645c-0.096,0.19 -0.229,0.351 -0.397,0.483c-0.168,0.132 -0.364,0.233 -0.587,0.303c-0.224,0.07 -0.465,0.105 -0.725,0.105c-0.216,0 -0.435,-0.021 -0.656,-0.062c-0.221,-0.04 -0.404,-0.092 -0.548,-0.155l0.137,-0.771c0.154,0.058 0.317,0.105 0.49,0.141c0.173,0.036 0.346,0.054 0.519,0.054c0.279,0 0.501,-0.058 0.667,-0.173c0.166,-0.116 0.249,-0.286 0.249,-0.512c0,-0.255 -0.1,-0.436 -0.299,-0.544c-0.2,-0.109 -0.463,-0.163 -0.79,-0.163l-0.778,0l0,-2.703l2.595,0l0,0.807l-1.607,0l0,1.111l0.151,0c0.245,0 0.472,0.031 0.681,0.093c0.209,0.063 0.392,0.154 0.548,0.274c0.156,0.12 0.278,0.269 0.364,0.447c0.087,0.178 0.13,0.385 0.13,0.62Z" style="fill-rule:nonzero;"/>
            </g>
            <g transform="matrix(0.959459,0,0,0.959459,30.7695,-28.2048)">
                <path d="M127.884,89.974c-0.216,0.11 -0.419,0.217 -0.609,0.321c-0.19,0.103 -0.363,0.218 -0.519,0.346c-0.156,0.127 -0.291,0.272 -0.404,0.436c-0.113,0.163 -0.198,0.36 -0.256,0.591c0.116,-0.125 0.256,-0.222 0.422,-0.292c0.166,-0.07 0.35,-0.105 0.552,-0.105c0.206,0 0.396,0.033 0.569,0.098c0.173,0.065 0.321,0.158 0.443,0.281c0.123,0.122 0.219,0.27 0.289,0.443c0.07,0.173 0.104,0.368 0.104,0.584c0,0.221 -0.042,0.425 -0.126,0.613c-0.084,0.187 -0.2,0.35 -0.349,0.486c-0.149,0.137 -0.322,0.244 -0.519,0.321c-0.197,0.077 -0.407,0.116 -0.628,0.116c-0.302,0 -0.564,-0.057 -0.785,-0.17c-0.221,-0.113 -0.404,-0.259 -0.548,-0.44c-0.144,-0.18 -0.253,-0.384 -0.325,-0.612c-0.072,-0.229 -0.108,-0.458 -0.108,-0.689c0,-0.379 0.057,-0.727 0.17,-1.041c0.113,-0.315 0.276,-0.6 0.49,-0.855c0.214,-0.254 0.474,-0.479 0.782,-0.674c0.308,-0.194 0.654,-0.359 1.038,-0.493l0.317,0.735Zm-0.346,2.732c0,-0.211 -0.06,-0.377 -0.18,-0.497c-0.12,-0.121 -0.288,-0.181 -0.505,-0.181c-0.173,0 -0.323,0.034 -0.45,0.101c-0.128,0.068 -0.234,0.147 -0.321,0.238c0,0.14 0.012,0.274 0.036,0.404c0.024,0.13 0.066,0.245 0.126,0.346c0.06,0.101 0.138,0.183 0.235,0.245c0.096,0.062 0.213,0.094 0.353,0.094c0.216,0 0.388,-0.071 0.515,-0.213c0.128,-0.142 0.191,-0.321 0.191,-0.537Z" style="fill-rule:nonzero;"/>
            </g>
            <g transform="matrix(0.959459,0,0,0.959459,44.1251,-13.5405)">
                <path d="M127.971,90.111l-1.838,4.015l-0.988,0l1.874,-4.008l-2.004,0l0,-0.793l2.819,0l0.137,0.786Z" style="fill-rule:nonzero;"/>
            </g>
            <g transform="matrix(0.959459,0,0,0.959459,48.503,5.26696)">
                <path d="M126.774,89.239c0.221,0 0.423,0.026 0.606,0.079c0.182,0.053 0.34,0.128 0.472,0.227c0.132,0.098 0.234,0.22 0.306,0.364c0.072,0.144 0.108,0.308 0.108,0.49c0,0.13 -0.024,0.25 -0.072,0.361c-0.048,0.11 -0.112,0.215 -0.191,0.313c-0.079,0.099 -0.169,0.19 -0.27,0.274c-0.101,0.084 -0.204,0.162 -0.31,0.234c0.13,0.082 0.253,0.167 0.371,0.256c0.118,0.089 0.221,0.188 0.31,0.296c0.089,0.108 0.16,0.227 0.213,0.357c0.053,0.129 0.079,0.274 0.079,0.432c0,0.183 -0.042,0.353 -0.126,0.512c-0.084,0.159 -0.201,0.296 -0.35,0.411c-0.149,0.115 -0.322,0.205 -0.519,0.27c-0.197,0.065 -0.406,0.098 -0.627,0.098c-0.245,0 -0.468,-0.03 -0.67,-0.09c-0.202,-0.061 -0.374,-0.145 -0.516,-0.253c-0.142,-0.108 -0.251,-0.24 -0.328,-0.396c-0.077,-0.156 -0.115,-0.333 -0.115,-0.53c0,-0.149 0.029,-0.287 0.086,-0.415c0.058,-0.127 0.133,-0.242 0.224,-0.346c0.091,-0.103 0.195,-0.199 0.31,-0.288c0.115,-0.089 0.233,-0.174 0.353,-0.256c-0.24,-0.163 -0.441,-0.337 -0.602,-0.523c-0.161,-0.185 -0.241,-0.407 -0.241,-0.666c0,-0.178 0.035,-0.342 0.104,-0.491c0.07,-0.149 0.17,-0.277 0.299,-0.385c0.13,-0.108 0.288,-0.191 0.473,-0.249c0.185,-0.058 0.392,-0.086 0.623,-0.086Zm0.685,3.683c0,-0.178 -0.06,-0.33 -0.18,-0.457c-0.12,-0.128 -0.289,-0.261 -0.505,-0.401c-0.096,0.073 -0.186,0.14 -0.27,0.202c-0.084,0.063 -0.158,0.128 -0.22,0.195c-0.063,0.067 -0.112,0.138 -0.148,0.213c-0.036,0.074 -0.054,0.159 -0.054,0.255c0,0.183 0.061,0.324 0.184,0.422c0.122,0.099 0.292,0.148 0.508,0.148c0.202,0 0.367,-0.054 0.494,-0.162c0.127,-0.108 0.191,-0.247 0.191,-0.415Zm-1.262,-2.494c0,0.139 0.042,0.261 0.127,0.364c0.084,0.103 0.234,0.227 0.45,0.371c0.168,-0.115 0.305,-0.23 0.411,-0.346c0.106,-0.115 0.159,-0.245 0.159,-0.389c0,-0.154 -0.053,-0.273 -0.159,-0.357c-0.106,-0.084 -0.243,-0.126 -0.411,-0.126c-0.173,0 -0.312,0.046 -0.418,0.137c-0.106,0.091 -0.159,0.207 -0.159,0.346Z" style="fill-rule:nonzero;"/>
            </g>
            <g transform="matrix(0.959459,0,0,0.959459,44.9615,24.7736)">
                <path d="M125.642,93.477c0.217,-0.096 0.42,-0.195 0.609,-0.299c0.19,-0.103 0.362,-0.22 0.516,-0.349c0.154,-0.13 0.288,-0.279 0.404,-0.447c0.115,-0.169 0.201,-0.368 0.259,-0.599c-0.115,0.125 -0.256,0.223 -0.422,0.292c-0.165,0.07 -0.349,0.105 -0.551,0.105c-0.207,0 -0.397,-0.033 -0.57,-0.098c-0.173,-0.064 -0.32,-0.158 -0.443,-0.281c-0.122,-0.122 -0.219,-0.27 -0.288,-0.443c-0.07,-0.173 -0.105,-0.368 -0.105,-0.584c0,-0.231 0.04,-0.441 0.119,-0.631c0.079,-0.19 0.191,-0.352 0.335,-0.486c0.145,-0.135 0.316,-0.238 0.516,-0.31c0.199,-0.072 0.417,-0.108 0.652,-0.108c0.308,0 0.573,0.056 0.797,0.169c0.223,0.113 0.407,0.26 0.551,0.44c0.144,0.18 0.25,0.384 0.317,0.612c0.068,0.229 0.101,0.458 0.101,0.689c0,0.384 -0.056,0.735 -0.169,1.052c-0.113,0.318 -0.276,0.602 -0.49,0.855c-0.214,0.252 -0.475,0.474 -0.782,0.666c-0.308,0.193 -0.654,0.356 -1.038,0.491l-0.318,-0.736Zm0.346,-2.739c0,0.221 0.063,0.39 0.188,0.508c0.125,0.118 0.291,0.177 0.497,0.177c0.173,0 0.323,-0.034 0.451,-0.101c0.127,-0.067 0.234,-0.147 0.321,-0.238c0,-0.135 -0.013,-0.268 -0.037,-0.4c-0.024,-0.132 -0.066,-0.249 -0.126,-0.35c-0.06,-0.101 -0.138,-0.182 -0.234,-0.245c-0.096,-0.062 -0.214,-0.093 -0.353,-0.093c-0.216,0 -0.388,0.067 -0.516,0.201c-0.127,0.135 -0.191,0.315 -0.191,0.541Z" style="fill-rule:nonzero;"/>
            </g>
            <g transform="matrix(0.959459,0,0,0.959459,31.015,39.7691)">
                <path d="M125.967,94.126l0,-3.734l-0.894,0.324l-0.238,-0.778l1.535,-0.613l0.592,0l0,4.801l-0.995,0Z" style="fill-rule:nonzero;"/>
                <path d="M131.604,91.726c0,0.365 -0.039,0.7 -0.115,1.005c-0.077,0.305 -0.195,0.567 -0.354,0.786c-0.158,0.219 -0.355,0.389 -0.591,0.512c-0.235,0.122 -0.512,0.184 -0.829,0.184c-0.317,0 -0.593,-0.062 -0.829,-0.184c-0.235,-0.123 -0.432,-0.293 -0.591,-0.512c-0.158,-0.219 -0.276,-0.481 -0.353,-0.786c-0.077,-0.305 -0.115,-0.64 -0.115,-1.005c0,-0.366 0.038,-0.701 0.115,-1.006c0.077,-0.305 0.195,-0.567 0.353,-0.786c0.159,-0.218 0.356,-0.389 0.591,-0.512c0.236,-0.122 0.512,-0.183 0.829,-0.183c0.317,0 0.594,0.061 0.829,0.183c0.236,0.123 0.433,0.294 0.591,0.512c0.159,0.219 0.277,0.481 0.354,0.786c0.076,0.305 0.115,0.64 0.115,1.006Zm-0.995,0c0,-0.265 -0.015,-0.501 -0.047,-0.71c-0.031,-0.209 -0.083,-0.387 -0.155,-0.534c-0.072,-0.146 -0.164,-0.258 -0.277,-0.335c-0.113,-0.077 -0.251,-0.115 -0.415,-0.115c-0.163,0 -0.301,0.038 -0.414,0.115c-0.113,0.077 -0.206,0.189 -0.278,0.335c-0.072,0.147 -0.124,0.325 -0.155,0.534c-0.031,0.209 -0.047,0.445 -0.047,0.71c0,0.264 0.016,0.501 0.047,0.71c0.031,0.209 0.083,0.387 0.155,0.533c0.072,0.147 0.165,0.258 0.278,0.335c0.113,0.077 0.251,0.116 0.414,0.116c0.322,0 0.552,-0.151 0.689,-0.451c0.137,-0.3 0.205,-0.715 0.205,-1.243Z" style="fill-rule:nonzero;"/>
            </g>
            <g transform="matrix(0.959459,0,0,0.959459,-14.2816,39.7691)">
                <path d="M128.865,91.726c0,0.365 -0.039,0.7 -0.116,1.005c-0.077,0.305 -0.194,0.567 -0.353,0.786c-0.159,0.219 -0.356,0.389 -0.591,0.512c-0.236,0.122 -0.512,0.184 -0.829,0.184c-0.317,0 -0.594,-0.062 -0.829,-0.184c-0.236,-0.123 -0.433,-0.293 -0.591,-0.512c-0.159,-0.219 -0.277,-0.481 -0.353,-0.786c-0.077,-0.305 -0.116,-0.64 -0.116,-1.005c0,-0.366 0.039,-0.701 0.116,-1.006c0.076,-0.305 0.194,-0.567 0.353,-0.786c0.158,-0.218 0.355,-0.389 0.591,-0.512c0.235,-0.122 0.512,-0.183 0.829,-0.183c0.317,0 0.593,0.061 0.829,0.183c0.235,0.123 0.432,0.294 0.591,0.512c0.159,0.219 0.276,0.481 0.353,0.786c0.077,0.305 0.116,0.64 0.116,1.006Zm-0.995,0c0,-0.265 -0.016,-0.501 -0.047,-0.71c-0.031,-0.209 -0.083,-0.387 -0.155,-0.534c-0.072,-0.146 -0.165,-0.258 -0.278,-0.335c-0.113,-0.077 -0.251,-0.115 -0.414,-0.115c-0.163,0 -0.302,0.038 -0.415,0.115c-0.113,0.077 -0.205,0.189 -0.277,0.335c-0.072,0.147 -0.124,0.325 -0.155,0.534c-0.031,0.209 -0.047,0.445 -0.047,0.71c0,0.264 0.016,0.501 0.047,0.71c0.031,0.209 0.083,0.387 0.155,0.533c0.072,0.147 0.164,0.258 0.277,0.335c0.113,0.077 0.252,0.116 0.415,0.116c0.322,0 0.551,-0.151 0.688,-0.451c0.137,-0.3 0.206,-0.715 0.206,-1.243Z" style="fill-rule:nonzero;"/>
            </g>
        </g>
        <g id="ScaleSmall" transform="matrix(0.720434,0,0,0.720434,3.21503,38.1901)">
            <g id="Big_1_3" serif:id="Big_1_" transform="matrix(0.410551,0,0,0.410551,76.6225,53.479)">
                <path d="M129.99,118.265l0,-60.683" style="fill:none;stroke:#000;stroke-width:1.5px;"/>
                <path d="M165.49,93.105l-71,0" style="fill:none;stroke:#000;stroke-width:1.5px;"/>
                <path d="M99.247,110.867l61.488,-35.523" style="fill:none;stroke:#000;stroke-width:1.5px;"/>
                <path d="M112.24,123.872l35.5,-61.53" style="fill:none;stroke:#000;stroke-width:1.5px;"/>
                <path d="M160.735,110.867l-61.488,-35.523" style="fill:none;stroke:#000;stroke-width:1.5px;"/>
                <path d="M147.74,123.872l-35.5,-61.53" style="fill:none;stroke:#000;stroke-width:1.5px;"/>
            </g>
            <g id="InnerCircle_1_" transform="matrix(0.745435,0,0,0.745435,33.1524,21.6828)">
                <path d="M117.435,116.771c-8.587,-4.523 -14.444,-13.541 -14.444,-23.928c0,-14.922 12.089,-27.018 27,-27.018c14.91,0 27,12.096 27,27.018c0,10.35 -5.814,19.338 -14.349,23.876" style="fill:#f9f9f9;stroke:#000;stroke-width:2.08px;"/>
            </g>
        </g>
        <g id="ScaleSmall1" serif:id="ScaleSmall" transform="matrix(0.720434,0,0,0.720434,3.21503,127.821)">
            <g id="Big_1_4" serif:id="Big_1_" transform="matrix(0.410551,0,0,0.410551,76.6225,53.479)">
                <path d="M129.99,118.265l0,-60.683" style="fill:none;stroke:#000;stroke-width:1.5px;"/>
                <path d="M165.49,93.105l-71,0" style="fill:none;stroke:#000;stroke-width:1.5px;"/>
                <path d="M99.247,110.867l61.488,-35.523" style="fill:none;stroke:#000;stroke-width:1.5px;"/>
                <path d="M112.24,123.872l35.5,-61.53" style="fill:none;stroke:#000;stroke-width:1.5px;"/>
                <path d="M160.735,110.867l-61.488,-35.523" style="fill:none;stroke:#000;stroke-width:1.5px;"/>
                <path d="M147.74,123.872l-35.5,-61.53" style="fill:none;stroke:#000;stroke-width:1.5px;"/>
            </g>
            <g id="InnerCircle_1_1" serif:id="InnerCircle_1_" transform="matrix(0.745435,0,0,0.745435,33.1524,21.6828)">
                <path d="M117.435,116.771c-8.587,-4.523 -14.444,-13.541 -14.444,-23.928c0,-14.922 12.089,-27.018 27,-27.018c14.91,0 27,12.096 27,27.018c0,10.35 -5.814,19.338 -14.349,23.876" style="fill:#f9f9f9;stroke:#000;stroke-width:2.08px;"/>
            </g>
        </g>
        <g id="ScaleSmall2" serif:id="ScaleSmall" transform="matrix(0.720434,0,0,0.720434,3.21503,207.837)">
            <g id="Big_1_5" serif:id="Big_1_" transform="matrix(0.410551,0,0,0.410551,76.6225,53.479)">
                <path d="M129.99,118.265l0,-60.683" style="fill:none;stroke:#000;stroke-width:1.5px;"/>
                <path d="M165.49,93.105l-71,0" style="fill:none;stroke:#000;stroke-width:1.5px;"/>
                <path d="M99.247,110.867l61.488,-35.523" style="fill:none;stroke:#000;stroke-width:1.5px;"/>
                <path d="M112.24,123.872l35.5,-61.53" style="fill:none;stroke:#000;stroke-width:1.5px;"/>
                <path d="M160.735,110.867l-61.488,-35.523" style="fill:none;stroke:#000;stroke-width:1.5px;"/>
                <path d="M147.74,123.872l-35.5,-61.53" style="fill:none;stroke:#000;stroke-width:1.5px;"/>
            </g>
            <g id="InnerCircle_1_2" serif:id="InnerCircle_1_" transform="matrix(0.745435,0,0,0.745435,33.1524,21.6828)">
                <path d="M117.435,116.771c-8.587,-4.523 -14.444,-13.541 -14.444,-23.928c0,-14.922 12.089,-27.018 27,-27.018c14.91,0 27,12.096 27,27.018c0,10.35 -5.814,19.338 -14.349,23.876" style="fill:#f9f9f9;stroke:#000;stroke-width:2.08px;"/>
            </g>
        </g>
    </g>
    <g id="Description" transform="matrix(1,0,0,1,30,10)">
        <g transform="matrix(1.7589,0,0,0.780697,-64.2322,-18.6422)">
            <rect x="25.142" y="61.007" width="127.921" height="19.438"/>
        </g>
        <g id="Description1" serif:id="Description" transform="matrix(1.10867,0,0,1.10867,-20.0067,-30.2728)">
            <path d="M30.134,63.142l1.816,-5.392l-1.296,0l-0.688,2.304c-0.184,0.616 -0.352,1.256 -0.488,1.904l-0.024,0c-0.128,-0.672 -0.296,-1.288 -0.48,-1.928l-0.656,-2.28l-1.336,0l1.728,5.392l1.424,0Z" style="fill:#fff;fill-rule:nonzero;"/>
            <path d="M35.262,57.662c-1.584,0 -2.648,1.152 -2.648,2.824c0,1.616 0.992,2.744 2.544,2.744c1.448,0 2.64,-0.984 2.64,-2.792c0,-1.576 -0.904,-2.776 -2.536,-2.776Zm-0.048,0.968c0.896,0 1.296,0.912 1.296,1.824c0,0.976 -0.44,1.808 -1.304,1.808c-0.84,0 -1.304,-0.8 -1.304,-1.808c0,-1 0.456,-1.824 1.312,-1.824Z" style="fill:#fff;fill-rule:nonzero;"/>
            <path d="M38.998,63.142l3.368,0l0,-1.024l-2.144,0l0,-4.368l-1.224,0l0,5.392Z" style="fill:#fff;fill-rule:nonzero;"/>
            <path d="M43.694,63.142l1.224,0l0,-4.368l1.472,0l0,-1.024l-4.144,0l0,1.024l1.448,0l0,4.368Z" style="fill:#fff;fill-rule:nonzero;"/>
            <path d="M49.662,61.758l0.416,1.384l1.312,0l-1.672,-5.392l-1.6,0l-1.648,5.392l1.264,0l0.384,-1.384l1.544,0Zm-1.368,-0.912l0.32,-1.144c0.088,-0.312 0.168,-0.72 0.248,-1.04l0.016,0c0.08,0.32 0.176,0.72 0.272,1.04l0.336,1.144l-1.192,0Z" style="fill:#fff;fill-rule:nonzero;"/>
            <path d="M56.814,60.054l-2.008,0l0,0.952l0.832,0l0,1.128c-0.096,0.048 -0.32,0.08 -0.6,0.08c-1,0 -1.696,-0.656 -1.696,-1.768c0,-1.168 0.768,-1.744 1.784,-1.744c0.592,0 0.96,0.104 1.256,0.232l0.256,-0.976c-0.264,-0.128 -0.8,-0.264 -1.496,-0.264c-1.768,0 -3.072,1.024 -3.08,2.816c-0.008,0.792 0.264,1.496 0.76,1.96c0.496,0.48 1.208,0.728 2.192,0.728c0.712,0 1.424,-0.176 1.8,-0.304l0,-2.84Z" style="fill:#fff;fill-rule:nonzero;"/>
            <path d="M61.374,59.87l-1.984,0l0,-1.12l2.104,0l0,-1l-3.328,0l0,5.392l3.44,0l0,-1l-2.216,0l0,-1.28l1.984,0l0,-0.992Z" style="fill:#fff;fill-rule:nonzero;"/>
            <path d="M68.63,62.038c-0.24,0.096 -0.648,0.176 -1.016,0.176c-1.088,0 -1.728,-0.68 -1.728,-1.76c0,-1.2 0.752,-1.784 1.72,-1.784c0.432,0 0.776,0.096 1.024,0.2l0.248,-0.968c-0.216,-0.112 -0.696,-0.232 -1.328,-0.232c-1.632,0 -2.944,1.016 -2.944,2.856c0,1.536 0.96,2.704 2.824,2.704c0.656,0 1.16,-0.128 1.384,-0.24l-0.184,-0.952Z" style="fill:#fff;fill-rule:nonzero;"/>
            <path d="M72.174,57.662c-1.584,0 -2.648,1.152 -2.648,2.824c0,1.616 0.992,2.744 2.544,2.744c1.448,0 2.64,-0.984 2.64,-2.792c0,-1.576 -0.904,-2.776 -2.536,-2.776Zm-0.048,0.968c0.896,0 1.296,0.912 1.296,1.824c0,0.976 -0.44,1.808 -1.304,1.808c-0.84,0 -1.304,-0.8 -1.304,-1.808c0,-1 0.456,-1.824 1.312,-1.824Z" style="fill:#fff;fill-rule:nonzero;"/>
            <path d="M77.03,63.142l0,-1.624c0,-0.88 -0.016,-1.64 -0.048,-2.352l0.024,-0.008c0.264,0.632 0.616,1.328 0.936,1.904l1.152,2.08l1.28,0l0,-5.392l-1.12,0l0,1.568c0,0.816 0.024,1.544 0.104,2.256l-0.024,0c-0.24,-0.608 -0.56,-1.28 -0.88,-1.848l-1.12,-1.976l-1.424,0l0,5.392l1.12,0Z" style="fill:#fff;fill-rule:nonzero;"/>
            <path d="M82.87,63.142l1.224,0l0,-4.368l1.472,0l0,-1.024l-4.144,0l0,1.024l1.448,0l0,4.368Z" style="fill:#fff;fill-rule:nonzero;"/>
            <path d="M86.614,63.142l1.208,0l0,-2.12l0.368,0c0.496,0.008 0.728,0.192 0.872,0.864c0.16,0.664 0.288,1.104 0.376,1.256l1.248,0c-0.104,-0.208 -0.272,-0.912 -0.44,-1.52c-0.136,-0.496 -0.344,-0.856 -0.72,-1.008l0,-0.024c0.464,-0.168 0.952,-0.64 0.952,-1.328c0,-0.496 -0.176,-0.872 -0.496,-1.128c-0.384,-0.304 -0.944,-0.424 -1.744,-0.424c-0.648,0 -1.232,0.048 -1.624,0.112l0,5.32Zm1.208,-4.488c0.088,-0.016 0.256,-0.04 0.552,-0.04c0.56,0.008 0.896,0.256 0.896,0.752c0,0.472 -0.36,0.776 -0.968,0.776l-0.48,0l0,-1.488Z" style="fill:#fff;fill-rule:nonzero;"/>
            <path d="M94.126,57.662c-1.584,0 -2.648,1.152 -2.648,2.824c0,1.616 0.992,2.744 2.544,2.744c1.448,0 2.64,-0.984 2.64,-2.792c0,-1.576 -0.904,-2.776 -2.536,-2.776Zm-0.048,0.968c0.896,0 1.296,0.912 1.296,1.824c0,0.976 -0.44,1.808 -1.304,1.808c-0.84,0 -1.304,-0.8 -1.304,-1.808c0,-1 0.456,-1.824 1.312,-1.824Z" style="fill:#fff;fill-rule:nonzero;"/>
            <path d="M97.862,63.142l3.368,0l0,-1.024l-2.144,0l0,-4.368l-1.224,0l0,5.392Z" style="fill:#fff;fill-rule:nonzero;"/>
            <path d="M102.35,63.142l3.368,0l0,-1.024l-2.144,0l0,-4.368l-1.224,0l0,5.392Z" style="fill:#fff;fill-rule:nonzero;"/>
            <path d="M110.046,59.87l-1.984,0l0,-1.12l2.104,0l0,-1l-3.328,0l0,5.392l3.44,0l0,-1l-2.216,0l0,-1.28l1.984,0l0,-0.992Z" style="fill:#fff;fill-rule:nonzero;"/>
            <path d="M111.51,63.118c0.304,0.04 0.752,0.08 1.384,0.08c1.056,0 1.92,-0.224 2.488,-0.696c0.52,-0.44 0.896,-1.152 0.896,-2.184c0,-0.952 -0.352,-1.616 -0.912,-2.032c-0.52,-0.392 -1.184,-0.576 -2.208,-0.576c-0.616,0 -1.2,0.04 -1.648,0.112l0,5.296Zm1.224,-4.424c0.104,-0.024 0.28,-0.048 0.552,-0.048c1.048,0 1.704,0.592 1.696,1.712c0,1.288 -0.72,1.896 -1.824,1.888c-0.152,0 -0.32,0 -0.424,-0.024l0,-3.528Z" style="fill:#fff;fill-rule:nonzero;"/>
            <path d="M119.494,63.118c0.304,0.04 0.752,0.08 1.384,0.08c1.056,0 1.92,-0.224 2.488,-0.696c0.52,-0.44 0.896,-1.152 0.896,-2.184c0,-0.952 -0.352,-1.616 -0.912,-2.032c-0.52,-0.392 -1.184,-0.576 -2.208,-0.576c-0.616,0 -1.2,0.04 -1.648,0.112l0,5.296Zm1.224,-4.424c0.104,-0.024 0.28,-0.048 0.552,-0.048c1.048,0 1.704,0.592 1.696,1.712c0,1.288 -0.72,1.896 -1.824,1.888c-0.152,0 -0.32,0 -0.424,-0.024l0,-3.528Z" style="fill:#fff;fill-rule:nonzero;"/>
            <rect x="125.462" y="57.75" width="1.224" height="5.392" style="fill:#fff;fill-rule:nonzero;"/>
            <path d="M130.542,57.662c-1.584,0 -2.648,1.152 -2.648,2.824c0,1.616 0.992,2.744 2.544,2.744c1.448,0 2.64,-0.984 2.64,-2.792c0,-1.576 -0.904,-2.776 -2.536,-2.776Zm-0.048,0.968c0.896,0 1.296,0.912 1.296,1.824c0,0.976 -0.44,1.808 -1.304,1.808c-0.84,0 -1.304,-0.8 -1.304,-1.808c0,-1 0.456,-1.824 1.312,-1.824Z" style="fill:#fff;fill-rule:nonzero;"/>
            <path d="M134.278,63.118c0.304,0.04 0.752,0.08 1.384,0.08c1.056,0 1.92,-0.224 2.488,-0.696c0.52,-0.44 0.896,-1.152 0.896,-2.184c0,-0.952 -0.352,-1.616 -0.912,-2.032c-0.52,-0.392 -1.184,-0.576 -2.208,-0.576c-0.616,0 -1.2,0.04 -1.648,0.112l0,5.296Zm1.224,-4.424c0.104,-0.024 0.28,-0.048 0.552,-0.048c1.048,0 1.704,0.592 1.696,1.712c0,1.288 -0.72,1.896 -1.824,1.888c-0.152,0 -0.32,0 -0.424,-0.024l0,-3.528Z" style="fill:#fff;fill-rule:nonzero;"/>
            <path d="M143.454,59.87l-1.984,0l0,-1.12l2.104,0l0,-1l-3.328,0l0,5.392l3.44,0l0,-1l-2.216,0l0,-1.28l1.984,0l0,-0.992Z" style="fill:#fff;fill-rule:nonzero;"/>
            <path d="M146.934,63.142l1.224,0l0,-2.168l1.936,0l0,-0.992l-1.936,0l0,-1.232l2.072,0l0,-1l-3.296,0l0,5.392Z" style="fill:#fff;fill-rule:nonzero;"/>
            <rect x="151.55" y="57.75" width="1.224" height="5.392" style="fill:#fff;fill-rule:nonzero;"/>
            <path d="M154.23,63.142l3.368,0l0,-1.024l-2.144,0l0,-4.368l-1.224,0l0,5.392Z" style="fill:#fff;fill-rule:nonzero;"/>
            <path d="M158.926,63.142l1.224,0l0,-4.368l1.472,0l0,-1.024l-4.144,0l0,1.024l1.448,0l0,4.368Z" style="fill:#fff;fill-rule:nonzero;"/>
            <path d="M165.878,59.87l-1.984,0l0,-1.12l2.104,0l0,-1l-3.328,0l0,5.392l3.44,0l0,-1l-2.216,0l0,-1.28l1.984,0l0,-0.992Z" style="fill:#fff;fill-rule:nonzero;"/>
            <path d="M167.342,63.142l1.208,0l0,-2.12l0.368,0c0.496,0.008 0.728,0.192 0.872,0.864c0.16,0.664 0.288,1.104 0.376,1.256l1.248,0c-0.104,-0.208 -0.272,-0.912 -0.44,-1.52c-0.136,-0.496 -0.344,-0.856 -0.72,-1.008l0,-0.024c0.464,-0.168 0.952,-0.64 0.952,-1.328c0,-0.496 -0.176,-0.872 -0.496,-1.128c-0.384,-0.304 -0.944,-0.424 -1.744,-0.424c-0.648,0 -1.232,0.048 -1.624,0.112l0,5.32Zm1.208,-4.488c0.088,-0.016 0.256,-0.04 0.552,-0.04c0.56,0.008 0.896,0.256 0.896,0.752c0,0.472 -0.36,0.776 -0.968,0.776l-0.48,0l0,-1.488Z" style="fill:#fff;fill-rule:nonzero;"/>
        </g>
    </g>
    <g transform="matrix(2.23457,0.000425407,0,2.23431,-6.45734,-200.551)">
        <g id="Name">
            <path d="M43.707,94.429c-0.033,0.034 -0.066,0.039 -0.1,0.017c-0.033,-0.022 -0.056,-0.056 -0.067,-0.1c-0.011,-0.045 -0.011,-0.092 0,-0.142c0.011,-0.05 0.039,-0.087 0.084,-0.109c0.067,-0.067 0.145,-0.15 0.234,-0.25c0.089,-0.101 0.189,-0.187 0.3,-0.259c0.112,-0.073 0.237,-0.114 0.376,-0.125c0.139,-0.012 0.298,0.033 0.476,0.133c0.211,0.123 0.356,0.323 0.434,0.601c0.078,0.279 0.106,0.579 0.084,0.902c-0.023,0.323 -0.087,0.643 -0.192,0.96c-0.106,0.318 -0.237,0.582 -0.393,0.794c-0.512,0.668 -0.985,1.091 -1.419,1.269c-0.435,0.178 -0.813,0.184 -1.136,0.017c-0.323,-0.167 -0.582,-0.465 -0.776,-0.894c-0.195,-0.429 -0.307,-0.916 -0.334,-1.461c-0.028,-0.546 0.033,-1.111 0.183,-1.695c0.151,-0.585 0.409,-1.122 0.777,-1.612c0.234,-0.478 0.551,-0.86 0.952,-1.144c0.4,-0.284 0.829,-0.481 1.286,-0.593c0.456,-0.111 0.904,-0.144 1.344,-0.1c0.44,0.045 0.815,0.151 1.127,0.318c0.49,0.256 0.855,0.645 1.094,1.169c0.239,0.523 0.365,1.085 0.376,1.686c0,0.78 -0.139,1.57 -0.418,2.372c-0.278,0.801 -0.643,1.569 -1.094,2.304c-0.45,0.735 -0.963,1.42 -1.536,2.054c-0.573,0.635 -1.15,1.175 -1.728,1.62c0.467,0.19 0.924,0.384 1.369,0.585c0.445,0.2 0.852,0.387 1.219,0.559c0.367,0.173 0.679,0.323 0.935,0.451c0.256,0.128 0.434,0.214 0.535,0.259c1.714,0.668 3.262,1.124 4.642,1.369c1.381,0.245 2.605,0.326 3.674,0.243c1.069,-0.084 1.993,-0.301 2.772,-0.652c0.78,-0.35 1.431,-0.787 1.954,-1.311c0.034,-0.033 0.084,-0.055 0.151,-0.067c0.066,-0.011 0.128,-0.008 0.183,0.009c0.056,0.017 0.101,0.042 0.134,0.075c0.033,0.033 0.039,0.078 0.017,0.134c-0.78,0.946 -1.578,1.689 -2.397,2.229c-0.818,0.54 -1.645,0.93 -2.48,1.169c-0.835,0.239 -1.673,0.342 -2.513,0.309c-0.841,-0.033 -1.673,-0.153 -2.497,-0.359c-0.824,-0.206 -1.639,-0.482 -2.446,-0.827c-0.807,-0.345 -1.592,-0.712 -2.355,-1.102c-0.763,-0.39 -1.5,-0.779 -2.213,-1.169c-0.712,-0.39 -1.386,-0.74 -2.02,-1.052c-0.457,0.223 -0.874,0.351 -1.253,0.384c-0.378,0.033 -0.738,0.033 -1.077,0c-0.34,-0.033 -0.629,-0.1 -0.868,-0.2c-0.24,-0.101 -0.415,-0.24 -0.527,-0.418c-0.111,-0.178 -0.133,-0.395 -0.066,-0.651c0.078,-0.323 0.253,-0.554 0.526,-0.693c0.272,-0.139 0.604,-0.206 0.993,-0.201c0.39,0.006 0.824,0.067 1.303,0.184c0.479,0.117 0.974,0.265 1.486,0.443c0.312,-0.279 0.61,-0.599 0.894,-0.961c0.284,-0.361 0.556,-0.751 0.818,-1.169c0.262,-0.417 0.504,-0.854 0.726,-1.311c0.223,-0.456 0.424,-0.912 0.602,-1.369c0.245,-0.623 0.414,-1.269 0.509,-1.937c0.095,-0.668 0.025,-1.28 -0.209,-1.837c-0.189,-0.445 -0.414,-0.791 -0.676,-1.036c-0.262,-0.244 -0.537,-0.392 -0.827,-0.442c-0.289,-0.05 -0.581,-0.011 -0.876,0.117c-0.296,0.128 -0.577,0.342 -0.844,0.643c-0.334,0.356 -0.557,0.732 -0.668,1.127c-0.111,0.395 -0.147,0.777 -0.108,1.144c0.039,0.367 0.139,0.707 0.3,1.019c0.162,0.311 0.348,0.567 0.56,0.768c0.211,0.2 0.439,0.326 0.684,0.376c0.245,0.05 0.468,0.002 0.668,-0.142c0.212,-0.212 0.362,-0.437 0.451,-0.677c0.089,-0.239 0.131,-0.467 0.126,-0.684c-0.006,-0.217 -0.051,-0.418 -0.134,-0.602c-0.084,-0.183 -0.187,-0.328 -0.309,-0.434c-0.123,-0.106 -0.256,-0.167 -0.401,-0.183c-0.145,-0.017 -0.278,0.036 -0.401,0.158Zm-4.275,8.2c0.356,0.2 0.715,0.3 1.077,0.3c0.362,0 0.727,-0.083 1.094,-0.25l-0.401,-0.167c-0.345,-0.134 -0.657,-0.22 -0.935,-0.259c-0.278,-0.039 -0.501,-0.042 -0.668,-0.008c-0.167,0.033 -0.27,0.086 -0.309,0.158c-0.039,0.073 0.009,0.148 0.142,0.226Z" style="fill-rule:nonzero;stroke:#fff;stroke-width:0.18px;stroke-linejoin:round;stroke-miterlimit:1.41421;"/>
            <path d="M53.894,97.886c0.034,-0.056 0.131,-0.086 0.293,-0.092c0.161,-0.005 0.328,0.006 0.501,0.034c0.172,0.027 0.32,0.064 0.442,0.108c0.123,0.045 0.167,0.095 0.134,0.15c-0.256,0.39 -0.476,0.721 -0.66,0.994c-0.184,0.273 -0.365,0.546 -0.543,0.818c-0.178,0.273 -0.373,0.574 -0.584,0.902c-0.212,0.329 -0.473,0.743 -0.785,1.244c-0.156,0.234 -0.214,0.373 -0.175,0.418c0.039,0.044 0.122,0.039 0.25,-0.017c0.128,-0.055 0.278,-0.145 0.451,-0.267c0.173,-0.122 0.326,-0.234 0.459,-0.334c0.201,-0.145 0.415,-0.315 0.643,-0.509c0.228,-0.195 0.457,-0.396 0.685,-0.602c0.228,-0.206 0.448,-0.409 0.66,-0.609c0.211,-0.201 0.395,-0.384 0.551,-0.551c0.044,-0.034 0.094,-0.045 0.15,-0.034c0.056,0.012 0.103,0.039 0.142,0.084c0.039,0.044 0.064,0.097 0.075,0.159c0.011,0.061 0,0.114 -0.033,0.158c-0.19,0.167 -0.435,0.401 -0.735,0.702c-0.301,0.3 -0.629,0.612 -0.985,0.935c-0.357,0.323 -0.724,0.632 -1.103,0.927c-0.378,0.295 -0.737,0.523 -1.077,0.684c-0.339,0.162 -0.643,0.231 -0.91,0.209c-0.267,-0.022 -0.473,-0.195 -0.618,-0.518c-0.056,-0.111 -0.056,-0.264 0,-0.459c0.056,-0.195 0.15,-0.42 0.284,-0.676c-0.267,0.256 -0.537,0.492 -0.81,0.71c-0.273,0.217 -0.554,0.403 -0.843,0.559c-0.267,0.156 -0.543,0.27 -0.827,0.342c-0.284,0.073 -0.54,0.095 -0.768,0.067c-0.228,-0.028 -0.415,-0.12 -0.56,-0.275c-0.144,-0.156 -0.217,-0.396 -0.217,-0.719c0,-0.411 0.092,-0.862 0.276,-1.352c0.184,-0.49 0.448,-0.958 0.793,-1.403c0.345,-0.445 0.766,-0.835 1.261,-1.169c0.495,-0.334 1.06,-0.557 1.695,-0.668c0.367,-0.056 0.713,-0.014 1.035,0.125c0.323,0.139 0.602,0.421 0.835,0.844l0.618,-0.919Zm-2.171,2.806c0.167,-0.156 0.323,-0.309 0.468,-0.46c0.145,-0.15 0.289,-0.303 0.434,-0.459l0.451,-0.651c-0.178,0.044 -0.373,0.067 -0.584,0.067c-0.212,0 -0.334,-0.034 -0.368,-0.101c0.056,-0.311 0.036,-0.523 -0.058,-0.634c-0.095,-0.111 -0.226,-0.159 -0.393,-0.142c-0.167,0.017 -0.353,0.078 -0.559,0.184c-0.206,0.105 -0.387,0.214 -0.543,0.325c-0.2,0.156 -0.404,0.343 -0.609,0.56c-0.206,0.217 -0.396,0.453 -0.568,0.709c-0.173,0.257 -0.32,0.529 -0.443,0.819c-0.122,0.289 -0.206,0.579 -0.25,0.868c-0.056,0.356 -0.025,0.585 0.092,0.685c0.116,0.1 0.267,0.131 0.45,0.092c0.184,-0.039 0.376,-0.123 0.577,-0.251c0.2,-0.128 0.356,-0.236 0.467,-0.325c0.479,-0.412 0.958,-0.841 1.436,-1.286Z" style="fill-rule:nonzero;stroke:#fff;stroke-width:0.18px;stroke-linejoin:round;stroke-miterlimit:1.41421;"/>
            <path d="M57.218,97.886c0.033,-0.056 0.13,-0.086 0.292,-0.092c0.161,-0.005 0.331,0.006 0.509,0.034c0.178,0.027 0.329,0.064 0.451,0.108c0.123,0.045 0.167,0.095 0.134,0.15c-0.256,0.39 -0.476,0.721 -0.66,0.994c-0.184,0.273 -0.365,0.546 -0.543,0.818c-0.178,0.273 -0.375,0.574 -0.592,0.902c-0.218,0.329 -0.482,0.743 -0.794,1.244c-0.144,0.234 -0.2,0.373 -0.167,0.418c0.034,0.044 0.114,0.039 0.242,-0.017c0.128,-0.055 0.279,-0.145 0.451,-0.267c0.173,-0.122 0.326,-0.234 0.46,-0.334c0.2,-0.145 0.417,-0.315 0.651,-0.509c0.234,-0.195 0.465,-0.396 0.693,-0.602c0.228,-0.206 0.445,-0.409 0.651,-0.609c0.206,-0.201 0.387,-0.384 0.543,-0.551c0.044,-0.034 0.095,-0.045 0.15,-0.034c0.056,0.012 0.106,0.039 0.151,0.084c0.044,0.044 0.072,0.097 0.083,0.159c0.011,0.061 -0.006,0.114 -0.05,0.158c-0.189,0.167 -0.434,0.401 -0.735,0.702c-0.3,0.3 -0.629,0.612 -0.985,0.935c-0.356,0.323 -0.724,0.632 -1.102,0.927c-0.379,0.295 -0.738,0.523 -1.077,0.684c-0.34,0.162 -0.643,0.231 -0.911,0.209c-0.267,-0.022 -0.473,-0.195 -0.618,-0.518c-0.077,-0.178 -0.027,-0.456 0.151,-0.835c0.178,-0.378 0.417,-0.807 0.718,-1.286c0.3,-0.478 0.626,-0.971 0.977,-1.477c0.351,-0.507 0.659,-0.972 0.927,-1.395Zm0.968,-1.603c0.145,-0.29 0.348,-0.526 0.61,-0.71c0.261,-0.184 0.498,-0.264 0.71,-0.242c0.222,0.022 0.359,0.139 0.409,0.351c0.05,0.211 0.002,0.467 -0.142,0.768c-0.156,0.289 -0.362,0.523 -0.618,0.701c-0.256,0.178 -0.496,0.256 -0.718,0.234c-0.223,-0.022 -0.359,-0.139 -0.409,-0.351c-0.05,-0.211 0.002,-0.462 0.158,-0.751Z" style="fill-rule:nonzero;stroke:#fff;stroke-width:0.18px;stroke-linejoin:round;stroke-miterlimit:1.41421;"/>
            <path d="M57.084,103.33c0,0 0.07,-0.108 0.209,-0.325c0.139,-0.217 0.323,-0.504 0.551,-0.86c0.228,-0.357 0.493,-0.763 0.793,-1.22c0.301,-0.456 0.612,-0.932 0.935,-1.427c0.323,-0.496 0.643,-0.988 0.961,-1.478c0.317,-0.49 0.612,-0.944 0.885,-1.361c0.272,-0.418 0.506,-0.78 0.701,-1.086c0.195,-0.306 0.331,-0.52 0.409,-0.643c0.457,-0.746 0.935,-1.389 1.436,-1.929c0.501,-0.54 0.991,-0.985 1.47,-1.336c0.479,-0.35 0.921,-0.606 1.328,-0.768c0.406,-0.161 0.748,-0.234 1.027,-0.217c0.278,0.017 0.473,0.125 0.584,0.326c0.112,0.2 0.1,0.484 -0.033,0.851c-0.167,0.49 -0.426,0.933 -0.777,1.328c-0.35,0.395 -0.751,0.752 -1.202,1.069c-0.451,0.317 -0.933,0.604 -1.445,0.86c-0.512,0.256 -1.024,0.49 -1.536,0.701l-0.334,0.551c-0.468,0.702 -0.919,1.386 -1.353,2.054c-0.434,0.668 -0.885,1.37 -1.352,2.105c0.445,-0.39 0.929,-0.791 1.452,-1.203c0.524,-0.412 1.025,-0.762 1.503,-1.052c0.212,-0.122 0.421,-0.231 0.627,-0.325c0.206,-0.095 0.395,-0.162 0.568,-0.201c0.172,-0.039 0.32,-0.044 0.442,-0.017c0.123,0.028 0.206,0.103 0.251,0.226c0.144,0.412 0.178,0.801 0.1,1.169c-0.078,0.367 -0.226,0.704 -0.443,1.01c-0.217,0.306 -0.49,0.576 -0.818,0.81c-0.329,0.234 -0.674,0.426 -1.035,0.576c-0.362,0.151 -0.721,0.256 -1.078,0.318c-0.356,0.061 -0.679,0.064 -0.968,0.008c0.3,0.323 0.615,0.526 0.943,0.61c0.329,0.083 0.657,0.086 0.986,0.008c0.328,-0.078 0.662,-0.223 1.002,-0.434c0.339,-0.212 0.676,-0.454 1.01,-0.727c0.334,-0.273 0.665,-0.562 0.994,-0.868c0.328,-0.306 0.654,-0.593 0.977,-0.86c0.044,-0.034 0.094,-0.042 0.15,-0.025c0.056,0.016 0.103,0.044 0.142,0.083c0.039,0.039 0.064,0.089 0.075,0.151c0.011,0.061 -0.006,0.114 -0.05,0.158c-0.134,0.123 -0.354,0.334 -0.66,0.635c-0.306,0.3 -0.657,0.623 -1.052,0.968c-0.395,0.346 -0.801,0.685 -1.219,1.019c-0.417,0.334 -0.799,0.59 -1.144,0.768c-0.301,0.167 -0.626,0.215 -0.977,0.142c-0.351,-0.072 -0.676,-0.211 -0.977,-0.417c-0.3,-0.206 -0.545,-0.454 -0.735,-0.743c-0.189,-0.29 -0.272,-0.574 -0.25,-0.852c0.634,-0.045 1.177,-0.156 1.628,-0.334c0.451,-0.178 0.816,-0.381 1.094,-0.61c0.278,-0.228 0.479,-0.459 0.601,-0.693c0.123,-0.234 0.178,-0.426 0.167,-0.576c-0.011,-0.15 -0.086,-0.239 -0.225,-0.267c-0.139,-0.028 -0.326,0.047 -0.56,0.225c-0.579,0.446 -1.141,0.885 -1.686,1.32c-0.546,0.434 -1.103,0.874 -1.67,1.319l-0.969,1.503c-0.022,0.033 -0.106,0.058 -0.251,0.075c-0.144,0.017 -0.303,0.025 -0.475,0.025c-0.173,0 -0.332,-0.011 -0.476,-0.033c-0.145,-0.022 -0.229,-0.05 -0.251,-0.084Zm8.768,-11.089c-0.19,0.201 -0.379,0.424 -0.568,0.668c-0.19,0.245 -0.376,0.499 -0.56,0.76c-0.183,0.262 -0.359,0.526 -0.526,0.794c-0.167,0.267 -0.323,0.517 -0.467,0.751c0.345,-0.156 0.679,-0.32 1.002,-0.493c0.323,-0.172 0.645,-0.375 0.968,-0.609c0.112,-0.078 0.304,-0.234 0.576,-0.468c0.273,-0.234 0.529,-0.49 0.769,-0.768c0.239,-0.278 0.406,-0.551 0.501,-0.818c0.094,-0.267 0.019,-0.479 -0.226,-0.635c-0.089,-0.055 -0.197,-0.064 -0.325,-0.025c-0.129,0.039 -0.259,0.103 -0.393,0.192c-0.134,0.089 -0.267,0.195 -0.401,0.317c-0.133,0.123 -0.25,0.234 -0.35,0.334Z" style="fill-rule:nonzero;stroke:#fff;stroke-width:0.18px;stroke-linejoin:round;stroke-miterlimit:1.41421;"/>
            <path d="M72.014,97.886c0.033,-0.056 0.131,-0.086 0.292,-0.092c0.162,-0.005 0.329,0.006 0.501,0.034c0.173,0.027 0.32,0.064 0.443,0.108c0.122,0.045 0.167,0.095 0.133,0.15c-0.256,0.39 -0.476,0.721 -0.659,0.994c-0.184,0.273 -0.365,0.546 -0.543,0.818c-0.178,0.273 -0.373,0.574 -0.585,0.902c-0.211,0.329 -0.473,0.743 -0.785,1.244c-0.155,0.234 -0.214,0.373 -0.175,0.418c0.039,0.044 0.123,0.039 0.251,-0.017c0.128,-0.055 0.278,-0.145 0.451,-0.267c0.172,-0.122 0.325,-0.234 0.459,-0.334c0.2,-0.145 0.414,-0.315 0.643,-0.509c0.228,-0.195 0.456,-0.396 0.684,-0.602c0.229,-0.206 0.449,-0.409 0.66,-0.609c0.212,-0.201 0.395,-0.384 0.551,-0.551c0.045,-0.034 0.095,-0.045 0.15,-0.034c0.056,0.012 0.103,0.039 0.142,0.084c0.039,0.044 0.064,0.097 0.076,0.159c0.011,0.061 0,0.114 -0.034,0.158c-0.189,0.167 -0.434,0.401 -0.735,0.702c-0.3,0.3 -0.629,0.612 -0.985,0.935c-0.356,0.323 -0.724,0.632 -1.102,0.927c-0.379,0.295 -0.738,0.523 -1.077,0.684c-0.34,0.162 -0.643,0.231 -0.91,0.209c-0.268,-0.022 -0.474,-0.195 -0.618,-0.518c-0.056,-0.111 -0.056,-0.264 0,-0.459c0.055,-0.195 0.15,-0.42 0.284,-0.676c-0.268,0.256 -0.538,0.492 -0.81,0.71c-0.273,0.217 -0.554,0.403 -0.844,0.559c-0.267,0.156 -0.542,0.27 -0.826,0.342c-0.284,0.073 -0.54,0.095 -0.769,0.067c-0.228,-0.028 -0.414,-0.12 -0.559,-0.275c-0.145,-0.156 -0.217,-0.396 -0.217,-0.719c0,-0.411 0.092,-0.862 0.275,-1.352c0.184,-0.49 0.449,-0.958 0.794,-1.403c0.345,-0.445 0.765,-0.835 1.261,-1.169c0.495,-0.334 1.06,-0.557 1.695,-0.668c0.367,-0.056 0.712,-0.014 1.035,0.125c0.323,0.139 0.601,0.421 0.835,0.844l0.618,-0.919Zm-2.171,2.806c0.167,-0.156 0.323,-0.309 0.467,-0.46c0.145,-0.15 0.29,-0.303 0.435,-0.459l0.451,-0.651c-0.179,0.044 -0.373,0.067 -0.585,0.067c-0.211,0 -0.334,-0.034 -0.367,-0.101c0.055,-0.311 0.036,-0.523 -0.059,-0.634c-0.094,-0.111 -0.225,-0.159 -0.392,-0.142c-0.167,0.017 -0.354,0.078 -0.56,0.184c-0.206,0.105 -0.387,0.214 -0.542,0.325c-0.201,0.156 -0.404,0.343 -0.61,0.56c-0.206,0.217 -0.395,0.453 -0.568,0.709c-0.172,0.257 -0.32,0.529 -0.442,0.819c-0.123,0.289 -0.206,0.579 -0.251,0.868c-0.056,0.356 -0.025,0.585 0.092,0.685c0.117,0.1 0.267,0.131 0.451,0.092c0.184,-0.039 0.376,-0.123 0.576,-0.251c0.2,-0.128 0.356,-0.236 0.468,-0.325c0.478,-0.412 0.957,-0.841 1.436,-1.286Z" style="fill-rule:nonzero;stroke:#fff;stroke-width:0.18px;stroke-linejoin:round;stroke-miterlimit:1.41421;"/>
        </g>
    </g>
    <g transform="matrix(0.0830615,0,0,0.0830615,109.213,349.922)">
        <path d="M232.321,164.268c-0.551,-1.407 -1.25,-2.487 -1.733,-4.267l0.016,0c-0.034,0 -0.056,-0.074 -0.088,-0.149c-0.062,-0.193 -0.122,-0.353 -0.173,-0.548c-0.097,-0.365 -0.189,-0.759 -0.253,-1.179c-0.043,-2.08 1.872,-2.792 1.946,-5.183c0.081,-2.573 -1.476,-3.898 -1.946,-4.241c-0.02,-0.028 -0.037,-0.054 -0.056,-0.082c0.012,-0.037 0.02,-0.068 0.031,-0.104c2.993,-2.433 1.69,-5.738 1.69,-5.738c-0.636,-0.338 -1.313,-0.55 -1.797,-0.98c-4.337,-3.863 -4.606,-6.636 -1.196,-11.288c0.866,-1.185 1.746,-2.375 2.467,-3.649c1.761,-3.117 1.359,-4.599 -1.81,-6.367c-2.28,-1.271 -4.743,-2.218 -6.988,-3.545c-6.396,-3.778 -11.834,-8.521 -15.061,-15.174c2.171,-3.872 2.171,-3.872 1.304,-6.341c-0.791,0.865 -1.527,1.672 -2.688,2.944c0,-3.049 0.294,-5.379 -0.083,-7.595c-0.367,-2.156 -0.85,-4.792 -2.281,-6.178c-5.217,-5.045 -8.175,-11.292 -10.92,-17.796c-2.029,-4.806 -4.196,-9.66 -8.171,-13.236c-2,-1.8 -4.474,-3.072 -6.742,-4.587c0,-1.354 0.017,-2.653 -0.006,-3.951c-0.019,-1.297 0.038,-2.61 -0.136,-3.89c-0.702,-5.113 -4.34,-7.564 -9.404,-6.548c-3.181,0.638 -6.385,1.238 -9.605,1.563c-1.888,0.19 -3.584,0.128 -3.225,-3.432c1.62,0 3.162,0 5.368,0c-1.104,0 -1.515,-1.544 -2.067,-1.769c-2.208,-0.892 -4.045,-0.36 -5.099,1.396c-1.25,2.077 0.023,3.586 1.504,4.555c1.273,0.832 3.004,1.441 4.492,1.365c3.234,-0.167 6.436,-0.842 9.658,-1.296c2.8,-0.394 4.451,0.587 5.01,3.266c0.266,1.278 0.047,2.658 0.047,3.561c-3.72,-1.383 -6.953,-3.369 -10.347,-3.69c-7.432,-0.706 -14.956,-0.912 -22.413,-0.611c-3.084,0.124 -6.484,1.511 -9.049,3.309c-4.547,3.188 -9.441,5.039 -14.773,6.138c-2.549,0.526 -5.106,1.149 -7.55,2.03c-4.689,1.689 -8.626,4.342 -11.53,8.63c-1.595,2.354 -3.836,4.445 -6.188,6.076c-4.591,3.184 -9.001,6.424 -12.144,11.187c-1.712,2.596 -4.124,4.212 -7.839,3.113c-1.104,-4.244 -4.87,-4.911 -8.627,-5.423c-1.764,-0.242 -3.625,-0.32 -5.373,-0.04c-10.247,1.643 -19.554,5.56 -26.813,13.074c-6.565,6.797 -5.937,10.365 -2.739,16.202c2.063,3.766 2.131,7.435 -0.279,11.089c-1.874,2.842 -2.57,6.013 -2.071,9.354c1.284,8.609 4.072,16.22 13.409,19.251c0.615,0.198 1.156,0.607 1.748,0.881c2.125,0.984 3.145,2.592 3.365,4.971c0.144,1.54 0.491,3.357 1.429,4.479c6.245,7.454 20.432,8.503 25.041,-1.951c0.189,-0.432 0.624,-0.756 0.945,-1.129c0.305,0.134 0.609,0.266 0.914,0.399c-0.27,1.348 -0.539,2.694 -0.81,4.042c-0.351,1.75 -1.204,3.572 -0.961,5.235c0.915,6.264 1.484,12.716 3.503,18.648c2.452,7.204 8.53,14.587 18.762,13.197c3.549,-0.483 6.782,0.391 9.818,2.234c1.254,0.76 2.657,1.272 3.912,2.027c3.221,1.943 6.497,1.898 9.857,0.464c2.024,-0.863 4.052,-1.726 6.331,-2.698c-1.16,4.041 -2.278,7.594 -3.189,11.197c-1.336,5.287 -3.631,9.452 -9.941,9.48c-0.115,0 -0.228,0.204 -0.481,0.441c0.473,1.385 0.975,2.855 1.446,4.234c-3.43,5.076 -9.388,5.288 -13.951,7.881c8.949,0.082 15.39,-4.254 16.179,-10.562c4.91,-1.582 7.805,-5.034 9.233,-9.921c0.777,-2.659 1.611,-5.32 2.672,-7.879c1.746,-4.209 4.792,-6.719 9.406,-6.833c-0.302,3.22 -0.579,6.169 -0.855,9.113c-6.687,1.486 -6.819,1.649 -6.534,8.315c-1.583,1.269 -3.238,2.596 -5.685,4.557c6.226,-1.428 7.436,-2.953 8.025,-9.211c0.938,-0.325 1.962,-0.799 3.039,-1.035c4.009,-0.875 4.11,-0.859 3.682,-5.037c-0.251,-2.445 0.739,-3.996 3.163,-5.664c0.451,1.766 0.892,3.088 1.115,4.445c0.316,1.923 0.547,3.867 0.687,5.81c0.517,7.404 -0.06,14.643 -3.457,21.43c-4.159,8.313 -8.334,16.622 -12.413,24.973c-1.174,2.404 -2.482,4.234 -5.172,5.433c-4.265,1.907 -7.421,6.556 -7.757,10.832c15.258,2.949 26.312,6.953 41.04,18.833c9.647,7.785 19.862,11.309 29.399,12.456c0.003,-0.004 10.248,-13.711 19.753,-32.558c-0.241,-0.365 -0.484,-0.728 -0.723,-1.095c-6.25,-9.478 -11.533,-18.592 -13.049,-22.521c-2.853,-7.395 -3.838,-14.659 -2.132,-22.466c1.983,-9.083 3.633,-18.206 7.761,-26.672c2.412,-4.95 6.15,-7.711 11.519,-8.858c6.366,-1.36 12.689,-3.037 18.94,-4.868c6.706,-1.966 9.308,-7.753 6.747,-14.275Z" style="fill-rule:nonzero;"/>
    </g>
    <g transform="matrix(0.0830615,0,0,0.0830615,110.213,350.922)">
        <path d="M232.321,164.268c-0.551,-1.407 -1.25,-2.487 -1.733,-4.267l0.016,0c-0.034,0 -0.056,-0.074 -0.088,-0.149c-0.062,-0.193 -0.122,-0.353 -0.173,-0.548c-0.097,-0.365 -0.189,-0.759 -0.253,-1.179c-0.043,-2.08 1.872,-2.792 1.946,-5.183c0.081,-2.573 -1.476,-3.898 -1.946,-4.241c-0.02,-0.028 -0.037,-0.054 -0.056,-0.082c0.012,-0.037 0.02,-0.068 0.031,-0.104c2.993,-2.433 1.69,-5.738 1.69,-5.738c-0.636,-0.338 -1.313,-0.55 -1.797,-0.98c-4.337,-3.863 -4.606,-6.636 -1.196,-11.288c0.866,-1.185 1.746,-2.375 2.467,-3.649c1.761,-3.117 1.359,-4.599 -1.81,-6.367c-2.28,-1.271 -4.743,-2.218 -6.988,-3.545c-6.396,-3.778 -11.834,-8.521 -15.061,-15.174c2.171,-3.872 2.171,-3.872 1.304,-6.341c-0.791,0.865 -1.527,1.672 -2.688,2.944c0,-3.049 0.294,-5.379 -0.083,-7.595c-0.367,-2.156 -0.85,-4.792 -2.281,-6.178c-5.217,-5.045 -8.175,-11.292 -10.92,-17.796c-2.029,-4.806 -4.196,-9.66 -8.171,-13.236c-2,-1.8 -4.474,-3.072 -6.742,-4.587c0,-1.354 0.017,-2.653 -0.006,-3.951c-0.019,-1.297 0.038,-2.61 -0.136,-3.89c-0.702,-5.113 -4.34,-7.564 -9.404,-6.548c-3.181,0.638 -6.385,1.238 -9.605,1.563c-1.888,0.19 -3.584,0.128 -3.225,-3.432c1.62,0 3.162,0 5.368,0c-1.104,0 -1.515,-1.544 -2.067,-1.769c-2.208,-0.892 -4.045,-0.36 -5.099,1.396c-1.25,2.077 0.023,3.586 1.504,4.555c1.273,0.832 3.004,1.441 4.492,1.365c3.234,-0.167 6.436,-0.842 9.658,-1.296c2.8,-0.394 4.451,0.587 5.01,3.266c0.266,1.278 0.047,2.658 0.047,3.561c-3.72,-1.383 -6.953,-3.369 -10.347,-3.69c-7.432,-0.706 -14.956,-0.912 -22.413,-0.611c-3.084,0.124 -6.484,1.511 -9.049,3.309c-4.547,3.188 -9.441,5.039 -14.773,6.138c-2.549,0.526 -5.106,1.149 -7.55,2.03c-4.689,1.689 -8.626,4.342 -11.53,8.63c-1.595,2.354 -3.836,4.445 -6.188,6.076c-4.591,3.184 -9.001,6.424 -12.144,11.187c-1.712,2.596 -4.124,4.212 -7.839,3.113c-1.104,-4.244 -4.87,-4.911 -8.627,-5.423c-1.764,-0.242 -3.625,-0.32 -5.373,-0.04c-10.247,1.643 -19.554,5.56 -26.813,13.074c-6.565,6.797 -5.937,10.365 -2.739,16.202c2.063,3.766 2.131,7.435 -0.279,11.089c-1.874,2.842 -2.57,6.013 -2.071,9.354c1.284,8.609 4.072,16.22 13.409,19.251c0.615,0.198 1.156,0.607 1.748,0.881c2.125,0.984 3.145,2.592 3.365,4.971c0.144,1.54 0.491,3.357 1.429,4.479c6.245,7.454 20.432,8.503 25.041,-1.951c0.189,-0.432 0.624,-0.756 0.945,-1.129c0.305,0.134 0.609,0.266 0.914,0.399c-0.27,1.348 -0.539,2.694 -0.81,4.042c-0.351,1.75 -1.204,3.572 -0.961,5.235c0.915,6.264 1.484,12.716 3.503,18.648c2.452,7.204 8.53,14.587 18.762,13.197c3.549,-0.483 6.782,0.391 9.818,2.234c1.254,0.76 2.657,1.272 3.912,2.027c3.221,1.943 6.497,1.898 9.857,0.464c2.024,-0.863 4.052,-1.726 6.331,-2.698c-1.16,4.041 -2.278,7.594 -3.189,11.197c-1.336,5.287 -3.631,9.452 -9.941,9.48c-0.115,0 -0.228,0.204 -0.481,0.441c0.473,1.385 0.975,2.855 1.446,4.234c-3.43,5.076 -9.388,5.288 -13.951,7.881c8.949,0.082 15.39,-4.254 16.179,-10.562c4.91,-1.582 7.805,-5.034 9.233,-9.921c0.777,-2.659 1.611,-5.32 2.672,-7.879c1.746,-4.209 4.792,-6.719 9.406,-6.833c-0.302,3.22 -0.579,6.169 -0.855,9.113c-6.687,1.486 -6.819,1.649 -6.534,8.315c-1.583,1.269 -3.238,2.596 -5.685,4.557c6.226,-1.428 7.436,-2.953 8.025,-9.211c0.938,-0.325 1.962,-0.799 3.039,-1.035c4.009,-0.875 4.11,-0.859 3.682,-5.037c-0.251,-2.445 0.739,-3.996 3.163,-5.664c0.451,1.766 0.892,3.088 1.115,4.445c0.316,1.923 0.547,3.867 0.687,5.81c0.517,7.404 -0.06,14.643 -3.457,21.43c-4.159,8.313 -8.334,16.622 -12.413,24.973c-1.174,2.404 -2.482,4.234 -5.172,5.433c-4.265,1.907 -7.421,6.556 -7.757,10.832c15.258,2.949 26.312,6.953 41.04,18.833c9.647,7.785 19.862,11.309 29.399,12.456c0.003,-0.004 10.248,-13.711 19.753,-32.558c-0.241,-0.365 -0.484,-0.728 -0.723,-1.095c-6.25,-9.478 -11.533,-18.592 -13.049,-22.521c-2.853,-7.395 -3.838,-14.659 -2.132,-22.466c1.983,-9.083 3.633,-18.206 7.761,-26.672c2.412,-4.95 6.15,-7.711 11.519,-8.858c6.366,-1.36 12.689,-3.037 18.94,-4.868c6.706,-1.966 9.308,-7.753 6.747,-14.275Z" style="fill-opacity:0.243137;fill-rule:nonzero;"/>
    </g>
    <g transform="matrix(0.385642,0,0,0.385642,66.3167,220.212)">
        <path d="M72.214,322.903l2.061,0l0,5.809l5.617,0l0,-5.809l2.061,0l0,15.163l-2.061,0l0,-7.627l-5.617,0l0,7.627l-2.061,0l0,-15.163Z" style="fill-rule:nonzero;"/>
        <path d="M85.386,322.903l8.42,0l0,1.726l-3.179,0l0,11.711l3.179,0l0,1.726l-8.42,0l0,-1.726l3.179,0l0,-11.711l-3.179,0l0,-1.726Z" style="fill-rule:nonzero;"/>
        <path d="M107.08,336.817c-0.549,0.508 -1.166,0.892 -1.854,1.153c-0.687,0.26 -1.43,0.391 -2.229,0.391c-1.923,0 -3.419,-0.689 -4.489,-2.067c-1.07,-1.378 -1.605,-3.309 -1.605,-5.794c0,-2.478 0.542,-4.41 1.625,-5.794c1.084,-1.385 2.59,-2.077 4.52,-2.077c0.636,0 1.246,0.089 1.828,0.269c0.582,0.179 1.144,0.452 1.686,0.817l0,2.103c-0.548,-0.522 -1.11,-0.906 -1.686,-1.153c-0.575,-0.247 -1.185,-0.371 -1.828,-0.371c-1.334,0 -2.334,0.516 -3.001,1.549c-0.667,1.033 -1.001,2.585 -1.001,4.657c0,2.105 0.324,3.664 0.97,4.677c0.647,1.012 1.64,1.518 2.981,1.518c0.454,0 0.852,-0.052 1.193,-0.157c0.342,-0.105 0.652,-0.27 0.93,-0.493l0,-4.073l-2.204,0l0,-1.686l4.164,0l0,6.531Z" style="fill-rule:nonzero;"/>
        <path d="M109.781,322.903l2.062,0l0,5.809l5.617,0l0,-5.809l2.061,0l0,15.163l-2.061,0l0,-7.627l-5.617,0l0,7.627l-2.062,0l0,-15.163Z" style="fill-rule:nonzero;"/>
    </g>
    <g transform="matrix(0.385642,0,0,0.385642,115.234,220.212)">
        <path d="M73.006,322.903l2.061,0l0,13.437l7.323,0l0,1.726l-9.384,0l0,-15.163Z" style="fill-rule:nonzero;"/>
        <path d="M92.536,330.5c0,-2.228 -0.228,-3.819 -0.685,-4.774c-0.457,-0.954 -1.207,-1.432 -2.25,-1.432c-1.036,0 -1.782,0.478 -2.239,1.432c-0.457,0.955 -0.686,2.546 -0.686,4.774c0,2.221 0.229,3.808 0.686,4.763c0.457,0.955 1.203,1.432 2.239,1.432c1.043,0 1.793,-0.476 2.25,-1.427c0.457,-0.951 0.685,-2.541 0.685,-4.768Zm2.143,0c0,2.64 -0.418,4.611 -1.254,5.911c-0.836,1.3 -2.111,1.95 -3.824,1.95c-1.713,0 -2.986,-0.647 -3.819,-1.94c-0.833,-1.293 -1.249,-3.267 -1.249,-5.921c0,-2.648 0.418,-4.621 1.254,-5.921c0.837,-1.3 2.108,-1.95 3.814,-1.95c1.713,0 2.988,0.65 3.824,1.95c0.836,1.3 1.254,3.273 1.254,5.921Z" style="fill-rule:nonzero;"/>
        <path d="M95.867,322.903l2.001,0l1.453,12.309l1.726,-8.145l2.143,0l1.747,8.165l1.452,-12.329l2.001,0l-2.265,15.163l-1.94,0l-2.061,-9.009l-2.052,9.009l-1.94,0l-2.265,-15.163Z" style="fill-rule:nonzero;"/>
    </g>
</svg>
