<?xml version="1.0" encoding="UTF-8" standalone="no"?>
<!DOCTYPE svg PUBLIC "-//W3C//DTD SVG 1.1//EN" "http://www.w3.org/Graphics/SVG/1.1/DTD/svg11.dtd">
<svg xmlns:xlink="http://www.w3.org/1999/xlink" xmlns:serif="http://www.serif.com/" width="180px" height="380px" version="1.1" xmlns="http://www.w3.org/2000/svg" xml:space="preserve" style="fill-rule:evenodd;clip-rule:evenodd;stroke-linejoin:round;stroke-miterlimit:1.41421;">
    <g id="Background" transform="matrix(1,0,0,1,0,-196.458)">
        <rect x="-0.01" y="196.458" width="180" height="380" style="fill:#e9e4da;"/>
    </g>
    <g>
        <g transform="matrix(1.32894,0,0,0.728651,-28.4223,-15.1297)">
            <rect x="25.142" y="61.007" width="127.921" height="19.438"/>
        </g>
        <g id="Description" transform="matrix(1.10867,0,0,1.10867,-3.00673,-30.2728)">
            <path d="M30.446,57.142l-1.112,6l-1.168,0l-1.136,-6l1.104,0l0.616,3.992l0.592,-3.992l1.104,0Z" style="fill:#fff;fill-rule:nonzero;"/>
            <path d="M32.782,63.27c-0.448,0 -0.806,-0.134 -1.076,-0.404c-0.269,-0.269 -0.404,-0.628 -0.404,-1.076l0,-3.296c0,-0.448 0.135,-0.806 0.404,-1.076c0.27,-0.269 0.628,-0.404 1.076,-0.404c0.448,0 0.807,0.135 1.076,0.404c0.27,0.27 0.404,0.628 0.404,1.076l0,3.296c0,0.448 -0.134,0.807 -0.404,1.076c-0.269,0.27 -0.628,0.404 -1.076,0.404Zm0,-1.08c0.128,0 0.227,-0.036 0.296,-0.108c0.07,-0.072 0.104,-0.169 0.104,-0.292l0,-3.296c0,-0.122 -0.034,-0.22 -0.104,-0.292c-0.069,-0.072 -0.168,-0.108 -0.296,-0.108c-0.128,0 -0.226,0.036 -0.296,0.108c-0.069,0.072 -0.104,0.17 -0.104,0.292l0,3.296c0,0.123 0.035,0.22 0.104,0.292c0.07,0.072 0.168,0.108 0.296,0.108Z" style="fill:#fff;fill-rule:nonzero;"/>
            <path d="M36.822,62.062l1.24,0l0,1.08l-2.32,0l0,-6l1.08,0l0,4.92Z" style="fill:#fff;fill-rule:nonzero;"/>
            <path d="M39.382,58.222l-0.88,0l0,-1.08l2.84,0l0,1.08l-0.88,0l0,4.92l-1.08,0l0,-4.92Z" style="fill:#fff;fill-rule:nonzero;"/>
            <path d="M45.198,63.142l-1.104,0l-0.136,-0.936l-0.928,0l-0.144,0.936l-1.104,0l1.136,-6l1.168,0l1.112,6Zm-1.4,-2.016l-0.296,-2.04l-0.312,2.04l0.608,0Z" style="fill:#fff;fill-rule:nonzero;"/>
            <path d="M47.534,63.27c-0.448,0 -0.806,-0.134 -1.076,-0.404c-0.269,-0.269 -0.404,-0.628 -0.404,-1.076l0,-3.296c0,-0.448 0.135,-0.806 0.404,-1.076c0.27,-0.269 0.628,-0.404 1.076,-0.404c0.448,0 0.807,0.135 1.076,0.404c0.27,0.27 0.404,0.628 0.404,1.076l0,0.32l-1.08,0l0,-0.32c0,-0.122 -0.034,-0.22 -0.104,-0.292c-0.069,-0.072 -0.168,-0.108 -0.296,-0.108c-0.128,0 -0.226,0.036 -0.296,0.108c-0.069,0.072 -0.104,0.17 -0.104,0.292l0,3.296c0,0.123 0.035,0.22 0.104,0.292c0.07,0.072 0.168,0.108 0.296,0.108c0.128,0 0.227,-0.036 0.296,-0.108c0.07,-0.072 0.104,-0.169 0.104,-0.292l0,-0.568l-0.504,0l0,-1.08l1.584,0l0,1.648c0,0.448 -0.134,0.807 -0.404,1.076c-0.269,0.27 -0.628,0.404 -1.076,0.404Z" style="fill:#fff;fill-rule:nonzero;"/>
            <path d="M52.894,58.222l-1.4,0l0,1.2l1.184,0l0,1.08l-1.184,0l0,1.56l1.4,0l0,1.08l-2.48,0l0,-6l2.48,0l0,1.08Z" style="fill:#fff;fill-rule:nonzero;"/>
            <path d="M59.422,61.79c0,0.448 -0.134,0.807 -0.404,1.076c-0.269,0.27 -0.628,0.404 -1.076,0.404c-0.448,0 -0.806,-0.134 -1.076,-0.404c-0.269,-0.269 -0.404,-0.628 -0.404,-1.076l0,-3.296c0,-0.448 0.135,-0.806 0.404,-1.076c0.27,-0.269 0.628,-0.404 1.076,-0.404c0.448,0 0.807,0.135 1.076,0.404c0.27,0.27 0.404,0.628 0.404,1.076l0,0.32l-1.08,0l0,-0.32c0,-0.122 -0.034,-0.22 -0.104,-0.292c-0.069,-0.072 -0.168,-0.108 -0.296,-0.108c-0.128,0 -0.226,0.036 -0.296,0.108c-0.069,0.072 -0.104,0.17 -0.104,0.292l0,3.296c0,0.123 0.035,0.22 0.104,0.292c0.07,0.072 0.168,0.108 0.296,0.108c0.128,0 0.227,-0.036 0.296,-0.108c0.07,-0.072 0.104,-0.169 0.104,-0.292l0,-0.32l1.08,0l0,0.32Z" style="fill:#fff;fill-rule:nonzero;"/>
            <path d="M62.07,63.27c-0.448,0 -0.806,-0.134 -1.076,-0.404c-0.269,-0.269 -0.404,-0.628 -0.404,-1.076l0,-3.296c0,-0.448 0.135,-0.806 0.404,-1.076c0.27,-0.269 0.628,-0.404 1.076,-0.404c0.448,0 0.807,0.135 1.076,0.404c0.27,0.27 0.404,0.628 0.404,1.076l0,3.296c0,0.448 -0.134,0.807 -0.404,1.076c-0.269,0.27 -0.628,0.404 -1.076,0.404Zm0,-1.08c0.128,0 0.227,-0.036 0.296,-0.108c0.07,-0.072 0.104,-0.169 0.104,-0.292l0,-3.296c0,-0.122 -0.034,-0.22 -0.104,-0.292c-0.069,-0.072 -0.168,-0.108 -0.296,-0.108c-0.128,0 -0.226,0.036 -0.296,0.108c-0.069,0.072 -0.104,0.17 -0.104,0.292l0,3.296c0,0.123 0.035,0.22 0.104,0.292c0.07,0.072 0.168,0.108 0.296,0.108Z" style="fill:#fff;fill-rule:nonzero;"/>
            <path d="M67.91,57.142l0,6l-0.8,0l-1.08,-3.072l0,3.072l-1,0l0,-6l0.8,0l1.08,3.072l0,-3.072l1,0Z" style="fill:#fff;fill-rule:nonzero;"/>
            <path d="M69.854,58.222l-0.88,0l0,-1.08l2.84,0l0,1.08l-0.88,0l0,4.92l-1.08,0l0,-4.92Z" style="fill:#fff;fill-rule:nonzero;"/>
            <path d="M75.838,59.582c0,0.448 -0.136,0.808 -0.408,1.08c0.272,0.192 0.408,0.459 0.408,0.8l0,1.68l-1.08,0l0,-1.68c0,-0.122 -0.034,-0.22 -0.104,-0.292c-0.069,-0.072 -0.168,-0.108 -0.296,-0.108l-0.4,0l0,2.08l-1.08,0l0,-6l1.48,0c0.448,0 0.807,0.135 1.076,0.404c0.27,0.27 0.404,0.628 0.404,1.076l0,0.96Zm-1.08,-0.96c0,-0.122 -0.034,-0.22 -0.104,-0.292c-0.069,-0.072 -0.168,-0.108 -0.296,-0.108l-0.4,0l0,1.76l0.4,0c0.128,0 0.227,-0.036 0.296,-0.108c0.07,-0.072 0.104,-0.169 0.104,-0.292l0,-0.96Z" style="fill:#fff;fill-rule:nonzero;"/>
            <path d="M78.702,63.27c-0.448,0 -0.806,-0.134 -1.076,-0.404c-0.269,-0.269 -0.404,-0.628 -0.404,-1.076l0,-3.296c0,-0.448 0.135,-0.806 0.404,-1.076c0.27,-0.269 0.628,-0.404 1.076,-0.404c0.448,0 0.807,0.135 1.076,0.404c0.27,0.27 0.404,0.628 0.404,1.076l0,3.296c0,0.448 -0.134,0.807 -0.404,1.076c-0.269,0.27 -0.628,0.404 -1.076,0.404Zm0,-1.08c0.128,0 0.227,-0.036 0.296,-0.108c0.07,-0.072 0.104,-0.169 0.104,-0.292l0,-3.296c0,-0.122 -0.034,-0.22 -0.104,-0.292c-0.069,-0.072 -0.168,-0.108 -0.296,-0.108c-0.128,0 -0.226,0.036 -0.296,0.108c-0.069,0.072 -0.104,0.17 -0.104,0.292l0,3.296c0,0.123 0.035,0.22 0.104,0.292c0.07,0.072 0.168,0.108 0.296,0.108Z" style="fill:#fff;fill-rule:nonzero;"/>
            <path d="M82.742,62.062l1.24,0l0,1.08l-2.32,0l0,-6l1.08,0l0,4.92Z" style="fill:#fff;fill-rule:nonzero;"/>
            <path d="M86.166,62.062l1.24,0l0,1.08l-2.32,0l0,-6l1.08,0l0,4.92Z" style="fill:#fff;fill-rule:nonzero;"/>
            <path d="M90.99,58.222l-1.4,0l0,1.2l1.184,0l0,1.08l-1.184,0l0,1.56l1.4,0l0,1.08l-2.48,0l0,-6l2.48,0l0,1.08Z" style="fill:#fff;fill-rule:nonzero;"/>
            <path d="M92.326,57.142l1.48,0c0.448,0 0.807,0.135 1.076,0.404c0.27,0.27 0.404,0.628 0.404,1.076l0,3.04c0,0.448 -0.134,0.807 -0.404,1.076c-0.269,0.27 -0.628,0.404 -1.076,0.404l-1.48,0l0,-6Zm1.48,4.92c0.128,0 0.227,-0.036 0.296,-0.108c0.07,-0.072 0.104,-0.169 0.104,-0.292l0,-3.04c0,-0.122 -0.034,-0.22 -0.104,-0.292c-0.069,-0.072 -0.168,-0.108 -0.296,-0.108l-0.4,0l0,3.84l0.4,0Z" style="fill:#fff;fill-rule:nonzero;"/>
            <path d="M99.054,57.142l1.48,0c0.448,0 0.807,0.135 1.076,0.404c0.27,0.27 0.404,0.628 0.404,1.076l0,3.04c0,0.448 -0.134,0.807 -0.404,1.076c-0.269,0.27 -0.628,0.404 -1.076,0.404l-1.48,0l0,-6Zm1.48,4.92c0.128,0 0.227,-0.036 0.296,-0.108c0.07,-0.072 0.104,-0.169 0.104,-0.292l0,-3.04c0,-0.122 -0.034,-0.22 -0.104,-0.292c-0.069,-0.072 -0.168,-0.108 -0.296,-0.108l-0.4,0l0,3.84l0.4,0Z" style="fill:#fff;fill-rule:nonzero;"/>
            <rect x="103.462" y="57.142" width="1.08" height="6" style="fill:#fff;fill-rule:nonzero;"/>
            <path d="M107.502,63.27c-0.448,0 -0.806,-0.134 -1.076,-0.404c-0.269,-0.269 -0.404,-0.628 -0.404,-1.076l0,-3.296c0,-0.448 0.135,-0.806 0.404,-1.076c0.27,-0.269 0.628,-0.404 1.076,-0.404c0.448,0 0.807,0.135 1.076,0.404c0.27,0.27 0.404,0.628 0.404,1.076l0,3.296c0,0.448 -0.134,0.807 -0.404,1.076c-0.269,0.27 -0.628,0.404 -1.076,0.404Zm0,-1.08c0.128,0 0.227,-0.036 0.296,-0.108c0.07,-0.072 0.104,-0.169 0.104,-0.292l0,-3.296c0,-0.122 -0.034,-0.22 -0.104,-0.292c-0.069,-0.072 -0.168,-0.108 -0.296,-0.108c-0.128,0 -0.226,0.036 -0.296,0.108c-0.069,0.072 -0.104,0.17 -0.104,0.292l0,3.296c0,0.123 0.035,0.22 0.104,0.292c0.07,0.072 0.168,0.108 0.296,0.108Z" style="fill:#fff;fill-rule:nonzero;"/>
            <path d="M110.462,57.142l1.48,0c0.448,0 0.807,0.135 1.076,0.404c0.27,0.27 0.404,0.628 0.404,1.076l0,3.04c0,0.448 -0.134,0.807 -0.404,1.076c-0.269,0.27 -0.628,0.404 -1.076,0.404l-1.48,0l0,-6Zm1.48,4.92c0.128,0 0.227,-0.036 0.296,-0.108c0.07,-0.072 0.104,-0.169 0.104,-0.292l0,-3.04c0,-0.122 -0.034,-0.22 -0.104,-0.292c-0.069,-0.072 -0.168,-0.108 -0.296,-0.108l-0.4,0l0,3.84l0.4,0Z" style="fill:#fff;fill-rule:nonzero;"/>
            <path d="M117.35,58.222l-1.4,0l0,1.2l1.184,0l0,1.08l-1.184,0l0,1.56l1.4,0l0,1.08l-2.48,0l0,-6l2.48,0l0,1.08Z" style="fill:#fff;fill-rule:nonzero;"/>
            <path d="M121.006,57.142l2.48,0l0,1.08l-1.4,0l0,1.92l1.184,0l0,1.08l-1.184,0l0,1.92l-1.08,0l0,-6Z" style="fill:#fff;fill-rule:nonzero;"/>
            <rect x="124.662" y="57.142" width="1.08" height="6" style="fill:#fff;fill-rule:nonzero;"/>
            <path d="M128.39,62.062l1.24,0l0,1.08l-2.32,0l0,-6l1.08,0l0,4.92Z" style="fill:#fff;fill-rule:nonzero;"/>
            <path d="M130.95,58.222l-0.88,0l0,-1.08l2.84,0l0,1.08l-0.88,0l0,4.92l-1.08,0l0,-4.92Z" style="fill:#fff;fill-rule:nonzero;"/>
            <path d="M136.454,58.222l-1.4,0l0,1.2l1.184,0l0,1.08l-1.184,0l0,1.56l1.4,0l0,1.08l-2.48,0l0,-6l2.48,0l0,1.08Z" style="fill:#fff;fill-rule:nonzero;"/>
            <path d="M140.75,59.582c0,0.448 -0.136,0.808 -0.408,1.08c0.272,0.192 0.408,0.459 0.408,0.8l0,1.68l-1.08,0l0,-1.68c0,-0.122 -0.034,-0.22 -0.104,-0.292c-0.069,-0.072 -0.168,-0.108 -0.296,-0.108l-0.4,0l0,2.08l-1.08,0l0,-6l1.48,0c0.448,0 0.807,0.135 1.076,0.404c0.27,0.27 0.404,0.628 0.404,1.076l0,0.96Zm-1.08,-0.96c0,-0.122 -0.034,-0.22 -0.104,-0.292c-0.069,-0.072 -0.168,-0.108 -0.296,-0.108l-0.4,0l0,1.76l0.4,0c0.128,0 0.227,-0.036 0.296,-0.108c0.07,-0.072 0.104,-0.169 0.104,-0.292l0,-0.96Z" style="fill:#fff;fill-rule:nonzero;"/>
        </g>
    </g>
    <g transform="matrix(1.46664,0,0,1.46664,9.35208,-129.383)">
        <g id="Name">
            <path d="M39.749,91.74l0.301,0.719l0,12.09l-2.872,0l-0.334,-0.785l-0.067,0l0,-12.191l2.972,0l0,0.167Zm-0.334,0.167l-2.304,0l0,11.523l2.304,0l0,-11.523Zm-0.35,11.173l-1.603,0l0,-10.822l1.603,0l0,10.822Z" style="fill-rule:nonzero;"/>
            <path d="M46.697,98.404c-0.19,-0.223 -0.421,-0.404 -0.693,-0.543c-0.273,-0.139 -0.565,-0.209 -0.877,-0.209c-0.278,0 -0.54,0.053 -0.785,0.159c-0.245,0.106 -0.459,0.248 -0.643,0.426c-0.184,0.178 -0.328,0.392 -0.434,0.643c-0.106,0.25 -0.159,0.515 -0.159,0.793l0,0.217c0.178,0.278 0.412,0.498 0.702,0.66c0.289,0.161 0.612,0.242 0.968,0.242c0.267,0 0.518,-0.05 0.752,-0.15c0.233,-0.101 0.437,-0.234 0.609,-0.401c0.173,-0.167 0.315,-0.365 0.426,-0.593c0.111,-0.228 0.173,-0.476 0.184,-0.743l0,-0.151l-0.05,-0.35Zm3.022,-4.342l0.301,0.718l0,9.769l-2.872,0l-0.151,-0.35c-0.601,0.245 -1.224,0.367 -1.87,0.367c-0.49,0 -0.963,-0.072 -1.42,-0.217c-0.456,-0.145 -0.879,-0.345 -1.269,-0.601c-0.39,-0.256 -0.74,-0.568 -1.052,-0.935c-0.312,-0.368 -0.562,-0.78 -0.751,-1.236l-0.051,-0.117c-0.233,-0.368 -0.414,-0.771 -0.542,-1.211c-0.128,-0.44 -0.192,-0.91 -0.192,-1.411c0,-0.724 0.136,-1.389 0.409,-1.996c0.273,-0.606 0.634,-1.127 1.085,-1.561c0.451,-0.434 0.974,-0.774 1.57,-1.019c0.596,-0.245 1.216,-0.367 1.862,-0.367c0.69,0 1.347,0.133 1.971,0.401l0,-0.401l2.972,0l0,0.167Zm-2.638,4.776l0,0.083c-0.011,0.312 -0.078,0.602 -0.201,0.869c-0.122,0.267 -0.289,0.501 -0.501,0.701c-0.211,0.201 -0.453,0.357 -0.726,0.468c-0.273,0.111 -0.565,0.167 -0.877,0.167c-0.323,0 -0.623,-0.059 -0.902,-0.175c-0.278,-0.117 -0.52,-0.282 -0.726,-0.493c-0.206,-0.212 -0.37,-0.454 -0.493,-0.727c-0.122,-0.272 -0.183,-0.57 -0.183,-0.893c0,-0.323 0.061,-0.623 0.183,-0.902c0.123,-0.278 0.287,-0.523 0.493,-0.735c0.206,-0.211 0.448,-0.375 0.726,-0.492c0.279,-0.117 0.579,-0.176 0.902,-0.176c0.312,0 0.604,0.056 0.877,0.167c0.273,0.112 0.515,0.268 0.726,0.468c0.212,0.2 0.379,0.434 0.501,0.701c0.123,0.268 0.19,0.557 0.201,0.869l0,0.1Zm2.304,-4.609l-2.304,0l0,0.618c-0.768,-0.446 -1.559,-0.654 -2.372,-0.627c-0.812,0.028 -1.556,0.237 -2.229,0.627c-0.674,0.389 -1.225,0.929 -1.653,1.62c-0.429,0.69 -0.643,1.48 -0.643,2.371c0,0.891 0.214,1.681 0.643,2.371c0.428,0.691 0.979,1.228 1.653,1.612c0.673,0.384 1.417,0.59 2.229,0.618c0.813,0.028 1.604,-0.181 2.372,-0.626l0,0.617l2.304,0l0,-9.201Zm-0.35,8.851l-1.604,0l0,-0.869c-1.035,0.59 -1.92,0.885 -2.655,0.885c-0.557,0 -1.091,-0.105 -1.603,-0.317c-0.512,-0.211 -0.963,-0.504 -1.353,-0.877c-0.389,-0.373 -0.701,-0.821 -0.935,-1.344c-0.234,-0.523 -0.351,-1.097 -0.351,-1.72c0,-0.623 0.117,-1.197 0.351,-1.72c0.234,-0.523 0.546,-0.972 0.935,-1.344c0.39,-0.373 0.841,-0.666 1.353,-0.877c0.512,-0.212 1.046,-0.318 1.603,-0.318c0.356,0 0.754,0.067 1.194,0.201c0.44,0.133 0.927,0.356 1.461,0.668l0,-0.869l1.604,0l0,8.501Zm-1.604,-4.326c-0.011,-0.367 -0.089,-0.706 -0.233,-1.018c-0.145,-0.312 -0.337,-0.582 -0.576,-0.81c-0.24,-0.228 -0.518,-0.409 -0.835,-0.543c-0.318,-0.134 -0.655,-0.2 -1.011,-0.2c-0.367,0 -0.712,0.069 -1.035,0.208c-0.323,0.14 -0.604,0.329 -0.844,0.568c-0.239,0.24 -0.428,0.521 -0.567,0.844c-0.14,0.322 -0.209,0.668 -0.209,1.035c0,0.367 0.069,0.713 0.209,1.035c0.139,0.323 0.328,0.602 0.567,0.835c0.24,0.234 0.521,0.421 0.844,0.56c0.323,0.139 0.668,0.209 1.035,0.209c0.356,0 0.693,-0.067 1.011,-0.201c0.317,-0.133 0.595,-0.314 0.835,-0.543c0.239,-0.228 0.431,-0.495 0.576,-0.801c0.144,-0.306 0.222,-0.638 0.233,-0.994l0,-0.184Z" style="fill-rule:nonzero;"/>
            <path d="M52.942,91.74l0.301,0.719l0,2.104l-0.083,0l0.083,0.2l0,9.786l-2.872,0l-0.334,-0.785l-0.067,0l0,-9.886l0.117,0l-0.05,-0.1l-0.067,0l0,-2.205l2.972,0l0,0.167Zm-0.334,0.167l-2.304,0l0,1.537l2.304,0l0,-1.537Zm0,2.305l-2.304,0l0,9.218l2.304,0l0,-9.218Zm-0.35,8.868l-1.603,0l0,-8.517l1.603,0l0,8.517Zm0,-9.987l-1.603,0l0,-0.835l1.603,0l0,0.835Z" style="fill-rule:nonzero;"/>
            <path d="M59.973,101.209c0,-0.022 -0.011,-0.055 -0.033,-0.1l0.033,0.1Zm-3.574,-4.408l2.906,-2.906l4.175,0l-0.1,0.1l0.334,0.785l-2.956,2.972c0.512,0.323 0.946,0.73 1.303,1.22c0.356,0.489 0.612,1.029 0.768,1.619l0.033,0.051l-0.016,-0.017l0,0.017l0.016,0.016c0.023,0.067 0.045,0.112 0.067,0.134c0.256,0.612 0.384,1.258 0.384,1.937l0,1.82l-2.872,0l-0.334,-0.785l-0.067,0l0,-1.87c0,-0.134 -0.017,-0.278 -0.05,-0.434c-0.189,-0.223 -0.42,-0.404 -0.693,-0.543c-0.273,-0.139 -0.565,-0.209 -0.877,-0.209c-0.278,0 -0.54,0.053 -0.785,0.159c-0.245,0.106 -0.459,0.251 -0.643,0.434c-0.183,0.184 -0.328,0.398 -0.434,0.643c-0.106,0.245 -0.159,0.507 -0.159,0.785l0,1.82l-2.872,0l-0.334,-0.785l-0.067,0l0,-12.174l2.973,0l0,0.167l0.3,0.718l0,4.326Zm6.28,5.093c0,-0.501 -0.078,-0.985 -0.234,-1.453c-0.156,-0.467 -0.379,-0.893 -0.668,-1.277c-0.29,-0.384 -0.635,-0.721 -1.036,-1.011c-0.4,-0.289 -0.84,-0.506 -1.319,-0.651l3.257,-3.273l-3.24,0l-3.674,3.674l0,-3.056l0,-2.923l-2.305,0l0,11.506l2.305,0l0,-1.536c0,-0.312 0.061,-0.609 0.183,-0.893c0.123,-0.284 0.287,-0.529 0.493,-0.735c0.206,-0.206 0.448,-0.37 0.727,-0.493c0.278,-0.122 0.578,-0.184 0.901,-0.184c0.312,0 0.61,0.062 0.894,0.184c0.284,0.123 0.529,0.287 0.735,0.493c0.206,0.206 0.37,0.451 0.492,0.735c0.123,0.284 0.184,0.581 0.184,0.893l0,1.536l2.305,0l0,-1.536Zm-0.351,1.186l-1.603,0l0,-1.186c0,-0.367 -0.07,-0.712 -0.209,-1.035c-0.139,-0.323 -0.329,-0.604 -0.568,-0.844c-0.239,-0.239 -0.52,-0.428 -0.843,-0.567c-0.323,-0.14 -0.668,-0.209 -1.036,-0.209c-0.367,0 -0.712,0.069 -1.035,0.209c-0.323,0.139 -0.604,0.328 -0.843,0.567c-0.24,0.24 -0.429,0.521 -0.568,0.844c-0.139,0.323 -0.209,0.668 -0.209,1.035l0,1.186l-1.603,0l0,-10.805l1.603,0l0,6.479l4.175,-4.175l2.238,0l-3.073,3.09c0.534,0.167 1.019,0.392 1.453,0.676c0.434,0.284 0.81,0.61 1.127,0.977c0.318,0.368 0.562,0.771 0.735,1.211c0.173,0.44 0.259,0.893 0.259,1.361l0,1.186Z" style="fill-rule:nonzero;"/>
            <path d="M69.876,98.404c-0.189,-0.223 -0.42,-0.404 -0.693,-0.543c-0.273,-0.139 -0.565,-0.209 -0.877,-0.209c-0.278,0 -0.54,0.053 -0.784,0.159c-0.245,0.106 -0.46,0.248 -0.643,0.426c-0.184,0.178 -0.329,0.392 -0.435,0.643c-0.105,0.25 -0.158,0.515 -0.158,0.793l0,0.217c0.178,0.278 0.412,0.498 0.701,0.66c0.29,0.161 0.612,0.242 0.969,0.242c0.267,0 0.517,-0.05 0.751,-0.15c0.234,-0.101 0.437,-0.234 0.61,-0.401c0.172,-0.167 0.314,-0.365 0.426,-0.593c0.111,-0.228 0.172,-0.476 0.183,-0.743l0,-0.151l-0.05,-0.35Zm3.023,-4.342l0.301,0.718l0,9.769l-2.873,0l-0.15,-0.35c-0.601,0.245 -1.225,0.367 -1.871,0.367c-0.489,0 -0.963,-0.072 -1.419,-0.217c-0.457,-0.145 -0.88,-0.345 -1.269,-0.601c-0.39,-0.256 -0.741,-0.568 -1.052,-0.935c-0.312,-0.368 -0.563,-0.78 -0.752,-1.236l-0.05,-0.117c-0.234,-0.368 -0.415,-0.771 -0.543,-1.211c-0.128,-0.44 -0.192,-0.91 -0.192,-1.411c0,-0.724 0.137,-1.389 0.409,-1.996c0.273,-0.606 0.635,-1.127 1.086,-1.561c0.451,-0.434 0.974,-0.774 1.57,-1.019c0.595,-0.245 1.216,-0.367 1.862,-0.367c0.69,0 1.347,0.133 1.97,0.401l0,-0.401l2.973,0l0,0.167Zm-2.639,4.776l0,0.083c-0.011,0.312 -0.078,0.602 -0.2,0.869c-0.123,0.267 -0.29,0.501 -0.501,0.701c-0.212,0.201 -0.454,0.357 -0.726,0.468c-0.273,0.111 -0.566,0.167 -0.877,0.167c-0.323,0 -0.624,-0.059 -0.902,-0.175c-0.278,-0.117 -0.521,-0.282 -0.726,-0.493c-0.206,-0.212 -0.371,-0.454 -0.493,-0.727c-0.123,-0.272 -0.184,-0.57 -0.184,-0.893c0,-0.323 0.061,-0.623 0.184,-0.902c0.122,-0.278 0.287,-0.523 0.493,-0.735c0.205,-0.211 0.448,-0.375 0.726,-0.492c0.278,-0.117 0.579,-0.176 0.902,-0.176c0.311,0 0.604,0.056 0.877,0.167c0.272,0.112 0.514,0.268 0.726,0.468c0.211,0.2 0.378,0.434 0.501,0.701c0.122,0.268 0.189,0.557 0.2,0.869l0,0.1Zm2.305,-4.609l-2.305,0l0,0.618c-0.768,-0.446 -1.558,-0.654 -2.371,-0.627c-0.813,0.028 -1.556,0.237 -2.229,0.627c-0.674,0.389 -1.225,0.929 -1.654,1.62c-0.428,0.69 -0.643,1.48 -0.643,2.371c0,0.891 0.215,1.681 0.643,2.371c0.429,0.691 0.98,1.228 1.654,1.612c0.673,0.384 1.416,0.59 2.229,0.618c0.813,0.028 1.603,-0.181 2.371,-0.626l0,0.617l2.305,0l0,-9.201Zm-0.351,8.851l-1.603,0l0,-0.869c-1.035,0.59 -1.92,0.885 -2.655,0.885c-0.557,0 -1.091,-0.105 -1.603,-0.317c-0.513,-0.211 -0.963,-0.504 -1.353,-0.877c-0.39,-0.373 -0.702,-0.821 -0.935,-1.344c-0.234,-0.523 -0.351,-1.097 -0.351,-1.72c0,-0.623 0.117,-1.197 0.351,-1.72c0.233,-0.523 0.545,-0.972 0.935,-1.344c0.39,-0.373 0.84,-0.666 1.353,-0.877c0.512,-0.212 1.046,-0.318 1.603,-0.318c0.356,0 0.754,0.067 1.194,0.201c0.44,0.133 0.927,0.356 1.461,0.668l0,-0.869l1.603,0l0,8.501Zm-1.603,-4.326c-0.011,-0.367 -0.089,-0.706 -0.234,-1.018c-0.144,-0.312 -0.337,-0.582 -0.576,-0.81c-0.239,-0.228 -0.518,-0.409 -0.835,-0.543c-0.317,-0.134 -0.654,-0.2 -1.01,-0.2c-0.368,0 -0.713,0.069 -1.036,0.208c-0.323,0.14 -0.604,0.329 -0.843,0.568c-0.239,0.24 -0.429,0.521 -0.568,0.844c-0.139,0.322 -0.209,0.668 -0.209,1.035c0,0.367 0.07,0.713 0.209,1.035c0.139,0.323 0.329,0.602 0.568,0.835c0.239,0.234 0.52,0.421 0.843,0.56c0.323,0.139 0.668,0.209 1.036,0.209c0.356,0 0.693,-0.067 1.01,-0.201c0.317,-0.133 0.596,-0.314 0.835,-0.543c0.239,-0.228 0.432,-0.495 0.576,-0.801c0.145,-0.306 0.223,-0.638 0.234,-0.994l0,-0.184Z" style="fill-rule:nonzero;"/>
        </g>
    </g>
</svg>
