<?xml version="1.0" encoding="UTF-8" standalone="no"?>
<!DOCTYPE svg PUBLIC "-//W3C//DTD SVG 1.1//EN" "http://www.w3.org/Graphics/SVG/1.1/DTD/svg11.dtd">
<svg width="500px" height="380px" version="1.1" xmlns="http://www.w3.org/2000/svg" xmlns:xlink="http://www.w3.org/1999/xlink" xml:space="preserve" xmlns:serif="http://www.serif.com/" style="fill-rule:evenodd;clip-rule:evenodd;stroke-linecap:round;stroke-linejoin:round;stroke-miterlimit:1.5;">
    <g id="Background" transform="matrix(0.657895,0,0,1,0,0)">
        <rect x="0" y="0" width="760" height="380" style="fill:#1a1a1a;"/>
    </g>
    <g id="Background1" serif:id="Background" transform="matrix(4.07186e-17,0.664985,-1.64362,1.00643e-16,571.879,-52.9219)">
        <rect x="0" y="0" width="760" height="380" style="fill:url(#_Linear1);stroke:#000;stroke-width:0.8px;"/>
    </g>
    <g id="Logo" transform="matrix(1,0,0,1,130,0)">
        <g transform="matrix(0.0830615,0,0,0.0830615,110.213,350.922)">
            <path d="M232.321,164.268c-0.551,-1.407 -1.25,-2.487 -1.733,-4.267l0.016,0c-0.034,0 -0.056,-0.074 -0.088,-0.149c-0.062,-0.193 -0.122,-0.353 -0.173,-0.548c-0.097,-0.365 -0.189,-0.759 -0.253,-1.179c-0.043,-2.08 1.872,-2.792 1.946,-5.183c0.081,-2.573 -1.476,-3.898 -1.946,-4.241c-0.02,-0.028 -0.037,-0.054 -0.056,-0.082c0.012,-0.037 0.02,-0.068 0.031,-0.104c2.993,-2.433 1.69,-5.738 1.69,-5.738c-0.636,-0.338 -1.313,-0.55 -1.797,-0.98c-4.337,-3.863 -4.606,-6.636 -1.196,-11.288c0.866,-1.185 1.746,-2.375 2.467,-3.649c1.761,-3.117 1.359,-4.599 -1.81,-6.367c-2.28,-1.271 -4.743,-2.218 -6.988,-3.545c-6.396,-3.778 -11.834,-8.521 -15.061,-15.174c2.171,-3.872 2.171,-3.872 1.304,-6.341c-0.791,0.865 -1.527,1.672 -2.688,2.944c0,-3.049 0.294,-5.379 -0.083,-7.595c-0.367,-2.156 -0.85,-4.792 -2.281,-6.178c-5.217,-5.045 -8.175,-11.292 -10.92,-17.796c-2.029,-4.806 -4.196,-9.66 -8.171,-13.236c-2,-1.8 -4.474,-3.072 -6.742,-4.587c0,-1.354 0.017,-2.653 -0.006,-3.951c-0.019,-1.297 0.038,-2.61 -0.136,-3.89c-0.702,-5.113 -4.34,-7.564 -9.404,-6.548c-3.181,0.638 -6.385,1.238 -9.605,1.563c-1.888,0.19 -3.584,0.128 -3.225,-3.432c1.62,0 3.162,0 5.368,0c-1.104,0 -1.515,-1.544 -2.067,-1.769c-2.208,-0.892 -4.045,-0.36 -5.099,1.396c-1.25,2.077 0.023,3.586 1.504,4.555c1.273,0.832 3.004,1.441 4.492,1.365c3.234,-0.167 6.436,-0.842 9.658,-1.296c2.8,-0.394 4.451,0.587 5.01,3.266c0.266,1.278 0.047,2.658 0.047,3.561c-3.72,-1.383 -6.953,-3.369 -10.347,-3.69c-7.432,-0.706 -14.956,-0.912 -22.413,-0.611c-3.084,0.124 -6.484,1.511 -9.049,3.309c-4.547,3.188 -9.441,5.039 -14.773,6.138c-2.549,0.526 -5.106,1.149 -7.55,2.03c-4.689,1.689 -8.626,4.342 -11.53,8.63c-1.595,2.354 -3.836,4.445 -6.188,6.076c-4.591,3.184 -9.001,6.424 -12.144,11.187c-1.712,2.596 -4.124,4.212 -7.839,3.113c-1.104,-4.244 -4.87,-4.911 -8.627,-5.423c-1.764,-0.242 -3.625,-0.32 -5.373,-0.04c-10.247,1.643 -19.554,5.56 -26.813,13.074c-6.565,6.797 -5.937,10.365 -2.739,16.202c2.063,3.766 2.131,7.435 -0.279,11.089c-1.874,2.842 -2.57,6.013 -2.071,9.354c1.284,8.609 4.072,16.22 13.409,19.251c0.615,0.198 1.156,0.607 1.748,0.881c2.125,0.984 3.145,2.592 3.365,4.971c0.144,1.54 0.491,3.357 1.429,4.479c6.245,7.454 20.432,8.503 25.041,-1.951c0.189,-0.432 0.624,-0.756 0.945,-1.129c0.305,0.134 0.609,0.266 0.914,0.399c-0.27,1.348 -0.539,2.694 -0.81,4.042c-0.351,1.75 -1.204,3.572 -0.961,5.235c0.915,6.264 1.484,12.716 3.503,18.648c2.452,7.204 8.53,14.587 18.762,13.197c3.549,-0.483 6.782,0.391 9.818,2.234c1.254,0.76 2.657,1.272 3.912,2.027c3.221,1.943 6.497,1.898 9.857,0.464c2.024,-0.863 4.052,-1.726 6.331,-2.698c-1.16,4.041 -2.278,7.594 -3.189,11.197c-1.336,5.287 -3.631,9.452 -9.941,9.48c-0.115,0 -0.228,0.204 -0.481,0.441c0.473,1.385 0.975,2.855 1.446,4.234c-3.43,5.076 -9.388,5.288 -13.951,7.881c8.949,0.082 15.39,-4.254 16.179,-10.562c4.91,-1.582 7.805,-5.034 9.233,-9.921c0.777,-2.659 1.611,-5.32 2.672,-7.879c1.746,-4.209 4.792,-6.719 9.406,-6.833c-0.302,3.22 -0.579,6.169 -0.855,9.113c-6.687,1.486 -6.819,1.649 -6.534,8.315c-1.583,1.269 -3.238,2.596 -5.685,4.557c6.226,-1.428 7.436,-2.953 8.025,-9.211c0.938,-0.325 1.962,-0.799 3.039,-1.035c4.009,-0.875 4.11,-0.859 3.682,-5.037c-0.251,-2.445 0.739,-3.996 3.163,-5.664c0.451,1.766 0.892,3.088 1.115,4.445c0.316,1.923 0.547,3.867 0.687,5.81c0.517,7.404 -0.06,14.643 -3.457,21.43c-4.159,8.313 -8.334,16.622 -12.413,24.973c-1.174,2.404 -2.482,4.234 -5.172,5.433c-4.265,1.907 -7.421,6.556 -7.757,10.832c15.258,2.949 26.312,6.953 41.04,18.833c9.647,7.785 19.862,11.309 29.399,12.456c0.003,-0.004 10.248,-13.711 19.753,-32.558c-0.241,-0.365 -0.484,-0.728 -0.723,-1.095c-6.25,-9.478 -11.533,-18.592 -13.049,-22.521c-2.853,-7.395 -3.838,-14.659 -2.132,-22.466c1.983,-9.083 3.633,-18.206 7.761,-26.672c2.412,-4.95 6.15,-7.711 11.519,-8.858c6.366,-1.36 12.689,-3.037 18.94,-4.868c6.706,-1.966 9.308,-7.753 6.747,-14.275Z" style="fill-opacity:0.164706;fill-rule:nonzero;"/>
        </g>
        <g transform="matrix(0.0830615,0,0,0.0830615,109.213,349.922)">
            <path d="M232.321,164.268c-0.551,-1.407 -1.25,-2.487 -1.733,-4.267l0.016,0c-0.034,0 -0.056,-0.074 -0.088,-0.149c-0.062,-0.193 -0.122,-0.353 -0.173,-0.548c-0.097,-0.365 -0.189,-0.759 -0.253,-1.179c-0.043,-2.08 1.872,-2.792 1.946,-5.183c0.081,-2.573 -1.476,-3.898 -1.946,-4.241c-0.02,-0.028 -0.037,-0.054 -0.056,-0.082c0.012,-0.037 0.02,-0.068 0.031,-0.104c2.993,-2.433 1.69,-5.738 1.69,-5.738c-0.636,-0.338 -1.313,-0.55 -1.797,-0.98c-4.337,-3.863 -4.606,-6.636 -1.196,-11.288c0.866,-1.185 1.746,-2.375 2.467,-3.649c1.761,-3.117 1.359,-4.599 -1.81,-6.367c-2.28,-1.271 -4.743,-2.218 -6.988,-3.545c-6.396,-3.778 -11.834,-8.521 -15.061,-15.174c2.171,-3.872 2.171,-3.872 1.304,-6.341c-0.791,0.865 -1.527,1.672 -2.688,2.944c0,-3.049 0.294,-5.379 -0.083,-7.595c-0.367,-2.156 -0.85,-4.792 -2.281,-6.178c-5.217,-5.045 -8.175,-11.292 -10.92,-17.796c-2.029,-4.806 -4.196,-9.66 -8.171,-13.236c-2,-1.8 -4.474,-3.072 -6.742,-4.587c0,-1.354 0.017,-2.653 -0.006,-3.951c-0.019,-1.297 0.038,-2.61 -0.136,-3.89c-0.702,-5.113 -4.34,-7.564 -9.404,-6.548c-3.181,0.638 -6.385,1.238 -9.605,1.563c-1.888,0.19 -3.584,0.128 -3.225,-3.432c1.62,0 3.162,0 5.368,0c-1.104,0 -1.515,-1.544 -2.067,-1.769c-2.208,-0.892 -4.045,-0.36 -5.099,1.396c-1.25,2.077 0.023,3.586 1.504,4.555c1.273,0.832 3.004,1.441 4.492,1.365c3.234,-0.167 6.436,-0.842 9.658,-1.296c2.8,-0.394 4.451,0.587 5.01,3.266c0.266,1.278 0.047,2.658 0.047,3.561c-3.72,-1.383 -6.953,-3.369 -10.347,-3.69c-7.432,-0.706 -14.956,-0.912 -22.413,-0.611c-3.084,0.124 -6.484,1.511 -9.049,3.309c-4.547,3.188 -9.441,5.039 -14.773,6.138c-2.549,0.526 -5.106,1.149 -7.55,2.03c-4.689,1.689 -8.626,4.342 -11.53,8.63c-1.595,2.354 -3.836,4.445 -6.188,6.076c-4.591,3.184 -9.001,6.424 -12.144,11.187c-1.712,2.596 -4.124,4.212 -7.839,3.113c-1.104,-4.244 -4.87,-4.911 -8.627,-5.423c-1.764,-0.242 -3.625,-0.32 -5.373,-0.04c-10.247,1.643 -19.554,5.56 -26.813,13.074c-6.565,6.797 -5.937,10.365 -2.739,16.202c2.063,3.766 2.131,7.435 -0.279,11.089c-1.874,2.842 -2.57,6.013 -2.071,9.354c1.284,8.609 4.072,16.22 13.409,19.251c0.615,0.198 1.156,0.607 1.748,0.881c2.125,0.984 3.145,2.592 3.365,4.971c0.144,1.54 0.491,3.357 1.429,4.479c6.245,7.454 20.432,8.503 25.041,-1.951c0.189,-0.432 0.624,-0.756 0.945,-1.129c0.305,0.134 0.609,0.266 0.914,0.399c-0.27,1.348 -0.539,2.694 -0.81,4.042c-0.351,1.75 -1.204,3.572 -0.961,5.235c0.915,6.264 1.484,12.716 3.503,18.648c2.452,7.204 8.53,14.587 18.762,13.197c3.549,-0.483 6.782,0.391 9.818,2.234c1.254,0.76 2.657,1.272 3.912,2.027c3.221,1.943 6.497,1.898 9.857,0.464c2.024,-0.863 4.052,-1.726 6.331,-2.698c-1.16,4.041 -2.278,7.594 -3.189,11.197c-1.336,5.287 -3.631,9.452 -9.941,9.48c-0.115,0 -0.228,0.204 -0.481,0.441c0.473,1.385 0.975,2.855 1.446,4.234c-3.43,5.076 -9.388,5.288 -13.951,7.881c8.949,0.082 15.39,-4.254 16.179,-10.562c4.91,-1.582 7.805,-5.034 9.233,-9.921c0.777,-2.659 1.611,-5.32 2.672,-7.879c1.746,-4.209 4.792,-6.719 9.406,-6.833c-0.302,3.22 -0.579,6.169 -0.855,9.113c-6.687,1.486 -6.819,1.649 -6.534,8.315c-1.583,1.269 -3.238,2.596 -5.685,4.557c6.226,-1.428 7.436,-2.953 8.025,-9.211c0.938,-0.325 1.962,-0.799 3.039,-1.035c4.009,-0.875 4.11,-0.859 3.682,-5.037c-0.251,-2.445 0.739,-3.996 3.163,-5.664c0.451,1.766 0.892,3.088 1.115,4.445c0.316,1.923 0.547,3.867 0.687,5.81c0.517,7.404 -0.06,14.643 -3.457,21.43c-4.159,8.313 -8.334,16.622 -12.413,24.973c-1.174,2.404 -2.482,4.234 -5.172,5.433c-4.265,1.907 -7.421,6.556 -7.757,10.832c15.258,2.949 26.312,6.953 41.04,18.833c9.647,7.785 19.862,11.309 29.399,12.456c0.003,-0.004 10.248,-13.711 19.753,-32.558c-0.241,-0.365 -0.484,-0.728 -0.723,-1.095c-6.25,-9.478 -11.533,-18.592 -13.049,-22.521c-2.853,-7.395 -3.838,-14.659 -2.132,-22.466c1.983,-9.083 3.633,-18.206 7.761,-26.672c2.412,-4.95 6.15,-7.711 11.519,-8.858c6.366,-1.36 12.689,-3.037 18.94,-4.868c6.706,-1.966 9.308,-7.753 6.747,-14.275Z" style="fill:#fff;fill-rule:nonzero;"/>
        </g>
    </g>
    <g id="Labels" transform="matrix(1,0,0,1,-102.947,3.85482)">
        <g transform="matrix(0.863123,0,0,0.810985,262.174,-133.725)">
            <path d="M-52.598,212.657l3.298,-7.302l2.848,0l3.263,7.302l-2.003,0l-0.621,-1.381l-4.143,0l-0.622,1.381l-2.02,0Zm6.129,-2.849l-1.416,-3.141l-1.415,3.141l2.831,0Z" style="fill:#fff;fill-rule:nonzero;"/>
            <path d="M-42.223,212.657l0,-7.302l3.108,0l3.677,5.886l0,-5.886l1.812,0l0,7.302l-3.142,0l-3.642,-5.87l0,5.87l-1.813,0Z" style="fill:#fff;fill-rule:nonzero;"/>
            <path d="M-32.676,212.657l3.297,-7.302l2.848,0l3.263,7.302l-2.002,0l-0.622,-1.381l-4.143,0l-0.621,1.381l-2.02,0Zm6.128,-2.849l-1.415,-3.141l-1.416,3.141l2.831,0Z" style="fill:#fff;fill-rule:nonzero;"/>
            <path d="M-22.405,212.657l0,-7.302l1.813,0l0,5.61l4.713,0l0,1.692l-6.526,0Z" style="fill:#fff;fill-rule:nonzero;"/>
            <path d="M-14.93,210.81l0,-3.608c0,-0.518 0.173,-0.956 0.518,-1.312c0.345,-0.357 0.777,-0.535 1.295,-0.535l4.971,0c0.507,0 0.936,0.181 1.287,0.543c0.351,0.363 0.526,0.797 0.526,1.304l0,3.573c0,0.518 -0.173,0.961 -0.518,1.329c-0.345,0.369 -0.777,0.553 -1.295,0.553l-4.971,0c-0.495,0 -0.921,-0.184 -1.278,-0.553c-0.357,-0.368 -0.535,-0.799 -0.535,-1.294Zm2.59,0l3.4,0c0.219,0 0.406,-0.084 0.561,-0.251c0.156,-0.167 0.233,-0.365 0.233,-0.595l0,-1.968c0,-0.219 -0.077,-0.406 -0.233,-0.561c-0.155,-0.156 -0.342,-0.233 -0.561,-0.233l-3.4,0c-0.219,0 -0.403,0.074 -0.553,0.224c-0.149,0.15 -0.224,0.34 -0.224,0.57l0,1.968c0,0.23 0.077,0.428 0.233,0.595c0.155,0.167 0.336,0.251 0.544,0.251Z" style="fill:#fff;fill-rule:nonzero;"/>
            <path d="M0.969,209.929l-2.417,0l0,-1.467l4.23,0l0,2.503c0,0.46 -0.196,0.857 -0.587,1.191c-0.391,0.334 -0.863,0.501 -1.416,0.501l-4.264,0c-0.506,0 -0.935,-0.164 -1.286,-0.492c-0.351,-0.328 -0.526,-0.728 -0.526,-1.2l0,-3.919c0,-0.472 0.175,-0.871 0.526,-1.199c0.351,-0.328 0.78,-0.492 1.286,-0.492l4.264,0c0.564,0 1.039,0.164 1.425,0.492c0.385,0.328 0.578,0.727 0.578,1.199l0,0.674l-1.813,0c0,-0.185 -0.06,-0.343 -0.181,-0.475c-0.121,-0.133 -0.268,-0.199 -0.44,-0.199l-2.797,0c-0.287,0 -0.532,0.09 -0.733,0.268c-0.202,0.178 -0.303,0.394 -0.303,0.647l0,1.968c0,0.288 0.101,0.533 0.303,0.734c0.201,0.201 0.446,0.302 0.733,0.302l2.762,0c0.173,0 0.325,-0.104 0.458,-0.311c0.132,-0.207 0.198,-0.449 0.198,-0.725Z" style="fill:#fff;fill-rule:nonzero;"/>
            <path d="M10.516,210.326l1.812,0.052c0,0.23 0.049,0.423 0.147,0.578c0.098,0.156 0.222,0.233 0.371,0.233l2.486,0c0.242,0 0.452,-0.071 0.63,-0.215c0.179,-0.144 0.268,-0.308 0.268,-0.492c0,-0.173 -0.064,-0.323 -0.19,-0.449c-0.127,-0.127 -0.276,-0.19 -0.449,-0.19l-3.263,-0.138c-0.621,0 -1.079,-0.164 -1.372,-0.492c-0.294,-0.328 -0.44,-0.751 -0.44,-1.269l0,-1.122c0,-0.414 0.175,-0.763 0.526,-1.045c0.351,-0.281 0.78,-0.422 1.286,-0.422l4.092,0c0.391,0 0.725,0.143 1.001,0.431c0.276,0.288 0.414,0.633 0.414,1.036l0,0.69l-1.812,0c0,-0.46 -0.242,-0.69 -0.725,-0.69l-2.486,0c-0.138,0 -0.253,0.057 -0.346,0.173c-0.092,0.115 -0.138,0.258 -0.138,0.431c0,0.23 0.018,0.391 0.052,0.483c0.035,0.093 0.144,0.139 0.328,0.139l3.522,0.12c0.552,0 0.992,0.153 1.32,0.458c0.328,0.305 0.492,0.849 0.492,1.631c0,0.944 -0.184,1.58 -0.552,1.908c-0.368,0.328 -0.932,0.492 -1.692,0.492l-3.47,0c-0.495,0 -0.92,-0.144 -1.277,-0.432c-0.357,-0.288 -0.535,-0.633 -0.535,-1.036l0,-0.863Z" style="fill:#fff;fill-rule:nonzero;"/>
            <path d="M23.791,212.657l-2.054,0l0,-5.334l-2.814,0l0,-1.968l7.665,0l0,1.968l-2.797,0l0,5.334Z" style="fill:#fff;fill-rule:nonzero;"/>
            <path d="M34.287,208.237l0,1.468l-4.782,0l0,1.26l5.075,0l0,1.692l-6.888,0l0,-7.302l6.888,0l0,1.691l-5.075,0l0,1.191l4.782,0Z" style="fill:#fff;fill-rule:nonzero;"/>
            <path d="M37.308,212.657l-1.813,0l0,-7.302l5.904,0c0.495,0 0.921,0.178 1.278,0.535c0.356,0.356 0.535,0.794 0.535,1.312l0,1.243c0,0.299 -0.078,0.549 -0.233,0.751c-0.156,0.201 -0.371,0.417 -0.648,0.647c0.392,0.057 0.636,0.311 0.734,0.759c0.098,0.449 0.147,1.14 0.147,2.072l-1.813,0c0,-0.656 -0.049,-1.128 -0.147,-1.416c-0.097,-0.287 -0.238,-0.431 -0.423,-0.431l-3.521,0l0,1.83Zm0,-5.455l0,1.778l3.28,0c0.218,0 0.408,-0.092 0.569,-0.276c0.162,-0.185 0.242,-0.415 0.242,-0.691c0,-0.219 -0.08,-0.409 -0.242,-0.57c-0.161,-0.161 -0.351,-0.241 -0.569,-0.241l-3.28,0Z" style="fill:#fff;fill-rule:nonzero;"/>
            <path d="M51.032,208.237l0,1.468l-4.782,0l0,1.26l5.075,0l0,1.692l-6.888,0l0,-7.302l6.888,0l0,1.691l-5.075,0l0,1.191l4.782,0Z" style="fill:#fff;fill-rule:nonzero;"/>
            <path d="M52.154,210.81l0,-3.608c0,-0.518 0.173,-0.956 0.518,-1.312c0.345,-0.357 0.777,-0.535 1.295,-0.535l4.971,0c0.507,0 0.935,0.181 1.286,0.543c0.351,0.363 0.527,0.797 0.527,1.304l0,3.573c0,0.518 -0.173,0.961 -0.518,1.329c-0.345,0.369 -0.777,0.553 -1.295,0.553l-4.971,0c-0.495,0 -0.921,-0.184 -1.278,-0.553c-0.357,-0.368 -0.535,-0.799 -0.535,-1.294Zm2.589,0l3.401,0c0.219,0 0.406,-0.084 0.561,-0.251c0.156,-0.167 0.233,-0.365 0.233,-0.595l0,-1.968c0,-0.219 -0.077,-0.406 -0.233,-0.561c-0.155,-0.156 -0.342,-0.233 -0.561,-0.233l-3.401,0c-0.218,0 -0.402,0.074 -0.552,0.224c-0.15,0.15 -0.224,0.34 -0.224,0.57l0,1.968c0,0.23 0.077,0.428 0.233,0.595c0.155,0.167 0.336,0.251 0.543,0.251Z" style="fill:#fff;fill-rule:nonzero;"/>
            <path d="M76.995,207.996l0,1.968c0,0.736 -0.178,1.369 -0.535,1.899c-0.357,0.529 -0.782,0.794 -1.277,0.794l-6.577,0l0,-7.302l6.577,0c0.495,0 0.92,0.258 1.277,0.776c0.357,0.518 0.535,1.14 0.535,1.865Zm-1.812,1.933l0,-1.933c0,-0.207 -0.087,-0.392 -0.259,-0.553c-0.173,-0.161 -0.38,-0.241 -0.622,-0.241l-3.884,0l0,3.608l3.85,0c0.242,0 0.454,-0.087 0.639,-0.259c0.184,-0.173 0.276,-0.38 0.276,-0.622Z" style="fill:#fff;fill-rule:nonzero;"/>
            <path d="M84.729,208.237l0,1.468l-4.782,0l0,1.26l5.076,0l0,1.692l-6.888,0l0,-7.302l6.888,0l0,1.691l-5.076,0l0,1.191l4.782,0Z" style="fill:#fff;fill-rule:nonzero;"/>
            <path d="M85.886,212.657l0,-7.302l1.812,0l0,5.61l4.713,0l0,1.692l-6.525,0Z" style="fill:#fff;fill-rule:nonzero;"/>
            <path d="M93.343,212.657l3.298,-7.302l2.848,0l3.263,7.302l-2.003,0l-0.621,-1.381l-4.143,0l-0.622,1.381l-2.02,0Zm6.129,-2.849l-1.416,-3.141l-1.415,3.141l2.831,0Z" style="fill:#fff;fill-rule:nonzero;"/>
            <path d="M106.947,212.657l0,-2.365l-3.712,-4.903l2.348,0l2.261,3.004l2.279,-3.004l2.348,0l-3.712,4.903l0,2.365l-1.812,0Z" style="fill:#fff;fill-rule:nonzero;"/>
            <path d="M126.747,208.237l0,1.468l-4.782,0l0,1.26l5.076,0l0,1.692l-6.888,0l0,-7.302l6.888,0l0,1.691l-5.076,0l0,1.191l4.782,0Z" style="fill:#fff;fill-rule:nonzero;"/>
            <path d="M134.602,208.237l0,1.468l-4.782,0l0,2.952l-1.813,0l0,-7.302l6.888,0l0,1.691l-5.075,0l0,1.191l4.782,0Z" style="fill:#fff;fill-rule:nonzero;"/>
            <path d="M142.577,208.237l0,1.468l-4.781,0l0,2.952l-1.813,0l0,-7.302l6.888,0l0,1.691l-5.075,0l0,1.191l4.781,0Z" style="fill:#fff;fill-rule:nonzero;"/>
            <path d="M150.553,208.237l0,1.468l-4.782,0l0,1.26l5.075,0l0,1.692l-6.888,0l0,-7.302l6.888,0l0,1.691l-5.075,0l0,1.191l4.782,0Z" style="fill:#fff;fill-rule:nonzero;"/>
            <path d="M158.597,209.929l1.813,0l0,1.036c0,0.46 -0.178,0.857 -0.535,1.191c-0.357,0.334 -0.783,0.501 -1.278,0.501l-4.971,0c-0.507,0 -0.935,-0.164 -1.286,-0.492c-0.351,-0.328 -0.527,-0.728 -0.527,-1.2l0,-3.919c0,-0.472 0.176,-0.871 0.527,-1.199c0.351,-0.328 0.779,-0.492 1.286,-0.492l4.971,0c0.507,0 0.935,0.164 1.286,0.492c0.351,0.328 0.527,0.727 0.527,1.199l0,0.915l-1.813,0c0,-0.241 -0.103,-0.454 -0.31,-0.638c-0.207,-0.185 -0.449,-0.277 -0.725,-0.277l-2.901,0c-0.287,0 -0.532,0.09 -0.733,0.268c-0.202,0.178 -0.302,0.394 -0.302,0.647l0,1.968c0,0.288 0.1,0.533 0.302,0.734c0.201,0.201 0.446,0.302 0.733,0.302l2.901,0c0.287,0 0.532,-0.101 0.733,-0.302c0.202,-0.201 0.302,-0.446 0.302,-0.734Z" style="fill:#fff;fill-rule:nonzero;"/>
            <path d="M166.245,212.657l-2.054,0l0,-5.334l-2.814,0l0,-1.968l7.664,0l0,1.968l-2.796,0l0,5.334Z" style="fill:#fff;fill-rule:nonzero;"/>
            <path d="M170.043,210.326l1.812,0.052c0,0.23 0.049,0.423 0.147,0.578c0.098,0.156 0.222,0.233 0.371,0.233l2.486,0c0.242,0 0.452,-0.071 0.63,-0.215c0.179,-0.144 0.268,-0.308 0.268,-0.492c0,-0.173 -0.064,-0.323 -0.19,-0.449c-0.127,-0.127 -0.276,-0.19 -0.449,-0.19l-3.263,-0.138c-0.621,0 -1.079,-0.164 -1.372,-0.492c-0.294,-0.328 -0.44,-0.751 -0.44,-1.269l0,-1.122c0,-0.414 0.175,-0.763 0.526,-1.045c0.351,-0.281 0.78,-0.422 1.286,-0.422l4.092,0c0.391,0 0.725,0.143 1.001,0.431c0.276,0.288 0.414,0.633 0.414,1.036l0,0.69l-1.812,0c0,-0.46 -0.242,-0.69 -0.725,-0.69l-2.486,0c-0.138,0 -0.253,0.057 -0.346,0.173c-0.092,0.115 -0.138,0.258 -0.138,0.431c0,0.23 0.018,0.391 0.052,0.483c0.035,0.093 0.144,0.139 0.328,0.139l3.522,0.12c0.552,0 0.992,0.153 1.32,0.458c0.328,0.305 0.492,0.849 0.492,1.631c0,0.944 -0.184,1.58 -0.552,1.908c-0.368,0.328 -0.932,0.492 -1.692,0.492l-3.47,0c-0.495,0 -0.92,-0.144 -1.277,-0.432c-0.357,-0.288 -0.535,-0.633 -0.535,-1.036l0,-0.863Z" style="fill:#fff;fill-rule:nonzero;"/>
            <path d="M185.32,212.657l0,-7.302l5.835,0c0.564,0 1.007,0.204 1.33,0.612c0.322,0.409 0.483,1.143 0.483,2.201c0,1.082 -0.158,1.813 -0.475,2.193c-0.316,0.38 -0.762,0.569 -1.338,0.569l-4.022,0l0,1.727l-1.813,0Zm1.813,-5.455l0,1.881l3.297,0c0.207,0 0.38,-0.086 0.518,-0.259c0.138,-0.172 0.207,-0.391 0.207,-0.656c0,-0.264 -0.074,-0.492 -0.224,-0.681c-0.15,-0.19 -0.328,-0.285 -0.535,-0.285l-3.263,0Z" style="fill:#fff;fill-rule:nonzero;"/>
            <path d="M195.713,212.657l-1.813,0l0,-7.302l5.904,0c0.495,0 0.921,0.178 1.278,0.535c0.356,0.356 0.535,0.794 0.535,1.312l0,1.243c0,0.299 -0.078,0.549 -0.233,0.751c-0.156,0.201 -0.372,0.417 -0.648,0.647c0.392,0.057 0.636,0.311 0.734,0.759c0.098,0.449 0.147,1.14 0.147,2.072l-1.813,0c0,-0.656 -0.049,-1.128 -0.147,-1.416c-0.097,-0.287 -0.238,-0.431 -0.423,-0.431l-3.521,0l0,1.83Zm0,-5.455l0,1.778l3.28,0c0.218,0 0.408,-0.092 0.569,-0.276c0.162,-0.185 0.242,-0.415 0.242,-0.691c0,-0.219 -0.08,-0.409 -0.242,-0.57c-0.161,-0.161 -0.351,-0.241 -0.569,-0.241l-3.28,0Z" style="fill:#fff;fill-rule:nonzero;"/>
            <path d="M202.704,210.81l0,-3.608c0,-0.518 0.173,-0.956 0.518,-1.312c0.345,-0.357 0.777,-0.535 1.295,-0.535l4.972,0c0.506,0 0.935,0.181 1.286,0.543c0.351,0.363 0.526,0.797 0.526,1.304l0,3.573c0,0.518 -0.172,0.961 -0.518,1.329c-0.345,0.369 -0.777,0.553 -1.294,0.553l-4.972,0c-0.495,0 -0.921,-0.184 -1.278,-0.553c-0.356,-0.368 -0.535,-0.799 -0.535,-1.294Zm2.59,0l3.401,0c0.218,0 0.405,-0.084 0.561,-0.251c0.155,-0.167 0.233,-0.365 0.233,-0.595l0,-1.968c0,-0.219 -0.078,-0.406 -0.233,-0.561c-0.156,-0.156 -0.343,-0.233 -0.561,-0.233l-3.401,0c-0.219,0 -0.403,0.074 -0.553,0.224c-0.149,0.15 -0.224,0.34 -0.224,0.57l0,1.968c0,0.23 0.078,0.428 0.233,0.595c0.155,0.167 0.337,0.251 0.544,0.251Z" style="fill:#fff;fill-rule:nonzero;"/>
            <path d="M219.121,209.929l1.813,0l0,1.036c0,0.46 -0.178,0.857 -0.535,1.191c-0.357,0.334 -0.783,0.501 -1.278,0.501l-4.971,0c-0.507,0 -0.935,-0.164 -1.286,-0.492c-0.352,-0.328 -0.527,-0.728 -0.527,-1.2l0,-3.919c0,-0.472 0.175,-0.871 0.527,-1.199c0.351,-0.328 0.779,-0.492 1.286,-0.492l4.971,0c0.507,0 0.935,0.164 1.286,0.492c0.351,0.328 0.527,0.727 0.527,1.199l0,0.915l-1.813,0c0,-0.241 -0.103,-0.454 -0.31,-0.638c-0.208,-0.185 -0.449,-0.277 -0.725,-0.277l-2.901,0c-0.287,0 -0.532,0.09 -0.733,0.268c-0.202,0.178 -0.302,0.394 -0.302,0.647l0,1.968c0,0.288 0.1,0.533 0.302,0.734c0.201,0.201 0.446,0.302 0.733,0.302l2.901,0c0.287,0 0.532,-0.101 0.733,-0.302c0.202,-0.201 0.302,-0.446 0.302,-0.734Z" style="fill:#fff;fill-rule:nonzero;"/>
            <path d="M228.685,208.237l0,1.468l-4.782,0l0,1.26l5.075,0l0,1.692l-6.887,0l0,-7.302l6.887,0l0,1.691l-5.075,0l0,1.191l4.782,0Z" style="fill:#fff;fill-rule:nonzero;"/>
            <path d="M229.842,210.326l1.812,0.052c0,0.23 0.049,0.423 0.147,0.578c0.098,0.156 0.222,0.233 0.371,0.233l2.486,0c0.242,0 0.452,-0.071 0.63,-0.215c0.178,-0.144 0.268,-0.308 0.268,-0.492c0,-0.173 -0.064,-0.323 -0.19,-0.449c-0.127,-0.127 -0.276,-0.19 -0.449,-0.19l-3.263,-0.138c-0.621,0 -1.079,-0.164 -1.372,-0.492c-0.294,-0.328 -0.44,-0.751 -0.44,-1.269l0,-1.122c0,-0.414 0.175,-0.763 0.526,-1.045c0.351,-0.281 0.78,-0.422 1.286,-0.422l4.092,0c0.391,0 0.725,0.143 1.001,0.431c0.276,0.288 0.414,0.633 0.414,1.036l0,0.69l-1.812,0c0,-0.46 -0.242,-0.69 -0.726,-0.69l-2.485,0c-0.138,0 -0.254,0.057 -0.346,0.173c-0.092,0.115 -0.138,0.258 -0.138,0.431c0,0.23 0.018,0.391 0.052,0.483c0.035,0.093 0.144,0.139 0.328,0.139l3.522,0.12c0.552,0 0.992,0.153 1.32,0.458c0.328,0.305 0.492,0.849 0.492,1.631c0,0.944 -0.184,1.58 -0.552,1.908c-0.368,0.328 -0.932,0.492 -1.692,0.492l-3.47,0c-0.495,0 -0.92,-0.144 -1.277,-0.432c-0.357,-0.288 -0.535,-0.633 -0.535,-1.036l0,-0.863Z" style="fill:#fff;fill-rule:nonzero;"/>
            <path d="M238.335,210.326l1.813,0.052c0,0.23 0.049,0.423 0.146,0.578c0.098,0.156 0.222,0.233 0.372,0.233l2.485,0c0.242,0 0.452,-0.071 0.63,-0.215c0.179,-0.144 0.268,-0.308 0.268,-0.492c0,-0.173 -0.063,-0.323 -0.19,-0.449c-0.126,-0.127 -0.276,-0.19 -0.449,-0.19l-3.262,-0.138c-0.622,0 -1.079,-0.164 -1.373,-0.492c-0.293,-0.328 -0.44,-0.751 -0.44,-1.269l0,-1.122c0,-0.414 0.176,-0.763 0.527,-1.045c0.351,-0.281 0.779,-0.422 1.286,-0.422l4.091,0c0.391,0 0.725,0.143 1.001,0.431c0.276,0.288 0.415,0.633 0.415,1.036l0,0.69l-1.813,0c0,-0.46 -0.242,-0.69 -0.725,-0.69l-2.486,0c-0.138,0 -0.253,0.057 -0.345,0.173c-0.092,0.115 -0.138,0.258 -0.138,0.431c0,0.23 0.017,0.391 0.051,0.483c0.035,0.093 0.144,0.139 0.328,0.139l3.522,0.12c0.552,0 0.993,0.153 1.321,0.458c0.328,0.305 0.492,0.849 0.492,1.631c0,0.944 -0.184,1.58 -0.553,1.908c-0.368,0.328 -0.932,0.492 -1.692,0.492l-3.469,0c-0.495,0 -0.921,-0.144 -1.278,-0.432c-0.357,-0.288 -0.535,-0.633 -0.535,-1.036l0,-0.863Z" style="fill:#fff;fill-rule:nonzero;"/>
            <path d="M246.794,210.81l0,-3.608c0,-0.518 0.172,-0.956 0.518,-1.312c0.345,-0.357 0.777,-0.535 1.294,-0.535l4.972,0c0.507,0 0.935,0.181 1.286,0.543c0.351,0.363 0.527,0.797 0.527,1.304l0,3.573c0,0.518 -0.173,0.961 -0.518,1.329c-0.345,0.369 -0.777,0.553 -1.295,0.553l-4.972,0c-0.494,0 -0.92,-0.184 -1.277,-0.553c-0.357,-0.368 -0.535,-0.799 -0.535,-1.294Zm2.589,0l3.401,0c0.219,0 0.406,-0.084 0.561,-0.251c0.156,-0.167 0.233,-0.365 0.233,-0.595l0,-1.968c0,-0.219 -0.077,-0.406 -0.233,-0.561c-0.155,-0.156 -0.342,-0.233 -0.561,-0.233l-3.401,0c-0.218,0 -0.402,0.074 -0.552,0.224c-0.15,0.15 -0.225,0.34 -0.225,0.57l0,1.968c0,0.23 0.078,0.428 0.234,0.595c0.155,0.167 0.336,0.251 0.543,0.251Z" style="fill:#fff;fill-rule:nonzero;"/>
            <path d="M258.187,212.657l-1.812,0l0,-7.302l5.904,0c0.495,0 0.92,0.178 1.277,0.535c0.357,0.356 0.535,0.794 0.535,1.312l0,1.243c0,0.299 -0.077,0.549 -0.233,0.751c-0.155,0.201 -0.371,0.417 -0.647,0.647c0.391,0.057 0.636,0.311 0.734,0.759c0.097,0.449 0.146,1.14 0.146,2.072l-1.812,0c0,-0.656 -0.049,-1.128 -0.147,-1.416c-0.098,-0.287 -0.239,-0.431 -0.423,-0.431l-3.522,0l0,1.83Zm0,-5.455l0,1.778l3.28,0c0.219,0 0.409,-0.092 0.57,-0.276c0.161,-0.185 0.242,-0.415 0.242,-0.691c0,-0.219 -0.081,-0.409 -0.242,-0.57c-0.161,-0.161 -0.351,-0.241 -0.57,-0.241l-3.28,0Z" style="fill:#fff;fill-rule:nonzero;"/>
        </g>
        <g transform="matrix(0.843351,0,0,0.843351,165.193,-64.4498)">
            <path d="M131.815,104.693l0,-23.438l23.437,0l0,4.688l-18.75,0l0,4.687l14.063,0l0,4.688l-14.063,0l0,4.687l18.75,0l0,4.688l-23.437,0Z" style="fill:#fff4ee;fill-rule:nonzero;"/>
            <path d="M162.284,104.693c-1.319,0 -2.43,-0.452 -3.333,-1.355c-0.903,-0.928 -1.355,-2.039 -1.355,-3.333l0,-14.062c0,-1.294 0.452,-2.393 1.355,-3.296c0.928,-0.928 2.039,-1.392 3.333,-1.392l14.062,0c1.294,0 2.393,0.464 3.296,1.392c0.928,0.928 1.392,2.026 1.392,3.296l0,2.343l-4.688,0c0,-0.634 -0.232,-1.184 -0.696,-1.647c-0.464,-0.464 -1.013,-0.696 -1.648,-0.696l-9.375,0c-0.659,0 -1.22,0.232 -1.684,0.696c-0.44,0.463 -0.659,1.013 -0.659,1.647l0,9.375c0,0.66 0.219,1.221 0.659,1.685c0.464,0.439 1.025,0.659 1.684,0.659l9.375,0c0.635,0 1.184,-0.22 1.648,-0.659c0.464,-0.464 0.696,-1.025 0.696,-1.685l4.688,0l0,2.344c0,1.319 -0.464,2.429 -1.392,3.333c-0.928,0.903 -2.026,1.355 -3.296,1.355l-14.062,0Z" style="fill:#fff4ee;fill-rule:nonzero;"/>
            <path d="M183.377,104.693l0,-23.438l4.688,0l0,9.375l14.062,0l0,-9.375l4.688,0l0,23.438l-4.688,0l0,-9.375l-14.062,0l0,9.375l-4.688,0Z" style="fill:#fff4ee;fill-rule:nonzero;"/>
            <path d="M225.565,100.005c0.635,0 1.184,-0.22 1.648,-0.659c0.464,-0.464 0.696,-1.025 0.696,-1.685l0,-9.375c0,-0.634 -0.232,-1.184 -0.696,-1.647c-0.464,-0.464 -1.013,-0.696 -1.648,-0.696l-9.375,0c-0.659,0 -1.221,0.232 -1.685,0.696c-0.439,0.463 -0.659,1.013 -0.659,1.647l0,9.375c0,0.66 0.22,1.221 0.659,1.685c0.464,0.439 1.026,0.659 1.685,0.659l9.375,0Zm-11.719,4.688c-1.318,0 -2.429,-0.452 -3.332,-1.355c-0.904,-0.928 -1.355,-2.039 -1.355,-3.333l0,-14.062c0,-1.294 0.451,-2.393 1.355,-3.296c0.927,-0.928 2.038,-1.392 3.332,-1.392l14.063,0c1.294,0 2.392,0.464 3.296,1.392c0.927,0.928 1.391,2.026 1.391,3.296l0,14.062c0,1.319 -0.464,2.429 -1.391,3.333c-0.928,0.903 -2.027,1.355 -3.296,1.355l-14.063,0Z" style="fill:#fff4ee;fill-rule:nonzero;"/>
            <path d="M251.346,100.005c0.635,0 1.184,-0.22 1.648,-0.659c0.464,-0.464 0.696,-1.025 0.696,-1.685c0,-0.634 -0.232,-1.184 -0.696,-1.647c-0.464,-0.464 -1.013,-0.696 -1.648,-0.696l-11.719,0l0,4.687l11.719,0Zm0,-9.375c0.635,0 1.184,-0.22 1.648,-0.659c0.464,-0.464 0.696,-1.025 0.696,-1.685c0,-0.634 -0.232,-1.184 -0.696,-1.647c-0.464,-0.464 -1.013,-0.696 -1.648,-0.696l-11.719,0l0,4.687l11.719,0Zm-16.406,14.063l0,-23.438l18.75,0c1.294,0 2.392,0.464 3.296,1.392c0.928,0.928 1.391,2.026 1.391,3.296l0,4.687c0,0.879 -0.207,1.673 -0.622,2.381c0.415,0.683 0.622,1.452 0.622,2.307l0,4.687c0,1.319 -0.463,2.429 -1.391,3.333c-0.928,0.903 -2.027,1.355 -3.296,1.355l-18.75,0Z" style="fill:#fff4ee;fill-rule:nonzero;"/>
            <path d="M277.127,100.005c0.635,0 1.184,-0.22 1.648,-0.659c0.464,-0.464 0.696,-1.025 0.696,-1.685l0,-9.375c0,-0.634 -0.232,-1.184 -0.696,-1.647c-0.464,-0.464 -1.013,-0.696 -1.648,-0.696l-9.375,0c-0.659,0 -1.22,0.232 -1.684,0.696c-0.44,0.463 -0.659,1.013 -0.659,1.647l0,9.375c0,0.66 0.219,1.221 0.659,1.685c0.464,0.439 1.025,0.659 1.684,0.659l9.375,0Zm-11.718,4.688c-1.319,0 -2.43,-0.452 -3.333,-1.355c-0.903,-0.928 -1.355,-2.039 -1.355,-3.333l0,-14.062c0,-1.294 0.452,-2.393 1.355,-3.296c0.928,-0.928 2.039,-1.392 3.333,-1.392l14.062,0c1.294,0 2.393,0.464 3.296,1.392c0.928,0.928 1.392,2.026 1.392,3.296l0,14.062c0,1.319 -0.464,2.429 -1.392,3.333c-0.928,0.903 -2.026,1.355 -3.296,1.355l-14.062,0Z" style="fill:#fff4ee;fill-rule:nonzero;"/>
            <path d="M284.159,104.693l11.718,-11.719l-11.718,-11.719l7.031,0l8.203,8.203l8.203,-8.203l7.031,0l-11.718,11.719l11.718,11.719l-7.031,0l-8.203,-8.203l-8.203,8.203l-7.031,0Z" style="fill:#fff4ee;fill-rule:nonzero;"/>
        </g>
    </g>
    <defs>
        <linearGradient id="_Linear1" x1="0" y1="0" x2="1" y2="0" gradientUnits="userSpaceOnUse" gradientTransform="matrix(380,0,0,190,380,190)"><stop offset="0" style="stop-color:#fff;stop-opacity:0.180392"/><stop offset="1" style="stop-color:#000;stop-opacity:0.180392"/></linearGradient>
    </defs>
</svg>
