<?xml version="1.0" encoding="UTF-8" standalone="no"?>
<!DOCTYPE svg PUBLIC "-//W3C//DTD SVG 1.1//EN" "http://www.w3.org/Graphics/SVG/1.1/DTD/svg11.dtd">
<svg xmlns:xlink="http://www.w3.org/1999/xlink"
     xmlns:serif="http://www.serif.com/"
     width="180px"
     height="380px"
     version="1.1"
     xmlns="http://www.w3.org/2000/svg"
     xml:space="preserve"
     style="fill-rule:evenodd;clip-rule:evenodd;stroke-linejoin:round;stroke-miterlimit:1.41421;">
    <g id="Background"
       transform="matrix(1,0,0,1,0,-196.458)">
        <rect x="-0.01"
              y="196.458"
              width="180"
              height="380"
              style="fill:#fff;stroke:#fff;stroke-width:1px;"/>
    </g>
    <g id="Controls">
        <g>
            <path d="M124.132,209.653c0,0.256 -0.056,0.487 -0.168,0.692c-0.112,0.205 -0.268,0.38 -0.468,0.523c-0.2,0.145 -0.436,0.255 -0.708,0.332c-0.272,0.078 -0.565,0.116 -0.88,0.116l-0.368,0l0,2.104l-0.735,0l0,-5.328l1.287,0c0.288,0 0.557,0.031 0.805,0.096c0.248,0.065 0.463,0.161 0.647,0.292c0.184,0.131 0.328,0.294 0.433,0.487c0.103,0.197 0.155,0.426 0.155,0.686Zm-0.736,-0.007c0,-0.177 -0.035,-0.324 -0.104,-0.444c-0.069,-0.119 -0.164,-0.219 -0.284,-0.296c-0.119,-0.077 -0.262,-0.134 -0.424,-0.168c-0.162,-0.034 -0.334,-0.052 -0.516,-0.052l-0.528,0l0,2.04l0.392,0c0.214,0 0.41,-0.024 0.588,-0.072c0.18,-0.048 0.334,-0.118 0.465,-0.212c0.131,-0.094 0.231,-0.207 0.304,-0.34c0.07,-0.133 0.107,-0.286 0.107,-0.456Z"
                  style="fill-rule:nonzero;stroke:#000;stroke-width:0.6px;stroke-linejoin:miter;stroke-miterlimit:10;"/>
            <path d="M125.268,208.094l2.969,0l0,0.6l-2.232,0l0,1.704l2.137,0l0,0.601l-2.137,0l0,1.823l2.256,0l0,0.601l-2.992,0l0,-5.329l-0.001,0Z"
                  style="fill-rule:nonzero;stroke:#000;stroke-width:0.6px;stroke-linejoin:miter;stroke-miterlimit:10;"/>
            <path d="M134.292,213.422l-0.752,0l-0.488,-1.289l-2.487,0l-0.48,1.289l-0.752,0l2.12,-5.328l0.72,0l2.119,5.328Zm-3.504,-1.881l2.048,0l-1.023,-2.775l-1.025,2.775Z"
                  style="fill-rule:nonzero;stroke:#000;stroke-width:0.6px;stroke-linejoin:miter;stroke-miterlimit:10;"/>
            <path d="M135.557,213.422l0,-5.328l0.735,0l0,2.584l2.224,-2.584l0.889,0l-2.297,2.64l2.448,2.688l-0.928,0l-2.336,-2.641l0,2.641l-0.735,0Z"
                  style="fill-rule:nonzero;stroke:#000;stroke-width:0.6px;stroke-linejoin:miter;stroke-miterlimit:10;"/>
        </g>
        <g>
            <path d="M122.997,278.332c0.298,0 0.584,0.025 0.856,0.075c0.271,0.051 0.517,0.13 0.735,0.236l-0.12,0.584c-0.229,-0.091 -0.468,-0.163 -0.716,-0.216c-0.248,-0.054 -0.497,-0.08 -0.748,-0.08c-0.661,0 -1.181,0.193 -1.56,0.578c-0.379,0.387 -0.568,0.934 -0.568,1.642c0,0.681 0.179,1.204 0.536,1.569c0.356,0.364 0.894,0.547 1.608,0.547c0.17,0 0.342,-0.012 0.516,-0.036c0.173,-0.024 0.32,-0.055 0.443,-0.093l0,-1.735l0.672,0l0,2.147c-0.202,0.087 -0.461,0.158 -0.775,0.215c-0.314,0.057 -0.629,0.086 -0.943,0.086c-0.438,0 -0.83,-0.065 -1.177,-0.196c-0.347,-0.13 -0.64,-0.314 -0.88,-0.552c-0.24,-0.238 -0.423,-0.521 -0.548,-0.852c-0.126,-0.331 -0.188,-0.697 -0.188,-1.097c0,-0.416 0.065,-0.798 0.196,-1.144c0.13,-0.348 0.318,-0.645 0.563,-0.893c0.246,-0.248 0.545,-0.441 0.896,-0.58c0.351,-0.139 0.754,-0.205 1.202,-0.205Z"
                  style="fill-rule:nonzero;stroke:#000;stroke-width:0.6px;stroke-linejoin:miter;stroke-miterlimit:10;"/>
            <path d="M130.797,283.756l-0.752,0l-0.488,-1.289l-2.488,0l-0.479,1.289l-0.752,0l2.12,-5.328l0.72,0l2.119,5.328Zm-3.504,-1.881l2.048,0l-1.024,-2.775l-1.024,2.775Z"
                  style="fill-rule:nonzero;stroke:#000;stroke-width:0.6px;stroke-linejoin:miter;stroke-miterlimit:10;"/>
            <rect x="132.102"
                  y="278.428"
                  width="0.735"
                  height="5.328"
                  style="stroke:#000;stroke-width:0.6px;stroke-linejoin:miter;stroke-miterlimit:10;"/>
            <path d="M138.245,283.756l-2.983,-4.185l0,4.185l-0.705,0l0,-5.328l0.705,0l2.983,4.184l0,-4.184l0.704,0l0,5.328l-0.704,0Z"
                  style="fill-rule:nonzero;stroke:#000;stroke-width:0.6px;stroke-linejoin:miter;stroke-miterlimit:10;"/>
        </g>
        <g>
            <path d="M107.51,137.422l0,-5.328l3,0l0,0.6l-2.264,0l0,1.824l2.168,0l0,0.6l-2.168,0l0,2.305l-0.736,0l0,-0.001Z"
                  style="fill-rule:nonzero;stroke:#000;stroke-width:0.6px;stroke-linejoin:miter;stroke-miterlimit:10;"/>
            <path d="M112.605,137.422l-0.735,0l0,-5.328l1.384,0c0.288,0 0.557,0.031 0.805,0.096c0.248,0.065 0.465,0.158 0.651,0.283c0.187,0.126 0.333,0.283 0.44,0.473c0.106,0.189 0.16,0.406 0.16,0.652c0,0.367 -0.119,0.688 -0.356,0.96c-0.237,0.272 -0.569,0.47 -0.996,0.592l1.88,2.272l-0.904,0l-1.736,-2.145c-0.025,0 -0.066,0.002 -0.119,0.004c-0.054,0.003 -0.109,0.004 -0.168,0.004l-0.305,0l0,2.137l-0.001,0Zm1.969,-3.809c0,-0.165 -0.036,-0.309 -0.108,-0.428c-0.071,-0.12 -0.169,-0.217 -0.292,-0.288c-0.123,-0.072 -0.264,-0.126 -0.424,-0.16c-0.16,-0.034 -0.328,-0.052 -0.504,-0.052l-0.641,0l0,2.008l0.369,0c0.223,0 0.433,-0.021 0.627,-0.064c0.195,-0.042 0.364,-0.107 0.508,-0.195c0.145,-0.088 0.258,-0.2 0.341,-0.336c0.083,-0.137 0.124,-0.297 0.124,-0.485Z"
                  style="fill-rule:nonzero;stroke:#000;stroke-width:0.6px;stroke-linejoin:miter;stroke-miterlimit:10;"/>
            <path d="M116.942,132.094l2.968,0l0,0.6l-2.232,0l0,1.704l2.137,0l0,0.601l-2.137,0l0,1.823l2.256,0l0,0.601l-2.991,0l0,-5.329l-0.001,0Z"
                  style="fill-rule:nonzero;stroke:#000;stroke-width:0.6px;stroke-linejoin:miter;stroke-miterlimit:10;"/>
            <path d="M123.742,137.518c-0.416,0 -0.787,-0.074 -1.111,-0.225c-0.326,-0.148 -0.598,-0.349 -0.816,-0.6c-0.219,-0.25 -0.386,-0.544 -0.5,-0.88c-0.115,-0.336 -0.172,-0.688 -0.172,-1.056c0,-0.369 0.057,-0.721 0.172,-1.057c0.114,-0.336 0.281,-0.629 0.5,-0.88c0.219,-0.251 0.49,-0.45 0.816,-0.601c0.324,-0.148 0.695,-0.223 1.111,-0.223c0.416,0 0.786,0.074 1.112,0.223c0.325,0.15 0.597,0.35 0.815,0.601c0.218,0.251 0.386,0.544 0.5,0.88c0.115,0.336 0.172,0.688 0.172,1.057c0,0.266 -0.029,0.525 -0.088,0.775c-0.059,0.251 -0.146,0.484 -0.264,0.7c-0.118,0.216 -0.262,0.411 -0.432,0.584c-0.171,0.173 -0.368,0.315 -0.593,0.429l1.32,0.831l-0.344,0.544l-1.76,-1.136c-0.07,0.011 -0.142,0.019 -0.217,0.024c-0.071,0.007 -0.147,0.01 -0.221,0.01Zm0,-0.592c0.304,0 0.573,-0.057 0.808,-0.168c0.235,-0.112 0.43,-0.268 0.584,-0.465c0.155,-0.197 0.272,-0.428 0.353,-0.691c0.081,-0.263 0.12,-0.545 0.12,-0.844c0,-0.299 -0.04,-0.58 -0.12,-0.844c-0.08,-0.265 -0.197,-0.494 -0.353,-0.688c-0.154,-0.194 -0.349,-0.35 -0.584,-0.464c-0.234,-0.115 -0.504,-0.172 -0.808,-0.172c-0.305,0 -0.573,0.057 -0.809,0.172c-0.234,0.114 -0.429,0.27 -0.584,0.464c-0.154,0.194 -0.271,0.424 -0.352,0.688c-0.08,0.264 -0.119,0.545 -0.119,0.844c0,0.299 0.039,0.58 0.119,0.844c0.08,0.264 0.197,0.494 0.352,0.691c0.155,0.197 0.35,0.353 0.584,0.465c0.236,0.111 0.505,0.168 0.809,0.168Z"
                  style="fill-rule:nonzero;stroke:#000;stroke-width:0.6px;stroke-linejoin:miter;stroke-miterlimit:10;"/>
            <path d="M131.149,132.094l0.736,0l0,3.439c0,0.277 -0.046,0.537 -0.136,0.78c-0.091,0.243 -0.225,0.453 -0.4,0.632c-0.175,0.179 -0.394,0.318 -0.652,0.42c-0.258,0.102 -0.559,0.152 -0.899,0.152c-0.342,0 -0.642,-0.051 -0.9,-0.152c-0.258,-0.101 -0.476,-0.241 -0.652,-0.42c-0.176,-0.179 -0.309,-0.389 -0.399,-0.632c-0.09,-0.243 -0.136,-0.503 -0.136,-0.78l0,-3.439l0.735,0l0,3.472c0,0.399 0.113,0.726 0.34,0.976c0.227,0.251 0.564,0.377 1.013,0.377c0.447,0 0.785,-0.126 1.012,-0.377c0.227,-0.25 0.34,-0.576 0.34,-0.976l0,-3.472l-0.002,0Z"
                  style="fill-rule:nonzero;stroke:#000;stroke-width:0.6px;stroke-linejoin:miter;stroke-miterlimit:10;"/>
            <path d="M133.533,132.094l2.969,0l0,0.6l-2.232,0l0,1.704l2.136,0l0,0.601l-2.136,0l0,1.823l2.256,0l0,0.601l-2.992,0l0,-5.329l-0.001,0Z"
                  style="fill-rule:nonzero;stroke:#000;stroke-width:0.6px;stroke-linejoin:miter;stroke-miterlimit:10;"/>
            <path d="M141.702,137.422l-2.984,-4.185l0,4.185l-0.704,0l0,-5.328l0.704,0l2.984,4.184l0,-4.184l0.704,0l0,5.328l-0.704,0Z"
                  style="fill-rule:nonzero;stroke:#000;stroke-width:0.6px;stroke-linejoin:miter;stroke-miterlimit:10;"/>
            <path d="M146.559,131.998c0.239,0 0.49,0.021 0.752,0.067c0.261,0.046 0.479,0.105 0.655,0.181l-0.119,0.567c-0.182,-0.063 -0.376,-0.116 -0.584,-0.156c-0.208,-0.04 -0.414,-0.06 -0.616,-0.06c-0.667,0 -1.187,0.187 -1.561,0.56c-0.373,0.374 -0.56,0.907 -0.56,1.601c0,0.694 0.187,1.227 0.56,1.6c0.374,0.373 0.894,0.561 1.561,0.561c0.202,0 0.408,-0.021 0.616,-0.061c0.208,-0.04 0.402,-0.092 0.584,-0.156l0.119,0.568c-0.176,0.074 -0.395,0.135 -0.655,0.18c-0.262,0.045 -0.513,0.068 -0.752,0.068c-0.438,0 -0.828,-0.069 -1.172,-0.208c-0.345,-0.139 -0.634,-0.331 -0.868,-0.576c-0.235,-0.245 -0.415,-0.536 -0.54,-0.872c-0.126,-0.336 -0.188,-0.704 -0.188,-1.104c0,-0.4 0.062,-0.769 0.188,-1.104c0.125,-0.336 0.305,-0.626 0.54,-0.872c0.234,-0.245 0.523,-0.438 0.868,-0.576c0.343,-0.14 0.734,-0.208 1.172,-0.208Z"
                  style="fill-rule:nonzero;stroke:#000;stroke-width:0.6px;stroke-linejoin:miter;stroke-miterlimit:10;"/>
            <path d="M152.246,132.094l0.784,0l-1.752,3.224l0,2.104l-0.736,0l0,-2.104l-1.752,-3.224l0.784,0l1.336,2.543l1.336,-2.543Z"
                  style="fill-rule:nonzero;stroke:#000;stroke-width:0.6px;stroke-linejoin:miter;stroke-miterlimit:10;"/>
        </g>
        <path id="Arrow"
              d="M26.295,275.245l5.493,-4.254l5.492,4.254l-10.985,0Z"
              style="fill-rule:nonzero;stroke:#000;stroke-width:1px;"/>
        <path id="Arrow_1_"
              d="M26.507,206.018l5.493,-4.254l5.492,4.254l-10.985,0Z"
              style="fill-rule:nonzero;stroke:#000;stroke-width:1px;"/>
        <g transform="matrix(1,0,0,1,0,-1)">
            <path d="M59.229,119.799l0,-5.328l3,0l0,0.6l-2.265,0l0,1.824l2.168,0l0,0.6l-2.168,0l0,2.305l-0.735,0l0,-0.001Z"
                  style="fill-rule:nonzero;stroke:#000;stroke-width:0.6px;stroke-linejoin:miter;stroke-miterlimit:10;"/>
            <path d="M64.324,119.799l-0.736,0l0,-5.328l1.384,0c0.288,0 0.556,0.031 0.804,0.096c0.248,0.065 0.466,0.158 0.652,0.283c0.187,0.126 0.334,0.283 0.439,0.473c0.107,0.189 0.16,0.406 0.16,0.652c0,0.367 -0.118,0.688 -0.355,0.96c-0.237,0.272 -0.569,0.47 -0.996,0.592l1.88,2.272l-0.903,0l-1.736,-2.145c-0.027,0 -0.066,0.002 -0.12,0.004c-0.054,0.003 -0.109,0.004 -0.168,0.004l-0.304,0l0,2.137l-0.001,0Zm1.968,-3.809c0,-0.165 -0.036,-0.309 -0.108,-0.428c-0.072,-0.12 -0.17,-0.217 -0.292,-0.288c-0.122,-0.072 -0.264,-0.126 -0.424,-0.16c-0.16,-0.034 -0.328,-0.052 -0.504,-0.052l-0.64,0l0,2.008l0.367,0c0.225,0 0.434,-0.021 0.629,-0.064c0.193,-0.042 0.363,-0.107 0.508,-0.195c0.144,-0.088 0.257,-0.2 0.34,-0.336c0.082,-0.137 0.124,-0.297 0.124,-0.485Z"
                  style="fill-rule:nonzero;stroke:#000;stroke-width:0.6px;stroke-linejoin:miter;stroke-miterlimit:10;"/>
            <path d="M70.924,119.895c-0.416,0 -0.787,-0.074 -1.111,-0.225c-0.326,-0.148 -0.598,-0.349 -0.816,-0.6c-0.219,-0.25 -0.386,-0.544 -0.5,-0.88c-0.115,-0.336 -0.172,-0.688 -0.172,-1.056c0,-0.369 0.057,-0.721 0.172,-1.057c0.114,-0.336 0.281,-0.629 0.5,-0.88c0.219,-0.251 0.49,-0.45 0.816,-0.601c0.324,-0.148 0.695,-0.223 1.111,-0.223c0.416,0 0.787,0.074 1.111,0.223c0.326,0.15 0.598,0.35 0.816,0.601c0.218,0.251 0.386,0.544 0.5,0.88c0.115,0.336 0.172,0.688 0.172,1.057c0,0.266 -0.029,0.525 -0.088,0.775c-0.059,0.251 -0.146,0.484 -0.264,0.7c-0.118,0.216 -0.262,0.411 -0.432,0.584c-0.171,0.173 -0.368,0.315 -0.592,0.429l1.319,0.831l-0.344,0.544l-1.761,-1.136c-0.068,0.011 -0.141,0.019 -0.215,0.024c-0.073,0.007 -0.148,0.01 -0.222,0.01Zm0,-0.592c0.305,0 0.573,-0.057 0.809,-0.168c0.234,-0.112 0.429,-0.268 0.584,-0.465c0.154,-0.197 0.271,-0.428 0.352,-0.691c0.081,-0.263 0.12,-0.545 0.12,-0.844c0,-0.299 -0.04,-0.58 -0.12,-0.844c-0.08,-0.265 -0.197,-0.494 -0.352,-0.688c-0.155,-0.194 -0.35,-0.35 -0.584,-0.464c-0.235,-0.115 -0.504,-0.172 -0.809,-0.172c-0.305,0 -0.573,0.057 -0.809,0.172c-0.234,0.114 -0.429,0.27 -0.584,0.464c-0.154,0.194 -0.271,0.424 -0.352,0.688c-0.08,0.264 -0.119,0.545 -0.119,0.844c0,0.299 0.039,0.58 0.119,0.844c0.08,0.264 0.197,0.494 0.352,0.691c0.155,0.197 0.35,0.353 0.584,0.465c0.236,0.111 0.504,0.168 0.809,0.168Z"
                  style="fill-rule:nonzero;stroke:#000;stroke-width:0.6px;stroke-linejoin:miter;stroke-miterlimit:10;"/>
            <path d="M79.517,114.375c0.239,0 0.49,0.021 0.752,0.067c0.261,0.046 0.479,0.105 0.655,0.181l-0.119,0.567c-0.182,-0.063 -0.376,-0.116 -0.584,-0.156c-0.208,-0.04 -0.414,-0.06 -0.616,-0.06c-0.667,0 -1.187,0.187 -1.561,0.56c-0.373,0.374 -0.56,0.907 -0.56,1.601c0,0.694 0.187,1.227 0.56,1.6c0.374,0.373 0.894,0.561 1.561,0.561c0.202,0 0.408,-0.021 0.616,-0.061c0.208,-0.04 0.402,-0.092 0.584,-0.156l0.119,0.568c-0.176,0.074 -0.395,0.135 -0.655,0.18c-0.262,0.045 -0.513,0.068 -0.752,0.068c-0.438,0 -0.828,-0.069 -1.172,-0.208c-0.345,-0.139 -0.634,-0.331 -0.868,-0.576c-0.235,-0.245 -0.415,-0.536 -0.54,-0.872c-0.126,-0.336 -0.188,-0.704 -0.188,-1.104c0,-0.4 0.062,-0.769 0.188,-1.104c0.125,-0.336 0.305,-0.626 0.54,-0.872c0.234,-0.245 0.523,-0.438 0.868,-0.576c0.343,-0.14 0.734,-0.208 1.172,-0.208Z"
                  style="fill-rule:nonzero;stroke:#000;stroke-width:0.6px;stroke-linejoin:miter;stroke-miterlimit:10;"/>
            <path d="M85.659,114.471l0.736,0l-1.912,5.328l-0.768,0l-1.912,-5.328l0.736,0l1.56,4.455l1.56,-4.455Z"
                  style="fill-rule:nonzero;stroke:#000;stroke-width:0.6px;stroke-linejoin:miter;stroke-miterlimit:10;"/>
        </g>
        <g>
            <path d="M60.458,202.711c0,0.256 -0.056,0.486 -0.168,0.691c-0.112,0.206 -0.268,0.381 -0.468,0.525c-0.2,0.143 -0.436,0.254 -0.708,0.331c-0.272,0.077 -0.565,0.116 -0.88,0.116l-0.368,0l0,2.104l-0.735,0l0,-5.328l1.287,0c0.288,0 0.557,0.033 0.805,0.097c0.248,0.064 0.463,0.161 0.647,0.292c0.184,0.131 0.328,0.293 0.433,0.488c0.103,0.195 0.155,0.422 0.155,0.684Zm-0.735,-0.008c0,-0.176 -0.035,-0.324 -0.104,-0.444c-0.069,-0.12 -0.164,-0.218 -0.284,-0.296c-0.119,-0.077 -0.262,-0.133 -0.424,-0.168c-0.162,-0.035 -0.334,-0.052 -0.516,-0.052l-0.528,0l0,2.04l0.392,0c0.214,0 0.41,-0.024 0.588,-0.072c0.18,-0.048 0.334,-0.119 0.465,-0.212c0.131,-0.093 0.231,-0.206 0.304,-0.34c0.07,-0.134 0.107,-0.286 0.107,-0.456Z"
                  style="fill-rule:nonzero;stroke:#000;stroke-width:0.6px;stroke-linejoin:miter;stroke-miterlimit:10;"/>
            <path d="M61.594,201.15l2.969,0l0,0.601l-2.233,0l0,1.704l2.137,0l0,0.6l-2.137,0l0,1.824l2.256,0l0,0.6l-2.992,0l0,-5.329Z"
                  style="fill-rule:nonzero;stroke:#000;stroke-width:0.6px;stroke-linejoin:miter;stroke-miterlimit:10;"/>
            <path d="M70.618,206.479l-0.752,0l-0.488,-1.287l-2.487,0l-0.48,1.287l-0.752,0l2.12,-5.328l0.72,0l2.119,5.328Zm-3.504,-1.879l2.048,0l-1.023,-2.776l-1.025,2.776Z"
                  style="fill-rule:nonzero;stroke:#000;stroke-width:0.6px;stroke-linejoin:miter;stroke-miterlimit:10;"/>
            <path d="M71.883,206.479l0,-5.328l0.735,0l0,2.584l2.224,-2.584l0.889,0l-2.297,2.641l2.448,2.688l-0.928,0l-2.336,-2.64l0,2.64l-0.735,0l0,-0.001Z"
                  style="fill-rule:nonzero;stroke:#000;stroke-width:0.6px;stroke-linejoin:miter;stroke-miterlimit:10;"/>
            <path d="M81.555,201.055c0.239,0 0.49,0.023 0.752,0.068c0.261,0.045 0.479,0.105 0.655,0.18l-0.119,0.568c-0.182,-0.064 -0.376,-0.116 -0.584,-0.156c-0.208,-0.04 -0.414,-0.061 -0.616,-0.061c-0.667,0 -1.187,0.188 -1.561,0.561c-0.373,0.373 -0.56,0.906 -0.56,1.6c0,0.694 0.187,1.228 0.56,1.601c0.374,0.374 0.894,0.56 1.561,0.56c0.202,0 0.408,-0.02 0.616,-0.06c0.208,-0.04 0.402,-0.092 0.584,-0.156l0.119,0.568c-0.176,0.075 -0.395,0.135 -0.655,0.18c-0.262,0.046 -0.513,0.068 -0.752,0.068c-0.438,0 -0.828,-0.069 -1.172,-0.208c-0.345,-0.139 -0.634,-0.33 -0.868,-0.576c-0.235,-0.245 -0.415,-0.536 -0.54,-0.872c-0.126,-0.336 -0.188,-0.704 -0.188,-1.104c0,-0.399 0.062,-0.768 0.188,-1.104c0.125,-0.336 0.305,-0.627 0.54,-0.872c0.234,-0.245 0.523,-0.437 0.868,-0.575c0.344,-0.14 0.734,-0.21 1.172,-0.21Z"
                  style="fill-rule:nonzero;stroke:#000;stroke-width:0.6px;stroke-linejoin:miter;stroke-miterlimit:10;"/>
            <path d="M87.697,201.15l0.736,0l-1.912,5.328l-0.768,0l-1.912,-5.328l0.736,0l1.56,4.457l1.56,-4.457Z"
                  style="fill-rule:nonzero;stroke:#000;stroke-width:0.6px;stroke-linejoin:miter;stroke-miterlimit:10;"/>
        </g>
        <path id="Arrow_2_"
              d="M26.442,119.338l5.493,-4.254l5.492,4.254l-10.985,0Z"
              style="fill-rule:nonzero;stroke:#000;stroke-width:1px;"/>
        <g id="DRIVE">
            <path d="M59.936,270.281c0.299,0 0.584,0.025 0.855,0.076c0.272,0.051 0.518,0.129 0.736,0.236l-0.12,0.584c-0.229,-0.091 -0.468,-0.162 -0.716,-0.217c-0.248,-0.053 -0.498,-0.08 -0.748,-0.08c-0.662,0 -1.182,0.193 -1.561,0.58c-0.379,0.386 -0.567,0.933 -0.567,1.641c0,0.682 0.179,1.205 0.536,1.568c0.357,0.365 0.893,0.548 1.607,0.548c0.171,0 0.343,-0.013 0.517,-0.036c0.173,-0.023 0.321,-0.055 0.444,-0.092l0,-1.736l0.672,0l0,2.148c-0.203,0.086 -0.462,0.158 -0.776,0.215c-0.315,0.057 -0.63,0.085 -0.944,0.085c-0.438,0 -0.829,-0.065 -1.176,-0.196c-0.347,-0.131 -0.641,-0.314 -0.88,-0.552c-0.24,-0.237 -0.423,-0.521 -0.548,-0.853c-0.125,-0.33 -0.188,-0.695 -0.188,-1.096c0,-0.416 0.064,-0.797 0.195,-1.145c0.131,-0.346 0.318,-0.644 0.564,-0.892c0.244,-0.247 0.543,-0.44 0.896,-0.579c0.353,-0.139 0.753,-0.207 1.202,-0.207Z"
                  style="fill-rule:nonzero;stroke:#000;stroke-width:0.6px;stroke-linejoin:miter;stroke-miterlimit:10;"/>
            <path d="M67.735,275.705l-0.752,0l-0.488,-1.287l-2.487,0l-0.48,1.287l-0.752,0l2.12,-5.328l0.72,0l2.119,5.328Zm-3.504,-1.879l2.048,0l-1.023,-2.776l-1.025,2.776Z"
                  style="fill-rule:nonzero;stroke:#000;stroke-width:0.6px;stroke-linejoin:miter;stroke-miterlimit:10;"/>
            <rect x="69.039"
                  y="270.377"
                  width="0.736"
                  height="5.328"
                  style="stroke:#000;stroke-width:0.6px;stroke-linejoin:miter;stroke-miterlimit:10;"/>
            <path d="M75.183,275.705l-2.983,-4.184l0,4.184l-0.704,0l0,-5.328l0.704,0l2.983,4.185l0,-4.185l0.705,0l0,5.328l-0.705,0Z"
                  style="fill-rule:nonzero;stroke:#000;stroke-width:0.6px;stroke-linejoin:miter;stroke-miterlimit:10;"/>
            <path d="M82.159,270.281c0.239,0 0.49,0.023 0.752,0.068c0.261,0.045 0.479,0.105 0.655,0.18l-0.119,0.568c-0.182,-0.064 -0.376,-0.116 -0.584,-0.156c-0.208,-0.04 -0.414,-0.061 -0.616,-0.061c-0.667,0 -1.187,0.188 -1.561,0.561c-0.373,0.373 -0.56,0.906 -0.56,1.6c0,0.694 0.187,1.228 0.56,1.601c0.374,0.374 0.894,0.56 1.561,0.56c0.202,0 0.408,-0.02 0.616,-0.06c0.208,-0.04 0.402,-0.092 0.584,-0.156l0.119,0.568c-0.176,0.075 -0.395,0.135 -0.655,0.18c-0.262,0.046 -0.513,0.068 -0.752,0.068c-0.438,0 -0.828,-0.069 -1.172,-0.208c-0.345,-0.139 -0.634,-0.33 -0.868,-0.576c-0.235,-0.245 -0.415,-0.536 -0.54,-0.872c-0.126,-0.336 -0.188,-0.704 -0.188,-1.104c0,-0.399 0.062,-0.768 0.188,-1.104c0.125,-0.336 0.305,-0.627 0.54,-0.872c0.234,-0.245 0.523,-0.437 0.868,-0.575c0.344,-0.139 0.735,-0.21 1.172,-0.21Z"
                  style="fill-rule:nonzero;stroke:#000;stroke-width:0.6px;stroke-linejoin:miter;stroke-miterlimit:10;"/>
            <path d="M88.303,270.377l0.736,0l-1.912,5.328l-0.768,0l-1.912,-5.328l0.736,0l1.56,4.457l1.56,-4.457Z"
                  style="fill-rule:nonzero;stroke:#000;stroke-width:0.6px;stroke-linejoin:miter;stroke-miterlimit:10;"/>
        </g>
        <g>
            <rect x="28.599"
                  y="316.106"
                  width="0.736"
                  height="5.328"
                  style="stroke:#000;stroke-width:0.6px;stroke-linejoin:miter;stroke-miterlimit:10;"/>
            <path d="M34.743,321.434l-2.984,-4.184l0,4.184l-0.704,0l0,-5.328l0.704,0l2.984,4.185l0,-4.185l0.704,0l0,5.328l-0.704,0Z"
                  style="fill-rule:nonzero;stroke:#000;stroke-width:0.6px;stroke-linejoin:miter;stroke-miterlimit:10;"/>
        </g>
        <g>
            <path d="M67.412,321.529c-0.416,0 -0.787,-0.074 -1.111,-0.225c-0.326,-0.148 -0.598,-0.349 -0.816,-0.6c-0.219,-0.25 -0.386,-0.544 -0.5,-0.88c-0.115,-0.336 -0.172,-0.688 -0.172,-1.056c0,-0.369 0.057,-0.721 0.172,-1.057c0.114,-0.336 0.281,-0.629 0.5,-0.88c0.219,-0.251 0.49,-0.45 0.816,-0.601c0.324,-0.148 0.695,-0.223 1.111,-0.223c0.416,0 0.787,0.074 1.111,0.223c0.326,0.15 0.598,0.35 0.816,0.601c0.218,0.251 0.386,0.544 0.5,0.88c0.115,0.336 0.172,0.688 0.172,1.057c0,0.367 -0.057,0.72 -0.172,1.056c-0.114,0.336 -0.281,0.63 -0.5,0.88c-0.219,0.251 -0.49,0.451 -0.816,0.6c-0.324,0.151 -0.695,0.225 -1.111,0.225Zm0,-0.591c0.305,0 0.573,-0.057 0.809,-0.168c0.234,-0.112 0.429,-0.268 0.584,-0.465c0.154,-0.197 0.271,-0.428 0.352,-0.691c0.081,-0.263 0.12,-0.545 0.12,-0.844c0,-0.299 -0.04,-0.58 -0.12,-0.844c-0.08,-0.265 -0.197,-0.494 -0.352,-0.688c-0.155,-0.194 -0.35,-0.35 -0.584,-0.464c-0.235,-0.115 -0.504,-0.172 -0.809,-0.172c-0.305,0 -0.573,0.057 -0.809,0.172c-0.234,0.114 -0.429,0.27 -0.584,0.464c-0.154,0.194 -0.271,0.424 -0.352,0.688c-0.08,0.264 -0.119,0.545 -0.119,0.844c0,0.299 0.039,0.58 0.119,0.844c0.08,0.264 0.197,0.494 0.352,0.691c0.155,0.197 0.35,0.353 0.584,0.465c0.236,0.111 0.504,0.168 0.809,0.168Z"
                  style="fill-rule:nonzero;stroke:#000;stroke-width:0.6px;stroke-linejoin:miter;stroke-miterlimit:10;"/>
            <path d="M74.82,316.105l0.736,0l0,3.439c0,0.277 -0.046,0.537 -0.137,0.78c-0.091,0.243 -0.225,0.453 -0.4,0.632c-0.175,0.179 -0.393,0.318 -0.651,0.42c-0.258,0.102 -0.56,0.152 -0.9,0.152c-0.34,0 -0.642,-0.051 -0.899,-0.152c-0.26,-0.102 -0.477,-0.241 -0.652,-0.42c-0.175,-0.179 -0.31,-0.389 -0.4,-0.632c-0.09,-0.243 -0.136,-0.503 -0.136,-0.78l0,-3.439l0.736,0l0,3.472c0,0.399 0.112,0.726 0.34,0.976c0.227,0.251 0.563,0.377 1.012,0.377c0.449,0 0.786,-0.126 1.013,-0.377c0.227,-0.25 0.34,-0.576 0.34,-0.976l0,-3.472l-0.002,0Z"
                  style="fill-rule:nonzero;stroke:#000;stroke-width:0.6px;stroke-linejoin:miter;stroke-miterlimit:10;"/>
            <path d="M80.611,316.105l0,0.6l-1.567,0l0,4.729l-0.735,0l0,-4.729l-1.568,0l0,-0.6l3.87,0Z"
                  style="fill-rule:nonzero;stroke:#000;stroke-width:0.6px;stroke-linejoin:miter;stroke-miterlimit:10;"/>
        </g>
        <g id="DRIVE_1_">
            <path d="M110.391,316.443c0.298,0 0.584,0.025 0.855,0.075c0.271,0.051 0.518,0.13 0.736,0.236l-0.121,0.584c-0.229,-0.091 -0.467,-0.163 -0.715,-0.216c-0.248,-0.054 -0.498,-0.08 -0.748,-0.08c-0.662,0 -1.182,0.193 -1.561,0.578c-0.379,0.387 -0.568,0.934 -0.568,1.642c0,0.681 0.18,1.204 0.537,1.569c0.356,0.364 0.893,0.547 1.607,0.547c0.17,0 0.342,-0.012 0.516,-0.036c0.174,-0.024 0.321,-0.055 0.444,-0.093l0,-1.735l0.672,0l0,2.147c-0.202,0.087 -0.462,0.158 -0.776,0.215c-0.314,0.057 -0.629,0.086 -0.943,0.086c-0.438,0 -0.83,-0.065 -1.176,-0.196c-0.348,-0.13 -0.641,-0.314 -0.881,-0.552c-0.24,-0.238 -0.422,-0.521 -0.547,-0.852c-0.126,-0.331 -0.188,-0.697 -0.188,-1.097c0,-0.416 0.065,-0.798 0.196,-1.144c0.13,-0.348 0.318,-0.645 0.563,-0.893c0.245,-0.248 0.544,-0.441 0.896,-0.58c0.353,-0.136 0.752,-0.205 1.202,-0.205Z"
                  style="fill-rule:nonzero;stroke:#000;stroke-width:0.6px;stroke-linejoin:miter;stroke-miterlimit:10;"/>
            <path d="M118.189,321.867l-0.752,0l-0.488,-1.289l-2.487,0l-0.479,1.289l-0.752,0l2.119,-5.328l0.721,0l2.118,5.328Zm-3.503,-1.881l2.049,0l-1.024,-2.775l-1.025,2.775Z"
                  style="fill-rule:nonzero;stroke:#000;stroke-width:0.6px;stroke-linejoin:miter;stroke-miterlimit:10;"/>
            <rect x="119.494"
                  y="316.539"
                  width="0.736"
                  height="5.328"
                  style="stroke:#000;stroke-width:0.6px;stroke-linejoin:miter;stroke-miterlimit:10;"/>
            <path d="M125.637,321.867l-2.982,-4.185l0,4.185l-0.705,0l0,-5.328l0.705,0l2.982,4.184l0,-4.184l0.705,0l0,5.328l-0.705,0Z"
                  style="fill-rule:nonzero;stroke:#000;stroke-width:0.6px;stroke-linejoin:miter;stroke-miterlimit:10;"/>
            <path d="M134.709,316.539l0.664,0l0.385,5.328l-0.705,0l-0.256,-4.152l-1.535,3.191l-0.752,0l-1.537,-3.191l-0.256,4.152l-0.703,0l0.385,-5.328l0.662,0l1.824,3.768l1.824,-3.768Z"
                  style="fill-rule:nonzero;stroke:#000;stroke-width:0.6px;stroke-linejoin:miter;stroke-miterlimit:10;"/>
            <path d="M139.629,321.963c-0.416,0 -0.787,-0.074 -1.111,-0.225c-0.326,-0.148 -0.598,-0.349 -0.816,-0.6c-0.219,-0.25 -0.385,-0.544 -0.5,-0.88c-0.115,-0.336 -0.172,-0.688 -0.172,-1.056c0,-0.369 0.057,-0.721 0.172,-1.057c0.115,-0.336 0.281,-0.629 0.5,-0.88c0.219,-0.251 0.49,-0.45 0.816,-0.601c0.324,-0.148 0.695,-0.223 1.111,-0.223c0.416,0 0.787,0.074 1.113,0.223c0.324,0.15 0.596,0.35 0.814,0.601c0.218,0.251 0.387,0.544 0.5,0.88c0.115,0.336 0.172,0.688 0.172,1.057c0,0.367 -0.057,0.72 -0.172,1.056c-0.113,0.336 -0.281,0.63 -0.5,0.88c-0.219,0.251 -0.49,0.451 -0.814,0.6c-0.326,0.151 -0.697,0.225 -1.113,0.225Zm0,-0.592c0.305,0 0.574,-0.057 0.809,-0.168c0.234,-0.112 0.43,-0.268 0.584,-0.465c0.154,-0.197 0.271,-0.428 0.352,-0.691c0.081,-0.263 0.121,-0.545 0.121,-0.844c0,-0.299 -0.041,-0.58 -0.121,-0.844c-0.08,-0.265 -0.197,-0.494 -0.352,-0.688c-0.155,-0.194 -0.35,-0.35 -0.584,-0.464c-0.234,-0.115 -0.504,-0.172 -0.809,-0.172c-0.303,0 -0.572,0.057 -0.807,0.172c-0.236,0.114 -0.43,0.27 -0.584,0.464c-0.156,0.194 -0.273,0.424 -0.354,0.688c-0.08,0.264 -0.119,0.545 -0.119,0.844c0,0.299 0.039,0.58 0.119,0.844c0.08,0.264 0.197,0.494 0.354,0.691c0.154,0.197 0.348,0.353 0.584,0.465c0.235,0.111 0.504,0.168 0.807,0.168Z"
                  style="fill-rule:nonzero;stroke:#000;stroke-width:0.6px;stroke-linejoin:miter;stroke-miterlimit:10;"/>
            <path d="M143.629,316.539l1.48,0c0.459,0 0.875,0.066 1.248,0.199c0.373,0.134 0.693,0.319 0.961,0.557c0.266,0.237 0.471,0.519 0.615,0.844c0.144,0.325 0.217,0.68 0.217,1.064c0,0.384 -0.072,0.738 -0.217,1.063c-0.145,0.325 -0.35,0.606 -0.615,0.845c-0.268,0.236 -0.588,0.422 -0.961,0.555c-0.373,0.135 -0.789,0.201 -1.248,0.201l-1.48,0l0,-5.328Zm1.48,4.736c0.32,0 0.621,-0.047 0.9,-0.141c0.279,-0.094 0.523,-0.229 0.732,-0.404c0.207,-0.176 0.371,-0.392 0.492,-0.648c0.119,-0.256 0.18,-0.549 0.18,-0.879c0,-0.326 -0.061,-0.617 -0.18,-0.877c-0.121,-0.258 -0.285,-0.476 -0.492,-0.651c-0.209,-0.177 -0.453,-0.311 -0.732,-0.404c-0.279,-0.093 -0.58,-0.14 -0.9,-0.14l-0.744,0l0,4.145l0.744,0l0,-0.001Z"
                  style="fill-rule:nonzero;stroke:#000;stroke-width:0.6px;stroke-linejoin:miter;stroke-miterlimit:10;"/>
            <path d="M149.494,316.539l2.969,0l0,0.6l-2.232,0l0,1.704l2.135,0l0,0.601l-2.135,0l0,1.823l2.256,0l0,0.601l-2.992,0l0,-5.329l-0.001,0Z"
                  style="fill-rule:nonzero;stroke:#000;stroke-width:0.6px;stroke-linejoin:miter;stroke-miterlimit:10;"/>
        </g>
        <path d="M115.637,340.588l-0.752,0l-0.488,-1.289l-2.488,0l-0.48,1.289l-0.752,0l2.121,-5.328l0.719,0l2.12,5.328Zm-3.504,-1.881l2.047,0l-1.023,-2.775l-1.024,2.775Z"
              style="fill-rule:nonzero;stroke:#000;stroke-width:0.6px;stroke-linejoin:miter;stroke-miterlimit:10;"/>
        <path d="M147.668,339.098c0,0.219 -0.049,0.42 -0.148,0.604c-0.099,0.185 -0.238,0.342 -0.42,0.473c-0.183,0.131 -0.4,0.232 -0.654,0.305c-0.254,0.071 -0.535,0.108 -0.846,0.108l-1.508,0l0,-5.328l1.652,0c0.256,0 0.492,0.03 0.705,0.092c0.215,0.061 0.397,0.148 0.55,0.264c0.152,0.114 0.271,0.251 0.353,0.411c0.083,0.159 0.125,0.335 0.125,0.526c0,0.309 -0.104,0.568 -0.309,0.779c-0.207,0.21 -0.47,0.368 -0.791,0.475c0.396,0.075 0.71,0.221 0.942,0.438c0.233,0.215 0.349,0.499 0.349,0.853Zm-2.191,-1.551c0.181,0 0.35,-0.021 0.508,-0.062c0.157,-0.043 0.293,-0.104 0.408,-0.183c0.114,-0.079 0.203,-0.175 0.268,-0.285c0.064,-0.111 0.096,-0.237 0.096,-0.381c0,-0.265 -0.1,-0.462 -0.3,-0.595c-0.2,-0.131 -0.46,-0.197 -0.78,-0.197l-0.879,0l0,1.703l0.679,0Zm1.488,1.524c0,-0.159 -0.038,-0.299 -0.113,-0.418c-0.074,-0.12 -0.177,-0.218 -0.305,-0.295c-0.129,-0.077 -0.279,-0.134 -0.45,-0.171c-0.171,-0.037 -0.353,-0.057 -0.546,-0.057l-0.754,0l0,1.873l0.851,0c0.401,0 0.722,-0.078 0.96,-0.235c0.238,-0.157 0.357,-0.389 0.357,-0.697Z"
              style="fill-rule:nonzero;stroke:#000;stroke-width:0.6px;stroke-linejoin:miter;stroke-miterlimit:10;"/>
    </g>
    <g id="LOGO">
        <path d="M64.162,361.77l1.279,0l0,2.979l2.846,0l0,1.02l-4.125,0l0,-3.999Z"
              style="fill:#fff;fill-rule:nonzero;"/>
        <rect x="68.564"
              y="361.77"
              width="1.279"
              height="3.998"
              style="fill:#fff;"/>
        <path d="M70.404,361.77l2.137,0l2.096,2.982l0.125,0l-0.029,-2.982l1.24,0l0,3.998l-2.119,0l-2.104,-2.982l-0.132,0l0.026,2.982l-1.24,0l0,-3.998Z"
              style="fill:#fff;fill-rule:nonzero;"/>
        <path d="M76.531,365.768l0,-3.998l2.886,0c0.627,0 1.032,0.012 1.216,0.031c0.355,0.041 0.617,0.135 0.785,0.275c0.18,0.156 0.298,0.408 0.354,0.76c0.027,0.166 0.041,0.455 0.041,0.867c0,0.527 -0.021,0.895 -0.068,1.104c-0.062,0.281 -0.17,0.488 -0.316,0.621c-0.1,0.092 -0.221,0.16 -0.361,0.207c-0.144,0.047 -0.336,0.082 -0.578,0.105c-0.19,0.02 -0.547,0.023 -1.065,0.023l-2.894,0.005Zm1.201,-1.02l1.695,0c0.344,0 0.602,-0.018 0.771,-0.041c0.188,-0.031 0.309,-0.139 0.356,-0.312c0.036,-0.129 0.055,-0.332 0.055,-0.607c0,-0.297 -0.02,-0.516 -0.059,-0.65c-0.047,-0.174 -0.154,-0.279 -0.322,-0.314c-0.133,-0.029 -0.402,-0.049 -0.812,-0.049l-1.686,0l0.002,1.973Z"
              style="fill:#fff;fill-rule:nonzero;"/>
        <path d="M82.292,361.77l4.431,0l0,0.939l-3.229,0l0,0.578l3.063,0l0,0.879l-3.063,0l0,0.641l3.252,0l0,0.961l-4.453,0l0,-3.998l-0.001,0Z"
              style="fill:#fff;fill-rule:nonzero;"/>
        <path d="M87.126,361.77l2.138,0l2.094,2.982l0.127,0l-0.029,-2.982l1.238,0l0,3.998l-2.117,0l-2.104,-2.982l-0.134,0l0.026,2.982l-1.239,0l0,-3.998Z"
              style="fill:#fff;fill-rule:nonzero;"/>
        <path d="M93.252,365.768l0,-3.998l2.875,0c0.611,0.002 0.975,0.008 1.09,0.016c0.262,0.02 0.453,0.062 0.576,0.145c0.143,0.09 0.232,0.213 0.275,0.371c0.039,0.148 0.059,0.318 0.059,0.512c0,0.232 -0.021,0.41 -0.066,0.529c-0.074,0.189 -0.229,0.322 -0.473,0.396c0.18,0.029 0.311,0.074 0.396,0.135c0.195,0.133 0.293,0.404 0.293,0.826c0,0.324 -0.051,0.564 -0.152,0.727c-0.09,0.137 -0.227,0.229 -0.41,0.277c-0.154,0.041 -0.418,0.062 -0.783,0.062l-0.795,0.008l-2.885,-0.006Zm1.162,-2.422l1.717,0c0.377,0 0.602,-0.016 0.674,-0.045c0.096,-0.037 0.146,-0.133 0.146,-0.287c0,-0.156 -0.061,-0.252 -0.176,-0.283c-0.045,-0.012 -0.26,-0.02 -0.645,-0.021l-1.717,0l0,0.636l0.001,0Zm0,1.461l1.723,0c0.32,-0.002 0.51,-0.004 0.564,-0.006c0.178,-0.008 0.291,-0.043 0.34,-0.104c0.037,-0.051 0.057,-0.129 0.057,-0.23c0,-0.168 -0.061,-0.271 -0.182,-0.297c-0.043,-0.016 -0.303,-0.02 -0.779,-0.02l-1.723,0l0,0.657Z"
              style="fill:#fff;fill-rule:nonzero;"/>
        <path d="M98.699,361.77l4.43,0l0,0.939l-3.229,0l0,0.578l3.062,0l0,0.879l-3.062,0l0,0.641l3.252,0l0,0.961l-4.453,0l0,-3.998Z"
              style="fill:#fff;fill-rule:nonzero;"/>
        <path d="M103.533,365.768l0,-3.998l2.945,0c0.691,0.002 1.104,0.01 1.229,0.021c0.145,0.014 0.273,0.055 0.389,0.125c0.115,0.064 0.207,0.152 0.271,0.264c0.066,0.115 0.105,0.236 0.119,0.361c0.018,0.146 0.025,0.318 0.025,0.525c0,0.326 -0.021,0.559 -0.066,0.688c-0.068,0.188 -0.197,0.32 -0.387,0.396c-0.064,0.023 -0.16,0.049 -0.289,0.066c0.256,0.02 0.438,0.092 0.551,0.221c0.049,0.057 0.082,0.119 0.104,0.193c0.021,0.07 0.035,0.182 0.041,0.318c0.002,0.07 0.004,0.223 0.004,0.439l0,0.373l-1.201,0l0,-0.215c0,-0.238 -0.012,-0.408 -0.031,-0.514c-0.029,-0.146 -0.109,-0.234 -0.236,-0.268c-0.084,-0.018 -0.26,-0.023 -0.527,-0.023l-1.719,0l0,1.02l-1.222,0.008Zm1.219,-2.016l1.713,0c0.258,-0.004 0.408,-0.01 0.455,-0.014c0.172,-0.012 0.279,-0.062 0.324,-0.156c0.031,-0.066 0.047,-0.182 0.047,-0.34c0,-0.137 -0.014,-0.234 -0.041,-0.305c-0.041,-0.1 -0.139,-0.148 -0.295,-0.164c-0.055,-0.006 -0.219,-0.008 -0.492,-0.01l-1.711,0l0,0.989Z"
              style="fill:#fff;fill-rule:nonzero;"/>
        <path d="M111.379,363.5l2.785,0c0.004,0.088 0.006,0.146 0.006,0.17c0,0.521 -0.014,0.928 -0.043,1.213c-0.047,0.461 -0.309,0.74 -0.785,0.838c-0.246,0.051 -0.516,0.078 -0.809,0.09c-0.312,0.012 -0.68,0.018 -1.105,0.018c-0.756,0 -1.295,-0.023 -1.619,-0.08c-0.449,-0.072 -0.729,-0.279 -0.834,-0.619c-0.055,-0.166 -0.084,-0.355 -0.092,-0.572c-0.01,-0.27 -0.016,-0.557 -0.016,-0.859c0,-0.518 0.025,-0.877 0.074,-1.088c0.066,-0.289 0.188,-0.494 0.359,-0.613c0.094,-0.062 0.203,-0.111 0.342,-0.146c0.135,-0.033 0.324,-0.062 0.572,-0.084c0.354,-0.029 0.822,-0.047 1.418,-0.047c0.77,0 1.311,0.029 1.627,0.092c0.322,0.062 0.551,0.168 0.682,0.322c0.115,0.139 0.186,0.354 0.211,0.654c0.006,0.078 0.01,0.201 0.01,0.367l-1.219,0c-0.002,-0.105 -0.008,-0.186 -0.021,-0.225c-0.023,-0.1 -0.111,-0.158 -0.26,-0.178c-0.191,-0.025 -0.574,-0.039 -1.145,-0.039c-0.506,0 -0.855,0.018 -1.053,0.051c-0.186,0.033 -0.299,0.135 -0.338,0.307c-0.029,0.129 -0.047,0.355 -0.047,0.688c0,0.379 0.018,0.639 0.051,0.773c0.043,0.188 0.176,0.289 0.398,0.311c0.109,0.012 0.438,0.021 0.99,0.025c0.602,-0.006 0.986,-0.02 1.162,-0.033c0.156,-0.025 0.25,-0.098 0.271,-0.209c0.014,-0.07 0.021,-0.18 0.021,-0.322l-1.604,0l0,-0.801l0.01,0l0,-0.004l0.001,0Z"
              style="fill:#fff;fill-rule:nonzero;"/>
        <path d="M67.957,372.969l0,-4l2.943,0c0.695,0.002 1.104,0.01 1.229,0.021c0.144,0.018 0.271,0.059 0.39,0.125c0.114,0.068 0.207,0.156 0.271,0.268c0.065,0.113 0.106,0.232 0.12,0.357c0.018,0.146 0.025,0.322 0.025,0.529c0,0.326 -0.021,0.555 -0.066,0.684c-0.068,0.189 -0.197,0.324 -0.387,0.396c-0.064,0.025 -0.162,0.049 -0.291,0.068c0.256,0.02 0.438,0.092 0.552,0.219c0.049,0.059 0.083,0.121 0.104,0.195c0.021,0.068 0.033,0.18 0.041,0.316c0.002,0.072 0.004,0.221 0.004,0.441l0,0.373l-1.201,0l0,-0.215c0,-0.238 -0.012,-0.408 -0.032,-0.516c-0.031,-0.146 -0.11,-0.232 -0.237,-0.266c-0.084,-0.018 -0.261,-0.023 -0.529,-0.023l-1.718,0l0,1.02l-1.218,0.008Zm1.218,-2.016l1.716,0c0.256,-0.004 0.405,-0.01 0.452,-0.014c0.173,-0.01 0.28,-0.062 0.325,-0.156c0.031,-0.064 0.047,-0.182 0.047,-0.338c0,-0.139 -0.014,-0.234 -0.041,-0.307c-0.041,-0.098 -0.14,-0.15 -0.296,-0.164c-0.055,-0.004 -0.219,-0.006 -0.491,-0.008l-1.712,0l0,0.987Z"
              style="fill:#fff;fill-rule:nonzero;"/>
        <path d="M73.355,368.969l4.431,0l0,0.939l-3.229,0l0,0.576l3.063,0l0,0.879l-3.063,0l0,0.645l3.252,0l0,0.961l-4.453,0l0,-4l-0.001,0Z"
              style="fill:#fff;fill-rule:nonzero;"/>
        <path d="M78.049,371.645l1.182,0c-0.002,0.197 0.039,0.324 0.121,0.381c0.043,0.027 0.092,0.047 0.146,0.061c0.054,0.01 0.149,0.018 0.287,0.021c0.067,0.002 0.292,0.004 0.671,0.006c0.52,-0.002 0.82,-0.006 0.902,-0.01c0.152,-0.012 0.256,-0.031 0.305,-0.062c0.068,-0.043 0.104,-0.141 0.104,-0.285c0,-0.104 -0.021,-0.174 -0.063,-0.215c-0.06,-0.059 -0.198,-0.088 -0.42,-0.092c-0.151,0 -0.472,-0.014 -0.954,-0.035c-0.5,-0.02 -0.824,-0.035 -0.975,-0.041c-0.387,-0.014 -0.658,-0.059 -0.815,-0.135c-0.203,-0.102 -0.336,-0.271 -0.397,-0.512c-0.035,-0.133 -0.054,-0.307 -0.054,-0.521c0,-0.451 0.086,-0.77 0.259,-0.955c0.129,-0.145 0.323,-0.232 0.586,-0.279c0.235,-0.039 0.799,-0.061 1.688,-0.061c0.576,0 0.984,0.02 1.225,0.053c0.313,0.045 0.541,0.123 0.682,0.23c0.188,0.152 0.279,0.434 0.279,0.828c0,0.043 0,0.111 -0.002,0.205l-1.182,0c-0.004,-0.096 -0.012,-0.162 -0.021,-0.197c-0.026,-0.107 -0.117,-0.172 -0.271,-0.188c-0.136,-0.012 -0.463,-0.02 -0.983,-0.02c-0.517,0 -0.822,0.018 -0.918,0.045c-0.107,0.033 -0.16,0.125 -0.16,0.27c0,0.143 0.058,0.229 0.17,0.26c0.097,0.023 0.525,0.051 1.291,0.072c0.693,0.021 1.138,0.043 1.328,0.072c0.192,0.025 0.346,0.07 0.461,0.133c0.113,0.059 0.205,0.143 0.273,0.248c0.104,0.158 0.154,0.414 0.154,0.766c0,0.396 -0.051,0.684 -0.151,0.863c-0.103,0.184 -0.269,0.307 -0.498,0.373c-0.228,0.064 -0.851,0.1 -1.872,0.1c-0.621,0 -1.068,-0.018 -1.345,-0.049c-0.336,-0.039 -0.577,-0.115 -0.724,-0.23c-0.158,-0.121 -0.252,-0.293 -0.281,-0.516c-0.016,-0.105 -0.023,-0.23 -0.023,-0.383l-0.005,-0.201Z"
              style="fill:#fff;fill-rule:nonzero;"/>
        <path d="M83.367,368.969l4.43,0l0,0.939l-3.229,0l0,0.576l3.062,0l0,0.879l-3.062,0l0,0.645l3.252,0l0,0.961l-4.453,0l0,-4Z"
              style="fill:#fff;fill-rule:nonzero;"/>
        <path d="M92.543,372.969l-0.344,-0.678l-2.646,0l-0.343,0.678l-1.394,0l2.121,-4l1.895,0l2.092,4l-1.381,0Zm-0.772,-1.553l-0.771,-1.52l-0.242,0l-0.771,1.52l1.784,0Z"
              style="fill:#fff;fill-rule:nonzero;"/>
        <path d="M94.107,372.969l0,-4l2.941,0c0.695,0.002 1.105,0.01 1.23,0.021c0.143,0.018 0.271,0.059 0.387,0.125c0.117,0.068 0.207,0.156 0.271,0.268c0.065,0.113 0.104,0.232 0.121,0.357c0.019,0.146 0.024,0.322 0.024,0.529c0,0.326 -0.021,0.555 -0.065,0.684c-0.067,0.189 -0.197,0.324 -0.39,0.396c-0.062,0.025 -0.16,0.049 -0.289,0.068c0.257,0.02 0.438,0.092 0.552,0.219c0.049,0.059 0.084,0.121 0.104,0.195c0.021,0.068 0.035,0.18 0.043,0.316c0.002,0.072 0.002,0.221 0.002,0.441l0,0.373l-1.201,0l0,-0.215c0,-0.238 -0.01,-0.408 -0.029,-0.516c-0.031,-0.146 -0.109,-0.232 -0.236,-0.266c-0.084,-0.018 -0.262,-0.023 -0.531,-0.023l-1.717,0l0,1.02l-1.217,0.008Zm1.219,-2.016l1.713,0c0.256,-0.004 0.408,-0.01 0.455,-0.014c0.172,-0.01 0.279,-0.062 0.324,-0.156c0.031,-0.064 0.047,-0.182 0.047,-0.338c0,-0.139 -0.014,-0.234 -0.041,-0.307c-0.041,-0.098 -0.139,-0.15 -0.295,-0.164c-0.055,-0.004 -0.219,-0.006 -0.492,-0.008l-1.711,0l0,0.987Z"
              style="fill:#fff;fill-rule:nonzero;"/>
        <path d="M103.332,371.424l1.219,0c0.01,0.193 0.014,0.33 0.014,0.398c0,0.291 -0.047,0.523 -0.139,0.699c-0.096,0.188 -0.277,0.312 -0.549,0.385c-0.295,0.08 -0.805,0.119 -1.527,0.119c-0.801,0 -1.338,-0.014 -1.615,-0.037c-0.258,-0.021 -0.461,-0.057 -0.607,-0.104c-0.146,-0.047 -0.271,-0.115 -0.369,-0.205c-0.131,-0.121 -0.213,-0.281 -0.248,-0.479c-0.037,-0.209 -0.059,-0.609 -0.059,-1.207c0,-0.57 0.014,-0.959 0.043,-1.154c0.043,-0.301 0.158,-0.52 0.35,-0.65c0.146,-0.102 0.375,-0.174 0.691,-0.217c0.326,-0.043 0.916,-0.062 1.766,-0.062c0.51,0 0.867,0.014 1.082,0.031c0.324,0.029 0.562,0.094 0.709,0.188c0.186,0.111 0.303,0.279 0.352,0.5c0.035,0.154 0.053,0.338 0.053,0.543c0,0.031 -0.002,0.109 -0.004,0.229l-1.219,0c-0.004,-0.098 -0.008,-0.162 -0.014,-0.197c-0.016,-0.119 -0.066,-0.191 -0.16,-0.227c-0.141,-0.049 -0.52,-0.07 -1.139,-0.07c-0.422,0 -0.713,0.014 -0.873,0.035c-0.191,0.025 -0.312,0.135 -0.359,0.318c-0.037,0.146 -0.059,0.393 -0.059,0.727c0,0.346 0.021,0.582 0.059,0.713c0.047,0.17 0.176,0.271 0.387,0.297c0.172,0.02 0.473,0.031 0.904,0.031c0.467,0 0.783,-0.012 0.955,-0.029c0.158,-0.018 0.262,-0.072 0.305,-0.172c0.03,-0.083 0.047,-0.216 0.051,-0.403Z"
              style="fill:#fff;fill-rule:nonzero;"/>
        <path d="M104.984,368.969l1.281,0l0,1.432l2.75,0l0,-1.432l1.279,0l0,4l-1.279,0l0,-1.451l-2.75,0l0,1.451l-1.281,0l0,-4Z"
              style="fill:#fff;fill-rule:nonzero;"/>
    </g>
    <g>
        <g transform="matrix(2.68023,0,0,2.68023,-80.6187,-31.753)">
            <path d="M56.542,15.372c0.071,0.137 0.116,0.283 0.134,0.439c0.018,0.155 0.015,0.313 -0.009,0.474c-0.024,0.161 -0.059,0.319 -0.107,0.475c-0.048,0.155 -0.099,0.298 -0.152,0.43c-0.168,0.399 -0.375,0.777 -0.623,1.132c-0.248,0.355 -0.515,0.694 -0.801,1.017c-0.293,0.322 -0.6,0.631 -0.923,0.926c-0.322,0.296 -0.668,0.563 -1.038,0.802c-0.126,0.083 -0.264,0.167 -0.417,0.251c-0.152,0.083 -0.309,0.15 -0.47,0.201c-0.161,0.051 -0.325,0.079 -0.492,0.085c-0.167,0.006 -0.326,-0.03 -0.475,-0.107c-0.137,-0.072 -0.24,-0.165 -0.309,-0.278c-0.068,-0.113 -0.113,-0.239 -0.134,-0.376c-0.021,-0.137 -0.022,-0.278 -0.005,-0.421c0.018,-0.143 0.045,-0.281 0.081,-0.412c0.102,-0.394 0.243,-0.779 0.425,-1.155c0.182,-0.376 0.369,-0.743 0.56,-1.101c0.179,-0.341 0.363,-0.679 0.551,-1.017c0.188,-0.337 0.356,-0.685 0.506,-1.043c0.018,-0.042 0.035,-0.094 0.053,-0.157c0.018,-0.062 0.042,-0.117 0.072,-0.165c0.03,-0.048 0.066,-0.085 0.107,-0.112c0.042,-0.027 0.099,-0.032 0.171,-0.014c0.077,0.024 0.128,0.069 0.152,0.135c0.024,0.065 0.033,0.139 0.027,0.219c-0.006,0.081 -0.021,0.16 -0.045,0.237c-0.024,0.078 -0.045,0.144 -0.063,0.197c-0.131,0.43 -0.294,0.847 -0.488,1.25c-0.194,0.402 -0.386,0.807 -0.577,1.213c-0.156,0.322 -0.308,0.643 -0.457,0.962c-0.149,0.32 -0.26,0.647 -0.331,0.981c-0.024,0.107 -0.027,0.193 -0.009,0.255c0.018,0.063 0.049,0.108 0.094,0.134c0.045,0.027 0.103,0.036 0.174,0.027c0.072,-0.009 0.153,-0.028 0.242,-0.058c0.215,-0.077 0.443,-0.201 0.685,-0.371c0.242,-0.171 0.476,-0.359 0.703,-0.565c0.227,-0.206 0.44,-0.413 0.64,-0.622c0.2,-0.209 0.369,-0.391 0.506,-0.546c0.227,-0.251 0.437,-0.511 0.632,-0.779c0.194,-0.269 0.368,-0.555 0.523,-0.86c0.054,-0.107 0.111,-0.222 0.17,-0.345c0.06,-0.122 0.114,-0.249 0.162,-0.38c0.047,-0.131 0.08,-0.263 0.098,-0.394c0.018,-0.131 0.015,-0.257 -0.009,-0.376c-0.018,-0.072 -0.01,-0.133 0.023,-0.184c0.032,-0.051 0.076,-0.086 0.129,-0.107c0.054,-0.021 0.111,-0.024 0.171,-0.009c0.059,0.015 0.107,0.052 0.143,0.112Z"
                  style="fill-rule:nonzero;"/>
            <path d="M60.589,17.27c-0.239,-0.066 -0.473,-0.086 -0.703,-0.063c-0.23,0.024 -0.452,0.078 -0.667,0.162c-0.215,0.083 -0.419,0.192 -0.613,0.326c-0.194,0.135 -0.375,0.28 -0.542,0.435c-0.215,0.203 -0.41,0.421 -0.586,0.653c-0.177,0.233 -0.342,0.475 -0.497,0.726c-0.054,0.089 -0.111,0.201 -0.171,0.336c-0.059,0.134 -0.11,0.27 -0.152,0.407c-0.042,0.137 -0.071,0.264 -0.089,0.381c-0.018,0.116 -0.011,0.201 0.022,0.255c0.033,0.053 0.096,0.064 0.188,0.031c0.093,-0.033 0.225,-0.13 0.399,-0.291c0.179,-0.167 0.352,-0.351 0.519,-0.551c0.167,-0.2 0.336,-0.4 0.506,-0.6c0.17,-0.2 0.34,-0.388 0.51,-0.564c0.17,-0.176 0.351,-0.327 0.542,-0.452c0.155,-0.101 0.309,-0.17 0.461,-0.206c0.152,-0.036 0.303,-0.012 0.452,0.072c0.072,0.042 0.12,0.101 0.144,0.179c0.024,0.077 0.015,0.152 -0.027,0.224c-0.084,0.149 -0.167,0.297 -0.251,0.443c-0.083,0.146 -0.167,0.294 -0.251,0.443c-0.071,0.137 -0.15,0.279 -0.237,0.426c-0.087,0.146 -0.16,0.296 -0.219,0.452c-0.036,0.101 -0.064,0.186 -0.085,0.255c-0.021,0.069 -0.024,0.118 -0.009,0.148c0.015,0.03 0.049,0.037 0.103,0.022c0.053,-0.015 0.134,-0.055 0.241,-0.121c0.275,-0.167 0.529,-0.37 0.762,-0.609c0.232,-0.239 0.453,-0.471 0.662,-0.698c0.072,-0.084 0.14,-0.169 0.206,-0.255c0.066,-0.087 0.134,-0.172 0.206,-0.256c0.018,-0.023 0.045,-0.046 0.081,-0.067c0.035,-0.021 0.07,-0.034 0.103,-0.04c0.032,-0.006 0.056,0.001 0.071,0.022c0.015,0.021 0.014,0.062 -0.004,0.121c-0.03,0.096 -0.078,0.2 -0.143,0.314c-0.066,0.113 -0.123,0.209 -0.171,0.286c-0.107,0.185 -0.241,0.39 -0.403,0.614c-0.161,0.223 -0.335,0.435 -0.523,0.635c-0.188,0.2 -0.384,0.37 -0.587,0.511c-0.203,0.14 -0.4,0.219 -0.591,0.237c-0.173,0.012 -0.313,-0.009 -0.421,-0.063c-0.107,-0.053 -0.191,-0.13 -0.25,-0.228c-0.06,-0.099 -0.096,-0.212 -0.108,-0.34c-0.012,-0.129 -0.003,-0.261 0.027,-0.399c0.054,-0.268 0.142,-0.534 0.264,-0.797c0.122,-0.262 0.261,-0.516 0.416,-0.761c-0.077,0.018 -0.17,0.079 -0.277,0.184c-0.108,0.104 -0.22,0.23 -0.336,0.376c-0.116,0.146 -0.234,0.3 -0.354,0.461c-0.119,0.161 -0.229,0.31 -0.331,0.448c-0.084,0.119 -0.175,0.247 -0.273,0.385c-0.099,0.137 -0.206,0.262 -0.322,0.376c-0.117,0.113 -0.247,0.201 -0.39,0.264c-0.143,0.063 -0.298,0.079 -0.466,0.049c-0.191,-0.036 -0.334,-0.106 -0.429,-0.21c-0.096,-0.105 -0.16,-0.229 -0.193,-0.372c-0.033,-0.143 -0.039,-0.3 -0.018,-0.47c0.021,-0.17 0.057,-0.339 0.108,-0.506c0.05,-0.167 0.109,-0.325 0.174,-0.474c0.066,-0.15 0.126,-0.275 0.179,-0.377c0.239,-0.447 0.533,-0.861 0.882,-1.24c0.35,-0.379 0.742,-0.697 1.178,-0.953c0.185,-0.108 0.382,-0.199 0.591,-0.273c0.209,-0.075 0.421,-0.124 0.636,-0.148c0.215,-0.024 0.429,-0.017 0.644,0.022c0.215,0.039 0.418,0.121 0.609,0.246c0.06,0.036 0.096,0.084 0.108,0.144c0.012,0.059 0.006,0.115 -0.018,0.165c-0.024,0.051 -0.061,0.093 -0.112,0.126c-0.051,0.033 -0.109,0.04 -0.175,0.022Z"
                  style="fill-rule:nonzero;"/>
            <path d="M61.709,20.897c0.167,0.035 0.349,-0.018 0.546,-0.162c0.197,-0.143 0.394,-0.323 0.591,-0.541c0.197,-0.218 0.383,-0.448 0.559,-0.69c0.177,-0.242 0.324,-0.449 0.444,-0.622c0.03,-0.048 0.065,-0.073 0.107,-0.076c0.042,-0.003 0.078,0.019 0.108,0.067c0.023,0.048 0.017,0.103 -0.018,0.166c-0.036,0.062 -0.063,0.112 -0.081,0.147c-0.155,0.317 -0.33,0.626 -0.524,0.927c-0.194,0.302 -0.413,0.584 -0.658,0.846c-0.095,0.102 -0.201,0.199 -0.318,0.291c-0.116,0.093 -0.239,0.168 -0.367,0.224c-0.128,0.057 -0.263,0.088 -0.403,0.094c-0.14,0.006 -0.279,-0.03 -0.416,-0.107c-0.185,-0.102 -0.308,-0.24 -0.367,-0.417c-0.06,-0.176 -0.081,-0.365 -0.063,-0.568c0.018,-0.203 0.058,-0.406 0.121,-0.609c0.062,-0.203 0.121,-0.382 0.174,-0.537c0.144,-0.394 0.309,-0.775 0.497,-1.142c0.188,-0.367 0.381,-0.73 0.578,-1.088c0.095,-0.167 0.194,-0.345 0.295,-0.533c0.102,-0.188 0.209,-0.371 0.323,-0.551c0.113,-0.179 0.234,-0.35 0.362,-0.514c0.129,-0.165 0.271,-0.312 0.426,-0.444c0.089,-0.077 0.195,-0.134 0.318,-0.17c0.122,-0.036 0.237,-0.046 0.344,-0.031c0.108,0.015 0.196,0.058 0.265,0.13c0.068,0.071 0.1,0.179 0.094,0.322c-0.006,0.125 -0.06,0.282 -0.162,0.47c-0.101,0.188 -0.219,0.378 -0.353,0.569c-0.135,0.191 -0.269,0.374 -0.403,0.55c-0.135,0.177 -0.24,0.312 -0.318,0.408c-0.167,0.221 -0.348,0.44 -0.542,0.658c-0.194,0.218 -0.38,0.431 -0.559,0.64c-0.09,0.185 -0.193,0.405 -0.309,0.658c-0.117,0.254 -0.215,0.497 -0.296,0.73c-0.081,0.233 -0.128,0.436 -0.143,0.609c-0.015,0.173 0.034,0.272 0.148,0.296Z"
                  style="fill-rule:nonzero;"/>
            <path d="M64.475,20.718c0.144,0.101 0.3,0.161 0.471,0.179c0.17,0.018 0.341,0.007 0.514,-0.032c0.174,-0.038 0.342,-0.094 0.506,-0.165c0.165,-0.072 0.315,-0.147 0.453,-0.224c0.304,-0.173 0.58,-0.367 0.828,-0.582c0.248,-0.215 0.473,-0.445 0.676,-0.69c0.042,-0.047 0.088,-0.107 0.139,-0.179c0.05,-0.071 0.091,-0.122 0.121,-0.152c0.047,-0.048 0.097,-0.061 0.147,-0.04c0.051,0.021 0.076,0.067 0.076,0.138c0,0.06 -0.026,0.133 -0.08,0.22c-0.054,0.086 -0.096,0.154 -0.125,0.201c-0.102,0.179 -0.218,0.351 -0.35,0.515c-0.131,0.164 -0.268,0.324 -0.412,0.479c-0.155,0.155 -0.32,0.303 -0.497,0.443c-0.176,0.141 -0.361,0.268 -0.555,0.381c-0.194,0.113 -0.398,0.206 -0.613,0.278c-0.215,0.071 -0.433,0.113 -0.654,0.125c-0.286,0.018 -0.564,-0.027 -0.833,-0.134c-0.268,-0.108 -0.48,-0.287 -0.635,-0.538c-0.114,-0.185 -0.182,-0.385 -0.206,-0.6c-0.024,-0.214 -0.018,-0.432 0.018,-0.653c0.035,-0.221 0.095,-0.437 0.179,-0.649c0.083,-0.212 0.176,-0.408 0.277,-0.587c0.108,-0.191 0.232,-0.382 0.372,-0.573c0.14,-0.191 0.295,-0.369 0.466,-0.533c0.17,-0.164 0.352,-0.31 0.546,-0.439c0.194,-0.128 0.398,-0.228 0.613,-0.3c0.245,-0.077 0.496,-0.091 0.752,-0.04c0.257,0.051 0.469,0.181 0.636,0.39c0.161,0.209 0.24,0.431 0.237,0.667c-0.003,0.236 -0.058,0.464 -0.165,0.685c-0.108,0.221 -0.251,0.424 -0.43,0.609c-0.179,0.185 -0.361,0.331 -0.546,0.438c-0.341,0.192 -0.684,0.292 -1.03,0.3c-0.346,0.009 -0.69,-0.052 -1.03,-0.183c-0.048,0.119 -0.085,0.239 -0.112,0.358c-0.027,0.119 -0.037,0.233 -0.031,0.34c0.006,0.108 0.03,0.209 0.072,0.305c0.041,0.095 0.11,0.176 0.205,0.242Zm1.568,-1.863c0.047,-0.03 0.11,-0.082 0.188,-0.157c0.077,-0.074 0.155,-0.158 0.232,-0.25c0.078,-0.093 0.148,-0.193 0.211,-0.3c0.062,-0.108 0.106,-0.212 0.13,-0.314c0.024,-0.101 0.024,-0.195 0,-0.282c-0.024,-0.086 -0.087,-0.157 -0.188,-0.21c-0.066,-0.036 -0.136,-0.052 -0.211,-0.05c-0.074,0.003 -0.148,0.017 -0.219,0.041c-0.072,0.024 -0.141,0.055 -0.206,0.094c-0.066,0.039 -0.126,0.076 -0.179,0.112c-0.281,0.191 -0.526,0.415 -0.735,0.671c-0.208,0.257 -0.382,0.529 -0.519,0.815c0.251,0.09 0.506,0.121 0.766,0.094c0.259,-0.027 0.503,-0.115 0.73,-0.264Z"
                  style="fill-rule:nonzero;"/>
            <path d="M67.439,19.679c0.108,-0.185 0.218,-0.387 0.332,-0.605c0.113,-0.217 0.219,-0.434 0.318,-0.649c0.098,-0.215 0.185,-0.419 0.259,-0.613c0.075,-0.194 0.13,-0.354 0.166,-0.479c-0.078,-0.072 -0.124,-0.154 -0.139,-0.246c-0.015,-0.093 -0.004,-0.186 0.031,-0.278c0.036,-0.093 0.092,-0.181 0.166,-0.264c0.075,-0.084 0.16,-0.149 0.255,-0.197c0.096,-0.042 0.191,-0.06 0.287,-0.054c0.095,0.006 0.179,0.033 0.251,0.081c0.071,0.047 0.123,0.112 0.156,0.192c0.033,0.081 0.041,0.172 0.023,0.273c0.161,0.048 0.319,0.102 0.474,0.161c0.156,0.06 0.293,0.136 0.412,0.229c0.12,0.092 0.209,0.206 0.269,0.34c0.06,0.134 0.077,0.297 0.054,0.488c-0.018,0.143 -0.054,0.287 -0.108,0.43c-0.054,0.143 -0.116,0.282 -0.188,0.416c-0.072,0.135 -0.146,0.267 -0.224,0.399c-0.077,0.131 -0.152,0.259 -0.224,0.385c-0.077,0.137 -0.153,0.276 -0.228,0.416c-0.075,0.14 -0.136,0.285 -0.184,0.434c-0.053,0.162 -0.071,0.272 -0.053,0.332c0.018,0.059 0.058,0.088 0.121,0.085c0.062,-0.003 0.138,-0.03 0.228,-0.081c0.089,-0.05 0.179,-0.11 0.269,-0.179c0.089,-0.068 0.171,-0.136 0.246,-0.201c0.074,-0.066 0.13,-0.114 0.165,-0.144c0.251,-0.238 0.477,-0.477 0.677,-0.716c0.2,-0.239 0.389,-0.486 0.568,-0.743c0.036,-0.048 0.07,-0.075 0.103,-0.081c0.033,-0.006 0.061,0.002 0.085,0.023c0.024,0.021 0.04,0.05 0.049,0.089c0.009,0.039 0.005,0.076 -0.013,0.112c-0.048,0.114 -0.119,0.249 -0.215,0.408c-0.095,0.158 -0.204,0.325 -0.327,0.501c-0.122,0.176 -0.256,0.354 -0.403,0.533c-0.146,0.179 -0.294,0.343 -0.443,0.492c-0.149,0.15 -0.297,0.276 -0.443,0.381c-0.146,0.104 -0.282,0.171 -0.408,0.201c-0.179,0.048 -0.334,0.045 -0.465,-0.009c-0.132,-0.053 -0.235,-0.137 -0.309,-0.25c-0.075,-0.114 -0.123,-0.248 -0.143,-0.403c-0.021,-0.156 -0.014,-0.311 0.022,-0.466c0.06,-0.251 0.146,-0.494 0.26,-0.73c0.113,-0.236 0.229,-0.47 0.349,-0.703c0.036,-0.077 0.083,-0.165 0.143,-0.264c0.06,-0.098 0.114,-0.198 0.161,-0.3c0.048,-0.101 0.087,-0.198 0.117,-0.291c0.03,-0.092 0.036,-0.165 0.018,-0.219c-0.03,-0.078 -0.112,-0.137 -0.247,-0.179c-0.134,-0.042 -0.312,-0.096 -0.532,-0.161c-0.102,0.161 -0.211,0.341 -0.327,0.541c-0.117,0.2 -0.241,0.403 -0.372,0.609c-0.131,0.206 -0.263,0.406 -0.394,0.6c-0.131,0.194 -0.26,0.366 -0.385,0.515c-0.054,0.066 -0.11,0.116 -0.17,0.152c-0.06,0.036 -0.109,0.051 -0.148,0.045c-0.039,-0.006 -0.057,-0.037 -0.054,-0.094c0.003,-0.057 0.041,-0.145 0.112,-0.264Z"
                  style="fill-rule:nonzero;"/>
            <path d="M71.791,20.87c0.078,0.077 0.187,0.091 0.327,0.04c0.14,-0.051 0.296,-0.142 0.466,-0.273c0.17,-0.131 0.346,-0.287 0.528,-0.466c0.182,-0.179 0.352,-0.355 0.51,-0.528c0.159,-0.173 0.297,-0.328 0.417,-0.466c0.119,-0.137 0.2,-0.232 0.242,-0.286c0.035,-0.036 0.067,-0.055 0.094,-0.058c0.026,-0.003 0.049,0.006 0.067,0.027c0.018,0.02 0.03,0.047 0.036,0.08c0.006,0.033 0,0.064 -0.018,0.094c-0.036,0.072 -0.085,0.151 -0.148,0.237c-0.063,0.087 -0.121,0.163 -0.175,0.229c-0.227,0.274 -0.45,0.55 -0.671,0.828c-0.221,0.278 -0.441,0.519 -0.658,0.725c-0.218,0.206 -0.441,0.354 -0.668,0.444c-0.226,0.089 -0.459,0.083 -0.698,-0.018c-0.227,-0.096 -0.375,-0.232 -0.443,-0.408c-0.069,-0.176 -0.091,-0.367 -0.067,-0.573c0.024,-0.206 0.079,-0.412 0.165,-0.618c0.087,-0.206 0.175,-0.386 0.264,-0.541c0.102,-0.185 0.226,-0.371 0.372,-0.556c0.146,-0.185 0.288,-0.368 0.425,-0.55c0.138,-0.182 0.262,-0.361 0.372,-0.538c0.11,-0.176 0.184,-0.347 0.219,-0.514c0.024,-0.126 0.081,-0.211 0.171,-0.256c0.089,-0.044 0.18,-0.056 0.273,-0.035c0.092,0.02 0.17,0.07 0.232,0.147c0.063,0.078 0.083,0.176 0.059,0.296c-0.036,0.149 -0.097,0.301 -0.184,0.456c-0.086,0.156 -0.182,0.308 -0.286,0.457c-0.105,0.149 -0.211,0.294 -0.318,0.434c-0.108,0.141 -0.203,0.274 -0.287,0.399c-0.066,0.095 -0.149,0.225 -0.251,0.389c-0.101,0.165 -0.194,0.336 -0.277,0.515c-0.084,0.179 -0.14,0.35 -0.17,0.511c-0.03,0.161 -0.003,0.286 0.08,0.376Zm1.46,-4.988c0,-0.125 0.043,-0.231 0.13,-0.318c0.086,-0.086 0.192,-0.13 0.318,-0.13c0.125,0 0.231,0.044 0.317,0.13c0.087,0.087 0.13,0.193 0.13,0.318c0,0.126 -0.043,0.231 -0.13,0.318c-0.086,0.087 -0.192,0.13 -0.317,0.13c-0.126,0 -0.232,-0.043 -0.318,-0.13c-0.087,-0.087 -0.13,-0.192 -0.13,-0.318Z"
                  style="fill-rule:nonzero;"/>
            <path d="M74.845,20.718c0.143,0.101 0.3,0.161 0.47,0.179c0.17,0.018 0.342,0.007 0.515,-0.032c0.173,-0.038 0.341,-0.094 0.506,-0.165c0.164,-0.072 0.315,-0.147 0.452,-0.224c0.304,-0.173 0.58,-0.367 0.828,-0.582c0.248,-0.215 0.473,-0.445 0.676,-0.69c0.042,-0.047 0.088,-0.107 0.139,-0.179c0.051,-0.071 0.091,-0.122 0.121,-0.152c0.048,-0.048 0.097,-0.061 0.148,-0.04c0.05,0.021 0.076,0.067 0.076,0.138c0,0.06 -0.027,0.133 -0.081,0.22c-0.054,0.086 -0.095,0.154 -0.125,0.201c-0.102,0.179 -0.218,0.351 -0.349,0.515c-0.132,0.164 -0.269,0.324 -0.412,0.479c-0.156,0.155 -0.321,0.303 -0.497,0.443c-0.176,0.141 -0.361,0.268 -0.555,0.381c-0.194,0.113 -0.399,0.206 -0.614,0.278c-0.215,0.071 -0.433,0.113 -0.654,0.125c-0.286,0.018 -0.564,-0.027 -0.832,-0.134c-0.269,-0.108 -0.481,-0.287 -0.636,-0.538c-0.113,-0.185 -0.182,-0.385 -0.206,-0.6c-0.024,-0.214 -0.018,-0.432 0.018,-0.653c0.036,-0.221 0.095,-0.437 0.179,-0.649c0.084,-0.212 0.176,-0.408 0.278,-0.587c0.107,-0.191 0.231,-0.382 0.371,-0.573c0.14,-0.191 0.296,-0.369 0.466,-0.533c0.17,-0.164 0.352,-0.31 0.546,-0.439c0.194,-0.128 0.399,-0.228 0.613,-0.3c0.245,-0.077 0.496,-0.091 0.753,-0.04c0.256,0.051 0.468,0.181 0.635,0.39c0.162,0.209 0.241,0.431 0.238,0.667c-0.003,0.236 -0.059,0.464 -0.166,0.685c-0.107,0.221 -0.251,0.424 -0.43,0.609c-0.179,0.185 -0.361,0.331 -0.546,0.438c-0.34,0.192 -0.684,0.292 -1.03,0.3c-0.346,0.009 -0.689,-0.052 -1.03,-0.183c-0.047,0.119 -0.085,0.239 -0.112,0.358c-0.026,0.119 -0.037,0.233 -0.031,0.34c0.006,0.108 0.03,0.209 0.072,0.305c0.042,0.095 0.11,0.176 0.206,0.242Zm1.567,-1.863c0.048,-0.03 0.11,-0.082 0.188,-0.157c0.077,-0.074 0.155,-0.158 0.233,-0.25c0.077,-0.093 0.147,-0.193 0.21,-0.3c0.063,-0.108 0.106,-0.212 0.13,-0.314c0.024,-0.101 0.024,-0.195 0,-0.282c-0.024,-0.086 -0.087,-0.157 -0.188,-0.21c-0.066,-0.036 -0.136,-0.052 -0.211,-0.05c-0.074,0.003 -0.147,0.017 -0.219,0.041c-0.072,0.024 -0.14,0.055 -0.206,0.094c-0.066,0.039 -0.125,0.076 -0.179,0.112c-0.281,0.191 -0.525,0.415 -0.734,0.671c-0.209,0.257 -0.382,0.529 -0.52,0.815c0.251,0.09 0.506,0.121 0.766,0.094c0.26,-0.027 0.503,-0.115 0.73,-0.264Z"
                  style="fill-rule:nonzero;"/>
        </g>
        <g transform="matrix(2.68023,0,0,2.68023,-79.9264,-32.026)">
            <path d="M56.542,15.372c0.071,0.137 0.116,0.283 0.134,0.439c0.018,0.155 0.015,0.313 -0.009,0.474c-0.024,0.161 -0.059,0.319 -0.107,0.475c-0.048,0.155 -0.099,0.298 -0.152,0.43c-0.168,0.399 -0.375,0.777 -0.623,1.132c-0.248,0.355 -0.515,0.694 -0.801,1.017c-0.293,0.322 -0.6,0.631 -0.923,0.926c-0.322,0.296 -0.668,0.563 -1.038,0.802c-0.126,0.083 -0.264,0.167 -0.417,0.251c-0.152,0.083 -0.309,0.15 -0.47,0.201c-0.161,0.051 -0.325,0.079 -0.492,0.085c-0.167,0.006 -0.326,-0.03 -0.475,-0.107c-0.137,-0.072 -0.24,-0.165 -0.309,-0.278c-0.068,-0.113 -0.113,-0.239 -0.134,-0.376c-0.021,-0.137 -0.022,-0.278 -0.005,-0.421c0.018,-0.143 0.045,-0.281 0.081,-0.412c0.102,-0.394 0.243,-0.779 0.425,-1.155c0.182,-0.376 0.369,-0.743 0.56,-1.101c0.179,-0.341 0.363,-0.679 0.551,-1.017c0.188,-0.337 0.356,-0.685 0.506,-1.043c0.018,-0.042 0.035,-0.094 0.053,-0.157c0.018,-0.062 0.042,-0.117 0.072,-0.165c0.03,-0.048 0.066,-0.085 0.107,-0.112c0.042,-0.027 0.099,-0.032 0.171,-0.014c0.077,0.024 0.128,0.069 0.152,0.135c0.024,0.065 0.033,0.139 0.027,0.219c-0.006,0.081 -0.021,0.16 -0.045,0.237c-0.024,0.078 -0.045,0.144 -0.063,0.197c-0.131,0.43 -0.294,0.847 -0.488,1.25c-0.194,0.402 -0.386,0.807 -0.577,1.213c-0.156,0.322 -0.308,0.643 -0.457,0.962c-0.149,0.32 -0.26,0.647 -0.331,0.981c-0.024,0.107 -0.027,0.193 -0.009,0.255c0.018,0.063 0.049,0.108 0.094,0.134c0.045,0.027 0.103,0.036 0.174,0.027c0.072,-0.009 0.153,-0.028 0.242,-0.058c0.215,-0.077 0.443,-0.201 0.685,-0.371c0.242,-0.171 0.476,-0.359 0.703,-0.565c0.227,-0.206 0.44,-0.413 0.64,-0.622c0.2,-0.209 0.369,-0.391 0.506,-0.546c0.227,-0.251 0.437,-0.511 0.632,-0.779c0.194,-0.269 0.368,-0.555 0.523,-0.86c0.054,-0.107 0.111,-0.222 0.17,-0.345c0.06,-0.122 0.114,-0.249 0.162,-0.38c0.047,-0.131 0.08,-0.263 0.098,-0.394c0.018,-0.131 0.015,-0.257 -0.009,-0.376c-0.018,-0.072 -0.01,-0.133 0.023,-0.184c0.032,-0.051 0.076,-0.086 0.129,-0.107c0.054,-0.021 0.111,-0.024 0.171,-0.009c0.059,0.015 0.107,0.052 0.143,0.112Z"
                  style="fill-opacity:0.462745;fill-rule:nonzero;"/>
            <path d="M60.589,17.27c-0.239,-0.066 -0.473,-0.086 -0.703,-0.063c-0.23,0.024 -0.452,0.078 -0.667,0.162c-0.215,0.083 -0.419,0.192 -0.613,0.326c-0.194,0.135 -0.375,0.28 -0.542,0.435c-0.215,0.203 -0.41,0.421 -0.586,0.653c-0.177,0.233 -0.342,0.475 -0.497,0.726c-0.054,0.089 -0.111,0.201 -0.171,0.336c-0.059,0.134 -0.11,0.27 -0.152,0.407c-0.042,0.137 -0.071,0.264 -0.089,0.381c-0.018,0.116 -0.011,0.201 0.022,0.255c0.033,0.053 0.096,0.064 0.188,0.031c0.093,-0.033 0.225,-0.13 0.399,-0.291c0.179,-0.167 0.352,-0.351 0.519,-0.551c0.167,-0.2 0.336,-0.4 0.506,-0.6c0.17,-0.2 0.34,-0.388 0.51,-0.564c0.17,-0.176 0.351,-0.327 0.542,-0.452c0.155,-0.101 0.309,-0.17 0.461,-0.206c0.152,-0.036 0.303,-0.012 0.452,0.072c0.072,0.042 0.12,0.101 0.144,0.179c0.024,0.077 0.015,0.152 -0.027,0.224c-0.084,0.149 -0.167,0.297 -0.251,0.443c-0.083,0.146 -0.167,0.294 -0.251,0.443c-0.071,0.137 -0.15,0.279 -0.237,0.426c-0.087,0.146 -0.16,0.296 -0.219,0.452c-0.036,0.101 -0.064,0.186 -0.085,0.255c-0.021,0.069 -0.024,0.118 -0.009,0.148c0.015,0.03 0.049,0.037 0.103,0.022c0.053,-0.015 0.134,-0.055 0.241,-0.121c0.275,-0.167 0.529,-0.37 0.762,-0.609c0.232,-0.239 0.453,-0.471 0.662,-0.698c0.072,-0.084 0.14,-0.169 0.206,-0.255c0.066,-0.087 0.134,-0.172 0.206,-0.256c0.018,-0.023 0.045,-0.046 0.081,-0.067c0.035,-0.021 0.07,-0.034 0.103,-0.04c0.032,-0.006 0.056,0.001 0.071,0.022c0.015,0.021 0.014,0.062 -0.004,0.121c-0.03,0.096 -0.078,0.2 -0.143,0.314c-0.066,0.113 -0.123,0.209 -0.171,0.286c-0.107,0.185 -0.241,0.39 -0.403,0.614c-0.161,0.223 -0.335,0.435 -0.523,0.635c-0.188,0.2 -0.384,0.37 -0.587,0.511c-0.203,0.14 -0.4,0.219 -0.591,0.237c-0.173,0.012 -0.313,-0.009 -0.421,-0.063c-0.107,-0.053 -0.191,-0.13 -0.25,-0.228c-0.06,-0.099 -0.096,-0.212 -0.108,-0.34c-0.012,-0.129 -0.003,-0.261 0.027,-0.399c0.054,-0.268 0.142,-0.534 0.264,-0.797c0.122,-0.262 0.261,-0.516 0.416,-0.761c-0.077,0.018 -0.17,0.079 -0.277,0.184c-0.108,0.104 -0.22,0.23 -0.336,0.376c-0.116,0.146 -0.234,0.3 -0.354,0.461c-0.119,0.161 -0.229,0.31 -0.331,0.448c-0.084,0.119 -0.175,0.247 -0.273,0.385c-0.099,0.137 -0.206,0.262 -0.322,0.376c-0.117,0.113 -0.247,0.201 -0.39,0.264c-0.143,0.063 -0.298,0.079 -0.466,0.049c-0.191,-0.036 -0.334,-0.106 -0.429,-0.21c-0.096,-0.105 -0.16,-0.229 -0.193,-0.372c-0.033,-0.143 -0.039,-0.3 -0.018,-0.47c0.021,-0.17 0.057,-0.339 0.108,-0.506c0.05,-0.167 0.109,-0.325 0.174,-0.474c0.066,-0.15 0.126,-0.275 0.179,-0.377c0.239,-0.447 0.533,-0.861 0.882,-1.24c0.35,-0.379 0.742,-0.697 1.178,-0.953c0.185,-0.108 0.382,-0.199 0.591,-0.273c0.209,-0.075 0.421,-0.124 0.636,-0.148c0.215,-0.024 0.429,-0.017 0.644,0.022c0.215,0.039 0.418,0.121 0.609,0.246c0.06,0.036 0.096,0.084 0.108,0.144c0.012,0.059 0.006,0.115 -0.018,0.165c-0.024,0.051 -0.061,0.093 -0.112,0.126c-0.051,0.033 -0.109,0.04 -0.175,0.022Z"
                  style="fill-opacity:0.462745;fill-rule:nonzero;"/>
            <path d="M61.709,20.897c0.167,0.035 0.349,-0.018 0.546,-0.162c0.197,-0.143 0.394,-0.323 0.591,-0.541c0.197,-0.218 0.383,-0.448 0.559,-0.69c0.177,-0.242 0.324,-0.449 0.444,-0.622c0.03,-0.048 0.065,-0.073 0.107,-0.076c0.042,-0.003 0.078,0.019 0.108,0.067c0.023,0.048 0.017,0.103 -0.018,0.166c-0.036,0.062 -0.063,0.112 -0.081,0.147c-0.155,0.317 -0.33,0.626 -0.524,0.927c-0.194,0.302 -0.413,0.584 -0.658,0.846c-0.095,0.102 -0.201,0.199 -0.318,0.291c-0.116,0.093 -0.239,0.168 -0.367,0.224c-0.128,0.057 -0.263,0.088 -0.403,0.094c-0.14,0.006 -0.279,-0.03 -0.416,-0.107c-0.185,-0.102 -0.308,-0.24 -0.367,-0.417c-0.06,-0.176 -0.081,-0.365 -0.063,-0.568c0.018,-0.203 0.058,-0.406 0.121,-0.609c0.062,-0.203 0.121,-0.382 0.174,-0.537c0.144,-0.394 0.309,-0.775 0.497,-1.142c0.188,-0.367 0.381,-0.73 0.578,-1.088c0.095,-0.167 0.194,-0.345 0.295,-0.533c0.102,-0.188 0.209,-0.371 0.323,-0.551c0.113,-0.179 0.234,-0.35 0.362,-0.514c0.129,-0.165 0.271,-0.312 0.426,-0.444c0.089,-0.077 0.195,-0.134 0.318,-0.17c0.122,-0.036 0.237,-0.046 0.344,-0.031c0.108,0.015 0.196,0.058 0.265,0.13c0.068,0.071 0.1,0.179 0.094,0.322c-0.006,0.125 -0.06,0.282 -0.162,0.47c-0.101,0.188 -0.219,0.378 -0.353,0.569c-0.135,0.191 -0.269,0.374 -0.403,0.55c-0.135,0.177 -0.24,0.312 -0.318,0.408c-0.167,0.221 -0.348,0.44 -0.542,0.658c-0.194,0.218 -0.38,0.431 -0.559,0.64c-0.09,0.185 -0.193,0.405 -0.309,0.658c-0.117,0.254 -0.215,0.497 -0.296,0.73c-0.081,0.233 -0.128,0.436 -0.143,0.609c-0.015,0.173 0.034,0.272 0.148,0.296Z"
                  style="fill-opacity:0.462745;fill-rule:nonzero;"/>
            <path d="M64.475,20.718c0.144,0.101 0.3,0.161 0.471,0.179c0.17,0.018 0.341,0.007 0.514,-0.032c0.174,-0.038 0.342,-0.094 0.506,-0.165c0.165,-0.072 0.315,-0.147 0.453,-0.224c0.304,-0.173 0.58,-0.367 0.828,-0.582c0.248,-0.215 0.473,-0.445 0.676,-0.69c0.042,-0.047 0.088,-0.107 0.139,-0.179c0.05,-0.071 0.091,-0.122 0.121,-0.152c0.047,-0.048 0.097,-0.061 0.147,-0.04c0.051,0.021 0.076,0.067 0.076,0.138c0,0.06 -0.026,0.133 -0.08,0.22c-0.054,0.086 -0.096,0.154 -0.125,0.201c-0.102,0.179 -0.218,0.351 -0.35,0.515c-0.131,0.164 -0.268,0.324 -0.412,0.479c-0.155,0.155 -0.32,0.303 -0.497,0.443c-0.176,0.141 -0.361,0.268 -0.555,0.381c-0.194,0.113 -0.398,0.206 -0.613,0.278c-0.215,0.071 -0.433,0.113 -0.654,0.125c-0.286,0.018 -0.564,-0.027 -0.833,-0.134c-0.268,-0.108 -0.48,-0.287 -0.635,-0.538c-0.114,-0.185 -0.182,-0.385 -0.206,-0.6c-0.024,-0.214 -0.018,-0.432 0.018,-0.653c0.035,-0.221 0.095,-0.437 0.179,-0.649c0.083,-0.212 0.176,-0.408 0.277,-0.587c0.108,-0.191 0.232,-0.382 0.372,-0.573c0.14,-0.191 0.295,-0.369 0.466,-0.533c0.17,-0.164 0.352,-0.31 0.546,-0.439c0.194,-0.128 0.398,-0.228 0.613,-0.3c0.245,-0.077 0.496,-0.091 0.752,-0.04c0.257,0.051 0.469,0.181 0.636,0.39c0.161,0.209 0.24,0.431 0.237,0.667c-0.003,0.236 -0.058,0.464 -0.165,0.685c-0.108,0.221 -0.251,0.424 -0.43,0.609c-0.179,0.185 -0.361,0.331 -0.546,0.438c-0.341,0.192 -0.684,0.292 -1.03,0.3c-0.346,0.009 -0.69,-0.052 -1.03,-0.183c-0.048,0.119 -0.085,0.239 -0.112,0.358c-0.027,0.119 -0.037,0.233 -0.031,0.34c0.006,0.108 0.03,0.209 0.072,0.305c0.041,0.095 0.11,0.176 0.205,0.242Zm1.568,-1.863c0.047,-0.03 0.11,-0.082 0.188,-0.157c0.077,-0.074 0.155,-0.158 0.232,-0.25c0.078,-0.093 0.148,-0.193 0.211,-0.3c0.062,-0.108 0.106,-0.212 0.13,-0.314c0.024,-0.101 0.024,-0.195 0,-0.282c-0.024,-0.086 -0.087,-0.157 -0.188,-0.21c-0.066,-0.036 -0.136,-0.052 -0.211,-0.05c-0.074,0.003 -0.148,0.017 -0.219,0.041c-0.072,0.024 -0.141,0.055 -0.206,0.094c-0.066,0.039 -0.126,0.076 -0.179,0.112c-0.281,0.191 -0.526,0.415 -0.735,0.671c-0.208,0.257 -0.382,0.529 -0.519,0.815c0.251,0.09 0.506,0.121 0.766,0.094c0.259,-0.027 0.503,-0.115 0.73,-0.264Z"
                  style="fill-opacity:0.462745;fill-rule:nonzero;"/>
            <path d="M67.439,19.679c0.108,-0.185 0.218,-0.387 0.332,-0.605c0.113,-0.217 0.219,-0.434 0.318,-0.649c0.098,-0.215 0.185,-0.419 0.259,-0.613c0.075,-0.194 0.13,-0.354 0.166,-0.479c-0.078,-0.072 -0.124,-0.154 -0.139,-0.246c-0.015,-0.093 -0.004,-0.186 0.031,-0.278c0.036,-0.093 0.092,-0.181 0.166,-0.264c0.075,-0.084 0.16,-0.149 0.255,-0.197c0.096,-0.042 0.191,-0.06 0.287,-0.054c0.095,0.006 0.179,0.033 0.251,0.081c0.071,0.047 0.123,0.112 0.156,0.192c0.033,0.081 0.041,0.172 0.023,0.273c0.161,0.048 0.319,0.102 0.474,0.161c0.156,0.06 0.293,0.136 0.412,0.229c0.12,0.092 0.209,0.206 0.269,0.34c0.06,0.134 0.077,0.297 0.054,0.488c-0.018,0.143 -0.054,0.287 -0.108,0.43c-0.054,0.143 -0.116,0.282 -0.188,0.416c-0.072,0.135 -0.146,0.267 -0.224,0.399c-0.077,0.131 -0.152,0.259 -0.224,0.385c-0.077,0.137 -0.153,0.276 -0.228,0.416c-0.075,0.14 -0.136,0.285 -0.184,0.434c-0.053,0.162 -0.071,0.272 -0.053,0.332c0.018,0.059 0.058,0.088 0.121,0.085c0.062,-0.003 0.138,-0.03 0.228,-0.081c0.089,-0.05 0.179,-0.11 0.269,-0.179c0.089,-0.068 0.171,-0.136 0.246,-0.201c0.074,-0.066 0.13,-0.114 0.165,-0.144c0.251,-0.238 0.477,-0.477 0.677,-0.716c0.2,-0.239 0.389,-0.486 0.568,-0.743c0.036,-0.048 0.07,-0.075 0.103,-0.081c0.033,-0.006 0.061,0.002 0.085,0.023c0.024,0.021 0.04,0.05 0.049,0.089c0.009,0.039 0.005,0.076 -0.013,0.112c-0.048,0.114 -0.119,0.249 -0.215,0.408c-0.095,0.158 -0.204,0.325 -0.327,0.501c-0.122,0.176 -0.256,0.354 -0.403,0.533c-0.146,0.179 -0.294,0.343 -0.443,0.492c-0.149,0.15 -0.297,0.276 -0.443,0.381c-0.146,0.104 -0.282,0.171 -0.408,0.201c-0.179,0.048 -0.334,0.045 -0.465,-0.009c-0.132,-0.053 -0.235,-0.137 -0.309,-0.25c-0.075,-0.114 -0.123,-0.248 -0.143,-0.403c-0.021,-0.156 -0.014,-0.311 0.022,-0.466c0.06,-0.251 0.146,-0.494 0.26,-0.73c0.113,-0.236 0.229,-0.47 0.349,-0.703c0.036,-0.077 0.083,-0.165 0.143,-0.264c0.06,-0.098 0.114,-0.198 0.161,-0.3c0.048,-0.101 0.087,-0.198 0.117,-0.291c0.03,-0.092 0.036,-0.165 0.018,-0.219c-0.03,-0.078 -0.112,-0.137 -0.247,-0.179c-0.134,-0.042 -0.312,-0.096 -0.532,-0.161c-0.102,0.161 -0.211,0.341 -0.327,0.541c-0.117,0.2 -0.241,0.403 -0.372,0.609c-0.131,0.206 -0.263,0.406 -0.394,0.6c-0.131,0.194 -0.26,0.366 -0.385,0.515c-0.054,0.066 -0.11,0.116 -0.17,0.152c-0.06,0.036 -0.109,0.051 -0.148,0.045c-0.039,-0.006 -0.057,-0.037 -0.054,-0.094c0.003,-0.057 0.041,-0.145 0.112,-0.264Z"
                  style="fill-opacity:0.462745;fill-rule:nonzero;"/>
            <path d="M71.791,20.87c0.078,0.077 0.187,0.091 0.327,0.04c0.14,-0.051 0.296,-0.142 0.466,-0.273c0.17,-0.131 0.346,-0.287 0.528,-0.466c0.182,-0.179 0.352,-0.355 0.51,-0.528c0.159,-0.173 0.297,-0.328 0.417,-0.466c0.119,-0.137 0.2,-0.232 0.242,-0.286c0.035,-0.036 0.067,-0.055 0.094,-0.058c0.026,-0.003 0.049,0.006 0.067,0.027c0.018,0.02 0.03,0.047 0.036,0.08c0.006,0.033 0,0.064 -0.018,0.094c-0.036,0.072 -0.085,0.151 -0.148,0.237c-0.063,0.087 -0.121,0.163 -0.175,0.229c-0.227,0.274 -0.45,0.55 -0.671,0.828c-0.221,0.278 -0.441,0.519 -0.658,0.725c-0.218,0.206 -0.441,0.354 -0.668,0.444c-0.226,0.089 -0.459,0.083 -0.698,-0.018c-0.227,-0.096 -0.375,-0.232 -0.443,-0.408c-0.069,-0.176 -0.091,-0.367 -0.067,-0.573c0.024,-0.206 0.079,-0.412 0.165,-0.618c0.087,-0.206 0.175,-0.386 0.264,-0.541c0.102,-0.185 0.226,-0.371 0.372,-0.556c0.146,-0.185 0.288,-0.368 0.425,-0.55c0.138,-0.182 0.262,-0.361 0.372,-0.538c0.11,-0.176 0.184,-0.347 0.219,-0.514c0.024,-0.126 0.081,-0.211 0.171,-0.256c0.089,-0.044 0.18,-0.056 0.273,-0.035c0.092,0.02 0.17,0.07 0.232,0.147c0.063,0.078 0.083,0.176 0.059,0.296c-0.036,0.149 -0.097,0.301 -0.184,0.456c-0.086,0.156 -0.182,0.308 -0.286,0.457c-0.105,0.149 -0.211,0.294 -0.318,0.434c-0.108,0.141 -0.203,0.274 -0.287,0.399c-0.066,0.095 -0.149,0.225 -0.251,0.389c-0.101,0.165 -0.194,0.336 -0.277,0.515c-0.084,0.179 -0.14,0.35 -0.17,0.511c-0.03,0.161 -0.003,0.286 0.08,0.376Zm1.46,-4.988c0,-0.125 0.043,-0.231 0.13,-0.318c0.086,-0.086 0.192,-0.13 0.318,-0.13c0.125,0 0.231,0.044 0.317,0.13c0.087,0.087 0.13,0.193 0.13,0.318c0,0.126 -0.043,0.231 -0.13,0.318c-0.086,0.087 -0.192,0.13 -0.317,0.13c-0.126,0 -0.232,-0.043 -0.318,-0.13c-0.087,-0.087 -0.13,-0.192 -0.13,-0.318Z"
                  style="fill-opacity:0.462745;fill-rule:nonzero;"/>
            <path d="M74.845,20.718c0.143,0.101 0.3,0.161 0.47,0.179c0.17,0.018 0.342,0.007 0.515,-0.032c0.173,-0.038 0.341,-0.094 0.506,-0.165c0.164,-0.072 0.315,-0.147 0.452,-0.224c0.304,-0.173 0.58,-0.367 0.828,-0.582c0.248,-0.215 0.473,-0.445 0.676,-0.69c0.042,-0.047 0.088,-0.107 0.139,-0.179c0.051,-0.071 0.091,-0.122 0.121,-0.152c0.048,-0.048 0.097,-0.061 0.148,-0.04c0.05,0.021 0.076,0.067 0.076,0.138c0,0.06 -0.027,0.133 -0.081,0.22c-0.054,0.086 -0.095,0.154 -0.125,0.201c-0.102,0.179 -0.218,0.351 -0.349,0.515c-0.132,0.164 -0.269,0.324 -0.412,0.479c-0.156,0.155 -0.321,0.303 -0.497,0.443c-0.176,0.141 -0.361,0.268 -0.555,0.381c-0.194,0.113 -0.399,0.206 -0.614,0.278c-0.215,0.071 -0.433,0.113 -0.654,0.125c-0.286,0.018 -0.564,-0.027 -0.832,-0.134c-0.269,-0.108 -0.481,-0.287 -0.636,-0.538c-0.113,-0.185 -0.182,-0.385 -0.206,-0.6c-0.024,-0.214 -0.018,-0.432 0.018,-0.653c0.036,-0.221 0.095,-0.437 0.179,-0.649c0.084,-0.212 0.176,-0.408 0.278,-0.587c0.107,-0.191 0.231,-0.382 0.371,-0.573c0.14,-0.191 0.296,-0.369 0.466,-0.533c0.17,-0.164 0.352,-0.31 0.546,-0.439c0.194,-0.128 0.399,-0.228 0.613,-0.3c0.245,-0.077 0.496,-0.091 0.753,-0.04c0.256,0.051 0.468,0.181 0.635,0.39c0.162,0.209 0.241,0.431 0.238,0.667c-0.003,0.236 -0.059,0.464 -0.166,0.685c-0.107,0.221 -0.251,0.424 -0.43,0.609c-0.179,0.185 -0.361,0.331 -0.546,0.438c-0.34,0.192 -0.684,0.292 -1.03,0.3c-0.346,0.009 -0.689,-0.052 -1.03,-0.183c-0.047,0.119 -0.085,0.239 -0.112,0.358c-0.026,0.119 -0.037,0.233 -0.031,0.34c0.006,0.108 0.03,0.209 0.072,0.305c0.042,0.095 0.11,0.176 0.206,0.242Zm1.567,-1.863c0.048,-0.03 0.11,-0.082 0.188,-0.157c0.077,-0.074 0.155,-0.158 0.233,-0.25c0.077,-0.093 0.147,-0.193 0.21,-0.3c0.063,-0.108 0.106,-0.212 0.13,-0.314c0.024,-0.101 0.024,-0.195 0,-0.282c-0.024,-0.086 -0.087,-0.157 -0.188,-0.21c-0.066,-0.036 -0.136,-0.052 -0.211,-0.05c-0.074,0.003 -0.147,0.017 -0.219,0.041c-0.072,0.024 -0.14,0.055 -0.206,0.094c-0.066,0.039 -0.125,0.076 -0.179,0.112c-0.281,0.191 -0.525,0.415 -0.734,0.671c-0.209,0.257 -0.382,0.529 -0.52,0.815c0.251,0.09 0.506,0.121 0.766,0.094c0.26,-0.027 0.503,-0.115 0.73,-0.264Z"
                  style="fill-opacity:0.462745;fill-rule:nonzero;"/>
        </g>
    </g>
    <g id="Description"
       transform="matrix(1,0,0,1,2,3.82776)">
        <g transform="matrix(1.32907,0,0,0.780697,-30.4155,-18.4561)">
            <path d="M153.063,63.926c0,-1.611 -0.768,-2.919 -1.714,-2.919l-124.492,0c-0.947,0 -1.715,1.308 -1.715,2.919l0,13.601c0,1.611 0.768,2.919 1.715,2.919l124.492,0c0.946,0 1.714,-1.308 1.714,-2.919l0,-13.601Z"/>
        </g>
        <g id="Description--Art-Text-"
           serif:id="Description (Art Text)"
           transform="matrix(1,0,0,1,-11.9182,-23.5515)">
            <path d="M30.295,63.142l1.907,-5.661l-1.361,0l-0.722,2.419c-0.193,0.647 -0.37,1.319 -0.512,1.999l-0.026,0c-0.134,-0.705 -0.31,-1.352 -0.504,-2.024l-0.688,-2.394l-1.403,0l1.814,5.661l1.495,0Z"
                  style="fill:#fff;fill-rule:nonzero;"/>
            <path d="M35.68,57.388c-1.663,0 -2.781,1.21 -2.781,2.966c0,1.696 1.042,2.881 2.672,2.881c1.52,0 2.772,-1.033 2.772,-2.932c0,-1.655 -0.95,-2.915 -2.663,-2.915Zm-0.051,1.017c0.941,0 1.361,0.957 1.361,1.915c0,1.025 -0.462,1.898 -1.369,1.898c-0.882,0 -1.369,-0.84 -1.369,-1.898c0,-1.05 0.479,-1.915 1.377,-1.915Z"
                  style="fill:#fff;fill-rule:nonzero;"/>
            <path d="M39.603,63.142l3.536,0l0,-1.075l-2.251,0l0,-4.586l-1.285,0l0,5.661Z"
                  style="fill:#fff;fill-rule:nonzero;"/>
            <path d="M44.533,63.142l1.286,0l0,-4.586l1.545,0l0,-1.075l-4.351,0l0,1.075l1.52,0l0,4.586Z"
                  style="fill:#fff;fill-rule:nonzero;"/>
            <path d="M50.8,61.689l0.437,1.453l1.377,0l-1.755,-5.661l-1.68,0l-1.731,5.661l1.327,0l0.404,-1.453l1.621,0Zm-1.437,-0.957l0.336,-1.202c0.093,-0.327 0.177,-0.756 0.261,-1.092l0.017,0c0.084,0.336 0.184,0.756 0.285,1.092l0.353,1.202l-1.252,0Z"
                  style="fill:#fff;fill-rule:nonzero;"/>
            <path d="M58.309,59.9l-2.108,0l0,1l0.874,0l0,1.184c-0.101,0.05 -0.336,0.084 -0.63,0.084c-1.05,0 -1.781,-0.689 -1.781,-1.856c0,-1.227 0.806,-1.832 1.873,-1.832c0.622,0 1.008,0.11 1.319,0.244l0.269,-1.025c-0.278,-0.134 -0.84,-0.277 -1.571,-0.277c-1.857,0 -3.226,1.075 -3.234,2.957c-0.009,0.831 0.277,1.571 0.798,2.058c0.521,0.504 1.268,0.764 2.301,0.764c0.748,0 1.496,-0.185 1.89,-0.319l0,-2.982Z"
                  style="fill:#fff;fill-rule:nonzero;"/>
            <path d="M63.097,59.707l-2.083,0l0,-1.176l2.209,0l0,-1.05l-3.494,0l0,5.661l3.612,0l0,-1.05l-2.327,0l0,-1.344l2.083,0l0,-1.041Z"
                  style="fill:#fff;fill-rule:nonzero;"/>
            <path d="M70.716,61.983c-0.252,0.101 -0.68,0.185 -1.067,0.185c-1.142,0 -1.814,-0.714 -1.814,-1.848c0,-1.26 0.79,-1.873 1.806,-1.873c0.454,0 0.815,0.101 1.075,0.21l0.261,-1.017c-0.227,-0.117 -0.731,-0.243 -1.395,-0.243c-1.713,0 -3.091,1.067 -3.091,2.999c0,1.612 1.008,2.839 2.965,2.839c0.689,0 1.218,-0.135 1.453,-0.252l-0.193,-1Z"
                  style="fill:#fff;fill-rule:nonzero;"/>
            <path d="M74.437,57.388c-1.663,0 -2.78,1.21 -2.78,2.966c0,1.696 1.042,2.881 2.671,2.881c1.521,0 2.772,-1.033 2.772,-2.932c0,-1.655 -0.949,-2.915 -2.663,-2.915Zm-0.05,1.017c0.941,0 1.361,0.957 1.361,1.915c0,1.025 -0.462,1.898 -1.369,1.898c-0.882,0 -1.37,-0.84 -1.37,-1.898c0,-1.05 0.479,-1.915 1.378,-1.915Z"
                  style="fill:#fff;fill-rule:nonzero;"/>
            <path d="M79.536,63.142l0,-1.705c0,-0.924 -0.017,-1.722 -0.05,-2.469l0.025,-0.009c0.277,0.664 0.647,1.395 0.983,1.999l1.209,2.184l1.344,0l0,-5.661l-1.176,0l0,1.646c0,0.857 0.026,1.621 0.11,2.369l-0.026,0c-0.252,-0.638 -0.588,-1.344 -0.924,-1.94l-1.176,-2.075l-1.495,0l0,5.661l1.176,0Z"
                  style="fill:#fff;fill-rule:nonzero;"/>
            <path d="M85.668,63.142l1.285,0l0,-4.586l1.546,0l0,-1.075l-4.351,0l0,1.075l1.52,0l0,4.586Z"
                  style="fill:#fff;fill-rule:nonzero;"/>
            <path d="M89.599,63.142l1.269,0l0,-2.226l0.386,0c0.521,0.009 0.765,0.202 0.916,0.908c0.168,0.697 0.302,1.159 0.395,1.318l1.31,0c-0.109,-0.218 -0.286,-0.957 -0.462,-1.596c-0.143,-0.52 -0.361,-0.898 -0.756,-1.058l0,-0.025c0.487,-0.177 1,-0.672 1,-1.395c0,-0.52 -0.185,-0.915 -0.521,-1.184c-0.403,-0.319 -0.991,-0.445 -1.831,-0.445c-0.681,0 -1.294,0.05 -1.706,0.117l0,5.586Zm1.269,-4.712c0.092,-0.017 0.269,-0.042 0.579,-0.042c0.588,0.008 0.941,0.269 0.941,0.79c0,0.495 -0.378,0.814 -1.016,0.814l-0.504,0l0,-1.562Z"
                  style="fill:#fff;fill-rule:nonzero;"/>
            <path d="M97.487,57.388c-1.663,0 -2.78,1.21 -2.78,2.966c0,1.696 1.041,2.881 2.671,2.881c1.52,0 2.772,-1.033 2.772,-2.932c0,-1.655 -0.949,-2.915 -2.663,-2.915Zm-0.05,1.017c0.94,0 1.36,0.957 1.36,1.915c0,1.025 -0.462,1.898 -1.369,1.898c-0.882,0 -1.369,-0.84 -1.369,-1.898c0,-1.05 0.479,-1.915 1.378,-1.915Z"
                  style="fill:#fff;fill-rule:nonzero;"/>
            <path d="M101.41,63.142l3.536,0l0,-1.075l-2.251,0l0,-4.586l-1.285,0l0,5.661Z"
                  style="fill:#fff;fill-rule:nonzero;"/>
            <path d="M106.122,63.142l3.537,0l0,-1.075l-2.252,0l0,-4.586l-1.285,0l0,5.661Z"
                  style="fill:#fff;fill-rule:nonzero;"/>
            <path d="M114.203,59.707l-2.083,0l0,-1.176l2.209,0l0,-1.05l-3.494,0l0,5.661l3.612,0l0,-1.05l-2.327,0l0,-1.344l2.083,0l0,-1.041Z"
                  style="fill:#fff;fill-rule:nonzero;"/>
            <path d="M115.74,63.117c0.319,0.042 0.79,0.084 1.453,0.084c1.109,0 2.016,-0.235 2.613,-0.731c0.546,-0.462 0.941,-1.209 0.941,-2.293c0,-0.999 -0.37,-1.697 -0.958,-2.133c-0.546,-0.412 -1.243,-0.605 -2.318,-0.605c-0.647,0 -1.26,0.042 -1.731,0.117l0,5.561Zm1.285,-4.645c0.11,-0.025 0.294,-0.05 0.58,-0.05c1.1,0 1.789,0.621 1.781,1.797c0,1.353 -0.756,1.991 -1.915,1.983c-0.16,0 -0.336,0 -0.446,-0.026l0,-3.704Z"
                  style="fill:#fff;fill-rule:nonzero;"/>
            <path d="M128.995,63.142l1.252,0l-0.311,-5.661l-1.671,0l-0.605,1.881c-0.193,0.63 -0.378,1.403 -0.538,2.058l-0.025,0c-0.126,-0.663 -0.294,-1.402 -0.479,-2.049l-0.554,-1.89l-1.705,0l-0.362,5.661l1.185,0l0.101,-2.15c0.042,-0.706 0.067,-1.579 0.1,-2.344l0.017,0c0.135,0.74 0.328,1.546 0.513,2.218l0.596,2.184l1.008,0l0.689,-2.201c0.21,-0.655 0.453,-1.478 0.63,-2.201l0.025,0c0,0.824 0.025,1.647 0.05,2.327l0.084,2.167Z"
                  style="fill:#fff;fill-rule:nonzero;"/>
            <path d="M131.431,62.882c0.32,0.176 0.958,0.353 1.605,0.353c1.554,0 2.285,-0.815 2.285,-1.764c0,-0.798 -0.471,-1.319 -1.47,-1.689c-0.731,-0.277 -1.05,-0.436 -1.05,-0.798c0,-0.294 0.268,-0.546 0.823,-0.546c0.554,0 0.957,0.16 1.184,0.269l0.286,-1.033c-0.336,-0.151 -0.807,-0.277 -1.445,-0.277c-1.336,0 -2.142,0.731 -2.142,1.697c0,0.823 0.613,1.344 1.554,1.671c0.68,0.244 0.949,0.445 0.949,0.798c0,0.37 -0.311,0.613 -0.899,0.613c-0.546,0 -1.075,-0.176 -1.419,-0.352l-0.261,1.058Z"
                  style="fill:#fff;fill-rule:nonzero;"/>
            <path d="M140.277,63.142l0,-1.05l-2.058,0l0,-0.016l0.504,-0.42c0.789,-0.706 1.453,-1.437 1.453,-2.352c0,-0.992 -0.681,-1.714 -1.915,-1.714c-0.74,0 -1.378,0.252 -1.79,0.563l0.362,0.915c0.285,-0.218 0.697,-0.453 1.167,-0.453c0.63,0 0.899,0.353 0.899,0.798c-0.017,0.638 -0.596,1.251 -1.789,2.318l-0.706,0.639l0,0.772l3.873,0Z"
                  style="fill:#fff;fill-rule:nonzero;"/>
            <path d="M143.485,57.59c-1.411,0 -2.083,1.252 -2.083,2.831c0.009,1.545 0.63,2.814 2.041,2.814c1.395,0 2.075,-1.159 2.075,-2.848c0,-1.495 -0.571,-2.797 -2.033,-2.797Zm-0.016,0.966c0.512,0 0.772,0.638 0.772,1.848c0,1.243 -0.268,1.865 -0.764,1.865c-0.496,0 -0.798,-0.597 -0.79,-1.848c-0.008,-1.269 0.311,-1.865 0.782,-1.865Z"
                  style="fill:#fff;fill-rule:nonzero;"/>
            <path d="M148.887,63.142l1.285,0l0,-2.276l2.033,0l0,-1.042l-2.033,0l0,-1.293l2.175,0l0,-1.05l-3.46,0l0,5.661Z"
                  style="fill:#fff;fill-rule:nonzero;"/>
            <rect x="153.733"
                  y="57.481"
                  width="1.285"
                  height="5.662"
                  style="fill:#fff;fill-rule:nonzero;"/>
            <path d="M156.547,63.142l3.537,0l0,-1.075l-2.251,0l0,-4.586l-1.286,0l0,5.661Z"
                  style="fill:#fff;fill-rule:nonzero;"/>
            <path d="M161.478,63.142l1.285,0l0,-4.586l1.546,0l0,-1.075l-4.351,0l0,1.075l1.52,0l0,4.586Z"
                  style="fill:#fff;fill-rule:nonzero;"/>
            <path d="M168.778,59.707l-2.083,0l0,-1.176l2.209,0l0,-1.05l-3.495,0l0,5.661l3.612,0l0,-1.05l-2.326,0l0,-1.344l2.083,0l0,-1.041Z"
                  style="fill:#fff;fill-rule:nonzero;"/>
            <path d="M170.315,63.142l1.268,0l0,-2.226l0.387,0c0.521,0.009 0.764,0.202 0.915,0.908c0.168,0.697 0.303,1.159 0.395,1.318l1.311,0c-0.11,-0.218 -0.286,-0.957 -0.462,-1.596c-0.143,-0.52 -0.362,-0.898 -0.756,-1.058l0,-0.025c0.487,-0.177 0.999,-0.672 0.999,-1.395c0,-0.52 -0.185,-0.915 -0.521,-1.184c-0.403,-0.319 -0.991,-0.445 -1.831,-0.445c-0.68,0 -1.293,0.05 -1.705,0.117l0,5.586Zm1.268,-4.712c0.093,-0.017 0.269,-0.042 0.58,-0.042c0.588,0.008 0.941,0.269 0.941,0.79c0,0.495 -0.378,0.814 -1.017,0.814l-0.504,0l0,-1.562Z"
                  style="fill:#fff;fill-rule:nonzero;"/>
        </g>
    </g>
</svg>
