<?xml version="1.0" encoding="UTF-8" standalone="no"?>
<!DOCTYPE svg PUBLIC "-//W3C//DTD SVG 1.1//EN" "http://www.w3.org/Graphics/SVG/1.1/DTD/svg11.dtd">
<svg xmlns:xlink="http://www.w3.org/1999/xlink"
     xmlns:serif="http://www.serif.com/"
     width="105px"
     height="380px"
     version="1.1"
     xmlns="http://www.w3.org/2000/svg"
     xml:space="preserve"
     style="fill-rule:evenodd;clip-rule:evenodd;stroke-miterlimit:10;">
    <g id="Panel"
       transform="matrix(1.4,0,0,1,-7.10543e-15,0)">
        <rect x="0"
              y="0"
              width="75"
              height="380"
              style="fill:#fff;"/>
    </g>
    <g transform="matrix(0.474034,0,0,1,38.7372,3.21777)">
        <rect x="72.299"
              y="60.454"
              width="4.707"
              height="150.676"/>
    </g>
    <g id="Controls"
       transform="matrix(1,0,0,1,5.29747,35.7891)">
        <g id="ScaleSmall"
           transform="matrix(0.720434,0,0,0.720434,-24.8669,0.345226)">
            <g id="Big_1_"
               transform="matrix(0.410551,0,0,0.410551,76.6225,53.479)">
                <path d="M129.99,118.265l0,-60.683"
                      style="fill:none;stroke:#000;stroke-width:1.5px;"/>
                <path d="M165.49,93.105l-71,0"
                      style="fill:none;stroke:#000;stroke-width:1.5px;"/>
                <path d="M99.247,110.867l61.488,-35.523"
                      style="fill:none;stroke:#000;stroke-width:1.5px;"/>
                <path d="M112.24,123.872l35.5,-61.53"
                      style="fill:none;stroke:#000;stroke-width:1.5px;"/>
                <path d="M160.735,110.867l-61.488,-35.523"
                      style="fill:none;stroke:#000;stroke-width:1.5px;"/>
                <path d="M147.74,123.872l-35.5,-61.53"
                      style="fill:none;stroke:#000;stroke-width:1.5px;"/>
            </g>
            <g id="InnerCircle_1_"
               transform="matrix(0.745435,0,0,0.745435,33.1524,21.6828)">
                <path d="M117.435,116.771c-8.587,-4.523 -14.444,-13.541 -14.444,-23.928c0,-14.922 12.089,-27.018 27,-27.018c14.91,0 27,12.096 27,27.018c0,10.35 -5.814,19.338 -14.349,23.876"
                      style="fill:#f9f9f9;stroke:#000;stroke-width:2.08px;"/>
            </g>
        </g>
        <g id="ScaleSmall1"
           serif:id="ScaleSmall"
           transform="matrix(0.720434,0,0,0.720434,-24.8669,105.345)">
            <g id="Big_1_1"
               serif:id="Big_1_"
               transform="matrix(0.410551,0,0,0.410551,76.6225,53.479)">
                <path d="M129.99,118.265l0,-60.683"
                      style="fill:none;stroke:#000;stroke-width:1.5px;"/>
                <path d="M165.49,93.105l-71,0"
                      style="fill:none;stroke:#000;stroke-width:1.5px;"/>
                <path d="M99.247,110.867l61.488,-35.523"
                      style="fill:none;stroke:#000;stroke-width:1.5px;"/>
                <path d="M112.24,123.872l35.5,-61.53"
                      style="fill:none;stroke:#000;stroke-width:1.5px;"/>
                <path d="M160.735,110.867l-61.488,-35.523"
                      style="fill:none;stroke:#000;stroke-width:1.5px;"/>
                <path d="M147.74,123.872l-35.5,-61.53"
                      style="fill:none;stroke:#000;stroke-width:1.5px;"/>
            </g>
            <g id="InnerCircle_1_1"
               serif:id="InnerCircle_1_"
               transform="matrix(0.745435,0,0,0.745435,33.1524,21.6828)">
                <path d="M117.435,116.771c-8.587,-4.523 -14.444,-13.541 -14.444,-23.928c0,-14.922 12.089,-27.018 27,-27.018c14.91,0 27,12.096 27,27.018c0,10.35 -5.814,19.338 -14.349,23.876"
                      style="fill:#f9f9f9;stroke:#000;stroke-width:2.08px;"/>
            </g>
        </g>
        <g id="ScaleSmall2"
           serif:id="ScaleSmall"
           transform="matrix(0.720434,0,0,0.720434,-24.8669,153.446)">
            <g id="Big_1_2"
               serif:id="Big_1_"
               transform="matrix(0.410551,0,0,0.410551,76.6225,53.479)">
                <path d="M129.99,118.265l0,-60.683"
                      style="fill:none;stroke:#000;stroke-width:1.5px;"/>
                <path d="M165.49,93.105l-71,0"
                      style="fill:none;stroke:#000;stroke-width:1.5px;"/>
                <path d="M99.247,110.867l61.488,-35.523"
                      style="fill:none;stroke:#000;stroke-width:1.5px;"/>
                <path d="M112.24,123.872l35.5,-61.53"
                      style="fill:none;stroke:#000;stroke-width:1.5px;"/>
                <path d="M160.735,110.867l-61.488,-35.523"
                      style="fill:none;stroke:#000;stroke-width:1.5px;"/>
                <path d="M147.74,123.872l-35.5,-61.53"
                      style="fill:none;stroke:#000;stroke-width:1.5px;"/>
            </g>
            <g id="InnerCircle_1_2"
               serif:id="InnerCircle_1_"
               transform="matrix(0.745435,0,0,0.745435,33.1524,21.6828)">
                <path d="M117.435,116.771c-8.587,-4.523 -14.444,-13.541 -14.444,-23.928c0,-14.922 12.089,-27.018 27,-27.018c14.91,0 27,12.096 27,27.018c0,10.35 -5.814,19.338 -14.349,23.876"
                      style="fill:#f9f9f9;stroke:#000;stroke-width:2.08px;"/>
            </g>
        </g>
        <g id="ScaleSmall3"
           serif:id="ScaleSmall"
           transform="matrix(0.720434,0,0,0.720434,-67.661,217.345)">
            <g id="Big_1_3"
               serif:id="Big_1_"
               transform="matrix(0.410551,0,0,0.410551,76.6225,53.479)">
                <path d="M129.99,118.265l0,-60.683"
                      style="fill:none;stroke:#000;stroke-width:1.5px;"/>
                <path d="M165.49,93.105l-71,0"
                      style="fill:none;stroke:#000;stroke-width:1.5px;"/>
                <path d="M99.247,110.867l61.488,-35.523"
                      style="fill:none;stroke:#000;stroke-width:1.5px;"/>
                <path d="M112.24,123.872l35.5,-61.53"
                      style="fill:none;stroke:#000;stroke-width:1.5px;"/>
                <path d="M160.735,110.867l-61.488,-35.523"
                      style="fill:none;stroke:#000;stroke-width:1.5px;"/>
                <path d="M147.74,123.872l-35.5,-61.53"
                      style="fill:none;stroke:#000;stroke-width:1.5px;"/>
            </g>
            <g id="InnerCircle_1_3"
               serif:id="InnerCircle_1_"
               transform="matrix(0.745435,0,0,0.745435,33.1524,21.6828)">
                <path d="M117.435,116.771c-8.587,-4.523 -14.444,-13.541 -14.444,-23.928c0,-14.922 12.089,-27.018 27,-27.018c14.91,0 27,12.096 27,27.018c0,10.35 -5.814,19.338 -14.349,23.876"
                      style="fill:#f9f9f9;stroke:#000;stroke-width:2.08px;"/>
            </g>
        </g>
        <g id="ScaleSmall4"
           serif:id="ScaleSmall"
           transform="matrix(0.720434,0,0,0.720434,-24.8669,70.3452)">
            <g id="Big_1_4"
               serif:id="Big_1_"
               transform="matrix(0.410551,0,0,0.410551,76.6225,53.479)">
                <path d="M129.99,118.265l0,-60.683"
                      style="fill:none;stroke:#000;stroke-width:1.5px;"/>
                <path d="M165.49,93.105l-71,0"
                      style="fill:none;stroke:#000;stroke-width:1.5px;"/>
                <path d="M99.247,110.867l61.488,-35.523"
                      style="fill:none;stroke:#000;stroke-width:1.5px;"/>
                <path d="M112.24,123.872l35.5,-61.53"
                      style="fill:none;stroke:#000;stroke-width:1.5px;"/>
                <path d="M160.735,110.867l-61.488,-35.523"
                      style="fill:none;stroke:#000;stroke-width:1.5px;"/>
                <path d="M147.74,123.872l-35.5,-61.53"
                      style="fill:none;stroke:#000;stroke-width:1.5px;"/>
            </g>
            <g id="InnerCircle_1_4"
               serif:id="InnerCircle_1_"
               transform="matrix(0.745435,0,0,0.745435,33.1524,21.6828)">
                <path d="M117.435,116.771c-8.587,-4.523 -14.444,-13.541 -14.444,-23.928c0,-14.922 12.089,-27.018 27,-27.018c14.91,0 27,12.096 27,27.018c0,10.35 -5.814,19.338 -14.349,23.876"
                      style="fill:#f9f9f9;stroke:#000;stroke-width:2.08px;"/>
            </g>
        </g>
        <g id="ScaleSmall5"
           serif:id="ScaleSmall"
           transform="matrix(0.720434,0,0,0.720434,-24.8669,35.3452)">
            <g id="Big_1_5"
               serif:id="Big_1_"
               transform="matrix(0.410551,0,0,0.410551,76.6225,53.479)">
                <path d="M129.99,118.265l0,-60.683"
                      style="fill:none;stroke:#000;stroke-width:1.5px;"/>
                <path d="M165.49,93.105l-71,0"
                      style="fill:none;stroke:#000;stroke-width:1.5px;"/>
                <path d="M99.247,110.867l61.488,-35.523"
                      style="fill:none;stroke:#000;stroke-width:1.5px;"/>
                <path d="M112.24,123.872l35.5,-61.53"
                      style="fill:none;stroke:#000;stroke-width:1.5px;"/>
                <path d="M160.735,110.867l-61.488,-35.523"
                      style="fill:none;stroke:#000;stroke-width:1.5px;"/>
                <path d="M147.74,123.872l-35.5,-61.53"
                      style="fill:none;stroke:#000;stroke-width:1.5px;"/>
            </g>
            <g id="InnerCircle_1_5"
               serif:id="InnerCircle_1_"
               transform="matrix(0.745435,0,0,0.745435,33.1524,21.6828)">
                <path d="M117.435,116.771c-8.587,-4.523 -14.444,-13.541 -14.444,-23.928c0,-14.922 12.089,-27.018 27,-27.018c14.91,0 27,12.096 27,27.018c0,10.35 -5.814,19.338 -14.349,23.876"
                      style="fill:#f9f9f9;stroke:#000;stroke-width:2.08px;"/>
            </g>
        </g>
        <g id="ScaleSmall6"
           serif:id="ScaleSmall"
           transform="matrix(0.720434,0,0,0.720434,-24.8669,-34.6548)">
            <g id="Big_1_6"
               serif:id="Big_1_"
               transform="matrix(0.410551,0,0,0.410551,76.6225,53.479)">
                <path d="M129.99,118.265l0,-60.683"
                      style="fill:none;stroke:#000;stroke-width:1.5px;"/>
                <path d="M165.49,93.105l-71,0"
                      style="fill:none;stroke:#000;stroke-width:1.5px;"/>
                <path d="M99.247,110.867l61.488,-35.523"
                      style="fill:none;stroke:#000;stroke-width:1.5px;"/>
                <path d="M112.24,123.872l35.5,-61.53"
                      style="fill:none;stroke:#000;stroke-width:1.5px;"/>
                <path d="M160.735,110.867l-61.488,-35.523"
                      style="fill:none;stroke:#000;stroke-width:1.5px;"/>
                <path d="M147.74,123.872l-35.5,-61.53"
                      style="fill:none;stroke:#000;stroke-width:1.5px;"/>
            </g>
            <g id="InnerCircle_1_6"
               serif:id="InnerCircle_1_"
               transform="matrix(0.745435,0,0,0.745435,33.1524,21.6828)">
                <path d="M117.435,116.771c-8.587,-4.523 -14.444,-13.541 -14.444,-23.928c0,-14.922 12.089,-27.018 27,-27.018c14.91,0 27,12.096 27,27.018c0,10.35 -5.814,19.338 -14.349,23.876"
                      style="fill:#f9f9f9;stroke:#000;stroke-width:2.08px;"/>
            </g>
        </g>
    </g>
    <g id="Description"
       transform="matrix(1,0,0,1,-3.89421,-22.7183)">
        <path d="M30.182,63.142l-1.472,0l-1.8,-5.328l1.376,0l1.16,4.056l1.16,-4.056l1.376,0l-1.8,5.328Z"
              style="fill-rule:nonzero;stroke:#000;stroke-width:0.3px;stroke-linejoin:round;stroke-miterlimit:1.41421;"/>
        <path d="M35.438,57.718c0.278,0 0.556,0.027 0.836,0.08c0.28,0.054 0.522,0.131 0.724,0.232l-0.192,0.968c-0.16,-0.064 -0.342,-0.118 -0.548,-0.164c-0.205,-0.045 -0.409,-0.068 -0.612,-0.068c-0.544,0 -0.973,0.142 -1.288,0.424c-0.314,0.283 -0.472,0.712 -0.472,1.288c0,0.576 0.158,1.006 0.472,1.288c0.315,0.283 0.744,0.424 1.288,0.424c0.203,0 0.407,-0.022 0.612,-0.068c0.206,-0.045 0.388,-0.1 0.548,-0.164l0.192,0.968c-0.202,0.102 -0.444,0.179 -0.724,0.232c-0.28,0.054 -0.558,0.08 -0.836,0.08c-0.469,0 -0.882,-0.069 -1.24,-0.208c-0.357,-0.138 -0.656,-0.33 -0.896,-0.576c-0.24,-0.245 -0.421,-0.536 -0.544,-0.872c-0.122,-0.336 -0.184,-0.704 -0.184,-1.104c0,-0.4 0.062,-0.768 0.184,-1.104c0.123,-0.336 0.304,-0.626 0.544,-0.872c0.24,-0.245 0.539,-0.437 0.896,-0.576c0.358,-0.138 0.771,-0.208 1.24,-0.208Z"
              style="fill-rule:nonzero;stroke:#000;stroke-width:0.3px;stroke-linejoin:round;stroke-miterlimit:1.41421;"/>
        <path d="M43.926,62.294l-1.264,0l-1.04,-2.136l-0.16,2.984l-1.288,0l0.4,-5.328l1.184,0l1.536,3.256l1.536,-3.256l1.184,0l0.4,5.328l-1.288,0l-0.16,-2.984l-1.04,2.136Z"
              style="fill-rule:nonzero;stroke:#000;stroke-width:0.3px;stroke-linejoin:round;stroke-miterlimit:1.41421;"/>
        <rect x="47.71"
              y="57.814"
              width="1.312"
              height="5.328"
              style="fill-rule:nonzero;stroke:#000;stroke-width:0.3px;stroke-linejoin:round;stroke-miterlimit:1.41421;"/>
        <path d="M53.27,60.462l1.8,2.68l-1.4,0l-1.072,-1.704l-1.072,1.704l-1.4,0l1.8,-2.68l-1.768,-2.648l1.392,0l1.048,1.664l1.048,-1.664l1.392,0l-1.768,2.648Z"
              style="fill-rule:nonzero;stroke:#000;stroke-width:0.3px;stroke-linejoin:round;stroke-miterlimit:1.41421;"/>
        <path d="M56.134,57.814l3.32,0l0,1.04l-2.008,0l0,1.072l1.912,0l0,1.04l-1.912,0l0,1.136l2.032,0l0,1.04l-3.344,0l0,-5.328Z"
              style="fill-rule:nonzero;stroke:#000;stroke-width:0.3px;stroke-linejoin:round;stroke-miterlimit:1.41421;"/>
        <path d="M64.798,59.502c0,0.358 -0.1,0.67 -0.3,0.936c-0.2,0.267 -0.478,0.47 -0.836,0.608l1.752,2.096l-1.616,0l-1.464,-1.848l-0.24,0l0,1.848l-1.312,0l0,-5.328l1.696,0c0.331,0 0.638,0.035 0.92,0.104c0.283,0.07 0.528,0.174 0.736,0.312c0.208,0.139 0.371,0.314 0.488,0.524c0.118,0.211 0.176,0.46 0.176,0.748Zm-1.264,0.024c0,-0.24 -0.093,-0.417 -0.28,-0.532c-0.186,-0.114 -0.448,-0.172 -0.784,-0.172l-0.376,0l0,1.496l0.32,0c0.352,0 0.627,-0.069 0.824,-0.208c0.198,-0.138 0.296,-0.333 0.296,-0.584Z"
              style="fill-rule:nonzero;stroke:#000;stroke-width:0.3px;stroke-linejoin:round;stroke-miterlimit:1.41421;"/>
        <path d="M71.71,62.11l-2.04,0l-0.328,1.032l-1.352,0l1.984,-5.328l1.44,0l1.984,5.328l-1.352,0l-0.336,-1.032Zm-1.704,-1.04l1.368,0l-0.68,-2.248l-0.688,2.248Z"
              style="fill-rule:nonzero;stroke:#000;stroke-width:0.3px;stroke-linejoin:round;stroke-miterlimit:1.41421;"/>
        <path d="M77.982,62.294l-1.264,0l-1.04,-2.136l-0.16,2.984l-1.288,0l0.4,-5.328l1.184,0l1.536,3.256l1.536,-3.256l1.184,0l0.4,5.328l-1.288,0l-0.16,-2.984l-1.04,2.136Z"
              style="fill-rule:nonzero;stroke:#000;stroke-width:0.3px;stroke-linejoin:round;stroke-miterlimit:1.41421;"/>
        <path d="M85.582,59.55c0,0.283 -0.061,0.536 -0.184,0.76c-0.122,0.224 -0.292,0.412 -0.508,0.564c-0.216,0.152 -0.47,0.268 -0.764,0.348c-0.293,0.08 -0.61,0.12 -0.952,0.12l-0.136,0l0,1.8l-1.312,0l0,-5.328l1.536,0c0.336,0 0.647,0.035 0.932,0.104c0.286,0.07 0.531,0.175 0.736,0.316c0.206,0.142 0.366,0.322 0.48,0.54c0.115,0.219 0.172,0.478 0.172,0.776Zm-1.264,0.008c0,-0.49 -0.349,-0.736 -1.048,-0.736l-0.232,0l0,1.512l0.216,0c0.347,0 0.611,-0.069 0.792,-0.208c0.182,-0.138 0.272,-0.328 0.272,-0.568Z"
              style="fill-rule:nonzero;stroke:#000;stroke-width:0.3px;stroke-linejoin:round;stroke-miterlimit:1.41421;"/>
    </g>
    <g transform="matrix(0.742645,0,0,0.780697,-13.6716,-14.6283)">
        <g id="Description1"
           serif:id="Description">
            <path d="M153.063,63.926c0,-1.611 -1.375,-2.919 -3.068,-2.919l-121.785,0c-1.693,0 -3.068,1.308 -3.068,2.919l0,13.601c0,1.611 1.375,2.919 3.068,2.919l121.785,0c1.693,0 3.068,-1.308 3.068,-2.919l0,-13.601Z"/>
        </g>
    </g>
    <g id="Description--Art-Text-"
       serif:id="Description (Art Text)"
       transform="matrix(1,0,0,1,-3.76801,-19.7957)">
        <path d="M30.295,63.142l1.907,-5.661l-1.361,0l-0.722,2.419c-0.193,0.647 -0.37,1.319 -0.512,1.999l-0.026,0c-0.134,-0.705 -0.31,-1.352 -0.504,-2.024l-0.688,-2.394l-1.403,0l1.814,5.661l1.495,0Z"
              style="fill:#fff;fill-rule:nonzero;"/>
        <path d="M37.125,61.983c-0.252,0.101 -0.681,0.185 -1.067,0.185c-1.143,0 -1.815,-0.714 -1.815,-1.848c0,-1.26 0.79,-1.873 1.806,-1.873c0.454,0 0.815,0.101 1.076,0.21l0.26,-1.017c-0.227,-0.117 -0.731,-0.243 -1.394,-0.243c-1.714,0 -3.092,1.067 -3.092,2.999c0,1.612 1.008,2.839 2.966,2.839c0.688,0 1.218,-0.135 1.453,-0.252l-0.193,-1Z"
              style="fill:#fff;fill-rule:nonzero;"/>
        <path d="M45.567,63.142l1.251,0l-0.311,-5.661l-1.671,0l-0.605,1.881c-0.193,0.63 -0.378,1.403 -0.538,2.058l-0.025,0c-0.126,-0.663 -0.294,-1.402 -0.479,-2.049l-0.554,-1.89l-1.705,0l-0.361,5.661l1.184,0l0.101,-2.15c0.042,-0.706 0.067,-1.579 0.101,-2.344l0.016,0c0.135,0.74 0.328,1.546 0.513,2.218l0.596,2.184l1.008,0l0.689,-2.201c0.21,-0.655 0.454,-1.478 0.63,-2.201l0.025,0c0,0.824 0.025,1.647 0.051,2.327l0.084,2.167Z"
              style="fill:#fff;fill-rule:nonzero;"/>
        <rect x="48.221"
              y="57.481"
              width="1.285"
              height="5.662"
              style="fill:#fff;fill-rule:nonzero;"/>
        <path d="M55.495,63.142l-1.68,-2.898l1.596,-2.763l-1.461,0l-0.479,1.033c-0.143,0.328 -0.252,0.58 -0.386,0.941l-0.017,0c-0.135,-0.319 -0.261,-0.597 -0.429,-0.941l-0.495,-1.033l-1.47,0l1.579,2.797l-1.638,2.864l1.462,0l0.47,-1.024c0.176,-0.395 0.319,-0.689 0.437,-1.017l0.017,0c0.159,0.328 0.294,0.622 0.504,1.017l0.512,1.024l1.478,0Z"
              style="fill:#fff;fill-rule:nonzero;"/>
        <path d="M59.973,59.707l-2.084,0l0,-1.176l2.21,0l0,-1.05l-3.495,0l0,5.661l3.612,0l0,-1.05l-2.327,0l0,-1.344l2.084,0l0,-1.041Z"
              style="fill:#fff;fill-rule:nonzero;"/>
        <path d="M61.51,63.142l1.268,0l0,-2.226l0.387,0c0.52,0.009 0.764,0.202 0.915,0.908c0.168,0.697 0.303,1.159 0.395,1.318l1.31,0c-0.109,-0.218 -0.285,-0.957 -0.462,-1.596c-0.142,-0.52 -0.361,-0.898 -0.756,-1.058l0,-0.025c0.488,-0.177 1,-0.672 1,-1.395c0,-0.52 -0.185,-0.915 -0.521,-1.184c-0.403,-0.319 -0.991,-0.445 -1.831,-0.445c-0.68,0 -1.294,0.05 -1.705,0.117l0,5.586Zm1.268,-4.712c0.093,-0.017 0.269,-0.042 0.58,-0.042c0.588,0.008 0.941,0.269 0.941,0.79c0,0.495 -0.378,0.814 -1.017,0.814l-0.504,0l0,-1.562Z"
              style="fill:#fff;fill-rule:nonzero;"/>
        <path d="M71.968,61.689l0.437,1.453l1.377,0l-1.755,-5.661l-1.68,0l-1.731,5.661l1.327,0l0.404,-1.453l1.621,0Zm-1.437,-0.957l0.336,-1.202c0.093,-0.327 0.177,-0.756 0.261,-1.092l0.017,0c0.084,0.336 0.184,0.756 0.285,1.092l0.353,1.202l-1.252,0Z"
              style="fill:#fff;fill-rule:nonzero;"/>
        <path d="M79.83,63.142l1.252,0l-0.311,-5.661l-1.672,0l-0.604,1.881c-0.194,0.63 -0.378,1.403 -0.538,2.058l-0.025,0c-0.126,-0.663 -0.294,-1.402 -0.479,-2.049l-0.554,-1.89l-1.706,0l-0.361,5.661l1.185,0l0.1,-2.15c0.042,-0.706 0.068,-1.579 0.101,-2.344l0.017,0c0.134,0.74 0.328,1.546 0.512,2.218l0.597,2.184l1.008,0l0.689,-2.201c0.21,-0.655 0.453,-1.478 0.63,-2.201l0.025,0c0,0.824 0.025,1.647 0.05,2.327l0.084,2.167Z"
              style="fill:#fff;fill-rule:nonzero;"/>
        <path d="M82.485,63.142l1.268,0l0,-2.016c0.118,0.009 0.269,0.026 0.445,0.026c0.748,0 1.395,-0.194 1.831,-0.605c0.336,-0.311 0.521,-0.781 0.521,-1.344c0,-0.555 -0.243,-1.025 -0.605,-1.311c-0.378,-0.302 -0.94,-0.453 -1.73,-0.453c-0.764,0 -1.336,0.05 -1.73,0.117l0,5.586Zm1.268,-4.695c0.092,-0.017 0.26,-0.042 0.512,-0.042c0.664,0 1.017,0.311 1.017,0.84c0,0.571 -0.42,0.915 -1.101,0.915c-0.184,0 -0.336,-0.008 -0.428,-0.025l0,-1.688Z"
              style="fill:#fff;fill-rule:nonzero;"/>
    </g>
    <g id="Label"
       transform="matrix(1,0,0,1,7.5,0)">
        <g id="Description2"
           serif:id="Description"
           transform="matrix(1,0,0,1,-9.6616,216.412)">
            <path d="M30.022,57.718c0.24,0 0.491,0.023 0.752,0.068c0.262,0.046 0.48,0.106 0.656,0.18l-0.12,0.568c-0.181,-0.064 -0.376,-0.116 -0.584,-0.156c-0.208,-0.04 -0.413,-0.06 -0.616,-0.06c-0.666,0 -1.186,0.187 -1.56,0.56c-0.373,0.374 -0.56,0.907 -0.56,1.6c0,0.694 0.187,1.227 0.56,1.6c0.374,0.374 0.894,0.56 1.56,0.56c0.203,0 0.408,-0.02 0.616,-0.06c0.208,-0.04 0.403,-0.092 0.584,-0.156l0.12,0.568c-0.176,0.075 -0.394,0.135 -0.656,0.18c-0.261,0.046 -0.512,0.068 -0.752,0.068c-0.437,0 -0.828,-0.069 -1.172,-0.208c-0.344,-0.138 -0.633,-0.33 -0.868,-0.576c-0.234,-0.245 -0.414,-0.536 -0.54,-0.872c-0.125,-0.336 -0.188,-0.704 -0.188,-1.104c0,-0.4 0.063,-0.768 0.188,-1.104c0.126,-0.336 0.306,-0.626 0.54,-0.872c0.235,-0.245 0.524,-0.437 0.868,-0.576c0.344,-0.138 0.735,-0.208 1.172,-0.208Z"
                  style="fill-rule:nonzero;stroke:#000;stroke-width:0.3px;stroke-linejoin:round;stroke-miterlimit:1.41421;"/>
            <path d="M36.166,57.814l0.736,0l-1.912,5.328l-0.768,0l-1.912,-5.328l0.736,0l1.56,4.456l1.56,-4.456Z"
                  style="fill-rule:nonzero;stroke:#000;stroke-width:0.3px;stroke-linejoin:round;stroke-miterlimit:1.41421;"/>
        </g>
        <g id="Shapes">
            <g id="Description3"
               serif:id="Description"
               transform="matrix(1,0,0,1,53.982,203.234)">
                <path d="M27.42,59.146l2.136,0l0,0.336l-1.728,0l0,1.446l1.656,0l0,0.336l-1.656,0l0,1.542l1.746,0l0,0.336l-2.154,0l0,-3.996Z"
                      style="fill-rule:nonzero;stroke:#000;stroke-width:0.3px;stroke-linejoin:round;stroke-miterlimit:1.41421;"/>
                <path d="M33.108,59.146l0.45,0l-1.338,1.986l1.362,2.01l-0.456,0l-1.116,-1.692l-1.116,1.692l-0.456,0l1.362,-2.01l-1.338,-1.986l0.45,0l1.098,1.662l1.098,-1.662Z"
                      style="fill-rule:nonzero;stroke:#000;stroke-width:0.3px;stroke-linejoin:round;stroke-miterlimit:1.41421;"/>
                <path d="M36.942,60.286c0,0.192 -0.04,0.364 -0.12,0.516c-0.08,0.152 -0.191,0.28 -0.333,0.384c-0.142,0.104 -0.31,0.184 -0.504,0.24c-0.194,0.056 -0.407,0.084 -0.639,0.084l-0.348,0l0,1.632l-0.408,0l0,-3.996l0.894,0c0.2,0 0.389,0.024 0.567,0.072c0.178,0.048 0.333,0.12 0.465,0.216c0.132,0.096 0.236,0.215 0.312,0.357c0.076,0.142 0.114,0.307 0.114,0.495Zm-0.408,0c0,-0.144 -0.029,-0.267 -0.087,-0.369c-0.058,-0.102 -0.137,-0.185 -0.237,-0.249c-0.1,-0.064 -0.214,-0.111 -0.342,-0.141c-0.128,-0.03 -0.262,-0.045 -0.402,-0.045l-0.468,0l0,1.692l0.366,0c0.168,0 0.324,-0.02 0.468,-0.06c0.144,-0.04 0.268,-0.097 0.372,-0.171c0.104,-0.074 0.185,-0.166 0.243,-0.276c0.058,-0.11 0.087,-0.237 0.087,-0.381Z"
                      style="fill-rule:nonzero;stroke:#000;stroke-width:0.3px;stroke-linejoin:round;stroke-miterlimit:1.41421;"/>
            </g>
            <g id="Description4"
               serif:id="Description"
               transform="matrix(1,0,0,1,14.3408,203.306)">
                <path d="M27.828,59.146l0,3.66l1.686,0l0,0.336l-2.094,0l0,-3.996l0.408,0Z"
                      style="fill-rule:nonzero;stroke:#000;stroke-width:0.3px;stroke-linejoin:round;stroke-miterlimit:1.41421;"/>
                <path d="M32.028,63.214c-0.304,0 -0.575,-0.056 -0.813,-0.168c-0.238,-0.112 -0.438,-0.263 -0.6,-0.453c-0.162,-0.19 -0.286,-0.41 -0.372,-0.66c-0.086,-0.25 -0.129,-0.513 -0.129,-0.789c0,-0.276 0.043,-0.539 0.129,-0.789c0.086,-0.25 0.21,-0.47 0.372,-0.66c0.162,-0.19 0.362,-0.341 0.6,-0.453c0.238,-0.112 0.509,-0.168 0.813,-0.168c0.304,0 0.575,0.056 0.813,0.168c0.238,0.112 0.438,0.263 0.6,0.453c0.162,0.19 0.286,0.41 0.372,0.66c0.086,0.25 0.129,0.513 0.129,0.789c0,0.276 -0.043,0.539 -0.129,0.789c-0.086,0.25 -0.21,0.47 -0.372,0.66c-0.162,0.19 -0.362,0.341 -0.6,0.453c-0.238,0.112 -0.509,0.168 -0.813,0.168Zm0,-0.336c0.24,0 0.453,-0.046 0.639,-0.138c0.186,-0.092 0.344,-0.216 0.474,-0.372c0.13,-0.156 0.228,-0.339 0.294,-0.549c0.066,-0.21 0.099,-0.435 0.099,-0.675c0,-0.236 -0.033,-0.459 -0.099,-0.669c-0.066,-0.21 -0.164,-0.394 -0.294,-0.552c-0.13,-0.158 -0.288,-0.283 -0.474,-0.375c-0.186,-0.092 -0.399,-0.138 -0.639,-0.138c-0.24,0 -0.453,0.046 -0.639,0.138c-0.186,0.092 -0.343,0.217 -0.471,0.375c-0.128,0.158 -0.226,0.342 -0.294,0.552c-0.068,0.21 -0.102,0.433 -0.102,0.669c0,0.24 0.034,0.465 0.102,0.675c0.068,0.21 0.166,0.393 0.294,0.549c0.128,0.156 0.285,0.28 0.471,0.372c0.186,0.092 0.399,0.138 0.639,0.138Z"
                      style="fill-rule:nonzero;stroke:#000;stroke-width:0.3px;stroke-linejoin:round;stroke-miterlimit:1.41421;"/>
                <path d="M36.9,59.074c0.216,0 0.424,0.017 0.624,0.051c0.2,0.034 0.384,0.091 0.552,0.171l-0.072,0.33c-0.164,-0.068 -0.34,-0.121 -0.528,-0.159c-0.188,-0.038 -0.378,-0.057 -0.57,-0.057c-0.26,0 -0.495,0.039 -0.705,0.117c-0.21,0.078 -0.39,0.193 -0.54,0.345c-0.15,0.152 -0.266,0.338 -0.348,0.558c-0.082,0.22 -0.123,0.472 -0.123,0.756c0,0.536 0.147,0.953 0.441,1.251c0.294,0.298 0.721,0.447 1.281,0.447c0.128,0 0.271,-0.01 0.429,-0.03c0.158,-0.02 0.289,-0.046 0.393,-0.078l0,-1.356l0.378,0l0,1.59c-0.16,0.064 -0.354,0.114 -0.582,0.15c-0.228,0.036 -0.45,0.054 -0.666,0.054c-0.324,0 -0.614,-0.049 -0.87,-0.147c-0.256,-0.098 -0.474,-0.236 -0.654,-0.414c-0.18,-0.178 -0.318,-0.392 -0.414,-0.642c-0.096,-0.25 -0.144,-0.525 -0.144,-0.825c0,-0.32 0.049,-0.61 0.147,-0.87c0.098,-0.26 0.239,-0.482 0.423,-0.666c0.184,-0.184 0.407,-0.326 0.669,-0.426c0.262,-0.1 0.555,-0.15 0.879,-0.15Z"
                      style="fill-rule:nonzero;stroke:#000;stroke-width:0.3px;stroke-linejoin:round;stroke-miterlimit:1.41421;"/>
            </g>
            <g id="Description5"
               serif:id="Description"
               transform="matrix(1,0,0,1,35.049,174.078)">
                <path d="M27.828,59.146l0,3.66l1.686,0l0,0.336l-2.094,0l0,-3.996l0.408,0Z"
                      style="fill-rule:nonzero;stroke:#000;stroke-width:0.3px;stroke-linejoin:round;stroke-miterlimit:1.41421;"/>
                <rect x="30.498"
                      y="59.146"
                      width="0.408"
                      height="3.996"
                      style="fill-rule:nonzero;stroke:#000;stroke-width:0.3px;stroke-linejoin:round;stroke-miterlimit:1.41421;"/>
                <path d="M35.016,63.142l-2.37,-3.342l0,3.342l-0.39,0l0,-3.996l0.39,0l2.37,3.342l0,-3.342l0.39,0l0,3.996l-0.39,0Z"
                      style="fill-rule:nonzero;stroke:#000;stroke-width:0.3px;stroke-linejoin:round;stroke-miterlimit:1.41421;"/>
            </g>
        </g>
        <g id="Description6"
           serif:id="Description"
           transform="matrix(1,0,0,1,28.3,216.412)">
            <path d="M30.622,61.758c0,0.23 -0.049,0.435 -0.148,0.616c-0.098,0.182 -0.232,0.336 -0.4,0.464c-0.168,0.128 -0.365,0.227 -0.592,0.296c-0.226,0.07 -0.47,0.104 -0.732,0.104c-0.256,0 -0.518,-0.026 -0.788,-0.08c-0.269,-0.053 -0.516,-0.133 -0.74,-0.24l0.144,-0.584c0.198,0.091 0.415,0.166 0.652,0.224c0.238,0.059 0.476,0.088 0.716,0.088c0.347,0 0.627,-0.073 0.84,-0.22c0.214,-0.146 0.32,-0.358 0.32,-0.636c0,-0.154 -0.03,-0.286 -0.092,-0.396c-0.061,-0.109 -0.145,-0.208 -0.252,-0.296c-0.106,-0.088 -0.23,-0.166 -0.372,-0.236c-0.141,-0.069 -0.292,-0.141 -0.452,-0.216c-0.181,-0.085 -0.356,-0.174 -0.524,-0.268c-0.168,-0.093 -0.316,-0.2 -0.444,-0.32c-0.128,-0.12 -0.23,-0.256 -0.308,-0.408c-0.077,-0.152 -0.116,-0.329 -0.116,-0.532c0,-0.229 0.042,-0.432 0.124,-0.608c0.083,-0.176 0.199,-0.322 0.348,-0.44c0.15,-0.117 0.328,-0.205 0.536,-0.264c0.208,-0.058 0.438,-0.088 0.688,-0.088c0.256,0 0.506,0.03 0.748,0.088c0.243,0.059 0.455,0.136 0.636,0.232l-0.136,0.584c-0.17,-0.09 -0.365,-0.165 -0.584,-0.224c-0.218,-0.058 -0.44,-0.088 -0.664,-0.088c-0.645,0 -0.968,0.251 -0.968,0.752c0,0.112 0.016,0.21 0.048,0.292c0.032,0.083 0.084,0.16 0.156,0.232c0.072,0.072 0.168,0.142 0.288,0.208c0.12,0.067 0.266,0.143 0.436,0.228c0.171,0.086 0.352,0.178 0.544,0.276c0.192,0.099 0.368,0.216 0.528,0.352c0.16,0.136 0.294,0.295 0.4,0.476c0.107,0.182 0.16,0.392 0.16,0.632Z"
                  style="fill-rule:nonzero;stroke:#000;stroke-width:0.3px;stroke-linejoin:round;stroke-miterlimit:1.41421;"/>
            <path d="M35.422,63.142l0,-2.392l-2.728,0l0,2.392l-0.736,0l0,-5.328l0.736,0l0,2.312l2.728,0l0,-2.312l0.736,0l0,5.328l-0.736,0Z"
                  style="fill-rule:nonzero;stroke:#000;stroke-width:0.3px;stroke-linejoin:round;stroke-miterlimit:1.41421;"/>
            <path d="M42.382,63.142l-0.752,0l-0.488,-1.288l-2.488,0l-0.48,1.288l-0.752,0l2.12,-5.328l0.72,0l2.12,5.328Zm-3.504,-1.88l2.048,0l-1.024,-2.776l-1.024,2.776Z"
                  style="fill-rule:nonzero;stroke:#000;stroke-width:0.3px;stroke-linejoin:round;stroke-miterlimit:1.41421;"/>
            <path d="M46.974,59.374c0,0.256 -0.056,0.487 -0.168,0.692c-0.112,0.206 -0.268,0.38 -0.468,0.524c-0.2,0.144 -0.436,0.255 -0.708,0.332c-0.272,0.078 -0.565,0.116 -0.88,0.116l-0.368,0l0,2.104l-0.736,0l0,-5.328l1.288,0c0.288,0 0.556,0.032 0.804,0.096c0.248,0.064 0.464,0.162 0.648,0.292c0.184,0.131 0.328,0.294 0.432,0.488c0.104,0.195 0.156,0.423 0.156,0.684Zm-0.736,-0.008c0,-0.176 -0.034,-0.324 -0.104,-0.444c-0.069,-0.12 -0.164,-0.218 -0.284,-0.296c-0.12,-0.077 -0.261,-0.133 -0.424,-0.168c-0.162,-0.034 -0.334,-0.052 -0.516,-0.052l-0.528,0l0,2.04l0.392,0c0.214,0 0.41,-0.024 0.588,-0.072c0.179,-0.048 0.334,-0.118 0.464,-0.212c0.131,-0.093 0.232,-0.206 0.304,-0.34c0.072,-0.133 0.108,-0.285 0.108,-0.456Z"
                  style="fill-rule:nonzero;stroke:#000;stroke-width:0.3px;stroke-linejoin:round;stroke-miterlimit:1.41421;"/>
            <path d="M48.11,57.814l2.968,0l0,0.6l-2.232,0l0,1.704l2.136,0l0,0.6l-2.136,0l0,1.824l2.256,0l0,0.6l-2.992,0l0,-5.328Z"
                  style="fill-rule:nonzero;stroke:#000;stroke-width:0.3px;stroke-linejoin:round;stroke-miterlimit:1.41421;"/>
        </g>
        <g id="Description7"
           serif:id="Description"
           transform="matrix(1,0,0,1,32.292,281.412)">
            <path d="M29.87,63.238c-0.416,0 -0.786,-0.074 -1.112,-0.224c-0.325,-0.149 -0.597,-0.349 -0.816,-0.6c-0.218,-0.25 -0.385,-0.544 -0.5,-0.88c-0.114,-0.336 -0.172,-0.688 -0.172,-1.056c0,-0.368 0.058,-0.72 0.172,-1.056c0.115,-0.336 0.282,-0.629 0.5,-0.88c0.219,-0.25 0.491,-0.45 0.816,-0.6c0.326,-0.149 0.696,-0.224 1.112,-0.224c0.416,0 0.787,0.075 1.112,0.224c0.326,0.15 0.598,0.35 0.816,0.6c0.219,0.251 0.386,0.544 0.5,0.88c0.115,0.336 0.172,0.688 0.172,1.056c0,0.368 -0.057,0.72 -0.172,1.056c-0.114,0.336 -0.281,0.63 -0.5,0.88c-0.218,0.251 -0.49,0.451 -0.816,0.6c-0.325,0.15 -0.696,0.224 -1.112,0.224Zm0,-0.592c0.304,0 0.574,-0.056 0.808,-0.168c0.235,-0.112 0.43,-0.266 0.584,-0.464c0.155,-0.197 0.272,-0.428 0.352,-0.692c0.08,-0.264 0.12,-0.545 0.12,-0.844c0,-0.298 -0.04,-0.58 -0.12,-0.844c-0.08,-0.264 -0.197,-0.493 -0.352,-0.688c-0.154,-0.194 -0.349,-0.349 -0.584,-0.464c-0.234,-0.114 -0.504,-0.172 -0.808,-0.172c-0.304,0 -0.573,0.058 -0.808,0.172c-0.234,0.115 -0.429,0.27 -0.584,0.464c-0.154,0.195 -0.272,0.424 -0.352,0.688c-0.08,0.264 -0.12,0.546 -0.12,0.844c0,0.299 0.04,0.58 0.12,0.844c0.08,0.264 0.198,0.495 0.352,0.692c0.155,0.198 0.35,0.352 0.584,0.464c0.235,0.112 0.504,0.168 0.808,0.168Z"
                  style="fill-rule:nonzero;stroke:#000;stroke-width:0.3px;stroke-linejoin:round;stroke-miterlimit:1.41421;"/>
            <path d="M37.278,57.814l0.736,0l0,3.44c0,0.278 -0.045,0.538 -0.136,0.78c-0.09,0.243 -0.224,0.454 -0.4,0.632c-0.176,0.179 -0.393,0.319 -0.652,0.42c-0.258,0.102 -0.558,0.152 -0.9,0.152c-0.341,0 -0.641,-0.05 -0.9,-0.152c-0.258,-0.101 -0.476,-0.241 -0.652,-0.42c-0.176,-0.178 -0.309,-0.389 -0.4,-0.632c-0.09,-0.242 -0.136,-0.502 -0.136,-0.78l0,-3.44l0.736,0l0,3.472c0,0.4 0.114,0.726 0.34,0.976c0.227,0.251 0.564,0.376 1.012,0.376c0.448,0 0.786,-0.125 1.012,-0.376c0.227,-0.25 0.34,-0.576 0.34,-0.976l0,-3.472Z"
                  style="fill-rule:nonzero;stroke:#000;stroke-width:0.3px;stroke-linejoin:round;stroke-miterlimit:1.41421;"/>
            <path d="M43.07,57.814l0,0.6l-1.568,0l0,4.728l-0.736,0l0,-4.728l-1.568,0l0,-0.6l3.872,0Z"
                  style="fill-rule:nonzero;stroke:#000;stroke-width:0.3px;stroke-linejoin:round;stroke-miterlimit:1.41421;"/>
        </g>
        <g id="Description8"
           serif:id="Description"
           transform="matrix(1,0,0,1,-19.7,281.412)">
            <path d="M32.118,57.814l0.664,0l0.384,5.328l-0.704,0l-0.256,-4.152l-1.536,3.192l-0.752,0l-1.536,-3.192l-0.256,4.152l-0.704,0l0.384,-5.328l0.664,0l1.824,3.768l1.824,-3.768Z"
                  style="fill-rule:nonzero;stroke:#000;stroke-width:0.3px;stroke-linejoin:round;stroke-miterlimit:1.41421;"/>
            <path d="M39.262,63.142l-0.752,0l-0.488,-1.288l-2.488,0l-0.48,1.288l-0.752,0l2.12,-5.328l0.72,0l2.12,5.328Zm-3.504,-1.88l2.048,0l-1.024,-2.776l-1.024,2.776Z"
                  style="fill-rule:nonzero;stroke:#000;stroke-width:0.3px;stroke-linejoin:round;stroke-miterlimit:1.41421;"/>
            <path d="M43.598,61.758c0,0.23 -0.049,0.435 -0.148,0.616c-0.098,0.182 -0.232,0.336 -0.4,0.464c-0.168,0.128 -0.365,0.227 -0.592,0.296c-0.226,0.07 -0.47,0.104 -0.732,0.104c-0.256,0 -0.518,-0.026 -0.788,-0.08c-0.269,-0.053 -0.516,-0.133 -0.74,-0.24l0.144,-0.584c0.198,0.091 0.415,0.166 0.652,0.224c0.238,0.059 0.476,0.088 0.716,0.088c0.347,0 0.627,-0.073 0.84,-0.22c0.214,-0.146 0.32,-0.358 0.32,-0.636c0,-0.154 -0.03,-0.286 -0.092,-0.396c-0.061,-0.109 -0.145,-0.208 -0.252,-0.296c-0.106,-0.088 -0.23,-0.166 -0.372,-0.236c-0.141,-0.069 -0.292,-0.141 -0.452,-0.216c-0.181,-0.085 -0.356,-0.174 -0.524,-0.268c-0.168,-0.093 -0.316,-0.2 -0.444,-0.32c-0.128,-0.12 -0.23,-0.256 -0.308,-0.408c-0.077,-0.152 -0.116,-0.329 -0.116,-0.532c0,-0.229 0.042,-0.432 0.124,-0.608c0.083,-0.176 0.199,-0.322 0.348,-0.44c0.15,-0.117 0.328,-0.205 0.536,-0.264c0.208,-0.058 0.438,-0.088 0.688,-0.088c0.256,0 0.506,0.03 0.748,0.088c0.243,0.059 0.455,0.136 0.636,0.232l-0.136,0.584c-0.17,-0.09 -0.365,-0.165 -0.584,-0.224c-0.218,-0.058 -0.44,-0.088 -0.664,-0.088c-0.645,0 -0.968,0.251 -0.968,0.752c0,0.112 0.016,0.21 0.048,0.292c0.032,0.083 0.084,0.16 0.156,0.232c0.072,0.072 0.168,0.142 0.288,0.208c0.12,0.067 0.266,0.143 0.436,0.228c0.171,0.086 0.352,0.178 0.544,0.276c0.192,0.099 0.368,0.216 0.528,0.352c0.16,0.136 0.294,0.295 0.4,0.476c0.107,0.182 0.16,0.392 0.16,0.632Z"
                  style="fill-rule:nonzero;stroke:#000;stroke-width:0.3px;stroke-linejoin:round;stroke-miterlimit:1.41421;"/>
            <path d="M48.342,57.814l0,0.6l-1.568,0l0,4.728l-0.736,0l0,-4.728l-1.568,0l0,-0.6l3.872,0Z"
                  style="fill-rule:nonzero;stroke:#000;stroke-width:0.3px;stroke-linejoin:round;stroke-miterlimit:1.41421;"/>
            <path d="M49.558,57.814l2.968,0l0,0.6l-2.232,0l0,1.704l2.136,0l0,0.6l-2.136,0l0,1.824l2.256,0l0,0.6l-2.992,0l0,-5.328Z"
                  style="fill-rule:nonzero;stroke:#000;stroke-width:0.3px;stroke-linejoin:round;stroke-miterlimit:1.41421;"/>
            <path d="M54.774,63.142l-0.736,0l0,-5.328l1.384,0c0.288,0 0.556,0.032 0.804,0.096c0.248,0.064 0.466,0.159 0.652,0.284c0.187,0.126 0.334,0.283 0.44,0.472c0.107,0.19 0.16,0.407 0.16,0.652c0,0.368 -0.118,0.688 -0.356,0.96c-0.237,0.272 -0.569,0.47 -0.996,0.592l1.88,2.272l-0.904,0l-1.736,-2.144c-0.026,0 -0.066,0.002 -0.12,0.004c-0.053,0.003 -0.109,0.004 -0.168,0.004l-0.304,0l0,2.136Zm1.968,-3.808c0,-0.165 -0.036,-0.308 -0.108,-0.428c-0.072,-0.12 -0.169,-0.216 -0.292,-0.288c-0.122,-0.072 -0.264,-0.125 -0.424,-0.16c-0.16,-0.034 -0.328,-0.052 -0.504,-0.052l-0.64,0l0,2.008l0.368,0c0.224,0 0.434,-0.021 0.628,-0.064c0.195,-0.042 0.364,-0.108 0.508,-0.196c0.144,-0.088 0.258,-0.2 0.34,-0.336c0.083,-0.136 0.124,-0.297 0.124,-0.484Z"
                  style="fill-rule:nonzero;stroke:#000;stroke-width:0.3px;stroke-linejoin:round;stroke-miterlimit:1.41421;"/>
        </g>
    </g>
    <g transform="matrix(0.751532,0,0,0.751532,16.4612,6.20346)">
        <g id="Name">
            <path d="M24.468,21.485l-5.678,-15.032l2.133,0l4.652,12.31l4.489,-12.31l1.868,0l-5.454,15.032l-2.01,0Z"
                  style="fill-rule:nonzero;stroke:#000;stroke-width:0.27px;stroke-linejoin:round;stroke-miterlimit:1.41421;"/>
            <path d="M40.403,21.86c-2.336,0 -4.141,-0.685 -5.414,-2.056c-1.273,-1.371 -1.909,-3.313 -1.909,-5.825c0,-2.505 0.648,-4.448 1.945,-5.829c1.297,-1.382 3.123,-2.072 5.479,-2.072c1.348,0 2.925,0.22 4.733,0.66l0,2.001c-2.058,-0.711 -3.646,-1.067 -4.763,-1.067c-1.632,0 -2.895,0.552 -3.789,1.656c-0.893,1.103 -1.34,2.661 -1.34,4.672c0,1.916 0.477,3.427 1.432,4.534c0.955,1.107 2.258,1.661 3.91,1.661c1.422,0 2.945,-0.437 4.57,-1.31l0,1.828c-1.482,0.765 -3.101,1.147 -4.854,1.147Z"
                  style="fill-rule:nonzero;stroke:#000;stroke-width:0.27px;stroke-linejoin:round;stroke-miterlimit:1.41421;"/>
            <path d="M48.355,21.485l0,-15.032l2.955,0l4.165,11.629l4.285,-11.629l2.641,0l0,15.032l-1.991,0l0,-12.228l-4.143,11.222l-2.062,0l-4.022,-11.253l0,12.259l-1.828,0Z"
                  style="fill-rule:nonzero;stroke:#000;stroke-width:0.27px;stroke-linejoin:round;stroke-miterlimit:1.41421;"/>
            <path d="M73.888,15.736l-2.56,-6.479l-2.569,6.479l5.129,0Zm2.255,5.749l-1.636,-4.164l-6.368,0l-1.655,4.164l-1.981,0l5.962,-15.032l2.113,0l5.87,15.032l-2.305,0Z"
                  style="fill-rule:nonzero;stroke:#000;stroke-width:0.27px;stroke-linejoin:round;stroke-miterlimit:1.41421;"/>
        </g>
    </g>
    <g transform="matrix(1.4997,0,0,0.398134,-3.84855,167.213)">
        <rect x="7.571"
              y="312.715"
              width="60.012"
              height="2.512"
              style="fill:#0a1250;fill-opacity:0.529412;"/>
    </g>
    <g transform="matrix(1.4997,0,0,0.398134,-3.84855,102.213)">
        <rect x="7.571"
              y="312.715"
              width="60.012"
              height="2.512"
              style="fill:#0a1250;fill-opacity:0.529412;"/>
    </g>
</svg>
