<?xml version="1.0" encoding="UTF-8" standalone="no"?>
<!DOCTYPE svg PUBLIC "-//W3C//DTD SVG 1.1//EN" "http://www.w3.org/Graphics/SVG/1.1/DTD/svg11.dtd">
<svg xmlns:xlink="http://www.w3.org/1999/xlink"
     xmlns:serif="http://www.serif.com/"
     width="105px"
     height="380px"
     version="1.1"
     xmlns="http://www.w3.org/2000/svg"
     xml:space="preserve"
     style="fill-rule:evenodd;clip-rule:evenodd;stroke-miterlimit:10;">
    <g id="Panel"
       transform="matrix(1.4,0,0,1,-7.10543e-15,0)">
        <rect x="0"
              y="0"
              width="75"
              height="380"
              style="fill:#fff;"/>
    </g>
    <g transform="matrix(0.474034,0,0,1,38.7372,3.21777)">
        <rect x="72.299"
              y="60.454"
              width="4.707"
              height="150.676"/>
    </g>
    <g id="Controls"
       transform="matrix(1,0,0,1,5.29747,35.7891)">
        <g id="ScaleSmall"
           transform="matrix(0.720434,0,0,0.720434,-24.7916,0.0394465)">
            <g id="Big_1_"
               transform="matrix(0.410551,0,0,0.410551,76.6225,53.479)">
                <path d="M129.99,118.265l0,-60.683"
                      style="fill:none;stroke:#000;stroke-width:1.5px;"/>
                <path d="M165.49,93.105l-71,0"
                      style="fill:none;stroke:#000;stroke-width:1.5px;"/>
                <path d="M99.247,110.867l61.488,-35.523"
                      style="fill:none;stroke:#000;stroke-width:1.5px;"/>
                <path d="M112.24,123.872l35.5,-61.53"
                      style="fill:none;stroke:#000;stroke-width:1.5px;"/>
                <path d="M160.735,110.867l-61.488,-35.523"
                      style="fill:none;stroke:#000;stroke-width:1.5px;"/>
                <path d="M147.74,123.872l-35.5,-61.53"
                      style="fill:none;stroke:#000;stroke-width:1.5px;"/>
            </g>
            <g id="InnerCircle_1_"
               transform="matrix(0.745435,0,0,0.745435,33.1524,21.6828)">
                <path d="M117.435,116.771c-8.587,-4.523 -14.444,-13.541 -14.444,-23.928c0,-14.922 12.089,-27.018 27,-27.018c14.91,0 27,12.096 27,27.018c0,10.35 -5.814,19.338 -14.349,23.876"
                      style="fill:#f9f9f9;stroke:#000;stroke-width:2.08px;"/>
            </g>
        </g>
        <g id="ScaleSmall1"
           serif:id="ScaleSmall"
           transform="matrix(0.720434,0,0,0.720434,-24.7916,105.039)">
            <g id="Big_1_1"
               serif:id="Big_1_"
               transform="matrix(0.410551,0,0,0.410551,76.6225,53.479)">
                <path d="M129.99,118.265l0,-60.683"
                      style="fill:none;stroke:#000;stroke-width:1.5px;"/>
                <path d="M165.49,93.105l-71,0"
                      style="fill:none;stroke:#000;stroke-width:1.5px;"/>
                <path d="M99.247,110.867l61.488,-35.523"
                      style="fill:none;stroke:#000;stroke-width:1.5px;"/>
                <path d="M112.24,123.872l35.5,-61.53"
                      style="fill:none;stroke:#000;stroke-width:1.5px;"/>
                <path d="M160.735,110.867l-61.488,-35.523"
                      style="fill:none;stroke:#000;stroke-width:1.5px;"/>
                <path d="M147.74,123.872l-35.5,-61.53"
                      style="fill:none;stroke:#000;stroke-width:1.5px;"/>
            </g>
            <g id="InnerCircle_1_1"
               serif:id="InnerCircle_1_"
               transform="matrix(0.745435,0,0,0.745435,33.1524,21.6828)">
                <path d="M117.435,116.771c-8.587,-4.523 -14.444,-13.541 -14.444,-23.928c0,-14.922 12.089,-27.018 27,-27.018c14.91,0 27,12.096 27,27.018c0,10.35 -5.814,19.338 -14.349,23.876"
                      style="fill:#f9f9f9;stroke:#000;stroke-width:2.08px;"/>
            </g>
        </g>
        <g id="ScaleSmall2"
           serif:id="ScaleSmall"
           transform="matrix(0.720434,0,0,0.720434,-24.3974,153.14)">
            <g id="Big_1_2"
               serif:id="Big_1_"
               transform="matrix(0.410551,0,0,0.410551,76.6225,53.479)">
                <path d="M129.99,118.265l0,-60.683"
                      style="fill:none;stroke:#000;stroke-width:1.5px;"/>
                <path d="M165.49,93.105l-71,0"
                      style="fill:none;stroke:#000;stroke-width:1.5px;"/>
                <path d="M99.247,110.867l61.488,-35.523"
                      style="fill:none;stroke:#000;stroke-width:1.5px;"/>
                <path d="M112.24,123.872l35.5,-61.53"
                      style="fill:none;stroke:#000;stroke-width:1.5px;"/>
                <path d="M160.735,110.867l-61.488,-35.523"
                      style="fill:none;stroke:#000;stroke-width:1.5px;"/>
                <path d="M147.74,123.872l-35.5,-61.53"
                      style="fill:none;stroke:#000;stroke-width:1.5px;"/>
            </g>
            <g id="InnerCircle_1_2"
               serif:id="InnerCircle_1_"
               transform="matrix(0.745435,0,0,0.745435,33.1524,21.6828)">
                <path d="M117.435,116.771c-8.587,-4.523 -14.444,-13.541 -14.444,-23.928c0,-14.922 12.089,-27.018 27,-27.018c14.91,0 27,12.096 27,27.018c0,10.35 -5.814,19.338 -14.349,23.876"
                      style="fill:#f9f9f9;stroke:#000;stroke-width:2.08px;"/>
            </g>
        </g>
        <g id="ScaleSmall3"
           serif:id="ScaleSmall"
           transform="matrix(0.720434,0,0,0.720434,-68.1916,217.039)">
            <g id="Big_1_3"
               serif:id="Big_1_"
               transform="matrix(0.410551,0,0,0.410551,76.6225,53.479)">
                <path d="M129.99,118.265l0,-60.683"
                      style="fill:none;stroke:#000;stroke-width:1.5px;"/>
                <path d="M165.49,93.105l-71,0"
                      style="fill:none;stroke:#000;stroke-width:1.5px;"/>
                <path d="M99.247,110.867l61.488,-35.523"
                      style="fill:none;stroke:#000;stroke-width:1.5px;"/>
                <path d="M112.24,123.872l35.5,-61.53"
                      style="fill:none;stroke:#000;stroke-width:1.5px;"/>
                <path d="M160.735,110.867l-61.488,-35.523"
                      style="fill:none;stroke:#000;stroke-width:1.5px;"/>
                <path d="M147.74,123.872l-35.5,-61.53"
                      style="fill:none;stroke:#000;stroke-width:1.5px;"/>
            </g>
            <g id="InnerCircle_1_3"
               serif:id="InnerCircle_1_"
               transform="matrix(0.745435,0,0,0.745435,33.1524,21.6828)">
                <path d="M117.435,116.771c-8.587,-4.523 -14.444,-13.541 -14.444,-23.928c0,-14.922 12.089,-27.018 27,-27.018c14.91,0 27,12.096 27,27.018c0,10.35 -5.814,19.338 -14.349,23.876"
                      style="fill:#f9f9f9;stroke:#000;stroke-width:2.08px;"/>
            </g>
        </g>
        <g id="ScaleSmall4"
           serif:id="ScaleSmall"
           transform="matrix(0.720434,0,0,0.720434,-24.7916,70.0394)">
            <g id="Big_1_4"
               serif:id="Big_1_"
               transform="matrix(0.410551,0,0,0.410551,76.6225,53.479)">
                <path d="M129.99,118.265l0,-60.683"
                      style="fill:none;stroke:#000;stroke-width:1.5px;"/>
                <path d="M165.49,93.105l-71,0"
                      style="fill:none;stroke:#000;stroke-width:1.5px;"/>
                <path d="M99.247,110.867l61.488,-35.523"
                      style="fill:none;stroke:#000;stroke-width:1.5px;"/>
                <path d="M112.24,123.872l35.5,-61.53"
                      style="fill:none;stroke:#000;stroke-width:1.5px;"/>
                <path d="M160.735,110.867l-61.488,-35.523"
                      style="fill:none;stroke:#000;stroke-width:1.5px;"/>
                <path d="M147.74,123.872l-35.5,-61.53"
                      style="fill:none;stroke:#000;stroke-width:1.5px;"/>
            </g>
            <g id="InnerCircle_1_4"
               serif:id="InnerCircle_1_"
               transform="matrix(0.745435,0,0,0.745435,33.1524,21.6828)">
                <path d="M117.435,116.771c-8.587,-4.523 -14.444,-13.541 -14.444,-23.928c0,-14.922 12.089,-27.018 27,-27.018c14.91,0 27,12.096 27,27.018c0,10.35 -5.814,19.338 -14.349,23.876"
                      style="fill:#f9f9f9;stroke:#000;stroke-width:2.08px;"/>
            </g>
        </g>
        <g id="ScaleSmall5"
           serif:id="ScaleSmall"
           transform="matrix(0.720434,0,0,0.720434,-24.7916,35.0394)">
            <g id="Big_1_5"
               serif:id="Big_1_"
               transform="matrix(0.410551,0,0,0.410551,76.6225,53.479)">
                <path d="M129.99,118.265l0,-60.683"
                      style="fill:none;stroke:#000;stroke-width:1.5px;"/>
                <path d="M165.49,93.105l-71,0"
                      style="fill:none;stroke:#000;stroke-width:1.5px;"/>
                <path d="M99.247,110.867l61.488,-35.523"
                      style="fill:none;stroke:#000;stroke-width:1.5px;"/>
                <path d="M112.24,123.872l35.5,-61.53"
                      style="fill:none;stroke:#000;stroke-width:1.5px;"/>
                <path d="M160.735,110.867l-61.488,-35.523"
                      style="fill:none;stroke:#000;stroke-width:1.5px;"/>
                <path d="M147.74,123.872l-35.5,-61.53"
                      style="fill:none;stroke:#000;stroke-width:1.5px;"/>
            </g>
            <g id="InnerCircle_1_5"
               serif:id="InnerCircle_1_"
               transform="matrix(0.745435,0,0,0.745435,33.1524,21.6828)">
                <path d="M117.435,116.771c-8.587,-4.523 -14.444,-13.541 -14.444,-23.928c0,-14.922 12.089,-27.018 27,-27.018c14.91,0 27,12.096 27,27.018c0,10.35 -5.814,19.338 -14.349,23.876"
                      style="fill:#f9f9f9;stroke:#000;stroke-width:2.08px;"/>
            </g>
        </g>
        <g id="ScaleSmall6"
           serif:id="ScaleSmall"
           transform="matrix(0.720434,0,0,0.720434,-24.7916,-34.9606)">
            <g id="Big_1_6"
               serif:id="Big_1_"
               transform="matrix(0.410551,0,0,0.410551,76.6225,53.479)">
                <path d="M129.99,118.265l0,-60.683"
                      style="fill:none;stroke:#000;stroke-width:1.5px;"/>
                <path d="M165.49,93.105l-71,0"
                      style="fill:none;stroke:#000;stroke-width:1.5px;"/>
                <path d="M99.247,110.867l61.488,-35.523"
                      style="fill:none;stroke:#000;stroke-width:1.5px;"/>
                <path d="M112.24,123.872l35.5,-61.53"
                      style="fill:none;stroke:#000;stroke-width:1.5px;"/>
                <path d="M160.735,110.867l-61.488,-35.523"
                      style="fill:none;stroke:#000;stroke-width:1.5px;"/>
                <path d="M147.74,123.872l-35.5,-61.53"
                      style="fill:none;stroke:#000;stroke-width:1.5px;"/>
            </g>
            <g id="InnerCircle_1_6"
               serif:id="InnerCircle_1_"
               transform="matrix(0.745435,0,0,0.745435,33.1524,21.6828)">
                <path d="M117.435,116.771c-8.587,-4.523 -14.444,-13.541 -14.444,-23.928c0,-14.922 12.089,-27.018 27,-27.018c14.91,0 27,12.096 27,27.018c0,10.35 -5.814,19.338 -14.349,23.876"
                      style="fill:#f9f9f9;stroke:#000;stroke-width:2.08px;"/>
            </g>
        </g>
    </g>
    <g id="Description"
       transform="matrix(1,0,0,1,-3.89421,-22.7183)">
        <path d="M30.182,63.142l-1.472,0l-1.8,-5.328l1.376,0l1.16,4.056l1.16,-4.056l1.376,0l-1.8,5.328Z"
              style="fill-rule:nonzero;stroke:#000;stroke-width:0.3px;stroke-linejoin:round;stroke-miterlimit:1.41421;"/>
        <path d="M35.438,57.718c0.278,0 0.556,0.027 0.836,0.08c0.28,0.054 0.522,0.131 0.724,0.232l-0.192,0.968c-0.16,-0.064 -0.342,-0.118 -0.548,-0.164c-0.205,-0.045 -0.409,-0.068 -0.612,-0.068c-0.544,0 -0.973,0.142 -1.288,0.424c-0.314,0.283 -0.472,0.712 -0.472,1.288c0,0.576 0.158,1.006 0.472,1.288c0.315,0.283 0.744,0.424 1.288,0.424c0.203,0 0.407,-0.022 0.612,-0.068c0.206,-0.045 0.388,-0.1 0.548,-0.164l0.192,0.968c-0.202,0.102 -0.444,0.179 -0.724,0.232c-0.28,0.054 -0.558,0.08 -0.836,0.08c-0.469,0 -0.882,-0.069 -1.24,-0.208c-0.357,-0.138 -0.656,-0.33 -0.896,-0.576c-0.24,-0.245 -0.421,-0.536 -0.544,-0.872c-0.122,-0.336 -0.184,-0.704 -0.184,-1.104c0,-0.4 0.062,-0.768 0.184,-1.104c0.123,-0.336 0.304,-0.626 0.544,-0.872c0.24,-0.245 0.539,-0.437 0.896,-0.576c0.358,-0.138 0.771,-0.208 1.24,-0.208Z"
              style="fill-rule:nonzero;stroke:#000;stroke-width:0.3px;stroke-linejoin:round;stroke-miterlimit:1.41421;"/>
        <path d="M43.926,62.294l-1.264,0l-1.04,-2.136l-0.16,2.984l-1.288,0l0.4,-5.328l1.184,0l1.536,3.256l1.536,-3.256l1.184,0l0.4,5.328l-1.288,0l-0.16,-2.984l-1.04,2.136Z"
              style="fill-rule:nonzero;stroke:#000;stroke-width:0.3px;stroke-linejoin:round;stroke-miterlimit:1.41421;"/>
        <rect x="47.71"
              y="57.814"
              width="1.312"
              height="5.328"
              style="fill-rule:nonzero;stroke:#000;stroke-width:0.3px;stroke-linejoin:round;stroke-miterlimit:1.41421;"/>
        <path d="M53.27,60.462l1.8,2.68l-1.4,0l-1.072,-1.704l-1.072,1.704l-1.4,0l1.8,-2.68l-1.768,-2.648l1.392,0l1.048,1.664l1.048,-1.664l1.392,0l-1.768,2.648Z"
              style="fill-rule:nonzero;stroke:#000;stroke-width:0.3px;stroke-linejoin:round;stroke-miterlimit:1.41421;"/>
        <path d="M56.134,57.814l3.32,0l0,1.04l-2.008,0l0,1.072l1.912,0l0,1.04l-1.912,0l0,1.136l2.032,0l0,1.04l-3.344,0l0,-5.328Z"
              style="fill-rule:nonzero;stroke:#000;stroke-width:0.3px;stroke-linejoin:round;stroke-miterlimit:1.41421;"/>
        <path d="M64.798,59.502c0,0.358 -0.1,0.67 -0.3,0.936c-0.2,0.267 -0.478,0.47 -0.836,0.608l1.752,2.096l-1.616,0l-1.464,-1.848l-0.24,0l0,1.848l-1.312,0l0,-5.328l1.696,0c0.331,0 0.638,0.035 0.92,0.104c0.283,0.07 0.528,0.174 0.736,0.312c0.208,0.139 0.371,0.314 0.488,0.524c0.118,0.211 0.176,0.46 0.176,0.748Zm-1.264,0.024c0,-0.24 -0.093,-0.417 -0.28,-0.532c-0.186,-0.114 -0.448,-0.172 -0.784,-0.172l-0.376,0l0,1.496l0.32,0c0.352,0 0.627,-0.069 0.824,-0.208c0.198,-0.138 0.296,-0.333 0.296,-0.584Z"
              style="fill-rule:nonzero;stroke:#000;stroke-width:0.3px;stroke-linejoin:round;stroke-miterlimit:1.41421;"/>
        <path d="M71.71,62.11l-2.04,0l-0.328,1.032l-1.352,0l1.984,-5.328l1.44,0l1.984,5.328l-1.352,0l-0.336,-1.032Zm-1.704,-1.04l1.368,0l-0.68,-2.248l-0.688,2.248Z"
              style="fill-rule:nonzero;stroke:#000;stroke-width:0.3px;stroke-linejoin:round;stroke-miterlimit:1.41421;"/>
        <path d="M77.982,62.294l-1.264,0l-1.04,-2.136l-0.16,2.984l-1.288,0l0.4,-5.328l1.184,0l1.536,3.256l1.536,-3.256l1.184,0l0.4,5.328l-1.288,0l-0.16,-2.984l-1.04,2.136Z"
              style="fill-rule:nonzero;stroke:#000;stroke-width:0.3px;stroke-linejoin:round;stroke-miterlimit:1.41421;"/>
        <path d="M85.582,59.55c0,0.283 -0.061,0.536 -0.184,0.76c-0.122,0.224 -0.292,0.412 -0.508,0.564c-0.216,0.152 -0.47,0.268 -0.764,0.348c-0.293,0.08 -0.61,0.12 -0.952,0.12l-0.136,0l0,1.8l-1.312,0l0,-5.328l1.536,0c0.336,0 0.647,0.035 0.932,0.104c0.286,0.07 0.531,0.175 0.736,0.316c0.206,0.142 0.366,0.322 0.48,0.54c0.115,0.219 0.172,0.478 0.172,0.776Zm-1.264,0.008c0,-0.49 -0.349,-0.736 -1.048,-0.736l-0.232,0l0,1.512l0.216,0c0.347,0 0.611,-0.069 0.792,-0.208c0.182,-0.138 0.272,-0.328 0.272,-0.568Z"
              style="fill-rule:nonzero;stroke:#000;stroke-width:0.3px;stroke-linejoin:round;stroke-miterlimit:1.41421;"/>
    </g>
    <g transform="matrix(0.742645,0,0,0.780697,-13.6716,-14.6283)">
        <g id="Description1"
           serif:id="Description">
            <path d="M153.063,63.926c0,-1.611 -1.375,-2.919 -3.068,-2.919l-121.785,0c-1.693,0 -3.068,1.308 -3.068,2.919l0,13.601c0,1.611 1.375,2.919 3.068,2.919l121.785,0c1.693,0 3.068,-1.308 3.068,-2.919l0,-13.601Z"/>
        </g>
    </g>
    <g id="Description--Art-Text-"
       serif:id="Description (Art Text)"
       transform="matrix(1,0,0,1,-3.76801,-19.7957)">
        <g transform="matrix(8.4,0,0,8.4,26.9102,63.1423)">
            <path d="M0.403,0l0.227,-0.674l-0.162,0l-0.086,0.288c-0.023,0.077 -0.044,0.157 -0.061,0.238l-0.003,0c-0.016,-0.084 -0.037,-0.161 -0.06,-0.241l-0.082,-0.285l-0.167,0l0.216,0.674l0.178,0Z"
                  style="fill:#fff;fill-rule:nonzero;"/>
        </g>
        <g transform="matrix(8.4,0,0,8.4,32.6054,63.1423)">
            <path d="M0.538,-0.138c-0.03,0.012 -0.081,0.022 -0.127,0.022c-0.136,0 -0.216,-0.085 -0.216,-0.22c0,-0.15 0.094,-0.223 0.215,-0.223c0.054,0 0.097,0.012 0.128,0.025l0.031,-0.121c-0.027,-0.014 -0.087,-0.029 -0.166,-0.029c-0.204,0 -0.368,0.127 -0.368,0.357c0,0.192 0.12,0.338 0.353,0.338c0.082,0 0.145,-0.016 0.173,-0.03l-0.023,-0.119Z"
                  style="fill:#fff;fill-rule:nonzero;"/>
        </g>
        <g transform="matrix(8.4,0,0,8.4,40.1402,63.1423)">
            <path d="M0.646,0l0.149,0l-0.037,-0.674l-0.199,0l-0.072,0.224c-0.023,0.075 -0.045,0.167 -0.064,0.245l-0.003,0c-0.015,-0.079 -0.035,-0.167 -0.057,-0.244l-0.066,-0.225l-0.203,0l-0.043,0.674l0.141,0l0.012,-0.256c0.005,-0.084 0.008,-0.188 0.012,-0.279l0.002,0c0.016,0.088 0.039,0.184 0.061,0.264l0.071,0.26l0.12,0l0.082,-0.262c0.025,-0.078 0.054,-0.176 0.075,-0.262l0.003,0c0,0.098 0.003,0.196 0.006,0.277l0.01,0.258Z"
                  style="fill:#fff;fill-rule:nonzero;"/>
        </g>
        <g transform="matrix(8.4,0,0,8.4,47.6666,63.1423)">
            <rect x="0.066"
                  y="-0.674"
                  width="0.153"
                  height="0.674"
                  style="fill:#fff;fill-rule:nonzero;"/>
        </g>
        <g transform="matrix(8.4,0,0,8.4,50.4806,63.1423)">
            <path d="M0.597,0l-0.2,-0.345l0.19,-0.329l-0.174,0l-0.057,0.123c-0.017,0.039 -0.03,0.069 -0.046,0.112l-0.002,0c-0.016,-0.038 -0.031,-0.071 -0.051,-0.112l-0.059,-0.123l-0.175,0l0.188,0.333l-0.195,0.341l0.174,0l0.056,-0.122c0.021,-0.047 0.038,-0.082 0.052,-0.121l0.002,0c0.019,0.039 0.035,0.074 0.06,0.121l0.061,0.122l0.176,0Z"
                  style="fill:#fff;fill-rule:nonzero;"/>
        </g>
        <g transform="matrix(8.4,0,0,8.4,56.0498,63.1423)">
            <path d="M0.467,-0.409l-0.248,0l0,-0.14l0.263,0l0,-0.125l-0.416,0l0,0.674l0.43,0l0,-0.125l-0.277,0l0,-0.16l0.248,0l0,-0.124Z"
                  style="fill:#fff;fill-rule:nonzero;"/>
        </g>
        <g transform="matrix(8.4,0,0,8.4,60.9554,63.1423)">
            <path d="M0.066,0l0.151,0l0,-0.265l0.046,0c0.062,0.001 0.091,0.024 0.109,0.108c0.02,0.083 0.036,0.138 0.047,0.157l0.156,0c-0.013,-0.026 -0.034,-0.114 -0.055,-0.19c-0.017,-0.062 -0.043,-0.107 -0.09,-0.126l0,-0.003c0.058,-0.021 0.119,-0.08 0.119,-0.166c0,-0.062 -0.022,-0.109 -0.062,-0.141c-0.048,-0.038 -0.118,-0.053 -0.218,-0.053c-0.081,0 -0.154,0.006 -0.203,0.014l0,0.665Zm0.151,-0.561c0.011,-0.002 0.032,-0.005 0.069,-0.005c0.07,0.001 0.112,0.032 0.112,0.094c0,0.059 -0.045,0.097 -0.121,0.097l-0.06,0l0,-0.186Z"
                  style="fill:#fff;fill-rule:nonzero;"/>
        </g>
        <g transform="matrix(8.4,0,0,8.4,68.4734,63.1423)">
            <path d="M0.416,-0.173l0.052,0.173l0.164,0l-0.209,-0.674l-0.2,0l-0.206,0.674l0.158,0l0.048,-0.173l0.193,0Zm-0.171,-0.114l0.04,-0.143c0.011,-0.039 0.021,-0.09 0.031,-0.13l0.002,0c0.01,0.04 0.022,0.09 0.034,0.13l0.042,0.143l-0.149,0Z"
                  style="fill:#fff;fill-rule:nonzero;"/>
        </g>
        <g transform="matrix(8.4,0,0,8.4,74.4038,63.1423)">
            <path d="M0.646,0l0.149,0l-0.037,-0.674l-0.199,0l-0.072,0.224c-0.023,0.075 -0.045,0.167 -0.064,0.245l-0.003,0c-0.015,-0.079 -0.035,-0.167 -0.057,-0.244l-0.066,-0.225l-0.203,0l-0.043,0.674l0.141,0l0.012,-0.256c0.005,-0.084 0.008,-0.188 0.012,-0.279l0.002,0c0.016,0.088 0.039,0.184 0.061,0.264l0.071,0.26l0.12,0l0.082,-0.262c0.025,-0.078 0.054,-0.176 0.075,-0.262l0.003,0c0,0.098 0.003,0.196 0.006,0.277l0.01,0.258Z"
                  style="fill:#fff;fill-rule:nonzero;"/>
        </g>
        <g transform="matrix(8.4,0,0,8.4,81.9302,63.1423)">
            <path d="M0.066,0l0.151,0l0,-0.24c0.014,0.001 0.032,0.003 0.053,0.003c0.089,0 0.166,-0.023 0.218,-0.072c0.04,-0.037 0.062,-0.093 0.062,-0.16c0,-0.066 -0.029,-0.122 -0.072,-0.156c-0.045,-0.036 -0.112,-0.054 -0.206,-0.054c-0.091,0 -0.159,0.006 -0.206,0.014l0,0.665Zm0.151,-0.559c0.011,-0.002 0.031,-0.005 0.061,-0.005c0.079,0 0.121,0.037 0.121,0.1c0,0.068 -0.05,0.109 -0.131,0.109c-0.022,0 -0.04,-0.001 -0.051,-0.003l0,-0.201Z"
                  style="fill:#fff;fill-rule:nonzero;"/>
        </g>
    </g>
    <g id="Label"
       transform="matrix(1,0,0,1,7.5,0)">
        <g id="Description2"
           serif:id="Description"
           transform="matrix(1,0,0,1,-9.6616,216.412)">
            <path d="M30.022,57.718c0.24,0 0.491,0.023 0.752,0.068c0.262,0.046 0.48,0.106 0.656,0.18l-0.12,0.568c-0.181,-0.064 -0.376,-0.116 -0.584,-0.156c-0.208,-0.04 -0.413,-0.06 -0.616,-0.06c-0.666,0 -1.186,0.187 -1.56,0.56c-0.373,0.374 -0.56,0.907 -0.56,1.6c0,0.694 0.187,1.227 0.56,1.6c0.374,0.374 0.894,0.56 1.56,0.56c0.203,0 0.408,-0.02 0.616,-0.06c0.208,-0.04 0.403,-0.092 0.584,-0.156l0.12,0.568c-0.176,0.075 -0.394,0.135 -0.656,0.18c-0.261,0.046 -0.512,0.068 -0.752,0.068c-0.437,0 -0.828,-0.069 -1.172,-0.208c-0.344,-0.138 -0.633,-0.33 -0.868,-0.576c-0.234,-0.245 -0.414,-0.536 -0.54,-0.872c-0.125,-0.336 -0.188,-0.704 -0.188,-1.104c0,-0.4 0.063,-0.768 0.188,-1.104c0.126,-0.336 0.306,-0.626 0.54,-0.872c0.235,-0.245 0.524,-0.437 0.868,-0.576c0.344,-0.138 0.735,-0.208 1.172,-0.208Z"
                  style="fill-rule:nonzero;stroke:#000;stroke-width:0.3px;stroke-linejoin:round;stroke-miterlimit:1.41421;"/>
            <path d="M36.166,57.814l0.736,0l-1.912,5.328l-0.768,0l-1.912,-5.328l0.736,0l1.56,4.456l1.56,-4.456Z"
                  style="fill-rule:nonzero;stroke:#000;stroke-width:0.3px;stroke-linejoin:round;stroke-miterlimit:1.41421;"/>
        </g>
        <g id="Shapes"
           transform="matrix(1,0,0,1,-1,0)">
            <g id="Description3"
               serif:id="Description"
               transform="matrix(1,0,0,1,53.982,206.234)">
                <path d="M27.59,57.814l2.848,0l0,0.448l-2.304,0l0,1.928l2.208,0l0,0.448l-2.208,0l0,2.056l2.328,0l0,0.448l-2.872,0l0,-5.328Z"
                      style="fill-rule:nonzero;stroke:#000;stroke-width:0.3px;stroke-linejoin:round;stroke-miterlimit:1.41421;"/>
                <path d="M35.174,57.814l0.6,0l-1.784,2.648l1.816,2.68l-0.608,0l-1.488,-2.256l-1.488,2.256l-0.608,0l1.816,-2.68l-1.784,-2.648l0.6,0l1.464,2.216l1.464,-2.216Z"
                      style="fill-rule:nonzero;stroke:#000;stroke-width:0.3px;stroke-linejoin:round;stroke-miterlimit:1.41421;"/>
                <path d="M40.286,59.334c0,0.256 -0.053,0.486 -0.16,0.688c-0.106,0.203 -0.254,0.374 -0.444,0.512c-0.189,0.139 -0.413,0.246 -0.672,0.32c-0.258,0.075 -0.542,0.112 -0.852,0.112l-0.464,0l0,2.176l-0.544,0l0,-5.328l1.192,0c0.267,0 0.519,0.032 0.756,0.096c0.238,0.064 0.444,0.16 0.62,0.288c0.176,0.128 0.315,0.287 0.416,0.476c0.102,0.19 0.152,0.41 0.152,0.66Zm-0.544,0c0,-0.192 -0.038,-0.356 -0.116,-0.492c-0.077,-0.136 -0.182,-0.246 -0.316,-0.332c-0.133,-0.085 -0.285,-0.148 -0.456,-0.188c-0.17,-0.04 -0.349,-0.06 -0.536,-0.06l-0.624,0l0,2.256l0.488,0c0.224,0 0.432,-0.026 0.624,-0.08c0.192,-0.053 0.358,-0.129 0.496,-0.228c0.139,-0.098 0.247,-0.221 0.324,-0.368c0.078,-0.146 0.116,-0.316 0.116,-0.508Z"
                      style="fill-rule:nonzero;stroke:#000;stroke-width:0.3px;stroke-linejoin:round;stroke-miterlimit:1.41421;"/>
            </g>
            <g id="Description4"
               serif:id="Description"
               transform="matrix(1,0,0,1,14.3408,206.306)">
                <path d="M28.134,57.814l0,4.88l2.248,0l0,0.448l-2.792,0l0,-5.328l0.544,0Z"
                      style="fill-rule:nonzero;stroke:#000;stroke-width:0.3px;stroke-linejoin:round;stroke-miterlimit:1.41421;"/>
                <path d="M33.734,63.238c-0.405,0 -0.766,-0.074 -1.084,-0.224c-0.317,-0.149 -0.584,-0.35 -0.8,-0.604c-0.216,-0.253 -0.381,-0.546 -0.496,-0.88c-0.114,-0.333 -0.172,-0.684 -0.172,-1.052c0,-0.368 0.058,-0.718 0.172,-1.052c0.115,-0.333 0.28,-0.626 0.496,-0.88c0.216,-0.253 0.483,-0.454 0.8,-0.604c0.318,-0.149 0.679,-0.224 1.084,-0.224c0.406,0 0.767,0.075 1.084,0.224c0.318,0.15 0.584,0.351 0.8,0.604c0.216,0.254 0.382,0.547 0.496,0.88c0.115,0.334 0.172,0.684 0.172,1.052c0,0.368 -0.057,0.719 -0.172,1.052c-0.114,0.334 -0.28,0.627 -0.496,0.88c-0.216,0.254 -0.482,0.455 -0.8,0.604c-0.317,0.15 -0.678,0.224 -1.084,0.224Zm0,-0.448c0.32,0 0.604,-0.061 0.852,-0.184c0.248,-0.122 0.459,-0.288 0.632,-0.496c0.174,-0.208 0.304,-0.452 0.392,-0.732c0.088,-0.28 0.132,-0.58 0.132,-0.9c0,-0.314 -0.044,-0.612 -0.132,-0.892c-0.088,-0.28 -0.218,-0.525 -0.392,-0.736c-0.173,-0.21 -0.384,-0.377 -0.632,-0.5c-0.248,-0.122 -0.532,-0.184 -0.852,-0.184c-0.32,0 -0.604,0.062 -0.852,0.184c-0.248,0.123 -0.457,0.29 -0.628,0.5c-0.17,0.211 -0.301,0.456 -0.392,0.736c-0.09,0.28 -0.136,0.578 -0.136,0.892c0,0.32 0.046,0.62 0.136,0.9c0.091,0.28 0.222,0.524 0.392,0.732c0.171,0.208 0.38,0.374 0.628,0.496c0.248,0.123 0.532,0.184 0.852,0.184Z"
                      style="fill-rule:nonzero;stroke:#000;stroke-width:0.3px;stroke-linejoin:round;stroke-miterlimit:1.41421;"/>
                <path d="M40.23,57.718c0.288,0 0.566,0.023 0.832,0.068c0.267,0.046 0.512,0.122 0.736,0.228l-0.096,0.44c-0.218,-0.09 -0.453,-0.161 -0.704,-0.212c-0.25,-0.05 -0.504,-0.076 -0.76,-0.076c-0.346,0 -0.66,0.052 -0.94,0.156c-0.28,0.104 -0.52,0.258 -0.72,0.46c-0.2,0.203 -0.354,0.451 -0.464,0.744c-0.109,0.294 -0.164,0.63 -0.164,1.008c0,0.715 0.196,1.271 0.588,1.668c0.392,0.398 0.962,0.596 1.708,0.596c0.171,0 0.362,-0.013 0.572,-0.04c0.211,-0.026 0.386,-0.061 0.524,-0.104l0,-1.808l0.504,0l0,2.12c-0.213,0.086 -0.472,0.152 -0.776,0.2c-0.304,0.048 -0.6,0.072 -0.888,0.072c-0.432,0 -0.818,-0.065 -1.16,-0.196c-0.341,-0.13 -0.632,-0.314 -0.872,-0.552c-0.24,-0.237 -0.424,-0.522 -0.552,-0.856c-0.128,-0.333 -0.192,-0.7 -0.192,-1.1c0,-0.426 0.066,-0.813 0.196,-1.16c0.131,-0.346 0.319,-0.642 0.564,-0.888c0.246,-0.245 0.543,-0.434 0.892,-0.568c0.35,-0.133 0.74,-0.2 1.172,-0.2Z"
                      style="fill-rule:nonzero;stroke:#000;stroke-width:0.3px;stroke-linejoin:round;stroke-miterlimit:1.41421;"/>
            </g>
            <g id="Description5"
               serif:id="Description"
               transform="matrix(1,0,0,1,35.049,174.078)">
                <path d="M28.134,57.814l0,4.88l2.248,0l0,0.448l-2.792,0l0,-5.328l0.544,0Z"
                      style="fill-rule:nonzero;stroke:#000;stroke-width:0.3px;stroke-linejoin:round;stroke-miterlimit:1.41421;"/>
                <rect x="31.694"
                      y="57.814"
                      width="0.544"
                      height="5.328"
                      style="fill-rule:nonzero;stroke:#000;stroke-width:0.3px;stroke-linejoin:round;stroke-miterlimit:1.41421;"/>
                <path d="M37.718,63.142l-3.16,-4.456l0,4.456l-0.52,0l0,-5.328l0.52,0l3.16,4.456l0,-4.456l0.52,0l0,5.328l-0.52,0Z"
                      style="fill-rule:nonzero;stroke:#000;stroke-width:0.3px;stroke-linejoin:round;stroke-miterlimit:1.41421;"/>
            </g>
        </g>
        <g id="Description6"
           serif:id="Description"
           transform="matrix(1,0,0,1,28.3,216.412)">
            <path d="M30.622,61.758c0,0.23 -0.049,0.435 -0.148,0.616c-0.098,0.182 -0.232,0.336 -0.4,0.464c-0.168,0.128 -0.365,0.227 -0.592,0.296c-0.226,0.07 -0.47,0.104 -0.732,0.104c-0.256,0 -0.518,-0.026 -0.788,-0.08c-0.269,-0.053 -0.516,-0.133 -0.74,-0.24l0.144,-0.584c0.198,0.091 0.415,0.166 0.652,0.224c0.238,0.059 0.476,0.088 0.716,0.088c0.347,0 0.627,-0.073 0.84,-0.22c0.214,-0.146 0.32,-0.358 0.32,-0.636c0,-0.154 -0.03,-0.286 -0.092,-0.396c-0.061,-0.109 -0.145,-0.208 -0.252,-0.296c-0.106,-0.088 -0.23,-0.166 -0.372,-0.236c-0.141,-0.069 -0.292,-0.141 -0.452,-0.216c-0.181,-0.085 -0.356,-0.174 -0.524,-0.268c-0.168,-0.093 -0.316,-0.2 -0.444,-0.32c-0.128,-0.12 -0.23,-0.256 -0.308,-0.408c-0.077,-0.152 -0.116,-0.329 -0.116,-0.532c0,-0.229 0.042,-0.432 0.124,-0.608c0.083,-0.176 0.199,-0.322 0.348,-0.44c0.15,-0.117 0.328,-0.205 0.536,-0.264c0.208,-0.058 0.438,-0.088 0.688,-0.088c0.256,0 0.506,0.03 0.748,0.088c0.243,0.059 0.455,0.136 0.636,0.232l-0.136,0.584c-0.17,-0.09 -0.365,-0.165 -0.584,-0.224c-0.218,-0.058 -0.44,-0.088 -0.664,-0.088c-0.645,0 -0.968,0.251 -0.968,0.752c0,0.112 0.016,0.21 0.048,0.292c0.032,0.083 0.084,0.16 0.156,0.232c0.072,0.072 0.168,0.142 0.288,0.208c0.12,0.067 0.266,0.143 0.436,0.228c0.171,0.086 0.352,0.178 0.544,0.276c0.192,0.099 0.368,0.216 0.528,0.352c0.16,0.136 0.294,0.295 0.4,0.476c0.107,0.182 0.16,0.392 0.16,0.632Z"
                  style="fill-rule:nonzero;stroke:#000;stroke-width:0.3px;stroke-linejoin:round;stroke-miterlimit:1.41421;"/>
            <path d="M35.422,63.142l0,-2.392l-2.728,0l0,2.392l-0.736,0l0,-5.328l0.736,0l0,2.312l2.728,0l0,-2.312l0.736,0l0,5.328l-0.736,0Z"
                  style="fill-rule:nonzero;stroke:#000;stroke-width:0.3px;stroke-linejoin:round;stroke-miterlimit:1.41421;"/>
            <path d="M42.382,63.142l-0.752,0l-0.488,-1.288l-2.488,0l-0.48,1.288l-0.752,0l2.12,-5.328l0.72,0l2.12,5.328Zm-3.504,-1.88l2.048,0l-1.024,-2.776l-1.024,2.776Z"
                  style="fill-rule:nonzero;stroke:#000;stroke-width:0.3px;stroke-linejoin:round;stroke-miterlimit:1.41421;"/>
            <path d="M46.974,59.374c0,0.256 -0.056,0.487 -0.168,0.692c-0.112,0.206 -0.268,0.38 -0.468,0.524c-0.2,0.144 -0.436,0.255 -0.708,0.332c-0.272,0.078 -0.565,0.116 -0.88,0.116l-0.368,0l0,2.104l-0.736,0l0,-5.328l1.288,0c0.288,0 0.556,0.032 0.804,0.096c0.248,0.064 0.464,0.162 0.648,0.292c0.184,0.131 0.328,0.294 0.432,0.488c0.104,0.195 0.156,0.423 0.156,0.684Zm-0.736,-0.008c0,-0.176 -0.034,-0.324 -0.104,-0.444c-0.069,-0.12 -0.164,-0.218 -0.284,-0.296c-0.12,-0.077 -0.261,-0.133 -0.424,-0.168c-0.162,-0.034 -0.334,-0.052 -0.516,-0.052l-0.528,0l0,2.04l0.392,0c0.214,0 0.41,-0.024 0.588,-0.072c0.179,-0.048 0.334,-0.118 0.464,-0.212c0.131,-0.093 0.232,-0.206 0.304,-0.34c0.072,-0.133 0.108,-0.285 0.108,-0.456Z"
                  style="fill-rule:nonzero;stroke:#000;stroke-width:0.3px;stroke-linejoin:round;stroke-miterlimit:1.41421;"/>
            <path d="M48.11,57.814l2.968,0l0,0.6l-2.232,0l0,1.704l2.136,0l0,0.6l-2.136,0l0,1.824l2.256,0l0,0.6l-2.992,0l0,-5.328Z"
                  style="fill-rule:nonzero;stroke:#000;stroke-width:0.3px;stroke-linejoin:round;stroke-miterlimit:1.41421;"/>
        </g>
        <g id="Description7"
           serif:id="Description"
           transform="matrix(1,0,0,1,32.292,281.412)">
            <path d="M29.87,63.238c-0.416,0 -0.786,-0.074 -1.112,-0.224c-0.325,-0.149 -0.597,-0.349 -0.816,-0.6c-0.218,-0.25 -0.385,-0.544 -0.5,-0.88c-0.114,-0.336 -0.172,-0.688 -0.172,-1.056c0,-0.368 0.058,-0.72 0.172,-1.056c0.115,-0.336 0.282,-0.629 0.5,-0.88c0.219,-0.25 0.491,-0.45 0.816,-0.6c0.326,-0.149 0.696,-0.224 1.112,-0.224c0.416,0 0.787,0.075 1.112,0.224c0.326,0.15 0.598,0.35 0.816,0.6c0.219,0.251 0.386,0.544 0.5,0.88c0.115,0.336 0.172,0.688 0.172,1.056c0,0.368 -0.057,0.72 -0.172,1.056c-0.114,0.336 -0.281,0.63 -0.5,0.88c-0.218,0.251 -0.49,0.451 -0.816,0.6c-0.325,0.15 -0.696,0.224 -1.112,0.224Zm0,-0.592c0.304,0 0.574,-0.056 0.808,-0.168c0.235,-0.112 0.43,-0.266 0.584,-0.464c0.155,-0.197 0.272,-0.428 0.352,-0.692c0.08,-0.264 0.12,-0.545 0.12,-0.844c0,-0.298 -0.04,-0.58 -0.12,-0.844c-0.08,-0.264 -0.197,-0.493 -0.352,-0.688c-0.154,-0.194 -0.349,-0.349 -0.584,-0.464c-0.234,-0.114 -0.504,-0.172 -0.808,-0.172c-0.304,0 -0.573,0.058 -0.808,0.172c-0.234,0.115 -0.429,0.27 -0.584,0.464c-0.154,0.195 -0.272,0.424 -0.352,0.688c-0.08,0.264 -0.12,0.546 -0.12,0.844c0,0.299 0.04,0.58 0.12,0.844c0.08,0.264 0.198,0.495 0.352,0.692c0.155,0.198 0.35,0.352 0.584,0.464c0.235,0.112 0.504,0.168 0.808,0.168Z"
                  style="fill-rule:nonzero;stroke:#000;stroke-width:0.3px;stroke-linejoin:round;stroke-miterlimit:1.41421;"/>
            <path d="M37.278,57.814l0.736,0l0,3.44c0,0.278 -0.045,0.538 -0.136,0.78c-0.09,0.243 -0.224,0.454 -0.4,0.632c-0.176,0.179 -0.393,0.319 -0.652,0.42c-0.258,0.102 -0.558,0.152 -0.9,0.152c-0.341,0 -0.641,-0.05 -0.9,-0.152c-0.258,-0.101 -0.476,-0.241 -0.652,-0.42c-0.176,-0.178 -0.309,-0.389 -0.4,-0.632c-0.09,-0.242 -0.136,-0.502 -0.136,-0.78l0,-3.44l0.736,0l0,3.472c0,0.4 0.114,0.726 0.34,0.976c0.227,0.251 0.564,0.376 1.012,0.376c0.448,0 0.786,-0.125 1.012,-0.376c0.227,-0.25 0.34,-0.576 0.34,-0.976l0,-3.472Z"
                  style="fill-rule:nonzero;stroke:#000;stroke-width:0.3px;stroke-linejoin:round;stroke-miterlimit:1.41421;"/>
            <path d="M43.07,57.814l0,0.6l-1.568,0l0,4.728l-0.736,0l0,-4.728l-1.568,0l0,-0.6l3.872,0Z"
                  style="fill-rule:nonzero;stroke:#000;stroke-width:0.3px;stroke-linejoin:round;stroke-miterlimit:1.41421;"/>
        </g>
        <g id="Description8"
           serif:id="Description"
           transform="matrix(1,0,0,1,-19.7,281.412)">
            <path d="M32.118,57.814l0.664,0l0.384,5.328l-0.704,0l-0.256,-4.152l-1.536,3.192l-0.752,0l-1.536,-3.192l-0.256,4.152l-0.704,0l0.384,-5.328l0.664,0l1.824,3.768l1.824,-3.768Z"
                  style="fill-rule:nonzero;stroke:#000;stroke-width:0.3px;stroke-linejoin:round;stroke-miterlimit:1.41421;"/>
            <path d="M39.262,63.142l-0.752,0l-0.488,-1.288l-2.488,0l-0.48,1.288l-0.752,0l2.12,-5.328l0.72,0l2.12,5.328Zm-3.504,-1.88l2.048,0l-1.024,-2.776l-1.024,2.776Z"
                  style="fill-rule:nonzero;stroke:#000;stroke-width:0.3px;stroke-linejoin:round;stroke-miterlimit:1.41421;"/>
            <path d="M43.598,61.758c0,0.23 -0.049,0.435 -0.148,0.616c-0.098,0.182 -0.232,0.336 -0.4,0.464c-0.168,0.128 -0.365,0.227 -0.592,0.296c-0.226,0.07 -0.47,0.104 -0.732,0.104c-0.256,0 -0.518,-0.026 -0.788,-0.08c-0.269,-0.053 -0.516,-0.133 -0.74,-0.24l0.144,-0.584c0.198,0.091 0.415,0.166 0.652,0.224c0.238,0.059 0.476,0.088 0.716,0.088c0.347,0 0.627,-0.073 0.84,-0.22c0.214,-0.146 0.32,-0.358 0.32,-0.636c0,-0.154 -0.03,-0.286 -0.092,-0.396c-0.061,-0.109 -0.145,-0.208 -0.252,-0.296c-0.106,-0.088 -0.23,-0.166 -0.372,-0.236c-0.141,-0.069 -0.292,-0.141 -0.452,-0.216c-0.181,-0.085 -0.356,-0.174 -0.524,-0.268c-0.168,-0.093 -0.316,-0.2 -0.444,-0.32c-0.128,-0.12 -0.23,-0.256 -0.308,-0.408c-0.077,-0.152 -0.116,-0.329 -0.116,-0.532c0,-0.229 0.042,-0.432 0.124,-0.608c0.083,-0.176 0.199,-0.322 0.348,-0.44c0.15,-0.117 0.328,-0.205 0.536,-0.264c0.208,-0.058 0.438,-0.088 0.688,-0.088c0.256,0 0.506,0.03 0.748,0.088c0.243,0.059 0.455,0.136 0.636,0.232l-0.136,0.584c-0.17,-0.09 -0.365,-0.165 -0.584,-0.224c-0.218,-0.058 -0.44,-0.088 -0.664,-0.088c-0.645,0 -0.968,0.251 -0.968,0.752c0,0.112 0.016,0.21 0.048,0.292c0.032,0.083 0.084,0.16 0.156,0.232c0.072,0.072 0.168,0.142 0.288,0.208c0.12,0.067 0.266,0.143 0.436,0.228c0.171,0.086 0.352,0.178 0.544,0.276c0.192,0.099 0.368,0.216 0.528,0.352c0.16,0.136 0.294,0.295 0.4,0.476c0.107,0.182 0.16,0.392 0.16,0.632Z"
                  style="fill-rule:nonzero;stroke:#000;stroke-width:0.3px;stroke-linejoin:round;stroke-miterlimit:1.41421;"/>
            <path d="M48.342,57.814l0,0.6l-1.568,0l0,4.728l-0.736,0l0,-4.728l-1.568,0l0,-0.6l3.872,0Z"
                  style="fill-rule:nonzero;stroke:#000;stroke-width:0.3px;stroke-linejoin:round;stroke-miterlimit:1.41421;"/>
            <path d="M49.558,57.814l2.968,0l0,0.6l-2.232,0l0,1.704l2.136,0l0,0.6l-2.136,0l0,1.824l2.256,0l0,0.6l-2.992,0l0,-5.328Z"
                  style="fill-rule:nonzero;stroke:#000;stroke-width:0.3px;stroke-linejoin:round;stroke-miterlimit:1.41421;"/>
            <path d="M54.774,63.142l-0.736,0l0,-5.328l1.384,0c0.288,0 0.556,0.032 0.804,0.096c0.248,0.064 0.466,0.159 0.652,0.284c0.187,0.126 0.334,0.283 0.44,0.472c0.107,0.19 0.16,0.407 0.16,0.652c0,0.368 -0.118,0.688 -0.356,0.96c-0.237,0.272 -0.569,0.47 -0.996,0.592l1.88,2.272l-0.904,0l-1.736,-2.144c-0.026,0 -0.066,0.002 -0.12,0.004c-0.053,0.003 -0.109,0.004 -0.168,0.004l-0.304,0l0,2.136Zm1.968,-3.808c0,-0.165 -0.036,-0.308 -0.108,-0.428c-0.072,-0.12 -0.169,-0.216 -0.292,-0.288c-0.122,-0.072 -0.264,-0.125 -0.424,-0.16c-0.16,-0.034 -0.328,-0.052 -0.504,-0.052l-0.64,0l0,2.008l0.368,0c0.224,0 0.434,-0.021 0.628,-0.064c0.195,-0.042 0.364,-0.108 0.508,-0.196c0.144,-0.088 0.258,-0.2 0.34,-0.336c0.083,-0.136 0.124,-0.297 0.124,-0.484Z"
                  style="fill-rule:nonzero;stroke:#000;stroke-width:0.3px;stroke-linejoin:round;stroke-miterlimit:1.41421;"/>
        </g>
    </g>
    <g transform="matrix(0.928817,0,0,0.928817,5.46723,6.08937)">
        <g id="Name">
            <g transform="matrix(20.8,0,0,20.8,18.4246,21.4847)">
                <path d="M0.033,-0.778l0.078,0l0.238,0.573l0.242,-0.573l0.078,0l-0.313,0.736l-0.015,0l-0.308,-0.736Z"
                      style="fill-rule:nonzero;"/>
            </g>
            <g transform="matrix(20.8,0,0,20.8,33.0262,21.4847)">
                <path d="M0.756,-0.645l-0.056,0.043c-0.067,-0.083 -0.152,-0.124 -0.257,-0.124c-0.085,0 -0.159,0.03 -0.22,0.09c-0.062,0.06 -0.093,0.133 -0.093,0.22c0,0.088 0.03,0.16 0.091,0.219c0.06,0.058 0.135,0.087 0.226,0.087c0.101,0 0.186,-0.039 0.253,-0.118l0.056,0.043c-0.035,0.047 -0.08,0.082 -0.134,0.107c-0.054,0.024 -0.114,0.036 -0.179,0.036c-0.114,0 -0.207,-0.036 -0.28,-0.108c-0.073,-0.072 -0.109,-0.163 -0.109,-0.273c0,-0.068 0.017,-0.131 0.051,-0.189c0.033,-0.057 0.08,-0.102 0.14,-0.135c0.059,-0.033 0.123,-0.049 0.192,-0.049c0.069,0 0.13,0.013 0.185,0.039c0.055,0.026 0.099,0.063 0.134,0.112Z"
                      style="fill-rule:nonzero;"/>
            </g>
            <g transform="matrix(20.8,0,0,20.8,49.9366,21.4847)">
                <path d="M0.055,-0.06l0.102,-0.718l0.011,0l0.292,0.589l0.29,-0.589l0.011,0l0.103,0.718l-0.071,0l-0.07,-0.514l-0.254,0.514l-0.018,0l-0.257,-0.518l-0.07,0.518l-0.069,0Z"
                      style="fill-rule:nonzero;"/>
            </g>
            <g transform="matrix(20.8,0,0,20.8,69.0518,21.4847)">
                <path d="M0.381,-0.807l0.335,0.747l-0.077,0l-0.113,-0.245l-0.31,0l-0.112,0.245l-0.08,0l0.339,-0.747l0.018,0Zm-0.009,0.159l-0.123,0.27l0.245,0l-0.122,-0.27Z"
                      style="fill-rule:nonzero;"/>
            </g>
        </g>
    </g>
    <g transform="matrix(1.4997,0,0,0.398134,-3.84855,167.213)">
        <rect x="7.571"
              y="312.715"
              width="60.012"
              height="2.512"
              style="fill:#0a1250;fill-opacity:0.53;"/>
    </g>
    <g transform="matrix(1.4997,0,0,0.398134,-3.84855,102.213)">
        <rect x="7.571"
              y="312.715"
              width="60.012"
              height="2.512"
              style="fill:#0a1250;fill-opacity:0.53;"/>
    </g>
    <g id="LOGO"
       transform="matrix(1,0,0,1,-11.0657,-235.591)">
        <g transform="matrix(8,0,0,8,30.1268,602.797)">
            <path d="M0.195,-0.7c0.015,0 0.022,0.007 0.022,0.022l0,0.399c0,0.027 0.002,0.049 0.007,0.067c0.004,0.017 0.011,0.031 0.021,0.042c0.01,0.01 0.024,0.017 0.041,0.022c0.017,0.004 0.038,0.006 0.064,0.006l0.405,0c0.015,0 0.022,0.007 0.022,0.022l0,0.098c0,0.015 -0.007,0.022 -0.022,0.022l-0.411,0c-0.051,0 -0.094,-0.005 -0.129,-0.014c-0.035,-0.009 -0.064,-0.024 -0.086,-0.045c-0.023,-0.021 -0.039,-0.049 -0.049,-0.082c-0.011,-0.034 -0.016,-0.075 -0.016,-0.123l0,-0.414c0,-0.015 0.008,-0.022 0.023,-0.022l0.108,0Z"
                  style="fill-rule:nonzero;"/>
        </g>
        <g transform="matrix(8,0,0,8,36.5348,602.797)">
            <path d="M0.197,-0.7c0.015,0 0.022,0.007 0.022,0.022l0,0.656c0,0.015 -0.007,0.022 -0.022,0.022l-0.108,0c-0.015,0 -0.023,-0.007 -0.023,-0.022l0,-0.656c0,-0.015 0.008,-0.022 0.023,-0.022l0.108,0Z"
                  style="fill-rule:nonzero;"/>
        </g>
        <g transform="matrix(8,0,0,8,38.8228,602.797)">
            <path d="M0.244,-0.7c0.016,0 0.029,0.001 0.04,0.002c0.011,0.001 0.02,0.004 0.028,0.009c0.008,0.004 0.016,0.01 0.023,0.018c0.007,0.007 0.016,0.017 0.025,0.03l0.372,0.488c0.003,0.005 0.007,0.007 0.013,0.007l0.009,0c0.005,0 0.008,-0.003 0.008,-0.01l0,-0.522c0,-0.015 0.007,-0.022 0.022,-0.022l0.105,0c0.015,0 0.022,0.007 0.022,0.022l0,0.574c0,0.041 -0.007,0.068 -0.022,0.082c-0.015,0.015 -0.037,0.022 -0.068,0.022l-0.086,0c-0.015,0 -0.028,-0.001 -0.038,-0.002c-0.011,-0.001 -0.02,-0.004 -0.028,-0.008c-0.008,-0.004 -0.016,-0.01 -0.023,-0.018c-0.008,-0.007 -0.017,-0.018 -0.027,-0.031l-0.373,-0.488c-0.004,-0.005 -0.008,-0.007 -0.013,-0.007l-0.009,0c-0.005,0 -0.008,0.003 -0.008,0.01l0,0.522c0,0.015 -0.007,0.022 -0.022,0.022l-0.105,0c-0.015,0 -0.023,-0.007 -0.023,-0.022l0,-0.574c0,-0.041 0.007,-0.068 0.022,-0.083c0.015,-0.014 0.037,-0.021 0.068,-0.021l0.088,0Z"
                  style="fill-rule:nonzero;"/>
        </g>
        <g transform="matrix(8,0,0,8,46.6468,602.797)">
            <path d="M0.564,-0.7c0.054,0 0.1,0.006 0.139,0.017c0.039,0.011 0.07,0.027 0.095,0.05c0.025,0.023 0.043,0.053 0.054,0.089c0.012,0.035 0.018,0.077 0.018,0.126l0,0.136c0,0.049 -0.006,0.091 -0.018,0.127c-0.011,0.035 -0.029,0.065 -0.054,0.088c-0.025,0.023 -0.056,0.04 -0.095,0.051c-0.039,0.011 -0.085,0.016 -0.139,0.016l-0.468,0c-0.02,0 -0.03,-0.01 -0.03,-0.03l0,-0.64c0,-0.02 0.01,-0.03 0.03,-0.03l0.468,0Zm-0.345,0.548c0,0.009 0.004,0.013 0.013,0.013l0.328,0c0.029,0 0.054,-0.003 0.074,-0.008c0.02,-0.005 0.036,-0.014 0.048,-0.026c0.013,-0.012 0.022,-0.028 0.027,-0.048c0.005,-0.02 0.008,-0.045 0.008,-0.074l0,-0.11c0,-0.029 -0.003,-0.054 -0.008,-0.074c-0.005,-0.02 -0.014,-0.036 -0.027,-0.048c-0.012,-0.012 -0.028,-0.021 -0.048,-0.026c-0.02,-0.005 -0.045,-0.008 -0.074,-0.008l-0.328,0c-0.009,0 -0.013,0.005 -0.013,0.014l0,0.395Z"
                  style="fill-rule:nonzero;"/>
        </g>
        <g transform="matrix(8,0,0,8,54.0788,602.797)">
            <path d="M0.778,-0.7c0.015,0 0.023,0.007 0.023,0.022l0,0.095c0,0.015 -0.008,0.022 -0.023,0.022l-0.437,0c-0.026,0 -0.047,0.002 -0.065,0.007c-0.017,0.004 -0.03,0.011 -0.041,0.022c-0.01,0.01 -0.017,0.024 -0.021,0.042c-0.004,0.017 -0.006,0.039 -0.006,0.065l0,0.01l0.565,0c0.015,0 0.022,0.007 0.022,0.022l0,0.079c0,0.015 -0.007,0.022 -0.022,0.022l-0.565,0l0,0.017c0,0.026 0.002,0.048 0.006,0.065c0.004,0.018 0.011,0.032 0.021,0.042c0.011,0.011 0.024,0.018 0.041,0.022c0.017,0.005 0.039,0.007 0.065,0.007l0.437,0c0.015,0 0.023,0.007 0.023,0.022l0,0.095c0,0.015 -0.008,0.022 -0.023,0.022l-0.44,0c-0.051,0 -0.094,-0.005 -0.129,-0.014c-0.035,-0.009 -0.064,-0.025 -0.087,-0.046c-0.022,-0.021 -0.038,-0.048 -0.049,-0.082c-0.01,-0.033 -0.015,-0.074 -0.015,-0.122l0,-0.172c0,-0.048 0.005,-0.089 0.015,-0.122c0.011,-0.033 0.027,-0.061 0.049,-0.082c0.023,-0.021 0.052,-0.036 0.087,-0.046c0.035,-0.009 0.078,-0.014 0.129,-0.014l0.44,0Z"
                  style="fill-rule:nonzero;"/>
        </g>
        <g transform="matrix(8,0,0,8,60.8788,602.797)">
            <path d="M0.244,-0.7c0.016,0 0.029,0.001 0.04,0.002c0.011,0.001 0.02,0.004 0.028,0.009c0.008,0.004 0.016,0.01 0.023,0.018c0.007,0.007 0.016,0.017 0.025,0.03l0.372,0.488c0.003,0.005 0.007,0.007 0.013,0.007l0.009,0c0.005,0 0.008,-0.003 0.008,-0.01l0,-0.522c0,-0.015 0.007,-0.022 0.022,-0.022l0.105,0c0.015,0 0.022,0.007 0.022,0.022l0,0.574c0,0.041 -0.007,0.068 -0.022,0.082c-0.015,0.015 -0.037,0.022 -0.068,0.022l-0.086,0c-0.015,0 -0.028,-0.001 -0.038,-0.002c-0.011,-0.001 -0.02,-0.004 -0.028,-0.008c-0.008,-0.004 -0.016,-0.01 -0.023,-0.018c-0.008,-0.007 -0.017,-0.018 -0.027,-0.031l-0.373,-0.488c-0.004,-0.005 -0.008,-0.007 -0.013,-0.007l-0.009,0c-0.005,0 -0.008,0.003 -0.008,0.01l0,0.522c0,0.015 -0.007,0.022 -0.022,0.022l-0.105,0c-0.015,0 -0.023,-0.007 -0.023,-0.022l0,-0.574c0,-0.041 0.007,-0.068 0.022,-0.083c0.015,-0.014 0.037,-0.021 0.068,-0.021l0.088,0Z"
                  style="fill-rule:nonzero;"/>
        </g>
        <g transform="matrix(8,0,0,8,68.7028,602.797)">
            <path d="M0.672,-0.7c0.069,0 0.117,0.014 0.146,0.041c0.029,0.027 0.044,0.069 0.044,0.124l0,0.048c0,0.056 -0.021,0.098 -0.064,0.127c0.046,0.027 0.069,0.07 0.069,0.129l0,0.058c0,0.027 -0.003,0.051 -0.009,0.072c-0.006,0.021 -0.016,0.04 -0.029,0.055c-0.014,0.015 -0.032,0.026 -0.055,0.034c-0.023,0.008 -0.051,0.012 -0.084,0.012l-0.594,0c-0.02,0 -0.03,-0.01 -0.03,-0.03l0,-0.64c0,-0.02 0.01,-0.03 0.03,-0.03l0.576,0Zm-0.453,0.4l0,0.149c0,0.009 0.004,0.013 0.013,0.013l0.41,0c0.027,0 0.046,-0.005 0.057,-0.014c0.011,-0.01 0.017,-0.026 0.017,-0.047l0,-0.038c0,-0.021 -0.006,-0.036 -0.019,-0.047c-0.012,-0.011 -0.035,-0.016 -0.068,-0.016l-0.41,0Zm0,-0.109l0.41,0c0.033,0 0.056,-0.005 0.068,-0.015c0.012,-0.01 0.018,-0.025 0.018,-0.044l0,-0.034c0,-0.021 -0.006,-0.036 -0.018,-0.045c-0.011,-0.01 -0.03,-0.015 -0.056,-0.015l-0.409,0c-0.009,0 -0.013,0.004 -0.013,0.013l0,0.14Z"
                  style="fill-rule:nonzero;"/>
        </g>
        <g transform="matrix(8,0,0,8,76.0548,602.797)">
            <path d="M0.778,-0.7c0.015,0 0.023,0.007 0.023,0.022l0,0.095c0,0.015 -0.008,0.022 -0.023,0.022l-0.437,0c-0.026,0 -0.047,0.002 -0.065,0.007c-0.017,0.004 -0.03,0.011 -0.041,0.022c-0.01,0.01 -0.017,0.024 -0.021,0.042c-0.004,0.017 -0.006,0.039 -0.006,0.065l0,0.01l0.565,0c0.015,0 0.022,0.007 0.022,0.022l0,0.079c0,0.015 -0.007,0.022 -0.022,0.022l-0.565,0l0,0.017c0,0.026 0.002,0.048 0.006,0.065c0.004,0.018 0.011,0.032 0.021,0.042c0.011,0.011 0.024,0.018 0.041,0.022c0.017,0.005 0.039,0.007 0.065,0.007l0.437,0c0.015,0 0.023,0.007 0.023,0.022l0,0.095c0,0.015 -0.008,0.022 -0.023,0.022l-0.44,0c-0.051,0 -0.094,-0.005 -0.129,-0.014c-0.035,-0.009 -0.064,-0.025 -0.087,-0.046c-0.022,-0.021 -0.038,-0.048 -0.049,-0.082c-0.01,-0.033 -0.015,-0.074 -0.015,-0.122l0,-0.172c0,-0.048 0.005,-0.089 0.015,-0.122c0.011,-0.033 0.027,-0.061 0.049,-0.082c0.023,-0.021 0.052,-0.036 0.087,-0.046c0.035,-0.009 0.078,-0.014 0.129,-0.014l0.44,0Z"
                  style="fill-rule:nonzero;"/>
        </g>
        <g transform="matrix(8,0,0,8,82.8548,602.797)">
            <path d="M0.633,-0.7c0.077,0 0.132,0.017 0.165,0.052c0.033,0.035 0.05,0.086 0.05,0.154l0,0.057c0,0.057 -0.012,0.103 -0.035,0.136c-0.023,0.033 -0.061,0.055 -0.114,0.064l0.171,0.212c0.003,0.003 0.004,0.008 0.003,0.015c-0.001,0.007 -0.007,0.01 -0.016,0.01l-0.129,0c-0.009,0 -0.015,-0.001 -0.018,-0.003c-0.003,-0.002 -0.007,-0.005 -0.01,-0.01l-0.158,-0.208l-0.323,0l0,0.199c0,0.015 -0.007,0.022 -0.022,0.022l-0.108,0c-0.015,0 -0.023,-0.007 -0.023,-0.022l0,-0.648c0,-0.02 0.01,-0.03 0.03,-0.03l0.537,0Zm-0.414,0.357l0.383,0c0.034,0 0.058,-0.007 0.072,-0.022c0.014,-0.015 0.021,-0.037 0.021,-0.067l0,-0.042c0,-0.03 -0.007,-0.052 -0.021,-0.067c-0.014,-0.015 -0.038,-0.022 -0.072,-0.022l-0.37,0c-0.009,0 -0.013,0.004 -0.013,0.012l0,0.208Z"
                  style="fill-rule:nonzero;"/>
        </g>
        <g transform="matrix(8,0,0,8,89.9508,602.797)">
            <path d="M0.845,-0.7c0.015,0 0.022,0.007 0.022,0.022l0,0.098c0,0.015 -0.007,0.023 -0.022,0.023l-0.501,0c-0.026,0 -0.047,0.002 -0.064,0.007c-0.017,0.004 -0.031,0.011 -0.041,0.022c-0.01,0.01 -0.017,0.024 -0.021,0.041c-0.005,0.017 -0.007,0.039 -0.007,0.066l0,0.144c0,0.027 0.002,0.049 0.007,0.067c0.004,0.017 0.011,0.031 0.021,0.042c0.01,0.01 0.024,0.017 0.041,0.022c0.017,0.004 0.038,0.006 0.064,0.006l0.33,0c0.017,0 0.03,-0.004 0.038,-0.013c0.008,-0.009 0.012,-0.025 0.012,-0.048l0,-0.081c0,-0.009 -0.004,-0.013 -0.012,-0.013l-0.293,0c-0.015,0 -0.022,-0.008 -0.022,-0.023l0,-0.075c0,-0.015 0.007,-0.023 0.022,-0.023l0.417,0c0.02,0 0.03,0.01 0.03,0.03l0,0.233c0,0.056 -0.011,0.096 -0.032,0.119c-0.021,0.023 -0.052,0.034 -0.092,0.034l-0.404,0c-0.051,0 -0.094,-0.005 -0.129,-0.014c-0.035,-0.009 -0.064,-0.024 -0.086,-0.045c-0.023,-0.021 -0.039,-0.049 -0.049,-0.082c-0.011,-0.034 -0.016,-0.075 -0.016,-0.123l0,-0.172c0,-0.048 0.005,-0.089 0.016,-0.122c0.01,-0.033 0.026,-0.06 0.049,-0.081c0.022,-0.021 0.051,-0.037 0.086,-0.046c0.035,-0.01 0.078,-0.015 0.129,-0.015l0.507,0Z"
                  style="fill-rule:nonzero;"/>
        </g>
        <g transform="matrix(8,0,0,8,35.4868,610.797)">
            <path d="M0.633,-0.7c0.077,0 0.132,0.017 0.165,0.052c0.033,0.035 0.05,0.086 0.05,0.154l0,0.057c0,0.057 -0.012,0.103 -0.035,0.136c-0.023,0.033 -0.061,0.055 -0.114,0.064l0.171,0.212c0.003,0.003 0.004,0.008 0.003,0.015c-0.001,0.007 -0.007,0.01 -0.016,0.01l-0.129,0c-0.009,0 -0.015,-0.001 -0.018,-0.003c-0.003,-0.002 -0.007,-0.005 -0.01,-0.01l-0.158,-0.208l-0.323,0l0,0.199c0,0.015 -0.007,0.022 -0.022,0.022l-0.108,0c-0.015,0 -0.023,-0.007 -0.023,-0.022l0,-0.648c0,-0.02 0.01,-0.03 0.03,-0.03l0.537,0Zm-0.414,0.357l0.383,0c0.034,0 0.058,-0.007 0.072,-0.022c0.014,-0.015 0.021,-0.037 0.021,-0.067l0,-0.042c0,-0.03 -0.007,-0.052 -0.021,-0.067c-0.014,-0.015 -0.038,-0.022 -0.072,-0.022l-0.37,0c-0.009,0 -0.013,0.004 -0.013,0.012l0,0.208Z"
                  style="fill-rule:nonzero;"/>
        </g>
        <g transform="matrix(8,0,0,8,42.5828,610.797)">
            <path d="M0.778,-0.7c0.015,0 0.023,0.007 0.023,0.022l0,0.095c0,0.015 -0.008,0.022 -0.023,0.022l-0.437,0c-0.026,0 -0.047,0.002 -0.065,0.007c-0.017,0.004 -0.03,0.011 -0.041,0.022c-0.01,0.01 -0.017,0.024 -0.021,0.042c-0.004,0.017 -0.006,0.039 -0.006,0.065l0,0.01l0.565,0c0.015,0 0.022,0.007 0.022,0.022l0,0.079c0,0.015 -0.007,0.022 -0.022,0.022l-0.565,0l0,0.017c0,0.026 0.002,0.048 0.006,0.065c0.004,0.018 0.011,0.032 0.021,0.042c0.011,0.011 0.024,0.018 0.041,0.022c0.017,0.005 0.039,0.007 0.065,0.007l0.437,0c0.015,0 0.023,0.007 0.023,0.022l0,0.095c0,0.015 -0.008,0.022 -0.023,0.022l-0.44,0c-0.051,0 -0.094,-0.005 -0.129,-0.014c-0.035,-0.009 -0.064,-0.025 -0.087,-0.046c-0.022,-0.021 -0.038,-0.048 -0.049,-0.082c-0.01,-0.033 -0.015,-0.074 -0.015,-0.122l0,-0.172c0,-0.048 0.005,-0.089 0.015,-0.122c0.011,-0.033 0.027,-0.061 0.049,-0.082c0.023,-0.021 0.052,-0.036 0.087,-0.046c0.035,-0.009 0.078,-0.014 0.129,-0.014l0.44,0Z"
                  style="fill-rule:nonzero;"/>
        </g>
        <g transform="matrix(8,0,0,8,49.3828,610.797)">
            <path d="M0.761,-0.7c0.015,0 0.022,0.007 0.022,0.022l0,0.095c0,0.015 -0.007,0.022 -0.022,0.022l-0.501,0c-0.019,0 -0.033,0.005 -0.041,0.015c-0.008,0.01 -0.012,0.024 -0.012,0.041l0,0.034c0,0.037 0.017,0.056 0.052,0.056l0.375,0c0.058,0 0.102,0.015 0.131,0.044c0.029,0.03 0.044,0.073 0.044,0.128l0,0.08c0,0.049 -0.014,0.088 -0.043,0.118c-0.029,0.03 -0.073,0.045 -0.134,0.045l-0.554,0c-0.015,0 -0.023,-0.007 -0.023,-0.022l0,-0.095c0,-0.015 0.008,-0.022 0.023,-0.022l0.525,0c0.019,0 0.033,-0.005 0.041,-0.015c0.008,-0.01 0.012,-0.024 0.012,-0.041l0,-0.041c0,-0.037 -0.017,-0.056 -0.052,-0.056l-0.375,0c-0.058,0 -0.102,-0.015 -0.131,-0.045c-0.029,-0.029 -0.044,-0.072 -0.044,-0.127l0,-0.073c0,-0.049 0.014,-0.088 0.043,-0.118c0.029,-0.03 0.073,-0.045 0.134,-0.045l0.53,0Z"
                  style="fill-rule:nonzero;"/>
        </g>
        <g transform="matrix(8,0,0,8,56.2388,610.797)">
            <path d="M0.778,-0.7c0.015,0 0.023,0.007 0.023,0.022l0,0.095c0,0.015 -0.008,0.022 -0.023,0.022l-0.437,0c-0.026,0 -0.047,0.002 -0.065,0.007c-0.017,0.004 -0.03,0.011 -0.041,0.022c-0.01,0.01 -0.017,0.024 -0.021,0.042c-0.004,0.017 -0.006,0.039 -0.006,0.065l0,0.01l0.565,0c0.015,0 0.022,0.007 0.022,0.022l0,0.079c0,0.015 -0.007,0.022 -0.022,0.022l-0.565,0l0,0.017c0,0.026 0.002,0.048 0.006,0.065c0.004,0.018 0.011,0.032 0.021,0.042c0.011,0.011 0.024,0.018 0.041,0.022c0.017,0.005 0.039,0.007 0.065,0.007l0.437,0c0.015,0 0.023,0.007 0.023,0.022l0,0.095c0,0.015 -0.008,0.022 -0.023,0.022l-0.44,0c-0.051,0 -0.094,-0.005 -0.129,-0.014c-0.035,-0.009 -0.064,-0.025 -0.087,-0.046c-0.022,-0.021 -0.038,-0.048 -0.049,-0.082c-0.01,-0.033 -0.015,-0.074 -0.015,-0.122l0,-0.172c0,-0.048 0.005,-0.089 0.015,-0.122c0.011,-0.033 0.027,-0.061 0.049,-0.082c0.023,-0.021 0.052,-0.036 0.087,-0.046c0.035,-0.009 0.078,-0.014 0.129,-0.014l0.44,0Z"
                  style="fill-rule:nonzero;"/>
        </g>
        <g transform="matrix(8,0,0,8,63.0388,610.797)">
            <path d="M0.51,-0.7c0.025,0 0.047,0.005 0.064,0.016c0.017,0.01 0.034,0.03 0.051,0.06l0.331,0.601c0.003,0.007 0.004,0.012 0.002,0.017c-0.001,0.004 -0.006,0.006 -0.014,0.006l-0.127,0c-0.011,0 -0.019,-0.004 -0.023,-0.013l-0.071,-0.129l-0.47,0l-0.069,0.129c-0.005,0.009 -0.012,0.013 -0.023,0.013l-0.13,0c-0.009,0 -0.014,-0.002 -0.016,-0.006c-0.001,-0.005 0,-0.01 0.003,-0.017l0.328,-0.601c0.017,-0.03 0.033,-0.05 0.049,-0.06c0.016,-0.011 0.035,-0.016 0.056,-0.016l0.059,0Zm-0.194,0.442l0.344,0l-0.159,-0.293c-0.003,-0.005 -0.006,-0.007 -0.011,-0.007l-0.006,0c-0.005,0 -0.008,0.002 -0.011,0.007l-0.157,0.293Z"
                  style="fill-rule:nonzero;"/>
        </g>
        <g transform="matrix(8,0,0,8,70.8388,610.797)">
            <path d="M0.633,-0.7c0.077,0 0.132,0.017 0.165,0.052c0.033,0.035 0.05,0.086 0.05,0.154l0,0.057c0,0.057 -0.012,0.103 -0.035,0.136c-0.023,0.033 -0.061,0.055 -0.114,0.064l0.171,0.212c0.003,0.003 0.004,0.008 0.003,0.015c-0.001,0.007 -0.007,0.01 -0.016,0.01l-0.129,0c-0.009,0 -0.015,-0.001 -0.018,-0.003c-0.003,-0.002 -0.007,-0.005 -0.01,-0.01l-0.158,-0.208l-0.323,0l0,0.199c0,0.015 -0.007,0.022 -0.022,0.022l-0.108,0c-0.015,0 -0.023,-0.007 -0.023,-0.022l0,-0.648c0,-0.02 0.01,-0.03 0.03,-0.03l0.537,0Zm-0.414,0.357l0.383,0c0.034,0 0.058,-0.007 0.072,-0.022c0.014,-0.015 0.021,-0.037 0.021,-0.067l0,-0.042c0,-0.03 -0.007,-0.052 -0.021,-0.067c-0.014,-0.015 -0.038,-0.022 -0.072,-0.022l-0.37,0c-0.009,0 -0.013,0.004 -0.013,0.012l0,0.208Z"
                  style="fill-rule:nonzero;"/>
        </g>
        <g transform="matrix(8,0,0,8,77.9348,610.797)">
            <path d="M0.789,-0.7c0.015,0 0.022,0.007 0.022,0.022l0,0.098c0,0.015 -0.007,0.023 -0.022,0.023l-0.445,0c-0.026,0 -0.048,0.002 -0.065,0.007c-0.017,0.004 -0.03,0.011 -0.04,0.022c-0.01,0.01 -0.017,0.024 -0.022,0.041c-0.004,0.017 -0.006,0.039 -0.006,0.066l0,0.142c0,0.027 0.002,0.049 0.006,0.067c0.005,0.017 0.012,0.031 0.022,0.042c0.01,0.01 0.023,0.017 0.041,0.022c0.016,0.004 0.038,0.006 0.064,0.006l0.445,0c0.015,0 0.022,0.007 0.022,0.022l0,0.098c0,0.015 -0.007,0.022 -0.022,0.022l-0.451,0c-0.051,0 -0.094,-0.005 -0.129,-0.014c-0.035,-0.009 -0.064,-0.024 -0.087,-0.045c-0.022,-0.021 -0.038,-0.049 -0.049,-0.082c-0.01,-0.034 -0.015,-0.075 -0.015,-0.123l0,-0.172c0,-0.048 0.005,-0.089 0.015,-0.122c0.011,-0.033 0.027,-0.061 0.049,-0.082c0.023,-0.02 0.052,-0.036 0.087,-0.045c0.035,-0.01 0.078,-0.015 0.129,-0.015l0.451,0Z"
                  style="fill-rule:nonzero;"/>
        </g>
        <g transform="matrix(8,0,0,8,84.7508,610.797)">
            <path d="M0.197,-0.7c0.015,0 0.022,0.007 0.022,0.022l0,0.26l0.468,0l0,-0.26c0,-0.015 0.007,-0.022 0.022,-0.022l0.108,0c0.015,0 0.023,0.007 0.023,0.022l0,0.656c0,0.015 -0.008,0.022 -0.023,0.022l-0.108,0c-0.015,0 -0.022,-0.007 -0.022,-0.022l0,-0.266l-0.468,0l0,0.266c0,0.015 -0.007,0.022 -0.022,0.022l-0.108,0c-0.015,0 -0.023,-0.007 -0.023,-0.022l0,-0.656c0,-0.015 0.008,-0.022 0.023,-0.022l0.108,0Z"
                  style="fill-rule:nonzero;"/>
        </g>
    </g>
</svg>
