<?xml version="1.0" encoding="UTF-8" standalone="no"?>
<!DOCTYPE svg PUBLIC "-//W3C//DTD SVG 1.1//EN" "http://www.w3.org/Graphics/SVG/1.1/DTD/svg11.dtd">
<svg xmlns:xlink="http://www.w3.org/1999/xlink"
     xmlns:serif="http://www.serif.com/"
     width="105px"
     height="380px"
     version="1.1"
     xmlns="http://www.w3.org/2000/svg"
     xml:space="preserve"
     style="fill-rule:evenodd;clip-rule:evenodd;stroke-miterlimit:10;">
    <g id="Panel"
       transform="matrix(1.4,0,0,1,-7.10543e-15,0)">
        <rect x="0"
              y="0"
              width="75"
              height="380"
              style="fill:#fff;"/>
    </g>
    <g transform="matrix(0.474034,0,0,1,38.7372,3.21777)">
        <rect x="72.299"
              y="60.454"
              width="4.707"
              height="150.676"/>
    </g>
    <g id="Controls"
       transform="matrix(1,0,0,1,5.29747,35.7891)">
        <g id="ScaleSmall"
           transform="matrix(0.720434,0,0,0.720434,-24.7916,0.0394465)">
            <g id="Big_1_"
               transform="matrix(0.410551,0,0,0.410551,76.6225,53.479)">
                <path d="M129.99,118.265l0,-60.683"
                      style="fill:none;stroke:#000;stroke-width:1.5px;"/>
                <path d="M165.49,93.105l-71,0"
                      style="fill:none;stroke:#000;stroke-width:1.5px;"/>
                <path d="M99.247,110.867l61.488,-35.523"
                      style="fill:none;stroke:#000;stroke-width:1.5px;"/>
                <path d="M112.24,123.872l35.5,-61.53"
                      style="fill:none;stroke:#000;stroke-width:1.5px;"/>
                <path d="M160.735,110.867l-61.488,-35.523"
                      style="fill:none;stroke:#000;stroke-width:1.5px;"/>
                <path d="M147.74,123.872l-35.5,-61.53"
                      style="fill:none;stroke:#000;stroke-width:1.5px;"/>
            </g>
            <g id="InnerCircle_1_"
               transform="matrix(0.745435,0,0,0.745435,33.1524,21.6828)">
                <path d="M117.435,116.771c-8.587,-4.523 -14.444,-13.541 -14.444,-23.928c0,-14.922 12.089,-27.018 27,-27.018c14.91,0 27,12.096 27,27.018c0,10.35 -5.814,19.338 -14.349,23.876"
                      style="fill:#f9f9f9;stroke:#000;stroke-width:2.08px;"/>
            </g>
        </g>
        <g id="ScaleSmall1"
           serif:id="ScaleSmall"
           transform="matrix(0.720434,0,0,0.720434,-24.7916,105.039)">
            <g id="Big_1_1"
               serif:id="Big_1_"
               transform="matrix(0.410551,0,0,0.410551,76.6225,53.479)">
                <path d="M129.99,118.265l0,-60.683"
                      style="fill:none;stroke:#000;stroke-width:1.5px;"/>
                <path d="M165.49,93.105l-71,0"
                      style="fill:none;stroke:#000;stroke-width:1.5px;"/>
                <path d="M99.247,110.867l61.488,-35.523"
                      style="fill:none;stroke:#000;stroke-width:1.5px;"/>
                <path d="M112.24,123.872l35.5,-61.53"
                      style="fill:none;stroke:#000;stroke-width:1.5px;"/>
                <path d="M160.735,110.867l-61.488,-35.523"
                      style="fill:none;stroke:#000;stroke-width:1.5px;"/>
                <path d="M147.74,123.872l-35.5,-61.53"
                      style="fill:none;stroke:#000;stroke-width:1.5px;"/>
            </g>
            <g id="InnerCircle_1_1"
               serif:id="InnerCircle_1_"
               transform="matrix(0.745435,0,0,0.745435,33.1524,21.6828)">
                <path d="M117.435,116.771c-8.587,-4.523 -14.444,-13.541 -14.444,-23.928c0,-14.922 12.089,-27.018 27,-27.018c14.91,0 27,12.096 27,27.018c0,10.35 -5.814,19.338 -14.349,23.876"
                      style="fill:#f9f9f9;stroke:#000;stroke-width:2.08px;"/>
            </g>
        </g>
        <g id="ScaleSmall2"
           serif:id="ScaleSmall"
           transform="matrix(0.720434,0,0,0.720434,-24.3974,153.14)">
            <g id="Big_1_2"
               serif:id="Big_1_"
               transform="matrix(0.410551,0,0,0.410551,76.6225,53.479)">
                <path d="M129.99,118.265l0,-60.683"
                      style="fill:none;stroke:#000;stroke-width:1.5px;"/>
                <path d="M165.49,93.105l-71,0"
                      style="fill:none;stroke:#000;stroke-width:1.5px;"/>
                <path d="M99.247,110.867l61.488,-35.523"
                      style="fill:none;stroke:#000;stroke-width:1.5px;"/>
                <path d="M112.24,123.872l35.5,-61.53"
                      style="fill:none;stroke:#000;stroke-width:1.5px;"/>
                <path d="M160.735,110.867l-61.488,-35.523"
                      style="fill:none;stroke:#000;stroke-width:1.5px;"/>
                <path d="M147.74,123.872l-35.5,-61.53"
                      style="fill:none;stroke:#000;stroke-width:1.5px;"/>
            </g>
            <g id="InnerCircle_1_2"
               serif:id="InnerCircle_1_"
               transform="matrix(0.745435,0,0,0.745435,33.1524,21.6828)">
                <path d="M117.435,116.771c-8.587,-4.523 -14.444,-13.541 -14.444,-23.928c0,-14.922 12.089,-27.018 27,-27.018c14.91,0 27,12.096 27,27.018c0,10.35 -5.814,19.338 -14.349,23.876"
                      style="fill:#f9f9f9;stroke:#000;stroke-width:2.08px;"/>
            </g>
        </g>
        <g id="ScaleSmall3"
           serif:id="ScaleSmall"
           transform="matrix(0.720434,0,0,0.720434,-68.1916,217.039)">
            <g id="Big_1_3"
               serif:id="Big_1_"
               transform="matrix(0.410551,0,0,0.410551,76.6225,53.479)">
                <path d="M129.99,118.265l0,-60.683"
                      style="fill:none;stroke:#000;stroke-width:1.5px;"/>
                <path d="M165.49,93.105l-71,0"
                      style="fill:none;stroke:#000;stroke-width:1.5px;"/>
                <path d="M99.247,110.867l61.488,-35.523"
                      style="fill:none;stroke:#000;stroke-width:1.5px;"/>
                <path d="M112.24,123.872l35.5,-61.53"
                      style="fill:none;stroke:#000;stroke-width:1.5px;"/>
                <path d="M160.735,110.867l-61.488,-35.523"
                      style="fill:none;stroke:#000;stroke-width:1.5px;"/>
                <path d="M147.74,123.872l-35.5,-61.53"
                      style="fill:none;stroke:#000;stroke-width:1.5px;"/>
            </g>
            <g id="InnerCircle_1_3"
               serif:id="InnerCircle_1_"
               transform="matrix(0.745435,0,0,0.745435,33.1524,21.6828)">
                <path d="M117.435,116.771c-8.587,-4.523 -14.444,-13.541 -14.444,-23.928c0,-14.922 12.089,-27.018 27,-27.018c14.91,0 27,12.096 27,27.018c0,10.35 -5.814,19.338 -14.349,23.876"
                      style="fill:#f9f9f9;stroke:#000;stroke-width:2.08px;"/>
            </g>
        </g>
        <g id="ScaleSmall4"
           serif:id="ScaleSmall"
           transform="matrix(0.720434,0,0,0.720434,-24.7916,70.0394)">
            <g id="Big_1_4"
               serif:id="Big_1_"
               transform="matrix(0.410551,0,0,0.410551,76.6225,53.479)">
                <path d="M129.99,118.265l0,-60.683"
                      style="fill:none;stroke:#000;stroke-width:1.5px;"/>
                <path d="M165.49,93.105l-71,0"
                      style="fill:none;stroke:#000;stroke-width:1.5px;"/>
                <path d="M99.247,110.867l61.488,-35.523"
                      style="fill:none;stroke:#000;stroke-width:1.5px;"/>
                <path d="M112.24,123.872l35.5,-61.53"
                      style="fill:none;stroke:#000;stroke-width:1.5px;"/>
                <path d="M160.735,110.867l-61.488,-35.523"
                      style="fill:none;stroke:#000;stroke-width:1.5px;"/>
                <path d="M147.74,123.872l-35.5,-61.53"
                      style="fill:none;stroke:#000;stroke-width:1.5px;"/>
            </g>
            <g id="InnerCircle_1_4"
               serif:id="InnerCircle_1_"
               transform="matrix(0.745435,0,0,0.745435,33.1524,21.6828)">
                <path d="M117.435,116.771c-8.587,-4.523 -14.444,-13.541 -14.444,-23.928c0,-14.922 12.089,-27.018 27,-27.018c14.91,0 27,12.096 27,27.018c0,10.35 -5.814,19.338 -14.349,23.876"
                      style="fill:#f9f9f9;stroke:#000;stroke-width:2.08px;"/>
            </g>
        </g>
        <g id="ScaleSmall5"
           serif:id="ScaleSmall"
           transform="matrix(0.720434,0,0,0.720434,-24.7916,35.0394)">
            <g id="Big_1_5"
               serif:id="Big_1_"
               transform="matrix(0.410551,0,0,0.410551,76.6225,53.479)">
                <path d="M129.99,118.265l0,-60.683"
                      style="fill:none;stroke:#000;stroke-width:1.5px;"/>
                <path d="M165.49,93.105l-71,0"
                      style="fill:none;stroke:#000;stroke-width:1.5px;"/>
                <path d="M99.247,110.867l61.488,-35.523"
                      style="fill:none;stroke:#000;stroke-width:1.5px;"/>
                <path d="M112.24,123.872l35.5,-61.53"
                      style="fill:none;stroke:#000;stroke-width:1.5px;"/>
                <path d="M160.735,110.867l-61.488,-35.523"
                      style="fill:none;stroke:#000;stroke-width:1.5px;"/>
                <path d="M147.74,123.872l-35.5,-61.53"
                      style="fill:none;stroke:#000;stroke-width:1.5px;"/>
            </g>
            <g id="InnerCircle_1_5"
               serif:id="InnerCircle_1_"
               transform="matrix(0.745435,0,0,0.745435,33.1524,21.6828)">
                <path d="M117.435,116.771c-8.587,-4.523 -14.444,-13.541 -14.444,-23.928c0,-14.922 12.089,-27.018 27,-27.018c14.91,0 27,12.096 27,27.018c0,10.35 -5.814,19.338 -14.349,23.876"
                      style="fill:#f9f9f9;stroke:#000;stroke-width:2.08px;"/>
            </g>
        </g>
        <g id="ScaleSmall6"
           serif:id="ScaleSmall"
           transform="matrix(0.720434,0,0,0.720434,-24.7916,-34.9606)">
            <g id="Big_1_6"
               serif:id="Big_1_"
               transform="matrix(0.410551,0,0,0.410551,76.6225,53.479)">
                <path d="M129.99,118.265l0,-60.683"
                      style="fill:none;stroke:#000;stroke-width:1.5px;"/>
                <path d="M165.49,93.105l-71,0"
                      style="fill:none;stroke:#000;stroke-width:1.5px;"/>
                <path d="M99.247,110.867l61.488,-35.523"
                      style="fill:none;stroke:#000;stroke-width:1.5px;"/>
                <path d="M112.24,123.872l35.5,-61.53"
                      style="fill:none;stroke:#000;stroke-width:1.5px;"/>
                <path d="M160.735,110.867l-61.488,-35.523"
                      style="fill:none;stroke:#000;stroke-width:1.5px;"/>
                <path d="M147.74,123.872l-35.5,-61.53"
                      style="fill:none;stroke:#000;stroke-width:1.5px;"/>
            </g>
            <g id="InnerCircle_1_6"
               serif:id="InnerCircle_1_"
               transform="matrix(0.745435,0,0,0.745435,33.1524,21.6828)">
                <path d="M117.435,116.771c-8.587,-4.523 -14.444,-13.541 -14.444,-23.928c0,-14.922 12.089,-27.018 27,-27.018c14.91,0 27,12.096 27,27.018c0,10.35 -5.814,19.338 -14.349,23.876"
                      style="fill:#f9f9f9;stroke:#000;stroke-width:2.08px;"/>
            </g>
        </g>
    </g>
    <g id="Description"
       transform="matrix(1,0,0,1,-3.89421,-22.7183)">
        <path d="M30.182,63.142l-1.472,0l-1.8,-5.328l1.376,0l1.16,4.056l1.16,-4.056l1.376,0l-1.8,5.328Z"
              style="fill-rule:nonzero;stroke:#000;stroke-width:0.3px;stroke-linejoin:round;stroke-miterlimit:1.41421;"/>
        <path d="M35.438,57.718c0.278,0 0.556,0.027 0.836,0.08c0.28,0.054 0.522,0.131 0.724,0.232l-0.192,0.968c-0.16,-0.064 -0.342,-0.118 -0.548,-0.164c-0.205,-0.045 -0.409,-0.068 -0.612,-0.068c-0.544,0 -0.973,0.142 -1.288,0.424c-0.314,0.283 -0.472,0.712 -0.472,1.288c0,0.576 0.158,1.006 0.472,1.288c0.315,0.283 0.744,0.424 1.288,0.424c0.203,0 0.407,-0.022 0.612,-0.068c0.206,-0.045 0.388,-0.1 0.548,-0.164l0.192,0.968c-0.202,0.102 -0.444,0.179 -0.724,0.232c-0.28,0.054 -0.558,0.08 -0.836,0.08c-0.469,0 -0.882,-0.069 -1.24,-0.208c-0.357,-0.138 -0.656,-0.33 -0.896,-0.576c-0.24,-0.245 -0.421,-0.536 -0.544,-0.872c-0.122,-0.336 -0.184,-0.704 -0.184,-1.104c0,-0.4 0.062,-0.768 0.184,-1.104c0.123,-0.336 0.304,-0.626 0.544,-0.872c0.24,-0.245 0.539,-0.437 0.896,-0.576c0.358,-0.138 0.771,-0.208 1.24,-0.208Z"
              style="fill-rule:nonzero;stroke:#000;stroke-width:0.3px;stroke-linejoin:round;stroke-miterlimit:1.41421;"/>
        <path d="M43.926,62.294l-1.264,0l-1.04,-2.136l-0.16,2.984l-1.288,0l0.4,-5.328l1.184,0l1.536,3.256l1.536,-3.256l1.184,0l0.4,5.328l-1.288,0l-0.16,-2.984l-1.04,2.136Z"
              style="fill-rule:nonzero;stroke:#000;stroke-width:0.3px;stroke-linejoin:round;stroke-miterlimit:1.41421;"/>
        <rect x="47.71"
              y="57.814"
              width="1.312"
              height="5.328"
              style="fill-rule:nonzero;stroke:#000;stroke-width:0.3px;stroke-linejoin:round;stroke-miterlimit:1.41421;"/>
        <path d="M53.27,60.462l1.8,2.68l-1.4,0l-1.072,-1.704l-1.072,1.704l-1.4,0l1.8,-2.68l-1.768,-2.648l1.392,0l1.048,1.664l1.048,-1.664l1.392,0l-1.768,2.648Z"
              style="fill-rule:nonzero;stroke:#000;stroke-width:0.3px;stroke-linejoin:round;stroke-miterlimit:1.41421;"/>
        <path d="M56.134,57.814l3.32,0l0,1.04l-2.008,0l0,1.072l1.912,0l0,1.04l-1.912,0l0,1.136l2.032,0l0,1.04l-3.344,0l0,-5.328Z"
              style="fill-rule:nonzero;stroke:#000;stroke-width:0.3px;stroke-linejoin:round;stroke-miterlimit:1.41421;"/>
        <path d="M64.798,59.502c0,0.358 -0.1,0.67 -0.3,0.936c-0.2,0.267 -0.478,0.47 -0.836,0.608l1.752,2.096l-1.616,0l-1.464,-1.848l-0.24,0l0,1.848l-1.312,0l0,-5.328l1.696,0c0.331,0 0.638,0.035 0.92,0.104c0.283,0.07 0.528,0.174 0.736,0.312c0.208,0.139 0.371,0.314 0.488,0.524c0.118,0.211 0.176,0.46 0.176,0.748Zm-1.264,0.024c0,-0.24 -0.093,-0.417 -0.28,-0.532c-0.186,-0.114 -0.448,-0.172 -0.784,-0.172l-0.376,0l0,1.496l0.32,0c0.352,0 0.627,-0.069 0.824,-0.208c0.198,-0.138 0.296,-0.333 0.296,-0.584Z"
              style="fill-rule:nonzero;stroke:#000;stroke-width:0.3px;stroke-linejoin:round;stroke-miterlimit:1.41421;"/>
        <path d="M71.71,62.11l-2.04,0l-0.328,1.032l-1.352,0l1.984,-5.328l1.44,0l1.984,5.328l-1.352,0l-0.336,-1.032Zm-1.704,-1.04l1.368,0l-0.68,-2.248l-0.688,2.248Z"
              style="fill-rule:nonzero;stroke:#000;stroke-width:0.3px;stroke-linejoin:round;stroke-miterlimit:1.41421;"/>
        <path d="M77.982,62.294l-1.264,0l-1.04,-2.136l-0.16,2.984l-1.288,0l0.4,-5.328l1.184,0l1.536,3.256l1.536,-3.256l1.184,0l0.4,5.328l-1.288,0l-0.16,-2.984l-1.04,2.136Z"
              style="fill-rule:nonzero;stroke:#000;stroke-width:0.3px;stroke-linejoin:round;stroke-miterlimit:1.41421;"/>
        <path d="M85.582,59.55c0,0.283 -0.061,0.536 -0.184,0.76c-0.122,0.224 -0.292,0.412 -0.508,0.564c-0.216,0.152 -0.47,0.268 -0.764,0.348c-0.293,0.08 -0.61,0.12 -0.952,0.12l-0.136,0l0,1.8l-1.312,0l0,-5.328l1.536,0c0.336,0 0.647,0.035 0.932,0.104c0.286,0.07 0.531,0.175 0.736,0.316c0.206,0.142 0.366,0.322 0.48,0.54c0.115,0.219 0.172,0.478 0.172,0.776Zm-1.264,0.008c0,-0.49 -0.349,-0.736 -1.048,-0.736l-0.232,0l0,1.512l0.216,0c0.347,0 0.611,-0.069 0.792,-0.208c0.182,-0.138 0.272,-0.328 0.272,-0.568Z"
              style="fill-rule:nonzero;stroke:#000;stroke-width:0.3px;stroke-linejoin:round;stroke-miterlimit:1.41421;"/>
    </g>
    <g transform="matrix(0.742645,0,0,0.780697,-13.6716,-14.6283)">
        <g id="Description1"
           serif:id="Description">
            <path d="M153.063,63.926c0,-1.611 -1.375,-2.919 -3.068,-2.919l-121.785,0c-1.693,0 -3.068,1.308 -3.068,2.919l0,13.601c0,1.611 1.375,2.919 3.068,2.919l121.785,0c1.693,0 3.068,-1.308 3.068,-2.919l0,-13.601Z"/>
        </g>
    </g>
    <g id="Description--Art-Text-"
       serif:id="Description (Art Text)"
       transform="matrix(1,0,0,1,-3.76801,-19.7957)">
        <g transform="matrix(8.4,0,0,8.4,26.9102,63.1423)">
            <path d="M0.403,0l0.227,-0.674l-0.162,0l-0.086,0.288c-0.023,0.077 -0.044,0.157 -0.061,0.238l-0.003,0c-0.016,-0.084 -0.037,-0.161 -0.06,-0.241l-0.082,-0.285l-0.167,0l0.216,0.674l0.178,0Z"
                  style="fill:#fff;fill-rule:nonzero;"/>
        </g>
        <g transform="matrix(8.4,0,0,8.4,32.6054,63.1423)">
            <path d="M0.538,-0.138c-0.03,0.012 -0.081,0.022 -0.127,0.022c-0.136,0 -0.216,-0.085 -0.216,-0.22c0,-0.15 0.094,-0.223 0.215,-0.223c0.054,0 0.097,0.012 0.128,0.025l0.031,-0.121c-0.027,-0.014 -0.087,-0.029 -0.166,-0.029c-0.204,0 -0.368,0.127 -0.368,0.357c0,0.192 0.12,0.338 0.353,0.338c0.082,0 0.145,-0.016 0.173,-0.03l-0.023,-0.119Z"
                  style="fill:#fff;fill-rule:nonzero;"/>
        </g>
        <g transform="matrix(8.4,0,0,8.4,40.1402,63.1423)">
            <path d="M0.646,0l0.149,0l-0.037,-0.674l-0.199,0l-0.072,0.224c-0.023,0.075 -0.045,0.167 -0.064,0.245l-0.003,0c-0.015,-0.079 -0.035,-0.167 -0.057,-0.244l-0.066,-0.225l-0.203,0l-0.043,0.674l0.141,0l0.012,-0.256c0.005,-0.084 0.008,-0.188 0.012,-0.279l0.002,0c0.016,0.088 0.039,0.184 0.061,0.264l0.071,0.26l0.12,0l0.082,-0.262c0.025,-0.078 0.054,-0.176 0.075,-0.262l0.003,0c0,0.098 0.003,0.196 0.006,0.277l0.01,0.258Z"
                  style="fill:#fff;fill-rule:nonzero;"/>
        </g>
        <g transform="matrix(8.4,0,0,8.4,47.6666,63.1423)">
            <rect x="0.066"
                  y="-0.674"
                  width="0.153"
                  height="0.674"
                  style="fill:#fff;fill-rule:nonzero;"/>
        </g>
        <g transform="matrix(8.4,0,0,8.4,50.4806,63.1423)">
            <path d="M0.597,0l-0.2,-0.345l0.19,-0.329l-0.174,0l-0.057,0.123c-0.017,0.039 -0.03,0.069 -0.046,0.112l-0.002,0c-0.016,-0.038 -0.031,-0.071 -0.051,-0.112l-0.059,-0.123l-0.175,0l0.188,0.333l-0.195,0.341l0.174,0l0.056,-0.122c0.021,-0.047 0.038,-0.082 0.052,-0.121l0.002,0c0.019,0.039 0.035,0.074 0.06,0.121l0.061,0.122l0.176,0Z"
                  style="fill:#fff;fill-rule:nonzero;"/>
        </g>
        <g transform="matrix(8.4,0,0,8.4,56.0498,63.1423)">
            <path d="M0.467,-0.409l-0.248,0l0,-0.14l0.263,0l0,-0.125l-0.416,0l0,0.674l0.43,0l0,-0.125l-0.277,0l0,-0.16l0.248,0l0,-0.124Z"
                  style="fill:#fff;fill-rule:nonzero;"/>
        </g>
        <g transform="matrix(8.4,0,0,8.4,60.9554,63.1423)">
            <path d="M0.066,0l0.151,0l0,-0.265l0.046,0c0.062,0.001 0.091,0.024 0.109,0.108c0.02,0.083 0.036,0.138 0.047,0.157l0.156,0c-0.013,-0.026 -0.034,-0.114 -0.055,-0.19c-0.017,-0.062 -0.043,-0.107 -0.09,-0.126l0,-0.003c0.058,-0.021 0.119,-0.08 0.119,-0.166c0,-0.062 -0.022,-0.109 -0.062,-0.141c-0.048,-0.038 -0.118,-0.053 -0.218,-0.053c-0.081,0 -0.154,0.006 -0.203,0.014l0,0.665Zm0.151,-0.561c0.011,-0.002 0.032,-0.005 0.069,-0.005c0.07,0.001 0.112,0.032 0.112,0.094c0,0.059 -0.045,0.097 -0.121,0.097l-0.06,0l0,-0.186Z"
                  style="fill:#fff;fill-rule:nonzero;"/>
        </g>
        <g transform="matrix(8.4,0,0,8.4,68.4734,63.1423)">
            <path d="M0.416,-0.173l0.052,0.173l0.164,0l-0.209,-0.674l-0.2,0l-0.206,0.674l0.158,0l0.048,-0.173l0.193,0Zm-0.171,-0.114l0.04,-0.143c0.011,-0.039 0.021,-0.09 0.031,-0.13l0.002,0c0.01,0.04 0.022,0.09 0.034,0.13l0.042,0.143l-0.149,0Z"
                  style="fill:#fff;fill-rule:nonzero;"/>
        </g>
        <g transform="matrix(8.4,0,0,8.4,74.4038,63.1423)">
            <path d="M0.646,0l0.149,0l-0.037,-0.674l-0.199,0l-0.072,0.224c-0.023,0.075 -0.045,0.167 -0.064,0.245l-0.003,0c-0.015,-0.079 -0.035,-0.167 -0.057,-0.244l-0.066,-0.225l-0.203,0l-0.043,0.674l0.141,0l0.012,-0.256c0.005,-0.084 0.008,-0.188 0.012,-0.279l0.002,0c0.016,0.088 0.039,0.184 0.061,0.264l0.071,0.26l0.12,0l0.082,-0.262c0.025,-0.078 0.054,-0.176 0.075,-0.262l0.003,0c0,0.098 0.003,0.196 0.006,0.277l0.01,0.258Z"
                  style="fill:#fff;fill-rule:nonzero;"/>
        </g>
        <g transform="matrix(8.4,0,0,8.4,81.9302,63.1423)">
            <path d="M0.066,0l0.151,0l0,-0.24c0.014,0.001 0.032,0.003 0.053,0.003c0.089,0 0.166,-0.023 0.218,-0.072c0.04,-0.037 0.062,-0.093 0.062,-0.16c0,-0.066 -0.029,-0.122 -0.072,-0.156c-0.045,-0.036 -0.112,-0.054 -0.206,-0.054c-0.091,0 -0.159,0.006 -0.206,0.014l0,0.665Zm0.151,-0.559c0.011,-0.002 0.031,-0.005 0.061,-0.005c0.079,0 0.121,0.037 0.121,0.1c0,0.068 -0.05,0.109 -0.131,0.109c-0.022,0 -0.04,-0.001 -0.051,-0.003l0,-0.201Z"
                  style="fill:#fff;fill-rule:nonzero;"/>
        </g>
    </g>
    <g id="Label"
       transform="matrix(1,0,0,1,7.5,0)">
        <g id="Description2"
           serif:id="Description"
           transform="matrix(1,0,0,1,-9.6616,216.412)">
            <path d="M30.022,57.718c0.24,0 0.491,0.023 0.752,0.068c0.262,0.046 0.48,0.106 0.656,0.18l-0.12,0.568c-0.181,-0.064 -0.376,-0.116 -0.584,-0.156c-0.208,-0.04 -0.413,-0.06 -0.616,-0.06c-0.666,0 -1.186,0.187 -1.56,0.56c-0.373,0.374 -0.56,0.907 -0.56,1.6c0,0.694 0.187,1.227 0.56,1.6c0.374,0.374 0.894,0.56 1.56,0.56c0.203,0 0.408,-0.02 0.616,-0.06c0.208,-0.04 0.403,-0.092 0.584,-0.156l0.12,0.568c-0.176,0.075 -0.394,0.135 -0.656,0.18c-0.261,0.046 -0.512,0.068 -0.752,0.068c-0.437,0 -0.828,-0.069 -1.172,-0.208c-0.344,-0.138 -0.633,-0.33 -0.868,-0.576c-0.234,-0.245 -0.414,-0.536 -0.54,-0.872c-0.125,-0.336 -0.188,-0.704 -0.188,-1.104c0,-0.4 0.063,-0.768 0.188,-1.104c0.126,-0.336 0.306,-0.626 0.54,-0.872c0.235,-0.245 0.524,-0.437 0.868,-0.576c0.344,-0.138 0.735,-0.208 1.172,-0.208Z"
                  style="fill-rule:nonzero;stroke:#000;stroke-width:0.3px;stroke-linejoin:round;stroke-miterlimit:1.41421;"/>
            <path d="M36.166,57.814l0.736,0l-1.912,5.328l-0.768,0l-1.912,-5.328l0.736,0l1.56,4.456l1.56,-4.456Z"
                  style="fill-rule:nonzero;stroke:#000;stroke-width:0.3px;stroke-linejoin:round;stroke-miterlimit:1.41421;"/>
        </g>
        <g id="Shapes">
            <g id="Description3"
               serif:id="Description"
               transform="matrix(1,0,0,1,53.982,203.234)">
                <path d="M27.42,59.146l2.136,0l0,0.336l-1.728,0l0,1.446l1.656,0l0,0.336l-1.656,0l0,1.542l1.746,0l0,0.336l-2.154,0l0,-3.996Z"
                      style="fill-rule:nonzero;stroke:#000;stroke-width:0.3px;stroke-linejoin:round;stroke-miterlimit:1.41421;"/>
                <path d="M33.108,59.146l0.45,0l-1.338,1.986l1.362,2.01l-0.456,0l-1.116,-1.692l-1.116,1.692l-0.456,0l1.362,-2.01l-1.338,-1.986l0.45,0l1.098,1.662l1.098,-1.662Z"
                      style="fill-rule:nonzero;stroke:#000;stroke-width:0.3px;stroke-linejoin:round;stroke-miterlimit:1.41421;"/>
                <path d="M36.942,60.286c0,0.192 -0.04,0.364 -0.12,0.516c-0.08,0.152 -0.191,0.28 -0.333,0.384c-0.142,0.104 -0.31,0.184 -0.504,0.24c-0.194,0.056 -0.407,0.084 -0.639,0.084l-0.348,0l0,1.632l-0.408,0l0,-3.996l0.894,0c0.2,0 0.389,0.024 0.567,0.072c0.178,0.048 0.333,0.12 0.465,0.216c0.132,0.096 0.236,0.215 0.312,0.357c0.076,0.142 0.114,0.307 0.114,0.495Zm-0.408,0c0,-0.144 -0.029,-0.267 -0.087,-0.369c-0.058,-0.102 -0.137,-0.185 -0.237,-0.249c-0.1,-0.064 -0.214,-0.111 -0.342,-0.141c-0.128,-0.03 -0.262,-0.045 -0.402,-0.045l-0.468,0l0,1.692l0.366,0c0.168,0 0.324,-0.02 0.468,-0.06c0.144,-0.04 0.268,-0.097 0.372,-0.171c0.104,-0.074 0.185,-0.166 0.243,-0.276c0.058,-0.11 0.087,-0.237 0.087,-0.381Z"
                      style="fill-rule:nonzero;stroke:#000;stroke-width:0.3px;stroke-linejoin:round;stroke-miterlimit:1.41421;"/>
            </g>
            <g id="Description4"
               serif:id="Description"
               transform="matrix(1,0,0,1,14.3408,203.306)">
                <path d="M27.828,59.146l0,3.66l1.686,0l0,0.336l-2.094,0l0,-3.996l0.408,0Z"
                      style="fill-rule:nonzero;stroke:#000;stroke-width:0.3px;stroke-linejoin:round;stroke-miterlimit:1.41421;"/>
                <path d="M32.028,63.214c-0.304,0 -0.575,-0.056 -0.813,-0.168c-0.238,-0.112 -0.438,-0.263 -0.6,-0.453c-0.162,-0.19 -0.286,-0.41 -0.372,-0.66c-0.086,-0.25 -0.129,-0.513 -0.129,-0.789c0,-0.276 0.043,-0.539 0.129,-0.789c0.086,-0.25 0.21,-0.47 0.372,-0.66c0.162,-0.19 0.362,-0.341 0.6,-0.453c0.238,-0.112 0.509,-0.168 0.813,-0.168c0.304,0 0.575,0.056 0.813,0.168c0.238,0.112 0.438,0.263 0.6,0.453c0.162,0.19 0.286,0.41 0.372,0.66c0.086,0.25 0.129,0.513 0.129,0.789c0,0.276 -0.043,0.539 -0.129,0.789c-0.086,0.25 -0.21,0.47 -0.372,0.66c-0.162,0.19 -0.362,0.341 -0.6,0.453c-0.238,0.112 -0.509,0.168 -0.813,0.168Zm0,-0.336c0.24,0 0.453,-0.046 0.639,-0.138c0.186,-0.092 0.344,-0.216 0.474,-0.372c0.13,-0.156 0.228,-0.339 0.294,-0.549c0.066,-0.21 0.099,-0.435 0.099,-0.675c0,-0.236 -0.033,-0.459 -0.099,-0.669c-0.066,-0.21 -0.164,-0.394 -0.294,-0.552c-0.13,-0.158 -0.288,-0.283 -0.474,-0.375c-0.186,-0.092 -0.399,-0.138 -0.639,-0.138c-0.24,0 -0.453,0.046 -0.639,0.138c-0.186,0.092 -0.343,0.217 -0.471,0.375c-0.128,0.158 -0.226,0.342 -0.294,0.552c-0.068,0.21 -0.102,0.433 -0.102,0.669c0,0.24 0.034,0.465 0.102,0.675c0.068,0.21 0.166,0.393 0.294,0.549c0.128,0.156 0.285,0.28 0.471,0.372c0.186,0.092 0.399,0.138 0.639,0.138Z"
                      style="fill-rule:nonzero;stroke:#000;stroke-width:0.3px;stroke-linejoin:round;stroke-miterlimit:1.41421;"/>
                <path d="M36.9,59.074c0.216,0 0.424,0.017 0.624,0.051c0.2,0.034 0.384,0.091 0.552,0.171l-0.072,0.33c-0.164,-0.068 -0.34,-0.121 -0.528,-0.159c-0.188,-0.038 -0.378,-0.057 -0.57,-0.057c-0.26,0 -0.495,0.039 -0.705,0.117c-0.21,0.078 -0.39,0.193 -0.54,0.345c-0.15,0.152 -0.266,0.338 -0.348,0.558c-0.082,0.22 -0.123,0.472 -0.123,0.756c0,0.536 0.147,0.953 0.441,1.251c0.294,0.298 0.721,0.447 1.281,0.447c0.128,0 0.271,-0.01 0.429,-0.03c0.158,-0.02 0.289,-0.046 0.393,-0.078l0,-1.356l0.378,0l0,1.59c-0.16,0.064 -0.354,0.114 -0.582,0.15c-0.228,0.036 -0.45,0.054 -0.666,0.054c-0.324,0 -0.614,-0.049 -0.87,-0.147c-0.256,-0.098 -0.474,-0.236 -0.654,-0.414c-0.18,-0.178 -0.318,-0.392 -0.414,-0.642c-0.096,-0.25 -0.144,-0.525 -0.144,-0.825c0,-0.32 0.049,-0.61 0.147,-0.87c0.098,-0.26 0.239,-0.482 0.423,-0.666c0.184,-0.184 0.407,-0.326 0.669,-0.426c0.262,-0.1 0.555,-0.15 0.879,-0.15Z"
                      style="fill-rule:nonzero;stroke:#000;stroke-width:0.3px;stroke-linejoin:round;stroke-miterlimit:1.41421;"/>
            </g>
            <g id="Description5"
               serif:id="Description"
               transform="matrix(1,0,0,1,35.049,174.078)">
                <path d="M27.828,59.146l0,3.66l1.686,0l0,0.336l-2.094,0l0,-3.996l0.408,0Z"
                      style="fill-rule:nonzero;stroke:#000;stroke-width:0.3px;stroke-linejoin:round;stroke-miterlimit:1.41421;"/>
                <rect x="30.498"
                      y="59.146"
                      width="0.408"
                      height="3.996"
                      style="fill-rule:nonzero;stroke:#000;stroke-width:0.3px;stroke-linejoin:round;stroke-miterlimit:1.41421;"/>
                <path d="M35.016,63.142l-2.37,-3.342l0,3.342l-0.39,0l0,-3.996l0.39,0l2.37,3.342l0,-3.342l0.39,0l0,3.996l-0.39,0Z"
                      style="fill-rule:nonzero;stroke:#000;stroke-width:0.3px;stroke-linejoin:round;stroke-miterlimit:1.41421;"/>
            </g>
        </g>
        <g id="Description6"
           serif:id="Description"
           transform="matrix(1,0,0,1,28.3,216.412)">
            <path d="M30.622,61.758c0,0.23 -0.049,0.435 -0.148,0.616c-0.098,0.182 -0.232,0.336 -0.4,0.464c-0.168,0.128 -0.365,0.227 -0.592,0.296c-0.226,0.07 -0.47,0.104 -0.732,0.104c-0.256,0 -0.518,-0.026 -0.788,-0.08c-0.269,-0.053 -0.516,-0.133 -0.74,-0.24l0.144,-0.584c0.198,0.091 0.415,0.166 0.652,0.224c0.238,0.059 0.476,0.088 0.716,0.088c0.347,0 0.627,-0.073 0.84,-0.22c0.214,-0.146 0.32,-0.358 0.32,-0.636c0,-0.154 -0.03,-0.286 -0.092,-0.396c-0.061,-0.109 -0.145,-0.208 -0.252,-0.296c-0.106,-0.088 -0.23,-0.166 -0.372,-0.236c-0.141,-0.069 -0.292,-0.141 -0.452,-0.216c-0.181,-0.085 -0.356,-0.174 -0.524,-0.268c-0.168,-0.093 -0.316,-0.2 -0.444,-0.32c-0.128,-0.12 -0.23,-0.256 -0.308,-0.408c-0.077,-0.152 -0.116,-0.329 -0.116,-0.532c0,-0.229 0.042,-0.432 0.124,-0.608c0.083,-0.176 0.199,-0.322 0.348,-0.44c0.15,-0.117 0.328,-0.205 0.536,-0.264c0.208,-0.058 0.438,-0.088 0.688,-0.088c0.256,0 0.506,0.03 0.748,0.088c0.243,0.059 0.455,0.136 0.636,0.232l-0.136,0.584c-0.17,-0.09 -0.365,-0.165 -0.584,-0.224c-0.218,-0.058 -0.44,-0.088 -0.664,-0.088c-0.645,0 -0.968,0.251 -0.968,0.752c0,0.112 0.016,0.21 0.048,0.292c0.032,0.083 0.084,0.16 0.156,0.232c0.072,0.072 0.168,0.142 0.288,0.208c0.12,0.067 0.266,0.143 0.436,0.228c0.171,0.086 0.352,0.178 0.544,0.276c0.192,0.099 0.368,0.216 0.528,0.352c0.16,0.136 0.294,0.295 0.4,0.476c0.107,0.182 0.16,0.392 0.16,0.632Z"
                  style="fill-rule:nonzero;stroke:#000;stroke-width:0.3px;stroke-linejoin:round;stroke-miterlimit:1.41421;"/>
            <path d="M35.422,63.142l0,-2.392l-2.728,0l0,2.392l-0.736,0l0,-5.328l0.736,0l0,2.312l2.728,0l0,-2.312l0.736,0l0,5.328l-0.736,0Z"
                  style="fill-rule:nonzero;stroke:#000;stroke-width:0.3px;stroke-linejoin:round;stroke-miterlimit:1.41421;"/>
            <path d="M42.382,63.142l-0.752,0l-0.488,-1.288l-2.488,0l-0.48,1.288l-0.752,0l2.12,-5.328l0.72,0l2.12,5.328Zm-3.504,-1.88l2.048,0l-1.024,-2.776l-1.024,2.776Z"
                  style="fill-rule:nonzero;stroke:#000;stroke-width:0.3px;stroke-linejoin:round;stroke-miterlimit:1.41421;"/>
            <path d="M46.974,59.374c0,0.256 -0.056,0.487 -0.168,0.692c-0.112,0.206 -0.268,0.38 -0.468,0.524c-0.2,0.144 -0.436,0.255 -0.708,0.332c-0.272,0.078 -0.565,0.116 -0.88,0.116l-0.368,0l0,2.104l-0.736,0l0,-5.328l1.288,0c0.288,0 0.556,0.032 0.804,0.096c0.248,0.064 0.464,0.162 0.648,0.292c0.184,0.131 0.328,0.294 0.432,0.488c0.104,0.195 0.156,0.423 0.156,0.684Zm-0.736,-0.008c0,-0.176 -0.034,-0.324 -0.104,-0.444c-0.069,-0.12 -0.164,-0.218 -0.284,-0.296c-0.12,-0.077 -0.261,-0.133 -0.424,-0.168c-0.162,-0.034 -0.334,-0.052 -0.516,-0.052l-0.528,0l0,2.04l0.392,0c0.214,0 0.41,-0.024 0.588,-0.072c0.179,-0.048 0.334,-0.118 0.464,-0.212c0.131,-0.093 0.232,-0.206 0.304,-0.34c0.072,-0.133 0.108,-0.285 0.108,-0.456Z"
                  style="fill-rule:nonzero;stroke:#000;stroke-width:0.3px;stroke-linejoin:round;stroke-miterlimit:1.41421;"/>
            <path d="M48.11,57.814l2.968,0l0,0.6l-2.232,0l0,1.704l2.136,0l0,0.6l-2.136,0l0,1.824l2.256,0l0,0.6l-2.992,0l0,-5.328Z"
                  style="fill-rule:nonzero;stroke:#000;stroke-width:0.3px;stroke-linejoin:round;stroke-miterlimit:1.41421;"/>
        </g>
        <g id="Description7"
           serif:id="Description"
           transform="matrix(1,0,0,1,32.292,281.412)">
            <path d="M29.87,63.238c-0.416,0 -0.786,-0.074 -1.112,-0.224c-0.325,-0.149 -0.597,-0.349 -0.816,-0.6c-0.218,-0.25 -0.385,-0.544 -0.5,-0.88c-0.114,-0.336 -0.172,-0.688 -0.172,-1.056c0,-0.368 0.058,-0.72 0.172,-1.056c0.115,-0.336 0.282,-0.629 0.5,-0.88c0.219,-0.25 0.491,-0.45 0.816,-0.6c0.326,-0.149 0.696,-0.224 1.112,-0.224c0.416,0 0.787,0.075 1.112,0.224c0.326,0.15 0.598,0.35 0.816,0.6c0.219,0.251 0.386,0.544 0.5,0.88c0.115,0.336 0.172,0.688 0.172,1.056c0,0.368 -0.057,0.72 -0.172,1.056c-0.114,0.336 -0.281,0.63 -0.5,0.88c-0.218,0.251 -0.49,0.451 -0.816,0.6c-0.325,0.15 -0.696,0.224 -1.112,0.224Zm0,-0.592c0.304,0 0.574,-0.056 0.808,-0.168c0.235,-0.112 0.43,-0.266 0.584,-0.464c0.155,-0.197 0.272,-0.428 0.352,-0.692c0.08,-0.264 0.12,-0.545 0.12,-0.844c0,-0.298 -0.04,-0.58 -0.12,-0.844c-0.08,-0.264 -0.197,-0.493 -0.352,-0.688c-0.154,-0.194 -0.349,-0.349 -0.584,-0.464c-0.234,-0.114 -0.504,-0.172 -0.808,-0.172c-0.304,0 -0.573,0.058 -0.808,0.172c-0.234,0.115 -0.429,0.27 -0.584,0.464c-0.154,0.195 -0.272,0.424 -0.352,0.688c-0.08,0.264 -0.12,0.546 -0.12,0.844c0,0.299 0.04,0.58 0.12,0.844c0.08,0.264 0.198,0.495 0.352,0.692c0.155,0.198 0.35,0.352 0.584,0.464c0.235,0.112 0.504,0.168 0.808,0.168Z"
                  style="fill-rule:nonzero;stroke:#000;stroke-width:0.3px;stroke-linejoin:round;stroke-miterlimit:1.41421;"/>
            <path d="M37.278,57.814l0.736,0l0,3.44c0,0.278 -0.045,0.538 -0.136,0.78c-0.09,0.243 -0.224,0.454 -0.4,0.632c-0.176,0.179 -0.393,0.319 -0.652,0.42c-0.258,0.102 -0.558,0.152 -0.9,0.152c-0.341,0 -0.641,-0.05 -0.9,-0.152c-0.258,-0.101 -0.476,-0.241 -0.652,-0.42c-0.176,-0.178 -0.309,-0.389 -0.4,-0.632c-0.09,-0.242 -0.136,-0.502 -0.136,-0.78l0,-3.44l0.736,0l0,3.472c0,0.4 0.114,0.726 0.34,0.976c0.227,0.251 0.564,0.376 1.012,0.376c0.448,0 0.786,-0.125 1.012,-0.376c0.227,-0.25 0.34,-0.576 0.34,-0.976l0,-3.472Z"
                  style="fill-rule:nonzero;stroke:#000;stroke-width:0.3px;stroke-linejoin:round;stroke-miterlimit:1.41421;"/>
            <path d="M43.07,57.814l0,0.6l-1.568,0l0,4.728l-0.736,0l0,-4.728l-1.568,0l0,-0.6l3.872,0Z"
                  style="fill-rule:nonzero;stroke:#000;stroke-width:0.3px;stroke-linejoin:round;stroke-miterlimit:1.41421;"/>
        </g>
        <g id="Description8"
           serif:id="Description"
           transform="matrix(1,0,0,1,-19.7,281.412)">
            <path d="M32.118,57.814l0.664,0l0.384,5.328l-0.704,0l-0.256,-4.152l-1.536,3.192l-0.752,0l-1.536,-3.192l-0.256,4.152l-0.704,0l0.384,-5.328l0.664,0l1.824,3.768l1.824,-3.768Z"
                  style="fill-rule:nonzero;stroke:#000;stroke-width:0.3px;stroke-linejoin:round;stroke-miterlimit:1.41421;"/>
            <path d="M39.262,63.142l-0.752,0l-0.488,-1.288l-2.488,0l-0.48,1.288l-0.752,0l2.12,-5.328l0.72,0l2.12,5.328Zm-3.504,-1.88l2.048,0l-1.024,-2.776l-1.024,2.776Z"
                  style="fill-rule:nonzero;stroke:#000;stroke-width:0.3px;stroke-linejoin:round;stroke-miterlimit:1.41421;"/>
            <path d="M43.598,61.758c0,0.23 -0.049,0.435 -0.148,0.616c-0.098,0.182 -0.232,0.336 -0.4,0.464c-0.168,0.128 -0.365,0.227 -0.592,0.296c-0.226,0.07 -0.47,0.104 -0.732,0.104c-0.256,0 -0.518,-0.026 -0.788,-0.08c-0.269,-0.053 -0.516,-0.133 -0.74,-0.24l0.144,-0.584c0.198,0.091 0.415,0.166 0.652,0.224c0.238,0.059 0.476,0.088 0.716,0.088c0.347,0 0.627,-0.073 0.84,-0.22c0.214,-0.146 0.32,-0.358 0.32,-0.636c0,-0.154 -0.03,-0.286 -0.092,-0.396c-0.061,-0.109 -0.145,-0.208 -0.252,-0.296c-0.106,-0.088 -0.23,-0.166 -0.372,-0.236c-0.141,-0.069 -0.292,-0.141 -0.452,-0.216c-0.181,-0.085 -0.356,-0.174 -0.524,-0.268c-0.168,-0.093 -0.316,-0.2 -0.444,-0.32c-0.128,-0.12 -0.23,-0.256 -0.308,-0.408c-0.077,-0.152 -0.116,-0.329 -0.116,-0.532c0,-0.229 0.042,-0.432 0.124,-0.608c0.083,-0.176 0.199,-0.322 0.348,-0.44c0.15,-0.117 0.328,-0.205 0.536,-0.264c0.208,-0.058 0.438,-0.088 0.688,-0.088c0.256,0 0.506,0.03 0.748,0.088c0.243,0.059 0.455,0.136 0.636,0.232l-0.136,0.584c-0.17,-0.09 -0.365,-0.165 -0.584,-0.224c-0.218,-0.058 -0.44,-0.088 -0.664,-0.088c-0.645,0 -0.968,0.251 -0.968,0.752c0,0.112 0.016,0.21 0.048,0.292c0.032,0.083 0.084,0.16 0.156,0.232c0.072,0.072 0.168,0.142 0.288,0.208c0.12,0.067 0.266,0.143 0.436,0.228c0.171,0.086 0.352,0.178 0.544,0.276c0.192,0.099 0.368,0.216 0.528,0.352c0.16,0.136 0.294,0.295 0.4,0.476c0.107,0.182 0.16,0.392 0.16,0.632Z"
                  style="fill-rule:nonzero;stroke:#000;stroke-width:0.3px;stroke-linejoin:round;stroke-miterlimit:1.41421;"/>
            <path d="M48.342,57.814l0,0.6l-1.568,0l0,4.728l-0.736,0l0,-4.728l-1.568,0l0,-0.6l3.872,0Z"
                  style="fill-rule:nonzero;stroke:#000;stroke-width:0.3px;stroke-linejoin:round;stroke-miterlimit:1.41421;"/>
            <path d="M49.558,57.814l2.968,0l0,0.6l-2.232,0l0,1.704l2.136,0l0,0.6l-2.136,0l0,1.824l2.256,0l0,0.6l-2.992,0l0,-5.328Z"
                  style="fill-rule:nonzero;stroke:#000;stroke-width:0.3px;stroke-linejoin:round;stroke-miterlimit:1.41421;"/>
            <path d="M54.774,63.142l-0.736,0l0,-5.328l1.384,0c0.288,0 0.556,0.032 0.804,0.096c0.248,0.064 0.466,0.159 0.652,0.284c0.187,0.126 0.334,0.283 0.44,0.472c0.107,0.19 0.16,0.407 0.16,0.652c0,0.368 -0.118,0.688 -0.356,0.96c-0.237,0.272 -0.569,0.47 -0.996,0.592l1.88,2.272l-0.904,0l-1.736,-2.144c-0.026,0 -0.066,0.002 -0.12,0.004c-0.053,0.003 -0.109,0.004 -0.168,0.004l-0.304,0l0,2.136Zm1.968,-3.808c0,-0.165 -0.036,-0.308 -0.108,-0.428c-0.072,-0.12 -0.169,-0.216 -0.292,-0.288c-0.122,-0.072 -0.264,-0.125 -0.424,-0.16c-0.16,-0.034 -0.328,-0.052 -0.504,-0.052l-0.64,0l0,2.008l0.368,0c0.224,0 0.434,-0.021 0.628,-0.064c0.195,-0.042 0.364,-0.108 0.508,-0.196c0.144,-0.088 0.258,-0.2 0.34,-0.336c0.083,-0.136 0.124,-0.297 0.124,-0.484Z"
                  style="fill-rule:nonzero;stroke:#000;stroke-width:0.3px;stroke-linejoin:round;stroke-miterlimit:1.41421;"/>
        </g>
    </g>
    <g id="Name">
    </g>
    <g transform="matrix(0.932874,0.0290703,-0.0290703,0.932874,0.913467,0.0566696)">
        <g id="Name1"
           serif:id="Name">
            <g transform="matrix(20.8,0,0,20.8,18.4246,21.4847)">
                <rect x="-0.02"
                      y="-0.898"
                      width="0.634"
                      height="1.222"
                      style="fill:#080600;fill-rule:nonzero;"/>
            </g>
            <g transform="matrix(20.8,0,0,20.8,30.9878,21.4847)">
                <path d="M0.617,0.324l-0.634,0l0,-1.222l0.634,0l0,1.222Zm-0.133,-0.84c0.001,-0.004 -0.001,-0.009 -0.004,-0.015c-0.004,-0.006 -0.008,-0.011 -0.012,-0.016c-0.005,-0.005 -0.009,-0.008 -0.014,-0.01c-0.005,-0.001 -0.009,-0.002 -0.012,-0.001c-0.007,0.003 -0.013,0.01 -0.018,0.021c-0.005,0.011 -0.009,0.026 -0.012,0.045c0,0.009 -0.004,0.027 -0.012,0.054c-0.009,0.028 -0.018,0.058 -0.028,0.089c-0.01,0.031 -0.02,0.061 -0.03,0.088c-0.01,0.028 -0.017,0.047 -0.022,0.056c-0.008,0.019 -0.015,0.034 -0.02,0.047c-0.005,0.012 -0.01,0.019 -0.014,0.021c-0.003,0 -0.007,-0.006 -0.012,-0.017c-0.005,-0.011 -0.009,-0.019 -0.012,-0.024c-0.002,-0.005 -0.002,-0.01 0,-0.017c0.002,-0.007 0.002,-0.013 -0.001,-0.019c-0.003,-0.003 -0.006,-0.011 -0.011,-0.022c-0.005,-0.011 -0.011,-0.024 -0.017,-0.039c-0.007,-0.015 -0.013,-0.031 -0.02,-0.047c-0.007,-0.016 -0.013,-0.03 -0.016,-0.043c-0.007,-0.025 -0.014,-0.048 -0.021,-0.068c-0.007,-0.02 -0.011,-0.035 -0.011,-0.045c0,-0.004 0,-0.01 -0.001,-0.019c-0.001,-0.009 -0.003,-0.018 -0.006,-0.027c-0.003,-0.009 -0.007,-0.017 -0.011,-0.024c-0.004,-0.007 -0.008,-0.01 -0.013,-0.01c-0.011,-0.003 -0.019,0.002 -0.025,0.015c-0.007,0.013 -0.008,0.03 -0.004,0.051c0.003,0.009 0.011,0.03 0.023,0.062c0.011,0.033 0.024,0.068 0.038,0.105c0.014,0.037 0.027,0.071 0.04,0.102l0.041,0.102c0.005,0.013 0.009,0.023 0.012,0.029c0.001,0.003 0.004,0.006 0.007,0.01c0.003,0.005 0.008,0.009 0.013,0.013c0.005,0.005 0.01,0.008 0.016,0.011c0.006,0.003 0.011,0.003 0.016,0.002c0.008,-0.001 0.015,-0.004 0.02,-0.009c0.005,-0.004 0.007,-0.011 0.007,-0.022c0,-0.011 0,-0.019 -0.001,-0.024c-0.001,-0.005 0,-0.009 0.003,-0.013c0.001,-0.003 0.006,-0.016 0.015,-0.041c0.009,-0.024 0.018,-0.051 0.027,-0.082c0.009,-0.03 0.017,-0.058 0.026,-0.085c0.008,-0.026 0.013,-0.042 0.016,-0.049c0.003,-0.005 0.006,-0.013 0.009,-0.023c0.003,-0.01 0.007,-0.02 0.011,-0.03c0.004,-0.01 0.008,-0.019 0.011,-0.027c0.003,-0.008 0.005,-0.014 0.007,-0.017c0.003,-0.004 0.008,-0.01 0.013,-0.019c0.005,-0.008 0.008,-0.014 0.009,-0.019Zm-0.204,0.252c0.001,-0.002 -0.001,-0.01 -0.005,-0.024c-0.004,-0.015 -0.009,-0.031 -0.014,-0.049c-0.006,-0.019 -0.012,-0.036 -0.017,-0.051c-0.005,-0.016 -0.008,-0.026 -0.009,-0.03c-0.002,-0.001 -0.005,-0.008 -0.009,-0.02c-0.004,-0.012 -0.009,-0.024 -0.014,-0.037c-0.007,-0.015 -0.013,-0.03 -0.019,-0.047l0.034,0.104c0.01,0.027 0.019,0.053 0.027,0.077c0.007,0.023 0.011,0.036 0.012,0.039c0.002,0.01 0.005,0.019 0.008,0.026c0.003,0.005 0.005,0.009 0.006,0.012Zm0.221,-0.241c-0.023,0.073 -0.045,0.14 -0.065,0.199c-0.008,0.025 -0.016,0.049 -0.024,0.073c-0.009,0.025 -0.016,0.047 -0.022,0.067c-0.007,0.021 -0.012,0.037 -0.016,0.05c-0.004,0.013 -0.007,0.021 -0.009,0.024c-0.003,0.009 -0.007,0.017 -0.012,0.026c-0.005,0.009 -0.01,0.015 -0.013,0.017c-0.005,0.003 -0.009,0.004 -0.013,0.004l-0.005,0c0.001,0.003 0.001,0.005 0.001,0.007c0,0.007 -0.001,0.01 -0.004,0.011l-0.018,0.008c0.006,-0.001 0.012,-0.002 0.018,-0.005c0.005,-0.002 0.01,-0.004 0.015,-0.007c0.005,-0.002 0.009,-0.006 0.012,-0.012c0.003,-0.002 0.008,-0.015 0.017,-0.039c0.009,-0.023 0.019,-0.052 0.031,-0.086c0.012,-0.033 0.024,-0.069 0.037,-0.107c0.013,-0.037 0.024,-0.073 0.035,-0.106c0.011,-0.033 0.02,-0.061 0.027,-0.084c0.007,-0.023 0.009,-0.036 0.008,-0.04Z"
                      style="fill:#080600;fill-rule:nonzero;"/>
            </g>
            <g transform="matrix(20.8,0,0,20.8,43.6342,21.4847)">
                <path d="M0.606,0.324l-0.634,0l0,-1.222l0.634,0l0,1.222Zm-0.196,-0.676c0.005,0.009 0.012,0.013 0.019,0.013c0.007,0.001 0.012,0 0.013,-0.002c0.003,-0.003 0.006,-0.011 0.011,-0.025c0.005,-0.013 0.004,-0.027 -0.001,-0.04c-0.004,-0.007 -0.011,-0.017 -0.022,-0.029c-0.01,-0.011 -0.021,-0.023 -0.034,-0.035c-0.013,-0.011 -0.024,-0.021 -0.034,-0.03c-0.01,-0.009 -0.016,-0.014 -0.018,-0.016c-0.006,-0.002 -0.009,-0.004 -0.009,-0.006c-0.001,-0.003 -0.003,-0.003 -0.008,-0.001c-0.005,0.003 -0.012,0.005 -0.022,0.007c-0.01,0.002 -0.018,0.003 -0.023,0.003c-0.004,0 -0.011,0.001 -0.022,0.003c-0.011,0.002 -0.023,0.007 -0.037,0.014c-0.014,0.007 -0.028,0.017 -0.043,0.03c-0.015,0.014 -0.027,0.032 -0.036,0.055c-0.016,0.044 -0.025,0.09 -0.026,0.139c-0.001,0.049 0.011,0.095 0.036,0.139c0.025,0.045 0.056,0.076 0.093,0.093c0.037,0.018 0.077,0.021 0.121,0.008c0.021,-0.007 0.038,-0.019 0.051,-0.034c0.013,-0.015 0.023,-0.032 0.03,-0.05c0.007,-0.017 0.011,-0.033 0.013,-0.048c0.002,-0.015 0.004,-0.025 0.006,-0.03c0.001,-0.01 -0.001,-0.02 -0.005,-0.03c-0.004,-0.01 -0.008,-0.015 -0.013,-0.015c-0.006,0 -0.012,0.001 -0.018,0.003c-0.006,0.003 -0.01,0.007 -0.011,0.014c-0.002,0.001 -0.003,0.006 -0.004,0.013c-0.001,0.007 -0.003,0.015 -0.004,0.023c-0.002,0.009 -0.004,0.017 -0.006,0.024c-0.002,0.008 -0.003,0.014 -0.004,0.017c-0.003,0.004 -0.007,0.01 -0.013,0.018c-0.007,0.009 -0.015,0.017 -0.025,0.024c-0.01,0.008 -0.022,0.015 -0.035,0.02c-0.014,0.006 -0.028,0.008 -0.042,0.005c-0.029,-0.005 -0.058,-0.025 -0.087,-0.06c-0.029,-0.035 -0.044,-0.081 -0.046,-0.136c-0.001,-0.027 0.003,-0.051 0.011,-0.071c0.008,-0.02 0.018,-0.037 0.029,-0.051c0.011,-0.014 0.022,-0.025 0.033,-0.033c0.011,-0.008 0.02,-0.013 0.025,-0.016c0.005,-0.002 0.014,-0.003 0.026,-0.003c0.012,0.001 0.025,0.002 0.039,0.004c0.013,0.003 0.025,0.006 0.036,0.009c0.011,0.004 0.017,0.006 0.02,0.007c0.005,0.005 0.009,0.01 0.013,0.017c0.004,0.007 0.007,0.013 0.008,0.019c0.003,0.004 0.005,0.011 0.007,0.02c0.001,0.01 0.004,0.017 0.008,0.02Zm0.042,0.023c0.003,0.001 0.007,0.002 0.012,0.002c0.008,0 0.013,-0.003 0.014,-0.008c0.003,-0.007 0.004,-0.02 0.004,-0.041c0,-0.02 -0.006,-0.042 -0.019,-0.065c-0.014,-0.024 -0.03,-0.044 -0.048,-0.061c-0.018,-0.016 -0.033,-0.027 -0.045,-0.033c-0.005,-0.003 -0.011,-0.005 -0.017,-0.008c-0.006,-0.002 -0.011,-0.004 -0.015,-0.006c-0.005,-0.003 -0.011,-0.004 -0.017,-0.004c0.017,0.007 0.035,0.016 0.052,0.025c0.013,0.008 0.027,0.018 0.041,0.031c0.014,0.013 0.025,0.026 0.034,0.041c0.016,0.031 0.025,0.055 0.028,0.072c0.003,0.017 0.002,0.029 -0.001,0.035c-0.007,0.009 -0.012,0.015 -0.015,0.016c-0.003,0.003 -0.005,0.004 -0.008,0.004Zm-0.256,-0.004c-0.007,0.021 -0.01,0.042 -0.008,0.062c0.002,0.02 0.005,0.037 0.01,0.051c0.004,0.015 0.008,0.027 0.013,0.037c0.005,0.01 0.007,0.015 0.007,0.016c0,0.003 -0.004,-0.008 -0.012,-0.031c-0.009,-0.023 -0.012,-0.058 -0.009,-0.105c0.001,-0.023 0.007,-0.043 0.016,-0.059c0.009,-0.016 0.018,-0.028 0.028,-0.037c0.013,-0.012 0.027,-0.021 0.041,-0.027c-0.001,-0.001 -0.005,-0.001 -0.011,0c-0.007,0.001 -0.015,0.005 -0.024,0.012c-0.009,0.007 -0.019,0.017 -0.028,0.03c-0.01,0.013 -0.018,0.03 -0.023,0.051Zm0.29,0.116c0,0.018 -0.002,0.037 -0.006,0.056c-0.003,0.016 -0.007,0.033 -0.014,0.052c-0.007,0.019 -0.017,0.034 -0.031,0.047c-0.013,0.013 -0.025,0.024 -0.038,0.032c-0.013,0.009 -0.025,0.016 -0.035,0.022c-0.013,0.005 -0.024,0.009 -0.035,0.012c0.019,-0.005 0.037,-0.012 0.054,-0.021c0.015,-0.007 0.03,-0.016 0.044,-0.028c0.014,-0.011 0.026,-0.027 0.035,-0.046c0.01,-0.017 0.016,-0.033 0.019,-0.049c0.003,-0.015 0.005,-0.029 0.007,-0.04c0.001,-0.013 0.001,-0.025 0,-0.037Z"
                      style="fill:#080600;fill-rule:nonzero;"/>
            </g>
            <g transform="matrix(20.8,0,0,20.8,55.927,21.4847)">
                <path d="M0.612,0.324l-0.632,0l0,-1.222l0.632,0l0,1.222Zm-0.145,-0.813c-0.007,0.001 -0.014,0.006 -0.021,0.014c-0.008,0.009 -0.016,0.019 -0.023,0.031c-0.008,0.012 -0.016,0.025 -0.023,0.038c-0.007,0.014 -0.015,0.025 -0.022,0.034c-0.007,0.01 -0.014,0.023 -0.022,0.039c-0.009,0.016 -0.017,0.032 -0.026,0.047c-0.009,0.016 -0.018,0.031 -0.027,0.045c-0.01,0.014 -0.019,0.024 -0.028,0.029c-0.009,0.007 -0.017,0.007 -0.022,0.001c-0.005,-0.006 -0.01,-0.014 -0.013,-0.023c-0.003,-0.009 -0.006,-0.019 -0.007,-0.028c-0.002,-0.01 -0.003,-0.016 -0.004,-0.018c-0.003,-0.004 -0.008,-0.012 -0.015,-0.025c-0.007,-0.013 -0.018,-0.025 -0.032,-0.038c-0.007,-0.007 -0.016,-0.018 -0.027,-0.033c-0.011,-0.015 -0.023,-0.031 -0.034,-0.046c-0.011,-0.015 -0.022,-0.028 -0.031,-0.039c-0.01,-0.011 -0.017,-0.014 -0.02,-0.01c-0.004,0.003 -0.005,0.009 -0.004,0.016c0.001,0.007 0.004,0.014 0.007,0.022c0.003,0.007 0.007,0.014 0.011,0.021c0.003,0.007 0.005,0.011 0.005,0.014c0,0.003 0,0.008 -0.001,0.015c-0.001,0.007 -0.002,0.016 -0.003,0.026c-0.001,0.009 -0.002,0.019 -0.003,0.028c-0.001,0.009 -0.002,0.016 -0.004,0.021c-0.001,0.005 -0.002,0.019 -0.003,0.044c-0.001,0.025 -0.001,0.051 -0.002,0.079c-0.001,0.029 -0.002,0.055 -0.002,0.079c-0.001,0.024 -0.001,0.038 -0.001,0.041c-0.001,0.007 -0.001,0.012 0,0.015c0.001,0.003 0.009,0.007 0.024,0.012c0.007,0.003 0.014,0.002 0.021,-0.003c0.006,-0.004 0.011,-0.01 0.015,-0.017c0.004,-0.007 0.008,-0.014 0.011,-0.021c0.003,-0.007 0.005,-0.012 0.006,-0.016c0,-0.003 0,-0.014 0.001,-0.035c0,-0.02 0,-0.042 0,-0.065c-0.001,-0.023 -0.002,-0.043 -0.003,-0.062c-0.001,-0.019 -0.003,-0.028 -0.005,-0.028c-0.006,0.001 -0.011,0.007 -0.015,0.019c-0.004,0.012 -0.008,0.022 -0.013,0.031c-0.003,0.005 -0.004,0.016 -0.003,0.033c0.001,0.017 0.001,0.036 0.001,0.055l0,0.053c0,0.016 -0.001,0.024 -0.004,0.025c-0.001,0.001 -0.003,-0.01 -0.004,-0.032c-0.001,-0.021 -0.003,-0.045 -0.004,-0.072c-0.002,-0.027 -0.003,-0.052 -0.003,-0.076c-0.001,-0.024 -0.001,-0.039 -0.002,-0.045c-0.003,-0.01 -0.004,-0.024 -0.004,-0.041c0,-0.017 0.001,-0.03 0.002,-0.037c0.002,-0.006 0.006,-0.01 0.012,-0.011c0.006,-0.001 0.012,-0.001 0.018,0.002c0.003,0.001 0.008,0.006 0.015,0.015c0.007,0.009 0.014,0.02 0.022,0.032c0.007,0.013 0.015,0.026 0.023,0.039c0.008,0.014 0.015,0.025 0.022,0.034c0.013,0.019 0.026,0.041 0.039,0.064c0.012,0.022 0.022,0.037 0.03,0.044c0.008,0.005 0.017,0.004 0.027,-0.002c0.009,-0.007 0.016,-0.01 0.02,-0.009c0.003,0.001 0.004,0.006 0.003,0.015c-0.002,0.009 -0.001,0.013 0.002,0.013c0.003,0 0.006,-0.002 0.008,-0.005c0.001,-0.003 0.004,-0.008 0.007,-0.014c0.002,-0.003 0.005,-0.007 0.009,-0.012c0.004,-0.006 0.008,-0.012 0.013,-0.017l0.017,-0.022l-0.024,0.03l0.042,-0.08l-0.06,0.089l0.057,-0.107l-0.009,-0.006l0,-0.032c0,-0.005 0.001,-0.012 0.003,-0.02c0.001,-0.009 0.003,-0.014 0.005,-0.017c0.003,-0.002 0.008,-0.009 0.017,-0.02c0.009,-0.012 0.015,-0.018 0.018,-0.018c0.004,-0.002 0.007,0 0.009,0.005c0.001,0.005 0.004,0.012 0.008,0.021c0.003,0.01 0.006,0.028 0.009,0.055c0.002,0.026 0.002,0.056 -0.001,0.089c0,0.018 0,0.037 -0.001,0.056c-0.001,0.019 -0.002,0.037 -0.002,0.054l0,0.044c0,0.012 0.001,0.02 0.003,0.025c0.001,0.005 0.004,0.009 0.009,0.011c0.005,0.001 0.009,0.002 0.013,0.002l0.013,0c0.004,0 0.006,0.001 0.007,0.002c0.003,0.004 0.004,0.007 0.004,0.009c0,0.002 0.002,0.002 0.005,-0.001c0.001,0 0.006,-0.004 0.013,-0.013c0.001,-0.005 0.004,-0.009 0.008,-0.012l-0.008,0.013c-0.003,0.001 -0.006,0.002 -0.01,0.002l-0.003,0l0,-0.007c0,-0.002 0.001,-0.009 0.003,-0.021c0.003,-0.008 0.001,-0.02 -0.005,-0.035c-0.007,-0.015 -0.01,-0.029 -0.01,-0.042c0,-0.007 0,-0.026 0.001,-0.057c0.001,-0.032 0.001,-0.066 0.002,-0.103c0,-0.037 0.001,-0.071 0.002,-0.102c0.001,-0.032 0.001,-0.051 0.001,-0.057c0,-0.01 0.004,-0.018 0.012,-0.025c0.003,-0.003 0.007,-0.006 0.012,-0.008c0.005,-0.003 0.005,-0.006 0.002,-0.008c-0.003,-0.002 -0.008,-0.003 -0.014,-0.003c-0.007,0 -0.014,0 -0.022,0.001c-0.008,0.001 -0.015,0.002 -0.02,0.003Zm-0.195,0.195c0.002,0.001 0.002,0 0,-0.003c-0.003,-0.004 -0.005,-0.008 -0.007,-0.012c-0.003,-0.005 -0.007,-0.011 -0.012,-0.018c0,0.005 0.001,0.01 0.003,0.015c0.003,0.012 0.008,0.018 0.016,0.018Zm-0.001,-0.036c-0.015,-0.023 -0.028,-0.044 -0.041,-0.064c-0.011,-0.017 -0.02,-0.032 -0.029,-0.047c-0.009,-0.015 -0.014,-0.025 -0.017,-0.03c-0.001,-0.004 0.002,0.002 0.009,0.018c0.007,0.016 0.015,0.034 0.026,0.054c0.011,0.02 0.021,0.038 0.031,0.054c0.01,0.015 0.017,0.02 0.021,0.015Zm0.258,-0.159c-0.002,0.075 -0.004,0.143 -0.005,0.204l0,0.076c0,0.025 0,0.048 0.001,0.069c0.001,0.02 0.001,0.037 0.002,0.051c0.001,0.013 0.002,0.022 0.004,0.025c0.001,0.003 0.002,-0.001 0.003,-0.013c0.001,-0.012 0.001,-0.028 0.001,-0.047c0,-0.019 0,-0.042 -0.001,-0.068c-0.001,-0.026 -0.001,-0.052 -0.001,-0.079c-0.001,-0.063 -0.003,-0.136 -0.004,-0.218Z"
                      style="fill:#080600;fill-rule:nonzero;"/>
            </g>
            <g transform="matrix(20.8,0,0,20.8,68.5526,21.4847)">
                <path d="M0.595,0.324l-0.631,0l0,-1.222l0.631,0l0,1.222Zm-0.478,-0.351c0.004,0.001 0.009,0.004 0.014,0.007c0.005,0.003 0.01,0 0.015,-0.009c0.005,-0.008 0.01,-0.018 0.014,-0.031c0.003,-0.012 0.005,-0.021 0.006,-0.026c0.002,-0.007 0.002,-0.013 0.001,-0.018c-0.002,-0.005 0,-0.008 0.005,-0.009c0.006,-0.001 0.011,0.001 0.014,0.007c0.003,0.006 0.008,0.009 0.016,0.009c0.007,0 0.016,-0.002 0.025,-0.006c0.009,-0.003 0.025,-0.005 0.046,-0.005c0.022,0 0.038,0.001 0.047,0.003c0.01,0.002 0.019,0.001 0.027,-0.004c0.008,-0.004 0.016,-0.009 0.023,-0.014c0.008,-0.005 0.014,-0.007 0.017,-0.004c0.001,0.001 0.003,0.004 0.006,0.009c0.004,0.006 0.007,0.012 0.01,0.017c0.003,0.006 0.006,0.012 0.009,0.019c0.003,0.007 0.005,0.012 0.005,0.015c0.002,0.007 0.005,0.015 0.009,0.026c0.004,0.011 0.012,0.017 0.025,0.018c0.013,0.003 0.022,0.002 0.026,-0.002c0.005,-0.004 0.008,-0.011 0.009,-0.022c0.003,-0.009 0.001,-0.017 -0.008,-0.025c-0.009,-0.007 -0.015,-0.015 -0.018,-0.024c-0.002,-0.004 -0.006,-0.014 -0.013,-0.03c-0.006,-0.016 -0.013,-0.034 -0.021,-0.053c-0.008,-0.019 -0.016,-0.038 -0.023,-0.057c-0.007,-0.019 -0.012,-0.033 -0.016,-0.043c-0.003,-0.011 -0.009,-0.026 -0.016,-0.043c-0.007,-0.017 -0.014,-0.033 -0.021,-0.05c-0.007,-0.016 -0.013,-0.031 -0.019,-0.045c-0.005,-0.013 -0.009,-0.022 -0.01,-0.026c-0.002,-0.003 -0.003,-0.009 -0.004,-0.017c-0.001,-0.008 -0.002,-0.016 -0.004,-0.025c-0.002,-0.009 -0.004,-0.017 -0.007,-0.025c-0.002,-0.008 -0.005,-0.014 -0.009,-0.018c-0.004,-0.003 -0.008,-0.003 -0.013,0c-0.005,0.003 -0.009,0.007 -0.013,0.012c-0.004,0.005 -0.007,0.011 -0.01,0.016c-0.003,0.006 -0.006,0.011 -0.007,0.015c-0.001,0.008 0,0.015 0.003,0.021c0.003,0.006 0.004,0.011 0.004,0.016c0,0.004 -0.002,0.009 -0.006,0.014c-0.004,0.006 -0.007,0.013 -0.01,0.02c-0.003,0.006 -0.004,0.012 -0.005,0.017c-0.001,0.006 -0.002,0.011 -0.002,0.016c0,0.005 -0.006,0.02 -0.018,0.043c-0.012,0.023 -0.022,0.048 -0.031,0.073c-0.008,0.023 -0.012,0.039 -0.013,0.048c-0.001,0.009 -0.002,0.016 -0.004,0.023c-0.001,0.005 -0.003,0.014 -0.006,0.025c-0.004,0.011 -0.009,0.022 -0.015,0.031c-0.003,0.007 -0.007,0.015 -0.013,0.026c-0.007,0.011 -0.013,0.022 -0.018,0.034c-0.005,0.013 -0.009,0.024 -0.01,0.034c-0.001,0.01 0.001,0.016 0.007,0.017Zm0.249,-0.208c0.006,0.011 0.01,0.023 0.012,0.034c0.001,0.012 0.001,0.023 -0.002,0.032c-0.001,0.004 -0.003,0.006 -0.008,0.007c-0.005,0.001 -0.01,0 -0.017,-0.001c-0.007,-0.001 -0.015,-0.003 -0.022,-0.005c-0.008,-0.002 -0.014,-0.003 -0.019,-0.003c-0.02,0 -0.034,-0.002 -0.041,-0.005c-0.003,-0.003 -0.007,-0.003 -0.013,0c-0.006,0.003 -0.015,0.007 -0.028,0.011c-0.013,0.005 -0.022,0.006 -0.027,0.005c-0.005,-0.001 -0.009,-0.002 -0.014,-0.004c-0.003,-0.001 -0.003,-0.004 -0.001,-0.009c0.002,-0.005 0.005,-0.01 0.009,-0.016c0.004,-0.006 0.008,-0.013 0.012,-0.02c0.004,-0.007 0.007,-0.013 0.008,-0.019c0.001,-0.006 0.005,-0.016 0.01,-0.03c0.005,-0.013 0.01,-0.027 0.016,-0.042c0.005,-0.014 0.01,-0.027 0.014,-0.038c0.004,-0.011 0.006,-0.016 0.006,-0.017c0,-0.003 -0.002,-0.005 -0.005,-0.008c-0.004,-0.002 -0.008,-0.004 -0.011,-0.006c-0.002,-0.001 -0.001,-0.003 0.004,-0.008c0.005,-0.005 0.009,-0.01 0.013,-0.015c0.005,-0.007 0.008,-0.012 0.009,-0.016c0.001,-0.004 0.005,-0.005 0.011,-0.003c0.003,0.001 0.008,0.01 0.016,0.026c0.008,0.016 0.017,0.034 0.027,0.055c0.009,0.021 0.018,0.04 0.026,0.059c0.008,0.019 0.013,0.031 0.015,0.036Zm-0.123,0.013l0.007,-0.016c0.003,-0.005 0.005,-0.01 0.007,-0.015c0.002,-0.005 0.003,-0.008 0.004,-0.011c0.004,-0.005 0.006,-0.012 0.007,-0.02c0.001,-0.005 0.002,-0.011 0.004,-0.018c-0.003,0.003 -0.007,0.008 -0.011,0.017c-0.003,0.009 -0.006,0.019 -0.008,0.029c-0.004,0.012 -0.007,0.023 -0.01,0.034Zm0.051,0.036c-0.001,-0.005 -0.003,-0.01 -0.006,-0.015c-0.003,-0.005 -0.006,-0.007 -0.011,-0.006c-0.003,0.001 -0.007,0.002 -0.012,0.002l-0.008,0l0.037,0.019Zm-0.093,0.108l0.139,-0.005c-0.008,-0.002 -0.019,-0.003 -0.034,-0.003c-0.015,0.001 -0.03,0.002 -0.046,0.003c-0.019,0.001 -0.039,0.002 -0.059,0.005Zm-0.007,0.008c-0.003,0.007 -0.005,0.012 -0.006,0.017c-0.005,0.011 -0.009,0.019 -0.012,0.023c-0.003,0.002 -0.005,0.004 -0.007,0.005c-0.002,0.002 -0.003,0.004 -0.004,0.007c-0.002,0.002 -0.003,0.004 -0.003,0.006c0.009,-0.007 0.015,-0.014 0.019,-0.019c0.01,-0.014 0.014,-0.027 0.013,-0.039Zm0.297,-0.056c0.002,0.003 0.001,-0.001 -0.002,-0.01c-0.003,-0.009 -0.008,-0.022 -0.014,-0.038c-0.007,-0.016 -0.014,-0.036 -0.023,-0.059c-0.009,-0.023 -0.019,-0.046 -0.028,-0.07c-0.023,-0.057 -0.049,-0.121 -0.08,-0.193c0.026,0.068 0.049,0.129 0.07,0.182c0.01,0.024 0.019,0.047 0.028,0.069c0.009,0.022 0.016,0.041 0.023,0.058c0.007,0.017 0.012,0.032 0.016,0.043c0.004,0.011 0.007,0.017 0.01,0.018Z"
                      style="fill:#080600;fill-rule:nonzero;"/>
            </g>
            <g transform="matrix(20.8,0,0,20.8,80.5542,21.4847)">
                <rect x="-0.02"
                      y="-0.898"
                      width="0.634"
                      height="1.222"
                      style="fill:#080600;fill-rule:nonzero;"/>
            </g>
        </g>
    </g>
    <g transform="matrix(1.4997,0,0,0.398134,-3.84855,167.213)">
        <rect x="7.571"
              y="312.715"
              width="60.012"
              height="2.512"
              style="fill:#0a1250;fill-opacity:0.53;"/>
    </g>
    <g transform="matrix(1.4997,0,0,0.398134,-3.84855,102.213)">
        <rect x="7.571"
              y="312.715"
              width="60.012"
              height="2.512"
              style="fill:#0a1250;fill-opacity:0.53;"/>
    </g>
    <g id="LOGO"
       transform="matrix(1,0,0,1,-11.0657,-235.591)">
        <g transform="matrix(8,0,0,8,30.1268,602.797)">
            <path d="M0.195,-0.7c0.015,0 0.022,0.007 0.022,0.022l0,0.399c0,0.027 0.002,0.049 0.007,0.067c0.004,0.017 0.011,0.031 0.021,0.042c0.01,0.01 0.024,0.017 0.041,0.022c0.017,0.004 0.038,0.006 0.064,0.006l0.405,0c0.015,0 0.022,0.007 0.022,0.022l0,0.098c0,0.015 -0.007,0.022 -0.022,0.022l-0.411,0c-0.051,0 -0.094,-0.005 -0.129,-0.014c-0.035,-0.009 -0.064,-0.024 -0.086,-0.045c-0.023,-0.021 -0.039,-0.049 -0.049,-0.082c-0.011,-0.034 -0.016,-0.075 -0.016,-0.123l0,-0.414c0,-0.015 0.008,-0.022 0.023,-0.022l0.108,0Z"
                  style="fill-rule:nonzero;"/>
        </g>
        <g transform="matrix(8,0,0,8,36.5348,602.797)">
            <path d="M0.197,-0.7c0.015,0 0.022,0.007 0.022,0.022l0,0.656c0,0.015 -0.007,0.022 -0.022,0.022l-0.108,0c-0.015,0 -0.023,-0.007 -0.023,-0.022l0,-0.656c0,-0.015 0.008,-0.022 0.023,-0.022l0.108,0Z"
                  style="fill-rule:nonzero;"/>
        </g>
        <g transform="matrix(8,0,0,8,38.8228,602.797)">
            <path d="M0.244,-0.7c0.016,0 0.029,0.001 0.04,0.002c0.011,0.001 0.02,0.004 0.028,0.009c0.008,0.004 0.016,0.01 0.023,0.018c0.007,0.007 0.016,0.017 0.025,0.03l0.372,0.488c0.003,0.005 0.007,0.007 0.013,0.007l0.009,0c0.005,0 0.008,-0.003 0.008,-0.01l0,-0.522c0,-0.015 0.007,-0.022 0.022,-0.022l0.105,0c0.015,0 0.022,0.007 0.022,0.022l0,0.574c0,0.041 -0.007,0.068 -0.022,0.082c-0.015,0.015 -0.037,0.022 -0.068,0.022l-0.086,0c-0.015,0 -0.028,-0.001 -0.038,-0.002c-0.011,-0.001 -0.02,-0.004 -0.028,-0.008c-0.008,-0.004 -0.016,-0.01 -0.023,-0.018c-0.008,-0.007 -0.017,-0.018 -0.027,-0.031l-0.373,-0.488c-0.004,-0.005 -0.008,-0.007 -0.013,-0.007l-0.009,0c-0.005,0 -0.008,0.003 -0.008,0.01l0,0.522c0,0.015 -0.007,0.022 -0.022,0.022l-0.105,0c-0.015,0 -0.023,-0.007 -0.023,-0.022l0,-0.574c0,-0.041 0.007,-0.068 0.022,-0.083c0.015,-0.014 0.037,-0.021 0.068,-0.021l0.088,0Z"
                  style="fill-rule:nonzero;"/>
        </g>
        <g transform="matrix(8,0,0,8,46.6468,602.797)">
            <path d="M0.564,-0.7c0.054,0 0.1,0.006 0.139,0.017c0.039,0.011 0.07,0.027 0.095,0.05c0.025,0.023 0.043,0.053 0.054,0.089c0.012,0.035 0.018,0.077 0.018,0.126l0,0.136c0,0.049 -0.006,0.091 -0.018,0.127c-0.011,0.035 -0.029,0.065 -0.054,0.088c-0.025,0.023 -0.056,0.04 -0.095,0.051c-0.039,0.011 -0.085,0.016 -0.139,0.016l-0.468,0c-0.02,0 -0.03,-0.01 -0.03,-0.03l0,-0.64c0,-0.02 0.01,-0.03 0.03,-0.03l0.468,0Zm-0.345,0.548c0,0.009 0.004,0.013 0.013,0.013l0.328,0c0.029,0 0.054,-0.003 0.074,-0.008c0.02,-0.005 0.036,-0.014 0.048,-0.026c0.013,-0.012 0.022,-0.028 0.027,-0.048c0.005,-0.02 0.008,-0.045 0.008,-0.074l0,-0.11c0,-0.029 -0.003,-0.054 -0.008,-0.074c-0.005,-0.02 -0.014,-0.036 -0.027,-0.048c-0.012,-0.012 -0.028,-0.021 -0.048,-0.026c-0.02,-0.005 -0.045,-0.008 -0.074,-0.008l-0.328,0c-0.009,0 -0.013,0.005 -0.013,0.014l0,0.395Z"
                  style="fill-rule:nonzero;"/>
        </g>
        <g transform="matrix(8,0,0,8,54.0788,602.797)">
            <path d="M0.778,-0.7c0.015,0 0.023,0.007 0.023,0.022l0,0.095c0,0.015 -0.008,0.022 -0.023,0.022l-0.437,0c-0.026,0 -0.047,0.002 -0.065,0.007c-0.017,0.004 -0.03,0.011 -0.041,0.022c-0.01,0.01 -0.017,0.024 -0.021,0.042c-0.004,0.017 -0.006,0.039 -0.006,0.065l0,0.01l0.565,0c0.015,0 0.022,0.007 0.022,0.022l0,0.079c0,0.015 -0.007,0.022 -0.022,0.022l-0.565,0l0,0.017c0,0.026 0.002,0.048 0.006,0.065c0.004,0.018 0.011,0.032 0.021,0.042c0.011,0.011 0.024,0.018 0.041,0.022c0.017,0.005 0.039,0.007 0.065,0.007l0.437,0c0.015,0 0.023,0.007 0.023,0.022l0,0.095c0,0.015 -0.008,0.022 -0.023,0.022l-0.44,0c-0.051,0 -0.094,-0.005 -0.129,-0.014c-0.035,-0.009 -0.064,-0.025 -0.087,-0.046c-0.022,-0.021 -0.038,-0.048 -0.049,-0.082c-0.01,-0.033 -0.015,-0.074 -0.015,-0.122l0,-0.172c0,-0.048 0.005,-0.089 0.015,-0.122c0.011,-0.033 0.027,-0.061 0.049,-0.082c0.023,-0.021 0.052,-0.036 0.087,-0.046c0.035,-0.009 0.078,-0.014 0.129,-0.014l0.44,0Z"
                  style="fill-rule:nonzero;"/>
        </g>
        <g transform="matrix(8,0,0,8,60.8788,602.797)">
            <path d="M0.244,-0.7c0.016,0 0.029,0.001 0.04,0.002c0.011,0.001 0.02,0.004 0.028,0.009c0.008,0.004 0.016,0.01 0.023,0.018c0.007,0.007 0.016,0.017 0.025,0.03l0.372,0.488c0.003,0.005 0.007,0.007 0.013,0.007l0.009,0c0.005,0 0.008,-0.003 0.008,-0.01l0,-0.522c0,-0.015 0.007,-0.022 0.022,-0.022l0.105,0c0.015,0 0.022,0.007 0.022,0.022l0,0.574c0,0.041 -0.007,0.068 -0.022,0.082c-0.015,0.015 -0.037,0.022 -0.068,0.022l-0.086,0c-0.015,0 -0.028,-0.001 -0.038,-0.002c-0.011,-0.001 -0.02,-0.004 -0.028,-0.008c-0.008,-0.004 -0.016,-0.01 -0.023,-0.018c-0.008,-0.007 -0.017,-0.018 -0.027,-0.031l-0.373,-0.488c-0.004,-0.005 -0.008,-0.007 -0.013,-0.007l-0.009,0c-0.005,0 -0.008,0.003 -0.008,0.01l0,0.522c0,0.015 -0.007,0.022 -0.022,0.022l-0.105,0c-0.015,0 -0.023,-0.007 -0.023,-0.022l0,-0.574c0,-0.041 0.007,-0.068 0.022,-0.083c0.015,-0.014 0.037,-0.021 0.068,-0.021l0.088,0Z"
                  style="fill-rule:nonzero;"/>
        </g>
        <g transform="matrix(8,0,0,8,68.7028,602.797)">
            <path d="M0.672,-0.7c0.069,0 0.117,0.014 0.146,0.041c0.029,0.027 0.044,0.069 0.044,0.124l0,0.048c0,0.056 -0.021,0.098 -0.064,0.127c0.046,0.027 0.069,0.07 0.069,0.129l0,0.058c0,0.027 -0.003,0.051 -0.009,0.072c-0.006,0.021 -0.016,0.04 -0.029,0.055c-0.014,0.015 -0.032,0.026 -0.055,0.034c-0.023,0.008 -0.051,0.012 -0.084,0.012l-0.594,0c-0.02,0 -0.03,-0.01 -0.03,-0.03l0,-0.64c0,-0.02 0.01,-0.03 0.03,-0.03l0.576,0Zm-0.453,0.4l0,0.149c0,0.009 0.004,0.013 0.013,0.013l0.41,0c0.027,0 0.046,-0.005 0.057,-0.014c0.011,-0.01 0.017,-0.026 0.017,-0.047l0,-0.038c0,-0.021 -0.006,-0.036 -0.019,-0.047c-0.012,-0.011 -0.035,-0.016 -0.068,-0.016l-0.41,0Zm0,-0.109l0.41,0c0.033,0 0.056,-0.005 0.068,-0.015c0.012,-0.01 0.018,-0.025 0.018,-0.044l0,-0.034c0,-0.021 -0.006,-0.036 -0.018,-0.045c-0.011,-0.01 -0.03,-0.015 -0.056,-0.015l-0.409,0c-0.009,0 -0.013,0.004 -0.013,0.013l0,0.14Z"
                  style="fill-rule:nonzero;"/>
        </g>
        <g transform="matrix(8,0,0,8,76.0548,602.797)">
            <path d="M0.778,-0.7c0.015,0 0.023,0.007 0.023,0.022l0,0.095c0,0.015 -0.008,0.022 -0.023,0.022l-0.437,0c-0.026,0 -0.047,0.002 -0.065,0.007c-0.017,0.004 -0.03,0.011 -0.041,0.022c-0.01,0.01 -0.017,0.024 -0.021,0.042c-0.004,0.017 -0.006,0.039 -0.006,0.065l0,0.01l0.565,0c0.015,0 0.022,0.007 0.022,0.022l0,0.079c0,0.015 -0.007,0.022 -0.022,0.022l-0.565,0l0,0.017c0,0.026 0.002,0.048 0.006,0.065c0.004,0.018 0.011,0.032 0.021,0.042c0.011,0.011 0.024,0.018 0.041,0.022c0.017,0.005 0.039,0.007 0.065,0.007l0.437,0c0.015,0 0.023,0.007 0.023,0.022l0,0.095c0,0.015 -0.008,0.022 -0.023,0.022l-0.44,0c-0.051,0 -0.094,-0.005 -0.129,-0.014c-0.035,-0.009 -0.064,-0.025 -0.087,-0.046c-0.022,-0.021 -0.038,-0.048 -0.049,-0.082c-0.01,-0.033 -0.015,-0.074 -0.015,-0.122l0,-0.172c0,-0.048 0.005,-0.089 0.015,-0.122c0.011,-0.033 0.027,-0.061 0.049,-0.082c0.023,-0.021 0.052,-0.036 0.087,-0.046c0.035,-0.009 0.078,-0.014 0.129,-0.014l0.44,0Z"
                  style="fill-rule:nonzero;"/>
        </g>
        <g transform="matrix(8,0,0,8,82.8548,602.797)">
            <path d="M0.633,-0.7c0.077,0 0.132,0.017 0.165,0.052c0.033,0.035 0.05,0.086 0.05,0.154l0,0.057c0,0.057 -0.012,0.103 -0.035,0.136c-0.023,0.033 -0.061,0.055 -0.114,0.064l0.171,0.212c0.003,0.003 0.004,0.008 0.003,0.015c-0.001,0.007 -0.007,0.01 -0.016,0.01l-0.129,0c-0.009,0 -0.015,-0.001 -0.018,-0.003c-0.003,-0.002 -0.007,-0.005 -0.01,-0.01l-0.158,-0.208l-0.323,0l0,0.199c0,0.015 -0.007,0.022 -0.022,0.022l-0.108,0c-0.015,0 -0.023,-0.007 -0.023,-0.022l0,-0.648c0,-0.02 0.01,-0.03 0.03,-0.03l0.537,0Zm-0.414,0.357l0.383,0c0.034,0 0.058,-0.007 0.072,-0.022c0.014,-0.015 0.021,-0.037 0.021,-0.067l0,-0.042c0,-0.03 -0.007,-0.052 -0.021,-0.067c-0.014,-0.015 -0.038,-0.022 -0.072,-0.022l-0.37,0c-0.009,0 -0.013,0.004 -0.013,0.012l0,0.208Z"
                  style="fill-rule:nonzero;"/>
        </g>
        <g transform="matrix(8,0,0,8,89.9508,602.797)">
            <path d="M0.845,-0.7c0.015,0 0.022,0.007 0.022,0.022l0,0.098c0,0.015 -0.007,0.023 -0.022,0.023l-0.501,0c-0.026,0 -0.047,0.002 -0.064,0.007c-0.017,0.004 -0.031,0.011 -0.041,0.022c-0.01,0.01 -0.017,0.024 -0.021,0.041c-0.005,0.017 -0.007,0.039 -0.007,0.066l0,0.144c0,0.027 0.002,0.049 0.007,0.067c0.004,0.017 0.011,0.031 0.021,0.042c0.01,0.01 0.024,0.017 0.041,0.022c0.017,0.004 0.038,0.006 0.064,0.006l0.33,0c0.017,0 0.03,-0.004 0.038,-0.013c0.008,-0.009 0.012,-0.025 0.012,-0.048l0,-0.081c0,-0.009 -0.004,-0.013 -0.012,-0.013l-0.293,0c-0.015,0 -0.022,-0.008 -0.022,-0.023l0,-0.075c0,-0.015 0.007,-0.023 0.022,-0.023l0.417,0c0.02,0 0.03,0.01 0.03,0.03l0,0.233c0,0.056 -0.011,0.096 -0.032,0.119c-0.021,0.023 -0.052,0.034 -0.092,0.034l-0.404,0c-0.051,0 -0.094,-0.005 -0.129,-0.014c-0.035,-0.009 -0.064,-0.024 -0.086,-0.045c-0.023,-0.021 -0.039,-0.049 -0.049,-0.082c-0.011,-0.034 -0.016,-0.075 -0.016,-0.123l0,-0.172c0,-0.048 0.005,-0.089 0.016,-0.122c0.01,-0.033 0.026,-0.06 0.049,-0.081c0.022,-0.021 0.051,-0.037 0.086,-0.046c0.035,-0.01 0.078,-0.015 0.129,-0.015l0.507,0Z"
                  style="fill-rule:nonzero;"/>
        </g>
        <g transform="matrix(8,0,0,8,35.4868,610.797)">
            <path d="M0.633,-0.7c0.077,0 0.132,0.017 0.165,0.052c0.033,0.035 0.05,0.086 0.05,0.154l0,0.057c0,0.057 -0.012,0.103 -0.035,0.136c-0.023,0.033 -0.061,0.055 -0.114,0.064l0.171,0.212c0.003,0.003 0.004,0.008 0.003,0.015c-0.001,0.007 -0.007,0.01 -0.016,0.01l-0.129,0c-0.009,0 -0.015,-0.001 -0.018,-0.003c-0.003,-0.002 -0.007,-0.005 -0.01,-0.01l-0.158,-0.208l-0.323,0l0,0.199c0,0.015 -0.007,0.022 -0.022,0.022l-0.108,0c-0.015,0 -0.023,-0.007 -0.023,-0.022l0,-0.648c0,-0.02 0.01,-0.03 0.03,-0.03l0.537,0Zm-0.414,0.357l0.383,0c0.034,0 0.058,-0.007 0.072,-0.022c0.014,-0.015 0.021,-0.037 0.021,-0.067l0,-0.042c0,-0.03 -0.007,-0.052 -0.021,-0.067c-0.014,-0.015 -0.038,-0.022 -0.072,-0.022l-0.37,0c-0.009,0 -0.013,0.004 -0.013,0.012l0,0.208Z"
                  style="fill-rule:nonzero;"/>
        </g>
        <g transform="matrix(8,0,0,8,42.5828,610.797)">
            <path d="M0.778,-0.7c0.015,0 0.023,0.007 0.023,0.022l0,0.095c0,0.015 -0.008,0.022 -0.023,0.022l-0.437,0c-0.026,0 -0.047,0.002 -0.065,0.007c-0.017,0.004 -0.03,0.011 -0.041,0.022c-0.01,0.01 -0.017,0.024 -0.021,0.042c-0.004,0.017 -0.006,0.039 -0.006,0.065l0,0.01l0.565,0c0.015,0 0.022,0.007 0.022,0.022l0,0.079c0,0.015 -0.007,0.022 -0.022,0.022l-0.565,0l0,0.017c0,0.026 0.002,0.048 0.006,0.065c0.004,0.018 0.011,0.032 0.021,0.042c0.011,0.011 0.024,0.018 0.041,0.022c0.017,0.005 0.039,0.007 0.065,0.007l0.437,0c0.015,0 0.023,0.007 0.023,0.022l0,0.095c0,0.015 -0.008,0.022 -0.023,0.022l-0.44,0c-0.051,0 -0.094,-0.005 -0.129,-0.014c-0.035,-0.009 -0.064,-0.025 -0.087,-0.046c-0.022,-0.021 -0.038,-0.048 -0.049,-0.082c-0.01,-0.033 -0.015,-0.074 -0.015,-0.122l0,-0.172c0,-0.048 0.005,-0.089 0.015,-0.122c0.011,-0.033 0.027,-0.061 0.049,-0.082c0.023,-0.021 0.052,-0.036 0.087,-0.046c0.035,-0.009 0.078,-0.014 0.129,-0.014l0.44,0Z"
                  style="fill-rule:nonzero;"/>
        </g>
        <g transform="matrix(8,0,0,8,49.3828,610.797)">
            <path d="M0.761,-0.7c0.015,0 0.022,0.007 0.022,0.022l0,0.095c0,0.015 -0.007,0.022 -0.022,0.022l-0.501,0c-0.019,0 -0.033,0.005 -0.041,0.015c-0.008,0.01 -0.012,0.024 -0.012,0.041l0,0.034c0,0.037 0.017,0.056 0.052,0.056l0.375,0c0.058,0 0.102,0.015 0.131,0.044c0.029,0.03 0.044,0.073 0.044,0.128l0,0.08c0,0.049 -0.014,0.088 -0.043,0.118c-0.029,0.03 -0.073,0.045 -0.134,0.045l-0.554,0c-0.015,0 -0.023,-0.007 -0.023,-0.022l0,-0.095c0,-0.015 0.008,-0.022 0.023,-0.022l0.525,0c0.019,0 0.033,-0.005 0.041,-0.015c0.008,-0.01 0.012,-0.024 0.012,-0.041l0,-0.041c0,-0.037 -0.017,-0.056 -0.052,-0.056l-0.375,0c-0.058,0 -0.102,-0.015 -0.131,-0.045c-0.029,-0.029 -0.044,-0.072 -0.044,-0.127l0,-0.073c0,-0.049 0.014,-0.088 0.043,-0.118c0.029,-0.03 0.073,-0.045 0.134,-0.045l0.53,0Z"
                  style="fill-rule:nonzero;"/>
        </g>
        <g transform="matrix(8,0,0,8,56.2388,610.797)">
            <path d="M0.778,-0.7c0.015,0 0.023,0.007 0.023,0.022l0,0.095c0,0.015 -0.008,0.022 -0.023,0.022l-0.437,0c-0.026,0 -0.047,0.002 -0.065,0.007c-0.017,0.004 -0.03,0.011 -0.041,0.022c-0.01,0.01 -0.017,0.024 -0.021,0.042c-0.004,0.017 -0.006,0.039 -0.006,0.065l0,0.01l0.565,0c0.015,0 0.022,0.007 0.022,0.022l0,0.079c0,0.015 -0.007,0.022 -0.022,0.022l-0.565,0l0,0.017c0,0.026 0.002,0.048 0.006,0.065c0.004,0.018 0.011,0.032 0.021,0.042c0.011,0.011 0.024,0.018 0.041,0.022c0.017,0.005 0.039,0.007 0.065,0.007l0.437,0c0.015,0 0.023,0.007 0.023,0.022l0,0.095c0,0.015 -0.008,0.022 -0.023,0.022l-0.44,0c-0.051,0 -0.094,-0.005 -0.129,-0.014c-0.035,-0.009 -0.064,-0.025 -0.087,-0.046c-0.022,-0.021 -0.038,-0.048 -0.049,-0.082c-0.01,-0.033 -0.015,-0.074 -0.015,-0.122l0,-0.172c0,-0.048 0.005,-0.089 0.015,-0.122c0.011,-0.033 0.027,-0.061 0.049,-0.082c0.023,-0.021 0.052,-0.036 0.087,-0.046c0.035,-0.009 0.078,-0.014 0.129,-0.014l0.44,0Z"
                  style="fill-rule:nonzero;"/>
        </g>
        <g transform="matrix(8,0,0,8,63.0388,610.797)">
            <path d="M0.51,-0.7c0.025,0 0.047,0.005 0.064,0.016c0.017,0.01 0.034,0.03 0.051,0.06l0.331,0.601c0.003,0.007 0.004,0.012 0.002,0.017c-0.001,0.004 -0.006,0.006 -0.014,0.006l-0.127,0c-0.011,0 -0.019,-0.004 -0.023,-0.013l-0.071,-0.129l-0.47,0l-0.069,0.129c-0.005,0.009 -0.012,0.013 -0.023,0.013l-0.13,0c-0.009,0 -0.014,-0.002 -0.016,-0.006c-0.001,-0.005 0,-0.01 0.003,-0.017l0.328,-0.601c0.017,-0.03 0.033,-0.05 0.049,-0.06c0.016,-0.011 0.035,-0.016 0.056,-0.016l0.059,0Zm-0.194,0.442l0.344,0l-0.159,-0.293c-0.003,-0.005 -0.006,-0.007 -0.011,-0.007l-0.006,0c-0.005,0 -0.008,0.002 -0.011,0.007l-0.157,0.293Z"
                  style="fill-rule:nonzero;"/>
        </g>
        <g transform="matrix(8,0,0,8,70.8388,610.797)">
            <path d="M0.633,-0.7c0.077,0 0.132,0.017 0.165,0.052c0.033,0.035 0.05,0.086 0.05,0.154l0,0.057c0,0.057 -0.012,0.103 -0.035,0.136c-0.023,0.033 -0.061,0.055 -0.114,0.064l0.171,0.212c0.003,0.003 0.004,0.008 0.003,0.015c-0.001,0.007 -0.007,0.01 -0.016,0.01l-0.129,0c-0.009,0 -0.015,-0.001 -0.018,-0.003c-0.003,-0.002 -0.007,-0.005 -0.01,-0.01l-0.158,-0.208l-0.323,0l0,0.199c0,0.015 -0.007,0.022 -0.022,0.022l-0.108,0c-0.015,0 -0.023,-0.007 -0.023,-0.022l0,-0.648c0,-0.02 0.01,-0.03 0.03,-0.03l0.537,0Zm-0.414,0.357l0.383,0c0.034,0 0.058,-0.007 0.072,-0.022c0.014,-0.015 0.021,-0.037 0.021,-0.067l0,-0.042c0,-0.03 -0.007,-0.052 -0.021,-0.067c-0.014,-0.015 -0.038,-0.022 -0.072,-0.022l-0.37,0c-0.009,0 -0.013,0.004 -0.013,0.012l0,0.208Z"
                  style="fill-rule:nonzero;"/>
        </g>
        <g transform="matrix(8,0,0,8,77.9348,610.797)">
            <path d="M0.789,-0.7c0.015,0 0.022,0.007 0.022,0.022l0,0.098c0,0.015 -0.007,0.023 -0.022,0.023l-0.445,0c-0.026,0 -0.048,0.002 -0.065,0.007c-0.017,0.004 -0.03,0.011 -0.04,0.022c-0.01,0.01 -0.017,0.024 -0.022,0.041c-0.004,0.017 -0.006,0.039 -0.006,0.066l0,0.142c0,0.027 0.002,0.049 0.006,0.067c0.005,0.017 0.012,0.031 0.022,0.042c0.01,0.01 0.023,0.017 0.041,0.022c0.016,0.004 0.038,0.006 0.064,0.006l0.445,0c0.015,0 0.022,0.007 0.022,0.022l0,0.098c0,0.015 -0.007,0.022 -0.022,0.022l-0.451,0c-0.051,0 -0.094,-0.005 -0.129,-0.014c-0.035,-0.009 -0.064,-0.024 -0.087,-0.045c-0.022,-0.021 -0.038,-0.049 -0.049,-0.082c-0.01,-0.034 -0.015,-0.075 -0.015,-0.123l0,-0.172c0,-0.048 0.005,-0.089 0.015,-0.122c0.011,-0.033 0.027,-0.061 0.049,-0.082c0.023,-0.02 0.052,-0.036 0.087,-0.045c0.035,-0.01 0.078,-0.015 0.129,-0.015l0.451,0Z"
                  style="fill-rule:nonzero;"/>
        </g>
        <g transform="matrix(8,0,0,8,84.7508,610.797)">
            <path d="M0.197,-0.7c0.015,0 0.022,0.007 0.022,0.022l0,0.26l0.468,0l0,-0.26c0,-0.015 0.007,-0.022 0.022,-0.022l0.108,0c0.015,0 0.023,0.007 0.023,0.022l0,0.656c0,0.015 -0.008,0.022 -0.023,0.022l-0.108,0c-0.015,0 -0.022,-0.007 -0.022,-0.022l0,-0.266l-0.468,0l0,0.266c0,0.015 -0.007,0.022 -0.022,0.022l-0.108,0c-0.015,0 -0.023,-0.007 -0.023,-0.022l0,-0.656c0,-0.015 0.008,-0.022 0.023,-0.022l0.108,0Z"
                  style="fill-rule:nonzero;"/>
        </g>
    </g>
</svg>
