<?xml version="1.0" encoding="UTF-8" standalone="no"?>
<!DOCTYPE svg PUBLIC "-//W3C//DTD SVG 1.1//EN" "http://www.w3.org/Graphics/SVG/1.1/DTD/svg11.dtd">
<svg xmlns:xlink="http://www.w3.org/1999/xlink"
     xmlns:serif="http://www.serif.com/"
     width="150px"
     height="380px"
     version="1.1"
     xmlns="http://www.w3.org/2000/svg"
     xml:space="preserve"
     style="fill-rule:evenodd;clip-rule:evenodd;stroke-linejoin:round;stroke-miterlimit:2;">
    <g id="Panel"
       transform="matrix(0.833333,0,0,1,0,1.42109e-14)">
        <rect x="0"
              y="0"
              width="180"
              height="380"
              style="fill:#161616;"/>
    </g>
    <g transform="matrix(2.4015,0,0,2.4015,-16.7204,-167.447)">
        <g transform="matrix(12,0,0,12,27.0184,79.4626)">
            <path d="M0.643,-0.5c-0.002,0.032 -0.015,0.066 -0.038,0.104c-0.023,0.037 -0.052,0.075 -0.085,0.112c-0.033,0.038 -0.07,0.074 -0.111,0.11c-0.041,0.036 -0.081,0.068 -0.12,0.095c-0.039,0.028 -0.076,0.05 -0.109,0.068c-0.033,0.017 -0.059,0.026 -0.078,0.026l-0.04,-0.04c0,-0.007 0.004,-0.009 0.01,-0.007c0.039,-0.004 0.07,-0.018 0.095,-0.044c0.025,-0.026 0.045,-0.077 0.058,-0.154c0.003,-0.018 0.007,-0.039 0.01,-0.061c0.003,-0.023 0.007,-0.044 0.01,-0.065c0.003,-0.021 0.007,-0.04 0.011,-0.056c0.004,-0.017 0.008,-0.029 0.011,-0.035c0.007,-0.02 0.009,-0.033 0.007,-0.037c-0.003,-0.004 -0.011,-0.006 -0.024,-0.006l-0.073,0.013c-0.015,-0.007 -0.014,-0.013 0.003,-0.018c0.033,-0.005 0.072,-0.011 0.117,-0.017c0.045,-0.007 0.081,-0.015 0.108,-0.023c0.005,0.003 0.006,0.007 0.003,0.01c-0.007,0.005 -0.015,0.011 -0.023,0.017c-0.008,0.007 -0.015,0.016 -0.02,0.028c-0.008,0.018 -0.015,0.041 -0.021,0.067c-0.006,0.027 -0.011,0.053 -0.016,0.078c-0.005,0.025 -0.01,0.048 -0.014,0.069c-0.004,0.021 -0.008,0.035 -0.011,0.043c-0.01,0.029 -0.027,0.056 -0.05,0.083c-0.024,0.027 -0.047,0.049 -0.07,0.067c-0.007,0.012 -0.006,0.015 0.002,0.01c0.048,-0.016 0.095,-0.038 0.139,-0.066c0.044,-0.027 0.084,-0.06 0.119,-0.097c0.035,-0.038 0.063,-0.08 0.086,-0.127c0.022,-0.046 0.036,-0.097 0.041,-0.152c0.005,-0.065 -0.005,-0.108 -0.03,-0.128c-0.003,-0.001 -0.004,-0.003 -0.002,-0.005c0.001,-0.001 0.007,-0.001 0.017,0c0.03,0.004 0.053,0.018 0.07,0.043c0.017,0.025 0.022,0.057 0.017,0.095Z"
                  style="fill:#fff;fill-rule:nonzero;"/>
        </g>
        <g transform="matrix(12,0,0,12,33.4984,79.4626)">
            <path d="M0.888,-0.3c-0.029,0.04 -0.062,0.082 -0.101,0.126c-0.038,0.044 -0.078,0.085 -0.12,0.122c-0.041,0.036 -0.084,0.067 -0.127,0.091c-0.043,0.024 -0.084,0.036 -0.123,0.036c-0.028,0 -0.05,-0.008 -0.066,-0.023c-0.016,-0.015 -0.024,-0.038 -0.024,-0.07c0.001,-0.015 0.003,-0.032 0.007,-0.051c0.004,-0.019 0.011,-0.04 0.021,-0.064c-0.01,0.012 -0.021,0.026 -0.034,0.042c-0.012,0.016 -0.026,0.031 -0.042,0.045c-0.016,0.014 -0.034,0.026 -0.053,0.035c-0.019,0.009 -0.04,0.013 -0.064,0.013c-0.018,0 -0.033,-0.005 -0.045,-0.016c-0.011,-0.011 -0.017,-0.028 -0.017,-0.051c0,-0.013 0.003,-0.03 0.009,-0.05c0.006,-0.02 0.016,-0.047 0.032,-0.081c0.016,-0.034 0.038,-0.077 0.065,-0.128c0.028,-0.051 0.063,-0.113 0.106,-0.188c0.009,-0.017 0.016,-0.025 0.023,-0.025c0.012,0 0.024,0.007 0.036,0.021c0.013,0.014 0.019,0.024 0.019,0.029c0,0.005 -0.005,0.015 -0.015,0.029c-0.027,0.04 -0.052,0.08 -0.075,0.12c-0.023,0.04 -0.044,0.078 -0.061,0.113c-0.018,0.035 -0.032,0.066 -0.043,0.094c-0.011,0.027 -0.016,0.048 -0.016,0.063c0,0.025 0.009,0.038 0.027,0.038c0.017,0 0.04,-0.013 0.069,-0.039c0.029,-0.026 0.064,-0.069 0.104,-0.131c0.015,-0.027 0.03,-0.055 0.046,-0.084c0.016,-0.029 0.031,-0.057 0.046,-0.084c0.015,-0.026 0.03,-0.051 0.043,-0.073c0.013,-0.023 0.023,-0.04 0.03,-0.051c0.008,-0.012 0.015,-0.018 0.02,-0.018c0.007,0 0.014,0.007 0.022,0.021c0.009,0.014 0.013,0.031 0.013,0.051c0,0.014 -0.003,0.026 -0.01,0.038c-0.02,0.03 -0.041,0.06 -0.064,0.089c-0.022,0.029 -0.043,0.059 -0.062,0.091c-0.019,0.032 -0.036,0.065 -0.049,0.1c-0.013,0.035 -0.02,0.073 -0.02,0.115c0,0.037 0.017,0.055 0.052,0.055c0.024,0 0.052,-0.009 0.084,-0.026c0.033,-0.018 0.068,-0.042 0.106,-0.074c0.039,-0.032 0.078,-0.07 0.119,-0.115c0.041,-0.045 0.08,-0.094 0.116,-0.147c0.01,-0.004 0.015,0 0.015,0.012Z"
                  style="fill:#fff;fill-rule:nonzero;"/>
        </g>
    </g>
    <g id="LOGO"
       transform="matrix(1,0,0,1,11.2372,-235.497)">
        <g transform="matrix(8,0,0,8,30.1268,602.797)">
            <path d="M0.195,-0.7c0.015,0 0.022,0.007 0.022,0.022l0,0.399c0,0.027 0.002,0.049 0.007,0.067c0.004,0.017 0.011,0.031 0.021,0.042c0.01,0.01 0.024,0.017 0.041,0.022c0.017,0.004 0.038,0.006 0.064,0.006l0.405,0c0.015,0 0.022,0.007 0.022,0.022l0,0.098c0,0.015 -0.007,0.022 -0.022,0.022l-0.411,0c-0.051,0 -0.094,-0.005 -0.129,-0.014c-0.035,-0.009 -0.064,-0.024 -0.086,-0.045c-0.023,-0.021 -0.039,-0.049 -0.049,-0.082c-0.011,-0.034 -0.016,-0.075 -0.016,-0.123l0,-0.414c0,-0.015 0.008,-0.022 0.023,-0.022l0.108,0Z"
                  style="fill:#fff;fill-rule:nonzero;"/>
        </g>
        <g transform="matrix(8,0,0,8,36.5348,602.797)">
            <path d="M0.197,-0.7c0.015,0 0.022,0.007 0.022,0.022l0,0.656c0,0.015 -0.007,0.022 -0.022,0.022l-0.108,0c-0.015,0 -0.023,-0.007 -0.023,-0.022l0,-0.656c0,-0.015 0.008,-0.022 0.023,-0.022l0.108,0Z"
                  style="fill:#fff;fill-rule:nonzero;"/>
        </g>
        <g transform="matrix(8,0,0,8,38.8228,602.797)">
            <path d="M0.244,-0.7c0.016,0 0.029,0.001 0.04,0.002c0.011,0.001 0.02,0.004 0.028,0.009c0.008,0.004 0.016,0.01 0.023,0.018c0.007,0.007 0.016,0.017 0.025,0.03l0.372,0.488c0.003,0.005 0.007,0.007 0.013,0.007l0.009,0c0.005,0 0.008,-0.003 0.008,-0.01l0,-0.522c0,-0.015 0.007,-0.022 0.022,-0.022l0.105,0c0.015,0 0.022,0.007 0.022,0.022l0,0.574c0,0.041 -0.007,0.068 -0.022,0.082c-0.015,0.015 -0.037,0.022 -0.068,0.022l-0.086,0c-0.015,0 -0.028,-0.001 -0.038,-0.002c-0.011,-0.001 -0.02,-0.004 -0.028,-0.008c-0.008,-0.004 -0.016,-0.01 -0.023,-0.018c-0.008,-0.007 -0.017,-0.018 -0.027,-0.031l-0.373,-0.488c-0.004,-0.005 -0.008,-0.007 -0.013,-0.007l-0.009,0c-0.005,0 -0.008,0.003 -0.008,0.01l0,0.522c0,0.015 -0.007,0.022 -0.022,0.022l-0.105,0c-0.015,0 -0.023,-0.007 -0.023,-0.022l0,-0.574c0,-0.041 0.007,-0.068 0.022,-0.083c0.015,-0.014 0.037,-0.021 0.068,-0.021l0.088,0Z"
                  style="fill:#fff;fill-rule:nonzero;"/>
        </g>
        <g transform="matrix(8,0,0,8,46.6468,602.797)">
            <path d="M0.564,-0.7c0.054,0 0.1,0.006 0.139,0.017c0.039,0.011 0.07,0.027 0.095,0.05c0.025,0.023 0.043,0.053 0.054,0.089c0.012,0.035 0.018,0.077 0.018,0.126l0,0.136c0,0.049 -0.006,0.091 -0.018,0.127c-0.011,0.035 -0.029,0.065 -0.054,0.088c-0.025,0.023 -0.056,0.04 -0.095,0.051c-0.039,0.011 -0.085,0.016 -0.139,0.016l-0.468,0c-0.02,0 -0.03,-0.01 -0.03,-0.03l0,-0.64c0,-0.02 0.01,-0.03 0.03,-0.03l0.468,0Zm-0.345,0.548c0,0.009 0.004,0.013 0.013,0.013l0.328,0c0.029,0 0.054,-0.003 0.074,-0.008c0.02,-0.005 0.036,-0.014 0.048,-0.026c0.013,-0.012 0.022,-0.028 0.027,-0.048c0.005,-0.02 0.008,-0.045 0.008,-0.074l0,-0.11c0,-0.029 -0.003,-0.054 -0.008,-0.074c-0.005,-0.02 -0.014,-0.036 -0.027,-0.048c-0.012,-0.012 -0.028,-0.021 -0.048,-0.026c-0.02,-0.005 -0.045,-0.008 -0.074,-0.008l-0.328,0c-0.009,0 -0.013,0.005 -0.013,0.014l0,0.395Z"
                  style="fill:#fff;fill-rule:nonzero;"/>
        </g>
        <g transform="matrix(8,0,0,8,54.0788,602.797)">
            <path d="M0.778,-0.7c0.015,0 0.023,0.007 0.023,0.022l0,0.095c0,0.015 -0.008,0.022 -0.023,0.022l-0.437,0c-0.026,0 -0.047,0.002 -0.065,0.007c-0.017,0.004 -0.03,0.011 -0.041,0.022c-0.01,0.01 -0.017,0.024 -0.021,0.042c-0.004,0.017 -0.006,0.039 -0.006,0.065l0,0.01l0.565,0c0.015,0 0.022,0.007 0.022,0.022l0,0.079c0,0.015 -0.007,0.022 -0.022,0.022l-0.565,0l0,0.017c0,0.026 0.002,0.048 0.006,0.065c0.004,0.018 0.011,0.032 0.021,0.042c0.011,0.011 0.024,0.018 0.041,0.022c0.017,0.005 0.039,0.007 0.065,0.007l0.437,0c0.015,0 0.023,0.007 0.023,0.022l0,0.095c0,0.015 -0.008,0.022 -0.023,0.022l-0.44,0c-0.051,0 -0.094,-0.005 -0.129,-0.014c-0.035,-0.009 -0.064,-0.025 -0.087,-0.046c-0.022,-0.021 -0.038,-0.048 -0.049,-0.082c-0.01,-0.033 -0.015,-0.074 -0.015,-0.122l0,-0.172c0,-0.048 0.005,-0.089 0.015,-0.122c0.011,-0.033 0.027,-0.061 0.049,-0.082c0.023,-0.021 0.052,-0.036 0.087,-0.046c0.035,-0.009 0.078,-0.014 0.129,-0.014l0.44,0Z"
                  style="fill:#fff;fill-rule:nonzero;"/>
        </g>
        <g transform="matrix(8,0,0,8,60.8788,602.797)">
            <path d="M0.244,-0.7c0.016,0 0.029,0.001 0.04,0.002c0.011,0.001 0.02,0.004 0.028,0.009c0.008,0.004 0.016,0.01 0.023,0.018c0.007,0.007 0.016,0.017 0.025,0.03l0.372,0.488c0.003,0.005 0.007,0.007 0.013,0.007l0.009,0c0.005,0 0.008,-0.003 0.008,-0.01l0,-0.522c0,-0.015 0.007,-0.022 0.022,-0.022l0.105,0c0.015,0 0.022,0.007 0.022,0.022l0,0.574c0,0.041 -0.007,0.068 -0.022,0.082c-0.015,0.015 -0.037,0.022 -0.068,0.022l-0.086,0c-0.015,0 -0.028,-0.001 -0.038,-0.002c-0.011,-0.001 -0.02,-0.004 -0.028,-0.008c-0.008,-0.004 -0.016,-0.01 -0.023,-0.018c-0.008,-0.007 -0.017,-0.018 -0.027,-0.031l-0.373,-0.488c-0.004,-0.005 -0.008,-0.007 -0.013,-0.007l-0.009,0c-0.005,0 -0.008,0.003 -0.008,0.01l0,0.522c0,0.015 -0.007,0.022 -0.022,0.022l-0.105,0c-0.015,0 -0.023,-0.007 -0.023,-0.022l0,-0.574c0,-0.041 0.007,-0.068 0.022,-0.083c0.015,-0.014 0.037,-0.021 0.068,-0.021l0.088,0Z"
                  style="fill:#fff;fill-rule:nonzero;"/>
        </g>
        <g transform="matrix(8,0,0,8,68.7028,602.797)">
            <path d="M0.672,-0.7c0.069,0 0.117,0.014 0.146,0.041c0.029,0.027 0.044,0.069 0.044,0.124l0,0.048c0,0.056 -0.021,0.098 -0.064,0.127c0.046,0.027 0.069,0.07 0.069,0.129l0,0.058c0,0.027 -0.003,0.051 -0.009,0.072c-0.006,0.021 -0.016,0.04 -0.029,0.055c-0.014,0.015 -0.032,0.026 -0.055,0.034c-0.023,0.008 -0.051,0.012 -0.084,0.012l-0.594,0c-0.02,0 -0.03,-0.01 -0.03,-0.03l0,-0.64c0,-0.02 0.01,-0.03 0.03,-0.03l0.576,0Zm-0.453,0.4l0,0.149c0,0.009 0.004,0.013 0.013,0.013l0.41,0c0.027,0 0.046,-0.005 0.057,-0.014c0.011,-0.01 0.017,-0.026 0.017,-0.047l0,-0.038c0,-0.021 -0.006,-0.036 -0.019,-0.047c-0.012,-0.011 -0.035,-0.016 -0.068,-0.016l-0.41,0Zm0,-0.109l0.41,0c0.033,0 0.056,-0.005 0.068,-0.015c0.012,-0.01 0.018,-0.025 0.018,-0.044l0,-0.034c0,-0.021 -0.006,-0.036 -0.018,-0.045c-0.011,-0.01 -0.03,-0.015 -0.056,-0.015l-0.409,0c-0.009,0 -0.013,0.004 -0.013,0.013l0,0.14Z"
                  style="fill:#fff;fill-rule:nonzero;"/>
        </g>
        <g transform="matrix(8,0,0,8,76.0548,602.797)">
            <path d="M0.778,-0.7c0.015,0 0.023,0.007 0.023,0.022l0,0.095c0,0.015 -0.008,0.022 -0.023,0.022l-0.437,0c-0.026,0 -0.047,0.002 -0.065,0.007c-0.017,0.004 -0.03,0.011 -0.041,0.022c-0.01,0.01 -0.017,0.024 -0.021,0.042c-0.004,0.017 -0.006,0.039 -0.006,0.065l0,0.01l0.565,0c0.015,0 0.022,0.007 0.022,0.022l0,0.079c0,0.015 -0.007,0.022 -0.022,0.022l-0.565,0l0,0.017c0,0.026 0.002,0.048 0.006,0.065c0.004,0.018 0.011,0.032 0.021,0.042c0.011,0.011 0.024,0.018 0.041,0.022c0.017,0.005 0.039,0.007 0.065,0.007l0.437,0c0.015,0 0.023,0.007 0.023,0.022l0,0.095c0,0.015 -0.008,0.022 -0.023,0.022l-0.44,0c-0.051,0 -0.094,-0.005 -0.129,-0.014c-0.035,-0.009 -0.064,-0.025 -0.087,-0.046c-0.022,-0.021 -0.038,-0.048 -0.049,-0.082c-0.01,-0.033 -0.015,-0.074 -0.015,-0.122l0,-0.172c0,-0.048 0.005,-0.089 0.015,-0.122c0.011,-0.033 0.027,-0.061 0.049,-0.082c0.023,-0.021 0.052,-0.036 0.087,-0.046c0.035,-0.009 0.078,-0.014 0.129,-0.014l0.44,0Z"
                  style="fill:#fff;fill-rule:nonzero;"/>
        </g>
        <g transform="matrix(8,0,0,8,82.8548,602.797)">
            <path d="M0.633,-0.7c0.077,0 0.132,0.017 0.165,0.052c0.033,0.035 0.05,0.086 0.05,0.154l0,0.057c0,0.057 -0.012,0.103 -0.035,0.136c-0.023,0.033 -0.061,0.055 -0.114,0.064l0.171,0.212c0.003,0.003 0.004,0.008 0.003,0.015c-0.001,0.007 -0.007,0.01 -0.016,0.01l-0.129,0c-0.009,0 -0.015,-0.001 -0.018,-0.003c-0.003,-0.002 -0.007,-0.005 -0.01,-0.01l-0.158,-0.208l-0.323,0l0,0.199c0,0.015 -0.007,0.022 -0.022,0.022l-0.108,0c-0.015,0 -0.023,-0.007 -0.023,-0.022l0,-0.648c0,-0.02 0.01,-0.03 0.03,-0.03l0.537,0Zm-0.414,0.357l0.383,0c0.034,0 0.058,-0.007 0.072,-0.022c0.014,-0.015 0.021,-0.037 0.021,-0.067l0,-0.042c0,-0.03 -0.007,-0.052 -0.021,-0.067c-0.014,-0.015 -0.038,-0.022 -0.072,-0.022l-0.37,0c-0.009,0 -0.013,0.004 -0.013,0.012l0,0.208Z"
                  style="fill:#fff;fill-rule:nonzero;"/>
        </g>
        <g transform="matrix(8,0,0,8,89.9508,602.797)">
            <path d="M0.845,-0.7c0.015,0 0.022,0.007 0.022,0.022l0,0.098c0,0.015 -0.007,0.023 -0.022,0.023l-0.501,0c-0.026,0 -0.047,0.002 -0.064,0.007c-0.017,0.004 -0.031,0.011 -0.041,0.022c-0.01,0.01 -0.017,0.024 -0.021,0.041c-0.005,0.017 -0.007,0.039 -0.007,0.066l0,0.144c0,0.027 0.002,0.049 0.007,0.067c0.004,0.017 0.011,0.031 0.021,0.042c0.01,0.01 0.024,0.017 0.041,0.022c0.017,0.004 0.038,0.006 0.064,0.006l0.33,0c0.017,0 0.03,-0.004 0.038,-0.013c0.008,-0.009 0.012,-0.025 0.012,-0.048l0,-0.081c0,-0.009 -0.004,-0.013 -0.012,-0.013l-0.293,0c-0.015,0 -0.022,-0.008 -0.022,-0.023l0,-0.075c0,-0.015 0.007,-0.023 0.022,-0.023l0.417,0c0.02,0 0.03,0.01 0.03,0.03l0,0.233c0,0.056 -0.011,0.096 -0.032,0.119c-0.021,0.023 -0.052,0.034 -0.092,0.034l-0.404,0c-0.051,0 -0.094,-0.005 -0.129,-0.014c-0.035,-0.009 -0.064,-0.024 -0.086,-0.045c-0.023,-0.021 -0.039,-0.049 -0.049,-0.082c-0.011,-0.034 -0.016,-0.075 -0.016,-0.123l0,-0.172c0,-0.048 0.005,-0.089 0.016,-0.122c0.01,-0.033 0.026,-0.06 0.049,-0.081c0.022,-0.021 0.051,-0.037 0.086,-0.046c0.035,-0.01 0.078,-0.015 0.129,-0.015l0.507,0Z"
                  style="fill:#fff;fill-rule:nonzero;"/>
        </g>
        <g transform="matrix(8,0,0,8,35.4868,610.797)">
            <path d="M0.633,-0.7c0.077,0 0.132,0.017 0.165,0.052c0.033,0.035 0.05,0.086 0.05,0.154l0,0.057c0,0.057 -0.012,0.103 -0.035,0.136c-0.023,0.033 -0.061,0.055 -0.114,0.064l0.171,0.212c0.003,0.003 0.004,0.008 0.003,0.015c-0.001,0.007 -0.007,0.01 -0.016,0.01l-0.129,0c-0.009,0 -0.015,-0.001 -0.018,-0.003c-0.003,-0.002 -0.007,-0.005 -0.01,-0.01l-0.158,-0.208l-0.323,0l0,0.199c0,0.015 -0.007,0.022 -0.022,0.022l-0.108,0c-0.015,0 -0.023,-0.007 -0.023,-0.022l0,-0.648c0,-0.02 0.01,-0.03 0.03,-0.03l0.537,0Zm-0.414,0.357l0.383,0c0.034,0 0.058,-0.007 0.072,-0.022c0.014,-0.015 0.021,-0.037 0.021,-0.067l0,-0.042c0,-0.03 -0.007,-0.052 -0.021,-0.067c-0.014,-0.015 -0.038,-0.022 -0.072,-0.022l-0.37,0c-0.009,0 -0.013,0.004 -0.013,0.012l0,0.208Z"
                  style="fill:#fff;fill-rule:nonzero;"/>
        </g>
        <g transform="matrix(8,0,0,8,42.5828,610.797)">
            <path d="M0.778,-0.7c0.015,0 0.023,0.007 0.023,0.022l0,0.095c0,0.015 -0.008,0.022 -0.023,0.022l-0.437,0c-0.026,0 -0.047,0.002 -0.065,0.007c-0.017,0.004 -0.03,0.011 -0.041,0.022c-0.01,0.01 -0.017,0.024 -0.021,0.042c-0.004,0.017 -0.006,0.039 -0.006,0.065l0,0.01l0.565,0c0.015,0 0.022,0.007 0.022,0.022l0,0.079c0,0.015 -0.007,0.022 -0.022,0.022l-0.565,0l0,0.017c0,0.026 0.002,0.048 0.006,0.065c0.004,0.018 0.011,0.032 0.021,0.042c0.011,0.011 0.024,0.018 0.041,0.022c0.017,0.005 0.039,0.007 0.065,0.007l0.437,0c0.015,0 0.023,0.007 0.023,0.022l0,0.095c0,0.015 -0.008,0.022 -0.023,0.022l-0.44,0c-0.051,0 -0.094,-0.005 -0.129,-0.014c-0.035,-0.009 -0.064,-0.025 -0.087,-0.046c-0.022,-0.021 -0.038,-0.048 -0.049,-0.082c-0.01,-0.033 -0.015,-0.074 -0.015,-0.122l0,-0.172c0,-0.048 0.005,-0.089 0.015,-0.122c0.011,-0.033 0.027,-0.061 0.049,-0.082c0.023,-0.021 0.052,-0.036 0.087,-0.046c0.035,-0.009 0.078,-0.014 0.129,-0.014l0.44,0Z"
                  style="fill:#fff;fill-rule:nonzero;"/>
        </g>
        <g transform="matrix(8,0,0,8,49.3828,610.797)">
            <path d="M0.761,-0.7c0.015,0 0.022,0.007 0.022,0.022l0,0.095c0,0.015 -0.007,0.022 -0.022,0.022l-0.501,0c-0.019,0 -0.033,0.005 -0.041,0.015c-0.008,0.01 -0.012,0.024 -0.012,0.041l0,0.034c0,0.037 0.017,0.056 0.052,0.056l0.375,0c0.058,0 0.102,0.015 0.131,0.044c0.029,0.03 0.044,0.073 0.044,0.128l0,0.08c0,0.049 -0.014,0.088 -0.043,0.118c-0.029,0.03 -0.073,0.045 -0.134,0.045l-0.554,0c-0.015,0 -0.023,-0.007 -0.023,-0.022l0,-0.095c0,-0.015 0.008,-0.022 0.023,-0.022l0.525,0c0.019,0 0.033,-0.005 0.041,-0.015c0.008,-0.01 0.012,-0.024 0.012,-0.041l0,-0.041c0,-0.037 -0.017,-0.056 -0.052,-0.056l-0.375,0c-0.058,0 -0.102,-0.015 -0.131,-0.045c-0.029,-0.029 -0.044,-0.072 -0.044,-0.127l0,-0.073c0,-0.049 0.014,-0.088 0.043,-0.118c0.029,-0.03 0.073,-0.045 0.134,-0.045l0.53,0Z"
                  style="fill:#fff;fill-rule:nonzero;"/>
        </g>
        <g transform="matrix(8,0,0,8,56.2388,610.797)">
            <path d="M0.778,-0.7c0.015,0 0.023,0.007 0.023,0.022l0,0.095c0,0.015 -0.008,0.022 -0.023,0.022l-0.437,0c-0.026,0 -0.047,0.002 -0.065,0.007c-0.017,0.004 -0.03,0.011 -0.041,0.022c-0.01,0.01 -0.017,0.024 -0.021,0.042c-0.004,0.017 -0.006,0.039 -0.006,0.065l0,0.01l0.565,0c0.015,0 0.022,0.007 0.022,0.022l0,0.079c0,0.015 -0.007,0.022 -0.022,0.022l-0.565,0l0,0.017c0,0.026 0.002,0.048 0.006,0.065c0.004,0.018 0.011,0.032 0.021,0.042c0.011,0.011 0.024,0.018 0.041,0.022c0.017,0.005 0.039,0.007 0.065,0.007l0.437,0c0.015,0 0.023,0.007 0.023,0.022l0,0.095c0,0.015 -0.008,0.022 -0.023,0.022l-0.44,0c-0.051,0 -0.094,-0.005 -0.129,-0.014c-0.035,-0.009 -0.064,-0.025 -0.087,-0.046c-0.022,-0.021 -0.038,-0.048 -0.049,-0.082c-0.01,-0.033 -0.015,-0.074 -0.015,-0.122l0,-0.172c0,-0.048 0.005,-0.089 0.015,-0.122c0.011,-0.033 0.027,-0.061 0.049,-0.082c0.023,-0.021 0.052,-0.036 0.087,-0.046c0.035,-0.009 0.078,-0.014 0.129,-0.014l0.44,0Z"
                  style="fill:#fff;fill-rule:nonzero;"/>
        </g>
        <g transform="matrix(8,0,0,8,63.0388,610.797)">
            <path d="M0.51,-0.7c0.025,0 0.047,0.005 0.064,0.016c0.017,0.01 0.034,0.03 0.051,0.06l0.331,0.601c0.003,0.007 0.004,0.012 0.002,0.017c-0.001,0.004 -0.006,0.006 -0.014,0.006l-0.127,0c-0.011,0 -0.019,-0.004 -0.023,-0.013l-0.071,-0.129l-0.47,0l-0.069,0.129c-0.005,0.009 -0.012,0.013 -0.023,0.013l-0.13,0c-0.009,0 -0.014,-0.002 -0.016,-0.006c-0.001,-0.005 0,-0.01 0.003,-0.017l0.328,-0.601c0.017,-0.03 0.033,-0.05 0.049,-0.06c0.016,-0.011 0.035,-0.016 0.056,-0.016l0.059,0Zm-0.194,0.442l0.344,0l-0.159,-0.293c-0.003,-0.005 -0.006,-0.007 -0.011,-0.007l-0.006,0c-0.005,0 -0.008,0.002 -0.011,0.007l-0.157,0.293Z"
                  style="fill:#fff;fill-rule:nonzero;"/>
        </g>
        <g transform="matrix(8,0,0,8,70.8388,610.797)">
            <path d="M0.633,-0.7c0.077,0 0.132,0.017 0.165,0.052c0.033,0.035 0.05,0.086 0.05,0.154l0,0.057c0,0.057 -0.012,0.103 -0.035,0.136c-0.023,0.033 -0.061,0.055 -0.114,0.064l0.171,0.212c0.003,0.003 0.004,0.008 0.003,0.015c-0.001,0.007 -0.007,0.01 -0.016,0.01l-0.129,0c-0.009,0 -0.015,-0.001 -0.018,-0.003c-0.003,-0.002 -0.007,-0.005 -0.01,-0.01l-0.158,-0.208l-0.323,0l0,0.199c0,0.015 -0.007,0.022 -0.022,0.022l-0.108,0c-0.015,0 -0.023,-0.007 -0.023,-0.022l0,-0.648c0,-0.02 0.01,-0.03 0.03,-0.03l0.537,0Zm-0.414,0.357l0.383,0c0.034,0 0.058,-0.007 0.072,-0.022c0.014,-0.015 0.021,-0.037 0.021,-0.067l0,-0.042c0,-0.03 -0.007,-0.052 -0.021,-0.067c-0.014,-0.015 -0.038,-0.022 -0.072,-0.022l-0.37,0c-0.009,0 -0.013,0.004 -0.013,0.012l0,0.208Z"
                  style="fill:#fff;fill-rule:nonzero;"/>
        </g>
        <g transform="matrix(8,0,0,8,77.9348,610.797)">
            <path d="M0.789,-0.7c0.015,0 0.022,0.007 0.022,0.022l0,0.098c0,0.015 -0.007,0.023 -0.022,0.023l-0.445,0c-0.026,0 -0.048,0.002 -0.065,0.007c-0.017,0.004 -0.03,0.011 -0.04,0.022c-0.01,0.01 -0.017,0.024 -0.022,0.041c-0.004,0.017 -0.006,0.039 -0.006,0.066l0,0.142c0,0.027 0.002,0.049 0.006,0.067c0.005,0.017 0.012,0.031 0.022,0.042c0.01,0.01 0.023,0.017 0.041,0.022c0.016,0.004 0.038,0.006 0.064,0.006l0.445,0c0.015,0 0.022,0.007 0.022,0.022l0,0.098c0,0.015 -0.007,0.022 -0.022,0.022l-0.451,0c-0.051,0 -0.094,-0.005 -0.129,-0.014c-0.035,-0.009 -0.064,-0.024 -0.087,-0.045c-0.022,-0.021 -0.038,-0.049 -0.049,-0.082c-0.01,-0.034 -0.015,-0.075 -0.015,-0.123l0,-0.172c0,-0.048 0.005,-0.089 0.015,-0.122c0.011,-0.033 0.027,-0.061 0.049,-0.082c0.023,-0.02 0.052,-0.036 0.087,-0.045c0.035,-0.01 0.078,-0.015 0.129,-0.015l0.451,0Z"
                  style="fill:#fff;fill-rule:nonzero;"/>
        </g>
        <g transform="matrix(8,0,0,8,84.7508,610.797)">
            <path d="M0.197,-0.7c0.015,0 0.022,0.007 0.022,0.022l0,0.26l0.468,0l0,-0.26c0,-0.015 0.007,-0.022 0.022,-0.022l0.108,0c0.015,0 0.023,0.007 0.023,0.022l0,0.656c0,0.015 -0.008,0.022 -0.023,0.022l-0.108,0c-0.015,0 -0.022,-0.007 -0.022,-0.022l0,-0.266l-0.468,0l0,0.266c0,0.015 -0.007,0.022 -0.022,0.022l-0.108,0c-0.015,0 -0.023,-0.007 -0.023,-0.022l0,-0.656c0,-0.015 0.008,-0.022 0.023,-0.022l0.108,0Z"
                  style="fill:#fff;fill-rule:nonzero;"/>
        </g>
    </g>
</svg>
