<?xml version="1.0" encoding="UTF-8" standalone="no"?>
<!DOCTYPE svg PUBLIC "-//W3C//DTD SVG 1.1//EN" "http://www.w3.org/Graphics/SVG/1.1/DTD/svg11.dtd">
<svg xmlns:xlink="http://www.w3.org/1999/xlink" xmlns:serif="http://www.serif.com/" width="210px" height="380px" version="1.1" xmlns="http://www.w3.org/2000/svg" xml:space="preserve" style="fill-rule:evenodd;clip-rule:evenodd;stroke-linejoin:round;stroke-miterlimit:1.41421;">
    <g id="Panel" transform="matrix(1.16667,0,0,1,-1.42109e-14,-1.77636e-14)">
        <rect x="0"
              y="0"
              width="180"
              height="380"
              style="fill:#fff;"/>
    </g>
    <g id="Labels">
        <g id="Description"
           transform="matrix(1,0,0,1,-3.332,41.537)">
            <path d="M29.67,63.142l1.928,-5.392l-0.744,0l-0.912,2.664c-0.24,0.704 -0.464,1.384 -0.616,2.008l-0.016,0c-0.144,-0.632 -0.344,-1.288 -0.576,-2.016l-0.84,-2.656l-0.752,0l1.76,5.392l0.768,0Z"
                  style="fill-rule:nonzero;stroke:#000;stroke-width:0.6px;"/>
            <path d="M32.502,63.462l2.24,-5.8l-0.544,0l-2.232,5.8l0.536,0Z"
                  style="fill-rule:nonzero;stroke:#000;stroke-width:0.6px;"/>
            <path d="M37.91,57.662c-1.44,0 -2.504,1.12 -2.504,2.832c0,1.632 1,2.736 2.424,2.736c1.376,0 2.504,-0.984 2.504,-2.84c0,-1.6 -0.952,-2.728 -2.424,-2.728Zm-0.032,0.568c1.16,0 1.72,1.12 1.72,2.192c0,1.224 -0.624,2.24 -1.728,2.24c-1.096,0 -1.72,-1.032 -1.72,-2.184c0,-1.184 0.576,-2.248 1.728,-2.248Z"
                  style="fill-rule:nonzero;stroke:#000;stroke-width:0.6px;"/>
            <path d="M45.262,62.414c-0.28,0.136 -0.712,0.224 -1.136,0.224c-1.312,0 -2.072,-0.848 -2.072,-2.168c0,-1.416 0.84,-2.224 2.104,-2.224c0.448,0 0.824,0.096 1.088,0.224l0.168,-0.568c-0.184,-0.096 -0.608,-0.24 -1.28,-0.24c-1.672,0 -2.816,1.144 -2.816,2.832c0,1.768 1.144,2.728 2.664,2.728c0.656,0 1.168,-0.128 1.424,-0.256l-0.144,-0.552Z"
                  style="fill-rule:nonzero;stroke:#000;stroke-width:0.6px;"/>
            <path d="M47.926,63.142l0.704,0l0,-4.8l1.648,0l0,-0.592l-3.992,0l0,0.592l1.64,0l0,4.8Z"
                  style="fill-rule:nonzero;stroke:#000;stroke-width:0.6px;"/>
            <path d="M31.172,71.542l0.609,0l0,-1.89c0.14,0.035 0.308,0.042 0.49,0.042c0.595,0 1.12,-0.175 1.442,-0.518c0.238,-0.245 0.364,-0.581 0.364,-1.008c0,-0.42 -0.154,-0.763 -0.413,-0.987c-0.28,-0.252 -0.721,-0.392 -1.323,-0.392c-0.49,0 -0.875,0.042 -1.169,0.091l0,4.662Zm0.609,-4.221c0.105,-0.028 0.308,-0.049 0.574,-0.049c0.672,0 1.113,0.301 1.113,0.924c0,0.651 -0.448,1.008 -1.183,1.008c-0.203,0 -0.371,-0.014 -0.504,-0.049l0,-1.834Z"
                  style="fill:#005dff;fill-rule:nonzero;stroke:#3b6bc1;stroke-width:0.6px;"/>
            <path d="M37.157,66.747c-1.26,0 -2.191,0.98 -2.191,2.478c0,1.428 0.875,2.394 2.121,2.394c1.204,0 2.191,-0.861 2.191,-2.485c0,-1.4 -0.833,-2.387 -2.121,-2.387Zm-0.028,0.497c1.015,0 1.505,0.98 1.505,1.918c0,1.071 -0.546,1.96 -1.512,1.96c-0.959,0 -1.505,-0.903 -1.505,-1.911c0,-1.036 0.504,-1.967 1.512,-1.967Z"
                  style="fill:#005dff;fill-rule:nonzero;stroke:#3b6bc1;stroke-width:0.6px;"/>
            <path d="M40.419,71.542l2.625,0l0,-0.511l-2.016,0l0,-4.207l-0.609,0l0,4.718Z"
                  style="fill:#005dff;fill-rule:nonzero;stroke:#3b6bc1;stroke-width:0.6px;"/>
            <path d="M45.151,71.542l0,-2.009l1.582,-2.709l-0.693,0l-0.679,1.302c-0.182,0.357 -0.343,0.665 -0.476,0.973l-0.014,0c-0.147,-0.329 -0.287,-0.616 -0.469,-0.973l-0.665,-1.302l-0.693,0l1.491,2.716l0,2.002l0.616,0Z"
                  style="fill:#005dff;fill-rule:nonzero;stroke:#3b6bc1;stroke-width:0.6px;"/>
        </g>
        <g id="Description1"
           serif:id="Description"
           transform="matrix(1,0,0,1,43.304,95.6126)">
            <path d="M27.518,63.142l0.696,0l0,-2.44l2.04,0l0,-0.576l-2.04,0l0,-1.792l2.208,0l0,-0.584l-2.904,0l0,5.392Z"
                  style="fill-rule:nonzero;stroke:#000;stroke-width:0.6px;"/>
            <path d="M36.35,63.142l0.68,0l-0.336,-5.392l-0.888,0l-0.96,2.608c-0.24,0.68 -0.432,1.272 -0.568,1.816l-0.024,0c-0.136,-0.56 -0.32,-1.152 -0.544,-1.816l-0.92,-2.608l-0.888,0l-0.376,5.392l0.664,0l0.144,-2.312c0.048,-0.808 0.088,-1.712 0.104,-2.384l0.016,0c0.152,0.64 0.368,1.336 0.624,2.096l0.872,2.568l0.528,0l0.952,-2.616c0.272,-0.744 0.496,-1.416 0.68,-2.048l0.024,0c-0.008,0.672 0.04,1.576 0.08,2.328l0.136,2.368Z"
                  style="fill-rule:nonzero;stroke:#000;stroke-width:0.6px;"/>
            <path d="M44.222,62.414c-0.28,0.136 -0.712,0.224 -1.136,0.224c-1.312,0 -2.072,-0.848 -2.072,-2.168c0,-1.416 0.84,-2.224 2.104,-2.224c0.448,0 0.824,0.096 1.088,0.224l0.168,-0.568c-0.184,-0.096 -0.608,-0.24 -1.28,-0.24c-1.672,0 -2.816,1.144 -2.816,2.832c0,1.768 1.144,2.728 2.664,2.728c0.656,0 1.168,-0.128 1.424,-0.256l-0.144,-0.552Z"
                  style="fill-rule:nonzero;stroke:#000;stroke-width:0.6px;"/>
            <path d="M47.686,63.142l1.928,-5.392l-0.744,0l-0.912,2.664c-0.24,0.704 -0.464,1.384 -0.616,2.008l-0.016,0c-0.144,-0.632 -0.344,-1.288 -0.576,-2.016l-0.84,-2.656l-0.752,0l1.76,5.392l0.768,0Z"
                  style="fill-rule:nonzero;stroke:#000;stroke-width:0.6px;"/>
        </g>
        <g id="Description2"
           serif:id="Description"
           transform="matrix(1,0,0,1,43.304,149.613)">
            <path d="M27.518,63.142l0.696,0l0,-2.16c0.16,0.04 0.352,0.048 0.56,0.048c0.68,0 1.28,-0.2 1.648,-0.592c0.272,-0.28 0.416,-0.664 0.416,-1.152c0,-0.48 -0.176,-0.872 -0.472,-1.128c-0.32,-0.288 -0.824,-0.448 -1.512,-0.448c-0.56,0 -1,0.048 -1.336,0.104l0,5.328Zm0.696,-4.824c0.12,-0.032 0.352,-0.056 0.656,-0.056c0.768,0 1.272,0.344 1.272,1.056c0,0.744 -0.512,1.152 -1.352,1.152c-0.232,0 -0.424,-0.016 -0.576,-0.056l0,-2.096Z"
                  style="fill-rule:nonzero;stroke:#000;stroke-width:0.6px;"/>
            <path d="M33.782,63.142l0.768,-2.808c0.2,-0.696 0.32,-1.224 0.416,-1.76l0.016,0c0.072,0.544 0.184,1.072 0.352,1.76l0.68,2.808l0.728,0l1.528,-5.392l-0.712,0l-0.712,2.72c-0.168,0.672 -0.32,1.272 -0.432,1.864l-0.016,0c-0.08,-0.568 -0.224,-1.208 -0.376,-1.848l-0.656,-2.736l-0.728,0l-0.72,2.72c-0.184,0.696 -0.352,1.336 -0.44,1.872l-0.016,0c-0.096,-0.52 -0.24,-1.192 -0.4,-1.864l-0.64,-2.728l-0.736,0l1.368,5.392l0.728,0Z"
                  style="fill-rule:nonzero;stroke:#000;stroke-width:0.6px;"/>
            <path d="M45.062,62.414c-0.28,0.136 -0.712,0.224 -1.136,0.224c-1.312,0 -2.072,-0.848 -2.072,-2.168c0,-1.416 0.84,-2.224 2.104,-2.224c0.448,0 0.824,0.096 1.088,0.224l0.168,-0.568c-0.184,-0.096 -0.608,-0.24 -1.28,-0.24c-1.672,0 -2.816,1.144 -2.816,2.832c0,1.768 1.144,2.728 2.664,2.728c0.656,0 1.168,-0.128 1.424,-0.256l-0.144,-0.552Z"
                  style="fill-rule:nonzero;stroke:#000;stroke-width:0.6px;"/>
            <path d="M48.526,63.142l1.928,-5.392l-0.744,0l-0.912,2.664c-0.24,0.704 -0.464,1.384 -0.616,2.008l-0.016,0c-0.144,-0.632 -0.344,-1.288 -0.576,-2.016l-0.84,-2.656l-0.752,0l1.76,5.392l0.768,0Z"
                  style="fill-rule:nonzero;stroke:#000;stroke-width:0.6px;"/>
        </g>
        <g id="Description3"
           serif:id="Description"
           transform="matrix(1,0,0,1,-0.696004,195.613)">
            <path d="M27.246,62.878c0.288,0.192 0.856,0.344 1.376,0.344c1.272,0 1.888,-0.72 1.888,-1.552c0,-0.792 -0.464,-1.232 -1.376,-1.584c-0.744,-0.288 -1.072,-0.536 -1.072,-1.04c0,-0.368 0.28,-0.808 1.016,-0.808c0.488,0 0.848,0.16 1.024,0.256l0.192,-0.568c-0.24,-0.136 -0.64,-0.264 -1.192,-0.264c-1.048,0 -1.744,0.624 -1.744,1.464c0,0.76 0.544,1.216 1.424,1.528c0.728,0.28 1.016,0.568 1.016,1.072c0,0.544 -0.416,0.92 -1.128,0.92c-0.48,0 -0.936,-0.16 -1.248,-0.352l-0.176,0.584Z"
                  style="fill-rule:nonzero;stroke:#000;stroke-width:0.6px;"/>
            <path d="M34.646,61.446l0.576,1.696l0.744,0l-1.84,-5.392l-0.84,0l-1.832,5.392l0.72,0l0.56,-1.696l1.912,0Zm-1.768,-0.544l0.528,-1.56c0.104,-0.328 0.192,-0.656 0.272,-0.976l0.016,0c0.08,0.312 0.16,0.632 0.28,0.984l0.528,1.552l-1.624,0Z"
                  style="fill-rule:nonzero;stroke:#000;stroke-width:0.6px;"/>
            <path d="M38.342,63.142l0.768,-2.808c0.2,-0.696 0.32,-1.224 0.416,-1.76l0.016,0c0.072,0.544 0.184,1.072 0.352,1.76l0.68,2.808l0.728,0l1.528,-5.392l-0.712,0l-0.712,2.72c-0.168,0.672 -0.32,1.272 -0.432,1.864l-0.016,0c-0.08,-0.568 -0.224,-1.208 -0.376,-1.848l-0.656,-2.736l-0.728,0l-0.72,2.72c-0.184,0.696 -0.352,1.336 -0.44,1.872l-0.016,0c-0.096,-0.52 -0.24,-1.192 -0.4,-1.864l-0.64,-2.728l-0.736,0l1.368,5.392l0.728,0Z"
                  style="fill-rule:nonzero;stroke:#000;stroke-width:0.6px;"/>
        </g>
        <g id="Description4"
           serif:id="Description"
           transform="matrix(1,0,0,1,32.304,195.613)">
            <path d="M27.518,63.142l0.696,0l0,-2.16c0.16,0.04 0.352,0.048 0.56,0.048c0.68,0 1.28,-0.2 1.648,-0.592c0.272,-0.28 0.416,-0.664 0.416,-1.152c0,-0.48 -0.176,-0.872 -0.472,-1.128c-0.32,-0.288 -0.824,-0.448 -1.512,-0.448c-0.56,0 -1,0.048 -1.336,0.104l0,5.328Zm0.696,-4.824c0.12,-0.032 0.352,-0.056 0.656,-0.056c0.768,0 1.272,0.344 1.272,1.056c0,0.744 -0.512,1.152 -1.352,1.152c-0.232,0 -0.424,-0.016 -0.576,-0.056l0,-2.096Z"
                  style="fill-rule:nonzero;stroke:#000;stroke-width:0.6px;"/>
            <path d="M32.166,57.75l0,3.176c0,1.672 0.832,2.304 1.936,2.304c1.168,0 2.04,-0.68 2.04,-2.336l0,-3.144l-0.704,0l0,3.192c0,1.192 -0.512,1.72 -1.312,1.72c-0.72,0 -1.256,-0.512 -1.256,-1.72l0,-3.192l-0.704,0Z"
                  style="fill-rule:nonzero;stroke:#000;stroke-width:0.6px;"/>
            <path d="M37.75,63.142l3,0l0,-0.584l-2.304,0l0,-4.808l-0.696,0l0,5.392Z"
                  style="fill-rule:nonzero;stroke:#000;stroke-width:0.6px;"/>
            <path d="M41.654,62.878c0.288,0.192 0.856,0.344 1.376,0.344c1.272,0 1.888,-0.72 1.888,-1.552c0,-0.792 -0.464,-1.232 -1.376,-1.584c-0.744,-0.288 -1.072,-0.536 -1.072,-1.04c0,-0.368 0.28,-0.808 1.016,-0.808c0.488,0 0.848,0.16 1.024,0.256l0.192,-0.568c-0.24,-0.136 -0.64,-0.264 -1.192,-0.264c-1.048,0 -1.744,0.624 -1.744,1.464c0,0.76 0.544,1.216 1.424,1.528c0.728,0.28 1.016,0.568 1.016,1.072c0,0.544 -0.416,0.92 -1.128,0.92c-0.48,0 -0.936,-0.16 -1.248,-0.352l-0.176,0.584Z"
                  style="fill-rule:nonzero;stroke:#000;stroke-width:0.6px;"/>
            <path d="M49.062,60.038l-2.096,0l0,-1.704l2.216,0l0,-0.584l-2.912,0l0,5.392l3.032,0l0,-0.584l-2.336,0l0,-1.944l2.096,0l0,-0.576Z"
                  style="fill-rule:nonzero;stroke:#000;stroke-width:0.6px;"/>
        </g>
        <g id="Description5"
           serif:id="Description"
           transform="matrix(1,0,0,1,70.304,195.613)">
            <path d="M27.246,62.878c0.288,0.192 0.856,0.344 1.376,0.344c1.272,0 1.888,-0.72 1.888,-1.552c0,-0.792 -0.464,-1.232 -1.376,-1.584c-0.744,-0.288 -1.072,-0.536 -1.072,-1.04c0,-0.368 0.28,-0.808 1.016,-0.808c0.488,0 0.848,0.16 1.024,0.256l0.192,-0.568c-0.24,-0.136 -0.64,-0.264 -1.192,-0.264c-1.048,0 -1.744,0.624 -1.744,1.464c0,0.76 0.544,1.216 1.424,1.528c0.728,0.28 1.016,0.568 1.016,1.072c0,0.544 -0.416,0.92 -1.128,0.92c-0.48,0 -0.936,-0.16 -1.248,-0.352l-0.176,0.584Z"
                  style="fill-rule:nonzero;stroke:#000;stroke-width:0.6px;"/>
            <rect x="31.862"
                  y="57.75"
                  width="0.696"
                  height="5.392"
                  style="fill-rule:nonzero;stroke:#000;stroke-width:0.6px;"/>
            <path d="M34.83,63.142l0,-2.304c0,-0.896 -0.016,-1.544 -0.056,-2.224l0.024,-0.008c0.272,0.584 0.632,1.2 1.008,1.8l1.712,2.736l0.704,0l0,-5.392l-0.656,0l0,2.256c0,0.84 0.016,1.496 0.08,2.216l-0.016,0.008c-0.256,-0.552 -0.568,-1.12 -0.968,-1.752l-1.728,-2.728l-0.76,0l0,5.392l0.656,0Z"
                  style="fill-rule:nonzero;stroke:#000;stroke-width:0.6px;"/>
            <path d="M42.63,60.038l-2.096,0l0,-1.704l2.216,0l0,-0.584l-2.912,0l0,5.392l3.032,0l0,-0.584l-2.336,0l0,-1.944l2.096,0l0,-0.576Z"
                  style="fill-rule:nonzero;stroke:#000;stroke-width:0.6px;"/>
        </g>
        <g id="Description6"
           serif:id="Description"
           transform="matrix(1,0,0,1,107.304,195.613)">
            <path d="M28.542,63.142l0.704,0l0,-4.8l1.648,0l0,-0.592l-3.992,0l0,0.592l1.64,0l0,4.8Z"
                  style="fill-rule:nonzero;stroke:#000;stroke-width:0.6px;"/>
            <path d="M31.894,63.142l0.696,0l0,-2.336l0.656,0c0.632,0.024 0.92,0.304 1.08,1.048c0.152,0.672 0.272,1.136 0.36,1.288l0.72,0c-0.112,-0.208 -0.24,-0.728 -0.416,-1.48c-0.128,-0.56 -0.376,-0.944 -0.792,-1.088l0,-0.024c0.568,-0.192 1.016,-0.664 1.016,-1.376c0,-0.416 -0.152,-0.784 -0.424,-1.024c-0.336,-0.304 -0.816,-0.44 -1.56,-0.44c-0.48,0 -0.984,0.04 -1.336,0.112l0,5.32Zm0.696,-4.832c0.112,-0.032 0.352,-0.064 0.688,-0.064c0.736,0.008 1.24,0.312 1.24,1.008c0,0.616 -0.472,1.024 -1.216,1.024l-0.712,0l0,-1.968Z"
                  style="fill-rule:nonzero;stroke:#000;stroke-width:0.6px;"/>
            <rect x="36.598"
                  y="57.75"
                  width="0.696"
                  height="5.392"
                  style="fill-rule:nonzero;stroke:#000;stroke-width:0.6px;"/>
        </g>
        <g id="Description7"
           serif:id="Description"
           transform="matrix(1,0,0,1,141.304,195.613)">
            <path d="M32.198,63.142l0.68,0l-0.336,-5.392l-0.888,0l-0.96,2.608c-0.24,0.68 -0.432,1.272 -0.568,1.816l-0.024,0c-0.136,-0.56 -0.32,-1.152 -0.544,-1.816l-0.92,-2.608l-0.888,0l-0.376,5.392l0.664,0l0.144,-2.312c0.048,-0.808 0.088,-1.712 0.104,-2.384l0.016,0c0.152,0.64 0.368,1.336 0.624,2.096l0.872,2.568l0.528,0l0.952,-2.616c0.272,-0.744 0.496,-1.416 0.68,-2.048l0.024,0c-0.008,0.672 0.04,1.576 0.08,2.328l0.136,2.368Z"
                  style="fill-rule:nonzero;stroke:#000;stroke-width:0.6px;"/>
            <rect x="34.35"
                  y="57.75"
                  width="0.696"
                  height="5.392"
                  style="fill-rule:nonzero;stroke:#000;stroke-width:0.6px;"/>
            <path d="M40.422,63.142l-1.68,-2.768l1.64,-2.624l-0.8,0l-0.736,1.264c-0.2,0.344 -0.336,0.592 -0.488,0.912l-0.024,0c-0.144,-0.288 -0.296,-0.56 -0.496,-0.912l-0.712,-1.264l-0.808,0l1.584,2.664l-1.648,2.728l0.8,0l0.648,-1.184c0.28,-0.472 0.432,-0.76 0.584,-1.072l0.016,0c0.168,0.312 0.344,0.608 0.624,1.064l0.688,1.192l0.808,0Z"
                  style="fill-rule:nonzero;stroke:#000;stroke-width:0.6px;"/>
        </g>
        <g id="Description8"
           serif:id="Description"
           transform="matrix(1,0,0,1,43.1853,41.537)">
            <path d="M29.47,63.142l1.928,-5.392l-0.744,0l-0.912,2.664c-0.24,0.704 -0.464,1.384 -0.616,2.008l-0.016,0c-0.144,-0.632 -0.344,-1.288 -0.576,-2.016l-0.84,-2.656l-0.752,0l1.76,5.392l0.768,0Z"
                  style="fill-rule:nonzero;stroke:#000;stroke-width:0.6px;"/>
            <path d="M32.302,63.462l2.24,-5.8l-0.544,0l-2.232,5.8l0.536,0Z"
                  style="fill-rule:nonzero;stroke:#000;stroke-width:0.6px;"/>
            <path d="M37.71,57.662c-1.44,0 -2.504,1.12 -2.504,2.832c0,1.632 1,2.736 2.424,2.736c1.376,0 2.504,-0.984 2.504,-2.84c0,-1.6 -0.952,-2.728 -2.424,-2.728Zm-0.032,0.568c1.16,0 1.72,1.12 1.72,2.192c0,1.224 -0.624,2.24 -1.728,2.24c-1.096,0 -1.72,-1.032 -1.72,-2.184c0,-1.184 0.576,-2.248 1.728,-2.248Z"
                  style="fill-rule:nonzero;stroke:#000;stroke-width:0.6px;"/>
            <path d="M45.062,62.414c-0.28,0.136 -0.712,0.224 -1.136,0.224c-1.312,0 -2.072,-0.848 -2.072,-2.168c0,-1.416 0.84,-2.224 2.104,-2.224c0.448,0 0.824,0.096 1.088,0.224l0.168,-0.568c-0.184,-0.096 -0.608,-0.24 -1.28,-0.24c-1.672,0 -2.816,1.144 -2.816,2.832c0,1.768 1.144,2.728 2.664,2.728c0.656,0 1.168,-0.128 1.424,-0.256l-0.144,-0.552Z"
                  style="fill-rule:nonzero;stroke:#000;stroke-width:0.6px;"/>
            <path d="M47.726,63.142l0.704,0l0,-4.8l1.648,0l0,-0.592l-3.992,0l0,0.592l1.64,0l0,4.8Z"
                  style="fill-rule:nonzero;stroke:#000;stroke-width:0.6px;"/>
        </g>
        <g id="Description9"
           serif:id="Description"
           transform="matrix(1,0,0,1,112.672,74.2817)">
            <path d="M31.142,62.414c-0.28,0.136 -0.712,0.224 -1.136,0.224c-1.312,0 -2.072,-0.848 -2.072,-2.168c0,-1.416 0.84,-2.224 2.104,-2.224c0.448,0 0.824,0.096 1.088,0.224l0.168,-0.568c-0.184,-0.096 -0.608,-0.24 -1.28,-0.24c-1.672,0 -2.816,1.144 -2.816,2.832c0,1.768 1.144,2.728 2.664,2.728c0.656,0 1.168,-0.128 1.424,-0.256l-0.144,-0.552Z"
                  style="fill-rule:nonzero;stroke:#000;stroke-width:0.6px;"/>
            <path d="M34.574,57.662c-1.44,0 -2.504,1.12 -2.504,2.832c0,1.632 1,2.736 2.424,2.736c1.376,0 2.504,-0.984 2.504,-2.84c0,-1.6 -0.952,-2.728 -2.424,-2.728Zm-0.032,0.568c1.16,0 1.72,1.12 1.72,2.192c0,1.224 -0.624,2.24 -1.728,2.24c-1.096,0 -1.72,-1.032 -1.72,-2.184c0,-1.184 0.576,-2.248 1.728,-2.248Z"
                  style="fill-rule:nonzero;stroke:#000;stroke-width:0.6px;"/>
            <path d="M40.974,61.446l0.576,1.696l0.744,0l-1.84,-5.392l-0.84,0l-1.832,5.392l0.72,0l0.56,-1.696l1.912,0Zm-1.768,-0.544l0.528,-1.56c0.104,-0.328 0.192,-0.656 0.272,-0.976l0.016,0c0.08,0.312 0.16,0.632 0.28,0.984l0.528,1.552l-1.624,0Z"
                  style="fill-rule:nonzero;stroke:#000;stroke-width:0.6px;"/>
            <path d="M43.486,63.142l0.696,0l0,-2.336l0.656,0c0.632,0.024 0.92,0.304 1.08,1.048c0.152,0.672 0.272,1.136 0.36,1.288l0.72,0c-0.112,-0.208 -0.24,-0.728 -0.416,-1.48c-0.128,-0.56 -0.376,-0.944 -0.792,-1.088l0,-0.024c0.568,-0.192 1.016,-0.664 1.016,-1.376c0,-0.416 -0.152,-0.784 -0.424,-1.024c-0.336,-0.304 -0.816,-0.44 -1.56,-0.44c-0.48,0 -0.984,0.04 -1.336,0.112l0,5.32Zm0.696,-4.832c0.112,-0.032 0.352,-0.064 0.688,-0.064c0.736,0.008 1.24,0.312 1.24,1.008c0,0.616 -0.472,1.024 -1.216,1.024l-0.712,0l0,-1.968Z"
                  style="fill-rule:nonzero;stroke:#000;stroke-width:0.6px;"/>
            <path d="M47.918,62.878c0.288,0.192 0.856,0.344 1.376,0.344c1.272,0 1.888,-0.72 1.888,-1.552c0,-0.792 -0.464,-1.232 -1.376,-1.584c-0.744,-0.288 -1.072,-0.536 -1.072,-1.04c0,-0.368 0.28,-0.808 1.016,-0.808c0.488,0 0.848,0.16 1.024,0.256l0.192,-0.568c-0.24,-0.136 -0.64,-0.264 -1.192,-0.264c-1.048,0 -1.744,0.624 -1.744,1.464c0,0.76 0.544,1.216 1.424,1.528c0.728,0.28 1.016,0.568 1.016,1.072c0,0.544 -0.416,0.92 -1.128,0.92c-0.48,0 -0.936,-0.16 -1.248,-0.352l-0.176,0.584Z"
                  style="fill-rule:nonzero;stroke:#000;stroke-width:0.6px;"/>
            <path d="M55.326,60.038l-2.096,0l0,-1.704l2.216,0l0,-0.584l-2.912,0l0,5.392l3.032,0l0,-0.584l-2.336,0l0,-1.944l2.096,0l0,-0.576Z"
                  style="fill-rule:nonzero;stroke:#000;stroke-width:0.6px;"/>
        </g>
        <g id="Description10"
           serif:id="Description"
           transform="matrix(1,0,0,1,113.212,167.613)">
            <path d="M29.702,57.662c-1.44,0 -2.504,1.12 -2.504,2.832c0,1.632 1,2.736 2.424,2.736c1.376,0 2.504,-0.984 2.504,-2.84c0,-1.6 -0.952,-2.728 -2.424,-2.728Zm-0.032,0.568c1.16,0 1.72,1.12 1.72,2.192c0,1.224 -0.624,2.24 -1.728,2.24c-1.096,0 -1.72,-1.032 -1.72,-2.184c0,-1.184 0.576,-2.248 1.728,-2.248Z"
                  style="fill-rule:nonzero;stroke:#000;stroke-width:0.6px;"/>
            <path d="M37.054,62.414c-0.28,0.136 -0.712,0.224 -1.136,0.224c-1.312,0 -2.072,-0.848 -2.072,-2.168c0,-1.416 0.84,-2.224 2.104,-2.224c0.448,0 0.824,0.096 1.088,0.224l0.168,-0.568c-0.184,-0.096 -0.608,-0.24 -1.28,-0.24c-1.672,0 -2.816,1.144 -2.816,2.832c0,1.768 1.144,2.728 2.664,2.728c0.656,0 1.168,-0.128 1.424,-0.256l-0.144,-0.552Z"
                  style="fill-rule:nonzero;stroke:#000;stroke-width:0.6px;"/>
            <path d="M39.718,63.142l0.704,0l0,-4.8l1.648,0l0,-0.592l-3.992,0l0,0.592l1.64,0l0,4.8Z"
                  style="fill-rule:nonzero;stroke:#000;stroke-width:0.6px;"/>
            <path d="M45.254,61.446l0.576,1.696l0.744,0l-1.84,-5.392l-0.84,0l-1.832,5.392l0.72,0l0.56,-1.696l1.912,0Zm-1.768,-0.544l0.528,-1.56c0.104,-0.328 0.192,-0.656 0.272,-0.976l0.016,0c0.08,0.312 0.16,0.632 0.28,0.984l0.528,1.552l-1.624,0Z"
                  style="fill-rule:nonzero;stroke:#000;stroke-width:0.6px;"/>
            <path d="M49.294,63.142l1.928,-5.392l-0.744,0l-0.912,2.664c-0.24,0.704 -0.464,1.384 -0.616,2.008l-0.016,0c-0.144,-0.632 -0.344,-1.288 -0.576,-2.016l-0.84,-2.656l-0.752,0l1.76,5.392l0.768,0Z"
                  style="fill-rule:nonzero;stroke:#000;stroke-width:0.6px;"/>
            <path d="M54.998,60.038l-2.096,0l0,-1.704l2.216,0l0,-0.584l-2.912,0l0,5.392l3.032,0l0,-0.584l-2.336,0l0,-1.944l2.096,0l0,-0.576Z"
                  style="fill-rule:nonzero;stroke:#000;stroke-width:0.6px;"/>
        </g>
    </g>
    <g id="Scales" transform="matrix(1,0,0,1,-7.09928,0.0685295)">
        <g id="Scale-Toggle" serif:id="Scale Toggle" transform="matrix(1,0,0,1,71.074,-115.663)">
            <g id="Big_3_" transform="matrix(1.05769,0,0,1.05769,-5.19231,-17.4538)">
                <path d="M90,309.824l0,-27.882" style="fill:none;stroke:#000;stroke-width:1.5px;stroke-linejoin:miter;stroke-miterlimit:10;"/>
                <path d="M116,307.942l-52,0" style="fill:none;stroke:#000;stroke-width:1.5px;stroke-linejoin:miter;stroke-miterlimit:10;"/>
                <g transform="matrix(1.21411,0,0,1.15848,-24.0915,-46.7424)">
                    <path d="M74.482,316.901l38.035,-21.959" style="fill:none;stroke:#000;stroke-width:1.5px;stroke-linejoin:miter;stroke-miterlimit:10;"/>
                </g>
                <g transform="matrix(1.16624,0,0,1.16298,-17.123,-46.5176)">
                    <path d="M81.333,322.953l21.667,-37.527" style="fill:none;stroke:#000;stroke-width:1.5px;stroke-linejoin:miter;stroke-miterlimit:10;"/>
                </g>
                <path d="M105.118,316.67l-37.635,-21.728" style="fill:none;stroke:#000;stroke-width:1.5px;stroke-linejoin:miter;stroke-miterlimit:10;"/>
                <g transform="matrix(1.16098,0,0,1.14726,-12.3951,-42.0315)">
                    <path d="M98.765,323.123l-21.765,-37.697" style="fill:none;stroke:#000;stroke-width:1.5px;stroke-linejoin:miter;stroke-miterlimit:10;"/>
                </g>
            </g>
            <g id="OuterCircle_5_" transform="matrix(0.95,0,0,0.95,4.4995,15.3303)">
                <path d="M80.647,325.45c-6.339,-3.354 -10.657,-10.016 -10.657,-17.687c0,-11.045 8.955,-19.999 20,-19.999c11.046,0 20,8.954 20,19.999c0,7.612 -4.253,14.231 -10.514,17.609" style="fill:none;stroke:#f9f9f9;stroke-width:4.74px;stroke-linejoin:miter;stroke-miterlimit:10;"/>
            </g>
            <g id="Label">
                <g id="Description11" serif:id="Description" transform="matrix(1,0,0,1,61.1157,213.848)">
                    <path d="M28.271,63.142l0,-4.141l-1.016,0.353l-0.303,-1.058l1.899,-0.748l0.781,0l0,5.594l-1.361,0Z" style="fill-rule:nonzero;"/>
                    <path d="M31.32,59.69l-0.134,-2.142l1.344,0l-0.135,2.142l-1.075,0Z" style="fill-rule:nonzero;"/>
                </g>
                <g id="Description12" serif:id="Description" transform="matrix(1,0,0,1,78.0493,220.243)">
                    <path d="M28.271,63.142l0,-4.141l-1.016,0.353l-0.303,-1.058l1.899,-0.748l0.781,0l0,5.594l-1.361,0Z" style="fill-rule:nonzero;"/>
                    <path d="M33.042,57.145l1.185,0.403l-2.117,6.434l-1.176,-0.445l2.108,-6.392Z" style="fill-rule:nonzero;"/>
                    <path d="M35.361,57.892c0.487,-0.296 1.013,-0.445 1.579,-0.445c0.257,0 0.498,0.038 0.722,0.114c0.224,0.075 0.419,0.184 0.584,0.327c0.165,0.143 0.295,0.321 0.391,0.534c0.095,0.212 0.142,0.453 0.142,0.722c0,0.218 -0.028,0.423 -0.084,0.613c-0.056,0.191 -0.133,0.371 -0.231,0.542c-0.098,0.171 -0.211,0.333 -0.34,0.487c-0.129,0.154 -0.263,0.304 -0.403,0.45c-0.151,0.156 -0.307,0.306 -0.466,0.449c-0.16,0.143 -0.304,0.27 -0.433,0.382l1.991,0l0,1.075l-3.562,0l-0.201,-0.772c0.151,-0.157 0.285,-0.296 0.403,-0.416c0.118,-0.121 0.228,-0.234 0.332,-0.34c0.103,-0.107 0.203,-0.21 0.298,-0.311c0.095,-0.101 0.196,-0.21 0.302,-0.328c0.118,-0.129 0.238,-0.262 0.362,-0.399c0.123,-0.137 0.233,-0.278 0.331,-0.424c0.098,-0.146 0.18,-0.291 0.244,-0.437c0.064,-0.145 0.097,-0.291 0.097,-0.437c0,-0.224 -0.068,-0.403 -0.202,-0.537c-0.134,-0.135 -0.322,-0.202 -0.563,-0.202c-0.173,0 -0.336,0.025 -0.487,0.076c-0.151,0.05 -0.308,0.123 -0.47,0.218l-0.336,-0.941Z" style="fill-rule:nonzero;"/>
                    <path d="M40.291,59.69l-0.134,-2.142l1.344,0l-0.134,2.142l-1.076,0Z" style="fill-rule:nonzero;"/>
                </g>
                <g id="Description13" serif:id="Description" transform="matrix(1,0,0,1,88.3282,231.835)">
                    <path d="M28.271,63.142l0,-4.141l-1.016,0.353l-0.303,-1.058l1.899,-0.748l0.781,0l0,5.594l-1.361,0Z" style="fill-rule:nonzero;"/>
                    <path d="M33.042,57.145l1.185,0.403l-2.117,6.434l-1.176,-0.445l2.108,-6.392Z" style="fill-rule:nonzero;"/>
                    <path d="M38.611,61.807l0,1.335l-1.31,0l0,-1.335l-2.184,0l-0.185,-0.983l2.075,-3.276l1.604,0l0,3.234l0.74,0l0,1.025l-0.74,0Zm-1.31,-3.1l-1.168,2.075l1.168,0l0,-2.075Z" style="fill-rule:nonzero;"/>
                    <path d="M40.636,59.69l-0.135,-2.142l1.344,0l-0.134,2.142l-1.075,0Z" style="fill-rule:nonzero;"/>
                </g>
                <g id="Description14" serif:id="Description" transform="matrix(1,0,0,1,92.0594,246.835)">
                    <path d="M28.271,63.142l0,-4.141l-1.016,0.353l-0.303,-1.058l1.899,-0.748l0.781,0l0,5.594l-1.361,0Z" style="fill-rule:nonzero;"/>
                    <path d="M33.042,57.145l1.185,0.403l-2.117,6.434l-1.176,-0.445l2.108,-6.392Z" style="fill-rule:nonzero;"/>
                    <path d="M37.209,57.447c0.263,0 0.505,0.032 0.726,0.097c0.221,0.064 0.41,0.155 0.567,0.273c0.157,0.117 0.279,0.262 0.366,0.432c0.086,0.171 0.13,0.366 0.13,0.584c0,0.146 -0.027,0.283 -0.08,0.412c-0.053,0.129 -0.122,0.248 -0.206,0.357c-0.084,0.109 -0.18,0.211 -0.29,0.306c-0.109,0.096 -0.222,0.185 -0.34,0.269c0.135,0.09 0.266,0.186 0.395,0.29c0.129,0.104 0.244,0.217 0.344,0.34c0.101,0.123 0.181,0.259 0.24,0.408c0.059,0.148 0.088,0.315 0.088,0.499c0,0.213 -0.05,0.413 -0.151,0.601c-0.101,0.188 -0.238,0.35 -0.412,0.487c-0.173,0.137 -0.378,0.245 -0.613,0.324c-0.235,0.078 -0.49,0.117 -0.764,0.117c-0.611,0 -1.087,-0.137 -1.428,-0.411c-0.342,-0.275 -0.513,-0.642 -0.513,-1.101c0,-0.168 0.031,-0.322 0.093,-0.462c0.061,-0.14 0.141,-0.27 0.239,-0.39c0.098,-0.121 0.21,-0.231 0.336,-0.332c0.126,-0.101 0.256,-0.199 0.391,-0.294c-0.135,-0.095 -0.257,-0.192 -0.366,-0.29c-0.109,-0.098 -0.204,-0.2 -0.285,-0.307c-0.082,-0.106 -0.145,-0.221 -0.189,-0.344c-0.045,-0.123 -0.068,-0.258 -0.068,-0.403c0,-0.213 0.042,-0.409 0.126,-0.588c0.084,-0.179 0.203,-0.333 0.357,-0.462c0.154,-0.129 0.342,-0.23 0.563,-0.303c0.221,-0.072 0.469,-0.109 0.744,-0.109Zm0.68,4.259c0,-0.084 -0.013,-0.16 -0.038,-0.227c-0.025,-0.067 -0.067,-0.133 -0.126,-0.197c-0.059,-0.065 -0.134,-0.132 -0.227,-0.202c-0.092,-0.07 -0.205,-0.152 -0.34,-0.248c-0.196,0.146 -0.35,0.28 -0.462,0.404c-0.112,0.123 -0.168,0.28 -0.168,0.47c0,0.185 0.06,0.328 0.181,0.428c0.12,0.101 0.287,0.152 0.5,0.152c0.201,0 0.365,-0.056 0.491,-0.168c0.126,-0.112 0.189,-0.25 0.189,-0.412Zm-1.235,-2.822c0,0.061 0.007,0.119 0.021,0.172c0.014,0.053 0.042,0.108 0.084,0.164c0.042,0.056 0.1,0.114 0.172,0.176c0.073,0.062 0.168,0.134 0.286,0.218c0.162,-0.117 0.294,-0.233 0.395,-0.348c0.101,-0.115 0.151,-0.242 0.151,-0.382c0,-0.163 -0.053,-0.285 -0.16,-0.366c-0.106,-0.081 -0.238,-0.122 -0.394,-0.122c-0.163,0 -0.296,0.045 -0.399,0.135c-0.104,0.089 -0.156,0.207 -0.156,0.353Z" style="fill-rule:nonzero;"/>
                    <path d="M40.619,59.69l-0.134,-2.142l1.344,0l-0.135,2.142l-1.075,0Z" style="fill-rule:nonzero;"/>
                </g>
                <g id="Description15" serif:id="Description" transform="matrix(1,0,0,1,43.2106,220.131)">
                    <path d="M27.372,57.892c0.487,-0.296 1.014,-0.445 1.579,-0.445c0.258,0 0.499,0.038 0.723,0.114c0.224,0.075 0.418,0.184 0.584,0.327c0.165,0.143 0.295,0.321 0.39,0.534c0.095,0.212 0.143,0.453 0.143,0.722c0,0.218 -0.028,0.423 -0.084,0.613c-0.056,0.191 -0.133,0.371 -0.231,0.542c-0.098,0.171 -0.211,0.333 -0.34,0.487c-0.129,0.154 -0.263,0.304 -0.403,0.45c-0.152,0.156 -0.307,0.306 -0.467,0.449c-0.159,0.143 -0.303,0.27 -0.432,0.382l1.991,0l0,1.075l-3.562,0l-0.202,-0.772c0.152,-0.157 0.286,-0.296 0.404,-0.416c0.117,-0.121 0.228,-0.234 0.331,-0.34c0.104,-0.107 0.203,-0.21 0.299,-0.311c0.095,-0.101 0.196,-0.21 0.302,-0.328c0.118,-0.129 0.238,-0.262 0.361,-0.399c0.123,-0.137 0.234,-0.278 0.332,-0.424c0.098,-0.146 0.179,-0.291 0.244,-0.437c0.064,-0.145 0.096,-0.291 0.096,-0.437c0,-0.224 -0.067,-0.403 -0.201,-0.537c-0.135,-0.135 -0.322,-0.202 -0.563,-0.202c-0.174,0 -0.336,0.025 -0.487,0.076c-0.152,0.05 -0.308,0.123 -0.471,0.218l-0.336,-0.941Z" style="fill-rule:nonzero;"/>
                    <path d="M32.303,59.69l-0.134,-2.142l1.344,0l-0.135,2.142l-1.075,0Z" style="fill-rule:nonzero;"/>
                </g>
                <g id="Description16" serif:id="Description" transform="matrix(1,0,0,1,32.2106,232.131)">
                    <path d="M30.791,61.807l0,1.335l-1.31,0l0,-1.335l-2.184,0l-0.185,-0.983l2.075,-3.276l1.604,0l0,3.234l0.739,0l0,1.025l-0.739,0Zm-1.31,-3.1l-1.168,2.075l1.168,0l0,-2.075Z" style="fill-rule:nonzero;"/>
                    <path d="M32.815,59.69l-0.134,-2.142l1.344,0l-0.134,2.142l-1.076,0Z" style="fill-rule:nonzero;"/>
                </g>
                <g id="Description17" serif:id="Description" transform="matrix(1,0,0,1,28.2106,247.131)">
                    <path d="M29.22,57.447c0.263,0 0.506,0.032 0.727,0.097c0.221,0.064 0.41,0.155 0.567,0.273c0.157,0.117 0.278,0.262 0.365,0.432c0.087,0.171 0.13,0.366 0.13,0.584c0,0.146 -0.026,0.283 -0.079,0.412c-0.054,0.129 -0.122,0.248 -0.206,0.357c-0.084,0.109 -0.181,0.211 -0.29,0.306c-0.109,0.096 -0.223,0.185 -0.34,0.269c0.134,0.09 0.266,0.186 0.395,0.29c0.128,0.104 0.243,0.217 0.344,0.34c0.101,0.123 0.181,0.259 0.239,0.408c0.059,0.148 0.089,0.315 0.089,0.499c0,0.213 -0.051,0.413 -0.152,0.601c-0.1,0.188 -0.238,0.35 -0.411,0.487c-0.174,0.137 -0.378,0.245 -0.613,0.324c-0.236,0.078 -0.49,0.117 -0.765,0.117c-0.61,0 -1.086,-0.137 -1.428,-0.411c-0.341,-0.275 -0.512,-0.642 -0.512,-1.101c0,-0.168 0.031,-0.322 0.092,-0.462c0.062,-0.14 0.142,-0.27 0.24,-0.39c0.098,-0.121 0.21,-0.231 0.336,-0.332c0.126,-0.101 0.256,-0.199 0.39,-0.294c-0.134,-0.095 -0.256,-0.192 -0.365,-0.29c-0.109,-0.098 -0.205,-0.2 -0.286,-0.307c-0.081,-0.106 -0.144,-0.221 -0.189,-0.344c-0.045,-0.123 -0.067,-0.258 -0.067,-0.403c0,-0.213 0.042,-0.409 0.126,-0.588c0.084,-0.179 0.203,-0.333 0.357,-0.462c0.154,-0.129 0.342,-0.23 0.563,-0.303c0.221,-0.072 0.469,-0.109 0.743,-0.109Zm0.681,4.259c0,-0.084 -0.013,-0.16 -0.038,-0.227c-0.025,-0.067 -0.067,-0.133 -0.126,-0.197c-0.059,-0.065 -0.135,-0.132 -0.227,-0.202c-0.092,-0.07 -0.206,-0.152 -0.34,-0.248c-0.196,0.146 -0.35,0.28 -0.462,0.404c-0.112,0.123 -0.168,0.28 -0.168,0.47c0,0.185 0.06,0.328 0.18,0.428c0.121,0.101 0.287,0.152 0.5,0.152c0.202,0 0.366,-0.056 0.492,-0.168c0.126,-0.112 0.189,-0.25 0.189,-0.412Zm-1.235,-2.822c0,0.061 0.007,0.119 0.021,0.172c0.014,0.053 0.042,0.108 0.084,0.164c0.042,0.056 0.099,0.114 0.172,0.176c0.073,0.062 0.168,0.134 0.286,0.218c0.162,-0.117 0.294,-0.233 0.394,-0.348c0.101,-0.115 0.152,-0.242 0.152,-0.382c0,-0.163 -0.054,-0.285 -0.16,-0.366c-0.106,-0.081 -0.238,-0.122 -0.395,-0.122c-0.162,0 -0.295,0.045 -0.399,0.135c-0.103,0.089 -0.155,0.207 -0.155,0.353Z" style="fill-rule:nonzero;"/>
                    <path d="M32.631,59.69l-0.135,-2.142l1.344,0l-0.134,2.142l-1.075,0Z" style="fill-rule:nonzero;"/>
                </g>
                <g id="Description18" serif:id="Description" transform="matrix(1,0,0,1,17.2106,262.131)">
                    <path d="M28.834,57.548l0,4.502l2.058,0l0,1.092l-3.436,0l0,-5.594l1.378,0Z" style="fill:#8b2f2f;fill-rule:nonzero;"/>
                    <path d="M37.377,60.345c0,0.398 -0.065,0.772 -0.194,1.122c-0.128,0.35 -0.315,0.656 -0.558,0.919c-0.244,0.264 -0.542,0.472 -0.895,0.626c-0.353,0.154 -0.756,0.231 -1.209,0.231c-0.454,0 -0.859,-0.077 -1.214,-0.231c-0.356,-0.154 -0.655,-0.362 -0.899,-0.626c-0.244,-0.263 -0.428,-0.569 -0.554,-0.919c-0.126,-0.35 -0.189,-0.724 -0.189,-1.122c0,-0.397 0.063,-0.771 0.189,-1.121c0.126,-0.35 0.31,-0.657 0.554,-0.92c0.244,-0.263 0.543,-0.472 0.899,-0.626c0.355,-0.154 0.76,-0.231 1.214,-0.231c0.453,0 0.856,0.077 1.209,0.231c0.353,0.154 0.651,0.363 0.895,0.626c0.243,0.263 0.43,0.57 0.558,0.92c0.129,0.35 0.194,0.724 0.194,1.121Zm-2.856,1.806c0.24,0 0.453,-0.045 0.638,-0.134c0.185,-0.09 0.34,-0.214 0.466,-0.374c0.126,-0.16 0.22,-0.35 0.282,-0.571c0.061,-0.221 0.092,-0.464 0.092,-0.727c0,-0.263 -0.031,-0.505 -0.092,-0.726c-0.062,-0.222 -0.156,-0.412 -0.282,-0.572c-0.126,-0.159 -0.281,-0.284 -0.466,-0.373c-0.185,-0.09 -0.398,-0.135 -0.638,-0.135c-0.247,0 -0.461,0.045 -0.643,0.135c-0.182,0.089 -0.336,0.214 -0.462,0.373c-0.126,0.16 -0.22,0.35 -0.281,0.572c-0.062,0.221 -0.093,0.463 -0.093,0.726c0,0.263 0.031,0.506 0.093,0.727c0.061,0.221 0.155,0.411 0.281,0.571c0.126,0.16 0.28,0.284 0.462,0.374c0.182,0.089 0.396,0.134 0.643,0.134Z" style="fill:#8b2f2f;fill-rule:nonzero;"/>
                    <path d="M44.021,61.429l0.865,-3.881l1.411,0l-1.545,5.594l-1.403,0l-1.134,-4.2l-1.134,4.2l-1.403,0l-1.545,-5.594l1.411,0l0.865,3.881l1.042,-3.881l1.528,0l1.042,3.881Z" style="fill:#8b2f2f;fill-rule:nonzero;"/>
                </g>
            </g>
        </g>
        <g id="ScaleSmall" transform="matrix(0.720434,0,0,0.720434,-5.09482,68.78)">
            <g id="Big_1_" transform="matrix(0.410551,0,0,0.410551,76.6225,53.479)">
                <path d="M129.99,118.265l0,-60.683" style="fill:none;stroke:#000;stroke-width:1.5px;stroke-linejoin:miter;stroke-miterlimit:10;"/>
                <path d="M165.49,93.105l-71,0" style="fill:none;stroke:#000;stroke-width:1.5px;stroke-linejoin:miter;stroke-miterlimit:10;"/>
                <path d="M99.247,110.867l61.488,-35.523" style="fill:none;stroke:#000;stroke-width:1.5px;stroke-linejoin:miter;stroke-miterlimit:10;"/>
                <path d="M112.24,123.872l35.5,-61.53" style="fill:none;stroke:#000;stroke-width:1.5px;stroke-linejoin:miter;stroke-miterlimit:10;"/>
                <path d="M160.735,110.867l-61.488,-35.523" style="fill:none;stroke:#000;stroke-width:1.5px;stroke-linejoin:miter;stroke-miterlimit:10;"/>
                <path d="M147.74,123.872l-35.5,-61.53" style="fill:none;stroke:#000;stroke-width:1.5px;stroke-linejoin:miter;stroke-miterlimit:10;"/>
            </g>
            <g id="InnerCircle_1_" transform="matrix(0.745435,0,0,0.745435,33.1524,21.6828)">
                <path d="M117.435,116.771c-8.587,-4.523 -14.444,-13.541 -14.444,-23.928c0,-14.922 12.089,-27.018 27,-27.018c14.91,0 27,12.096 27,27.018c0,10.35 -5.814,19.338 -14.349,23.876" style="fill:#f9f9f9;stroke:#000;stroke-width:2.08px;stroke-linejoin:miter;stroke-miterlimit:10;"/>
            </g>
        </g>
        <g id="ScaleSmall1" serif:id="ScaleSmall" transform="matrix(0.720434,0,0,0.720434,-5.09482,122.08)">
            <g id="Big_1_1" serif:id="Big_1_" transform="matrix(0.410551,0,0,0.410551,76.6225,53.479)">
                <path d="M129.99,118.265l0,-60.683" style="fill:none;stroke:#000;stroke-width:1.5px;stroke-linejoin:miter;stroke-miterlimit:10;"/>
                <path d="M165.49,93.105l-71,0" style="fill:none;stroke:#000;stroke-width:1.5px;stroke-linejoin:miter;stroke-miterlimit:10;"/>
                <path d="M99.247,110.867l61.488,-35.523" style="fill:none;stroke:#000;stroke-width:1.5px;stroke-linejoin:miter;stroke-miterlimit:10;"/>
                <path d="M112.24,123.872l35.5,-61.53" style="fill:none;stroke:#000;stroke-width:1.5px;stroke-linejoin:miter;stroke-miterlimit:10;"/>
                <path d="M160.735,110.867l-61.488,-35.523" style="fill:none;stroke:#000;stroke-width:1.5px;stroke-linejoin:miter;stroke-miterlimit:10;"/>
                <path d="M147.74,123.872l-35.5,-61.53" style="fill:none;stroke:#000;stroke-width:1.5px;stroke-linejoin:miter;stroke-miterlimit:10;"/>
            </g>
            <g id="InnerCircle_1_1" serif:id="InnerCircle_1_" transform="matrix(0.745435,0,0,0.745435,33.1524,21.6828)">
                <path d="M117.435,116.771c-8.587,-4.523 -14.444,-13.541 -14.444,-23.928c0,-14.922 12.089,-27.018 27,-27.018c14.91,0 27,12.096 27,27.018c0,10.35 -5.814,19.338 -14.349,23.876" style="fill:#f9f9f9;stroke:#000;stroke-width:2.08px;stroke-linejoin:miter;stroke-miterlimit:10;"/>
            </g>
        </g>
        <g id="ScaleSmall2" serif:id="ScaleSmall" transform="matrix(0.720434,0,0,0.720434,18.4052,217.18)">
            <g id="Big_1_2" serif:id="Big_1_" transform="matrix(0.410551,0,0,0.410551,76.6225,53.479)">
                <path d="M129.99,118.265l0,-60.683" style="fill:none;stroke:#000;stroke-width:1.5px;stroke-linejoin:miter;stroke-miterlimit:10;"/>
                <path d="M165.49,93.105l-71,0" style="fill:none;stroke:#000;stroke-width:1.5px;stroke-linejoin:miter;stroke-miterlimit:10;"/>
                <path d="M99.247,110.867l61.488,-35.523" style="fill:none;stroke:#000;stroke-width:1.5px;stroke-linejoin:miter;stroke-miterlimit:10;"/>
                <path d="M112.24,123.872l35.5,-61.53" style="fill:none;stroke:#000;stroke-width:1.5px;stroke-linejoin:miter;stroke-miterlimit:10;"/>
                <path d="M160.735,110.867l-61.488,-35.523" style="fill:none;stroke:#000;stroke-width:1.5px;stroke-linejoin:miter;stroke-miterlimit:10;"/>
                <path d="M147.74,123.872l-35.5,-61.53" style="fill:none;stroke:#000;stroke-width:1.5px;stroke-linejoin:miter;stroke-miterlimit:10;"/>
            </g>
            <g id="InnerCircle_1_2" serif:id="InnerCircle_1_" transform="matrix(0.745435,0,0,0.745435,33.1524,21.6828)">
                <path d="M117.435,116.771c-8.587,-4.523 -14.444,-13.541 -14.444,-23.928c0,-14.922 12.089,-27.018 27,-27.018c14.91,0 27,12.096 27,27.018c0,10.35 -5.814,19.338 -14.349,23.876" style="fill:#f9f9f9;stroke:#000;stroke-width:2.08px;stroke-linejoin:miter;stroke-miterlimit:10;"/>
            </g>
        </g>
        <g id="ScaleSmall3" serif:id="ScaleSmall" transform="matrix(0.720434,0,0,0.720434,53.7052,217.18)">
            <g id="Big_1_3" serif:id="Big_1_" transform="matrix(0.410551,0,0,0.410551,76.6225,53.479)">
                <path d="M129.99,118.265l0,-60.683" style="fill:none;stroke:#000;stroke-width:1.5px;stroke-linejoin:miter;stroke-miterlimit:10;"/>
                <path d="M165.49,93.105l-71,0" style="fill:none;stroke:#000;stroke-width:1.5px;stroke-linejoin:miter;stroke-miterlimit:10;"/>
                <path d="M99.247,110.867l61.488,-35.523" style="fill:none;stroke:#000;stroke-width:1.5px;stroke-linejoin:miter;stroke-miterlimit:10;"/>
                <path d="M112.24,123.872l35.5,-61.53" style="fill:none;stroke:#000;stroke-width:1.5px;stroke-linejoin:miter;stroke-miterlimit:10;"/>
                <path d="M160.735,110.867l-61.488,-35.523" style="fill:none;stroke:#000;stroke-width:1.5px;stroke-linejoin:miter;stroke-miterlimit:10;"/>
                <path d="M147.74,123.872l-35.5,-61.53" style="fill:none;stroke:#000;stroke-width:1.5px;stroke-linejoin:miter;stroke-miterlimit:10;"/>
            </g>
            <g id="InnerCircle_1_3" serif:id="InnerCircle_1_" transform="matrix(0.745435,0,0,0.745435,33.1524,21.6828)">
                <path d="M117.435,116.771c-8.587,-4.523 -14.444,-13.541 -14.444,-23.928c0,-14.922 12.089,-27.018 27,-27.018c14.91,0 27,12.096 27,27.018c0,10.35 -5.814,19.338 -14.349,23.876" style="fill:#f9f9f9;stroke:#000;stroke-width:2.08px;stroke-linejoin:miter;stroke-miterlimit:10;"/>
            </g>
        </g>
        <g id="ScaleSmall4" serif:id="ScaleSmall" transform="matrix(0.720434,0,0,0.720434,-51.5948,217.18)">
            <g id="Big_1_4" serif:id="Big_1_" transform="matrix(0.410551,0,0,0.410551,76.6225,53.479)">
                <path d="M129.99,118.265l0,-60.683" style="fill:none;stroke:#000;stroke-width:1.5px;stroke-linejoin:miter;stroke-miterlimit:10;"/>
                <path d="M165.49,93.105l-71,0" style="fill:none;stroke:#000;stroke-width:1.5px;stroke-linejoin:miter;stroke-miterlimit:10;"/>
                <path d="M99.247,110.867l61.488,-35.523" style="fill:none;stroke:#000;stroke-width:1.5px;stroke-linejoin:miter;stroke-miterlimit:10;"/>
                <path d="M112.24,123.872l35.5,-61.53" style="fill:none;stroke:#000;stroke-width:1.5px;stroke-linejoin:miter;stroke-miterlimit:10;"/>
                <path d="M160.735,110.867l-61.488,-35.523" style="fill:none;stroke:#000;stroke-width:1.5px;stroke-linejoin:miter;stroke-miterlimit:10;"/>
                <path d="M147.74,123.872l-35.5,-61.53" style="fill:none;stroke:#000;stroke-width:1.5px;stroke-linejoin:miter;stroke-miterlimit:10;"/>
            </g>
            <g id="InnerCircle_1_4" serif:id="InnerCircle_1_" transform="matrix(0.745435,0,0,0.745435,33.1524,21.6828)">
                <path d="M117.435,116.771c-8.587,-4.523 -14.444,-13.541 -14.444,-23.928c0,-14.922 12.089,-27.018 27,-27.018c14.91,0 27,12.096 27,27.018c0,10.35 -5.814,19.338 -14.349,23.876" style="fill:#f9f9f9;stroke:#000;stroke-width:2.08px;stroke-linejoin:miter;stroke-miterlimit:10;"/>
            </g>
        </g>
        <g id="ScaleSmall5" serif:id="ScaleSmall" transform="matrix(0.720434,0,0,0.720434,-16.2948,217.18)">
            <g id="Big_1_5" serif:id="Big_1_" transform="matrix(0.410551,0,0,0.410551,76.6225,53.479)">
                <path d="M129.99,118.265l0,-60.683" style="fill:none;stroke:#000;stroke-width:1.5px;stroke-linejoin:miter;stroke-miterlimit:10;"/>
                <path d="M165.49,93.105l-71,0" style="fill:none;stroke:#000;stroke-width:1.5px;stroke-linejoin:miter;stroke-miterlimit:10;"/>
                <path d="M99.247,110.867l61.488,-35.523" style="fill:none;stroke:#000;stroke-width:1.5px;stroke-linejoin:miter;stroke-miterlimit:10;"/>
                <path d="M112.24,123.872l35.5,-61.53" style="fill:none;stroke:#000;stroke-width:1.5px;stroke-linejoin:miter;stroke-miterlimit:10;"/>
                <path d="M160.735,110.867l-61.488,-35.523" style="fill:none;stroke:#000;stroke-width:1.5px;stroke-linejoin:miter;stroke-miterlimit:10;"/>
                <path d="M147.74,123.872l-35.5,-61.53" style="fill:none;stroke:#000;stroke-width:1.5px;stroke-linejoin:miter;stroke-miterlimit:10;"/>
            </g>
            <g id="InnerCircle_1_5" serif:id="InnerCircle_1_" transform="matrix(0.745435,0,0,0.745435,33.1524,21.6828)">
                <path d="M117.435,116.771c-8.587,-4.523 -14.444,-13.541 -14.444,-23.928c0,-14.922 12.089,-27.018 27,-27.018c14.91,0 27,12.096 27,27.018c0,10.35 -5.814,19.338 -14.349,23.876" style="fill:#f9f9f9;stroke:#000;stroke-width:2.08px;stroke-linejoin:miter;stroke-miterlimit:10;"/>
            </g>
        </g>
        <g id="ScaleBig" transform="matrix(0.936565,0,0,0.936565,39.3228,5.35939)">
            <g id="Big_1_6" serif:id="Big_1_">
                <path d="M129.99,118.265l0,-60.683" style="fill:none;stroke:#000;stroke-width:1.5px;stroke-linejoin:miter;stroke-miterlimit:10;"/>
                <path d="M165.49,93.105l-71,0" style="fill:none;stroke:#000;stroke-width:1.5px;stroke-linejoin:miter;stroke-miterlimit:10;"/>
                <path d="M99.247,110.867l61.488,-35.523" style="fill:none;stroke:#000;stroke-width:1.5px;stroke-linejoin:miter;stroke-miterlimit:10;"/>
                <path d="M112.24,123.872l35.5,-61.53" style="fill:none;stroke:#000;stroke-width:1.5px;stroke-linejoin:miter;stroke-miterlimit:10;"/>
                <path d="M160.735,110.867l-61.488,-35.523" style="fill:none;stroke:#000;stroke-width:1.5px;stroke-linejoin:miter;stroke-miterlimit:10;"/>
                <path d="M147.74,123.872l-35.5,-61.53" style="fill:none;stroke:#000;stroke-width:1.5px;stroke-linejoin:miter;stroke-miterlimit:10;"/>
            </g>
            <g id="Small_1_">
                <g id="smallScale_7_">
                    <path d="M132.77,119.705l-6.143,-58.479" style="fill:none;stroke:#f9f9f9;stroke-width:1px;stroke-linejoin:miter;stroke-miterlimit:10;"/>
                    <path d="M161.99,89.881l-64,6.732" style="fill:none;stroke:#f9f9f9;stroke-width:1px;stroke-linejoin:miter;stroke-miterlimit:10;"/>
                    <path d="M103.96,112.172l52.063,-37.851" style="fill:none;stroke:#f9f9f9;stroke-width:1px;stroke-linejoin:miter;stroke-miterlimit:10;"/>
                    <path d="M119.226,117.441l23.851,-53.609" style="fill:none;stroke:#f9f9f9;stroke-width:1px;stroke-linejoin:miter;stroke-miterlimit:10;"/>
                    <path d="M159.385,106.343l-58.788,-26.193" style="fill:none;stroke:#f9f9f9;stroke-width:1px;stroke-linejoin:miter;stroke-miterlimit:10;"/>
                    <path d="M148.902,119.296l-37.823,-52.098" style="fill:none;stroke:#f9f9f9;stroke-width:1px;stroke-linejoin:miter;stroke-miterlimit:10;"/>
                </g>
                <g id="smallScale_6_">
                    <path d="M135.489,119.136l-12.188,-57.383" style="fill:none;stroke:#f9f9f9;stroke-width:1px;stroke-linejoin:miter;stroke-miterlimit:10;"/>
                    <path d="M161.463,86.554l-62.944,13.387" style="fill:none;stroke:#f9f9f9;stroke-width:1px;stroke-linejoin:miter;stroke-miterlimit:10;"/>
                    <path d="M106.079,114.791l47.823,-43.088" style="fill:none;stroke:#f9f9f9;stroke-width:1px;stroke-linejoin:miter;stroke-miterlimit:10;"/>
                    <path d="M121.816,118.42l18.116,-55.795" style="fill:none;stroke:#f9f9f9;stroke-width:1px;stroke-linejoin:miter;stroke-miterlimit:10;"/>
                    <path d="M160.592,103.195l-61.202,-19.897" style="fill:none;stroke:#f9f9f9;stroke-width:1px;stroke-linejoin:miter;stroke-miterlimit:10;"/>
                    <path d="M151.521,117.176l-43.061,-47.859" style="fill:none;stroke:#f9f9f9;stroke-width:1px;stroke-linejoin:miter;stroke-miterlimit:10;"/>
                </g>
                <g id="smallScale_5_">
                    <path d="M138.166,118.427l-18.117,-55.801" style="fill:none;stroke:#f9f9f9;stroke-width:1px;stroke-linejoin:miter;stroke-miterlimit:10;"/>
                    <path d="M160.59,83.298l-61.2,19.898" style="fill:none;stroke:#f9f9f9;stroke-width:1px;stroke-linejoin:miter;stroke-miterlimit:10;"/>
                    <path d="M108.461,117.176l43.06,-47.859" style="fill:none;stroke:#f9f9f9;stroke-width:1px;stroke-linejoin:miter;stroke-miterlimit:10;"/>
                    <path d="M124.491,119.135l12.188,-57.382" style="fill:none;stroke:#f9f9f9;stroke-width:1px;stroke-linejoin:miter;stroke-miterlimit:10;"/>
                    <path d="M161.464,99.94l-62.945,-13.386" style="fill:none;stroke:#f9f9f9;stroke-width:1px;stroke-linejoin:miter;stroke-miterlimit:10;"/>
                    <path d="M153.901,114.791l-47.822,-43.088" style="fill:none;stroke:#f9f9f9;stroke-width:1px;stroke-linejoin:miter;stroke-miterlimit:10;"/>
                </g>
                <g id="smallScale_4_">
                    <g transform="matrix(1,0,0,0.998956,0,0.0666488)">
                        <path d="M140.753,117.44l-23.85,-53.607" style="fill:none;stroke:#f9f9f9;stroke-width:1px;stroke-linejoin:miter;stroke-miterlimit:10;"/>
                    </g>
                    <path d="M159.384,80.15l-58.787,26.193" style="fill:none;stroke:#f9f9f9;stroke-width:1px;stroke-linejoin:miter;stroke-miterlimit:10;"/>
                    <path d="M111.079,119.296l37.824,-52.1" style="fill:none;stroke:#f9f9f9;stroke-width:1px;stroke-linejoin:miter;stroke-miterlimit:10;"/>
                    <path d="M127.228,119.556l6.124,-58.329" style="fill:none;stroke:#f9f9f9;stroke-width:1px;stroke-linejoin:miter;stroke-miterlimit:10;"/>
                    <path d="M161.99,96.612l-64,-6.731" style="fill:none;stroke:#f9f9f9;stroke-width:1px;stroke-linejoin:miter;stroke-miterlimit:10;"/>
                    <path d="M156.021,112.172l-52.062,-37.851" style="fill:none;stroke:#f9f9f9;stroke-width:1px;stroke-linejoin:miter;stroke-miterlimit:10;"/>
                </g>
            </g>
            <g id="Numbers">
                <g transform="matrix(0.959459,0,0,0.959459,-27.258,24.7065)">
                    <path d="M126.25,94.126l0,-4.612l-1.104,0.401l-0.294,-0.961l1.896,-0.757l0.73,0l0,5.929l-1.228,0Z" style="fill-rule:nonzero;"/>
                </g>
                <g transform="matrix(0.959459,0,0,0.959459,-31.913,5.36581)">
                    <path d="M125.261,88.535c0.214,-0.136 0.451,-0.245 0.713,-0.325c0.261,-0.08 0.549,-0.12 0.863,-0.12c0.588,0 1.052,0.157 1.393,0.472c0.342,0.314 0.512,0.754 0.512,1.317c0,0.238 -0.029,0.46 -0.089,0.668c-0.059,0.208 -0.142,0.405 -0.249,0.592c-0.107,0.187 -0.233,0.368 -0.378,0.543c-0.146,0.175 -0.304,0.346 -0.477,0.512c-0.184,0.178 -0.359,0.344 -0.525,0.499c-0.166,0.154 -0.329,0.302 -0.489,0.445l2.261,0l0,0.988l-3.686,0l-0.169,-0.712c0.16,-0.166 0.307,-0.318 0.441,-0.454c0.133,-0.137 0.259,-0.266 0.378,-0.387c0.119,-0.122 0.233,-0.242 0.343,-0.361c0.11,-0.119 0.224,-0.243 0.342,-0.374c0.131,-0.148 0.262,-0.297 0.392,-0.445c0.131,-0.148 0.245,-0.3 0.343,-0.454c0.098,-0.154 0.178,-0.312 0.24,-0.472c0.063,-0.16 0.094,-0.323 0.094,-0.49c0,-0.279 -0.08,-0.497 -0.241,-0.654c-0.16,-0.157 -0.382,-0.236 -0.667,-0.236c-0.22,0 -0.416,0.028 -0.588,0.085c-0.172,0.056 -0.329,0.129 -0.472,0.218l-0.285,-0.855Z" style="fill-rule:nonzero;"/>
                </g>
                <g transform="matrix(0.959459,0,0,0.959459,-27.3553,-13.4417)">
                    <path d="M128.725,92.515c0,0.267 -0.055,0.506 -0.165,0.716c-0.11,0.211 -0.258,0.391 -0.445,0.539c-0.187,0.148 -0.408,0.263 -0.664,0.343c-0.255,0.08 -0.528,0.12 -0.819,0.12c-0.273,0 -0.549,-0.03 -0.828,-0.089c-0.278,-0.059 -0.522,-0.137 -0.73,-0.232l0.205,-0.925c0.184,0.083 0.376,0.149 0.574,0.2c0.199,0.05 0.411,0.076 0.637,0.076c0.338,0 0.591,-0.075 0.757,-0.223c0.166,-0.148 0.249,-0.335 0.249,-0.561c0,-0.303 -0.125,-0.521 -0.374,-0.654c-0.249,-0.134 -0.57,-0.201 -0.961,-0.201l-0.499,0l0,-0.988l0.329,0c0.44,0 0.779,-0.08 1.02,-0.24c0.24,-0.16 0.36,-0.38 0.36,-0.659c0,-0.214 -0.072,-0.378 -0.218,-0.494c-0.145,-0.116 -0.351,-0.174 -0.618,-0.174c-0.38,0 -0.736,0.083 -1.069,0.25l-0.213,-0.882c0.189,-0.107 0.419,-0.191 0.689,-0.253c0.271,-0.063 0.551,-0.094 0.842,-0.094c0.255,0 0.494,0.033 0.716,0.098c0.223,0.065 0.416,0.16 0.579,0.285c0.163,0.124 0.291,0.276 0.383,0.454c0.092,0.178 0.138,0.38 0.138,0.605c0,0.339 -0.094,0.637 -0.28,0.895c-0.187,0.258 -0.465,0.464 -0.833,0.619c0.166,0.047 0.325,0.114 0.476,0.2c0.152,0.086 0.284,0.19 0.397,0.312c0.112,0.121 0.201,0.262 0.267,0.423c0.065,0.16 0.098,0.338 0.098,0.534Z" style="fill-rule:nonzero;"/>
                </g>
                <g transform="matrix(0.959459,0,0,0.959459,-14.5823,-28.106)">
                    <path d="M128.796,92.613l0,1.513l-1.202,0l0,-1.513l-2.395,0l-0.178,-0.9l2.288,-3.516l1.487,0l0,3.472l0.801,0l0,0.944l-0.801,0Zm-1.202,-3.303l-1.433,2.359l1.433,0l0,-2.359Z" style="fill-rule:nonzero;"/>
                </g>
                <g transform="matrix(0.959459,0,0,0.959459,7.9925,-35.1266)">
                    <path d="M128.983,92.337c0,0.296 -0.06,0.562 -0.178,0.796c-0.119,0.235 -0.282,0.434 -0.49,0.597c-0.208,0.163 -0.45,0.288 -0.726,0.374c-0.275,0.086 -0.574,0.129 -0.894,0.129c-0.267,0 -0.537,-0.025 -0.81,-0.076c-0.273,-0.05 -0.499,-0.114 -0.677,-0.191l0.169,-0.953c0.19,0.071 0.392,0.129 0.606,0.174c0.213,0.044 0.427,0.067 0.641,0.067c0.344,0 0.618,-0.072 0.823,-0.214c0.205,-0.142 0.307,-0.353 0.307,-0.632c0,-0.315 -0.123,-0.539 -0.369,-0.672c-0.247,-0.134 -0.572,-0.201 -0.975,-0.201l-0.962,0l0,-3.338l3.205,0l0,0.997l-1.985,0l0,1.371l0.187,0c0.303,0 0.583,0.039 0.841,0.116c0.259,0.077 0.484,0.19 0.677,0.338c0.193,0.148 0.343,0.332 0.45,0.552c0.106,0.22 0.16,0.475 0.16,0.766Z" style="fill-rule:nonzero;"/>
                </g>
                <g transform="matrix(0.959459,0,0,0.959459,30.289,-28.189)">
                    <path d="M128.618,88.998c-0.267,0.137 -0.518,0.269 -0.753,0.396c-0.234,0.128 -0.448,0.27 -0.641,0.428c-0.192,0.157 -0.359,0.336 -0.498,0.538c-0.14,0.202 -0.245,0.445 -0.316,0.73c0.142,-0.154 0.316,-0.274 0.521,-0.36c0.204,-0.086 0.431,-0.129 0.681,-0.129c0.255,0 0.489,0.04 0.703,0.12c0.214,0.08 0.396,0.196 0.548,0.347c0.151,0.151 0.27,0.334 0.356,0.548c0.086,0.213 0.129,0.454 0.129,0.721c0,0.273 -0.052,0.525 -0.156,0.756c-0.104,0.232 -0.248,0.432 -0.432,0.601c-0.184,0.169 -0.397,0.302 -0.641,0.397c-0.243,0.094 -0.501,0.142 -0.774,0.142c-0.374,0 -0.698,-0.07 -0.971,-0.209c-0.273,-0.14 -0.498,-0.321 -0.676,-0.543c-0.178,-0.223 -0.312,-0.475 -0.401,-0.757c-0.089,-0.282 -0.134,-0.565 -0.134,-0.85c0,-0.469 0.07,-0.898 0.21,-1.287c0.139,-0.388 0.341,-0.74 0.605,-1.055c0.264,-0.314 0.586,-0.592 0.966,-0.832c0.38,-0.24 0.807,-0.444 1.282,-0.61l0.392,0.908Zm-0.428,3.374c0,-0.261 -0.074,-0.466 -0.222,-0.614c-0.149,-0.148 -0.356,-0.223 -0.623,-0.223c-0.214,0 -0.399,0.042 -0.557,0.125c-0.157,0.083 -0.289,0.181 -0.396,0.294c0,0.172 0.015,0.338 0.045,0.498c0.029,0.161 0.081,0.303 0.155,0.428c0.075,0.124 0.171,0.225 0.29,0.302c0.118,0.078 0.264,0.116 0.436,0.116c0.267,0 0.479,-0.087 0.637,-0.262c0.157,-0.176 0.235,-0.397 0.235,-0.664Z" style="fill-rule:nonzero;"/>
                </g>
                <g transform="matrix(0.959459,0,0,0.959459,43.6447,-13.5247)">
                    <path d="M128.725,89.167l-2.271,4.959l-1.219,0l2.314,-4.95l-2.475,0l0,-0.979l3.481,0l0.17,0.97Z" style="fill-rule:nonzero;"/>
                </g>
                <g transform="matrix(0.959459,0,0,0.959459,48.0225,5.28281)">
                    <path d="M127.247,88.09c0.273,0 0.522,0.033 0.748,0.098c0.225,0.065 0.419,0.159 0.583,0.28c0.163,0.122 0.289,0.272 0.378,0.45c0.089,0.178 0.134,0.38 0.134,0.605c0,0.161 -0.03,0.309 -0.089,0.446c-0.06,0.136 -0.138,0.265 -0.236,0.387c-0.098,0.121 -0.21,0.234 -0.334,0.338c-0.125,0.104 -0.252,0.2 -0.383,0.289c0.16,0.101 0.313,0.207 0.458,0.316c0.146,0.11 0.273,0.232 0.383,0.366c0.11,0.133 0.198,0.28 0.263,0.44c0.065,0.16 0.098,0.338 0.098,0.534c0,0.226 -0.052,0.437 -0.156,0.632c-0.104,0.196 -0.248,0.365 -0.432,0.508c-0.184,0.142 -0.397,0.254 -0.641,0.334c-0.243,0.08 -0.501,0.12 -0.774,0.12c-0.303,0 -0.579,-0.037 -0.828,-0.111c-0.25,-0.075 -0.462,-0.178 -0.637,-0.312c-0.175,-0.133 -0.31,-0.297 -0.405,-0.49c-0.095,-0.192 -0.142,-0.411 -0.142,-0.654c0,-0.184 0.035,-0.355 0.107,-0.512c0.071,-0.157 0.163,-0.3 0.276,-0.427c0.112,-0.128 0.24,-0.246 0.382,-0.356c0.143,-0.11 0.288,-0.215 0.437,-0.316c-0.297,-0.202 -0.545,-0.417 -0.744,-0.646c-0.199,-0.228 -0.298,-0.503 -0.298,-0.823c0,-0.22 0.043,-0.422 0.129,-0.606c0.086,-0.184 0.209,-0.342 0.37,-0.476c0.16,-0.134 0.354,-0.236 0.583,-0.307c0.228,-0.071 0.485,-0.107 0.77,-0.107Zm0.845,4.549c0,-0.219 -0.074,-0.408 -0.222,-0.565c-0.148,-0.157 -0.356,-0.322 -0.623,-0.494c-0.119,0.089 -0.23,0.172 -0.334,0.249c-0.104,0.077 -0.195,0.157 -0.272,0.241c-0.077,0.083 -0.138,0.17 -0.182,0.262c-0.045,0.092 -0.067,0.198 -0.067,0.316c0,0.226 0.076,0.399 0.227,0.521c0.151,0.122 0.361,0.183 0.628,0.183c0.249,0 0.452,-0.067 0.61,-0.201c0.157,-0.133 0.235,-0.304 0.235,-0.512Zm-1.557,-3.08c0,0.172 0.051,0.322 0.155,0.45c0.104,0.127 0.29,0.28 0.557,0.458c0.207,-0.142 0.377,-0.285 0.507,-0.427c0.131,-0.143 0.196,-0.303 0.196,-0.481c0,-0.19 -0.065,-0.337 -0.196,-0.441c-0.13,-0.104 -0.3,-0.155 -0.507,-0.155c-0.214,0 -0.386,0.056 -0.517,0.169c-0.13,0.112 -0.195,0.255 -0.195,0.427Z" style="fill-rule:nonzero;"/>
                </g>
                <g transform="matrix(0.959459,0,0,0.959459,44.481,24.7895)">
                    <path d="M125.849,93.325c0.267,-0.119 0.518,-0.242 0.752,-0.37c0.235,-0.127 0.447,-0.271 0.637,-0.431c0.19,-0.161 0.356,-0.345 0.498,-0.552c0.143,-0.208 0.25,-0.454 0.321,-0.739c-0.143,0.154 -0.316,0.274 -0.521,0.36c-0.205,0.086 -0.432,0.129 -0.681,0.129c-0.255,0 -0.49,-0.04 -0.703,-0.12c-0.214,-0.08 -0.396,-0.196 -0.548,-0.347c-0.151,-0.151 -0.27,-0.334 -0.356,-0.548c-0.086,-0.213 -0.129,-0.454 -0.129,-0.721c0,-0.285 0.049,-0.544 0.147,-0.779c0.098,-0.234 0.236,-0.434 0.414,-0.601c0.178,-0.166 0.39,-0.293 0.636,-0.382c0.247,-0.089 0.515,-0.134 0.806,-0.134c0.38,0 0.708,0.07 0.984,0.209c0.276,0.14 0.503,0.321 0.681,0.543c0.178,0.223 0.309,0.475 0.392,0.757c0.083,0.282 0.124,0.565 0.124,0.85c0,0.475 -0.069,0.908 -0.209,1.3c-0.139,0.392 -0.341,0.743 -0.605,1.055c-0.264,0.312 -0.586,0.586 -0.966,0.824c-0.38,0.237 -0.807,0.439 -1.282,0.605l-0.392,-0.908Zm0.427,-3.383c0,0.273 0.077,0.482 0.232,0.627c0.154,0.146 0.359,0.219 0.614,0.219c0.214,0 0.399,-0.042 0.557,-0.125c0.157,-0.083 0.289,-0.181 0.396,-0.294c0,-0.166 -0.015,-0.331 -0.045,-0.494c-0.03,-0.163 -0.081,-0.307 -0.156,-0.432c-0.074,-0.124 -0.17,-0.225 -0.289,-0.302c-0.119,-0.078 -0.264,-0.116 -0.436,-0.116c-0.267,0 -0.479,0.083 -0.637,0.249c-0.157,0.166 -0.236,0.389 -0.236,0.668Z" style="fill-rule:nonzero;"/>
                </g>
                <g transform="matrix(0.959459,0,0,0.959459,30.5346,39.7849)">
                    <path d="M126.25,94.126l0,-4.612l-1.104,0.401l-0.294,-0.961l1.896,-0.757l0.73,0l0,5.929l-1.228,0Z" style="fill-rule:nonzero;"/>
                    <path d="M133.212,91.161c0,0.452 -0.048,0.866 -0.143,1.242c-0.095,0.377 -0.24,0.701 -0.436,0.971c-0.196,0.27 -0.439,0.481 -0.73,0.632c-0.291,0.151 -0.632,0.227 -1.024,0.227c-0.392,0 -0.733,-0.076 -1.024,-0.227c-0.291,-0.151 -0.534,-0.362 -0.73,-0.632c-0.196,-0.27 -0.341,-0.594 -0.436,-0.971c-0.095,-0.376 -0.142,-0.79 -0.142,-1.242c0,-0.451 0.047,-0.865 0.142,-1.241c0.095,-0.377 0.24,-0.701 0.436,-0.971c0.196,-0.27 0.439,-0.481 0.73,-0.632c0.291,-0.151 0.632,-0.227 1.024,-0.227c0.392,0 0.733,0.076 1.024,0.227c0.291,0.151 0.534,0.362 0.73,0.632c0.196,0.27 0.341,0.594 0.436,0.971c0.095,0.376 0.143,0.79 0.143,1.241Zm-1.229,0c0,-0.326 -0.019,-0.618 -0.058,-0.876c-0.038,-0.259 -0.102,-0.478 -0.191,-0.659c-0.089,-0.181 -0.204,-0.319 -0.343,-0.414c-0.14,-0.095 -0.31,-0.143 -0.512,-0.143c-0.202,0 -0.372,0.048 -0.512,0.143c-0.139,0.095 -0.254,0.233 -0.343,0.414c-0.089,0.181 -0.152,0.4 -0.191,0.659c-0.039,0.258 -0.058,0.55 -0.058,0.876c0,0.327 0.019,0.619 0.058,0.877c0.039,0.259 0.102,0.478 0.191,0.659c0.089,0.181 0.204,0.319 0.343,0.414c0.14,0.095 0.31,0.143 0.512,0.143c0.398,0 0.681,-0.186 0.85,-0.557c0.169,-0.371 0.254,-0.883 0.254,-1.536Z" style="fill-rule:nonzero;"/>
                </g>
                <g transform="matrix(0.959459,0,0,0.959459,-14.7621,39.7849)">
                    <path d="M129.829,91.161c0,0.452 -0.048,0.866 -0.143,1.242c-0.095,0.377 -0.24,0.701 -0.436,0.971c-0.196,0.27 -0.439,0.481 -0.73,0.632c-0.291,0.151 -0.632,0.227 -1.024,0.227c-0.392,0 -0.733,-0.076 -1.024,-0.227c-0.291,-0.151 -0.534,-0.362 -0.73,-0.632c-0.196,-0.27 -0.341,-0.594 -0.436,-0.971c-0.095,-0.376 -0.143,-0.79 -0.143,-1.242c0,-0.451 0.048,-0.865 0.143,-1.241c0.095,-0.377 0.24,-0.701 0.436,-0.971c0.196,-0.27 0.439,-0.481 0.73,-0.632c0.291,-0.151 0.632,-0.227 1.024,-0.227c0.392,0 0.733,0.076 1.024,0.227c0.291,0.151 0.534,0.362 0.73,0.632c0.196,0.27 0.341,0.594 0.436,0.971c0.095,0.376 0.143,0.79 0.143,1.241Zm-1.229,0c0,-0.326 -0.019,-0.618 -0.058,-0.876c-0.038,-0.259 -0.102,-0.478 -0.191,-0.659c-0.089,-0.181 -0.204,-0.319 -0.343,-0.414c-0.14,-0.095 -0.31,-0.143 -0.512,-0.143c-0.202,0 -0.372,0.048 -0.512,0.143c-0.139,0.095 -0.254,0.233 -0.343,0.414c-0.089,0.181 -0.152,0.4 -0.191,0.659c-0.039,0.258 -0.058,0.55 -0.058,0.876c0,0.327 0.019,0.619 0.058,0.877c0.039,0.259 0.102,0.478 0.191,0.659c0.089,0.181 0.204,0.319 0.343,0.414c0.14,0.095 0.31,0.143 0.512,0.143c0.398,0 0.681,-0.186 0.85,-0.557c0.169,-0.371 0.254,-0.883 0.254,-1.536Z" style="fill-rule:nonzero;"/>
                </g>
            </g>
        </g>
    </g>
    <g id="Signal-Icons"
       serif:id="Signal Icons"
       transform="matrix(1,0,0,1,0,1.96641)">
        <g id="SYMSAW" transform="matrix(1,0,0,1,-0.342097,2.43359)">
            <path d="M27.795,343.047l0,-5.047"
                  style="fill:none;stroke:#862525;stroke-width:1.5px;stroke-linecap:round;stroke-miterlimit:10;"/>
            <path d="M41.62,343.047l0,4.953"
                  style="fill:none;stroke:#862525;stroke-width:1.5px;stroke-linecap:round;stroke-miterlimit:10;"/>
            <path d="M41.62,348l-13.825,-10"
                  style="fill:none;stroke:#862525;stroke-width:1.5px;stroke-linecap:round;stroke-miterlimit:10;"/>
        </g>
        <g id="SYMNOISE" transform="matrix(1,0,0,1,1.69358,0.540982)">
            <path d="M166.303,347.476c0,-1.207 0.674,-2.123 0.793,-3.303c0.017,-0.169 -0.074,0.332 -0.103,0.499c-0.039,0.227 -0.065,0.457 -0.095,0.685c-0.138,1.032 -0.505,2.175 -0.505,3.214c0,0.107 0.066,-0.204 0.093,-0.307c0.073,-0.276 0.138,-0.553 0.203,-0.831c0.093,-0.401 0.158,-0.809 0.272,-1.205c0.451,-1.561 1.949,-3.414 2.068,-5.009c0.028,-0.363 -0.277,0.682 -0.331,1.042c-0.137,0.924 -0.15,1.93 -0.08,2.858c0.031,0.411 -0.076,1.265 0.33,1.192c0.496,-0.089 0.725,-2.79 0.725,-3.228c0,-0.348 -0.01,0.702 0.056,1.044c0.129,0.668 0.275,1.265 0.275,1.947c0,0.364 0.188,-0.704 0.246,-1.063c0.113,-0.698 0.07,-1.39 0.15,-2.084c0.037,-0.319 -0.079,0.64 -0.084,0.961c-0.008,0.556 -0.24,2.117 0.377,2.509c0.747,0.475 0.75,-2.272 0.75,-2.529c0,-0.285 0.08,0.565 0.135,0.844c0.114,0.582 0.183,2.961 0.88,3.134c0.618,0.154 1.556,-1.96 1.719,-2.285c0.133,-0.267 0.343,-1.134 0.315,-0.837c-0.018,0.188 -0.185,2.367 0.134,2.365c0.245,-0.001 0.298,-1.389 0.303,-1.46c0.015,-0.217 -0.071,-0.861 -0.013,-0.652c0.093,0.331 0.096,0.666 0.112,1.008c0.008,0.172 -0.067,0.668 0.015,0.516c0.364,-0.674 0.354,-1.607 0.541,-2.344c0.098,-0.382 0.419,-1.509 0.243,-1.157c-0.22,0.439 0.351,1.386 0.504,1.751c0.069,0.163 0.203,0.646 0.239,0.473c0.152,-0.718 0.079,-1.475 0.119,-2.203c0.018,-0.318 -0.043,-1.237 0.097,-0.95c0.471,0.967 0.707,1.894 0.768,2.973c0.002,0.019 -0.04,1.233 0.088,1.264c0.14,0.035 1.05,-3.103 1.069,-3.084c0.196,0.196 0.37,2.184 0.823,0.852c0.065,-0.191 0.133,-0.402 0.18,-0.6c0.121,-0.508 0.329,2.055 0.329,1.533c0,-0.283 -0.021,-0.566 -0.017,-0.848c0.002,-0.145 0.052,-0.573 0.069,-0.429c0.071,0.592 0.126,1.192 0.126,1.788c0,0.076 0.158,0.796 0.182,0.756c0.279,-0.461 -0.103,-1.355 0.431,-1.743c0.039,-0.028 0.116,1.012 0.117,1.021c0.042,0.705 0.021,1.516 0.183,2.2c0.027,0.115 0.378,0.384 0.454,0.501c0.075,0.116 0.182,0.493 0.211,0.357c0.082,-0.378 0.758,-1.256 0.41,-1.086"
                  style="fill:none;stroke:#862525;stroke-width:1.5px;stroke-linejoin:miter;stroke-miterlimit:10;"/>
        </g>
        <g id="SYMPLS" transform="matrix(1,0,0,1,0.200841,2.43359)">
            <path d="M63.028,343.012l0,-5.012"
                  style="fill:none;stroke:#862525;stroke-width:1.5px;stroke-linecap:round;stroke-miterlimit:10;"/>
            <path d="M69.713,343.012l0,-5.012"
                  style="fill:none;stroke:#862525;stroke-width:1.5px;stroke-linecap:round;stroke-miterlimit:10;"/>
            <path d="M69.713,342.988l0,5.012"
                  style="fill:none;stroke:#862525;stroke-width:1.5px;stroke-linecap:round;stroke-miterlimit:10;"/>
            <path d="M77.563,348l0,-5.012"
                  style="fill:none;stroke:#862525;stroke-width:1.5px;stroke-linecap:round;stroke-miterlimit:10;"/>
            <path d="M69.713,347.978l7.85,0"
                  style="fill:none;stroke:#862525;stroke-width:1.5px;stroke-linecap:round;stroke-miterlimit:10;"/>
            <path d="M69.713,338l-6.685,0"
                  style="fill:none;stroke:#862525;stroke-width:1.5px;stroke-linecap:round;stroke-miterlimit:10;"/>
        </g>
        <g id="SYMTRI" transform="matrix(1,0,0,1,-3.85,2.43359)">
            <path d="M138.924,343.009l3.222,-4.959"
                  style="fill:none;stroke:#862525;stroke-width:1.5px;stroke-linecap:round;stroke-linejoin:miter;stroke-miterlimit:10;"/>
            <path d="M145.249,342.991l-3.103,-4.991"
                  style="fill:none;stroke:#862525;stroke-width:1.5px;stroke-linecap:round;stroke-linejoin:miter;stroke-miterlimit:10;"/>
            <path d="M151.574,342.991l-3.223,4.959"
                  style="fill:none;stroke:#862525;stroke-width:1.5px;stroke-linecap:round;stroke-linejoin:miter;stroke-miterlimit:10;"/>
            <path d="M145.249,343.009l3.102,4.991"
                  style="fill:none;stroke:#862525;stroke-width:1.5px;stroke-linecap:round;stroke-linejoin:miter;stroke-miterlimit:10;"/>
        </g>
        <g id="SYMSIN" transform="matrix(1,0,0,1,-3.77631,2.43359)">
            <path d="M102.555,343.127c0,-2.831 1.447,-5.127 3.233,-5.127c1.476,0 2.721,1.565 3.108,3.707"
                  style="fill:none;stroke:#862525;stroke-width:1.5px;stroke-linecap:round;stroke-linejoin:miter;stroke-miterlimit:10;"/>
            <path d="M115.928,343.158c0,2.675 -1.446,4.842 -3.232,4.842c-1.477,0 -2.72,-1.479 -3.108,-3.502"
                  style="fill:none;stroke:#862525;stroke-width:1.5px;stroke-linecap:round;stroke-linejoin:miter;stroke-miterlimit:10;"/>
            <path d="M108.896,341.707l0.691,2.902"
                  style="fill:none;stroke:#862525;stroke-width:1.5px;stroke-linecap:round;stroke-linejoin:miter;stroke-miterlimit:10;"/>
        </g>
    </g>
    <g id="LOGO"
       transform="matrix(1.07143,0,0,1.07143,34.3942,-270.854)">
        <g transform="matrix(8,0,0,8,0.530823,602.797)">
            <path d="M0.195,-0.7c0.015,0 0.022,0.007 0.022,0.022l0,0.399c0,0.027 0.002,0.049 0.007,0.067c0.004,0.017 0.011,0.031 0.021,0.042c0.01,0.01 0.024,0.017 0.041,0.022c0.017,0.004 0.038,0.006 0.064,0.006l0.405,0c0.015,0 0.022,0.007 0.022,0.022l0,0.098c0,0.015 -0.007,0.022 -0.022,0.022l-0.411,0c-0.051,0 -0.094,-0.005 -0.129,-0.014c-0.035,-0.009 -0.064,-0.024 -0.086,-0.045c-0.023,-0.021 -0.039,-0.049 -0.049,-0.082c-0.011,-0.034 -0.016,-0.075 -0.016,-0.123l0,-0.414c0,-0.015 0.008,-0.022 0.023,-0.022l0.108,0Z"
                  style="fill-rule:nonzero;"/>
        </g>
        <g transform="matrix(8,0,0,8,6.93882,602.797)">
            <path d="M0.197,-0.7c0.015,0 0.022,0.007 0.022,0.022l0,0.656c0,0.015 -0.007,0.022 -0.022,0.022l-0.108,0c-0.015,0 -0.023,-0.007 -0.023,-0.022l0,-0.656c0,-0.015 0.008,-0.022 0.023,-0.022l0.108,0Z"
                  style="fill-rule:nonzero;"/>
        </g>
        <g transform="matrix(8,0,0,8,9.22682,602.797)">
            <path d="M0.244,-0.7c0.016,0 0.029,0.001 0.04,0.002c0.011,0.001 0.02,0.004 0.028,0.009c0.008,0.004 0.016,0.01 0.023,0.018c0.007,0.007 0.016,0.017 0.025,0.03l0.372,0.488c0.003,0.005 0.007,0.007 0.013,0.007l0.009,0c0.005,0 0.008,-0.003 0.008,-0.01l0,-0.522c0,-0.015 0.007,-0.022 0.022,-0.022l0.105,0c0.015,0 0.022,0.007 0.022,0.022l0,0.574c0,0.041 -0.007,0.068 -0.022,0.082c-0.015,0.015 -0.037,0.022 -0.068,0.022l-0.086,0c-0.015,0 -0.028,-0.001 -0.038,-0.002c-0.011,-0.001 -0.02,-0.004 -0.028,-0.008c-0.008,-0.004 -0.016,-0.01 -0.023,-0.018c-0.008,-0.007 -0.017,-0.018 -0.027,-0.031l-0.373,-0.488c-0.004,-0.005 -0.008,-0.007 -0.013,-0.007l-0.009,0c-0.005,0 -0.008,0.003 -0.008,0.01l0,0.522c0,0.015 -0.007,0.022 -0.022,0.022l-0.105,0c-0.015,0 -0.023,-0.007 -0.023,-0.022l0,-0.574c0,-0.041 0.007,-0.068 0.022,-0.083c0.015,-0.014 0.037,-0.021 0.068,-0.021l0.088,0Z"
                  style="fill-rule:nonzero;"/>
        </g>
        <g transform="matrix(8,0,0,8,17.0508,602.797)">
            <path d="M0.564,-0.7c0.054,0 0.1,0.006 0.139,0.017c0.039,0.011 0.07,0.027 0.095,0.05c0.025,0.023 0.043,0.053 0.054,0.089c0.012,0.035 0.018,0.077 0.018,0.126l0,0.136c0,0.049 -0.006,0.091 -0.018,0.127c-0.011,0.035 -0.029,0.065 -0.054,0.088c-0.025,0.023 -0.056,0.04 -0.095,0.051c-0.039,0.011 -0.085,0.016 -0.139,0.016l-0.468,0c-0.02,0 -0.03,-0.01 -0.03,-0.03l0,-0.64c0,-0.02 0.01,-0.03 0.03,-0.03l0.468,0Zm-0.345,0.548c0,0.009 0.004,0.013 0.013,0.013l0.328,0c0.029,0 0.054,-0.003 0.074,-0.008c0.02,-0.005 0.036,-0.014 0.048,-0.026c0.013,-0.012 0.022,-0.028 0.027,-0.048c0.005,-0.02 0.008,-0.045 0.008,-0.074l0,-0.11c0,-0.029 -0.003,-0.054 -0.008,-0.074c-0.005,-0.02 -0.014,-0.036 -0.027,-0.048c-0.012,-0.012 -0.028,-0.021 -0.048,-0.026c-0.02,-0.005 -0.045,-0.008 -0.074,-0.008l-0.328,0c-0.009,0 -0.013,0.005 -0.013,0.014l0,0.395Z"
                  style="fill-rule:nonzero;"/>
        </g>
        <g transform="matrix(8,0,0,8,24.4828,602.797)">
            <path d="M0.778,-0.7c0.015,0 0.023,0.007 0.023,0.022l0,0.095c0,0.015 -0.008,0.022 -0.023,0.022l-0.437,0c-0.026,0 -0.047,0.002 -0.065,0.007c-0.017,0.004 -0.03,0.011 -0.041,0.022c-0.01,0.01 -0.017,0.024 -0.021,0.042c-0.004,0.017 -0.006,0.039 -0.006,0.065l0,0.01l0.565,0c0.015,0 0.022,0.007 0.022,0.022l0,0.079c0,0.015 -0.007,0.022 -0.022,0.022l-0.565,0l0,0.017c0,0.026 0.002,0.048 0.006,0.065c0.004,0.018 0.011,0.032 0.021,0.042c0.011,0.011 0.024,0.018 0.041,0.022c0.017,0.005 0.039,0.007 0.065,0.007l0.437,0c0.015,0 0.023,0.007 0.023,0.022l0,0.095c0,0.015 -0.008,0.022 -0.023,0.022l-0.44,0c-0.051,0 -0.094,-0.005 -0.129,-0.014c-0.035,-0.009 -0.064,-0.025 -0.087,-0.046c-0.022,-0.021 -0.038,-0.048 -0.049,-0.082c-0.01,-0.033 -0.015,-0.074 -0.015,-0.122l0,-0.172c0,-0.048 0.005,-0.089 0.015,-0.122c0.011,-0.033 0.027,-0.061 0.049,-0.082c0.023,-0.021 0.052,-0.036 0.087,-0.046c0.035,-0.009 0.078,-0.014 0.129,-0.014l0.44,0Z"
                  style="fill-rule:nonzero;"/>
        </g>
        <g transform="matrix(8,0,0,8,31.2828,602.797)">
            <path d="M0.244,-0.7c0.016,0 0.029,0.001 0.04,0.002c0.011,0.001 0.02,0.004 0.028,0.009c0.008,0.004 0.016,0.01 0.023,0.018c0.007,0.007 0.016,0.017 0.025,0.03l0.372,0.488c0.003,0.005 0.007,0.007 0.013,0.007l0.009,0c0.005,0 0.008,-0.003 0.008,-0.01l0,-0.522c0,-0.015 0.007,-0.022 0.022,-0.022l0.105,0c0.015,0 0.022,0.007 0.022,0.022l0,0.574c0,0.041 -0.007,0.068 -0.022,0.082c-0.015,0.015 -0.037,0.022 -0.068,0.022l-0.086,0c-0.015,0 -0.028,-0.001 -0.038,-0.002c-0.011,-0.001 -0.02,-0.004 -0.028,-0.008c-0.008,-0.004 -0.016,-0.01 -0.023,-0.018c-0.008,-0.007 -0.017,-0.018 -0.027,-0.031l-0.373,-0.488c-0.004,-0.005 -0.008,-0.007 -0.013,-0.007l-0.009,0c-0.005,0 -0.008,0.003 -0.008,0.01l0,0.522c0,0.015 -0.007,0.022 -0.022,0.022l-0.105,0c-0.015,0 -0.023,-0.007 -0.023,-0.022l0,-0.574c0,-0.041 0.007,-0.068 0.022,-0.083c0.015,-0.014 0.037,-0.021 0.068,-0.021l0.088,0Z"
                  style="fill-rule:nonzero;"/>
        </g>
        <g transform="matrix(8,0,0,8,39.1068,602.797)">
            <path d="M0.672,-0.7c0.069,0 0.117,0.014 0.146,0.041c0.029,0.027 0.044,0.069 0.044,0.124l0,0.048c0,0.056 -0.021,0.098 -0.064,0.127c0.046,0.027 0.069,0.07 0.069,0.129l0,0.058c0,0.027 -0.003,0.051 -0.009,0.072c-0.006,0.021 -0.016,0.04 -0.029,0.055c-0.014,0.015 -0.032,0.026 -0.055,0.034c-0.023,0.008 -0.051,0.012 -0.084,0.012l-0.594,0c-0.02,0 -0.03,-0.01 -0.03,-0.03l0,-0.64c0,-0.02 0.01,-0.03 0.03,-0.03l0.576,0Zm-0.453,0.4l0,0.149c0,0.009 0.004,0.013 0.013,0.013l0.41,0c0.027,0 0.046,-0.005 0.057,-0.014c0.011,-0.01 0.017,-0.026 0.017,-0.047l0,-0.038c0,-0.021 -0.006,-0.036 -0.019,-0.047c-0.012,-0.011 -0.035,-0.016 -0.068,-0.016l-0.41,0Zm0,-0.109l0.41,0c0.033,0 0.056,-0.005 0.068,-0.015c0.012,-0.01 0.018,-0.025 0.018,-0.044l0,-0.034c0,-0.021 -0.006,-0.036 -0.018,-0.045c-0.011,-0.01 -0.03,-0.015 -0.056,-0.015l-0.409,0c-0.009,0 -0.013,0.004 -0.013,0.013l0,0.14Z"
                  style="fill-rule:nonzero;"/>
        </g>
        <g transform="matrix(8,0,0,8,46.4588,602.797)">
            <path d="M0.778,-0.7c0.015,0 0.023,0.007 0.023,0.022l0,0.095c0,0.015 -0.008,0.022 -0.023,0.022l-0.437,0c-0.026,0 -0.047,0.002 -0.065,0.007c-0.017,0.004 -0.03,0.011 -0.041,0.022c-0.01,0.01 -0.017,0.024 -0.021,0.042c-0.004,0.017 -0.006,0.039 -0.006,0.065l0,0.01l0.565,0c0.015,0 0.022,0.007 0.022,0.022l0,0.079c0,0.015 -0.007,0.022 -0.022,0.022l-0.565,0l0,0.017c0,0.026 0.002,0.048 0.006,0.065c0.004,0.018 0.011,0.032 0.021,0.042c0.011,0.011 0.024,0.018 0.041,0.022c0.017,0.005 0.039,0.007 0.065,0.007l0.437,0c0.015,0 0.023,0.007 0.023,0.022l0,0.095c0,0.015 -0.008,0.022 -0.023,0.022l-0.44,0c-0.051,0 -0.094,-0.005 -0.129,-0.014c-0.035,-0.009 -0.064,-0.025 -0.087,-0.046c-0.022,-0.021 -0.038,-0.048 -0.049,-0.082c-0.01,-0.033 -0.015,-0.074 -0.015,-0.122l0,-0.172c0,-0.048 0.005,-0.089 0.015,-0.122c0.011,-0.033 0.027,-0.061 0.049,-0.082c0.023,-0.021 0.052,-0.036 0.087,-0.046c0.035,-0.009 0.078,-0.014 0.129,-0.014l0.44,0Z"
                  style="fill-rule:nonzero;"/>
        </g>
        <g transform="matrix(8,0,0,8,53.2588,602.797)">
            <path d="M0.633,-0.7c0.077,0 0.132,0.017 0.165,0.052c0.033,0.035 0.05,0.086 0.05,0.154l0,0.057c0,0.057 -0.012,0.103 -0.035,0.136c-0.023,0.033 -0.061,0.055 -0.114,0.064l0.171,0.212c0.003,0.003 0.004,0.008 0.003,0.015c-0.001,0.007 -0.007,0.01 -0.016,0.01l-0.129,0c-0.009,0 -0.015,-0.001 -0.018,-0.003c-0.003,-0.002 -0.007,-0.005 -0.01,-0.01l-0.158,-0.208l-0.323,0l0,0.199c0,0.015 -0.007,0.022 -0.022,0.022l-0.108,0c-0.015,0 -0.023,-0.007 -0.023,-0.022l0,-0.648c0,-0.02 0.01,-0.03 0.03,-0.03l0.537,0Zm-0.414,0.357l0.383,0c0.034,0 0.058,-0.007 0.072,-0.022c0.014,-0.015 0.021,-0.037 0.021,-0.067l0,-0.042c0,-0.03 -0.007,-0.052 -0.021,-0.067c-0.014,-0.015 -0.038,-0.022 -0.072,-0.022l-0.37,0c-0.009,0 -0.013,0.004 -0.013,0.012l0,0.208Z"
                  style="fill-rule:nonzero;"/>
        </g>
        <g transform="matrix(8,0,0,8,60.3548,602.797)">
            <path d="M0.845,-0.7c0.015,0 0.022,0.007 0.022,0.022l0,0.098c0,0.015 -0.007,0.023 -0.022,0.023l-0.501,0c-0.026,0 -0.047,0.002 -0.064,0.007c-0.017,0.004 -0.031,0.011 -0.041,0.022c-0.01,0.01 -0.017,0.024 -0.021,0.041c-0.005,0.017 -0.007,0.039 -0.007,0.066l0,0.144c0,0.027 0.002,0.049 0.007,0.067c0.004,0.017 0.011,0.031 0.021,0.042c0.01,0.01 0.024,0.017 0.041,0.022c0.017,0.004 0.038,0.006 0.064,0.006l0.33,0c0.017,0 0.03,-0.004 0.038,-0.013c0.008,-0.009 0.012,-0.025 0.012,-0.048l0,-0.081c0,-0.009 -0.004,-0.013 -0.012,-0.013l-0.293,0c-0.015,0 -0.022,-0.008 -0.022,-0.023l0,-0.075c0,-0.015 0.007,-0.023 0.022,-0.023l0.417,0c0.02,0 0.03,0.01 0.03,0.03l0,0.233c0,0.056 -0.011,0.096 -0.032,0.119c-0.021,0.023 -0.052,0.034 -0.092,0.034l-0.404,0c-0.051,0 -0.094,-0.005 -0.129,-0.014c-0.035,-0.009 -0.064,-0.024 -0.086,-0.045c-0.023,-0.021 -0.039,-0.049 -0.049,-0.082c-0.011,-0.034 -0.016,-0.075 -0.016,-0.123l0,-0.172c0,-0.048 0.005,-0.089 0.016,-0.122c0.01,-0.033 0.026,-0.06 0.049,-0.081c0.022,-0.021 0.051,-0.037 0.086,-0.046c0.035,-0.01 0.078,-0.015 0.129,-0.015l0.507,0Z"
                  style="fill-rule:nonzero;"/>
        </g>
        <g transform="matrix(8,0,0,8,70.4428,602.797)">
            <path d="M0.633,-0.7c0.077,0 0.132,0.017 0.165,0.052c0.033,0.035 0.05,0.086 0.05,0.154l0,0.057c0,0.057 -0.012,0.103 -0.035,0.136c-0.023,0.033 -0.061,0.055 -0.114,0.064l0.171,0.212c0.003,0.003 0.004,0.008 0.003,0.015c-0.001,0.007 -0.007,0.01 -0.016,0.01l-0.129,0c-0.009,0 -0.015,-0.001 -0.018,-0.003c-0.003,-0.002 -0.007,-0.005 -0.01,-0.01l-0.158,-0.208l-0.323,0l0,0.199c0,0.015 -0.007,0.022 -0.022,0.022l-0.108,0c-0.015,0 -0.023,-0.007 -0.023,-0.022l0,-0.648c0,-0.02 0.01,-0.03 0.03,-0.03l0.537,0Zm-0.414,0.357l0.383,0c0.034,0 0.058,-0.007 0.072,-0.022c0.014,-0.015 0.021,-0.037 0.021,-0.067l0,-0.042c0,-0.03 -0.007,-0.052 -0.021,-0.067c-0.014,-0.015 -0.038,-0.022 -0.072,-0.022l-0.37,0c-0.009,0 -0.013,0.004 -0.013,0.012l0,0.208Z"
                  style="fill-rule:nonzero;"/>
        </g>
        <g transform="matrix(8,0,0,8,77.5388,602.797)">
            <path d="M0.778,-0.7c0.015,0 0.023,0.007 0.023,0.022l0,0.095c0,0.015 -0.008,0.022 -0.023,0.022l-0.437,0c-0.026,0 -0.047,0.002 -0.065,0.007c-0.017,0.004 -0.03,0.011 -0.041,0.022c-0.01,0.01 -0.017,0.024 -0.021,0.042c-0.004,0.017 -0.006,0.039 -0.006,0.065l0,0.01l0.565,0c0.015,0 0.022,0.007 0.022,0.022l0,0.079c0,0.015 -0.007,0.022 -0.022,0.022l-0.565,0l0,0.017c0,0.026 0.002,0.048 0.006,0.065c0.004,0.018 0.011,0.032 0.021,0.042c0.011,0.011 0.024,0.018 0.041,0.022c0.017,0.005 0.039,0.007 0.065,0.007l0.437,0c0.015,0 0.023,0.007 0.023,0.022l0,0.095c0,0.015 -0.008,0.022 -0.023,0.022l-0.44,0c-0.051,0 -0.094,-0.005 -0.129,-0.014c-0.035,-0.009 -0.064,-0.025 -0.087,-0.046c-0.022,-0.021 -0.038,-0.048 -0.049,-0.082c-0.01,-0.033 -0.015,-0.074 -0.015,-0.122l0,-0.172c0,-0.048 0.005,-0.089 0.015,-0.122c0.011,-0.033 0.027,-0.061 0.049,-0.082c0.023,-0.021 0.052,-0.036 0.087,-0.046c0.035,-0.009 0.078,-0.014 0.129,-0.014l0.44,0Z"
                  style="fill-rule:nonzero;"/>
        </g>
        <g transform="matrix(8,0,0,8,84.3388,602.797)">
            <path d="M0.761,-0.7c0.015,0 0.022,0.007 0.022,0.022l0,0.095c0,0.015 -0.007,0.022 -0.022,0.022l-0.501,0c-0.019,0 -0.033,0.005 -0.041,0.015c-0.008,0.01 -0.012,0.024 -0.012,0.041l0,0.034c0,0.037 0.017,0.056 0.052,0.056l0.375,0c0.058,0 0.102,0.015 0.131,0.044c0.029,0.03 0.044,0.073 0.044,0.128l0,0.08c0,0.049 -0.014,0.088 -0.043,0.118c-0.029,0.03 -0.073,0.045 -0.134,0.045l-0.554,0c-0.015,0 -0.023,-0.007 -0.023,-0.022l0,-0.095c0,-0.015 0.008,-0.022 0.023,-0.022l0.525,0c0.019,0 0.033,-0.005 0.041,-0.015c0.008,-0.01 0.012,-0.024 0.012,-0.041l0,-0.041c0,-0.037 -0.017,-0.056 -0.052,-0.056l-0.375,0c-0.058,0 -0.102,-0.015 -0.131,-0.045c-0.029,-0.029 -0.044,-0.072 -0.044,-0.127l0,-0.073c0,-0.049 0.014,-0.088 0.043,-0.118c0.029,-0.03 0.073,-0.045 0.134,-0.045l0.53,0Z"
                  style="fill-rule:nonzero;"/>
        </g>
        <g transform="matrix(8,0,0,8,91.1948,602.797)">
            <path d="M0.778,-0.7c0.015,0 0.023,0.007 0.023,0.022l0,0.095c0,0.015 -0.008,0.022 -0.023,0.022l-0.437,0c-0.026,0 -0.047,0.002 -0.065,0.007c-0.017,0.004 -0.03,0.011 -0.041,0.022c-0.01,0.01 -0.017,0.024 -0.021,0.042c-0.004,0.017 -0.006,0.039 -0.006,0.065l0,0.01l0.565,0c0.015,0 0.022,0.007 0.022,0.022l0,0.079c0,0.015 -0.007,0.022 -0.022,0.022l-0.565,0l0,0.017c0,0.026 0.002,0.048 0.006,0.065c0.004,0.018 0.011,0.032 0.021,0.042c0.011,0.011 0.024,0.018 0.041,0.022c0.017,0.005 0.039,0.007 0.065,0.007l0.437,0c0.015,0 0.023,0.007 0.023,0.022l0,0.095c0,0.015 -0.008,0.022 -0.023,0.022l-0.44,0c-0.051,0 -0.094,-0.005 -0.129,-0.014c-0.035,-0.009 -0.064,-0.025 -0.087,-0.046c-0.022,-0.021 -0.038,-0.048 -0.049,-0.082c-0.01,-0.033 -0.015,-0.074 -0.015,-0.122l0,-0.172c0,-0.048 0.005,-0.089 0.015,-0.122c0.011,-0.033 0.027,-0.061 0.049,-0.082c0.023,-0.021 0.052,-0.036 0.087,-0.046c0.035,-0.009 0.078,-0.014 0.129,-0.014l0.44,0Z"
                  style="fill-rule:nonzero;"/>
        </g>
        <g transform="matrix(8,0,0,8,97.9948,602.797)">
            <path d="M0.51,-0.7c0.025,0 0.047,0.005 0.064,0.016c0.017,0.01 0.034,0.03 0.051,0.06l0.331,0.601c0.003,0.007 0.004,0.012 0.002,0.017c-0.001,0.004 -0.006,0.006 -0.014,0.006l-0.127,0c-0.011,0 -0.019,-0.004 -0.023,-0.013l-0.071,-0.129l-0.47,0l-0.069,0.129c-0.005,0.009 -0.012,0.013 -0.023,0.013l-0.13,0c-0.009,0 -0.014,-0.002 -0.016,-0.006c-0.001,-0.005 0,-0.01 0.003,-0.017l0.328,-0.601c0.017,-0.03 0.033,-0.05 0.049,-0.06c0.016,-0.011 0.035,-0.016 0.056,-0.016l0.059,0Zm-0.194,0.442l0.344,0l-0.159,-0.293c-0.003,-0.005 -0.006,-0.007 -0.011,-0.007l-0.006,0c-0.005,0 -0.008,0.002 -0.011,0.007l-0.157,0.293Z"
                  style="fill-rule:nonzero;"/>
        </g>
        <g transform="matrix(8,0,0,8,105.795,602.797)">
            <path d="M0.633,-0.7c0.077,0 0.132,0.017 0.165,0.052c0.033,0.035 0.05,0.086 0.05,0.154l0,0.057c0,0.057 -0.012,0.103 -0.035,0.136c-0.023,0.033 -0.061,0.055 -0.114,0.064l0.171,0.212c0.003,0.003 0.004,0.008 0.003,0.015c-0.001,0.007 -0.007,0.01 -0.016,0.01l-0.129,0c-0.009,0 -0.015,-0.001 -0.018,-0.003c-0.003,-0.002 -0.007,-0.005 -0.01,-0.01l-0.158,-0.208l-0.323,0l0,0.199c0,0.015 -0.007,0.022 -0.022,0.022l-0.108,0c-0.015,0 -0.023,-0.007 -0.023,-0.022l0,-0.648c0,-0.02 0.01,-0.03 0.03,-0.03l0.537,0Zm-0.414,0.357l0.383,0c0.034,0 0.058,-0.007 0.072,-0.022c0.014,-0.015 0.021,-0.037 0.021,-0.067l0,-0.042c0,-0.03 -0.007,-0.052 -0.021,-0.067c-0.014,-0.015 -0.038,-0.022 -0.072,-0.022l-0.37,0c-0.009,0 -0.013,0.004 -0.013,0.012l0,0.208Z"
                  style="fill-rule:nonzero;"/>
        </g>
        <g transform="matrix(8,0,0,8,112.891,602.797)">
            <path d="M0.789,-0.7c0.015,0 0.022,0.007 0.022,0.022l0,0.098c0,0.015 -0.007,0.023 -0.022,0.023l-0.445,0c-0.026,0 -0.048,0.002 -0.065,0.007c-0.017,0.004 -0.03,0.011 -0.04,0.022c-0.01,0.01 -0.017,0.024 -0.022,0.041c-0.004,0.017 -0.006,0.039 -0.006,0.066l0,0.142c0,0.027 0.002,0.049 0.006,0.067c0.005,0.017 0.012,0.031 0.022,0.042c0.01,0.01 0.023,0.017 0.041,0.022c0.016,0.004 0.038,0.006 0.064,0.006l0.445,0c0.015,0 0.022,0.007 0.022,0.022l0,0.098c0,0.015 -0.007,0.022 -0.022,0.022l-0.451,0c-0.051,0 -0.094,-0.005 -0.129,-0.014c-0.035,-0.009 -0.064,-0.024 -0.087,-0.045c-0.022,-0.021 -0.038,-0.049 -0.049,-0.082c-0.01,-0.034 -0.015,-0.075 -0.015,-0.123l0,-0.172c0,-0.048 0.005,-0.089 0.015,-0.122c0.011,-0.033 0.027,-0.061 0.049,-0.082c0.023,-0.02 0.052,-0.036 0.087,-0.045c0.035,-0.01 0.078,-0.015 0.129,-0.015l0.451,0Z"
                  style="fill-rule:nonzero;"/>
        </g>
        <g transform="matrix(8,0,0,8,119.707,602.797)">
            <path d="M0.197,-0.7c0.015,0 0.022,0.007 0.022,0.022l0,0.26l0.468,0l0,-0.26c0,-0.015 0.007,-0.022 0.022,-0.022l0.108,0c0.015,0 0.023,0.007 0.023,0.022l0,0.656c0,0.015 -0.008,0.022 -0.023,0.022l-0.108,0c-0.015,0 -0.022,-0.007 -0.022,-0.022l0,-0.266l-0.468,0l0,0.266c0,0.015 -0.007,0.022 -0.022,0.022l-0.108,0c-0.015,0 -0.023,-0.007 -0.023,-0.022l0,-0.656c0,-0.015 0.008,-0.022 0.023,-0.022l0.108,0Z"
                  style="fill-rule:nonzero;"/>
        </g>
    </g>
    <g transform="matrix(2.53036,0,0,2.3954,-14.4142,-351.161)">
        <path d="M45.848,148.146l0.133,1.601c0,0.4 0.112,0.778 0.334,1.134l0.333,-0.267l0.334,-0.267l0.133,0.334l-0.133,0.734l-0.4,0.6l0.4,1.334l-0.067,0.6c-0.222,0.178 -0.333,0.334 -0.333,0.467l0,0.534l6.403,-5.27l0.267,0.134l-6.203,5.736l1.934,1.267c0.889,0.534 1.467,1.179 1.734,1.935c0.311,0.133 0.545,0.411 0.701,0.833c0.155,0.423 0.433,0.767 0.833,1.034c0.089,0.267 0.267,0.578 0.534,0.934l1,0.867c-0.133,0.845 -0.444,1.757 -0.933,2.735l-1.401,2.801c-0.267,0.045 -0.423,0.089 -0.467,0.134l-0.467,0.133l-0.333,0.867l-0.067,1.201l0.067,1.2l0.066,1.268c0,0.533 0.111,1.089 0.334,1.667l1.667,2.935c0.845,1.334 1.268,2.446 1.268,3.335l-0.734,4.335l-0.534,-0.8l0.134,-1.467c0,-0.845 -0.156,-1.512 -0.467,-2.001l-0.2,3.802c0,-0.712 -0.156,-1.557 -0.467,-2.535c-0.134,-0.534 -0.334,-1.123 -0.601,-1.768c-0.266,-0.644 -0.644,-1.434 -1.133,-2.367c-0.267,-0.579 -0.556,-1.357 -0.868,-2.335c-0.311,-0.978 -0.533,-1.734 -0.667,-2.268l-0.266,-0.2c-0.712,0.934 -1.323,1.99 -1.835,3.168c-0.511,1.179 -0.767,2.457 -0.767,3.836l1.334,2.401l1.401,1.934l-0.2,0.4l0.333,0.267l0.467,0.067l0,0.934c0,0.444 -0.133,0.8 -0.4,1.067c0,0.311 0.089,0.645 0.267,1l0.534,0.934l-0.401,1.468c-0.133,0.667 -0.378,1.156 -0.733,1.467l-1.401,-2.935c-0.356,-0.133 -0.578,-0.244 -0.667,-0.333l-0.334,-0.601l0.067,1.735c0,0.355 0.178,0.911 0.534,1.667l1.267,3.268l-0.6,0.934l0.4,0.534l-0.334,0.667l-0.466,0.667c-0.312,-0.134 -0.578,0.133 -0.801,0.8l0.2,0.667c0,0.311 -0.111,0.667 -0.333,1.067l-0.601,1.201l-0.466,0.534l-0.401,0.333l0.2,-1.267c0,-0.489 -0.111,-1.045 -0.333,-1.668l-0.334,-1.601l0.201,-0.867l-0.401,-0.133c0,-1.823 -0.344,-4.558 -1.033,-8.204c-0.69,-3.646 -1.034,-6.248 -1.034,-7.804l-1.068,-2.068c-0.622,-1.334 -0.978,-2.379 -1.067,-3.135c0.534,-0.667 1.223,-1.289 2.068,-1.867l2.401,-1.734c0,-0.312 0.145,-0.823 0.434,-1.535c0.289,-0.711 0.478,-1.378 0.567,-2.001l-0.2,-0.933l-0.801,0.933l0,-0.933c-0.044,-0.134 -0.089,-0.234 -0.133,-0.3c-0.045,-0.067 -0.089,-0.123 -0.134,-0.167c-0.8,0 -1.334,-0.2 -1.6,-0.601c-0.089,-0.667 -0.245,-1.2 -0.467,-1.6c-0.134,-0.401 -0.467,-0.912 -1.001,-1.534l0.267,-0.534l-0.734,-0.2l-0.6,0.934c-0.133,0.133 -0.356,0.133 -0.667,0c-0.133,-0.178 -0.245,-0.512 -0.334,-1.001l1.001,-0.533c0.089,-0.089 0.133,-0.267 0.133,-0.534l0.601,-0.334c0.4,-0.222 0.6,-0.444 0.6,-0.667c0,-0.444 0.111,-0.755 0.333,-0.933l0.401,0.2l0.4,0.066l1.267,-1.067c0.712,-0.578 1.067,-1.045 1.067,-1.4c0,-0.267 -0.133,-0.601 -0.4,-1.001c-0.089,-0.089 -0.133,-0.156 -0.133,-0.2c-0.134,-0.267 -0.223,-0.467 -0.267,-0.6c0,-0.356 -0.222,-0.601 -0.667,-0.734c0,-0.445 -0.089,-0.867 -0.267,-1.267c0,-0.356 -0.289,-0.601 -0.867,-0.734l-0.333,-0.467l1.133,-0.2l-0.8,-3.068l0.067,-0.534c0.444,-0.4 0.889,-0.622 1.334,-0.667l1.4,-0.2l0.734,0.067l0.667,0.066l0.467,0.467Zm0.934,2.935c-0.801,1.156 -1.979,1.734 -3.535,1.734l-0.934,-0.066l1.334,0.266l0.8,-0.2l1.268,-0.533c0.489,-0.267 0.845,-0.667 1.067,-1.201Zm-1.468,1.868l-0.466,0.4l-0.334,0.333l-0.2,-0.2l-0.6,0.534l-0.467,-0.067l-0.134,-0.2c0.223,-0.222 0.423,-0.333 0.601,-0.333l-0.601,0.133l-0.467,0.2l-0.333,-0.267c0,0.312 0.111,0.601 0.333,0.867l0.067,-0.266l0.467,0.467l0.2,0.4l-0.2,0.333l0.2,0.467l-0.067,-0.333l-0.066,-0.2l0.267,-0.067l0.266,0.333l-0.066,0.334c0.355,0.356 0.822,0.578 1.4,0.667c0.267,-0.045 0.445,-0.245 0.534,-0.6c0,-0.49 0.089,-0.801 0.267,-0.934l0.066,0.533l0.334,-0.333l-0.067,-0.934l0.067,-0.8c-0.311,-0.312 -0.645,-0.467 -1.001,-0.467Zm1.268,0.6l-0.134,-0.6l0.134,0.934l0,-0.334Zm-2.201,3.669l-0.467,-0.667l0.467,1.2l0,-0.533Zm1.334,-0.601l-0.734,0.601c0,0.311 0.111,0.578 0.333,0.8c0.134,-0.045 0.245,-0.245 0.334,-0.6l0.067,-0.801Zm-0.734,1.801l-0.2,-0.667l-0.267,0.667l0.467,0Zm0.667,-0.333l-0.334,0.2l0.267,0.267l0.067,-0.467Zm-2.134,0.333l0.4,0l-0.267,-0.133l-0.133,0.133Zm0.867,0.801l-1.134,-0.201l-0.4,0.467l0.133,0.401l0.4,0.266l0.267,-0.333l-0.2,-0.067l-0.2,-0.133l0.2,-0.2l0.267,-0.2l0.2,0.266l0.066,0.334l0.601,0l0.533,0.333l0.401,-0.4l0.133,-0.4c-0.178,-0.222 -0.356,-0.356 -0.534,-0.4l-0.733,0.267Zm-2.468,2.201l0.533,0.533l0.067,-1.067l0.133,-0.8l-0.667,0.467l-0.066,0.867Zm2.668,-1.268l-0.867,0.2l-0.467,0.267l-0.067,0.734c0,0.4 0.256,1.245 0.767,2.535c0.511,1.289 0.812,2.267 0.901,2.934l-0.201,1.268l1.535,-1.134l-0.467,-0.601l-0.334,-0.733l-0.2,-1.734l0.133,-1.801l0.067,-1.668l-0.8,-0.267Zm-3.402,1.401c0.089,-0.044 0.178,-0.089 0.267,-0.133c0,-0.178 0.022,-0.356 0.067,-0.534c-0.223,0 -0.334,0.222 -0.334,0.667Zm-1.201,-0.467l-0.066,0.734c0.178,0.267 0.356,0.445 0.533,0.533l-0.467,-1.267Zm1.334,0.734l-0.6,1l0.934,1.068c-0.133,-0.223 -0.2,-0.534 -0.2,-0.934c0,-0.578 -0.045,-0.956 -0.134,-1.134Zm8.938,1.267l-0.667,-0.734l0.067,2.135l0.6,-1.401Zm-1.801,3.669c-0.044,0.222 -0.089,0.355 -0.133,0.4l-0.267,0.2l-0.333,0.133l-0.267,0.601c-0.045,0.222 -0.2,0.467 -0.467,0.733l0.534,-0.333l0.466,-0.734c0.267,0 0.645,0.156 1.134,0.467l0.867,0.4c0.134,-0.4 0.356,-0.622 0.667,-0.667l-2.201,-1.2Zm-3.802,-11.006c-0.222,-0.356 -0.6,-0.667 -1.133,-0.934l0.466,0.134l1.001,-0.134c0.267,0 0.511,-0.089 0.734,-0.266l-0.467,0.667c-0.134,0.266 -0.334,0.444 -0.601,0.533Zm1.201,-2.334l-0.4,0.266c-0.089,0 -0.178,-0.011 -0.267,-0.033c-0.089,-0.022 -0.156,-0.055 -0.2,-0.1l-0.067,-0.267l0.2,-0.2l0.467,0.134l0.267,0.2Zm-1.201,1.134c-0.266,-0.045 -0.422,-0.089 -0.466,-0.134l0.466,-0.133l0,0.267Zm0.401,0.4l-0.467,0l-0.2,0.2l0.667,-0.2Z" style="fill-rule:nonzero;"/>
    </g>
    <g id="Description19"
       serif:id="Description">
    </g>
    <g id="Arrow_2_" transform="matrix(-1,1.22465e-16,-1.22465e-16,-1,124.292,250.842)">
        <path d="M95.492,92.873l-5.492,4.254l-5.492,-4.254l10.984,0Z"
              style="fill-rule:nonzero;stroke:#000;stroke-width:0.4px;stroke-linecap:round;stroke-miterlimit:1.41421;"/>
    </g>
    <g id="Arrow_2_1" serif:id="Arrow_2_" transform="matrix(-1,1.22465e-16,-1.22465e-16,-1,124.292,304)">
        <path d="M95.492,92.873l-5.492,4.254l-5.492,-4.254l10.984,0Z"
              style="fill-rule:nonzero;stroke:#000;stroke-width:0.4px;stroke-linecap:round;stroke-miterlimit:1.41421;"/>
    </g>
    <g id="Arrow_2_2" serif:id="Arrow_2_" transform="matrix(1,0,0,1,-55.708,-36)">
        <path d="M95.492,92.873l-5.492,4.254l-5.492,-4.254l10.984,0Z"
              style="fill-rule:nonzero;stroke:#000;stroke-width:0.4px;stroke-linecap:round;stroke-miterlimit:1.41421;"/>
    </g>
    <g id="Arrow_2_3" serif:id="Arrow_2_" transform="matrix(1,0,0,1,-8.208,-36)">
        <path d="M95.492,92.873l-5.492,4.254l-5.492,-4.254l10.984,0Z"
              style="fill-rule:nonzero;stroke:#000;stroke-width:0.4px;stroke-linecap:round;stroke-miterlimit:1.41421;"/>
    </g>
</svg>
